<?xml version="1.0" encoding="UTF-8" standalone="no"?>
<!-- Created with Inkscape (http://www.inkscape.org/) -->

<svg
   xmlns:dc="http://purl.org/dc/elements/1.1/"
   xmlns:cc="http://creativecommons.org/ns#"
   xmlns:rdf="http://www.w3.org/1999/02/22-rdf-syntax-ns#"
   xmlns:svg="http://www.w3.org/2000/svg"
   xmlns="http://www.w3.org/2000/svg"
   xmlns:sodipodi="http://sodipodi.sourceforge.net/DTD/sodipodi-0.dtd"
   xmlns:inkscape="http://www.inkscape.org/namespaces/inkscape"
   width="50mm"
   height="50mm"
   viewBox="0 0 50 50"
   version="1.1"
   id="svg1586"
   inkscape:version="0.92.2 2405546, 2018-03-11"
   sodipodi:docname="50.svg">
  <sodipodi:namedview
     id="base"
     pagecolor="#ffffff"
     bordercolor="#666666"
     borderopacity="1.0"
     inkscape:pageopacity="0.0"
     inkscape:pageshadow="2"
     inkscape:zoom="1.6515547"
     inkscape:cx="141.23624"
     inkscape:cy="157.10312"
     inkscape:document-units="mm"
     inkscape:current-layer="layer1"
     showgrid="false"
     inkscape:window-width="1366"
     inkscape:window-height="703"
     inkscape:window-x="0"
     inkscape:window-y="0"
     inkscape:window-maximized="1" />
  <defs
     id="defs1580" />
  <metadata
     id="metadata1583">
    <rdf:RDF>
      <cc:Work
         rdf:about="">
        <dc:format>image/svg+xml</dc:format>
        <dc:type
           rdf:resource="http://purl.org/dc/dcmitype/StillImage" />
        <dc:title></dc:title>
      </cc:Work>
    </rdf:RDF>
  </metadata>
  <g
     transform="translate(0,-247)"
     id="layer1"
     inkscape:groupmode="layer"
     inkscape:label="Layer 1">
    <g
       id="g2232"
       transform="translate(-4.4338031,-6.3331087e-5)">
      <path
         inkscape:connector-curvature="0"
         id="path2221"
         d="m 21.551647,296.91306 c -0.397509,-0.0877 -1.300447,-0.55223 -2.006536,-1.03221 -0.706082,-0.47998 -1.492614,-0.87269 -1.747843,-0.87269 -0.706322,0 -0.553987,-1.24881 0.267969,-2.1969 0.40261,-0.46439 0.732022,-1.05811 0.732022,-1.31936 0,-0.26125 0.265645,-0.62372 0.590316,-0.80549 0.516152,-0.28897 0.445971,-0.52982 -0.558602,-1.91712 -0.631913,-0.87265 -1.410393,-2.48642 -1.729976,-3.58614 -0.364029,-1.2527 -1.038418,-2.45703 -1.805658,-3.22457 -1.553271,-1.55385 -2.113105,-3.62278 -1.897754,-7.01335 0.22532,-3.54736 2.105487,-7.33217 5.357213,-10.78413 l 2.334623,-2.47839 -0.962077,-0.96243 c -2.453307,-2.45424 -0.363004,-6.2631 4.894126,-8.9179 1.190415,-0.60114 2.72705,-1.58719 3.414745,-2.19123 2.000968,-1.75753 4.138348,-2.55159 6.892571,-2.56068 2.2598,-0.007 2.505054,0.0716 3.354607,1.08164 0.50411,0.59933 1.03179,1.6145 1.172618,2.25593 0.140835,0.64144 0.737275,1.57133 1.325446,2.06642 1.333906,1.12283 2.142335,3.00716 2.13503,4.97644 -0.0068,1.82742 -0.393247,2.53172 -1.215955,2.2159 -1.260315,-0.48381 -2.96299,0.17902 -3.865241,1.50471 -1.079378,1.58593 -0.817487,2.36432 1.415013,4.20577 3.510211,2.89537 4.725706,4.33339 5.301063,6.27156 0.311738,1.05014 0.5668,2.3704 0.5668,2.93393 0,1.69382 -1.124516,4.04847 -2.805828,5.87522 -0.872484,0.94794 -1.586311,2.03941 -1.586311,2.42548 0,1.26346 -1.106912,3.87549 -2.067277,4.87827 -1.174557,1.22644 -0.868668,1.77416 0.990833,1.77416 0.793344,0 1.442445,0.16586 1.442445,0.36857 0,0.20271 0.411008,0.72608 0.913348,1.16303 0.800478,0.69625 0.848854,0.86573 0.391488,1.3713 -0.287023,0.31728 -0.684285,1.00425 -0.882806,1.5266 -0.300709,0.79123 -0.7478,1.03446 -2.679071,1.45746 -3.002444,0.65761 -6.725218,0.60599 -8.406669,-0.11655 -1.163895,-0.50014 -1.397014,-0.50507 -1.862599,-0.0392 -0.29271,0.29281 -1.505795,0.67324 -2.695735,0.84539 -1.189956,0.17216 -2.575308,0.46313 -3.078574,0.64659 -0.503271,0.18347 -1.240269,0.2618 -1.637764,0.17407 z"
         style="fill:none;stroke:#ff0000;stroke-width:0.09999999;stroke-miterlimit:4;stroke-dasharray:none" />
      <path
         inkscape:connector-curvature="0"
         id="path2219"
         d="m 23.189411,295.92354 c 0.503266,-0.2878 1.540859,-0.52912 2.305753,-0.53625 1.846489,-0.0173 3.485511,-0.9082 3.772109,-2.05052 0.127747,-0.50918 0.171309,-0.98094 0.0968,-1.04839 -0.452051,-0.40922 -5.623577,-1.10739 -7.527932,-1.0163 -1.971732,0.0943 -2.300405,0.21401 -2.513877,0.91539 -0.135067,0.44378 -0.495574,1.09177 -0.801131,1.43999 -0.501074,0.57106 -0.487861,0.65906 0.134801,0.89764 0.379693,0.14548 1.24862,0.64321 1.93096,1.10609 1.4427,0.97867 1.409008,0.97487 2.602512,0.29235 z"
         style="fill:none;stroke:#0000ff;stroke-width:0.09999999;stroke-miterlimit:4;stroke-dasharray:none" />
      <path
         inkscape:connector-curvature="0"
         id="path2217"
         d="m 38.012918,294.80455 c 2.333628,-0.32663 2.977275,-0.67232 3.640455,-1.95524 0.499969,-0.96721 0.47971,-1.09247 -0.294309,-1.8199 -0.45718,-0.42967 -1.202046,-0.78121 -1.655237,-0.78121 -0.453203,0 -1.132814,-0.16533 -1.510243,-0.3674 -0.522339,-0.27965 -1.097844,-0.14848 -2.409538,0.54923 -0.947813,0.50414 -1.967883,0.91662 -2.266833,0.91662 -0.298945,0 -1.180298,0.19086 -1.958553,0.42411 -1.215968,0.36445 -1.415015,0.57209 -1.415015,1.4761 0,0.57859 0.230575,1.1405 0.512383,1.24868 0.945121,0.36281 4.055147,0.80762 4.794802,0.68577 0.402611,-0.0663 1.555551,-0.23586 2.562088,-0.37676 z"
         style="fill:none;stroke:#0000ff;stroke-width:0.09999999;stroke-miterlimit:4;stroke-dasharray:none" />
      <path
         inkscape:connector-curvature="0"
         id="path2215"
         d="m 32.539611,290.84591 c 5.850477,-1.55863 8.21115,-4.90334 8.263356,-11.70788 0.02944,-3.8344 -0.935069,-6.21637 -3.59421,-8.87651 -2.388288,-2.38919 -2.849124,-3.356 -2.603378,-5.46178 0.121854,-1.04418 0.02791,-1.28053 -0.509087,-1.28053 -1.114592,0 -0.728139,-0.63762 0.531004,-0.87613 0.654249,-0.12393 1.683658,-0.63065 2.287579,-1.12603 l 1.098043,-0.90071 -1.714737,-0.0132 c -3.356786,-0.0257 -5.063305,-1.29978 -5.044858,-3.76621 0.0067,-0.85588 0.253464,-1.87598 0.549026,-2.26689 0.726987,-0.96153 0.675972,-1.30307 -0.194654,-1.30307 -1.016127,0 -0.914039,-0.81652 0.247364,-1.97836 1.132548,-1.13297 1.978713,-1.11153 2.495177,0.0633 0.199913,0.4547 0.568492,0.74803 0.819073,0.65182 0.250586,-0.0962 1.281141,-0.28444 2.290121,-0.41833 1.579479,-0.20962 1.834529,-0.35673 1.834529,-1.0582 0,-0.44811 -0.422377,-1.27066 -0.938615,-1.8279 -0.831633,-0.89768 -1.137543,-0.99403 -2.684028,-0.84537 -2.037957,0.19589 -4.920126,1.99101 -5.846987,3.64171 -0.347946,0.61968 -1.394783,1.45492 -2.516921,2.00819 -3.441531,1.69684 -5.215167,4.63385 -3.957716,6.55369 0.555272,0.84779 0.543158,0.96702 -0.200612,1.9734 -0.743877,1.00653 -0.758994,1.15545 -0.250754,2.46972 0.696852,1.802 0.446298,2.65982 -1.40348,4.80528 -5.143521,5.96562 -5.773769,14.99101 -1.40773,20.15912 0.942838,1.11604 1.17824,1.21217 2.528477,1.0325 0.818864,-0.10896 2.394733,0.0235 3.501921,0.29439 2.62634,0.64254 4.164528,0.65548 6.422097,0.054 z"
         style="fill:none;stroke:#0000ff;stroke-width:0.09999999;stroke-miterlimit:4;stroke-dasharray:none" />
      <path
         inkscape:connector-curvature="0"
         id="path2213"
         d="m 16.241452,280.63686 c 0.006,-1.12966 1.043393,-5.51373 1.660481,-7.01691 0.505257,-1.23078 -0.491425,-0.29529 -1.449493,1.36051 -1.337935,2.31229 -1.829273,4.50665 -1.296944,5.7923 0.579327,1.39915 1.078184,1.33673 1.085956,-0.1359 z"
         style="fill:none;stroke:#0000ff;stroke-width:0.09999999;stroke-miterlimit:4;stroke-dasharray:none" />
      <path
         inkscape:connector-curvature="0"
         id="path2211"
         d="m 42.802124,278.31164 c 0.350044,-1.86661 -0.08682,-3.48652 -1.355484,-5.02621 -0.626438,-0.76027 -1.198449,-1.32282 -1.271135,-1.25011 -0.07268,0.0727 0.198426,1.00252 0.602448,2.06625 0.404028,1.06373 0.770722,2.89303 0.814849,4.06511 0.06147,1.63209 0.185089,2.04426 0.52806,1.76038 0.246312,-0.20388 0.552875,-0.93082 0.681262,-1.61542 z"
         style="fill:none;stroke:#0000ff;stroke-width:0.09999999;stroke-miterlimit:4;stroke-dasharray:none" />
      <path
         inkscape:connector-curvature="0"
         id="path2209"
         d="m 38.920438,259.26888 c 0.837481,-0.33522 1.865613,-0.48995 2.386487,-0.35917 1.147359,0.28807 1.167771,-0.1514 0.05554,-1.19664 -0.498604,-0.46858 -1.796013,-0.99889 -3.089668,-1.26287 -1.226562,-0.25029 -2.348149,-0.57315 -2.492398,-0.71746 -0.144251,-0.1443 -0.483313,-0.0789 -0.753468,0.14544 -0.695,0.57702 -0.611027,-0.041 0.114548,-0.84303 0.333163,-0.36827 0.950809,-0.66457 1.372554,-0.65845 0.702498,0.0102 0.712448,0.0428 0.118577,0.38865 -0.936172,0.54523 -0.424981,1.06482 1.047589,1.06482 1.502043,0 3.42414,0.74059 4.129096,1.59096 1.34622,1.62388 1.281447,-0.67257 -0.09068,-3.21498 -0.897997,-1.6639 -2.137819,-2.17192 -4.567923,-1.8717 -4.914046,0.60708 -7.419192,5.1728 -3.896,7.10057 1.081227,0.59161 3.985362,0.50644 5.665687,-0.16614 z"
         style="fill:none;stroke:#0000ff;stroke-width:0.09999999;stroke-miterlimit:4;stroke-dasharray:none" />
      <path
         inkscape:connector-curvature="0"
         id="path1132"
         d="m 33.966362,252.56785 c 0.263266,-0.42613 -0.140016,-1.49764 -0.563664,-1.49764 -0.17751,0 -0.288675,0.41192 -0.247024,0.91538 0.07687,0.92912 0.436728,1.18759 0.810688,0.58226 z"
         style="fill:none;stroke:#0000ff;stroke-width:0.09999999;stroke-miterlimit:4;stroke-dasharray:none" />
      <path
         id="path2193"
         style="fill:none;stroke:#0000ff;stroke-width:0.09999999"
         d="m 21.578575,254.26994 -0.761228,0.76123 m -0.798037,1.19716 3.06759,-3.06759 m 0.757855,-0.35874 -4.075398,4.0754 m -0.279683,0.67881 5.427502,-5.4275 m 0.805602,-0.40648 -6.326183,6.32618 m -0.03284,0.43196 7.453645,-7.45364 m 1.508954,-1.10984 -8.89669,8.89669 m 0.06336,0.33577 10.362704,-10.3627 m 0.810744,-0.41162 -11.063723,11.06372 m 0.125038,0.27408 11.73397,-11.73397 m 0.532128,-0.133 -12.11627,12.11627 m 6.395143,-5.99602 6.299595,-6.2996 m -9.218733,9.21874 -3.307999,3.30799 m 7.38636,-6.98723 5.757147,-5.75715 m -10.300419,10.30042 -2.658982,2.65898 m 8.038126,-7.639 5.294324,-5.29433 m -10.872531,10.87253 -2.269014,2.26902 m 12.099125,-11.7 1.476294,-1.4763 m -11.303817,11.30382 -2.072077,2.07208 m 13.123764,-12.72465 0.686003,-0.686 m -11.709212,11.70921 -1.90103,1.90103 m 13.380751,-12.98163 0.663365,-0.66336 m -12.102287,12.10229 -1.742304,1.7423 m 13.940328,-13.5412 0.34178,-0.34178 m -12.400654,12.40065 -1.68193,1.68193 m 14.201247,-13.80213 0.273524,-0.27352 m -12.67182,12.67182 -4.008049,4.00805 m 16.825138,-16.42602 0.246917,-0.24691 m -3.583972,3.58397 -1.022985,1.02298 m -14.674531,14.67453 6.348362,-6.34836 m 13.350251,-12.95113 -0.205791,0.2058 m -5.104984,5.10498 1.951849,-1.95185 m -9.843809,9.84381 -6.605225,6.60523 m 20.026565,-19.62745 0.122921,-0.12292 m -3.366983,3.36698 -2.174874,2.17488 m -15.371558,15.37156 7.518638,-7.51864 m 13.738947,-13.33983 -0.129269,0.12927 m -5.416895,5.4169 1.24619,-1.24619 m -9.407465,9.40746 -8.239919,8.23992 m 22.170348,-21.77122 0.0972,-0.0972 m -4.630349,4.63035 -0.884898,0.8849 m -16.955321,16.95532 7.828653,-7.82865 m 14.897975,-14.49886 -0.105647,0.10565 m -5.355821,5.35582 0.655773,-0.65577 m -10.714789,10.71479 -7.582388,7.58238 m 23.255779,-22.85665 0.08395,-0.0839 m -4.939996,4.93999 -0.555739,0.55574 m -18.035258,18.03526 7.841834,-7.84184 m 15.883335,-15.48421 -0.06336,0.0634 m -3.869146,3.86915 0.106563,-0.10656 m -1.154275,1.15427 -0.779722,0.77972 m -18.297554,18.29756 8.215853,-8.21586 m 16.035818,-15.63669 -0.0541,0.0541 m -6.504055,6.50406 2.709069,-2.70907 m -12.064848,12.06484 -8.380743,8.38075 m 17.574323,-17.1752 3.110524,-3.11053 m -12.200557,12.20056 -8.604249,8.60425 m 20.756702,-20.35758 0.39218,-0.39218 m -3.287879,3.28788 -0.159974,0.15997 m -17.831807,17.83181 8.829662,-8.82966 m 12.938321,-12.5392 -0.244528,0.24453 m -21.578142,21.57814 8.97089,-8.97089 m 13.340103,-12.94098 -0.17565,0.17565 m -22.19003,22.19003 9.112118,-9.11212 m 13.741885,-13.34276 -0.179909,0.17991 m -22.731441,22.73144 9.256005,-9.25601 m 14.143668,-13.74454 -0.144429,0.14443 m -23.257462,23.25746 9.284997,-9.285 m 14.603832,-14.20471 -0.236962,0.23697 m -23.654086,23.65408 9.320332,-9.32033 m 15.047443,-14.64832 -0.248178,0.24818 m -24.121815,24.12181 9.20985,-9.20985 m 16.752632,-16.35351 -1.423924,1.42393 M 13.66896,276.54806 22.714021,267.503 m 17.015731,-16.61661 -1.103271,1.10327 m -3.814501,3.81451 1.164396,-1.1644 m -14.779053,14.77905 -7.530581,7.53058 m 25.29177,-24.89264 0.894844,-0.89485 m -3.481472,3.48147 -0.764498,0.7645 m -17.408569,17.40857 2.170832,-2.17083 m -3.433419,3.43342 -3.260014,3.26001 m 25.676878,-25.27775 0.642135,-0.64214 m -20.436709,20.43671 -1.252064,1.25206 m -4.590704,4.59071 2.526846,-2.52685 m 23.896584,-23.49746 -0.462792,0.46279 m -21.474443,21.47445 0.561658,-0.56166 m -3.308713,3.30871 -1.711469,1.71147 m 26.238719,-25.8396 0.329237,-0.32923 m -21.953542,21.95354 -0.352633,0.35263 m -4.192149,4.19215 1.552384,-1.55238 m 25.115146,-24.71603 -0.217614,0.21762 m -22.656862,22.65686 0.611351,-0.61135 m -3.195456,3.19545 -1.139316,1.13932 m 26.64135,-26.24223 0.146465,-0.14646 m -22.80167,22.80167 -0.245052,0.24505 m -3.672191,3.67219 0.881592,-0.88159 m 26.035491,-25.63637 -0.100809,0.10081 m -23.284485,23.28448 0.214333,-0.21433 m -2.921189,2.92119 -0.724521,0.72452 m 26.935616,-26.53649 0.07607,-0.0761 m -23.537755,23.53775 -0.182957,0.18296 m -3.190566,3.19056 0.573171,-0.57317 m 26.529462,-26.13034 -0.05449,0.0545 m -24.095484,24.09549 0.270544,-0.27055 m -2.70097,2.70097 -0.410408,0.41041 m 27.119742,-26.72062 0.06242,-0.0624 m -6.884678,6.88468 -0.08727,0.0873 m -17.399366,17.39937 0.201445,-0.20145 m -2.588578,2.58858 -0.292852,0.29285 m 27.174502,-26.77538 0.06815,-0.0682 m -6.695348,6.69535 -0.129663,0.12966 m -17.845179,17.84518 0.214665,-0.21467 m -2.459,2.459 -0.204068,0.20407 m 27.205412,-26.80629 0.104537,-0.10454 m -6.506018,6.50602 -0.172053,0.17205 m -18.290993,18.291 0.227884,-0.22789 m -2.277833,2.27784 -0.13093,0.13093 m 27.198354,-26.79923 0.09973,-0.0997 m -6.276667,6.27667 -0.172056,0.17206 m -18.836733,18.83673 0.350871,-0.35087 m -2.142726,2.14272 -0.06077,0.0608 m 27.181773,-26.78266 0.100007,-0.1 m -6.000715,6.00071 -0.214322,0.21432 m -19.238268,19.23827 0.325575,-0.32557 m 25.271426,-24.87231 -0.113401,0.11341 m -5.867947,5.86794 0.281233,-0.28123 m -19.620759,19.62076 -0.335069,0.33507 m 25.672843,-25.27372 0.126796,-0.1268 m -5.399516,5.39952 -0.330647,0.33064 m -20.153546,20.15355 0.406669,-0.40667 m 25.599355,-25.20023 -0.115764,0.11576 m -5.340641,5.34064 0.360824,-0.36082 m -2.956439,2.95644 -0.321025,0.32102 m -17.661494,17.6615 0.423201,-0.4232 m 25.706048,-25.30693 -0.100758,0.10076 m -5.054284,5.05428 0.513334,-0.51333 m -2.995264,2.99526 -0.487904,0.48791 m -18.754795,18.75479 1.161639,-1.16164 m 25.812741,-25.41362 -0.08575,0.0858 m -4.767926,4.76793 0.85817,-0.85817 m -3.049984,3.04998 -0.956326,0.95633 m -18.789028,18.78903 1.034035,-1.03404 m 25.85152,-25.45239 -0.06484,0.0648 m -4.546403,4.5464 0.876979,-0.87698 m -2.286019,2.28602 -1.918042,1.91804 m -18.76934,18.76934 0.828731,-0.82873 m 25.973642,-25.57452 -0.07494,0.0749 m -7.891032,7.89103 4.683801,-4.6838 m -22.671028,22.67103 -0.69324,0.69324 m 23.41676,-23.01764 0.516033,-0.51603 m -2.619236,2.61923 -2.664966,2.66497 m -18.492658,18.49266 0.557749,-0.55775 m 23.688308,-23.28919 -0.147894,0.1479 m -5.632056,5.63205 2.535583,-2.53558 m -20.39424,20.39424 -0.448459,0.44846 m 24.394978,-23.99586 0.05583,-0.0558 m -3.688157,3.68815 -2.465052,2.46506 m -18.16684,18.16684 0.36708,-0.36708 m 25.966956,-25.56784 -0.773731,0.77373 m -7.402984,7.40299 2.549765,-2.54977 m -20.290628,20.29063 -0.285701,0.2857 m 25.555275,-25.15615 0.599115,-0.59912 m -5.460707,5.46071 -2.684813,2.68482 m -17.878114,17.87811 0.204322,-0.20432 m 25.79091,-25.39179 -0.915461,0.91546 m -7.137304,7.1373 2.752608,-2.7526 m -20.409881,20.40988 -0.168329,0.16833 m 25.281984,-24.88287 0.642295,-0.64229 m -5.180639,5.18064 -2.844419,2.84442 M 17.1916,284.6 l 0.139739,-0.13974 m 20.674373,-20.27525 -2.90964,2.90964 m -17.799985,17.79999 0.111149,-0.11115 m 20.783804,-20.38468 -2.97537,2.97537 m -17.811814,17.81181 0.07928,-0.0793 m 20.915665,-20.51655 -3.0379,3.0379 m -17.843378,17.84338 0.07065,-0.0707 m 21.018387,-20.61926 -3.100627,3.10062 m -17.874744,17.87475 0.05777,-0.0578 m 21.125357,-20.72624 -3.138137,3.13814 m 0.170246,0.22888 3.175647,-3.17565 m 0.207758,0.19137 -3.208156,3.20815 m 0.191859,0.20726 3.224053,-3.22405 m -21.298151,21.29815 -0.05804,0.058 m 18.323996,-17.92487 3.245451,-3.24545 m 0.213934,0.18518 -3.267525,3.26753 m 0.191859,0.20726 3.289599,-3.2896 m 0.213934,0.18519 -3.311673,3.31167 m 0.19186,0.20727 3.333747,-3.33375 m 0.213933,0.18519 -3.355821,3.35582 m 0.19223,0.20689 3.377524,-3.37752 m 0.213934,0.18519 -3.399095,3.39909 m 0.192364,0.20676 3.420665,-3.42066 m 0.213933,0.18519 -3.442235,3.44223 m 0.192363,0.20676 3.455187,-3.45519 m -21.972062,21.97206 -0.06974,0.0697 m 18.763278,-18.36415 3.475306,-3.47531 m -21.984872,21.98487 -0.119738,0.11974 m 18.804509,-18.40538 3.496882,-3.49689 m -21.990716,21.99072 -0.928005,0.928 m 19.597045,-19.19792 3.518458,-3.51846 m -21.996561,21.99657 -1.266936,1.26693 m 19.920245,-19.52112 3.540034,-3.54003 m -21.987194,21.98719 -2.264426,2.26443 m 20.877551,-20.47843 3.570851,-3.57085 m -21.946106,21.9461 -0.723127,0.72313 m -2.198351,2.19835 1.143371,-1.14337 m 23.920994,-23.52187 -3.613649,3.61365 m -18.632273,18.63227 0.326651,-0.32665 m -2.351362,2.35136 -1.064523,1.06452 m 21.875491,-21.47637 3.656447,-3.65644 m -21.776085,21.77608 -0.253215,0.25322 m -3.457818,3.45782 0.345564,-0.34557 m 25.318852,-24.91973 -2.752607,2.75261 m -0.927154,0.92715 0.332521,-0.33252 m -18.279885,18.27989 -0.150093,0.15009 m -3.719291,3.71929 0.21697,-0.21697 m 25.45374,-25.05462 -2.699935,2.69994 m -1.006655,1.00665 0.273208,-0.2732 m -17.931353,17.93135 -0.157304,0.1573 m -3.852587,3.85259 0.159502,-0.1595 m 25.389325,-24.99021 -2.685132,2.68514 m -1.066795,1.06679 0.237426,-0.23742 m -17.583872,17.58387 -0.227176,0.22717 m -3.930602,3.93061 0.140084,-0.14009 m 25.273087,-24.87396 -2.653148,2.65315 m -1.126935,1.12693 0.210206,-0.21021 m -17.287545,17.28755 -0.238695,0.23869 m -4.044216,4.04422 0.131667,-0.13167 m 25.162351,-24.76323 -2.617829,2.61783 m -1.187075,1.18708 0.182986,-0.18299 m -16.991217,16.99122 -0.250215,0.25022 m -4.173964,4.17396 0.139385,-0.13939 m 25.051614,-24.65249 -2.582509,2.58251 m -1.256729,1.25673 0.165279,-0.16528 m -16.69489,16.69489 -0.261735,0.26174 m -4.309542,4.30954 0.153428,-0.15343 m 24.912386,-24.51326 -2.531783,2.53178 m -1.332619,1.33262 0.155417,-0.15542 m -16.379916,16.37992 -0.280919,0.28092 m -4.445121,4.44512 0.148489,-0.14849 m 24.796015,-24.39689 -2.499917,2.49991 m -1.393523,1.39353 0.140312,-0.14032 m -16.120013,16.12002 -0.274927,0.27492 m -4.545562,4.54557 0.143551,-0.14355 m 24.660924,-24.2618 -2.449334,2.44933 m -1.459383,1.45938 0.130162,-0.13016 m -15.860109,15.86011 -0.259938,0.25994 m -4.655301,4.6553 0.138913,-0.13892 m 24.518923,-24.1198 -2.391839,2.39184 m -1.533291,1.53329 0.128061,-0.12806 m -15.600205,15.60021 -0.24495,0.24495 m -4.765015,4.76501 0.134251,-0.13425 m 24.388007,-23.98888 -2.345429,2.34543 m -1.624524,1.62452 0.143285,-0.14328 m -15.340303,15.3403 -0.229961,0.22996 m -4.87473,4.87473 0.1266,-0.1266 m 24.200765,-23.80164 -2.256271,2.25627 m -1.699189,1.69919 0.158508,-0.15851 m -15.06369,15.06369 -0.231682,0.23168 m -4.984444,4.98444 0.117258,-0.11725 m 24.037456,-23.63834 -2.219968,2.21997 m -1.742323,1.74232 0.172812,-0.17281 m -14.82795,14.82795 -0.19253,0.19253 m -5.072556,5.07256 0.08631,-0.0863 m 23.874148,-23.47502 -2.183665,2.18366 m -1.817017,1.81702 0.163467,-0.16347 m -14.526374,14.52638 -0.175723,0.17572 m 16.469895,-16.07077 2.147362,-2.14736 m -3.868799,3.8688 -0.170273,0.17027 m -14.235824,14.23582 0.165147,-0.16514 m -5.312751,5.31275 -0.05207,0.0521 m 21.450008,-21.05088 2.102513,-2.10252 m -3.900385,3.90039 -0.218679,0.21868 m -13.891419,13.89141 0.154572,-0.15457 m 17.889386,-17.49026 -2.085564,2.08556 m -1.99751,1.99751 0.195574,-0.19557 m -13.6701,13.6701 -0.143997,0.144 m 15.666458,-15.26734 2.080937,-2.08094 m -3.886937,3.88694 -0.231485,0.23149 m -13.286612,13.28661 0.137593,-0.13759 m -4.816122,4.81612 -0.275397,0.2754 m 20.328448,-19.92933 2.076311,-2.07631 m -3.839074,3.83907 -0.314698,0.3147 m -12.954701,12.9547 0.163697,-0.1637 m -4.566759,4.56676 -0.38866,0.38866 m 19.873461,-19.47434 2.003163,-2.00316 m -3.833059,3.83306 -0.280317,0.28032 m -12.639368,12.63937 0.200003,-0.20001 m -4.323263,4.32326 -0.447444,0.44745 m 19.283559,-18.88444 2.006249,-2.00625 m -3.763424,3.76343 -0.339259,0.33926 m -12.295436,12.29543 0.247483,-0.24748 m -4.232863,4.23286 -0.370193,0.3702 m 18.710717,-18.3116 1.903182,-1.90318 m -3.587636,3.58764 -0.398201,0.3982 m -11.952607,11.9526 0.283289,-0.28329 m -4.056971,4.05698 -0.416884,0.41688 m 18.221754,-17.82263 1.649303,-1.6493 m -3.293689,3.29368 -0.457143,0.45715 m -11.653866,11.65386 0.436598,-0.4366 m -4.100794,4.1008 -0.316867,0.31687 m 17.565393,-17.16627 1.578574,-1.57858 m -2.892853,2.89285 -0.639133,0.63914 m -11.364905,11.3649 0.599688,-0.59969 m -4.073347,4.07335 -0.28812,0.28812 m 15.103737,-14.70461 3.540245,-3.54025 m -13.757531,13.75753 -1.09557,1.09557 m -3.305584,3.30559 0.307683,-0.30769 m 16.832685,-16.43356 -2.549329,2.54933 m -11.317823,11.31782 1.478893,-1.47889 m -3.961512,3.96151 -0.267558,0.26756 m 13.984753,-13.58563 1.538805,-1.5388 m -10.788262,10.78826 -0.187747,0.18774 m -2.078289,2.07829 0.527314,-0.52731 m -1.627784,1.62778 -0.854395,0.8544 m 13.38711,-12.98799 0.552443,-0.55244 m -9.212425,9.21242 -0.149637,0.14964 m -4.063095,4.06309 2.004028,-2.00402 m 10.893925,-10.49481 -0.108487,0.10849 m -8.188159,8.18816 0.120179,-0.12018 m -2.672189,2.67219 -1.403978,1.40398 m 12.08861,-11.68949 0.109991,-0.10999 m -7.526421,7.52642 -0.325624,0.32562 m -3.76722,3.76722 0.887794,-0.88779 m 10.653833,-10.25471 -0.222103,0.2221 m -6.978957,6.97896 0.348289,-0.34829 m -3.66286,3.66286 -0.284138,0.28414 m 10.376361,-9.97724 0.476482,-0.47648 m -6.273896,6.27389 -0.40395,0.40395 m -3.844649,3.84465 0.132823,-0.13282 m 9.92807,-9.52895 -0.236486,0.23649 m -5.477136,5.47714 0.574095,-0.5741 m -4.552698,4.5527 -0.08437,0.0844 m 9.134697,-8.73557 0.557894,-0.55789 m -4.030743,4.03074 -0.675786,0.67579 m -4.699834,4.69983 0.11348,-0.11348 m 8.645644,-8.24652 -3.582749,3.58275 m -4.883631,4.88363 0.136078,-0.13608 m 7.511387,-7.11226 -1.92349,1.92349 m -5.424368,5.42436 0.147668,-0.14766 m 6.709925,-6.31081 -0.794256,0.79426 m -5.76373,5.76373 0.183041,-0.18304 m 6.295954,-5.89683 -0.27165,0.27165 m -5.869478,5.86947 0.185473,-0.18547 m 6.140465,-5.74134 -0.171414,0.17141 m -5.821957,5.82196 0.193204,-0.1932 m 6.036288,-5.63717 -0.109684,0.10968 m -5.763582,5.76359 0.177277,-0.17728 m 5.97543,-5.57631 -0.09502,0.095 m -5.686786,5.68679 0.153272,-0.15328 m 5.993081,-5.59395 -0.165458,0.16545 m -5.609991,5.60999 0.141175,-0.14117 m 5.998824,-5.5997 -0.167922,0.16792 m -5.601173,5.60117 0.129077,-0.12907 m 6.00538,-5.60626 -0.182481,0.18248 m -5.581072,5.58107 0.153917,-0.15392 m 5.970415,-5.57129 -0.199419,0.19942 m -5.554009,5.55401 0.120661,-0.12066 m 5.993547,-5.59443 -0.261623,0.26163 m -5.434837,5.43483 0.100013,-0.10001 m 5.952584,-5.55346 -0.328737,0.32874 m -5.307323,5.30732 0.07934,-0.0793 m 5.80535,-5.40623 -0.342944,0.34295 m -5.125209,5.1252 0.130736,-0.13073 m 5.475056,-5.07593 -0.240934,0.24093 m -4.948321,4.94832 0.182132,-0.18213 m 5.150112,-4.75099 -0.144275,0.14427 m -4.771432,4.77144 0.233528,-0.23353 m 4.882488,-4.48337 -0.123441,0.12344 m -4.576038,4.57604 0.284924,-0.28492 m 4.610427,-4.21131 -0.122505,0.12251 m -4.27623,4.27623 0.303597,-0.3036 m 4.291009,-3.89188 -0.116448,0.11644 m -4.006409,4.00641 0.260946,-0.26095 m 4.06418,-3.66505 -0.185839,0.18584 m -3.667537,3.66753 0.275965,-0.27596 m 3.782801,-3.38368 -0.279718,0.27972 m -3.307298,3.3073 0.353249,-0.35325 m 3.413317,-3.0142 -0.865582,0.86559 m -2.468814,2.46881 0.400101,-0.4001 m 2.952456,-2.55334 -2.750705,2.75071 m 0.530469,-0.13135 1.536243,-1.53624 m -0.431591,0.83071 -0.407893,0.4079"
         inkscape:connector-curvature="0" />
    </g>
  </g>
</svg>
