<?xml version="1.0" encoding="UTF-8" standalone="no"?>
<!-- Created with Inkscape (http://www.inkscape.org/) -->

<svg
   xmlns:dc="http://purl.org/dc/elements/1.1/"
   xmlns:cc="http://creativecommons.org/ns#"
   xmlns:rdf="http://www.w3.org/1999/02/22-rdf-syntax-ns#"
   xmlns:svg="http://www.w3.org/2000/svg"
   xmlns="http://www.w3.org/2000/svg"
   xmlns:sodipodi="http://sodipodi.sourceforge.net/DTD/sodipodi-0.dtd"
   xmlns:inkscape="http://www.inkscape.org/namespaces/inkscape"
   width="75mm"
   height="75mm"
   viewBox="0 0 75 75"
   version="1.1"
   id="svg1586"
   inkscape:version="0.92.2 2405546, 2018-03-11"
   sodipodi:docname="75.svg">
  <sodipodi:namedview
     id="base"
     pagecolor="#ffffff"
     bordercolor="#666666"
     borderopacity="1.0"
     inkscape:pageopacity="0.0"
     inkscape:pageshadow="2"
     inkscape:zoom="0.82577733"
     inkscape:cx="121.03123"
     inkscape:cy="68.979071"
     inkscape:document-units="mm"
     inkscape:current-layer="layer1"
     showgrid="false"
     inkscape:window-width="1366"
     inkscape:window-height="703"
     inkscape:window-x="0"
     inkscape:window-y="0"
     inkscape:window-maximized="1" />
  <defs
     id="defs1580" />
  <metadata
     id="metadata1583">
    <rdf:RDF>
      <cc:Work
         rdf:about="">
        <dc:format>image/svg+xml</dc:format>
        <dc:type
           rdf:resource="http://purl.org/dc/dcmitype/StillImage" />
        <dc:title></dc:title>
      </cc:Work>
    </rdf:RDF>
  </metadata>
  <g
     inkscape:label="Layer 1"
     inkscape:groupmode="layer"
     id="layer1"
     transform="translate(0,-222)">
    <path
       style="fill:none;stroke:#0000ff;stroke-width:0.1;stroke-miterlimit:4;stroke-dasharray:none"
       d="m 44.305915,230.3323 c 0.395308,-0.63963 -0.210241,-2.24798 -0.846371,-2.24798 -0.266541,0 -0.433461,0.6183 -0.370919,1.37399 0.11543,1.39463 0.65577,1.78259 1.21729,0.87399 z"
       id="path1657" />
    <path
       style="fill:none;stroke:#0000ff;stroke-width:0.1;stroke-miterlimit:4;stroke-dasharray:none"
       d="m 51.744723,240.39063 c 1.257522,-0.50317 2.801317,-0.73543 3.583437,-0.53913 1.72282,0.43241 1.75347,-0.22725 0.0834,-1.79616 -0.74868,-0.70335 -2.696808,-1.49935 -4.6393,-1.89559 -1.841748,-0.37569 -3.525869,-0.8603 -3.742467,-1.07691 -0.216601,-0.2166 -0.725721,-0.11837 -1.131372,0.2183 -1.04358,0.86611 -0.91749,-0.0615 0.172,-1.26539 0.500261,-0.55278 1.42769,-0.99754 2.060962,-0.98835 1.054838,0.0153 1.069779,0.0642 0.178049,0.58337 -1.405711,0.8184 -0.638131,1.59831 1.573011,1.59831 2.255398,0 5.141527,1.11164 6.200057,2.38805 2.02142,2.43747 1.92416,-1.00953 -0.13616,-4.82572 -1.34839,-2.49754 -3.210048,-3.26008 -6.858978,-2.80945 -7.3787,0.91124 -11.14031,7.76444 -5.850051,10.65804 1.62352,0.88801 5.984232,0.76018 8.50733,-0.24937 z"
       id="path1655" />
    <path
       style="fill:none;stroke:#0000ff;stroke-width:0.1;stroke-miterlimit:4;stroke-dasharray:none"
       d="m 57.57328,268.97404 c 0.52561,-2.8018 -0.13037,-5.23331 -2.03533,-7.5444 -0.94063,-1.14117 -1.799536,-1.98557 -1.908677,-1.87643 -0.109138,0.10913 0.297947,1.50479 0.904607,3.10147 0.60667,1.59667 1.15728,4.34247 1.22354,6.10178 0.0923,2.44978 0.27792,3.06846 0.79291,2.64235 0.36985,-0.30603 0.83017,-1.39717 1.02295,-2.42477 z"
       id="path1653" />
    <path
       style="fill:none;stroke:#0000ff;stroke-width:0.1;stroke-miterlimit:4;stroke-dasharray:none"
       d="m 17.691024,272.46423 c 0.009,-1.69564 1.56671,-8.27618 2.4933,-10.53247 0.75867,-1.84742 -0.7379,-0.44324 -2.17649,2.04214 -2.00898,3.47078 -2.74675,6.76454 -1.94743,8.69431 0.86989,2.10014 1.61895,2.00645 1.63062,-0.20398 z"
       id="path1651" />
    <path
       style="fill:none;stroke:#0000ff;stroke-width:0.1;stroke-miterlimit:4;stroke-dasharray:none"
       d="m 42.163573,287.78814 c 8.784801,-2.33952 12.329477,-7.35997 12.407867,-17.57367 0.0442,-5.75549 -1.404055,-9.33085 -5.396896,-13.32375 -3.586141,-3.58621 -4.278111,-5.03741 -3.90911,-8.1982 0.18297,-1.56734 0.0419,-1.9221 -0.764421,-1.9221 -1.673619,0 -1.09334,-0.95708 0.79733,-1.31508 0.98239,-0.18602 2.528102,-0.94661 3.434921,-1.69019 l 1.64877,-1.35197 -2.574769,-0.0198 c -5.040392,-0.0386 -7.602821,-1.95098 -7.575121,-5.65313 0.01,-1.28469 0.380589,-2.81587 0.824391,-3.40263 1.09161,-1.44327 1.015008,-1.95592 -0.292283,-1.95592 -1.525768,0 -1.372478,-1.22561 0.37143,-2.96954 1.700581,-1.70061 2.971142,-1.66843 3.746641,0.095 0.30018,0.6825 0.85362,1.12279 1.229881,0.97839 0.376269,-0.14438 1.923701,-0.42695 3.438739,-0.62793 2.37167,-0.31463 2.754641,-0.53545 2.754641,-1.58836 0,-0.67262 -0.63422,-1.90728 -1.40938,-2.74371 -1.248741,-1.34742 -1.708081,-1.49205 -4.03021,-1.26891 -3.0601,0.29403 -7.38783,2.98854 -8.77956,5.46626 -0.52246,0.93014 -2.094341,2.18385 -3.779291,3.01432 -5.16764,2.54697 -7.830849,6.95546 -5.94272,9.83716 0.833771,1.27254 0.81558,1.45151 -0.301229,2.9621 -1.116971,1.51081 -1.13967,1.73434 -0.376521,3.70708 1.046361,2.70483 0.670141,3.99243 -2.107399,7.21278 -7.72327,8.95448 -8.66962,22.50169 -2.113781,30.25909 1.415721,1.67519 1.76919,1.81948 3.796641,1.5498 1.229569,-0.16355 3.595819,0.0353 5.25832,0.44188 3.943589,0.96446 6.25326,0.98389 9.643119,0.0811 z"
       id="path1649" />
    <path
       style="fill:none;stroke:#0000ff;stroke-width:0.1;stroke-miterlimit:4;stroke-dasharray:none"
       d="m 50.382034,293.73011 c 3.504066,-0.49028 4.470536,-1.00916 5.466336,-2.93485 0.75073,-1.45179 0.72031,-1.6398 -0.44192,-2.73169 -0.68648,-0.64493 -1.804937,-1.1726 -2.485427,-1.1726 -0.680508,0 -1.70098,-0.24817 -2.267709,-0.55148 -0.784321,-0.41975 -1.648471,-0.22286 -3.61805,0.8244 -1.423191,0.75673 -2.95488,1.37587 -3.40377,1.37587 -0.448881,0 -1.772279,0.28647 -2.94087,0.63659 -1.825841,0.54704 -2.12472,0.85872 -2.12472,2.21564 0,0.86847 0.34622,1.7119 0.76937,1.87429 1.419149,0.54458 6.089018,1.21224 7.199649,1.02934 0.604542,-0.0995 2.335742,-0.35403 3.847111,-0.56551 z"
       id="path1647" />
    <path
       style="fill:none;stroke:#0000ff;stroke-width:0.1;stroke-miterlimit:4;stroke-dasharray:none"
       d="m 28.123753,295.40972 c 0.755681,-0.43199 2.313681,-0.79421 3.46221,-0.80492 2.772601,-0.0259 5.23368,-1.36322 5.664021,-3.07785 0.19182,-0.76428 0.25723,-1.47241 0.145359,-1.57365 -0.678779,-0.61424 -8.4441,-1.66221 -11.30359,-1.52547 -2.960659,0.14158 -3.454179,0.32123 -3.774719,1.374 -0.20281,0.66612 -0.74413,1.63877 -1.20294,2.16145 -0.75239,0.85716 -0.73255,0.98926 0.20241,1.34736 0.57013,0.21837 1.87487,0.96548 2.899439,1.66026 2.16629,1.46899 2.1157,1.4633 3.90781,0.43882 z"
       id="path1645" />
    <path
       style="fill:none;stroke:#ff0000;stroke-width:0.1;stroke-miterlimit:4;stroke-dasharray:none"
       d="m 25.664564,296.89501 c -0.596881,-0.1317 -1.952691,-0.82891 -3.01292,-1.54937 -1.06022,-0.72045 -2.24124,-1.30991 -2.62448,-1.30991 -1.06058,0 -0.83184,-1.87449 0.40237,-3.29758 0.60454,-0.69706 1.09917,-1.58823 1.09917,-1.98037 0,-0.39215 0.39888,-0.93622 0.88639,-1.20906 0.77503,-0.43374 0.66965,-0.79526 -0.83877,-2.87762 -0.94885,-1.30986 -2.11778,-3.73214 -2.59765,-5.38283 -0.54661,-1.88033 -1.55924,-3.68804 -2.711291,-4.84012 -2.332319,-2.33236 -3.172939,-5.43784 -2.849579,-10.52713 0.33833,-5.32463 3.1615,-11.00568 8.04414,-16.18712 l 3.505559,-3.72008 -1.444609,-1.44463 c -3.68377,-3.68384 -0.54507,-9.40098 7.348789,-13.38587 1.787471,-0.90232 4.094811,-2.3824 5.127421,-3.28907 3.00456,-2.63807 6.213948,-3.82997 10.349561,-3.84361 3.393209,-0.0112 3.76147,0.10752 5.037119,1.62355 0.756949,0.8996 1.549288,2.42339 1.760749,3.38619 0.211471,0.9628 1.107057,2.35858 1.990227,3.10172 2.00293,1.68538 3.21683,4.51378 3.20586,7.46969 -0.0102,2.74299 -0.59048,3.80014 -1.82582,3.32609 -1.89243,-0.7262 -4.449087,0.26872 -5.803865,2.25859 -1.620742,2.3805 -1.2275,3.54888 2.124718,6.31292 5.270767,4.34598 7.095897,6.50447 7.959827,9.41369 0.46809,1.57627 0.85108,3.558 0.85108,4.40387 0,2.54243 -1.68852,6.07679 -4.2131,8.81877 -1.31008,1.42287 -2.38193,3.06118 -2.38193,3.64067 0,1.89647 -1.662086,5.81717 -3.104126,7.32235 -1.763659,1.8409 -1.304351,2.66304 1.487789,2.66304 1.191247,0 2.165907,0.24896 2.165907,0.55323 0,0.30427 0.61715,1.08985 1.37144,1.74571 1.20196,1.04509 1.2746,1.29948 0.58784,2.05835 -0.43098,0.47624 -1.02749,1.50739 -1.32558,2.29144 -0.45153,1.18765 -1.12286,1.55274 -4.022767,2.18766 -4.508328,0.98708 -10.09827,0.90961 -12.623059,-0.17494 -1.74765,-0.75072 -2.09769,-0.75811 -2.79679,-0.0589 -0.43952,0.43952 -2.261031,1.01055 -4.04779,1.26895 -1.786781,0.25841 -3.86696,0.69515 -4.622641,0.97053 -0.755689,0.2754 -1.86233,0.39297 -2.459189,0.26129 z"
       id="path1132" />
    <path
       inkscape:connector-curvature="0"
       d="m 25.683227,232.64601 -1.364438,1.36444 m -0.58153,0.98065 3.100475,-3.10047 m 1.205825,-0.8067 -4.848799,4.8488 m -0.431015,0.83013 6.539507,-6.5395 m 0.594105,-0.19499 -7.541854,7.54186 m 0.05372,0.3454 8.380046,-8.38005 m 0.893791,-0.49467 -9.41892,9.41892 m 0.02358,0.37555 10.339136,-10.33914 m 1.011145,-0.61202 -11.407582,11.40758 m 0.0855,0.31362 13.496886,-13.49688 m 1.22009,-0.82097 -14.655573,14.65557 m 0.06847,0.33065 15.757491,-15.75749 m 1.138236,-0.73911 -16.785973,16.78597 m 0.109753,0.28937 17.161639,-17.16164 m 0.79086,-0.39174 -17.819759,17.81976 m 0.149863,0.24926 18.214445,-18.21444 m 0.718321,-0.3192 -18.782904,18.7829 m 9.523074,-9.12395 9.682063,-9.68206 m -13.869562,13.86956 -5.1614,5.1614 m 10.555817,-10.15669 8.982961,-8.98296 m -14.985867,14.98586 -4.368769,4.36877 m 10.993578,-10.59445 8.883295,-8.8833 m -15.484128,15.48413 -4.208602,4.2086 m 11.977902,-11.57878 8.169393,-8.16939 m -16.173803,16.1738 -3.781462,3.78146 m 18.076867,-17.67774 2.332963,-2.33296 m -6.408835,6.40883 -1.087667,1.08767 m -12.713768,12.71377 3.444648,-3.44465 m 17.234304,-16.83518 -1.917446,1.91744 m -18.561946,18.56195 3.255534,-3.25554 m 17.639758,-17.24063 -1.844147,1.84415 m -18.851585,18.85158 3.085695,-3.08569 m 18.025938,-17.62682 -1.266544,1.26654 m -19.64553,19.64553 2.935807,-2.9358 m 18.392167,-17.99305 -1.08739,1.08739 m -20.041024,20.04103 2.816009,-2.81601 m 18.727027,-18.32791 -0.91083,0.91083 m -20.432646,20.43265 2.71678,-2.71678 m 19.018939,-18.61982 -0.91221,0.91221 m -20.623027,20.62303 2.633761,-2.63376 m 19.293719,-18.8946 -0.696177,0.69618 m -26.49214,26.49214 8.034611,-8.03461 m 19.54595,-19.14683 -0.600745,0.60075 m -6.528132,6.52813 1.7546,-1.7546 m -14.031661,14.03166 -9.745637,9.74564 m 28.960057,-28.56094 0.583761,-0.58376 m -5.166524,5.16652 -2.831561,2.83157 m -21.551805,21.5518 9.900627,-9.90063 m 20.045021,-19.6459 -0.555133,0.55514 m -7.808543,7.80854 3.29667,-3.29667 m -14.830466,14.83047 -11.315925,11.31592 m 31.08265,-30.68353 0.474924,-0.47492 m -5.055801,5.0558 -3.478186,3.47819 m -23.198011,23.19801 11.637899,-11.6379 m 20.438277,-20.03915 -0.449328,0.44932 m -4.936894,4.9369 0.230852,-0.23085 m -1.001852,1.00185 -2.451697,2.45169 M 16.4625,255.03778 28.68134,242.81894 m 20.689016,-20.28989 -0.441232,0.44123 m -5.007464,5.00747 0.170963,-0.17097 m -1.26188,1.26188 -2.032824,2.03283 m -24.818144,24.81814 12.757247,-12.75725 m 20.952109,-20.55298 -0.407734,0.40773 m -5.145191,5.14519 0.14102,-0.14102 m -1.473749,1.47375 -1.654419,1.65442 m -25.488297,25.4883 12.828956,-12.82896 m 21.480945,-21.08182 -0.406438,0.40644 m -5.283437,5.28343 0.150412,-0.15041 m -1.560562,1.56056 -1.370469,1.37047 m -26.446852,26.44686 12.061358,-12.06136 m 23.090796,-22.69168 -0.38266,0.38266 m -5.397442,5.39745 0.145962,-0.14597 m -1.637655,1.63766 -1.156604,1.1566 m -26.731057,26.73106 12.001453,-12.00145 m 23.377638,-22.97852 -0.343708,0.34371 m -5.528621,5.52862 0.161836,-0.16184 m -1.714238,1.71424 -1.019151,1.01915 m -27.13947,27.13947 12.085102,-12.0851 m 23.692454,-23.29333 -0.301828,0.30183 m -5.69383,5.69383 0.236937,-0.23694 m -1.687304,1.6873 -1.171939,1.17194 m -27.363853,27.36386 12.33107,-12.33107 m 23.844952,-23.44583 -0.292561,0.29256 m -5.799899,5.7999 0.313977,-0.31398 m -1.703676,1.70368 -1.357535,1.35753 m -27.553212,27.55321 12.633789,-12.63379 m 23.953321,-23.55419 -0.283295,0.28329 m -9.773478,9.77348 4.278297,-4.2783 m -18.085015,18.08502 -12.843634,12.84363 m 36.627301,-36.22818 0.269601,-0.2696 m -5.731655,5.73166 -4.48179,4.48179 m -26.803471,26.80347 13.067223,-13.06723 m 24.118155,-23.71903 -0.237988,0.23799 m -10.347085,10.34709 4.937701,-4.93771 m -18.367209,18.36721 -13.290812,13.29081 m 37.24437,-36.84524 0.229486,-0.22949 m -5.417684,5.41769 -1.62386,1.62386 m -3.802032,3.80203 0.472195,-0.4722 m -13.708088,13.70809 -13.515405,13.51541 m 37.542353,-37.14324 0.220983,-0.22098 m -5.070137,5.07014 -1.130603,1.1306 m -4.912982,4.91298 0.162409,-0.16241 m -13.196352,13.19636 -13.670381,13.67038 m 37.776633,-37.37751 0.189428,-0.18943 m -4.615082,4.61508 -0.887167,0.88717 m -32.518521,32.51852 13.826195,-13.8262 m 24.341165,-23.94204 -0.186272,0.18627 m -4.889651,4.88966 0.725923,-0.72593 m -19.890062,19.89006 -13.982008,13.98201 m 38.185544,-37.78642 0.183116,-0.18312 m -4.023605,4.02361 -0.636009,0.63601 M 13.70527,263.78185 27.819782,249.66734 m 24.460854,-24.06173 -0.163071,0.16307 m -4.200677,4.20068 0.676569,-0.67657 m -20.704983,20.70498 -14.198255,14.19826 m 38.546017,-38.1469 0.170201,-0.1702 m -3.339994,3.33999 -0.583858,0.58386 M 13.675169,264.6102 27.915811,250.36956 m 24.616427,-24.21731 -0.17733,0.17733 m -3.386954,3.38695 0.571035,-0.57103 m -21.612276,21.61228 -14.266594,14.26659 m 38.809982,-38.41086 0.187938,-0.18794 m -2.642358,2.64236 -0.602645,0.60265 m -35.767968,35.76796 14.21422,-14.21422 m 24.887557,-24.48843 -0.213879,0.21388 m -2.6831,2.6831 0.642506,-0.64251 m -22.722716,22.72272 -14.132532,14.13253 m 38.950012,-38.55089 0.256204,-0.2562 m -1.896215,1.89621 -0.660429,0.66043 m -9.385945,9.38595 0.09278,-0.0928 m -13.535446,13.53544 -13.809903,13.8099 m 37.041735,-36.64261 2.254465,-2.25446 m -11.791006,11.791 -0.09862,0.0986 M 13.65924,266.62174 26.860002,253.42098 m 26.188072,-25.78895 -1.962091,1.96209 m -5.663693,5.66369 1.623645,-1.62364 m -5.732714,5.73271 -0.1067,0.1067 M 13.670298,267.0098 26.222911,254.45719 m 26.928856,-26.52973 -1.669716,1.66971 m -5.436711,5.43671 1.638715,-1.63871 m -6.204603,6.2046 -0.121166,0.12117 M 13.683735,267.39549 23.84288,257.23634 m 29.446273,-29.04715 -1.450238,1.45024 m -5.120189,5.12019 1.429085,-1.42908 m -6.466111,6.46611 -0.171364,0.17136 m -20.946941,20.94694 2.482791,-2.48279 m -5.067541,5.06754 -4.255362,4.25536 m 38.467233,-38.06811 1.240542,-1.24054 m -4.866534,4.86654 -0.08427,0.0843 m -1.397092,1.39709 0.225004,-0.225 m -5.424213,5.42421 -0.169582,0.16958 m -21.071449,21.07145 2.085969,-2.08597 m -4.978262,4.97826 -3.987793,3.9878 m 38.779285,-38.38017 1.030846,-1.03084 m -6.112193,6.11219 -0.110771,0.11077 m -5.431601,5.4316 0.167799,-0.1678 m -20.128527,20.12853 -1.47447,1.47447 m -6.68082,6.68082 3.171511,-3.17151 m 36.753173,-36.35405 -0.876046,0.87605 m -10.728589,10.72858 0.187848,-0.18784 m -20.662652,20.66265 -1.295506,1.2955 m -6.509763,6.50977 2.826042,-2.82604 m 37.227906,-36.82879 -0.739508,0.73951 m -10.82177,10.82177 0.215523,-0.21552 m -21.3343,21.3343 -1.060979,1.06098 m -6.243261,6.24326 2.517372,-2.51737 m 37.636163,-37.23705 -0.602971,0.60298 m -10.875421,10.87542 0.20367,-0.20367 m -21.903,21.903 -0.929402,0.9294 m -5.976758,5.97676 2.16893,-2.16893 m 38.084193,-37.68507 -0.507444,0.50744 m -10.888064,10.88806 0.191817,-0.19181 m -22.201362,22.20136 -1.112452,1.11245 m -5.665965,5.66597 1.94573,-1.94573 m 38.430307,-38.03119 -0.438911,0.43891 m -10.897039,10.89704 0.211797,-0.2118 m -22.889458,22.88946 -0.817166,0.81717 m -5.474933,5.47493 1.685595,-1.68559 m 38.818321,-38.4192 -0.376017,0.37602 m -10.906014,10.90601 0.246342,-0.24634 m -23.400351,23.40035 -0.733413,0.73341 m -5.234024,5.23403 1.434632,-1.43464 m 39.167051,-38.76792 -0.346075,0.34607 m -4.971435,4.97143 0.08048,-0.0805 m -5.71148,5.71148 -0.228446,0.22844 m -24.331169,24.33117 0.735833,-0.73583 m -4.45499,4.45499 -1.273959,1.27396 m 40.37496,-39.97584 0.326843,-0.32684 m -5.070635,5.07063 -0.125847,0.12585 m -5.884328,5.88433 0.262639,-0.26264 m -24.354483,24.35448 -0.676502,0.67651 m -4.752209,4.7522 1.091307,-1.0913 m 39.713854,-39.31473 -0.31085,0.31085 m -4.767843,4.76784 0.181599,-0.1816 m -5.793973,5.79397 -0.296832,0.29683 M 19.034704,266.834 19.70128,266.16742 m -4.20807,4.20807 -0.967933,0.96794 m 40.591981,-40.19286 0.314665,-0.31467 m -4.722308,4.72231 -0.238597,0.2386 m -5.934084,5.93408 0.332366,-0.33237 m -25.318417,25.31842 -0.662718,0.66272 m -4.231994,4.23199 0.815732,-0.81573 m 40.163817,-39.76469 -0.335003,0.335 m -4.508113,4.50811 0.261332,-0.26133 m -5.819289,5.81929 -0.363305,0.3633 m -26.090745,26.09075 0.781715,-0.78172 m -4.059628,4.05963 -0.71562,0.71562 m 40.697113,-40.29799 0.331452,-0.33145 m -4.417372,4.41737 -0.286723,0.28672 m -5.901877,5.90188 0.390339,-0.39034 m -26.252012,26.25202 -0.674954,0.67495 m -3.755072,3.75507 0.598375,-0.59837 m 40.478423,-40.0793 -0.331254,0.33125 m -4.233496,4.2335 0.296897,-0.2969 m -5.761375,5.76137 -0.417558,0.41756 m -26.982507,26.98251 0.688181,-0.68818 m -3.70202,3.70202 -0.500342,0.50034 m 40.765203,-40.36608 0.357399,-0.3574 m -4.138428,4.13843 -0.286978,0.28698 m -5.862194,5.86219 0.475211,-0.47521 m -27.202192,27.20219 -0.701408,0.70141 m -3.246573,3.24657 0.42675,-0.42675 m 40.701985,-40.30286 -0.37059,0.37059 m -3.902517,3.90252 0.27706,-0.27706 m -5.586547,5.58654 -0.539032,0.53904 m -27.868103,27.8681 0.774096,-0.7741 m -3.39648,3.39648 -0.356582,0.35658 m 40.751088,-40.35196 0.373047,-0.37305 m -3.842934,3.84294 -0.267141,0.26714 m -5.765195,5.76519 0.532553,-0.53255 m -28.113314,28.11331 -0.801317,0.80132 m -2.706747,2.70675 0.286414,-0.28642 m 40.833121,-40.434 -0.387584,0.38759 m -3.589605,3.5896 0.287368,-0.28736 m -5.381328,5.38132 -0.582171,0.58217 m -28.818433,28.81844 0.810814,-0.81082 m -3.022533,3.02254 -0.275129,0.27513 m 40.70135,-40.30223 0.41269,-0.41269 m -3.528918,3.52892 -0.308608,0.3086 m -5.593843,5.59385 0.631789,-0.63179 m -29.066266,29.06626 -0.820312,0.82032 m -2.240851,2.24085 0.22675,-0.22675 m 40.829336,-40.43022 -0.411433,0.41144 m -3.260068,3.26006 0.281365,-0.28136 m -5.108712,5.10871 -0.684208,0.68421 m -29.691144,29.69114 0.829809,-0.82981 m -2.646293,2.6463 -0.17837,0.17837 m 40.587954,-40.18883 0.412969,-0.41297 m -3.254145,3.25414 -0.254122,0.25412 m -5.413754,5.41376 0.754489,-0.75449 m -4.742955,4.74295 -0.306886,0.30689 m -25.887521,25.88752 0.912777,-0.91278 m -2.491784,2.49179 -0.129991,0.12999 m 40.531256,-40.13213 0.414505,-0.41451 m -3.118155,3.11816 -0.244184,0.24418 m -5.295474,5.29547 0.873216,-0.87321 m -4.681004,4.681 -0.570188,0.57019 m -26.201788,26.20179 0.901603,-0.9016 m -2.310171,2.31017 -0.112584,0.11258 m 40.469985,-40.07086 0.402935,-0.40294 m -2.964487,2.96449 -0.241649,0.24165 m -5.169792,5.16979 0.909708,-0.90971 m -4.534979,4.53498 -0.747287,0.74729 m -26.606634,26.60663 0.892966,-0.89296 m -2.099065,2.09906 -0.127387,0.12739 m 40.395415,-39.99629 0.400726,-0.40073 m -2.804162,2.80416 -0.239113,0.23912 m -5.044111,5.04411 1.191055,-1.19106 m -4.554814,4.55481 -1.064345,1.06435 m -28.09708,28.09708 2.030893,-2.03089 m 38.689212,-38.29009 -0.398517,0.39851 m -2.481898,2.4819 0.230675,-0.23067 m -3.994156,3.99415 -1.154948,1.15495 m -4.53449,4.53449 1.294272,-1.29427 m -27.662138,27.66214 -1.835335,1.83533 m 40.247763,-39.84864 0.405335,-0.40533 m -2.533358,2.53335 -0.210588,0.21059 m -4.775385,4.77539 1.464976,-1.46498 m -4.392843,4.39285 -1.812212,1.81221 m -28.210116,28.21011 1.667962,-1.66796 m 38.863144,-38.46402 -0.358691,0.35869 m -2.212037,2.21204 0.208735,-0.20874 m -3.269464,3.26947 -1.553377,1.55337 m -4.986144,4.98615 3.071943,-3.07195 m -29.74366,29.74367 -1.509597,1.50959 m 40.089028,-39.6899 0.344692,-0.3447 m -2.231433,2.23144 -0.185924,0.18592 m -9.785956,9.78596 7.106096,-7.1061 m -33.806456,33.80646 -1.374079,1.37408 m 40.017693,-39.61857 0.341487,-0.34149 m -2.111459,2.11146 -0.152528,0.15253 m -9.993998,9.99399 7.584521,-7.58452 m -34.291188,34.29119 -1.23856,1.23856 m 39.946357,-39.54723 0.302514,-0.30252 m -1.955831,1.95583 -0.162796,0.1628 m -3.055356,3.05536 0.967502,-0.96751 m -3.236507,3.23651 -4.892544,4.89254 m -27.757371,27.75738 1.103042,-1.10305 m 39.042111,-38.64299 -0.26639,0.26639 m -1.71209,1.71209 0.171491,-0.17149 m -2.01551,2.01551 -0.628031,0.62803 m -7.969109,7.96911 4.449113,-4.44911 m -31.022817,31.02282 -0.995842,0.99584 m 39.768288,-39.36917 0.273146,-0.27314 m -1.658145,1.65814 -0.180186,0.18019 m -2.104984,2.10498 0.510172,-0.51017 m -4.931572,4.93157 -4.140211,4.14021 m -27.386611,27.38662 0.881075,-0.88108 m 39.021671,-38.62255 -0.238861,0.23886 m -1.418282,1.41828 0.186096,-0.18609 m -1.609553,1.60955 -0.400879,0.40088 m -9.124216,9.12422 4.076771,-4.07677 m -30.443355,30.44335 -0.79968,0.79968 m 39.561078,-39.16196 0.229037,-0.22903 m -1.239392,1.23939 -0.24253,0.24253 m -1.558539,1.55854 0.305027,-0.30503 m -5.749614,5.74962 -4.094901,4.0949 m -27.079378,27.07937 0.718285,-0.71828 m 38.9592,-38.56008 -1.347515,1.34752 m -1.334651,1.33465 0.283167,-0.28317 m -6.045085,6.04509 -4.140162,4.14016 m -26.962451,26.96245 0.63689,-0.63689 m 38.862999,-38.46388 -1.165194,1.1652 m -1.090671,1.09067 0.258268,-0.25827 m -6.287697,6.2877 -4.241113,4.24111 m -26.842694,26.8427 0.555496,-0.5555 m 38.785194,-38.38607 -1.901393,1.90139 m -10.53223,10.53223 4.30892,-4.30892 M 19.276841,277.36817 18.775,277.87001 m 37.631804,-37.23268 1.556697,-1.5567 m -7.964112,7.96411 -4.376726,4.37673 m -26.743149,26.74315 0.473246,-0.47325 m 38.58233,-38.18321 -1.225422,1.22543 m -11.008587,11.00858 4.465088,-4.46508 m -30.737491,30.73749 -0.44465,0.44465 m 38.061778,-37.66266 0.742773,-0.74277 m -7.447416,7.44741 -4.530316,4.53032 m -26.722304,26.7223 0.416055,-0.41605 m 38.095435,-37.69631 -0.112353,0.11235 m -11.567067,11.56707 4.595544,-4.59555 m -30.935641,30.93564 -0.387459,0.38746 m 26.849469,-26.45034 4.654221,-4.65423 m -31.040312,31.04032 -0.359285,0.35928 m 26.890636,-26.49151 4.708918,-4.70892 m -31.144652,31.14465 -0.351223,0.35123 m 26.932217,-26.5331 4.763616,-4.76362 m -31.243797,31.2438 -0.348356,0.34836 m 26.96989,-26.57077 4.82222,-4.82222 m -31.342941,31.34294 -0.345489,0.34549 m 27.036492,-26.63737 4.851896,-4.85189 m -31.442087,31.44208 -0.343402,0.3434 m 27.103874,-26.70475 4.893754,-4.89375 m -31.553413,31.55341 -0.321863,0.32186 m 27.151804,-26.75268 4.937662,-4.93766 m -31.66679,31.66679 -0.300323,0.30032 m 27.199732,-26.80061 4.981571,-4.98157 m -31.767043,31.76705 -0.291909,0.29191 m 27.261559,-26.86244 5.011584,-5.01158 m -31.856557,31.85655 -0.294234,0.29424 m 27.331102,-26.93198 5.03388,-5.03388 m -31.946071,31.94607 -0.300626,0.30062 m 27.404713,-27.00559 5.056044,-5.05604 m -32.035454,32.03545 -0.287911,0.28791 m 27.459216,-27.06009 5.078118,-5.07812 m -32.124746,32.12475 -0.275197,0.2752 m 27.51372,-27.1146 5.100192,-5.10019 m -32.214038,32.21403 -0.262482,0.26249 m 27.568224,-27.16911 5.122266,-5.12226 m -32.303331,32.30333 -0.249767,0.24977 m 27.622727,-27.22361 5.14434,-5.14434 m -32.36714,32.36714 -0.262535,0.26254 m 27.67723,-27.27811 5.166414,-5.16641 m -32.433111,32.43311 -0.265247,0.26524 m 27.72384,-27.32471 5.188488,-5.18849 m -32.499082,32.49908 -0.258091,0.25809 m 27.76058,-27.36146 5.210562,-5.21056 m -32.565053,32.56505 -0.250934,0.25094 m 27.79732,-27.3982 5.232636,-5.23264 m -32.631024,32.63103 -0.243778,0.24378 m 27.834243,-27.43512 5.254528,-5.25453 m -32.696994,32.69699 -0.236621,0.23662 m 27.871487,-27.47236 5.276098,-5.2761 m -32.752407,32.75241 -0.234057,0.23406 M 49.835532,257.18666 55.1332,251.889 m -32.795186,32.79518 -0.242062,0.24206 m 27.931979,-27.53285 5.319238,-5.31924 m -32.837964,32.83796 -0.250067,0.25007 m 27.961193,-27.56207 5.340808,-5.34081 m -32.880744,32.88074 -0.258071,0.25808 m 27.990406,-27.59129 5.362378,-5.36238 m -32.923522,32.92353 -0.266076,0.26607 m 28.019619,-27.62049 5.384141,-5.38415 m -32.966494,32.9665 -0.283525,0.28352 m 28.055774,-27.65665 5.396621,-5.39662 m -32.997679,32.99768 -0.320711,0.32071 m 28.09701,-27.69789 5.423756,-5.42375 m -33.015345,33.01534 -0.371415,0.37142 m 28.138245,-27.73912 5.45089,-5.45089 m -33.026747,33.02674 -0.438667,0.43867 m 28.189765,-27.79064 5.478024,-5.47803 m -33.038149,33.03815 -1.849564,1.84957 m 29.58493,-29.18581 5.505159,-5.50516 m -33.049552,33.04955 -2.28794,2.28794 m 30.007575,-29.60845 5.532293,-5.53229 m -33.060955,33.06095 -2.64266,2.64266 m 30.346563,-29.94744 5.54971,-5.54971 m -33.038486,33.03849 -4.081325,4.08132 m 31.735413,-31.33629 5.574786,-5.57478 m -33.011663,33.01166 -1.504575,1.50457 m -3.043328,3.04333 1.970781,-1.97078 m 35.779171,-35.38005 -5.611155,5.61116 m -28.31079,28.31079 0.978473,-0.97848 m -3.147537,3.14754 -1.926581,1.92658 m 32.560453,-32.16133 5.647524,-5.64752 m -32.862106,32.8621 -0.750052,0.75005 m -4.705564,4.70557 1.880607,-1.88061 m 36.627503,-36.22838 -5.683894,5.6839 m -27.702755,27.70275 0.630985,-0.63098 m -4.524936,4.52493 -1.22321,1.22321 m 34.351957,-33.95283 4.334255,-4.33426 m -4.965242,4.96524 -0.747036,0.74704 m -27.427401,27.4274 0.619981,-0.61998 m -5.437705,5.4377 -0.607587,0.60759 m 34.438697,-34.03957 4.30053,-4.30053 m -5.045042,5.04504 -0.687455,0.68745 m -27.152047,27.15205 0.534811,-0.53481 m -5.601687,5.60169 -0.507658,0.50766 m 34.369852,-33.97073 4.263462,-4.26347 m -5.138641,5.13864 -0.620554,0.62056 m -26.870213,26.87021 0.542014,-0.54201 m -5.787447,5.78744 -0.437842,0.43785 m 34.243101,-33.84398 4.243819,-4.24382 m -5.209231,5.20923 -0.595306,0.59531 m -26.598706,26.5987 0.627039,-0.62704 m -5.998229,5.99823 -0.413138,0.41314 m 34.132792,-33.73367 4.229015,-4.22901 m -5.281795,5.28179 -0.568082,0.56808 m -26.328821,26.32882 0.609034,-0.60903 m -6.110629,6.11063 -0.404864,0.40486 m 34.045182,-33.64606 4.196079,-4.19608 m -5.336228,5.33623 -0.540858,0.54086 m -26.058935,26.05894 0.631103,-0.63111 m -6.267026,6.26703 -0.392665,0.39266 m 33.957571,-33.55844 4.160758,-4.16076 m -5.388276,5.38827 -0.513634,0.51364 m -25.804087,25.80409 0.673893,-0.6739 m -6.429108,6.42911 -0.407484,0.40748 m 33.896978,-33.49785 4.125437,-4.12544 m -5.440324,5.44032 -0.48641,0.48641 m -25.555851,25.55586 0.677877,-0.67788 m -6.545771,6.54577 -0.421029,0.42103 m 33.835111,-33.43599 4.090115,-4.09012 m -5.49237,5.49237 -0.471028,0.47103 m -25.295774,25.29578 0.681861,-0.68186 m -6.659474,6.65947 -0.437533,0.43753 m 33.773508,-33.37438 4.034897,-4.0349 m -5.524786,5.52479 -0.472149,0.47215 m -25.019192,25.01919 0.685845,-0.68585 m -6.794621,6.79462 -0.432594,0.4326 m 33.693855,-33.29473 3.993238,-3.99324 m -5.558117,5.55811 -0.467863,0.46787 m -24.748882,24.74888 0.687558,-0.68756 m -6.921226,6.92123 -0.427656,0.42765 m 33.614202,-33.21508 3.951578,-3.95157 m -5.591565,5.59156 -0.463458,0.46346 m -24.489847,24.48985 0.68473,-0.68473 m -7.032015,7.03201 -0.422717,0.42272 m 33.534548,-33.13543 3.909919,-3.90992 m -5.625013,5.62502 -0.459053,0.45905 m -24.230075,24.23007 0.681164,-0.68116 m -7.142805,7.1428 -0.417985,0.41799 m 33.453832,-33.05471 3.840996,-3.841 m -5.629928,5.62993 -0.450126,0.45013 m -23.974824,23.97482 0.677598,-0.67759 m -7.253594,7.25359 -0.413323,0.41332 m 33.354173,-32.95505 3.793986,-3.79398 m -5.618224,5.61822 -0.495576,0.49558 m -23.684716,23.68471 0.665643,-0.66564 m -7.355994,7.35599 -0.40866,0.40866 m 33.254512,-32.85539 3.746976,-3.74697 m -5.675667,5.67566 -0.471877,0.47188 m -23.394609,23.39461 0.63925,-0.63925 m -7.445387,7.44539 -0.402565,0.40256 m 33.154851,-32.75573 3.68407,-3.68407 m -5.688079,5.68808 -0.477314,0.47732 m -23.104503,23.1045 0.612856,-0.61286 m -7.538027,7.53803 -0.393223,0.39322 m 33.046061,-32.64694 3.620197,-3.62019 m -5.690393,5.69039 -0.482752,0.48275 m -22.814395,22.8144 0.586463,-0.58647 m -7.630669,7.63067 -0.38388,0.38388 m 32.922871,-32.52375 3.570723,-3.57072 m -5.692707,5.69271 -0.516288,0.51629 m -22.496189,22.49619 0.559308,-0.55931 m -7.722549,7.72255 -0.374538,0.37453 m 32.799683,-32.40056 3.521249,-3.52124 m -5.660513,5.66051 -0.5422,0.5422 m -22.220116,22.22011 0.53079,-0.53079 m -7.813066,7.81307 -0.330305,0.3303 m 32.642839,-32.24371 3.47054,-3.47054 m -5.725734,5.72573 -0.51538,0.51538 m -21.904909,21.90491 0.507821,-0.50782 m -7.903905,7.90391 -0.28933,0.28933 m 32.461001,-32.06188 3.448405,-3.44841 m -5.746359,5.74636 -0.533157,0.53316 m -21.603827,21.60382 0.498976,-0.49897 m -7.969807,7.96981 -0.273291,0.27329 m 32.279164,-31.88004 3.426269,-3.42627 m -5.766982,5.76698 -0.550933,0.55093 m -21.301017,21.30102 0.488404,-0.4884 m -8.027414,8.02741 -0.265549,0.26555 m 32.105009,-31.70589 3.396451,-3.39645 m -5.787607,5.78761 -0.568709,0.56871 m -20.998207,20.9982 0.477831,-0.47783 m -8.069683,8.06969 -0.22573,0.22573 m 31.843929,-31.44481 3.374246,-3.37425 m -5.795748,5.79575 -0.571101,0.5711 m -20.691366,20.69137 0.467258,-0.46726 m -8.024649,8.02465 -0.240027,0.24003 m 31.549662,-31.15054 3.351784,-3.35179 m -5.808282,5.80828 -0.593926,0.59393 m -20.359442,20.35944 0.456686,-0.45668 m -7.792947,7.79294 -0.366628,0.36663 m 31.188617,-30.78949 3.321736,-3.32174 m -5.820817,5.82082 -0.616752,0.61675 m -20.027517,20.02752 0.453236,-0.45324 m -7.219441,7.21944 -0.778406,0.77841 m 30.719094,-30.31997 3.336417,-3.33642 m -5.833351,5.83335 -0.639577,0.63958 m -19.695593,19.69559 0.479331,-0.47933 m -6.840526,6.84053 -1.014259,1.01425 m 30.238691,-29.83956 3.351097,-3.3511 m -5.854712,5.85471 -0.653575,0.65358 m -19.363669,19.36366 0.505427,-0.50542 m -6.465647,6.46564 -1.255417,1.25542 m 29.764938,-29.36581 3.41274,-3.41274 m -5.922198,5.92219 -0.660804,0.66081 m -19.036661,19.03666 0.531522,-0.53152 m -6.473753,6.47375 -1.060207,1.06021 m 29.197033,-28.79791 3.294668,-3.29467 m -5.769198,5.7692 -0.695772,0.69577 m -18.705556,18.70556 0.581259,-0.58126 m -6.239787,6.23978 -1.126598,1.1266 m 28.645135,-28.24601 3.281575,-3.28158 m -5.717656,5.71766 -0.73074,0.73074 m -18.373284,18.37328 0.629828,-0.62982 m -6.251835,6.25183 -0.946974,0.94697 m 28.072179,-27.67305 3.172546,-3.17255 m -5.521986,5.52199 -0.792843,0.79284 m -18.04101,18.04101 0.668333,-0.66833 m -6.178458,6.17846 -1.024048,1.02404 m 27.54864,-27.14951 3.237526,-3.23753 m -5.361568,5.36157 -0.861784,0.86178 m -17.732029,17.73203 0.783533,-0.78353 m -6.159266,6.15926 -0.829841,0.82984 m 26.940112,-26.54098 2.989447,-2.98945 m -5.0736,5.0736 -0.936134,0.93613 m -17.436966,17.43697 0.91806,-0.91806 m -6.142888,6.14289 -0.772773,0.77277 m 26.283702,-25.88458 3.059406,-3.05941 m -4.850034,4.85004 -1.093389,1.09339 m -17.138389,17.13839 1.066171,-1.06617 m -6.139292,6.13929 -0.702918,0.70292 m 25.599085,-25.19997 2.80766,-2.80766 m -4.210903,4.21091 -1.316296,1.31629 m -17.030731,17.03073 1.44117,-1.44117 m -6.09644,6.09644 -0.708288,0.70829 m 22.359406,-21.96028 5.123916,-5.12392 m -20.190728,20.19073 -1.885819,1.88582 m -4.921517,4.92152 0.690813,-0.69082 m 26.094309,-25.69518 -4.9519,4.9519 m -16.99942,16.99942 2.407241,-2.40725 m -5.759709,5.75971 -0.990306,0.99031 m 21.27759,-20.87847 4.283698,-4.2837 m -18.305101,18.30511 -0.848823,0.84882 m -2.140799,2.1408 0.977482,-0.97748 m -3.861688,3.86168 -0.892431,0.89243 m 20.723058,-20.32393 3.588545,-3.58855 m -17.039173,17.03918 -0.673135,0.67313 m -6.160093,6.16009 4.081596,-4.08159 m 17.08846,-16.68934 -0.937322,0.93732 m -13.609693,13.6097 0.716358,-0.71636 m -3.296976,3.29697 -3.417372,3.41738 m 19.502601,-19.10348 0.534561,-0.53456 m -12.835564,12.83556 -0.563239,0.56324 m -6.094203,6.0942 2.925914,-2.92591 m 16.43017,-16.03105 -0.50272,0.50272 m -12.221017,12.22102 0.592631,-0.59263 m -4.259909,4.25991 -2.292949,2.29295 m 18.084808,-17.68569 0.573052,-0.57305 m -11.537466,11.53746 -0.630184,0.63019 m -5.664883,5.66488 1.573019,-1.57302 m 16.218542,-15.81942 -0.682029,0.68203 m -10.987594,10.9876 0.732004,-0.73201 m -5.172467,5.17247 -0.806483,0.80648 m 16.071902,-15.67278 0.710538,-0.71054 m -10.173509,10.17351 -0.889224,0.88923 m -5.380789,5.38079 0.611523,-0.61153 m 15.756585,-15.35746 -0.805568,0.80557 m -9.844066,9.84406 1.256383,-1.25638 m -6.192835,6.19284 -0.451655,0.45165 m 14.982415,-14.58329 0.747752,-0.74775 m -8.481822,8.48182 -1.343918,1.34392 m -5.597527,5.59752 0.366385,-0.36638 m 14.840748,-14.44163 -0.78826,0.78826 m -8.053515,8.05352 1.348749,-1.34875 m -7.07065,7.07065 -0.3572,0.3572 m 13.598153,-13.19903 1.106588,-1.10659 m -6.107503,6.1075 -1.583567,1.58357 m -6.727415,6.72742 0.386309,-0.38631 m 13.598607,-13.19949 -1.380199,1.3802 m -5.12417,5.12417 1.970865,-1.97086 m -8.749737,8.74973 -0.415418,0.41542 m 7.612555,-7.21343 5.688224,-5.68822 m -12.569995,12.56999 -0.434894,0.43489 m 8.458203,-8.05908 4.425324,-4.42532 m -12.133268,12.13327 -0.450626,0.45062 m 8.733856,-8.33473 2.751693,-2.75169 m -10.709565,10.70956 -0.47635,0.47635 m 8.935866,-8.53674 1.403685,-1.40369 m -9.522884,9.52289 -0.517034,0.51703 m 9.084789,-8.68567 0.794994,-0.79499 m -9.022432,9.02243 -0.518586,0.51859 m 9.086662,-8.68754 0.569372,-0.56937 m -8.797131,8.79713 -0.526316,0.52632 m 9.073928,-8.67481 0.451015,-0.45102 m -8.65831,8.65832 -0.534046,0.53404 m 9.039837,-8.64071 0.388444,-0.38845 m -8.553918,8.55392 -0.541776,0.54178 m 9.002971,-8.60385 0.378524,-0.37853 m -8.498882,8.49888 -0.515524,0.51553 m 8.930018,-8.5309 0.390689,-0.39069 m -8.446363,8.44637 -0.515266,0.51526 m 8.865075,-8.46595 0.439385,-0.43938 m -8.430374,8.43037 -0.515007,0.51501 m 8.840976,-8.44186 0.452123,-0.45212 m -8.419273,8.41927 -0.514748,0.51475 m 8.832715,-8.43359 0.484525,-0.48453 m -8.443672,8.44368 -0.487538,0.48753 m 8.797503,-8.39838 0.518321,-0.51832 m -8.469466,8.46947 -0.463919,0.46392 m 8.753784,-8.35466 0.559027,-0.55903 m -8.484789,8.48479 -0.445583,0.44558 m 8.724612,-8.32549 0.628909,-0.62891 m -8.510836,8.51084 -0.460246,0.46024 m 8.649606,-8.25048 0.639049,-0.63905 m -8.431307,8.43131 -0.45517,0.45517 m 8.53648,-8.13736 0.717187,-0.71719 m -8.397473,8.39748 -0.451273,0.45127 m 8.420612,-8.02149 0.712888,-0.71289 m -8.251097,8.2511 -0.477481,0.47748 m 8.26386,-7.86474 0.720608,-0.7206 m -8.039085,8.03908 -0.540462,0.54046 m 8.114356,-7.71523 0.585276,-0.58528 m -7.691268,7.69127 -0.652835,0.65284 m 7.999272,-7.60015 0.492849,-0.49285 m -7.371383,7.37138 -0.628551,0.62855 m 7.731066,-7.33194 0.430683,-0.43068 m -7.065296,7.06529 -0.667941,0.66794 m 7.526535,-7.12741 0.393408,-0.39341 m -6.7841,6.7841 -0.707331,0.70733 m 7.302077,-6.90295 0.385262,-0.38526 m -6.512105,6.5121 -0.757206,0.75721 m 7.080891,-6.68177 0.384328,-0.38433 m -6.128833,6.12883 -0.857818,0.85782 m 6.799165,-6.40004 0.383394,-0.38339 m -5.963236,5.96323 -0.763771,0.76377 m 6.531961,-6.13284 0.390954,-0.39095 m -5.672414,5.67241 -0.794948,0.79495 m 6.209318,-5.81019 0.460401,-0.46041 m -5.388041,5.38805 -0.876822,0.87682 m 5.959295,-5.56017 0.510993,-0.511 m -5.106736,5.10674 -0.80354,0.80354 m 5.38516,-4.98604 0.730541,-0.73054 m -4.848518,4.84852 -0.777559,0.77756 m 4.822789,-4.42367 0.989116,-0.98912 m -4.301204,4.30121 -1.021077,1.02108 m 3.486051,-3.08693 1.991686,-1.99169 m -3.776296,3.7763 -1.168104,1.1681 m 0.530403,-0.13128 4.472918,-4.47292 m -1.237716,1.63684 -2.704797,2.7048 m 0.397991,0.001 1.960352,-1.96035 m -0.190379,0.5895 -0.892348,0.89235"
       style="fill:none;stroke:#0000ff;stroke-width:0.1"
       id="path1629" />
  </g>
</svg>
