<?xml version="1.0" encoding="UTF-8" standalone="no"?>
<!-- Created with Inkscape (http://www.inkscape.org/) -->

<svg
   xmlns:dc="http://purl.org/dc/elements/1.1/"
   xmlns:cc="http://creativecommons.org/ns#"
   xmlns:rdf="http://www.w3.org/1999/02/22-rdf-syntax-ns#"
   xmlns:svg="http://www.w3.org/2000/svg"
   xmlns="http://www.w3.org/2000/svg"
   xmlns:sodipodi="http://sodipodi.sourceforge.net/DTD/sodipodi-0.dtd"
   xmlns:inkscape="http://www.inkscape.org/namespaces/inkscape"
   sodipodi:docname="50.svg"
   inkscape:version="0.92.2 2405546, 2018-03-11"
   id="svg1586"
   version="1.1"
   viewBox="0 0 50 50"
   height="50mm"
   width="50mm">
  <sodipodi:namedview
     inkscape:window-maximized="1"
     inkscape:window-y="0"
     inkscape:window-x="0"
     inkscape:window-height="703"
     inkscape:window-width="1366"
     showgrid="false"
     inkscape:current-layer="layer1"
     inkscape:document-units="mm"
     inkscape:cy="63.84355"
     inkscape:cx="131.79782"
     inkscape:zoom="3.3031093"
     inkscape:pageshadow="2"
     inkscape:pageopacity="0.0"
     borderopacity="1.0"
     bordercolor="#666666"
     pagecolor="#ffffff"
     id="base" />
  <defs
     id="defs1580" />
  <metadata
     id="metadata1583">
    <rdf:RDF>
      <cc:Work
         rdf:about="">
        <dc:format>image/svg+xml</dc:format>
        <dc:type
           rdf:resource="http://purl.org/dc/dcmitype/StillImage" />
        <dc:title></dc:title>
      </cc:Work>
    </rdf:RDF>
  </metadata>
  <g
     inkscape:label="Layer 1"
     inkscape:groupmode="layer"
     id="layer1"
     transform="translate(0,-247)">
    <g
       id="g986"
       transform="translate(-4.9420504,1.402644e-5)">
      <path
         id="path957"
         d="m 25.576382,296.21826 c -0.638103,-0.38925 -1.160187,-0.8708 -1.160187,-1.07012 0,-0.19932 -0.763045,-0.36299 -1.695656,-0.36373 -1.791017,-10e-4 -3.86447,-0.97371 -4.256591,-1.99604 -0.365183,-0.9521 0.671606,-2.47328 2.990042,-4.38705 2.337341,-1.92936 2.956165,-3.14676 2.960214,-5.82363 0.0013,-1.04607 -0.210748,-1.46655 -1.038301,-2.0561 -1.394555,-0.99348 -2.52951,-3.43766 -2.52951,-5.4474 0,-0.97829 -0.370804,-2.46627 -0.928668,-3.7266 -2.114488,-4.77704 -2.563699,-12.40445 -1.019928,-17.318 0.141583,-0.45064 -0.151753,-0.62149 -1.341054,-0.78109 -1.92772,-0.25868 -2.927111,-1.36667 -2.628887,-2.91455 0.433109,-2.24792 2.758544,-3.02873 4.331988,-1.45455 1.179279,1.17985 2.164259,0.81027 1.981114,-0.74334 -0.09945,-0.84365 0.971701,-1.26139 2.605739,-1.01624 1.594693,0.23925 2.367481,1.06277 1.823554,1.94328 -0.120973,0.19583 0.181593,0.78931 0.672372,1.31884 0.865798,0.93417 0.946729,0.95022 2.723002,0.54001 2.573914,-0.59441 3.130953,-0.53703 4.024388,0.41455 0.432388,0.46054 1.223283,0.94458 1.757554,1.07567 1.311532,0.3218 1.891945,1.42141 1.144817,2.16889 -0.307847,0.308 -0.990254,0.65309 -1.516454,0.76689 -0.526213,0.11379 -1.305246,0.37534 -1.731197,0.58122 -0.547383,0.26457 -1.112533,0.25642 -1.92742,-0.0278 -0.634127,-0.22116 -1.207149,-0.40211 -1.273382,-0.40211 -0.06626,0 -0.349947,0.54957 -0.630471,1.22128 -0.54055,1.29434 -1.401953,1.93376 -3.411983,2.53273 -1.437274,0.4283 -1.718577,1.11738 -1.747984,4.28186 -0.02131,2.29436 0.584775,4.46306 1.54355,5.52299 0.325461,0.3598 1.753079,0.92781 3.172487,1.26223 2.965062,0.69859 3.887058,0.47326 6.887075,-1.68313 1.421451,-1.02174 1.915872,-1.17344 3.824326,-1.17344 1.205511,0 2.55327,0.13137 2.99503,0.29193 0.695399,0.25274 0.803208,0.17311 0.803208,-0.59326 0,-1.44425 -3.01006,-3.43554 -5.210127,-3.44676 -0.987548,-0.005 -1.453854,-1.30095 -1.496227,-4.15816 -0.03623,-2.44446 0.06559,-3.00455 0.640978,-3.52552 0.376252,-0.34066 0.925879,-0.52655 1.221413,-0.41309 0.295534,0.11346 0.632281,0.0526 0.748329,-0.13526 0.41895,-0.67821 1.582379,-0.31828 2.64797,0.81918 1.218983,1.30122 1.345191,1.69647 0.541696,1.69647 -0.385815,0 -0.518435,0.29192 -0.446221,0.98216 0.09292,0.88814 -0.0078,0.98333 -1.051734,0.99433 -1.487618,0.0156 -2.168985,0.63752 -1.535418,1.40129 0.251329,0.30298 0.674996,0.55087 0.941495,0.55087 0.266493,0 1.13486,0.26033 1.929696,0.57851 2.095203,0.83873 3.366707,3.09401 3.048297,5.40679 -0.12823,0.93138 -0.200271,2.33628 -0.160103,3.12201 0.251775,4.92506 0.182579,5.4487 -0.864492,6.54174 -0.554308,0.57865 -1.620165,1.32834 -2.368579,1.66599 -1.657992,0.748 -2.927618,3.04249 -1.68353,3.04249 0.727544,0 2.025618,1.55964 2.025618,2.43378 0,0.88183 -0.802301,1.75368 -2.412332,2.62141 -0.602921,0.32495 -1.375969,1.01796 -1.717878,1.54003 -0.581199,0.88744 -0.583336,1.02332 -0.03283,2.08781 0.323856,0.62623 0.789803,1.41984 1.035432,1.7636 1.453881,2.03469 -4.557898,4.61059 -7.009567,3.00342 -0.820282,-0.53771 -0.893521,-0.52178 -1.440418,0.31328 -0.739084,1.12852 -3.047131,1.21078 -4.754254,0.16943 z"
         style="fill:none;stroke:#ff0000;stroke-width:0.09999999;stroke-miterlimit:4;stroke-dasharray:none"
         inkscape:connector-curvature="0" />
      <path
         id="path955"
         d="m 30.479399,292.89924 c 0.0033,-0.74293 -0.24463,-1.94831 -0.5503,-2.67862 -0.456556,-1.09083 -0.481948,-1.5923 -0.142243,-2.80947 0.373548,-1.33842 0.341004,-1.55416 -0.336688,-2.23218 -0.900494,-0.90093 -0.913859,-1.0973 -0.179422,-2.63814 0.449817,-0.94373 0.903743,-1.28662 2.141877,-1.61793 l 1.5711,-0.4204 v -1.71886 c 0,-0.94537 0.22021,-2.02016 0.489366,-2.38842 0.431458,-0.59034 0.468324,-0.4505 0.311557,1.18176 -0.187933,1.95683 0.03236,2.19484 1.369156,1.47908 1.152069,-0.61686 1.893111,0.0866 1.954504,1.85533 0.02963,0.85398 -0.137402,1.79377 -0.371212,2.08842 -0.233808,0.29464 -0.438356,1.44321 -0.454544,2.55235 -0.03223,2.20583 -0.719181,3.88622 -1.937922,4.74027 l -0.785053,0.55013 0.741981,0.81086 c 0.408096,0.44596 0.846999,1.15795 0.975337,1.58218 0.38485,1.27217 1.16014,1.71791 2.179655,1.25316 0.910282,-0.41495 1.195428,-1.60988 0.488474,-2.04701 -0.216374,-0.13378 -0.621015,-0.78825 -0.899194,-1.45436 -0.691224,-1.6551 -0.01052,-2.92069 2.353755,-4.37613 1.318008,-0.81136 1.794688,-1.32386 1.794688,-1.92955 0,-0.99225 -0.619391,-1.6819 -1.510526,-1.6819 -0.932959,0 -1.156806,-0.90718 -0.623088,-2.52514 0.40371,-1.22381 0.387286,-1.48319 -0.130109,-2.05518 -1.106845,-1.22363 -0.519946,-2.74935 1.307878,-3.39999 0.716023,-0.25487 1.984796,0.29768 2.599879,1.13225 0.239462,0.32492 0.641643,0.44057 1.022983,0.29417 0.530928,-0.20383 0.605073,-0.58671 0.478093,-2.46879 -0.319481,-4.73518 -2.708791,-6.80224 -6.643843,-5.74775 -0.696466,0.18663 -0.786372,0.37959 -0.591175,1.26873 0.301507,1.3734 -0.375686,2.94986 -1.48421,3.45517 -1.377959,0.62814 -1.907174,0.48931 -2.56379,-0.67258 -0.48898,-0.86527 -0.782937,-1.03927 -1.500558,-0.88826 -1.26053,0.26525 -5.659064,-1.07605 -6.682195,-2.03769 -0.47144,-0.44311 -1.114843,-1.73289 -1.429782,-2.86619 -0.434654,-1.56414 -0.732352,-2.06054 -1.23569,-2.06054 -0.776311,0 -1.55615,-1.47805 -1.229364,-2.33003 0.124423,-0.32441 0.698316,-0.76811 1.275306,-0.986 1.172407,-0.44274 1.798789,-1.94884 1.022632,-2.45885 -0.273951,-0.18 0.146092,-0.21428 1.016345,-0.0829 1.926175,0.29071 3.53239,-0.60918 4.086718,-2.28958 l 0.399433,-1.2109 1.923771,0.24047 c 2.145293,0.26816 2.55977,-0.17499 0.832967,-0.8906 -0.820687,-0.34011 -0.986438,-0.54983 -0.669341,-0.84692 0.309385,-0.28987 0.465633,-0.27416 0.587585,0.0591 0.269343,0.73603 2.002251,1.45746 3.029117,1.26107 1.611889,-0.30828 1.735774,-1.8936 0.147984,-1.8936 -0.445035,0 -1.186437,-0.40179 -1.647568,-0.89287 -0.937013,-0.99788 -2.154856,-1.13166 -4.339766,-0.47674 -1.303069,0.3906 -1.451911,0.35513 -2.425231,-0.57782 -1.076918,-1.03224 -1.198684,-1.04188 -4.518948,-0.35782 -0.913778,0.18826 -1.332296,0.0334 -2.367494,-0.87592 -1.743084,-1.53118 -2.908092,-1.45923 -3.799708,0.23469 -0.293729,0.55802 -0.313088,1.00903 -0.06333,1.47587 0.454099,0.8489 1.14493,1.11347 2.907505,1.11347 1.589114,0 1.588941,-6.4e-4 0.856116,3.03577 -0.497585,2.06175 -0.732385,9.23119 -0.336143,10.26427 0.128772,0.33572 0.560262,0.44702 1.307598,0.33728 2.081283,-0.30562 2.806277,2.08743 1.138037,3.75645 -0.909236,0.90967 -0.917947,0.96187 -0.356979,2.13879 0.316251,0.66349 0.574999,1.99501 0.574999,2.95891 0,0.9639 0.160643,1.85188 0.356979,1.97329 0.196344,0.1214 0.356987,0.50466 0.356987,0.85169 0,0.34703 0.380466,0.98856 0.84548,1.42563 l 0.845487,0.79467 0.956425,-1.13718 c 1.08128,-1.28565 1.080461,-1.98346 -0.0033,-2.70201 -0.659146,-0.43707 -0.858732,-0.40752 -1.695655,0.25111 -0.521665,0.41058 -0.948527,0.58324 -0.948527,0.38368 0,-0.46929 1.434457,-1.47477 2.103965,-1.47477 0.806284,0 1.822822,1.09945 1.822822,1.97151 0,0.43415 -0.321292,1.198 -0.713959,1.69744 -0.39268,0.49945 -0.713965,1.08364 -0.713965,1.29819 0,0.54612 0.711395,0.49087 0.725306,-0.0564 0.02277,-0.89386 1.053778,0.95792 1.621911,2.91298 0.639001,2.19896 0.492983,5.04732 -0.386607,7.54154 -0.315019,0.89327 -0.363978,1.42071 -0.131874,1.42071 0.203016,0 1.02038,0.6581 1.816336,1.46243 1.627005,1.64413 2.051763,1.46918 2.061146,-0.84889 z"
         style="fill:none;stroke:#0000ff;stroke-width:0.09999999;stroke-miterlimit:4;stroke-dasharray:none"
         inkscape:connector-curvature="0" />
      <path
         id="path953"
         d="m 29.06996,277.65558 c -0.862628,-0.86304 -0.907418,-1.3821 -0.205733,-2.38438 0.796502,-1.1377 2.532799,-1.74432 3.600109,-1.25779 1.256872,0.57294 1.085389,1.62075 -0.46231,2.82491 -2.01288,1.56608 -2.146406,1.6033 -2.932066,0.81726 z"
         style="fill:none;stroke:#0000ff;stroke-width:0.09999999;stroke-miterlimit:4;stroke-dasharray:none"
         inkscape:connector-curvature="0" />
      <path
         id="path951"
         d="m 31.931996,276.36757 c 1.191971,-1.23537 1.2086,-1.29094 0.534984,-1.78743 -0.867477,-0.63938 -1.920555,-0.3584 -2.96499,0.79109 -0.637569,0.70171 -0.727504,1.02901 -0.433661,1.57831 0.552903,1.03361 1.488238,0.84353 2.863667,-0.58197 z"
         style="fill:none;stroke:#0000ff;stroke-width:0.09999999;stroke-miterlimit:4;stroke-dasharray:none"
         inkscape:connector-curvature="0" />
      <path
         id="path949"
         d="m 24.293037,274.13222 c -1.183767,-1.30866 -0.591234,-2.73443 1.233713,-2.96863 1.813099,-0.23266 2.635938,1.27196 1.54656,2.828 -0.674003,0.96273 -1.977019,1.02864 -2.780273,0.14063 z"
         style="fill:none;stroke:#0000ff;stroke-width:0.09999999;stroke-miterlimit:4;stroke-dasharray:none"
         inkscape:connector-curvature="0" />
      <path
         id="path947"
         d="m 26.71342,273.73951 c 0.899694,-0.99463 0.439755,-2.1685 -0.849642,-2.1685 -1.393283,0 -2.028302,0.83179 -1.507717,1.97491 0.481183,1.05657 1.500984,1.14031 2.357359,0.19359 z"
         style="fill:none;stroke:#0000ff;stroke-width:0.09999999;stroke-miterlimit:4;stroke-dasharray:none"
         inkscape:connector-curvature="0" />
      <path
         id="path945"
         d="m 40.202757,273.15794 c -0.863147,-0.60486 -1.046597,-1.90504 -0.365016,-2.58694 1.049729,-1.05023 3.498407,-0.0323 3.498407,1.45432 0,0.58744 -1.280348,1.68859 -1.963387,1.68859 -0.207138,0 -0.733644,-0.25018 -1.170004,-0.55597 z"
         style="fill:none;stroke:#0000ff;stroke-width:0.09999999;stroke-miterlimit:4;stroke-dasharray:none"
         inkscape:connector-curvature="0" />
      <path
         id="path943"
         d="m 42.800678,271.71463 c 0,-0.97515 -1.797556,-1.53404 -2.541163,-0.79008 -0.679338,0.67966 -0.381372,1.96227 0.505295,2.17503 0.856043,0.2054 2.035868,-0.5972 2.035868,-1.38495 z"
         style="fill:none;stroke:#0000ff;stroke-width:0.09999999;stroke-miterlimit:4;stroke-dasharray:none"
         inkscape:connector-curvature="0" />
      <path
         id="path941"
         d="m 22.631297,252.63442 c 0,-0.42319 0.368727,-0.89004 0.890997,-1.12812 0.740004,-0.33732 1.016253,-0.29275 1.630075,0.26301 0.69809,0.63207 0.70429,0.69461 0.11171,1.12812 -0.345052,0.25242 -1.078576,0.45895 -1.630068,0.45895 -0.768272,0 -1.002714,-0.1688 -1.002714,-0.72196 z"
         style="fill:none;stroke:#0000ff;stroke-width:0.09999999;stroke-miterlimit:4;stroke-dasharray:none"
         inkscape:connector-curvature="0" />
      <path
         id="path938"
         d="m 25.130154,252.28493 c 0,-0.1544 -0.240954,-0.37324 -0.535469,-0.48631 -0.362407,-0.13913 -0.53547,0.0181 -0.53547,0.48631 0,0.46827 0.173063,0.62544 0.53547,0.4863 0.294515,-0.11306 0.535469,-0.3319 0.535469,-0.4863 z"
         style="fill:none;stroke:#0000ff;stroke-width:0.09999999;stroke-miterlimit:4;stroke-dasharray:none"
         inkscape:connector-curvature="0" />
      <path
         id="path936"
         d="m 16.443637,251.68968 c -0.57378,-0.57406 -0.215708,-1.54734 0.565217,-1.53629 1.013289,0.0143 2.199973,0.8898 1.888829,1.39347 -0.258028,0.4177 -2.073679,0.52337 -2.454046,0.14282 z"
         style="fill:none;stroke:#0000ff;stroke-width:0.09999999;stroke-miterlimit:4;stroke-dasharray:none"
         inkscape:connector-curvature="0" />
      <path
         id="path934"
         d="m 18.34753,251.23754 c 0,-0.38393 -1.388734,-0.89662 -1.669058,-0.61616 -0.103033,0.10309 -0.08144,0.35884 0.04801,0.56834 0.289374,0.46843 1.621085,0.50772 1.621085,0.0478 z"
         style="fill:none;stroke:#0000ff;stroke-width:0.09999999;stroke-miterlimit:4;stroke-dasharray:none"
         inkscape:connector-curvature="0" />
      <path
         id="path932"
         d="m 24.716557,291.56243 c -0.519327,-1.49047 -0.123138,-3.20709 1.144177,-4.95739 1.04847,-1.44806 1.060777,-1.51433 0.584629,-3.14808 -0.267518,-0.91788 -0.650083,-1.72347 -0.850136,-1.79018 -0.201391,-0.0672 -0.469035,0.77493 -0.599631,1.88664 -0.29297,2.49389 -0.904256,3.70547 -2.535237,5.02487 l -1.271743,1.02878 1.394068,1.51789 c 1.706145,1.8577 2.699715,2.06139 2.133873,0.43747 z"
         style="fill:none;stroke:#0000ff;stroke-width:0.09999999;stroke-miterlimit:4;stroke-dasharray:none"
         inkscape:connector-curvature="0" />
      <path
         id="path930"
         d="m 26.527765,288.7048 c 0.32628,-2.06499 -0.002,-2.28941 -0.821467,-0.56163 -0.600124,1.26527 -0.75478,2.77331 -0.328178,3.20011 0.379934,0.38011 0.839261,-0.67406 1.149645,-2.63848 z"
         style="fill:none;stroke:#ff0000;stroke-width:0.09999999;stroke-miterlimit:4;stroke-dasharray:none"
         inkscape:connector-curvature="0" />
      <path
         id="path928"
         d="m 31.912784,290.90083 c 0,-0.36881 -0.240961,-0.87065 -0.535476,-1.11518 -0.436558,-0.36249 -0.535469,-0.34298 -0.535469,0.10563 0,0.81315 0.388132,1.68012 0.752157,1.68012 0.175333,0 0.318788,-0.30175 0.318788,-0.67057 z"
         style="fill:none;stroke:#0000ff;stroke-width:0.09999999;stroke-miterlimit:4;stroke-dasharray:none"
         inkscape:connector-curvature="0" />
      <path
         id="path926"
         d="m 34.923143,288.3933 c 0.819004,-1.60197 1.011891,-3.76065 0.45394,-5.0803 -0.982283,-2.32329 -2.773094,-3.05905 -3.226222,-1.32549 -0.253573,0.97015 0.04622,1.65538 0.833601,1.9054 0.356813,0.11331 0.838402,0.43464 1.070205,0.71408 0.601012,0.72451 -0.152877,2.82743 -1.318039,3.6766 -0.789941,0.5757 -0.857733,0.77137 -0.499402,1.44125 0.395458,0.73926 0.456183,0.74788 1.312772,0.18635 0.493976,-0.32382 1.111894,-1.00687 1.373145,-1.51789 z"
         style="fill:none;stroke:#0000ff;stroke-width:0.09999999;stroke-miterlimit:4;stroke-dasharray:none"
         inkscape:connector-curvature="0" />
      <path
         id="path924"
         d="m 31.956203,287.89777 c 0.514738,-0.43491 1.137478,-1.17981 1.383879,-1.65534 0.38507,-0.74316 0.356861,-0.93128 -0.200904,-1.33931 -0.356893,-0.26109 -0.768006,-0.47472 -0.913586,-0.47472 -0.296493,0 -0.828932,-1.3358 -0.842484,-2.11364 -0.01825,-1.04858 -0.907026,-0.74937 -1.505852,0.50697 -0.615361,1.29104 -0.612977,1.3121 0.219305,1.94019 0.848451,0.6403 0.918986,1.69699 0.222108,3.32727 -0.378375,0.88515 0.482468,0.78452 1.637534,-0.19142 z"
         style="fill:none;stroke:#0000ff;stroke-width:0.09999999;stroke-miterlimit:4;stroke-dasharray:none"
         inkscape:connector-curvature="0" />
      <path
         id="path922"
         d="m 36.742262,281.83907 c -0.138334,-0.44197 -0.239196,-1.1652 -0.224124,-1.60718 0.02071,-0.60726 -0.172218,-0.80358 -0.789664,-0.80358 -1.431194,0 -1.711358,0.66531 -0.844322,2.00503 0.911834,1.40894 2.264555,1.70431 1.85811,0.40573 z"
         style="fill:none;stroke:#ff0000;stroke-width:0.09999999;stroke-miterlimit:4;stroke-dasharray:none"
         inkscape:connector-curvature="0" />
      <path
         id="path920"
         d="m 41.922455,278.3496 c 0.777528,-0.39685 1.413693,-0.80633 1.413693,-0.90992 0,-0.4791 -1.967043,-1.94002 -2.612125,-1.94002 -0.800803,0 -2.028615,0.95814 -2.028615,1.58306 0,0.56926 1.043729,1.98844 1.462379,1.98844 0.193036,0 0.987131,-0.32471 1.764668,-0.72156 z"
         style="fill:none;stroke:#0000ff;stroke-width:0.09999999;stroke-miterlimit:4;stroke-dasharray:none"
         inkscape:connector-curvature="0" />
      <path
         id="path918"
         d="m 35.696882,272.36913 c 0.699017,-0.46697 1.259051,-1.87803 1.030849,-2.59736 -0.294401,-0.92802 -0.694999,-0.88457 -2.161415,0.23446 -1.143724,0.87278 -1.543056,1.84244 -0.987623,2.39813 0.315917,0.31608 1.624901,0.2943 2.118189,-0.0352 z"
         style="fill:none;stroke:#0000ff;stroke-width:0.09999999;stroke-miterlimit:4;stroke-dasharray:none"
         inkscape:connector-curvature="0" />
      <path
         id="path916"
         d="m 21.560352,268.95612 c 0.666112,-1.18232 0.150927,-2.20662 -1.109842,-2.20662 -1.000982,0 -1.265624,0.94599 -0.68906,2.46319 0.439848,1.15743 1.051414,1.07021 1.798902,-0.25657 z"
         style="fill:none;stroke:#0000ff;stroke-width:0.09999999;stroke-miterlimit:4;stroke-dasharray:none"
         inkscape:connector-curvature="0" />
      <path
         id="path914"
         d="m 44.407093,267.60355 c 0,-2.48392 -1.907422,-4.96128 -3.819906,-4.96128 -1.342785,0 -2.168382,-0.60654 -2.426596,-1.78278 -0.276641,-1.26013 -0.798705,-1.39195 -1.201227,-0.3033 -0.560656,1.5163 -0.07949,2.40991 1.509414,2.80329 3.422004,0.84722 5.027227,2.20625 4.97051,4.20814 -0.04195,1.48108 0.144546,1.97023 0.635484,1.66667 0.182772,-0.11302 0.332321,-0.84685 0.332321,-1.63074 z"
         style="fill:none;stroke:#0000ff;stroke-width:0.09999999;stroke-miterlimit:4;stroke-dasharray:none"
         inkscape:connector-curvature="0" />
      <path
         id="path912"
         d="m 22.988277,262.82085 c 0,-1.33842 -0.636857,-1.66793 -1.413707,-0.73144 -0.588011,0.70885 -0.123144,1.98146 0.723808,1.98146 0.550473,0 0.689899,-0.25263 0.689899,-1.25002 z"
         style="fill:none;stroke:#0000ff;stroke-width:0.09999999;stroke-miterlimit:4;stroke-dasharray:none"
         inkscape:connector-curvature="0" />
      <path
         id="path910"
         d="m 41.18393,259.1794 c 0.09248,-0.0811 -0.04968,-0.28214 -0.315966,-0.44678 -0.374847,-0.23177 -0.297558,-0.39923 0.342409,-0.74189 0.79682,-0.42665 0.802436,-0.46018 0.156202,-0.93294 -0.378004,-0.27653 -0.988629,-0.38932 -1.400216,-0.25862 -0.643982,0.20449 -0.672552,0.16265 -0.242752,-0.35547 0.416733,-0.50237 0.406352,-0.58725 -0.0718,-0.58725 -0.307414,0 -0.809008,0.35719 -1.11465,0.79377 -0.45679,0.65247 -0.555707,0.68425 -0.555707,0.17857 0,-0.84043 -0.603461,-0.77481 -1.080801,0.11754 -0.608069,1.13672 -0.287848,2.24335 0.723814,2.50145 0.853972,0.21789 3.207269,0.0404 3.559467,-0.26838 z"
         style="fill:none;stroke:#0000ff;stroke-width:0.09999999;stroke-miterlimit:4;stroke-dasharray:none"
         inkscape:connector-curvature="0" />
      <path
         id="path908"
         d="m 22.957637,249.03568 c 0.563492,-0.76252 0.702758,-1.22124 0.448106,-1.47601 -0.576337,-0.57662 -1.488411,-0.0297 -1.488411,0.89257 0,0.45796 -0.192761,1.02552 -0.428368,1.26124 -0.333185,0.33333 -0.308439,0.42858 0.111358,0.42858 0.296852,0 0.907638,-0.49787 1.357315,-1.10638 z"
         style="fill:none;stroke:#0000ff;stroke-width:0.09999999;stroke-miterlimit:4;stroke-dasharray:none"
         inkscape:connector-curvature="0" />
      <path
         id="path940"
         d="m 24.773174,249.08188 c 0.733671,-0.56483 0.809634,-0.76993 0.426956,-1.15279 -0.382678,-0.38286 -0.587685,-0.30687 -1.152255,0.42715 -1.176902,1.53015 -0.804127,1.90311 0.725299,0.72564 z"
         style="fill:none;stroke:#0000ff;stroke-width:0.09999999;stroke-miterlimit:4;stroke-dasharray:none"
         inkscape:connector-curvature="0" />
      <path
         id="path891"
         style="fill:none;stroke:#0000ff;stroke-width:0.09999999"
         d="m 15.948706,248.77324 -0.06124,0.0612 m -0.459325,0.85845 1.231393,-1.23139 m 0.534293,-0.13517 -0.118741,0.11874 m -1.86125,1.86125 0.08283,-0.0828 m 2.257789,-1.85867 -0.109611,0.10961 m 0.339692,0.0594 0.129458,-0.12946 m 0.282812,0.11631 -0.126738,0.12674 m 0.274951,0.12417 0.138151,-0.13815 m -1.860877,1.86088 -0.113931,0.11393 m 2.085414,-1.68629 0.114035,-0.11404 m 0.22464,0.17449 -0.08992,0.0899 m 0.224837,0.17429 0.08635,-0.0863 m 0.214668,0.18445 -0.07875,0.0787 m 0.222269,0.17686 0.0813,-0.0813 m 2.43763,-2.03851 -0.511858,0.51186 m -1.786164,1.78617 0.114351,-0.11435 m 2.021645,-1.62253 -0.338182,0.33819 m -1.576883,1.57688 0.17625,-0.17625 m -1.494324,1.49432 -0.249942,0.24994 m 3.023157,-2.62403 0.270596,-0.2706 m -1.110677,1.11068 -0.394129,0.39413 m 0.258743,0.14038 1.063443,-1.06344 m -3.685557,3.68555 -0.09515,0.0952 m 5.947472,-5.54835 0.06426,-0.0643 m -2.492436,2.49243 -0.544373,0.54438 m -2.631891,2.63189 0.14269,-0.14269 m 5.839916,-5.4408 -0.224808,0.22481 m -2.778153,2.77815 0.127559,-0.12756 m -2.594315,2.59432 -0.172436,0.17244 m 5.433596,-5.03448 0.522463,-0.52246 m -5.404296,5.40429 -0.26248,0.26248 m 3.181559,-2.78243 2.82109,-2.82109 m -5.3914,5.3914 -0.350778,0.35078 m 3.491635,-3.09252 0.794665,-0.79466 m -3.822675,3.82267 -0.264242,0.26425 m 3.786968,-3.38785 0.239674,-0.23967 m -3.803079,3.80307 -0.162453,0.16246 m -0.115212,0.51433 0.302881,-0.30288 m 5.19844,-4.79932 -0.765422,0.76543 m -4.86764,4.86764 0.192102,-0.19211 m 6.372272,-5.97315 -1.209325,1.20933 m -5.486789,5.48679 0.206483,-0.20648 m 6.413193,-6.01407 -0.70101,0.70101 m -6.05562,6.05562 0.226076,-0.22608 m 6.562098,-6.16298 -0.382867,0.38287 m -2.145087,2.14509 0.395863,-0.39587 m -4.477206,4.47721 -0.244451,0.24445 m 6.77578,-6.37666 0.222283,-0.22228 m -1.745885,1.74589 -0.971025,0.97102 m -4.346728,4.34673 0.246854,-0.24685 m 6.983981,-6.58486 -0.119391,0.11939 m -2.692064,2.69206 1.334914,-1.33491 m -5.570613,5.57061 -0.249257,0.24926 m 7.394136,-6.99502 0.06947,-0.0695 m -2.133655,2.13366 -0.584497,0.58449 m -4.89942,4.89943 0.34005,-0.34006 m 5.210034,-4.81091 -0.270635,0.27064 m -5.241517,5.24151 0.238945,-0.23894 m -0.01655,0.41568 -0.245425,0.24542 m -0.02303,0.42216 0.24387,-0.24387 m 6.831108,-6.43199 -0.07542,0.0754 m -7.022586,7.02258 0.242314,-0.24231 m -0.02459,0.42371 -0.240759,0.24076 m -0.02217,0.42129 0.238342,-0.23834 m 9.152856,-8.75374 -0.176957,0.17696 m -9.205638,9.20564 0.20515,-0.20515 m 9.59053,-9.19141 -0.134872,0.13487 m -9.652205,9.65221 0.171959,-0.17196 m 10.11967,-9.72055 -0.0583,0.0583 m -10.224726,10.22473 0.21164,-0.21164 m -0.06104,0.46016 -0.141996,0.142 m 0.0086,0.39052 0.131048,-0.13105 m -0.0023,0.40147 -0.117138,0.11714 m 12.170948,-11.77183 0.104796,-0.1048 m -12.160951,12.16095 -0.07988,0.0799 m 12.549033,-12.14991 0.111925,-0.11192 m 0.496765,-0.0976 -0.195692,0.19569 m 0.331267,0.0678 0.171604,-0.1716 m -7.957991,7.95799 -0.06291,0.0629 m 8.16497,-7.76584 0.16344,-0.16344 m -7.896206,7.8962 -0.341391,0.34139 m -2.710046,2.71005 0.09579,-0.0958 m 11.10245,-10.70333 -0.127952,0.12795 m -8.514037,8.51404 0.865939,-0.86594 m -2.500796,2.5008 -0.921172,0.92117 m 11.328177,-10.92906 0.08511,-0.0851 m -7.624776,7.62478 -2.421937,2.42193 m 10.205875,-9.80675 0.05611,-0.0561 m -7.328637,7.32864 -2.653485,2.65349 m 10.139908,-9.74079 0.06179,-0.0618 m -1.955692,1.95569 -0.08499,0.085 m -2.399294,2.3993 0.67353,-0.67353 m -3.397898,3.3979 -0.194276,0.19427 m -2.655455,2.65546 0.621778,-0.62178 m 9.615672,-9.21655 -0.07646,0.0765 m -2.019003,2.01901 0.08926,-0.0893 m -2.187072,2.18708 -0.692579,0.69257 m -1.897718,1.89772 0.209716,-0.20971 m -3.116205,3.1162 -0.413057,0.41306 m 10.254493,-9.85537 0.072,-0.072 m -4.855665,4.85567 -1.660163,1.66016 m -3.762345,3.76234 0.341214,-0.34121 m -4.514964,4.51497 -0.203709,0.20371 m 14.810421,-14.41131 0.06858,-0.0686 m -5.542918,5.54292 -0.255424,0.25543 m -4.667811,4.66781 0.287929,-0.28793 m -4.206356,4.20635 -0.435467,0.43547 m 14.978252,-14.57913 0.09753,-0.0975 m -10.451848,10.45184 -0.242457,0.24246 m -4.317013,4.31701 0.769414,-0.76941 m 14.51682,-14.1177 -0.117213,0.11722 m -3.105329,3.10533 0.05188,-0.0519 m -7.573994,7.57399 -1.021759,1.02176 m -3.436974,3.43698 1.085473,-1.08548 m 14.392835,-13.99371 -0.114681,0.11468 m -3.069302,3.0693 0.11551,-0.11551 m -7.968997,7.969 -0.71798,0.71798 m -3.640016,3.64002 0.105129,-0.10513 m 12.601279,-12.20216 -0.155533,0.15553 m -8.726618,8.72662 0.562016,-0.56201 m 9.405712,-9.00659 -0.883925,0.88392 m -8.907111,8.90711 0.407164,-0.40716 m 9.693142,-9.29402 -0.727402,0.7274 m -9.248836,9.24884 0.304937,-0.30494 m 9.966209,-9.56709 -0.563677,0.56368 m -9.585215,9.58522 0.204523,-0.20453 m 10.338641,-9.93952 -0.171041,0.17104 m -10.2653,10.2653 0.146826,-0.14682 m 0.06623,0.33289 -0.118297,0.1183 m -3.910307,3.91031 0.08499,-0.085 m 16.32657,-15.92745 -0.176387,0.17639 m -12.230106,12.23011 0.08977,-0.0898 m -3.865018,3.86502 -0.121356,0.12135 m 15.724372,-15.32525 0.618275,-0.61827 m -12.290047,12.29005 -0.05912,0.0591 m -3.885019,3.88502 0.228646,-0.22865 m 0.292645,0.10648 -0.412834,0.41283 m 0.108458,0.29067 1.471205,-1.47121 m -1.230154,1.62928 -0.132293,0.13229 m 0.111911,0.28721 0.08853,-0.0885 m 0.105312,0.2938 -0.08193,0.0819 m 0.113322,0.2858 0.09043,-0.0904 m 0.121823,0.2773 -0.11547,0.11547 m 15.952975,-15.55385 0.926322,-0.92632 m -16.658483,16.65848 -0.129834,0.12984 m 17.150015,-16.7509 0.105944,-0.10594 M 20.953322,272.9045 20.8071,273.05072 m 17.280108,-16.88098 0.296966,-0.29697 m -17.357699,17.3577 -0.137085,0.13709 m 17.301092,-16.90197 1.008614,-1.00862 M 21.103862,273.5522 20.956065,273.7 m 17.305725,-16.9066 1.361221,-1.36122 m -18.476337,18.47634 -0.153358,0.15335 m 18.838766,-18.43964 0.106751,-0.10675 m -18.753878,18.75388 -0.111823,0.11182 m 19.079123,-18.68 0.05123,-0.0512 m -3.5169,3.5169 -0.197362,0.19736 m -15.38601,15.38601 0.120024,-0.12002 m 19.244899,-18.84578 -0.497424,0.49743 m -3.407095,3.40709 0.317591,-0.31759 m -12.162901,12.1629 -0.628184,0.62818 m -2.957738,2.95774 0.129134,-0.12913 m 19.439064,-19.03994 -0.573609,0.57361 m -3.540474,3.54047 0.517422,-0.51742 m -13.068707,13.06871 -0.06889,0.0689 m -2.808938,2.80894 0.172273,-0.17227 m 19.583868,-19.18475 -0.408395,0.40839 m -3.895754,3.89576 0.781778,-0.78178 m -16.066175,16.06618 -0.136561,0.13656 m 19.688952,-19.28983 0.249103,-0.24911 m -4.404184,4.40419 -0.09003,0.09 m -15.380929,15.38093 0.103385,-0.10339 m 19.983719,-19.5846 -0.163422,0.16343 m -19.863859,19.86385 0.0733,-0.0733 m 20.140186,-19.74107 -0.0666,0.0666 m -3.269977,3.26998 0.23483,-0.23483 m 0.41034,-0.0112 -0.54424,0.54424 m 0.093,0.30613 0.861581,-0.86159 M 21.725,277.32148 21.622276,277.4242 m 19.362143,-18.96302 1.085826,-1.08582 m -3.421,3.42099 -0.151847,0.15185 m -15.786985,15.78699 0.862333,-0.86234 m -1.678155,1.67816 -0.168591,0.16859 m 19.472502,-19.07338 1.022628,-1.02263 m -13.098196,13.0982 -0.05201,0.052 m -7.247898,7.2479 0.146147,-0.14615 m 7.493203,-7.09408 -0.07061,0.0706 m -4.95728,4.95728 0.05513,-0.0551 m -2.450654,2.45065 -0.06729,0.0673 m 19.00074,-18.60162 0.38459,-0.38459 m -11.555192,11.55519 -0.08921,0.0892 m -3.458007,3.45801 0.835644,-0.83565 m 12.089636,-11.69051 -0.06868,0.0687 m -1.504185,1.50418 0.0815,-0.0815 m -7.509918,7.50992 -0.145146,0.14515 m 0.289088,0.11003 0.179807,-0.1798 m 9.20502,-8.8059 -0.06632,0.0663 m -8.910653,8.91065 0.236167,-0.23617 m -8.342472,8.34248 -0.0578,0.0578 m 17.393384,-16.99426 0.0553,-0.0553 m -8.700768,8.70077 -0.227565,0.22756 m -8.349243,8.34924 0.06406,-0.0641 m 8.971268,-8.57214 -0.245374,0.24537 m -8.605246,8.60525 0.06742,-0.0674 m 9.491661,-9.09254 -0.511095,0.5111 m -8.85675,8.85675 0.08193,-0.0819 m 10.080514,-9.68139 -0.973274,0.97327 m -8.974374,8.97438 0.07288,-0.0729 m 10.495206,-10.09609 -1.307118,1.30712 m -9.046173,9.04617 0.06383,-0.0638 m 11.65875,-11.25962 -2.472461,2.47246 m -3.67276,3.67276 0.333462,-0.33346 m -3.694949,3.69495 -1.997629,1.99762 m 11.822054,-11.42293 0.733041,-0.73304 m -3.150032,3.15003 -0.18195,0.18195 m -4.202851,4.20286 1.594956,-1.59496 m -5.10106,5.10106 -1.295661,1.29566 m 12.23683,-11.83771 0.860925,-0.86092 m -12.629019,12.62902 -0.273816,0.27381 m 12.323012,-11.92389 1.06879,-1.06879 m -12.960355,12.96036 -0.262533,0.26253 m 13.5152,-13.11608 0.189345,-0.18934 m -13.250427,13.25043 -0.307547,0.30754 m 0.09532,0.30381 1.034924,-1.03493 m 0.167557,0.23157 -1.131124,1.13112 m 9.397206,-8.99808 0.09818,-0.0982 m -8.21934,8.21934 -1.29366,1.29366 m 9.789283,-9.39016 0.07971,-0.0797 m -8.447798,8.4478 -0.182327,0.18233 m -1.193462,1.19346 0.379493,-0.37949 m 18.602434,-18.20332 -0.08207,0.0821 m -8.749704,8.74971 0.194259,-0.19426 m -5.015727,5.01572 -0.08291,0.0829 m -3.874131,3.87413 0.13168,-0.13168 m -1.373245,1.37324 -0.163223,0.16323 m 19.090311,-18.69119 0.08444,-0.0844 m -7.254076,7.25407 -1.025526,1.02553 m -9.348011,9.34801 0.116864,-0.11687 m -1.598849,1.59885 -0.0983,0.0983 m 19.280763,-18.88164 0.08803,-0.088 m -11.089125,11.08912 -0.796204,0.7962 m -5.782254,5.78226 0.109284,-0.10929 m -1.797124,1.79713 -0.152685,0.15268 m 19.554921,-19.1558 0.102382,-0.10238 m -2.980091,2.98009 -0.06968,0.0697 m -14.659023,14.65902 0.104455,-0.10446 m 17.730545,-17.33142 -0.104891,0.10489 m -2.762153,2.76215 0.10181,-0.10181 m -14.862158,14.86216 -0.09963,0.0996 m 17.745822,-17.3467 0.1074,-0.1074 m -2.550377,2.55038 -0.164444,0.16444 m -15.030419,15.03042 0.0948,-0.0948 m -2.290148,2.29015 -0.302769,0.30277 m 20.241093,-19.84197 0.09967,-0.0997 m -2.312929,2.31293 -0.256004,0.256 m -15.174168,15.17417 0.09841,-0.0984 m -2.789079,2.78908 -5.155635,5.15564 m 25.574616,-25.1755 0.102053,-0.10205 m -2.128223,2.12822 -0.284684,0.28469 m -2.251454,2.25145 0.20256,-0.20256 m -6.587552,6.58755 -0.115211,0.11521 m -6.582718,6.58272 0.08109,-0.0811 m -2.94716,2.94716 -5.210887,5.21089 m 25.787704,-25.38858 0.123798,-0.1238 m -1.499597,1.4996 -0.757283,0.75728 m -2.640005,2.64 0.876919,-0.87691 m -7.135675,7.13567 -0.120562,0.12056 m -6.47526,6.47526 0.06163,-0.0616 m -3.705595,3.7056 -0.613996,0.61399 m -3.98171,3.98171 2.426886,-2.42688 m 23.589906,-23.19079 -0.06979,0.0698 m -1.989955,1.98995 0.539824,-0.53982 m -9.680627,9.68063 -0.146595,0.14659 m -14.607224,14.60723 2.555542,-2.55555 m 23.438857,-23.03973 -0.07603,0.076 m -1.837222,1.83722 0.358625,-0.35863 m -9.705242,9.70524 -0.247032,0.24704 m -3.745008,3.745 0.951328,-0.95132 m -3.327697,3.32769 -0.100266,0.10027 m -8.118481,8.11848 2.599239,-2.59924 m 21.772737,-21.37361 -0.251674,0.25167 m -9.733604,9.7336 0.181173,-0.18117 m -2.651436,2.65144 -1.292925,1.29292 m -2.828646,2.82865 0.487505,-0.48751 m -5.492054,5.49206 -2.603861,2.60386 m 24.120376,-23.72126 0.163362,-0.16336 m -9.848577,9.84858 -0.234916,0.23492 m -2.049395,2.04939 0.181009,-0.18101 m -1.765482,1.76548 -0.480749,0.48075 m -3.006408,3.00641 1.034141,-1.03414 m -5.318425,5.31843 -2.58686,2.58686 m 25.257804,-24.85869 0.102925,-0.10292 m -1.098446,1.09845 -0.16435,0.16435 m -10.105765,10.10576 0.354028,-0.35403 m -1.677473,1.67747 -0.504212,0.50422 m -2.425742,2.42574 0.263428,-0.26343 m -2.08804,2.08804 -1.893864,1.89386 m -5.774284,5.77429 2.531927,-2.53193 m 22.543977,-22.14485 -1.088043,1.08804 m -10.241702,10.2417 0.552384,-0.55238 m -1.33089,1.33089 -0.88797,0.88797 m -2.476907,2.4769 0.07655,-0.0765 m -2.002307,2.00231 -1.896598,1.8966 m -5.534413,5.53441 2.476993,-2.47699 m 22.314085,-21.91496 -0.913289,0.91329 m -11.996735,11.99673 2.5283,-2.5283 m -4.823971,4.82397 -0.08451,0.0845 m -2.423292,2.42329 0.362307,-0.36231 m -1.719136,1.71914 -0.658697,0.65869 m -4.816042,4.81605 2.425704,-2.42571 m 22.089157,-21.69003 -0.747145,0.74714 m -10.373001,10.373 1.54903,-1.54903 m -3.143068,3.14307 -0.114999,0.115 m -2.243081,2.24308 0.08686,-0.0869 m -2.326714,2.32671 -0.323449,0.32345 m -2.003039,2.00304 0.119155,-0.11916 m -2.36543,2.36543 -2.383975,2.38398 m 23.657645,-23.25852 0.612182,-0.61219 m -10.379345,10.37935 -0.412612,0.41261 m -4.093545,4.09355 0.118527,-0.11853 m -2.607042,2.60704 -0.237626,0.23763 m -2.071568,2.07157 0.102084,-0.10209 m -2.100445,2.10045 -2.278031,2.27803 m 23.460147,-23.06103 0.494926,-0.49492 m -1.485286,1.48528 -1.498059,1.49806 m -2.841555,2.84156 0.753962,-0.75396 m -5.21128,5.21128 -0.271406,0.2714 m -4.140876,4.14088 0.139297,-0.1393 m -2.87035,2.87035 -0.227694,0.22769 m -2.105701,2.1057 0.08486,-0.0849 m -1.798676,1.79868 -2.185968,2.18597 m 23.25342,-22.8543 0.400781,-0.40078 m -1.735709,1.73571 -0.649323,0.64932 m -3.516492,3.51649 1.479973,-1.47997 m -5.723932,5.72393 -0.153987,0.15399 m -2.294205,2.2942 0.06046,-0.0605 m -1.831207,1.83121 -0.139227,0.13923 m -3.172212,3.17221 0.198768,-0.19877 m -2.161801,2.1618 -0.07492,0.0749 m -3.644046,3.64405 2.093905,-2.09391 m 21.327526,-20.9284 -0.374738,0.37474 m -9.786568,9.78656 0.08445,-0.0845 m -2.349776,2.34978 -0.09745,0.0974 m -1.901173,1.90117 0.18351,-0.18351 m -3.354991,3.35499 -0.241643,0.24164 m -5.286713,5.28672 2.001841,-2.00185 m 21.083224,-20.6841 -0.245099,0.2451 m -12.109881,12.10988 0.153401,-0.1534 m -1.918995,1.919 -0.119709,0.11971 m -3.657011,3.65701 0.205161,-0.20516 m -3.16674,3.16674 -1.863396,1.86339 m 22.573564,-22.17444 0.164123,-0.16412 m -11.957082,11.95708 -0.199515,0.19951 m -2.196558,2.19656 0.302814,-0.30281 m -3.805834,3.80583 -0.153953,0.15396 m -1.530864,1.53086 0.112954,-0.11295 m -1.209449,1.20944 -1.744927,1.74493 m 22.264462,-21.86534 0.133371,-0.13337 m -11.712464,11.71246 -0.157422,0.15743 m -2.469548,2.46955 0.221239,-0.22124 m -3.902024,3.90202 -0.305393,0.30539 m -1.145272,1.14527 0.246663,-0.24666 m -1.165535,1.16554 -1.652803,1.6528 m 21.955358,-21.55624 0.102618,-0.10261 m -11.462937,11.46293 -0.172868,0.17287 m -2.85138,2.85138 0.310237,-0.31024 m -3.999209,3.99921 -3.526545,3.52655 m 21.646254,-21.24713 0.07187,-0.0719 m -9.229972,9.22997 -0.08388,0.0839 m -2.091825,2.09183 0.195694,-0.19569 m -3.217052,3.21705 -0.196054,0.19605 m -6.724567,6.72457 3.011609,-3.01161 m 9.331965,-8.93284 -0.175726,0.17572 m -1.997728,1.99773 0.182262,-0.18226 m -3.614929,3.61493 -0.116803,0.1168 m -6.254375,6.25438 2.533403,-2.53341 m 9.678362,-9.27924 -0.276147,0.27615 m -1.917539,1.91754 0.182735,-0.18273 m -3.792699,3.79269 -0.200211,0.20022 m -5.841629,5.84162 2.24402,-2.24402 m 13.573901,-13.17477 -0.322706,0.3227 m -3.8117,3.8117 0.448471,-0.44847 m -2.163902,2.1639 -0.165693,0.16569 m -3.902713,3.90272 0.257983,-0.25799 m -3.678517,3.67852 -2.178645,2.17865 m 15.244011,-14.84489 0.49045,-0.49045 m -3.431158,3.43116 -0.840845,0.84084 m -1.958069,1.95807 0.19377,-0.19377 m -3.566375,3.56638 -0.46968,0.46968 m -5.414704,5.4147 2.176648,-2.17665 m 13.95775,-13.55862 -1.312235,1.31223 m -3.527663,3.52766 0.458877,-0.45887 m -2.366539,2.36653 -0.26512,0.26512 m -3.60121,3.60121 0.984307,-0.9843 m -4.082764,4.08276 -2.254894,2.25489 m 18.626374,-18.22725 0.08624,-0.0862 m -2.206731,2.20673 -1.977233,1.97724 m -3.301647,3.30164 0.179696,-0.17969 m -2.360293,2.36029 -3.582228,3.58223 m -5.292804,5.2928 2.315735,-2.31573 m 17.300398,-16.90128 -0.986472,0.98647 m -1.830246,1.83025 0.25429,-0.25429 m -2.537206,2.53721 -0.308582,0.30858 m -3.14246,3.14246 0.155141,-0.15514 m -2.836169,2.83617 -2.032159,2.03215 m -0.969025,0.96903 0.292474,-0.29247 m -3.151413,3.15141 -2.3084,2.3084 m 17.738059,-17.33894 1.665824,-1.66582 m -8.439679,8.43968 -0.1117,0.1117 m -4.463942,4.46394 0.36249,-0.36249 m -1.229957,1.22995 -0.263317,0.26332 m -5.028387,5.02839 2.287582,-2.28758 m 11.603221,-11.2041 -0.105829,0.10583 m -3.158908,3.15891 0.06826,-0.0683 m -4.162494,4.16249 -0.173487,0.17349 m -1.239516,1.23951 0.263676,-0.26367 m -2.886351,2.88635 -2.266764,2.26676 m 13.695492,-13.29637 0.11922,-0.11922 m -3.307574,3.30758 -0.124981,0.12498 m -4.083446,4.08344 0.124059,-0.12405 m -1.193623,1.19362 -0.249268,0.24927 m -4.742236,4.74223 2.237694,-2.23769 m 11.664012,-11.26489 -0.197791,0.19779 m -3.648441,3.64844 0.08972,-0.0897 m -3.813705,3.81371 -0.102433,0.10243 m -1.40838,1.40838 0.298373,-0.29837 m -2.672713,2.67271 -2.181831,2.18183 m 13.804634,-13.40551 0.154595,-0.15459 m -4.119701,4.1197 -0.233034,0.23303 m -3.559499,3.5595 0.169482,-0.16948 m -1.208564,1.20856 -0.409452,0.40945 m -4.333955,4.33396 2.129548,-2.12955 m 11.818434,-11.41931 -0.08282,0.0828 m -4.564011,4.56401 0.232714,-0.23271 m -3.351713,3.35171 -0.271656,0.27166 m -1.534248,1.53425 0.582387,-0.58239 m -2.616861,2.61686 -2.047379,2.04738 m 8.553158,-8.15404 0.501628,-0.50162 m -2.768446,2.76844 -2.20843,2.20843 m -3.779176,3.77918 1.960868,-1.96087 m 6.635429,-6.23631 -4.753788,4.75379 m -3.518176,3.51818 1.848758,-1.84876 m 5.934611,-5.53549 -4.29637,4.29637 m -3.150366,3.15037 1.731607,-1.73161 m 5.616412,-5.21729 -0.395718,0.39572 m -3.83311,3.83311 2.759986,-2.75999 m -3.881191,3.88119 -1.627873,1.62788 m 0.383669,0.0154 5.316105,-5.31611 m 0.190709,0.20842 -5.051505,5.0515 m 12.648244,-12.24912 0.08415,-0.0841 m -3.694124,3.69412 -0.09992,0.0999 m -8.578801,8.57881 4.882664,-4.88267 m 7.606431,-7.20731 -0.151434,0.15144 m -4.370919,4.37092 2.173386,-2.17339 m -5.080816,5.08082 -4.493091,4.49309 m 9.874539,-9.47542 2.097303,-2.0973 m -4.136142,4.13614 -0.420622,0.42062 m -5.712522,5.71252 2.960465,-2.96046 m 7.092121,-6.693 -0.822002,0.822 m -8.98817,8.98817 2.887981,-2.88798 m 0.157044,0.24208 -2.795194,2.79519 m 0.264192,0.13493 2.662055,-2.66205 m 2.535844,-2.13672 -0.05628,0.0563 m -4.876991,4.87699 2.528482,-2.52848 m 2.533283,-2.13416 -0.04995,0.05 m -4.692112,4.69211 2.336215,-2.33621 m 2.552787,-2.15367 -0.06207,0.0621 m -4.541668,4.54167 2.174938,-2.17494 m 2.576442,-2.17732 -0.07489,0.0749 m -4.238904,4.23891 1.861342,-1.86135 m 2.600097,-2.20097 -0.05904,0.059 m -4.026673,4.02667 1.644741,-1.64474 m 0.202066,0.19706 -1.471079,1.47108 m 0.502505,-0.10339 1.170639,-1.17063 m 0.253466,0.14565 -0.954257,0.95426 m 0.419525,-0.0204 0.840585,-0.84059 m 2.199509,-1.80039 -0.07142,0.0714 m -2.244444,2.24444 0.501774,-0.50177 m 1.869908,-1.47079 -1.834326,1.83433 m 1.053407,-0.65428 0.626985,-0.62699"
         inkscape:connector-curvature="0" />
    </g>
  </g>
</svg>
