<?xml version="1.0" encoding="UTF-8" standalone="no"?>
<!-- Created with Inkscape (http://www.inkscape.org/) -->

<svg
   xmlns:dc="http://purl.org/dc/elements/1.1/"
   xmlns:cc="http://creativecommons.org/ns#"
   xmlns:rdf="http://www.w3.org/1999/02/22-rdf-syntax-ns#"
   xmlns:svg="http://www.w3.org/2000/svg"
   xmlns="http://www.w3.org/2000/svg"
   xmlns:sodipodi="http://sodipodi.sourceforge.net/DTD/sodipodi-0.dtd"
   xmlns:inkscape="http://www.inkscape.org/namespaces/inkscape"
   width="75mm"
   height="75mm"
   viewBox="0 0 75 75"
   version="1.1"
   id="svg1586"
   inkscape:version="0.92.2 2405546, 2018-03-11"
   sodipodi:docname="75.svg">
  <sodipodi:namedview
     id="base"
     pagecolor="#ffffff"
     bordercolor="#666666"
     borderopacity="1.0"
     inkscape:pageopacity="0.0"
     inkscape:pageshadow="2"
     inkscape:zoom="0.82577733"
     inkscape:cx="121.03123"
     inkscape:cy="63.84355"
     inkscape:document-units="mm"
     inkscape:current-layer="layer1"
     showgrid="false"
     inkscape:window-width="1366"
     inkscape:window-height="703"
     inkscape:window-x="0"
     inkscape:window-y="0"
     inkscape:window-maximized="1" />
  <defs
     id="defs1580" />
  <metadata
     id="metadata1583">
    <rdf:RDF>
      <cc:Work
         rdf:about="">
        <dc:format>image/svg+xml</dc:format>
        <dc:type
           rdf:resource="http://purl.org/dc/dcmitype/StillImage" />
        <dc:title></dc:title>
      </cc:Work>
    </rdf:RDF>
  </metadata>
  <g
     transform="translate(0,-222)"
     id="layer1"
     inkscape:groupmode="layer"
     inkscape:label="Layer 1">
    <g
       id="g1062">
      <path
         id="path1014"
         d="m 29.738202,225.0998 c 1.10172,-0.84781 1.21579,-1.15567 0.64114,-1.73035 -0.57465,-0.57467 -0.8825,-0.4606 -1.73029,0.64116 -1.7673,2.29676 -1.20752,2.85657 1.08915,1.08919 z"
         style="fill:none;stroke:#0000ff;stroke-width:0.09999999;stroke-miterlimit:4;stroke-dasharray:none" />
      <path
         id="path1012"
         d="m 27.011892,225.0304 c 0.84617,-1.14456 1.0553,-1.8331 0.6729,-2.21551 -0.86546,-0.8655 -2.23508,-0.0445 -2.23508,1.33976 0,0.6874 -0.28946,1.5393 -0.64326,1.89312 -0.50033,0.50034 -0.46317,0.6433 0.16722,0.6433 0.44577,0 1.36296,-0.7473 2.03822,-1.66067 z"
         style="fill:none;stroke:#0000ff;stroke-width:0.09999999;stroke-miterlimit:4;stroke-dasharray:none" />
      <path
         id="path1010"
         d="m 54.381494,240.25617 c 0.138879,-0.12172 -0.0746,-0.4235 -0.474472,-0.67063 -0.562891,-0.34789 -0.446829,-0.59924 0.51418,-1.11358 1.196549,-0.6404 1.204982,-0.69073 0.234561,-1.40035 -0.567631,-0.41507 -1.484579,-0.58436 -2.102641,-0.38819 -0.967039,0.30694 -1.009941,0.24415 -0.364529,-0.53356 0.625789,-0.75406 0.6102,-0.88146 -0.107821,-0.88146 -0.461629,0 -1.21485,0.53615 -1.67382,1.19145 -0.68594,0.97936 -0.83448,1.02707 -0.83448,0.26804 0,-1.26149 -0.90619,-1.16299 -1.622989,0.17642 -0.913111,1.70622 -0.432249,3.36728 1.086919,3.7547 1.28237,0.32704 4.816211,0.0607 5.345092,-0.40284 z"
         style="fill:none;stroke:#0000ff;stroke-width:0.09999999;stroke-miterlimit:4;stroke-dasharray:none" />
      <path
         id="path1008"
         d="m 27.057902,245.72199 c 0,-2.00897 -0.95634,-2.50356 -2.1229,-1.09789 -0.88299,1.06399 -0.18492,2.97418 1.08691,2.97418 0.82662,0 1.03599,-0.3792 1.03599,-1.87629 z"
         style="fill:none;stroke:#0000ff;stroke-width:0.09999999;stroke-miterlimit:4;stroke-dasharray:none" />
      <path
         id="path1006"
         d="m 59.221572,252.90085 c 0,-3.72838 -2.864289,-7.4469 -5.73618,-7.4469 -2.0164,0 -3.256161,-0.91043 -3.64391,-2.67596 -0.41542,-1.89147 -1.19938,-2.08933 -1.803829,-0.45526 -0.841912,2.27597 -0.119372,3.61728 2.266619,4.20775 5.138669,1.27169 7.549161,3.31159 7.463991,6.31644 -0.063,2.2231 0.217059,2.95732 0.954278,2.50168 0.274461,-0.16964 0.499031,-1.27112 0.499031,-2.44775 z"
         style="fill:none;stroke:#0000ff;stroke-width:0.09999999;stroke-miterlimit:4;stroke-dasharray:none" />
      <path
         id="path1004"
         d="m 24.913652,254.93107 c 1.00027,-1.77467 0.22664,-3.31216 -1.6666,-3.31216 -1.50313,0 -1.90053,1.41995 -1.03473,3.69727 0.6605,1.73731 1.57886,1.60639 2.70133,-0.38511 z"
         style="fill:none;stroke:#0000ff;stroke-width:0.09999999;stroke-miterlimit:4;stroke-dasharray:none" />
      <path
         id="path1002"
         d="m 46.141842,260.05401 c 1.049682,-0.70093 1.89066,-2.81893 1.547979,-3.89865 -0.442089,-1.39296 -1.043649,-1.32774 -3.245699,0.35192 -1.717479,1.31005 -2.317139,2.76551 -1.483069,3.59961 0.474398,0.47443 2.44004,0.44175 3.180789,-0.0529 z"
         style="fill:none;stroke:#0000ff;stroke-width:0.09999999;stroke-miterlimit:4;stroke-dasharray:none" />
      <path
         id="path1000"
         d="m 55.490503,269.03072 c 1.167579,-0.59568 2.122879,-1.2103 2.122879,-1.3658 0,-0.71913 -2.953819,-2.91197 -3.922509,-2.91197 -1.202531,0 -3.04628,1.43817 -3.04628,2.37618 0,0.85446 1.56732,2.98465 2.195988,2.98465 0.289873,0 1.482331,-0.48738 2.649922,-1.08306 z"
         style="fill:none;stroke:#0000ff;stroke-width:0.09999999;stroke-miterlimit:4;stroke-dasharray:none" />
      <path
         id="path998"
         d="m 47.711641,274.26843 c -0.207729,-0.6634 -0.35919,-1.74897 -0.336557,-2.41238 0.0311,-0.91151 -0.258612,-1.20618 -1.185802,-1.20618 -2.14916,0 -2.569869,0.99863 -1.267881,3.00956 1.369261,2.11483 3.400581,2.55818 2.79024,0.609 z"
         style="fill:none;stroke:#ff0000;stroke-width:0.09999999;stroke-miterlimit:4;stroke-dasharray:none" />
      <path
         id="path996"
         d="m 40.524632,283.36257 c 0.772959,-0.6528 1.7081,-1.77091 2.078109,-2.48468 0.578242,-1.11549 0.535882,-1.39785 -0.301688,-2.01031 -0.53593,-0.3919 -1.153281,-0.71255 -1.371891,-0.71255 -0.44523,0 -1.24477,-2.00504 -1.26512,-3.17258 -0.0274,-1.57393 -1.36204,-1.12482 -2.26127,0.76096 -0.92406,1.93786 -0.92048,1.96946 0.32932,2.91223 1.27408,0.96109 1.38,2.54719 0.33353,4.99425 -0.56819,1.32862 0.7245,1.17757 2.45901,-0.28732 z"
         style="fill:none;stroke:#ff0000;stroke-width:0.09999999;stroke-miterlimit:4;stroke-dasharray:none" />
      <path
         id="path994"
         d="m 44.979953,284.10636 c 1.229861,-2.40456 1.519511,-5.64475 0.68166,-7.62555 -1.47505,-3.48728 -4.16423,-4.59165 -4.844671,-1.98957 -0.38078,1.4562 0.0694,2.48473 1.25178,2.86002 0.53581,0.17007 1.258991,0.65239 1.607079,1.07183 0.902512,1.0875 -0.229568,4.24399 -1.979239,5.51859 -1.18622,0.86413 -1.28802,1.15783 -0.74993,2.16333 0.593841,1.10963 0.68503,1.12257 1.971331,0.27971 0.741781,-0.48605 1.66968,-1.51131 2.06199,-2.27836 z"
         style="fill:none;stroke:#0000ff;stroke-width:0.09999999;stroke-miterlimit:4;stroke-dasharray:none" />
      <path
         id="path992"
         d="m 40.459432,287.87017 c 0,-0.55358 -0.36184,-1.30684 -0.8041,-1.67388 -0.65556,-0.5441 -0.80409,-0.51482 -0.80409,0.15855 0,1.22053 0.58284,2.52186 1.12948,2.52186 0.26329,0 0.47871,-0.45293 0.47871,-1.00653 z"
         style="fill:none;stroke:#0000ff;stroke-width:0.09999999;stroke-miterlimit:4;stroke-dasharray:none" />
      <path
         id="path990"
         d="m 32.372992,284.57392 c 0.48996,-3.09956 -0.003,-3.43641 -1.23356,-0.84301 -0.90118,1.89918 -1.13342,4.16275 -0.49281,4.80339 0.57053,0.57054 1.26028,-1.01177 1.72637,-3.96038 z"
         style="fill:none;stroke:#ff0000;stroke-width:0.09999999;stroke-miterlimit:4;stroke-dasharray:none" />
      <path
         id="path988"
         d="m 29.653182,288.86324 c -0.77985,-2.23721 -0.18491,-4.81386 1.71816,-7.44107 1.57444,-2.17354 1.59292,-2.27302 0.87791,-4.72528 -0.40172,-1.37774 -0.9762,-2.58693 -1.27661,-2.68707 -0.30242,-0.10081 -0.70433,1.16317 -0.90044,2.83186 -0.43994,3.74334 -1.35788,5.56192 -3.80705,7.54235 l -1.90972,1.54421 2.09341,2.27836 c 2.56204,2.78841 4.05404,3.09415 3.20434,0.65664 z"
         style="fill:none;stroke:#0000ff;stroke-width:0.09999999;stroke-miterlimit:4;stroke-dasharray:none" />
      <path
         id="path986"
         d="m 20.089102,228.3354 c 0,-0.57629 -2.0854,-1.34583 -2.50635,-0.92486 -0.15472,0.15473 -0.1223,0.53861 0.0721,0.85307 0.43454,0.70312 2.43431,0.7621 2.43431,0.0718 z"
         style="fill:none;stroke:#0000ff;stroke-width:0.09999999;stroke-miterlimit:4;stroke-dasharray:none" />
      <path
         id="path984"
         d="m 17.230112,229.01406 c -0.86162,-0.86167 -0.32392,-2.32256 0.84876,-2.30598 1.52161,0.0215 3.3036,1.33559 2.83637,2.09161 -0.38747,0.62697 -3.11395,0.78557 -3.68513,0.21437 z"
         style="fill:none;stroke:#0000ff;stroke-width:0.09999999;stroke-miterlimit:4;stroke-dasharray:none" />
      <path
         id="path982"
         d="m 30.274262,229.90753 c 0,-0.23176 -0.36183,-0.56023 -0.80409,-0.72995 -0.54421,-0.20884 -0.80409,0.0271 -0.80409,0.72995 0,0.70288 0.25988,0.93879 0.80409,0.72994 0.44226,-0.16971 0.80409,-0.49819 0.80409,-0.72994 z"
         style="fill:none;stroke:#0000ff;stroke-width:0.09999999;stroke-miterlimit:4;stroke-dasharray:none" />
      <path
         id="path980"
         d="m 26.521842,230.43212 c 0,-0.63521 0.5537,-1.33595 1.33797,-1.69331 1.11123,-0.50633 1.52606,-0.43943 2.44781,0.39477 1.04829,0.94874 1.0576,1.04261 0.16775,1.69331 -0.51815,0.37889 -1.61965,0.68889 -2.4478,0.68889 -1.15368,0 -1.50573,-0.25337 -1.50573,-1.08366 z"
         style="fill:none;stroke:#0000ff;stroke-width:0.09999999;stroke-miterlimit:4;stroke-dasharray:none" />
      <path
         id="path978"
         d="m 56.809292,259.0716 c 0,-1.46371 -2.699309,-2.3026 -3.815951,-1.18592 -1.02013,1.02018 -0.572688,2.94539 0.75878,3.26473 1.285481,0.30832 3.057171,-0.8964 3.057171,-2.07881 z"
         style="fill:none;stroke:#0000ff;stroke-width:0.09999999;stroke-miterlimit:4;stroke-dasharray:none" />
      <path
         id="path976"
         d="m 52.908111,261.23801 c -1.296149,-0.90789 -1.571628,-2.85947 -0.548129,-3.88301 1.576332,-1.57639 5.2534,-0.0485 5.2534,2.18295 0,0.88175 -1.92264,2.53458 -2.948329,2.53458 -0.31105,0 -1.10168,-0.37553 -1.756942,-0.83452 z"
         style="fill:none;stroke:#0000ff;stroke-width:0.09999999;stroke-miterlimit:4;stroke-dasharray:none" />
      <path
         id="path974"
         d="m 32.651782,262.11095 c 1.35103,-1.49294 0.66036,-3.25492 -1.27587,-3.25492 -2.09223,0 -3.04581,1.24852 -2.26407,2.96434 0.72257,1.58592 2.25396,1.71162 3.53994,0.29058 z"
         style="fill:none;stroke:#0000ff;stroke-width:0.09999999;stroke-miterlimit:4;stroke-dasharray:none" />
      <path
         id="path972"
         d="m 29.017202,262.70042 c -1.77761,-1.96431 -0.88783,-4.1044 1.85261,-4.45593 2.72265,-0.34923 3.95827,1.90921 2.3224,4.24484 -1.01212,1.44506 -2.9688,1.54399 -4.17501,0.21109 z"
         style="fill:none;stroke:#0000ff;stroke-width:0.09999999;stroke-miterlimit:4;stroke-dasharray:none" />
      <path
         id="path970"
         d="m 40.488282,266.05568 c 1.789929,-1.85429 1.8149,-1.9377 0.803361,-2.68294 -1.302651,-0.95971 -2.884011,-0.53796 -4.452391,1.18743 -0.95741,1.05327 -1.09246,1.54455 -0.65121,2.36906 0.83027,1.55145 2.23482,1.26613 4.30024,-0.87355 z"
         style="fill:none;stroke:#0000ff;stroke-width:0.09999999;stroke-miterlimit:4;stroke-dasharray:none" />
      <path
         id="path968"
         d="m 36.190492,267.989 c -1.29537,-1.29543 -1.36263,-2.07454 -0.30894,-3.57897 1.19607,-1.70769 3.80339,-2.61823 5.40612,-1.88795 1.887389,0.85999 1.629881,2.43276 -0.69423,4.2402 -3.02265,2.35069 -3.22316,2.40656 -4.40295,1.22672 z"
         style="fill:none;stroke:#0000ff;stroke-width:0.09999999;stroke-miterlimit:4;stroke-dasharray:none" />
      <path
         id="path966"
         d="m 38.306982,290.8698 c 0.005,-1.11514 -0.36735,-2.92443 -0.82636,-4.02063 -0.68559,-1.63734 -0.72372,-2.39004 -0.2136,-4.21702 0.56094,-2.00897 0.51207,-2.33281 -0.50559,-3.35052 -1.35223,-1.35229 -1.3723,-1.64705 -0.26943,-3.95986 0.67547,-1.41654 1.35711,-1.93121 3.21636,-2.42851 l 2.359251,-0.63103 v -2.58001 c 0,-1.41901 0.330679,-3.03227 0.734859,-3.58504 0.647901,-0.88609 0.70326,-0.6762 0.46785,1.77383 -0.28221,2.93722 0.0486,3.29447 2.056,2.22011 1.73001,-0.92591 2.8428,0.12994 2.934991,2.78486 0.0445,1.28183 -0.20633,2.69245 -0.557432,3.13472 -0.351099,0.44227 -0.658259,2.16627 -0.682569,3.8311 -0.0484,3.31096 -1.079961,5.83323 -2.910089,7.11516 l -1.17888,0.82575 1.1142,1.2171 c 0.61282,0.6694 1.2719,1.7381 1.46462,2.37487 0.577911,1.90952 1.74213,2.57858 3.273089,1.881 1.36693,-0.62285 1.795121,-2.41644 0.73352,-3.07258 -0.324919,-0.20081 -0.93255,-1.18316 -1.35028,-2.183 -1.037979,-2.48431 -0.0158,-4.38397 3.534529,-6.56859 1.979192,-1.21786 2.695001,-1.98712 2.695001,-2.89626 0,-1.48937 -0.930111,-2.52455 -2.268289,-2.52455 -1.400982,0 -1.737122,-1.36167 -0.935662,-3.79024 0.606232,-1.83695 0.58157,-2.22628 -0.195379,-3.08483 -1.662099,-1.83668 -0.78078,-4.12679 1.963981,-5.1034 1.075219,-0.38257 2.980479,0.44682 3.904121,1.69951 0.359589,0.48771 0.963527,0.6613 1.536168,0.44155 0.797271,-0.30595 0.908611,-0.88065 0.717931,-3.70567 -0.479751,-7.10753 -4.06767,-10.21019 -9.97676,-8.6274 -1.045851,0.28014 -1.18086,0.56977 -0.887741,1.90438 0.45276,2.06147 -0.56415,4.42774 -2.228771,5.18622 -2.069219,0.94284 -2.863918,0.73445 -3.849928,-1.00955 -0.73428,-1.29877 -1.175701,-1.55995 -2.253321,-1.33328 -1.89288,0.39815 -8.49796,-1.61515 -10.03435,-3.05858 -0.70794,-0.66511 -1.67411,-2.60108 -2.14704,-4.30217 -0.6527,-2.34777 -1.09974,-3.09288 -1.85558,-3.09288 -1.16575,0 -2.3368,-2.21855 -1.84608,-3.49738 0.18684,-0.48694 1.04863,-1.15293 1.91507,-1.47999 1.76055,-0.66456 2.70116,-2.92522 1.53564,-3.69074 -0.41138,-0.27019 0.21938,-0.32164 1.5262,-0.12449 2.89245,0.43636 5.30443,-0.91437 6.13684,-3.43667 l 0.59981,-1.81756 2.88884,0.36095 c 3.22149,0.40251 3.843891,-0.26267 1.25083,-1.3368 -1.23239,-0.5105 -1.48129,-0.82529 -1.00512,-1.27123 0.46459,-0.4351 0.69922,-0.41151 0.88235,0.0887 0.40446,1.10478 3.00669,2.18765 4.548689,1.89286 2.420501,-0.46272 2.606533,-2.84229 0.222221,-2.84229 -0.668289,0 -1.781619,-0.60309 -2.474079,-1.3402 -1.407071,-1.49783 -3.235851,-1.69864 -6.516831,-0.7156 -1.95676,0.58629 -2.18027,0.53306 -3.64186,-0.8673 -1.61716,-1.5494 -1.80001,-1.56387 -6.7859,-0.53709 -1.37218,0.28258 -2.00065,0.0502 -3.55516,-1.31477 -2.61751,-2.29831 -4.36695,-2.1903 -5.70585,0.35228 -0.44108,0.83759 -0.47015,1.51455 -0.0951,2.21528 0.6819,1.27421 1.71929,1.67132 4.36607,1.67132 2.3863,0 2.38604,-9.5e-4 1.28559,4.55671 -0.7472,3.09469 -1.09979,13.85606 -0.50477,15.40671 0.19337,0.50392 0.84132,0.67098 1.96356,0.50626 3.12537,-0.45873 4.21406,3.13324 1.70894,5.63846 -1.36536,1.36542 -1.37844,1.44376 -0.53606,3.21032 0.4749,0.99591 0.86345,2.99452 0.86345,4.44135 0,1.44682 0.24123,2.77968 0.53606,2.96191 0.29484,0.18222 0.53607,0.7575 0.53607,1.27839 0,0.5209 0.57133,1.48384 1.26962,2.13988 l 1.26963,1.19281 1.43622,-1.70692 c 1.62371,-1.92976 1.62248,-2.97718 -0.005,-4.05573 -0.98981,-0.65605 -1.28952,-0.61169 -2.54629,0.37692 -0.78336,0.61628 -1.42436,0.87544 -1.42436,0.57591 0,-0.70441 2.15406,-2.21364 3.15943,-2.21364 1.21076,0 2.73725,1.65028 2.73725,2.95925 0,0.65165 -0.48247,1.79819 -1.07212,2.54786 -0.58967,0.74967 -1.07213,1.62654 -1.07213,1.94859 0,0.81973 1.06827,0.7368 1.08916,-0.0846 0.0342,-1.34168 1.58241,1.43784 2.43555,4.37239 0.95956,3.30065 0.74029,7.57605 -0.58055,11.3199 -0.47305,1.3408 -0.54657,2.13248 -0.19803,2.13248 0.30486,0 1.53226,0.98781 2.72751,2.19512 2.4432,2.46784 3.08104,2.20525 3.09513,-1.27419 z"
         style="fill:none;stroke:#0000ff;stroke-width:0.09999999;stroke-miterlimit:4;stroke-dasharray:none" />
      <path
         id="path940"
         d="m 30.944342,295.85166 c -0.95821,-0.58426 -1.7422,-1.30707 -1.7422,-1.60625 0,-0.29918 -1.14583,-0.54486 -2.54629,-0.54596 -2.68949,-0.002 -5.8031,-1.46155 -6.39193,-2.99607 -0.54838,-1.42911 1.00852,-3.71241 4.49001,-6.58498 3.50988,-2.89598 4.43914,-4.72331 4.44522,-8.7413 0.002,-1.57016 -0.31647,-2.2013 -1.55917,-3.08622 -2.09414,-1.49121 -3.79845,-5.15993 -3.79845,-8.17656 0,-1.46843 -0.55682,-3.70188 -1.39454,-5.59365 -3.17523,-7.17036 -3.84979,-18.61913 -1.53158,-25.99439 0.21261,-0.67642 -0.22788,-0.93287 -2.0138,-1.17242 -2.89477,-0.38829 -4.39551,-2.05139 -3.94768,-4.37476 0.65038,-3.37414 4.14238,-4.54614 6.50515,-2.18328 1.77087,1.77095 3.24997,1.21622 2.97495,-1.11576 -0.14934,-1.26632 1.45916,-1.89336 3.91292,-1.52538 2.39468,0.35911 3.55514,1.59522 2.73835,2.91687 -0.18166,0.29394 0.27269,1.18476 1.00967,1.97959 1.30013,1.40219 1.42166,1.42628 4.08901,0.81056 3.86513,-0.89222 4.70161,-0.80609 6.043241,0.62224 0.649298,0.69126 1.836949,1.41782 2.63924,1.61458 1.969468,0.48302 2.841048,2.13354 1.71912,3.25552 -0.46228,0.4623 -1.487019,0.98029 -2.27719,1.1511 -0.790191,0.1708 -1.96003,0.56339 -2.599661,0.87242 -0.82198,0.39711 -1.67064,0.38488 -2.89432,-0.0417 -0.95224,-0.33197 -1.81272,-0.60357 -1.91218,-0.60357 -0.0995,0 -0.5255,0.82491 -0.94675,1.83314 -0.81172,1.94282 -2.10525,2.90259 -5.12362,3.80164 -2.15829,0.64288 -2.58071,1.6772 -2.62487,6.42709 -0.032,3.44385 0.87813,6.69907 2.31788,8.29004 0.48873,0.54006 2.63252,1.39264 4.76398,1.89461 4.4525,1.04859 5.83702,0.71037 10.342011,-2.52639 2.134529,-1.53363 2.876979,-1.76134 5.742818,-1.76134 1.810261,0 3.83413,0.19719 4.497501,0.43819 1.04425,0.37937 1.206141,0.25984 1.206141,-0.89049 0,-2.16782 -4.520071,-5.15676 -7.823812,-5.17359 -1.482957,-0.007 -2.183188,-1.95273 -2.246817,-6.24142 -0.0544,-3.66915 0.0985,-4.50984 0.962527,-5.29183 0.565002,-0.51133 1.390351,-0.79035 1.834142,-0.62004 0.443789,0.1703 0.949468,0.0789 1.123731,-0.20303 0.629118,-1.01799 2.376188,-0.47774 3.976338,1.2296 1.830491,1.95313 2.020012,2.5464 0.81344,2.5464 -0.579361,0 -0.77851,0.43817 -0.67007,1.47423 0.13953,1.3331 -0.0117,1.47598 -1.579341,1.49249 -2.23389,0.0235 -3.257068,0.95693 -2.305669,2.10335 0.37741,0.45477 1.013611,0.82685 1.413801,0.82685 0.40018,0 1.704168,0.39076 2.897738,0.86835 3.146272,1.25894 5.055632,4.64412 4.57749,8.11561 -0.192558,1.39801 -0.300738,3.50678 -0.240419,4.68616 0.378079,7.39254 0.27417,8.17852 -1.29817,9.81918 -0.832379,0.86855 -2.432928,1.99384 -3.556788,2.50066 -2.489732,1.12275 -4.396272,4.56679 -2.528081,4.56679 1.09252,0 3.04178,2.34102 3.04178,3.65312 0,1.32363 -1.20478,2.63227 -3.62249,3.93474 -0.90538,0.48775 -2.066232,1.52797 -2.579661,2.3116 -0.87276,1.33205 -0.875969,1.536 -0.0493,3.13381 0.48632,0.93997 1.186011,2.13119 1.554861,2.64717 2.183228,3.05408 -6.84439,6.92051 -10.525951,4.50815 -1.23178,-0.80711 -1.34176,-0.7832 -2.16301,0.47023 -1.10985,1.69392 -4.57574,1.81738 -7.13925,0.25431 z"
         style="fill:none;stroke:#ff0000;stroke-width:0.09999999;stroke-miterlimit:4;stroke-dasharray:none" />
      <path
         id="path950"
         style="fill:none;stroke:#0000ff;stroke-width:0.09999999"
         d="m 16.586042,224.53524 -0.32879,0.32879 m -0.675796,1.07492 1.900948,-1.90095 m 0.488555,-0.0894 -2.576068,2.57606 m 2.589252,-2.19013 0.497656,-0.49765 m -2.87532,2.87532 -0.379543,0.37954 m 3.178329,-2.7792 0.43718,-0.43718 m -3.462698,3.46269 -0.286562,0.28656 m 3.689037,-3.28991 0.420869,-0.42087 m -3.964873,3.96487 -0.0618,0.0618 m 3.965929,-3.56681 0.400589,-0.40059 m -4.265963,4.26597 -0.05529,0.0553 m 4.191619,-3.7925 0.412481,-0.41248 m -4.452382,4.45238 -0.08224,0.0822 m 4.412767,-4.01364 0.404705,-0.40471 m -4.622834,4.62284 -0.08336,0.0834 m 4.576165,-4.17704 0.411563,-0.41157 m -2.730542,2.73054 -0.648392,0.6484 m -1.487737,1.48773 0.105892,-0.10589 m 4.985462,-4.58634 -0.387449,0.38745 m -2.218405,2.21841 0.10723,-0.10723 m -0.924964,0.92496 -0.09095,0.091 m -1.411518,1.41152 0.09455,-0.0945 m 5.056191,-4.65707 -0.363334,0.36334 m -2.039272,2.03927 0.05524,-0.0552 m -1.163404,1.1634 -0.170691,0.1707 m -1.303981,1.30398 0.110483,-0.11049 m 5.099644,-4.70052 -0.339219,0.33922 m -3.435684,3.43568 0.159723,-0.15972 m -1.296051,1.29605 -0.09592,0.0959 m 4.896908,-4.49778 0.334556,-0.33456 m -3.639184,3.63919 -0.171748,0.17175 m -1.208618,1.20861 0.107653,-0.10765 m 5.126608,-4.72748 -0.326956,0.32695 m -3.447511,3.44751 0.162491,-0.16249 m -1.286493,1.28649 -0.11326,0.11326 m 4.907085,-4.50796 0.319355,-0.31935 m -3.555057,3.55505 -0.09297,0.093 m -1.324371,1.32437 0.127916,-0.12791 m 5.057262,-4.65814 -0.309825,0.30982 m -4.621309,4.62131 0.147441,-0.14744 m 8.137042,-7.73792 -0.538619,0.53862 m -2.90284,2.90284 0.34211,-0.34211 m -4.712328,4.71233 -0.197753,0.19775 m 7.439084,-7.03996 1.150719,-1.15072 m -3.425723,3.42572 -0.375139,0.37514 m -1.792276,1.79228 0.08349,-0.0835 m -2.557037,2.55704 -0.229397,0.22939 m 7.157017,-6.75789 1.592188,-1.59219 m -3.602347,3.60235 -0.430669,0.43067 m -2.556602,2.5566 0.809934,-0.80993 m -2.414759,2.41475 -0.261041,0.26104 m 6.909753,-6.51063 0.496161,-0.49616 m -2.21095,2.21095 -0.551526,0.55153 m -2.302518,2.30252 0.470678,-0.47068 m -2.215534,2.21553 -0.27626,0.27626 m 6.397921,-5.9988 0.602129,-0.60212 m -1.662038,1.66203 -0.793408,0.79341 m -4.212095,4.2121 0.324547,-0.32455 m 6.266506,-5.86738 -2.124152,2.12415 m -4.134392,4.13439 0.372834,-0.37283 m 8.688831,-8.28971 -0.137093,0.13709 m -4.532483,4.53248 1.703843,-1.70384 m -5.342303,5.3423 -0.415703,0.41571 m 8.777345,-8.37823 0.310538,-0.31053 m -3.449025,3.44902 -1.326998,1.327 m -3.971385,3.97138 0.456551,-0.45655 m 8.621328,-8.2222 -0.490932,0.49093 m -4.282191,4.28219 0.478142,-0.47814 m -3.947012,3.94701 -0.49541,0.49541 m 8.173882,-7.77476 0.893992,-0.89399 m -4.374934,4.37493 -0.391309,0.39131 m -3.978884,3.97889 0.551998,-0.552 m 8.507815,-8.10869 -1.457964,1.45796 m -3.188377,3.18838 0.278752,-0.27876 m -3.760891,3.76089 -0.637052,0.63706 m 4.570408,-4.17129 4.491639,-4.49164 m -8.064632,8.06463 -0.702707,0.70271 m 4.767785,-4.36866 2.247687,-2.24769 m -6.068108,6.06811 -0.743159,0.74316 m 5.058245,-4.65912 1.480458,-1.48046 m -5.637778,5.63778 -0.698765,0.69876 m 5.350751,-4.95163 0.851801,-0.8518 m -5.53803,5.53803 -0.700376,0.70038 m 5.88127,-5.48215 0.522395,-0.52239 m -5.787579,5.78757 -0.6172,0.6172 m 6.377049,-5.97792 0.305928,-0.30593 m -6.072729,6.07273 -0.76531,0.76531 m 7.026776,-6.62765 0.776754,-0.77676 m -7.243145,7.24315 -0.72866,0.72866 m 7.651304,-7.25218 2.555825,-2.55583 m -9.595895,9.59589 -0.722809,0.72281 m 8.219419,-7.82029 2.095429,-2.09543 m -9.709464,9.70946 -0.716958,0.71696 m 8.744113,-8.34499 1.401145,-1.40115 m -9.545726,9.54573 -0.721601,0.7216 m 9.26948,-8.87036 1.023377,-1.02337 m -9.636599,9.6366 -0.721866,0.72186 m 9.679404,-9.28028 0.815641,-0.81564 m -3.212946,3.21295 -0.798853,0.79885 m -6.548854,6.54885 0.667022,-0.66702 m 10.004755,-9.60563 -0.59214,0.59214 m -3.638771,3.63877 1.604822,-1.60482 m -7.463491,7.46349 -0.647805,0.6478 M 30.7023,226.783 l 0.4782,-0.4782 m -2.437379,2.43738 -1.905924,1.90593 m -6.621268,6.62126 0.637246,-0.63724 M 31.33299,226.55144 30.972427,226.912 m -4.032004,4.032 2.208753,-2.20875 m -8.338523,8.33852 -0.660332,0.66033 m 11.048138,-10.64901 0.307549,-0.30755 m -3.123136,3.12314 -1.209496,1.20949 m -7.088663,7.08867 0.677542,-0.67755 m 10.923481,-10.52436 -0.271174,0.27118 m -3.952766,3.95276 0.959778,-0.95977 m -7.707717,7.70771 -0.699781,0.69978 m 11.61659,-11.21746 0.234799,-0.2348 m -3.350878,3.35088 -0.653485,0.65348 m -7.87007,7.87007 0.674427,-0.67443 m 11.39813,-10.999 -0.21682,0.21682 m -3.636573,3.63657 0.454725,-0.45472 m -8.027011,8.02701 -0.669921,0.66992 m 12.094883,-11.69576 0.201206,-0.20121 m -3.329542,3.32954 -0.231369,0.23137 m -8.758222,8.75822 0.668365,-0.66836 m 11.851257,-11.45214 -0.189646,0.18965 m -3.051787,3.05179 0.122734,-0.12274 m -8.757157,8.75716 -0.666809,0.66681 m 12.56439,-12.16527 0.178764,-0.17876 m -1.94573,1.94573 -1.153052,1.15305 m -9.667416,9.66742 0.665253,-0.66526 m 12.328853,-11.92973 -0.195301,0.1953 m -2.510322,2.51032 0.675868,-0.67586 m -10.323698,10.32369 -0.663697,0.6637 m 13.03322,-12.6341 0.225072,-0.22507 m -12.619195,12.6192 -0.662141,0.66214 m 13.287334,-12.88821 0.296781,-0.29678 m -12.946573,12.94657 -0.665097,0.6651 m 13.558248,-13.15913 0.38462,-0.38462 m -13.302371,13.30237 -0.63189,0.63189 m 13.852755,-13.45363 0.467395,-0.4674 m -13.71286,13.71286 -0.598684,0.59869 m 14.222784,-13.82366 0.52489,-0.52489 m -14.173589,14.17359 -0.565477,0.56547 m 14.670979,-14.27185 0.572581,-0.57258 m -14.702683,14.70268 -0.532271,0.53227 m 15.2699,-14.87078 0.469546,-0.46955 m -15.187093,15.1871 -0.543746,0.54374 m 15.800407,-15.40128 0.436244,-0.43624 m -15.72784,15.72784 -0.500204,0.5002 m 16.305674,-15.90655 0.422007,-0.42201 m -16.229823,16.22982 -0.489252,0.48926 m 16.817399,-16.41828 0.401312,-0.40131 m -16.731805,16.7318 -0.478299,0.4783 m 17.329123,-16.93 0.380617,-0.38062 m -17.233786,17.23379 -0.468602,0.4686 m 17.842103,-17.44298 0.359922,-0.35992 m -17.735769,17.73577 -0.43133,0.43133 m 18.242404,-17.84328 0.425381,-0.42538 m -18.238801,18.2388 -0.394057,0.39405 m 18.647863,-18.24874 0.431144,-0.43114 m -18.687295,18.68729 -0.356785,0.35679 m 19.00592,-18.6068 0.479073,-0.47907 m -19.130554,19.13055 -0.319512,0.31952 m 19.35707,-18.95795 0.556196,-0.5562 m -19.5961,19.5961 -0.28224,0.28224 m 19.635189,-19.23606 0.540148,-0.54015 m -11.955846,11.95584 -0.186923,0.18693 m -7.997641,7.99764 0.244967,-0.24497 m 20.239399,-19.84028 -0.509439,0.50944 m -11.874191,11.87419 0.453286,-0.45328 m -8.3114,8.3114 -0.207695,0.20769 m 20.274038,-19.87491 0.449773,-0.44977 m -11.83512,11.83511 -0.763953,0.76396 m -8.089811,8.08981 0.202424,-0.20243 m 20.756521,-20.35739 -0.446113,0.44611 M 28.27986,240.78 l 1.125506,-1.12551 m -4.139042,4.13904 -0.962765,0.96277 m -4.137145,4.13714 0.239151,-0.23915 m 20.964598,-20.56547 -0.390179,0.39017 m -13.238414,13.23842 2.034562,-2.03456 m -3.379509,3.37951 -2.179033,2.17903 m -3.956571,3.95657 0.166852,-0.16685 m 21.167502,-20.76838 -0.361456,0.36145 m -14.946195,14.9462 3.870884,-3.87088 m -9.70843,9.70842 -0.130179,0.13018 m 21.158236,-20.75911 0.319387,-0.31939 m -11.205611,11.20561 -3.977775,3.97778 m -6.235259,6.23526 0.12752,-0.12752 m 21.493371,-21.09425 -0.282149,0.28215 m -5.921659,5.92166 0.429417,-0.42942 m -5.222659,5.22266 -0.735956,0.73596 m -3.457466,3.45746 1.654501,-1.6545 m -7.895543,7.89554 -0.1304,0.1304 m 21.488614,-21.08949 0.282018,-0.28201 m -2.925288,2.92528 -0.333254,0.33326 m -3.350574,3.35057 0.9808,-0.9808 m -5.045627,5.04563 -0.559046,0.55904 m -3.990677,3.99068 1.200272,-1.20027 m -7.55498,7.55498 -0.133279,0.13328 m 21.638375,-21.23926 0.283322,-0.28332 m -2.94125,2.94125 -0.38348,0.38348 m -3.699296,3.6993 1.540458,-1.54046 m -4.881564,4.88156 -0.357651,0.35766 m -4.560077,4.56007 0.994132,-0.99413 m -7.361497,7.3615 -0.212495,0.21249 m 21.789163,-21.39004 0.284018,-0.28402 m -3.005878,3.00588 -0.304153,0.30416 m -7.002278,7.00227 3.63061,-3.63061 m -7.88821,7.88821 -0.847443,0.84745 m -6.596851,6.59685 0.322239,-0.32224 m 21.927879,-21.52876 -0.308751,0.30875 m -2.96177,2.96177 0.179141,-0.17914 m -4.164634,4.16464 -2.697541,2.69754 m -5.619201,5.6192 0.742869,-0.74287 m -6.839825,6.83982 -0.521428,0.52143 m 22.093571,-21.69445 0.333483,-0.33348 m -3.130652,3.13065 -0.104678,0.10468 m -1.965074,1.96507 0.09892,-0.0989 m -2.70386,2.70386 -1.612149,1.61215 m -6.367305,6.3673 0.701089,-0.70109 m -6.551162,6.55117 -0.733209,0.73321 m 22.26893,-21.86981 0.334518,-0.33452 m -4.98206,4.98206 -0.15035,0.15035 m -3.795553,3.79555 0.60775,-0.60775 m -7.016766,7.01677 -0.658253,0.65825 m -6.569659,6.56966 1.054129,-1.05413 m 21.770791,-21.37167 -0.351821,0.35182 m -4.737252,4.73726 0.207568,-0.20757 m -10.733406,10.73341 -0.661066,0.66106 m -6.456325,6.45633 1.334497,-1.3345 m 21.657835,-21.25871 -0.369123,0.36912 m -4.676613,4.67661 0.281319,-0.28132 m -11.128427,11.12843 -0.631709,0.63171 m -6.384909,6.38491 1.749288,-1.74929 m 21.423338,-21.02421 -0.349135,0.34913 m -4.651034,4.65103 0.349706,-0.3497 m -11.523448,11.52345 -1.609566,1.60956 m -3.4718,3.4718 0.201293,-0.20129 m -1.546088,1.54609 -0.489683,0.48968 m 23.018104,-22.61898 0.364912,-0.36491 m -4.566607,4.5666 -0.41601,0.41601 m -12.844135,12.84414 1.341677,-1.34168 m -4.441475,4.44148 -0.163334,0.16333 m -2.210262,2.21026 0.360791,-0.36079 m 23.231532,-22.83241 -0.321633,0.32164 m -4.642347,4.64234 0.482314,-0.48231 m -12.290759,12.29076 -1.162941,1.16294 m -3.102505,3.1025 0.191263,-0.19126 m -2.356325,2.35633 -0.30652,0.30652 m 23.524586,-23.12547 0.282871,-0.28287 m -3.281363,3.28136 -0.105569,0.10557 m -1.515113,1.51512 0.505654,-0.50566 m -12.664492,12.66449 -0.986087,0.98609 m -2.928021,2.92802 0.1428,-0.1428 m -2.648117,2.64812 -0.244279,0.24428 m 23.800062,-23.40094 0.22253,-0.22253 m -3.270067,3.27007 -1.572776,1.57277 m -13.332294,13.3323 0.825795,-0.8258 m -3.493605,3.49361 -0.149144,0.14914 m -2.94763,2.94763 0.243142,-0.24314 m 23.971271,-23.57215 -0.14502,0.14502 m -4.518485,4.51848 1.428046,-1.42804 m -14.350099,14.3501 -0.740167,0.74016 m -2.648671,2.64867 0.108082,-0.10808 m -3.0369,3.0369 -0.228329,0.22833 m 24.242922,-23.8438 0.143938,-0.14394 m -3.181474,3.18148 -1.380087,1.38009 m -13.895375,13.89537 0.632792,-0.63279 m -3.089744,3.08974 -0.09028,0.0903 m -3.299817,3.29981 0.243416,-0.24341 m 24.294889,-23.89577 -0.114547,0.11455 m -4.059444,4.05944 1.066937,-1.06693 m -14.91769,14.91769 -0.553335,0.55333 m -2.430676,2.43068 0.0683,-0.0683 m -3.256074,3.25607 -0.278252,0.27826 m 24.563427,-24.16431 0.124266,-0.12426 m -2.955362,2.95536 -0.530408,0.53041 m -15.18788,15.18788 0.469713,-0.46972 m -2.781438,2.78144 -0.06472,0.0647 m -3.52447,3.52447 0.263479,-0.26348 m 24.495129,-24.09601 -0.135487,0.13549 m -3.175507,3.17551 0.534661,-0.53466 m -15.555145,15.55514 -0.431429,0.43143 m -5.893951,5.89395 0.292585,-0.29258 m 24.529994,-24.13087 -0.17935,0.17935 m -2.531678,2.53167 0.240122,-0.24012 m -15.97057,15.97057 -0.392365,0.39237 m -2.290989,2.29099 0.05499,-0.055 m -3.334318,3.33432 -0.316672,0.31668 m 24.636692,-24.23757 0.191,-0.191 m -2.12044,2.12044 -0.171055,0.17105 m -16.554422,16.55442 0.353302,-0.3533 m -5.851416,5.85142 -0.381911,0.38191 m 23.040357,-22.64124 1.730664,-1.73066 m -18.447788,18.44779 -0.349997,0.34999 m -2.42066,2.42066 0.100782,-0.10078 m -3.101626,3.10163 -0.456095,0.45609 m 23.595272,-23.19615 1.117717,-1.11771 m -18.432205,18.4322 -0.302828,0.30283 m -2.491863,2.49186 0.120982,-0.12098 m -2.91603,2.91603 -0.574256,0.57426 m 5.961523,-5.5624 0.279219,-0.27922 m -2.887571,2.88757 -0.09133,0.0913 m -3.146513,3.14652 0.731601,-0.7316 m 5.470555,-5.07144 -0.255609,0.25561 m -5.831214,5.83122 3.078028,-3.07803 m 3.105696,-2.70658 -0.252155,0.25216 m -5.816236,5.81624 2.474676,-2.47468 m 3.691525,-3.2924 -0.240139,0.24014 m -5.809949,5.80995 1.647987,-1.64799 m 4.49991,-4.10079 -0.215542,0.21554 m -5.82041,5.82041 0.455884,-0.45588 m 5.687662,-5.28854 -0.200731,0.20073 m -5.83087,5.83087 0.353015,-0.35301 m 5.798549,-5.39943 -0.198287,0.19829 m -5.841331,5.84133 0.322685,-0.32269 m 5.836896,-5.43777 -0.195279,0.19528 m -5.852357,5.85235 0.343907,-0.3439 m 5.823691,-5.42457 -0.170942,0.17094 m -5.8904,5.8904 0.359511,-0.35951 m 5.846531,-5.44741 -0.171343,0.17134 m -5.930062,5.93007 0.376733,-0.37673 m 24.595495,-24.19638 -0.5393,0.5393 m -18.358567,18.35857 0.171512,-0.17151 m -5.753486,5.75348 -0.401378,0.40138 m 24.158884,-23.75976 1.39048,-1.39048 m -19.250032,19.25003 -0.170623,0.17062 m -6.037699,6.0377 0.417769,-0.41777 m 25.527363,-25.12824 -2.052516,2.05252 m -17.67809,17.67809 0.158493,-0.15849 m -5.847851,5.84785 -0.434159,0.43416 m 25.793322,-25.3942 0.410729,-0.41073 m -19.748976,19.74897 -0.154731,0.15474 m -6.202253,6.20225 0.445272,-0.44527 m 25.991629,-25.59251 -0.546674,0.54667 m -19.508754,19.50876 0.148576,-0.14858 m -6.02081,6.02081 -0.442539,0.44254 m 25.961798,-25.56268 1.648387,-1.64838 m -20.941849,20.94185 -0.119811,0.11981 m -6.481826,6.48182 0.453254,-0.45325 m 27.416736,-27.01761 -1.89298,1.89298 m -19.261432,19.26143 0.121324,-0.12132 m -6.306233,6.30623 -0.46397,0.46397 m 25.945169,-25.54605 2.259242,-2.25924 m -21.198943,21.19894 -0.122838,0.12284 m -6.81593,6.81593 0.451532,-0.45153 m 28.022096,-27.62298 -0.578513,0.57852 m -4.583331,4.58333 0.1231,-0.1231 m -16.241234,16.24123 -0.116661,0.11666 m -7.024184,7.02419 0.451201,-0.4512 m 28.252428,-27.85331 -0.327758,0.32776 m -5.117942,5.11794 0.243874,-0.24387 m -16.086801,16.0868 -0.125205,0.1252 m -7.259705,7.25971 0.473583,-0.47359 m 28.478266,-28.07914 -0.309629,0.30963 m -5.415432,5.41543 0.418411,-0.41841 m -15.986133,15.98614 -0.133749,0.13374 m -7.495225,7.49523 0.503254,-0.50326 m 28.668042,-28.26892 -0.333388,0.33339 m -5.635469,5.63547 0.588364,-0.58836 m -15.887673,15.88767 -0.142292,0.14229 m -3.340119,3.34012 0.556223,-0.55622 m -4.473043,4.47304 -0.473824,0.47383 m 27.933752,-27.53463 1.459217,-1.45922 m -5.406896,5.4069 -0.790817,0.79081 m -15.187171,15.18717 0.145647,-0.14564 m -2.422823,2.42282 -1.377809,1.37781 m -4.328083,4.32808 0.470871,-0.47087 m 29.121284,-28.72216 -1.08645,1.08645 m -5.312574,5.31257 0.988168,-0.98817 m -15.757407,15.75741 -0.15628,0.15628 m -2.225495,2.2255 0.179111,-0.17911 m -1.66193,1.66193 -0.313671,0.31367 m -4.22061,4.22061 0.467919,-0.46792 m 29.323422,-28.9243 -0.859944,0.85994 m -5.740391,5.74039 1.252549,-1.25255 m -15.749504,15.74951 -0.166913,0.16691 m -1.907432,1.90743 0.09582,-0.0958 m -2.285868,2.28587 -0.216155,0.21615 m -4.190324,4.19033 0.457481,-0.45748 m 29.52773,-29.12861 -0.719387,0.71939 m -6.075107,6.0751 1.500407,-1.5004 m -15.725079,15.72508 -0.177546,0.17754 m -1.754909,1.75491 0.06372,-0.0637 m -2.678507,2.6785 -0.105584,0.10559 m -4.250279,4.25027 0.410036,-0.41003 m 29.715105,-29.31598 -0.577123,0.57712 m -6.397345,6.39734 0.341012,-0.34101 m -14.2934,14.2934 -0.188179,0.18818 m -1.699718,1.69972 0.147461,-0.14746 m -3.011139,3.01114 -0.07996,0.0799 m -4.303819,4.30382 0.382098,-0.3821 m 29.882974,-29.48385 -0.47193,0.47193 m -4.668931,4.66893 0.16167,-0.16167 m -2.098104,2.09811 -0.07715,0.0771 m -13.86789,13.86789 0.195308,-0.1953 m -1.724771,1.72477 -0.06499,0.065 m -3.21877,3.21877 0.0563,-0.0563 m -4.058781,4.05878 -0.395464,0.39547 m 30.047382,-29.64826 0.381496,-0.3815 m -4.81426,4.81426 -0.354222,0.35422 m -15.750183,15.75019 0.209487,-0.20949 m -1.719636,1.71964 -0.07043,0.0704 m -7.820469,7.82047 0.331238,-0.33124 m 30.17472,-29.77559 -0.309812,0.30981 m -4.900743,4.90074 0.570609,-0.57061 m -15.942251,15.94225 -0.223667,0.22367 m -1.596034,1.59603 0.06599,-0.066 m -7.757299,7.7573 -0.321261,0.32126 m 30.348316,-29.94919 0.252397,-0.2524 m -4.415862,4.41586 -0.879978,0.87998 m -15.397222,15.39722 0.237847,-0.23784 m -1.820867,1.82086 -0.05672,0.0567 m -8.176422,8.17642 0.310664,-0.31066 m 30.384803,-29.98568 -0.215837,0.21583 m -5.165288,5.16529 1.189348,-1.18935 m -16.136456,16.13646 -0.252026,0.25203 m -1.721204,1.7212 0.06204,-0.062 m -8.012489,8.01248 -0.357415,0.35742 M 55.3483,237.2597 l 0.179276,-0.17928 m -3.967692,3.96769 -1.498717,1.49872 m -14.991495,14.9915 0.262042,-0.26205 m -10.087846,10.08785 -0.396415,0.39641 m 30.664686,-30.26556 0.201684,-0.20168 m -1.442763,1.44276 -0.426199,0.4262 m -3.687532,3.68753 1.807918,-1.80792 m -16.304085,16.30409 -0.278528,0.27853 m -1.991753,1.99175 0.0656,-0.0656 m -6.370978,6.37097 -0.873896,0.8739 m -1.248712,1.24871 0.485574,-0.48557 m 30.42199,-30.02287 -1.809863,1.80986 m -1.953602,1.9536 0.315908,-0.3159 m -1.910424,1.91042 -0.263569,0.26357 m -14.553318,14.55332 0.295014,-0.29502 m -7.893083,7.89309 -1.500948,1.50095 m -1.518233,1.51823 0.506855,-0.50686 m 30.436189,-30.03706 -1.74707,1.74707 m -1.706365,1.70636 0.312612,-0.31261 m -2.26239,2.26239 -0.256185,0.25618 m -2.343303,2.34331 0.07445,-0.0745 m -11.773084,11.77309 -0.311499,0.3115 m -2.437651,2.43765 0.07131,-0.0713 m -4.945343,4.94534 -0.397705,0.39771 m -3.108796,3.10879 0.45002,-0.45002 m 30.531922,-30.1328 -0.146154,0.14616 m -1.538454,1.53845 0.264948,-0.26495 m -1.397738,1.39774 -0.348809,0.34881 m -2.513173,2.51317 0.265476,-0.26547 m -2.448693,2.44869 -0.166237,0.16624 m -11.821962,11.82196 0.324325,-0.32433 m -7.482833,7.48284 -0.245665,0.24566 m -3.5894,3.5894 0.380491,-0.38049 m 29.052045,-28.65292 -0.109906,0.1099 m -1.217927,1.21793 0.475214,-0.47521 m -2.994469,2.99447 -0.262124,0.26212 m -2.330279,2.33028 0.211097,-0.2111 m -11.539494,11.5395 -0.344893,0.34489 m -3.070404,3.0704 0.06135,-0.0613 m -2.154781,2.15478 -0.238304,0.2383 m -2.003906,2.00391 0.270514,-0.27052 m -3.732644,3.73265 -0.314005,0.314 M 53.855945,241.14679 54.845,240.15774 m -3.727788,3.72779 -0.295578,0.29557 m -2.314586,2.31459 0.263619,-0.26362 m -11.42618,11.42618 -0.367025,0.36703 m -5.230843,5.23084 1.634496,-1.6345 m -3.590399,3.5904 -0.247574,0.24758 m -3.940055,3.94005 0.275604,-0.2756 m 28.912358,-28.51324 -0.511944,0.51195 m -3.252307,3.2523 0.307778,-0.30777 m -2.297408,2.2974 -0.284763,0.28477 m -11.445178,11.44517 0.389156,-0.38915 m -4.86316,4.86316 L 32.401946,263 m -2.602728,2.60272 0.25203,-0.25203 m -4.041388,4.04139 -0.272429,0.27243 m 25.499482,-25.10036 0.315057,-0.31506 m -2.256301,2.2563 -0.23752,0.23752 m -11.421127,11.42113 0.40134,-0.40134 m -7.749633,7.74963 -0.233464,0.23347 m -4.157869,4.15787 0.244054,-0.24406 m 25.64342,-25.24429 -0.29454,0.29454 m -2.094352,2.09435 0.200511,-0.20051 m -11.163051,11.16305 -0.47322,0.47322 m -7.671585,7.67158 0.216445,-0.21644 m -4.194267,4.19427 -0.25345,0.25345 m 25.683299,-25.28418 0.308979,-0.30898 m -2.149533,2.14953 -0.136966,0.13697 m -11.428221,11.42822 0.493595,-0.4936 m -8.117337,8.11734 -0.1955,0.1955 m -4.298351,4.29835 0.256825,-0.25682 m 25.911147,-25.51203 -0.341806,0.34181 m -1.92,1.92 0.07979,-0.0798 m -11.004271,11.00427 -0.50783,0.50783 m -7.958094,7.9581 0.162419,-0.16242 m -4.241823,4.24182 -0.278053,0.27805 m 25.942666,-25.54354 0.381,-0.381 m -13.02846,13.02846 -0.623396,0.6234 m -8.122565,8.12256 0.148181,-0.14818 m -4.228505,4.2285 -0.284169,0.28417 m 26.127849,-25.72872 0.3378,-0.3378 m -12.772467,12.77246 -0.783273,0.78328 m -8.357138,8.35714 0.111818,-0.11182 m -4.189551,4.18955 -0.290285,0.29028 m 26.305171,-25.90604 0.30246,-0.30246 m -12.709154,12.70915 -0.754877,0.75488 m -8.637031,8.63703 0.120158,-0.12016 m -4.132148,4.13215 -0.309826,0.30982 m 26.497248,-26.09812 0.249476,-0.24948 m -12.285088,12.28509 -1.060439,1.06044 m -8.951564,8.95156 0.09937,-0.0994 m -4.03339,4.03339 -0.324473,0.32448 m 26.65878,-26.25966 0.192196,-0.1922 m -12.070416,12.07042 -1.127316,1.12732 m -9.334528,9.33452 0.150794,-0.15079 m -3.93925,3.93925 -0.315423,0.31542 m 26.78921,-26.39009 0.14232,-0.14232 m -11.597143,11.59715 -1.625286,1.62528 m -9.702149,9.70215 0.264648,-0.26465 m -3.75039,3.75039 -0.306373,0.30638 m 26.919639,-26.52052 0.09245,-0.0924 m -10.603187,10.60318 -2.607166,2.60717 m -10.197894,10.19789 0.357832,-0.35783 m -3.449509,3.44951 -0.297322,0.29732 m 27.013559,-26.61444 0.07908,-0.0791 m -9.378267,9.37826 -3.929875,3.92988 m -11.305429,11.30543 1.038437,-1.03844 m -3.014395,3.0144 -0.285538,0.28553 m 27.070217,-26.67109 0.100242,-0.10024 m -8.313351,8.31335 -5.082744,5.08274 m -5.51594,5.51594 1.264427,-1.26443 m -6.635381,6.63539 -2.66893,2.66893 m 27.125905,-26.72679 0.112434,-0.11243 m -2.220053,2.22005 -0.05453,0.0545 m -7.4534,7.45341 1.538416,-1.53842 m -4.456504,4.4565 -0.848733,0.84874 m -6.336019,6.33601 2.62549,-2.62549 m -7.668295,7.6683 -2.146168,2.14617 m 27.181594,-26.78247 0.10303,-0.10303 m -2.193337,2.19333 -0.07972,0.0797 m -7.004261,7.00426 1.657476,-1.65747 m -5.779715,5.77971 -0.203213,0.20321 m -6.648243,6.64825 3.132366,-3.13237 m -8.765119,8.76512 -1.187722,1.18772 m 27.219098,-26.81997 0.117211,-0.11722 m -2.194268,2.19427 -0.09071,0.0907 m -6.801597,6.80159 1.683423,-1.68342 m -6.252008,6.25201 -0.05556,0.0556 m -6.80265,6.80265 0.314849,-0.31485 m -6.333918,6.33392 -0.634904,0.6349 m 27.277268,-26.87814 0.154907,-0.15491 m -2.1952,2.1952 -0.10171,0.10171 m -6.708193,6.7082 1.826044,-1.82605 m -13.374411,13.37441 -0.139681,0.13968 m -6.570064,6.57007 0.559239,-0.55924 m 26.961012,-26.56189 -0.184814,0.18481 m -2.116235,2.11624 0.112706,-0.11271 m -4.750495,4.7505 -2.106863,2.10686 m -7.525503,7.5255 0.106854,-0.10685 m -4.204972,4.20497 -0.15435,0.15435 m -6.527028,6.52703 0.573639,-0.57364 m 27.005055,-26.60593 -0.185679,0.18568 m -2.090468,2.09046 0.123702,-0.1237 m -4.601659,4.60166 -0.447092,0.44709 m -1.892307,1.89231 0.256777,-0.25678 m -7.434573,7.43458 -0.0968,0.0968 m -4.502436,4.50244 0.08404,-0.084 m -5.97649,5.97649 -0.720348,0.72035 m 27.524792,-27.12567 0.186543,-0.18654 m -2.120111,2.12011 -0.144883,0.14488 m -4.64987,4.64987 0.345496,-0.34549 m -2.454241,2.45424 -0.144789,0.14479 m -7.130694,7.13069 0.08855,-0.0885 m -4.643588,4.64359 -0.06327,0.0633 m -6.698577,6.69858 1.786444,-1.78644 m 26.057534,-25.65841 -0.225404,0.2254 m -2.040339,2.04034 0.151219,-0.15122 m -4.27011,4.27011 -0.381204,0.3812 m -2.518968,2.51897 0.08848,-0.0885 m -4.757446,4.75745 -0.143822,0.14382 m -2.126735,2.12673 0.09078,-0.0908 m -9.762469,9.76247 -1.864688,1.86469 m 27.725646,-27.32653 0.261744,-0.26174 m -2.107623,2.10762 -0.157555,0.15756 m -4.171536,4.17153 0.251114,-0.25111 m -7.683695,7.68369 -0.24585,0.24585 m -2.092355,2.09236 0.122046,-0.12205 m -4.863801,4.8638 -0.06035,0.0604 m -6.952832,6.95283 1.992815,-1.99281 m 26.163747,-25.76463 -0.265525,0.26552 m -1.96653,1.96653 0.163891,-0.16389 m -3.930733,3.93074 -0.192628,0.19262 m -7.877033,7.87704 0.373291,-0.37329 m -2.332406,2.3324 -0.122834,0.12284 m -4.835953,4.83595 0.06215,-0.0622 m -5.102371,5.10237 -2.167047,2.16705 m 28.118541,-27.71942 0.269307,-0.26931 m -2.028704,2.0287 -0.170227,0.17023 m -3.778445,3.77845 0.165182,-0.16519 m -7.698434,7.69844 -0.473112,0.47311 m -2.144245,2.14425 0.136315,-0.13632 m -4.867509,4.86751 -0.104132,0.10413 m -5.65544,5.65544 0.525522,-0.52552 m -1.55283,1.55283 -0.667178,0.66718 m 28.224396,-27.82528 0.282962,-0.28296 m -2.018071,2.01807 -0.168558,0.16856 m -3.574997,3.575 0.136134,-0.13614 m -4.309566,4.30957 -0.100148,0.10015 m -3.772835,3.77283 0.501011,-0.50101 m -2.681377,2.68138 -0.118559,0.11856 m -4.833197,4.8332 0.159327,-0.15933 m -5.378941,5.37894 -0.453268,0.45327 m -1.908615,1.90861 0.586971,-0.58697 m 28.12881,-27.72969 -0.319734,0.31974 m -1.863565,1.86356 0.168137,-0.16813 m -3.423627,3.42362 -0.150285,0.15029 m -4.897817,4.89781 0.258115,-0.25811 m -2.733692,2.73369 -0.574996,0.575 m -2.556747,2.55675 0.05994,-0.06 m -4.458362,4.45836 -0.357252,0.35726 m -5.786561,5.78656 0.410117,-0.41012 m -1.997768,1.99777 -0.505989,0.50599 m 28.567698,-28.16858 0.328607,-0.32861 m -1.984356,1.98436 -0.167716,0.16772 m -3.23687,3.23687 0.164754,-0.16476 m -5.198518,5.19852 -0.84653,0.84653 m -1.801168,1.80117 0.350185,-0.35019 m -7.359996,7.36 -0.495542,0.49554 m -6.084517,6.08452 0.3953,-0.3953 m -2.210229,2.21023 -0.428639,0.42864 m 28.732585,-28.33347 0.332202,-0.3322 m -1.948272,1.94827 -0.167295,0.1673 m -3.082173,3.08217 0.19343,-0.19343 m -5.879266,5.87927 -1.720945,1.72094 m -7.559039,7.55904 3.896308,-3.89631 m -10.031095,10.0311 -0.379724,0.37972 m -2.443464,2.44347 0.411692,-0.4117 m 28.870788,-28.47166 -0.335797,0.3358 m -1.753112,1.75311 0.13622,-0.13622 m -2.821459,2.82146 -0.259399,0.2594 m -6.910018,6.91001 0.598671,-0.59867 m -5.318413,5.31842 -1.515613,1.51561 m -8.55208,8.55208 0.38598,-0.38598 m -2.593049,2.59305 -0.401159,0.40116 m 29.144545,-28.74543 0.355628,-0.35562 m -1.961105,1.9611 -0.133635,0.13364 m -2.772586,2.77258 0.286143,-0.28614 m -12.515122,12.51512 -0.206586,0.20659 m -9.481038,9.48104 0.38115,-0.38115 m -2.763256,2.76325 -0.394623,0.39462 m 29.328762,-28.92964 0.36826,-0.36826 m -1.944941,1.94495 -0.13105,0.13105 m -2.625503,2.6255 0.337857,-0.33786 m -22.07232,22.07232 -0.37632,0.37632 m -3.018801,3.0188 0.461659,-0.46166 m 29.495661,-29.09653 -0.37077,0.37077 m -1.676349,1.67634 0.103657,-0.10365 m -2.180597,2.18059 -0.412166,0.41217 m -22.294278,22.29428 0.37149,-0.37149 m -3.150321,3.15032 -0.465487,0.46549 m 29.827783,-29.42866 0.373279,-0.37328 m -1.971987,1.97198 -0.0684,0.0684 m -2.330566,2.33057 0.444171,-0.44417 m -22.555285,22.55528 -0.366659,0.36666 m -3.813913,3.81392 0.819502,-0.81951 m 29.969379,-29.57025 -0.366763,0.36676 m -1.683741,1.68374 0.04999,-0.05 m -1.728995,1.72899 -0.504287,0.50429 m -12.064562,12.06457 0.06873,-0.0687 m -10.275493,10.27549 -0.368414,0.36841 m -4.499222,4.49923 1.233567,-1.23357 m -4.601075,4.60107 -3.39274,3.39274 m 37.851152,-37.45202 0.379554,-0.37956 m -2.000496,2.0005 -0.125105,0.1251 m -1.947126,1.94713 0.563011,-0.56301 m -12.830161,12.83016 -0.280489,0.28049 m -10.251299,10.2513 0.372029,-0.37203 m -3.913955,3.91395 -8.243353,8.24336 m 38.362298,-37.96318 0.381939,-0.38194 m -2.083757,2.08376 -0.09516,0.0952 m -1.722333,1.72234 0.613542,-0.61355 m -13.089855,13.08986 -0.439514,0.43951 m -10.058766,10.05877 0.378646,-0.37865 m -4.326042,4.32604 -8.226797,8.2268 m 38.753009,-38.35389 0.384323,-0.38432 m -2.14182,2.14182 -1.615241,1.61524 m -3.779372,3.77938 0.877324,-0.87733 m -9.907502,9.9075 -0.485917,0.48592 m -9.8275,9.8275 0.372258,-0.37226 m -4.400578,4.40058 -8.203043,8.20304 m 38.811976,-38.41285 0.386708,-0.38671 m -2.167699,2.1677 -1.448225,1.44823 m -4.121488,4.12148 1.68285,-1.68285 m -10.634869,10.63487 -0.522125,0.52213 m -9.672654,9.67265 0.365871,-0.36587 m -5.637092,5.63709 -1.120387,1.12039 m -5.983326,5.98333 3.848907,-3.84891 m 35.449976,-35.05086 -0.358927,0.35893 m -3.068307,3.06831 1.179624,-1.17962 m -3.532965,3.53296 -0.314033,0.31403 m -1.617299,1.6173 0.439854,-0.43985 m -9.492644,9.49264 -0.566822,0.56682 m -9.503821,9.50382 0.353986,-0.35398 m -8.777504,8.7775 -4.019393,4.0194 m 38.953133,-38.55401 0.36516,-0.36517 m -2.282321,2.28233 -0.980201,0.9802 m -2.291777,2.29177 0.112191,-0.11219 m -2.18126,2.18126 -0.109588,0.10959 m -9.661225,9.66123 0.575277,-0.57528 m -9.642142,9.64214 -0.370499,0.3705 m -12.332843,12.33284 4.056607,-4.0566 m 35.147825,-34.74871 -0.371394,0.3714 m -2.731074,2.73107 0.785434,-0.78543 m -5.321034,5.32103 -0.05704,0.0571 m -9.848498,9.84849 0.665369,-0.66537 m -5.23393,5.23393 -0.375383,0.37539 m -4.357225,4.35722 0.393951,-0.39395 m -8.505879,8.50588 -4.100304,4.1003 m 38.685001,-38.28588 0.45047,-0.45047 m -2.33457,2.33457 -0.646261,0.64627 m -14.569985,14.56998 0.574821,-0.57482 m -4.306559,4.30656 -1.851743,1.85174 m -4.027406,4.02741 0.682679,-0.68268 m -8.365025,8.36502 -4.113559,4.11356 m 38.545973,-38.14685 0.311584,-0.31158 m -2.17266,2.17266 -0.526171,0.52617 m -14.751934,14.75193 0.555528,-0.55552 m -3.694003,3.694 -2.754502,2.7545 m -3.886215,3.88622 0.901249,-0.90125 m -8.224171,8.22417 -4.107047,4.10705 m 38.308127,-37.90901 0.329095,-0.32909 m -2.088097,2.08809 -0.414591,0.41459 m -14.925373,14.92538 0.61171,-0.61171 m -3.158215,3.15821 -0.58639,0.58639 m -3.07069,3.07069 0.952697,-0.95269 m -3.598732,3.59873 -1.835915,1.83591 m -10.322366,10.32237 4.096905,-4.09691 m 34.374997,-33.97587 -0.40525,0.40525 m -1.95994,1.95994 0.402091,-0.40209 m -14.822217,14.82221 -0.678685,0.67869 m -2.868395,2.86839 0.866745,-0.86674 m -3.687003,3.687 -0.650444,0.65045 m -4.955276,4.95527 2.467797,-2.4678 m -7.8933,7.89331 -4.056037,4.05603 m 37.81667,-37.41755 0.315761,-0.31576 m -1.639073,1.63908 -0.45647,0.45647 m -15.260975,15.26097 0.824847,-0.82485 m -2.281642,2.28165 -1.201658,1.20165 m -3.677179,3.67718 0.668684,-0.66868 m -3.136584,3.13658 -3.041167,3.04117 m -8.699227,8.69923 4.015169,-4.01517 m 33.846441,-33.44732 -1.908533,1.90853 m -15.409151,15.40915 1.034777,-1.03477 m -1.946717,1.94671 -1.583405,1.58341 m -3.740769,3.74077 0.331891,-0.33189 m -2.876266,2.87626 -3.562868,3.56287 m -7.970963,7.97096 3.976681,-3.97668 m 33.616487,-33.21736 -1.721523,1.72152 m -18.003089,18.00309 3.732617,-3.73262 m -7.051835,7.05184 -0.32135,0.32135 m -3.604807,3.60481 0.901329,-0.90133 m -2.759921,2.75992 -0.778081,0.77808 m -7.718741,7.71874 3.900033,-3.90003 m 33.386533,-32.98741 -1.537912,1.53791 m -15.882671,15.88267 1.842579,-1.84258 m -3.470163,3.47016 -0.588991,0.58899 m -3.501408,3.50141 0.310047,-0.31005 m -3.207285,3.20729 -0.755997,0.756 m -2.984108,2.98411 0.790741,-0.79075 m -4.205366,4.20537 -3.836742,3.83674 m 35.613438,-35.21431 1.375003,-1.37501 m -14.867866,14.86787 -2.151952,2.15195 m -2.527853,2.52785 0.478915,-0.47891 m -3.516836,3.51684 -0.326358,0.32635 m -3.860404,3.86041 0.769406,-0.76941 m -3.182266,3.18227 -0.628489,0.62849 m -6.91545,6.91545 3.774772,-3.77478 m 32.952224,-32.5531 -1.248773,1.24878 m -1.278163,1.27816 0.05915,-0.0591 m -2.803568,2.80357 -0.127442,0.12744 m -8.836303,8.8363 0.07125,-0.0712 m -1.496461,1.49646 -1.028165,1.02817 m -2.80639,2.80638 0.368505,-0.3685 m -3.237636,3.23764 -0.358021,0.35802 m -3.999715,3.99971 0.758317,-0.75831 m -3.2096,3.20959 -0.738196,0.7382 m -6.529049,6.52905 3.685351,-3.68535 m 32.750375,-32.35125 -1.114881,1.11488 m -1.33105,1.33105 0.135636,-0.13564 m -2.519716,2.51972 -0.26351,0.26351 m -8.788604,8.7886 0.387155,-0.38715 m -2.090626,2.09062 -0.803858,0.80386 m -3.031287,3.03129 0.343051,-0.34305 m -3.06233,3.06233 -0.389995,0.38999 m -4.23334,4.23334 0.703927,-0.70393 m -3.341451,3.34146 -0.518172,0.51817 m -6.232726,6.23272 3.59872,-3.59872 m 32.548526,-32.1494 -1.009416,1.00942 m -3.77883,3.77883 2.522267,-2.52227 m -5.420526,5.42052 -0.805035,0.80504 m -4.859942,4.85994 0.315906,-0.3159 m -2.47615,2.47615 -0.623531,0.62353 m -3.184615,3.18461 0.290327,-0.29033 m -2.890639,2.89064 -0.418933,0.41894 m -4.465864,4.46586 0.711911,-0.71191 m -3.400819,3.40082 -0.455153,0.45515 m -5.914256,5.91426 3.514128,-3.51413 m 32.344639,-31.94552 -0.90395,0.90395 m -3.390405,3.39041 2.099862,-2.09986 m -5.014889,5.01489 -1.731941,1.73194 m -4.043048,4.04304 0.295534,-0.29553 m -2.696281,2.69628 -0.495943,0.49594 m -3.337941,3.33795 0.262391,-0.26239 m -2.751411,2.75141 -0.440198,0.44019 m -4.809508,4.80951 0.831015,-0.83101 m -3.372782,3.37278 -0.404393,0.40439 m -5.647872,5.64787 3.420106,-3.4201 m 32.127123,-31.728 -0.798485,0.79848 m -2.97636,2.97636 1.525053,-1.52505 m -4.077591,4.07759 -0.537852,0.53785 m -5.753013,5.75301 0.174335,-0.17433 m -2.82226,2.82226 -0.374145,0.37414 m -3.472804,3.47281 0.294954,-0.29496 m -2.697578,2.69758 -0.434428,0.43443 m -4.949346,4.94935 0.691525,-0.69153 m -3.28301,3.28301 -0.367729,0.36773 m -5.379454,5.37945 3.324048,-3.32404 m 31.917172,-31.51805 -0.708236,0.70823 m -5.579911,5.57991 0.276782,-0.27678 m -6.227048,6.22705 -0.140179,0.14018 m -3.062666,3.06267 0.319426,-0.31943 m -3.542095,3.5421 -0.319017,0.31901 m -2.854853,2.85485 0.482644,-0.48264 m -4.931378,4.93138 -0.715016,0.71501 m -2.809427,2.80943 0.320896,-0.32089 m -2.21411,2.21411 -3.22799,3.22799 m 34.302528,-33.90341 0.645945,-0.64594 m -5.652567,5.65256 -0.214893,0.2149 m -6.297791,6.29779 0.08389,-0.0839 m -2.91079,2.91079 -0.263306,0.2633 m -3.610569,3.61057 0.379115,-0.37911 m -2.758903,2.7589 -0.492867,0.49287 m -5.378154,5.37815 0.738507,-0.7385 m -3.065381,3.06538 -0.299439,0.29944 m -4.873953,4.87395 3.116988,-3.11699 m 31.515541,-31.11642 -0.582784,0.58279 m -4.965788,4.96578 0.190706,-0.1907 m -6.608968,6.60897 -0.07805,0.078 m -3.023904,3.02391 0.207186,-0.20719 m -3.419696,3.41969 -0.455222,0.45523 m -2.944022,2.94402 0.532674,-0.53267 m -5.376746,5.37674 -0.825108,0.82511 m -2.335696,2.3357 0.311767,-0.31177 m -1.905038,1.90504 -3.016096,3.01609 m 33.795686,-33.39656 0.514529,-0.51453 m -5.063166,5.06317 -0.188841,0.18884 m -6.709167,6.70916 0.09827,-0.0983 m -2.83931,2.83931 -0.198763,0.19876 m -3.629799,3.6298 0.471551,-0.47155 m -3.05673,3.05673 -0.599666,0.59967 m -5.653297,5.65329 0.707804,-0.7078 m -2.567497,2.5675 -0.376886,0.37688 m -4.366983,4.36699 2.915203,-2.91521 m 31.072697,-30.67357 -0.483765,0.48376 m -4.510936,4.51094 0.232016,-0.23202 m -7.034732,7.03473 -0.151432,0.15144 m -2.801531,2.80153 0.204359,-0.20436 m -3.247158,3.24716 -0.460652,0.46065 m -3.512295,3.51229 0.727721,-0.72772 m -5.739041,5.73904 -0.797058,0.79706 m -1.961832,1.96183 0.488046,-0.48804 m -1.771429,1.77143 -2.799881,2.79988 m 33.182023,-32.7829 0.453002,-0.453 m -4.526723,4.52672 -0.207994,0.20799 m -7.204182,7.20418 0.199484,-0.19948 m -2.650417,2.65042 -0.209956,0.20995 m -3.377965,3.37797 0.442757,-0.44276 m -3.603694,3.6037 -0.772326,0.77232 m -7.554555,7.55456 2.44574,-2.44574 m -3.532214,3.53221 -2.708182,2.70818 m 32.853413,-32.45429 0.422239,-0.42224 m -4.290761,4.29076 -0.219332,0.21934 m -7.418856,7.41885 0.222174,-0.22217 m -2.50097,2.50097 -0.241451,0.24145 m -3.300429,3.30043 0.464187,-0.46419 m -3.958875,3.95888 -0.81364,0.81364 m -7.445851,7.44585 2.288353,-2.28835 m -3.038299,3.03829 -2.647104,2.64711 m 32.524803,-32.12568 0.391475,-0.39148 m -4.054798,4.0548 -0.227186,0.22719 m -7.682929,7.68292 0.275242,-0.27524 m -2.331553,2.33156 -0.285829,0.28582 m -3.212411,3.21242 0.483585,-0.48359 m -4.211617,4.21162 -0.946438,0.94644 m -10.339023,10.33902 5.121945,-5.12195 m 27.426437,-27.02731 -0.360712,0.36071 m -3.693165,3.69317 0.236947,-0.23695 m -7.855637,7.85564 -0.215967,0.21596 m -2.299861,2.29986 0.352005,-0.352 m -2.96642,2.96642 -0.486493,0.48649 m -5.094032,5.09403 0.734771,-0.73477 m -5.913636,5.91364 -4.603954,4.60395 m 31.85163,-31.4525 0.329948,-0.32995 m -3.618811,3.61881 -0.206957,0.20696 m -8.008612,8.00861 0.130183,-0.13018 m -1.912261,1.91226 -0.453278,0.45327 m -3.007929,3.00793 0.474183,-0.47418 m -5.265114,5.26511 -0.549973,0.54998 m -9.422766,9.42276 4.162372,-4.16237 m 27.694388,-27.29526 -0.292062,0.29206 m -3.305599,3.3056 0.176967,-0.17697 m -4.355555,4.35555 -0.112196,0.1122 m -3.891783,3.89178 0.05264,-0.0526 m -1.667556,1.66755 -0.555932,0.55593 m -2.927735,2.92774 0.474657,-0.47466 m -5.651988,5.65199 -0.502571,0.50257 m -8.925413,8.92541 3.80935,-3.80935 m 27.690202,-27.29108 -0.289744,0.28975 m -3.097869,3.09787 0.138,-0.138 m -4.342388,4.34238 -0.205921,0.20593 m -6.044622,6.04462 0.689154,-0.68915 m -3.071133,3.07113 -0.460848,0.46084 m -5.789809,5.78981 0.461558,-0.46155 m -5.56915,5.56915 -3.568241,3.56824 m 30.879013,-30.47989 0.271754,-0.27176 m -3.063996,3.064 -0.109091,0.10909 m -4.674886,4.67489 0.483169,-0.48317 m -5.501468,5.50146 -0.853752,0.85376 m -2.832271,2.83227 0.460091,-0.46009 m -5.739078,5.73907 -0.585581,0.58558 m -8.43551,8.43552 3.494373,-3.49438 m 27.355917,-26.95679 -0.251928,0.25193 m -2.704796,2.70479 0.09445,-0.0944 m -4.231349,4.23135 -0.801377,0.80138 m -5.72435,5.72435 1.088047,-1.08805 m -3.494612,3.49461 -0.406999,0.407 m -5.936141,5.93614 0.796749,-0.79675 m -5.507959,5.50796 -3.466962,3.46696 m 30.313041,-29.91391 0.232101,-0.23211 m -2.649196,2.6492 -0.09116,0.0912 m -5.319066,5.31907 1.332192,-1.33219 m -5.303248,5.30325 -1.481764,1.48176 m -2.926483,2.92648 0.454842,-0.45484 m -5.056848,5.05685 -1.220396,1.2204 m -8.089155,8.08915 3.519907,-3.51991 m 26.828296,-26.42917 -0.218934,0.21893 m -2.305064,2.30507 0.146818,-0.14682 m -3.639563,3.63956 -2.209073,2.20908 m -5.224181,5.22418 0.864729,-0.86473 m -3.463791,3.46379 -0.705684,0.70568 m -5.398466,5.39847 1.675549,-1.67555 m -6.120365,6.12037 -3.592411,3.59241 m 29.944038,-29.54492 0.207188,-0.20719 m -2.030241,2.03024 -0.248163,0.24817 m -6.034627,6.03462 2.855057,-2.85505 m -7.164916,7.16491 -0.727732,0.72773 m -8.657539,8.65754 6.003711,-6.00371 m -10.323635,10.32364 -3.666352,3.66635 m 29.755532,-29.35641 0.205773,-0.20577 m -1.638316,1.63831 -0.427728,0.42773 m -6.340281,6.34028 4.078996,-4.07899 m -8.366835,8.36683 -0.56685,0.56685 m -8.608462,8.60846 5.616363,-5.61636 m -9.833225,9.83323 -3.682324,3.68232 m 27.879148,-27.48003 1.906399,-1.9064 m -3.941109,3.94111 -1.450457,1.45046 m -3.164751,3.16475 0.663731,-0.66373 m -4.873391,4.87339 -0.489599,0.4896 m -7.070544,7.07054 3.711392,-3.71139 m -4.461016,4.46102 -0.707937,0.70794 m -7.781176,7.78117 3.670249,-3.67025 m 25.69891,-25.29979 -3.795292,3.7953 m -4.623487,4.62348 0.401249,-0.40125 m -4.614077,4.61408 -0.430042,0.43004 m -6.823471,6.82347 2.980727,-2.98072 m -3.934046,3.93404 -0.646863,0.64687 m -7.654424,7.65442 3.64943,-3.64943 m 25.222616,-24.82349 -3.120642,3.12064 m -4.984561,4.98456 0.332346,-0.33235 m -4.61871,4.61871 -0.374617,0.37462 m -6.622474,6.62247 0.598629,-0.59862 m -1.741311,1.74131 -0.581068,0.58107 m -7.530205,7.5302 3.628612,-3.62861 m 24.57038,-24.17126 -0.859118,0.85912 m -6.746035,6.74603 0.343036,-0.34303 m -4.708843,4.70884 -0.369117,0.36912 m -6.404562,6.40456 0.464595,-0.46459 m -1.763406,1.7634 -0.54638,0.54638 m -7.379729,7.37973 3.607794,-3.60779 m 17.254657,-16.85554 -0.386914,0.38692 m -4.863145,4.86314 0.363193,-0.36319 m -6.165706,6.1657 -0.390667,0.39067 m -1.960525,1.96053 0.579554,-0.57956 m -4.221832,4.22183 -3.586976,3.58698 m 20.433613,-20.03449 0.422879,-0.42288 m -5.132758,5.13276 -0.403508,0.40351 m -5.981283,5.98128 0.361866,-0.36187 m -1.794949,1.79495 -0.624314,0.62432 m -7.032011,7.03201 3.546056,-3.54606 m 17.353792,-16.95467 -0.460227,0.46023 m -5.415792,5.41579 0.428005,-0.428 m -5.850759,5.85075 -0.363764,0.36377 m -2.110491,2.11049 0.652754,-0.65276 m -4.024904,4.02491 -3.490127,3.49013 m 20.510116,-20.111 0.469003,-0.469 m -5.814194,5.81419 -0.524414,0.52442 m -5.559361,5.55936 0.404916,-0.40492 m -1.817625,1.81763 -0.749721,0.74972 m -6.654176,6.65417 3.430141,-3.43014 m 17.598513,-17.19939 -0.476598,0.4766 m -6.271567,6.27157 0.552954,-0.55296 m -5.44741,5.44741 -0.476022,0.47603 m -2.199393,2.19939 0.846688,-0.84669 m -3.923028,3.92303 -3.369734,3.36973 m 20.703295,-20.30417 0.314114,-0.31411 m -6.511786,6.51178 -0.685839,0.68584 m -5.089308,5.08931 0.601679,-0.60168 m -1.831489,1.83149 -1.006956,1.00696 m -6.196587,6.19658 3.276748,-3.27674 m 17.681534,-17.28242 -0.260791,0.26079 m -7.369924,7.36993 0.910564,-0.91057 m -4.918675,4.91868 -1.121183,1.12118 m -1.976929,1.97693 1.252868,-1.25287 m -3.993328,3.99333 -3.182118,3.18212 m 20.673675,-20.27455 0.203158,-0.20316 m -7.192156,7.19216 -1.515901,1.5159 m -6.209514,6.20951 4.13644,-4.13644 m -6.694497,6.6945 -3.102439,3.10244 m 20.628883,-20.22977 0.160396,-0.16039 m -7.389275,7.38927 -7.752655,7.75266 m -5.326322,5.32632 3.004601,-3.0046 m 17.656004,-17.25688 -0.136088,0.13609 m -15.211342,15.21134 7.353189,-7.35319 m -9.438574,9.43857 -2.891134,2.89114 m 20.39518,-19.99606 0.121121,-0.12112 m -8.595757,8.59576 -6.948837,6.94883 m -4.63505,4.63505 2.803398,-2.80339 m 17.540038,-17.14092 -0.11679,0.11679 m -9.909111,9.90911 0.788808,-0.78881 m -2.201356,2.20136 -4.328031,4.32803 m -4.271906,4.27191 2.764765,-2.76477 m 17.432471,-17.03335 -0.118893,0.1189 m -15.841026,15.84102 4.553373,-4.55337 m -5.724633,5.72463 -2.623499,2.6235 m 19.761793,-19.36267 0.151735,-0.15173 m -11.374643,11.37464 -8.15521,8.15521 m 19.480883,-19.08176 0.207821,-0.20782 m -11.342741,11.34274 -7.892149,7.89215 m 19.116505,-18.71739 0.277234,-0.27723 m -11.310837,11.31084 -7.630932,7.63093 m 18.693903,-18.29478 0.358862,-0.35886 m -4.642031,4.64203 -1.900068,1.90007 m -11.929238,11.92923 7.240257,-7.24025 m 11.344939,-10.94582 -0.472105,0.47211 m -6.553152,6.55315 3.480028,-3.48003 m -7.625119,7.62512 -6.943459,6.94346 m 11.140386,-10.74127 7.017695,-7.01769 m -11.044651,11.04465 -4.725885,4.72588 m 11.928493,-11.52937 3.808042,-3.80804 m -6.70299,6.70299 -0.389708,0.38971 m -8.375577,8.37558 4.627597,-4.6276 m 10.649584,-10.25046 -1.865595,1.86559 m -4.997062,4.99707 0.262422,-0.26243 m -3.879378,3.87938 -4.555255,4.55526 m 13.687746,-13.28863 1.089605,-1.0896 m -6.324328,6.32433 -0.241865,0.24186 m -7.961287,7.96129 4.475355,-4.47536 m 3.798609,-3.39948 -0.255357,0.25535 m -7.768736,7.76874 4.368846,-4.36885 m 3.74257,-3.34344 -0.245451,0.24545 m -7.599402,7.5994 4.233373,-4.23337 m 3.743955,-3.34484 -0.280698,0.2807 m -7.431966,7.43197 4.0998,-4.0998 m 3.741391,-3.34227 -0.294046,0.29404 m -7.263257,7.26326 3.947003,-3.947 m 3.738828,-3.33971 -0.287713,0.28772 m -7.087932,7.08793 3.757855,-3.75786 m 3.754683,-3.35556 -0.289744,0.28975 m -6.912609,6.91261 3.555601,-3.55561 m 3.789053,-3.38992 -0.297184,0.29718 m -6.700553,6.70055 3.316616,-3.31661 m 3.823423,-3.42431 -0.304624,0.30463 m -6.48114,6.48114 3.108878,-3.10888 m 3.819187,-3.42006 -0.302008,0.302 m -6.271781,6.27179 2.895985,-2.89599 m 3.820106,-3.42098 -0.280961,0.28096 m -6.022044,6.02204 2.659109,-2.65911 m 3.786198,-3.38707 -0.246281,0.24628 m -5.800439,5.80044 2.440646,-2.44065 m 3.757643,-3.35852 -0.196475,0.19648 m -5.558868,5.55886 2.213456,-2.21345 m 3.696109,-3.29699 -0.140112,0.14011 m -5.324247,5.32425 1.988297,-1.9883 m 3.630284,-3.23116 -0.107212,0.10722 m -5.165754,5.16575 1.920625,-1.92063 m 3.506562,-3.10744 -0.131181,0.13118 m -4.660238,4.66024 1.568231,-1.56823 m 3.37741,-2.97829 -0.187069,0.18707 m -4.388115,4.38812 1.573541,-1.57354 m 3.13101,-2.73189 -0.268731,0.26873 m -3.70169,3.70169 1.34365,-1.34365 m 2.757284,-2.35816 -0.685488,0.68549 m -2.770008,2.77001 1.273472,-1.27348 m 2.197074,-1.79795 -2.95182,2.95182 m 0.851852,-0.45273 1.97137,-1.97137 m 0.04442,0.35471 -1.195503,1.1955"
         inkscape:connector-curvature="0" />
    </g>
  </g>
</svg>
