<?xml version="1.0" encoding="UTF-8" standalone="no"?>
<!-- Created with Inkscape (http://www.inkscape.org/) -->

<svg
   xmlns:dc="http://purl.org/dc/elements/1.1/"
   xmlns:cc="http://creativecommons.org/ns#"
   xmlns:rdf="http://www.w3.org/1999/02/22-rdf-syntax-ns#"
   xmlns:svg="http://www.w3.org/2000/svg"
   xmlns="http://www.w3.org/2000/svg"
   xmlns:sodipodi="http://sodipodi.sourceforge.net/DTD/sodipodi-0.dtd"
   xmlns:inkscape="http://www.inkscape.org/namespaces/inkscape"
   width="50mm"
   height="50mm"
   viewBox="0 0 50 50"
   version="1.1"
   id="svg1586"
   inkscape:version="0.92.2 2405546, 2018-03-11"
   sodipodi:docname="50.svg">
  <sodipodi:namedview
     id="base"
     pagecolor="#ffffff"
     bordercolor="#666666"
     borderopacity="1.0"
     inkscape:pageopacity="0.0"
     inkscape:pageshadow="2"
     inkscape:zoom="0.82577733"
     inkscape:cx="58.307818"
     inkscape:cy="68.979071"
     inkscape:document-units="mm"
     inkscape:current-layer="layer1"
     showgrid="false"
     inkscape:window-width="1366"
     inkscape:window-height="703"
     inkscape:window-x="0"
     inkscape:window-y="0"
     inkscape:window-maximized="1" />
  <defs
     id="defs1580" />
  <metadata
     id="metadata1583">
    <rdf:RDF>
      <cc:Work
         rdf:about="">
        <dc:format>image/svg+xml</dc:format>
        <dc:type
           rdf:resource="http://purl.org/dc/dcmitype/StillImage" />
        <dc:title></dc:title>
      </cc:Work>
    </rdf:RDF>
  </metadata>
  <g
     inkscape:label="Layer 1"
     inkscape:groupmode="layer"
     id="layer1"
     transform="translate(0,-247)">
    <g
       id="g945"
       transform="translate(-4.7107997)">
      <path
         id="path920"
         d="m 30.892067,296.73956 c -1.047084,-0.0835 -1.885934,-0.38359 -2.275101,-0.81381 -0.539421,-0.59632 -0.681436,-0.61647 -1.136381,-0.16133 -0.897607,0.898 -2.212488,1.02998 -3.015759,0.30271 -0.566111,-0.51254 -0.702666,-1.00351 -0.608513,-2.18785 0.136161,-1.71275 -0.562712,-2.13826 -1.11689,-0.68002 -0.348312,0.91653 -1.995143,2.37122 -2.684417,2.37122 -0.743869,0 -2.157533,-1.80929 -2.18778,-2.80005 -0.04583,-1.50119 -0.551598,-2.96585 -1.27357,-3.68813 -0.364713,-0.36488 -0.663115,-1.00112 -0.663115,-1.41389 0,-0.96457 1.9677,-2.80781 3.277075,-3.06979 1.17778,-0.23567 1.158903,-0.13949 0.471997,-2.40479 -0.292746,-0.96544 -0.532265,-2.54996 -0.532265,-3.52118 0,-1.66283 -0.102738,-1.85824 -1.761262,-3.35005 -2.415627,-2.17282 -3.394667,-5.02427 -3.173367,-9.24244 0.257425,-4.90673 2.629485,-8.47632 6.583112,-9.90659 1.090517,-0.39451 1.210899,-0.57481 1.210899,-1.81361 0,-1.80809 1.337132,-3.12665 3.179644,-3.1355 0.910819,-0.005 1.541277,-0.27306 2.152314,-0.91728 1.826839,-1.92606 6.349158,-3.57301 8.801035,-3.20517 1.103959,0.16563 1.835197,0.57791 2.75147,1.55134 0.686359,0.72917 1.67167,1.7047 2.189575,2.16785 0.517904,0.46315 0.941643,1.19722 0.941643,1.63126 0,0.46743 0.450544,1.12242 1.105129,1.60659 1.463297,1.08233 2.226952,2.90057 1.747786,4.16143 -0.246643,0.64899 -0.235241,1.35911 0.03636,2.26609 0.564481,1.8849 -0.120498,4.17466 -1.692559,5.65796 l -1.234263,1.16457 0.884205,1.52602 c 1.928313,3.32802 2.439738,7.80082 1.251152,10.94231 -0.238617,0.63067 -0.140563,1.05712 0.401643,1.74672 0.394537,0.50179 0.717337,1.41647 0.717337,2.03264 0,2.1688 -2.967185,5.21655 -4.580056,4.70441 -0.369597,-0.11735 -0.778532,0.0712 -1.030723,0.47516 -0.335596,0.5376 -0.276708,0.9555 0.298562,2.11873 0.555537,1.12333 0.630637,1.60977 0.334121,2.16405 -0.495502,0.92627 -1.594517,1.26313 -2.514286,0.77067 -0.959003,-0.51347 -2.003767,0.0443 -2.300815,1.22836 -0.204811,0.8164 -1.91633,2.07449 -2.609502,1.91817 -0.157201,-0.0354 -1.032204,-0.124 -1.944456,-0.19678 z"
         style="fill:none;stroke:#ff0000;stroke-width:0.1;stroke-miterlimit:4;stroke-dasharray:none"
         inkscape:connector-curvature="0" />
      <path
         id="path918"
         d="m 31.263363,294.14728 c 0.24706,-0.96441 0.676223,-1.94195 0.953692,-2.17233 0.633712,-0.52616 0.334488,-1.053 -0.598066,-1.053 -0.873709,0 -2.282403,1.468 -2.780553,2.89762 -0.309297,0.88764 -0.25602,1.17788 0.322433,1.75659 0.988402,0.98883 1.587413,0.58174 2.102494,-1.42888 z"
         style="fill:none;stroke:#0000ff;stroke-width:0.1;stroke-miterlimit:4;stroke-dasharray:none"
         inkscape:connector-curvature="0" />
      <path
         id="path916"
         d="m 34.205761,295.6046 c 0.829324,-0.67184 0.8315,-0.69122 0.160929,-1.43251 -0.700117,-0.77396 -0.510577,-1.55082 0.203962,-0.83597 0.29456,0.29469 0.606267,0.26435 1.185551,-0.11537 0.622209,-0.40787 1.023223,-0.43242 1.925127,-0.11788 1.922306,0.67042 2.8312,-0.60242 1.555565,-2.17845 l -0.64098,-0.79192 -2.518743,0.75044 c -1.385309,0.41274 -2.765023,1.03288 -3.066033,1.37807 -0.978433,1.12207 -1.41926,2.28547 -1.198864,3.16399 0.263352,1.04973 1.22986,1.12225 2.393486,0.1796 z"
         style="fill:none;stroke:#0000ff;stroke-width:0.1;stroke-miterlimit:4;stroke-dasharray:none"
         inkscape:connector-curvature="0" />
      <path
         id="path914"
         d="m 26.675556,295.5585 c 0.379599,-0.20325 1.031126,-1.04803 1.447838,-1.87729 0.416711,-0.82927 0.988303,-1.77078 1.270205,-2.09225 0.457307,-0.52149 0.391238,-0.62679 -0.613046,-0.97704 -1.331073,-0.46421 -2.009631,-0.17934 -3.339755,1.40211 -0.887405,1.05509 -1.272743,3.09645 -0.693828,3.67562 0.346096,0.34624 1.137463,0.29242 1.928586,-0.13115 z"
         style="fill:none;stroke:#0000ff;stroke-width:0.1;stroke-miterlimit:4;stroke-dasharray:none"
         inkscape:connector-curvature="0" />
      <path
         id="path912"
         d="m 21.623363,293.91312 c 0.407433,-0.51819 0.740787,-1.29056 0.740787,-1.71638 0,-0.63927 0.207949,-0.7742 1.193083,-0.7742 0.671882,0 1.611115,-0.32898 2.150005,-0.75305 l 0.956924,-0.75305 -1.703227,-0.96294 -1.703227,-0.96294 -1.60267,0.83991 c -1.032075,0.54089 -1.888937,1.34916 -2.406725,2.27024 -0.991548,1.76384 -1.003914,2.13609 -0.100969,3.03943 0.958237,0.95865 1.589269,0.9008 2.476019,-0.22702 z"
         style="fill:none;stroke:#0000ff;stroke-width:0.1;stroke-miterlimit:4;stroke-dasharray:none"
         inkscape:connector-curvature="0" />
      <path
         id="path910"
         d="m 21.634633,287.88716 c 0.950059,-0.30167 0.770719,-1.03684 -0.291008,-1.19293 -1.10087,-0.16183 -3.268542,2.05396 -3.268542,3.3411 v 0.97282 l 1.395339,-1.43842 c 0.767436,-0.79114 1.741332,-1.54829 2.164213,-1.68257 z"
         style="fill:none;stroke:#0000ff;stroke-width:0.1;stroke-miterlimit:4;stroke-dasharray:none"
         inkscape:connector-curvature="0" />
      <path
         id="path908"
         d="m 37.023942,289.75979 c 0.949191,-0.48133 1.872973,-1.30735 2.29941,-2.05608 l 0.712804,-1.25153 -1.42271,1.48735 c -0.96484,1.00867 -1.854949,1.56847 -2.765767,1.73941 -1.677713,0.31488 -3.475678,-0.3594 -3.475678,-1.30346 0,-0.50961 -0.261611,-0.67177 -1.08375,-0.67177 -2.473588,0 -4.604274,-1.82154 -3.749386,-3.20539 0.137752,-0.22298 -0.289861,-0.60608 -1.014716,-0.90907 -1.345035,-0.56224 -2.372876,-1.74632 -2.372876,-2.73357 0,-0.87774 1.067282,-1.81859 1.8351,-1.61771 0.386376,0.10109 1.193121,-0.25513 1.96169,-0.86618 0.717985,-0.57083 1.48436,-1.03988 1.703057,-1.04231 0.218698,-0.003 0.767514,-0.57556 1.219593,-1.27361 0.762003,-1.17661 0.770235,-1.2415 0.112853,-0.88953 -0.900355,0.48207 -2.432351,0.49084 -2.725929,0.0156 -0.13989,-0.22645 -0.586935,-0.10903 -1.182718,0.31066 -1.705992,1.20176 -2.463766,1.26114 -3.453829,0.27064 -0.49473,-0.49495 -0.899509,-1.14553 -0.899509,-1.44572 0,-0.30019 -0.402101,-0.64677 -0.893557,-0.77018 -0.491456,-0.1234 -0.898449,-0.40805 -0.904426,-0.63257 -0.006,-0.22451 -0.182784,-0.11236 -0.392903,0.24923 -0.210118,0.36159 -0.463735,2.21206 -0.563594,4.11216 -0.156479,2.97748 -0.07153,3.75111 0.614946,5.6002 1.137541,3.06408 3.698889,5.45107 6.998921,6.52247 4.14712,1.34641 7.264607,1.46556 9.442974,0.36093 z"
         style="fill:none;stroke:#0000ff;stroke-width:0.1;stroke-miterlimit:4;stroke-dasharray:none"
         inkscape:connector-curvature="0" />
      <path
         id="path906"
         d="m 36.650347,288.67658 c 1.099291,-0.5565 2.51269,-2.6072 2.51269,-3.64567 0,-0.66672 -0.158755,-0.75582 -1.100317,-0.61757 -0.690698,0.10142 -1.2145,0.44443 -1.407036,0.92141 l -0.30672,0.75985 -0.02266,-0.76284 c -0.03251,-1.09482 -1.318031,-1.3378 -1.991163,-0.37634 -0.293397,0.41907 -0.533454,1.05854 -0.533454,1.42105 0,0.3625 -0.177445,0.99081 -0.394323,1.39623 -0.302766,0.56596 -0.282018,0.80832 0.08935,1.04375 0.696198,0.44135 2.131195,0.3777 3.153625,-0.13987 z"
         style="fill:none;stroke:#0000ff;stroke-width:0.1;stroke-miterlimit:4;stroke-dasharray:none"
         inkscape:connector-curvature="0" />
      <path
         id="path904"
         d="m 18.389969,287.68479 c 0.443708,-0.6004 1.197736,-1.26987 1.675619,-1.48771 1.060215,-0.48327 1.130399,-0.99642 0.136283,-0.99642 -1.768613,0 -3.869552,1.88623 -3.416509,3.06736 0.295795,0.77116 0.716777,0.61815 1.604607,-0.58323 z"
         style="fill:none;stroke:#0000ff;stroke-width:0.1;stroke-miterlimit:4;stroke-dasharray:none"
         inkscape:connector-curvature="0" />
      <path
         id="path902"
         d="m 42.055977,287.14998 c 1.81313,-0.93802 2.886798,-3.3031 2.251453,-4.95951 -0.49788,-1.29802 -2.278377,0.0385 -2.297676,1.72469 -0.01239,1.08068 -0.02324,1.08768 -0.461732,0.2977 -0.38572,-0.69488 -0.53801,-0.74394 -1.079523,-0.3478 -0.565733,0.41384 -0.5841,0.63454 -0.178981,2.14992 0.248314,0.9288 0.506517,1.68873 0.573805,1.68873 0.06728,0 0.603972,-0.24918 1.192654,-0.55373 z"
         style="fill:none;stroke:#0000ff;stroke-width:0.1;stroke-miterlimit:4;stroke-dasharray:none"
         inkscape:connector-curvature="0" />
      <path
         id="path900"
         d="m 32.875687,286.184 c 0.921796,-1.42576 1.058888,-2.64371 0.32911,-2.92388 -0.465922,-0.17886 -0.877948,0.0354 -1.454506,0.75609 -0.905725,1.13228 -1.110979,0.70361 -0.251143,-0.52452 0.538263,-0.76881 0.443265,-1.50925 -0.193638,-1.50925 -0.45723,0 -3.214244,2.96892 -3.218735,3.46612 -0.0066,0.73345 1.52625,1.53999 2.926821,1.53999 0.999217,0 1.474765,-0.20547 1.862091,-0.80455 z"
         style="fill:none;stroke:#0000ff;stroke-width:0.1;stroke-miterlimit:4;stroke-dasharray:none"
         inkscape:connector-curvature="0" />
      <path
         id="path898"
         d="m 40.381544,283.0309 c 1.959286,-0.96494 3.107621,-2.86222 3.536968,-5.84379 0.353287,-2.45335 0.315515,-2.94256 -0.398413,-5.16021 -0.971252,-3.01695 -2.852775,-5.50492 -4.920353,-6.50626 -1.791161,-0.86747 -2.698332,-0.72432 -4.174827,0.65877 -1.290784,1.20911 -1.69401,2.79542 -1.454917,5.72369 0.190477,2.33284 0.163755,2.43078 -1.091462,4.00049 -2.292642,2.86707 -1.531133,5.08493 2.459285,7.16257 1.626074,0.84662 4.284591,0.83111 6.043719,-0.0352 z"
         style="fill:none;stroke:#0000ff;stroke-width:0.1;stroke-miterlimit:4;stroke-dasharray:none"
         inkscape:connector-curvature="0" />
      <path
         id="path896"
         d="m 29.672911,282.20962 c 1.50601,-1.39633 0.917337,-2.56943 -0.74316,-1.48096 -0.499868,0.32767 -0.9971,0.50748 -1.104961,0.39957 -0.107861,-0.10791 0.307178,-0.48281 0.922309,-0.83313 0.731038,-0.41632 1.119202,-0.9156 1.120679,-1.44148 0.0029,-1.04142 -0.388566,-1.01691 -1.427432,0.0894 -0.562302,0.59881 -1.22395,0.89394 -2.004044,0.89394 -1.572376,0 -1.971225,1.13595 -0.826773,2.35469 1.074864,1.14464 2.839798,1.15244 4.063382,0.018 z"
         style="fill:none;stroke:#0000ff;stroke-width:0.1;stroke-miterlimit:4;stroke-dasharray:none"
         inkscape:connector-curvature="0" />
      <path
         id="path894"
         d="m 25.94554,275.36352 c 0.574158,-0.29703 1.21519,-0.86022 1.424517,-1.25152 0.485817,-0.90815 0.935872,-0.90673 1.173852,0.004 0.2275,0.87034 0.994865,0.90598 2.644543,0.12281 l 1.247736,-0.59236 -0.121451,-2.17889 -0.121451,-2.17891 -1.692168,-0.43819 c -1.530348,-0.39631 -1.812597,-0.36714 -2.951498,0.30512 -0.877529,0.51799 -1.844781,0.73636 -3.190376,0.72027 -1.663141,-0.0198 -2.009869,0.0973 -2.499201,0.84442 -1.028466,1.57033 -0.489737,2.51604 1.183853,2.07819 0.665372,-0.17407 0.725203,-0.0784 0.537633,0.85987 -0.1456,0.72831 -0.02664,1.24025 0.383584,1.65065 0.723018,0.72334 0.690015,0.72242 1.980427,0.0548 z"
         style="fill:none;stroke:#0000ff;stroke-width:0.1;stroke-miterlimit:4;stroke-dasharray:none"
         inkscape:connector-curvature="0" />
      <path
         id="path892"
         d="m 19.508639,274.74149 c 0.0021,-0.44251 0.235383,-1.56785 0.518346,-2.50076 0.576967,-1.90222 0.343935,-3.01988 -1.116924,-5.35694 -1.737925,-2.78031 -3.697771,-3.16602 -4.114465,-0.80975 -0.303706,1.71736 -0.07197,3.30464 0.845583,5.79197 1.017912,2.75937 3.857865,4.87088 3.86746,2.87548 z"
         style="fill:none;stroke:#0000ff;stroke-width:0.1;stroke-miterlimit:4;stroke-dasharray:none"
         inkscape:connector-curvature="0" />
      <path
         id="path890"
         d="m 21.866604,269.55658 c 0.627113,-0.82647 0.622064,-2.92483 -0.01065,-4.42607 -1.068184,-2.53449 -4.677125,-4.94544 -5.75405,-3.84399 -0.264962,0.27099 -0.590189,0.93522 -0.722728,1.47606 -0.189749,0.7743 -0.114992,0.98334 0.351653,0.98334 1.74236,0 4.607811,3.06807 5.09296,5.45308 0.233852,1.14965 0.398882,1.20623 1.042815,0.35758 z"
         style="fill:none;stroke:#0000ff;stroke-width:0.1;stroke-miterlimit:4;stroke-dasharray:none"
         inkscape:connector-curvature="0" />
      <path
         id="path888"
         d="m 26.939046,268.60722 c 2.244233,-1.16819 3.645835,-3.70475 3.645835,-6.5981 0,-2.26018 -0.509629,-2.81163 -4.110364,-4.44755 -2.453295,-1.11462 -3.048287,-1.25583 -4.189518,-0.99435 -2.354745,0.53954 -5.282189,2.5976 -5.282189,3.71349 0,0.0867 0.469343,0.25151 1.042983,0.36629 2.235296,0.44726 5.033207,3.95097 5.033207,6.30289 0,1.29204 0.217513,1.34314 1.3173,0.30949 0.520853,-0.48953 0.82521,-1.18482 0.821764,-1.87728 -0.0067,-1.34809 -0.314578,-1.86121 -1.245507,-2.07584 -0.652567,-0.15046 -0.660283,-0.18857 -0.08856,-0.43751 0.874981,-0.38098 2.411805,0.0684 2.411805,0.70519 0,0.29126 -0.128543,0.52956 -0.285652,0.52956 -0.157109,0 -0.222574,0.54055 -0.145479,1.20122 0.111591,0.95627 -0.09281,1.46668 -1.002354,2.50305 l -1.142528,1.30184 h 1.127045 c 0.619874,0 1.561368,-0.22607 2.092208,-0.50239 z"
         style="fill:none;stroke:#0000ff;stroke-width:0.1;stroke-miterlimit:4;stroke-dasharray:none"
         inkscape:connector-curvature="0" />
      <path
         id="path886"
         d="m 33.00333,266.70765 c 0.961358,-1.72734 2.828934,-2.76455 4.36864,-2.42623 0.569149,0.12507 1.658074,0.67907 2.419833,1.23113 1.279448,0.92723 1.457963,0.9655 2.341982,0.50211 0.526329,-0.2759 1.296284,-1.16704 1.711012,-1.98032 0.94829,-1.85962 0.728539,-3.57052 -0.647339,-5.03984 l -0.996332,-1.06399 1.011083,0.18167 c 2.446697,0.43959 1.256546,-2.77317 -1.508156,-4.07121 -1.900256,-0.89218 -2.293109,-1.38 -1.111329,-1.38 0.393165,0 0.714847,-0.2297 0.714847,-0.51042 0,-0.89962 -1.790953,-1.99264 -3.26501,-1.99264 -0.75982,0 -1.381491,-0.16091 -1.381491,-0.35758 0,-0.19667 0.402101,-0.35758 0.893558,-0.35758 0.491457,0 0.893558,-0.15678 0.893558,-0.34839 0,-0.54028 -1.988234,-1.43951 -3.182799,-1.43951 -1.765527,0 -5.74282,1.63796 -7.046233,2.90182 -1.314417,1.27455 -1.342558,1.33905 -0.893507,2.04785 0.249591,0.39398 0.435915,0.39754 1.040312,0.0199 0.932761,-0.58277 2.276912,-0.038 3.13365,1.27018 0.729065,1.11318 0.461534,3.02879 -0.551033,3.94556 -0.65168,0.59002 -0.659596,0.69658 -0.128116,1.72479 0.675244,1.30636 0.505746,4.35744 -0.356805,6.42272 -0.756924,1.81237 -0.754687,1.83716 0.189488,2.10099 1.23266,0.34445 1.46627,0.20717 2.350187,-1.38104 z"
         style="fill:none;stroke:#0000ff;stroke-width:0.1;stroke-miterlimit:4;stroke-dasharray:none"
         inkscape:connector-curvature="0" />
      <path
         id="path884"
         d="m 30.584881,256.91827 c 0,-0.15204 -0.442311,-0.32735 -0.982913,-0.38958 -0.90613,-0.10431 -0.980503,-0.23186 -0.952064,-1.63286 0.03426,-1.68762 -0.164131,-1.84257 -1.072861,-0.838 -0.892336,0.98645 -0.630415,2.93618 0.467596,3.48075 0.861248,0.42714 2.540242,0.0171 2.540242,-0.62031 z"
         style="fill:none;stroke:#0000ff;stroke-width:0.1;stroke-miterlimit:4;stroke-dasharray:none"
         inkscape:connector-curvature="0" />
      <path
         id="path882"
         d="m 26.182995,256.36228 c -0.127574,-0.12762 -0.596692,-0.41295 -1.042484,-0.63405 -0.924766,-0.45865 -1.23587,-1.93809 -0.641279,-3.04958 0.510016,-0.95339 0.09051,-0.93369 -0.950417,0.0446 -0.8919,0.83827 -1.137806,2.73819 -0.380459,2.93952 0.245727,0.0654 0.929299,0.28452 1.519047,0.4871 1.309285,0.44976 1.802947,0.51986 1.495592,0.21237 z"
         style="fill:none;stroke:#0000ff;stroke-width:0.1;stroke-miterlimit:4;stroke-dasharray:none"
         inkscape:connector-curvature="0" />
      <path
         id="path880"
         d="m 31.299727,254.64875 c 0,-0.37741 -0.685935,-0.53597 -0.889954,-0.20572 -0.123476,0.19987 0.02624,0.36341 0.332725,0.36341 0.306476,0 0.557229,-0.071 0.557229,-0.15769 z"
         style="fill:none;stroke:#0000ff;stroke-width:0.1;stroke-miterlimit:4;stroke-dasharray:none"
         inkscape:connector-curvature="0" />
      <path
         id="path1340"
         d="m 26.653228,253.37612 c 0,-0.19667 -0.07093,-0.35757 -0.157617,-0.35757 -0.08669,0 -0.257021,0.1609 -0.378516,0.35757 -0.121495,0.19667 -0.05057,0.35758 0.157617,0.35758 0.208184,0 0.378516,-0.16091 0.378516,-0.35758 z"
         style="fill:none;stroke:#0000ff;stroke-width:0.1;stroke-miterlimit:4;stroke-dasharray:none"
         inkscape:connector-curvature="0" />
      <path
         id="path864"
         style="fill:none;stroke:#0000ff;stroke-width:0.1"
         d="m 23.261118,252.06648 -0.405205,0.40521 m -0.350522,0.74964 1.486821,-1.48682 m 0.566143,-0.16702 -2.214143,2.21414 m -5.921456,5.92146 1.763938,-1.76394 m 6.836381,-6.43726 -0.241685,0.24169 m -2.485883,2.48588 0.294069,-0.29407 m -3.167806,3.16781 -3.310879,3.31088 m 8.840709,-8.44159 0.486512,-0.48651 m -3.010296,3.0103 -0.152329,0.15232 m -3.335964,3.33597 1.209541,-1.20954 m -3.23281,3.23281 -1.302957,1.30295 m 9.172436,-8.77331 1.089619,-1.08962 m -3.438031,3.43803 -0.139455,0.13946 m -1.91473,1.91473 0.494739,-0.49474 m -4.056872,4.05687 -1.45481,1.45481 m 9.239556,-8.84043 2.570392,-2.57039 m -4.680965,4.68096 -1.438872,1.43887 m -4.099995,4.1 0.119985,-0.11999 m -1.928241,1.92824 -0.05647,0.0565 m 9.411451,-9.01233 4.45391,-4.45391 m -6.347041,6.34705 -1.067072,1.06707 m -6.574261,6.57426 0.198681,-0.19868 m 14.223767,-13.82465 -4.874293,4.8743 m -2.284665,2.28466 0.541135,-0.54113 m -7.691343,7.69134 -0.236295,0.23629 m 14.85516,-14.45603 0.553584,-0.55359 m -3.442909,3.44291 -2.280491,2.28049 m -1.835446,1.83545 0.315556,-0.31556 m -5.01871,5.01871 -0.06,0.06 m -3.231712,3.23171 0.440188,-0.44019 m 15.792787,-15.39366 -0.462098,0.4621 m -5.823918,5.82391 2.256794,-2.25679 m -3.59112,3.59112 -0.153033,0.15303 m -4.93258,4.93258 0.05971,-0.0597 m -2.938812,2.93882 -0.697044,0.69704 m 16.590267,-16.19115 0.369509,-0.3695 m -4.568022,4.56802 -0.243112,0.24311 m -2.035907,2.03591 1.110788,-1.11079 m -2.25955,2.25955 -0.117237,0.11724 m -5.015755,5.01575 0.0999,-0.0999 m -2.890293,2.89029 -1.089709,1.08971 m 17.131446,-16.73233 0.461881,-0.46188 m -4.986204,4.98621 -0.304589,0.30459 m -1.982413,1.98241 1.195694,-1.19569 m -2.200502,2.2005 -0.06129,0.0613 m -5.119653,5.11965 0.124799,-0.1248 m -2.835525,2.83553 -1.472769,1.47277 m 17.952773,-17.55365 0.280616,-0.28062 m -5.365873,5.36587 -2.286529,2.28653 m -6.143229,6.14323 0.116956,-0.11696 m -2.752354,2.75236 -0.111725,0.11172 m 16.871298,-16.47217 0.183013,-0.18301 m -5.473063,5.47306 -2.450229,2.45023 m -6.141505,6.1415 0.120984,-0.12098 m 14.483666,-14.08455 -0.11981,0.11981 m -8.095157,8.09516 2.952425,-2.95242 m -3.745646,3.74564 -0.05925,0.0593 m -5.311262,5.31126 0.142369,-0.14236 m 14.682883,-14.28376 -0.077,0.077 m -5.702915,5.70291 0.539367,-0.53937 m -1.97533,1.97534 -1.19746,1.19746 m -0.800945,0.80094 0.06939,-0.0694 m -5.323525,5.32353 -0.130882,0.13088 m 14.979412,-14.58029 0.06644,-0.0664 m -5.304095,5.30409 -0.692192,0.69219 m -2.615426,2.61543 0.655162,-0.65516 m -1.325052,1.32505 -0.102454,0.10245 m -5.435846,5.43585 0.119395,-0.11939 m 9.731134,-9.33202 -0.922513,0.92252 m -2.471648,2.47164 0.405193,-0.40519 m -1.013417,1.01342 -0.133809,0.13381 m -5.499587,5.49959 0.119109,-0.11911 m 15.308602,-14.90948 -0.09171,0.0917 m -6.552811,6.55281 1.09296,-1.09296 m -3.213609,3.21362 -0.884467,0.88446 m -5.57701,5.57701 0.128168,-0.12817 m 15.50451,-15.10538 -0.106603,0.1066 m -6.933911,6.93391 1.328466,-1.32847 m -3.365457,3.36546 -0.699675,0.69968 m -5.654432,5.65443 0.116177,-0.11618 m 15.640262,-15.24114 -0.08399,0.084 m -7.269716,7.26972 1.562377,-1.56238 m -3.504554,3.50456 -0.527632,0.52763 m -5.731856,5.73185 0.104187,-0.10418 m 15.776014,-15.37689 -0.09372,0.0937 m -7.580381,7.58038 1.767873,-1.76787 m -3.589158,3.58915 -0.380407,0.38041 m -5.811431,5.81143 0.100288,-0.10028 m 15.89483,-15.49571 -0.106992,0.10699 m -7.893944,7.89394 1.971924,-1.97192 m -3.609287,3.60929 -0.278202,0.2782 m -5.904167,5.90417 0.110908,-0.11091 m -2.576761,2.57676 -0.05169,0.0517 m 18.525844,-18.12672 0.08997,-0.09 m -6.121508,6.12151 -0.243991,0.24399 m -1.834067,1.83407 1.144137,-1.14414 m -2.68501,2.68501 -0.18648,0.18648 m -5.996905,5.99691 0.10169,-0.10169 m -2.560069,2.56007 -0.0681,0.0681 m 18.654955,-18.25583 0.06911,-0.0691 m -6.210156,6.21016 -0.05477,0.0548 m -2.041094,2.04109 1.172545,-1.17255 m -2.65479,2.65479 -0.145225,0.14523 m -6.089642,6.08964 0.09247,-0.0925 m -2.543378,2.54338 -0.08451,0.0845 m 10.57556,-10.17644 1.111428,-1.11142 m -2.689168,2.68917 -0.10557,0.10557 m -6.189523,6.18952 0.0904,-0.0904 m -2.526687,2.52669 -0.100927,0.10092 m -4.160326,4.16033 0.05704,-0.057 m 16.530949,-16.13183 -1.708001,1.708 m -1.72574,1.72574 0.16355,-0.16355 m -6.364631,6.36463 -0.115098,0.1151 m -2.52456,2.52456 0.114177,-0.11418 m -4.272053,4.27206 -0.06901,0.069 m 15.137478,-14.73835 1.448826,-1.44883 m -3.029958,3.02996 -0.22153,0.22153 m -6.442836,6.44283 0.108073,-0.10807 m -2.499396,2.4994 -0.130398,0.13039 m -4.279895,4.2799 0.07724,-0.0772 m 16.449932,-16.0508 -1.156122,1.15612 m -1.859416,1.85941 0.314577,-0.31457 m -6.777704,6.7777 -0.106366,0.10637 m -2.518882,2.51888 0.14662,-0.14662 m -4.394046,4.39404 -0.05871,0.0587 m 22.277671,-21.87855 0.08907,-0.0891 m -5.864364,5.86436 -1.0059,1.0059 m -1.843431,1.84343 0.590212,-0.59021 m -7.173051,7.17305 -0.124668,0.12467 m -2.496033,2.49603 0.162841,-0.16284 m 18.94824,-18.54912 -0.922588,0.92259 m -8.741818,8.74182 2.490969,-2.49097 m -6.916788,6.91679 -0.184191,0.18419 m -2.249669,2.24967 0.154815,-0.15482 m -2.445745,2.44575 -0.152697,0.1527 m 18.405454,-18.00634 0.762814,-0.76281 m -7.502476,7.50248 -2.119351,2.11935 m -4.585686,4.58568 0.26657,-0.26657 m -2.524904,2.52491 -0.167832,0.16783 m -2.39122,2.39122 0.142215,-0.14222 m 19.083241,-18.68411 -0.593322,0.59332 m -8.994029,8.99403 1.745219,-1.74522 m -5.959815,5.95981 -0.407757,0.40776 m -2.53357,2.53357 0.180849,-0.18085 m -2.387928,2.38793 -0.145265,0.14526 m 18.8334,-18.43427 0.462773,-0.46278 m -9.17887,9.17887 -0.396656,0.39666 m -4.624725,4.62472 0.466745,-0.46674 m -2.925494,2.92549 -0.210887,0.21089 m -2.322714,2.32271 0.151956,-0.15195 m 19.241202,-18.84208 -0.341308,0.34131 m -9.222396,9.22239 0.247783,-0.24778 m -4.359894,4.35989 -0.620062,0.62007 m -2.739535,2.73953 0.204535,-0.20453 m -2.315433,2.31543 -0.143274,0.14327 m 19.228636,-18.82951 0.261505,-0.26151 m -9.386596,9.3866 -0.192866,0.19287 m -4.823721,4.82372 0.659476,-0.65948 m -3.240474,3.24047 -0.216757,0.21676 m -2.185631,2.18563 0.134593,-0.13459 m 19.452531,-19.05341 -0.186833,0.18683 m -9.425592,9.4256 0.154159,-0.15416 m -4.544421,4.54442 -0.525882,0.52588 m -2.813832,2.81383 0.187835,-0.18783 m -2.211594,2.21159 -0.106997,0.107 m 19.561553,-19.16243 0.11216,-0.11216 m -9.542511,9.54251 -0.11775,0.11775 m -5.040295,5.0403 0.102257,-0.10226 m -2.730969,2.73097 -0.258974,0.25897 m -2.038764,2.03876 0.142415,-0.14241 m 10.051505,-9.65238 -0.11502,0.11502 m -5.125025,5.12502 0.0818,-0.0818 m -2.650691,2.65069 -0.39151,0.39151 m -1.945216,1.94521 0.214477,-0.21447 m 10.005026,-9.60591 -0.08427,0.0843 m -5.237527,5.23753 0.100694,-0.10069 m -2.475453,2.47545 -0.829457,0.82946 m -1.747912,1.74791 0.43781,-0.43781 m 9.901406,-9.50229 -0.09283,0.0928 m -10.242975,10.24297 5.060393,-5.06039 m 5.294489,-4.89537 -0.06002,0.06 m -10.400491,10.40049 4.991737,-4.99173 m 5.47994,-5.08082 -0.05678,0.0568 m -10.511654,10.51166 4.852934,-4.85294 m 5.726672,-5.32754 -0.05448,0.0545 m -7.597306,7.59731 0.268157,-0.26816 m -2.483884,2.48388 -0.848086,0.84809 m 20.147005,-19.74788 0.05329,-0.0533 m -9.473534,9.47353 -0.09139,0.0914 m -7.158809,7.15881 0.214003,-0.21401 m -2.842313,2.84232 -0.984246,0.98424 m 20.509901,-20.11078 1.047639,-1.04764 m -10.624701,10.62471 -0.222752,0.22275 m -6.691051,6.69105 0.206645,-0.20665 m -3.144069,3.14407 -0.0659,0.0659 m -1.148689,1.14868 0.390447,-0.39044 m -2.172208,2.17221 -0.06553,0.0655 m 22.731731,-22.33261 0.896714,-0.89671 m -10.885443,10.88544 -0.07154,0.0715 m -6.26568,6.26568 0.19512,-0.19512 m -3.385281,3.38528 -0.09237,0.0924 m -1.343251,1.34325 0.14891,-0.14891 m -1.627142,1.62714 -0.09632,0.0963 m 22.789095,-22.38997 0.702245,-0.70225 m -11.015147,11.01515 -0.204538,0.20454 m -5.655266,5.65526 0.218396,-0.21839 m -3.631055,3.63105 -0.07487,0.0749 m -1.610008,1.61 0.123613,-0.12361 m -1.206122,1.20612 -0.230886,0.23089 m 22.846459,-22.44734 0.517289,-0.51729 m -11.154365,11.15437 -0.158242,0.15824 m -5.226647,5.22665 0.267162,-0.26717 m -3.804523,3.80453 -0.08634,0.0863 m -3.016776,3.01678 1.207889,-1.20789 m 22.125187,-21.72607 -0.407811,0.40782 m -11.269262,11.26926 0.209936,-0.20994 m -4.475717,4.47572 -0.271454,0.27145 m -3.824607,3.82461 0.1387,-0.1387 m -2.265083,2.26508 -0.995089,0.99509 m 23.015394,-22.61627 0.303794,-0.30379 m -11.800507,11.8005 -0.503904,0.50391 m -3.597299,3.5973 0.525444,-0.52545 m -4.297279,4.29728 -0.260328,0.26033 m -3.212628,3.21263 0.78229,-0.78229 m 22.545402,-22.14628 -0.235362,0.23536 m -15.225795,15.22579 3.30489,-3.30489 m -7.214983,7.21499 -0.478646,0.47864 m -3.332302,3.33231 0.596685,-0.59669 m 22.777863,-22.37874 -0.176671,0.17667 m -14.717375,14.71738 2.281262,-2.28127 m -6.55228,6.55228 -0.653233,0.65324 m -3.464302,3.4643 0.464625,-0.46463 m 23.031644,-22.63252 -0.139301,0.1393 m -14.218494,14.2185 1.31277,-1.31277 m -6.408664,6.40866 -0.399646,0.39965 m -3.52884,3.52884 0.31042,-0.31042 m 23.285743,-22.88662 -0.109149,0.10915 m -13.864337,13.86433 0.620637,-0.62063 m -6.36993,6.36993 -0.252299,0.2523 m -3.60524,3.60524 0.275837,-0.27584 m 23.520179,-23.12106 -0.110698,0.1107 m -13.746775,13.74677 0.399146,-0.39914 m -6.418554,6.41855 -0.2163,0.2163 m -3.68699,3.68699 0.245293,-0.24529 m 23.750575,-23.35145 -0.112247,0.11224 m -13.580969,13.58097 0.222014,-0.22201 m -6.638698,6.6387 -0.05709,0.0571 m -3.813277,3.81327 0.214991,-0.21499 m 23.958911,-23.55979 -0.09173,0.0917 m -13.48717,13.48717 0.210664,-0.21066 m -10.605369,10.60536 -0.167775,0.16778 m 24.252002,-23.85288 0.07853,-0.0785 m -13.266623,13.26662 -0.175918,0.17592 m -10.855478,10.85547 0.120558,-0.12055 m 24.350115,-23.951 -0.07245,0.0724 m -13.21723,13.21723 0.182902,-0.1829 m -11.218457,11.21846 -0.112921,0.11292 m 24.544446,-24.14533 0.05631,-0.0563 m -9.843546,9.84354 -0.582395,0.5824 m -2.7121,2.7121 0.232822,-0.23283 m -11.566245,11.56625 -0.09678,0.0968 m 13.725189,-13.32607 2.105911,-2.10591 m -3.826238,3.82624 -0.257636,0.25763 m -11.705563,11.70557 0.07148,-0.0715 m 16.310821,-15.91169 -4.359713,4.35971 m 4.421465,-4.02234 0.283094,-0.2831 m -3.31651,3.31651 -1.07102,1.07102 m 4.606308,-4.20718 0.224003,-0.22401 m -3.965969,3.96597 -0.547315,0.54732 m -7.154984,7.15498 0.137798,-0.1378 m 18.035131,-17.63601 -0.130336,0.13034 m -6.171186,6.17119 0.201802,-0.20181 m -4.403957,4.40396 -0.30029,0.30029 m -6.856972,6.85697 2.347084,-2.34708 m 15.710592,-15.31147 -0.334066,0.33407 m -6.031872,6.03187 0.145837,-0.14584 m -4.742597,4.7426 -0.216934,0.21693 m -6.364411,6.36441 2.025818,-2.02582 m -8.139432,8.13944 -0.06265,0.0627 m 23.571101,-23.17198 1.192415,-1.19242 m -6.978287,6.97829 -0.114556,0.11456 m -5.108925,5.10892 0.133578,-0.13358 m -4.375106,4.37511 -1.041007,1.04101 m -7.188537,7.18853 0.07095,-0.0709 m 24.451396,-24.05228 -0.861926,0.86193 m -5.791445,5.79144 0.110603,-0.1106 m -5.381016,5.38102 -0.106415,0.10641 m -4.524928,4.52493 0.374373,-0.37437 m -8.17167,8.17167 -0.07924,0.0792 m 23.751002,-23.35188 0.533151,-0.53315 m -6.100449,6.10045 -0.116434,0.11643 m -5.644729,5.64473 0.09625,-0.0962 m -4.105302,4.10531 -0.189206,0.1892 m -8.133606,8.13361 0.08754,-0.0875 m -2.337687,2.33768 -1.406599,1.4066 m 27.46754,-27.06841 0.38263,-0.38263 m -5.85172,5.85172 -0.07614,0.0761 m -5.912632,5.91263 0.08608,-0.0861 m -3.901374,3.90137 -0.187715,0.18772 m -8.246515,8.24651 0.104508,-0.1045 m -1.860881,1.86088 -2.39547,2.39547 m 28.009689,-27.61057 0.266119,-0.26612 m -11.777455,11.77746 -0.07592,0.0759 m -3.746458,3.74646 0.184493,-0.18449 m -8.482008,8.48201 -0.183014,0.18301 m -1.955751,1.95575 0.751554,-0.75155 m -2.545029,2.54503 -0.36169,0.36169 m 28.059231,-27.66011 0.167841,-0.16784 m -11.802346,11.80234 -0.06575,0.0657 m -3.384697,3.3847 0.155555,-0.15555 m -8.713791,8.71378 -1.224149,1.22415 m -3.10736,3.10737 0.146411,-0.14642 m 28.083538,-27.68441 -0.14025,0.14025 m -11.794185,11.79418 0.123462,-0.12346 m -2.819832,2.81983 -0.36685,0.36685 m -5.086054,5.08606 0.776864,-0.77687 m -4.469482,4.46948 -0.887344,0.88735 m 24.630411,-24.23129 0.110526,-0.11053 m -11.924676,11.92468 -0.06595,0.0659 m -2.568165,2.56817 0.309872,-0.30987 m -4.604309,4.60431 -1.365588,1.36558 m -4.077144,4.07715 0.585271,-0.58527 m 23.779277,-23.38016 -0.10776,0.10776 m -11.930381,11.93038 0.06824,-0.0682 m -1.664371,1.66437 -0.396296,0.3963 m -4.637198,4.63719 0.127516,-0.12751 m -1.524588,1.52459 -0.176001,0.176 m -3.808082,3.80808 0.417868,-0.41787 m 23.701031,-23.30191 -0.113949,0.11395 m -4.697327,4.69733 0.05889,-0.0589 m -7.264135,7.26414 -0.07053,0.0705 m -1.554425,1.55443 0.650064,-0.65007 m -5.101349,5.10135 -0.182976,0.18298 m -1.934973,1.93497 0.168316,-0.16832 m -3.51041,3.51042 -0.274455,0.27445 m -4.003519,4.00352 0.07392,-0.0739 m 27.774147,-27.37503 -0.168038,0.16804 m -4.435421,4.43542 0.07073,-0.0707 m -7.545597,7.54559 -1.06265,1.06265 m -4.709022,4.70903 0.855136,-0.85514 m -2.949103,2.9491 -0.125779,0.12578 m -3.61345,3.61345 0.261321,-0.26132 m -1.433359,1.43336 -2.822821,2.82282 m 27.554258,-27.15513 0.144518,-0.14452 m -4.303721,4.30372 -0.109672,0.10967 m -8.676937,8.67694 0.946859,-0.94686 m -3.800842,3.80084 -1.333871,1.33387 m -2.65402,2.65402 0.101257,-0.10126 m -3.450942,3.45095 -4.242641,4.24264 m 27.343951,-26.94483 0.128979,-0.12898 m -3.975336,3.97534 -0.184538,0.18453 m -12.45084,12.45084 4.108315,-4.10831 m -7.105603,7.1056 -0.112915,0.11292 m -4.522712,4.52271 1.185717,-1.18572 m -3.553304,3.55331 -0.732695,0.73269 m 27.012089,-26.61296 0.329226,-0.32923 m -3.685897,3.6859 -0.269461,0.26946 m -11.02852,11.02852 1.822141,-1.82214 m -6.267193,6.26719 -0.07999,0.08 m -4.029349,4.02935 0.655333,-0.65533 m -3.937209,3.93721 -0.398107,0.3981 m 26.588125,-26.189 0.429937,-0.42994 m -3.109172,3.10918 -0.444432,0.44443 m -11.029335,11.02933 0.941696,-0.94169 m -5.386486,5.38649 -0.0716,0.0716 m -3.894139,3.89414 0.483102,-0.4831 m -4.223435,4.22343 -0.161198,0.1612 m 23.52285,-23.12373 3.114485,-3.11448 m -13.911766,13.91176 -0.315155,0.31516 m -4.405347,4.40534 0.07585,-0.0758 m -3.520708,3.5207 -0.35963,0.35963 m 19.503723,-19.1046 2.487227,-2.48722 m -13.500072,13.50007 -0.21579,0.21579 m -4.229907,4.22991 0.06744,-0.0674 m -3.557648,3.55764 -0.267743,0.26775 m 19.397943,-18.99883 1.966686,-1.96668 m -13.229171,13.22917 -1.896886,1.89689 m -2.22479,2.22479 0.06791,-0.0679 m -3.618608,3.6186 -0.287487,0.28749 m -4.39274,4.39274 2.572592,-2.57259 m 21.38808,-20.98896 -0.16928,0.16928 m -12.613806,12.61381 1.251549,-1.25155 m -3.857195,3.85719 -0.08518,0.0852 m -3.907831,3.90783 0.296645,-0.29665 m -1.332963,1.33297 -3.461714,3.46171 m 23.873052,-23.47393 0.153147,-0.15315 m -11.619247,11.61925 -0.370942,0.37094 m -3.374315,3.37432 0.155507,-0.15551 m -3.827182,3.82718 -4.951958,4.95196 m 23.997543,-23.59842 0.137015,-0.13702 m -11.706959,11.70696 -0.122372,0.12238 m -3.429895,3.42989 0.212374,-0.21237 m -3.924602,3.9246 -1.392025,1.39202 m -3.733018,3.73302 0.38252,-0.38252 m 23.860398,-23.46127 -0.120882,0.12088 m -11.630434,11.63043 0.05366,-0.0537 m -3.148272,3.14827 -0.307621,0.30762 m -4.106124,4.10613 0.359589,-0.35959 m -4.978848,4.97885 -0.3275,0.3275 m 24.240318,-23.8412 0.112533,-0.11253 m -14.520606,14.5206 -0.527262,0.52727 m -3.982511,3.98251 0.201668,-0.20167 m 18.975132,-18.57601 -0.114593,0.11459 m -11.687379,11.68738 0.0851,-0.0851 m -2.397509,2.39751 -0.874245,0.87424 m -3.933207,3.93321 0.164489,-0.16449 m 18.889667,-18.49054 -0.102561,0.10256 m -14.927233,14.92723 3.353148,-3.35315 m -6.989567,6.98957 -0.132971,0.13297 m 18.840983,-18.44186 0.0923,-0.0923 m -11.621904,11.62191 -3.689576,3.68957 m -3.366827,3.36683 0.118336,-0.11833 m 18.694065,-18.29495 -0.09172,0.0917 m -15.29551,15.29551 3.820065,-3.82007 m -6.886567,6.88657 -0.103701,0.1037 m 18.591848,-18.19272 0.09968,-0.0997 m -11.512419,11.51242 -0.177069,0.17707 m -3.777504,3.7775 0.233107,-0.2331 m -3.113601,3.1136 -0.08907,0.0891 m 18.463011,-18.06388 0.110834,-0.11084 m -11.441949,11.44195 -0.07886,0.0789 m -6.798062,6.79807 0.07026,-0.0703 m -5.920063,5.92006 -0.05091,0.0509 m 24.224657,-23.82553 0.09319,-0.0932 m -11.314874,11.31487 -0.123614,0.12362 m -6.723668,6.72367 0.07888,-0.0789 m -5.960884,5.96089 -0.07693,0.0769 m 24.1523,-23.75318 0.0783,-0.0783 m -11.199059,11.19906 -0.179017,0.17902 m -6.638623,6.63862 0.0875,-0.0875 m -2.826581,2.82659 -0.06087,0.0609 m -3.21719,3.21719 0.102939,-0.10294 m 24.040413,-23.64129 -0.08065,0.0806 m -11.493702,11.4937 0.491107,-0.49111 m -6.691869,6.69187 -0.09613,0.0961 m -3.099399,3.0994 0.452254,-0.45226 m -3.258546,3.25855 -0.145044,0.14504 m 23.948489,-23.54936 0.083,-0.083 m -10.967428,10.96743 -0.934283,0.93428 m -5.824071,5.82407 0.104749,-0.10475 m -2.588862,2.58886 -1.143348,1.14335 m -2.406909,2.40691 0.238994,-0.23899 m 23.613566,-23.21445 -0.06473,0.0647 m -12.560874,12.56087 1.81041,-1.81041 m -6.623507,6.62351 -0.12452,0.12452 m -2.722363,2.72237 0.417737,-0.41774 m -1.240859,1.24086 -2.284286,2.28428 m 23.419361,-23.02024 0.05777,-0.0578 m -10.647481,10.64748 -0.217443,0.21744 m -6.527468,6.52747 0.157792,-0.15779 m -2.138978,2.13898 -0.725969,0.72597 m -2.904661,2.90466 1.052477,-1.05248 m 22.035875,-21.63675 -0.05082,0.0508 m -10.552746,10.55274 0.123798,-0.12379 m -4.050066,4.05006 -0.06204,0.062 m -2.629688,2.62968 0.191065,-0.19106 m -1.434615,1.43461 -1.553692,1.5537 m 9.654181,-9.25506 0.136713,-0.13672 m -4.003131,4.00313 -0.08708,0.0871 m -5.587484,5.58749 3.163352,-3.16335 m 6.766199,-6.36708 -0.226994,0.22699 m -3.792773,3.79278 0.07867,-0.0787 m -2.532983,2.53298 -3.440912,3.44091 m 9.780315,-9.38119 0.39401,-0.39401 m -3.847551,3.84755 -0.116571,0.11657 m -3.020243,3.02024 0.558714,-0.55871 m -3.29073,3.29073 -0.443386,0.44339 m 9.785998,-9.38688 0.654164,-0.65416 m -3.741059,3.74106 -0.155158,0.15515 m -2.76397,2.76397 0.261903,-0.2619 m -3.808564,3.80856 -0.219902,0.21991 m 9.742482,-9.34336 0.958031,-0.95803 m -3.667229,3.66723 -0.136362,0.13636 m -2.80317,2.80317 0.242477,-0.24248 m -4.218231,4.21823 -0.130987,0.13099 m 9.635646,-9.23653 1.39223,-1.39223 m -3.589999,3.59 -0.161575,0.16158 m -2.842996,2.843 0.223674,-0.22368 m -4.554288,4.55429 -0.102665,0.10266 m 7.653345,-7.25422 3.68888,-3.68888 m -6.373811,6.37381 -0.20857,0.20857 m 6.655875,-6.25675 0.258631,-0.25863 m -2.049593,2.04959 -1.655909,1.65591 m -2.924331,2.92433 0.246955,-0.24695 m 15.040341,-14.64122 -0.06442,0.0644 m -8.538738,8.53874 0.310132,-0.31013 m -2.65775,2.65775 -1.148041,1.14804 m -2.901129,2.90113 0.282667,-0.28267 m 14.741226,-14.3421 -0.144027,0.14403 m -8.227572,8.22757 0.419059,-0.41906 m -3.122763,3.12276 -0.846413,0.84641 m -2.862638,2.86264 0.366185,-0.36618 m 14.38647,-13.98735 -0.167989,0.16799 m -7.958049,7.95805 0.569629,-0.56963 m -3.756716,3.75671 -0.514308,0.51431 m -2.702614,2.70262 0.463103,-0.46311 m 14.049737,-13.65061 -0.234558,0.23456 m -7.734455,7.73445 0.782161,-0.78216 m -4.295753,4.29575 -0.270169,0.27017 m -2.952661,2.95266 0.998281,-0.99828 m 13.689948,-13.29082 -0.261549,0.26155 m -7.589246,7.58924 1.127236,-1.12723 m -4.707569,4.70757 -0.134703,0.1347 m -3.778741,3.77874 1.997206,-1.99721 m 13.268442,-12.86932 -0.383215,0.38322 m -6.210752,6.21075 0.395418,-0.39542 m -4.995979,4.99598 -0.07597,0.076 m -1.996416,1.99641 0.341058,-0.34106 m -2.301904,2.30191 -0.662642,0.66264 m -2.649469,2.64947 0.145606,-0.14561 m 18.319306,-17.92018 -0.302161,0.30216 m -5.715278,5.71528 0.33994,-0.33994 m -10.080823,10.08082 -2.375976,2.37598 m 17.618411,-17.21929 0.440924,-0.44093 m -5.144288,5.14429 -0.280038,0.28004 m -5.175492,5.17549 0.06335,-0.0634 m -5.286825,5.28683 -1.506084,1.50608 m 16.47201,-16.07289 0.657913,-0.65791 m -4.413636,4.41364 -0.503162,0.50316 m -6.665123,6.66512 0.08239,-0.0824 m -4.103166,4.10316 -0.714125,0.71413 m 15.271225,-14.8721 0.877233,-0.87724 m -3.545266,3.54527 -1.005254,1.00525 m -6.637402,6.63741 0.235271,-0.23528 m -4.372119,4.37212 -0.165863,0.16587 m 11.07775,-10.67863 4.279155,-4.27916 m -9.033405,9.03341 -0.07757,0.0776 m -1.786417,1.78642 0.45502,-0.45502 m -4.612242,4.61224 -0.07454,0.0746 m 12.435233,-12.03612 2.757395,-2.75739 m -4.007415,4.00741 -0.28215,0.28215 m -4.503756,4.50376 0.08692,-0.0869 m -1.395883,1.39588 -1.368661,1.36866 m -3.522009,3.52201 0.05919,-0.0592 m 15.043377,-14.64425 -2.521897,2.5219 m -1.912678,1.91268 0.35541,-0.35541 m -4.147635,4.14763 -0.284085,0.28409 m -3.322643,3.32264 2.007183,-2.00719 m 9.942908,-9.54378 -0.135067,0.13507 m -2.296961,2.29696 0.243316,-0.24332 m -1.941743,1.94174 -0.605524,0.60553 m -3.418264,3.41826 0.184686,-0.18468 m -1.518589,1.51859 -2.669279,2.66928 m 12.275743,-11.87663 0.05215,-0.0521 m -4.222987,4.22299 -3.526656,3.52665 m -2.107276,2.10728 0.742015,-0.74202 m 4.969848,-4.57072 -2.788454,2.78845 m -2.152087,2.15209 0.359724,-0.35973 m -3.881458,3.88146 -0.131931,0.13193 m 6.650407,-6.25128 2.032268,-2.03227 m -4.070285,4.07029 -0.326902,0.3269 m -5.60364,5.60364 1.436573,-1.43657 m 5.314096,-4.91498 -0.617937,0.61794 m -5.795939,5.79594 1.097503,-1.09751 m 8.749546,-8.35042 -3.413407,3.41341 m -6.082679,6.08268 0.820581,-0.82058 m 13.222809,-12.82369 -0.06822,0.0682 m -7.323988,7.32399 2.936411,-2.93641 m -8.666804,8.6668 -0.608849,0.60885 m 13.591912,-13.19279 0.22662,-0.22662 m -4.426142,4.42614 -2.484644,2.48465 m -3.632114,3.63211 0.06729,-0.0673 m -2.561975,2.56198 -0.372924,0.37292 m 13.245856,-12.84673 0.204344,-0.20435 m -4.343585,4.34359 -0.09593,0.0959 m -1.942454,1.94246 0.587824,-0.58783 m -4.500333,4.50033 -0.130486,0.13049 m -2.662793,2.66279 0.222109,-0.22211 m 12.819481,-12.42036 -0.214055,0.21406 m -5.851764,5.85176 0.316829,-0.31682 m -3.980782,3.98078 -0.477823,0.47782 m -2.471552,2.47155 0.1181,-0.1181 m 12.488138,-12.08901 -0.429724,0.42972 m -3.193619,3.19362 0.655186,-0.65519 m -2.603896,2.6039 -0.242317,0.24232 m -4.137304,4.1373 1.129604,-1.1296 m -3.340148,3.34014 -0.08158,0.0816 m 8.934765,-8.53564 3.008767,-3.00877 m -5.184065,5.18407 -0.151503,0.1515 m -4.161635,4.16164 1.41969,-1.41969 m -3.221796,3.22179 -0.28178,0.28178 m 9.273763,-8.87464 2.319299,-2.3193 m -5.064878,5.06488 -0.104123,0.10412 m -6.048935,6.04894 3.496256,-3.49626 m 2.780858,-2.38173 -0.05883,0.0588 m -2.436632,2.43663 0.05901,-0.059 m -1.948001,1.948 -0.80156,0.80156 m 3.31562,-2.51737 0.05943,-0.0594 m 0.320923,0.0782 -0.08254,0.0825 m 0.305618,0.0935 0.124362,-0.12437 m 1.694929,-1.2958 -0.07337,0.0734 m -1.440304,1.4403 0.16598,-0.16598 m 1.328159,-0.92904 -0.982929,0.98293 m 0.761252,-0.36213 0.104763,-0.10476"
         inkscape:connector-curvature="0" />
    </g>
  </g>
</svg>
