<?xml version="1.0" encoding="UTF-8" standalone="no"?>
<!-- Created with Inkscape (http://www.inkscape.org/) -->

<svg
   xmlns:dc="http://purl.org/dc/elements/1.1/"
   xmlns:cc="http://creativecommons.org/ns#"
   xmlns:rdf="http://www.w3.org/1999/02/22-rdf-syntax-ns#"
   xmlns:svg="http://www.w3.org/2000/svg"
   xmlns="http://www.w3.org/2000/svg"
   xmlns:sodipodi="http://sodipodi.sourceforge.net/DTD/sodipodi-0.dtd"
   xmlns:inkscape="http://www.inkscape.org/namespaces/inkscape"
   width="75mm"
   height="75mm"
   viewBox="0 0 75 75"
   version="1.1"
   id="svg1586"
   inkscape:version="0.92.2 2405546, 2018-03-11"
   sodipodi:docname="75.svg">
  <sodipodi:namedview
     id="base"
     pagecolor="#ffffff"
     bordercolor="#666666"
     borderopacity="1.0"
     inkscape:pageopacity="0.0"
     inkscape:pageshadow="2"
     inkscape:zoom="2.335651"
     inkscape:cx="121.03123"
     inkscape:cy="68.979071"
     inkscape:document-units="mm"
     inkscape:current-layer="layer1"
     showgrid="false"
     inkscape:window-width="1366"
     inkscape:window-height="703"
     inkscape:window-x="0"
     inkscape:window-y="0"
     inkscape:window-maximized="1" />
  <defs
     id="defs1580" />
  <metadata
     id="metadata1583">
    <rdf:RDF>
      <cc:Work
         rdf:about="">
        <dc:format>image/svg+xml</dc:format>
        <dc:type
           rdf:resource="http://purl.org/dc/dcmitype/StillImage" />
        <dc:title></dc:title>
      </cc:Work>
    </rdf:RDF>
  </metadata>
  <g
     transform="translate(0,-222)"
     id="layer1"
     inkscape:groupmode="layer"
     inkscape:label="Layer 1">
    <g
       id="g1780">
      <path
         id="path1755"
         d="m 32.908749,231.54544 c 0,-0.2952 -0.106504,-0.53672 -0.236679,-0.53672 -0.130174,0 -0.385946,0.24152 -0.568384,0.53672 -0.182437,0.29521 -0.07593,0.53673 0.23668,0.53673 0.312611,0 0.568383,-0.24152 0.568383,-0.53673 z"
         style="fill:none;stroke:#0000ff;stroke-width:0.1;stroke-miterlimit:4;stroke-dasharray:none" />
      <path
         id="path1753"
         d="m 39.88597,233.45567 c 0,-0.5665 -1.030006,-0.8045 -1.336362,-0.30879 -0.185413,0.30001 0.03941,0.54549 0.499623,0.54549 0.460206,0 0.836739,-0.10651 0.836739,-0.2367 z"
         style="fill:none;stroke:#0000ff;stroke-width:0.1;stroke-miterlimit:4;stroke-dasharray:none" />
      <path
         id="path1751"
         d="m 32.202643,236.02769 c -0.191566,-0.19156 -0.895998,-0.61984 -1.565403,-0.95171 -1.388637,-0.68844 -1.855793,-2.90909 -0.96295,-4.57745 0.765844,-1.43104 0.135915,-1.40147 -1.427154,0.067 -1.339284,1.25824 -1.708539,4.11004 -0.571301,4.41224 0.368987,0.0981 1.395444,0.42706 2.281014,0.73114 1.966033,0.67509 2.70732,0.78031 2.245794,0.31877 z"
         style="fill:none;stroke:#0000ff;stroke-width:0.1;stroke-miterlimit:4;stroke-dasharray:none" />
      <path
         id="path1749"
         d="m 38.812551,236.86224 c 0,-0.22822 -0.664178,-0.49136 -1.47595,-0.58477 -1.360652,-0.15656 -1.472332,-0.34802 -1.429628,-2.45093 0.05144,-2.53313 -0.24646,-2.76571 -1.611016,-1.25785 -1.33994,1.48068 -0.946637,4.40723 0.702145,5.22464 1.293258,0.64114 3.814449,0.0257 3.814449,-0.93109 z"
         style="fill:none;stroke:#0000ff;stroke-width:0.1;stroke-miterlimit:4;stroke-dasharray:none" />
      <path
         id="path1747"
         d="m 42.444115,251.55618 c 1.443582,-2.59276 4.247951,-4.14961 6.559986,-3.64179 0.854639,0.18772 2.489777,1.01928 3.633641,1.84793 1.92123,1.39178 2.18929,1.44923 3.51674,0.75367 0.79034,-0.41412 1.94651,-1.75173 2.56927,-2.97247 1.42396,-2.79131 1.09398,-5.35939 -0.97205,-7.56484 l -1.4961,-1.59706 1.51825,0.27268 c 3.67398,0.65984 1.88684,-4.16255 -2.26466,-6.11091 -2.85344,-1.33917 -3.443351,-2.0714 -1.66878,-2.0714 0.59038,0 1.07342,-0.34477 1.07342,-0.76614 0,-1.35034 -2.68931,-2.99097 -4.902766,-2.99097 -1.140952,0 -2.074458,-0.24153 -2.074458,-0.53673 0,-0.2952 0.603798,-0.53673 1.341774,-0.53673 0.737975,0 1.341773,-0.23532 1.341773,-0.52294 0,-0.81096 -2.985548,-2.16071 -4.779317,-2.16071 -2.65113,0 -8.623467,2.45859 -10.580682,4.35566 -1.973739,1.9131 -2.015996,2.00992 -1.341698,3.07384 0.374789,0.59136 0.654574,0.59671 1.562142,0.0299 1.400641,-0.87475 3.419029,-0.057 4.705514,1.90654 1.094771,1.6709 0.693043,4.54624 -0.827436,5.92232 -0.978568,0.88562 -0.990454,1.04558 -0.19238,2.58893 1.013953,1.96085 0.759433,6.54055 -0.53578,9.64055 -1.136604,2.72038 -1.133245,2.75759 0.284536,3.15361 1.850973,0.51701 2.201763,0.31095 3.529061,-2.07296 z"
         style="fill:none;stroke:#0000ff;stroke-width:0.1;stroke-miterlimit:4;stroke-dasharray:none" />
      <path
         id="path1745"
         d="m 33.337935,254.40744 c 3.369959,-1.75345 5.474616,-5.56086 5.474616,-9.90379 0,-3.39256 -0.765263,-4.22028 -6.172156,-6.67582 -3.683889,-1.67304 -4.577334,-1.88501 -6.291015,-1.49252 -3.535905,0.80986 -7.93178,3.89902 -7.93178,5.57398 0,0.13011 0.704769,0.37752 1.566153,0.5498 3.356538,0.67134 7.557905,5.93044 7.557905,9.46069 0,1.93936 0.326619,2.01607 1.978068,0.46455 0.782118,-0.73479 1.239143,-1.77843 1.233968,-2.81782 -0.01007,-2.02349 -0.472373,-2.79368 -1.870263,-3.11585 -0.979901,-0.22584 -0.991487,-0.28305 -0.132977,-0.65671 1.313879,-0.57185 3.621586,0.10264 3.621586,1.0585 0,0.43719 -0.193021,0.79488 -0.428937,0.79488 -0.235916,0 -0.334219,0.81136 -0.218452,1.80303 0.167565,1.43537 -0.139364,2.20151 -1.505143,3.75711 l -1.71563,1.95407 h 1.69238 c 0.930808,0 2.344563,-0.33934 3.141677,-0.7541 z"
         style="fill:none;stroke:#0000ff;stroke-width:0.1;stroke-miterlimit:4;stroke-dasharray:none" />
      <path
         id="path1743"
         d="m 25.721114,255.83245 c 0.941678,-1.24055 0.934097,-4.3902 -0.01599,-6.64357 -1.603994,-3.80429 -7.023211,-7.42315 -8.64033,-5.76987 -0.397869,0.40677 -0.886233,1.40378 -1.085254,2.21558 -0.284929,1.16223 -0.172673,1.47601 0.528045,1.47601 2.616342,0 6.919127,4.60519 7.64763,8.18512 0.351155,1.72562 0.598966,1.81055 1.565899,0.53673 z"
         style="fill:none;stroke:#0000ff;stroke-width:0.1;stroke-miterlimit:4;stroke-dasharray:none" />
      <path
         id="path1741"
         d="m 22.180374,263.61503 c 0.0032,-0.66421 0.353453,-2.35335 0.778352,-3.75365 0.866379,-2.85526 0.516456,-4.53287 -1.677182,-8.04082 -2.609683,-4.17327 -5.552604,-4.75222 -6.178315,-1.21544 -0.456047,2.57777 -0.108075,4.9603 1.269735,8.6938 1.528505,4.14183 5.793002,7.31123 5.80741,4.31611 z"
         style="fill:none;stroke:#0000ff;stroke-width:0.1;stroke-miterlimit:4;stroke-dasharray:none" />
      <path
         id="path1739"
         d="m 31.846078,264.54871 c 0.86216,-0.44585 1.82474,-1.2912 2.139067,-1.87855 0.729506,-1.36314 1.405313,-1.36101 1.762666,0.006 0.341615,1.30638 1.493897,1.35987 3.971067,0.18434 l 1.873612,-0.88914 -0.182372,-3.27054 -0.182372,-3.27055 -2.540974,-0.65774 c -2.297984,-0.59486 -2.721811,-0.55107 -4.431994,0.458 -1.317705,0.7775 -2.770138,1.10528 -4.790695,1.08113 -2.497387,-0.0298 -3.018036,0.14601 -3.752821,1.26748 -1.544353,2.35708 -0.735394,3.77659 1.777684,3.11937 0.999128,-0.26127 1.08897,-0.11765 0.807314,1.29068 -0.218634,1.0932 -0.04,1.86163 0.575993,2.47763 1.08569,1.08574 1.036132,1.08436 2.973825,0.0823 z"
         style="fill:none;stroke:#0000ff;stroke-width:0.1;stroke-miterlimit:4;stroke-dasharray:none" />
      <path
         id="path1737"
         d="m 37.44313,274.82476 c 2.261437,-2.09591 1.37748,-3.85674 -1.115935,-2.22293 -0.750606,0.49183 -1.497255,0.76172 -1.659219,0.59975 -0.161966,-0.16197 0.461261,-0.7247 1.384946,-1.25053 1.097733,-0.6249 1.680604,-1.37432 1.682821,-2.16367 0.0044,-1.56319 -0.583474,-1.5264 -2.143443,0.13418 -0.844358,0.89882 -1.837894,1.34182 -3.009289,1.34182 -2.361093,0 -2.960008,1.70506 -1.241489,3.53441 1.614024,1.71811 4.264264,1.72982 6.101608,0.027 z"
         style="fill:none;stroke:#0000ff;stroke-width:0.1;stroke-miterlimit:4;stroke-dasharray:none" />
      <path
         id="path1735"
         d="m 53.523302,276.05751 c 2.94208,-1.44839 4.66643,-4.29622 5.31114,-8.77158 0.5305,-3.6825 0.47378,-4.4168 -0.59826,-7.74551 -1.45844,-4.52848 -4.28375,-8.26294 -7.388443,-9.76595 -2.689622,-1.30208 -4.051837,-1.08721 -6.268955,0.98881 -1.938251,1.81488 -2.543739,4.19595 -2.184715,8.59131 0.286022,3.50161 0.245896,3.64862 -1.638948,6.00477 -3.442651,4.30349 -2.299162,7.63252 3.692882,10.75107 2.441726,1.27079 6.433777,1.24751 9.075299,-0.0529 z"
         style="fill:none;stroke:#0000ff;stroke-width:0.1;stroke-miterlimit:4;stroke-dasharray:none" />
      <path
         id="path1733"
         d="m 42.252445,280.79033 c 1.384176,-2.14007 1.590035,-3.96823 0.494194,-4.38876 -0.699632,-0.26848 -1.318334,0.0531 -2.184099,1.1349 -1.360043,1.69956 -1.668254,1.05612 -0.377118,-0.78731 0.80826,-1.15399 0.66561,-2.2654 -0.290768,-2.2654 -0.68658,0 -4.826536,4.45637 -4.833279,5.20268 -0.0099,1.10091 2.291829,2.31153 4.394938,2.31153 1.500433,0 2.21452,-0.30841 2.796132,-1.20764 z"
         style="fill:none;stroke:#0000ff;stroke-width:0.1;stroke-miterlimit:4;stroke-dasharray:none" />
      <path
         id="path1731"
         d="m 56.037642,282.24028 c 2.72261,-1.40797 4.33484,-4.95798 3.3808,-7.44426 -0.74762,-1.94834 -3.42123,0.0578 -3.45021,2.58876 -0.0186,1.62211 -0.0349,1.63262 -0.69334,0.44686 -0.5792,-1.04302 -0.80788,-1.11666 -1.62102,-0.52206 -0.84951,0.62119 -0.87709,0.95246 -0.26876,3.22706 0.37287,1.39413 0.76059,2.53479 0.86163,2.53479 0.10103,0 0.90693,-0.37402 1.7909,-0.83115 z"
         style="fill:none;stroke:#0000ff;stroke-width:0.1;stroke-miterlimit:4;stroke-dasharray:none" />
      <path
         id="path1729"
         d="m 20.500567,283.04303 c 0.666275,-0.90121 1.79853,-1.90609 2.516124,-2.23306 1.592027,-0.7254 1.697416,-1.49564 0.204643,-1.49564 -2.655764,0 -5.810551,2.83125 -5.130258,4.60414 0.444168,1.15752 1.076318,0.92785 2.409491,-0.87544 z"
         style="fill:none;stroke:#0000ff;stroke-width:0.1;stroke-miterlimit:4;stroke-dasharray:none" />
      <path
         id="path1727"
         d="m 47.920503,284.53171 c 1.650704,-0.8353 3.773075,-3.91342 3.773075,-5.47217 0,-1.00076 -0.238387,-1.1345 -1.652244,-0.92698 -1.037159,0.15223 -1.823704,0.6671 -2.112817,1.38305 l -0.460573,1.14054 -0.03402,-1.14504 c -0.04882,-1.64333 -1.979166,-2.00804 -2.989946,-0.56489 -0.440568,0.62903 -0.801039,1.58888 -0.801039,2.13301 0,0.54412 -0.266454,1.48721 -0.592119,2.09575 -0.454636,0.84951 -0.423481,1.2133 0.134176,1.56668 1.045416,0.66248 3.20022,0.56694 4.73551,-0.20995 z"
         style="fill:none;stroke:#0000ff;stroke-width:0.1;stroke-miterlimit:4;stroke-dasharray:none" />
      <path
         id="path1725"
         d="m 48.481496,286.15763 c 1.425313,-0.72248 2.812471,-1.96235 3.452813,-3.0862 l 1.070353,-1.87855 -2.136354,2.23252 c -1.448811,1.51402 -2.785406,2.35428 -4.153099,2.61087 -2.519267,0.47264 -5.219107,-0.53946 -5.219107,-1.9565 0,-0.76493 -0.392837,-1.00834 -1.627367,-1.00834 -3.714361,0 -6.913816,-2.73415 -5.630109,-4.81131 0.206849,-0.3347 -0.435259,-0.90973 -1.523707,-1.36453 -2.019716,-0.84393 -3.56313,-2.62124 -3.56313,-4.10311 0,-1.31749 1.60264,-2.72972 2.755601,-2.4282 0.580186,0.15174 1.791601,-0.38295 2.945691,-1.30014 1.078131,-0.85682 2.228926,-1.56086 2.557324,-1.56451 0.328398,-0.004 1.152505,-0.86392 1.831351,-1.9117 1.14423,-1.7661 1.156591,-1.8635 0.169461,-1.33519 -1.351981,0.72359 -3.652438,0.73676 -4.093277,0.0234 -0.210061,-0.3399 -0.881347,-0.16365 -1.77598,0.4663 -2.561732,1.80385 -3.699612,1.89298 -5.186299,0.40623 -0.74289,-0.74292 -1.350709,-1.71944 -1.350709,-2.17003 0,-0.45059 -0.603798,-0.97081 -1.341773,-1.15605 -0.737975,-0.18522 -1.349118,-0.61249 -1.358094,-0.94949 -0.009,-0.337 -0.27447,-0.16866 -0.589986,0.37409 -0.315515,0.54275 -0.696349,3.32033 -0.846297,6.17239 -0.234971,4.46922 -0.107408,5.63044 0.923408,8.40594 1.708141,4.59922 5.554282,8.1821 10.509637,9.79028 6.227351,2.02097 10.908595,2.19982 14.179649,0.54177 z"
         style="fill:none;stroke:#0000ff;stroke-width:0.1;stroke-miterlimit:4;stroke-dasharray:none" />
      <path
         id="path1723"
         d="m 25.372781,283.34679 c 1.426617,-0.45281 1.157318,-1.5563 -0.436979,-1.79059 -1.653076,-0.24292 -4.90807,3.083 -4.90807,5.01501 v 1.46022 l 2.095252,-2.15909 c 1.152389,-1.1875 2.614799,-2.324 3.2498,-2.52555 z"
         style="fill:none;stroke:#0000ff;stroke-width:0.1;stroke-miterlimit:4;stroke-dasharray:none" />
      <path
         id="path1721"
         d="m 25.355861,292.39181 c 0.611805,-0.77781 1.112372,-1.93715 1.112372,-2.5763 0,-0.95955 0.312258,-1.16209 1.791543,-1.16209 1.008904,0 2.419264,-0.49379 3.228466,-1.13033 l 1.436925,-1.13033 -2.55758,-1.44539 -2.55758,-1.44538 -2.406582,1.26072 c -1.549773,0.81188 -2.836444,2.0251 -3.613959,3.40765 -1.488917,2.64754 -1.507485,3.20628 -0.151615,4.5622 1.438896,1.43895 2.386459,1.35211 3.71801,-0.34075 z"
         style="fill:none;stroke:#0000ff;stroke-width:0.1;stroke-miterlimit:4;stroke-dasharray:none" />
      <path
         id="path1719"
         d="m 32.942276,294.86153 c 0.570009,-0.30508 1.548348,-1.57309 2.174086,-2.81783 0.625737,-1.24473 1.484044,-2.65795 1.90735,-3.14047 0.686697,-0.78277 0.587486,-0.94082 -0.920555,-1.46655 -1.99875,-0.69679 -3.017678,-0.26919 -5.015004,2.10458 -1.332534,1.58369 -1.911161,4.64779 -1.041857,5.51713 0.5197,0.51971 1.708024,0.43893 2.89598,-0.19686 z"
         style="fill:none;stroke:#0000ff;stroke-width:0.1;stroke-miterlimit:4;stroke-dasharray:none" />
      <path
         id="path1717"
         d="m 44.249695,294.93073 c 1.24532,-1.00844 1.248587,-1.03752 0.241652,-2.15021 -1.051301,-1.16172 -0.766686,-2.32779 0.306271,-1.25479 0.442314,0.44233 0.910376,0.39679 1.780233,-0.17318 0.934315,-0.61221 1.53648,-0.64906 2.890787,-0.17693 2.886551,1.0063 4.251354,-0.90424 2.33585,-3.26988 l -0.962501,-1.18867 -3.782166,1.12641 c -2.080191,0.61953 -4.151982,1.55036 -4.60398,2.0685 -1.469223,1.68423 -2.131173,3.43051 -1.800225,4.74917 0.395452,1.57566 1.846768,1.68451 3.594079,0.26958 z"
         style="fill:none;stroke:#0000ff;stroke-width:0.1;stroke-miterlimit:4;stroke-dasharray:none" />
      <path
         id="path1715"
         d="m 39.831365,292.74328 c 0.370988,-1.44758 1.015423,-2.91488 1.432073,-3.26069 0.951587,-0.78977 0.502269,-1.58055 -0.898061,-1.58055 -1.31197,0 -3.427276,2.20348 -4.175302,4.34935 -0.464443,1.33235 -0.384442,1.76801 0.484168,2.63665 1.484192,1.48425 2.383672,0.8732 3.157122,-2.14476 z"
         style="fill:none;stroke:#0000ff;stroke-width:0.1;stroke-miterlimit:4;stroke-dasharray:none" />
      <path
         id="path1340"
         d="m 39.273824,296.63431 c -1.57231,-0.12539 -2.831934,-0.57577 -3.41631,-1.22153 -0.809999,-0.89508 -1.023251,-0.92533 -1.7064,-0.24216 -1.347854,1.3479 -3.32229,1.54601 -4.528489,0.45437 -0.850077,-0.76933 -1.055129,-1.50628 -0.913748,-3.28398 0.204461,-2.57085 -0.844973,-3.20955 -1.677131,-1.02072 -0.523028,1.37572 -2.995923,3.55922 -4.030942,3.55922 -1.117001,0 -3.23977,-2.71575 -3.28519,-4.20289 -0.06882,-2.2533 -0.828283,-4.45176 -1.912403,-5.53592 -0.547656,-0.54768 -0.995739,-1.50269 -0.995739,-2.12225 0,-1.44783 2.954715,-4.21455 4.920883,-4.60779 1.768565,-0.35373 1.740219,-0.20937 0.708755,-3.60961 -0.43959,-1.44913 -0.799254,-3.82751 -0.799254,-5.28531 0,-2.49593 -0.154272,-2.78924 -2.644725,-5.02846 -3.627326,-3.26141 -5.097461,-7.54146 -4.765154,-13.87297 0.386551,-7.36504 3.948456,-12.72302 9.885255,-14.86988 1.63753,-0.59216 1.818297,-0.86278 1.818297,-2.72224 0,-2.71396 2.007848,-4.69313 4.774579,-4.7064 1.367693,-0.007 2.314395,-0.40987 3.231933,-1.37685 2.743197,-2.89104 9.533948,-5.36312 13.215707,-4.81099 1.657715,0.24861 2.755747,0.86745 4.131631,2.32858 1.030642,1.09449 2.510193,2.55877 3.287883,3.25396 0.77769,0.69519 1.41398,1.79703 1.41398,2.44853 0,0.70162 0.67654,1.68476 1.65947,2.4115 2.1973,1.62459 3.34401,4.35379 2.62449,6.24634 -0.37036,0.97415 -0.35324,2.04004 0.0546,3.40143 0.84763,2.82924 -0.18094,6.2662 -2.54156,8.49264 l -1.85338,1.74802 1.32773,2.29057 c 2.89557,4.99539 3.66353,11.7091 1.87874,16.4245 -0.35831,0.94664 -0.21107,1.58674 0.60311,2.62184 0.59244,0.75319 1.07716,2.12614 1.07716,3.05101 0,3.25538 -4.45555,7.83008 -6.87745,7.06136 -0.55499,-0.17615 -1.16905,0.10681 -1.547743,0.71321 -0.503933,0.80695 -0.415507,1.43422 0.448323,3.18024 0.8342,1.68612 0.94697,2.41627 0.50172,3.24826 -0.74405,1.39033 -2.39434,1.89597 -3.775473,1.15678 -1.440047,-0.77072 -3.008873,0.0665 -3.454924,1.84378 -0.307546,1.22542 -2.877576,3.11382 -3.91845,2.87918 -0.236053,-0.0532 -1.549966,-0.18612 -2.919811,-0.29537 z"
         style="fill:none;stroke:#ff0000;stroke-width:0.1;stroke-miterlimit:4;stroke-dasharray:none" />
      <path
         id="path1699"
         style="fill:none;stroke:#0000ff;stroke-width:0.1"
         d="m 27.946582,229.42983 -0.914756,0.91476 m -0.46962,0.86874 2.249998,-2.25 m 0.713249,-0.31413 -3.227751,3.22775 m -8.282768,8.28277 1.95832,-1.95832 m 9.924655,-9.52553 -3.614531,3.61453 m -8.847972,8.84797 3.509356,-3.50935 m 9.394054,-8.99494 -0.489559,0.48956 m -3.704869,3.70487 0.973305,-0.9733 m -5.197812,5.19781 -5.072536,5.07254 m 13.266857,-12.86774 0.665067,-0.66507 m -3.937142,3.93715 -0.634867,0.63486 m -9.94257,9.94257 6.627474,-6.62747 m 8.323857,-7.92474 -0.975154,0.97516 m -4.053636,4.05363 0.584562,-0.58456 m -3.316183,3.31619 -2.238018,2.23801 m -5.122382,5.12239 2.283668,-2.28367 m 13.256292,-12.85717 -1.452572,1.45257 m -4.012639,4.01264 0.566761,-0.56676 m -2.613015,2.61301 -1.695676,1.69568 m -6.580083,6.58008 2.266082,-2.26608 m 14.216747,-13.81762 -2.715259,2.71525 m -6.086679,6.08668 3.189202,-3.1892 m -8.376038,8.37604 -0.736738,0.73674 m -2.004581,2.00458 0.950529,-0.95053 m 17.23157,-16.83245 -4.128672,4.12867 m -5.446125,5.44613 2.577021,-2.57702 m -8.177105,8.1771 -0.3729,0.3729 m -2.872693,2.8727 0.519875,-0.51988 m 19.282386,-18.88326 -5.629796,5.62979 m -4.641901,4.6419 1.953681,-1.95368 m -7.945301,7.9453 -0.299007,0.29901 m -3.363014,3.36302 0.406963,-0.40697 m 20.895849,-20.49672 -7.086488,7.08648 m -3.993623,3.99363 1.542155,-1.54216 m -7.78678,7.78678 -0.264987,0.26499 m -3.836166,3.83617 0.473686,-0.47369 m 21.709079,-21.30996 -7.776534,7.77654 m -3.492359,3.49236 1.141895,-1.1419 m -7.63856,7.63856 -0.28786,0.28786 m -4.252424,4.25242 0.629104,-0.6291 m 22.616603,-22.21748 -8.686792,8.68679 m -3.047731,3.04773 0.912561,-0.91256 m -7.566635,7.56664 -0.309348,0.30934 m -4.756228,4.75623 0.816955,-0.81695 m 23.269806,-22.87069 -1.409518,1.40952 m -7.816369,7.81637 3.672445,-3.67244 m -5.631375,5.63137 -0.679967,0.67997 m -7.17041,7.17041 0.326034,-0.32604 m -4.353248,4.35325 -1.030835,1.03084 m 23.59598,-23.19686 1.176339,-1.17634 m -6.168584,6.16859 -3.64764,3.64764 m -2.262929,2.26292 0.517504,-0.5175 m -7.509037,7.50904 -0.348246,0.34824 m -5.402535,5.40254 1.312683,-1.31269 m 24.196371,-23.79724 -1.315254,1.31525 m -6.009081,6.00908 0.607074,-0.60707 m -1.707345,1.70734 -1.940212,1.94022 m -2.029483,2.02948 0.447309,-0.44731 m -7.531177,7.53118 -0.363988,0.36398 m -5.716045,5.71605 1.701281,-1.70128 m 24.441238,-24.04212 -0.972026,0.97203 m -6.744479,6.74448 0.553839,-0.55384 m -1.725239,1.72524 -1.921319,1.92132 m -1.811219,1.81121 0.391377,-0.39137 m -7.553315,7.55331 -0.389794,0.3898 m -6.019492,6.01949 2.112177,-2.11218 m 24.663807,-24.26468 -0.979503,0.9795 m -7.249952,7.24995 0.655764,-0.65576 m -1.64433,1.64433 -1.990373,1.99037 m -1.63819,1.63819 0.335444,-0.33544 m -7.596851,7.59685 -0.394201,0.3942 m -6.32294,6.32294 2.503447,-2.50345 m 24.925897,-24.52677 -0.840062,0.84006 m -10.778039,10.77804 3.61427,-3.61427 m -4.809277,4.80928 -0.279512,0.27951 m -7.759484,7.75948 0.386359,-0.38636 m -4.140189,4.14019 -0.568507,0.56851 m -2.326443,2.32644 0.491548,-0.49155 m 27.520834,-27.12171 -0.709122,0.70912 m -11.183427,11.18343 3.678515,-3.67851 m -4.808329,4.80833 -0.298517,0.29851 m -7.788423,7.78843 0.378516,-0.37852 m -4.120167,4.12017 -0.339772,0.33977 m -2.825534,2.82553 0.325972,-0.32597 m 28.201786,-27.80266 -0.648834,0.64883 m -11.511083,11.51108 3.88301,-3.88301 m -4.956538,4.95654 -0.299196,0.2992 m -7.847344,7.84734 0.384158,-0.38416 m -4.100148,4.10015 -0.293119,0.29312 m -3.145688,3.14569 0.284471,-0.28447 m 28.76181,-28.36269 -0.582422,0.58242 m -11.831397,11.8314 4.2568,-4.2568 m -5.278054,5.27805 -0.309332,0.30934 m -7.921091,7.92109 0.404626,-0.40463 m -4.080126,4.08013 -0.258994,0.25899 m -3.453315,3.45332 0.248257,-0.24826 m 29.305084,-28.90596 -0.561549,0.56155 m -12.094709,12.09471 4.72755,-4.72755 m -5.696529,5.69652 -0.319468,0.31947 m -7.994838,7.99484 0.409844,-0.40984 m -4.044856,4.04485 -0.237941,0.23794 m -3.747868,3.74787 0.212043,-0.21204 m 29.794851,-29.39573 -0.466632,0.46663 m -8.448059,8.44806 1.02681,-1.02681 m -2.986216,2.98622 -1.971094,1.97109 m -1.246308,1.24631 0.329604,-0.3296 m -7.999832,7.99983 -0.398357,0.39835 m -3.811411,3.81141 0.191943,-0.19194 m -4.058537,4.05854 -0.175829,0.17583 m 30.061426,-29.66231 0.399022,-0.39902 m -7.96417,7.96417 -1.121734,1.12174 m -3.96213,3.96213 1.427959,-1.42796 m -2.278479,2.27848 -0.357803,0.3578 m -8.124268,8.12427 0.38687,-0.38687 m -4.002536,4.00253 -0.199247,0.19925 m -4.272274,4.27227 0.186172,-0.18617 m 30.800206,-30.40108 -0.558846,0.55884 m -8.87575,8.87575 1.296579,-1.29657 m -4.090049,4.09004 -1.103934,1.10394 m -1.164399,1.1644 0.389152,-0.38915 m -8.190572,8.19057 -0.375384,0.37538 m -3.810693,3.81069 0.198829,-0.19882 m -4.50163,4.50163 -0.175791,0.17579 m 30.945315,-30.5462 0.365138,-0.36513 m -8.178473,8.17847 -1.530073,1.53007 m -3.73682,3.73682 0.86363,-0.86363 m -1.563605,1.56361 -0.4205,0.4205 m -8.243818,8.24381 0.378377,-0.37837 m -3.971959,3.97196 -0.198412,0.19841 m -4.684908,4.68491 0.177211,-0.17721 m 31.490726,-31.09161 -0.304862,0.30487 m -9.729063,9.72906 1.758312,-1.75831 m -4.671764,4.67176 -0.718701,0.7187 m -1.002616,1.00262 0.45507,-0.45507 m -8.384531,8.38453 -0.391774,0.39177 m -3.762892,3.76289 0.197994,-0.19799 m -4.910588,4.91059 -0.178632,0.17863 m 31.700777,-31.30166 0.324646,-0.32464 m -8.39325,8.39325 -2.012008,2.01201 m -4.366289,4.36629 1.526872,-1.52688 m -9.538139,9.53814 -0.387385,0.38739 m -3.761408,3.76141 0.207419,-0.20742 m -5.097291,5.09729 -0.180052,0.18005 m 32.045518,-31.6464 0.362037,-0.36203 m -8.546845,8.54684 -2.254395,2.2544 m -4.097808,4.09781 1.290442,-1.29045 m -9.391117,9.39112 -0.375394,0.37539 m -3.769125,3.76913 0.218021,-0.21802 m -5.275971,5.27597 -0.224536,0.22454 m 32.39368,-31.99456 0.3579,-0.3579 m -8.642451,8.64245 -2.538494,2.53849 m -3.764432,3.76444 1.086987,-1.08699 m -9.27707,9.27707 -0.363403,0.3634 m -3.776841,3.77684 0.228622,-0.22862 m -5.406395,5.4064 -0.216711,0.21671 m 32.642305,-32.24319 0.352734,-0.35273 m -8.738057,8.73806 -2.694738,2.69474 m -3.55891,3.5589 0.940965,-0.94096 m -9.220456,9.22046 -0.351413,0.35141 m -3.784556,3.78455 0.239223,-0.23922 m -5.539299,5.5393 -0.232455,0.23246 m 32.897692,-32.49857 0.366856,-0.36686 m -8.858964,8.85896 -2.894249,2.89425 m -3.288607,3.28861 0.791587,-0.79159 m -9.1567,9.1567 -0.350646,0.35065 m -3.781049,3.78105 0.249825,-0.24983 m -5.672203,5.67221 -0.248199,0.24819 m 33.137002,-32.73787 0.388799,-0.3888 m -8.976144,8.97614 -3.089231,3.08923 m -3.021372,3.02137 0.669975,-0.66997 m -9.117642,9.11764 -0.365273,0.36527 m -3.77534,3.77534 0.270324,-0.27032 m -5.801812,5.80181 -0.263943,0.26394 m 33.376312,-32.97719 0.371785,-0.37178 m -9.05851,9.05851 -3.260623,3.26062 m -2.773583,2.77359 0.57381,-0.57381 m -9.119047,9.11904 -0.364884,0.36489 m -3.784279,3.78428 0.286736,-0.28674 m -5.912686,5.91269 -0.279686,0.27968 m 33.615621,-33.2165 0.35477,-0.35477 m -9.164535,9.16454 -0.588617,0.58862 m -2.76462,2.76462 1.921164,-1.92117 m -4.024434,4.02444 -0.477644,0.47764 m -9.007301,9.0073 0.355665,-0.35566 m -3.845734,3.84573 -0.303149,0.30315 m -6.018237,6.01824 0.297823,-0.29783 m 33.897257,-33.49813 -0.337755,0.33775 m -9.254912,9.25491 0.322107,-0.3221 m -1.441527,1.44153 -1.966018,1.96601 m -2.426549,2.42655 0.424685,-0.42468 m -9.182721,9.18272 -0.346447,0.34644 m -3.802156,3.80216 0.319561,-0.31956 m -6.134437,6.13444 -0.28226,0.28226 m 34.065327,-33.66621 0.291926,-0.29192 m -9.359597,9.35959 -0.240062,0.24007 m -3.079765,3.07976 1.9593,-1.9593 m -3.97573,3.97573 -0.385955,0.38596 m -9.201663,9.20166 0.337228,-0.33723 m -3.812349,3.81235 -0.335973,0.33597 m -6.176036,6.17604 0.300128,-0.30013 m 34.205734,-33.80661 -0.278654,0.27865 m -9.328586,9.32859 0.146011,-0.14601 m -1.166196,1.16619 -1.940856,1.94086 m -2.477118,2.47712 0.351658,-0.35166 m -9.322493,9.32249 -0.339878,0.33988 m -3.808165,3.80817 0.352386,-0.35239 m -6.295219,6.29522 -0.312101,0.3121 m 34.393731,-33.99461 0.26074,-0.26074 m -9.562862,9.56286 -0.132778,0.13278 m -2.772727,2.77273 2.127247,-2.12725 m -4.290585,4.29059 -0.385475,0.38547 m -9.433625,9.43363 0.364582,-0.36459 m -3.787936,3.78794 -0.368226,0.36823 m -6.325436,6.32543 0.324074,-0.32407 m 34.479006,-34.07989 -0.242826,0.24283 m -12.135293,12.13529 2.667854,-2.66785 m -4.856809,4.85681 -0.423598,0.4236 m -9.554826,9.55482 0.37305,-0.37305 m -3.777342,3.77734 -0.384449,0.38445 m -6.38219,6.38219 0.336047,-0.33604 m 34.592836,-34.19372 -0.202106,0.20211 m -12.064503,12.0645 2.428851,-2.42885 m -4.587221,4.58722 -0.516382,0.51638 m -9.676025,9.67603 0.371342,-0.37134 m -3.756571,3.75657 -0.400672,0.40067 m -6.428499,6.4285 0.337573,-0.33757 m 34.698676,-34.29956 -0.153396,0.1534 m -1.959667,1.95967 0.232373,-0.23238 m -8.112038,8.11204 -2.15438,2.15438 m -2.736949,2.73695 0.62022,-0.62022 m -10.047812,10.04781 -0.369635,0.36964 m -3.783061,3.78306 0.416895,-0.4169 m -6.552603,6.55261 -0.319039,0.31903 m 34.963908,-34.56478 0.159647,-0.15965 m -1.589325,1.58933 -0.439593,0.43959 m -10.031408,10.03141 1.896523,-1.89652 m -3.891328,3.89132 -0.771623,0.77163 m -7.046491,7.04649 0.289031,-0.28903 m -2.793039,2.79304 -0.358891,0.35889 m -3.789259,3.78926 0.433118,-0.43312 m -6.613607,6.61361 -0.300506,0.3005 m 35.053744,-34.65462 0.157117,-0.15712 m -1.454366,1.45437 -0.435127,0.43513 m -10.114626,10.11462 1.704378,-1.70438 m -3.38036,3.38036 -1.095103,1.09511 m -6.999182,6.99918 0.326775,-0.32678 m -2.995246,2.99525 -0.393395,0.39339 m -3.750208,3.75021 0.449342,-0.44934 m -6.674614,6.67462 -0.281973,0.28197 m 35.051568,-34.65245 0.2466,-0.2466 m -1.046657,1.04666 -0.707569,0.70757 m -10.278438,10.27844 1.429141,-1.42914 m -2.713763,2.71376 -1.419209,1.41921 m -6.953991,6.95399 0.477277,-0.47728 m -3.295253,3.29525 -0.427899,0.4279 m -3.711157,3.71116 0.444726,-0.44473 m -6.699622,6.69963 -0.278598,0.27859 m 33.816553,-33.41743 1.56517,-1.56517 m -10.73912,10.73912 -3.954913,3.95492 m -6.9088,6.9088 0.601718,-0.60172 m -3.604201,3.6042 -0.424307,0.42431 m -3.6752,3.6752 0.434243,-0.43425 m -6.706924,6.70693 -0.287062,0.28706 m 34.078581,-33.67946 1.386581,-1.38658 m -11.205896,11.2059 -3.44556,3.44556 m -6.872318,6.87231 0.633895,-0.63389 m -3.812023,3.81202 -0.444468,0.44447 m -3.615644,3.61564 0.42376,-0.42376 m -6.714225,6.71423 -0.275949,0.27595 m 34.307135,-33.90801 1.221889,-1.22189 m -11.689342,11.68934 -2.919537,2.91953 m -6.898528,6.89853 0.75149,-0.75149 m -4.042571,4.04257 -0.471284,0.47129 m -3.553166,3.55316 0.417012,-0.41701 m -6.721528,6.72153 -0.255295,0.2553 m 34.528231,-34.12911 1.055114,-1.05512 m -12.326374,12.32638 -2.2626,2.2626 m -6.92054,6.92054 0.842499,-0.8425 m -4.228059,4.22806 -0.488708,0.4887 m -3.522784,3.52279 0.432966,-0.43297 m -6.728829,6.72883 -0.234641,0.23464 m 34.712928,-34.3138 0.924738,-0.92474 m -13.783728,13.78373 -0.793423,0.79342 m -6.951412,6.95141 0.941711,-0.94171 m -4.404808,4.40481 -0.543059,0.54306 M 23.095656,254.636 23.521,254.21066 m -6.712555,6.71255 -0.213988,0.21399 m 34.888701,-34.48958 0.803287,-0.80328 m -13.887939,13.88793 -0.677389,0.67739 m -7.036498,7.0365 1.06173,-1.06173 m -4.591644,4.59165 -0.553916,0.55391 m -3.388165,3.38817 0.403296,-0.4033 m -6.652556,6.65256 -0.222633,0.22263 m 35.064474,-34.66535 0.681836,-0.68184 m -14.020295,14.0203 -0.53321,0.53321 m -7.129108,7.12911 1.146989,-1.14699 m -4.731482,4.73148 -0.565287,0.56529 m -3.339471,3.33947 0.395664,-0.39567 m -6.591574,6.59158 -0.235905,0.2359 m 35.210017,-34.81089 0.594258,-0.59426 m -14.079374,14.07937 -0.50065,0.50065 m -7.25139,7.25139 1.221215,-1.22121 m -4.835139,4.83514 -0.568754,0.56875 m -3.270552,3.27055 0.402768,-0.40277 m -6.530592,6.5306 -0.218286,0.21828 m 35.325791,-34.92667 0.505559,-0.50556 m -14.15105,14.15106 -0.461939,0.46193 m -7.329796,7.3298 1.023644,-1.02364 m -4.700499,4.7005 -0.635999,0.63599 m -3.141785,3.14179 0.409873,-0.40987 m -6.46961,6.46961 -0.200666,0.20066 m 35.441563,-35.04244 0.41686,-0.41686 m -14.222726,14.22273 -0.423227,0.42322 m -7.468848,7.46885 0.430986,-0.43098 m -4.110697,4.11069 -0.595803,0.59581 m -3.135738,3.13573 0.417779,-0.41777 m -6.393581,6.39358 -0.183046,0.18304 m 35.527516,-35.12839 0.357981,-0.35798 m -14.30777,14.30777 -0.39612,0.39612 m -7.582928,7.58293 0.426381,-0.42639 m -4.108808,4.10881 -0.64153,0.64153 m -3.069151,3.06915 0.453208,-0.4532 m -6.311724,6.31172 -0.173532,0.17353 m 35.615457,-35.21633 0.297113,-0.29712 m -14.398909,14.39891 -0.39339,0.39339 m -7.651181,7.65118 0.389424,-0.38942 m -4.089922,4.08992 -0.695183,0.69519 m -2.978961,2.97896 0.472958,-0.47296 m -6.211271,6.21127 -0.182614,0.18261 m 35.7034,-35.30427 0.236246,-0.23625 m -14.49005,14.49005 -0.39066,0.39066 m -7.809689,7.80969 0.442723,-0.44272 m -3.966967,3.96696 -0.972648,0.97265 m -2.838846,2.83885 0.613345,-0.61335 m -6.161636,6.16164 -0.191695,0.19169 m 35.762222,-35.3631 0.204496,-0.20449 m -14.619467,14.61946 -0.369417,0.36942 m -7.938555,7.93856 0.490412,-0.49042 m -3.772529,3.77253 -1.446212,1.44622 m -2.625828,2.62582 0.857383,-0.85738 m -6.168206,6.16821 -0.1789,0.1789 m 35.800654,-35.40154 0.171261,-0.17126 m -14.754749,14.75475 -0.377975,0.37798 m -8.213123,8.21312 0.719215,-0.71921 m -3.443241,3.44324 -4.397127,4.39712 m -5.306376,5.30638 0.162965,-0.16296 m 35.811008,-35.41189 -0.141726,0.14173 m -15.175246,15.17524 0.426939,-0.42694 m -7.888642,7.88864 -8.052784,8.05279 m -4.943975,4.94397 0.147029,-0.14702 m 35.824602,-35.42549 -0.136379,0.13638 m -15.296144,15.29615 0.380249,-0.38025 m -8.173238,8.17324 -7.804003,7.804 m -4.743577,4.74358 0.157934,-0.15794 m 35.808516,-35.40939 -0.128193,0.12819 m -15.483282,15.48328 0.394153,-0.39415 m -8.762611,8.76261 -7.479906,7.47991 m -4.308072,4.30807 0.170677,-0.17068 m 35.790593,-35.39147 -0.137114,0.13712 m -15.723906,15.7239 0.478649,-0.47865 m -9.529757,9.52976 -2.889576,2.88958 m -3.894619,3.89462 1.757802,-1.75781 m -5.64079,5.64079 -0.18342,0.18343 m 35.781826,-35.38271 0.147401,-0.1474 m -15.544586,15.54459 -0.409653,0.40965 m -11.477255,11.47725 0.709541,-0.70954 m -3.570316,3.57032 -1.706606,1.70661 m -3.727579,3.72757 0.191929,-0.19193 m 35.696773,-35.29765 -0.149723,0.14973 m -1.815344,1.81534 0.09263,-0.0926 m -13.840487,13.84048 -0.429314,0.42932 m -10.985826,10.9858 0.597856,-0.59786 m -3.901504,3.90151 -1.865468,1.86546 m -3.386029,3.38603 0.205522,-0.20552 m 35.640197,-35.24107 -0.237014,0.23701 m -1.663617,1.66362 0.279919,-0.27992 m -14.260818,14.26082 -0.448975,0.44897 m -10.566693,10.5667 0.603603,-0.60361 m -4.432099,4.4321 -1.969216,1.96922 m -2.945315,2.94531 0.251714,-0.25171 m 35.506959,-35.10784 -1.792133,1.79214 m -14.714799,14.71479 0.532911,-0.53291 m -10.0389,10.0389 -0.596258,0.59626 m -4.439572,4.43957 0.316572,-0.31657 m -1.261853,1.26185 -0.829019,0.82902 m -2.730129,2.73013 0.297906,-0.29791 m 35.382635,-34.98351 -1.692549,1.69255 m -14.964721,14.96472 0.462492,-0.46249 m -9.546381,9.54638 -0.588914,0.58892 m -4.721225,4.72122 0.291793,-0.29179 m -1.703525,1.70352 -0.554703,0.55471 m -2.457314,2.45731 0.344098,-0.3441 m 35.194035,-34.79491 -1.496989,1.49699 m -15.314348,15.31435 0.511813,-0.51182 m -9.100315,9.10032 -0.630363,0.63036 m -4.944844,4.94484 0.357364,-0.35736 m -1.972634,1.97264 -0.557824,0.55782 m -2.1845,2.1845 0.413992,-0.41399 m 35.005512,-34.60639 -1.321,1.321 m -15.782472,15.78247 0.707949,-0.70795 m -8.583592,8.58359 -0.676839,0.67684 m -5.197039,5.19704 0.342285,-0.34228 m -2.247509,2.2475 -0.543949,0.54395 m -1.911844,1.91185 0.509641,-0.50964 m 34.755353,-34.35623 -1.10913,1.10913 m -16.046492,16.04649 0.571635,-0.57164 m -8.069731,8.06973 -0.639665,0.63967 m -5.3464,5.3464 0.366981,-0.36698 m -2.617435,2.61743 -2.178262,2.17827 m 34.222223,-33.82311 0.959059,-0.95905 m -16.779637,16.77963 -0.676099,0.6761 m -7.536876,7.53688 0.741506,-0.74151 m -5.860674,5.86068 -0.356613,0.35661 m -4.527276,4.52727 1.966003,-1.966 m 33.170201,-32.77108 -0.83674,0.83674 m -16.909683,16.90969 0.863868,-0.86387 m -7.001026,7.00102 -0.767,0.767 m -5.661146,5.66115 0.441989,-0.44199 m -3.340592,3.34059 -1.740261,1.74026 m 34.376705,-33.97758 0.714421,-0.71442 m -17.322317,17.32232 -0.909502,0.9095 m -6.087932,6.08793 0.860638,-0.86064 m -6.186316,6.18632 -0.516497,0.5165 m -4.766869,4.76687 1.537801,-1.5378 m 33.570345,-33.17123 -0.635833,0.63584 m -18.089418,18.08941 1.086405,-1.0864 m -5.327851,5.32785 -1.126129,1.12613 m -5.958199,5.9582 0.71045,-0.71045 m -4.269899,4.2699 -1.340622,1.34062 m 34.566342,-34.16722 0.565985,-0.56599 m -18.071436,18.07144 -5.495743,5.49574 m -6.428987,6.42899 0.958505,-0.9585 m -4.794172,4.79417 -1.167842,1.16784 m 34.684768,-34.28565 0.496137,-0.49613 m -18.439885,18.43988 -4.896941,4.89694 m -6.602228,6.60223 1.263042,-1.26304 m -5.37718,5.37718 -1.014606,1.0146 m 34.822739,-34.42361 0.454921,-0.45492 m -18.968916,18.96891 -3.61025,3.61025 m -7.3858,7.3858 1.151545,-1.15154 m -5.489762,5.48976 -0.8858,0.8858 m 34.985141,-34.58602 0.417552,-0.41755 m -19.449081,19.44908 -2.313988,2.31399 m -8.244061,8.24406 0.901072,-0.90107 m -5.450964,5.45096 -0.763947,0.76395 m 35.154495,-34.75537 0.380184,-0.38019 m -19.827892,19.82789 -1.657648,1.65765 m -8.638925,8.63893 0.728689,-0.72869 m -5.415085,5.41508 -0.707967,0.70797 m 35.368739,-34.96962 0.3651,-0.3651 m -20.074499,20.0745 -1.130896,1.1309 m -9.054011,9.05401 0.603921,-0.60392 m -5.377722,5.37772 -0.684781,0.68478 m 35.567076,-35.16795 0.366648,-0.36665 m -20.181359,20.18136 -0.876102,0.8761 m -9.305256,9.30526 0.516087,-0.51609 m -5.417019,5.41702 -0.654225,0.65422 m 35.765415,-35.36629 0.368197,-0.3682 m -20.208665,20.20867 -0.684572,0.68457 m -9.547482,9.54748 0.387447,-0.38744 m -5.440821,5.44082 -0.624729,0.62473 m 35.964813,-35.56569 0.366582,-0.36659 m -20.178866,20.17887 -0.605924,0.60592 m -9.713141,9.71315 0.312222,-0.31223 m -5.535662,5.53566 -0.590663,0.59067 m 36.15964,-35.76052 0.341584,-0.34158 m -20.07143,20.07143 -0.548957,0.54895 m -9.901114,9.90112 0.258365,-0.25837 m -5.662131,5.66213 -0.556597,0.5566 m 36.354468,-35.95535 0.316586,-0.31658 m -19.963994,19.96399 -0.520042,0.52004 m -10.057492,10.0575 0.223062,-0.22306 m -5.810696,5.81069 -0.560242,0.56024 m 36.556124,-36.157 0.32247,-0.32247 m -19.84259,19.84259 -0.505096,0.5051 m -10.19506,10.19506 0.208925,-0.20893 m -5.978504,5.97851 -0.497921,0.49792 m 36.666555,-36.26744 0.313349,-0.31334 m -19.679724,19.67972 -0.512079,0.51208 m -10.332629,10.33263 0.194787,-0.19479 m -6.142476,6.14248 -0.464421,0.46442 m 36.801972,-36.40285 0.297209,-0.29721 m -14.790631,14.79063 -1.100279,1.10028 m -4.147457,4.14746 0.528529,-0.52853 m -10.778573,10.77857 -0.199363,0.19936 m -6.568046,6.56805 0.437437,-0.43744 m 36.781021,-36.3819 -0.281068,0.28107 m -16.32963,16.32963 2.552961,-2.55296 m -5.303633,5.30363 -0.522583,0.52259 m -10.555012,10.55501 0.193546,-0.19355 m -6.519226,6.51923 -0.424223,0.42422 m 37.086579,-36.68745 0.25062,-0.25062 m -13.347201,13.3472 -3.588527,3.58852 m -2.779504,2.77951 0.62207,-0.62207 m -11.094959,11.09496 -0.187728,0.18772 m -6.894309,6.89431 0.373559,-0.37356 m 37.030624,-36.6315 -0.236078,0.23608 m -19.296126,19.29613 6.440409,-6.44041 m -16.999038,16.99904 -0.172099,0.17209 m -7.080197,7.0802 0.328882,-0.32888 m 37.148271,-36.74915 -0.233412,0.23341 m -19.115764,19.11577 6.719385,-6.71939 m -17.322735,17.32274 -0.199126,0.19912 m -7.264448,7.26445 0.334803,-0.3348 m 37.198629,-36.79951 -0.214053,0.21406 m -12.829352,12.82935 0.736933,-0.73694 m -4.855653,4.85566 -1.98733,1.98733 m -10.817388,10.81738 0.25972,-0.25972 m -7.427961,7.42797 -0.337294,0.33729 m 37.395015,-36.99589 0.177748,-0.17775 m -2.696722,2.69672 -0.08663,0.0866 m -9.834564,9.83456 0.677249,-0.67725 m -5.514719,5.51472 -1.477405,1.47741 m -10.841192,10.84119 0.459172,-0.45917 m -7.857117,7.85712 -0.331142,0.33114 m 37.440815,-37.0417 0.162638,-0.16263 m -2.451608,2.4516 -0.239079,0.23908 m -9.633512,9.63351 0.643398,-0.64339 m -6.067649,6.06765 -0.967672,0.96767 m -10.735098,10.7351 1.097539,-1.09754 m -8.855086,8.85508 -0.314387,0.31439 m 37.466483,-37.06736 0.121547,-0.12155 m -2.171448,2.17145 -0.391068,0.39107 m -9.343424,9.34342 0.520511,-0.52051 m -6.492816,6.49282 -0.721236,0.72123 m -10.39744,10.39744 3.849359,-3.84936 m -12.062537,12.06254 -0.297633,0.29764 m 37.423806,-37.02469 0.140361,-0.14036 m -1.888189,1.88819 -0.537714,0.53771 m -9.1766,9.1766 0.498114,-0.49811 m -6.924461,6.92446 -0.605985,0.60598 m -9.740805,9.74081 3.415133,-3.41513 m -12.212094,12.21209 -0.315113,0.31511 m 37.267557,-36.86843 0.287668,-0.28767 m -1.478953,1.47895 -0.821414,0.82142 m -9.02382,9.02382 0.452925,-0.45293 m -7.261322,7.26133 -0.548681,0.54868 m -8.696231,8.69623 2.460687,-2.46069 m -12.224301,12.2243 -0.323411,0.32341 m 35.346423,-34.9473 2.063539,-2.06354 m -10.515353,10.51536 -0.427717,0.42771 m -7.662556,7.66256 0.490311,-0.49031 m -6.628764,6.62876 -1.778092,1.77809 m -10.797087,10.79709 0.331709,-0.33171 m 37.037952,-36.63883 -1.933909,1.93391 m -8.755007,8.75501 0.396652,-0.39665 m -7.910743,7.91074 -0.431942,0.43194 m -7.241618,7.24162 1.196597,-1.1966 M 23.288027,275.198 22.94802,275.53801 m 35.525079,-35.12596 1.478639,-1.47864 m -9.743533,9.74354 -0.367155,0.36715 m -8.227943,8.22794 0.41413,-0.41413 m -6.368756,6.36876 -0.609463,0.60946 m -12.010295,12.0103 0.348306,-0.34831 m -5.038979,5.03898 -0.296492,0.29649 m 40.60532,-40.20619 1.138175,-1.13818 m -9.313356,9.31336 -0.350041,0.35004 m -8.497468,8.49747 0.391303,-0.39131 m -6.195555,6.19556 -0.494742,0.49474 m -12.205767,12.20577 0.356604,-0.35661 m -3.529605,3.52961 -2.318323,2.31832 m 41.169281,-40.77016 0.949233,-0.94923 m -9.011911,9.01191 -0.335519,0.33552 m -8.753919,8.75392 0.368475,-0.36848 m -6.004184,6.00419 -0.456065,0.45606 m -12.343363,12.34336 0.378125,-0.37812 m -2.819276,2.81928 -3.5617,3.5617 m 41.740609,-41.34149 0.766876,-0.76688 m -8.723402,8.72341 -0.314646,0.31464 m -9.010369,9.01037 0.414797,-0.4148 m -5.819716,5.81972 -0.485808,0.48581 m -12.481406,12.4814 0.416187,-0.41618 m -2.514595,2.51459 -4.116675,4.11668 m 42.019262,-41.62014 0.649343,-0.64935 m -8.499718,8.49972 -0.293772,0.29377 m -9.266818,9.26682 0.360894,-0.36089 m -5.494075,5.49407 -0.498783,0.49879 m -12.729872,12.72987 0.506956,-0.50696 m -2.045286,2.04529 -1.380454,1.38045 m -3.29481,3.29481 0.798436,-0.79843 m 41.873113,-41.474 -0.541801,0.54181 m -8.033745,8.03374 0.299568,-0.29957 m -9.43773,9.43773 -0.36133,0.36133 m -5.286076,5.28608 0.463988,-0.46399 m -12.931727,12.93173 -0.54993,0.54993 m -2.057468,2.05747 0.961439,-0.96144 m -4.587369,4.58737 -0.500744,0.50074 m 42.136159,-41.73704 0.480598,-0.48059 m -8.089068,8.08907 -0.287558,0.28755 m -9.731164,9.73117 0.361767,-0.36177 m -4.78226,4.78226 -0.530234,0.53023 m -7.142168,7.14217 0.723363,-0.72336 m -6.283216,6.28321 -1.985461,1.98546 m -4.767814,4.76782 0.391608,-0.39161 m 42.199062,-41.79994 -0.442421,0.44242 m -7.758311,7.75831 0.275548,-0.27554 m -9.854971,9.85497 -0.383412,0.38341 m -4.615378,4.61538 0.782907,-0.78291 m -6.978378,6.97838 -1.421662,1.42166 m -6.959945,6.95994 1.640775,-1.64077 m -6.416213,6.41621 -0.31483,0.31483 m 42.12514,-41.72601 0.398442,-0.39845 m -7.761733,7.76174 -0.263539,0.26353 m -10.194506,10.19451 0.365403,-0.3654 m -3.776031,3.77603 -0.74332,0.74332 m -8.208225,8.20822 2.046731,-2.04673 m -7.124131,7.12413 -1.31846,1.31846 m -5.401393,5.4014 0.279328,-0.27933 m 42.177167,-41.77805 -0.404358,0.40436 m -7.453593,7.4536 0.259668,-0.25967 m -10.310011,10.31001 -0.367694,0.36769 m -3.724586,3.72459 0.96072,-0.96072 m -7.209724,7.20972 -2.365667,2.36567 m -6.061844,6.06184 1.088712,-1.08871 m -6.459637,6.45964 -0.236243,0.23624 m 41.951273,-41.55215 0.400321,-0.40032 m -7.428632,7.42863 -0.271506,0.27151 m -10.622107,10.6221 0.369986,-0.36998 m -2.50431,2.50431 -1.242659,1.24266 m -6.583746,6.58374 0.41495,-0.41494 m -2.194867,2.19486 -0.563403,0.5634 m -5.716304,5.71631 0.835149,-0.83515 m -6.424054,6.42405 -0.241108,0.24111 m 41.851594,-41.45247 0.391022,-0.39102 m -7.261648,7.26165 -0.283345,0.28334 m -10.826176,10.82618 0.372278,-0.37228 m -1.768087,1.76809 -1.414169,1.41417 m -6.769841,6.76984 0.445865,-0.44587 m -2.58639,2.58639 -0.501576,0.50158 m -5.517813,5.51781 0.681713,-0.68171 m -6.336391,6.33639 -0.304355,0.30435 m 41.694913,-41.29579 0.445028,-0.44503 m -7.094666,7.09467 -0.295183,0.29518 m -12.867232,12.86724 2.211555,-2.21156 m -8.447405,8.44741 -1.086635,1.08663 m -2.963781,2.96378 0.449391,-0.44939 m -5.256974,5.25697 -0.587877,0.58788 m -3.578617,3.57862 1.485639,-1.48564 m -3.439204,3.4392 -0.498893,0.4989 m 41.540854,-41.14174 0.442733,-0.44273 m -6.871383,6.87138 -0.307022,0.30703 m -12.82609,12.82609 1.931731,-1.93173 m -7.502005,7.502 -1.575351,1.57535 m -3.264308,3.26431 0.423627,-0.42363 m -5.225569,5.22557 -0.6035,0.6035 m -5.993657,5.99366 4.438691,-4.43869 m 37.39557,-36.99645 -0.463319,0.46332 m -6.516259,6.51626 0.32315,-0.32315 m -11.451469,11.45147 -2.110503,2.1105 m -6.517626,6.51763 2.670819,-2.67082 m -5.812552,5.81255 -0.405425,0.40542 m -11.381017,11.38102 6.575362,-6.57536 m 35.109575,-34.71045 -0.541026,0.54102 m -6.257328,6.25733 0.398009,-0.39801 m -11.83541,11.83541 -2.641797,2.6418 m -5.211491,5.21149 2.662358,-2.66236 m -6.338034,6.33804 -0.36667,0.36667 m -11.392228,11.39222 6.587801,-6.5878 m 34.879177,-34.48005 -0.536337,0.53634 m -6.003418,6.00341 0.472868,-0.47287 m -12.371016,12.37102 -6.790543,6.79054 m -4.674838,4.67484 0.375246,-0.37524 m -5.178724,5.17872 -1.98228,1.98228 m -4.654843,4.65484 1.295915,-1.29591 M 60.245464,245.42477 59.590236,246.08 m -5.643328,5.64333 0.529849,-0.52985 m -12.883965,12.88396 -4.446865,4.44687 m -6.566823,6.56682 0.354076,-0.35408 m -5.182823,5.18283 -1.382878,1.38287 m -5.303568,5.30357 0.780376,-0.78037 m 40.466656,-40.06754 -0.888122,0.88812 m -5.273953,5.27396 0.669471,-0.66947 m -14.286887,14.28688 -2.914329,2.91433 m -6.840334,6.84034 0.332907,-0.33291 m -5.186924,5.18692 -1.141012,1.14102 m -5.594757,5.59475 0.608302,-0.6083 m 40.229925,-39.8308 -0.988941,0.98894 m -4.685461,4.68546 0.887778,-0.88778 m -15.8351,15.8351 -1.608081,1.60808 m -6.811077,6.81108 0.333343,-0.33334 m -5.222503,5.2225 -0.967368,0.96737 m -5.817724,5.81772 0.432522,-0.43252 m 40.26367,-39.86455 -5.471744,5.47175 m -16.62262,16.62262 1.123501,-1.1235 m -7.504053,7.50405 -0.326241,0.32624 m -5.730385,5.73038 0.792857,-0.79285 m -6.522093,6.52209 -0.320876,0.32088 m 35.2914,-34.89228 4.875256,-4.87526 m -20.867721,20.86772 -0.765613,0.76562 m -6.532043,6.53204 0.31914,-0.31914 m -5.292606,5.29261 -0.691396,0.69139 m -6.25425,6.25425 0.238709,-0.23871 m 39.403201,-39.00408 -4.251187,4.25119 m -16.868791,16.86879 0.577378,-0.57737 m -6.621449,6.62144 -0.319732,0.31974 m -5.63158,5.63158 0.61448,-0.61448 m -6.90232,6.90232 -0.156541,0.15654 m 35.490046,-35.09093 3.975246,-3.97524 m -20.483063,20.48306 -0.706784,0.70678 m -2.792938,2.79294 0.809464,-0.80946 m -3.639938,3.63994 -0.332353,0.33235 m -5.661024,5.66102 0.595587,-0.59558 m -3.999731,3.99973 -3.172345,3.17234 m 35.589369,-35.19024 0.491108,-0.49111 m -17.210197,17.2102 -2.519734,2.51973 m -3.869314,3.86931 0.344974,-0.34497 m -5.458747,5.45875 -0.607769,0.60777 m -6.677523,6.67752 4.825441,-4.82544 m 31.319326,-30.92021 -0.462068,0.46207 m -18.937065,18.93707 2.088523,-2.08853 m -5.806241,5.80624 -0.35742,0.35742 m -5.852888,5.85289 0.663067,-0.66306 m -2.002643,2.00264 -5.404872,5.40487 m 35.772131,-35.37301 0.445933,-0.44593 m -17.424153,17.42415 -1.2642,1.2642 m -4.66418,4.66418 0.393182,-0.39318 m -5.655816,5.65582 -7.564821,7.56482 m 35.896647,-35.49753 0.429799,-0.4298 m -17.47812,17.47812 -0.705486,0.70549 m -5.047571,5.04757 0.419704,-0.4197 m -5.754769,5.75477 -3.167059,3.16705 m -4.55507,4.55507 1.523702,-1.5237 m 34.911126,-34.512 -0.413665,0.41366 m -17.605371,17.60538 0.476075,-0.47608 m -5.053195,5.05319 -0.514128,0.51413 m -7.670717,7.67072 2.28477,-2.28477 m -6.811228,6.81123 -1.089294,1.08929 m 36.14568,-35.74656 0.397531,-0.39753 m -17.569642,17.56965 -0.315175,0.31517 m -5.104575,5.10458 0.632724,-0.63273 m -6.068189,6.06819 -1.369912,1.36991 m -6.722616,6.72262 0.641352,-0.64135 m 36.02249,-35.62337 -0.381397,0.3814 m -17.444825,17.44482 0.230484,-0.23048 m -4.535643,4.53564 -0.759293,0.75929 m -6.2123,6.2123 0.749491,-0.74949 m -7.851686,7.85169 -0.395659,0.39566 m 36.371289,-35.97217 0.375997,-0.376 m -17.606052,17.60606 -0.218184,0.21818 m -4.979286,4.97929 0.998644,-0.99865 m -6.477231,6.47723 -0.508038,0.50804 m -7.902739,7.90274 0.284537,-0.28454 m 36.554806,-36.15568 -0.378057,0.37806 m -17.512204,17.5122 0.289525,-0.28953 m -3.888366,3.88837 -1.238995,1.239 m -5.957571,5.95757 0.474934,-0.47494 m -8.313841,8.31384 -0.201822,0.20183 m 36.492737,-36.09362 0.375125,-0.37512 m -17.590428,17.59042 -0.634586,0.63459 m -4.466825,4.46683 1.603682,-1.60369 m -7.046211,7.04622 -0.437757,0.43775 m -8.198114,8.19812 0.179299,-0.1793 m 36.725069,-36.32595 -0.364857,0.36486 m -22.310612,22.31061 5.12292,-5.12292 m -10.491134,10.49113 -0.407563,0.40757 m -8.304745,8.30474 0.149003,-0.149 m 36.741118,-36.342 -0.35459,0.35459 m -22.633436,22.63344 5.478982,-5.47898 m -10.428394,10.42839 -0.392929,0.39293 m -8.41697,8.41697 0.164068,-0.16407 m 36.717398,-36.31827 -0.340342,0.34034 m -22.885361,22.88536 5.760164,-5.76016 m -10.365654,10.36565 -0.378296,0.37829 m -8.527856,8.52786 0.201006,-0.20101 m 36.670469,-36.27134 -0.348303,0.3483 m -23.014283,23.01428 5.958389,-5.95838 m -10.320751,10.32075 -0.363662,0.36366 m -8.617946,8.61795 0.217145,-0.21715 m 36.623541,-36.22442 -0.356264,0.35627 m -17.743856,17.74385 0.760988,-0.76099 m -4.992276,4.99228 -1.102929,1.10293 m -4.533395,4.53339 0.349029,-0.34902 m -8.82378,8.82378 -0.233284,0.23328 m 36.445672,-36.04655 0.364225,-0.36423 m -17.274066,17.27407 -0.391015,0.39101 m -5.766328,5.76633 0.583103,-0.5831 m -4.664152,4.66415 -0.334395,0.3344 m -8.792437,8.79243 0.250118,-0.25011 m 36.523301,-36.12418 -0.372185,0.37218 m -17.146284,17.14629 0.325577,-0.32558 m -5.963629,5.96363 -0.27196,0.27196 m -4.297494,4.29749 0.319762,-0.31976 m -8.90734,8.90734 -0.274401,0.2744 m 36.341938,-35.94281 0.352189,-0.35219 m -17.073697,17.07369 -0.327624,0.32763 m -5.994854,5.99485 0.237159,-0.23716 m -4.096441,4.09644 -0.321683,0.32169 m -8.931523,8.93152 0.298684,-0.29868 m 36.319523,-35.9204 -0.334888,0.33488 m -17.00675,17.00675 0.383765,-0.38376 m -6.144391,6.14439 -0.210292,0.21029 m -4.11912,4.11912 0.330305,-0.3303 m -8.990739,8.99074 -0.327539,0.32754 m 36.191956,-35.79284 0.337238,-0.33724 m -16.842051,16.84205 -0.484325,0.48433 m -5.902563,5.90256 0.194683,-0.19468 m -3.91303,3.91303 -0.338927,0.33893 m -4.217356,4.21735 0.08274,-0.0827 m -4.542035,4.54204 -0.35707,0.35707 m 36.089892,-35.69077 0.339589,-0.33959 m -16.726228,16.72623 -0.763661,0.76366 m -5.655433,5.65543 0.214322,-0.21432 m -3.862201,3.8622 -0.347549,0.34755 m -4.521953,4.52195 0.694017,-0.69401 m -4.845257,4.84525 -0.406282,0.40628 m 35.98783,-35.5887 0.34194,-0.34194 m -16.610405,16.6104 -1.010213,1.01022 m -5.414581,5.41458 0.206707,-0.20671 m -3.810625,3.81062 -0.356171,0.35618 m -4.91943,4.91943 1.257322,-1.25733 m -4.982032,4.98204 -0.441891,0.44189 m 35.846574,-35.44745 0.34429,-0.34429 m -16.494582,16.49458 -1.622852,1.62285 m -4.791951,4.79195 0.218271,-0.21827 m -3.793918,3.79392 -0.364793,0.36479 m -5.436726,5.43673 1.942258,-1.94226 m -5.066305,5.0663 -0.535849,0.53585 m 35.709351,-35.31023 0.346641,-0.34664 m -16.364802,16.3648 -2.817837,2.81784 m -3.600932,3.60093 0.229835,-0.22983 m -3.77216,3.77216 -0.378467,0.37847 m -6.017752,6.01775 2.832091,-2.83209 m -5.082284,5.08228 -0.750164,0.75016 m 35.479517,-35.08039 0.324491,-0.32449 m -16.194444,16.19444 -0.800841,0.80084 m -1.945971,1.94598 0.426931,-0.42694 m -3.85943,3.85944 -0.255992,0.25599 m -3.901144,3.90114 0.411735,-0.41173 m -3.504584,3.50458 -0.94527,0.94527 m -4.703804,4.7038 3.143245,-3.14324 m 32.21374,-31.81462 -0.317535,0.31754 m -16.222103,16.2221 0.512916,-0.51292 m -6.155728,6.15573 -0.263907,0.26391 m -3.913698,3.9137 0.445004,-0.44501 m -3.20124,3.20124 -1.293806,1.29381 m -4.357907,4.3579 2.284143,-2.28414 m 32.568032,-32.16891 -0.31058,0.31058 m -15.977343,15.97734 0.428923,-0.42892 m -6.133394,6.1334 -0.264346,0.26434 m -3.932478,3.93248 0.478273,-0.47827 m -2.681854,2.68185 -1.903416,1.90342 m 30.076762,-29.67764 0.303624,-0.30363 m -15.691277,15.69128 -0.402205,0.40221 m -5.973641,5.97364 0.293764,-0.29377 m -3.733481,3.73348 -0.511542,0.51155 m -4.26069,4.26069 2.574336,-2.57434 m 27.788907,-27.38979 -0.296668,0.29667 m -15.636525,15.63653 0.409639,-0.40964 m -6.030768,6.03077 -0.323183,0.32318 m -8.382333,8.38233 4.957103,-4.9571 m 25.386906,-24.98778 -0.289712,0.28971 m -15.551331,15.55133 0.485211,-0.48521 m -5.966918,5.96692 -0.328367,0.32836 m -8.6511,8.6511 5.200876,-5.20087 m 25.185512,-24.78639 -0.282757,0.28275 m -15.482155,15.48216 0.576803,-0.5768 m -5.884692,5.88469 -0.347481,0.34748 m -8.920356,8.92036 5.462917,-5.46292 m 24.923004,-24.52388 -0.247834,0.24783 m -15.483284,15.48329 0.760513,-0.76052 m -5.814727,5.81473 -0.365229,0.36523 m -4.494676,4.49467 1.030023,-1.03002 m -4.821755,4.82176 -0.958694,0.95869 m 30.205885,-29.80676 0.246196,-0.2462 m -14.746595,14.7466 -0.991142,0.99114 m -5.154237,5.15424 0.423828,-0.42383 m -3.895696,3.89569 -0.764191,0.7642 m -5.332943,5.33294 0.742504,-0.7425 m 29.774891,-29.37577 -0.244559,0.24455 m -15.541646,15.54165 1.263619,-1.26362 m -5.641652,5.64165 -0.416722,0.41673 m -4.149438,4.14943 0.617928,-0.61792 m -5.693083,5.69308 -0.724836,0.72483 m 30.343886,-29.94476 0.242921,-0.24292 m -14.306922,14.30692 -1.65966,1.65966 m -4.304394,4.3044 0.476273,-0.47628 m -4.066395,4.0664 -0.578872,0.57887 m -6.159831,6.15983 0.477131,-0.47713 m 30.179088,-29.77996 -0.277091,0.27709 m -16.020043,16.02004 2.248195,-2.2482 m -5.311288,5.31129 -0.600765,0.60077 m -4.186511,4.18651 0.537778,-0.53778 m -6.61715,6.61715 -0.442736,0.44274 m 30.461875,-30.06276 0.264154,-0.26415 m -13.790956,13.79096 -2.712687,2.71268 m -3.147365,3.14737 0.633788,-0.63379 m -4.341133,4.34113 -0.539243,0.53925 m -6.77929,6.77929 0.335647,-0.33565 m 30.360196,-29.96107 -0.288011,0.28801 m -19.003756,19.00375 5.796255,-5.79625 m -9.567147,9.56714 -0.545117,0.54512 m -7.061203,7.0612 0.338353,-0.33835 m 30.354577,-29.95545 -0.316864,0.31686 m -13.523294,13.5233 0.64056,-0.64056 m -2.990525,2.99052 -2.750652,2.75065 m -4.396513,4.39651 0.57376,-0.57376 m -7.559496,7.5595 -0.245168,0.24517 m 30.246427,-29.84731 0.345716,-0.34571 m -12.876015,12.87601 -0.629249,0.62925 m -5.177281,5.17728 2.33932,-2.33932 m -6.121171,6.12117 -0.609465,0.60947 m -7.393543,7.39354 0.197823,-0.19782 m 30.293532,-29.89441 -0.377406,0.3774 m -12.832188,12.83219 0.657161,-0.65716 m -3.859876,3.85988 -2.015573,2.01557 m -4.382553,4.38255 0.64517,-0.64517 m -8.022798,8.0228 -0.146024,0.14603 m 29.900995,-29.50188 0.457043,-0.45704 m -12.239091,12.23909 -0.702212,0.70221 m -5.325867,5.32587 1.747781,-1.74778 m -5.346744,5.34674 -0.706885,0.70689 m -7.59741,7.59741 0.110447,-0.11045 m 30.093176,-29.69405 -0.545924,0.54592 m -12.205601,12.2056 0.861628,-0.86162 m -4.744381,4.74438 -1.503718,1.50371 m -4.237226,4.23723 0.798977,-0.79898 m -8.335176,8.33518 -0.104592,0.10459 m 29.414403,-29.01528 0.555164,-0.55516 m -11.46106,11.46106 -1.023531,1.02353 m -5.562946,5.56294 1.202528,-1.20252 m -4.364935,4.36493 -0.920831,0.92083 m -7.606602,7.6066 0.129794,-0.12979 m 29.590369,-29.19125 -0.593637,0.59364 m -11.727434,11.72743 1.28748,-1.28748 m -6.001634,6.00164 -0.913382,0.91338 m -4.539575,4.53958 1.638054,-1.63806 m -8.498156,8.49816 -0.139703,0.1397 m 28.840126,-28.441 0.630647,-0.63065 m -10.643668,10.64367 -1.50793,1.50793 m -5.685183,5.68518 0.628313,-0.62831 m -3.281845,3.28184 -2.860383,2.86039 m -5.833776,5.83377 0.222188,-0.22219 m 28.945071,-28.54594 -0.70261,0.70261 m -11.370334,11.37033 1.868858,-1.86886 m -7.027213,7.02721 -0.418492,0.4185 m -5.820963,5.82096 3.340255,-3.34026 m -8.481932,8.48194 -0.274692,0.27469 m 28.095336,-27.69622 0.794404,-0.7944 m -9.76212,9.76212 -2.255248,2.25525 m -5.43427,5.43427 0.334436,-0.33444 m -2.673312,2.67331 -4.591426,4.59143 m -4.151756,4.15176 0.414576,-0.41458 m 27.994272,-27.59515 -0.745893,0.74589 m -9.35079,9.3508 0.884472,-0.88448 m -7.575667,7.57567 -0.311335,0.31133 m -2.560924,2.56093 0.337073,-0.33707 m -3.521422,3.52142 -1.937524,1.93752 m -3.236585,3.23659 0.506782,-0.50679 m 27.436814,-27.03769 -0.811031,0.81103 m -8.536861,8.53686 0.683846,-0.68384 m -7.832271,7.83227 -0.279908,0.27991 m -2.341736,2.34173 0.212533,-0.21253 m -4.66093,4.66093 -3.97564,3.97564 m 26.581638,-26.18251 0.885361,-0.88537 m -8.123677,8.12368 -0.706434,0.70644 m -7.600134,7.60013 0.277973,-0.27797 m -2.309857,2.30985 -0.252214,0.25222 m -8.214623,8.21462 3.448126,-3.44813 m 23.405841,-23.00671 -0.953724,0.95372 m -7.374757,7.37476 0.826417,-0.82642 m -8.298015,8.29802 -0.284186,0.28418 m -2.210153,2.21015 0.275589,-0.27559 m -5.735213,5.73522 -2.459945,2.45994 m 25.012501,-24.61337 0.997785,-0.99779 m -6.78382,6.78382 -1.027992,1.02799 m -7.754348,7.75435 0.283442,-0.28344 m -2.164109,2.16411 -0.315515,0.31551 m -7.608869,7.60887 1.845518,-1.84552 m 23.357236,-22.95811 -1.054065,1.05406 m -6.325278,6.32528 1.707578,-1.70758 m -9.107851,9.10785 -0.309026,0.30903 m -2.258652,2.25865 0.437225,-0.43722 m -6.40954,6.40954 -0.549785,0.54978 m 22.189985,-21.79086 1.510953,-1.51095 m -5.058094,5.05809 -1.983255,1.98326 m -7.543057,7.54305 0.348117,-0.34811 m -2.138967,2.13896 -0.607297,0.6073 m -6.457236,6.45724 0.415196,-0.4152 m 22.889438,-22.49031 -6.786902,6.7869 m -7.314823,7.31482 0.375462,-0.37546 m -2.110284,2.11028 -0.896052,0.89605 m -6.345767,6.34577 0.307749,-0.30775 m 22.761123,-22.362 -6.764084,6.76409 m -6.980621,6.98062 0.396918,-0.39692 m -2.075712,2.07571 -1.775198,1.7752 m -5.670467,5.67047 0.299662,-0.29967 m 22.59002,-22.19089 -4.178983,4.17898 m -2.591114,2.59111 0.784292,-0.78429 m -6.915294,6.91529 -0.460104,0.46011 m -4.173931,4.17393 2.494671,-2.49467 m -7.365195,7.36519 -0.284315,0.28432 m 18.782284,-18.38316 4.017411,-4.01741 m -6.087333,6.08733 -0.846676,0.84668 m -6.144865,6.14486 0.53526,-0.53526 m -2.22029,2.22029 -3.282731,3.28273 m -4.532832,4.53283 0.252295,-0.25229 m 22.441461,-22.04234 -0.773976,0.77398 m -3.135382,3.13538 1.158899,-1.1589 m -3.417792,3.41779 -1.110294,1.11029 m -5.463837,5.46384 0.55265,-0.55265 m -2.233727,2.23373 -4.049459,4.04946 m -3.998724,3.99872 0.244346,-0.24434 m 22.364738,-21.96562 -0.392544,0.39254 m -3.477925,3.47793 0.59403,-0.59403 m -2.947505,2.94751 -1.599034,1.59903 m -4.605439,4.60544 0.730496,-0.7305 m -2.408245,2.40825 -1.756389,1.75638 m -2.895369,2.89537 0.83834,-0.83834 m -4.230988,4.23099 -0.207312,0.20732 m 22.2101,-21.81098 0.30995,-0.30995 m -3.518216,3.51821 -0.35966,0.35966 m -8.146861,8.14686 5.716583,-5.71658 m -7.505443,7.50544 -1.188082,1.18809 m -4.091718,4.09171 0.596171,-0.59617 m -3.579919,3.57992 -0.17005,0.17005 m 22.211921,-21.8128 0.197439,-0.19743 m -3.731803,3.7318 -0.153647,0.15364 m -7.733946,7.73395 5.227033,-5.22703 m -7.116259,7.11626 -0.988444,0.98844 m -4.922441,4.92244 0.640996,-0.64099 m -3.200979,3.20097 -0.157016,0.15702 m 22.114317,-21.71519 0.181284,-0.18129 m -6.473502,6.4735 -4.405828,4.40583 m -3.104396,3.1044 0.851515,-0.85152 m -6.036403,6.03641 -0.562664,0.56266 m -2.254282,2.25428 0.138751,-0.13875 m 22.000995,-21.60187 -0.177462,0.17746 m -9.646156,9.64616 3.283588,-3.28359 m -6.138471,6.13847 -0.876936,0.87694 m -6.614155,6.61415 0.726122,-0.72612 m -2.262335,2.26233 -0.120305,0.12031 m 21.797846,-21.39873 0.18245,-0.18245 m -12.308316,12.30832 -0.802287,0.80229 m -8.556059,8.55606 2.090752,-2.09076 m 19.703874,-19.30475 -0.231554,0.23156 m -6.814976,6.81497 0.407423,-0.40742 m -5.005892,5.00589 -1.132858,1.13286 m -8.666973,8.66697 1.785201,-1.7852 m 19.779625,-19.3805 -0.27269,0.27269 m -7.605479,7.60548 1.210602,-1.2106 m -4.051957,4.05195 -1.491326,1.49133 m -9.003002,9.003 1.486808,-1.48681 m 19.847039,-19.44791 -0.300836,0.30083 m -11.461604,11.46161 5.066413,-5.06642 m -9.363953,9.36396 -0.07052,0.0705 m -4.852372,4.85237 1.25786,-1.25786 m 19.810567,-19.41144 -0.380038,0.38003 m -10.89955,10.89955 4.589543,-4.58954 m -9.213367,9.21337 -0.228766,0.22876 m -4.57543,4.57543 1.008362,-1.00836 m 19.786356,-19.38723 -0.460797,0.4608 m -10.337495,10.33749 4.137761,-4.13776 m -9.110626,9.11062 -0.310336,0.31034 m -4.350769,4.35077 0.82681,-0.82681 m 19.712476,-19.31335 -0.563989,0.56399 m -9.772921,9.77292 3.691633,-3.69164 m -8.998123,8.99813 -0.388499,0.3885 m -4.144931,4.14493 0.649715,-0.64972 m 19.522885,-19.12376 -0.646474,0.64647 m -6.2167,6.2167 0.344406,-0.3444 m -2.151365,2.15136 -1.094141,1.09414 m -6.089631,6.08964 0.487645,-0.48765 m -3.917125,3.91712 -0.526759,0.52676 m 19.113662,-18.71454 0.751225,-0.75122 m -6.378205,6.3782 -0.219919,0.21992 m -2.911218,2.91122 0.763455,-0.76345 m -6.353704,6.3537 -0.628636,0.62864 m -3.774204,3.7742 0.431515,-0.43151 m 18.980509,-18.58139 -0.886422,0.88642 m -5.281059,5.28106 0.624448,-0.62445 m -3.054039,3.05404 -0.643283,0.64328 m -6.214413,6.21442 1.38246,-1.38246 m -4.618911,4.61891 -0.358348,0.35835 m 17.941357,-17.54224 0.975051,-0.97505 m -4.454941,4.45494 -1.278057,1.27806 m -3.195619,3.19562 0.552456,-0.55246 m -4.878356,4.87836 -1.884041,1.88404 m -3.415394,3.41539 0.48172,-0.48172 m 17.789851,-17.39073 -4.962619,4.96262 m -3.505037,3.50504 0.461629,-0.46163 m -4.372312,4.37231 -2.318242,2.31824 m -3.212534,3.21254 0.687258,-0.68726 m 16.945711,-16.54659 -4.150255,4.15026 m -3.862675,3.86267 0.402536,-0.40253 m -4.136923,4.13692 -2.573406,2.5734 m -2.913594,2.9136 1.503962,-1.50396 m 14.999646,-14.60053 -2.832628,2.83263 m -4.271013,4.27102 0.348047,-0.34805 m -3.874755,3.87475 -0.780992,0.78099 m -4.533934,4.53394 2.925615,-2.92562 m 11.956517,-11.55739 -0.639071,0.63907 m -5.234008,5.23401 0.304718,-0.30472 m -3.689191,3.68919 -0.394374,0.39438 m -4.259406,4.2594 1.726412,-1.72641 m 6.74065,-6.34153 -0.270165,0.27017 m -3.600712,3.60071 0.367247,-0.36725 m -3.37162,3.37162 -1.078597,1.0786 m 7.842325,-7.4432 0.235079,-0.23508 m -3.318989,3.31899 -0.276073,0.27607 m 3.528691,-3.12957 0.189735,-0.18974 m -3.121404,3.12141 -0.307927,0.30793 m 3.344385,-2.94527 0.20831,-0.20831 m -2.923819,2.92382 -0.342852,0.34285 m 3.16315,-2.76402 0.226885,-0.22689 m -2.739783,2.73979 -0.368034,0.36803 m 2.997733,-2.59861 0.204792,-0.20479 m -2.452457,2.45245 -0.468126,0.46813 m 2.724155,-2.32503 0.284255,-0.28426 m -2.087634,2.08764 -0.58043,0.58043 m 2.437183,-2.03806 0.31871,-0.31871 m -1.77353,1.77353 -0.603282,0.60328 m 0.400013,-8.9e-4 1.950072,-1.95007 m 0.07397,0.32515 -1.515146,1.51515 m 0.529662,-0.13054 0.762567,-0.76257"
         inkscape:connector-curvature="0" />
    </g>
  </g>
</svg>
