<?xml version="1.0" encoding="UTF-8" standalone="no"?>
<!-- Created with Inkscape (http://www.inkscape.org/) -->

<svg
   xmlns:dc="http://purl.org/dc/elements/1.1/"
   xmlns:cc="http://creativecommons.org/ns#"
   xmlns:rdf="http://www.w3.org/1999/02/22-rdf-syntax-ns#"
   xmlns:svg="http://www.w3.org/2000/svg"
   xmlns="http://www.w3.org/2000/svg"
   xmlns:sodipodi="http://sodipodi.sourceforge.net/DTD/sodipodi-0.dtd"
   xmlns:inkscape="http://www.inkscape.org/namespaces/inkscape"
   width="50mm"
   height="50mm"
   viewBox="0 0 50 50"
   version="1.1"
   id="svg1586"
   inkscape:version="0.92.2 2405546, 2018-03-11"
   sodipodi:docname="50.svg">
  <sodipodi:namedview
     id="base"
     pagecolor="#ffffff"
     bordercolor="#666666"
     borderopacity="1.0"
     inkscape:pageopacity="0.0"
     inkscape:pageshadow="2"
     inkscape:zoom="1.1678255"
     inkscape:cx="88.881358"
     inkscape:cy="81.91853"
     inkscape:document-units="mm"
     inkscape:current-layer="layer1"
     showgrid="false"
     inkscape:window-width="1366"
     inkscape:window-height="703"
     inkscape:window-x="0"
     inkscape:window-y="0"
     inkscape:window-maximized="1" />
  <defs
     id="defs1580" />
  <metadata
     id="metadata1583">
    <rdf:RDF>
      <cc:Work
         rdf:about="">
        <dc:format>image/svg+xml</dc:format>
        <dc:type
           rdf:resource="http://purl.org/dc/dcmitype/StillImage" />
        <dc:title></dc:title>
      </cc:Work>
    </rdf:RDF>
  </metadata>
  <g
     transform="translate(0,-247)"
     id="layer1"
     inkscape:groupmode="layer"
     inkscape:label="Layer 1">
    <g
       id="g980"
       transform="translate(-4.4808878,-3.5612758e-5)">
      <path
         id="path948"
         d="m 28.81822,296.27416 c -1.141972,-0.36514 -2.462018,-0.91672 -2.933437,-1.22573 -0.660764,-0.43314 -1.132647,-0.48279 -2.059793,-0.21678 -1.779316,0.51051 -3.996242,0.41993 -5.571855,-0.22767 -1.771427,-0.72809 -3.730836,-2.58772 -3.738461,-3.54811 -0.0033,-0.40668 0.675893,-2.06632 1.509163,-3.6881 l 1.515036,-2.94869 -0.976257,-1.93034 c -0.635361,-1.25631 -1.057147,-2.79695 -1.20791,-4.41209 -0.160832,-1.72303 -0.488772,-2.86078 -1.072709,-3.72161 -0.995584,-1.46769 -1.001421,-1.54854 -0.285806,-3.95927 0.585418,-1.97214 2.252549,-4.1951 3.425459,-4.56751 0.988575,-0.3139 0.865727,-0.89301 -0.189438,-0.89301 -1.049633,0 -1.784563,-1.14322 -1.489924,-2.31764 0.142381,-0.56753 -0.05554,-1.05383 -0.6602,-1.62211 -1.421233,-1.33573 -1.796604,-2.63558 -1.132259,-3.92082 0.311077,-0.6018 0.728689,-1.19503 0.928024,-1.31827 0.199334,-0.12325 0.362426,-0.77524 0.362426,-1.44887 0,-0.80399 0.278192,-1.48703 0.809703,-1.98806 0.729116,-0.68731 1.069361,-0.73939 3.418743,-0.52334 1.434973,0.13197 2.609042,0.13856 2.609042,0.0147 0,-0.12392 -0.347409,-0.69539 -0.772017,-1.26994 -0.682712,-0.9238 -0.719865,-1.17062 -0.321168,-2.13355 0.247971,-0.5989 0.768926,-1.18991 1.157677,-1.31334 0.785905,-0.24954 1.946442,0.60604 2.289713,1.68803 0.276119,0.87035 0.919948,0.85155 2.079187,-0.0607 0.512473,-0.40328 1.3845,-0.73453 1.937834,-0.73612 2.043181,-0.006 4.547318,0.36786 4.91244,0.73314 0.563815,0.56404 1.274905,0.45742 2.293108,-0.34383 1.098584,-0.8645 2.35937,-0.92662 3.131369,-0.15429 0.868253,0.86859 0.677661,1.9207 -0.55694,3.07446 l -1.122444,1.04896 0.949707,0.74734 c 1.873073,1.47398 2.525193,4.15219 1.633853,6.71014 -0.354321,1.01684 -0.21931,1.33225 1.92384,4.49454 1.775857,2.62034 2.482818,4.06063 3.08007,6.275 1.272567,4.71815 0.951723,10.33332 -0.78199,13.68567 -0.54767,1.05898 -0.54647,1.25686 0.01678,2.77725 0.333562,0.90036 0.494466,1.74908 0.357563,1.88605 -0.136908,0.13696 -0.929786,-0.0185 -1.761958,-0.34557 -1.82033,-0.71534 -1.932864,-0.59387 -2.257269,2.43659 -0.270056,2.5228 -1.418088,4.84357 -2.722667,5.50394 -1.336825,0.67668 -6.284306,0.54035 -8.726246,-0.24047 z"
         style="fill:none;stroke:#ff0000;stroke-width:0.1;stroke-miterlimit:4;stroke-dasharray:none"
         inkscape:connector-curvature="0" />
      <path
         id="path946"
         d="m 33.374269,295.38533 c 0.469027,-1.86953 -0.70552,-2.68553 -1.739601,-1.20857 -0.904779,1.29229 -0.722856,2.08 0.480383,2.08 0.800728,0 1.090986,-0.20088 1.259218,-0.87143 z"
         style="fill:none;stroke:#0000ff;stroke-width:0.1;stroke-miterlimit:4;stroke-dasharray:none"
         inkscape:connector-curvature="0" />
      <path
         id="path944"
         d="m 37.910453,295.2336 c 1.067995,-1.06845 1.688008,-2.83708 1.849945,-5.27713 0.0644,-0.97063 -0.04529,-1.41073 -0.336631,-1.35007 -0.833717,0.17362 -0.374226,-0.46018 1.119213,-1.54379 1.023482,-0.74263 1.901784,-1.86708 2.735733,-3.50245 1.106501,-2.16987 1.244096,-2.77529 1.387825,-6.10655 0.243823,-5.65116 -0.679877,-8.5942 -4.354561,-13.87425 -1.737762,-2.49693 -1.80105,-2.67015 -1.390589,-3.80573 1.104897,-3.05681 0.05235,-6.04508 -2.357964,-6.69437 -1.096078,-0.29527 -1.472016,-0.62296 -1.820395,-1.58678 -0.609278,-1.68562 -1.708302,-2.57016 -3.256431,-2.6209 -0.721493,-0.0237 -1.716657,-0.1524 -2.211475,-0.28609 -0.575788,-0.15557 -1.158774,-0.047 -1.619405,0.30155 -0.623914,0.47212 -0.638273,0.54615 -0.107849,0.55608 0.336538,0.007 0.758126,0.27288 0.936866,0.5924 0.255822,0.45731 0.478792,0.49859 1.047773,0.19395 0.545721,-0.29218 0.889254,-0.26091 1.402275,0.12764 0.391047,0.29617 0.488531,0.51948 0.229646,0.52608 -0.640673,0.0163 -0.560253,0.73148 0.08225,0.73148 0.436957,0 0.458798,0.16091 0.12217,0.90004 -0.457844,1.00527 -1.743907,1.21549 -2.423608,0.39617 -0.283403,-0.34163 -0.865587,-0.44383 -1.807929,-0.31738 -1.146262,0.15381 -1.459487,0.0565 -1.786744,-0.55527 l -0.396822,-0.74178 -1.668985,0.73858 c -1.469501,0.6503 -1.903463,0.69146 -3.630777,0.34443 -1.372496,-0.27576 -2.173081,-0.28103 -2.665174,-0.0175 -0.750944,0.40205 -1.518095,1.99214 -1.20536,2.49837 0.10365,0.16777 -0.219072,0.90582 -0.717162,1.6401 -0.498086,0.73427 -0.905614,1.60041 -0.905614,1.92474 0,0.86146 0.98088,2.12162 2.091084,2.68646 1.276209,0.6493 8.576221,1.11159 9.857491,0.62425 1.652542,-0.62855 3.044381,-3.59642 1.565821,-3.33885 -0.602459,0.10495 -0.634034,0.042 -0.225839,-0.45002 0.597755,-0.72054 1.602351,-0.73525 2.185758,-0.032 0.36135,0.43559 0.352101,0.54003 -0.04782,0.54003 -0.682032,0 -1.489964,2.37901 -1.433195,4.22015 0.03833,1.24322 -0.113218,1.62496 -0.832208,2.09626 -0.48349,0.31692 -1.33488,0.52395 -1.89197,0.46006 -0.842065,-0.0966 -1.031428,-0.30693 -1.122758,-1.24722 -0.105359,-1.0847 -0.192184,-1.14135 -2.118186,-1.38208 -2.098346,-0.26229 -2.612666,-0.003 -2.62466,1.32184 -0.003,0.33483 -0.16745,0.70891 -0.365377,0.83128 -0.641475,0.39662 -0.388902,0.89867 1.257345,2.4993 1.582073,1.53824 1.612252,1.61031 1.388903,3.31673 -0.440471,3.36528 -2.444012,5.65753 -4.769256,5.45651 l -1.295737,-0.11202 0.104107,1.44006 c 0.386818,5.35074 3.516164,8.88042 7.873202,8.88042 0.857554,0 1.559188,0.17117 1.559188,0.38038 0,0.66544 -3.873383,0.0288 -5.558988,-0.91369 l -1.579533,-0.88318 -0.929085,1.79151 c -1.087574,2.09712 -1.085253,2.08509 -0.401947,2.08509 0.289928,0 0.700475,0.32401 0.91233,0.72003 0.216888,0.40543 0.753498,0.72004 1.228135,0.72004 1.277706,0 1.770074,0.85227 1.561553,2.70302 l -0.182205,1.61717 h 1.365835 c 1.875624,0 2.503953,-0.30299 2.50631,-1.20857 0.0052,-1.99744 0.839057,-3.61819 2.918748,-5.67305 1.179409,-1.16534 2.219279,-2.11879 2.310822,-2.11879 0.605646,0 -0.09428,1.04674 -1.634746,2.44477 -1.703488,1.54597 -1.76878,1.67046 -1.203762,2.29506 0.328581,0.36323 0.957346,0.66042 1.397252,0.66042 1.525587,0 1.914803,1.39853 1.196366,4.29881 -0.07066,0.28526 0.116626,0.57327 0.41619,0.64004 0.348047,0.0776 0.802726,-0.43457 1.259538,-1.41869 0.469807,-1.01212 0.98054,-1.57795 1.489829,-1.65056 1.057481,-0.15077 1.945619,1.17266 1.679677,2.50292 -0.199882,0.99985 -0.164438,1.02773 1.306677,1.02773 1.18165,0 1.735664,-0.22363 2.534877,-1.02316 z"
         style="fill:none;stroke:#0000ff;stroke-width:0.1;stroke-miterlimit:4;stroke-dasharray:none"
         inkscape:connector-curvature="0" />
      <path
         id="path942"
         d="m 33.551364,280.68347 c -1.471236,-0.76192 -2.692938,-1.73488 -3.488217,-2.77799 -1.072892,-1.40724 -1.201933,-1.80078 -1.045557,-3.18871 0.09811,-0.87083 0.524566,-2.01034 0.947669,-2.53225 0.423101,-0.52191 1.250612,-1.66916 1.83891,-2.54947 0.819088,-1.22566 1.069631,-1.42337 1.069631,-0.8441 0,0.41605 -0.57745,1.4479 -1.283227,2.29301 -1.087801,1.30256 -1.197409,1.58461 -0.719736,1.85203 0.309923,0.17352 0.563493,0.63145 0.563493,1.01763 0,0.45346 0.245807,0.70214 0.69403,0.70214 1.663391,0 2.186782,1.83216 1.297101,4.54056 -0.328642,1.00047 0.889202,1.56779 1.427618,0.66505 0.957533,-1.6055 1.741612,-2.32548 2.532533,-2.32548 0.985495,0 1.71987,1.08417 1.363564,2.01307 -0.156781,0.40873 -0.102105,0.54003 0.15792,0.37926 0.568948,-0.35178 1.883797,-4.02645 1.883797,-5.26472 0,-0.57491 0.187501,-1.16123 0.416661,-1.30292 0.648463,-0.40093 0.114685,3.14363 -0.777108,5.16052 -1.617244,3.65754 -3.095022,4.12207 -6.879082,2.16237 z"
         style="fill:none;stroke:#0000ff;stroke-width:0.1;stroke-miterlimit:4;stroke-dasharray:none"
         inkscape:connector-curvature="0" />
      <path
         id="path940"
         d="m 37.479086,280.68414 c 0.206257,-0.24862 0.490066,-0.91068 0.630697,-1.47125 0.229478,-0.91467 0.171559,-1.00678 -0.564727,-0.89802 -0.952822,0.14074 -2.353547,1.84408 -1.994452,2.42535 0.33026,0.53459 1.465864,0.50157 1.928482,-0.0561 z"
         style="fill:none;stroke:#0000ff;stroke-width:0.1;stroke-miterlimit:4;stroke-dasharray:none"
         inkscape:connector-curvature="0" />
      <path
         id="path938"
         d="m 33.247535,277.67399 c 0.353828,-1.07256 0.334539,-1.38378 -0.113553,-1.83206 -0.690742,-0.69103 -1.841434,-0.33908 -2.327715,0.71196 -0.306147,0.66169 -0.211016,0.97319 0.543412,1.77935 1.077922,1.15186 1.329175,1.06458 1.897856,-0.65925 z"
         style="fill:none;stroke:#0000ff;stroke-width:0.1;stroke-miterlimit:4;stroke-dasharray:none"
         inkscape:connector-curvature="0" />
      <path
         id="path936"
         d="m 30.722551,275.17178 c 0.463234,-1.40418 0.32043,-1.79905 -0.532238,-1.47172 -0.355452,0.13629 -0.555322,0.6706 -0.555322,1.48438 0,1.63668 0.545519,1.63025 1.08756,-0.0128 z"
         style="fill:none;stroke:#0000ff;stroke-width:0.1;stroke-miterlimit:4;stroke-dasharray:none"
         inkscape:connector-curvature="0" />
      <path
         id="path934"
         d="m 22.31768,267.21538 c -0.519163,-0.51937 -0.179106,-0.67325 1.197553,-0.54191 0.790609,0.0754 1.347842,0.28222 1.238298,0.45953 -0.231092,0.37408 -2.081716,0.43666 -2.435851,0.0824 z"
         style="fill:none;stroke:#0000ff;stroke-width:0.1;stroke-miterlimit:4;stroke-dasharray:none"
         inkscape:connector-curvature="0" />
      <path
         id="path932"
         d="m 23.15737,256.02918 c 0,-0.56923 1.366699,-1.62187 1.776665,-1.3684 0.56008,0.3463 0.466996,1.27408 -0.127826,1.27408 -0.280704,0 -0.766525,0.0983 -1.079603,0.21853 -0.313082,0.12019 -0.569236,0.0643 -0.569236,-0.12421 z"
         style="fill:none;stroke:#0000ff;stroke-width:0.1;stroke-miterlimit:4;stroke-dasharray:none"
         inkscape:connector-curvature="0" />
      <path
         id="path930"
         d="m 24.859246,255.35734 c -0.119584,-0.11963 -0.42997,-0.13242 -0.689748,-0.0284 -0.287077,0.11493 -0.201806,0.20024 0.217422,0.21751 0.379358,0.0157 0.591907,-0.0695 0.472326,-0.18909 z"
         style="fill:none;stroke:#0000ff;stroke-width:0.1;stroke-miterlimit:4;stroke-dasharray:none"
         inkscape:connector-curvature="0" />
      <path
         id="path928"
         d="m 17.309518,255.18599 c -0.346372,-0.20182 -0.629768,-0.60192 -0.629768,-0.88909 0,-0.70582 1.307022,-0.66669 1.580903,0.0473 0.477548,1.24499 0.185084,1.50382 -0.951135,0.84176 z"
         style="fill:none;stroke:#0000ff;stroke-width:0.1;stroke-miterlimit:4;stroke-dasharray:none"
         inkscape:connector-curvature="0" />
      <path
         id="path926"
         d="m 17.759353,254.49479 c 0,-0.198 -0.171498,-0.36001 -0.381107,-0.36001 -0.209608,0 -0.281021,0.16201 -0.158694,0.36001 0.122326,0.19802 0.293824,0.36002 0.381107,0.36002 0.08728,0 0.158694,-0.162 0.158694,-0.36002 z"
         style="fill:none;stroke:#0000ff;stroke-width:0.1;stroke-miterlimit:4;stroke-dasharray:none"
         inkscape:connector-curvature="0" />
      <path
         id="path924"
         d="m 28.688434,294.36664 c 0.373406,-1.39393 0.248057,-2.44456 -0.317562,-2.6617 -1.300479,-0.49924 -2.536168,2.17063 -1.392005,3.0076 0.927823,0.67872 1.464162,0.5702 1.709567,-0.3459 z"
         style="fill:none;stroke:#0000ff;stroke-width:0.1;stroke-miterlimit:4;stroke-dasharray:none"
         inkscape:connector-curvature="0" />
      <path
         id="path922"
         d="m 19.936499,293.34306 c 0.221722,-0.41446 0.30274,-1.15371 0.180043,-1.64278 -0.177427,-0.70722 -0.417386,-0.86614 -1.172418,-0.7765 -1.299428,0.15427 -1.965903,1.9743 -0.985573,2.69143 0.92888,0.67949 1.511754,0.5993 1.977948,-0.27215 z"
         style="fill:none;stroke:#0000ff;stroke-width:0.1;stroke-miterlimit:4;stroke-dasharray:none"
         inkscape:connector-curvature="0" />
      <path
         id="path920"
         d="m 26.235611,292.49991 c 0.299464,-1.59695 -0.122765,-2.36754 -0.79403,-1.44915 -0.513013,0.70188 -0.647359,2.04328 -0.244958,2.44583 0.500432,0.50065 0.814743,0.19913 1.038988,-0.99668 z"
         style="fill:none;stroke:#0000ff;stroke-width:0.1;stroke-miterlimit:4;stroke-dasharray:none"
         inkscape:connector-curvature="0" />
      <path
         id="path918"
         d="m 17.048525,291.73308 c 0.600371,-1.57975 0.450115,-2.3815 -0.421989,-2.25171 -1.147535,0.1708 -1.616115,1.12407 -1.104603,2.24719 0.537154,1.17941 1.079474,1.18101 1.526592,0.005 z"
         style="fill:none;stroke:#0000ff;stroke-width:0.1;stroke-miterlimit:4;stroke-dasharray:none"
         inkscape:connector-curvature="0" />
      <path
         id="path916"
         d="m 43.657081,288.06635 c -0.007,-0.14851 -0.221001,-0.64549 -0.475526,-1.10441 -0.426684,-0.76932 -0.501812,-0.78734 -0.963299,-0.23106 -0.43429,0.52351 -0.409888,0.66965 0.184446,1.10441 0.754852,0.55219 1.274065,0.64784 1.254379,0.23106 z"
         style="fill:none;stroke:#0000ff;stroke-width:0.1;stroke-miterlimit:4;stroke-dasharray:none"
         inkscape:connector-curvature="0" />
      <path
         id="path914"
         d="m 18.642015,275.04327 c 0.268801,-0.4351 -1.848568,-1.9404 -2.319678,-1.64912 -0.408612,0.25264 -0.487589,1.37627 -0.122409,1.7416 0.359072,0.35922 2.206252,0.28928 2.442087,-0.0925 z"
         style="fill:none;stroke:#0000ff;stroke-width:0.1;stroke-miterlimit:4;stroke-dasharray:none"
         inkscape:connector-curvature="0" />
      <path
         id="path912"
         d="m 16.245044,272.61952 c 0.353638,-0.0925 0.798543,-0.52276 0.988676,-0.95609 0.340729,-0.77655 1.134861,-0.91249 3.224642,-0.55201 0.58047,0.10013 0.741522,-0.10179 0.832327,-1.04352 0.093,-0.96448 -0.126195,-1.38707 -1.259537,-2.4284 -0.754672,-0.69339 -1.623756,-1.26149 -1.931302,-1.26244 -0.952308,-0.003 -2.74224,2.24442 -3.397015,4.26511 -0.51549,1.59084 -0.547241,2.09292 -0.18213,2.88013 l 0.442191,0.95342 0.319584,-0.84399 c 0.175771,-0.4642 0.608925,-0.91969 0.962564,-1.01221 z"
         style="fill:none;stroke:#0000ff;stroke-width:0.1;stroke-miterlimit:4;stroke-dasharray:none"
         inkscape:connector-curvature="0" />
      <path
         id="path910"
         d="m 20.28411,273.38505 c 0.413827,-0.77357 0.409436,-0.98456 -0.02915,-1.40143 -1.008743,-0.9588 -2.058686,-1.02475 -2.522134,-0.15843 -0.376163,0.70316 -0.308555,0.90895 0.537952,1.63738 1.219739,1.04961 1.414374,1.04211 2.013338,-0.0775 z"
         style="fill:none;stroke:#0000ff;stroke-width:0.1;stroke-miterlimit:4;stroke-dasharray:none"
         inkscape:connector-curvature="0" />
      <path
         id="path908"
         d="m 26.906548,264.35674 c 0.547831,-0.21032 0.792768,-1.59795 0.35871,-2.03219 -0.115791,-0.11583 -0.682583,-0.046 -1.259538,0.15523 -0.766154,0.26719 -1.049011,0.59903 -1.049011,1.23066 0,0.8858 0.711578,1.12166 1.949839,0.6463 z"
         style="fill:none;stroke:#0000ff;stroke-width:0.1;stroke-miterlimit:4;stroke-dasharray:none"
         inkscape:connector-curvature="0" />
      <path
         id="path906"
         d="m 18.838957,263.88467 c 0,-0.18181 0.09105,-0.56793 0.202325,-0.85803 0.149661,-0.39018 -0.141068,-0.56758 -1.116954,-0.68155 -1.376016,-0.16071 -1.873872,0.28846 -1.474307,1.33013 0.223489,0.58264 2.388936,0.7725 2.388936,0.20945 z"
         style="fill:none;stroke:#0000ff;stroke-width:0.1;stroke-miterlimit:4;stroke-dasharray:none"
         inkscape:connector-curvature="0" />
      <path
         id="path904"
         d="m 29.699641,252.59264 c -0.243015,-0.29294 -0.261163,-0.65537 -0.04958,-0.99005 0.488154,-0.77215 0.418041,-1.0735 -0.195008,-0.83815 -0.542929,0.20843 -0.74692,1.60307 -0.299888,2.05028 0.447974,0.44816 0.935519,0.24929 0.544472,-0.22208 z"
         style="fill:none;stroke:#0000ff;stroke-width:0.1;stroke-miterlimit:4;stroke-dasharray:none"
         inkscape:connector-curvature="0" />
      <path
         id="path902"
         d="m 26.603853,251.05583 c 0.02771,-1.27564 0.0271,-1.27612 -0.690119,-0.5586 -0.598374,0.59863 -0.640578,0.81131 -0.253573,1.27781 0.701429,0.84552 0.913204,0.68412 0.943692,-0.71921 z"
         style="fill:none;stroke:#0000ff;stroke-width:0.1;stroke-miterlimit:4;stroke-dasharray:none"
         inkscape:connector-curvature="0" />
      <path
         id="path900"
         d="m 23.099838,249.79955 c -0.226299,-0.68476 -0.469789,-1.46578 -0.54109,-1.73559 -0.1967,-0.74439 -1.200717,0.21009 -1.200717,1.14147 0,0.8859 1.450152,2.54256 1.863576,2.12896 0.159328,-0.15939 0.104534,-0.85007 -0.121769,-1.53484 z"
         style="fill:none;stroke:#0000ff;stroke-width:0.1;stroke-miterlimit:4;stroke-dasharray:none"
         inkscape:connector-curvature="0" />
      <path
         id="path898"
         d="m 37.798789,250.83188 c 0.904115,-0.84973 1.10242,-1.74366 0.383058,-1.72678 -0.443693,0.0104 -2.78897,1.96509 -2.78897,2.32448 0,0.50558 1.67469,0.0895 2.405912,-0.5977 z"
         style="fill:none;stroke:#0000ff;stroke-width:0.1;stroke-miterlimit:4;stroke-dasharray:none"
         inkscape:connector-curvature="0" />
      <path
         id="path896"
         d="m 23.885854,249.05261 -0.758846,-1.21812 0.225173,1.08005 c 0.395992,1.89939 0.518886,2.13014 0.920517,1.72834 0.256089,-0.25619 0.135552,-0.75171 -0.386844,-1.59027 z"
         style="fill:none;stroke:#0000ff;stroke-width:0.1;stroke-miterlimit:4;stroke-dasharray:none"
         inkscape:connector-curvature="0" />
      <path
         id="path894"
         d="m 28.195519,250.53461 c 0,-0.198 -0.07141,-0.36001 -0.158694,-0.36001 -0.08728,0 -0.258781,0.16201 -0.381107,0.36001 -0.122326,0.19801 -0.05091,0.36002 0.158694,0.36002 0.209609,0 0.381107,-0.16201 0.381107,-0.36002 z"
         style="fill:none;stroke:#0000ff;stroke-width:0.1;stroke-miterlimit:4;stroke-dasharray:none"
         inkscape:connector-curvature="0" />
      <path
         id="path1074"
         d="m 36.620896,249.63457 c 0.458585,-0.49502 1.05003,-0.90004 1.314331,-0.90004 0.364455,0 0.379733,-0.10085 0.06327,-0.41748 -0.3165,-0.31663 -0.771654,-0.18289 -1.88415,0.55363 -0.806757,0.53411 -1.370534,1.12699 -1.252834,1.31752 0.349778,0.56619 0.875206,0.40085 1.759421,-0.55363 z"
         style="fill:none;stroke:#0000ff;stroke-width:0.1;stroke-miterlimit:4;stroke-dasharray:none"
         inkscape:connector-curvature="0" />
      <path
         id="path878"
         style="fill:none;stroke:#0000ff;stroke-width:0.1"
         d="m 16.533455,252.22447 -0.817586,0.81758 m -0.131025,0.53015 1.570908,-1.57091 m 5.110129,-4.71101 -0.980921,0.98092 m -5.83949,5.83949 0.340459,-0.34045 m 6.834909,-6.43579 -0.181209,0.18121 m -1.378167,1.37817 0.206855,-0.20686 m 1.617687,-1.21856 -0.211872,0.21187 m 0.141069,0.25805 0.335969,-0.33597 m -7.64697,7.64697 -0.814283,0.81429 m -0.463735,0.86285 0.632864,-0.63286 m -8.06e-4,0.39993 -0.808536,0.80853 m 9.661955,-9.26283 0.07088,-0.0709 m -9.607716,9.60772 -0.245757,0.24576 m 9.935796,-9.53668 0.06256,-0.0626 m -3.698795,3.69879 -0.05896,0.059 m 0.341441,0.0577 0.09545,-0.0955 m -2.542573,2.54258 -0.368769,0.36877 m 3.15733,-2.75821 0.13195,-0.13195 m -2.832338,2.83234 -0.184405,0.1844 m 6.326865,-5.92774 0.05196,-0.052 m -2.06227,2.06227 -0.107124,0.10712 m -0.922048,0.92205 0.112432,-0.11243 m 3.124358,-2.72524 -0.06807,0.0681 m -2.778025,2.77803 0.851342,-0.85134 m 2.222296,-1.82318 -0.166373,0.16637 m -2.363546,2.36355 0.557995,-0.55799 m 2.262419,-1.8633 -0.354376,0.35437 m -2.118323,2.11833 1.233442,-1.23344 m 1.842258,-1.44314 -2.198516,2.19852 m 0.824325,-0.42521 2.248772,-2.24877 m 0.948004,-0.54888 -2.480819,2.48082 m 0.239263,0.15986 2.822595,-2.8226 m -0.944528,1.34365 -0.26622,0.26622 m -11.20731,11.20732 0.07806,-0.0781 m 11.759636,-11.36051 -0.5449,0.5449 m -11.125077,11.12507 0.148586,-0.14858 m 11.819404,-11.42029 -0.845523,0.84553 m -10.966166,10.96616 0.237453,-0.23745 m 11.835373,-11.43625 -1.108109,1.10811 m -10.877338,10.87734 0.453293,-0.4533 m 13.545826,-13.1467 -0.08759,0.0876 m -3.066514,3.06651 0.51493,-0.51493 m -10.579583,10.57959 -0.729661,0.72966 m 14.19891,-13.79979 0.108886,-0.10889 m -2.742916,2.74292 -1.257252,1.25725 m -10.48791,10.48791 1.206681,-1.20668 m 13.640777,-13.24165 -0.107013,0.10701 m -3.826549,3.82655 1.775834,-1.77584 m -4.787459,4.78746 -0.28867,0.28867 m -6.361223,6.36123 0.293092,-0.2931 m 13.661368,-13.26224 -0.0987,0.0987 m -3.755875,3.75588 1.593649,-1.59365 m -4.184072,4.18407 -0.08187,0.0819 m -0.90416,0.90416 0.168545,-0.16855 m -6.060094,6.0601 -0.289897,0.28989 m -1.455021,1.45502 0.09285,-0.0928 m 15.337304,-14.93818 -0.09368,0.0937 m -3.690422,3.69042 1.736012,-1.73601 m -11.298955,11.29895 -0.23192,0.23192 m 13.808397,-13.40927 0.103688,-0.10369 m -1.726626,1.72663 -0.103158,0.10315 m -1.898503,1.89851 0.586498,-0.5865 m -3.639821,3.63982 -0.346423,0.34642 m -6.430783,6.43079 0.241977,-0.24198 m -2.122058,2.12206 -0.100986,0.10098 M 32.046,248.6856 l 0.07009,-0.0701 m -1.730433,1.73043 -0.241309,0.24131 m -1.716105,1.71611 0.225311,-0.22531 m -9.824099,9.8241 -0.262468,0.26246 m -2.145315,2.14532 0.14355,-0.14355 m 15.88399,-15.48487 -0.06501,0.065 m -2.211923,2.21193 0.458697,-0.4587 m -11.438192,11.43819 -0.328604,0.32861 m -2.217048,2.21704 0.181248,-0.18124 m 14.02365,-13.62453 -0.901986,0.90198 m -10.825317,10.82532 0.431382,-0.43138 m -2.400014,2.40001 -0.232532,0.23253 m 16.060052,-15.66092 0.05676,-0.0568 m -2.546339,2.54633 -0.727793,0.7278 m -10.438343,10.43834 0.591537,-0.59154 m -2.435626,2.43563 -0.210825,0.21083 m 15.974557,-15.57544 0.06003,-0.06 m -2.658348,2.65834 -0.726539,0.72654 m -10.582253,10.58226 0.942325,-0.94233 m -2.441205,2.44121 -0.223138,0.22313 m 15.867459,-15.46833 0.06279,-0.0628 m -2.631934,2.63194 -0.864273,0.86427 m -9.774989,9.77499 0.368613,-0.36861 m -1.205504,1.2055 -0.400008,0.40001 m -1.076721,1.07672 0.357578,-0.35758 m 15.50542,-15.1063 -0.117292,0.1173 m -3.725491,3.72549 1.244945,-1.24495 m -10.222158,10.22216 -0.108469,0.10847 m -2.724287,2.72429 1.118196,-1.1182 m -2.48276,2.48276 -1.051515,1.05152 m 18.140456,-17.74134 0.289493,-0.28949 m -2.893853,2.89385 -0.888328,0.88833 m -9.135439,9.13544 0.116899,-0.1169 m -2.204804,2.2048 -4.36372,4.36372 m 19.268669,-18.86954 0.718889,-0.71889 m -13.030836,13.03084 -0.132049,0.13204 m -6.797332,6.79734 4.137403,-4.13741 m 16.600092,-16.20097 -1.307249,1.30725 m -12.259866,12.25987 0.147199,-0.1472 m -3.467212,3.46721 -0.45255,0.45255 m -3.67904,3.67904 0.515297,-0.51529 m 21.493121,-21.094 -2.11845,2.11845 m -12.084972,12.08497 0.182005,-0.18201 m -3.699836,3.69984 -0.338333,0.33833 m -4.23917,4.23917 0.369016,-0.36901 m 22.533652,-22.13453 -0.206041,0.20604 m -2.384657,2.38465 0.112263,-0.11226 m -11.758697,11.7587 -0.213658,0.21366 m -3.954995,3.95499 0.2492,-0.2492 m -4.649626,4.64963 -0.250088,0.25008 m 20.597265,-20.19814 0.184102,-0.1841 m -7.133351,7.13335 -0.307842,0.30784 m -4.38644,4.38645 0.253631,-0.25364 m -4.139071,4.13907 -0.164255,0.16426 m -5.160875,5.16087 0.348601,-0.3486 m 20.950436,-20.55131 -0.313272,0.31327 m -7.025045,7.02505 0.307379,-0.30738 m -4.4157,4.4157 -0.293605,0.2936 m -4.170754,4.17076 0.122158,-0.12216 m -5.25483,5.25483 -0.263322,0.26332 m 21.126322,-20.7272 1.469747,-1.46975 m -7.833719,7.83372 -0.461981,0.46198 m -4.44181,4.44181 0.381066,-0.38106 m -4.524801,4.5248 -0.09537,0.0954 m -5.730154,5.73015 0.262073,-0.26207 m 24.418358,-24.01924 -0.06074,0.0607 m -1.563604,1.5636 0.94983,-0.94983 m -8.784456,8.78446 -0.592325,0.59232 m -4.36243,4.36244 0.504325,-0.50433 m -4.74884,4.74884 -0.06858,0.0686 m -5.861141,5.86114 0.182986,-0.18299 m 24.614984,-24.21586 -0.325688,0.32569 m -3.079135,3.07913 0.06833,-0.0683 m -6.108321,6.10832 -0.629101,0.6291 m -4.323071,4.32307 0.69828,-0.69828 m -10.889886,10.88989 -0.116906,0.1169 m 24.670332,-24.27121 0.215697,-0.21569 m -3.238726,3.23872 -0.180933,0.18093 m -6.884829,6.88483 0.903317,-0.90331 m -4.065156,4.06515 -0.946914,0.94692 m -10.349038,10.34903 0.107761,-0.10776 m 24.790433,-24.39131 -0.148829,0.14883 m -3.221716,3.22172 0.546623,-0.54662 m -7.264144,7.26414 -0.533031,0.53303 m -3.831123,3.83112 1.440005,-1.44 m -11.673717,11.67372 -0.05816,0.0582 m 24.633065,-24.23394 0.189797,-0.1898 m -2.528182,2.52819 -0.674833,0.67483 m -9.69219,9.69219 2.16791,-2.16791 m -3.621387,3.62139 -0.157918,0.15791 m 11.568222,-11.1691 2.917788,-2.91778 m -10.882488,10.88249 -1.434879,1.43487 m -2.080623,2.08063 0.11942,-0.11942 m 14.178046,-13.77893 -2.519314,2.51932 m -9.302622,9.30262 0.90984,-0.90984 m -3.188431,3.18843 -0.146945,0.14694 m -9.059571,9.05958 2.023269,-2.02327 m 19.314136,-18.91502 -0.251725,0.25173 m -9.24438,9.24438 0.507592,-0.50759 m -2.982374,2.98237 -0.177105,0.17711 m -2.280534,2.28053 0.09189,-0.0919 m -5.095179,5.09518 -2.705839,2.70584 m 22.166472,-21.76735 0.194544,-0.19454 m -9.243055,9.24305 -0.343541,0.34354 m -2.539443,2.53945 0.15467,-0.15467 m -2.209254,2.20925 -0.172505,0.17251 m -6.049382,6.04938 0.500088,-0.50009 m -1.580845,1.58085 -0.738658,0.73865 m 22.309293,-21.91017 0.13599,-0.13599 m -9.497597,9.4976 -0.188666,0.18867 m -2.323458,2.32345 0.10554,-0.10554 m -2.105909,2.10591 -0.208042,0.20804 m -1.749503,1.74951 0.05634,-0.0563 m -4.084789,4.08479 -0.303059,0.30306 m -2.039707,2.0397 0.666036,-0.66603 m 21.896173,-21.49705 -0.07744,0.0774 m -9.785308,9.78531 0.124768,-0.12477 m -1.97439,1.97439 -0.137385,0.13739 m -2.213698,2.2137 0.162542,-0.16255 m -2.122347,2.12235 -0.07219,0.0722 m -4.18266,4.18266 0.21462,-0.21462 m -1.770157,1.77016 -0.622138,0.62213 m 22.60608,-22.20695 0.07306,-0.0731 m -9.971295,9.9713 -0.07529,0.0753 m -1.699483,1.69948 0.205845,-0.20584 m -4.649157,4.64915 -0.06994,0.0699 m -3.988062,3.98806 0.162766,-0.16276 m -1.834846,1.83484 -0.657172,0.65717 m 22.728923,-22.3298 0.05636,-0.0564 m -10.166926,10.16693 -1.28606,1.28606 m -6.554725,6.55472 0.117279,-0.11728 m -2.197059,2.19706 -0.114457,0.11446 m -2.510003,2.51 0.775512,-0.77551 m 11.633766,-11.23464 -0.292618,0.29261 m -6.007388,6.00739 0.146211,-0.14621 m -1.074384,1.07438 -0.246208,0.24621 m -2.198684,2.19869 0.100255,-0.10026 m -1.772074,1.77207 -0.159709,0.15971 m -0.831353,0.83136 0.126662,-0.12667 m 6.040187,-5.64106 -1.084212,1.08421 m -2.207317,2.20732 0.110849,-0.11085 m -1.692789,1.69279 -0.09466,0.0947 m -1.124447,1.12445 0.0793,-0.0793 m 5.860349,-5.46123 -0.746033,0.74603 m -2.180129,2.18013 0.121443,-0.12144 m -1.53687,1.53687 -0.106254,0.10625 m -1.44616,1.44616 0.06056,-0.0606 m 5.736615,-5.33749 -0.514193,0.51419 m -2.110309,2.11031 0.127917,-0.12792 m -1.374165,1.37417 -0.07763,0.0776 m 3.395269,-2.99615 0.333933,-0.33393 m -1.987616,1.98761 -0.254929,0.25493 m -1.068591,1.06859 0.230178,-0.23017 m -2.353734,2.35373 -0.05874,0.0587 m 23.44545,-23.04633 0.05688,-0.0569 m -18.198906,18.19891 -0.298019,0.29802 m -2.488956,2.48895 1.390328,-1.39032 m -3.798675,3.79867 -0.05441,0.0544 m 23.519919,-23.1208 0.0643,-0.0643 m -18.840763,18.84076 -1.530636,1.53064 m -3.164882,3.16488 0.05583,-0.0558 m 23.616028,-23.2169 -0.06482,0.0648 m -19.656174,19.65617 0.251237,-0.25124 m -4.09691,4.09692 -0.05726,0.0572 m 23.637822,-23.2387 0.0812,-0.0812 m -23.612405,23.61241 -0.05329,0.0533 m 23.663208,-23.26409 0.100787,-0.10079 m -23.6314,23.6314 -0.05899,0.059 m 23.685226,-23.2861 0.103467,-0.10347 m -23.638709,23.63871 -0.07638,0.0764 m 23.633832,-23.23471 0.121344,-0.12134 m -23.587805,23.5878 -0.09948,0.0995 m 23.588155,-23.18904 0.155628,-0.15562 m -23.553308,23.5533 -0.09271,0.0927 m 23.527347,-23.12823 0.131229,-0.13123 m -23.474871,23.47487 -0.08594,0.0859 m 23.380137,-22.98102 0.187175,-0.18717 m -23.390377,23.39037 -0.07917,0.0792 m 23.13056,-22.73144 0.381021,-0.38102 m -23.303358,23.30336 -0.104042,0.10404 m 23.055957,-22.65683 0.219587,-0.21959 m -23.041601,23.0416 -0.112186,0.11219 m 22.781715,-22.3826 0.359204,-0.3592 m -22.898833,22.89883 -0.12033,0.12033 m 22.507408,-22.10828 0.263242,-0.26325 m -22.52042,22.52042 -0.1314,0.1314 m 22.217264,-21.81814 0.486662,-0.48666 m -22.442626,22.44263 -0.127244,0.12724 m 22.105443,-21.70632 0.225478,-0.22548 m -22.073777,22.07378 -0.123089,0.12309 m 22.07384,-21.67472 0.181716,-0.18172 m -21.957321,21.95733 -0.164179,0.16418 m 22.078501,-21.67938 0.157519,-0.15752 m -21.903731,21.90373 -0.198232,0.19823 m 22.083161,-21.68404 0.148047,-0.14805 m -21.864867,21.86487 -0.232286,0.23229 m 22.087538,-21.68842 0.152205,-0.1522 m -7.092473,7.09247 -0.574612,0.57461 m -14.438602,14.4386 0.26634,-0.26634 m 21.981937,-21.58281 -0.133622,0.13362 m -7.806232,7.80623 0.614424,-0.61442 m -14.488398,14.4884 -0.300393,0.30039 M 39.86621,262.418 l 0.115039,-0.11504 m -8.628054,8.62805 -1.113722,1.11373 m -12.392776,12.39277 0.363349,-0.36335 m 21.913792,-21.51466 -0.09645,0.0965 m -10.101566,10.10157 0.745339,-0.74534 m -12.253509,12.25351 -0.992729,0.99273 m 22.763638,-22.36452 0.09502,-0.095 m -9.938236,9.93824 -0.724501,0.7245 m -11.181165,11.18116 0.185576,-0.18557 m -1.198716,1.19871 -0.423394,0.4234 m 23.34659,-22.94747 0.09291,-0.0929 m -9.942352,9.94235 -1.070122,1.07012 m -10.734505,10.73451 0.137189,-0.13719 m -1.836289,1.83629 -0.720211,0.72021 m 24.234552,-23.83543 0.0908,-0.0908 m -9.895023,9.89502 -0.321284,0.32128 m -1.076309,1.07631 0.221216,-0.22122 m -10.489852,10.48986 -0.0888,0.0888 m -2.770966,2.77097 0.40003,-0.40003 m 24.180055,-23.78094 -0.08997,0.09 m -11.387354,11.38736 0.17577,-0.17577 m -13.127874,13.12787 -0.496912,0.49691 m 24.995912,-24.59679 0.08949,-0.0895 m -11.577765,11.57777 -0.116488,0.11649 m -14.03643,14.03642 0.907645,-0.90764 m 24.982103,-24.58298 -0.08901,0.089 m -11.707954,11.70796 0.119531,-0.11954 m -13.161577,13.16158 -1.074541,1.07454 m 25.984083,-25.58496 0.08854,-0.0885 m -11.79959,11.79959 -0.117178,0.11717 m -14.405761,14.40576 1.608524,-1.60852 m 24.87307,-24.47395 -0.08806,0.0881 m -10.181097,10.1811 0.200007,-0.20001 m -1.797396,1.7974 -0.07793,0.0779 m -12.746901,12.7469 0.19671,-0.19671 m -1.780545,1.78055 -0.314748,0.31475 m 26.661444,-26.26233 0.08488,-0.0849 m -10.029435,10.02943 -0.550071,0.55007 m -1.389978,1.38998 0.113086,-0.11309 m -12.548866,12.54887 -0.06475,0.0648 m -2.194347,2.19434 0.20251,-0.20251 m 26.618507,-26.21938 -0.08199,0.082 m -11.900471,11.90047 2.058502,-2.0585 m -16.613346,16.61334 -0.14365,0.14365 m 26.759658,-26.36053 0.07795,-0.0779 m -9.734596,9.73459 -2.238601,2.2386 m -14.697681,14.69769 0.05813,-0.0581 m 26.769404,-26.37028 -0.0867,0.0867 m -9.652659,9.65266 0.228271,-0.22827 m -2.167411,2.16741 -0.285434,0.28543 m 12.025132,-11.62601 0.09545,-0.0954 m -9.407219,9.40722 -0.138791,0.13879 m -2.40866,2.40866 0.177139,-0.17714 m -12.516554,12.51655 -0.224146,0.22415 m 24.570676,-24.17155 0.104207,-0.10421 m -9.31846,9.31846 -0.10002,0.10002 m -2.513627,2.51363 0.137118,-0.13712 m -12.433475,12.43347 -0.421577,0.42158 m 24.693733,-24.29461 0.112959,-0.11296 m -11.81288,11.81288 -0.08924,0.0892 m -13.074854,13.07485 0.869644,-0.86965 m 24.25153,-23.8524 -0.109255,0.10925 m -11.750433,11.75044 0.08974,-0.0898 m -12.175032,12.17503 -1.287503,1.28751 m 25.271123,-24.872 0.10322,-0.10322 m -11.728444,11.72844 -0.08293,0.0829 m -12.313377,12.31337 0.38882,-0.38882 m -1.754517,1.75452 -0.905196,0.9052 m 26.440504,-26.04138 0.097,-0.097 m -11.675648,11.67564 -0.06646,0.0665 m -12.035564,12.03557 0.2591,-0.2591 m -2.181539,2.18154 -0.615681,0.61568 m 26.349875,-25.95076 0.10778,-0.10778 m -11.610874,11.61088 -0.06197,0.062 m -11.788572,11.78857 0.09488,-0.0949 m -2.457655,2.45765 -0.411756,0.41176 m 26.259247,-25.86013 0.118561,-0.11856 m -11.546102,11.54611 -0.05748,0.0575 m -14.552516,14.55252 0.315216,-0.31522 m 25.982743,-25.58362 -0.129341,0.12935 m -25.915545,25.91554 0.212044,-0.21205 m 25.951513,-25.55239 -0.11693,0.11693 m -11.294908,11.29491 0.05187,-0.0519 m -14.399476,14.39948 -0.145965,0.14596 m 25.919559,-25.52044 0.105286,-0.10528 m -10.126778,10.12678 -1.171772,1.17177 m -14.468145,14.46814 0.117205,-0.1172 m 25.768928,-25.36981 -0.09059,0.0906 m -11.094667,11.09466 0.639015,-0.63901 m -14.969611,14.96961 -0.112125,0.11213 m 25.645986,-25.24687 0.101435,-0.10143 m -10.744167,10.74416 -0.318989,0.31899 m -14.426114,14.42612 0.08561,-0.0856 m 25.523104,-25.12398 -0.112276,0.11228 m -10.817339,10.81733 0.143519,-0.14351 m -14.389817,14.38981 -0.130172,0.13017 m 25.302406,-24.90328 0.09919,-0.0992 M 20.219953,293.2399 18.9451,294.51476 m 25.103072,-24.70395 0.08567,-0.0857 m -23.964569,23.96456 -0.916243,0.91625 m 24.903739,-24.50462 0.07215,-0.0722 m -24.110325,24.11033 -0.557633,0.55763 m 24.695015,-24.29589 0.06802,-0.068 m -7.659324,7.65932 -0.761318,0.76132 m -1.852916,1.85291 0.115818,-0.11581 m -14.098341,14.09834 -0.155311,0.15531 m 24.42436,-24.02524 0.08211,-0.0821 m -7.165666,7.16567 -2.93165,2.93165 m -8.195814,8.19581 3.216455,-3.21645 m 15.14998,-14.75086 -0.07442,0.0744 m -3.426917,3.42692 0.172501,-0.1725 m -3.546342,3.54634 -0.31309,0.31309 m -2.711029,2.71103 0.640551,-0.64055 m -6.069084,6.06908 -3.984262,3.98427 m -4.553446,4.55344 0.08951,-0.0895 m 23.848854,-23.44973 -0.06626,0.0663 m -3.44456,3.44456 0.08047,-0.0805 m -3.233817,3.23382 -0.158508,0.1585 m -2.87813,2.87814 0.356802,-0.35681 m -9.145851,9.14585 -1.183922,1.18392 m -3.907474,3.90748 0.131517,-0.13152 m 23.522555,-23.12343 -0.05809,0.0581 m -3.604671,3.60467 0.130904,-0.1309 m -5.783907,5.78391 -0.170614,0.17061 m -10.520514,10.52051 1.557676,-1.55767 m -4.63594,4.63594 -0.154297,0.15429 m 23.255178,-22.85605 0.0571,-0.0571 m -3.740723,3.74072 -0.120954,0.12096 m -5.399653,5.39965 0.102697,-0.1027 m -9.196852,9.19686 -0.121844,0.12184 m -1.574854,1.57485 0.184883,-0.18488 m -2.920305,2.9203 -0.111542,0.11155 m 22.892331,-22.49321 0.07964,-0.0796 m -3.921417,3.92142 -0.08868,0.0887 m -14.358277,14.35828 0.144266,-0.14427 m -1.866612,1.86661 -0.128069,0.12807 m -2.340049,2.34005 0.119428,-0.11943 m 22.536126,-22.137 -0.126069,0.12607 m -4.158427,4.15842 0.158493,-0.15849 m -2.208144,2.20815 -0.157881,0.15788 m -2.343095,2.34309 0.0563,-0.0563 m -9.308602,9.3086 -0.280705,0.28071 m -1.971394,1.97139 0.162116,-0.16211 m -1.936075,1.93607 -0.165313,0.16532 m 22.203012,-21.80389 0.08769,-0.0877 m -4.339777,4.33978 -0.195021,0.19502 m -2.068075,2.06807 0.263974,-0.26397 m -11.527032,11.52703 -0.462468,0.46247 m -2.05702,2.05702 0.206268,-0.20627 m -1.461806,1.46181 -0.0701,0.0701 m 21.673653,-21.27454 0.0858,-0.0858 m -4.597128,4.59713 -0.153985,0.15399 m -3.448404,3.4484 1.777015,-1.77701 m -11.224988,11.22498 -0.694306,0.69431 m -2.922765,2.92276 1.169366,-1.16936 m 20.143594,-19.74447 -0.09497,0.095 m -5.210102,5.2101 0.450587,-0.45058 m -1.655509,1.6555 -1.388606,1.38861 m -10.532969,10.53297 1.051929,-1.05193 m -2.640239,2.64024 -0.947559,0.94756 m 20.89228,-20.49316 0.123552,-0.12355 m -5.323172,5.32317 -2.11968,2.11968 m -11.074774,11.07477 1.400099,-1.40009 m -2.71309,2.71309 -0.594216,0.59421 m 20.321093,-19.92197 0.15214,-0.15214 m -5.53176,5.53176 -1.572915,1.57292 m -9.931491,9.93149 0.224471,-0.22447 m -1.726416,1.72641 -0.204408,0.20441 m -1.289569,1.28957 0.355637,-0.35564 m 19.691013,-19.29189 -0.14689,0.14689 m -6.223458,6.22346 0.255229,-0.25523 m -10.395838,10.39584 -0.170053,0.17005 m -3.062479,3.06248 0.909208,-0.90921 m 18.856628,-18.4575 -0.157717,0.15771 m -16.306178,16.30618 0.179796,-0.17979 m -2.579624,2.57962 -0.61302,0.61302 m 19.332797,-18.93367 0.166294,-0.1663 m -16.114633,16.11464 -0.163091,0.16309 m -2.962229,2.96223 0.451799,-0.4518 m 18.810501,-18.41138 -0.195457,0.19545 m -15.96148,15.96149 0.138513,-0.13852 m -2.663911,2.66391 -0.315437,0.31544 m 18.7955,-18.39638 0.224619,-0.22462 m -15.961491,15.96149 -0.127025,0.12703 m -2.663193,2.66319 0.227535,-0.22753 m 18.504721,-18.1056 -0.211981,0.21198 m -15.794981,15.79498 0.119849,-0.11985 m -2.416037,2.41604 -0.160697,0.1607 m 18.242506,-17.84339 0.214128,-0.21413 m -15.887555,15.88756 -0.115165,0.11516 m -2.185503,2.18551 0.145107,-0.14511 m 18.035903,-17.63678 -0.221603,0.2216 m -15.790824,15.79083 0.12731,-0.12731 m -1.897965,1.89796 -0.129518,0.12952 m 17.665824,-17.2667 0.239563,-0.23957 m -15.988792,15.9888 -0.111612,0.11161 m -1.510635,1.51064 0.133596,-0.1336 m 17.435842,-17.03672 -0.223134,0.22313 m -17.054749,17.05475 1.246331,-1.24633 m 15.988212,-15.58909 -0.204967,0.20497 m -16.738022,16.73802 0.870415,-0.87042 M 45.020445,279.2155 44.8475,279.38845 m -16.43515,16.43515 0.517591,-0.51759 m 16.047164,-15.64804 -0.198438,0.19843 m -16.074762,16.07477 0.310457,-0.31046 m 15.870866,-15.47175 -0.175394,0.1754 m -13.209341,13.20934 0.368273,-0.36827 m -2.684831,2.68483 -0.188476,0.18847 m 15.635383,-15.23626 0.162594,-0.16259 m -12.369444,12.36944 -1.234497,1.2345 m -1.868152,1.86815 0.10286,-0.10286 m 15.277441,-14.87832 -0.194817,0.19482 m -11.923556,11.92356 0.207574,-0.20758 m -1.891347,1.89135 -1.260588,1.26059 m 14.579274,-14.18015 0.474309,-0.47431 m -13.926619,13.92662 -0.809398,0.80939 m 14.102585,-13.70346 0.337288,-0.33729 m -13.589325,13.58933 -0.504655,0.50465 m 13.284544,-12.88542 0.643991,-0.64399 m -13.281011,13.28101 -0.306028,0.30603 m 12.249539,-11.85042 1.037487,-1.03748 m -4.498961,4.49896 -0.114632,0.11463 m -8.331937,8.33194 0.170395,-0.1704 m 12.474008,-12.07488 -4.128774,4.12877 m -8.151977,8.15198 0.06395,-0.0639 m 11.871742,-11.47262 -3.484544,3.48454 m -6.114383,6.11439 0.132987,-0.13299 m 9.412146,-9.01303 -3.301485,3.30149 m -6.191058,6.19106 0.09997,-0.1 m 9.42792,-9.0288 -0.368021,0.36802 m -2.886466,2.88647 1.759196,-1.7592 m -7.986765,7.98677 -0.364519,0.36452 m 9.688626,-9.28951 0.215821,-0.21582 m -1.538482,1.53848 -0.305296,0.3053 m -1.455875,1.45587 0.196745,-0.19674 m -6.51007,6.51007 -0.883327,0.88333 m 10.43865,-10.03953 0.149616,-0.14962 m -1.440361,1.44036 -0.190746,0.19075 m -1.753206,1.7532 0.129618,-0.12961 m -6.390867,6.39086 -0.573,0.573 m 10.22268,-9.82355 0.0977,-0.0977 m -1.323948,1.32395 -0.10729,0.10729 m -2.072648,2.07265 0.08629,-0.0863 m -6.202335,6.20234 -0.330746,0.33074 m 9.973104,-9.57398 0.07938,-0.0794 m -3.580487,3.58049 -0.08047,0.0805 m -5.984464,5.98446 0.211623,-0.21162 m 9.5281,-9.12898 -0.05356,0.0536 m -3.756958,3.75696 0.07464,-0.0746 m -5.475754,5.47576 -0.117046,0.11704 m 0.411051,-0.0119 0.09598,-0.096 m 0.381178,0.018 -0.06611,0.0661 m 8.402176,-8.00305 0.372812,-0.37281 m -4.29903,4.29903 -0.09027,0.0903 m -3.974641,3.97464 0.07995,-0.0799 m 8.338993,-7.93987 -0.0903,0.0903 m -4.480329,4.48033 0.156192,-0.15619 m -3.521152,3.52115 -0.07229,0.0723 m 2.844119,-2.445 0.386899,-0.3869 m -2.59378,2.59378 -0.152056,0.15206 m 0.471302,-0.0722 2.028434,-2.02844 m -0.443261,0.84239 -0.948147,0.94814"
         inkscape:connector-curvature="0" />
    </g>
  </g>
</svg>
