<?xml version="1.0" encoding="UTF-8" standalone="no"?>
<!-- Created with Inkscape (http://www.inkscape.org/) -->

<svg
   xmlns:dc="http://purl.org/dc/elements/1.1/"
   xmlns:cc="http://creativecommons.org/ns#"
   xmlns:rdf="http://www.w3.org/1999/02/22-rdf-syntax-ns#"
   xmlns:svg="http://www.w3.org/2000/svg"
   xmlns="http://www.w3.org/2000/svg"
   xmlns:sodipodi="http://sodipodi.sourceforge.net/DTD/sodipodi-0.dtd"
   xmlns:inkscape="http://www.inkscape.org/namespaces/inkscape"
   width="75mm"
   height="75mm"
   viewBox="0 0 75 75"
   version="1.1"
   id="svg1586"
   inkscape:version="0.92.2 2405546, 2018-03-11"
   sodipodi:docname="75.svg">
  <sodipodi:namedview
     id="base"
     pagecolor="#ffffff"
     bordercolor="#666666"
     borderopacity="1.0"
     inkscape:pageopacity="0.0"
     inkscape:pageshadow="2"
     inkscape:zoom="2.335651"
     inkscape:cx="151.60477"
     inkscape:cy="190.57535"
     inkscape:document-units="mm"
     inkscape:current-layer="layer1"
     showgrid="false"
     inkscape:window-width="1366"
     inkscape:window-height="703"
     inkscape:window-x="0"
     inkscape:window-y="0"
     inkscape:window-maximized="1" />
  <defs
     id="defs1580" />
  <metadata
     id="metadata1583">
    <rdf:RDF>
      <cc:Work
         rdf:about="">
        <dc:format>image/svg+xml</dc:format>
        <dc:type
           rdf:resource="http://purl.org/dc/dcmitype/StillImage" />
        <dc:title></dc:title>
      </cc:Work>
    </rdf:RDF>
  </metadata>
  <g
     inkscape:label="Layer 1"
     inkscape:groupmode="layer"
     id="layer1"
     transform="translate(0,-222)">
    <g
       id="g4475">
      <path
         id="path4443"
         d="m 48.221521,225.92929 c 0.688602,-0.74303 1.576703,-1.35097 1.973572,-1.35097 0.547259,0 0.570199,-0.15137 0.095,-0.62663 -0.47525,-0.47527 -1.1587,-0.27452 -2.8292,0.831 -1.211411,0.8017 -2.057966,1.69162 -1.88123,1.9776 0.525219,0.84985 1.314191,0.60168 2.64191,-0.831 z"
         style="fill:none;stroke:#0000ff;stroke-width:0.1;stroke-miterlimit:4;stroke-dasharray:none" />
      <path
         id="path4441"
         d="m 35.570147,227.28026 c 0,-0.29721 -0.107231,-0.54039 -0.238293,-0.54039 -0.131061,0 -0.388579,0.24318 -0.572262,0.54039 -0.183682,0.29721 -0.07645,0.54039 0.238292,0.54039 0.314744,0 0.572263,-0.24318 0.572263,-0.54039 z"
         style="fill:none;stroke:#0000ff;stroke-width:0.1;stroke-miterlimit:4;stroke-dasharray:none" />
      <path
         id="path4439"
         d="m 29.098842,225.05576 -1.139468,-1.8284 0.338115,1.62116 c 0.594613,2.85099 0.779149,3.19735 1.382229,2.59425 0.384538,-0.38455 0.203542,-1.12832 -0.580876,-2.38701 z"
         style="fill:none;stroke:#0000ff;stroke-width:0.1;stroke-miterlimit:4;stroke-dasharray:none" />
      <path
         id="path4437"
         d="m 49.990221,227.72645 c 1.357601,-1.27544 1.655371,-2.61723 0.575191,-2.5919 -0.666239,0.0156 -4.187859,2.94961 -4.187859,3.48906 0,0.75887 2.514679,0.13438 3.612668,-0.89716 z"
         style="fill:none;stroke:#0000ff;stroke-width:0.1;stroke-miterlimit:4;stroke-dasharray:none" />
      <path
         id="path4435"
         d="m 27.918576,226.17693 c -0.339806,-1.02784 -0.705426,-2.20015 -0.81249,-2.60514 -0.29536,-1.11733 -1.802972,0.31535 -1.802972,1.71336 0,1.32973 2.177519,3.81639 2.798308,3.19558 0.239243,-0.23925 0.156966,-1.27596 -0.182846,-2.3038 z"
         style="fill:none;stroke:#0000ff;stroke-width:0.1;stroke-miterlimit:4;stroke-dasharray:none" />
      <path
         id="path4433"
         d="m 33.180133,228.06261 c 0.04161,-1.91474 0.04069,-1.91547 -1.036268,-0.83846 -0.898506,0.89854 -0.96188,1.21777 -0.380761,1.918 1.053252,1.26913 1.371249,1.02687 1.417029,-1.07954 z"
         style="fill:none;stroke:#0000ff;stroke-width:0.1;stroke-miterlimit:4;stroke-dasharray:none" />
      <path
         id="path4431"
         d="m 37.828705,230.36936 c -0.364906,-0.4397 -0.392157,-0.9837 -0.07444,-1.48606 0.733002,-1.159 0.627722,-1.61133 -0.292821,-1.25807 -0.815251,0.31285 -1.121559,2.40621 -0.450306,3.07748 0.672669,0.67269 1.404757,0.37419 0.817569,-0.33335 z"
         style="fill:none;stroke:#0000ff;stroke-width:0.1;stroke-miterlimit:4;stroke-dasharray:none" />
      <path
         id="path4429"
         d="m 21.520523,247.31877 c 0,-0.2729 0.136714,-0.85247 0.303808,-1.28792 0.224728,-0.58565 -0.211825,-0.85193 -1.677196,-1.02301 -2.066197,-0.24122 -2.813767,0.43298 -2.213789,1.99654 0.335587,0.87455 3.587177,1.15953 3.587177,0.31439 z"
         style="fill:none;stroke:#0000ff;stroke-width:0.1;stroke-miterlimit:4;stroke-dasharray:none" />
      <path
         id="path4427"
         d="m 33.634654,248.02734 c 0.822612,-0.31568 1.190404,-2.39852 0.538631,-3.05032 -0.173869,-0.17387 -1.024952,-0.069 -1.891296,0.233 -1.150442,0.40105 -1.575173,0.89914 -1.575173,1.84722 0,1.32959 1.06849,1.68362 2.927838,0.9701 z"
         style="fill:none;stroke:#0000ff;stroke-width:0.1;stroke-miterlimit:4;stroke-dasharray:none" />
      <path
         id="path4425"
         d="m 23.690536,261.57888 c 0.621394,-1.16112 0.614801,-1.47782 -0.04377,-2.10355 -1.514707,-1.43916 -3.09128,-1.53815 -3.787185,-0.2378 -0.564838,1.05545 -0.463319,1.36433 0.807778,2.45771 1.831536,1.57547 2.123795,1.56422 3.023188,-0.11636 z"
         style="fill:none;stroke:#0000ff;stroke-width:0.1;stroke-miterlimit:4;stroke-dasharray:none" />
      <path
         id="path4423"
         d="m 17.625557,260.42982 c 0.531016,-0.13886 1.199076,-0.78466 1.484575,-1.43509 0.511633,-1.16561 1.704084,-1.36966 4.842057,-0.82858 0.871622,0.1503 1.113454,-0.15278 1.249806,-1.56633 0.139642,-1.44768 -0.189492,-2.082 -1.891295,-3.64503 -1.1332,-1.04079 -2.438199,-1.89351 -2.900005,-1.89493 -1.429966,-0.004 -4.117691,3.36888 -5.100888,6.40195 -0.774049,2.38786 -0.821725,3.14148 -0.273482,4.32309 l 0.663985,1.43109 0.479881,-1.26684 c 0.263933,-0.69676 0.914349,-1.38046 1.445366,-1.51933 z"
         style="fill:none;stroke:#0000ff;stroke-width:0.1;stroke-miterlimit:4;stroke-dasharray:none" />
      <path
         id="path4421"
         d="m 21.2248,264.06789 c 0.403625,-0.6531 -2.775772,-2.91256 -3.483182,-2.47534 -0.613563,0.37921 -0.732153,2.06579 -0.183807,2.61414 0.539176,0.5392 3.312863,0.43421 3.666989,-0.1388 z"
         style="fill:none;stroke:#0000ff;stroke-width:0.1;stroke-miterlimit:4;stroke-dasharray:none" />
      <path
         id="path4419"
         d="m 58.786913,283.61559 c -0.0105,-0.22291 -0.331851,-0.96888 -0.714041,-1.65772 -0.640699,-1.15475 -0.75351,-1.1818 -1.44647,-0.34682 -0.652121,0.78579 -0.615479,1.00515 0.276961,1.65773 1.13347,0.82884 1.91311,0.9724 1.88355,0.34681 z"
         style="fill:none;stroke:#0000ff;stroke-width:0.1;stroke-miterlimit:4;stroke-dasharray:none" />
      <path
         id="path4417"
         d="m 18.832047,289.11938 c 0.901505,-2.37122 0.675884,-3.57465 -0.633649,-3.37983 -1.723116,0.25637 -2.426726,1.68724 -1.65865,3.37304 0.806579,1.7703 1.620916,1.77271 2.292299,0.007 z"
         style="fill:none;stroke:#0000ff;stroke-width:0.1;stroke-miterlimit:4;stroke-dasharray:none" />
      <path
         id="path4415"
         d="m 32.627188,290.2704 c 0.44967,-2.39704 -0.184341,-3.5537 -1.192299,-2.17519 -0.77033,1.05352 -0.972061,3.06697 -0.367824,3.67121 0.751438,0.75147 1.223402,0.29889 1.560123,-1.49602 z"
         style="fill:none;stroke:#0000ff;stroke-width:0.1;stroke-miterlimit:4;stroke-dasharray:none" />
      <path
         id="path4413"
         d="m 23.168571,291.53596 c 0.332933,-0.6221 0.454587,-1.73172 0.270348,-2.46581 -0.26642,-1.06154 -0.626738,-1.30008 -1.760478,-1.16554 -1.951196,0.23156 -2.951961,2.96344 -1.479917,4.03986 1.394788,1.01992 2.270019,0.89955 2.970047,-0.40851 z"
         style="fill:none;stroke:#0000ff;stroke-width:0.1;stroke-miterlimit:4;stroke-dasharray:none" />
      <path
         id="path4411"
         d="m 36.310298,293.07237 c 0.560699,-2.0923 0.372477,-3.6693 -0.476845,-3.99523 -1.952773,-0.74937 -3.808258,3.25812 -2.090206,4.51443 1.393199,1.01876 2.198556,0.85587 2.567051,-0.5192 z"
         style="fill:none;stroke:#0000ff;stroke-width:0.1;stroke-miterlimit:4;stroke-dasharray:none" />
      <path
         id="path4409"
         d="m 19.899413,233.22451 c 0,-0.29721 -0.257519,-0.54038 -0.572263,-0.54038 -0.314744,0 -0.421975,0.24317 -0.238292,0.54038 0.183682,0.29722 0.441201,0.54039 0.572263,0.54039 0.131061,0 0.238292,-0.24317 0.238292,-0.54039 z"
         style="fill:none;stroke:#0000ff;stroke-width:0.1;stroke-miterlimit:4;stroke-dasharray:none" />
      <path
         id="path4407"
         d="m 19.22395,234.262 c -0.520106,-0.30294 -0.945648,-0.90348 -0.945648,-1.33453 0,-1.05944 1.962598,-1.0007 2.373852,0.071 0.717077,1.86873 0.277918,2.25724 -1.428204,1.26348 z"
         style="fill:none;stroke:#0000ff;stroke-width:0.1;stroke-miterlimit:4;stroke-dasharray:none" />
      <path
         id="path4405"
         d="m 30.560467,234.51919 c -0.179565,-0.17956 -0.645634,-0.19876 -1.035711,-0.0427 -0.43107,0.17251 -0.303029,0.30056 0.326476,0.32649 0.569636,0.0235 0.888795,-0.10426 0.709235,-0.28383 z"
         style="fill:none;stroke:#0000ff;stroke-width:0.1;stroke-miterlimit:4;stroke-dasharray:none" />
      <path
         id="path4403"
         d="m 28.004965,235.52763 c 0,-0.85442 2.052207,-2.43444 2.667803,-2.05397 0.841005,0.51979 0.701232,1.9124 -0.19194,1.9124 -0.4215,0 -1.150999,0.14761 -1.621111,0.32801 -0.470117,0.18041 -0.854752,0.0965 -0.854752,-0.18644 z"
         style="fill:none;stroke:#0000ff;stroke-width:0.1;stroke-miterlimit:4;stroke-dasharray:none" />
      <path
         id="path4401"
         d="m 26.744103,252.31818 c -0.779565,-0.77958 -0.268942,-1.01056 1.798222,-0.81341 1.187161,0.11321 2.023892,0.42361 1.859403,0.68976 -0.347004,0.56149 -3.125863,0.65543 -3.657625,0.12365 z"
         style="fill:none;stroke:#0000ff;stroke-width:0.1;stroke-miterlimit:4;stroke-dasharray:none" />
      <path
         id="path4399"
         d="m 39.364686,264.26078 c 0.695582,-2.10769 0.481151,-2.70039 -0.799197,-2.20906 -0.53374,0.20457 -0.833861,1.00657 -0.833861,2.22806 0,2.45667 0.819141,2.44702 1.633058,-0.0192 z"
         style="fill:none;stroke:#0000ff;stroke-width:0.1;stroke-miterlimit:4;stroke-dasharray:none" />
      <path
         id="path4397"
         d="m 43.15615,268.01661 c 0.531302,-1.60992 0.502338,-2.07707 -0.170508,-2.74994 -1.037204,-1.03724 -2.76506,-0.50895 -3.49525,1.06866 -0.459704,0.9932 -0.316857,1.46076 0.815976,2.67082 1.618586,1.72894 1.995863,1.59793 2.849782,-0.98954 z"
         style="fill:none;stroke:#0000ff;stroke-width:0.1;stroke-miterlimit:4;stroke-dasharray:none" />
      <path
         id="path4395"
         d="m 49.510161,272.53486 c 0.309711,-0.37318 0.735873,-1.36693 0.947042,-2.20835 0.34458,-1.37293 0.257609,-1.51118 -0.847982,-1.34794 -1.430739,0.21125 -3.534039,2.76798 -2.994829,3.64046 0.495911,0.80243 2.201111,0.75286 2.895769,-0.0842 z"
         style="fill:none;stroke:#0000ff;stroke-width:0.1;stroke-miterlimit:4;stroke-dasharray:none" />
      <path
         id="path4393"
         d="m 43.612374,272.53386 c -2.209178,-1.14366 -4.043661,-2.60407 -5.237836,-4.16978 -1.611032,-2.11228 -1.804798,-2.70299 -1.569986,-4.78627 0.147327,-1.30713 0.787677,-3.01754 1.423,-3.80092 0.635319,-0.78339 1.877894,-2.50543 2.761269,-3.82678 1.229926,-1.83971 1.606137,-2.13648 1.606137,-1.267 0,0.6245 -0.867087,2.17332 -1.926868,3.44183 -1.633419,1.95514 -1.798005,2.3785 -1.08074,2.77991 0.465373,0.26045 0.846129,0.9478 0.846129,1.52746 0,0.68065 0.369099,1.05392 1.042141,1.05392 2.497714,0 3.283627,2.75008 1.947701,6.81541 -0.493482,1.5017 1.335207,2.35325 2.143681,0.99823 1.437812,-2.40986 2.61517,-3.49055 3.8028,-3.49055 1.479799,0 2.582522,1.62735 2.0475,3.02163 -0.235419,0.61351 -0.153318,0.81059 0.23713,0.56927 0.854321,-0.52802 2.828671,-6.04372 2.828671,-7.90237 0,-0.86295 0.281548,-1.74301 0.625649,-1.95569 0.97372,-0.6018 0.17221,4.7186 -1.166889,7.74596 -2.42842,5.48999 -4.647422,6.18725 -10.329489,3.24574 z"
         style="fill:none;stroke:#0000ff;stroke-width:0.1;stroke-miterlimit:4;stroke-dasharray:none" />
      <path
         id="path4391"
         d="m 50.157893,294.37368 c 1.603679,-1.60375 2.534679,-4.25848 2.777839,-7.92101 0.0967,-1.45692 -0.068,-2.11751 -0.505478,-2.02645 -1.251892,0.2606 -0.56193,-0.69074 1.680588,-2.31725 1.53684,-1.11468 2.85568,-2.80249 4.107921,-5.25719 1.661499,-3.25698 1.868109,-4.16573 2.08393,-9.16597 0.366119,-8.48241 -1.02089,-12.89993 -6.53872,-20.82531 -2.609389,-3.74792 -2.70442,-4.00792 -2.088081,-5.71243 1.659091,-4.58828 0.0786,-9.07369 -3.54067,-10.04828 -1.645848,-0.4432 -2.21035,-0.93507 -2.733468,-2.38177 -0.914879,-2.53013 -2.565152,-3.85783 -4.889791,-3.93398 -1.083379,-0.0355 -2.577696,-0.22876 -3.320706,-0.42943 -0.864591,-0.23351 -1.739991,-0.0706 -2.431665,0.45263 -0.936856,0.70866 -0.958417,0.81978 -0.161943,0.83468 0.505338,0.01 1.138386,0.40959 1.406778,0.88919 0.384138,0.68643 0.718945,0.74839 1.573314,0.29113 0.819444,-0.43857 1.335287,-0.39163 2.105628,0.19158 0.587188,0.44456 0.733568,0.77975 0.344832,0.78965 -0.962021,0.0245 -0.841265,1.09796 0.123508,1.09796 0.656126,0 0.688922,0.24153 0.183448,1.35096 -0.68749,1.50892 -2.618616,1.82446 -3.639241,0.59465 -0.425552,-0.51278 -1.299747,-0.66618 -2.714749,-0.47638 -1.721203,0.23087 -2.191535,0.0848 -2.682938,-0.83347 l -0.59586,-1.11341 -2.506113,1.10861 c -2.206574,0.9761 -2.858202,1.03789 -5.451902,0.51699 -2.060912,-0.41391 -3.263053,-0.42182 -4.001971,-0.0263 -1.127601,0.60349 -2.27954,2.99022 -1.809943,3.75007 0.155638,0.25183 -0.328955,1.35964 -1.076876,2.4618 -0.747916,1.10215 -1.359852,2.40222 -1.359852,2.88904 0,1.29306 1.47287,3.18457 3.139929,4.0324 1.91633,0.9746 12.877879,1.6685 14.801808,0.937 2.481423,-0.94346 4.57138,-5.39824 2.351204,-5.01163 -0.904639,0.15753 -0.952052,0.0631 -0.339115,-0.67548 0.897577,-1.08154 2.406058,-1.10362 3.28209,-0.048 0.542596,0.65381 0.528708,0.81058 -0.0718,0.81058 -1.024125,0 -2.237299,3.57091 -2.152056,6.33447 0.05755,1.86608 -0.170006,2.43907 -1.249627,3.14649 -0.725998,0.4757 -2.004428,0.78646 -2.840943,0.69056 -1.264428,-0.14496 -1.548771,-0.4607 -1.685911,-1.87209 -0.158205,-1.62813 -0.288579,-1.71317 -3.180624,-2.07451 -3.150834,-0.39369 -3.923126,-0.005 -3.941136,1.98409 -0.0045,0.50258 -0.251439,1.06408 -0.548643,1.24776 -0.963226,0.59533 -0.583967,1.34891 1.888004,3.75147 2.375608,2.3089 2.420924,2.41707 2.085548,4.97842 -0.661402,5.0513 -3.669879,8.49199 -7.161417,8.19025 l -1.945652,-0.16814 0.156324,2.16154 c 0.580839,8.03148 5.2798,13.32955 11.82224,13.32955 1.287685,0 2.341245,0.25693 2.341245,0.57096 0,0.99883 -5.816193,0.0432 -8.347264,-1.37145 l -2.371794,-1.32566 -1.395095,2.68907 c -1.633079,3.14778 -1.629594,3.12972 -0.603555,3.12972 0.435349,0 1.051819,0.48635 1.369936,1.08078 0.325675,0.60855 1.131437,1.08077 1.844142,1.08077 1.918578,0 2.657908,1.27927 2.344796,4.05726 l -0.273595,2.42738 h 2.05091 c 2.816399,0 3.759885,-0.45479 3.763424,-1.81407 0.0078,-2.99818 1.259911,-5.43093 4.382732,-8.51529 1.770977,-1.74917 3.332424,-3.18031 3.469883,-3.18031 0.909427,0 -0.14157,1.57117 -2.454701,3.66962 -2.557923,2.32051 -2.655963,2.50737 -1.807544,3.44489 0.493391,0.54521 1.437531,0.99129 2.098085,0.99129 2.290791,0 2.875229,2.0992 1.796439,6.45255 -0.106102,0.42817 0.175123,0.86048 0.624943,0.96069 0.522619,0.11643 1.205356,-0.65228 1.891296,-2.12946 0.705453,-1.51919 1.472358,-2.3685 2.237096,-2.47749 1.587892,-0.22631 2.921503,1.76016 2.52217,3.75689 -0.30014,1.50078 -0.246917,1.54263 1.962079,1.54263 1.774341,0 2.606238,-0.33567 3.806319,-1.53577 z"
         style="fill:none;stroke:#0000ff;stroke-width:0.1;stroke-miterlimit:4;stroke-dasharray:none" />
      <path
         id="path4389"
         d="m 43.346452,294.60142 c 0.704281,-2.80617 -1.059395,-4.03099 -2.61215,-1.81406 -1.358598,1.93973 -1.085425,3.12209 0.721334,3.12209 1.202357,0 1.638202,-0.30152 1.890816,-1.30803 z"
         style="fill:none;stroke:#0000ff;stroke-width:0.1;stroke-miterlimit:4;stroke-dasharray:none" />
      <path
         id="path1074"
         d="m 36.505182,295.93557 c -1.714762,-0.54808 -3.696916,-1.37601 -4.40479,-1.83984 -0.992189,-0.65014 -1.70076,-0.72467 -3.092943,-0.32538 -2.671784,0.76627 -6.000676,0.63031 -8.366583,-0.34173 -2.65994,-1.09287 -5.602148,-3.88419 -5.613597,-5.32574 -0.0049,-0.61043 1.014907,-3.10156 2.266128,-5.53585 l 2.274947,-4.426 -1.465927,-2.89745 c -0.954045,-1.88574 -1.587391,-4.19825 -1.813774,-6.62258 -0.241502,-2.58628 -0.73393,-4.29405 -1.610757,-5.58616 -1.494949,-2.20301 -1.503714,-2.32436 -0.429161,-5.94288 0.879052,-2.96019 3.382382,-6.29686 5.1436,-6.85586 1.484424,-0.47116 1.299957,-1.34041 -0.284457,-1.34041 -1.576108,0 -2.679663,-1.71598 -2.23724,-3.47879 0.213797,-0.85187 -0.0834,-1.5818 -0.991342,-2.43479 -2.134094,-2.00494 -2.697744,-3.95602 -1.700177,-5.88517 0.467106,-0.90331 1.094184,-1.79375 1.393501,-1.97874 0.299316,-0.18499 0.544212,-1.16364 0.544212,-2.17476 0,-1.20679 0.417728,-2.23204 1.215833,-2.98409 1.094827,-1.03166 1.605731,-1.10983 5.133516,-0.78553 2.154726,0.19809 3.917683,0.20797 3.917683,0.022 0,-0.186 -0.521661,-1.04378 -1.159245,-1.90619 -1.025146,-1.38662 -1.080934,-1.7571 -0.482259,-3.20247 0.372348,-0.89895 1.154604,-1.78605 1.738344,-1.97133 1.180099,-0.37456 2.922738,0.90967 3.438187,2.53375 0.414614,1.30639 1.381375,1.27818 3.122064,-0.0911 0.769519,-0.60533 2.078938,-1.10254 2.909812,-1.10492 3.068,-0.009 6.828161,0.55216 7.37642,1.10044 0.846614,0.84663 1.914371,0.6866 3.443285,-0.51609 1.649611,-1.29761 3.542781,-1.39086 4.702,-0.23159 1.30375,1.30377 1.017561,2.88298 -0.83629,4.61479 l -1.68544,1.57449 1.426061,1.12177 c 2.812569,2.21244 3.791778,6.23245 2.45336,10.07195 -0.53204,1.52628 -0.329311,1.99972 2.8888,6.74633 2.66659,3.93314 3.728149,6.09503 4.62497,9.4188 1.91086,7.08197 1.429088,15.51038 -1.174221,20.54227 -0.82237,1.58954 -0.820568,1.88655 0.02519,4.16867 0.50087,1.35145 0.742479,2.62538 0.536909,2.83097 -0.205579,0.20557 -1.396148,-0.0278 -2.64572,-0.5187 -2.733371,-1.07373 -2.90235,-0.8914 -3.389469,3.65733 -0.405511,3.78674 -2.129372,7.27023 -4.088302,8.26144 -2.007348,1.0157 -9.436385,0.81107 -13.103153,-0.36094 z"
         style="fill:none;stroke:#ff0000;stroke-width:0.1;stroke-miterlimit:4;stroke-dasharray:none" />
      <path
         id="path2307"
         style="fill:none;stroke:#0000ff;stroke-width:0.1"
         d="m 17.987008,229.67981 -0.822469,0.82247 m -0.472129,0.87125 2.101367,-2.10137 m 7.053814,-6.65469 -0.06277,0.0628 m -9.298403,9.29841 2.642775,-2.64278 m 7.331353,-6.93223 -1.497349,1.49735 m -5.618119,5.61812 0.19658,-0.19658 m -2.62171,2.62171 -0.472712,0.47271 m 8.521338,-8.12221 1.96124,-1.96124 m -6.975692,6.97569 -0.17856,0.17856 m -3.371139,3.37114 0.284862,-0.28487 m 10.60365,-10.20452 -0.475811,0.47581 m -2.110254,2.11025 0.551231,-0.55123 m -4.895769,4.89577 -0.152507,0.15251 m -3.829977,3.82997 0.1882,-0.18819 m 11.011511,-10.61239 -0.525404,0.5254 m -2.375291,2.37529 0.446367,-0.44637 m -4.391448,4.39145 -0.147159,0.14716 m -4.229814,4.22981 0.183049,-0.18305 m 11.32045,-10.92132 -0.621108,0.62111 m -2.543518,2.54351 0.322206,-0.3222 m -3.912654,3.91265 -0.147146,0.14715 m -4.701208,4.70121 0.392667,-0.39267 m 11.457166,-11.05805 -0.732031,0.73204 m -2.571174,2.57117 0.295861,-0.29586 m -3.622684,3.62268 -0.147132,0.14713 m -6.144759,6.14476 1.468734,-1.46873 m 11.690282,-11.29116 -0.151854,0.15186 m -0.722388,0.72238 0.263719,-0.26372 m -2.541415,2.54142 -0.268021,0.26802 m -3.248064,3.24806 0.17235,-0.17235 m -3.083049,3.08305 -0.246189,0.24619 m -3.482319,3.48232 1.399031,-1.39903 m 12.122558,-11.72344 -0.212976,0.21298 m -0.78074,0.78074 0.237711,-0.23771 m -2.491625,2.49162 -0.226397,0.2264 m -3.066784,3.06679 0.254239,-0.25424 m -3.049353,3.04935 -0.651013,0.65101 m -4.140798,4.1408 1.241932,-1.24193 m 13.092329,-12.69321 -0.266264,0.26627 m -0.839091,0.83909 0.211703,-0.21171 m -2.441507,2.44151 -0.185102,0.1851 m -2.885505,2.88551 0.234617,-0.23462 m -3.795147,3.79515 -0.08508,0.0851 m -4.565177,4.56518 1.488922,-1.48893 m 13.312492,-12.91336 -0.297886,0.29788 m -0.897443,0.89744 0.185694,-0.18569 m -2.352198,2.3522 -0.182997,0.183 m -2.704225,2.70422 0.270993,-0.27099 m -4.019821,4.01982 -0.07543,0.0754 m -4.869134,4.86913 0.59471,-0.59471 m 14.52728,-14.12816 -0.324195,0.3242 m -0.955795,0.95579 0.159686,-0.15968 m -2.270174,2.27017 -0.172916,0.17292 m -2.523718,2.52371 0.307451,-0.30745 m -3.241265,3.24127 -0.05728,0.0573 m -0.985503,0.98551 0.06384,-0.0638 m -4.786232,4.78623 -0.340223,0.34022 m 14.955363,-14.55624 0.324993,-0.32499 m -1.201717,1.20172 -0.137422,0.13742 m -2.21696,2.21696 0.177958,-0.17796 m -2.177608,2.17761 -0.343939,0.34394 m -3.198822,3.19882 0.110806,-0.11081 m -0.947627,0.94763 -0.05445,0.0545 m -5.294414,5.29442 0.228998,-0.229 m 15.209235,-14.81011 -0.32579,0.32579 m -1.072499,1.0725 0.116019,-0.11602 m -2.075018,2.07501 -0.191517,0.19152 m -2.163459,2.16346 0.380427,-0.38043 m -3.681039,3.68104 -0.873282,0.87328 m -5.488505,5.48851 0.185373,-0.18537 m 15.303123,-14.904 -0.286387,0.28638 m -1.130849,1.13085 0.09462,-0.0946 m -1.973612,1.97361 -0.205075,0.20507 m -1.98333,1.98333 0.416914,-0.41691 m -3.970786,3.97079 -0.688912,0.68891 m -5.698428,5.69843 0.168813,-0.16882 m 15.374853,-14.97573 -0.255924,0.25593 m -1.188321,1.18832 0.07729,-0.0773 m -1.84889,1.84889 -0.24195,0.24195 m -1.8032,1.8032 0.453402,-0.4534 m -4.260533,4.26053 -0.504542,0.50454 m -5.859458,5.85946 0.169699,-0.1697 m 15.381657,-14.98254 -0.231915,0.23192 m -1.246582,1.24658 0.06579,-0.0658 m -1.723842,1.72384 -0.295129,0.29513 m -1.557708,1.55771 0.441362,-0.44137 m -4.551136,4.55114 -0.320172,0.32017 m -6.020488,6.02049 0.160964,-0.16096 m 15.42226,-15.02314 -0.232083,0.23208 m -1.302395,1.3024 0.06749,-0.0675 m -1.599845,1.59984 -0.377562,0.37756 m -1.2977,1.2977 0.464614,-0.46461 m -10.986784,10.98678 -0.186876,0.18688 m 15.359592,-14.96047 0.266651,-0.26665 m -1.540795,1.54079 -0.116795,0.1168 m -2.868911,2.86891 1.514654,-1.51466 m -12.276125,12.27613 -0.191086,0.19109 m 15.321653,-14.92254 0.389492,-0.38949 m -1.671588,1.67159 -0.156786,0.15679 m -2.421953,2.42195 1.251976,-1.25198 m -12.370314,12.37032 -0.195297,0.19529 m 15.28363,-14.8845 0.551089,-0.55109 m -1.816449,1.81645 -0.334436,0.33443 m -1.859495,1.8595 1.030254,-1.03026 m -12.507901,12.50791 -0.178101,0.1781 m 15.177158,-14.77804 0.82561,-0.82561 m -1.979255,1.97926 -1.99953,1.99953 m -11.849308,11.8493 0.171432,-0.17143 m 16.403711,-16.00459 -3.794732,3.79474 m -12.605736,12.60573 0.192206,-0.1922 m 17.376859,-16.97774 -4.499142,4.49914 m -12.882582,12.88258 0.200315,-0.20031 m 17.909504,-17.51038 -4.274595,4.27459 m -13.638732,13.63873 0.199272,-0.19927 m 18.468947,-18.06982 -4.313749,4.31375 m -14.157978,14.15797 0.198229,-0.19823 m 18.998303,-18.59918 -4.322816,4.32282 m -14.677224,14.67722 0.199311,-0.19931 m 19.169469,-18.77034 -4.48718,4.48718 m -14.690407,14.6904 0.23463,-0.23463 m 19.410948,-19.01182 -0.46333,0.46333 m -2.132631,2.13263 0.583964,-0.58397 m -2.704259,2.70426 -0.09978,0.0998 m -14.638796,14.6388 0.270395,-0.2704 m 19.568792,-19.16966 -0.24367,0.24367 m -2.647669,2.64766 0.752586,-0.75258 m -17.194574,17.19457 -0.315114,0.31512 m 19.820647,-19.42153 0.212149,-0.21215 m -2.151284,2.15129 -1.054177,1.05417 m -16.672586,16.67259 0.41096,-0.41096 m 19.851443,-19.45232 -0.233196,0.23319 m -3.359232,3.35924 1.400571,-1.40057 m -17.421853,17.42185 -0.501678,0.50168 m 20.227284,-19.82816 0.27246,-0.27246 m -2.307555,2.30755 -1.671839,1.67184 m -1.798143,1.79814 0.06285,-0.0628 m -13.980131,13.98013 -0.672601,0.6726 m 20.434413,-20.03529 0.317362,-0.31736 m -2.452026,2.45203 -1.921762,1.92176 m -1.623909,1.62391 0.09766,-0.0977 m -13.875894,13.8759 -0.900924,0.90092 m 20.697584,-20.29846 0.369287,-0.36929 m -2.632594,2.6326 -0.06998,0.07 m -2.09357,2.09357 1.135719,-1.13572 m -2.430616,2.43061 -0.07281,0.0728 m -14.839247,14.83924 1.140402,-1.1404 m 20.222094,-19.82297 -0.390585,0.39059 m -4.869042,4.86904 1.213674,-1.21368 m -15.874865,15.87487 -1.488636,1.48864 m 21.356965,-20.95785 0.411882,-0.41188 m -3.009789,3.00979 -0.117032,0.11703 m -3.133614,3.13362 2.127131,-2.12714 m -15.808098,15.8081 -1.88405,1.88405 m 21.751667,-21.35254 0.43318,-0.43318 m -3.202331,3.20233 -3.058909,3.05891 m -4.44188,4.44188 0.353359,-0.35336 m -9.612227,9.61223 -2.270784,2.27078 m 22.176218,-21.7771 0.415948,-0.41594 m -3.306411,3.30641 -2.847693,2.84769 m -5.250713,5.25071 1.589831,-1.58983 m -10.167587,10.16759 -0.718537,0.71854 m -1.887609,1.88761 0.40324,-0.40324 m 22.544873,-22.14576 -0.407638,0.40764 m -5.667515,5.66752 2.704799,-2.7048 m -6.309855,6.30985 -0.426802,0.42681 m -1.455108,1.4551 0.648606,-0.6486 m -9.089646,9.08964 -0.663979,0.66398 m -2.197051,2.19705 0.343561,-0.34356 m 22.901902,-22.50278 -0.421209,0.42121 m -5.600812,5.60081 3.015979,-3.01597 m -6.764959,6.76496 -0.325889,0.32588 m -1.292501,1.2925 0.415469,-0.41546 m -9.076705,9.0767 -0.612987,0.61299 m -2.497347,2.49734 0.354736,-0.35473 m 23.129649,-22.73053 -0.376929,0.37693 m -5.534273,5.53427 3.168161,-3.16816 m -7.168572,7.16858 -0.200223,0.20022 m -0.987065,0.98706 0.109031,-0.10903 m -9.027395,9.0274 -0.595629,0.59563 m -2.738025,2.73802 0.312725,-0.31272 m 23.371338,-22.97222 -0.359436,0.35944 m -2.68399,2.68399 0.449146,-0.44915 m -1.992391,1.99239 -1.326403,1.3264 m -4.319456,4.31946 0.101979,-0.10198 m -0.633061,0.63306 -0.211828,0.21183 m -9.621668,9.62167 0.603485,-0.60349 m -3.19385,3.19385 -0.352486,0.35249 m 23.556359,-23.15724 0.316743,-0.31674 m -2.620255,2.62025 -0.456482,0.45649 m -2.735136,2.73513 0.854611,-0.85461 m -5.482195,5.4822 -0.414746,0.41474 m -9.733197,9.7332 0.617419,-0.61742 m -3.349479,3.34948 -0.375018,0.37502 m 23.73935,-23.34023 0.288271,-0.28827 m -2.652817,2.65282 -0.565537,0.56553 m -2.599387,2.59939 0.498271,-0.49827 m -14.626869,14.62687 -0.631353,0.63135 m -3.250239,3.25024 0.436829,-0.43683 m 23.724246,-23.32512 -0.308877,0.30888 m -3.321817,3.32181 0.890087,-0.89009 m -2.91,2.91001 -0.18577,0.18577 m -14.784259,14.78425 0.697939,-0.69793 m -3.529104,3.5291 -0.484097,0.4841 m 23.943104,-23.54399 0.317728,-0.31772 m -2.825646,2.82564 -1.487181,1.48718 m -16.341028,16.34103 0.758026,-0.75802 m -3.572085,3.57208 -0.527708,0.52771 m 23.974211,-23.57509 0.321443,-0.32144 m -2.912112,2.91211 -2.000233,2.00023 m -15.834224,15.83423 0.920228,-0.92023 m -3.624965,3.62496 -0.564946,0.56495 m 23.970086,-23.57096 0.32739,-0.32739 m -3.862188,3.86218 -1.244581,1.24458 m -15.713157,15.71316 1.081881,-1.08188 m -3.647373,3.64737 -0.54947,0.54947 m 23.882775,-23.48365 0.297624,-0.29762 m -3.956241,3.95624 -1.279928,1.27993 m -15.839596,15.83959 1.46173,-1.46173 m -3.658496,3.6585 -0.542463,0.54246 m 23.765251,-23.36613 0.268671,-0.26867 m -3.977858,3.97786 -1.332356,1.33236 m -16.253118,16.25311 2.099888,-2.09988 m -3.643298,3.64329 -0.555032,0.55504 m 23.631476,-23.23236 0.279742,-0.27974 m -3.973565,3.97356 -1.456286,1.45629 m -14.673553,14.67355 0.760037,-0.76003 m -1.818709,1.81871 -0.649189,0.64918 m -1.796817,1.79682 0.769421,-0.76942 m 23.110915,-22.71179 -0.313623,0.31362 m -5.683613,5.68361 2.100605,-2.1006 m -15.34947,15.34947 -0.585947,0.58595 m -3.784068,3.78406 2.037043,-2.03704 m -4.538349,4.53835 -0.338686,0.33869 m 26.351706,-25.95259 0.410984,-0.41098 m -3.867929,3.86793 -2.107951,2.10795 m -13.627341,13.62734 0.421733,-0.42173 m -2.736803,2.7368 -1.790154,1.79015 m -4.516067,4.51607 2.740154,-2.74015 m 25.888423,-25.4893 -0.610322,0.61032 m -5.318178,5.31818 1.576384,-1.57639 m -14.852049,14.85205 -0.436854,0.43686 m -4.420872,4.42087 1.636365,-1.63637 m -2.511609,2.51161 -3.763504,3.76351 m 28.295045,-27.89593 0.943768,-0.94376 m -5.160414,5.16041 -0.742928,0.74293 m -13.902805,13.9028 0.445197,-0.44519 m -3.683602,3.6836 -6.731326,6.73132 m 29.009854,-28.61073 2.146944,-2.14694 m -20.360482,20.36048 -0.45354,0.45354 m -5.834732,5.83473 1.37018,-1.37018 m -4.659439,4.65944 -1.667077,1.66708 m 29.631967,-29.23285 2.684978,-2.68498 m -20.690948,20.69095 -0.461883,0.46189 m -5.67488,5.67488 0.952506,-0.95251 m -5.450561,5.45056 -1.175087,1.17509 m 29.989697,-29.59058 3.246632,-3.24663 m -21.045036,21.04504 -0.470227,0.47022 m -5.760068,5.76007 0.799607,-0.7996 m -5.970003,5.97 -1.026789,1.02679 m 32.277823,-31.8787 1.806451,-1.80645 m -3.235528,3.23552 -0.471218,0.47122 m -18.067076,18.06708 0.496575,-0.49658 m -5.641618,5.64162 -0.663006,0.66301 m -6.656116,6.65611 1.125635,-1.12563 m 33.615648,-33.21653 -0.505693,0.5057 m -3.55911,3.55911 0.338649,-0.33865 m -17.658422,17.65842 -0.5443,0.5443 m -5.909349,5.90935 0.584682,-0.58468 m -6.84025,6.84025 -0.801202,0.8012 m 35.121132,-34.72201 0.155797,-0.1558 m -3.932461,3.93246 -0.369037,0.36904 m -17.661071,17.66107 0.592025,-0.59202 m -6.096316,6.09631 -0.499738,0.49974 m -7.464043,7.46404 0.788268,-0.78827 m 35.019147,-34.62002 -0.137949,0.13795 m -4.410601,4.4106 0.473241,-0.47324 m -10.724617,10.72462 -0.757663,0.75766 m -6.433513,6.43351 0.63975,-0.63975 m -6.323664,6.32367 -0.414795,0.41479 m -7.874168,7.87417 0.778377,-0.77838 m 35.504747,-35.10562 -0.123394,0.12339 m -4.625664,4.62567 0.653131,-0.65314 m -10.425528,10.42553 -0.877315,0.87732 m -6.563236,6.56323 0.687475,-0.68747 m -6.529424,6.52942 -0.376775,0.37678 m -8.239304,8.2393 0.74883,-0.74883 M 50.5091,223.4998 l -0.161211,0.16122 m -4.763745,4.76374 0.906514,-0.90651 m -10.350238,10.35023 -0.90925,0.90925 m -6.656531,6.65654 0.818686,-0.81869 m -6.786005,6.786 -0.341547,0.34155 m -8.472317,8.47232 0.691064,-0.69107 m 36.29169,-35.89256 -0.208335,0.20833 m -4.863055,4.86306 3.463431,-3.46343 m -12.667468,12.66746 -0.975247,0.97525 m -6.633042,6.63304 0.848428,-0.84842 m -6.936892,6.93689 -0.30632,0.30632 m -8.706616,8.70661 0.611838,-0.61183 m 36.607519,-36.2084 -0.254612,0.25461 m -2.382082,2.38208 1.632616,-1.63261 m -3.697704,3.6977 -0.479514,0.47951 m -10.08312,10.08312 1.063438,-1.06343 m -6.647849,6.64785 -0.998101,0.9981 m -6.441548,6.44154 0.278765,-0.27876 m -8.584156,8.58416 -0.579879,0.57987 m 35.976921,-35.57779 1.417943,-1.41795 m -4.996417,4.99642 -0.281663,0.28166 m -10.048673,10.04868 1.152451,-1.15246 m -6.474941,6.47495 -1.173043,1.17304 m -6.471384,6.47138 0.259551,-0.25955 m -8.75446,8.75446 -0.488883,0.48888 m 36.774234,-36.3751 0.691426,-0.69143 m -4.951446,4.95144 -0.38256,0.38256 m -10.098692,10.0987 1.299142,-1.29915 m -6.283183,6.28319 -1.387601,1.3876 m -6.461605,6.4616 0.240338,-0.24034 m -8.913231,8.91324 -0.412224,0.41222 m 37.00895,-36.60983 0.522683,-0.52268 m -4.826797,4.8268 -0.508183,0.50818 m -10.341466,10.34147 1.564828,-1.56483 m -6.054381,6.05438 -1.675118,1.67512 m -6.389475,6.38947 0.221124,-0.22112 m -8.989472,8.98947 -0.378552,0.37855 m 37.062062,-36.66294 0.46198,-0.46198 m -4.588664,4.58867 -0.713267,0.71326 m -10.570374,10.57038 1.789997,-1.79 m -5.738115,5.73811 -2.061262,2.06127 m -6.285606,6.2856 0.208322,-0.20832 m -9.081992,9.08199 -0.328941,0.32894 m 37.053754,-36.65463 0.450077,-0.45007 m -4.236394,4.23639 -0.987015,0.98702 m -10.97228,10.97227 0.537218,-0.53721 m -3.867564,3.86756 -2.433484,2.43348 m -6.141389,6.14139 0.20638,-0.20638 m -9.164585,9.16459 -0.290578,0.29058 m 36.899991,-36.50087 0.521443,-0.52145 m -3.733364,3.73337 -1.31545,1.31545 m -14.588284,14.58828 3.52398,-3.52398 m -5.256027,5.25603 -0.650819,0.65082 m -5.952375,5.95237 0.204439,-0.20444 m -9.240211,9.24022 -0.259183,0.25918 m 36.32756,-35.92844 1.017565,-1.01756 m -3.168019,3.16801 -1.712289,1.71229 m -14.339097,14.3391 2.887462,-2.88746 m -5.295086,5.29508 -0.369645,0.36965 m -5.853184,5.85318 0.202497,-0.20249 m -9.312089,9.31209 -0.231536,0.23153 m 32.596382,-32.19726 4.514715,-4.51471 m -16.372952,16.37295 -2.23813,2.23813 m -3.249065,3.24906 0.383848,-0.38384 m -5.892803,5.8928 -0.200555,0.20056 m -7.669109,7.6691 0.367652,-0.36765 m -1.881954,1.88196 -0.209222,0.20922 m 32.745554,-32.34643 3.998571,-3.99858 m -16.273051,16.27306 -1.773537,1.77353 m -3.537489,3.53749 0.429952,-0.42995 m -5.798442,5.79844 -0.202268,0.20227 m -8.076079,8.07608 3.523897,-3.5239 m -4.701394,4.7014 -0.192868,0.19286 m 32.900687,-32.50156 3.451236,-3.45124 m -16.12615,16.12615 -1.238778,1.23878 m -3.835113,3.83511 0.432122,-0.43212 m -3.612874,3.61288 -0.264111,0.26411 m -2.093823,2.09382 0.233886,-0.23389 m -4.401719,4.40172 -4.318379,4.31838 m -0.984137,0.98414 0.176514,-0.17651 m 33.439915,-33.0408 -0.562644,0.56265 m -13.931782,13.93178 0.92011,-0.92011 m -4.411797,4.4118 -0.445466,0.44546 m -3.42224,3.42224 0.42961,-0.42961 m -2.296436,2.29644 -0.258684,0.25868 m -9.494254,9.49426 3.827394,-3.8274 m 29.869584,-29.47046 -0.486443,0.48644 m -14.074481,14.07448 0.70903,-0.70903 m -4.119563,4.11957 -0.438171,0.43817 m -3.37728,3.37728 0.518685,-0.51869 m -2.498702,2.49871 -0.269047,0.26904 m -6.78725,6.78725 1.00055,-1.00055 m -2.320261,2.32026 -1.420515,1.42052 m 33.374674,-32.97555 0.412169,-0.41217 m -14.093331,14.09333 -0.569745,0.56974 m -3.652025,3.65203 0.389654,-0.38966 m -3.18679,3.1868 -0.579179,0.57918 m -2.419122,2.41912 0.297333,-0.29734 m -6.170805,6.17081 -0.75382,0.75382 m -2.942551,2.94255 1.322463,-1.32246 m 32.581313,-32.18219 -0.371627,0.37162 m -14.425537,14.42554 0.47046,-0.47046 m -3.505869,3.50587 -0.373206,0.37321 m -3.310227,3.31022 0.55248,-0.55248 m -2.933878,2.93388 -0.34095,0.34095 m -6.441892,6.44189 0.634181,-0.63418 m -2.542288,2.54229 -1.208962,1.20896 m 33.692389,-33.29327 0.328322,-0.32832 m -14.560079,14.56008 -0.470407,0.47041 m -3.017348,3.01735 0.470867,-0.47087 m -3.261378,3.26138 -0.523009,0.52301 m -3.004816,3.00481 0.365248,-0.36525 m -3.253664,3.25367 -0.06038,0.0604 m -3.334564,3.33456 0.536067,-0.53607 m -2.670359,2.67036 -1.130428,1.13043 m 33.833035,-33.43391 0.304608,-0.30461 m -14.789462,14.78946 -0.494828,0.49483 m -2.587502,2.5875 0.455021,-0.45502 m -3.295879,3.29588 -0.494051,0.49405 m -3.313867,3.31387 0.3847,-0.3847 m -2.989159,2.98916 -0.144326,0.14432 m -3.349457,3.34946 0.476156,-0.47616 m -2.740085,2.74009 -1.14323,1.14323 m 33.959908,-33.56079 0.286421,-0.28642 m -15.01641,15.01641 -0.563932,0.56393 m -2.021286,2.02129 0.511905,-0.51191 m -3.529597,3.5296 -0.31598,0.31598 m -3.806759,3.80676 0.407829,-0.40783 m -2.658203,2.6582 -0.251135,0.25114 m -3.341489,3.34149 0.427849,-0.42785 m -2.78578,2.78578 -1.229993,1.22999 m 34.118643,-33.71952 0.259989,-0.25999 m -15.22865,15.22865 -2.159107,2.15911 m -3.29646,3.29646 0.164597,-0.1646 m -3.939687,3.93969 -0.469536,0.46954 m -2.27423,2.27423 0.357944,-0.35795 m -3.311923,3.31193 -0.379543,0.37954 m -3.768687,3.76869 1.366926,-1.36693 m 33.144007,-32.74488 -0.253225,0.25322 m -16.63891,16.63891 1.312805,-1.31281 m -9.231337,9.23134 -0.394839,0.39484 m -1.984465,1.98447 0.493278,-0.49328 m -3.46028,3.46028 -0.342363,0.34236 m -2.872846,2.87285 0.480824,-0.48083 m -1.078354,1.07836 -0.467871,0.46787 M 50.598159,232.19146 50.84462,231.945 m -15.754762,15.75476 -0.681954,0.68195 m -8.989623,8.98963 0.366856,-0.36686 m -1.440459,1.44046 -0.678501,0.6785 m -3.303038,3.30304 0.341929,-0.34193 m -2.638621,2.63862 -0.432284,0.43229 m -1.359427,1.35942 0.42144,-0.42144 m 34.354095,-33.95497 -0.2667,0.2667 m -26.905805,26.9058 1.864205,-1.8642 m -4.813832,4.81383 -0.341496,0.3415 m -2.585106,2.5851 0.406221,-0.40622 m -1.684664,1.68467 -0.379346,0.37934 m 34.615498,-34.21637 0.275888,-0.27589 m -25.606074,25.60607 -1.566006,1.56601 m -3.267231,3.26723 0.355386,-0.35539 m -2.364493,2.3645 -0.417804,0.4178 m -1.979497,1.9795 0.360598,-0.3606 m 34.655898,-34.25678 -0.270991,0.27099 m -26.875384,26.87539 1.272652,-1.27265 m -4.157908,4.15791 -0.378466,0.37846 m -2.259528,2.25953 0.429388,-0.42939 m -2.388744,2.38874 -0.34185,0.34186 m 34.875515,-34.4764 0.266094,-0.26609 m -26.141374,26.14137 -1.081822,1.08183 m -3.163053,3.16305 0.401263,-0.40126 m -2.031541,2.03154 -0.496317,0.49631 m -2.583098,2.5831 0.323102,-0.3231 m 34.943617,-34.5445 -0.260919,0.26092 m -27.055304,27.05531 1.006861,-1.00686 m -3.585882,3.58588 -0.503865,0.50386 m -1.839614,1.83962 0.5111,-0.5111 m -3.177091,3.17709 -0.316339,0.31634 m 35.098511,-34.69939 0.293319,-0.29332 m -26.857655,26.85765 -0.695837,0.69584 m -2.863582,2.86358 0.616138,-0.61613 m -1.661462,1.66146 -0.497392,0.49739 m -3.38619,3.38619 0.30884,-0.30884 m 35.167918,-34.7688 -0.295904,0.29591 m -27.697736,27.69773 0.802118,-0.80211 m -2.454857,2.45485 -2.066603,2.06661 m -3.715824,3.71582 0.299239,-0.29924 m 35.265182,-34.86606 -0.303325,0.30333 m -30.797431,30.79743 3.353879,-3.35388 m -7.479953,7.47995 -0.289639,0.28964 m 35.341337,-34.94221 0.310746,-0.31075 m -28.273856,28.27386 -2.51035,2.51035 m -4.819925,4.81992 0.300265,-0.30026 m 35.439481,-35.04036 -0.312566,0.31256 m -29.505045,29.50505 0.57361,-0.57361 m -6.135247,6.13525 -0.312546,0.31254 m 35.457968,-35.05884 0.338982,-0.33899 m -35.424171,35.42417 -0.324471,0.32448 m 35.488401,-35.08928 0.358572,-0.35857 m -35.462268,35.46226 -0.311077,0.31108 m 35.493514,-35.09439 0.378162,-0.37816 m -35.485444,35.48544 -0.312605,0.31261 m 35.498627,-35.09951 0.397752,-0.39775 m -35.502768,35.50277 -0.319984,0.31998 m 35.490969,-35.09184 0.400684,-0.40069 m -35.490663,35.49066 -0.327362,0.32737 m 35.43956,-35.04044 0.434978,-0.43498 m -35.466171,35.46617 -0.339519,0.33952 m 35.392932,-34.99381 0.469272,-0.46927 m -35.413048,35.41305 -0.351365,0.35136 m 35.31736,-34.91824 0.503566,-0.50356 m -35.388032,35.38803 -0.335105,0.33511 m 35.246886,-34.84777 0.48927,-0.48927 m -35.300085,35.30009 -0.33828,0.33828 m 35.099626,-34.70051 0.545239,-0.54524 m -35.205619,35.20562 -0.341456,0.34146 m 34.952366,-34.55324 0.601209,-0.60121 m -35.111153,35.11115 -0.344632,0.34463 m 34.805107,-34.40598 0.657179,-0.65718 m -34.993997,34.994 -0.358219,0.35822 m 34.63253,-34.23341 0.636648,-0.63665 m -34.790577,34.79058 -0.356812,0.35681 m 34.358175,-33.95905 0.731158,-0.73116 m -34.612139,34.61214 -0.355406,0.3554 m 34.083821,-33.6847 0.825668,-0.82566 m -34.433701,34.4337 -0.354,0.354 m 33.809472,-33.41035 0.798277,-0.79828 m -34.116925,34.11693 -0.369036,0.36903 m 33.534584,-33.13546 0.801555,-0.80155 m -33.8276,33.8276 -0.384127,0.38412 m 33.271479,-32.87235 0.93834,-0.93834 m -33.68619,33.68619 -0.389539,0.38953 m 33.144205,-32.74508 0.787764,-0.78776 m -33.402927,33.40293 -0.394952,0.39495 m 33.068382,-32.66926 0.641148,-0.64115 m -33.164546,33.16455 -0.410895,0.41089 m 33.074272,-32.67515 0.519163,-0.51916 m -33.023971,33.02397 -0.435374,0.43537 m 33.078934,-32.67981 0.477023,-0.47702 m -32.962014,32.96201 -0.459852,0.45986 m 33.083595,-32.68448 0.438953,-0.43895 m -32.904128,32.90413 -0.484331,0.48433 m 33.088258,-32.68914 0.430434,-0.43043 m -32.870714,32.87071 -0.513888,0.51389 m 33.092919,-32.6938 0.434307,-0.4343 m -10.565226,10.56522 -0.249133,0.24914 m -22.578777,22.57877 0.557622,-0.55762 m 32.97814,-32.57902 -0.427758,0.42776 m -11.259413,11.25942 1.026182,-1.02619 m -22.139328,22.13933 -0.601356,0.60136 m 33.135124,-32.73601 0.409173,-0.40917 m -11.016797,11.0168 -1.41785,1.41785 m -20.97556,20.97556 0.64509,-0.64509 m 32.907742,-32.50862 -0.390589,0.39059 m -13.090049,13.09005 1.892463,-1.89247 m -21.141743,21.14175 -0.639464,0.63946 m 33.140003,-32.74088 0.372004,-0.372 m -12.317693,12.31769 -3.100026,3.10003 m -18.466912,18.46691 1.209859,-1.20986 m 32.817397,-32.41828 -0.353419,0.35342 m -15.280185,15.28019 2.516253,-2.51625 m -19.502521,19.50252 -1.829495,1.82949 m 34.257157,-33.85803 0.348018,-0.34802 m -14.781179,14.78118 -1.331129,1.33113 m -18.914977,18.91497 2.44913,-2.44913 m 32.737257,-32.33813 -0.34591,0.34591 m -16.328228,16.32823 1.736938,-1.73694 m -17.602532,17.60253 -0.424038,0.42404 m -2.644728,2.64473 1.291579,-1.29158 m 34.476021,-34.0769 -0.343802,0.3438 m -16.437035,16.43704 1.845362,-1.84536 m -17.549133,17.54913 -0.38224,0.38224 m -3.625698,3.6257 1.586212,-1.58622 m 35.065435,-34.66631 -0.341694,0.3417 m -16.690969,16.69096 2.147643,-2.14764 m -17.540736,17.54074 -0.344169,0.34417 m -3.979594,3.97959 1.361209,-1.36121 m 35.547412,-35.14829 -0.339786,0.33979 M 39.133506,261.61662 39.529,261.22113 m -1.970761,1.97076 -0.476417,0.47642 m -15.397308,15.39731 0.306098,-0.3061 m -3.698291,3.69829 -1.189917,1.18992 m 37.074906,-36.67579 0.339309,-0.33931 m -14.777463,14.77747 -0.23407,0.23407 m -2.448916,2.44891 0.478195,-0.47819 m -15.325799,15.3258 -0.268027,0.26803 m -5.184627,5.18462 1.120188,-1.12019 m 36.799621,-36.4005 -0.338832,0.33884 m -14.568394,14.56839 0.136875,-0.13687 m -2.443813,2.44381 -0.43104,0.43104 m -14.833955,14.83395 0.244947,-0.24494 m -4.805585,4.80558 -1.226505,1.22651 m 38.087048,-37.68793 0.338355,-0.33835 m -14.802964,14.80296 -0.08123,0.0812 m -2.936166,2.93616 0.473625,-0.47362 m -14.807143,14.80714 -0.228353,0.22835 m -6.425332,6.42534 1.568987,-1.56899 m 37.397683,-36.99856 -0.337878,0.33787 m -14.643229,14.64323 0.149461,-0.14946 m -2.686195,2.6862 -0.405257,0.40525 m -14.362216,14.36222 0.21176,-0.21176 m -5.225929,5.22593 -1.904344,1.90434 m 39.025527,-38.6264 0.337401,-0.3374 m -14.983409,14.98341 -0.209142,0.20914 m -2.833279,2.83328 0.366317,-0.36632 m -14.333713,14.33371 -0.195166,0.19517 m -7.451693,7.45169 2.435659,-2.43566 m 37.363528,-36.9644 -0.336925,0.33692 m -15.036225,15.03623 0.283101,-0.2831 m -2.651967,2.65196 -0.367257,0.36726 m -13.970056,13.97006 0.181861,-0.18186 m -5.072893,5.07289 -3.103535,3.10354 m 39.89655,-39.49743 0.336448,-0.33645 m -15.115277,15.11528 -0.562703,0.5627 m -2.459008,2.45901 0.32966,-0.32966 m -13.986906,13.9869 -0.171991,0.17199 m -5.444038,5.44404 0.625621,-0.62562 m -2.675702,2.6757 -0.671271,0.67127 m 39.954745,-39.55562 0.333733,-0.33373 m -15.114588,15.11459 -0.857221,0.85722 m -2.190654,2.19065 0.325839,-0.32584 m -13.852137,13.85214 -0.162121,0.16212 m -5.286104,5.2861 0.442214,-0.44221 m -2.990454,2.99045 -0.544012,0.54402 m 40.055083,-39.65596 0.330843,-0.33085 m -15.025003,15.02501 -1.37706,1.37706 m -1.785701,1.7857 0.426542,-0.42654 m -13.827731,13.82773 -0.146412,0.14641 m -5.21961,5.21961 0.333014,-0.33302 m -3.152597,3.1526 -0.471271,0.47127 m 40.074565,-39.67544 0.327953,-0.32795 m -14.90426,14.90426 -3.290756,3.29075 m -13.404305,13.40431 0.140814,-0.14082 m -5.117631,5.11763 -0.232166,0.23217 m -3.454116,3.45412 0.386578,-0.38658 m 40.03253,-39.63341 -0.325063,0.32506 m -17.860689,17.86069 3.470253,-3.47025 m -16.61256,16.61256 -0.131477,0.13148 m -5.309922,5.30992 0.204751,-0.20475 m -3.348944,3.34894 -0.354277,0.35428 m 40.098847,-39.69973 0.32577,-0.32577 m -14.524335,14.52434 -3.652153,3.65215 m -13.143264,13.14327 0.12214,-0.12214 m -5.359187,5.35918 -0.204752,0.20476 m -3.489571,3.48957 0.285484,-0.28549 m 40.122326,-39.7232 -0.334523,0.33452 m -14.756437,14.75644 0.757789,-0.75779 m -3.096615,3.09661 -0.737438,0.73744 m -13.012743,13.01275 0.112553,-0.11256 m -5.473988,5.47399 -0.25167,0.25167 m -3.441243,3.44124 0.251346,-0.25134 m 40.139657,-39.74054 -0.343277,0.34328 m -14.41292,14.41292 0.567908,-0.56791 m -3.377319,3.37732 -0.592352,0.59235 m -12.871222,12.87123 0.119498,-0.1195 m -5.609452,5.60945 -0.470977,0.47098 m -3.223648,3.22364 0.210771,-0.21077 m 40.159679,-39.76055 -0.352031,0.35203 m -14.137918,14.13792 0.405527,-0.40553 m -3.614525,3.61452 -0.44975,0.44975 m -12.721907,12.72191 0.118648,-0.11865 m -5.697026,5.69703 -0.63599,0.63599 m -3.089841,3.08984 0.17471,-0.17471 m 40.156791,-39.75767 -0.360784,0.36079 m -14.010981,14.01098 0.374955,-0.37496 m -3.706856,3.70686 -0.417528,0.41753 m -12.590831,12.59083 0.117798,-0.1178 m -5.79128,5.79128 -0.895651,0.89565 m -2.854705,2.8547 0.146963,-0.14696 m 40.145589,-39.74646 -0.369538,0.36953 m -13.889725,13.88973 0.292563,-0.29256 m -3.754861,3.75486 -0.369651,0.36965 m -12.462235,12.46223 0.128326,-0.12832 m -5.839261,5.83926 -1.343845,1.34384 m -2.488688,2.48869 0.156013,-0.15601 m 40.09759,-39.69847 -0.378292,0.37829 m -13.810541,13.81054 0.252245,-0.25224 m -3.785533,3.78553 -0.339108,0.33911 m -12.333639,12.33364 0.158004,-0.15801 m -5.923489,5.92349 -1.774941,1.77494 m -2.113483,2.11349 0.171788,-0.17179 m 40.019181,-39.62006 -0.372549,0.37255 m -13.742236,13.74224 0.171402,-0.17141 m -3.737529,3.73753 -0.335837,0.33584 m -12.182618,12.18262 0.165257,-0.16526 m -5.922391,5.92239 -2.57372,2.57372 m -1.447376,1.44738 0.234757,-0.23476 m 39.884739,-39.48562 -0.366513,0.36652 m -13.713929,13.71392 0.115638,-0.11563 m -3.674607,3.6746 -0.332566,0.33257 m -12.036268,12.03627 0.174739,-0.17474 m -5.917856,5.91786 -4.154763,4.15476 m 39.687546,-39.28843 0.360477,-0.36047 m -13.986224,13.98622 -0.05877,0.0588 m -3.868159,3.86816 0.315241,-0.31524 m -11.99775,11.99775 -0.221464,0.22146 m -6.346524,6.34652 0.636253,-0.63625 m -2.714101,2.7141 -1.593157,1.59316 m 39.622707,-39.22359 0.353842,-0.35384 m -17.543149,17.54315 -0.300732,0.30073 m -11.782119,11.78212 0.26819,-0.26819 m -5.965184,5.96519 -0.58123,0.58123 m -3.849292,3.84929 1.18814,-1.18814 m 38.707275,-38.30815 -0.364624,0.36462 m -17.409991,17.40999 0.296242,-0.29624 m -11.641739,11.64174 -0.289222,0.28922 m -6.165976,6.16598 0.434372,-0.43438 m -3.521262,3.52127 -1.003265,1.00326 m 39.431957,-39.03283 0.375406,-0.37541 m -17.413596,17.4136 -0.291751,0.29175 m -11.491697,11.4917 0.315311,-0.31532 m -6.16782,6.16782 -0.337768,0.33777 m -4.190091,4.19009 0.795658,-0.79566 m 38.923652,-38.52453 -0.386188,0.38619 m -17.249892,17.2499 0.287261,-0.28727 m -11.294536,11.29454 -0.3414,0.3414 m -6.242798,6.2428 0.267962,-0.26796 m -3.828176,3.82817 -0.701592,0.70159 m 39.234288,-38.83516 0.39697,-0.39697 m -14.576482,14.57648 -0.166932,0.16693 m -2.823399,2.8234 0.28277,-0.28277 m -11.134833,11.13483 -0.328116,0.32812 m -6.405107,6.40511 0.226055,-0.22606 m -3.891983,3.89199 -0.573348,0.57334 m 39.125521,-38.7264 0.407752,-0.40775 m -14.658514,14.65852 -0.387265,0.38726 m -2.432782,2.43278 0.288336,-0.28833 m -11.027889,11.02789 -0.28227,0.28227 m -6.609657,6.60965 0.19371,-0.19371 m -3.853977,3.85398 -0.515236,0.51524 m 39.008909,-38.60979 0.391172,-0.39117 m -14.961582,14.96158 -0.451808,0.45181 m -1.946944,1.94694 0.296707,-0.2967 m -10.942061,10.94206 -0.220727,0.22072 m -6.851953,6.85196 0.16535,-0.16535 m -3.779718,3.77971 -0.459616,0.45962 m 38.892296,-38.49317 0.379526,-0.37953 m -15.155796,15.1558 -2.091245,2.09124 m -17.847006,17.84701 0.145977,-0.14598 m -3.651182,3.65118 -0.424841,0.42484 m 38.775684,-38.37656 0.36788,-0.36788 m -15.4258,15.4258 -1.707948,1.70795 m -17.976729,17.97673 0.107152,-0.10715 m -3.462292,3.46229 -0.416337,0.41634 m 38.649426,-38.25031 0.351999,-0.352 m -15.697078,15.69708 -1.323376,1.32338 m -18.161873,18.16187 0.08991,-0.0899 m -3.239569,3.23957 -0.400012,0.40001 m 38.488624,-38.0895 0.362842,-0.36284 m -15.968357,15.96835 -0.938805,0.93881 m -18.355486,18.35548 0.06565,-0.0657 m -3.001352,3.00135 -0.383687,0.38369 m 38.327821,-37.9287 0.373684,-0.37368 m -16.135773,16.13577 -0.640041,0.64004 m -18.659825,18.65983 0.176918,-0.17692 m -2.787793,2.78779 -0.38556,0.38556 m 38.167018,-37.76789 0.384527,-0.38453 m -16.175026,16.17503 -0.467244,0.46724 m -18.920321,18.92032 0.08422,-0.0842 m -2.393884,2.39389 -0.38333,0.38333 m 37.979687,-37.58057 0.381015,-0.38101 m -16.175443,16.17544 -0.31893,0.31893 m -19.538346,19.53835 0.419284,-0.41929 m -1.99017,1.99017 -0.461446,0.46145 m 37.792663,-37.39354 0.367492,-0.3675 m -16.110965,16.11097 -0.225497,0.2255 m -21.528041,21.52804 2.097066,-2.09707 m 35.862542,-35.46342 -0.353969,0.35397 m -15.824583,15.82458 0.172395,-0.17239 m -19.907086,19.90708 -1.72695,1.72695 m 37.394852,-36.99572 0.340446,-0.34045 m -15.878707,15.87871 -0.141935,0.14193 m -21.394311,21.39431 1.355905,-1.3559 m 36.154153,-35.75503 -0.340614,0.34061 m -15.508838,15.50884 0.182336,-0.18234 m -20.537738,20.53774 -0.98486,0.98486 m 36.955802,-36.55668 0.329016,-0.32901 m -11.521468,11.52146 -1.498096,1.4981 m -2.65364,2.65364 0.251152,-0.25115 m -20.928606,20.9286 -0.579484,0.57949 m 36.682139,-36.28302 0.343108,-0.34311 m -4.786647,4.78665 -0.216293,0.21629 m -10.494016,10.49402 4.492954,-4.49295 m -12.757139,12.75713 -3.999894,3.9999 m -8.907082,8.90708 0.330743,-0.33074 m 36.432479,-36.03336 -0.357199,0.3572 m -4.901325,4.90133 0.461036,-0.46104 m -5.863854,5.86385 -4.659366,4.65937 m -13.231145,13.23114 5.992231,-5.99223 m -13.491459,13.49146 -0.355011,0.35501 m 36.129906,-35.73078 0.348208,-0.34821 m -4.906786,4.90679 -0.444233,0.44423 m -6.16442,6.16442 1.146477,-1.14648 m -2.609987,2.60999 -2.142429,2.14243 m -14.118847,14.11885 6.540612,-6.54062 m -13.024368,13.02437 -0.397003,0.397 m 35.85379,-35.45466 0.34004,-0.34004 m -4.981971,4.98197 -0.475986,0.47598 m -5.122315,5.12232 0.419596,-0.4196 m -3.635887,3.63589 -1.126308,1.12631 m -10.110811,10.11081 1.070333,-1.07033 m -3.684814,3.68481 -1.755925,1.75593 m -6.432612,6.43261 0.438996,-0.439 m 35.470549,-35.07142 -0.331872,0.33187 m -5.24406,5.24406 0.450294,-0.4503 m -4.843781,4.84378 -0.272747,0.27275 m -4.482198,4.4822 0.736676,-0.73668 m -13.804591,13.80459 -2.01991,2.01991 m -5.740226,5.74023 0.480988,-0.48099 m 35.144272,-34.74515 -0.323704,0.32371 m -5.376731,5.37673 0.450691,-0.45069 m -4.563686,4.56368 -0.11893,0.11893 m -4.579268,4.57927 0.501291,-0.50129 m -13.72248,13.72248 -2.328596,2.3286 m -5.1478,5.1478 0.521439,-0.52144 m 34.760619,-34.3615 -0.313887,0.31389 m -5.5689,5.5689 0.454085,-0.45409 m -8.463204,8.46321 -0.394666,0.39466 m -13.892785,13.89279 0.540287,-0.54029 m -1.574477,1.57448 -1.083813,1.08381 m -4.571575,4.57158 0.458074,-0.45808 m 34.483706,-34.08458 -0.336432,0.33643 m -5.721789,5.72179 0.44875,-0.44875 m -3.970094,3.97009 -0.07321,0.0732 m -4.408738,4.40874 0.308374,-0.30837 m -13.792181,13.79218 -0.395211,0.39521 m -2.514731,2.51473 0.66135,-0.66135 m -4.268786,4.26879 -0.465956,0.46595 m 34.242525,-33.8434 0.358977,-0.35898 m -5.790242,5.79025 -0.518607,0.5186 m -3.340691,3.34069 0.130855,-0.13085 m -4.069853,4.06985 -0.247922,0.24792 m -13.987813,13.98782 0.407321,-0.40732 m -2.653908,2.6539 -0.540947,0.54095 m -3.576571,3.57657 0.473839,-0.47384 m 33.787384,-33.38826 -0.381522,0.38152 m -6.177952,6.17796 0.588464,-0.58847 m -3.510691,3.51069 -0.33386,0.33386 m -3.795843,3.79585 0.288368,-0.28837 m -13.953176,13.95317 -0.488376,0.48838 m -2.944093,2.94409 0.504935,-0.50493 m -3.162633,3.16263 -0.481721,0.48172 m 33.516878,-33.11775 0.384462,-0.38447 m -6.132175,6.13218 -0.65832,0.65832 m -3.176001,3.176 0.515994,-0.51599 m -3.581751,3.58175 -0.33449,0.33449 m -14.351339,14.35134 0.619773,-0.61978 m -3.144163,3.14417 -0.582472,0.58247 m -2.616363,2.61636 0.448794,-0.44879 m 33.040928,-32.64181 -0.382577,0.38258 m -6.686546,6.68654 0.913094,-0.91309 m -3.342125,3.34213 -0.723403,0.7234 m -2.862291,2.86229 0.359788,-0.35979 m -14.170085,14.17009 -0.887544,0.88754 m -3.157997,3.158 0.658963,-0.65896 m -2.298824,2.29882 -0.440334,0.44033 m 32.687605,-32.28848 0.380692,-0.38069 m -6.562955,6.56295 -0.732986,0.73299 m -3.132401,3.1324 0.765999,-0.766 m -2.485788,2.48579 -0.651386,0.65139 m -14.963945,14.96394 1.078299,-1.0783 m -3.574235,3.57424 -2.399854,2.39985 m 32.338799,-31.93968 0.368868,-0.36886 m -6.747577,6.74757 -0.877878,0.87788 m -4.860847,4.86085 2.600725,-2.60073 M 34.41261,287.89012 33.00173,289.301 m -4.237053,4.23705 1.873874,-1.87387 m 30.264857,-29.86574 -0.397465,0.39747 m -7.826236,7.82623 1.101842,-1.10184 m -2.705067,2.70507 -2.33862,2.33862 m -15.777519,15.77752 1.742191,-1.74219 m -3.891457,3.89145 -1.631294,1.6313 m 31.345979,-30.94686 0.426062,-0.42606 m -7.287651,7.28765 -4.502455,4.50245 m -16.213085,16.21309 2.102288,-2.10229 m -4.026002,4.026 -1.227748,1.22775 m 30.74841,-30.34928 0.454658,-0.45466 m -7.945367,7.94536 -3.496465,3.49647 m -16.746717,16.74672 2.589634,-2.58964 m -4.135068,4.13507 -1.036848,1.03685 m 30.335992,-29.93687 0.483255,-0.48326 m -8.36523,8.36523 -2.547206,2.54721 m -14.91188,14.91188 0.531231,-0.53123 m -2.596412,2.59641 -0.507483,0.50748 m -2.011439,2.01144 0.962563,-0.96256 m 29.469802,-29.07068 -0.487382,0.48738 m -9.861261,9.86126 1.020008,-1.02001 m -15.656574,15.65658 -0.492259,0.49226 m -4.61512,4.61512 1.833395,-1.8334 m 28.281548,-27.88242 -0.489919,0.48992 m -24.709407,24.7094 0.461477,-0.46147 m -3.541399,3.54139 -1.517267,1.51727 m 29.298358,-28.89923 0.520513,-0.52052 m -24.513884,24.51389 -0.450656,0.45065 m -4.561527,4.56153 1.191276,-1.19128 m 28.357146,-27.95802 -0.507308,0.50731 m -24.25866,24.25866 0.42158,-0.42158 m -3.922543,3.92254 -1.018889,1.01889 m 28.771695,-28.37257 0.536481,-0.53648 m -24.193517,24.19351 -0.419621,0.41963 m -4.435864,4.43586 0.839686,-0.83969 m 28.231671,-27.83255 -0.565655,0.56566 m -23.939381,23.93938 0.409532,-0.40953 m -4.022792,4.02279 -0.688776,0.68878 m 28.2346,-27.83548 0.594828,-0.59483 m -23.99749,23.99749 -0.421549,0.42155 m -4.141946,4.14195 0.575154,-0.57516 m 28.044799,-27.64567 -0.660614,0.66061 m -23.749063,23.74906 0.406525,-0.40652 m -3.843607,3.84361 -0.50475,0.50475 m 27.684077,-27.28496 0.60652,-0.60652 m -23.887298,23.8873 -0.436089,0.43609 m -3.698767,3.69877 0.453206,-0.45321 m 27.561732,-27.16261 -0.606122,0.60612 m -23.713021,23.71302 0.519446,-0.51944 m -3.509179,3.50918 -0.437619,0.43761 m 27.133175,-26.73405 0.606104,-0.6061 m -23.85667,23.85667 -0.485821,0.48582 m -3.128345,3.12834 0.422032,-0.42203 m 27.041589,-26.64247 -0.624071,0.62408 m -23.727192,23.72719 0.497032,-0.49703 m -2.934501,2.9345 -0.406446,0.40644 m 26.545924,-26.1468 0.642038,-0.64204 m -23.901873,23.90188 -0.537409,0.53741 m -2.461242,2.46124 0.390558,-0.39056 m 26.50275,-26.10363 -0.660005,0.66001 m -23.934729,23.93473 0.640929,-0.64093 m -2.250286,2.25028 -0.397633,0.39764 m 25.916537,-25.51742 0.647153,-0.64715 m -23.97492,23.97492 -2.297186,2.29718 m 25.59977,-25.20064 0.628978,-0.62898 m -24.045363,24.04536 -1.891801,1.8918 m 25.283004,-24.88388 0.610802,-0.6108 m -24.11054,24.11054 -1.491681,1.49168 m 24.978895,-24.57977 0.579968,-0.57997 m -24.175718,24.17572 -1.091561,1.09156 m 24.618448,-24.21933 0.605473,-0.60547 m -24.139004,24.13901 -0.793333,0.79333 m 24.258,-23.85888 0.630979,-0.63098 m -23.968966,23.96897 -0.628428,0.62842 m 23.897551,-23.49842 0.612991,-0.613 m -19.670456,19.67046 -0.766394,0.7664 m -3.782108,3.7821 0.510438,-0.51043 m 23.616685,-23.21757 -0.590019,0.59002 m -19.787324,19.78733 1.431724,-1.43173 m -4.456972,4.45697 -0.405209,0.40521 m 23.14504,-22.74591 0.570924,-0.57093 m -18.393771,18.39377 -2.347628,2.34763 m -2.656974,2.65697 0.336694,-0.33669 m 22.969844,-22.57072 -0.746929,0.74693 m -17.779728,17.77973 0.500357,-0.50036 m -2.012987,2.01299 -2.949659,2.94966 m 22.180434,-21.78132 0.716677,-0.71667 m -17.634277,17.63427 -0.290008,0.29001 m -4.655235,4.65524 1.800785,-1.80079 m 20.837138,-20.43801 -0.991226,0.99122 m -16.729566,16.72957 0.25857,-0.25857 m -3.473579,3.47358 -1.38453,1.38453 m 20.969879,-20.57076 0.972488,-0.97249 m -16.856316,16.85632 -0.201523,0.20152 m -4.535443,4.53544 1.077597,-1.07759 m 20.35015,-19.95103 -1.553939,1.55394 m -15.157138,15.15714 0.202567,-0.20257 m -3.741404,3.7414 -0.836318,0.83632 m 19.552229,-19.1531 1.368469,-1.36847 m -16.160705,16.1607 -0.189418,0.18942 m -4.22906,4.22906 0.622063,-0.62206 m 19.973817,-19.5747 -2.330896,2.3309 m -13.924394,13.92439 0.214152,-0.21415 m -3.710698,3.7107 -0.502528,0.50253 m 16.908757,-16.50964 2.750128,-2.75013 m -5.293959,5.29396 -1.847921,1.84792 m -8.414282,8.41429 0.249141,-0.24915 m -3.615852,3.61586 -0.394498,0.39449 m 12.628223,-12.2291 6.387819,-6.38782 m -14.912733,14.91274 -0.273637,0.27364 m -3.465608,3.4656 0.326427,-0.32642 m 17.985846,-17.58673 -5.759094,5.7591 m -9.06584,9.06584 0.344771,-0.34477 m -3.183819,3.18381 -0.287471,0.28748 m 12.366798,-11.96768 5.42341,-5.42341 m -14.281646,14.28165 -0.371158,0.37115 m -2.776583,2.77659 0.290463,-0.29047 m 17.008282,-16.60916 -5.146406,5.14641 m -9.450462,9.45046 0.483069,-0.48307 m -2.488023,2.48803 -0.336102,0.3361 m 16.155138,-15.75602 0.835754,-0.83575 m -2.34101,2.34101 -2.816681,2.81668 m -9.556293,9.55629 0.491405,-0.4914 m -2.02575,2.02575 -0.381743,0.38174 m 15.988825,-15.5897 0.659307,-0.65931 m -2.387959,2.38796 -0.900333,0.90033 m -1.836613,1.83662 0.711017,-0.71102 m -9.825466,9.82547 -2.031639,2.03163 m 15.817099,-15.41797 0.511785,-0.51179 m -2.303666,2.30367 -0.630694,0.63069 m -2.258551,2.25855 0.5522,-0.5522 m -9.78601,9.78601 -1.523254,1.52326 m 15.588709,-15.18959 0.449584,-0.44958 m -2.198379,2.19838 -0.50462,0.50462 m -2.624798,2.62479 0.528558,-0.52855 m -9.679286,9.67928 -1.180859,1.18086 m 15.360319,-14.96119 0.400906,-0.40091 m -2.081957,2.08196 -0.406298,0.40629 m -2.934661,2.93466 0.460727,-0.46072 m -9.538148,9.53815 -0.881979,0.88197 m 15.126352,-14.72722 0.357806,-0.35781 m -1.963672,1.96367 -0.324651,0.32465 m -3.291715,3.29172 0.454898,-0.4549 m -9.285438,9.28544 -0.69467,0.69467 m 14.879527,-14.48041 0.327562,-0.32756 m -1.821143,1.82114 -0.277885,0.27789 m -3.638131,3.63813 0.449069,-0.44907 m -8.95584,8.95584 -0.568178,0.56818 m 14.616631,-14.21751 0.297319,-0.29732 m -1.678616,1.67862 -0.231119,0.23112 m -3.984547,3.98454 0.443241,-0.44324 m -8.567322,8.56732 -0.496733,0.49674 m 14.349862,-13.95074 0.255183,-0.25519 m -1.527923,1.52793 -0.198909,0.19891 m -4.312679,4.31268 0.437412,-0.43742 m -8.116222,8.11623 -0.487869,0.48786 m 14.068867,-13.66974 0.226824,-0.22682 m -1.336144,1.33614 -0.14918,0.14918 m -4.684173,4.68417 0.405669,-0.40566 m -7.654004,7.654 -0.479005,0.479 m 13.769653,-13.37053 0.216683,-0.21668 m -1.135902,1.1359 -0.132758,0.13276 m -5.104063,5.10406 0.448364,-0.44836 m -7.192981,7.19298 -0.47014,0.47014 m 12.624983,-12.22586 1.051997,-1.052 m -6.084892,6.08489 -0.53589,0.53589 m -6.626372,6.62638 0.439855,-0.43986 m 12.896799,-12.49767 -0.835334,0.83533 m -5.97318,5.97318 0.499172,-0.49917 m -6.162578,6.16258 -0.439248,0.43924 m 12.381997,-11.98287 0.618671,-0.61867 m -6.524502,6.5245 -0.5495,0.5495 m -5.50118,5.50118 0.47576,-0.47576 m 12.137216,-11.73809 -0.303076,0.30307 m -7.288572,7.28858 0.998842,-0.99885 m -5.108563,5.10857 -0.48612,0.48612 m 4.149161,-3.75004 1.104992,-1.10499 m -4.210168,4.21016 -0.560866,0.56087 m 0.471268,-0.0722 4.191449,-4.19145 m -0.460104,0.85923 -3.260076,3.26008 m 0.640999,-0.24188 2.11668,-2.11668 m -0.06535,0.46447 -1.640306,1.64031"
         inkscape:connector-curvature="0" />
    </g>
  </g>
</svg>
