<?xml version="1.0" encoding="UTF-8" standalone="no"?>
<!-- Created with Inkscape (http://www.inkscape.org/) -->

<svg
   xmlns:dc="http://purl.org/dc/elements/1.1/"
   xmlns:cc="http://creativecommons.org/ns#"
   xmlns:rdf="http://www.w3.org/1999/02/22-rdf-syntax-ns#"
   xmlns:svg="http://www.w3.org/2000/svg"
   xmlns="http://www.w3.org/2000/svg"
   xmlns:sodipodi="http://sodipodi.sourceforge.net/DTD/sodipodi-0.dtd"
   xmlns:inkscape="http://www.inkscape.org/namespaces/inkscape"
   width="50mm"
   height="50mm"
   viewBox="0 0 50 50"
   version="1.1"
   id="svg1586"
   inkscape:version="0.92.2 2405546, 2018-03-11"
   sodipodi:docname="50.svg">
  <sodipodi:namedview
     id="base"
     pagecolor="#ffffff"
     bordercolor="#666666"
     borderopacity="1.0"
     inkscape:pageopacity="0.0"
     inkscape:pageshadow="2"
     inkscape:zoom="3.3031094"
     inkscape:cx="32.326932"
     inkscape:cy="161.6702"
     inkscape:document-units="mm"
     inkscape:current-layer="layer1"
     showgrid="false"
     inkscape:window-width="1366"
     inkscape:window-height="703"
     inkscape:window-x="0"
     inkscape:window-y="0"
     inkscape:window-maximized="1" />
  <defs
     id="defs1580" />
  <metadata
     id="metadata1583">
    <rdf:RDF>
      <cc:Work
         rdf:about="">
        <dc:format>image/svg+xml</dc:format>
        <dc:type
           rdf:resource="http://purl.org/dc/dcmitype/StillImage" />
        <dc:title></dc:title>
      </cc:Work>
    </rdf:RDF>
  </metadata>
  <g
     transform="translate(0,-247)"
     id="layer1"
     inkscape:groupmode="layer"
     inkscape:label="Layer 1">
    <g
       id="g945"
       transform="translate(-4.8061493,-5.1572452e-6)">
      <path
         id="path920"
         d="m 31.377297,296.71645 c -0.621904,-0.18966 -1.465278,-0.77033 -1.874157,-1.29038 -0.736575,-0.93684 -0.748082,-0.93888 -1.24995,-0.22203 -0.684507,0.97772 -2.437096,1.65801 -3.63424,1.41068 -0.539338,-0.11143 -1.699057,-0.34761 -2.577159,-0.52484 -2.506821,-0.50597 -3.529732,-1.03988 -4.183418,-2.18357 -0.33342,-0.58334 -1.034069,-1.23844 -1.556995,-1.45576 -1.336419,-0.55541 -2.186292,-2.44766 -1.689032,-3.76066 0.464002,-1.22518 1.706321,-2.60316 2.346863,-2.60316 0.652703,0 0.588777,-0.4984 -0.237911,-1.85493 -1.048242,-1.72007 -0.980244,-5.53789 0.141571,-7.94828 1.278238,-2.74647 3.002958,-3.6434 4.70819,-2.44846 0.690663,0.48399 0.796538,0.45788 1.307561,-0.32239 0.498505,-0.76118 0.499914,-0.89563 0.01362,-1.29942 -1.638468,-1.36043 -2.029685,-4.24589 -0.789527,-5.82323 0.705982,-0.89793 0.728965,-1.07281 0.274513,-2.08885 -0.272785,-0.60987 -0.494691,-2.18734 -0.493119,-3.50546 0.0025,-1.97524 -0.10666,-2.43137 -0.620046,-2.59439 -1.00339,-0.31861 -2.061577,-1.93693 -2.047988,-3.13205 0.01636,-1.43708 0.669402,-2.57903 1.962683,-3.43197 1.502928,-0.99119 2.538381,-0.86049 3.889144,0.49089 0.910251,0.91067 1.318652,1.10479 1.780415,0.84625 0.329569,-0.18451 1.361194,-0.26224 2.292498,-0.17271 l 1.693283,0.16278 -0.186935,-2.06253 c -0.141652,-1.56288 -0.04435,-2.28024 0.40167,-2.96127 1.103796,-1.68541 3.765327,-0.8153 3.765327,1.23097 0,0.45732 -0.264229,1.12359 -0.587171,1.4806 -0.993967,1.09883 0.0349,0.71668 1.119353,-0.41574 1.610122,-1.68139 3.892656,-1.36867 4.950683,0.67827 0.627075,1.21321 0.259712,2.90984 -0.896714,4.14138 -0.872109,0.92874 -0.698204,2.68016 0.340823,3.43255 0.927316,0.67149 2.759091,3.50091 3.650905,5.63927 0.65664,1.57449 0.807891,2.6716 0.874178,6.34081 0.04502,2.4934 0.298658,5.20144 0.57898,6.18229 0.623219,2.18064 0.288801,4.22342 -1.153103,7.04386 l -1.045554,2.04515 0.905684,1.32689 c 0.730822,1.07073 0.872956,1.62402 0.73621,2.86584 -0.193856,1.76038 -1.744236,3.63896 -3.578156,4.33563 -0.608569,0.23118 -1.609576,0.6412 -2.22447,0.91114 -0.614887,0.26995 -1.320755,0.49081 -1.568608,0.49081 -0.247845,0 -0.730201,0.25314 -1.071906,0.56251 -0.774497,0.70124 -2.973673,0.93923 -4.467999,0.48351 z"
         style="fill:none;stroke:#ff0000;stroke-width:0.10000001;stroke-miterlimit:4;stroke-dasharray:none"
         inkscape:connector-curvature="0" />
      <path
         id="path918"
         d="m 35.596728,295.29707 c 0.989108,-0.98958 1.06416,-1.22753 0.86756,-2.75089 -0.173426,-1.3438 -0.137078,-1.53384 0.187203,-0.97872 0.221328,0.37889 0.378583,1.29732 0.349461,2.04098 -0.06366,1.62547 0.35698,1.70137 1.743165,0.31453 0.80642,-0.80678 1.037077,-1.35878 1.037077,-2.48187 0,-1.32118 -0.113431,-1.49763 -1.330458,-2.06966 -0.861959,-0.40514 -1.370349,-0.90588 -1.443749,-1.42202 -0.06944,-0.48832 -0.436967,-0.87794 -0.949559,-1.00666 -2.014616,-0.50587 -2.621583,-2.81705 -0.63589,-2.42132 1.103551,0.21992 2.940507,-0.34893 2.940507,-0.9106 0,-0.20005 -0.187005,-0.36374 -0.41555,-0.36374 -0.589049,0 -1.713185,-1.08418 -1.713185,-1.65229 0,-0.30373 0.427092,-0.47742 1.173949,-0.47742 1.056036,0 2.8124,-0.83222 2.373375,-1.12458 -0.09726,-0.0648 -0.655795,-0.38635 -1.241195,-0.71463 -1.445481,-0.8106 -1.511788,-1.55238 -0.199463,-2.23133 0.597538,-0.30914 1.086429,-0.79004 1.086429,-1.06868 0,-0.88602 -0.792688,-2.28761 -1.589011,-2.80964 -0.763255,-0.50032 -0.768655,-0.48754 -0.608821,1.44077 0.0887,1.07006 -0.0077,2.29329 -0.214269,2.71828 -0.206548,0.42499 -0.638627,1.60942 -0.960171,2.63204 -0.321559,1.02263 -0.740606,1.95575 -0.931208,2.07361 -0.19061,0.11786 -0.711188,1.03915 -1.156835,2.04731 -0.802414,1.81523 -2.785005,4.23828 -3.713151,4.53804 -0.264637,0.0855 -0.539718,0.7088 -0.611293,1.38519 -0.07158,0.67637 -0.223988,1.76209 -0.338695,2.41271 -0.259918,1.47426 0.520396,2.76775 2.078805,3.44594 1.831098,0.79685 3.011674,0.63851 4.214972,-0.56535 z"
         style="fill:none;stroke:#0000ff;stroke-width:0.10000001;stroke-miterlimit:4;stroke-dasharray:none"
         inkscape:connector-curvature="0" />
      <path
         id="path916"
         d="m 26.47286,295.67187 c 1.377603,-0.524 2.438408,-3.15641 2.448158,-6.07514 0.0086,-2.56463 -0.373187,-3.40834 -2.547811,-5.63095 -1.946608,-1.98958 -2.253372,-2.6468 -2.253372,-4.82772 0,-1.23424 -0.188428,-2.21507 -0.481944,-2.50873 -0.354589,-0.35475 -0.396373,-0.78068 -0.158118,-1.61181 0.469043,-1.63622 0.142053,-1.64135 -0.689397,-0.0109 -0.714865,1.4019 -0.715043,1.41665 -0.02477,2.04164 0.938648,0.84986 0.874765,1.5178 -0.191653,2.00392 -1.416626,0.64575 -1.210292,1.21686 1.064364,2.94601 0.705351,0.53619 0.704776,0.54347 -0.09645,1.2235 l -0.806029,0.68412 0.796272,0.55798 c 0.43795,0.3069 1.080057,0.55799 1.426908,0.55799 0.860616,0 0.793466,0.88543 -0.132613,1.74861 -0.633808,0.59076 -0.68661,0.80378 -0.311348,1.25615 0.280418,0.33805 0.30873,0.54477 0.07461,0.54477 -0.207509,0 -0.462509,-0.13795 -0.56666,-0.30656 -0.104155,-0.1686 -0.833114,-0.30655 -1.61991,-0.30655 -1.206463,0 -1.621525,0.2115 -2.649826,1.35024 -1.483493,1.64281 -1.9273,3.48745 -1.11738,4.64431 l 0.567576,0.8107 0.0049,-0.87762 c 0.007,-1.26437 0.379783,-2.47491 0.762187,-2.47491 0.182458,0 0.228662,0.53771 0.103542,1.20496 -0.293058,1.56286 0.316648,2.69952 1.448032,2.69952 0.735127,0 0.874488,-0.1697 0.874488,-1.06486 0,-0.58567 0.176735,-1.06485 0.392747,-1.06485 0.218333,0 0.293537,0.25865 0.169344,0.58244 -0.12287,0.32034 0.02338,0.95926 0.32501,1.4198 0.592117,0.90411 1.658865,1.06595 3.18918,0.48386 z"
         style="fill:none;stroke:#0000ff;stroke-width:0.10000001;stroke-miterlimit:4;stroke-dasharray:none"
         inkscape:connector-curvature="0" />
      <path
         id="path914"
         d="m 41.555132,292.83081 c 0.441228,-0.44142 0.720472,-1.2133 0.738393,-2.04097 l 0.02877,-1.33107 0.449441,1.01775 c 0.369274,0.8362 0.490701,0.91017 0.680762,0.41466 0.401805,-1.04758 0.25194,-2.48733 -0.348123,-3.34444 -0.458735,-0.65523 -0.80981,-0.79025 -1.685248,-0.64813 -0.93918,0.15249 -1.114219,0.0648 -1.161687,-0.58239 -0.03077,-0.41906 -0.110568,-1.07526 -0.177394,-1.45823 -0.08256,-0.47313 0.105932,-0.73549 0.58807,-0.81855 1.313402,-0.22627 2.608533,-0.8537 2.801677,-1.35727 0.116873,-0.30468 -0.03549,-0.49993 -0.390044,-0.49993 -0.725821,0 -1.879437,-1.01419 -1.879437,-1.6523 0,-0.27586 0.38429,-0.4774 0.910287,-0.4774 1.013908,0 2.282807,-0.57419 2.282807,-1.03298 0,-0.16395 -0.398648,-0.2981 -0.885882,-0.2981 -0.996806,0 -1.952423,-0.65578 -1.952423,-1.33981 0,-0.24983 0.478961,-0.62128 1.06436,-0.82546 0.721844,-0.25175 1.06436,-0.60842 1.06436,-1.10836 0,-0.97224 -1.469075,-1.55324 -2.611118,-1.03264 -0.80688,0.3678 -0.828855,0.48738 -0.667043,3.63001 l 0.167319,3.24967 -1.460272,2.76774 c -1.487968,2.82022 -1.853459,4.50878 -0.975941,4.50878 0.266382,0 0.922852,0.34509 1.458818,0.76689 0.877556,0.69059 0.958075,0.93774 0.809503,2.48466 -0.180119,1.8754 0.06669,2.0917 1.150014,1.00787 z"
         style="fill:none;stroke:#0000ff;stroke-width:0.10000001;stroke-miterlimit:4;stroke-dasharray:none"
         inkscape:connector-curvature="0" />
      <path
         id="path912"
         d="m 17.850375,290.85444 c 0.415496,-1.56654 2.635845,-3.82134 3.53205,-3.58687 0.952876,0.24929 1.723731,-0.064 1.723731,-0.70054 0,-0.27972 -0.310532,-1.11757 -0.690074,-1.86187 -1.099686,-2.15657 -1.592078,-5.72775 -1.08266,-7.85223 0.474465,-1.9787 0.136246,-2.83458 -1.120147,-2.83458 -0.949807,0 -1.192109,0.91107 -0.516614,1.94249 0.940659,1.43629 0.746665,1.72759 -0.991767,1.48919 -2.873506,-0.39403 -2.191299,1.44683 0.764684,2.06344 0.634184,0.13228 1.153062,0.37596 1.153062,0.5415 0,0.60656 -1.898393,1.77232 -2.886151,1.77232 -0.656195,0 -1.016517,0.1843 -1.016517,0.51995 0,0.83229 1.333545,1.33168 2.864863,1.07285 1.241503,-0.20985 1.392593,-0.15694 1.392593,0.48766 0,0.71101 -1.990152,2.53393 -2.766403,2.53393 -1.695042,0 -3.495081,2.23637 -3.088856,3.83761 l 0.242086,0.95425 0.471648,-1.06487 0.471649,-1.06485 0.02881,1.27191 c 0.04666,2.05957 1.013615,2.36531 1.514008,0.47871 z"
         style="fill:none;stroke:#0000ff;stroke-width:0.10000001;stroke-miterlimit:4;stroke-dasharray:none"
         inkscape:connector-curvature="0" />
      <path
         id="path910"
         d="m 31.532545,286.77522 c 1.34557,-1.31615 2.359526,-3.81719 2.143775,-5.28787 -0.179313,-1.22229 -0.02249,-1.34687 0.608542,-0.48346 0.396919,0.54306 0.477202,0.51926 0.897868,-0.26622 0.254085,-0.47444 0.501935,-1.71516 0.550775,-2.75715 0.08596,-1.83395 0.468407,-3.00618 0.530307,-1.62541 0.02104,0.47053 0.121348,0.37813 0.325128,-0.29963 0.167245,-0.55626 0.146853,-1.51544 -0.04722,-2.21845 -0.467014,-1.69219 -1.466395,-1.65308 -2.319262,0.0907 -0.403826,0.82569 -1.028646,1.45988 -1.649377,1.67411 -0.910889,0.31438 -1.124706,0.20898 -2.417365,-1.19161 -1.241946,-1.34565 -1.55301,-1.5095 -2.504257,-1.31916 -0.597389,0.11953 -1.461241,0.21733 -1.919673,0.21733 -0.564166,0 -1.008425,0.3384 -1.374804,1.04723 -0.722199,1.39723 -0.682257,1.76281 0.168283,1.54028 0.817191,-0.2138 0.843384,-0.0668 0.322552,1.80987 -0.484215,1.74474 -0.135149,3.90674 0.586057,3.62985 0.34502,-0.13245 0.510544,0.0474 0.510544,0.5547 0,0.41287 0.718445,1.51912 1.596546,2.45831 0.8781,0.9392 1.596545,2.00731 1.596545,2.37358 0,1.48212 0.913239,1.50232 2.394993,0.053 z"
         style="fill:none;stroke:#0000ff;stroke-width:0.10000001;stroke-miterlimit:4;stroke-dasharray:none"
         inkscape:connector-curvature="0" />
      <path
         id="path908"
         d="m 33.594804,274.21143 c 0.31402,-0.47948 0.467935,-1.03852 0.34203,-1.24234 -0.343794,-0.55652 -1.599675,-0.4456 -1.832676,0.16187 -0.112322,0.29284 -0.407069,0.53243 -0.654998,0.53243 -0.247934,0 -0.649536,-0.23959 -0.892456,-0.53243 -0.24292,-0.29283 -0.665475,-0.53243 -0.939018,-0.53243 -0.306096,0 -0.06283,0.47772 0.632634,1.24234 1.346509,1.4804 2.53163,1.61171 3.344484,0.37056 z"
         style="fill:none;stroke:#0000ff;stroke-width:0.10000001;stroke-miterlimit:4;stroke-dasharray:none"
         inkscape:connector-curvature="0" />
      <path
         id="path906"
         d="m 40.792225,273.55021 c 0.213589,-0.25748 0.578827,-1.57949 0.811647,-2.93781 0.386995,-2.25783 0.354535,-2.69616 -0.37833,-5.11012 -0.440909,-1.45225 -1.004665,-2.93042 -1.252796,-3.28485 -0.418719,-0.59809 -0.482325,-0.5691 -0.884935,0.40333 -0.384223,0.92802 -0.338998,1.17602 0.395892,2.17065 1.430797,1.9365 0.836021,5.1669 -1.232378,6.69341 -0.625543,0.46165 -0.610759,0.53002 0.326299,1.50855 1.080043,1.12785 1.626872,1.26534 2.214601,0.55684 z"
         style="fill:none;stroke:#0000ff;stroke-width:0.10000001;stroke-miterlimit:4;stroke-dasharray:none"
         inkscape:connector-curvature="0" />
      <path
         id="path904"
         d="m 43.468512,273.10193 c 0.118445,-0.30881 0.202741,-1.14737 0.187337,-1.8635 -0.01538,-0.71611 -0.117992,-1.06244 -0.227981,-0.76961 -0.109978,0.29284 -0.496515,0.95641 -0.858961,1.4746 -0.362441,0.5182 -0.658986,1.11718 -0.658986,1.33108 0,0.60373 1.316747,0.45794 1.558591,-0.17257 z"
         style="fill:none;stroke:#0000ff;stroke-width:0.10000001;stroke-miterlimit:4;stroke-dasharray:none"
         inkscape:connector-curvature="0" />
      <path
         id="path902"
         d="m 29.025989,271.82676 c 0.966191,-0.90811 1.126228,-3.28822 0.325192,-4.83635 -0.668825,-1.2926 -3.384103,-2.3268 -4.747457,-1.80823 -3.243842,1.23388 -3.651706,5.37461 -0.674112,6.84372 1.689014,0.83332 4.098021,0.7392 5.096377,-0.19914 z"
         style="fill:none;stroke:#0000ff;stroke-width:0.10000001;stroke-miterlimit:4;stroke-dasharray:none"
         inkscape:connector-curvature="0" />
      <path
         id="path900"
         d="m 36.585497,271.67078 c 2.553959,-1.02236 3.830868,-3.91283 2.697349,-6.10583 -0.69785,-1.35011 -1.544913,-1.84023 -3.180505,-1.84023 -1.672454,0 -2.737611,0.44654 -4.264465,1.78776 -1.035154,0.9093 -1.280168,1.37395 -1.275942,2.41971 0.0073,1.79875 0.678319,2.96204 2.128433,3.68967 1.528467,0.76696 2.083975,0.77394 3.89513,0.0489 z"
         style="fill:none;stroke:#0000ff;stroke-width:0.10000001;stroke-miterlimit:4;stroke-dasharray:none"
         inkscape:connector-curvature="0" />
      <path
         id="path898"
         d="m 43.565387,267.65733 c -0.23374,-2.23733 -1.169339,-4.99746 -1.693984,-4.99746 -0.614881,0 -0.306028,1.75665 0.429348,2.44208 0.622751,0.58045 0.704963,0.9357 0.498926,2.15582 -0.162343,0.96135 -0.09916,1.63869 0.184793,1.98099 0.717429,0.86486 0.810121,0.61252 0.580917,-1.58143 z"
         style="fill:none;stroke:#0000ff;stroke-width:0.10000001;stroke-miterlimit:4;stroke-dasharray:none"
         inkscape:connector-curvature="0" />
      <path
         id="path896"
         d="m 25.622157,264.3752 c 0.519895,0.0352 1.186506,-0.23308 1.533982,-0.61722 0.588909,-0.65104 0.572766,-0.69929 -0.387273,-1.15757 -1.778204,-0.84883 -1.445328,-3.49006 0.439856,-3.49006 0.892824,0 1.60674,0.75815 0.927281,0.98475 -0.229682,0.0766 -0.417603,0.30277 -0.417603,0.50261 0,0.19984 0.239482,0.27141 0.532182,0.15904 0.766715,-0.29436 0.682655,0.92851 -0.159005,2.31315 -0.380155,0.6254 -0.610214,1.26818 -0.511247,1.42839 0.253812,0.41087 3.953886,0.36409 4.211693,-0.0532 0.117059,-0.18949 -0.0473,-0.8478 -0.365247,-1.46293 -1.175992,-2.27516 0.23935,-4.80531 2.190503,-3.91591 1.585275,0.72264 0.841945,3.23871 -0.956813,3.23871 -0.972368,0 -1.029793,0.0646 -0.664376,0.74772 0.335275,0.62676 0.581239,0.70237 1.52033,0.46732 0.616189,-0.15422 1.909774,-0.31169 2.874621,-0.34992 1.344142,-0.0532 1.815253,-0.22476 2.015095,-0.73354 0.464611,-1.18283 0.327706,-1.5514 -0.576275,-1.5514 -0.487837,0 -1.215789,-0.32896 -1.617673,-0.73103 l -0.730695,-0.73103 1.174187,-0.79166 c 0.796438,-0.53697 1.174181,-1.07258 1.174181,-1.66488 0,-0.7467 -0.185691,-0.88879 -1.281266,-0.98048 -0.955496,-0.08 -1.551879,0.12058 -2.345579,0.78874 -0.585379,0.49278 -1.166306,0.79395 -1.290951,0.66924 -0.429742,-0.42994 -0.224656,-1.7199 0.483631,-3.04203 l 0.710267,-1.32581 h -0.879478 c -1.135215,0 -1.994452,1.30508 -2.228815,3.38531 -0.215671,1.91431 -0.487894,2.15773 -1.348748,1.20606 -0.44391,-0.49075 -0.647828,-1.27021 -0.647828,-2.4763 0,-1.61271 -0.07008,-1.76012 -0.836842,-1.76012 -1.13436,0 -2.112699,2.19088 -1.53994,3.44853 0.211482,0.46436 0.384512,0.99651 0.384512,1.18255 0,0.635 -2.013482,0.34408 -2.67425,-0.3864 l -0.655495,-0.72466 -0.451285,0.8134 c -0.677392,1.22092 -0.579819,1.67428 0.597073,2.77416 l 1.0735,1.00326 -0.797655,0.55896 c -0.438709,0.30743 -0.993307,0.55896 -1.232438,0.55896 -0.330063,0 -0.344439,0.25927 -0.05969,1.07647 0.309141,0.88722 0.50862,1.03253 1.134605,0.8266 0.417734,-0.13744 1.173273,-0.22192 1.678974,-0.18774 z"
         style="fill:none;stroke:#0000ff;stroke-width:0.10000001;stroke-miterlimit:4;stroke-dasharray:none"
         inkscape:connector-curvature="0" />
      <path
         id="path894"
         d="m 26.835684,261.60843 c -0.121526,-0.38308 -0.04684,-1.022 0.165966,-1.41982 0.212813,-0.39782 0.253585,-0.72331 0.09061,-0.72331 -0.490015,0 -1.147803,0.81366 -1.147803,1.41981 0,0.50345 0.63369,1.41981 0.981837,1.41981 0.07169,0 0.0309,-0.31342 -0.09061,-0.69649 z"
         style="fill:none;stroke:#0000ff;stroke-width:0.10000001;stroke-miterlimit:4;stroke-dasharray:none"
         inkscape:connector-curvature="0" />
      <path
         id="path892"
         d="m 32.326721,261.23272 c -0.211025,-0.39448 -0.287045,-0.87366 -0.16894,-1.06485 0.118109,-0.19119 0.04566,-0.34761 -0.160985,-0.34761 -0.41012,0 -0.521219,1.51087 -0.139201,1.89307 0.516479,0.51672 0.830524,0.19499 0.469126,-0.48061 z"
         style="fill:none;stroke:#0000ff;stroke-width:0.10000001;stroke-miterlimit:4;stroke-dasharray:none"
         inkscape:connector-curvature="0" />
      <path
         id="path890"
         d="m 40.963659,260.82487 c -0.728072,-1.24722 -1.537254,-1.71174 -1.537254,-0.88248 0,0.46165 1.564612,2.00758 2.031838,2.00758 0.08922,0 -0.133341,-0.50629 -0.494584,-1.1251 z"
         style="fill:none;stroke:#0000ff;stroke-width:0.10000001;stroke-miterlimit:4;stroke-dasharray:none"
         inkscape:connector-curvature="0" />
      <path
         id="path888"
         d="m 33.908461,259.78994 c -0.114231,-0.18492 -0.358921,-0.24272 -0.543755,-0.12843 -0.184835,0.11429 -0.242597,0.35909 -0.128363,0.54401 0.114231,0.18492 0.358922,0.24271 0.543756,0.12842 0.184833,-0.11428 0.242598,-0.35908 0.128362,-0.544 z"
         style="fill:none;stroke:#0000ff;stroke-width:0.10000001;stroke-miterlimit:4;stroke-dasharray:none"
         inkscape:connector-curvature="0" />
      <path
         id="path886"
         d="m 22.39658,257.42097 c 0,-0.14827 -0.31931,-0.46907 -0.709576,-0.71292 -0.797191,-0.49807 -0.963718,-2.17079 -0.283831,-2.851 0.611317,-0.6116 2.070295,-0.52462 2.836492,0.16909 0.496185,0.44926 0.757398,0.49479 1.066177,0.18587 0.442495,-0.4427 -0.365223,-1.59841 -1.566734,-2.24174 -0.803339,-0.43013 -2.92334,0.43657 -3.442699,1.40745 -0.601242,1.12396 -0.450972,2.68653 0.340053,3.53599 0.70005,0.75176 1.760118,1.05727 1.760118,0.50726 z"
         style="fill:none;stroke:#0000ff;stroke-width:0.10000001;stroke-miterlimit:4;stroke-dasharray:none"
         inkscape:connector-curvature="0" />
      <path
         id="path884"
         d="m 23.672128,255.73652 c 0.469274,-0.71652 0.496866,-0.99217 0.142132,-1.4198 -0.827486,-0.99753 -2.482044,-0.40481 -2.482044,0.88915 0,0.6821 0.677812,1.41981 1.304537,1.41981 0.249175,0 0.715094,-0.40012 1.035375,-0.88916 z"
         style="fill:none;stroke:#0000ff;stroke-width:0.10000001;stroke-miterlimit:4;stroke-dasharray:none"
         inkscape:connector-curvature="0" />
      <path
         id="path882"
         d="m 39.400659,254.27062 c 0.995269,-1.26588 0.941766,-2.79495 -0.135519,-3.87274 -1.009327,-1.00979 -1.300725,-1.05086 -2.618503,-0.3691 -1.221763,0.63209 -2.120516,2.19129 -1.576718,2.73533 0.274582,0.27471 0.450359,0.17221 0.619615,-0.3613 0.287475,-0.90617 1.7717,-1.34712 2.499718,-0.74263 0.678858,0.56366 0.678479,1.91367 -7.32e-4,2.47759 -0.523772,0.43489 -0.423774,1.0681 0.16867,1.0681 0.169457,0 0.638995,-0.42086 1.043424,-0.93525 z"
         style="fill:none;stroke:#0000ff;stroke-width:0.10000001;stroke-miterlimit:4;stroke-dasharray:none"
         inkscape:connector-curvature="0" />
      <path
         id="path880"
         d="m 38.15329,253.32791 c 0.470118,-0.74564 -0.519856,-1.87641 -1.360285,-1.55377 -0.663962,0.25491 -0.736096,1.3385 -0.129513,1.94537 0.521927,0.52216 0.991493,0.39874 1.489798,-0.3916 z"
         style="fill:none;stroke:#0000ff;stroke-width:0.10000001;stroke-miterlimit:4;stroke-dasharray:none"
         inkscape:connector-curvature="0" />
      <path
         id="path1252"
         d="m 33.749797,252.17394 c 0,-0.10578 -0.31931,-0.53522 -0.709576,-0.95432 -0.390267,-0.41909 -0.691056,-1.09126 -0.66842,-1.4937 0.0353,-0.62744 0.06483,-0.64032 0.207309,-0.0903 0.211415,0.81615 1.29752,0.6356 1.46681,-0.24385 0.07919,-0.4114 -0.02033,-0.56812 -0.264739,-0.41699 -0.215388,0.13318 -0.648404,-0.0147 -0.962257,-0.32876 -0.738681,-0.73903 -1.343563,-0.52353 -1.497641,0.53355 -0.07463,0.512 0.129614,1.02406 0.52333,1.31209 0.54097,0.39574 0.574728,0.58611 0.208083,1.17347 -0.399395,0.63983 -0.34436,0.7011 0.629732,0.7011 0.587052,0 1.067369,-0.0865 1.067369,-0.19231 z"
         style="fill:none;stroke:#0000ff;stroke-width:0.10000001;stroke-miterlimit:4;stroke-dasharray:none"
         inkscape:connector-curvature="0" />
      <path
         id="path864"
         style="fill:none;stroke:#0000ff;stroke-width:0.10000001"
         d="m 21.252921,251.91603 -1.237602,1.2376 m -0.366586,0.76571 2.508844,-2.50884 m 0.526895,-0.12777 -0.613492,0.61349 m -2.481252,2.48125 0.09858,-0.0986 m 3.404618,-3.00549 -0.361519,0.36152 m -3.256288,3.25629 0.210505,-0.21051 m 3.755959,-3.35684 -0.322131,0.32214 m -3.60332,3.60332 0.152064,-0.15207 m 4.03449,-3.63537 -0.146367,0.14637 m -3.988228,3.98823 0.156926,-0.15693 m 4.242237,-3.84311 -0.113237,0.11324 m -2.332348,2.33234 0.287903,-0.2879 m -2.026817,2.02682 -0.131079,0.13108 m 4.440584,-4.04146 0.09505,-0.0951 m -2.019024,2.01903 -0.845107,0.84511 m -1.539123,1.53912 0.07646,-0.0765 m 4.546856,-4.14773 -0.07857,0.0786 m -4.412364,4.41236 0.0577,-0.0577 m 4.653283,-4.25416 -0.06208,0.0621 m -4.516525,4.51652 0.07901,-0.079 m 4.719653,-4.32053 -0.05761,0.0576 m -4.576382,4.57638 0.06803,-0.068 m 4.775297,-4.37617 -0.07566,0.0757 m 0.191281,0.20784 0.09166,-0.0917 m -4.605044,4.60504 -0.08006,0.0801 m 4.789054,-4.38994 0.100523,-0.10052 m -4.591491,4.59149 -0.10374,0.10374 m 4.721124,-4.322 0.213148,-0.21315 m -4.602448,4.60245 -0.104552,0.10455 m 10.344023,-9.9449 0.06842,-0.0684 m -5.477561,5.47756 -0.314617,0.31462 m -1.253585,1.25358 0.196987,-0.19698 m -3.187313,3.18731 -0.111378,0.11138 m 9.797812,-9.39869 1.077622,-1.07762 m -5.894524,5.89452 -3.7494,3.7494 m -0.973193,0.97319 0.101222,-0.10122 m 11.008342,-10.60922 -1.720739,1.72074 m -9.143328,9.14333 4.92909,-4.92909 m 6.275452,-5.87633 -0.611417,0.61141 m -1.471325,1.47133 0.13834,-0.13834 m -3.818437,3.81844 -5.302588,5.30258 m 10.698168,-10.29904 0.695307,-0.69531 m -2.270184,2.27019 -0.161319,0.16132 m -6.933646,6.93364 3.748865,-3.74886 m -4.79437,4.79437 -0.852381,0.85238 m 10.799827,-10.40071 0.73006,-0.73006 m -2.429298,2.4293 -0.24711,0.24711 m -6.766033,6.76603 3.953709,-3.95371 m -5.546787,5.54679 -0.450933,0.45093 m 10.992956,-10.59383 0.74081,-0.74081 m -2.535448,2.53545 -0.432977,0.43298 m -2.499949,2.49995 0.126734,-0.12674 m -2.241327,2.24133 -1.917227,1.91723 m -2.177457,2.17745 0.422327,-0.42233 m 11.46076,-11.06163 -0.703034,0.70303 m -2.378292,2.37829 0.510014,-0.51001 m -2.507159,2.50716 -0.202069,0.20207 m -4.23553,4.23553 1.679786,-1.67979 m -3.607939,3.60794 -0.4303,0.4303 m 11.460577,-11.06145 0.59646,-0.59646 m -2.552922,2.55292 -0.677751,0.67775 m -2.023216,2.02322 0.302531,-0.30253 m -3.061558,3.06155 -1.471134,1.47114 m -2.565376,2.56537 0.573135,-0.57313 m 11.616739,-11.21762 -0.366734,0.36674 m -2.971219,2.97121 0.859484,-0.85948 m -2.249218,2.24922 -0.478417,0.47842 m -4.171782,4.17178 1.240279,-1.24028 m -3.345836,3.34583 -0.727874,0.72788 m 12.180326,-11.78121 0.173346,-0.17334 m -2.458185,2.45818 -0.988955,0.98896 m -1.833721,1.83372 0.774937,-0.77494 m -3.664163,3.66417 -1.088442,1.08844 m -3.049099,3.0491 0.855205,-0.85521 m 11.471982,-11.07286 -0.194328,0.19433 m -1.348901,1.3489 0.194431,-0.19443 m -1.403346,1.40335 -0.681387,0.68138 m -1.811311,1.81131 1.083479,-1.08347 m -3.926869,3.92686 -0.859697,0.8597 m -3.352735,3.35274 1.022481,-1.02249 m 11.355605,-10.95648 -1.463511,1.46351 m -3.849398,3.8494 2.302922,-2.30292 m -5.043606,5.04361 -0.659583,0.65958 m -3.638386,3.63838 1.189757,-1.18975 m 10.918488,-10.51937 -1.061409,1.06141 m -4.001396,4.0014 2.528444,-2.52845 m -5.163853,5.16386 -0.393111,0.39311 m -3.990396,3.99039 1.357033,-1.35703 m 10.335045,-9.93592 -0.489236,0.48923 m -4.166034,4.16604 2.81887,-2.81887 m -5.402554,5.40255 -0.05906,0.0591 m -4.367544,4.36754 1.536187,-1.53618 m 8.690848,-8.29173 -3.216021,3.21602 m -6.979656,6.97966 1.71114,-1.71114 m 10.363201,-9.96408 -0.574926,0.57492 m -4.46044,4.46044 3.553805,-3.5538 m -8.675329,8.67533 -0.923147,0.92315 m 9.698861,-9.29974 2.880424,-2.88043 m -4.840467,4.84047 -1.648809,1.64881 m -3.317397,3.3174 0.340463,-0.34047 m -1.983617,1.98362 -0.253153,0.25315 m 9.358668,-8.95954 3.175533,-3.17554 m -5.636027,5.63603 -1.576667,1.57667 m 4.436283,-4.03716 0.710674,-0.71068 m -3.83522,3.83522 -1.202188,1.20219 m 4.674254,-4.27513 0.354869,-0.35487 m -3.929468,3.92947 -0.938126,0.93813 m -2.275722,2.27572 0.166135,-0.16614 m 7.085816,-6.68669 -0.370452,0.37045 m -4.419832,4.41983 0.676701,-0.6767 m -2.730978,2.73098 -0.637848,0.63785 m -4.435931,4.43593 0.09527,-0.0953 m 11.994301,-11.59517 -1.249946,1.24994 m -3.500079,3.50008 0.389237,-0.38924 m -2.472173,2.47218 -1.020888,1.02088 m -4.154835,4.15484 0.20377,-0.20377 m 13.482982,-13.08386 -3.444968,3.44497 m -2.771629,2.77163 0.180386,-0.18039 m -3.068798,3.0688 -0.404252,0.40425 m -4.388996,4.389 0.689294,-0.6893 m 12.573224,-12.1741 -2.755518,2.75552 m -6.088249,6.08825 0.570326,-0.57033 m -3.82655,3.82655 -1.431637,1.43164 m 10.575261,-10.17614 3.022202,-3.0222 m -7.941472,7.94147 -0.887477,0.88748 m -5.238217,5.23821 2.397878,-2.39787 m 11.764683,-11.36556 -3.1293,3.1293 m -5.915261,5.91526 1.39015,-1.39015 m -3.627342,3.62734 -0.149712,0.14971 m -2.942993,2.94299 0.138987,-0.13898 m 14.389396,-13.99028 -3.287199,3.2872 m -5.647922,5.64792 1.149619,-1.14961 m -3.23708,3.23708 -0.101722,0.10172 m 7.958318,-7.5592 3.319911,-3.31991 m -8.136913,8.13691 -0.719314,0.71932 m -2.030699,2.0307 0.124954,-0.12496 m 10.987773,-10.58865 -2.374596,2.3746 m -6.495911,6.49591 0.09633,-0.0963 m -1.613896,1.61389 -0.329268,0.32927 m 9.418887,-9.01977 1.506056,-1.50605 m -8.998833,8.99883 -1.599102,1.5991 m 12.103661,-11.70454 0.06848,-0.0685 m -1.186871,1.18687 -1.438775,1.43877 m -4.193409,4.19341 0.627876,-0.62787 m -4.848804,4.8488 -0.79189,0.79189 m 9.611534,-9.21241 2.045883,-2.04588 m -5.487904,5.4879 -0.50363,0.50363 m -5.363812,5.36381 0.38998,-0.38998 m 10.366436,-9.96731 -1.050523,1.05052 m -4.264351,4.26435 0.743472,-0.74347 m -1.737735,1.73774 -0.133847,0.13384 m -4.009291,4.00929 0.312153,-0.31215 m 10.128199,-9.72907 -0.69175,0.69175 m -4.539248,4.53924 1.009582,-1.00958 m -2.057524,2.05753 -0.08172,0.0817 m -3.793571,3.79357 0.303376,-0.30338 m -8.918845,8.91885 -1.316405,1.3164 m 19.747199,-19.34808 0.489038,-0.48903 m -4.865017,4.86501 -0.507782,0.50778 m -1.093706,1.09371 0.163791,-0.16379 m -3.372576,3.37257 -0.354341,0.35435 m -10.21569,10.21569 1.933009,-1.93301 m 20.523635,-20.12452 -0.09028,0.0903 m -2.333634,2.33363 0.502293,-0.50229 m -5.018902,5.0189 -0.541982,0.54198 m -1.136523,1.13652 0.225249,-0.22525 m -3.117897,3.1179 -0.454546,0.45455 m -10.938261,10.93826 2.774888,-2.77489 m 19.894405,-19.49528 -1.946805,1.9468 m -5.197933,5.19794 0.659729,-0.65973 m -1.439681,1.43968 -0.349853,0.34985 m -3.211355,3.21136 0.591784,-0.59179 m -6.314897,6.3149 -0.05646,0.0565 m -2.442694,2.4427 0.224218,-0.22422 m -1.172267,1.17227 -2.322072,2.32207 m 21.194491,-20.79537 1.124714,-1.12471 m -4.973155,4.97315 -1.361954,1.36196 m -4.245693,4.24569 0.728146,-0.72815 m -6.509038,6.50904 -0.05904,0.059 m -2.152401,2.1524 0.06825,-0.0682 m -1.546346,1.54634 -2.395555,2.39556 m 21.399049,-20.99993 0.601604,-0.6016 m -4.465979,4.46598 -1.515681,1.51568 m -3.921284,3.92128 0.875122,-0.87512 m -6.669514,6.66951 -0.08139,0.0814 m -5.33999,5.33999 1.626566,-1.62657 m -2.571055,2.57106 -0.09772,0.0977 m 21.58712,-21.188 0.489165,-0.48917 m -4.48146,4.48146 -0.919441,0.91945 m -4.20455,4.20455 1.091,-1.091 m -6.878631,6.87863 -0.10491,0.10491 m -5.133239,5.13324 1.348977,-1.34898 m -2.568359,2.56836 -0.299039,0.29904 m 19.540751,-19.14163 2.583907,-2.58391 m -8.060732,8.06073 -1.306878,1.30688 m -5.903316,5.90332 0.147642,-0.14764 m -2.01298,2.01298 -0.0562,0.0562 m -3.009419,3.00942 1.069872,-1.06987 m -2.528657,2.52866 -0.617443,0.61744 m 19.893714,-19.49459 2.461856,-2.46186 m -6.457758,6.45776 -0.135576,0.13558 m -2.680769,2.68076 1.545537,-1.54553 m -7.220959,7.22096 -0.242095,0.24209 m -1.903152,1.90315 0.12714,-0.12714 m -2.09954,2.09954 -0.833666,0.83367 m -2.430036,2.43003 0.800917,-0.80091 m 21.625317,-21.2262 -2.3577,2.3577 m -6.844219,6.84422 2.888427,-2.88842 m -8.461017,8.46101 -0.548206,0.54821 m -1.727059,1.72706 0.246573,-0.24658 m -2.216444,2.21645 -0.603355,0.60335 m -2.830193,2.8302 1.05749,-1.05749 m 21.510047,-21.11093 -2.23316,2.23316 m -6.949167,6.94917 3.106076,-3.10608 m -8.528737,8.52874 -2.459083,2.45908 m -2.299721,2.29972 0.37269,-0.37269 m -2.284652,2.28466 -1.324963,1.32496 m 20.607298,-20.20818 2.146746,-2.14674 m -5.668994,5.66899 -3.549475,3.54948 m -8.055891,8.05589 2.803966,-2.80397 m -4.573391,4.57339 -0.09978,0.0998 m -3.599223,3.59922 1.586758,-1.58676 m 21.315809,-20.91669 -2.066781,2.06678 m -4.023867,4.02387 0.665874,-0.66587 m -3.4111,3.4111 -0.436651,0.43665 m -6.029327,6.02932 0.988524,-0.98852 m -2.428226,2.42823 -0.632623,0.63262 m -5.517137,5.51714 1.848552,-1.84855 m 21.248318,-20.8492 -1.980711,1.98071 m -3.332575,3.33258 0.162209,-0.16221 m -3.924221,3.92422 -0.322635,0.32263 m -6.009219,6.00922 1.192486,-1.19248 m -3.101269,3.10127 -0.338671,0.33867 m -5.426609,5.42661 2.110285,-2.11029 m 21.175359,-20.77624 -1.854543,1.85455 m -7.671588,7.67158 0.213934,-0.21393 m -4.736699,4.7367 -1.627717,1.62772 m -2.289178,2.28917 0.326771,-0.32677 m -3.225018,3.22502 -2.374782,2.37478 m 21.684924,-21.2858 1.750234,-1.75023 m -9.452499,9.4525 -0.228095,0.22809 m -4.416222,4.41622 0.221781,-0.22178 m -3.834331,3.83433 -0.49884,0.49884 m -5.180128,5.18013 2.63928,-2.63928 m 20.945392,-20.54627 -1.548278,1.54828 m -8.289947,8.28995 0.227911,-0.22791 m -4.090861,4.09086 -0.14131,0.14131 m -2.49238,2.49238 0.08108,-0.0811 m -1.507647,1.50765 -0.738369,0.73837 m -3.994211,3.99421 1.861202,-1.8612 m 20.829149,-20.43003 -0.05302,0.053 m -1.459452,1.45945 0.603576,-0.60358 m -8.859233,8.85924 -0.345328,0.34532 m -8.607168,8.60717 0.963017,-0.96301 m -2.768524,2.76852 -1.726233,1.72623 m -1.384821,1.38482 0.07707,-0.0771 m 22.783402,-22.38428 -0.520382,0.52038 m -8.757798,8.7578 0.372811,-0.37281 m -6.707316,6.70732 -0.09319,0.0932 m -2.28438,2.28438 1.205023,-1.20502 m -2.661165,2.66116 -1.396665,1.39667 m -1.948098,1.9481 0.178379,-0.17838 m 22.780369,-22.38125 -0.646229,0.64623 m -2.111528,2.11153 0.08991,-0.0899 m -6.293902,6.2939 -0.522226,0.52223 m -6.218895,6.21889 0.224913,-0.22491 m -1.290862,1.29086 -1.364298,1.3643 m -2.0663,2.0663 0.873805,-0.87381 m -3.233921,3.23392 -0.272933,0.27294 m 22.169013,-21.76989 0.850393,-0.8504 m -2.41484,2.41484 -0.163592,0.1636 m -7.254094,7.25409 0.79504,-0.79504 m -2.692932,2.69293 -0.17925,0.17925 m -3.833354,3.83336 0.520767,-0.52077 m -1.549503,1.5495 -1.523572,1.52357 m -1.708969,1.70897 0.510237,-0.51023 m -2.998182,2.99818 -0.400881,0.40088 m 20.622857,-20.22374 2.457208,-2.4572 m -9.113221,9.11322 -2.448966,2.44896 m -4.243507,4.24351 0.814101,-0.8141 m -1.826688,1.82669 -1.639263,1.63926 m -4.495016,4.49502 0.551417,-0.55142 m 22.59624,-22.19712 -0.267926,0.26793 m -2.093176,2.09317 0.998136,-0.99813 m -7.775145,7.77514 -2.331381,2.33138 m -4.446053,4.44606 0.62639,-0.62639 m -1.689291,1.68929 -0.430456,0.43045 m -5.596448,5.59645 0.740728,-0.74073 m 22.479191,-22.08007 -0.298269,0.29827 m -1.986199,1.9862 0.506006,-0.506 m -7.395048,7.39505 -2.198714,2.19871 m -4.69415,4.69415 0.40007,-0.40007 m -6.48127,6.48127 -0.930038,0.93004 m 22.953195,-22.55407 0.338985,-0.33899 m -1.978722,1.97872 -0.271149,0.27115 m -8.402342,8.40234 1.443306,-1.4433 m -2.063215,2.06321 -0.100724,0.10073 m -4.878034,4.87803 0.231713,-0.23171 m -2.856371,2.85637 -0.129317,0.12931 m -4.147627,4.14763 1.138259,-1.13826 m 22.225677,-21.82655 -0.426532,0.42653 m -1.817949,1.81795 0.165668,-0.16567 m -7.162377,7.16238 -1.321291,1.32129 m -5.869792,5.86979 0.139276,-0.13927 m -2.608046,2.60804 -0.24613,0.24613 m -4.099082,4.09908 1.442298,-1.4423 m 22.073012,-21.67388 -0.571678,0.57167 m -1.725015,1.72502 0.06238,-0.0624 m -7.044751,7.04476 -1.325984,1.32598 m -8.74205,8.74205 0.367165,-0.36717 m -2.64344,2.64344 -1.79773,1.79773 m -2.189953,2.18996 1.350526,-1.35053 m 25.026235,-24.62711 -1.213481,1.21348 m -9.938091,9.93809 1.346024,-1.34602 m -9.730223,9.73022 -0.507897,0.5079 m -6.831671,6.83167 4.89986,-4.89986 m 22.123969,-21.72485 -1.238064,1.23807 m -9.844695,9.84469 1.367942,-1.36794 m -9.751265,9.75126 -0.656939,0.65694 m -4.145264,4.14527 2.615767,-2.61577 m -5.423107,5.4231 -0.109046,0.10905 m 26.0611,-25.66197 1.272061,-1.27207 m -9.624086,9.62409 -1.390983,1.39098 m -9.187307,9.18731 0.805982,-0.80598 m -2.054966,2.05496 -2.520444,2.52045 m -3.401894,3.40189 0.08361,-0.0836 m 27.438581,-27.03946 -0.06747,0.0675 m -1.251782,1.25179 0.362981,-0.36298 m -8.550172,8.55017 -1.38136,1.38136 m -9.399876,9.39987 0.960972,-0.96097 m -2.222298,2.2223 -2.053256,2.05325 m -3.858194,3.8582 0.06166,-0.0617 m 26.452187,-26.05306 -0.271338,0.27134 m -9.388353,9.38835 1.378246,-1.37825 m -9.880471,9.88048 -1.079661,1.07966 m -2.901444,2.90144 1.520175,-1.52018 m 20.743206,-20.34408 -0.290396,0.2904 m -7.992505,7.9925 0.15948,-0.15948 m -9.940677,9.94068 -1.19835,1.19835 m 19.073353,-18.67423 0.285535,-0.28554 m -7.94706,7.94706 -0.0658,0.0658 m -11.254104,11.2541 1.325619,-1.32562 m 18.064236,-17.66511 -0.307121,0.30712 m -7.534746,7.53474 0.110471,-0.11047 m -9.043276,9.04328 -0.08896,0.089 m -2.404136,2.40414 1.423533,-1.42354 m 18.007396,-17.60827 -0.368979,0.36898 m -7.405577,7.40558 0.218552,-0.21855 m -2.740477,2.74047 -0.06676,0.0668 m -6.506664,6.50667 0.145365,-0.14537 m -1.142332,1.14233 -0.233152,0.23316 m -1.208817,1.20882 0.06487,-0.0649 m -6.439949,6.43995 -0.750107,0.75011 m 26.160223,-25.7611 0.43696,-0.43696 m -7.356403,7.3564 -0.407499,0.4075 m -2.534425,2.53442 0.15705,-0.15705 m -6.288285,6.28829 -0.446619,0.44662 m -2.473736,2.47373 0.177466,-0.17746 m -6.694662,6.69466 -0.554116,0.55411 m 26.072047,-25.67292 0.521288,-0.52129 m -7.062267,7.06227 -0.906708,0.90671 m -2.146151,2.14615 0.137238,-0.13724 m -6.510365,6.51036 -0.403148,0.40315 m -2.508503,2.5085 0.290022,-0.29002 m -6.866258,6.86626 -0.416973,0.41697 m 25.959604,-25.56048 0.622709,-0.62271 m -2.406111,2.40612 -0.06422,0.0642 m -4.456197,4.4562 0.158102,-0.1581 m -1.221208,1.22121 -1.759279,1.75928 m -7.177933,7.17793 0.324156,-0.32416 m -2.461716,2.46172 -0.402552,0.40255 m -3.193232,3.19323 0.119801,-0.1198 m -3.5461,3.5461 -0.283423,0.28343 m 27.342427,-26.94331 0.0675,-0.0675 m -0.882844,0.88285 -0.692099,0.6921 m -1.999241,1.99924 0.08644,-0.0864 m -3.484495,3.48449 -0.498996,0.499 m -2.712846,2.71284 0.438066,-0.43806 m -7.805635,7.80563 -0.224871,0.22487 m -2.608307,2.60831 0.528576,-0.52858 m -2.722618,2.72262 -2.007156,2.00716 m -2.573337,2.57333 0.163252,-0.16325 m 27.100664,-26.70154 -0.08524,0.0852 m -1.513627,1.51363 0.734464,-0.73447 m -5.329433,5.32943 -1.146546,1.14655 m -10.350354,10.35035 0.186235,-0.18623 m -2.19495,2.19495 -0.667787,0.66779 m -4.762725,4.76272 2.845512,-2.84551 m -4.658232,4.65823 -0.06548,0.0655 m 27.009738,-26.61062 0.08231,-0.0823 m -0.948877,0.94888 -0.65627,0.65627 m -5.612641,5.61264 3.356126,-3.35613 m -13.582398,13.5824 -0.140218,0.14022 m -2.763955,2.76395 0.826256,-0.82626 m -2.519228,2.51923 -0.367903,0.36791 m -3.048997,3.04899 0.8966,-0.8966 m 24.629136,-24.23001 -0.068,0.068 m -1.547584,1.54758 0.542285,-0.54229 m -3.294013,3.29402 -2.76614,2.76614 m -10.32812,10.32812 0.112609,-0.11261 m -1.951268,1.95127 -1.031309,1.03131 m -1.528293,1.52829 0.11331,-0.11331 m -3.688324,3.68832 -1.229744,1.22975 m 26.653959,-26.25484 0.07826,-0.0783 m -1.198143,1.19814 -0.427869,0.42787 m -5.438115,5.43812 0.995006,-0.99501 m -11.171267,11.17127 -0.09847,0.0985 m -2.919104,2.9191 1.211643,-1.21164 m -2.231377,2.23138 -0.219622,0.21962 m -5.01527,5.01527 0.835804,-0.8358 m 25.744415,-25.3453 -0.08852,0.0885 m -1.560247,1.56024 0.367707,-0.3677 m -4.707674,4.70767 -0.184048,0.18405 m -0.853514,0.85351 0.133947,-0.13394 m -10.239465,10.23946 -0.08433,0.0843 m -3.96875,3.96875 2.398225,-2.39822 m -7.006859,7.00686 -0.576626,0.57662 m 26.339004,-25.93988 0.06658,-0.0666 m -1.342557,1.34256 -0.350501,0.3505 m -4.264744,4.26474 0.113001,-0.113 m -1.067685,1.06769 -0.05812,0.0581 m -10.09133,10.09133 0.0709,-0.0709 m -1.551147,1.55115 -2.293638,2.29363 m -5.390211,5.39022 0.39589,-0.39589 m 24.472966,-24.07385 -0.383102,0.38311 m -3.980896,3.98089 0.06713,-0.0671 m -11.160788,11.16079 -0.05762,0.0576 m -3.595331,3.59533 1.994478,-1.99448 m -7.344563,7.34456 -0.228609,0.22861 m 24.310627,-23.9115 0.467671,-0.46767 m -17.376823,17.37682 -1.495035,1.49503 m -5.726891,5.72689 0.145785,-0.14578 m 24.578601,-24.17948 -0.66198,0.66198 m -18.005862,18.00586 0.0538,-0.0538 m -4.11838,4.11838 -0.179704,0.1797 m -1.633871,1.63387 0.07199,-0.072 m 24.631383,-24.23226 -0.968218,0.96821 m -3.157332,3.15734 0.05926,-0.0593 m -18.947375,18.94738 -0.29704,0.29704 m 22.339032,-21.93991 1.171094,-1.1711 m -4.057977,4.05798 -0.103529,0.10353 m -2.041448,2.04145 0.137659,-0.13766 m -17.07975,17.07975 -0.322048,0.32205 m 22.183754,-21.78464 1.481074,-1.48107 m -4.039887,4.03989 -0.155895,0.15589 m -2.908218,2.90822 0.841863,-0.84186 m -17.195418,17.19542 -0.23926,0.23926 m 22.103497,-21.70438 2.335886,-2.33588 m -4.521878,4.52187 -0.253561,0.25356 m -3.110782,3.11079 0.832208,-0.83221 m -17.16811,17.16811 -0.242336,0.24233 m 24.223474,-23.82435 0.253047,-0.25304 m -0.747408,0.7474 -1.710524,1.71053 m -2.206007,2.20601 0.380557,-0.38056 m -2.830555,2.83055 -0.817734,0.81774 m -16.547092,16.54709 0.314867,-0.31487 m 24.175958,-23.77683 -0.122932,0.12293 m -2.540176,2.54017 0.921823,-0.92182 m -2.083045,2.08305 -0.72811,0.72811 m -3.448145,3.44814 0.796995,-0.79699 m -16.882035,16.88203 -0.560673,0.56068 m 24.560596,-24.16148 0.132688,-0.13269 m -2.20533,2.20533 -2.264674,2.26468 m -3.634419,3.63442 0.427342,-0.42735 m -16.341067,16.34107 -0.401581,0.40158 m 24.336619,-23.93749 0.07366,-0.0737 m -2.371819,2.37182 -2.026607,2.02661 m -3.753394,3.75339 0.254974,-0.25497 m -2.131441,2.13144 -0.06079,0.0608 m -14.034686,14.03469 0.276627,-0.27663 m 23.867952,-23.46883 -0.111135,0.11114 m -2.658779,2.65878 0.52287,-0.52287 m -1.669592,1.66959 -0.450604,0.4506 m -1.923833,1.92383 0.435375,-0.43537 m -2.29118,2.29118 -0.09224,0.0922 m -1.837826,1.83783 0.209633,-0.20964 m -13.818831,13.81883 -0.171929,0.17193 m 23.730268,-23.33114 0.148615,-0.14862 m -2.044671,2.04467 -0.0772,0.0772 m -4.219685,4.21968 2.347939,-2.34794 m -4.294248,4.29425 -0.144957,0.14496 m -1.662848,1.66285 0.379384,-0.37939 m -13.773025,13.77303 -0.103059,0.10306 m 23.422241,-23.02312 0.190945,-0.19095 m -1.670238,1.67024 -0.125157,0.12516 m -4.420837,4.42084 2.182073,-2.18208 m -4.627256,4.62726 -1.459554,1.45955 m 8.663957,-8.26483 1.477824,-1.47783 m -4.036576,4.03658 -1.98613,1.98613 m -4.163931,4.16393 1.304307,-1.30431 m -12.494125,12.49413 -0.108711,0.10871 m 20.345725,-19.9466 1.160253,-1.16026 m -4.041266,4.04127 -1.770328,1.77033 m -4.56667,4.56667 1.134382,-1.13438 m -5.670782,5.67078 -0.09003,0.09 m 14.092422,-13.69329 0.933079,-0.93308 m -4.045955,4.04595 -1.554527,1.55453 m -5.097583,5.09758 0.464466,-0.46447 m -4.479819,4.47982 -0.291721,0.29172 m -7.391421,7.39143 1.027111,-1.02711 m 21.39026,-20.99114 -0.720846,0.72084 m -4.661185,4.66119 1.331387,-1.33139 m -6.447014,6.44701 -0.340792,0.3408 m -4.167138,4.16714 0.570188,-0.57019 m -6.836433,6.83643 -0.824493,0.82449 m 21.587823,-21.1887 0.529315,-0.52931 m -4.055334,4.05533 -1.09422,1.09422 m -2.460628,2.46063 0.204037,-0.20404 m -3.799287,3.79929 -0.747762,0.74776 m -3.052845,3.05285 1.228072,-1.22808 m -7.396251,7.39626 -0.612569,0.61256 m 21.408238,-21.00911 0.41687,-0.41687 m -4.07336,4.07336 -0.861226,0.86122 m -2.59596,2.59597 0.565803,-0.56581 m -4.290551,4.29055 -3.75549,3.75549 m -6.482731,6.48273 0.454815,-0.45481 m 21.080601,-20.68148 -0.347671,0.34767 m -4.375527,4.37553 0.627481,-0.62748 m -2.455305,2.4553 -0.840065,0.84007 m -5.599163,5.59916 0.681016,-0.68101 m -2.505218,2.50521 -0.258262,0.25827 m -6.131109,6.1311 0.32167,-0.32167 m 20.924053,-20.52493 -0.457719,0.45772 m -1.936632,1.93663 0.994211,-0.99421 m -2.717933,2.71794 -0.393736,0.39373 m -2.739819,2.73982 1.110218,-1.11022 m -3.465089,3.46509 -0.197441,0.19744 m -5.330703,5.33071 0.158407,-0.15841 m -5.749367,5.74937 -0.188526,0.18852 m 18.663704,-18.26458 2.292326,-2.29232 m -4.14043,4.14042 -0.184407,0.18441 m -2.746929,2.74693 1.701032,-1.70103 m -3.897001,3.897 -0.553553,0.55355 m -5.376942,5.37694 0.125637,-0.12563 m -5.44115,5.44115 -0.110694,0.11069 m 18.533752,-18.13463 2.146591,-2.14659 m -4.176793,4.17679 -2.725981,2.72598 m -2.849409,2.84941 0.810001,-0.81 m -6.251496,6.2515 -0.124028,0.12403 m -5.031044,5.03104 0.07111,-0.0711 m 20.34323,-19.94411 -1.964806,1.96481 m -4.728154,4.72815 2.470118,-2.47012 m -4.398138,4.39814 -1.030234,1.03023 m -5.781896,5.7819 0.108661,-0.10866 m 15.390042,-14.99092 -1.760873,1.76087 m -4.701018,4.70102 2.193,-2.193 m -4.059924,4.05993 -1.203823,1.20382 m -6.086686,6.08668 0.164104,-0.1641 m -4.278683,4.27868 -0.08285,0.0829 m 18.374799,-17.97568 1.528149,-1.52815 m -4.335546,4.33555 -1.920375,1.92037 m -3.134101,3.13411 1.463457,-1.46346 m -7.680033,7.68003 -0.207774,0.20778 m -3.686187,3.68618 0.123443,-0.12344 m 19.436014,-19.03689 -1.24177,1.24177 m -4.898952,4.89895 1.831012,-1.83101 m -3.182609,3.18261 -1.722574,1.72257 m -6.984319,6.98432 0.497553,-0.49755 m -3.304231,3.30423 -0.163008,0.16301 m 18.27568,-17.87656 0.968343,-0.96834 m -2.810808,2.8108 -0.381141,0.38115 m -5.819507,5.8195 3.715877,-3.71587 m -10.461545,10.46154 -0.880062,0.88006 m -2.088283,2.08828 0.295432,-0.29543 m 18.473268,-18.07414 -0.661455,0.66145 m -2.44489,2.44489 0.662359,-0.66236 m -3.340592,3.3406 -2.98222,2.98222 m -9.463355,9.46335 2.461653,-2.46165 m 15.81114,-15.41202 -0.418038,0.41804 m -2.543612,2.54361 0.897086,-0.89709 m -3.928909,3.92891 -2.529915,2.52992 m -8.874812,8.87481 1.688293,-1.68829 m 15.720072,-15.32095 -0.228816,0.22881 m -2.555664,2.55567 1.419129,-1.41913 m -5.228049,5.22805 -1.655628,1.65563 m -7.622259,7.62226 0.26112,-0.26113 m 15.611961,-15.21283 -2.546702,2.5467 m -5.4908,5.4908 1.078245,-1.07825 m -8.522046,8.52205 -0.161932,0.16193 m 13.33359,-12.93447 2.270285,-2.27028 m -7.094086,7.09408 -0.716031,0.71603 m -7.601773,7.60178 0.12472,-0.12472 m 15.238384,-14.83926 -1.928345,1.92834 m -5.672721,5.67272 0.356943,-0.35694 m -7.825835,7.82584 -0.113259,0.11326 m 13.566494,-13.16738 1.505784,-1.50578 m -3.90941,3.90941 -0.397104,0.3971 m -3.092319,3.09232 0.248775,-0.24877 m -7.619446,7.61944 -0.118955,0.11896 m 13.724743,-13.32562 1.053365,-1.05337 m -3.101785,3.10179 -1.05109,1.05109 m -10.429928,10.42993 0.125762,-0.12577 m 14.246986,-13.84786 -0.637971,0.63797 m -3.261561,3.26156 1.388678,-1.38868 m -11.517673,11.51768 -0.136566,0.13656 m 10.308848,-9.90972 3.875727,-3.87573 m -13.814666,13.81467 -0.145913,0.14591 m 10.121089,-9.72197 3.20915,-3.20915 m -12.940286,12.94029 -0.155368,0.15537 m 9.911369,-9.51225 2.868609,-2.86861 m -12.361288,12.36129 -0.169609,0.16961 m 9.908198,-9.50908 2.195101,-2.1951 m -11.665403,11.6654 -0.173773,0.17378 m 10.071657,-9.67254 1.350046,-1.35004 m -3.825835,3.82583 -0.0577,0.0577 m -7.25688,7.25688 0.192454,-0.19246 m 10.75391,-10.35479 -0.770659,0.77066 m -9.844109,9.84411 0.160823,-0.16082 m 10.636372,-10.23725 -0.45715,0.45715 m -10.000812,10.00081 0.121556,-0.12155 m 10.498317,-10.0992 -0.300619,0.30062 m -9.980022,9.98002 0.07004,-0.07 m 10.372513,-9.97339 -0.187363,0.18737 m -9.915957,9.91595 0.08463,-0.0846 m 10.180602,-9.78148 -0.105786,0.10579 m 0.189685,0.20944 0.07801,-0.078 m -3.166787,3.16679 -0.09789,0.0979 m 3.368781,-2.96965 0.05496,-0.055 m -3.171993,3.17199 -0.157904,0.1579 m -6.007075,6.00708 0.08446,-0.0845 m 9.403823,-9.0047 -0.06284,0.0628 m -3.400847,3.40085 0.134754,-0.13475 m -3.422946,3.42294 -2.191021,2.19102 m 9.012043,-8.61292 0.08216,-0.0822 m -3.502074,3.50207 -0.08782,0.0878 m -4.999764,4.99976 1.707067,-1.70707 m 7.01599,-6.61686 -0.07019,0.0702 m -3.680853,3.68085 0.08867,-0.0887 m -3.217369,3.21737 -1.270917,1.27092 m 8.151082,-7.75196 0.11148,-0.11148 m -3.794654,3.79465 -0.09316,0.0932 m -3.405797,3.40579 0.524183,-0.52418 m 6.881328,-6.4822 -0.152768,0.15276 m -4.396721,4.39673 0.624485,-0.62449 m -2.376907,2.37691 -0.359268,0.35926 m 6.58207,-6.18294 0.0985,-0.0985 m -3.962845,3.96285 -2.327424,2.32742 m 6.190814,-5.79169 0.191951,-0.19195 m -1.493525,1.49352 -0.06453,0.0645 m -3.973784,3.97378 1.531691,-1.53169 m 3.884496,-3.48537 -0.0727,0.0727 m -1.383292,1.38329 0.224116,-0.22411 m -2.519509,2.51951 -0.969867,0.96987 m 4.575444,-4.17633 0.05804,-0.058 m -0.998117,0.99812 -0.527906,0.52791 m -2.431441,2.43144 0.534892,-0.53489 m 3.377452,-2.97833 -3.236324,3.23632 m 0.754033,-0.35491 2.231782,-2.23178 m -0.283136,0.68226 -1.187328,1.18733"
         inkscape:connector-curvature="0" />
    </g>
  </g>
</svg>
