<?xml version="1.0" encoding="UTF-8" standalone="no"?>
<!-- Created with Inkscape (http://www.inkscape.org/) -->

<svg
   xmlns:dc="http://purl.org/dc/elements/1.1/"
   xmlns:cc="http://creativecommons.org/ns#"
   xmlns:rdf="http://www.w3.org/1999/02/22-rdf-syntax-ns#"
   xmlns:svg="http://www.w3.org/2000/svg"
   xmlns="http://www.w3.org/2000/svg"
   xmlns:sodipodi="http://sodipodi.sourceforge.net/DTD/sodipodi-0.dtd"
   xmlns:inkscape="http://www.inkscape.org/namespaces/inkscape"
   width="75mm"
   height="75mm"
   viewBox="0 0 75 75"
   version="1.1"
   id="svg1586"
   inkscape:version="0.92.2 2405546, 2018-03-11"
   sodipodi:docname="75.svg">
  <sodipodi:namedview
     id="base"
     pagecolor="#ffffff"
     bordercolor="#666666"
     borderopacity="1.0"
     inkscape:pageopacity="0.0"
     inkscape:pageshadow="2"
     inkscape:zoom="1.6515547"
     inkscape:cx="121.03123"
     inkscape:cy="161.6702"
     inkscape:document-units="mm"
     inkscape:current-layer="layer1"
     showgrid="false"
     inkscape:window-width="1366"
     inkscape:window-height="703"
     inkscape:window-x="0"
     inkscape:window-y="0"
     inkscape:window-maximized="1" />
  <defs
     id="defs1580" />
  <metadata
     id="metadata1583">
    <rdf:RDF>
      <cc:Work
         rdf:about="">
        <dc:format>image/svg+xml</dc:format>
        <dc:type
           rdf:resource="http://purl.org/dc/dcmitype/StillImage" />
        <dc:title></dc:title>
      </cc:Work>
    </rdf:RDF>
  </metadata>
  <g
     inkscape:label="Layer 1"
     inkscape:groupmode="layer"
     id="layer1"
     transform="translate(0,-222)">
    <g
       id="g1323">
      <path
         id="path1279"
         d="m 43.421667,229.74128 c 0,-0.15878 -0.479484,-0.80337 -1.065517,-1.43243 -0.586034,-0.62906 -1.037707,-1.63799 -1.003716,-2.24204 0.05301,-0.9418 0.09735,-0.96112 0.311301,-0.13552 0.317466,1.22505 1.948389,0.95404 2.202598,-0.36602 0.118909,-0.6175 -0.03053,-0.85274 -0.397539,-0.6259 -0.323432,0.19991 -0.973659,-0.0221 -1.444948,-0.49347 -1.109223,-1.10927 -2.017529,-0.78581 -2.248896,0.80087 -0.11206,0.7685 0.194632,1.5371 0.785846,1.96943 0.812334,0.59401 0.863026,0.87976 0.312462,1.76139 -0.599742,0.96038 -0.5171,1.05235 0.945621,1.05235 0.881533,0 1.602788,-0.1299 1.602788,-0.28866 z"
         style="fill:none;stroke:#0000ff;stroke-width:0.10000001;stroke-miterlimit:4;stroke-dasharray:none" />
      <path
         id="path1277"
         d="m 50.034064,231.47338 c 0.705941,-1.1192 -0.780629,-2.81649 -2.042638,-2.3322 -0.997022,0.38261 -1.10534,2.00908 -0.19448,2.91999 0.783738,0.78377 1.48885,0.59851 2.237118,-0.58779 z"
         style="fill:none;stroke:#0000ff;stroke-width:0.10000001;stroke-miterlimit:4;stroke-dasharray:none" />
      <path
         id="path1275"
         d="m 51.907145,232.88839 c 1.49452,-1.90008 1.41418,-4.19522 -0.203499,-5.81297 -1.515631,-1.5157 -1.953202,-1.57735 -3.93201,-0.55402 -1.834631,0.94876 -3.184221,3.28911 -2.36764,4.10572 0.412319,0.41234 0.67627,0.25849 0.930429,-0.54231 0.431681,-1.36016 2.66043,-2.02203 3.753641,-1.11469 1.019389,0.84605 1.01882,2.87242 -0.0011,3.71886 -0.786509,0.65277 -0.63635,1.60322 0.25328,1.60322 0.25446,0 0.95953,-0.63172 1.566831,-1.40381 z"
         style="fill:none;stroke:#0000ff;stroke-width:0.10000001;stroke-miterlimit:4;stroke-dasharray:none" />
      <path
         id="path1273"
         d="m 28.288786,235.0887 c 0.704674,-1.0755 0.746106,-1.48925 0.213428,-2.13112 -1.242574,-1.49728 -3.7271,-0.60761 -3.7271,1.33462 0,1.02383 1.01782,2.13113 1.958927,2.13113 0.374167,0 1.073802,-0.60058 1.554745,-1.33463 z"
         style="fill:none;stroke:#0000ff;stroke-width:0.10000001;stroke-miterlimit:4;stroke-dasharray:none" />
      <path
         id="path1271"
         d="m 26.37339,237.61705 c 0,-0.22254 -0.479483,-0.70407 -1.065517,-1.07008 -1.197082,-0.74761 -1.447143,-3.25836 -0.426207,-4.27935 0.917969,-0.91801 3.108806,-0.78746 4.259347,0.25381 0.745084,0.67433 1.137328,0.74267 1.600998,0.27898 0.664462,-0.66449 -0.548427,-2.3992 -2.352646,-3.36484 -1.206315,-0.64562 -4.389761,0.65529 -5.169645,2.11258 -0.902839,1.68706 -0.67719,4.03247 0.510633,5.30751 1.051213,1.12839 2.643037,1.58696 2.643037,0.76139 z"
         style="fill:none;stroke:#0000ff;stroke-width:0.10000001;stroke-miterlimit:4;stroke-dasharray:none" />
      <path
         id="path1269"
         d="m 43.659921,241.17287 c -0.171532,-0.27756 -0.538964,-0.36431 -0.816515,-0.19276 -0.277553,0.17154 -0.364291,0.53899 -0.192754,0.81655 0.171532,0.27757 0.538967,0.36431 0.816518,0.19276 0.27755,-0.17154 0.364291,-0.53898 0.192751,-0.81655 z"
         style="fill:none;stroke:#0000ff;stroke-width:0.10000001;stroke-miterlimit:4;stroke-dasharray:none" />
      <path
         id="path1267"
         d="m 54.254185,242.7263 c -1.093291,-1.87207 -2.308379,-2.56931 -2.308379,-1.3246 0,0.69294 2.34946,3.01338 3.051059,3.01338 0.133971,0 -0.200229,-0.75995 -0.74268,-1.68878 z"
         style="fill:none;stroke:#0000ff;stroke-width:0.10000001;stroke-miterlimit:4;stroke-dasharray:none" />
      <path
         id="path1265"
         d="m 41.284741,243.33849 c -0.316881,-0.59211 -0.431034,-1.31137 -0.253685,-1.59834 0.177355,-0.28698 0.06857,-0.52177 -0.241739,-0.52177 -0.615847,0 -0.782676,2.26782 -0.209028,2.8415 0.775559,0.77559 1.247136,0.29268 0.704452,-0.72139 z"
         style="fill:none;stroke:#0000ff;stroke-width:0.10000001;stroke-miterlimit:4;stroke-dasharray:none" />
      <path
         id="path1263"
         d="m 33.039261,243.90242 c -0.182486,-0.575 -0.07034,-1.53401 0.249219,-2.13114 0.319565,-0.59713 0.38079,-1.08568 0.136066,-1.08568 -0.735819,0 -1.723569,1.2213 -1.723569,2.13112 0,0.75568 0.951565,2.13114 1.474351,2.13114 0.107649,0 0.0464,-0.47045 -0.136067,-1.04544 z"
         style="fill:none;stroke:#0000ff;stroke-width:0.10000001;stroke-miterlimit:4;stroke-dasharray:none" />
      <path
         id="path1261"
         d="m 31.216998,248.05534 c 0.780688,0.0528 1.781688,-0.34985 2.303466,-0.92644 0.884321,-0.97721 0.86008,-1.04964 -0.581538,-1.73752 -2.670197,-1.27408 -2.170341,-5.23857 0.660499,-5.23857 1.340687,0 2.41272,1.13799 1.392428,1.47811 -0.344897,0.11497 -0.627083,0.45446 -0.627083,0.75442 0,0.29996 0.359612,0.40739 0.799137,0.23871 1.151319,-0.44182 1.025093,1.3937 -0.238765,3.47204 -0.570851,0.93873 -0.916313,1.90353 -0.767701,2.14401 0.38113,0.61671 5.937255,0.5465 6.324384,-0.0799 0.175778,-0.28442 -0.07103,-1.27255 -0.548465,-2.19585 -1.765898,-3.41501 0.359415,-7.21277 3.289316,-5.87777 2.380488,1.08468 1.264285,4.86129 -1.436775,4.86129 -1.460132,0 -1.546364,0.097 -0.997644,1.12233 0.503458,0.94077 0.872803,1.05425 2.282966,0.70145 0.925285,-0.23149 2.867764,-0.46785 4.316603,-0.52524 2.018398,-0.0799 2.72583,-0.33736 3.025918,-1.10103 0.697672,-1.77543 0.492091,-2.32865 -0.865349,-2.32865 -0.732549,0 -1.825659,-0.49377 -2.429139,-1.09728 l -1.09723,-1.09728 1.763189,-1.18827 c 1.195951,-0.80599 1.76318,-1.60994 1.76318,-2.49899 0,-1.12079 -0.278839,-1.33407 -1.923981,-1.47169 -1.434798,-0.12004 -2.330341,0.18098 -3.522181,1.1839 -0.87902,0.73966 -1.751354,1.19171 -1.938525,1.00452 -0.645311,-0.64534 -0.337349,-2.58156 0.726233,-4.56608 l 1.066554,-1.99004 h -1.320646 c -1.704668,0 -2.99492,1.95892 -3.346844,5.08135 -0.323858,2.87337 -0.732634,3.23875 -2.025314,1.81029 -0.666587,-0.73661 -0.972796,-1.90659 -0.972796,-3.71692 0,-2.42068 -0.105236,-2.64194 -1.256623,-2.64194 -1.703384,0 -3.172482,3.2885 -2.312413,5.17623 0.317567,0.69701 0.577393,1.49577 0.577393,1.77501 0,0.95314 -3.023495,0.51646 -4.015721,-0.57998 l -0.984308,-1.08771 -0.67766,1.2209 c -1.01719,1.8326 -0.870671,2.51309 0.89658,4.16402 l 1.611994,1.50589 -1.197779,0.83899 c -0.658777,0.46145 -1.491575,0.839 -1.85066,0.839 -0.495631,0 -0.517218,0.38917 -0.08964,1.61578 0.464214,1.33171 0.763757,1.54983 1.703752,1.24072 0.62728,-0.20629 1.761817,-0.3331 2.52119,-0.2818 z"
         style="fill:none;stroke:#0000ff;stroke-width:0.10000001;stroke-miterlimit:4;stroke-dasharray:none" />
      <path
         id="path1259"
         d="m 58.161006,252.98182 c -0.350991,-3.35824 -1.75591,-7.50118 -2.54373,-7.50118 -0.92332,0 -0.459539,2.63672 0.64472,3.66556 0.935138,0.87124 1.05859,1.40447 0.7492,3.23587 -0.243779,1.44299 -0.1489,2.45968 0.277489,2.97347 1.07731,1.29815 1.216499,0.91939 0.872321,-2.37372 z"
         style="fill:none;stroke:#0000ff;stroke-width:0.10000001;stroke-miterlimit:4;stroke-dasharray:none" />
      <path
         id="path1257"
         d="m 47.679826,259.00599 c 3.83509,-1.53456 5.752528,-5.87315 4.050408,-9.16483 -1.047909,-2.02652 -2.31988,-2.76218 -4.775927,-2.76218 -2.511399,0 -4.110866,0.67025 -6.403628,2.68342 -1.554414,1.36485 -1.922332,2.06229 -1.915987,3.63197 0.01093,2.69993 1.018581,4.44602 3.196109,5.5382 2.295184,1.1512 3.129349,1.16167 5.849025,0.0734 z"
         style="fill:none;stroke:#0000ff;stroke-width:0.10000001;stroke-miterlimit:4;stroke-dasharray:none" />
      <path
         id="path1255"
         d="m 36.328279,259.24012 c 1.450856,-1.36308 1.691172,-4.93562 0.488316,-7.25935 -1.004325,-1.9402 -5.081655,-3.49253 -7.128902,-2.71415 -4.871034,1.85205 -5.483493,8.06728 -1.012263,10.2724 2.536266,1.25082 6.153692,1.10954 7.652849,-0.2989 z"
         style="fill:none;stroke:#0000ff;stroke-width:0.10000001;stroke-miterlimit:4;stroke-dasharray:none" />
      <path
         id="path1253"
         d="m 58.015536,261.15415 c 0.17786,-0.46352 0.30444,-1.72221 0.28131,-2.79711 -0.0231,-1.07489 -0.177181,-1.59473 -0.342342,-1.15519 -0.165147,0.43955 -0.74558,1.43557 -1.289838,2.21338 -0.544251,0.77781 -0.98955,1.67688 -0.98955,1.99794 0,0.9062 1.97726,0.68737 2.34042,-0.25902 z"
         style="fill:none;stroke:#0000ff;stroke-width:0.10000001;stroke-miterlimit:4;stroke-dasharray:none" />
      <path
         id="path1251"
         d="m 53.996756,261.82701 c 0.32073,-0.38647 0.86918,-2.37081 1.218789,-4.40965 0.581121,-3.38899 0.532379,-4.04693 -0.56811,-7.67028 -0.66208,-2.17981 -1.508631,-4.39855 -1.88123,-4.93055 -0.628759,-0.89773 -0.724271,-0.85422 -1.328841,0.6054 -0.576958,1.39296 -0.509048,1.76521 0.594482,3.25814 2.14852,2.90669 1.25539,7.75551 -1.85057,10.0468 -0.939332,0.69294 -0.917131,0.79556 0.489979,2.26433 1.621819,1.6929 2.442951,1.89927 3.325501,0.83581 z"
         style="fill:none;stroke:#ff0000;stroke-width:0.10000001;stroke-miterlimit:4;stroke-dasharray:none" />
      <path
         id="path1249"
         d="m 43.188926,262.81951 c 0.47154,-0.7197 0.702664,-1.55883 0.513601,-1.86475 -0.51625,-0.83534 -2.402112,-0.66885 -2.751992,0.24296 -0.168666,0.43955 -0.611266,0.79918 -0.983562,0.79918 -0.372304,0 -0.97536,-0.35963 -1.340134,-0.79918 -0.364775,-0.43954 -0.999295,-0.79917 -1.410053,-0.79917 -0.459642,0 -0.09434,0.71705 0.949979,1.86474 2.021952,2.22208 3.801559,2.41917 5.022161,0.55622 z"
         style="fill:none;stroke:#0000ff;stroke-width:0.10000001;stroke-miterlimit:4;stroke-dasharray:none" />
      <path
         id="path1247"
         d="m 40.092186,281.67772 c 2.020542,-1.97553 3.543124,-5.72959 3.219147,-7.93707 -0.269261,-1.83466 -0.03378,-2.02165 0.913802,-0.72568 0.596024,0.81514 0.716579,0.77941 1.348261,-0.3996 0.38154,-0.71212 0.753718,-2.57444 0.827058,-4.13847 0.129083,-2.75276 0.703371,-4.51227 0.796322,-2.43974 0.0316,0.70627 0.182219,0.56757 0.48822,-0.44974 0.25114,-0.83494 0.220519,-2.27467 -0.0709,-3.32989 -0.70128,-2.53997 -2.201976,-2.48127 -3.482662,0.1362 -0.606396,1.23936 -1.544641,2.19128 -2.476747,2.51284 -1.367814,0.47188 -1.688886,0.31367 -3.629976,-1.78861 -1.864938,-2.01981 -2.332039,-2.26575 -3.760456,-1.98006 -0.897054,0.17942 -2.194236,0.32621 -2.882629,0.32621 -0.847166,0 -1.514276,0.50795 -2.06444,1.5719 -1.084473,2.09724 -1.024495,2.64597 0.252698,2.31195 1.227114,-0.32091 1.266447,-0.10029 0.484352,2.71661 -0.727109,2.61885 -0.202944,5.86401 0.880038,5.44841 0.518091,-0.19882 0.766645,0.0711 0.766645,0.83259 0,0.61973 1.078836,2.2802 2.397414,3.68992 1.318577,1.40974 2.397413,3.01297 2.397413,3.56275 0,2.22466 1.371343,2.25497 3.596382,0.0795 z"
         style="fill:none;stroke:#0000ff;stroke-width:0.10000001;stroke-miterlimit:4;stroke-dasharray:none" />
      <path
         id="path1245"
         d="m 19.546695,287.80062 c 0.623919,-2.35137 3.958051,-5.73582 5.303815,-5.38388 1.430862,0.37419 2.588398,-0.096 2.588398,-1.0515 0,-0.41986 -0.466303,-1.67747 -1.036233,-2.79467 -1.651316,-3.237 -2.390705,-8.59734 -1.625749,-11.78618 0.712468,-2.97003 0.20459,-4.2547 -1.682042,-4.2547 -1.426254,0 -1.790101,1.36752 -0.77576,2.91567 1.412518,2.15587 1.121211,2.59311 -1.489263,2.23528 -4.314929,-0.59145 -3.29051,2.17169 1.14827,3.09721 0.952306,0.19856 1.731466,0.56432 1.731466,0.8128 0,0.91044 -2.850675,2.66025 -4.333917,2.66025 -0.985358,0 -1.526428,0.27663 -1.526428,0.78043 0,1.24928 2.002485,1.99886 4.301951,1.61035 1.864272,-0.31498 2.091153,-0.23556 2.091153,0.73198 0,1.06723 -2.988462,3.80342 -4.154101,3.80342 -2.545318,0 -5.248301,3.35679 -4.638303,5.76025 l 0.363522,1.43232 0.708239,-1.59836 0.708239,-1.59834 0.04326,1.90913 c 0.07007,3.09142 1.52207,3.55033 2.273473,0.71854 z"
         style="fill:none;stroke:#0000ff;stroke-width:0.10000001;stroke-miterlimit:4;stroke-dasharray:none" />
      <path
         id="path1243"
         d="m 55.142356,290.76716 c 0.662559,-0.66258 1.081879,-1.82116 1.10879,-3.0635 l 0.0432,-1.99793 0.674891,1.52764 c 0.554512,1.25513 0.736849,1.36616 1.02225,0.6224 0.603361,-1.57241 0.37832,-3.73348 -0.522751,-5.01999 -0.688848,-0.98351 -1.21603,-1.18616 -2.53061,-0.97284 -1.410297,0.22888 -1.67314,0.0972 -1.744419,-0.87417 -0.0462,-0.62901 -0.166031,-1.61397 -0.266379,-2.1888 -0.123971,-0.71017 0.15907,-1.10397 0.88306,-1.22865 1.972238,-0.33963 3.917039,-1.28139 4.20707,-2.03725 0.175499,-0.45733 -0.0533,-0.75039 -0.5857,-0.75039 -1.089911,0 -2.82221,-1.5223 -2.82221,-2.4801 0,-0.41407 0.577059,-0.71659 1.366909,-0.71659 1.522511,0 3.427921,-0.86185 3.427921,-1.55049 0,-0.24609 -0.59862,-0.44745 -1.330262,-0.44745 -1.49683,0 -2.931808,-0.98432 -2.931808,-2.01105 0,-0.375 0.71922,-0.93255 1.598269,-1.23901 1.083939,-0.37788 1.598271,-0.91325 1.598271,-1.66365 0,-1.45933 -2.206001,-2.33141 -3.920921,-1.55 -1.211631,0.55208 -1.24463,0.73157 -1.001649,5.44864 l 0.251251,4.87775 -2.192782,4.15437 c -2.23437,4.23315 -2.7832,6.76768 -1.465498,6.76768 0.400007,0 1.385779,0.51798 2.190599,1.15109 1.31776,1.03658 1.438669,1.40755 1.21557,3.72947 -0.270471,2.81497 0.100139,3.13964 1.72689,1.51282 z"
         style="fill:none;stroke:#0000ff;stroke-width:0.10000001;stroke-miterlimit:4;stroke-dasharray:none" />
      <path
         id="path1241"
         d="m 32.494435,295.03158 c 2.068644,-0.78653 3.661576,-4.73777 3.676217,-9.11877 0.01284,-3.84951 -0.560388,-5.11592 -3.825858,-8.45205 -2.923076,-2.98635 -3.383721,-3.97284 -3.383721,-7.2464 0,-1.85258 -0.282947,-3.32481 -0.723699,-3.76559 -0.53246,-0.53248 -0.595203,-1.1718 -0.237434,-2.41933 0.704328,-2.45596 0.213311,-2.46366 -1.035215,-0.0163 -1.07346,2.10425 -1.073727,2.12639 -0.03719,3.0645 1.409498,1.27564 1.31357,2.27822 -0.287791,3.00788 -2.127241,0.96927 -1.817405,1.8265 1.598276,4.42195 1.059173,0.80482 1.058309,0.81575 -0.14483,1.83648 l -1.210354,1.02686 1.195703,0.83753 c 0.657637,0.46065 1.62184,0.83754 2.14268,0.83754 1.292324,0 1.191489,1.32903 -0.199134,2.62465 -0.951742,0.88673 -1.031032,1.20648 -0.467528,1.88549 0.421082,0.5074 0.463596,0.81769 0.112034,0.81769 -0.3116,0 -0.694515,-0.20706 -0.850911,-0.46014 -0.156402,-0.25307 -1.251024,-0.46013 -2.432497,-0.46013 -1.811655,0 -2.434924,0.31746 -3.979046,2.0267 -2.22765,2.46586 -2.894083,5.23466 -1.677886,6.9711 l 0.852286,1.21686 0.0073,-1.3173 c 0.01049,-1.89782 0.570292,-3.71483 1.144519,-3.71483 0.273984,0 0.343365,0.80709 0.155482,1.80864 -0.440064,2.34585 0.475486,4.05197 2.1744,4.05197 1.103886,0 1.313154,-0.25472 1.313154,-1.59835 0,-0.87909 0.265389,-1.59834 0.589759,-1.59834 0.327854,0 0.440783,0.38823 0.254291,0.87424 -0.184505,0.48083 0.03511,1.43984 0.488044,2.13112 0.889137,1.35707 2.490993,1.59999 4.788952,0.72627 z"
         style="fill:none;stroke:#0000ff;stroke-width:0.10000001;stroke-miterlimit:4;stroke-dasharray:none" />
      <path
         id="path1239"
         d="m 46.195066,294.469 c 1.48527,-1.48535 1.59797,-1.84251 1.30275,-4.12907 -0.260421,-2.01704 -0.20584,-2.30229 0.281109,-1.46906 0.332352,0.56871 0.56849,1.94728 0.524759,3.06351 -0.0956,2.43982 0.536051,2.55375 2.617581,0.47211 1.21094,-1.21098 1.557301,-2.03953 1.557301,-3.72528 0,-1.98309 -0.170331,-2.24794 -1.99785,-3.10656 -1.294339,-0.60812 -2.05775,-1.35972 -2.16797,-2.13445 -0.104269,-0.73297 -0.656161,-1.31779 -1.425882,-1.51099 -3.025198,-0.75931 -3.936635,-4.22839 -0.954868,-3.63441 1.65712,0.33011 4.415539,-0.52374 4.415539,-1.3668 0,-0.30028 -0.28081,-0.54597 -0.623999,-0.54597 -0.884531,0 -2.572562,-1.62736 -2.572562,-2.48009 0,-0.4559 0.641331,-0.71661 1.762831,-0.71661 1.58577,0 4.223171,-1.24915 3.563919,-1.68798 -0.14605,-0.0972 -0.984758,-0.57992 -1.863809,-1.07267 -2.170571,-1.21671 -2.270139,-2.33012 -0.299519,-3.34921 0.897279,-0.46402 1.63141,-1.18586 1.63141,-1.6041 0,-1.32991 -1.190321,-3.43369 -2.3861,-4.21725 -1.146122,-0.75099 -1.154231,-0.73181 -0.91422,2.16259 0.133189,1.60615 -0.01159,3.44222 -0.321752,4.08013 -0.310158,0.63791 -0.958979,2.41573 -1.441817,3.95069 -0.482862,1.53496 -1.112113,2.93557 -1.398326,3.11248 -0.286224,0.1769 -1.067938,1.55976 -1.737132,3.073 -1.204926,2.72467 -4.182034,6.36165 -5.575762,6.8116 -0.397385,0.1283 -0.810454,1.06391 -0.917933,2.07916 -0.107479,1.01523 -0.336346,2.64489 -0.508593,3.62147 -0.390299,2.21286 0.78144,4.15439 3.121587,5.17235 2.749623,1.19608 4.522405,0.9584 6.329308,-0.84859 z"
         style="fill:none;stroke:#0000ff;stroke-width:0.10000001;stroke-miterlimit:4;stroke-dasharray:none" />
      <path
         id="path1252"
         d="m 39.859062,296.59949 c -0.933867,-0.28467 -2.200299,-1.15626 -2.814281,-1.93685 -1.106061,-1.4062 -1.123339,-1.40926 -1.876957,-0.33327 -1.027873,1.46756 -3.659605,2.48867 -5.457266,2.11743 -0.809884,-0.16726 -2.551348,-0.52177 -3.869927,-0.78779 -3.764307,-0.75946 -5.300336,-1.56086 -6.281927,-3.27753 -0.500671,-0.8756 -1.552784,-1.8589 -2.338022,-2.1851 -2.006801,-0.83366 -3.282992,-3.67393 -2.536294,-5.64474 0.696758,-1.83899 2.562255,-3.90734 3.524109,-3.90734 0.980115,0 0.884123,-0.7481 -0.357253,-2.78424 -1.574067,-2.58183 -1.471959,-8.31237 0.212587,-11.93035 1.919434,-4.12245 4.509317,-5.46874 7.069936,-3.67513 1.037117,0.72646 1.196102,0.68727 1.963467,-0.48392 0.748568,-1.14252 0.750683,-1.34434 0.02046,-1.95042 -2.460365,-2.04201 -3.047826,-6.37308 -1.185574,-8.74066 1.06012,-1.34779 1.094632,-1.61028 0.412216,-3.13535 -0.409622,-0.91542 -0.742841,-3.2832 -0.740481,-5.2617 0.0037,-2.96483 -0.160163,-3.64948 -0.931076,-3.89417 -1.506716,-0.47823 -3.095716,-2.90733 -3.075311,-4.7012 0.02456,-2.15705 1.005192,-3.87112 2.947215,-5.15138 2.256835,-1.48778 3.811697,-1.2916 5.840036,0.73682 1.366856,1.36692 1.980121,1.65829 2.673516,1.27023 0.49489,-0.27696 2.044004,-0.39362 3.442474,-0.25924 l 2.542676,0.24433 -0.280706,-3.09585 c -0.212708,-2.34588 -0.0666,-3.42264 0.603158,-4.44486 1.657488,-2.5298 5.654109,-1.22376 5.654109,1.84768 0,0.68644 -0.396772,1.6865 -0.881711,2.22238 -1.492565,1.64934 0.05241,1.07574 1.68085,-0.62402 2.4178,-2.52377 5.84531,-2.05438 7.43407,1.01807 0.941631,1.82103 0.38999,4.36767 -1.346528,6.2162 -1.309582,1.39404 -1.048441,4.02292 0.511788,5.15226 1.392481,1.00791 4.143121,5.25485 5.482291,8.46453 0.986028,2.3633 1.213149,4.01006 1.312688,9.51754 0.0676,3.74259 0.448472,7.80735 0.869411,9.27961 0.935841,3.27314 0.43367,6.33935 -1.731529,10.57282 l -1.57003,3.06976 1.359998,1.99167 c 1.097421,1.60715 1.310852,2.43764 1.105512,4.30161 -0.2911,2.64233 -2.61919,5.46208 -5.37305,6.50778 -0.913842,0.347 -2.41698,0.96243 -3.34032,1.36762 -0.92333,0.40519 -1.983279,0.7367 -2.355461,0.7367 -0.372171,0 -1.096489,0.37996 -1.609601,0.84433 -1.163005,1.05256 -4.465343,1.40977 -6.70926,0.72574 z"
         style="fill:none;stroke:#ff0000;stroke-width:0.10000001;stroke-miterlimit:4;stroke-dasharray:none" />
      <path
         id="path1223"
         style="fill:none;stroke:#0000ff;stroke-width:0.10000001"
         d="m 24.394617,229.19937 -1.808411,1.80841 m -0.285231,0.68436 2.930342,-2.93035 m 0.73915,-0.34002 -3.946458,3.94645 m 2.985302,-2.58617 1.422046,-1.42205 m -3.772266,3.77227 -0.613741,0.61374 m 3.733608,-3.33449 1.148429,-1.14843 m -4.404475,4.40448 -0.585364,0.58536 m 4.525805,-4.12668 0.899156,-0.89916 m -4.856191,4.85619 -0.598148,0.59815 m 5.03238,-4.63326 0.739836,-0.73983 m -5.289093,5.28909 -0.508649,0.50865 m 5.470476,-5.07135 0.647448,-0.64745 m -5.601855,5.60185 -0.48229,0.48229 m 5.870876,-5.47175 0.505016,-0.50502 m -5.883025,5.88303 -0.444862,0.44486 m 6.156889,-5.75777 0.43964,-0.43964 m -6.09524,6.09524 -0.416661,0.41667 m 6.382206,-5.98309 0.393046,-0.39304 m -3.237758,3.23775 -0.733888,0.73389 m -2.715487,2.71549 0.385683,-0.38568 m 6.534693,-6.13557 -0.370733,0.37073 m -4.068353,4.06835 1.339779,-1.33978 m -3.345913,3.34592 -0.356556,0.35655 m 6.667625,-6.2685 0.367394,-0.36739 m -2.857779,2.85777 -0.113451,0.11346 m -1.785474,1.78547 0.08359,-0.0836 m -1.908249,1.90825 -0.335057,0.33506 m 6.785608,-6.38649 0.35803,-0.35803 m -6.69379,6.69379 -0.314161,0.31416 m 6.886503,-6.48738 0.330265,-0.33026 m -6.76801,6.76801 -0.303281,0.30328 m 6.977609,-6.57849 0.3025,-0.3025 m -6.84223,6.84223 -0.292056,0.29206 m 7.054572,-6.65545 0.288531,-0.28854 m -6.877586,6.87759 -0.29543,0.29543 m 7.075808,-6.67668 0.304885,-0.30489 m -5.458414,5.45842 -0.06556,0.0656 m -1.686636,1.68664 0.297951,-0.29795 m 7.119979,-6.72086 -0.320885,0.32089 m -1.899914,1.89991 0.07363,-0.0736 m -3.359671,3.35967 -0.06819,0.0682 m -1.663119,1.66312 0.313625,-0.31362 m 7.131851,-6.73273 -0.336886,0.33689 m -1.878351,1.87835 0.107164,-0.10717 m -3.439044,3.43905 -0.07165,0.0717 m -1.630728,1.63073 0.335713,-0.33571 m 7.121109,-6.72199 -0.352887,0.35289 m -1.869155,1.86915 0.137281,-0.13728 m -3.44581,3.44581 -0.08357,0.0836 m -1.646706,1.6467 0.357802,-0.3578 m 7.121892,-6.72277 -0.401718,0.40172 m -1.88314,1.88314 0.207101,-0.2071 m -3.447794,3.44779 -0.09077,0.0908 m -1.64058,1.64058 0.353074,-0.35307 m 7.142907,-6.74379 -0.493336,0.49334 m -1.875363,1.87536 0.275123,-0.27512 m -3.446486,3.44649 -0.09143,0.0914 m -1.637179,1.63718 0.361788,-0.36179 m 15.393029,-14.9939 -0.340773,0.34077 m -8.511571,8.51157 0.605276,-0.60528 m -2.092484,2.09249 -0.486044,0.48604 m -3.068129,3.06813 0.160757,-0.16075 m -1.38822,1.38822 -0.379698,0.37969 m 14.761058,-14.36193 1.586408,-1.58641 m -8.836806,8.83681 -0.736191,0.73619 m -2.249105,2.2491 0.917249,-0.91725 m -3.319558,3.31956 -0.291981,0.29198 m -1.559535,1.55954 0.379999,-0.38 m 16.067037,-15.66792 -1.931028,1.93103 m -12.77228,12.77228 5.817918,-5.81792 m -6.914323,6.91433 -0.372674,0.37267 m 14.055642,-13.65652 2.673612,-2.67361 m -9.101234,9.10123 -6.006609,6.00661 m -1.378873,1.37887 0.447648,-0.44764 m 16.357898,-15.95878 -1.257356,1.25736 m -1.751305,1.7513 0.550489,-0.55049 m -6.387931,6.38793 -7.763598,7.7636 m 15.789502,-15.39038 1.160695,-1.16069 m -2.876376,2.87637 -0.494319,0.49432 m -13.455556,13.45556 8.208782,-8.20878 m 8.965196,-8.56608 -1.222926,1.22293 m -2.525507,2.52551 0.535529,-0.53553 m -5.225019,5.22502 -8.615407,8.6154 m 16.084821,-15.6857 1.235398,-1.23539 m -3.411279,3.41128 -0.582086,0.58208 m -10.304892,10.30489 5.963756,-5.96375 m -7.316598,7.3166 -1.587322,1.58732 m 16.225406,-15.82629 1.279903,-1.2799 m -3.621342,3.62134 -0.616953,0.61696 m -10.137248,10.13724 6.185809,-6.18581 m -8.160994,8.161 -1.111131,1.11113 m 16.396446,-15.99732 1.333349,-1.33335 m -3.766978,3.76698 -0.717297,0.71729 m -3.991973,3.99198 0.42897,-0.42897 m -2.770882,2.77088 -3.635716,3.63571 m -3.232469,3.23247 1.044178,-1.04417 m 16.847645,-16.44853 -1.318522,1.31852 m -3.351811,3.35182 0.841765,-0.84177 m -4.04483,4.04483 -0.450116,0.45012 m -6.146238,6.14623 3.067707,-3.0677 m -5.543398,5.5434 -0.909843,0.90984 m 16.769877,-16.37076 1.290886,-1.29088 m -3.860016,3.86001 -0.982614,0.98262 m -3.325535,3.32553 0.46865,-0.46865 m -3.971679,3.97168 -2.814433,2.81443 m -3.567518,3.56752 0.892743,-0.89274 m 17.365879,-16.96676 -1.228033,1.22804 m -3.786893,3.78689 1.15053,-1.15053 m -3.665751,3.66575 -0.570933,0.57093 m -6.379628,6.37963 2.566903,-2.5669 m -5.33134,5.33134 -1.005859,1.00586 m 17.359642,-16.96052 1.039817,-1.03982 m -3.805909,3.80591 -1.324291,1.32429 m -2.912753,2.91275 0.728483,-0.72848 m -4.738037,4.73804 -2.358335,2.35833 m -3.980999,3.981 1.124619,-1.12462 m 17.407708,-17.00858 -0.755373,0.75537 m -4.482133,4.48213 1.506052,-1.50605 m -3.359369,3.35937 -0.944243,0.94424 m -6.262865,6.26287 2.115848,-2.11585 m -5.070264,5.07026 -1.297163,1.29717 m 18.184181,-17.78506 0.505815,-0.50582 m -2.603393,2.6034 -0.111174,0.11117 m -2.630244,2.63024 1.657975,-1.65797 m -3.180341,3.18034 -1.240753,1.24075 m -6.068585,6.06859 1.952984,-1.95298 m -5.003033,5.00303 -1.427623,1.42762 m 18.265737,-17.86661 0.48323,-0.48323 m -2.401348,2.40134 -0.28438,0.28438 m -2.720683,2.72069 1.763849,-1.76385 m -2.955262,2.95526 -1.540387,1.54039 m -5.846177,5.84617 1.754466,-1.75446 m -4.897581,4.89758 -1.607087,1.60709 m 18.236577,-17.83746 0.578888,-0.57889 m -2.10803,2.10803 -0.51814,0.51814 m -2.827935,2.82794 1.685054,-1.68506 m -2.545516,2.54552 -1.865381,1.86538 m -5.589083,5.58908 1.559104,-1.5591 m -4.804609,4.80461 -1.786551,1.78655 m 16.327818,-15.92869 2.485997,-2.486 m -4.459641,4.45964 -0.974011,0.97401 m -2.749666,2.74967 2.220155,-2.22016 m -6.147397,6.1474 -1.354176,1.35417 m -5.346653,5.34666 1.977966,-1.97797 m 16.778545,-16.37942 -2.257451,2.25745 m -5.86163,5.86163 3.770044,-3.77004 m -7.594551,7.59455 -1.13663,1.13663 m -5.636626,5.63662 2.13214,-2.13214 m 16.419791,-16.02067 -1.917786,1.91779 m -6.028669,6.02867 4.018935,-4.01894 m -7.739061,7.73907 -0.88994,0.88993 m -5.957268,5.95727 2.287838,-2.28783 m 16.266321,-15.8672 -1.775584,1.77558 m -6.193342,6.19334 4.288271,-4.28827 m -7.947838,7.94784 -0.59648,0.59648 m -6.291043,6.29104 2.454176,-2.45417 m 15.422008,-15.02289 -0.953179,0.95318 m -6.358017,6.35802 4.65615,-4.65615 m -8.258437,8.25843 -0.212006,0.21201 m -6.75443,6.75443 2.664264,-2.66426 m 14.643114,-14.244 -0.198066,0.19807 m -6.538966,6.53897 5.045348,-5.04535 m -12.745078,12.74508 -2.780047,2.78004 m 17.203676,-16.80455 0.341053,-0.34105 m -1.614197,1.61419 -5.391415,5.39142 m -10.477901,10.4779 2.925183,-2.92518 m 16.553738,-16.15462 -2.189984,2.18999 m -6.751696,6.75169 5.763517,-5.76352 m -13.169222,13.16923 -1.543021,1.54302 m -1.527298,1.5273 0.216429,-0.21643 m 20.382142,-19.98302 -3.224375,3.22437 m -1.428466,1.42847 0.901503,-0.9015 m -3.299834,3.29983 -3.025084,3.02508 m -5.011815,5.01182 0.754547,-0.75455 m -2.988376,2.98838 -0.822397,0.82239 m -2.403589,2.40359 0.245872,-0.24587 m 21.212997,-20.81387 -5.001578,5.00157 m -5.877824,5.87783 2.498125,-2.49813 m -6.311374,6.31138 -1.625267,1.62527 m -2.319645,2.31964 0.611033,-0.61103 m -3.092807,3.0928 -0.244956,0.24496 m 16.741095,-16.34197 5.155336,-5.15534 m -9.019739,9.01974 -2.283964,2.28396 m -5.494958,5.49496 0.164849,-0.16485 m -4.924003,4.92401 -0.24404,0.24404 m 21.947882,-21.54876 0.392542,-0.39255 m -3.825286,3.82529 -1.469497,1.4695 m -6.433565,6.43356 2.049809,-2.04981 m -5.245541,5.24554 -0.136073,0.13608 m -7.190893,7.19089 0.273072,-0.27307 m 22.374207,-21.97509 -0.1101,0.1101 m -5.181793,5.1818 0.915409,-0.91541 m -5.765727,5.76573 -1.8208,1.8208 m -3.38861,3.38861 0.337497,-0.3375 m -7.243471,7.24347 -0.276718,0.27672 m 17.518575,-17.11946 0.702032,-0.70203 m -5.90279,5.90279 -1.584946,1.58495 m -3.884174,3.88417 0.953789,-0.95379 m -7.409155,7.40916 -0.280365,0.28036 m 17.271569,-16.87244 0.946246,-0.94625 m -6.088986,6.08899 -1.32374,1.32374 m -4.206535,4.20653 1.332261,-1.33226 m -7.470031,7.47003 -0.347819,0.34782 m 16.697649,-16.29853 1.550328,-1.55032 m -6.30812,6.30812 -1.049356,1.04935 m -4.546515,4.54652 1.715158,-1.71516 m -7.535535,7.53553 -0.435049,0.43505 m 19.86091,-19.46178 0.366891,-0.3669 m -1.849659,1.84966 -2.233283,2.23329 m -5.126676,5.12667 0.757107,-0.7571 m -3.640653,3.64065 -1.891422,1.89142 m -6.204211,6.20421 0.660242,-0.66024 m 23.175483,-22.77636 -0.06681,0.0668 m -7.985981,7.98598 4.971126,-4.97113 m -9.078775,9.07878 -0.466312,0.46631 m -4.998777,4.99878 0.905211,-0.90522 m -6.194049,6.19405 -0.916697,0.9167 m 23.98835,-23.58923 0.09647,-0.0965 m -4.143452,4.14345 -4.486733,4.48674 m -9.192421,9.19242 0.997925,-0.99793 m -5.775839,5.77584 -2.329294,2.3293 m 25.044325,-24.64521 0.13925,-0.13925 m -4.435926,4.43593 -4.591822,4.59182 m -8.971501,8.9715 1.19014,-1.19014 m -5.608946,5.60895 -3.335003,3.335 m 25.824789,-25.42566 0.171971,-0.17198 m -4.703047,4.70305 -4.75794,4.75794 m -8.699598,8.6996 1.544636,-1.54464 m -5.549321,5.54932 -3.941574,3.94158 m 26.145854,-25.74673 0.164881,-0.16488 m -2.404226,2.40422 -0.113774,0.11378 m -7.158587,7.15858 4.863153,-4.86315 m -11.53533,11.53533 -2.332761,2.33276 m -4.196393,4.19639 1.001141,-1.00114 m -3.808993,3.809 -0.868074,0.86807 m 26.599945,-26.20082 0.157791,-0.15779 m -2.35949,2.35949 -0.103936,0.10393 m -7.428761,7.42876 4.996087,-4.99608 m -11.482606,11.4826 -2.243308,2.24331 m -3.619189,3.61919 0.573625,-0.57363 m -4.55836,4.55836 -0.587428,0.58743 m 26.841117,-26.44199 0.17614,-0.17614 m -2.317683,2.31768 -0.143515,0.14352 m -7.625204,7.6252 5.116132,-5.11613 m -11.603265,11.60326 -1.988968,1.98897 m -3.389136,3.38914 0.493262,-0.49326 m -5.283573,5.28357 -0.330935,0.33093 m 27.078952,-26.67983 0.177837,-0.17783 m -2.31155,2.31155 -0.12987,0.12987 m -7.729483,7.72948 5.197224,-5.19722 m -11.879562,11.87956 -1.629765,1.62976 m -3.234248,3.23425 0.486906,-0.48691 m -5.779809,5.77981 -0.291566,0.29157 m 27.306092,-26.90697 0.153898,-0.1539 m -2.311565,2.31157 -0.126143,0.12614 m -7.617284,7.61728 5.109081,-5.10908 m -12.259896,12.2599 -1.238349,1.23835 m -3.00937,3.00937 0.534035,-0.53404 m -6.196189,6.19619 -0.324553,0.32456 m 27.438827,-27.03971 0.159673,-0.15967 m -2.331639,2.33164 -0.111553,0.11155 m -7.24206,7.24206 4.815095,-4.8151 m -12.900887,12.90089 -0.61363,0.61363 m -2.831736,2.83174 0.75579,-0.75579 m -6.906697,6.90669 -0.211427,0.21143 m 27.563549,-27.16443 0.173461,-0.17346 m -2.407236,2.40724 -0.09028,0.0903 m -6.110117,6.11011 3.813228,-3.81323 m -13.525168,13.52517 -2.711803,2.71181 m -6.683823,6.68382 0.218782,-0.21878 m 27.637884,-27.23877 -0.166444,0.16645 m -2.403073,2.40307 0.07268,-0.0727 m -2.171369,2.17136 -2.528526,2.52853 m -5.78701,5.78701 0.61175,-0.61175 m -6.47106,6.47106 -1.989505,1.98951 m -6.952066,6.95206 0.188545,-0.18854 m 27.709564,-27.31045 -0.179207,0.17921 m -2.731414,2.73141 0.33299,-0.33299 m -1.807826,1.80783 -2.478314,2.47831 m -6.280968,6.28097 1.471178,-1.47118 m -7.51053,7.51053 -1.421667,1.42167 m -7.22031,7.22031 0.199138,-0.19914 m 27.740413,-27.34129 -0.191969,0.19197 m -6.299553,6.29955 3.736777,-3.73677 m -8.700906,8.7009 -0.857872,0.85788 m -1.243911,1.24391 0.466092,-0.46609 m -6.332449,6.33244 -0.981432,0.98144 m -7.462286,7.46228 0.193144,-0.19314 m 27.736083,-27.33696 -0.169393,0.16939 m -6.010337,6.01034 3.182328,-3.18233 m -8.11408,8.11408 -0.994983,0.99498 m -1.565075,1.56508 0.300737,-0.30074 m -6.052744,6.05274 -0.739223,0.73923 m -7.673811,7.67381 0.185479,-0.18548 m 27.715525,-27.3164 -0.187155,0.18715 m -5.660561,5.66056 2.665405,-2.6654 m -7.640662,7.64066 -1.214263,1.21426 m -1.853592,1.8536 0.465878,-0.46588 m -5.807728,5.80773 -0.690343,0.69034 m -7.86315,7.86315 0.193236,-0.19324 m 27.604796,-27.20567 -0.153673,0.15367 m -5.342672,5.34267 1.368107,-1.3681 m -6.412082,6.41208 -1.641498,1.6415 m -1.637296,1.63729 0.400584,-0.40058 m -5.569033,5.56903 -0.643148,0.64315 m -8.052489,8.05249 0.200716,-0.20072 m -5.576411,5.57642 -0.452548,0.45254 m 33.331983,-32.93286 0.186598,-0.1866 m -3.999555,3.99956 -1.151065,1.15106 m -7.037402,7.03741 1.926834,-1.92684 m -3.146199,3.1462 -0.374561,0.37456 m -5.584465,5.58447 0.707923,-0.70793 m -8.698896,8.6989 -0.21812,0.21812 M 19.12818,264.4 21.352413,262.17576 M 53.351506,230.57579 53.1937,230.7336 m -4.575293,4.57529 0.986554,-0.98655 m -6.196571,6.19657 -0.158718,0.15872 m -1.919882,1.91988 0.954402,-0.9544 m -2.167706,2.1677 -0.437966,0.43797 m -5.354002,5.354 0.755737,-0.75573 m -8.865267,8.86526 -0.234952,0.23495 m -7.162115,7.16212 3.293257,-3.29326 m 31.175322,-30.7762 -0.242947,0.24295 m -4.126844,4.12684 0.934095,-0.93409 m -7.452488,7.45249 -0.966879,0.96688 m -1.709476,1.70947 0.53234,-0.53234 m -4.795313,4.79531 -0.859703,0.85971 m -8.464582,8.46458 0.236496,-0.2365 m -3.85711,3.85711 -4.166865,4.16687 m 34.340811,-33.94169 0.400472,-0.40047 m -2.910511,2.91051 -0.977261,0.97726 m -7.668014,7.66801 1.053023,-1.05302 m -2.157853,2.15785 -0.596601,0.59661 m -4.965739,4.96573 0.975816,-0.97581 m -9.301303,9.3013 -0.250693,0.25069 m -8.192611,8.19262 4.925559,-4.92556 m 29.748764,-29.34965 -3.324202,3.32421 m -7.810489,7.81049 1.195575,-1.19558 m -2.168648,2.16865 -0.722701,0.7227 m -4.829018,4.82902 1.112147,-1.11215 m -9.495411,9.49541 -0.284298,0.2843 m -3.66577,3.66577 0.538925,-0.53893 m -1.768799,1.7688 -3.733612,3.73362 m 31.814714,-31.4156 3.134805,-3.1348 m -8.648899,8.6489 -2.38711,2.38711 m -1.678344,1.67834 0.847691,-0.84769 m -4.291514,4.29151 -1.248477,1.24848 m -8.734514,8.73452 0.293473,-0.29348 m -3.279401,3.2794 -0.375934,0.37594 m -5.585161,5.58516 3.825607,-3.82561 m 30.178489,-29.77936 -1.925825,1.92582 m -8.517071,8.51707 2.938309,-2.93831 m -3.902966,3.90297 -0.118914,0.11891 m -4.550043,4.55005 1.384807,-1.38481 m -9.872755,9.87275 -0.296699,0.2967 m -3.192742,3.19274 0.352847,-0.35284 m -2.444995,2.44499 -3.99672,3.99672 m 32.253674,-31.85455 1.107481,-1.10748 m -6.661906,6.66191 -2.585042,2.58504 m -1.381549,1.38155 0.135978,-0.13598 m -3.02914,3.02914 -1.542593,1.54259 m -8.819378,8.81938 0.320433,-0.32043 m -3.098398,3.09839 -0.301163,0.30117 m -5.183673,5.18367 2.883977,-2.88398 m -3.857749,3.85775 -0.39065,0.39065 m 32.456157,-32.05703 0.970444,-0.97044 m -6.635448,6.63544 -2.197262,2.19726 m -1.599928,1.59993 0.15052,-0.15052 m -2.726574,2.72658 -1.758419,1.75842 m -8.836351,8.83635 0.344167,-0.34417 m -3.060203,3.0602 -0.24797,0.24797 m -4.857679,4.85768 2.351337,-2.35134 m -3.865039,3.86504 -0.561155,0.56116 m 32.379478,-31.98036 1.107585,-1.10758 m -6.688365,6.68836 -1.658682,1.65868 m -1.961043,1.96105 0.196177,-0.19618 m -2.455123,2.45512 -1.974245,1.97425 m -8.85051,8.85051 0.370851,-0.37085 m -3.027772,3.02777 -0.24868,0.24868 m -4.724531,4.72453 2.102083,-2.10208 m -3.822786,3.82278 -0.817839,0.81784 m 29.418244,-29.01912 4.144758,-4.14476 m -7.084819,7.08482 -0.186673,0.18668 m -2.927528,2.92752 0.244238,-0.24423 m -2.186076,2.18607 -2.190072,2.19007 m -8.861285,8.86129 0.419999,-0.42 m -3.022059,3.02206 -0.285109,0.28511 m -4.566566,4.56656 1.866073,-1.86607 m -3.80029,3.80029 -1.138581,1.13858 m 29.773546,-29.37442 4.001309,-4.00131 m -9.824272,9.82427 -0.314284,0.31428 m -4.071796,4.0718 2.538509,-2.53851 m -10.905218,10.90522 -0.489424,0.48942 m -2.875959,2.87596 0.338199,-0.3382 m -3.088957,3.08896 -1.630343,1.63034 m -3.424679,3.42468 1.303074,-1.30307 m 32.509965,-32.11084 -3.866567,3.86656 m -6.281267,6.28127 0.500714,-0.50071 m -1.739554,1.73955 -2.720909,2.72091 m -8.917316,8.91732 0.632223,-0.63223 m -3.030247,3.03025 -0.435974,0.43597 m -4.150953,4.15096 1.394758,-1.39476 m -3.665219,3.66522 -1.5597,1.5597 m 30.173001,-29.77388 3.759411,-3.75941 m -9.48567,9.48567 -4.54673,4.54673 m -9.194127,9.19413 1.025349,-1.02535 m -3.037013,3.03701 -0.583361,0.58336 m -3.908023,3.90802 1.165008,-1.165 m -3.578491,3.57849 -1.816325,1.81632 m 30.415945,-30.01682 3.657816,-3.65782 m -9.224183,9.22419 -4.78143,4.78143 m -11.851679,11.85167 3.825635,-3.82563 m -6.504363,6.50436 -0.934371,0.93437 m -4.656787,4.65679 2.099396,-2.0994 m 32.14216,-31.74303 -3.550727,3.55072 m -10.452044,10.45205 5.063775,-5.06378 m -12.92314,12.92314 -4.044787,4.04479 m -3.304283,3.30428 0.703734,-0.70373 m -3.375041,3.37504 -2.339579,2.33958 m 30.910605,-30.51148 3.471667,-3.47167 m -8.510314,8.51031 -5.535417,5.53542 m -12.008361,12.00836 4.32563,-4.32563 m -6.840116,6.84012 -0.429246,0.42924 m -5.37319,5.37319 2.601405,-2.6014 m 31.929425,-31.5303 -3.373888,3.37388 m -5.989828,5.98983 1.090149,-1.09015 m -4.590406,4.59041 -1.227072,1.22707 m -12.120994,12.121 4.640629,-4.64063 m -10.084931,10.08493 -2.863231,2.86323 m 31.40328,-31.00416 3.290002,-3.29 m -7.968062,7.96806 -0.755101,0.7551 m -5.461418,5.46142 0.889907,-0.88991 m -8.133577,8.13358 -1.728999,1.729 m -3.275755,3.27575 1.307987,-1.30798 m -6.43195,6.43195 -3.181773,3.18177 m 31.749527,-31.3504 3.195718,-3.19572 m -7.695352,7.69535 -0.474252,0.47425 m -6.141306,6.14131 0.767998,-0.768 m -7.780139,7.78014 -2.013412,2.01341 m -3.357599,3.3576 0.968767,-0.96877 m -5.754377,5.75438 -3.382855,3.38285 m 31.9608,-31.56167 3.108229,-3.10823 m -7.308419,7.30842 -0.440421,0.44042 m -6.681495,6.68149 0.648437,-0.64843 m -7.396245,7.39624 -2.450959,2.45096 m -3.372785,3.37278 0.953049,-0.95304 m -5.325985,5.32598 -3.647365,3.64737 m 32.268943,-31.86983 2.96213,-2.96213 m -7.165134,7.16514 -0.282101,0.2821 m -7.150094,7.15009 0.589065,-0.58906 m -7.027354,7.02735 -2.918159,2.91816 m -3.35733,3.35733 0.786037,-0.78604 m -4.747287,4.74729 -3.911874,3.91188 m 32.556519,-32.1574 2.837957,-2.83796 m -6.939748,6.93975 -0.259744,0.25974 m -7.56619,7.56619 0.574121,-0.57412 m -6.71618,6.71618 -0.698436,0.69844 m -2.67338,2.67338 0.800654,-0.80065 m -3.157503,3.1575 -0.965945,0.96594 m -7.745284,7.74529 4.176384,-4.17639 m 31.381496,-30.98237 -2.683715,2.68372 m -4.274912,4.27491 0.244265,-0.24427 m -7.667417,7.66742 -0.544383,0.54438 m -6.321283,6.32128 0.520823,-0.52082 m -3.621364,3.62137 -0.396989,0.39698 m -3.226389,3.22639 1.277905,-1.2779 m -4.376687,4.37669 -3.019164,3.01916 m -1.413706,1.41371 0.262501,-0.26251 m 35.428136,-35.02901 -0.403035,0.40304 m -2.118705,2.1187 1.205152,-1.20515 m -5.149764,5.14976 -0.246834,0.24684 m -8.402799,8.4028 0.595124,-0.59513 m -6.002017,6.00202 -0.479764,0.47976 m -3.879962,3.87996 0.252675,-0.25267 m -2.062303,2.0623 -1.44712,1.44712 m -5.711101,5.7111 2.900672,-2.90067 m -4.371543,4.37154 -0.285517,0.28552 m 35.488642,-35.08952 0.304043,-0.30404 m -1.397441,1.39744 -1.06264,1.06264 m -4.005886,4.00589 0.249402,-0.2494 m -8.433269,8.43326 -0.654196,0.6542 m -5.455154,5.45515 0.433254,-0.43325 m -4.57215,4.57215 -0.196925,0.19693 m -3.254686,3.25468 1.671821,-1.67182 m -4.154707,4.15471 -2.785703,2.7857 m -2.090608,2.09061 0.325901,-0.3259 m 35.568832,-35.16971 -0.281947,0.28195 m -2.167265,2.16726 1.000758,-1.00076 m -4.51805,4.51805 -0.261396,0.2614 m -9.273792,9.27379 0.722882,-0.72288 m -5.289137,5.28913 -0.44778,0.44778 m -4.679478,4.67948 0.264037,-0.26403 m -1.732342,1.73234 -1.896522,1.89652 m -4.761466,4.76147 2.606123,-2.60613 m -4.694315,4.69432 -0.401246,0.40124 m 35.740361,-35.34123 0.248496,-0.2485 m -1.471474,1.47147 -1.016951,1.01695 m -3.544755,3.54476 0.321039,-0.32104 m -9.147759,9.14776 -0.880339,0.88034 m -4.472216,4.47221 0.447806,-0.4478 m -5.101367,5.10136 -0.375074,0.37508 m -3.519066,3.51906 2.117216,-2.11721 m -3.947308,3.94731 -2.311386,2.31138 m -2.999123,2.99913 0.512605,-0.51261 m 35.554333,-35.15521 -0.203305,0.20331 m -2.392667,2.39266 1.135028,-1.13503 m -3.985095,3.9851 -0.369922,0.36992 m -10.145249,10.14525 1.028445,-1.02844 m -4.555234,4.55523 -0.420188,0.42019 m -5.32712,5.32712 0.565146,-0.56515 m -1.941035,1.94104 -2.304156,2.30415 m -3.348089,3.34809 1.784387,-1.78438 m -4.854403,4.8544 -0.607164,0.60716 m 35.937783,-35.53866 0.169018,-0.16902 m -1.440144,1.44015 -1.356814,1.35681 m -2.838474,2.83848 0.447929,-0.44793 m -9.802419,9.80241 -1.44165,1.44165 m -3.172345,3.17235 0.485645,-0.48565 m -5.282182,5.28219 -0.854206,0.8542 m -3.815887,3.81589 2.475042,-2.47504 m -3.82926,3.82926 -1.236375,1.23637 m -4.319342,4.31935 0.728032,-0.72804 m 35.418631,-35.01951 -0.170658,0.17066 m -2.975605,2.97561 1.72692,-1.72692 m -3.251031,3.25103 -0.782556,0.78255 m -11.521456,11.52146 1.94404,-1.94404 m -3.45892,3.45892 -0.837136,0.83714 m -5.953246,5.95324 1.183779,-1.18378 m -2.498717,2.49872 -2.631157,2.63116 m -6.794602,6.7946 0.870659,-0.87066 m 35.315867,-34.91674 -0.172298,0.17229 m -5.126958,5.12696 3.900712,-3.90071 m -13.669172,13.66917 -3.980129,3.98013 m -6.28396,6.28396 1.439036,-1.43903 m -2.740014,2.74001 -2.744461,2.74446 m -6.680324,6.68032 1.026293,-1.02629 m 35.197456,-34.79833 -0.173938,0.17394 m -4.98071,4.98071 3.776903,-3.77691 m -13.708833,13.70884 -3.768835,3.76883 m -6.5573,6.5573 1.292405,-1.2924 m -2.610003,2.61 -2.775976,2.77597 m -6.575116,6.57512 1.195018,-1.19502 m 35.052566,-34.65344 -0.175578,0.17558 m -1.763526,1.76352 0.604331,-0.60433 m -2.038643,2.03864 -1.653994,1.654 m -13.679944,13.67994 3.617467,-3.61746 m -9.239128,9.23913 -1.155942,1.15594 m -2.203228,2.20322 0.668187,-0.66818 m -2.426322,2.42632 -0.189011,0.18901 m -6.469908,6.46991 1.370711,-1.37071 m 34.900709,-34.50159 -0.178825,0.17883 m -1.750846,1.75084 0.643327,-0.64333 m -2.540217,2.54022 -1.095097,1.0951 m -13.667203,13.6672 3.495665,-3.49566 m -9.573843,9.57384 -0.937642,0.93764 m -4.159693,4.15969 0.254294,-0.25429 m -5.038507,5.03851 -1.580487,1.58049 m 36.087483,-35.68837 0.207771,-0.20777 m -1.237915,1.23792 -0.68147,0.68147 m -2.89652,2.89652 0.802704,-0.80271 m -11.062266,11.06227 -3.446201,3.4462 m -7.202735,7.20274 0.752812,-0.75282 m -4.558499,4.5585 -0.368069,0.36807 m -6.254749,6.25475 1.789881,-1.78988 m 34.52155,-34.12243 -0.229059,0.22906 m -1.695381,1.69538 0.742612,-0.74261 m -3.005944,3.00594 -0.555075,0.55508 m -12.567842,12.56784 2.27179,-2.27179 m -3.098487,3.09849 -0.314748,0.31475 m -7.388001,7.388 0.571648,-0.57165 m -4.26684,4.26684 -0.462424,0.46242 m -6.17438,6.17438 2.046907,-2.0469 m 34.273753,-33.87463 -0.240354,0.24035 m -1.696046,1.69605 0.818149,-0.81815 m -3.099854,3.09985 -0.438854,0.43885 m -12.537058,12.53706 2.20168,-2.20168 m -3.133581,3.13359 -0.246688,0.24668 m -7.583412,7.58341 0.438476,-0.43847 m -3.976102,3.9761 -0.593705,0.5937 m -6.131687,6.13169 2.336,-2.336 m 34.031565,-33.63244 -0.251648,0.25165 m -1.692985,1.69298 0.924424,-0.92442 m -3.23283,3.23283 -0.339224,0.33922 m -12.505249,12.50525 2.17233,-2.17233 m -3.191128,3.19113 -0.176768,0.17677 m -7.796463,7.79646 0.314344,-0.31434 m -3.676764,3.67676 -0.724987,0.72499 m -6.088994,6.08899 2.683208,-2.68321 m -4.05868,4.05868 -1.991064,1.99107 m 39.506865,-39.10775 0.274141,-0.27414 m -0.926119,0.92612 -1.051189,1.05119 m -2.563276,2.56328 0.252612,-0.25261 m -10.560578,10.56057 -2.178267,2.17827 m -1.213985,1.21399 0.143322,-0.14333 m -7.855575,7.85558 -0.270008,0.27001 m -4.043481,4.04348 0.856268,-0.85627 m -3.872667,3.87267 -3.022339,3.02234 m -3.665205,3.6652 2.677685,-2.67768 m 37.441331,-37.04221 -2.009984,2.00998 m -2.480628,2.48063 0.225275,-0.22528 m -10.506583,10.50659 -2.184204,2.1842 m -1.236015,1.23602 0.128669,-0.12867 m -8.084919,8.08492 -0.207429,0.20743 m -3.99759,3.99759 1.011323,-1.01133 m -3.625911,3.62591 -7.647962,7.64797 m 38.721827,-38.32271 2.04266,-2.04266 m -4.25257,4.25257 -0.215944,0.21595 m -12.417696,12.41769 2.208584,-2.20858 m -3.351833,3.35183 -0.114017,0.11402 m -8.339633,8.33963 0.181718,-0.18172 m -2.971004,2.97101 -1.150462,1.15046 m -6.947029,6.94703 4.750641,-4.75064 m -7.431266,7.43126 -0.954248,0.95425 m 39.076308,-38.67719 2.07698,-2.07698 m -4.239802,4.23981 -0.206613,0.20661 m -12.372103,12.3721 2.245223,-2.24522 m -3.422153,3.42215 -0.09936,0.0994 m -8.515589,8.51558 0.158372,-0.15837 m -2.750675,2.75068 -1.289602,1.2896 m -6.141804,6.1418 4.241897,-4.24189 m -8.26702,8.26702 -0.463359,0.46336 m 39.153547,-38.75443 2.117574,-2.11757 m -4.227035,4.22703 -0.206094,0.2061 m -12.317697,12.3177 2.281863,-2.28187 m -3.47995,3.47995 -0.09724,0.0972 m -8.691542,8.69154 0.157989,-0.15799 m -2.55331,2.55331 -1.428742,1.42874 m -5.739691,5.73969 4.111536,-4.11153 m -8.680473,8.68047 -0.448657,0.44866 m 41.085538,-40.68642 0.38203,-0.38203 m -1.340731,1.34073 -0.824038,0.82404 m -2.270593,2.27059 0.201293,-0.20129 m -10.117693,10.11769 -2.315638,2.31564 m -1.330085,1.33009 0.100676,-0.10068 m -8.800462,8.80046 -0.167711,0.16771 m -3.76622,3.76622 1.567882,-1.56788 m -3.198698,3.1987 -3.7151,3.7151 m -5.422894,5.42289 0.284871,-0.28487 m 41.26367,-40.86454 -0.271945,0.27194 m -1.940019,1.94002 0.789421,-0.78942 m -2.815628,2.81563 -0.199425,0.19942 m -12.108651,12.10865 2.324376,-2.32437 m -3.622835,3.62283 -0.104831,0.10483 m -9.060058,9.06006 0.200114,-0.20011 m -2.184149,2.18415 -1.699872,1.69987 m -4.910365,4.91036 3.23414,-3.23414 m -8.856145,8.85615 -0.263284,0.26328 m 41.402955,-41.00383 0.226472,-0.22647 m -1.582849,1.58285 -0.668053,0.66805 m -2.192316,2.19232 0.209203,-0.20921 m -9.849706,9.84971 -2.257191,2.25719 m -1.552542,1.55254 0.109108,-0.10911 m -9.091591,9.09159 -0.203505,0.20351 m -3.65481,3.65481 1.818571,-1.81857 m -3.699077,3.69908 -2.472244,2.47224 m -6.474815,6.47482 0.227136,-0.22714 m 41.464771,-41.06565 -0.192565,0.19256 m -2.087093,2.0871 0.647122,-0.64712 m -2.587142,2.58714 -0.231493,0.23149 m -10.145521,10.14552 0.661302,-0.6613 m -3.756008,3.75601 -0.135791,0.13579 m -9.31192,9.31192 0.208981,-0.20898 m -1.897423,1.89742 -1.93727,1.93727 m -10.822385,10.82239 0.153897,-0.1539 m 41.563399,-41.16428 -0.167849,0.16785 m -2.140566,2.14057 0.624904,-0.62491 m -2.559601,2.5596 -0.219129,0.21913 m -9.737034,9.73704 0.412217,-0.41222 m -3.80783,3.80783 -0.166038,0.16604 m -9.430607,9.43061 0.233609,-0.23361 m -1.781497,1.78149 -2.055969,2.05597 m -10.817205,10.81721 0.146281,-0.14628 m 41.596403,-41.19728 -0.168552,0.16855 m -2.168618,2.16862 0.636187,-0.63619 m -2.580328,2.58033 -0.218701,0.2187 m -9.488366,9.48836 0.349276,-0.34927 m -3.859274,3.85927 -0.196284,0.19629 m -9.517921,9.51792 0.250197,-0.2502 m -1.687534,1.68754 -2.17604,2.17604 m -10.791484,10.79148 0.101831,-0.10183 m 41.645701,-41.24658 -0.169255,0.16925 m -2.196672,2.19668 0.64693,-0.64693 m -2.600514,2.60051 -0.21118,0.21118 m -9.240963,9.24096 0.319673,-0.31967 m -3.930421,3.93042 -0.245994,0.24599 m -9.605234,9.60524 0.288218,-0.28822 m -1.614555,1.61456 -2.283568,2.28356 m -9.326419,9.32642 0.143134,-0.14313 m 40.15691,-39.75779 -0.174552,0.17455 m -2.220132,2.22013 0.682939,-0.68293 m -2.645967,2.64596 -0.261969,0.26197 m -9.023868,9.02387 0.370769,-0.37077 m -3.976815,3.97682 -0.28552,0.28552 m -9.698682,9.69868 0.36358,-0.36358 m -1.607051,1.60705 -2.374237,2.37424 m -9.677046,9.67704 0.380484,-0.38048 m 40.278156,-39.87904 -0.195596,0.1956 m -2.227843,2.22784 0.725955,-0.72595 m -2.738035,2.73803 -0.27315,0.27315 m -8.836107,8.83611 0.505744,-0.50574 m -4.091434,4.09143 -0.306622,0.30662 m -9.78359,9.78359 0.451639,-0.45164 m -1.731752,1.73175 -0.545463,0.54547 m -1.813219,1.81322 0.291799,-0.2918 m -9.675471,9.67547 -1.314032,1.31403 m 41.470627,-41.0715 0.21664,-0.21664 m -1.66594,1.66594 -0.789691,0.78969 m -2.342028,2.34203 0.264889,-0.26489 m -8.272971,8.27297 -0.668371,0.66837 m -3.864952,3.86495 0.395061,-0.39506 m -9.580503,9.5805 -0.683055,0.68306 m -3.659881,3.65988 0.404394,-0.4044 m -9.894643,9.89465 -1.153581,1.15358 m 41.410629,-41.01151 0.230732,-0.23073 m -1.613254,1.61325 -0.88466,0.88466 m -2.387984,2.38799 0.255879,-0.25588 m -7.828306,7.82831 -1.073389,1.07339 m -3.680534,3.68053 0.474871,-0.47487 m -9.486932,9.48693 -0.951764,0.95176 m -3.699343,3.69935 0.516994,-0.517 m -10.098403,10.09841 -1.008541,1.00854 m 41.321478,-40.92236 0.273978,-0.27398 m -1.558968,1.55897 -0.981229,0.98123 m -2.525057,2.52506 0.337984,-0.33799 m -7.450419,7.45042 -1.551241,1.55124 m -3.317154,3.31716 0.521308,-0.52131 m -9.701053,9.70105 -0.911618,0.91162 m -3.745878,3.74588 0.629529,-0.62953 m -10.273762,10.27376 -0.859331,0.85933 m 41.199756,-40.80063 0.288737,-0.28874 m -1.47133,1.47133 -1.082664,1.08267 m -2.662129,2.66212 0.341429,-0.34142 m -6.90508,6.90508 -2.216098,2.21609 m -2.78515,2.78515 0.513181,-0.51318 m -10.061202,10.0612 -0.741293,0.7413 m -3.792413,3.79241 0.742065,-0.74206 m -10.4296,10.4296 -0.725766,0.72576 m 41.074157,-40.67503 0.306481,-0.30648 m -1.386676,1.38667 -1.184099,1.1841 m -2.780972,2.78097 0.330828,-0.33082 m -6.248836,6.24883 -0.377588,0.37759 m -4.549197,4.5492 2.126833,-2.12684 m -12.264976,12.26498 -0.664658,0.66466 m -3.845815,3.84581 0.8546,-0.8546 m -5.239144,5.23915 -1.200181,1.20018 m -4.738314,4.73831 0.5922,-0.5922 m 40.680583,-40.28146 -0.324225,0.32423 m -2.263332,2.26333 1.255311,-1.25531 m -3.834898,3.83489 -0.484077,0.48408 m -5.829442,5.82944 0.720928,-0.72092 m -3.902426,3.90242 -0.849205,0.84921 m -11.402181,11.40218 0.56536,-0.56536 m -3.492432,3.49243 -0.986945,0.98694 m -6.343312,6.34332 2.832195,-2.8322 m -6.205078,6.20508 -0.468268,0.46827 m 40.774646,-40.37553 0.341969,-0.34197 m -1.313798,1.3138 -1.29054,1.29054 m -3.364366,3.36437 0.546108,-0.54611 m -4.817065,4.81707 -1.066792,1.06679 m -15.5213,15.5213 0.512976,-0.51298 m -3.369036,3.36904 -1.126159,1.12616 m -7.057423,7.05742 4.144972,-4.14497 m -6.788188,6.78819 -0.350209,0.35021 m 40.605696,-40.20658 0.359713,-0.35971 m -1.295351,1.29535 -1.324369,1.32437 m -4.218518,4.21852 1.159047,-1.15905 m -3.6026,3.6026 -1.911877,1.91188 m -15.548292,15.54829 0.466956,-0.46696 m -3.252003,3.25201 -1.259561,1.25956 m -7.563291,7.56329 4.957645,-4.95765 m -7.024756,7.02476 -0.293188,0.29319 m 40.437289,-40.03817 0.383898,-0.3839 m -1.426368,1.42637 -1.247162,1.24716 m -8.422313,8.42232 5.225543,-5.22555 m -20.371371,20.37137 -0.420936,0.42094 m -4.150635,4.15063 1.4366,-1.4366 m -3.772426,3.77243 -0.756044,0.75604 m -4.654989,4.65499 2.473712,-2.47371 m -4.226603,4.2266 -0.253714,0.25372 m 40.274082,-39.87496 0.338138,-0.33814 m -1.447771,1.44777 -1.214054,1.21406 m -8.327521,8.32752 4.515034,-4.51504 m -19.66851,19.66851 -0.374916,0.37492 m -4.256663,4.25666 1.625946,-1.62594 m -3.691952,3.69195 -0.533128,0.53313 m -6.984204,6.9842 2.789692,-2.78969 m 37.6357,-37.23658 -0.348404,0.3484 m -2.323855,2.32386 1.062251,-1.06225 m -4.911331,4.91133 -4.38365,4.38365 m -15.49002,15.49002 0.355183,-0.35518 m -2.874482,2.87448 -1.843391,1.84339 m -2.254708,2.25471 0.450067,-0.45007 m -5.587019,5.58702 -2.051835,2.05183 m 39.910179,-39.51105 0.35867,-0.35867 m -1.734908,1.73491 -0.947788,0.94778 m -8.16088,8.16088 1.693778,-1.69377 m -16.790455,16.79045 -0.332029,0.33203 m -4.466773,4.46677 2.073235,-2.07323 m -3.318933,3.31893 -0.614446,0.61445 m -7.449979,7.44998 1.628334,-1.62834 m 38.488497,-38.08937 -0.368936,0.36893 m -2.320321,2.32032 0.832569,-0.83256 m -7.205352,7.20535 -1.743698,1.74369 m -15.343815,15.34382 0.308875,-0.30888 m -2.54364,2.54365 -3.855534,3.85553 m -7.657309,7.65731 1.410793,-1.41079 m 38.554023,-38.15491 -0.379202,0.37921 m -2.386578,2.38657 0.787365,-0.78736 m -7.003225,7.00322 -0.450046,0.45005 m -1.336215,1.33622 0.418351,-0.41835 m -15.391555,15.39155 -0.285819,0.28582 m -5.899958,5.89996 3.837356,-3.83736 m -10.642453,10.64245 -1.033173,1.03318 m 39.443338,-39.04422 0.35789,-0.35789 m -1.949881,1.94988 -0.860844,0.86085 m -6.405171,6.40517 0.383123,-0.38313 m -1.485147,1.48515 -0.400221,0.40022 m -15.155338,15.15534 0.272024,-0.27202 m -2.286184,2.28618 -3.707275,3.70727 m -8.012829,8.01283 0.831085,-0.83108 m 38.808807,-38.40969 -0.332651,0.33266 m -2.519091,2.51909 0.796304,-0.79631 m -6.618688,6.61869 -0.322052,0.32205 m -1.687681,1.68768 0.301467,-0.30146 m -15.066829,15.06683 -0.266887,0.26688 m -5.542912,5.54291 3.428071,-3.42807 m -10.965586,10.96559 -0.649872,0.64987 M 58.39522,252.67241 58.702631,252.365 m -2.037801,2.0378 -0.845485,0.84548 m -5.916795,5.9168 0.284603,-0.2846 m -1.872311,1.87231 -0.255842,0.25584 m -14.915105,14.91511 0.26175,-0.26175 m -2.672743,2.67274 -2.953395,2.95339 m -8.377764,8.37777 0.510152,-0.51015 m 38.822885,-38.42377 -0.287484,0.28749 m -2.696656,2.69665 0.966964,-0.96696 m -6.339656,6.33965 -0.25226,0.25226 m -2.038034,2.03804 0.253938,-0.25394 m -14.751564,14.75157 -0.256613,0.25661 m -5.185864,5.18586 2.434374,-2.43437 m -10.586356,10.58635 -0.429347,0.42935 m 38.911513,-38.51239 0.289193,-0.28919 m -1.967874,1.96787 -1.117119,1.11712 m -5.352287,5.35229 0.247773,-0.24778 m -2.209078,2.20908 -0.310352,0.31035 m -14.535055,14.53506 0.251476,-0.25148 m -4.779756,4.77976 -0.54808,0.54808 m -6.211395,6.21139 0.458795,-0.45879 m -2.618188,2.61819 -0.345085,0.34508 m 38.777472,-38.37835 0.290902,-0.2909 m -1.851446,1.85145 -1.334401,1.3344 m -5.088411,5.08841 0.260377,-0.26038 m -2.40331,2.40331 -0.251306,0.25131 m -14.418124,14.41812 0.246709,-0.24671 m -4.969191,4.96919 -0.255852,0.25586 m -6.567467,6.56746 0.499237,-0.49923 m -2.464045,2.46404 -0.310345,0.31035 m 38.647112,-38.24799 0.292611,-0.29262 m -1.732159,1.73216 -1.663786,1.66379 m -4.725636,4.72564 0.283328,-0.28333 m -2.59558,2.59558 -0.28235,0.28235 m -14.213066,14.21306 0.242494,-0.24249 m -4.97034,4.97034 -0.193837,0.19384 m -7.088232,7.08823 0.741664,-0.74167 m -2.293847,2.29385 -0.289768,0.28977 m 38.518944,-38.11982 0.269173,-0.26917 m -1.539703,1.5397 -1.833816,1.83382 m -4.591563,4.59156 0.327603,-0.32761 m -2.78785,2.78786 -0.326143,0.32614 m -13.995258,13.99526 0.238279,-0.23828 m -4.997815,4.99781 -0.139152,0.13915 m -7.231264,7.23127 0.640013,-0.64002 m -2.12365,2.12365 -0.263962,0.26397 m 38.394962,-37.99584 0.241386,-0.24139 m -1.352313,1.35231 -2.145578,2.14558 m -4.315758,4.31576 0.371878,-0.37188 m -3.011803,3.01181 -0.397622,0.39762 m -1.146459,1.14646 0.116944,-0.11695 m -12.454503,12.45451 -0.234063,0.23406 m -12.35147,12.35147 0.614694,-0.6147 m -1.903285,1.90329 -0.239077,0.23908 m 38.178942,-37.77982 0.281539,-0.28154 m -1.164922,1.16492 -2.457339,2.45734 m -4.039953,4.03995 0.422554,-0.42255 m -3.241525,3.24152 -1.568207,1.56821 m -12.342431,12.34243 0.229848,-0.22985 m -12.211107,12.21111 -0.591729,0.59173 m -1.307737,1.30774 0.215544,-0.21555 m 38.069072,-37.66995 -3.746634,3.74664 m -3.764148,3.76415 0.500836,-0.50084 m -3.498852,3.49885 -1.592334,1.59233 m -12.12757,12.12758 0.233524,-0.23353 m -12.367821,12.36782 -0.643598,0.6436 m -1.064396,1.06439 0.16632,-0.16631 m 37.91674,-37.51762 -3.871005,3.871 m -3.507669,3.50767 0.604438,-0.60444 m -3.81527,3.81527 -1.563365,1.56337 m -11.921413,11.92141 0.236816,-0.23681 m -12.528646,12.52864 -0.654774,0.65478 m -0.84337,0.84337 0.111918,-0.11192 m 37.764407,-37.36529 -3.973033,3.97304 m -3.294111,3.29411 0.781552,-0.78155 m -4.174444,4.17444 -1.544891,1.54489 m -11.714939,11.71494 0.240109,-0.24011 m -12.628637,12.62864 -0.726785,0.72678 m 36.564927,-36.1658 0.48232,-0.48232 m -1.759941,1.75994 -2.409309,2.40931 m -2.986365,2.98636 0.966917,-0.96691 m -4.663879,4.66387 -1.403072,1.40308 m -11.5098,11.5098 0.243402,-0.24341 m -12.734556,12.73456 -1.151928,1.15193 m 36.97763,-36.57851 0.442967,-0.44297 m -2.581149,2.58115 -4.462935,4.46294 m -5.262285,5.26228 1.17606,-1.17606 m -12.234027,12.23403 -0.258913,0.25891 m -13.548811,13.54881 1.012837,-1.01283 m 36.171291,-35.77217 -0.417789,0.41779 m -6.512762,6.51276 3.596179,-3.59618 m -8.074475,8.07448 -0.944759,0.94475 m -3.081968,3.08197 0.0766,-0.0766 m -7.869129,7.86913 -0.266715,0.26672 m -13.418256,13.41825 0.856279,-0.85628 m 36.071782,-35.67265 -0.452328,0.45232 m -6.41056,6.41056 3.361568,-3.36157 m -8.069605,8.06961 -0.874775,0.87477 m -2.969473,2.96948 0.223364,-0.22337 m -7.902699,7.9027 -0.274798,0.2748 m -13.283742,13.28374 0.726917,-0.72692 m 35.940471,-35.54134 -0.389732,0.38973 m -6.404056,6.40405 3.284494,-3.28449 m -8.36802,8.36802 -0.729433,0.72943 m -2.844662,2.84467 0.427412,-0.42742 m -7.936269,7.93627 -0.277056,0.27706 m -13.155053,13.15505 0.616468,-0.61647 m 35.790248,-35.39112 -0.420749,0.42075 m -3.977698,3.97769 0.974672,-0.97467 m -2.511341,2.51134 -0.875636,0.87564 m -2.900806,2.90081 0.876041,-0.87604 m -3.261617,3.26161 -0.551154,0.55116 m -2.731534,2.73153 0.523275,-0.52327 m -8.005983,8.00598 -0.282539,0.28254 m -12.963816,12.96381 0.500188,-0.50018 m 35.623038,-35.22392 -0.451765,0.45177 m -3.31365,3.31365 0.547988,-0.54799 m -2.709786,2.70978 -3.865594,3.8656 m -3.079746,3.07974 0.5556,-0.5556 m -2.372362,2.37237 -0.688749,0.68874 m -7.674752,7.67476 0.2728,-0.2728 m -12.625342,12.62534 -0.420838,0.42084 m 35.287755,-34.88864 0.552782,-0.55278 m -2.953638,2.95364 -0.3567,0.3567 m -6.403409,6.40341 3.752459,-3.75246 m -6.411317,6.41132 -0.825936,0.82593 m -2.173289,2.17329 0.88327,-0.88327 m -8.270961,8.27096 -0.201042,0.20104 m -12.582945,12.58295 0.345049,-0.34505 m 35.2128,-34.81368 -0.536329,0.53633 m -2.410388,2.41039 0.315122,-0.31512 m -3.363768,3.36377 -3.56038,3.56038 m -5.884731,5.88473 2.627175,-2.62718 m -9.928784,9.92879 -0.145432,0.14543 m -9.31108,9.31108 0.18377,-0.18377 m -2.919666,2.91966 -0.304295,0.3043 m 34.612009,-34.21289 0.641118,-0.64112 m -2.10213,2.10214 -0.490557,0.49055 m -6.790297,6.7903 3.405868,-3.40587 m -7.089178,7.08918 -2.421375,2.42137 m -7.345341,7.34534 0.177242,-0.17724 m -9.338888,9.33889 -0.343833,0.34383 m -2.593566,2.59357 0.25619,-0.25619 m 34.702449,-34.30333 -2.305136,2.30514 m -6.888139,6.88814 3.173431,-3.17343 m -7.238262,7.23826 -2.380281,2.38028 m -7.152361,7.15236 0.212637,-0.21264 m -9.612119,9.61212 -0.209157,0.20916 m -2.238181,2.23818 0.28833,-0.28833 m 34.376673,-33.97755 -2.021499,2.0215 m -6.982917,6.98292 2.973266,-2.97327 m -7.573801,7.5738 -2.207467,2.20747 m -6.948805,6.9488 0.337306,-0.3373 m -9.756453,9.75645 -0.272454,0.27245 m -1.891107,1.89111 0.323293,-0.32329 m 34.048073,-33.64895 -1.777918,1.77792 m -7.006218,7.00621 2.741679,-2.74167 m -8.575253,8.57525 -1.384803,1.3848 m -6.752182,6.75218 0.490269,-0.49027 m -9.898025,9.89803 -0.305546,0.30554 m -1.582297,1.5823 0.499717,-0.49971 m 33.578013,-33.17889 -1.543573,1.54357 m -7.023097,7.02309 2.512906,-2.5129 m -9.247218,9.24722 -0.917612,0.91761 m -6.529574,6.52957 0.754209,-0.75421 m -10.088163,10.08817 -1.674536,1.67453 m 32.445859,-32.04673 1.338234,-1.33824 m -6.065071,6.06507 -2.281953,2.28196 m -8.495332,8.49533 1.119981,-1.11998 m -5.976343,5.97634 -1.046488,1.04649 m -10.717816,10.71781 1.450916,-1.45091 m 32.039541,-31.64042 -1.154215,1.15421 m -6.966917,6.96692 2.044755,-2.04475 m -5.143065,5.14306 -0.522637,0.52264 m -5.744632,5.74463 1.337015,-1.33701 m -5.152567,5.15256 -1.462511,1.46251 m -10.406599,10.4066 1.273165,-1.27316 m 31.925644,-31.52652 -0.990355,0.99035 m -6.904887,6.90489 1.807557,-1.80756 m -4.800243,4.80024 -0.780239,0.78024 m -11.116178,11.11618 6.538883,-6.53888 m -15.542516,15.54251 -1.073022,1.07303 m 32.02145,-31.62233 0.877456,-0.87746 m -6.104989,6.10499 -1.574832,1.57483 m -3.881008,3.88101 1.057323,-1.05732 m -6.456111,6.45611 -5.845912,5.84591 m -9.76176,9.76176 0.910616,-0.91061 m 31.698589,-31.29947 -0.785784,0.78578 m -6.682627,6.68263 1.341057,-1.34106 m -3.98148,3.98148 -1.312509,1.31251 m -9.032307,9.03231 1.826199,-1.8262 m -3.33952,3.33952 -0.900512,0.90051 m -9.410106,9.41011 0.756783,-0.75679 m 31.562722,-31.1636 -0.792556,0.79256 m -3.122587,3.12259 0.694141,-0.69414 m -2.928716,2.92871 -1.107282,1.10729 m -4.024859,4.02486 1.574878,-1.57488 m -12.537598,12.53759 -0.684858,0.68486 m -9.058452,9.05845 0.625078,-0.62507 m 31.404728,-31.00561 -0.94945,0.94945 m -2.932516,2.93252 1.325553,-1.32556 m -3.61567,3.61567 -0.873507,0.87351 m -4.096785,4.09679 1.872097,-1.8721 m -5.207885,5.20788 -0.501529,0.50153 m -8.0117,8.0117 0.577593,-0.57759 m -8.770733,8.77073 -0.513658,0.51366 m 27.95447,-27.55535 3.785636,-3.78563 m -6.194448,6.19445 -0.639732,0.63973 m -4.138231,4.13823 2.282073,-2.28208 m -5.449067,5.44907 -0.898817,0.89882 m -8.00516,8.00516 0.521733,-0.52173 m -8.468886,8.46888 -0.417954,0.41796 m 27.804942,-27.40582 3.645463,-3.64547 m -6.216812,6.21682 -0.481127,0.48112 m -4.091449,4.09145 2.739725,-2.73972 m -5.689279,5.68928 -1.216149,1.21614 m -8.193808,8.19381 0.520123,-0.52012 m -8.136794,8.13679 -0.353219,0.35322 m 27.683778,-27.28465 3.482109,-3.48211 m -6.244359,6.24436 -4.367188,4.36718 m -4.265594,4.2656 1.402549,-1.40255 m -9.266492,9.26649 -0.518513,0.51851 m -7.574674,7.57468 0.301765,-0.30177 m 30.602291,-30.20316 -3.318479,3.31848 m -7.137914,7.13791 4.1618,-4.1618 m -6.876374,6.87637 -1.622444,1.62245 m -8.665526,8.66552 0.582858,-0.58285 m -7.407643,7.40764 -0.288718,0.28872 m 27.523524,-27.12441 3.114532,-3.11453 m -6.340657,6.34066 -3.903612,3.90361 m -4.430548,4.43055 1.813257,-1.81326 m -10.145345,10.14535 -0.536856,0.53685 m -6.762678,6.76268 0.293412,-0.29341 m 30.078643,-29.67952 -2.910585,2.91058 m -7.074087,7.07409 3.597951,-3.59795 m -6.153386,6.15339 -2.016116,2.01611 m -9.173841,9.17384 0.592333,-0.59233 m -6.552523,6.55252 -0.350185,0.35019 m 27.399417,-27.0003 2.706639,-2.70664 m -6.432787,6.43279 -3.279227,3.27923 m -4.693925,4.69392 2.296661,-2.29666 m -11.15928,11.15928 -0.667649,0.66765 m -5.815552,5.81555 0.392111,-0.39211 m 29.432096,-29.03297 -2.455461,2.45546 m -7.080948,7.08095 3.050726,-3.05073 m -5.197276,5.19728 -2.561361,2.56136 m -9.912464,9.91246 0.750568,-0.75057 m -5.606717,5.60672 -0.450726,0.45073 m 27.314168,-26.91505 2.224641,-2.22464 m -6.530489,6.53049 -2.893292,2.89329 m -4.661621,4.66162 2.797274,-2.79727 m -12.229376,12.22938 -1.051689,1.05168 m -4.551164,4.55117 0.586614,-0.58661 m 28.608894,-28.20978 -1.889049,1.88905 m -3.205727,3.20573 0.599626,-0.59963 m -2.873353,2.87336 -2.000835,2.00083 m -4.535214,4.53521 3.178236,-3.17823 m -12.9061,12.9061 -1.141119,1.14112 m -3.998464,3.99846 0.717444,-0.71744 m 28.129705,-27.73058 -1.614961,1.61496 m -3.419301,3.4193 0.905173,-0.90517 m -3.760727,3.76072 -5.801964,5.80197 m -12.25515,12.25515 2.286339,-2.28634 m -3.983624,3.98362 -0.690464,0.69046 m 27.069855,-26.67073 1.308083,-1.30808 m -3.71701,3.71701 -1.203686,1.20369 m -8.526421,8.52642 5.067878,-5.06788 m -15.292745,15.29274 -4.320088,4.32009 m 27.034125,-26.635 1.000602,-1.0006 m -3.204554,3.20455 -1.571421,1.57142 m -8.425875,8.42588 4.333793,-4.3338 m -14.763339,14.76334 -3.680181,3.68018 m 26.559957,-26.16083 0.794276,-0.79428 m -2.85784,2.85784 -1.773414,1.77342 m -8.328455,8.32845 3.989884,-3.98988 m -14.617786,14.61778 -3.036783,3.03679 m 26.014512,-25.61539 0.704759,-0.70476 m -2.205534,2.20553 -2.333221,2.33322 m -8.23127,8.23127 3.020792,-3.02079 m -13.81807,13.81807 -0.606139,0.60614 m -1.819264,1.81926 0.614074,-0.61407 m 25.301442,-24.90232 -4.232238,4.23224 m -8.232397,8.2324 2.428238,-2.42824 m -13.333692,13.33369 -0.519277,0.51928 m 19.894225,-19.49511 3.996935,-3.99693 m -10.402543,10.40254 -1.840666,1.84067 m -11.416158,11.41616 0.418178,-0.41818 m 23.295253,-22.89613 -3.813902,3.8139 m -8.302209,8.30221 1.427385,-1.42739 m -12.451163,12.45117 -0.391161,0.39116 m 19.954245,-19.55512 3.44332,-3.44333 m -10.796273,10.79628 -1.022948,1.02295 m -11.398415,11.39841 0.3797,-0.3797 m 22.789128,-22.39 -3.099327,3.09932 m -3.816205,3.81621 0.435261,-0.43526 m -4.403126,4.40312 -0.761131,0.76113 m -11.344373,11.34438 0.368238,-0.36824 m 22.516511,-22.11739 -2.663399,2.6634 m -4.14732,4.14732 0.817684,-0.81768 m -4.902652,4.90265 -0.554157,0.55415 m -11.251469,11.25147 0.377443,-0.37744 m 22.21346,-21.81434 -2.207484,2.20749 m -4.449521,4.44952 1.303213,-1.30322 m -5.494394,5.4944 -0.386997,0.387 m -11.160373,11.16037 0.38425,-0.38425 m 21.900897,-21.50177 -1.79905,1.79905 m -4.704243,4.70424 1.8393,-1.8393 m -6.033917,6.03391 -0.326801,0.3268 m -11.065089,11.06509 0.391057,-0.39105 m 21.485987,-21.08687 -1.346378,1.34638 m -4.900855,4.90086 2.335996,-2.336 m -6.570462,6.57046 -0.154474,0.15448 m -11.033103,11.0331 0.405489,-0.40549 m 21.079899,-20.68078 -1.031426,1.03143 m -4.988616,4.98861 3.053337,-3.05333 m -7.196581,7.19658 -0.113219,0.11322 m -10.984845,10.98484 0.414835,-0.41483 m 20.569358,-20.17024 -5.699581,5.69958 m -4.089666,4.08967 0.06448,-0.0645 m -10.611206,10.61121 -0.42418,0.42418 m 15.07235,-14.67323 5.418411,-5.41841 m -9.185673,9.18567 -0.111818,0.11182 m -10.96041,10.96041 0.438565,-0.43857 m 19.457183,-19.05806 -4.972739,4.97274 m -3.740235,3.74024 0.200485,-0.20049 m -10.681334,10.68134 -0.452804,0.4528 m 14.738378,-14.33925 4.542333,-4.54234 m -7.817225,7.81723 -0.273839,0.27384 m -10.940527,10.94052 0.467043,-0.46704 m 18.148334,-17.74921 -3.941443,3.94144 m -3.476481,3.47648 0.291557,-0.29155 m -10.753134,10.75313 -0.475437,0.47544 m 14.792848,-14.39373 3.144259,-3.14426 m -6.436912,6.43692 -0.306255,0.30625 m -10.91262,10.91262 0.482092,-0.48209 m 16.755863,-16.35674 -2.263077,2.26307 m -3.802083,3.80209 0.287697,-0.2877 m -10.690425,10.69042 -0.488747,0.48875 m 15.143332,-14.74421 1.395472,-1.39547 m -5.118014,5.11801 -0.267611,0.26762 m -10.836855,10.83685 0.452428,-0.45243 m 15.950964,-15.55184 -1.141494,1.1415 m -4.163341,4.16334 0.247526,-0.24753 m -10.57939,10.57939 -0.443648,0.44365 m 15.377174,-14.97805 0.865124,-0.86513 m -4.977643,4.97765 -0.22744,0.22744 m -3.86781,3.86781 0.07276,-0.0728 m -6.484245,6.48425 -0.434869,0.43486 m 15.367671,-14.96854 0.713532,-0.71354 m -4.900386,4.90039 -0.221583,0.22158 m -4.0726,4.0726 0.09019,-0.0902 m -6.239389,6.23939 -0.374335,0.37434 m 15.343935,-14.94481 0.53612,-0.53612 m -4.851416,4.85141 -0.206104,0.20611 m -4.260625,4.26062 0.126154,-0.12615 m -5.959891,5.95989 -0.372226,0.37222 m 15.22358,-14.82445 0.462478,-0.46248 m -4.802445,4.80244 -0.222118,0.22212 m -4.421674,4.42168 0.130639,-0.13064 m -5.644396,5.64439 -0.420222,0.42022 m 15.161266,-14.76214 0.380901,-0.3809 m -4.753476,4.75347 -0.256924,0.25693 m -4.563931,4.56393 0.139707,-0.13971 m -5.320394,5.3204 -0.326955,0.32695 m 14.90999,-14.51087 0.333935,-0.33393 m -4.72772,4.72772 -0.318563,0.31856 m -4.694309,4.69431 0.158956,-0.15895 m -4.825905,4.8259 -0.447401,0.4474 m 14.703163,-14.30404 0.313729,-0.31373 m -4.734791,4.73479 -0.377937,0.37794 m -4.750242,4.75024 0.126952,-0.12695 m -4.489481,4.48948 -0.357794,0.3578 m 14.45172,-14.0526 0.293524,-0.29353 m -4.772169,4.77217 -0.437646,0.43765 m -4.868392,4.86839 0.241236,-0.24124 m -4.060713,4.06072 -0.42169,0.42169 m 14.188151,-13.78903 0.28176,-0.28176 m -4.89851,4.89851 -0.444317,0.44432 m -5.449131,5.44913 0.746094,-0.7461 m -2.697683,2.69769 -1.252465,1.25246 m 13.861981,-13.46286 0.285377,-0.28537 m -5.004433,5.00443 -0.472214,0.47221 m -8.19778,8.19778 3.530075,-3.53007 m 10.295699,-9.89658 -0.300197,0.3002 m -5.30526,5.30526 0.434851,-0.43485 m -5.106857,5.10686 -2.991981,2.99198 m 13.085554,-12.68644 0.335237,-0.33523 m -5.348871,5.34887 -0.435699,0.4357 m -7.218473,7.21847 2.673999,-2.674 m 10.449019,-10.04989 -0.345244,0.34524 m -5.587066,5.58706 0.436547,-0.43654 m -4.833072,4.83307 -2.104329,2.10433 m 12.15856,-11.75944 0.386541,-0.38654 m -5.58636,5.58636 -0.50472,0.50472 m -5.084251,5.08425 0.974766,-0.97476 m 10.312501,-9.91338 -0.427838,0.42783 m -6.014758,6.01476 0.68237,-0.68237 m -4.138627,4.13863 -0.69115,0.69115 m 10.232805,-9.83368 0.428103,-0.42811 m -5.849586,5.84959 -4.292801,4.2928 m 9.783091,-9.38397 0.405377,-0.40537 m -2.351369,2.35136 -0.08736,0.0874 m -7.253623,7.25362 3.778232,-3.77823 m 5.960202,-5.56108 -0.45241,0.45241 m -2.035923,2.03592 0.223428,-0.22343 m -3.658212,3.65821 -3.099896,3.0999 m 8.569653,-8.17053 0.435602,-0.4356 m -2.124806,2.1248 -0.390369,0.39037 m -5.853111,5.85311 2.495274,-2.49527 m 5.849627,-5.4505 -0.423676,0.42367 m -2.08499,2.08499 0.537306,-0.5373 m -3.745048,3.74504 -1.938011,1.93802 m 7.179827,-6.78071 0.451206,-0.45121 m -1.795688,1.79569 -1.030621,1.03062 m -4.128901,4.1289 1.446226,-1.44622 m 5.398947,-4.99983 -0.464786,0.46479 m -2.58908,2.58908 1.543705,-1.54371 m -3.380194,3.3802 -1.278995,1.27899 m 0.675824,-0.2767 5.392222,-5.39222 m -0.271502,0.67062 -4.490962,4.49097 m 0.824631,-0.42551 3.606245,-3.60625 m -0.543206,0.94233 -1.971069,1.97107"
         inkscape:connector-curvature="0" />
    </g>
  </g>
</svg>
