<?xml version="1.0" encoding="UTF-8" standalone="no"?>
<!-- Created with Inkscape (http://www.inkscape.org/) -->

<svg
   xmlns:dc="http://purl.org/dc/elements/1.1/"
   xmlns:cc="http://creativecommons.org/ns#"
   xmlns:rdf="http://www.w3.org/1999/02/22-rdf-syntax-ns#"
   xmlns:svg="http://www.w3.org/2000/svg"
   xmlns="http://www.w3.org/2000/svg"
   xmlns:sodipodi="http://sodipodi.sourceforge.net/DTD/sodipodi-0.dtd"
   xmlns:inkscape="http://www.inkscape.org/namespaces/inkscape"
   width="50mm"
   height="50mm"
   viewBox="0 0 50 50"
   version="1.1"
   id="svg1586"
   inkscape:version="0.92.2 2405546, 2018-03-11"
   sodipodi:docname="50.svg">
  <sodipodi:namedview
     id="base"
     pagecolor="#ffffff"
     bordercolor="#666666"
     borderopacity="1.0"
     inkscape:pageopacity="0.0"
     inkscape:pageshadow="2"
     inkscape:zoom="2.335651"
     inkscape:cx="76.67908"
     inkscape:cy="63.84355"
     inkscape:document-units="mm"
     inkscape:current-layer="layer1"
     showgrid="false"
     inkscape:window-width="1366"
     inkscape:window-height="703"
     inkscape:window-x="0"
     inkscape:window-y="0"
     inkscape:window-maximized="1" />
  <defs
     id="defs1580" />
  <metadata
     id="metadata1583">
    <rdf:RDF>
      <cc:Work
         rdf:about="">
        <dc:format>image/svg+xml</dc:format>
        <dc:type
           rdf:resource="http://purl.org/dc/dcmitype/StillImage" />
        <dc:title></dc:title>
      </cc:Work>
    </rdf:RDF>
  </metadata>
  <g
     transform="translate(0,-247)"
     id="layer1"
     inkscape:groupmode="layer"
     inkscape:label="Layer 1">
    <g
       id="g900"
       transform="translate(-4.322703,-4.5131068e-5)">
      <path
         id="path884"
         d="m 19.643036,296.40921 c -0.383534,-0.2902 -0.977168,-0.53278 -1.319178,-0.53908 -1.825594,-0.0336 -0.650415,-3.83267 1.393289,-4.50426 1.669007,-0.54845 2.216121,-1.16431 2.865697,-3.2258 0.651414,-2.06732 0.511078,-3.23737 -0.54473,-4.54174 -0.682029,-0.8426 -0.696261,-0.84417 -1.452082,-0.1599 -0.698213,0.63212 -0.917202,0.65159 -2.568354,0.22825 -1.579652,-0.40501 -1.884667,-0.39072 -2.442663,0.11445 -1.385644,1.25447 -2.556893,0.43811 -2.556893,-1.78217 0,-2.65175 1.92725,-4.11524 3.975329,-3.01872 0.599834,0.32115 0.694877,0.25062 0.694877,-0.51568 0,-0.48823 0.155487,-1.29681 0.34552,-1.79684 0.229146,-0.60294 0.220901,-0.98618 -0.02451,-1.13791 -0.203506,-0.12581 -0.289731,-0.43805 -0.191611,-0.69384 0.13387,-0.349 -0.166343,-0.41882 -1.202811,-0.27975 -1.135665,0.15239 -1.465774,0.0498 -1.856928,-0.57672 -0.261646,-0.41913 -0.698179,-0.76206 -0.970075,-0.76206 -0.346825,0 -0.420157,-0.2413 -0.245742,-0.80862 0.13674,-0.44474 0.397534,-1.51913 0.579548,-2.38755 0.182007,-0.86841 0.487834,-1.76805 0.679591,-1.9992 0.232756,-0.28056 0.121003,-0.89067 -0.336156,-1.83523 -0.376648,-0.77822 -0.73048,-2.12296 -0.786289,-2.98832 l -0.101463,-1.57338 1.606404,-0.083 c 2.11633,-0.10941 4.331332,-0.73357 4.707048,-1.32638 0.165651,-0.26137 0.30367,-1.02995 0.306693,-1.70795 0.0047,-1.00352 0.321032,-1.52668 1.702466,-2.81362 1.121494,-1.0448 1.748759,-1.41893 1.84971,-1.10328 0.08401,0.26269 0.521666,0.92149 0.972565,1.46399 0.450893,0.5425 0.92271,1.31069 1.048468,1.70708 0.125765,0.39639 0.432072,0.72071 0.680698,0.72071 1.347636,0 2.485759,2.6517 1.682766,3.92065 -0.352366,0.55682 -0.129854,1.47013 0.358174,1.47013 0.169966,0 1.506713,-1.18269 2.970536,-2.62819 l 2.6615,-2.62818 -0.646965,-1.70503 c -0.867999,-2.28754 -1.131443,-2.55394 -3.749181,-3.79124 -2.82998,-1.33762 -3.777285,-2.48365 -3.777285,-4.56969 0,-1.79954 0.260047,-1.92358 1.427194,-0.68074 1.229596,1.30936 2.903212,1.74058 5.504925,1.41838 3.292135,-0.4077 5.279077,-0.0202 5.284544,1.03054 0.0014,0.24012 0.448204,0.69025 0.993226,1.00028 1.322621,0.75235 2.977096,3.82417 2.290439,4.25263 -0.373339,0.23297 -0.394177,0.47527 -0.08981,1.04421 0.494633,0.92458 0.520381,2.34475 0.03709,2.04595 -0.842745,-0.52105 -0.256379,0.95301 0.951453,2.39184 3.12061,3.71745 3.846763,7.89531 2.134677,12.28165 -1.631178,4.17907 -1.617717,5.14467 0.07444,5.34001 1.401063,0.16173 1.42256,1.3461 0.07159,3.94291 -1.131396,2.17475 -1.132388,2.18157 -0.566154,3.91338 0.892027,2.72829 0.768027,3.49223 -0.678946,4.18252 -1.092916,0.52137 -1.435306,0.53479 -2.784167,0.10914 -2.137754,-0.67461 -2.436302,-0.97703 -2.434771,-2.46634 0.0014,-1.201 0.2543,-1.72976 2.242062,-4.68459 0.726676,-1.08021 0.819981,-2.57511 0.199476,-3.19585 -0.237105,-0.2372 -1.101189,-0.43126 -1.920177,-0.43126 -2.221237,0 -2.846903,0.86994 -2.738475,3.80765 0.07967,2.15857 0.0072,2.41027 -0.976942,3.39481 -0.774927,0.77523 -1.405454,1.06339 -2.326774,1.06339 -0.695089,0 -1.363712,-0.16172 -1.485827,-0.35938 -0.122115,-0.19766 -0.535806,-0.35938 -0.919321,-0.35938 -1.01977,0 -2.134271,-1.28356 -2.134271,-2.45801 0,-0.73975 -0.247067,-1.13309 -0.898122,-1.42984 -0.788354,-0.35933 -0.898115,-0.32498 -0.898115,0.28116 0,0.37978 0.351374,1.28629 0.780828,2.01443 0.708982,1.20211 0.740683,1.47681 0.344495,2.98547 -0.239995,0.91386 -0.914685,2.33488 -1.499327,3.15785 -0.584643,0.82296 -1.062987,1.84108 -1.062987,2.2625 0,0.4214 -0.396808,1.16315 -0.881785,1.64832 -1.025632,1.02603 -3.224071,1.20524 -4.348442,0.35448 z"
         style="fill:none;stroke:#ff0000;stroke-width:0.1;stroke-miterlimit:4;stroke-dasharray:none"
         inkscape:connector-curvature="0" />
      <path
         id="path882"
         d="m 23.595535,295.41935 c 0.307579,-0.4393 0.559235,-1.02139 0.559235,-1.29352 0,-0.27213 0.552615,-1.40864 1.228038,-2.52558 1.593292,-2.6348 1.89784,-4.10835 1.100662,-5.32547 -0.920299,-1.40509 -1.258454,-2.92804 -0.87448,-3.93836 l 0.340253,-0.89526 0.809186,0.90107 c 0.996867,1.11005 2.294627,1.40637 2.140611,0.48877 -0.08399,-0.50046 0.154303,-0.62893 1.166521,-0.62893 0.952007,0 1.626351,-0.32019 2.680067,-1.27253 1.293911,-1.16942 2.368219,-3.09794 1.955674,-3.51065 -0.393265,-0.39342 -0.766869,-4.61822 -0.489906,-5.53988 0.371534,-1.23635 0.388923,-1.17694 0.496972,1.69781 0.153011,4.07097 1.981654,6.36073 4.669306,5.84675 1.346131,-0.25743 2.380195,0.75389 2.380195,2.32785 0,0.85953 -0.436774,1.85776 -1.436992,3.28422 -0.951814,1.35743 -1.436983,2.43844 -1.436983,3.20174 0,1.21621 0.573846,1.59309 0.797059,0.52347 0.101381,-0.48579 0.251215,-0.38356 0.658393,0.44923 0.577889,1.18196 1.671777,1.53222 2.836979,0.90839 0.894632,-0.47898 0.923735,-1.28042 0.134204,-3.69522 l -0.602825,-1.84373 1.141694,-2.06176 c 1.315534,-2.37569 1.430197,-3.19077 0.448853,-3.19077 -0.944814,0 -1.821891,-0.95085 -1.821891,-1.97514 0,-0.4651 0.484984,-2.05729 1.077739,-3.5382 1.984445,-4.95782 1.293837,-9.03016 -2.150981,-12.68372 -2.247523,-2.38373 -4.742699,-2.77445 -7.418483,-1.16166 -1.90079,1.14566 -2.044917,1.50687 -1.183863,2.9668 0.652586,1.10648 0.705939,1.46638 0.363209,2.44992 -0.22096,0.6341 -0.754076,1.52808 -1.184696,1.98663 -0.610956,0.65058 -0.760842,1.19337 -0.682309,2.47086 0.07118,1.15796 -0.08186,1.83885 -0.522865,2.32635 -0.705153,0.77948 -1.951433,0.90256 -2.597259,0.25647 -0.337289,-0.3374 -0.768628,-0.10912 -1.957898,1.03619 -1.899951,1.82973 -2.89592,2.37399 -3.407564,1.86215 -0.261459,-0.26156 -0.598767,-0.25644 -1.109159,0.0168 -0.403394,0.21597 -1.058225,0.39268 -1.455186,0.39268 -0.882091,0 -1.840225,1.2869 -1.840225,2.47166 0,0.82457 0.03736,0.84039 0.657834,0.27865 0.827234,-0.74892 1.16108,-0.43789 0.904975,0.84313 -0.124699,0.62374 0.03077,1.34285 0.418026,1.93419 0.776499,1.18554 1.252386,1.20181 1.252386,0.0428 0,-0.49415 0.171205,-0.89846 0.380451,-0.89846 0.209246,0 0.284996,0.15451 0.168328,0.34336 -0.116674,0.18885 0.197112,1.31604 0.697294,2.50487 1.071811,2.54751 1.096279,2.95935 0.318841,5.36747 -0.659293,2.04215 -1.439848,2.91013 -3.107051,3.45504 -1.180799,0.38593 -2.433818,2.09533 -1.901762,2.59444 0.169973,0.15945 0.381217,0.0878 0.469427,-0.15931 0.242012,-0.67791 0.818996,-0.53866 0.818996,0.19766 0,1.00447 0.738292,1.50942 2.206964,1.50942 0.982389,0 1.495457,-0.21524 1.904006,-0.79874 z"
         style="fill:none;stroke:#0000ff;stroke-width:0.1;stroke-miterlimit:4;stroke-dasharray:none"
         inkscape:connector-curvature="0" />
      <path
         id="path880"
         d="m 34.417565,286.63424 c 0.756154,-0.81622 0.87606,-1.26262 0.807262,-3.00534 -0.05594,-1.41711 0.103555,-2.32818 0.518463,-2.96167 0.481009,-0.73439 0.5087,-0.99013 0.140323,-1.29597 -0.345612,-0.28695 -0.798483,0.0253 -1.833952,1.26455 -0.756253,0.90508 -1.954467,1.8878 -2.662683,2.18382 -1.277002,0.53377 -2.561995,1.70548 -2.561995,2.33613 0,0.54016 0.720916,1.71832 1.051432,1.71832 0.169213,0 0.410753,-0.41093 0.536764,-0.91317 0.126371,-0.50368 0.396456,-0.80969 0.602304,-0.68241 0.205265,0.1269 0.278569,0.47746 0.162893,0.77902 -0.614145,1.60105 1.879001,2.04495 3.239189,0.57672 z"
         style="fill:none;stroke:#0000ff;stroke-width:0.1;stroke-miterlimit:4;stroke-dasharray:none"
         inkscape:connector-curvature="0" />
      <path
         id="path878"
         d="m 15.173599,283.10053 c 0.540314,-0.65128 1.521118,-0.68512 3.117672,-0.10758 0.93312,0.33755 1.288277,0.33601 1.631226,-0.007 0.591082,-0.59132 -0.474442,-2.38571 -1.448739,-2.43972 -0.383634,-0.0213 -1.076593,-0.30427 -1.539899,-0.62892 -1.07297,-0.75183 -1.900171,-0.74945 -2.524579,0.007 -0.383968,0.46533 -0.393811,0.63093 -0.04449,0.74855 0.343575,0.11568 0.32255,0.33102 -0.08981,0.91999 -1.061155,1.51562 -0.24459,2.88549 0.898602,1.50749 z"
         style="fill:none;stroke:#0000ff;stroke-width:0.1;stroke-miterlimit:4;stroke-dasharray:none"
         inkscape:connector-curvature="0" />
      <path
         id="path876"
         d="m 21.918164,274.29425 c 1.409805,-0.85989 1.518114,-0.87261 1.518114,-0.17835 0,0.897 0.497232,0.62389 2.310818,-1.26921 1.666836,-1.73992 1.764083,-1.78748 2.57209,-1.25785 1.295749,0.84934 1.489291,0.68007 1.223769,-1.07023 -0.289211,-1.90639 -0.382675,-2.02961 -1.592512,-2.09959 -0.99042,-0.0573 -1.183803,-0.54578 -0.490598,-1.23925 0.618867,-0.61911 1.021696,-0.53125 0.754768,0.16462 -0.196246,0.51161 -0.03596,0.5646 1.133575,0.37474 1.411276,-0.22911 2.710016,-1.12484 2.710016,-1.86909 0,-0.23522 -0.33216,-0.72839 -0.738131,-1.09593 l -0.73814,-0.66826 0.827948,-0.6373 c 0.460062,-0.35412 0.617762,-0.64084 0.354923,-0.64529 -0.260174,-0.005 -1.020384,0.40966 -1.689366,0.92012 -0.66899,0.51045 -1.506926,0.8687 -1.862077,0.7961 -0.55095,-0.11261 -0.630835,-0.45569 -0.544163,-2.33702 0.08951,-1.94303 0.0053,-2.27247 -0.708616,-2.77272 -1.732089,-1.21367 -5.160624,-0.45795 -6.80802,1.50063 -0.698526,0.83047 -1.130904,1.04664 -1.827159,0.91349 -0.501654,-0.0959 -1.021422,0.003 -1.155032,0.2188 -0.133617,0.21627 -0.637555,0.39323 -1.119856,0.39323 -0.482307,0 -0.876916,0.16172 -0.876916,0.35938 0,0.19767 0.218882,0.35938 0.486416,0.35938 0.539275,0 2.393093,1.59761 2.377962,2.04931 -0.0053,0.15768 -0.638987,0.97357 -1.408227,1.81308 -0.76924,0.8395 -1.504455,2.05243 -1.63383,2.69539 -0.129361,0.64295 -0.319926,1.46799 -0.423474,1.83341 -0.156107,0.55092 -0.05041,0.62063 0.618808,0.40814 0.750013,-0.23813 0.790685,-0.17423 0.575185,0.90366 -0.2214,1.10742 -0.187228,1.15236 0.755188,0.99319 0.542898,-0.0917 1.225734,-0.23129 1.517422,-0.3102 0.331921,-0.0898 0.576478,0.15903 0.653665,0.66512 0.159477,1.04563 1.59178,1.08494 3.22545,0.0885 z"
         style="fill:none;stroke:#0000ff;stroke-width:0.1;stroke-miterlimit:4;stroke-dasharray:none"
         inkscape:connector-curvature="0" />
      <path
         id="path874"
         d="m 21.280795,266.79583 c 0,-0.22369 0.148482,-0.40671 0.32995,-0.40671 0.181474,0 0.669722,-0.54998 1.08501,-1.22218 0.993132,-1.60755 1.465842,-1.73936 2.633741,-0.73439 l 0.97156,0.83603 -1.089965,0.77642 c -1.238301,0.88209 -3.930296,1.39636 -3.930296,0.75083 z"
         style="fill:none;stroke:#0000ff;stroke-width:0.1;stroke-miterlimit:4;stroke-dasharray:none"
         inkscape:connector-curvature="0" />
      <path
         id="path872"
         d="m 25.108542,264.78739 c -0.116994,-0.30502 -0.380831,-0.55458 -0.586287,-0.55458 -0.236452,0 -0.212603,0.25784 0.06493,0.70243 0.49568,0.79402 0.844684,0.69504 0.521354,-0.14785 z"
         style="fill:none;stroke:#0000ff;stroke-width:0.1;stroke-miterlimit:4;stroke-dasharray:none"
         inkscape:connector-curvature="0" />
      <path
         id="path870"
         d="m 21.811499,263.2445 c 0.311022,-0.6424 0.834727,-1.168 1.163797,-1.168 0.557477,0 0.557377,0.0306 -0.0013,0.44923 -0.329863,0.24708 -0.853574,0.77268 -1.16379,1.16801 -0.510798,0.65091 -0.510665,0.60851 0.0013,-0.44924 z"
         style="fill:none;stroke:#0000ff;stroke-width:0.1;stroke-miterlimit:4;stroke-dasharray:none"
         inkscape:connector-curvature="0" />
      <path
         id="path868"
         d="m 30.305016,268.80413 c -0.251882,-0.25198 -0.328557,0.0753 -0.242239,1.03401 0.168348,1.8697 0.284236,2.00712 0.462481,0.54836 0.08156,-0.66752 -0.01752,-1.3796 -0.220242,-1.58237 z"
         style="fill:none;stroke:#0000ff;stroke-width:0.1;stroke-miterlimit:4;stroke-dasharray:none"
         inkscape:connector-curvature="0" />
      <path
         id="path866"
         d="m 16.743194,266.08171 c 0.949323,-1.04939 0.561506,-1.59802 -2.01865,-2.85562 -0.536458,-0.26148 -0.25436,2.22464 0.325115,2.86519 0.74314,0.82148 0.942756,0.82036 1.693535,-0.01 z"
         style="fill:none;stroke:#0000ff;stroke-width:0.1;stroke-miterlimit:4;stroke-dasharray:none"
         inkscape:connector-curvature="0" />
      <path
         id="path864"
         d="m 22.38799,257.3373 c 0.583617,-1.63188 0.581479,-1.66862 -0.0735,-1.25942 -0.601072,0.37552 -1.752182,2.30347 -1.752182,2.93466 0,0.13288 0.275525,0.18851 0.612267,0.12363 0.355331,-0.0685 0.864537,-0.82335 1.21342,-1.79887 z"
         style="fill:none;stroke:#0000ff;stroke-width:0.1;stroke-miterlimit:4;stroke-dasharray:none"
         inkscape:connector-curvature="0" />
      <path
         id="path862"
         d="m 40.320877,258.3329 c 0,-0.28001 0.183027,-0.57015 0.406738,-0.64475 0.277569,-0.0926 0.205458,-0.525 -0.227114,-1.36181 -0.432564,-0.83681 -0.504678,-1.26925 -0.227108,-1.36181 1.037605,-0.346 -0.467669,-2.63546 -2.406347,-3.65995 -0.72504,-0.38315 -1.116179,-0.70378 -0.869198,-0.71252 0.246982,-0.009 0.449061,-0.15645 0.449061,-0.32825 0,-0.55445 -2.518046,-0.74105 -4.534186,-0.33599 -2.143521,0.43064 -4.422704,3.3e-4 -5.614539,-1.06003 -0.579941,-0.51596 -0.628684,-0.4906 -0.628684,0.32707 0,1.20595 1.136385,2.3334 3.354011,3.32764 2.20442,0.98832 3.180369,1.9755 4.17354,4.22161 l 0.736966,1.66666 h 2.178513 c 1.198183,0 2.275507,0.097 2.39406,0.21563 0.383815,0.38397 0.814287,0.22881 0.814287,-0.2935 z"
         style="fill:none;stroke:#0000ff;stroke-width:0.1;stroke-miterlimit:4;stroke-dasharray:none"
         inkscape:connector-curvature="0" />
      <path
         id="path826"
         d="m 24.792678,258.12817 c 0.349896,-0.004 0.326473,-0.2599 -0.09904,-1.08306 -0.682762,-1.32083 -1.165283,-1.36723 -1.625499,-0.1563 -0.53107,1.39737 -0.436007,1.70064 0.457952,1.46097 0.444566,-0.11919 1.01453,-0.21891 1.266585,-0.22161 z"
         style="fill:none;stroke:#0000ff;stroke-width:0.1;stroke-miterlimit:4;stroke-dasharray:none"
         inkscape:connector-curvature="0" />
      <path
         id="path846"
         style="fill:none;stroke:#0000ff;stroke-width:0.1"
         d="m 26.511951,247.44483 -0.228612,0.22861 m -0.02394,0.42306 0.4585,-0.4585 m 0.205948,0.19318 -0.691833,0.69183 m 0.02346,0.37567 0.874324,-0.87433 m 0.206402,0.19272 -0.173939,0.17394 m -0.880492,0.88049 0.106392,-0.10639 m 1.15461,-0.75549 -0.161343,0.16135 m -1.027854,1.02785 0.07118,-0.0712 m -12.35464,12.35464 -0.181607,0.18161 m 13.717932,-13.31881 0.152077,-0.15208 m -1.246144,1.24615 -0.07902,0.079 m -12.520665,12.52066 0.578296,-0.57829 m 13.502804,-13.10369 -0.158223,0.15823 m -1.283156,1.28315 0.05186,-0.0519 m -11.612027,11.61203 -1.055376,1.05538 m 14.144998,-13.74588 0.144805,-0.1448 m -1.480237,1.48023 -0.06687,0.0669 m -12.716175,12.71617 1.377304,-1.3773 m 13.152586,-12.75346 -0.14962,0.14962 m -1.502388,1.50238 0.0567,-0.0567 m -11.109863,11.10986 -1.764209,1.76421 m 14.602171,-14.20305 0.133824,-0.13382 m -1.680384,1.68038 -0.0753,0.0753 m -6.147699,6.1477 2.194561,-2.19456 m -6.815556,6.81555 -0.615597,0.6156 m -1.535516,1.53551 0.101285,-0.10128 m 14.860855,-14.46173 -0.114162,0.11416 m -1.730434,1.73043 0.0636,-0.0636 m -3.721022,3.72103 -2.98528,2.98528 m -4.356628,4.35662 0.463192,-0.46319 M 29.3466,249.39959 29.238695,249.5075 m -1.839013,1.83901 0.07916,-0.0792 m -3.791694,3.7917 -0.663529,0.66353 m -6.317468,6.31746 0.47002,-0.47001 m 12.486896,-12.08778 -0.118061,0.11806 m -1.92999,1.92999 0.08848,-0.0885 m -3.873722,3.87372 -0.893244,0.89325 m -5.596851,5.59685 0.346859,-0.34686 m 12.329077,-11.92996 -0.164298,0.1643 m -2.009752,2.00975 0.08659,-0.0866 m -3.933996,3.934 -1.05304,1.05304 m -4.934911,4.93491 0.174136,-0.17413 m 12.187825,-11.78871 -0.140249,0.14025 m -2.1598,2.1598 0.08469,-0.0847 m -3.988199,3.9882 -0.05607,0.0561 m -1.390398,1.39039 0.14274,-0.14274 m -2.302347,2.30235 -0.169285,0.16928 m -1.98806,1.98806 0.407148,-0.40714 m 11.912376,-11.51326 -0.125881,0.12588 m -2.2737,2.2737 0.05097,-0.051 m -7.383103,7.3831 -2.21551,2.21551 m 12.188264,-11.78914 0.108696,-0.1087 m -2.437037,2.43704 -0.05513,0.0551 m -9.242595,9.2426 3.142703,-3.1427 m 9.014475,-8.61536 -0.164195,0.1642 m -2.493236,2.49323 0.05928,-0.0593 m -6.277377,6.27738 -0.84306,0.84306 m 10.005783,-9.60666 0.135222,-0.13522 m -2.759259,2.75926 -0.06344,0.0634 m -6.475551,6.47555 0.225191,-0.22519 m -7.790272,7.79028 -0.128913,0.12891 m 17.301641,-16.90252 0.11302,-0.11302 m -2.920369,2.92037 -0.0676,0.0676 m -6.197976,6.19797 0.196419,-0.19642 m -8.094363,8.09437 -0.223872,0.22387 m 17.639358,-17.24024 0.08831,-0.0883 m -3.078969,3.07897 -0.07175,0.0717 m -4.524622,4.52463 0.07825,-0.0783 m -1.42115,1.42115 -0.07365,0.0736 m -8.507155,8.50716 0.333837,-0.33384 m 17.695167,-17.29604 -0.1085,0.1085 m -3.215018,3.21501 0.07591,-0.0759 m -4.645747,4.64574 -0.09771,0.0977 m -1.057111,1.05711 0.08374,-0.0837 m -6.55185,6.55185 -0.17646,0.17646 m -2.338018,2.33802 0.59275,-0.59275 m 14.451712,-14.05259 -0.07199,0.072 m -5.524655,5.52465 0.823278,-0.82328 m -7.63882,7.63882 -2.681054,2.68106 m 15.28636,-14.88724 0.06819,-0.0682 m -4.897312,4.89731 -0.593815,0.59381 m -10.222195,10.2222 1.623172,-1.62317 m 14.351461,-13.95234 -0.0644,0.0644 m -5.298259,5.29826 0.350248,-0.35025 m -10.380123,10.38013 -0.730769,0.73077 m 20.282844,-19.88372 0.04994,-0.0499 m -3.948172,3.94817 -0.0606,0.0606 m -5.225759,5.22576 0.164802,-0.16481 m -10.866601,10.86661 -0.55349,0.55349 m 16.746157,-16.34704 0.0568,-0.0568 m -16.634688,16.63469 -0.295765,0.29576 m 7.740177,-7.34105 0.742179,-0.74218 m -8.306467,8.30647 -0.303826,0.30382 m 12.424864,-12.02574 0.08687,-0.0869 m -12.327782,12.32778 -0.311887,0.31189 m 12.818105,-12.41898 0.09045,-0.0905 m -12.716549,12.71655 -0.319947,0.31995 m 13.211346,-12.81222 0.05949,-0.0595 m -12.927118,12.92712 -0.462227,0.46223 m -0.04248,0.4416 0.652144,-0.65214 m 0.35174,0.0474 -0.65902,0.65902 m 0.248081,0.15104 1.081877,-1.08187 m 22.378381,-21.97926 -0.520639,0.52064 m -14.374371,14.37437 0.884425,-0.88443 m -8.214607,8.21461 -1.024437,1.02444 m 22.975131,-22.57601 0.352824,-0.35283 m -13.668823,13.66883 -2.652831,2.65283 m -6.8179,6.8179 0.719541,-0.71954 m 22.529286,-22.13017 -0.215957,0.21596 m -9.88043,9.88043 0.123502,-0.1235 m -3.912138,3.91214 -2.232974,2.23297 m -6.942429,6.94243 0.450964,-0.45096 m 22.798552,-22.39943 -0.158907,0.1589 m -4.725136,4.72514 0.04999,-0.05 m -5.282293,5.28229 -0.109317,0.10932 m -5.592981,5.59298 1.869271,-1.86927 m -8.817575,8.81757 -0.305373,0.30538 m 23.159423,-22.7603 0.124125,-0.12413 m -4.909017,4.90902 -0.0678,0.0678 m -5.469553,5.46955 0.167119,-0.16712 m -3.746961,3.74696 -1.57127,1.57127 m -7.482818,7.48282 0.165234,-0.16523 m 23.142948,-22.74383 -0.105987,0.10599 m -4.980257,4.98026 0.08561,-0.0856 m -5.57389,5.57389 -0.147989,0.14798 m -4.52073,4.52074 1.164143,-1.16415 m -8.776549,8.77655 -0.199644,0.19965 m 23.190439,-22.79132 0.09274,-0.0927 m -5.092257,5.09226 -0.103417,0.10341 m -9.717517,9.71752 0.77797,-0.77797 m -8.594825,8.59483 -0.160709,0.1607 m 23.018132,-22.61901 0.100424,-0.10042 m -5.183794,5.1838 -0.12499,0.12499 m -9.024098,9.02409 0.881152,-0.88115 m -9.047923,9.04792 -0.165344,0.16535 m 22.784689,-22.38557 0.108011,-0.10801 m -5.286034,5.28603 -0.140666,0.14067 m -8.544002,8.544 0.505793,-0.50579 m -8.760768,8.76077 -0.300063,0.30006 m 22.633828,-22.23471 0.108427,-0.10842 m -5.380175,5.38017 -0.153253,0.15326 m -16.735087,16.73508 0.328002,-0.328 m 22.133525,-21.7344 -0.104479,0.10448 m -5.512174,5.51217 0.165839,-0.16584 m -16.148058,16.14806 -0.446261,0.44626 m 22.137613,-21.73849 0.100531,-0.10053 m -5.521452,5.52145 -0.178425,0.17843 m -6.086806,6.0868 0.10846,-0.10846 m -9.91141,9.91141 -0.386339,0.38634 m 22.065656,-21.66653 0.07455,-0.0745 m -5.563307,5.56331 -0.191012,0.19101 m -5.925867,5.92587 2.856783,-2.85678 m -12.843411,12.84341 -0.363379,0.36338 m 22.128253,-21.72913 0.06182,-0.0618 m -5.600818,5.60082 -5.553775,5.55377 m -11.058631,11.05864 0.488104,-0.48811 m 16.295602,-15.89648 -4.670124,4.67013 m -11.949149,11.94915 0.481038,-0.48104 m -4.561947,4.56194 -0.07852,0.0785 m 26.47152,-26.0724 0.05646,-0.0565 m -5.350164,5.35016 -1.053755,1.05376 m -2.996543,2.99654 0.900608,-0.90061 m -13.194734,13.19474 -0.474709,0.47471 m -4.759859,4.75985 1.23857,-1.23857 m 25.85047,-25.45134 -0.07526,0.0753 m -5.528297,5.5283 0.492635,-0.49264 m -3.508717,3.50872 -0.269858,0.26986 m -13.323364,13.32336 0.636792,-0.63679 m -3.733357,3.73336 -2.017933,2.01793 m 27.372496,-26.97337 0.09971,-0.0997 m -4.85665,4.85665 -0.184607,0.18461 m -3.75532,3.75532 0.17658,-0.17658 m -12.800248,12.80025 -1.215085,1.21508 m -2.589619,2.58962 0.134735,-0.13473 m -1.839533,1.83953 -0.583257,0.58326 m 27.51926,-27.12014 0.122156,-0.12216 m -4.58594,4.58594 -0.105959,0.10596 m -5.297343,5.29734 1.37122,-1.37122 m -4.343659,4.34366 -0.659324,0.65933 m -9.099115,9.09911 1.533228,-1.53323 m -3.663425,3.66343 -0.202567,0.20257 m -2.664841,2.66484 0.918777,-0.91878 m 26.92736,-26.52824 -0.792863,0.79287 m -9.115314,9.11531 1.29213,-1.29213 m -4.532833,4.53283 -0.501672,0.50167 m -9.391157,9.39116 2.154291,-2.15429 m -3.803607,3.80361 -0.159887,0.15988 m -2.966131,2.96614 1.05,-1.05 m 26.860053,-26.46094 -0.767025,0.76703 m -3.344626,3.34463 0.0984,-0.0984 m -4.559006,4.55901 -1.219458,1.21945 m -3.626236,3.62624 0.191384,-0.19138 m -7.248604,7.2486 -0.327341,0.32734 m -2.382097,2.3821 0.173948,-0.17395 m -1.485675,1.48568 -0.192616,0.19261 m -3.216559,3.21656 0.328,-0.328 m 27.674754,-27.27563 -0.75112,0.75112 m -8.941902,8.9419 1.162563,-1.16256 m -4.559394,4.55939 -0.09634,0.0963 m -7.159409,7.15941 0.783832,-0.78383 m -3.636446,3.63645 -0.145421,0.14542 m -1.186113,1.18611 0.218201,-0.2182 m -3.503571,3.50357 -0.109817,0.10982 m 27.28697,-26.88785 0.643555,-0.64356 m -8.397006,8.39701 -1.115648,1.11565 m -3.311536,3.31154 0.09982,-0.0998 m -5.992577,5.99258 -0.963146,0.96314 m -4.598805,4.59881 1.087927,-1.08793 m 22.807306,-22.40818 -0.146741,0.14674 m -2.551692,2.55169 0.117842,-0.11784 m -5.341333,5.34133 -1.021114,1.02112 m -3.150526,3.15052 0.312593,-0.31259 m -5.975986,5.97598 -0.953644,0.95365 m -4.924963,4.92496 0.901587,-0.90159 m 22.791385,-22.39226 -0.09099,0.091 m -2.348134,2.34813 0.176727,-0.17673 m -5.622043,5.62204 -0.966367,0.96637 m -3.043736,3.04374 0.44215,-0.44215 m -6.346888,6.34689 -0.589772,0.58977 m -5.043967,5.04396 0.93813,-0.93813 m 22.618853,-22.21973 -0.101798,0.1018 m -2.144574,2.14458 0.194774,-0.19478 m -6.014585,6.01459 -0.787581,0.78758 m -2.953621,2.95362 0.892973,-0.89297 m -6.945286,6.94528 -0.38784,0.38784 m -5.049496,5.0495 1.76605,-1.76605 m -5.591494,5.59149 -0.05868,0.0587 m 27.224606,-26.82548 0.06257,-0.0626 m -1.825608,1.82561 -0.257316,0.25731 m -9.715152,9.71515 3.419418,-3.41941 m -9.360399,9.36039 -0.375643,0.37565 m -4.976542,4.97654 1.615889,-1.61589 m -4.76824,4.76824 -0.761196,0.7612 m 26.325316,-25.9262 0.788472,-0.78847 m -1.717827,1.71783 -0.203437,0.20344 m -9.870484,9.87048 2.861928,-2.86193 m -5.814248,5.81425 -3.139168,3.13917 m -5.00303,5.00303 1.268901,-1.2689 m -4.030752,4.03075 -1.050389,1.05039 m 25.047902,-24.64878 1.715567,-1.71557 m -9.760088,9.76009 -1.141547,1.14155 m -0.862993,0.86299 0.136991,-0.13699 m -2.248887,2.24889 -3.397125,3.39712 m -5.362058,5.36206 0.905696,-0.9057 m -3.433619,3.43362 -1.022854,1.02286 m 24.722271,-24.32315 1.513495,-1.5135 m -10.423875,10.42388 -0.378188,0.37819 m -0.951306,0.9513 0.07878,-0.0788 m -1.934779,1.93478 -2.71262,2.71262 m -6.076775,6.07677 0.584436,-0.58443 m -3.036342,3.03634 -0.196313,0.19631 m 23.768298,-23.36917 0.626825,-0.62683 m -9.784388,9.78439 -0.268344,0.26834 m -0.98824,0.98824 0.100764,-0.10076 m -1.757152,1.75715 -0.390577,0.39058 m -8.414761,8.41476 0.391099,-0.3911 m -2.680191,2.68019 -0.243654,0.24365 m 23.643432,-23.2443 0.510614,-0.51062 m -9.914678,9.91468 -0.20228,0.20228 m -2.618936,2.61894 0.176611,-0.17662 m -8.598706,8.59871 -0.259755,0.25976 m -2.371681,2.37168 0.170383,-0.17039 m 23.757925,-23.3588 -0.414684,0.41469 m -9.839709,9.83971 0.206699,-0.2067 m -2.395282,2.39528 -0.184867,0.18487 m -8.745744,8.74574 0.172377,-0.17238 m -2.24817,2.24817 -0.158973,0.15897 m 23.409731,-23.0106 0.337504,-0.33751 m -10.131672,10.13167 -0.237825,0.23783 m -0.934198,0.9342 0.08497,-0.085 m -1.107942,1.10794 -0.198739,0.19874 m -8.804022,8.80402 0.118262,-0.11826 m -2.068549,2.06855 -0.143303,0.1433 m 23.29157,-22.89245 0.270333,-0.27033 m -10.314783,10.31478 -0.267462,0.26746 m -0.923779,0.92379 0.194747,-0.19475 m -0.855352,0.85535 -0.220003,0.22 m -8.907005,8.90701 0.08196,-0.082 m -1.898695,1.89869 -0.127317,0.12732 m 23.17341,-22.77429 0.23446,-0.23446 m -10.427208,10.42721 -1.724745,1.72474 m -9.181615,9.18162 0.120446,-0.12045 m -1.764088,1.76409 -0.106682,0.10668 m 23.055486,-22.65636 0.197742,-0.19774 m -10.747835,10.74783 -1.051293,1.0513 m -9.594972,9.59497 0.18669,-0.18669 m -1.634977,1.63497 -0.08685,0.0869 m 22.928464,-22.52934 0.17011,-0.17011 m -11.068626,11.06863 -0.452703,0.4527 m -9.959186,9.95919 0.278817,-0.27882 m -1.474246,1.47425 -0.09864,0.0986 m 22.786235,-22.38712 0.157686,-0.15768 m -21.15293,21.15293 -1.418958,1.41896 m 22.595962,-22.19684 0.145773,-0.14578 m -20.196437,20.19644 -0.105207,0.10521 m -2.069733,2.06973 1.30076,-1.30076 m 21.241352,-20.84223 -0.134747,0.13475 m -21.91195,21.91195 1.764846,-1.76485 m 20.452586,-20.05346 -0.123721,0.12372 m -20.855589,20.85559 0.63129,-0.63129 m 20.518754,-20.11963 -0.112696,0.11269 m -20.788872,20.78888 0.487679,-0.48768 m 20.584624,-20.18551 -0.101661,0.10167 m -20.781779,20.78177 0.40368,-0.40368 m 20.650494,-20.25137 -0.113875,0.11388 m -20.75615,20.75615 0.324396,-0.3244 m 20.710594,-20.31147 -0.124441,0.12444 m -20.739921,20.73992 0.258633,-0.25863 m 20.751007,-20.35188 -0.115321,0.11532 m -20.738282,20.73828 0.21274,-0.21274 m 20.786141,-20.38702 -0.1062,0.1062 m -20.736644,20.73664 0.168314,-0.16831 m 20.819808,-20.42068 -0.09708,0.0971 m -20.735005,20.735 0.123889,-0.12389 m 20.853474,-20.45435 -0.08284,0.0828 m -20.753712,20.75371 0.09469,-0.0947 m 20.887141,-20.48802 -0.106736,0.10674 m -20.76625,20.76625 0.09746,-0.0975 m 20.902403,-20.50328 -0.112228,0.11223 m -9.508533,9.50853 0.06898,-0.069 m -8.335079,8.33508 -0.285998,0.28599 m -2.73682,2.73682 0.11889,-0.11889 m 20.906233,-20.50711 -0.106289,0.10629 m -18.379333,18.37934 0.672157,-0.67216 m -3.039831,3.03983 -0.08336,0.0834 m 20.951748,-20.55262 0.10035,-0.10035 m -9.771843,9.77184 -0.09174,0.0917 m -8.671729,8.67172 0.795241,-0.79524 m -3.15994,3.15994 -0.16258,0.16258 m 21.083617,-20.68449 0.09441,-0.0944 m -17.643311,17.64331 -0.969411,0.96941 m -2.575796,2.57579 0.2418,-0.2418 m 21.062159,-20.66303 -0.10254,0.10254 m -9.865742,9.86574 0.05818,-0.0582 m -7.634919,7.63492 -1.153478,1.15348 m -2.585663,2.58566 0.175986,-0.17599 m 21.206415,-20.80729 -0.119552,0.11955 m -9.901464,9.90147 0.08553,-0.0855 m -7.494047,7.49405 -0.215478,0.21548 m -1.052575,1.05258 0.177152,-0.17716 m -2.726735,2.72674 -0.262543,0.26254 m 21.471385,-21.07226 0.118092,-0.11809 m -9.942392,9.94239 -0.112886,0.11289 m -7.386009,7.386 0.151664,-0.15166 m -1.25018,1.25018 -0.138394,0.13839 m -3.03859,3.03859 0.397552,-0.39755 m 21.399002,-20.99988 -0.116633,0.11663 m -9.979533,9.97954 0.146864,-0.14687 m -7.146056,7.14606 -0.165702,0.1657 m -1.39775,1.39775 0.122016,-0.12201 m -3.145549,3.14554 -0.241208,0.24121 m -4.69694,4.69694 0.857671,-0.85767 m 25.842587,-25.44346 -0.115173,0.11517 m -9.985829,9.98583 0.170299,-0.1703 m -6.970391,6.97039 -0.18861,0.18861 m -1.527628,1.52763 0.112087,-0.11209 m -3.417224,3.41723 -0.321013,0.32101 m -4.813498,4.8135 2.063898,-2.0639 m 25.072849,-24.67373 -0.131558,0.13156 m -9.96969,9.96969 0.203154,-0.20315 m -5.681739,5.68174 -0.172282,0.17228 m -1.21811,1.21811 0.277893,-0.2779 m -1.76239,1.7624 -0.101919,0.10191 m -6.55241,6.55241 2.839405,-2.8394 m 22.313393,-21.91427 -0.143382,0.14338 m -9.875259,9.87526 0.189175,-0.18917 m -5.283562,5.28356 -1.715488,1.71548 m -1.631415,1.63142 0.09175,-0.0917 m -4.210679,4.21068 -1.576438,1.57644 m -3.121859,3.12185 0.08588,-0.0859 m 27.227354,-26.82824 -0.147536,0.14754 m -9.791325,9.79132 0.185693,-0.18569 m -5.064574,5.06458 -1.932173,1.93217 m -1.605636,1.60563 0.08158,-0.0816 m -5.059702,5.0597 -0.336404,0.33641 m -3.608699,3.6087 0.182964,-0.18297 m 27.131886,-26.73276 -0.15169,0.15169 m -9.868773,9.86877 0.375246,-0.37524 m -4.794201,4.7942 -2.264095,2.26409 m -1.549148,1.54915 0.07352,-0.0735 m -8.746743,8.74675 -0.323274,0.32327 m 27.136991,-26.73787 0.148247,-0.14825 m -9.526828,9.52683 -0.880495,0.8805 m -6.296638,6.29663 2.861913,-2.86191 m -4.232067,4.23207 -0.07719,0.0772 m -8.962116,8.96212 1.111312,-1.11131 m 26.084992,-25.68587 -0.260461,0.26046 m -13.562108,13.56211 4.367326,-4.36733 m -7.163167,7.16317 -0.139764,0.13976 m -1.368038,1.36804 0.108605,-0.10861 m -7.964493,7.9645 -0.899607,0.8996 m 26.591912,-26.19279 0.188441,-0.18844 m -9.199423,9.19943 -3.765453,3.76545 m -3.594955,3.59495 0.13516,-0.13516 m -1.372472,1.37248 -0.126491,0.12649 m -8.531382,8.53138 0.64384,-0.64384 m 25.79215,-25.39303 -0.198748,0.19875 m -9.137971,9.13797 0.357778,-0.35778 m -2.231662,2.23166 -0.258178,0.25818 m -4.944027,4.94403 0.118229,-0.11823 m -1.394081,1.39408 -0.192854,0.19286 m -8.235998,8.23599 0.394544,-0.39454 m 25.703942,-25.30482 -0.200079,0.20008 m -8.866808,8.86681 0.308597,-0.3086 m -7.383818,7.38382 -0.09798,0.098 m -1.613105,1.6131 0.202908,-0.2029 m -7.923917,7.92391 -0.240792,0.24079 m 25.508346,-25.10922 0.219401,-0.2194 m -8.469419,8.46942 -0.293399,0.2934 m -7.23633,7.23633 0.08826,-0.0883 m -1.670216,1.67021 -0.199786,0.19979 m -7.690502,7.6905 0.171082,-0.17108 m 25.209146,-24.81002 -0.234807,0.2348 m -8.263897,8.2639 0.346385,-0.34638 m -7.496949,7.49694 -0.06599,0.066 m -2.184665,2.18466 0.271185,-0.27118 m -7.393758,7.39376 -0.101372,0.10137 m 24.701421,-24.3023 0.331289,-0.33129 m -7.803554,7.80355 -0.713811,0.71381 m -9.651174,9.65118 0.540107,-0.54011 m -7.039353,7.03935 -0.111553,0.11156 m 24.385864,-23.98674 0.410369,-0.41037 m -7.562845,7.56284 -1.127131,1.12713 m -5.364305,5.36431 0.226834,-0.22683 m -4.158776,4.15877 -0.339167,0.33917 m -6.218202,6.2182 0.141797,-0.1418 m 24.030675,-23.63155 -0.245009,0.24501 m -8.425362,8.42536 1.746803,-1.7468 m -6.600044,6.60004 -1.044737,1.04474 m -4.212687,4.21269 0.91646,-0.91646 m -5.882506,5.8825 -0.122561,0.12256 m 23.272053,-22.87293 0.40725,-0.40725 m -6.404496,6.4045 -0.33748,0.33748 m -1.886779,1.88678 0.347925,-0.34793 m -5.150497,5.1505 -0.621917,0.62192 m -4.650235,4.65023 0.485341,-0.48534 m -4.975132,4.97513 -0.185044,0.18505 m 22.907792,-22.50867 0.25016,-0.25016 m -5.855402,5.8554 -0.07027,0.0703 m -2.529091,2.52909 0.162811,-0.16281 m -4.797543,4.79754 -0.403668,0.40367 m -5.689504,5.6895 0.796738,-0.79673 m -4.223506,4.2235 -0.179667,0.17967 m 22.320209,-21.92109 0.248418,-0.24842 m -8.091085,8.09109 -0.180043,0.18004 m -4.665964,4.66597 0.190832,-0.19084 m -6.137518,6.13752 -0.237485,0.23749 m -3.052596,3.05259 0.159721,-0.15972 m 21.793663,-21.39454 -0.246676,0.24668 m -4.445849,4.44585 0.05792,-0.0579 m -3.267344,3.26734 -0.14832,0.14832 m -4.410593,4.41059 0.147741,-0.14774 m -6.601109,6.60111 -0.227842,0.22784 m -2.408444,2.40845 0.190362,-0.19036 m 21.139678,-20.74056 -0.257374,0.25737 m -3.842318,3.84232 0.111988,-0.11199 m -3.68338,3.68338 -0.158897,0.1589 m -4.175882,4.17588 0.135378,-0.13538 m -6.897207,6.89721 -2.060408,2.06041 m 20.45281,-20.05369 0.397749,-0.39775 m -3.561912,3.56191 -0.199862,0.19987 m -4.087317,4.08731 0.157349,-0.15735 m -3.904256,3.90426 -0.179602,0.1796 m -8.469902,8.46991 1.411961,-1.41197 m 18.532182,-18.13306 -0.36029,0.3603 m -2.739747,2.73974 0.201912,-0.20191 m -4.48709,4.48709 -0.159168,0.15917 m -3.632732,3.63273 0.195499,-0.1955 m 10.942777,-10.54365 -0.230606,0.2306 m -2.528765,2.52877 0.178935,-0.17894 m -4.760095,4.7601 -0.161947,0.16195 m -3.247334,3.24733 0.200755,-0.20076 m 10.524238,-10.12511 -0.137904,0.1379 m -2.313059,2.31306 0.147826,-0.14783 m -5.006731,5.00674 -0.32739,0.32739 m -2.728236,2.72823 0.42923,-0.42923 m 10.014389,-9.61526 -0.109572,0.10957 m -2.168146,2.16814 0.113446,-0.11344 m -5.189366,5.18936 -2.656445,2.65645 m 10.056508,-9.65739 0.07737,-0.0774 m -2.109482,2.10948 -0.12062,0.12062 m -7.505988,7.50599 2.13294,-2.13294 m 7.768001,-7.36888 -0.07195,0.072 m -2.179816,2.17981 0.119144,-0.11914 m -6.001517,6.00152 -1.194282,1.19428 m 9.484006,-9.08489 0.07443,-0.0744 m -2.22534,2.22534 -0.14578,0.14578 m 2.524229,-2.12511 0.09079,-0.0908 m -2.407035,2.40703 -0.17536,0.17536 m 2.815582,-2.41646 0.09795,-0.0979 m -2.704663,2.70466 -0.161401,0.1614 m 3.089759,-2.69064 0.107484,-0.10748 m -2.983397,2.9834 -0.272637,0.27263 m 3.507356,-3.10823 0.09292,-0.0929 m -3.455839,3.45584 -0.230459,0.23046 m 3.832958,-3.43383 0.09777,-0.0978 m -3.942898,3.9429 -0.443557,0.44356 m 4.435456,-4.03634 0.129642,-0.12964 m -4.565528,4.56553 -0.384754,0.38475 m 4.869064,-4.46994 0.15321,-0.15321 m -5.387188,5.38719 -0.426767,0.42677 m 5.622341,-5.22322 0.156449,-0.15645 m -5.945265,5.94526 -0.474299,0.4743 m 6.054229,-5.6551 0.435205,-0.43521 m -6.475972,6.47597 -0.409291,0.40929 m 6.137628,-5.7385 0.516702,-0.5167 m -6.443625,6.44362 -0.192548,0.19255 m 5.701398,-5.30227 0.358976,-0.35898 m -5.932589,5.93259 -0.194727,0.19472 m 5.30052,-4.90139 0.569842,-0.56984 m -5.676932,5.67693 -0.161769,0.16177 m 4.500466,-4.10135 0.836372,-0.83637 m -5.138888,5.13889 -0.166288,0.16629 m 4.567147,-4.16803 0.68879,-0.68879 m -5.045307,5.04531 -0.159405,0.15941 m 4.614265,-4.21515 0.212604,-0.2126 m -4.503701,4.5037 -0.193403,0.1934 m 4.582843,-4.18372 0.190159,-0.19016 m -4.424988,4.42499 -0.145699,0.1457 m 4.47887,-4.07975 0.11382,-0.11382 m -3.537912,3.53791 -0.810476,0.81048 m 4.332911,-3.93379 0.109936,-0.10993 m -3.480036,3.48003 -0.71851,0.71851 m 4.189017,-3.78989 0.101326,-0.10133 m -3.406294,3.40629 -0.604868,0.60487 m 3.998708,-3.59958 0.10425,-0.10425 m -3.33123,3.33123 -0.478058,0.47806 m 3.793911,-3.39479 0.104247,-0.10425 m -3.253241,3.25324 -0.351248,0.35125 m 3.589114,-3.18999 0.102059,-0.10206 m -3.137485,3.13748 -0.260018,0.26002 m 3.384317,-2.98519 0.09987,-0.0999 m -3.000998,3.001 -0.180631,0.18063 m 3.181204,-2.78208 0.08711,-0.0871 m -2.812851,2.81285 -0.142995,0.14299 m 2.911854,-2.51273 0.130675,-0.13068 m -2.600448,2.60045 -0.129615,0.12962 m 2.642506,-2.24339 0.174242,-0.17424 m -2.347559,2.34756 -0.113952,0.11395 m 2.362949,-1.96382 0.138879,-0.13888 m -1.993347,1.99334 -0.146138,0.14614 m 0.529874,-0.13075 1.664449,-1.66445 m -0.05681,0.45593 -0.875798,0.8758 m 0.588231,-0.18911 0.210725,-0.21072"
         inkscape:connector-curvature="0" />
    </g>
  </g>
</svg>
