<?xml version="1.0" encoding="UTF-8" standalone="no"?>
<!-- Created with Inkscape (http://www.inkscape.org/) -->

<svg
   xmlns:dc="http://purl.org/dc/elements/1.1/"
   xmlns:cc="http://creativecommons.org/ns#"
   xmlns:rdf="http://www.w3.org/1999/02/22-rdf-syntax-ns#"
   xmlns:svg="http://www.w3.org/2000/svg"
   xmlns="http://www.w3.org/2000/svg"
   xmlns:sodipodi="http://sodipodi.sourceforge.net/DTD/sodipodi-0.dtd"
   xmlns:inkscape="http://www.inkscape.org/namespaces/inkscape"
   width="75mm"
   height="75mm"
   viewBox="0 0 75 75"
   version="1.1"
   id="svg1586"
   inkscape:version="0.92.2 2405546, 2018-03-11"
   sodipodi:docname="75.svg">
  <sodipodi:namedview
     id="base"
     pagecolor="#ffffff"
     bordercolor="#666666"
     borderopacity="1.0"
     inkscape:pageopacity="0.0"
     inkscape:pageshadow="2"
     inkscape:zoom="3.3031093"
     inkscape:cx="121.03123"
     inkscape:cy="63.84355"
     inkscape:document-units="mm"
     inkscape:current-layer="layer1"
     showgrid="false"
     inkscape:window-width="1366"
     inkscape:window-height="703"
     inkscape:window-x="0"
     inkscape:window-y="0"
     inkscape:window-maximized="1" />
  <defs
     id="defs1580" />
  <metadata
     id="metadata1583">
    <rdf:RDF>
      <cc:Work
         rdf:about="">
        <dc:format>image/svg+xml</dc:format>
        <dc:type
           rdf:resource="http://purl.org/dc/dcmitype/StillImage" />
        <dc:title></dc:title>
      </cc:Work>
    </rdf:RDF>
  </metadata>
  <g
     inkscape:label="Layer 1"
     inkscape:groupmode="layer"
     id="layer1"
     transform="translate(0,-222)">
    <g
       id="g1147">
      <path
         id="path1112"
         d="m 30.698012,238.67845 c 0.52538,-0.006 0.49021,-0.39012 -0.14871,-1.62568 -1.02519,-1.98257 -1.74971,-2.05221 -2.44074,-0.2346 -0.79742,2.09744 -0.65468,2.55265 0.68763,2.19291 0.66753,-0.1789 1.52335,-0.32858 1.90182,-0.33263 z"
         style="fill:none;stroke:#0000ff;stroke-width:0.1;stroke-miterlimit:4;stroke-dasharray:none" />
      <path
         id="path1110"
         d="m 54.014122,238.98575 c 0,-0.42031 0.274821,-0.85581 0.61073,-0.96778 0.41678,-0.13893 0.308502,-0.78802 -0.341019,-2.04407 -0.649509,-1.25606 -0.75779,-1.90515 -0.34101,-2.04408 1.557999,-0.51935 -0.70222,-3.95583 -3.613211,-5.49359 -1.088671,-0.57511 -1.67598,-1.05638 -1.305129,-1.06949 0.370851,-0.0131 0.67428,-0.23483 0.67428,-0.4927 0,-0.83224 -3.78093,-1.11232 -6.808232,-0.50433 -3.218569,0.6464 -6.640839,5e-4 -8.430419,-1.5911 -0.8708,-0.77446 -0.94399,-0.7364 -0.94399,0.49093 0,1.81013 1.70632,3.50243 5.03616,4.99479 3.31001,1.48346 4.775431,2.96522 6.26671,6.33664 l 1.10658,2.50166 h 3.27111 c 1.799111,0 3.41675,0.14565 3.594761,0.32366 0.57631,0.57633 1.222679,0.34344 1.222679,-0.44054 z"
         style="fill:none;stroke:#0000ff;stroke-width:0.1;stroke-miterlimit:4;stroke-dasharray:none" />
      <path
         id="path1108"
         d="m 27.087292,237.49135 c 0.87632,-2.44946 0.87311,-2.5046 -0.11037,-1.89039 -0.90253,0.56365 -2.63096,3.45751 -2.63096,4.40493 0,0.19944 0.41371,0.28294 0.91934,0.18556 0.53354,-0.10276 1.29813,-1.23585 1.82199,-2.7001 z"
         style="fill:none;stroke:#0000ff;stroke-width:0.1;stroke-miterlimit:4;stroke-dasharray:none" />
      <path
         id="path1106"
         d="m 18.611442,250.61671 c 1.42544,-1.57514 0.84312,-2.39862 -3.03107,-4.28629 -0.80551,-0.39248 -0.38193,3.33919 0.48817,4.30066 1.11585,1.23304 1.41558,1.23135 2.5429,-0.0144 z"
         style="fill:none;stroke:#0000ff;stroke-width:0.1;stroke-miterlimit:4;stroke-dasharray:none" />
      <path
         id="path1104"
         d="m 38.974972,254.70307 c -0.37821,-0.37822 -0.49334,0.11306 -0.36373,1.55204 0.25278,2.80643 0.42679,3.01269 0.69443,0.8231 0.122461,-1.00196 -0.0263,-2.07078 -0.3307,-2.37514 z"
         style="fill:none;stroke:#0000ff;stroke-width:0.1;stroke-miterlimit:4;stroke-dasharray:none" />
      <path
         id="path1102"
         d="m 26.221672,246.35806 c 0.46701,-0.96424 1.25337,-1.75317 1.74748,-1.75317 0.83707,0 0.83692,0.046 -0.002,0.6743 -0.4953,0.37086 -1.28167,1.15979 -1.74747,1.75317 -0.76698,0.97703 -0.76678,0.91338 0.002,-0.6743 z"
         style="fill:none;stroke:#0000ff;stroke-width:0.1;stroke-miterlimit:4;stroke-dasharray:none" />
      <path
         id="path1100"
         d="m 31.172292,248.67394 c -0.17567,-0.45784 -0.57183,-0.83243 -0.88033,-0.83243 -0.35504,0 -0.31923,0.38702 0.0975,1.05435 0.74428,1.19182 1.26832,1.04326 0.78283,-0.22192 z"
         style="fill:none;stroke:#0000ff;stroke-width:0.1;stroke-miterlimit:4;stroke-dasharray:none" />
      <path
         id="path1098"
         d="m 25.424802,251.6886 c 0,-0.33575 0.22295,-0.61046 0.49543,-0.61046 0.27249,0 1.00561,-0.82553 1.62918,-1.8345 1.49122,-2.41293 2.20101,-2.61078 3.95465,-1.10232 l 1.45883,1.25488 -1.63662,1.16541 c -1.85935,1.32402 -5.90147,2.09594 -5.90147,1.12699 z"
         style="fill:none;stroke:#0000ff;stroke-width:0.1;stroke-miterlimit:4;stroke-dasharray:none" />
      <path
         id="path1096"
         d="m 26.381832,262.94374 c 2.11687,-1.29069 2.2795,-1.30979 2.2795,-0.2677 0,1.34639 0.74661,0.93646 3.46977,-1.90509 2.50281,-2.61162 2.64883,-2.68301 3.86208,-1.88803 1.94561,1.27485 2.23622,1.02079 1.83753,-1.60642 -0.43426,-2.86149 -0.5746,-3.04645 -2.39121,-3.15148 -1.48715,-0.086 -1.77752,-0.81922 -0.73665,-1.86012 0.92925,-0.92928 1.53411,-0.7974 1.13331,0.24709 -0.29467,0.76793 -0.054,0.84747 1.7021,0.56249 2.119079,-0.34389 4.06918,-1.68839 4.06918,-2.8055 0,-0.35307 -0.49875,-1.09332 -1.108329,-1.645 l -1.108341,-1.00305 1.243191,-0.95659 c 0.690798,-0.53154 0.92759,-0.96191 0.532929,-0.96858 -0.39066,-0.007 -1.532141,0.61489 -2.53664,1.38109 -1.00451,0.76619 -2.2627,1.30392 -2.79597,1.19495 -0.82727,-0.16903 -0.94722,-0.68399 -0.81708,-3.50786 0.13441,-2.91649 0.008,-3.41098 -1.06401,-4.16186 -2.60079,-1.82172 -7.74885,-0.68739 -10.22247,2.25245 -1.04886,1.24653 -1.69809,1.571 -2.74354,1.37114 -0.75325,-0.144 -1.5337,0.004 -1.73432,0.32842 -0.20063,0.32463 -0.95731,0.59024 -1.6815,0.59024 -0.7242,0 -1.31672,0.24275 -1.31672,0.53944 0,0.29669 0.32866,0.53943 0.73037,0.53943 0.80974,0 3.59331,2.398 3.57059,3.07601 -0.008,0.23668 -0.95946,1.46133 -2.1145,2.72143 -1.15504,1.2601 -2.25899,3.0807 -2.45325,4.04578 -0.19424,0.96508 -0.48038,2.20346 -0.63586,2.75195 -0.2344,0.82693 -0.0757,0.93157 0.92916,0.61263 1.12617,-0.35744 1.18724,-0.26152 0.86366,1.35638 -0.33244,1.66225 -0.28113,1.7297 1.13394,1.49078 0.81518,-0.13763 1.84048,-0.34716 2.27846,-0.46561 0.49839,-0.1348 0.8656,0.23871 0.9815,0.99835 0.23946,1.56949 2.39011,1.62849 4.84312,0.13284 z"
         style="fill:none;stroke:#0000ff;stroke-width:0.1;stroke-miterlimit:4;stroke-dasharray:none" />
      <path
         id="path1094"
         d="m 16.254642,276.16197 c 0.8113,-0.97757 2.28401,-1.02837 4.68129,-0.16148 1.40111,0.50667 1.93439,0.50435 2.44934,-0.0106 0.88753,-0.88757 -0.71239,-3.58094 -2.17533,-3.66201 -0.57604,-0.0319 -1.61654,-0.45672 -2.31221,-0.94402 -1.6111,-1.12849 -2.85317,-1.12492 -3.79074,0.0109 -0.57654,0.69847 -0.59132,0.94703 -0.0668,1.12358 0.51589,0.17364 0.48432,0.49686 -0.13486,1.3809 -1.59336,2.27495 -0.36726,4.33112 1.34928,2.26275 z"
         style="fill:none;stroke:#0000ff;stroke-width:0.1;stroke-miterlimit:4;stroke-dasharray:none" />
      <path
         id="path1092"
         d="m 45.150102,281.46607 c 1.13539,-1.22514 1.315432,-1.89519 1.21213,-4.51101 -0.084,-2.12708 0.155491,-3.4946 0.778489,-4.44547 0.722252,-1.10232 0.763831,-1.48619 0.210701,-1.94526 -0.518948,-0.4307 -1.198949,0.038 -2.753741,1.8981 -1.135539,1.35852 -2.934697,2.83358 -3.998108,3.27791 -1.917461,0.80119 -3.846921,2.55992 -3.846921,3.50654 0,0.81077 1.08248,2.57919 1.57876,2.57919 0.25408,0 0.61676,-0.6168 0.80597,-1.37066 0.18975,-0.75603 0.595291,-1.21535 0.90438,-1.02431 0.308211,0.19049 0.41828,0.71668 0.244589,1.16931 -0.922159,2.40319 2.821382,3.06947 4.863751,0.86566 z"
         style="fill:none;stroke:#0000ff;stroke-width:0.1;stroke-miterlimit:4;stroke-dasharray:none" />
      <path
         id="path1090"
         d="m 28.900462,294.65253 c 0.46184,-0.65939 0.83971,-1.53311 0.83971,-1.94158 0,-0.40847 0.82977,-2.11437 1.84394,-3.79089 2.39238,-3.95484 2.84967,-6.16664 1.65268,-7.99353 -1.38186,-2.10905 -1.88961,-4.39499 -1.31306,-5.91149 l 0.5109,-1.34378 1.21502,1.3525 c 1.49683,1.66619 3.44546,2.11096 3.2142,0.73364 -0.12611,-0.75118 0.23169,-0.94402 1.75157,-0.94402 1.42947,0 2.44202,-0.4806 4.02421,-1.91007 1.942851,-1.75529 3.55596,-4.65 2.93651,-5.26948 -0.5905,-0.59052 -1.15148,-6.93196 -0.735611,-8.31537 0.557872,-1.85576 0.583981,-1.76659 0.746221,2.54842 0.229751,6.11052 2.97552,9.54745 7.011119,8.77597 2.021261,-0.3864 3.573942,1.13159 3.573942,3.4941 0,1.29016 -0.655831,2.78851 -2.157691,4.92962 -1.429181,2.0375 -2.157679,3.6601 -2.157679,4.80582 0,1.82553 0.86165,2.39122 1.196811,0.78572 0.152228,-0.72917 0.377208,-0.57572 0.988599,0.6743 0.86772,1.77412 2.51023,2.29986 4.259819,1.36349 1.343321,-0.71895 1.387019,-1.92191 0.201512,-5.54653 l -0.905161,-2.76744 1.714291,-3.09469 c 1.975318,-3.56592 2.147488,-4.78936 0.673968,-4.78936 -1.41867,0 -2.735631,-1.42722 -2.735631,-2.96468 0,-0.69811 0.728221,-3.08799 1.618261,-5.31084 2.979711,-7.44169 1.94274,-13.55427 -3.229769,-19.03828 -3.374731,-3.57797 -7.121321,-4.16444 -11.139101,-1.74365 -2.8541,1.71964 -3.070511,2.26181 -1.777609,4.45318 0.979879,1.66082 1.05999,2.20103 0.54537,3.67732 -0.331779,0.95179 -1.132271,2.29366 -1.77886,2.98194 -0.917371,0.97652 -1.142431,1.79125 -1.024511,3.70876 0.106881,1.7381 -0.12291,2.76012 -0.785099,3.49186 -1.058811,1.17 -2.930141,1.35473 -3.899871,0.38496 -0.50645,-0.50645 -1.15412,-0.1638 -2.93985,1.55531 -2.85284,2.74643 -4.34832,3.56337 -5.11657,2.79509 -0.39259,-0.39259 -0.89907,-0.38491 -1.66544,0.0252 -0.60571,0.32418 -1.58896,0.58942 -2.18501,0.58942 -1.32449,0 -2.76316,1.93163 -2.76316,3.70997 0,1.23768 0.0561,1.26142 0.98776,0.41824 1.24212,-1.12413 1.7434,-0.65727 1.35885,1.26554 -0.18724,0.93624 0.0462,2.01563 0.62768,2.90322 1.16594,1.7795 1.8805,1.80393 1.8805,0.0643 0,-0.74172 0.25707,-1.34859 0.57126,-1.34859 0.31419,0 0.42793,0.23192 0.25275,0.51538 -0.17519,0.28346 0.29597,1.97537 1.04701,3.75981 1.60936,3.82381 1.6461,4.44198 0.47875,8.05657 -0.98995,3.06528 -2.16198,4.36812 -4.66534,5.18603 -1.77301,0.57928 -3.65446,3.14509 -2.85556,3.89425 0.25522,0.23934 0.57241,0.13173 0.70486,-0.23912 0.36339,-1.01755 1.22975,-0.80854 1.22975,0.29668 0,1.50771 1.10857,2.26564 3.31383,2.26564 1.47509,0 2.24548,-0.32307 2.85893,-1.19891 z"
         style="fill:none;stroke:#0000ff;stroke-width:0.1;stroke-miterlimit:4;stroke-dasharray:none" />
      <path
         id="path826"
         d="m 22.965652,296.13831 c -0.57589,-0.43559 -1.46725,-0.79971 -1.98079,-0.80916 -2.74119,-0.0504 -0.97662,-5.75284 2.09207,-6.76089 2.50607,-0.82323 3.32758,-1.74764 4.30294,-4.84193 0.97812,-3.10305 0.7674,-4.8593 -0.81793,-6.81716 -1.02409,-1.26474 -1.04546,-1.2671 -2.18035,-0.24001 -1.04839,0.94882 -1.37721,0.97803 -3.85647,0.3426 -2.3719,-0.60792 -2.82989,-0.58647 -3.66774,0.17179 -2.08059,1.88296 -3.83926,0.6576 -3.83926,-2.67503 0,-3.98029 2.89383,-6.17698 5.96909,-4.5311 0.90067,0.48204 1.04338,0.37617 1.04338,-0.77404 0,-0.73284 0.23347,-1.94652 0.51881,-2.69706 0.34407,-0.90502 0.33169,-1.48026 -0.0368,-1.708 -0.30557,-0.18885 -0.43504,-0.65751 -0.28771,-1.04146 0.20101,-0.52384 -0.24977,-0.62865 -1.80606,-0.4199 -1.70524,0.22873 -2.20091,0.0748 -2.78824,-0.86566 -0.39287,-0.62912 -1.04834,-1.14385 -1.4566,-1.14385 -0.52077,0 -0.63088,-0.3622 -0.36899,-1.21374 0.20532,-0.66755 0.59691,-2.28022 0.87021,-3.58371 0.27329,-1.30349 0.7325,-2.65385 1.02043,-3.00081 0.34949,-0.42112 0.18169,-1.33689 -0.50475,-2.75468 -0.56555,-1.16811 -1.09684,-3.18657 -1.18064,-4.48547 l -0.15235,-2.36164 2.41207,-0.12465 c 3.17774,-0.16422 6.50364,-1.10108 7.06779,-1.99089 0.24873,-0.39232 0.45597,-1.54596 0.46051,-2.56364 0.007,-1.50628 0.48204,-2.29155 2.55631,-4.22325 1.68396,-1.56824 2.62582,-2.12981 2.7774,-1.65602 0.12614,0.3943 0.7833,1.38316 1.46034,2.19746 0.67703,0.81429 1.38548,1.96734 1.57431,2.56232 0.18884,0.59499 0.64877,1.08179 1.02209,1.08179 2.02352,0 3.73245,3.9802 2.52673,5.88489 -0.52909,0.83579 -0.19498,2.20667 0.53781,2.20667 0.25521,0 2.26238,-1.77521 4.460359,-3.94491 l 3.996331,-3.94491 -0.971439,-2.55924 c -1.30333,-3.43361 -1.6989,-3.83347 -5.629521,-5.69066 -4.24931,-2.00776 -5.67172,-3.72796 -5.67172,-6.85911 0,-2.70111 0.39047,-2.88729 2.14298,-1.02179 1.84628,1.96535 4.35927,2.61261 8.265829,2.12899 4.94325,-0.61195 7.92671,-0.0303 7.93492,1.54685 0.0021,0.36042 0.672992,1.03606 1.491361,1.50141 1.98596,1.12928 4.47021,5.74008 3.439171,6.38321 -0.560581,0.34968 -0.59187,0.71337 -0.13485,1.56735 0.742709,1.3878 0.78137,3.51947 0.0557,3.07097 -1.26541,-0.78209 -0.384961,1.43047 1.428639,3.59016 4.685699,5.57989 5.776042,11.85086 3.205289,18.43476 -2.449269,6.2728 -2.429057,7.72216 0.111771,8.01536 2.103742,0.24276 2.136021,2.0205 0.10749,5.91832 -1.698829,3.26429 -1.700319,3.27453 -0.850099,5.87398 1.339408,4.09517 1.153218,5.24184 -1.019461,6.27796 -1.641049,0.78258 -2.15516,0.80272 -4.180519,0.16382 -3.20991,-1.01258 -3.65819,-1.46652 -3.655891,-3.70197 0.0021,-1.80271 0.381841,-2.59637 3.366532,-7.03157 1.091128,-1.6214 1.231228,-3.86524 0.299519,-4.79698 -0.356021,-0.35603 -1.653472,-0.64732 -2.88321,-0.64732 -3.335261,0 -4.274719,1.30578 -4.111911,5.71528 0.119621,3.24002 0.0108,3.61782 -1.466911,5.09562 -1.163579,1.16362 -2.110337,1.59615 -3.49373,1.59615 -1.043699,0 -2.047658,-0.24274 -2.231019,-0.53943 -0.183359,-0.29669 -0.80453,-0.53944 -1.38039,-0.53944 -1.53122,0 -3.20468,-1.92662 -3.20468,-3.68947 0,-1.11036 -0.37098,-1.70076 -1.34856,-2.14619 -1.18374,-0.53936 -1.34855,-0.48779 -1.34855,0.42202 0,0.57006 0.5276,1.93072 1.17244,3.02367 1.06456,1.80436 1.11216,2.21669 0.51727,4.48119 -0.36036,1.3717 -1.37343,3.50466 -2.25129,4.73993 -0.87786,1.23527 -1.59611,2.76347 -1.59611,3.39601 0,0.63253 -0.59582,1.7459 -1.32403,2.47413 -1.54002,1.54008 -4.84105,1.80907 -6.52933,0.53208 z"
         style="fill:none;stroke:#ff0000;stroke-width:0.1;stroke-miterlimit:4;stroke-dasharray:none" />
      <path
         id="path1074"
         style="fill:none;stroke:#0000ff;stroke-width:0.1"
         d="m 32.98789,222.31566 -0.237689,0.23769 m 0.04898,0.35014 0.448085,-0.44808 m 0.225042,0.17407 -0.697076,0.69708 m -0.02395,0.42307 0.927008,-0.92701 m 0.205984,0.19314 -1.171479,1.17148 m 0.02347,0.37566 1.353998,-1.354 m 0.205983,0.19314 -1.536517,1.53652 m 1.255304,-0.85618 0.487543,-0.48755 m -1.166912,1.16692 -0.560338,0.56033 m 1.477698,-1.07857 0.456158,-0.45616 m -1.475211,1.47521 -0.38682,0.38682 m -18.680476,18.68048 0.143216,-0.14322 m 20.605896,-20.20677 -0.443563,0.44356 m -1.553247,1.55325 0.354737,-0.35474 m -18.542951,18.54295 -0.539901,0.5399 m 20.503179,-20.10405 0.427633,-0.42764 m -1.805647,1.80565 -0.328605,0.3286 m -18.772372,18.77238 0.936586,-0.93659 M 35.356979,224.33692 34.9232,224.7707 m -1.816693,1.81669 0.310211,-0.31021 m -17.84421,17.84421 -1.333271,1.33327 m 20.913122,-20.514 0.439924,-0.43992 m -2.069647,2.06965 -0.297044,0.29704 m -18.962168,18.96217 1.813559,-1.81356 m 19.750603,-19.35148 -0.446069,0.44607 m -2.042425,2.04242 0.310785,-0.31078 m -17.227948,17.22795 -2.137608,2.1376 m 21.362856,-20.96373 0.429799,-0.4298 m -2.275526,2.27553 -0.300616,0.30061 m -19.170796,19.1708 2.539283,-2.53928 m 19.474298,-19.07518 -0.434613,0.43461 m -2.24643,2.24643 0.290446,-0.29044 m -16.636309,16.63631 -2.940959,2.94096 m 21.795081,-21.39596 0.439427,-0.43943 m -2.482627,2.48263 -0.303318,0.30331 m -9.268463,9.26847 2.802207,-2.80221 m -9.593957,9.59396 -3.346975,3.34697 m 22.042835,-21.64371 0.417888,-0.41789 m -2.564143,2.56415 -0.308182,0.30818 m -9.533239,9.53324 4.201478,-4.20148 m -10.46227,10.46227 -1.010146,1.01014 m -1.297115,1.29712 0.153273,-0.15327 m -1.185407,1.1854 -0.382162,0.38217 m 22.26186,-21.86274 0.426137,-0.42614 m -2.678153,2.67815 -0.296484,0.29649 m -10.019012,10.01901 4.740094,-4.74009 m -10.268589,10.26858 -1.024147,1.02415 m -1.468094,1.4681 0.08382,-0.0838 m -1.357711,1.35771 -0.326909,0.32691 m 22.480885,-22.08177 0.434387,-0.43438 m -2.777556,2.77755 -0.299394,0.2994 m -6.548728,6.54873 1.210079,-1.21008 m -3.991296,3.99129 -0.935223,0.93523 m -6.067191,6.06719 1.097399,-1.0974 m -2.663055,2.66305 -0.08019,0.0802 m -1.787308,1.78731 0.277795,-0.27779 m 22.854145,-22.45503 -0.413275,0.41328 m -2.755382,2.75538 0.314798,-0.3148 m -5.708556,5.70856 -1.173253,1.17325 m -3.945738,3.94574 0.251446,-0.25145 m -4.66111,4.66111 -1.070841,1.07084 m -1.923406,1.92341 0.133887,-0.13389 m -1.838685,1.83869 -0.264748,0.26475 m 22.962567,-22.56345 0.427215,-0.42721 m -2.975603,2.9756 -0.306533,0.30653 m -7.023711,7.02371 1.551176,-1.55117 m -5.22377,5.22377 -0.07806,0.0781 m -4.882555,4.88256 1.02339,-1.02339 m -3.056357,3.05635 -0.188894,0.1889 m -2.135784,2.13578 0.240135,-0.24013 m 23.391489,-22.99237 -0.441155,0.44115 m -2.949313,2.94932 0.295022,-0.29503 m -5.837374,5.83738 -1.697441,1.69744 m -7.71093,7.71093 0.574231,-0.57423 m -3.257428,3.25743 -0.212137,0.21213 m -2.302021,2.30203 0.215521,-0.21553 m 23.690964,-23.29184 -0.488116,0.48812 m -3.043703,3.0437 0.303552,-0.30355 m -5.902003,5.902 -0.562082,0.56209 m -1.517747,1.51774 0.513319,-0.51332 m -3.921506,3.92151 -0.289768,0.28977 m -3.307161,3.30716 0.69673,-0.69673 m -3.615435,3.61543 -0.211228,0.21123 m -2.46826,2.46826 0.190908,-0.19091 m 23.939621,-23.5405 -0.442599,0.4426 m -3.179752,3.17976 0.312081,-0.31209 m -5.966632,5.96664 -0.301985,0.30198 m -2.148463,2.14846 0.487688,-0.48768 m -3.449259,3.44925 -0.535348,0.53535 m -2.953543,2.95355 0.970078,-0.97008 m -4.008009,4.00801 -0.187211,0.18721 m -2.625121,2.62512 0.156918,-0.15692 m 24.241476,-23.84235 -0.461956,0.46195 m -3.290764,3.29077 0.307248,-0.30725 m -6.031259,6.03126 -0.231827,0.23183 m -2.866454,2.86645 0.577477,-0.57748 m -2.700792,2.70079 -3.476444,3.47645 m -3.339186,3.33918 0.155704,-0.1557 m -2.76535,2.76535 -0.159377,0.15938 m 24.171985,-23.77287 0.481314,-0.48131 m -3.575008,3.57501 -0.299423,0.29942 m -5.995931,5.99593 0.193801,-0.1938 m -2.761098,2.7611 -5.731898,5.7319 m -3.476478,3.47648 0.145271,-0.14528 m -2.882117,2.88212 -0.155002,0.155 m 24.447411,-24.04828 0.467991,-0.468 m -3.699204,3.69921 -0.304137,0.30414 m -6.074631,6.07463 0.194381,-0.19439 m -2.981438,2.98144 -5.111476,5.11148 m -3.815186,3.81519 0.141217,-0.14122 m -2.96712,2.96712 -0.182833,0.18283 m 24.716159,-24.31703 0.489657,-0.48966 m -3.851271,3.85127 -0.308852,0.30885 m -6.168227,6.16823 0.205503,-0.2055 m -3.077867,3.07786 -4.307901,4.3079 m -4.456603,4.45661 0.137163,-0.13717 m -3.039613,3.03962 -0.217972,0.21797 m 24.979705,-24.58058 0.511323,-0.51133 m -4.003336,4.00334 -0.313567,0.31357 m -6.261825,6.26182 0.216432,-0.21643 m -3.077962,3.07796 -1.466223,1.46622 m -7.249739,7.24974 0.133054,-0.13305 m -3.068912,3.06891 -0.278775,0.27877 m 25.288903,-24.88978 0.487059,-0.48705 m -4.15186,4.15186 -0.308501,0.3085 m -6.368466,6.36846 0.22736,-0.22736 m -2.994058,2.99406 -0.771133,0.77113 m -8.000214,8.00022 0.139423,-0.13942 m -3.067839,3.06783 -0.360497,0.3605 m 25.590647,-25.19152 0.504384,-0.50439 m -4.322371,4.32237 -0.312468,0.31247 m -6.475757,6.47576 0.235823,-0.23582 m -2.703774,2.70377 -0.775721,0.77572 m -8.256626,8.25663 0.145024,-0.14503 m -3.066766,3.06677 -0.45427,0.45427 m 25.904443,-25.50532 0.521709,-0.52171 m -4.492881,4.49288 -0.316434,0.31643 m -6.612278,6.61228 0.273513,-0.27351 m -2.417168,2.41717 -0.498858,0.49886 m -8.84871,8.8487 0.208525,-0.20852 m -3.065693,3.06569 -0.567511,0.56751 m 26.304246,-25.90512 0.471677,-0.47168 m -4.662574,4.66258 -0.3204,0.3204 m -6.748798,6.74879 0.311203,-0.3112 m -2.072132,2.07213 -0.440502,0.44051 m -9.264798,9.26479 0.256108,-0.2561 m -3.0263,3.0263 -0.698553,0.69855 m 26.664881,-26.26576 0.444756,-0.44475 m -4.836792,4.83679 -0.324305,0.3243 m -6.882006,6.88201 0.307033,-0.30703 m -1.676035,1.67603 -0.518262,0.51826 m -9.777684,9.77769 0.503748,-0.50375 m -2.927321,2.92732 -0.959457,0.95946 m 27.105195,-26.70608 0.428777,-0.42877 m -5.010611,5.01061 -0.32849,0.32849 m -7.057433,7.05743 0.351295,-0.35129 m -1.356425,1.35642 -0.506389,0.50639 m -13.828574,13.82857 4.257754,-4.25775 M 44.102038,225.57 l -0.415057,0.41505 m -5.101795,5.1018 0.332421,-0.33242 m -7.169976,7.16998 -1.531333,1.53133 m -14.432712,14.43271 4.503139,-4.50314 m 24.263061,-23.86394 -0.406194,0.4062 m -5.293265,5.29326 0.336352,-0.33635 m -7.305325,7.30533 -1.276053,1.27605 m -15.106018,15.10602 4.157578,-4.15758 m 25.309168,-24.91005 -0.365827,0.36583 m -5.484735,5.48473 0.340283,-0.34028 m -7.44906,7.44906 -1.011603,1.0116 m -15.644542,15.64455 1.955228,-1.95523 m 28.076499,-27.67738 -0.325459,0.32546 m -5.676205,5.67621 0.335472,-0.33548 m -7.586498,7.5865 -0.744707,0.74471 m -16.183067,16.18307 1.376575,-1.37658 m 29.220132,-28.82101 -0.379976,0.37998 m -5.77279,5.77279 0.323321,-0.32332 m -7.661423,7.66142 -0.533003,0.533 m -16.859372,16.85937 1.045873,-1.04587 m 30.250565,-29.85144 -0.338875,0.33887 m -5.961946,5.96195 0.31117,-0.31117 m -7.722037,7.72204 -0.421227,0.42122 m -17.168293,17.1683 0.825648,-0.82565 m 30.862444,-30.46332 -0.327869,0.32787 m -6.094695,6.09469 0.299019,-0.29902 m -7.767688,7.76769 -0.302584,0.30258 m -17.622272,17.62228 0.824924,-0.82493 m 31.378049,-30.97892 -0.316862,0.31686 m -6.227445,6.22744 0.274026,-0.27402 m -7.70893,7.70893 -0.275508,0.2755 m -5.815235,5.81524 0.502876,-0.50288 m -11.930903,11.93091 -0.832989,0.83299 m 32.411998,-32.01288 0.317333,-0.31733 m -6.43562,6.43562 -0.250521,0.25052 m -7.642707,7.64271 0.321422,-0.32143 m -5.399059,5.39906 -1.427995,1.428 m -12.022849,12.02285 0.841055,-0.84106 m 32.369478,-31.97035 -0.272646,0.27264 m -6.523868,6.52387 0.240712,-0.24071 m -7.510508,7.51051 -0.347351,0.34735 m -18.924869,18.92487 0.849121,-0.84913 m 32.842613,-32.44349 -0.270269,0.27027 m -6.636618,6.63662 0.23144,-0.23144 m -7.483948,7.48395 -0.326724,0.32672 m -19.333612,19.33362 0.857186,-0.85719 m 33.344262,-32.94514 -0.294608,0.29461 m -6.751166,6.75116 0.198908,-0.1989 m -7.459793,7.45979 -0.315264,0.31526 m -19.753042,19.75304 0.985924,-0.98592 m 33.692099,-33.29298 -0.250651,0.25066 m -6.881103,6.8811 0.192129,-0.19213 m -7.435639,7.43564 -0.299501,0.2995 m -20.145837,20.14584 1.03552,-1.03552 m 34.097759,-33.69864 -0.244227,0.24423 m -6.985006,6.985 0.187229,-0.18723 m -7.461588,7.46159 -0.267971,0.26797 m -20.365064,20.36507 1.169719,-1.16972 m 34.290317,-33.8912 -0.245009,0.24501 m -7.092435,7.09244 0.172279,-0.17228 m -7.48067,7.48067 -0.236129,0.23613 m -20.316408,20.31641 1.202836,-1.20284 m 34.256524,-33.8574 -0.239648,0.23965 m -7.171863,7.17186 0.171994,-0.172 m -7.486141,7.48615 -0.204288,0.20428 m -20.21227,20.21227 1.286824,-1.28682 m 34.11638,-33.71726 -0.232653,0.23265 m -7.258807,7.25881 0.17759,-0.17759 m -7.529897,7.5299 -0.173976,0.17397 m -20.117573,20.11758 1.556558,-1.55656 m 33.802495,-33.40337 -0.294888,0.29489 m -7.238881,7.23888 0.182799,-0.1828 m -7.57682,7.57682 -0.164228,0.16422 m -20.022317,20.02232 1.916817,-1.91681 m 33.387492,-32.98837 -0.990108,0.9901 m -6.580108,6.58011 0.196437,-0.19643 m -7.604271,7.60427 -0.196339,0.19633 m -7.389426,7.38943 1.562599,-1.5626 m -12.325195,12.3252 -1.765994,1.76599 m 34.348471,-33.94935 0.847362,-0.84736 m -7.313099,7.3131 -0.211943,0.21194 m -7.687818,7.68782 0.240395,-0.24039 m -5.683709,5.6837 -4.109359,4.10936 m -10.224649,10.22465 1.47815,-1.47815 m 33.593938,-33.19481 -0.683095,0.68309 m -6.774162,6.77416 0.22636,-0.22636 m -7.724373,7.72438 -0.300574,0.30057 m -9.382809,9.38281 4.206286,-4.20629 m -13.242905,13.24291 -1.21749,1.21749 m 34.455841,-34.05672 0.55127,-0.55127 m -7.181138,7.18114 -0.264854,0.26485 m -7.938115,7.93812 0.413589,-0.41359 m -5.898985,5.89898 -3.571417,3.57142 m -10.394313,10.39431 0.965458,-0.96545 m 34.046392,-33.64727 -0.481714,0.48171 m -7.022411,7.02241 0.287473,-0.28747 m -7.868128,7.86813 -0.40053,0.40053 m -8.709962,8.70996 3.26029,-3.26029 m -13.191689,13.19169 -0.710437,0.71043 m 34.601515,-34.20239 0.415673,-0.41567 m -7.252263,7.25226 -0.313458,0.31346 m -8.109154,8.10915 0.458353,-0.45835 m -5.757476,5.75748 -3.044499,3.04449 m -10.822998,10.823 0.541024,-0.54102 m 34.511724,-34.1126 -0.38087,0.38087 m -7.277619,7.27762 0.339443,-0.33945 m -8.060391,8.0604 -0.516175,0.51617 m -7.788531,7.78853 2.638838,-2.63884 m -13.345958,13.34596 -0.452885,0.45289 m 34.709333,-34.31021 0.348826,-0.34883 m -7.388588,7.38859 -0.365428,0.36543 m -8.365092,8.36509 0.48018,-0.48018 m -5.441174,5.44117 -2.474884,2.47489 m -11.250251,11.25025 0.413831,-0.41383 m 34.62024,-34.22112 -0.331605,0.3316 m -7.532761,7.53276 0.372114,-0.37211 m -8.412245,8.41224 -0.452882,0.45289 m -3.854292,3.85429 0.0754,-0.0754 m -0.997634,0.99764 -1.957809,1.95781 m -11.61563,11.61563 0.424786,-0.42479 m 34.523307,-34.12418 -0.326295,0.32629 m -7.660332,7.66033 0.382388,-0.38239 m -8.843207,8.84321 -0.161078,0.16108 m -3.762975,3.76297 0.209039,-0.20903 m -1.036677,1.03667 -1.537242,1.53724 m -11.854911,11.85492 0.523489,-0.52349 m 34.306981,-33.90786 -0.347742,0.34774 m -7.761727,7.76173 0.394807,-0.39481 m -12.472419,12.47242 -0.338701,0.3387 m -1.870211,1.87021 1.169242,-1.16924 m -12.628643,12.62864 -0.54777,0.54777 m 34.275574,-33.87645 0.355329,-0.35533 m -7.813643,7.81364 -0.413749,0.41375 m -13.623857,13.62386 1.650989,-1.65099 m -13.38124,13.38124 -0.612166,0.61217 m 34.058489,-33.65937 0.362915,-0.36291 m -7.918425,7.91842 -0.42689,0.42689 m -12.827495,12.8275 0.95937,-0.95937 m -13.094166,13.09416 -0.701692,0.70169 m 33.866534,-33.46741 0.370502,-0.3705 m -8.02376,8.02376 -0.439478,0.43948 m -25.302562,25.30256 0.732089,-0.73209 m 33.230256,-32.83113 -0.361411,0.36141 m -8.188556,8.18856 0.452066,-0.45207 m -9.481038,9.48104 -0.122596,0.12259 m -15.817636,15.81764 0.882058,-0.88206 m 32.83016,-32.43104 -0.357463,0.35747 m -8.275736,8.27573 0.464654,-0.46465 m -9.470326,9.47032 -0.214839,0.21484 m -15.496483,15.49649 0.922569,-0.92257 m 32.62067,-32.22155 -0.353515,0.35351 m -8.362914,8.36292 0.477242,-0.47724 m -9.364801,9.3648 -0.320541,0.32054 m -15.301131,15.30113 0.838401,-0.8384 m 32.577808,-32.17869 -0.347068,0.34707 m -8.450095,8.4501 0.48983,-0.48983 m -9.194449,9.19445 -0.364804,0.3648 m -15.304327,15.30433 0.748017,-0.74802 m 32.592629,-32.19351 -0.328035,0.32804 m -8.529045,8.52904 0.502418,-0.50241 m -7.783289,7.78328 -1.622946,1.62295 m -15.539821,15.53982 0.780399,-0.7804 m 32.690053,-32.29093 -0.325129,0.32513 m -17.115754,17.11575 9.03889,-9.03889 m -24.191937,24.19194 -0.896975,0.89698 m 33.338416,-32.9393 0.322222,-0.32222 m -8.449323,8.44932 -8.482382,8.48239 m -16.668395,16.66839 0.937807,-0.93781 m 32.832027,-32.4329 -0.319316,0.31932 m -15.996906,15.9969 7.89658,-7.89658 m -24.246,24.246 -0.93188,0.93188 m -6.238079,6.23808 0.322444,-0.32244 m 39.662815,-39.2637 -0.310282,0.31029 m -9.549203,9.5492 1.689307,-1.68931 m -4.571571,4.57157 -2.882291,2.88229 m -17.932221,17.93223 0.929599,-0.9296 m -6.094511,6.09451 -1.858532,1.85853 m 40.41054,-40.01142 0.31909,-0.31909 m -7.92098,7.92098 -1.302893,1.30289 m -5.104707,5.10471 1.488862,-1.48886 m -19.703456,19.70346 -1.019914,1.01991 m -7.341493,7.34149 2.535481,-2.53548 m 38.519024,-38.1199 -0.327897,0.3279 m -8.298696,8.29869 0.954811,-0.95481 m -5.261279,5.26128 -0.889131,0.88913 m -19.811423,19.81142 1.208888,-1.20888 m -5.573809,5.57381 -3.281331,3.28133 m 41.085272,-40.68615 0.34452,-0.34452 m -7.422584,7.42258 -0.762202,0.7622 m -5.330998,5.331 0.557968,-0.55797 m -19.31298,19.31298 -1.533801,1.5338 m -4.595368,4.59537 0.615577,-0.61557 m -2.637132,2.63713 -1.049088,1.04909 m 41.212409,-40.81329 0.386979,-0.38698 m -7.152242,7.15224 -0.56504,0.56504 m -5.664126,5.66413 0.410702,-0.4107 m -6.849994,6.84999 -0.759473,0.75947 m -13.5591,13.5591 2.093227,-2.09322 m -5.503048,5.50304 -0.520808,0.52081 m -3.570303,3.5703 1.25646,-1.25646 m 40.512188,-40.11306 -0.406213,0.40621 m -7.068911,7.06891 0.593562,-0.59356 m -6.081706,6.08171 -2.24947,2.24947 m -5.548415,5.54841 1.310136,-1.31013 m -12.339527,12.33952 -2.60227,2.60227 m -3.420324,3.42033 0.492626,-0.49263 m -2.928165,2.92817 -1.590961,1.59096 m 40.72627,-40.32715 1.241811,-1.24181 m -6.610883,6.61088 -0.408671,0.40867 m -8.112114,8.11212 2.181447,-2.18145 m -6.751896,6.7519 -1.082817,1.08281 m -13.884227,13.88423 3.156962,-3.15696 m -5.649024,5.64902 -0.477526,0.47753 m -4.303464,4.30346 1.785868,-1.78587 m 40.293503,-39.89438 -1.412133,1.41214 m -5.279716,5.27971 0.348453,-0.34845 m -6.602492,6.60249 -2.113425,2.11343 m -5.619695,5.61969 0.717474,-0.71747 m -10.996128,10.99613 -0.919457,0.91945 m -3.063728,3.06373 0.946652,-0.94665 m -3.016453,3.01645 -0.45907,0.45907 m -4.583784,4.58379 1.618458,-1.61846 m 40.511736,-40.11262 -1.396297,1.3963 m -4.99373,4.99373 0.353886,-0.35388 m -6.846932,6.84693 -2.043419,2.04342 m -5.476763,5.47676 0.479501,-0.4795 m -10.711499,10.7115 -0.81401,0.81401 m -3.619413,3.61941 0.747466,-0.74747 m -2.478398,2.4784 -0.499521,0.49952 m -4.826297,4.8263 0.786449,-0.78645 m 41.436251,-41.03713 -1.399048,1.39905 m -4.67574,4.67574 0.325319,-0.32532 m -7.091804,7.09181 -1.979006,1.979 m -5.348511,5.34851 0.365533,-0.36553 m -10.292695,10.29269 -0.959689,0.95969 m -4.161447,4.16145 0.566761,-0.56676 m -1.962329,1.96233 -0.527269,0.52727 m -5.004936,5.00493 0.562917,-0.56291 m 41.639041,-41.23992 -1.329447,1.32944 m -4.424187,4.42419 0.331013,-0.33101 m -7.336676,7.33667 -1.932089,1.93209 m -5.18552,5.18552 0.397851,-0.39785 m -9.824698,9.8247 -1.334399,1.3344 m -4.680829,4.68083 0.520241,-0.52024 m -1.595692,1.59569 -0.546111,0.54611 m -5.183576,5.18358 0.452572,-0.45257 m 41.699655,-41.30054 -1.230854,1.23086 m -4.172636,4.17263 0.336707,-0.3367 m -7.581548,7.58154 -1.885171,1.88517 m -5.01658,5.01658 0.429606,-0.4296 m -9.02823,9.02823 -1.838721,1.83872 m -5.380797,5.3808 0.55369,-0.55369 m -1.317004,1.317 -0.580635,0.58064 m -5.371147,5.37114 0.32751,-0.32751 m 41.695228,-41.2961 -1.043573,1.04357 m -3.965684,3.96568 0.387002,-0.387 m -7.862223,7.86223 -1.802451,1.80245 m -4.847638,4.84763 0.535485,-0.53548 m -8.77416,8.77416 -2.020048,2.02005 m -6.999567,6.99956 1.651667,-1.65166 m -6.876352,6.87635 -0.272273,0.27227 m 40.972944,-40.57382 0.355062,-0.35506 m -3.622588,3.62259 -0.508122,0.50812 m -9.403774,9.40377 1.706729,-1.70673 m -5.763615,5.76362 -0.67334,0.67334 m -9.998566,9.99856 1.588455,-1.58845 m -7.387111,7.38711 -1.509139,1.50914 m -5.624012,5.62401 0.235931,-0.23593 m 41.054351,-40.65523 -0.32356,0.32356 m -3.585612,3.58561 0.508863,-0.50886 m -8.427731,8.42773 -1.65715,1.65715 m -4.595097,4.5951 1.076263,-1.07626 m -9.729396,9.72939 -1.165479,1.16548 m -7.507394,7.50739 1.399071,-1.39907 m -6.863685,6.86369 -0.261295,0.2613 m 40.936481,-40.53736 0.319712,-0.31972 m -3.170385,3.17039 -0.546041,0.54604 m -9.749395,9.74939 1.475737,-1.47573 m -4.783102,4.7831 -1.226606,1.22661 m -9.658478,9.65847 0.831967,-0.83196 m -5.718691,5.71869 -2.725313,2.72531 m -5.78897,5.78897 0.266283,-0.26628 m 40.909856,-40.51074 -0.344045,0.34405 m -3.172505,3.1725 0.569833,-0.56983 m -9.168273,9.16827 -1.350485,1.35049 m -4.469242,4.46924 1.608548,-1.60855 m -10.479088,10.47909 -0.748318,0.74832 m -7.573617,7.57362 2.87119,-2.87119 m -8.339746,8.33974 -0.354441,0.35444 m 40.724398,-40.32527 0.334818,-0.33482 m -2.765679,2.76568 -0.598395,0.59839 m -10.632112,10.63212 1.542354,-1.54236 m -2.811175,2.81118 -2.641698,2.64169 m -9.516548,9.51655 0.736621,-0.73662 m -5.494445,5.49445 -2.754447,2.75444 m -5.843224,5.84323 1.359825,-1.35983 m 39.527949,-39.12882 -1.266863,1.26686 m -1.935547,1.93555 0.56881,-0.56881 m -9.894976,9.89497 -5.372664,5.37267 m -9.327026,9.32702 0.889561,-0.88956 m -5.92567,5.92567 -2.483486,2.48349 m -5.770113,5.77011 1.822417,-1.82242 m 38.804584,-38.40546 -1.370515,1.37052 m -1.670231,1.67023 0.573129,-0.57313 m -10.522993,10.52299 -4.916494,4.9165 m -8.967214,8.96721 5.572657,-5.57266 m -11.167127,11.16713 -2.04197,2.04197 m -5.707877,5.70788 2.010331,-2.01033 m 38.274556,-37.87544 -2.836308,2.83631 m -13.778728,13.77873 3.129292,-3.12929 m -3.997197,3.99719 -0.429856,0.42986 m -8.312712,8.31271 5.358339,-5.35834 m -11.715571,11.71557 -1.672563,1.67257 m -5.298867,5.29886 1.744328,-1.74432 m 37.859141,-37.46002 -2.614916,2.61491 m -13.891753,13.89176 1.973503,-1.97351 m -2.978754,2.97876 -0.389615,0.38961 m -6.912069,6.91207 4.228877,-4.22888 m -12.085797,12.0858 -1.317885,1.31789 m -4.775299,4.7753 1.266824,-1.26683 m 37.546183,-37.14706 -2.431091,2.43109 m -13.986321,13.98632 0.812597,-0.81259 m -1.935049,1.93504 -0.350411,0.35042 m -4.986465,4.98646 2.502894,-2.50289 m -12.383823,12.38382 -1.023951,1.02395 m -3.952482,3.95248 0.550176,-0.55017 m 37.177495,-36.77838 -0.213421,0.21342 m -1.976391,1.9764 1.175214,-1.17522 m -14.615963,14.61596 -0.706898,0.7069 m -1.485826,1.48583 0.345895,-0.3459 m -2.629844,2.62985 -0.781816,0.78181 m -12.641898,12.6419 0.838463,-0.83846 m -4.122753,4.12275 -0.557521,0.55752 m 35.417795,-35.01867 1.033081,-1.03308 m -14.778693,14.77869 -0.569029,0.56903 m -1.485144,1.48514 0.291495,-0.29149 m -2.386633,2.38663 -0.471018,0.47102 m -12.983287,12.98329 0.653927,-0.65393 m -3.82456,3.82456 -0.533302,0.5333 m 35.28801,-34.88888 0.937759,-0.93776 m -14.900767,14.90076 -0.560767,0.56077 m -1.474397,1.4744 0.294439,-0.29444 m -2.170814,2.17081 -0.450447,0.45045 M 22.74945,272.86555 23.2965,272.3185 m -3.609631,3.60963 -0.477241,0.47724 m 35.158227,-34.7591 0.841826,-0.84183 m -15.033813,15.03382 -0.548075,0.54807 m -1.456498,1.4565 0.297384,-0.29738 m -1.954996,1.95499 -0.478648,0.47865 m -13.085068,13.08507 0.442219,-0.44222 m -3.396746,3.39675 -0.472116,0.47211 m 35.071045,-34.67192 0.754228,-0.75423 m -15.166859,15.16686 -0.657077,0.65708 m -1.316906,1.3169 0.300328,-0.30032 m -1.739177,1.73917 -0.508348,0.50835 m -13.137661,13.13766 0.387656,-0.38766 m -3.206543,3.20655 -0.456449,0.45645 m 34.952898,-34.55378 0.687053,-0.68705 m -15.300511,15.30051 -0.622105,0.6221 m -1.371962,1.37197 0.392003,-0.39201 m -1.56869,1.56869 -0.493117,0.49312 m -13.234417,13.23442 0.353306,-0.35331 m -3.029439,3.02944 -0.440782,0.44078 m 34.834751,-34.43563 0.619878,-0.61987 m -15.434221,15.43422 -0.701206,0.7012 m -1.236608,1.23661 0.409596,-0.40959 m -1.310107,1.3101 -0.552816,0.55282 m -13.353349,13.35335 0.332711,-0.33271 m -2.860413,2.86041 -0.423979,0.42398 m 34.716605,-34.31748 0.5768,-0.5768 m -15.592029,15.59202 -3.048455,3.04846 m -13.570958,13.57096 0.360114,-0.36012 m -2.71473,2.71473 -0.403271,0.40327 m 34.598619,-34.19949 0.540081,-0.54008 m -15.817749,15.81775 -2.598389,2.59838 m -13.822976,13.82298 0.393497,-0.3935 m -2.586443,2.58645 -0.382627,0.38262 m 34.480696,-34.08157 0.503362,-0.50336 m -16.044837,16.04483 -2.198264,2.19827 m -14.083523,14.08352 0.486719,-0.48672 m -2.449726,2.44973 -0.370414,0.37041 M 55.8309,242.977 l 0.466643,-0.46664 m -16.428865,16.42887 -1.458627,1.45862 m -14.496354,14.49636 0.549653,-0.54966 m -2.27541,2.27541 -0.395801,0.3958 m 34.222172,-33.82305 0.452604,-0.4526 m -16.590347,16.59035 -0.511488,0.51149 m -13.070005,13.07 0.309513,-0.30951 m -1.966155,1.96615 -0.821154,0.82116 m -1.701127,1.70112 0.436771,-0.43677 m 34.083363,-33.68424 -0.440179,0.44018 m -29.942707,29.94271 0.235475,-0.23548 m -1.635949,1.63595 -2.359695,2.3597 m 33.884671,-33.48555 0.427755,-0.42776 m -30.243255,30.24326 -0.40621,0.40621 m -3.292595,3.29259 2.218941,-2.21894 m 31.89365,-31.49453 -0.416491,0.4165 m -33.375624,33.37562 3.451139,-3.45114 m 30.511746,-30.11262 -0.405465,0.40546 m -32.895069,32.89507 2.861597,-2.8616 m 30.609706,-30.21058 -0.394439,0.39444 m -31.448413,31.44841 1.344775,-1.34477 m 30.668846,-30.26973 -0.383413,0.38342 m -31.256225,31.25622 1.075684,-1.07568 m 30.734724,-30.3356 -0.372387,0.37238 m -31.21527,31.21527 0.957826,-0.95782 m 30.8006,-30.40148 -0.361361,0.36136 m -31.200866,31.20087 0.866519,-0.86652 m 30.866477,-30.46736 -0.354728,0.35473 m -31.194084,31.19409 0.787227,-0.78723 m 30.932355,-30.53323 -0.363734,0.36373 m -31.171663,31.17166 0.707935,-0.70793 m 30.998231,-30.59911 -0.37274,0.37274 m -31.152431,31.15243 0.631832,-0.63183 m 31.049206,-30.65008 -0.366844,0.36684 m -31.145934,31.14593 0.568464,-0.56846 m 31.089625,-30.6905 -0.350392,0.35039 m -31.139436,31.13943 0.51076,-0.51076 m 31.124379,-30.72525 -0.343462,0.34346 m -13.505071,13.50507 0.286545,-0.28654 m -17.450751,17.45075 -0.452805,0.4528 m 31.268847,-30.86972 0.342007,-0.34201 m -13.711369,13.71137 -0.215987,0.21599 m -17.540992,17.54099 0.421938,-0.42194 m 31.191721,-30.7926 -0.340553,0.34056 m -13.744238,13.74423 0.244561,-0.24456 m -17.239851,17.23985 -0.391071,0.39107 m 31.277364,-30.87824 0.339099,-0.3391 m -13.969091,13.96909 -0.281186,0.28119 m -17.223163,17.22316 0.359688,-0.35968 m 31.259063,-30.85994 -0.341929,0.34192 m -14.034489,14.03449 0.278467,-0.27846 m -17.049472,17.04947 -0.362457,0.36246 m 31.298227,-30.89911 0.356964,-0.35696 m -14.226812,14.22681 -0.275747,0.27575 m -12.510912,12.51091 0.05678,-0.0568 m -4.224399,4.2244 -0.365227,0.36523 m 31.319633,-30.92051 0.371998,-0.372 M 45.305028,261.88443 45.032,262.15746 m -12.799638,12.79964 0.515208,-0.51521 m -4.301634,4.30163 -0.379735,0.37974 m 31.352778,-30.95366 0.354144,-0.35414 m -14.434126,14.43413 -0.287826,0.28782 m -13.001679,13.00168 0.886953,-0.88695 m -4.395966,4.39596 -0.407441,0.40744 m 31.414821,-31.0157 0.340734,-0.34073 m -14.515554,14.51556 -0.302698,0.30269 m -13.169014,13.16902 1.223995,-1.224 m -4.499407,4.49941 -0.416078,0.41608 m 31.450135,-31.05102 0.344093,-0.34409 m -14.596985,14.59699 -0.31757,0.31757 m -13.110382,13.11038 1.335068,-1.33507 m -4.602844,4.60284 -0.484676,0.48468 m 31.545409,-31.14629 0.347451,-0.34745 m -14.678414,14.67842 -0.337368,0.33737 m -13.13073,13.13073 1.533877,-1.53388 m -4.741524,4.74152 -0.532083,0.53209 m 31.650903,-31.25179 0.350809,-0.3508 m -14.759842,14.75984 -0.325891,0.32589 m -13.115976,13.11597 1.675077,-1.67507 m -4.894765,4.89476 -0.582124,0.58213 m 31.763134,-31.36401 0.355859,-0.35586 m -14.841272,14.84127 -0.314414,0.31441 m -13.104895,13.1049 1.81995,-1.81995 m -5.015788,5.01579 -0.761739,0.76173 m 31.95436,-31.55523 0.379268,-0.37927 m -14.88376,14.88376 -0.341877,0.34188 m -11.740783,11.74078 0.620654,-0.62066 m -1.30053,1.30053 -0.653765,0.65377 m -4.035115,4.03512 0.689852,-0.68986 m 31.760795,-31.36167 -0.402677,0.40268 m -14.892912,14.89291 0.369237,-0.36924 m -11.307521,11.30752 -0.536088,0.53609 m -1.546391,1.54639 0.453653,-0.45365 m -3.843638,3.84364 -0.941375,0.94137 m 32.337096,-31.93797 0.391775,-0.39178 m -14.934632,14.93464 -0.396597,0.39659 m -11.225007,11.22501 0.468569,-0.46857 m -1.799157,1.79916 -0.411506,0.4115 m -4.449058,4.44906 0.774644,-0.77464 m 32.062103,-31.66298 -0.395311,0.39531 m -14.979759,14.97976 0.423958,-0.42396 m -10.980441,10.98044 -0.430524,0.43052 m -1.926432,1.92644 0.397853,-0.39786 m -4.323285,4.32329 -0.913255,0.91325 m -6.317863,6.31787 0.505422,-0.50543 m 39.028996,-38.62987 -0.414796,0.4148 m -15.010157,15.01015 0.457361,-0.45736 m -10.796698,10.7967 -0.429033,0.42903 m -2.085364,2.08537 0.398371,-0.39837 m -4.583424,4.58342 -0.79982,0.79982 m -6.975276,6.97528 1.818449,-1.81845 m 38.495755,-38.09663 -0.420291,0.42029 m -15.005078,15.00508 0.455289,-0.45529 m -10.603113,10.60311 -0.444343,0.44434 m -2.223105,2.22311 0.384655,-0.38466 m -4.843562,4.84356 -0.879684,0.87969 m -6.826641,6.82664 2.618455,-2.61846 m 37.85714,-37.45801 -0.411916,0.41191 m -15.008223,15.00823 0.495784,-0.49579 m -10.422429,10.42243 -0.492421,0.49242 m -2.330668,2.33067 0.37496,-0.37496 m -5.134796,5.13479 -1.175998,1.176 m -6.724174,6.72418 3.662491,-3.66249 m 37.237113,-36.83799 -0.436382,0.43638 m -14.968274,14.96827 0.522982,-0.52298 m -8.537034,8.53703 -0.488152,0.48815 m -1.813629,1.81363 0.621838,-0.62183 m -2.635665,2.63566 -0.364791,0.36479 m -6.439636,6.43964 1.321883,-1.32188 m -2.754149,2.75414 -1.966823,1.96683 m -3.05824,3.05824 0.495831,-0.49583 m 40.569963,-40.17084 -0.460848,0.46084 m -14.887002,14.88701 0.508859,-0.50886 m -8.231556,8.23155 -2.528979,2.52898 m -2.428813,2.42881 0.354622,-0.35462 m -5.834686,5.83469 -3.812744,3.81274 m -3.894258,3.89426 0.445399,-0.4454 m 40.811919,-40.41279 -0.457505,0.4575 m -14.813056,14.81306 0.502061,-0.50206 m -7.935345,7.93534 -2.790026,2.79003 m -2.435891,2.43589 0.344452,-0.34446 m -6.314505,6.31451 -2.66372,2.66372 m -4.687025,4.68703 0.406738,-0.40674 m 40.891747,-40.49263 -0.466671,0.46667 m -14.759671,14.75967 0.522322,-0.52232 m -7.605985,7.60599 -3.117083,3.11708 m -2.410109,2.41011 0.334283,-0.33428 m -7.00173,7.00173 -1.313647,1.31364 m -5.455319,5.45532 0.52509,-0.52509 m 40.796445,-40.39732 -0.496732,0.49673 m -14.790977,14.79098 0.665999,-0.666 m -7.204031,7.20403 -3.552325,3.55233 m -2.367282,2.36728 0.32483,-0.32483 m -7.525072,7.52507 -0.169169,0.16917 m -6.131617,6.13162 0.602574,-0.60258 m 40.666869,-40.26774 -0.501936,0.50193 m -15.019337,15.01934 1.026271,-1.02627 m -6.963847,6.96384 -3.906389,3.90639 m -2.265715,2.26572 0.322972,-0.32297 m -13.137109,13.13711 -0.695839,0.69583 M 60.8028,254.36911 61.310213,253.8617 m -14.364054,14.36405 -1.534895,1.5349 m -9.453587,9.45358 4.504103,-4.5041 m -6.343679,6.34368 -0.32493,0.32493 m -13.457835,13.45783 1.889603,-1.8896 m 39.108827,-38.7097 -0.543684,0.54368 m -21.453116,21.45312 7.763692,-7.7637 m -10.532608,10.53261 -0.569953,0.56995 m -2.089089,2.08909 0.348513,-0.34851 m -11.876643,11.87664 -1.785145,1.78515 m 40.18163,-39.78251 0.553974,-0.55397 m -14.07618,14.07618 -6.762458,6.76245 m -4.436659,4.43666 0.478101,-0.4781 m -2.1372,2.1372 -0.400555,0.40056 m -13.061678,13.06168 1.503793,-1.5038 m 38.888914,-38.48979 -0.560416,0.56042 m -19.372602,19.3726 6.01526,-6.01526 m -10.820467,10.82047 -0.436135,0.43613 m -2.057477,2.05748 0.440783,-0.44078 m -12.061946,12.06194 -1.1945,1.1945 m 39.440099,-39.04097 0.603479,-0.60348 m -13.731298,13.73129 -4.935711,4.93572 m -6.394258,6.39425 0.403543,-0.40354 m -2.052982,2.05298 -0.494107,0.49411 m -12.50384,12.50384 0.895185,-0.89519 m 38.776603,-38.37748 -0.613599,0.6136 m -13.621457,13.62146 0.729837,-0.72984 m -10.979787,10.97979 -0.402448,0.40245 m -2.274491,2.27449 0.577586,-0.57759 m -12.076418,12.07642 -0.719231,0.71923 m 38.717531,-38.31841 0.627298,-0.62729 m -13.277637,13.27763 -0.633312,0.63331 m -10.80145,10.80146 0.396049,-0.39605 m -2.141504,2.1415 -0.666569,0.66657 m -11.941406,11.9414 0.568406,-0.5684 m 38.462245,-38.06312 -0.677655,0.67765 m -12.963793,12.96379 0.613609,-0.6136 m -11.119857,11.11985 -0.359615,0.35962 m -2.699922,2.69992 0.70978,-0.70978 m -11.805214,11.80521 -0.471596,0.4716 m 37.924438,-37.52532 0.738629,-0.73863 m -12.702023,12.70203 -0.641239,0.64124 m -10.882942,10.88294 0.347355,-0.34736 m -2.52548,2.52548 -0.725078,0.72508 m -11.277272,11.27727 0.4055,-0.4055 m 37.909977,-37.51085 -0.661289,0.66129 m -12.425118,12.42512 0.705842,-0.70585 m -11.236591,11.2366 -0.323297,0.32329 m -3.306316,3.30632 0.78988,-0.78988 m -11.240613,11.24061 -0.361587,0.36159 m 37.268695,-36.86957 0.699192,-0.6992 m -12.046866,12.04687 -0.863372,0.86337 m -10.737692,10.73769 0.292467,-0.29246 m -3.128215,3.12821 -0.830009,0.83001 m -10.399352,10.39935 0.349227,-0.34922 m 37.272609,-36.87349 -0.721999,0.722 m -12.240523,12.24052 1.252513,-1.25251 m -9.235348,9.23535 -0.270736,0.27073 m -2.121496,2.1215 0.2619,-0.2619 m -3.353527,3.35353 -1.03383,1.03383 m -9.906116,9.90611 0.36329,-0.36329 m 36.936054,-36.53693 -0.858051,0.85805 m -12.443577,12.44358 1.93504,-1.93504 m -9.352229,9.35223 -0.644521,0.64452 m -1.668592,1.66859 0.238687,-0.23869 m -3.895695,3.8957 -1.451327,1.45132 m -8.906405,8.90641 0.392683,-0.39268 m 36.393792,-35.99467 -0.803726,0.80372 m -12.667962,12.66796 2.630549,-2.63054 m -9.576881,9.57688 -2.099767,2.09976 m -5.439869,5.43987 1.501094,-1.50109 m -9.635833,9.63583 -0.406179,0.40618 m 35.488977,-35.08985 0.819156,-0.81916 m -10.341736,10.34174 -3.081215,3.08121 m -8.624434,8.62444 1.741221,-1.74123 m -6.512773,6.51278 -1.562461,1.56246 m -7.625719,7.62572 0.447296,-0.4473 m 35.369381,-34.97026 -1.010715,1.01072 m -9.496285,9.49628 0.6698,-0.6698 m -2.790864,2.79087 -0.733728,0.73372 m -8.17551,8.17551 1.359634,-1.35963 m -6.875714,6.87571 -1.566386,1.56639 m -6.895894,6.89589 0.509765,-0.50976 m 34.819548,-34.42043 -0.857602,0.85761 m -8.933177,8.93317 0.466953,-0.46695 m -3.265239,3.26524 -0.632766,0.63277 m -7.781864,7.78186 1.011947,-1.01195 m -7.168591,7.16859 -1.759448,1.75945 m -6.050885,6.05089 0.514609,-0.51461 m 34.192848,-33.79373 -0.81324,0.81324 m -8.274299,8.2743 0.385343,-0.38534 m -3.700682,3.70068 -0.637446,0.63745 m -7.364709,7.36471 0.735065,-0.73507 m -7.89353,7.89353 -1.577098,1.5771 m -5.21769,5.21769 0.549229,-0.54923 m 33.568332,-33.16921 -0.791368,0.79137 m -7.606958,7.60696 0.30389,-0.30389 m -4.117775,4.11777 -0.574815,0.57482 m -7.041669,7.04166 0.533927,-0.53392 m -8.616171,8.61617 -1.339331,1.33933 m -4.475724,4.47572 0.530231,-0.53023 m 32.955038,-32.55591 -0.769496,0.76949 m -6.964981,6.96498 0.258593,-0.25859 m -4.535031,4.53503 -0.535,0.535 m -6.733876,6.73388 0.433282,-0.43328 m -9.365656,9.36565 -0.948327,0.94833 m -3.921909,3.92191 0.554365,-0.55437 m 32.332097,-31.93297 -0.792409,0.79241 m -6.356612,6.35661 0.327374,-0.32737 m -4.975379,4.97537 -0.552566,0.55257 m -6.471734,6.47173 0.382618,-0.38261 m -9.918119,9.91812 -0.902002,0.902 m -3.267118,3.26712 0.625855,-0.62586 m 31.702715,-31.30359 -0.809753,0.80975 m -5.763779,5.76378 0.40738,-0.40738 m -5.465877,5.46588 -0.520133,0.52013 m -6.260981,6.26098 0.395773,-0.39577 m -10.220036,10.22003 -1.458525,1.45853 m -2.076043,2.07604 0.649105,-0.6491 m 30.925491,-30.52637 -0.762518,0.76252 m -5.235523,5.23552 0.540119,-0.54012 m -5.974926,5.97493 -0.518586,0.51858 m -6.044496,6.0445 0.472911,-0.47291 m -10.611652,10.61165 -3.078261,3.07826 m 30.284404,-29.88528 0.803973,-0.80397 m -5.01409,5.01409 -0.524605,0.5246 m -6.284834,6.28483 0.517038,-0.51703 m -5.794999,5.795 -0.49186,0.49186 m -12.722347,12.72234 2.326326,-2.32632 m 27.857207,-27.45809 -0.746312,0.74631 m -4.317215,4.31722 0.549394,-0.54939 m -6.655476,6.65547 -0.518406,0.51841 m -5.473955,5.47395 0.523631,-0.52363 m -11.480715,11.48072 -1.272085,1.27208 m 28.591187,-28.19206 0.733172,-0.73317 m -4.168473,4.16847 -0.50901,0.50901 m -6.920871,6.92087 0.501371,-0.50137 m -5.090322,5.09032 -0.559017,0.55902 m 16.038949,-15.63983 0.641198,-0.6412 m -3.823417,3.82342 -0.480863,0.48086 m -7.290838,7.29084 0.570155,-0.57015 m -4.718942,4.71894 -0.595603,0.5956 m 15.792862,-15.39374 0.501813,-0.50181 m -3.536137,3.53613 -0.419306,0.41931 m -7.65778,7.65778 0.63894,-0.63894 m -4.218982,4.21898 -0.711178,0.71118 m 15.504724,-15.1056 0.46255,-0.46255 m -3.373101,3.3731 -0.405309,0.40531 m -7.987587,7.98759 0.734728,-0.73473 m -3.725722,3.72572 -0.832246,0.83225 m 15.264125,-14.86501 0.383565,-0.38356 m -3.234015,3.23402 -0.371581,0.37158 m -11.579851,11.57985 4.049149,-4.04915 m 11.251473,-10.85235 -0.345586,0.34558 m -3.206057,3.20606 0.381069,-0.38107 m -8.140782,8.14078 -3.551251,3.55125 M 58.22929,269.31542 58.565703,268.979 m -3.17571,3.17571 -0.379726,0.37973 m -10.838446,10.83845 2.857758,-2.85776 m 11.701009,-11.30189 -0.305306,0.30531 m -3.302055,3.30205 0.399626,-0.39962 m -8.693558,8.69355 -1.678453,1.67846 m 13.483591,-13.08447 0.343379,-0.34338 m -3.322098,3.3221 -0.427939,0.42794 m 3.647519,-3.2484 0.361917,-0.36192 m -3.504905,3.50491 -0.444954,0.44495 m 3.834797,-3.43567 0.388465,-0.38847 m -3.693357,3.69336 -0.486124,0.48612 m 4.090544,-3.69142 0.4201,-0.4201 m -3.990644,3.99065 -0.515443,0.51544 m 4.418654,-4.01953 0.433204,-0.43321 m -4.305589,4.30559 -0.578623,0.57863 m 4.806554,-4.40743 0.389372,-0.38938 m -4.656426,4.65643 -0.600688,0.60069 m 5.222205,-4.82309 0.357499,-0.3575 m -5.035653,5.03566 -0.661285,0.66128 m 5.617034,-5.21791 0.357555,-0.35755 m -5.293118,5.29311 -0.961169,0.96117 m 6.144,-5.74487 0.354753,-0.35476 m -5.93148,5.93148 -0.988163,0.98817 m 6.701869,-6.30275 0.381209,-0.38121 m -6.053103,6.0531 -1.794847,1.79485 m 7.564279,-7.16516 0.439863,-0.43986 m -7.008226,7.00823 -1.960874,1.96087 m 8.556991,-8.15787 0.433133,-0.43313 m -7.987293,7.98729 -1.420827,1.42083 m 8.793202,-8.39408 0.590364,-0.59036 m -8.69877,8.69877 -1.280479,1.28048 m 8.999434,-8.60032 0.933696,-0.93369 m -8.771744,8.77174 -1.480411,1.48041 m 9.287396,-8.88827 0.795519,-0.79552 m -9.401996,9.402 -0.86727,0.86727 m 9.060559,-8.66144 1.062209,-1.06221 m -9.442224,9.44222 -0.718458,0.71846 m 8.44814,-8.04901 1.388781,-1.38879 m -9.296488,9.29649 -0.578348,0.57835 m 8.279674,-7.88055 1.512396,-1.5124 m -9.267396,9.2674 -0.561883,0.56188 m 7.821221,-7.4221 1.367151,-1.36715 m -8.69345,8.69345 -0.482312,0.48231 m 7.312948,-6.91382 1.461181,-1.46118 m -8.248076,8.24807 -0.508004,0.50801 m 6.813861,-6.41474 1.539447,-1.53945 m -7.798809,7.79881 -0.501889,0.50189 m 6.85962,-6.4605 1.218632,-1.21863 m -7.511448,7.51145 -0.487211,0.48721 m 6.878396,-6.47927 0.84094,-0.84094 m -7.123091,7.12309 -0.490173,0.49017 m 6.870693,-6.47157 0.58513,-0.58513 m -6.826447,6.82645 -0.459296,0.45929 m 6.798982,-6.39986 0.502161,-0.50216 m -6.663769,6.66377 -0.447116,0.44712 m 6.707093,-6.30797 0.444556,-0.44456 m -5.375788,5.37579 -1.55249,1.55249 m 6.582091,-6.18297 0.398305,-0.3983 m -5.289345,5.28934 -1.447386,1.44739 m 6.436795,-6.03768 0.392403,-0.3924 m -5.243251,5.24325 -1.323816,1.32382 m 6.273033,-5.87391 0.385856,-0.38586 m -5.190059,5.19006 -1.206699,1.2067 m 6.107423,-5.7083 0.381156,-0.38116 m -5.133088,5.13309 -1.05461,1.05461 m 5.895439,-5.49631 0.384081,-0.38409 m -5.076118,5.07612 -0.909704,0.9097 m 5.690638,-5.29151 0.387005,-0.387 m -4.978232,4.97823 -0.805713,0.80571 m 5.485837,-5.08671 0.385322,-0.38533 m -4.879363,4.87937 -0.698098,0.6981 m 5.281036,-4.88192 0.383133,-0.38313 m -4.754541,4.75454 -0.61593,0.61593 m 5.076235,-4.67711 0.380944,-0.38095 m -4.614019,4.61402 -0.549462,0.54946 m 4.871434,-4.47231 0.378755,-0.37875 m -4.459998,4.45999 -0.482093,0.4821 m 4.659735,-4.26061 0.369064,-0.36907 m -4.271844,4.27185 -0.444464,0.44446 m 4.407601,-4.00848 0.395415,-0.39541 m -4.075655,4.07565 -0.41487,0.41487 m 4.155466,-3.75634 0.421767,-0.42177 m -3.829097,3.8291 -0.435646,0.43564 m 3.899471,-3.50034 0.45198,-0.45198 m -3.564786,3.56478 -0.434966,0.43497 m 3.567245,-3.16813 0.489002,-0.489 m -3.228019,3.22802 -0.465873,0.46587 m 3.213975,-2.81485 0.527185,-0.52718 m -2.669918,2.66992 -0.708887,0.70888 m 2.49382,-2.0947 0.932251,-0.93225 m -2.049349,2.04935 -0.840847,0.84085 m 0.414735,-0.0156 2.446216,-2.44622 m -0.01701,0.41614 -1.531774,1.53177 m 0.818461,-0.41934 0.499013,-0.49901"
         inkscape:connector-curvature="0" />
    </g>
  </g>
</svg>
