<?xml version="1.0" encoding="UTF-8" standalone="no"?>
<!-- Created with Inkscape (http://www.inkscape.org/) -->

<svg
   xmlns:dc="http://purl.org/dc/elements/1.1/"
   xmlns:cc="http://creativecommons.org/ns#"
   xmlns:rdf="http://www.w3.org/1999/02/22-rdf-syntax-ns#"
   xmlns:svg="http://www.w3.org/2000/svg"
   xmlns="http://www.w3.org/2000/svg"
   xmlns:sodipodi="http://sodipodi.sourceforge.net/DTD/sodipodi-0.dtd"
   xmlns:inkscape="http://www.inkscape.org/namespaces/inkscape"
   width="50mm"
   height="50mm"
   viewBox="0 0 50 50"
   version="1.1"
   id="svg1586"
   inkscape:version="0.92.2 2405546, 2018-03-11"
   sodipodi:docname="50.svg">
  <sodipodi:namedview
     id="base"
     pagecolor="#ffffff"
     bordercolor="#666666"
     borderopacity="1.0"
     inkscape:pageopacity="0.0"
     inkscape:pageshadow="2"
     inkscape:zoom="1.1678255"
     inkscape:cx="32.326932"
     inkscape:cy="149.86979"
     inkscape:document-units="mm"
     inkscape:current-layer="layer1"
     showgrid="false"
     inkscape:window-width="1366"
     inkscape:window-height="703"
     inkscape:window-x="0"
     inkscape:window-y="0"
     inkscape:window-maximized="1" />
  <defs
     id="defs1580" />
  <metadata
     id="metadata1583">
    <rdf:RDF>
      <cc:Work
         rdf:about="">
        <dc:format>image/svg+xml</dc:format>
        <dc:type
           rdf:resource="http://purl.org/dc/dcmitype/StillImage" />
        <dc:title></dc:title>
      </cc:Work>
    </rdf:RDF>
  </metadata>
  <g
     inkscape:label="Layer 1"
     inkscape:groupmode="layer"
     id="layer1"
     transform="translate(0,-247)">
    <g
       id="g923"
       transform="translate(-12.5,-2.0128915e-6)">
      <path
         id="path903"
         d="m 23.236595,296.45085 c -0.327878,-0.32805 -0.595544,-0.78537 -0.594812,-1.01627 0.0033,-0.9358 1.521971,-2.81276 3.435396,-4.24495 5.289462,-3.95916 7.956294,-7.21058 7.956294,-9.70037 0,-1.36221 -0.09335,-1.50408 -1.269674,-1.92966 -1.51474,-0.54801 -3.563686,-2.27651 -4.232548,-3.5706 -1.583722,-3.06412 -0.925721,-7.43853 1.794791,-11.93188 1.923321,-3.17667 2.346486,-4.76235 1.466021,-5.49345 -0.689426,-0.57245 -4.104239,-0.81822 -4.854583,-0.34939 -0.784073,0.48991 -1.742983,0.16969 -2.043952,-0.68256 -0.122649,-0.34729 -0.534047,-0.97781 -0.914226,-1.40114 -0.865609,-0.96386 -0.691837,-2.04424 0.352803,-2.1934 0.978422,-0.13971 1.848445,-1.31183 1.620648,-2.18338 -0.260581,-0.99694 0.761311,-2.63354 2.318523,-3.71323 1.064725,-0.73822 1.842252,-0.9796 3.189186,-0.99003 2.186432,-0.017 2.892686,0.34324 4.470361,2.27986 2.586356,3.1748 2.530472,6.45596 -0.181456,10.65395 -1.372832,2.12509 -2.624693,4.93066 -2.200104,4.93066 0.107953,0 0.623008,-0.30402 1.144575,-0.6756 1.240021,-0.8834 3.717453,-1.53817 4.795629,-1.26742 0.737113,0.18509 0.930055,0.025 1.407035,-1.16772 0.304032,-0.76022 0.766744,-1.54547 1.02825,-1.74499 0.76377,-0.58271 3.89907,-0.5423 4.821108,0.0622 0.609077,0.39928 1.002814,0.44453 1.509119,0.17343 0.376763,-0.20174 1.068167,-0.3668 1.536448,-0.3668 1.068128,0 2.499826,1.46167 2.199279,2.2453 -0.121298,0.31625 -0.04089,1.11956 0.178632,1.78512 0.488971,1.48234 -0.01111,3.07593 -1.050615,3.3479 -0.938672,0.2456 -0.892483,0.86678 0.182304,2.45134 1.056712,1.55794 1.138501,2.77857 0.229096,3.41897 -0.808254,0.56916 -1.240741,1.84175 -1.180729,3.47428 0.04735,1.28729 -0.746841,2.51244 -1.628624,2.51244 -0.281444,0 -0.919076,0.32059 -1.416964,0.71242 -0.497881,0.39183 -1.182298,0.71242 -1.520918,0.71242 -0.970177,0 -1.915116,2.8826 -1.635717,4.98988 0.370078,2.7912 0.866413,3.75587 2.750099,5.34501 2.966989,2.50305 3.030091,3.89295 0.211223,4.65238 -2.014491,0.54272 -3.456427,0.1723 -4.939501,-1.26894 -1.796216,-1.74553 -2.548665,-4.74332 -2.089467,-8.3245 0.203286,-1.58546 0.145863,-1.81614 -0.528573,-2.12359 -0.969558,-0.44199 -1.957156,0.0855 -1.957156,1.04539 0,1.17033 -0.603929,1.96473 -2.217078,2.91628 -2.192744,1.29346 -3.32496,2.63785 -4.198912,4.98579 -1.243977,3.34202 -1.949931,3.93633 -4.87201,4.10153 -1.968763,0.1113 -2.594613,0.0182 -3.069201,-0.45664 z"
         style="fill:none;stroke:#ff0000;stroke-width:0.10000001;stroke-miterlimit:4;stroke-dasharray:none"
         inkscape:connector-curvature="0" />
      <path
         id="path901"
         d="m 25.789842,295.19287 c 0.134229,-0.97084 0.668656,-1.78105 1.174794,-1.78105 0.176356,0 0.059,0.3995 -0.26076,0.88778 -0.7421,1.13315 -0.425782,1.9619 0.748832,1.9619 1.194126,0 2.427182,-1.35412 2.988485,-3.28191 0.681542,-2.34073 1.908796,-3.95699 4.119274,-5.42496 1.10815,-0.73592 2.070383,-1.52242 2.1383,-1.74778 0.06792,-0.22537 0.216078,-0.83481 0.329237,-1.35431 0.136387,-0.62614 0.729508,-1.25166 1.759392,-1.85551 1.678708,-0.98428 2.722749,-2.28471 2.722749,-3.3914 0,-0.9153 -0.547486,-1.0596 -2.466457,-0.65012 -1.414812,0.3019 -1.652891,0.25671 -2.198392,-0.41729 -0.336462,-0.41573 -0.702118,-0.75586 -0.812561,-0.75586 -0.517739,0 -1.287335,2.27652 -1.288533,3.81157 -0.002,2.6488 -2.312157,5.98064 -6.158586,8.88247 -1.21375,0.91569 -2.887737,2.31457 -3.71997,3.10863 -1.99739,1.9058 -2.042506,3.23015 -0.102331,3.00376 0.656516,-0.0766 0.937061,-0.34878 1.026527,-0.99592 z"
         style="fill:none;stroke:#0000ff;stroke-width:0.10000001;stroke-miterlimit:4;stroke-dasharray:none"
         inkscape:connector-curvature="0" />
      <path
         id="path899"
         d="m 48.139815,294.41191 c 0.461242,-0.46148 0.440818,-0.62692 -0.170648,-1.38243 -0.68545,-0.84692 -0.704429,-0.8493 -1.442794,-0.18075 -0.958637,0.86799 -1.424261,0.44349 -0.560724,-0.51118 0.638823,-0.70625 0.628241,-0.74847 -0.471977,-1.88418 -0.80455,-0.8305 -1.29677,-1.85635 -1.726322,-3.59789 -0.603907,-2.44842 -0.57273,-2.85348 0.458359,-5.95526 0.14364,-0.43214 -0.08543,-0.61935 -0.905096,-0.7397 -0.855234,-0.12559 -1.214877,0.0182 -1.629697,0.65162 -0.292752,0.44704 -0.893789,1.15097 -1.335621,1.56431 -0.726051,0.67924 -0.746135,0.78374 -0.208805,1.08633 0.494464,0.27846 0.586115,0.88898 0.544642,3.62803 -0.05987,3.95587 0.422398,5.54259 2.144532,7.0554 1.153724,1.01348 1.45711,1.10937 3.031123,0.95805 0.961987,-0.0925 1.984845,-0.40403 2.273028,-0.69235 z"
         style="fill:none;stroke:#0000ff;stroke-width:0.10000001;stroke-miterlimit:4;stroke-dasharray:none"
         inkscape:connector-curvature="0" />
      <path
         id="path897"
         d="m 46.693565,279.36329 c 0.658541,-0.48839 0.661731,-0.54236 0.06775,-1.14526 -0.59099,-0.59987 -0.677006,-0.601 -1.657067,-0.0218 -0.568555,0.33602 -1.481641,0.61095 -2.029088,0.61095 -1.369382,0 -0.655683,0.62204 0.927212,0.80812 0.685359,0.0806 1.415752,0.17215 1.623098,0.2035 0.207348,0.0314 0.687995,-0.17364 1.068094,-0.45553 z"
         style="fill:none;stroke:#0000ff;stroke-width:0.10000001;stroke-miterlimit:4;stroke-dasharray:none"
         inkscape:connector-curvature="0" />
      <path
         id="path895"
         d="m 34.572827,278.43426 c 0.427754,-1.3484 3.679689,-4.88617 5.106327,-5.55518 0.941218,-0.44137 1.476942,-0.95835 1.60856,-1.55229 0.108533,-0.48979 0.85893,-1.5951 1.667555,-2.45625 1.295134,-1.37925 1.424694,-1.6657 1.087904,-2.40523 -0.460269,-1.0107 -2.197831,-2.13104 -4.121105,-2.65721 -1.878531,-0.51394 -3.729366,0.0537 -5.554696,1.7036 l -1.401994,1.26726 v -1.58403 c 0,-1.03279 0.32738,-2.19384 0.940764,-3.33639 3.447384,-6.42147 3.399591,-6.30061 3.247468,-8.21165 -0.193976,-2.43674 -2.03933,-5.0997 -3.980464,-5.74399 -1.762828,-0.58512 -3.772638,-0.0136 -5.420654,1.54147 -1.89452,1.78766 -1.539305,2.76299 1.644853,4.51631 0.989935,0.54511 1.1168,0.78173 1.020241,1.90302 -0.09856,1.14461 0.0097,1.33096 1.019735,1.75588 0.852144,0.35847 1.184743,0.76734 1.352642,1.66279 0.274045,1.46149 -0.06333,2.38247 -1.933091,5.27678 -1.725415,2.67089 -2.51991,5.10939 -2.51991,7.73426 0,3.08128 0.928198,4.66202 3.621055,6.16674 1.561487,0.87253 2.332228,0.8649 2.61481,-0.0259 z"
         style="fill:none;stroke:#0000ff;stroke-width:0.10000001;stroke-miterlimit:4;stroke-dasharray:none"
         inkscape:connector-curvature="0" />
      <path
         id="path893"
         d="m 30.191733,253.79439 c -1.031828,-0.50591 -0.882775,-1.34359 0.363619,-2.04352 0.881503,-0.49503 1.022171,-0.48822 1.586911,0.0768 0.383157,0.38336 0.454656,0.61998 0.187343,0.61998 -0.23778,0 -0.432321,0.16976 -0.432321,0.37723 0,0.20748 0.175609,0.26864 0.390255,0.13592 0.242294,-0.14982 0.342155,0.011 0.263384,0.42424 -0.149739,0.78552 -1.214989,0.97036 -2.359191,0.40935 z"
         style="fill:none;stroke:#0000ff;stroke-width:0.10000001;stroke-miterlimit:4;stroke-dasharray:none"
         inkscape:connector-curvature="0" />
      <path
         id="path891"
         d="m 31.062708,252.62298 c 0.226353,-0.48826 0.291234,-0.88775 0.144191,-0.88775 -0.451559,0 -1.462317,1.28959 -1.209235,1.5428 0.40677,0.40697 0.638896,0.2642 1.065044,-0.65505 z"
         style="fill:none;stroke:#0000ff;stroke-width:0.10000001;stroke-miterlimit:4;stroke-dasharray:none"
         inkscape:connector-curvature="0" />
      <path
         id="path889"
         d="m 49.270805,278.00353 c 0.204144,-0.24611 0.343921,-1.1678 0.310618,-2.04821 -0.0566,-1.49618 -0.130001,-1.60864 -1.123552,-1.72156 -1.027599,-0.11679 -1.042397,-0.098 -0.444267,0.56322 0.750317,0.82951 0.440591,1.27869 -0.483544,0.70128 -0.54084,-0.33794 -0.787563,-0.29631 -1.296731,0.21879 -0.601772,0.60876 -0.575227,0.68081 0.6173,1.67545 1.380749,1.15162 1.869408,1.275 2.420176,0.61103 z"
         style="fill:none;stroke:#0000ff;stroke-width:0.10000001;stroke-miterlimit:4;stroke-dasharray:none"
         inkscape:connector-curvature="0" />
      <path
         id="path887"
         d="m 37.994992,276.40278 -0.137992,-1.692 -0.537583,1.12676 c -0.571165,1.19711 -0.404539,2.25724 0.354782,2.25724 0.329323,0 0.419842,-0.47742 0.320793,-1.692 z"
         style="fill:none;stroke:#0000ff;stroke-width:0.10000001;stroke-miterlimit:4;stroke-dasharray:none"
         inkscape:connector-curvature="0" />
      <path
         id="path885"
         d="m 41.319885,277.58922 c 0.762058,0.19136 0.982704,0.0969 1.13506,-0.48605 0.104023,-0.39796 0.494745,-0.80353 0.868271,-0.90126 0.373534,-0.0977 0.679157,-0.44043 0.679157,-0.76155 0,-0.89969 -1.640284,-2.33252 -2.67024,-2.33252 -1.325946,0 -2.670243,1.48029 -2.670243,2.94035 0,1.40164 0.619105,2.21101 1.274789,1.66657 0.240496,-0.1997 0.86293,-0.25618 1.383206,-0.12554 z"
         style="fill:none;stroke:#0000ff;stroke-width:0.10000001;stroke-miterlimit:4;stroke-dasharray:none"
         inkscape:connector-curvature="0" />
      <path
         id="path883"
         d="m 44.734005,277.72809 c 0.450707,-0.24133 0.634321,-0.63711 0.537104,-1.15768 -0.08125,-0.43504 -0.159634,-0.86674 -0.174191,-0.95931 -0.01452,-0.0926 -0.275864,0.18795 -0.580687,0.62337 -0.304832,0.43542 -0.78548,0.79168 -1.068102,0.79168 -0.282623,0 -0.513856,0.24044 -0.513856,0.53432 0,0.61908 0.814864,0.69497 1.799732,0.16762 z"
         style="fill:none;stroke:#0000ff;stroke-width:0.10000001;stroke-miterlimit:4;stroke-dasharray:none"
         inkscape:connector-curvature="0" />
      <path
         id="path881"
         d="m 46.665457,274.05928 c 0.298819,-0.45628 0.549263,-1.21768 0.556542,-1.692 0.0073,-0.47431 0.02164,-1.33782 0.03183,-1.91891 0.01186,-0.67531 -0.264436,-1.28582 -0.7658,-1.692 -0.944405,-0.76512 -1.420971,-0.79388 -2.31516,-0.1397 -0.602924,0.44109 -0.620243,0.5663 -0.157058,1.13532 0.471551,0.57929 0.456682,0.61554 -0.15779,0.38469 -0.462846,-0.17389 -0.943639,-0.006 -1.513139,0.52971 -1.082959,1.0179 -1.053965,1.2411 0.248792,1.91512 0.595945,0.30833 1.262524,0.95362 1.481284,1.43399 0.516274,1.13367 1.861838,1.15642 2.590499,0.0438 z"
         style="fill:none;stroke:#0000ff;stroke-width:0.10000001;stroke-miterlimit:4;stroke-dasharray:none"
         inkscape:connector-curvature="0" />
      <path
         id="path879"
         d="m 50.570619,272.97794 c 0.499633,-0.46327 0.90842,-1.11678 0.90842,-1.45224 0,-0.8518 -1.928421,-2.69238 -2.820867,-2.69238 -0.973252,0 -0.992692,1.26417 -0.02737,1.78105 0.391634,0.2097 0.712067,0.54673 0.712067,0.74895 0,0.20558 -0.313933,0.268 -0.712067,0.14157 -0.603974,-0.19179 -0.71206,-0.064 -0.71206,0.84175 0,0.8242 0.182788,1.10308 0.801074,1.22223 0.440585,0.0849 0.832872,0.1762 0.871735,0.20288 0.03889,0.0267 0.479455,-0.33053 0.979087,-0.79381 z"
         style="fill:none;stroke:#0000ff;stroke-width:0.10000001;stroke-miterlimit:4;stroke-dasharray:none"
         inkscape:connector-curvature="0" />
      <path
         id="path877"
         d="m 49.698884,267.76933 c 0,-0.15049 -0.242967,-0.47537 -0.539927,-0.72194 -0.296959,-0.24658 -0.497229,-0.86731 -0.445039,-1.37941 0.08241,-0.80871 -0.05294,-0.94543 -1.029604,-1.04027 -0.802339,-0.0779 -1.337819,0.11992 -1.869169,0.69054 -1.016826,1.09199 -0.938627,1.55511 0.394118,2.33386 1.101723,0.64377 3.489621,0.72398 3.489621,0.11722 z"
         style="fill:none;stroke:#0000ff;stroke-width:0.10000001;stroke-miterlimit:4;stroke-dasharray:none"
         inkscape:connector-curvature="0" />
      <path
         id="path875"
         d="m 51.625828,265.54916 c 0.265895,-0.75961 0.203664,-1.11855 -0.288237,-1.66236 -0.509495,-0.56327 -0.550501,-0.83728 -0.218248,-1.45841 0.75623,-1.41373 -0.838972,-2.31496 -2.511959,-1.41916 -1.034339,0.55384 -0.912969,2.37999 0.217302,3.2695 0.498287,0.39214 0.880364,0.97625 0.84908,1.298 -0.100187,1.03043 0.0091,1.17118 0.819021,1.05505 0.486872,-0.0698 0.925061,-0.4885 1.133041,-1.08262 z"
         style="fill:none;stroke:#0000ff;stroke-width:0.10000001;stroke-miterlimit:4;stroke-dasharray:none"
         inkscape:connector-curvature="0" />
      <path
         id="path873"
         d="m 45.800056,264.46974 c 1.502785,-1.24823 1.727793,-2.14331 0.852941,-3.39296 -0.464378,-0.66332 -0.84623,-0.77813 -2.367949,-0.71188 -1.598057,0.0696 -1.892587,0.20745 -2.471276,1.15686 -0.860214,1.41128 -0.830648,1.7761 0.181316,2.23742 0.695812,0.31719 0.970642,0.25362 1.592251,-0.3683 0.413204,-0.41342 0.864197,-0.63868 1.002208,-0.50061 0.138006,0.13808 -0.03736,0.46197 -0.389775,0.71977 -0.446672,0.32678 -0.566311,0.70323 -0.395057,1.24306 0.135102,0.42588 0.325728,0.77433 0.423611,0.77433 0.09788,0 0.805163,-0.52096 1.57173,-1.15769 z"
         style="fill:none;stroke:#0000ff;stroke-width:0.10000001;stroke-miterlimit:4;stroke-dasharray:none"
         inkscape:connector-curvature="0" />
      <path
         id="path1218"
         d="m 28.158949,257.18545 c 1.385564,-0.23681 2.049784,-1.05127 1.577455,-1.93428 -0.443728,-0.82951 -3.302492,-2.25656 -3.476177,-1.73525 -0.06858,0.20586 -0.690371,0.61075 -1.381755,0.89978 -1.077071,0.45026 -1.191462,0.60458 -0.798923,1.07779 0.575307,0.69355 3.061196,0.57834 2.912996,-0.13501 -0.05893,-0.28365 0.153328,-0.42469 0.529952,-0.35212 0.345552,0.0666 0.685563,0.4187 0.755598,0.78251 0.076,0.39485 -0.02371,0.56811 -0.247262,0.42984 -0.559292,-0.34583 -2.995457,0.7702 -2.705583,1.23945 0.138731,0.22459 0.571765,0.29021 1.004712,0.15226 0.41849,-0.13333 1.241533,-0.32458 1.828987,-0.42497 z"
         style="fill:none;stroke:#0000ff;stroke-width:0.10000001;stroke-miterlimit:4;stroke-dasharray:none"
         inkscape:connector-curvature="0" />
      <path
         id="path857"
         style="fill:none;stroke:#0000ff;stroke-width:0.10000001"
         d="m 28.117408,248.29809 -1.453878,1.45388 m -0.04497,0.44409 2.295132,-2.29513 m 0.710522,-0.3114 -1.076816,1.07682 m -2.282515,2.28251 0.676768,-0.67677 m 3.188912,-2.78979 -0.302046,0.30205 m -3.625653,3.62565 0.08282,-0.0828 m 4.342874,-3.94376 -0.176224,0.17623 m -4.213692,4.21369 0.13649,-0.13649 m 4.678158,-4.27903 -0.115193,0.11519 m -4.785029,4.78503 0.320891,-0.32089 m -2.289325,2.28932 -0.462501,0.4625 m 7.58437,-7.18525 0.169687,-0.16968 m -4.853351,4.85335 -2.890497,2.8905 m 1.310882,-0.91176 1.734172,-1.73418 m 5.455541,-5.05641 -0.05104,0.051 m -6.234015,6.23401 1.032902,-1.0329 m 5.683836,-5.28472 -0.115213,0.11522 m -5.710958,5.71096 0.345266,-0.34527 m 5.782354,-5.38323 -0.09668,0.0967 m -5.735652,5.73565 0.25846,-0.25846 m -3.004877,3.00488 -0.07847,0.0785 m 8.880721,-8.48159 0.107623,-0.10763 m -5.671404,5.67141 -0.20572,0.20572 m -2.938946,2.93894 0.187465,-0.18746 m 8.912728,-8.51361 -0.107174,0.10718 m -5.767738,5.76773 0.15298,-0.15298 m -2.823779,2.82378 -0.382208,0.38221 m 9.093996,-8.69487 0.108702,-0.1087 m -5.763116,5.76311 -0.10024,0.10024 m -3.177478,3.17748 0.587362,-0.58736 m 8.699605,-8.30049 -0.08158,0.0816 m -5.774624,5.77462 0.09164,-0.0916 m -2.587349,2.58735 -0.795694,0.7957 m 9.301157,-8.90204 0.07861,-0.0786 m -3.938108,3.9381 -0.650584,0.65059 m -1.250181,1.25018 0.09359,-0.0936 m -2.339287,2.33929 -1.155834,1.15583 m 9.394687,-8.99556 0.062,-0.062 m -5.71013,5.71013 -0.09554,0.0955 m -2.225644,2.22565 0.981297,-0.9813 m 1.591319,-1.1922 -0.09748,0.0975 m -1.713281,1.71328 0.471871,-0.47187 m 3.992665,-3.59355 -0.188786,0.18879 m -2.319188,2.31919 0.103453,-0.10345 m -1.436131,1.43613 -0.176267,0.17626 m 2.694737,-2.29561 1.529336,-1.52934 m -2.366188,2.36619 -0.13034,0.13034 m -3.586124,3.58612 0.281027,-0.28102 m 5.971894,-5.57277 -1.40199,1.40199 m -1.047406,1.0474 0.151925,-0.15192 m -3.277105,3.2771 -0.293953,0.29396 m 4.764155,-4.36504 0.699946,-0.69994 m -1.704679,1.70468 -0.162034,0.16203 m -3.000039,3.00004 0.216533,-0.21653 m 4.801667,-4.40255 -0.478016,0.47802 m -1.379505,1.3795 0.10903,-0.10903 m -2.533246,2.53325 -0.136572,0.13657 m 4.330186,-3.93106 0.48503,-0.48503 m -2.038568,2.03857 -0.09311,0.0931 m -2.249935,2.24993 0.208959,-0.20896 m 0.776637,-0.37751 -0.586969,0.58697 m 0.396989,0.002 1.439871,-1.43987 m -0.0144,0.41352 -1.028486,1.02848 m 0.396989,0.002 0.736596,-0.7366 m 0.13489,0.26423 -0.528983,0.52899 m 0.350388,0.0487 0.381543,-0.38154 m 0.228154,0.17097 -0.25931,0.25931 m 0.350388,0.0487 0.17709,-0.17709 m 6.115294,-5.71617 -0.0583,0.0583 m -5.919715,5.91972 0.130809,-0.13081 m 5.934778,-5.53566 -0.0514,0.0514 m -5.704227,5.70422 0.08326,-0.0833 m 0.259267,0.13985 -0.07679,0.0768 m 5.583916,-5.18479 0.08112,-0.0811 m 0.04402,0.3551 -0.07012,0.0701 m 0.04167,0.35745 0.0578,-0.0578 m 0.02934,0.36977 -0.07364,0.0736 m 0.01351,0.38562 0.08948,-0.0895 m -5.008197,5.40732 -0.05778,0.0578 m -0.05779,0.45691 0.143062,-0.14306 m 4.833106,-4.43399 -0.189822,0.18983 m -5.047446,5.04744 0.492792,-0.49279 m 4.490932,-4.09181 -0.258471,0.25847 m -5.134552,5.13455 0.617941,-0.61794 m 4.616561,-4.21744 -0.464778,0.46478 m -4.97113,4.97113 0.845594,-0.84559 m 4.251154,-3.85203 -0.484204,0.4842 m -5.111452,5.11145 0.626895,-0.62689 m 4.652674,-4.25355 -0.622963,0.62296 m -5.155299,5.1553 0.455296,-0.4553 m 4.729375,-4.33025 -0.484219,0.48422 m -5.638667,5.63867 0.897667,-0.89767 m 4.937067,-4.53794 -0.650912,0.65091 m -5.197729,5.19773 0.280819,-0.28082 m 4.717031,-4.31791 -0.380794,0.38079 m -4.931288,4.93129 0.07596,-0.076 m 5.168702,-4.76958 -0.745994,0.74599 m -4.829211,4.82921 0.176033,-0.17603 m 4.65237,-4.25325 -0.130219,0.13022 m -4.893599,4.8936 0.09477,-0.0948 m 4.880282,-4.48116 -0.280625,0.28062 m -5.103577,5.10358 0.254818,-0.25482 m -0.105167,0.50429 -0.114028,0.11403 m -0.107289,0.50641 0.094,-0.094 m 4.923311,-4.52419 -0.0593,0.0593 m -5.0653,5.0653 0.07398,-0.074 m 5.230415,-4.83129 -0.239093,0.23909 m -5.160105,5.16011 0.153049,-0.15305 m 6.353021,-5.9539 -1.345965,1.34597 m -5.197764,5.19776 0.103858,-0.10386 m 7.507238,-7.10811 -2.413332,2.41333 m -5.235424,5.23543 0.107811,-0.10782 m 8.029346,-7.63022 -0.326986,0.32699 m -7.856748,7.85674 0.12068,-0.12068 m 8.879462,-8.48034 -0.411302,0.41131 m -8.568672,8.56867 0.06681,-0.0668 m 9.28341,-8.88428 -0.09466,0.0947 m -9.235384,9.23538 0.06506,-0.0651 m 9.754462,-9.35534 -0.07774,0.0778 m -9.721613,9.72161 0.06079,-0.0608 m 10.255395,-9.85628 -0.152885,0.15289 m 0.437199,-0.0381 0.204182,-0.20418 m 3.345765,-2.94664 -0.427708,0.42771 m -2.760399,2.76039 0.157485,-0.15748 m 3.581156,-3.18204 -1.597363,1.59737 m -1.764029,1.76403 0.133698,-0.1337 m 3.655095,-3.25597 -2.342727,2.34272 m -1.127251,1.12725 0.135463,-0.13546 m 3.761916,-3.36279 -0.14647,0.14647 m -3.418856,3.41885 1.016001,-1.016 m 3.052827,-2.6537 -0.247229,0.24723 m -3.5294,3.5294 0.591035,-0.59104 m 3.513337,-3.11421 -0.141963,0.14196 m -3.66807,3.66807 0.405278,-0.40528 m 3.770814,-3.37169 -0.104546,0.10455 m -3.777206,3.7772 0.285569,-0.28557 m 3.962241,-3.56311 -0.06722,0.0672 m -3.886249,3.88625 0.221397,-0.2214 m 4.117303,-3.71818 -0.109617,0.10962 m -3.934743,3.93474 0.176503,-0.1765 m 4.188028,-3.78891 -0.05234,0.0523 m -4.059033,4.05903 0.179596,-0.1796 m 4.257885,-3.85876 -0.07808,0.0781 m -4.099373,4.09938 0.213065,-0.21307 m 4.238839,-3.83972 -0.091,0.091 m -4.100881,4.10088 0.361222,-0.36122 m 4.098234,-3.69911 -0.137986,0.13798 m -4.061444,4.06145 1.481359,-1.48136 m 2.972219,-2.5731 -0.205432,0.20543 m -4.001237,4.00124 1.619049,-1.61905 m 2.883934,-2.48481 -0.333472,0.33347 m -3.946106,3.94611 0.454458,-0.45446 m 4.253781,-3.85466 -0.627845,0.62785 m -3.856988,3.85699 0.300029,-0.30003 m 4.617523,-4.2184 -0.926276,0.92627 m -3.767871,3.76787 0.177436,-0.17743 m 5.214732,-4.81561 -1.469825,1.46982 m -3.698937,3.69894 0.07065,-0.0707 m 5.527676,-5.12856 -1.889114,1.88912 m 2.041178,-1.64206 0.326315,-0.32631 m -2.034179,2.03417 -0.354549,0.35455 m 2.620937,-2.22181 0.12163,-0.12163 m -2.442334,2.44233 -3.46224,3.46224 m 0.137725,0.2614 3.382518,-3.38252 m 0.104858,0.29427 -1.411337,1.41133 m -1.981057,1.98106 0.559679,-0.55968 m 2.943911,-2.54479 -0.695213,0.69522 m -2.763934,2.76393 0.382187,-0.38219 m -12.340142,12.34015 -0.05335,0.0534 m 15.141081,-14.74196 0.48832,-0.48832 m -3.111122,3.11112 -1.756294,1.75629 M 32.7172,279.2202 l 0.06937,-0.0694 m 15.450803,-15.05168 -0.28399,0.28399 m -5.760789,5.76079 2.950034,-2.95004 m -6.268204,6.26821 -1.827577,1.82757 m -4.057974,4.05798 0.09026,-0.0903 m 15.361343,-14.96222 -0.140622,0.14062 m -3.95307,3.95307 0.999184,-0.99918 m -1.90504,1.90504 -1.880778,1.88078 m -3.428681,3.42868 1.424148,-1.42415 m -2.449789,2.44979 -2.024363,2.02436 m -1.810871,1.81087 0.138572,-0.13857 m 15.230845,-14.83172 -0.06118,0.0612 m -3.321357,3.32136 0.32276,-0.32276 m -2.036843,2.03684 -0.262298,0.2623 m -5.119525,5.11952 3.236634,-3.23663 m -4.291341,4.29134 -2.258708,2.25871 m -1.295838,1.29584 0.297346,-0.29735 m 17.87199,-17.47287 -0.132118,0.13212 m -5.999761,5.99976 0.224726,-0.22472 m -4.39399,4.39399 -1.32811,1.32811 m -1.900733,1.90073 0.712956,-0.71296 m -2.193223,2.19323 -0.405511,0.40551 m -2.524863,2.52486 1.156523,-1.15652 m 16.762638,-16.36352 -0.4632,0.4632 m -2.291071,2.29107 0.07716,-0.0772 m -2.981085,2.98108 -0.146447,0.14645 m -4.890082,4.89008 0.617202,-0.6172 m -3.199039,3.19904 -0.201859,0.20186 m -1.679785,1.67978 0.181813,-0.18181 m -1.931894,1.93189 -0.795126,0.79513 m 17.201399,-16.80228 0.485976,-0.48597 m -2.469544,2.46954 -0.210593,0.21059 m -2.853413,2.85342 0.182403,-0.18241 m -4.473923,4.47393 -0.363063,0.36306 m -3.244154,3.24415 0.137789,-0.13779 m -3.737737,3.73774 -0.510151,0.51015 m 17.180464,-16.78134 0.340675,-0.34067 m -2.311593,2.31159 -0.346479,0.34648 m -2.617812,2.61781 0.236995,-0.237 m -4.514635,4.51464 -0.27749,0.27749 m -3.554652,3.55465 0.132121,-0.13212 m -3.794667,3.79467 -0.373026,0.37302 m 17.255726,-16.8566 0.259381,-0.25938 m -2.344777,2.34478 -0.365665,0.36566 m -2.422892,2.42289 0.291588,-0.29158 m -4.555348,4.55534 -0.244404,0.24441 m -3.837963,3.83796 0.17329,-0.17329 m -3.929436,3.92944 -0.23142,0.23142 m 17.380885,-16.98177 0.155991,-0.15599 m -2.462293,2.4623 -0.263089,0.26308 m -2.272749,2.27275 0.389202,-0.3892 m -4.622123,4.62212 -0.21215,0.21215 m -4.106033,4.10604 0.21446,-0.21446 m -4.016905,4.0169 -0.237356,0.23736 m 14.997114,-14.59799 0.202094,-0.2021 m -1.866737,1.86674 -0.54016,0.54016 m -4.405301,4.4053 0.200395,-0.20039 m -4.212934,4.21293 -1.056817,1.05682 m -3.255148,3.25514 0.238121,-0.23812 m 15.026873,-14.62775 -0.147036,0.14704 m -2.237833,2.23783 0.742203,-0.7422 m -4.868009,4.86801 -0.192177,0.19218 m -5.044704,5.0447 0.918057,-0.91806 m -4.354152,4.35415 -0.140394,0.1404 m 15.37255,-14.97343 0.213587,-0.21359 m -1.573138,1.57314 -0.926893,0.9269 m -4.227275,4.22727 0.184198,-0.1842 m -4.398583,4.39858 -0.588759,0.58876 m -4.121867,4.12187 0.176386,-0.17638 m 15.942534,-15.54342 -0.496095,0.4961 m -2.373396,2.37339 1.267033,-1.26703 m -5.217939,5.21794 -0.156025,0.15603 m -4.501407,4.5014 0.272264,-0.27226 m -4.980259,4.98026 -0.321179,0.32118 m 16.144338,-15.74522 2.08023,-2.08023 m -2.85336,2.85336 -0.23436,0.23436 m -1.424331,1.42433 0.177784,-0.17778 m -4.024512,4.02451 -0.147198,0.1472 m -4.287575,4.28757 0.130763,-0.13076 m -5.281413,5.28141 -0.953807,0.95381 m -9.981227,9.98123 2.866727,-2.86673 m 25.94861,-25.54949 -2.718065,2.71807 m -1.692262,1.69226 0.252081,-0.25208 m -3.982992,3.98299 -0.11283,0.11283 m -3.915727,3.91573 0.255937,-0.25594 m -6.555057,6.55506 -1.190301,1.1903 m -9.265012,9.26501 6.338284,-6.33828 m 22.336925,-21.93781 -0.422947,0.42295 m -1.780503,1.7805 0.662728,-0.66272 m -2.215496,2.21549 -0.411822,0.41182 m -3.649,3.649 0.0772,-0.0772 m -3.445589,3.44559 -0.256056,0.25605 m -11.631642,11.63165 4.136249,-4.13625 m -9.605122,9.60512 -0.228311,0.22831 m 26.811673,-26.41255 0.549804,-0.5498 m -2.166451,2.16645 -0.599493,0.59949 m -3.483176,3.48317 0.07969,-0.0797 m -3.236479,3.23648 -0.24911,0.24911 m -10.576273,10.57627 1.864616,-1.86462 m -8.850058,8.85006 -0.05711,0.0571 m 26.947973,-26.54885 0.424174,-0.42418 m -2.031629,2.03163 -0.839352,0.83935 m -3.329038,3.32904 0.139655,-0.13965 m -3.070554,3.07055 -0.237578,0.23758 m 9.168256,-8.76914 0.328836,-0.32883 m -1.929828,1.92983 -1.076481,1.07648 m -3.257899,3.2579 0.31211,-0.31211 m -2.95108,2.95108 -0.30555,0.30555 m 9.103827,-8.70471 0.255143,-0.25514 m -1.852027,1.85203 -0.123953,0.12395 m -1.191631,1.19163 0.140292,-0.14029 m -2.810122,2.81012 -3.300131,3.30013 m 9.099947,-8.70082 0.187867,-0.18787 m -3.158241,3.15824 -0.37909,0.37909 m -3.694781,3.69478 1.554973,-1.55497 m -2.511045,2.51104 -0.949959,0.94996 m -17.871271,17.87127 0.08067,-0.0807 m 27.078987,-26.67987 -0.153709,0.15371 m -3.564686,3.56469 0.437147,-0.43715 m -1.854541,1.85454 -0.527267,0.52727 m -1.1524,1.1524 0.147623,-0.14763 m -1.543074,1.54308 -1.045034,1.04503 m -15.449944,15.44995 0.0951,-0.0951 m -2.12115,2.12115 -0.101356,0.10136 m 26.863975,-26.46485 0.116292,-0.1163 m -3.298355,3.29836 -2.413277,2.41328 m -3.724567,3.72456 1.266176,-1.26617 m -18.321646,18.32164 -0.137952,0.13795 m 26.697728,-26.2986 0.07408,-0.0741 m -3.259888,3.25988 -2.532591,2.53259 m -2.483753,2.48376 0.250663,-0.25067 m -1.025567,1.02557 -0.611368,0.61137 m -4.343387,4.34339 1.397454,-1.39746 m -12.636746,12.63675 -1.150008,1.15001 m 23.16289,-22.76377 0.190005,-0.19001 m -0.797065,0.79707 -1.892835,1.89283 m -2.059839,2.05984 0.104412,-0.10441 m -1.116898,1.1169 -5.179808,5.17981 m -5.118084,5.11808 0.79341,-0.79341 m -6.85313,6.85313 -0.85893,0.85893 m 23.136858,-22.73774 0.153843,-0.15384 m -0.941064,0.94107 -0.314072,0.31407 m -1.7251,1.7251 0.137475,-0.13748 m -2.960958,2.96096 -3.794841,3.79484 m -1.7836,1.7836 0.150028,-0.15003 m -2.840964,2.84097 -2.378828,2.37883 m -6.406397,6.40639 0.581975,-0.58197 m 22.579871,-22.18075 -0.110131,0.11013 m -1.188445,1.18845 0.23784,-0.23784 m -1.912043,1.91204 -1.237719,1.23772 m -1.714929,1.71493 0.108,-0.108 m -2.865533,2.86553 -0.928698,0.9287 m -5.109525,5.10952 3.1141,-3.1141 m -5.546994,5.547 -0.311538,0.31153 m -5.283025,5.28303 0.37561,-0.37561 m 22.696801,-22.29768 -0.09596,0.096 m -1.254372,1.25438 0.130618,-0.13062 m -1.88717,1.88717 -0.818096,0.81809 m -1.987309,1.98731 0.102672,-0.10267 m -3.692783,3.69278 -0.106193,0.1062 m -4.006542,4.00654 1.682633,-1.68263 m -5.891023,5.89102 -0.211376,0.21137 m -4.643477,4.64348 0.234244,-0.23424 m 25.119805,-24.72069 -0.367051,0.36706 m -2.141245,2.14124 0.141763,-0.14176 m -3.202682,3.20268 -0.389216,0.38922 m -2.285805,2.2858 0.09053,-0.0905 m -3.789753,3.78976 -0.06504,0.065 m -3.225996,3.226 0.283302,-0.2833 m -5.876191,5.87619 -0.305971,0.30597 m -3.752576,3.75257 0.06591,-0.0659 m 24.902683,-24.50357 -2.359244,2.35925 m -3.204688,3.20469 0.125405,-0.12541 m -2.462759,2.46276 -0.09522,0.0952 m -13.295581,13.29559 0.315696,-0.3157 m 20.966333,-20.56721 -2.219607,2.21961 m -3.070795,3.07079 0.07615,-0.0761 m -2.322311,2.32231 -0.179609,0.17961 m -14.026458,14.02645 0.230195,-0.23019 m 20.398933,-19.99981 -0.994004,0.994 m -2.974177,2.97418 0.0937,-0.0937 m -2.193927,2.19392 -0.318718,0.31872 m -16.104994,16.10499 1.790092,-1.79009 m 20.316398,-19.91727 -0.58313,0.58313 m -2.796632,2.79663 0.117183,-0.11718 m -2.065542,2.06554 -0.522099,0.5221 m -15.593391,15.59339 1.127742,-1.12774 m 20.047195,-19.64808 -0.289209,0.28921 m -2.631479,2.63148 0.153055,-0.15305 m -1.917578,1.91757 -0.966208,0.96621 m 5.376854,-4.97773 0.24114,-0.24114 m -2.506527,2.50653 -0.216594,0.21659 m -3.076034,3.07604 1.638887,-1.63889 m 4.143845,-3.74472 -0.246837,0.24683 m -3.879934,3.87994 1.904818,-1.90482 m -3.336336,3.33634 -0.405604,0.4056 m 5.694937,-5.29581 0.252533,-0.25254 m -1.937379,1.93738 -1.505849,1.50585 m -2.700211,2.70021 0.321791,-0.32179 m -3.836018,3.83602 -0.08174,0.0817 m 9.452972,-9.05385 0.232223,-0.23222 m -1.560077,1.56007 -0.983182,0.98318 m -3.638891,3.6389 0.211123,-0.21113 m -3.632886,3.63289 -0.119821,0.11982 m 8.305863,-7.90674 1.364424,-1.36443 m -6.027072,6.02708 -0.194554,0.19455 m -3.492057,3.49206 0.162759,-0.16276 m 9.215642,-8.81652 -0.537269,0.53727 m -5.416327,5.41633 0.177166,-0.17717 m -3.428934,3.42893 -0.174351,0.17435 m 3.443776,-3.04465 0.143488,-0.14349 m -3.402632,3.40264 -0.185946,0.18594 m 3.462746,-3.06362 0.10033,-0.10033 m -3.366848,3.36685 -0.204149,0.20414 m 3.49997,-3.10084 0.109241,-0.10924 m -3.394781,3.39478 -0.181696,0.18169 m 3.537826,-3.1387 0.06149,-0.0615 m -3.407335,3.40734 -0.159243,0.15924 m 3.575682,-3.17656 0.05355,-0.0536 m -3.459707,3.45971 -0.147767,0.14777 m 0.06465,0.33447 0.0934,-0.0934 m 0.05868,0.34044 -0.08743,0.0874 m 0.06465,0.33447 0.06831,-0.0683 m 0.06168,0.33744 -0.05166,0.0516 m 5.260646,-0.47117 0.05366,-0.0537 m 0.204738,0.19439 -0.06596,0.0659 m 0.192436,0.20669 0.07826,-0.0783 m 0.204737,0.19439 -0.109053,0.10905 m 0.150772,0.24835 0.163513,-0.16351 m 0.209105,0.19002 -0.391527,0.39152 m -0.819371,1.21849 1.420002,-1.42 m 0.209105,0.19002 -1.281184,1.28118 m 1.329861,-0.93073 0.160428,-0.16043 m 0.199038,0.20008 -0.144589,0.14459 m 0.215761,0.18336 0.117144,-0.11714 m 0.188316,0.21081 -0.121313,0.12131 m -2.868914,2.86891 0.100793,-0.10079 m 3.07775,-2.67863 -0.126537,0.12654 m -2.652329,2.65233 0.152386,-0.15239 m 2.78375,-2.38463 -0.11356,0.11357 m -2.48712,2.48712 0.246967,-0.24697 m 2.506797,-2.10768 -0.08937,0.0894 m -2.072324,2.07233 0.151523,-0.15152 m 2.163254,-1.76414 -0.125113,0.12512 m -1.711592,1.71159 0.172134,-0.17214 m 1.728558,-1.32943 -1.553467,1.55347 m 0.841608,-0.44249 0.822777,-0.82278"
         inkscape:connector-curvature="0" />
    </g>
  </g>
</svg>
