<?xml version="1.0" encoding="UTF-8" standalone="no"?>
<!-- Created with Inkscape (http://www.inkscape.org/) -->

<svg
   xmlns:dc="http://purl.org/dc/elements/1.1/"
   xmlns:cc="http://creativecommons.org/ns#"
   xmlns:rdf="http://www.w3.org/1999/02/22-rdf-syntax-ns#"
   xmlns:svg="http://www.w3.org/2000/svg"
   xmlns="http://www.w3.org/2000/svg"
   xmlns:sodipodi="http://sodipodi.sourceforge.net/DTD/sodipodi-0.dtd"
   xmlns:inkscape="http://www.inkscape.org/namespaces/inkscape"
   width="75mm"
   height="75mm"
   viewBox="0 0 75 75"
   version="1.1"
   id="svg1586"
   inkscape:version="0.92.2 2405546, 2018-03-11"
   sodipodi:docname="75.svg">
  <sodipodi:namedview
     id="base"
     pagecolor="#ffffff"
     bordercolor="#666666"
     borderopacity="1.0"
     inkscape:pageopacity="0.0"
     inkscape:pageshadow="2"
     inkscape:zoom="1.6515547"
     inkscape:cx="121.03123"
     inkscape:cy="149.86979"
     inkscape:document-units="mm"
     inkscape:current-layer="layer1"
     showgrid="false"
     inkscape:window-width="1366"
     inkscape:window-height="703"
     inkscape:window-x="0"
     inkscape:window-y="0"
     inkscape:window-maximized="1" />
  <defs
     id="defs1580" />
  <metadata
     id="metadata1583">
    <rdf:RDF>
      <cc:Work
         rdf:about="">
        <dc:format>image/svg+xml</dc:format>
        <dc:type
           rdf:resource="http://purl.org/dc/dcmitype/StillImage" />
        <dc:title></dc:title>
      </cc:Work>
    </rdf:RDF>
  </metadata>
  <g
     transform="translate(0,-222)"
     id="layer1"
     inkscape:groupmode="layer"
     inkscape:label="Layer 1">
    <g
       id="g1420">
      <path
         id="path1381"
         d="m 23.472726,237.26338 c 2.080679,-0.35545 3.078129,-1.57796 2.36884,-2.90335 -0.66634,-1.2451 -4.9593,-3.38711 -5.22012,-2.60462 -0.10299,0.30899 -1.03672,0.91674 -2.07496,1.35057 -1.61742,0.67584 -1.7892,0.90747 -1.19973,1.61776 0.86393,1.04102 4.59695,0.86809 4.3744,-0.20265 -0.0885,-0.42576 0.23025,-0.63745 0.79582,-0.52853 0.51891,0.0999 1.0295,0.62848 1.13467,1.17455 0.11413,0.59268 -0.0356,0.85273 -0.37131,0.6452 -0.83988,-0.5191 -4.49823,1.15606 -4.06293,1.86041 0.20833,0.33711 0.85861,0.43561 1.50876,0.22855 0.62844,-0.20014 1.86439,-0.4872 2.74656,-0.63789 z"
         style="fill:none;stroke:#0000ff;stroke-width:0.1;stroke-miterlimit:4;stroke-dasharray:none" />
      <path
         id="path1379"
         d="m 49.964097,248.19712 c 2.256708,-1.8736 2.594599,-3.21712 1.280848,-5.09284 -0.69735,-0.99565 -1.27077,-1.16797 -3.555911,-1.06853 -2.399778,0.10441 -2.842069,0.31137 -3.711077,1.73644 -1.29177,2.11834 -1.24737,2.66594 0.27228,3.35837 1.04489,0.47611 1.457597,0.38069 2.391058,-0.55281 0.620501,-0.62054 1.29775,-0.95867 1.505,-0.75142 0.207241,0.20726 -0.0561,0.69342 -0.585319,1.08038 -0.670761,0.49049 -0.850421,1.05554 -0.593251,1.86583 0.20288,0.63925 0.48914,1.16227 0.63613,1.16227 0.146981,0 1.2091,-0.78196 2.360242,-1.73769 z"
         style="fill:none;stroke:#0000ff;stroke-width:0.1;stroke-miterlimit:4;stroke-dasharray:none" />
      <path
         id="path1377"
         d="m 58.712566,249.81733 c 0.39929,-1.14017 0.305839,-1.67894 -0.43284,-2.49521 -0.765101,-0.84546 -0.82668,-1.25675 -0.32774,-2.18907 1.135619,-2.12202 -1.259871,-3.47477 -3.772169,-2.13017 -1.55325,0.83132 -1.370992,3.57237 0.326318,4.90753 0.748271,0.58861 1.32203,1.46535 1.275051,1.94831 -0.15045,1.54667 0.0137,1.75793 1.22991,1.58363 0.731129,-0.10479 1.38915,-0.73324 1.70147,-1.62502 z"
         style="fill:none;stroke:#0000ff;stroke-width:0.1;stroke-miterlimit:4;stroke-dasharray:none" />
      <path
         id="path1375"
         d="m 55.818905,253.14981 c 0,-0.22588 -0.36486,-0.71353 -0.8108,-1.08364 -0.445939,-0.37011 -0.74668,-1.30183 -0.668308,-2.07049 0.123759,-1.21387 -0.0795,-1.41909 -1.54614,-1.56145 -1.20486,-0.11693 -2.008982,0.18 -2.806901,1.0365 -1.526951,1.63908 -1.409521,2.33423 0.591841,3.50314 1.654439,0.96629 5.240308,1.08669 5.240308,0.17594 z"
         style="fill:none;stroke:#0000ff;stroke-width:0.1;stroke-miterlimit:4;stroke-dasharray:none" />
      <path
         id="path1373"
         d="m 57.127976,260.96795 c 0.75029,-0.69538 1.36416,-1.6763 1.36416,-2.17982 0,-1.27855 -2.89588,-4.04127 -4.236051,-4.04127 -1.461518,0 -1.49071,1.89753 -0.0411,2.67336 0.588111,0.31476 1.0693,0.82065 1.0693,1.12418 0,0.30858 -0.471429,0.40226 -1.0693,0.2125 -0.906978,-0.28788 -1.06929,-0.0961 -1.06929,1.26346 0,1.23713 0.27449,1.65573 1.20296,1.83457 0.66162,0.12745 1.250712,0.26448 1.309071,0.30453 0.0584,0.0401 0.71999,-0.49613 1.470279,-1.19151 z"
         style="fill:none;stroke:#0000ff;stroke-width:0.1;stroke-miterlimit:4;stroke-dasharray:none" />
      <path
         id="path1371"
         d="m 51.263656,262.59104 c 0.448731,-0.68488 0.82482,-1.82774 0.83575,-2.53969 0.0109,-0.71195 0.0325,-2.00808 0.0478,-2.8803 0.01781,-1.01363 -0.397099,-1.93001 -1.14999,-2.53969 -1.418198,-1.14845 -2.133849,-1.19161 -3.476638,-0.20969 -0.905402,0.66207 -0.93141,0.85002 -0.235852,1.70412 0.70812,0.86951 0.685792,0.92392 -0.236951,0.57742 -0.695049,-0.26101 -1.417047,-0.009 -2.272257,0.79509 -1.626262,1.52787 -1.582722,1.8629 0.373607,2.87461 0.894922,0.4628 1.895912,1.43138 2.224421,2.15242 0.77528,1.70164 2.795892,1.73578 3.890111,0.0657 z"
         style="fill:none;stroke:#0000ff;stroke-width:0.1;stroke-miterlimit:4;stroke-dasharray:none" />
      <path
         id="path1369"
         d="m 48.363225,268.09793 c 0.67682,-0.36223 0.95255,-0.9563 0.806561,-1.73768 -0.12201,-0.653 -0.239721,-1.30097 -0.261581,-1.43993 -0.0218,-0.13894 -0.41426,0.28212 -0.872008,0.93568 -0.457761,0.65357 -1.179542,1.18832 -1.603952,1.18832 -0.42441,0 -0.771649,0.3609 -0.771649,0.80201 0,0.92924 1.223669,1.04316 2.702629,0.2516 z"
         style="fill:none;stroke:#0000ff;stroke-width:0.1;stroke-miterlimit:4;stroke-dasharray:none" />
      <path
         id="path1367"
         d="m 43.236295,267.88949 c 1.144371,0.28723 1.475711,0.14541 1.704502,-0.72956 0.15621,-0.59734 0.74295,-1.20611 1.303869,-1.3528 0.56093,-0.1467 1.019879,-0.66108 1.019879,-1.14308 0,-1.35044 -2.463189,-3.50113 -4.009858,-3.50113 -1.991151,0 -4.009861,2.22192 -4.009861,4.41348 0,2.10386 0.9297,3.31873 1.91433,2.50152 0.36115,-0.29974 1.295849,-0.38453 2.077139,-0.18843 z"
         style="fill:none;stroke:#0000ff;stroke-width:0.1;stroke-miterlimit:4;stroke-dasharray:none" />
      <path
         id="path1365"
         d="m 38.243356,266.10864 -0.20722,-2.53969 -0.80728,1.69126 c -0.85771,1.79686 -0.60749,3.38812 0.53277,3.38812 0.49454,0 0.63047,-0.71661 0.48173,-2.53969 z"
         style="fill:none;stroke:#0000ff;stroke-width:0.1;stroke-miterlimit:4;stroke-dasharray:none" />
      <path
         id="path1363"
         d="m 55.176065,268.51137 c 0.30656,-0.36941 0.516462,-1.75287 0.46645,-3.07437 -0.085,-2.24577 -0.19522,-2.41457 -1.687219,-2.58406 -1.543129,-0.1753 -1.565351,-0.14716 -0.667149,0.84539 1.126739,1.24509 0.661628,1.91932 -0.72613,1.05262 -0.812171,-0.50724 -1.182672,-0.44476 -1.947281,0.3284 -0.903671,0.91376 -0.863809,1.02191 0.926989,2.51486 2.07345,1.72859 2.807261,1.91378 3.63434,0.91716 z"
         style="fill:none;stroke:#0000ff;stroke-width:0.1;stroke-miterlimit:4;stroke-dasharray:none" />
      <path
         id="path1361"
         d="m 27.833255,230.4151 c 0.339911,-0.73288 0.437341,-1.33251 0.21653,-1.33251 -0.678099,0 -2.195939,1.93567 -1.815889,2.31574 0.61084,0.61087 0.959419,0.39657 1.599359,-0.98323 z"
         style="fill:none;stroke:#0000ff;stroke-width:0.1;stroke-miterlimit:4;stroke-dasharray:none" />
      <path
         id="path1359"
         d="m 26.525326,232.1734 c -1.54948,-0.75938 -1.32565,-2.01674 0.54604,-3.06734 1.32374,-0.74303 1.534979,-0.73281 2.383039,0.11529 0.575381,0.57541 0.682751,0.93058 0.281331,0.93058 -0.35707,0 -0.64921,0.25481 -0.64921,0.56623 0,0.31143 0.26371,0.40323 0.58604,0.20402 0.363849,-0.22489 0.513809,0.0165 0.39552,0.63678 -0.224861,1.17907 -1.82453,1.45651 -3.54276,0.61444 z"
         style="fill:none;stroke:#0000ff;stroke-width:0.1;stroke-miterlimit:4;stroke-dasharray:none" />
      <path
         id="path1357"
         d="m 33.104345,269.15789 c 0.642351,-2.02394 5.525731,-7.33415 7.668091,-8.33833 1.413411,-0.6625 2.2179,-1.43849 2.415549,-2.32999 0.162981,-0.73518 1.289841,-2.39425 2.504141,-3.68684 1.944881,-2.07026 2.13944,-2.50022 1.633688,-3.61026 -0.691179,-1.51706 -3.300449,-3.19869 -6.188598,-3.98848 -2.82096,-0.77142 -5.60033,0.0806 -8.3414,2.55712 l -2.105351,1.90215 v -2.37763 c 0,-1.55022 0.491621,-3.29296 1.41273,-5.00793 5.176881,-9.63864 5.105111,-9.45723 4.876671,-12.3257 -0.29129,-3.65756 -3.06243,-7.65466 -5.9774,-8.62175 -2.64721,-0.87826 -5.665311,-0.0204 -8.14011,2.31376 -2.84497,2.68327 -2.31155,4.14725 2.47005,6.77899 1.48657,0.8182 1.67708,1.17338 1.532079,2.85643 -0.14801,1.71807 0.0145,1.99778 1.531321,2.63558 1.27965,0.53807 1.77911,1.15178 2.03124,2.49585 0.41153,2.1937 -0.0951,3.5761 -2.902891,7.92046 -2.591029,4.00901 -3.784109,7.66921 -3.784109,11.60914 0,4.62501 1.39386,6.99771 5.43768,9.2563 2.34486,1.30967 3.50227,1.29821 3.926619,-0.0389 z"
         style="fill:none;stroke:#0000ff;stroke-width:0.1;stroke-miterlimit:4;stroke-dasharray:none" />
      <path
         id="path1355"
         d="m 51.305865,270.55237 c 0.98892,-0.73307 0.993711,-0.81409 0.10174,-1.71904 -0.887479,-0.9004 -1.016648,-0.9021 -2.48839,-0.0327 -0.85379,0.50437 -2.224958,0.91703 -3.04705,0.91703 -2.056379,0 -0.984629,0.93368 1.39238,1.213 1.029192,0.12093 2.126012,0.25839 2.437381,0.30545 0.31137,0.0471 1.033151,-0.26063 1.603939,-0.68376 z"
         style="fill:none;stroke:#0000ff;stroke-width:0.1;stroke-miterlimit:4;stroke-dasharray:none" />
      <path
         id="path1353"
         d="m 53.477676,293.14038 c 0.692639,-0.69268 0.661969,-0.94101 -0.25626,-2.07502 -1.029329,-1.27124 -1.05783,-1.27481 -2.16662,-0.27132 -1.439571,1.30286 -2.138791,0.66569 -0.842031,-0.76728 0.959311,-1.06008 0.94342,-1.12345 -0.70876,-2.82816 -1.20818,-1.24657 -1.947339,-2.78638 -2.59239,-5.40043 -0.906878,-3.67509 -0.86006,-4.28308 0.68831,-8.93887 0.215702,-0.64863 -0.128288,-0.92964 -1.359169,-1.11029 -1.284291,-0.18851 -1.824361,0.0273 -2.44729,0.97809 -0.439621,0.671 -1.342189,1.72761 -2.00568,2.34803 -1.0903,1.01954 -1.12046,1.1764 -0.31356,1.63059 0.742529,0.41796 0.88016,1.33436 0.81788,5.44567 -0.0899,5.93778 0.634309,8.31944 3.22041,10.59017 1.732529,1.52125 2.18812,1.66518 4.551789,1.43805 1.444601,-0.1388 2.980611,-0.60646 3.413371,-1.03923 z"
         style="fill:none;stroke:#0000ff;stroke-width:0.1;stroke-miterlimit:4;stroke-dasharray:none" />
      <path
         id="path1351"
         d="m 19.915076,294.3126 c 0.20157,-1.45723 1.00411,-2.67336 1.76417,-2.67336 0.26483,0 0.0886,0.59965 -0.39158,1.33256 -1.1144,1.70087 -0.63939,2.94482 1.12451,2.94482 1.7932,0 3.64486,-2.03254 4.48776,-4.92615 1.02346,-3.51345 2.866409,-5.93946 6.185849,-8.14288 1.664091,-1.10461 3.109061,-2.28515 3.211051,-2.62342 0.10199,-0.33828 0.32448,-1.25306 0.49441,-2.03283 0.20481,-0.93983 1.09549,-1.87874 2.64205,-2.78512 2.520889,-1.47741 4.08871,-3.42936 4.08871,-5.0905 0,-1.37386 -0.822151,-1.59046 -3.70384,-0.97583 -2.1246,0.45316 -2.48212,0.38533 -3.30129,-0.62635 -0.50526,-0.62401 -1.05436,-1.13455 -1.22021,-1.13455 -0.77748,0 -1.93317,3.41706 -1.93497,5.72118 -0.003,3.97585 -3.47213,8.97695 -9.24825,13.33261 -1.82267,1.37444 -4.33647,3.47417 -5.58622,4.66606 -2.99945,2.86061 -3.0672,4.84845 -0.15367,4.50865 0.98588,-0.11497 1.40717,-0.52352 1.54152,-1.49489 z"
         style="fill:none;stroke:#0000ff;stroke-width:0.1;stroke-miterlimit:4;stroke-dasharray:none" />
      <path
         id="path1218"
         d="m 16.080906,296.20083 c -0.49237,-0.49239 -0.89432,-1.17883 -0.89322,-1.52541 0.005,-1.40464 2.28552,-4.22196 5.15888,-6.37169 7.9431,-5.9427 11.94784,-10.82309 11.94784,-14.56027 0,-2.04468 -0.14018,-2.25763 -1.90665,-2.89643 -2.274661,-0.82256 -5.35153,-3.41704 -6.35595,-5.35947 -2.37825,-4.59925 -1.39014,-11.16525 2.69521,-17.90979 2.88822,-4.76819 3.52368,-7.1483 2.2015,-8.24568 -1.0353,-0.85925 -6.16327,-1.22815 -7.29005,-0.52443 -1.17743,0.73536 -2.61741,0.2547 -3.06937,-1.02452 -0.18418,-0.52129 -0.80197,-1.4677 -1.37288,-2.10312 -1.29987,-1.44676 -1.03892,-3.06841 0.5298,-3.2923 1.46928,-0.2097 2.77578,-1.96906 2.4337,-3.27726 -0.39131,-1.49641 1.14325,-3.95295 3.48169,-5.57357 1.59888,-1.10807 2.76648,-1.47037 4.78915,-1.48603 3.28333,-0.0255 4.3439,0.51521 6.71307,3.42208 3.88389,4.76537 3.79997,9.69041 -0.27249,15.9916 -2.06156,3.18977 -3.94146,7.40093 -3.30386,7.40093 0.16211,0 0.93556,-0.45633 1.71879,-1.01407 1.86212,-1.326 5.58244,-2.3088 7.20152,-1.90241 1.10691,0.27782 1.396649,0.0375 2.112921,-1.75275 0.45656,-1.14109 1.151408,-2.31975 1.544108,-2.61923 1.14694,-0.87465 5.855171,-0.81399 7.239781,0.0933 0.914641,0.59932 1.50591,0.66724 2.26622,0.26032 0.565779,-0.30281 1.604049,-0.55057 2.307259,-0.55057 1.603991,0 3.75395,2.19397 3.302622,3.3702 -0.18215,0.47469 -0.0614,1.68046 0.26825,2.67947 0.73428,2.225 -0.01669,4.61698 -1.577692,5.02521 -1.409589,0.36864 -1.340228,1.30103 0.273762,3.67947 1.586849,2.33846 1.709669,4.17063 0.34403,5.13188 -1.213742,0.85431 -1.863201,2.76447 -1.773082,5.21489 0.0711,1.93224 -1.121518,3.77118 -2.445678,3.77118 -0.422641,0 -1.380162,0.48121 -2.127833,1.06935 -0.747659,0.58814 -1.775438,1.06934 -2.283938,1.06934 -1.456899,0 -2.8759,4.32679 -2.456331,7.48982 0.555741,4.1896 1.30108,5.63757 4.12978,8.02287 4.455481,3.75709 4.550241,5.84334 0.317191,6.98324 -3.025129,0.81462 -5.190461,0.25862 -7.41757,-1.90468 -2.69735,-2.62004 -3.82729,-7.11974 -3.13772,-12.49509 0.305271,-2.37978 0.21904,-2.72604 -0.79375,-3.18752 -1.45597,-0.66342 -2.93903,0.12838 -2.93903,1.56914 0,1.75666 -0.90691,2.94906 -3.32935,4.37734 -3.29281,1.94148 -4.99304,3.95941 -6.30544,7.48368 -1.86806,5.01638 -2.92818,5.90844 -7.31622,6.1564 -2.95646,0.16706 -3.89629,0.0273 -4.60897,-0.68541 z"
         style="fill:none;stroke:#ff0000;stroke-width:0.1;stroke-miterlimit:4;stroke-dasharray:none" />
      <path
         id="path1335"
         style="fill:none;stroke:#0000ff;stroke-width:0.1"
         d="m 23.506444,223.8184 -2.385478,2.38548 m -0.366485,0.76561 3.867725,-3.86773 m 0.496514,-0.0974 -4.658354,4.65836 m 3.490846,-3.09173 1.89078,-1.89078 m -4.101737,4.10174 -1.281324,1.28132 m 4.520081,-4.12095 1.369984,-1.36999 m -5.428838,5.42884 -0.532978,0.53298 m 5.57189,-5.17277 0.936371,-0.93637 m -6.016333,6.01633 -0.48268,0.48268 m 6.267507,-5.86838 0.655061,-0.65506 m -6.439562,6.43956 -0.420018,0.42002 m 6.59568,-6.19656 0.68862,-0.68862 m -6.773362,6.77336 -0.471212,0.47121 m -3.829842,3.82985 0.85898,-0.85898 m 10.713186,-10.31407 -0.541865,0.54187 m -7.228065,7.22806 0.644912,-0.64491 m -3.044865,3.04486 -1.444372,1.44438 m 11.467324,-11.0682 0.486567,-0.48657 m -7.315733,7.31573 -4.558463,4.55846 m 11.874245,-11.47512 0.391988,-0.39199 m -7.558848,7.55885 -2.91551,2.91551 m -1.705407,1.70541 0.05901,-0.059 m 12.533486,-12.13436 -0.377873,0.37787 m -9.667789,9.66779 2.254588,-2.25459 m -4.590115,4.59012 -0.07872,0.0787 m 12.44355,-12.04443 0.372503,-0.37251 m -7.944244,7.94425 -1.749913,1.74991 m -2.978549,2.97855 0.100904,-0.1009 m 12.935333,-12.53621 -0.36851,0.36851 m -8.563815,8.56381 0.827527,-0.82753 m -4.602537,4.60254 -0.156893,0.15689 m 12.863242,-12.46412 0.36633,-0.36633 m -8.267167,8.26717 -0.673212,0.67321 m -4.117198,4.1172 0.203829,-0.20383 m 13.179362,-12.78024 -0.380003,0.38001 m -8.588387,8.58838 0.587379,-0.58738 m -4.503409,4.50341 -0.326452,0.32645 m 13.151082,-12.75195 0.385403,-0.38541 m -8.472985,8.47299 -0.520878,0.52088 m -4.370303,4.3703 0.469236,-0.46924 m 13.200239,-12.80112 -0.3705,0.3705 m -8.647137,8.64714 0.472982,-0.47298 m -4.356297,4.3563 -0.596204,0.5962 m 13.405685,-13.00656 0.375632,-0.37563 m -8.595177,8.59517 -0.422116,0.42212 m -4.591705,4.5917 0.76848,-0.76848 m 13.125456,-12.72633 -0.387282,0.38728 m -8.639623,8.63963 0.380429,-0.38043 m -4.124656,4.12465 -0.952217,0.95222 m 13.609357,-13.21023 0.360169,-0.36017 m -8.658996,8.65899 -0.33876,0.33876 m -4.832372,4.83237 1.204386,-1.20438 m 12.871918,-12.4728 -0.333056,0.33306 m -8.664591,8.66459 0.343953,-0.34395 m -3.818435,3.81843 -1.464777,1.46478 m 13.84722,-13.4481 0.328911,-0.32891 m -6.413613,6.41361 -0.386482,0.38649 m -2.187246,2.18724 0.3459,-0.3459 m -3.581333,3.58133 -1.81396,1.81396 m 13.940755,-13.54163 0.312305,-0.3123 m -5.851993,5.85199 -1.295599,1.2956 m -1.806545,1.80654 0.347848,-0.34784 m -2.092027,2.09202 -0.284767,0.28477 m -3.131261,3.13126 2.269597,-2.2696 m 12.061073,-11.66195 -0.295698,0.2957 m -7.055215,7.05522 0.12186,-0.12186 m -1.342084,1.34208 -0.349796,0.3498 m -3.333284,3.33328 1.676102,-1.6761 m -3.557899,3.5579 -0.06461,0.0646 m 14.137859,-13.73874 0.276933,-0.27693 m -4.938322,4.93832 -0.101182,0.10118 m -3.846065,3.84607 0.351743,-0.35174 m -1.996984,1.99698 -1.211188,1.21119 m -2.517767,2.51776 0.120575,-0.12057 m 14.328156,-13.92903 -0.236165,0.23616 m -4.929352,4.92935 0.338959,-0.33896 m -3.644756,3.64476 -0.353691,0.35369 m -2.536352,2.53635 0.856541,-0.85654 m -3.550779,3.55078 -0.209899,0.2099 m 14.231482,-13.83236 0.222978,-0.22298 m -4.803556,4.80356 -0.590325,0.59032 m -3.375959,3.37596 0.357302,-0.3573 m -2.111136,2.11114 -0.581021,0.58102 m -3.125692,3.12569 0.304898,-0.3049 m 14.114455,-13.71533 -0.209792,0.20979 m -5.554247,5.55425 0.983485,-0.98349 m -3.575419,3.57542 -0.384188,0.38419 m -2.175128,2.17513 0.319302,-0.3193 m -3.142749,3.14274 -0.419877,0.41988 m 14.150974,-13.75185 0.196605,-0.19661 m -4.771378,4.77138 -2.476221,2.47623 m -1.462883,1.46288 0.411074,-0.41108 m -5.128355,5.12836 -0.61953,0.61953 m 14.052841,-13.65372 0.183418,-0.18342 m -4.773065,4.77307 -2.381325,2.38132 m -1.526531,1.52653 0.428483,-0.42848 m -4.844431,4.84443 -0.81031,0.81031 m 13.921972,-13.52285 0.174173,-0.17417 m -5.69056,5.69056 -1.347406,1.34741 m -1.653622,1.65362 0.438593,-0.4386 m -4.51298,4.51298 -0.898931,0.89893 m 13.666607,-13.26748 0.187266,-0.18726 m -5.735436,5.73543 -1.1758,1.1758 m -1.791021,1.79102 0.448702,-0.4487 m -4.181526,4.18153 -0.918149,0.91814 m 13.341837,-12.94271 0.200359,-0.20036 m -5.62803,5.62803 -1.117157,1.11716 m -1.99998,1.99998 0.3908,-0.3908 m -3.74982,3.74982 -0.596194,0.59619 m 12.675895,-12.27677 0.194311,-0.19431 m -5.262807,5.26281 -1.291942,1.29194 m -2.262095,2.26209 0.375049,-0.37505 m -3.284603,3.28461 -0.686164,0.68616 m 12.394124,-11.995 0.183748,-0.18375 m -5.431854,5.43186 -0.829801,0.8298 m -2.639426,2.63942 0.27875,-0.27875 m -2.597151,2.59715 -0.895167,0.89517 m 12.105837,-11.70671 0.174123,-0.17413 m -5.778974,5.77898 -0.145048,0.14504 m -3.114354,3.11436 0.238555,-0.23856 m -1.954676,1.95468 -1.13112,1.13112 m 11.862469,-11.46335 0.188458,-0.18846 m -8.923478,8.92348 -2.730458,2.73046 m 11.616453,-11.21733 0.202793,-0.20279 m -9.158366,9.15836 -2.263891,2.26389 m 11.37044,-10.97131 0.217127,-0.21713 m -9.338083,9.33808 -1.852493,1.8525 m 11.124424,-10.72531 0.231462,-0.23146 m -9.423174,9.42318 -1.535722,1.53572 m 10.880344,-10.48122 0.238027,-0.23803 m -9.499521,9.49952 -1.22376,1.22376 m 10.610118,-10.211 0.254047,-0.25404 m -9.508373,9.50837 -1.020893,1.02089 m 10.400084,-10.00096 0.270066,-0.27006 m -9.469572,9.46957 -0.850171,0.85017 m 10.174542,-9.77542 0.286086,-0.28609 m -9.38431,9.38431 -0.725911,0.72592 m 9.949,-9.54988 0.286421,-0.28642 m -9.260005,9.26 -0.625009,0.62501 m 9.724205,-9.32508 0.282514,-0.28252 m -9.113499,9.1135 -0.542813,0.54282 m 9.4683,-9.06918 0.309718,-0.30972 m -8.966994,8.96699 -0.460618,0.46062 m 9.212396,-8.81327 0.323913,-0.32391 m -8.808159,8.80815 -0.418347,0.41835 m 8.997095,-8.59797 0.32918,-0.32918 m -8.645481,8.64548 -0.370804,0.3708 m 8.781606,-8.38248 0.334448,-0.33445 m -8.482804,8.48281 -0.323262,0.32326 m 8.55238,-8.15326 0.338966,-0.33896 m -8.311763,8.31176 -0.323304,0.3233 m 8.351145,-7.95202 0.358509,-0.35851 m -8.175609,8.17561 -0.272888,0.27289 m 8.145033,-7.74591 0.378051,-0.37805 m -8.039454,8.03945 -0.273452,0.27345 m 7.989899,-7.59077 0.3756,-0.3756 m -7.923607,7.9236 -0.25833,0.25833 m 7.854503,-7.45538 0.372988,-0.37299 m -7.822988,7.82299 -0.227605,0.22761 m 7.704198,-7.30508 0.39195,-0.39195 m -7.72237,7.72237 -0.268853,0.26886 m 7.635859,-7.23674 0.36283,-0.36283 m -7.660603,7.6606 -0.207103,0.2071 m 7.503534,-7.10441 0.376089,-0.37609 m -7.586037,7.58604 -0.280246,0.28025 m 7.468096,-7.06898 0.477094,-0.47709 m -7.602985,7.60298 -0.319838,0.31984 m 7.425113,-7.02599 0.376285,-0.37628 m -7.433436,7.43343 -0.422569,0.42257 m 7.417927,-7.0188 0.410794,-0.4108 m -7.34922,7.34922 -0.564627,0.56463 m 7.329386,-6.93026 0.491291,-0.49129 m -7.283431,7.28343 -0.700042,0.70004 m 7.311716,-6.91259 0.598478,-0.59848 m -7.151303,7.1513 -0.931733,0.93173 m 7.119414,-6.72029 0.774414,-0.77441 m -7.132908,7.13291 -1.082131,1.08213 m 7.07548,-6.67636 0.980938,-0.98094 m -7.153875,7.15388 -1.215412,1.21541 m 7.023204,-6.62408 1.187461,-1.18746 m -7.029307,7.0293 -1.680776,1.68078 m 7.176304,-6.77718 1.493608,-1.49361 m -7.463836,7.46384 -1.705494,1.70549 m 7.220434,-6.82131 1.406361,-1.40636 m -7.471917,7.47191 -1.889366,1.88937 m 7.499634,-7.10051 1.545305,-1.54531 m -7.819976,7.81998 -1.484805,1.4848 m 7.304187,-6.90506 1.883054,-1.88305 m -8.337507,8.3375 -1.338931,1.33893 m 7.338096,-6.93897 1.420794,-1.42079 m -7.811252,7.81125 -1.541887,1.54189 m 7.477056,-7.07794 1.364877,-1.36488 m -8.159332,8.15934 -0.958454,0.95845 m 6.950617,-6.55149 1.542983,-1.54299 m -7.98429,7.98429 -0.823797,0.8238 m 7.181109,-6.78199 1.053215,-1.05321 m -7.829414,7.82941 -1.018898,1.0189 m 7.345558,-6.94643 1.321764,-1.32177 m -7.974235,7.97424 -0.686822,0.68682 m 7.156845,-6.75772 0.8446,-0.8446 m -7.641901,7.6419 -0.555091,0.55509 m 7.074822,-6.6757 0.728853,-0.72885 m -7.454942,7.45494 -0.54428,0.54428 m 7.179146,-6.78003 0.677553,-0.67755 m -7.544749,7.54475 -0.740553,0.74055 m 7.497569,-7.09844 0.389511,-0.38951 m -7.306595,7.30659 -0.529391,0.52939 m 7.348282,-6.94916 0.243222,-0.24322 m -7.220342,7.22034 -0.478513,0.47852 m 7.422663,-7.02355 0.284243,-0.28424 m -7.37493,7.37493 -0.439327,0.43933 m 7.450829,-7.05171 0.25335,-0.25335 m -7.354825,7.35483 -0.456706,0.4567 m 7.586537,-7.18741 0.403001,-0.403 m -7.632692,7.63269 -0.492462,0.49246 m 7.722153,-7.32303 1.061783,-1.06178 m -8.360845,8.36084 -0.460769,0.46077 m 7.759831,-7.36071 2.163608,-2.1636 m -9.525615,9.52561 -0.435503,0.4355 m 7.79751,-7.39838 2.979975,-2.97998 m -10.395331,10.39533 -0.419833,0.41983 m 7.835189,-7.43606 3.851374,-3.85138 m -11.320079,11.32008 -0.404163,0.40417 m 9.842294,-9.44318 2.395734,-2.39573 m -11.842244,11.84224 -0.459574,0.45958 m 11.922675,-11.52355 0.985734,-0.98574 m -12.464787,12.46479 -0.423445,0.42344 m 12.858565,-12.45944 0.869615,-0.86961 m -13.320687,13.32068 -0.387317,0.38732 m 13.450013,-13.05089 0.610365,-0.61036 m -13.620988,13.62098 -0.419213,0.41922 m 13.97787,-13.57875 0.551755,-0.55176 m -14.142851,14.14286 -0.366598,0.36659 m 14.513416,-14.11429 0.485458,-0.48546 m -14.616368,14.61637 -0.36233,0.36233 m 14.986601,-14.58748 0.621984,-0.62198 m -15.230346,15.23034 -0.354736,0.35474 m 15.393113,-14.99399 0.521779,-0.52178 m -15.544248,15.54425 -0.300414,0.30041 m 15.760063,-15.36094 0.497674,-0.49767 m -15.895876,15.89587 -0.29163,0.29163 m 20.337306,-19.93818 0.897208,-0.89721 m -4.651863,4.65186 -0.51084,0.51084 m -16.001581,16.00159 0.272655,-0.27266 m 21.252,-20.85288 -1.335774,1.33578 m -3.810041,3.81004 0.538654,-0.53866 m -16.593584,16.59359 -0.25368,0.25368 m 19.38316,-18.98404 2.62128,-2.62128 m -4.855634,4.85563 -0.462938,0.46294 m -16.615637,16.61564 0.234704,-0.2347 m 22.148482,-21.74936 -3.091006,3.091 m -2.345618,2.34562 0.529456,-0.52946 m -17.150272,17.15028 -0.249529,0.24953 m 21.857216,-21.4581 0.953428,-0.95343 m -2.681792,2.6818 -2.926429,2.92643 m -17.098223,17.09822 0.23513,-0.23513 m 22.848001,-22.44888 -0.613724,0.61372 m -5.039105,5.03911 1.816996,-1.817 m -18.922368,18.92237 -0.22073,0.22073 m 22.800163,-22.40104 0.588115,-0.58811 m -4.414198,4.41419 -1.343323,1.34333 m -17.523822,17.52382 0.203596,-0.2036 m 23.492689,-23.09356 -0.570073,0.57007 m -5.308016,5.30801 1.048205,-1.0482 m -18.543951,18.54395 -0.196816,0.19682 m 23.433562,-23.03444 0.517071,-0.51707 m -5.106471,5.10647 -0.857226,0.85722 m -17.861301,17.8613 0.200023,-0.20002 m 24.004958,-23.60583 -0.500089,0.50008 m -5.549217,5.54922 0.712766,-0.71276 m -18.539576,18.53957 -0.203419,0.20342 m 24.003889,-23.60477 0.457271,-0.45727 m -5.540246,5.54025 -0.596311,0.59631 m -18.17174,18.17174 0.179397,-0.1794 m 24.48122,-24.08209 -0.40621,0.40621 m -5.788293,5.78829 0.551426,-0.55143 m -18.697068,18.69707 -0.167608,0.16761 m 24.504923,-24.1058 0.35515,-0.35515 m -5.745907,5.74591 -0.506541,0.50654 m -18.453568,18.45356 0.179274,-0.17927 m 24.877227,-24.47811 -0.351919,0.35192 m -5.973848,5.97385 0.478864,-0.47886 m -18.8646,18.8646 -0.167732,0.16773 m 24.875702,-24.47658 0.323737,-0.32374 m -5.905268,5.90527 -0.480636,0.48064 m -18.636269,18.63627 0.156189,-0.15619 m 25.186188,-24.78707 -0.295556,0.29556 m -6.150485,6.15048 0.514097,-0.51409 m -19.08852,19.08852 -0.144647,0.14464 m 25.133617,-24.73449 0.333597,-0.3336 m -5.969584,5.96959 -0.518493,0.51849 m -18.786156,18.78615 0.140747,-0.14074 m 25.40798,-25.00886 -0.346516,0.34652 m -6.155988,6.15598 0.652961,-0.65296 m -19.360045,19.36005 -0.136665,0.13666 m 25.251531,-24.85241 0.367276,-0.36727 m -4.841581,4.84158 -1.67341,1.67341 m -18.901342,18.90134 0.132582,-0.13258 m 25.540579,-25.14146 -0.437356,0.43736 m -6.074395,6.07439 2.388445,-2.38844 m -21.21888,21.21888 -0.1285,0.1285 m 25.220076,-24.82095 0.507437,-0.50744 m -3.861826,3.86182 -2.655554,2.65556 m -19.007659,19.00766 0.124418,-0.12442 m 25.688728,-25.28961 -0.609847,0.60985 m -5.962197,5.9622 2.410108,-2.41011 m -21.306089,21.30609 -0.142646,0.14265 m 25.151953,-24.75283 0.767963,-0.76797 m -5.828669,5.82867 -0.819176,0.81918 m -19.069597,19.06959 0.16585,-0.16584 m 25.925697,-25.52658 -0.99094,0.99094 m -5.797565,5.79756 0.659829,-0.65982 m -19.571343,19.57134 -0.189054,0.18905 m 25.044827,-24.6457 1.538979,-1.53898 m -6.758248,6.75825 -0.510721,0.51072 m -19.089101,19.0891 0.188996,-0.189 m 26.56628,-26.16715 -1.822305,1.8223 m -5.631239,5.63124 0.423565,-0.42357 m -19.310624,19.31063 -0.184201,0.1842 m 24.832779,-24.43366 2.422961,-2.42296 m -7.644254,7.64426 -0.327595,0.32759 m -19.053419,19.05342 0.191368,-0.19137 m 27.266433,-26.86731 -2.799268,2.79927 m -5.412293,5.41229 0.251435,-0.25143 m -19.059038,19.05904 -0.208165,0.20816 m 26.953289,-26.55417 0.735026,-0.73502 m -2.380025,2.38002 -0.794884,0.79489 m -5.311162,5.31116 0.252175,-0.25218 m -18.998984,18.99899 -0.224962,0.22496 m 27.233312,-26.83419 0.687203,-0.6872 m -3.064121,3.06412 -0.731028,0.73103 m -4.962986,4.96298 0.246217,-0.24621 m -18.936366,18.93636 -0.241759,0.24176 m 27.536842,-27.13772 0.498606,-0.49861 m -3.449568,3.44957 -0.911651,0.91165 m -4.592333,4.59234 0.951604,-0.95161 m -19.544472,19.54447 -0.258556,0.25856 m 27.682262,-27.28314 0.442522,-0.44252 m -3.732546,3.73255 -5.390825,5.39082 m -18.770941,18.77094 0.270978,-0.27098 m 27.905089,-27.50596 -0.314759,0.31476 m -8.961124,8.96112 5.319827,-5.31983 m -23.67862,23.67862 -0.287479,0.28748 m 27.976583,-27.57746 0.213968,-0.21397 m -4.137638,4.13764 -5.311627,5.31163 m -18.486434,18.48643 0.303041,-0.30304 m 27.875319,-27.4762 -0.186997,0.187 m -5.875255,5.87526 1.787356,-1.78736 m -4.226198,4.2262 -1.067201,1.0672 m -18.355214,18.35521 0.318604,-0.3186 m 27.848251,-27.44913 -0.138494,0.1385 m -5.666016,5.66601 1.3975,-1.3975 m -4.56441,4.56441 -0.819352,0.81935 m -18.111346,18.11135 0.32428,-0.32428 m 27.789937,-27.39082 -0.116396,0.1164 m -5.485794,5.48579 1.129842,-1.12984 m -4.635508,4.63551 -1.69234,1.69234 m -17.036284,17.03629 0.316956,-0.31696 m 27.731623,-27.3325 -0.110539,0.11054 m -5.308333,5.30833 0.890739,-0.89074 m -4.680174,4.68018 -3.762045,3.76204 m -14.800489,14.80049 0.308843,-0.30884 m 27.658683,-27.25956 -0.103701,0.1037 m -5.181429,5.18143 0.716627,-0.71663 m -4.65206,4.65206 -4.635324,4.63532 m -8.935016,8.93502 3.167105,-3.16711 m -7.726314,7.72632 -0.339677,0.33968 m 27.720132,-27.32102 0.152038,-0.15203 m -4.555215,4.55521 -0.529982,0.52998 m -9.61346,9.61346 5.477227,-5.47722 m -8.654397,8.65439 -2.342658,2.34266 m -3.659238,3.65924 2.860667,-2.86067 m -6.215576,6.21558 -0.356571,0.35657 M 58.461835,243.5428 58.6305,243.37413 m -4.530788,4.53079 -0.38393,0.38393 m -5.226173,5.22617 0.97776,-0.97776 m -2.897384,2.89739 -3.092882,3.09288 m -5.149027,5.14902 2.645251,-2.64525 m -3.900384,3.90039 -3.217169,3.21717 m -2.70873,2.70873 0.434493,-0.4345 m 27.195071,-26.79594 -0.291854,0.29185 m -4.493066,4.49306 0.30846,-0.30845 m -4.598473,4.59847 -0.735528,0.73553 m -2.908412,2.90841 0.59265,-0.59265 m -3.227446,3.22744 -5.064754,5.06476 m -4.970303,4.9703 3.591434,-3.59143 m -4.882174,4.88217 -0.668342,0.66834 m 27.116573,-26.71745 0.377344,-0.37734 m -4.416069,4.41607 -0.248771,0.24877 m -4.890752,4.89075 0.568857,-0.56886 m -3.107735,3.10774 -0.350444,0.35044 m -8.08951,8.08951 5.031466,-5.03146 m -6.707177,6.70717 -1.246751,1.24675 m -3.77703,3.77704 2.771511,-2.77152 m 24.541152,-24.14203 -0.780284,0.78029 m -3.775212,3.77521 0.267515,-0.26752 m -4.543194,4.5432 -0.491999,0.492 m -2.851036,2.85104 0.168016,-0.16802 m -3.433314,3.43331 -1.632554,1.63256 m -3.511,3.511 1.368775,-1.36878 m -3.282716,3.28272 -0.811837,0.81183 m -3.764026,3.76403 1.882744,-1.88274 m 25.180866,-24.78175 -1.013052,1.01305 m -3.412493,3.4125 0.338231,-0.33823 m -4.50573,4.50573 -0.434546,0.43454 m -7.322402,7.32241 1.120722,-1.12073 m -4.631251,4.63125 -0.683176,0.68318 m -2.519755,2.51976 0.500704,-0.50071 m -2.598269,2.59827 -1.708479,1.70848 m 25.764565,-25.36544 1.166557,-1.16656 m -3.97365,3.97365 -0.443603,0.4436 m -4.395836,4.39584 0.431719,-0.43172 m -6.683769,6.68377 -0.887158,0.88716 m -4.622917,4.62291 0.599694,-0.59969 m -2.619393,2.61939 -0.331856,0.33186 m -3.838455,3.83845 1.220159,-1.22016 m 25.465245,-25.06612 -0.974361,0.97436 m -3.414846,3.41485 0.659239,-0.65924 m -4.298281,4.29828 -0.473858,0.47386 m -7.023695,7.0237 0.790824,-0.79083 m -5.260992,5.26099 -0.500946,0.50095 m -2.158758,2.15876 0.204748,-0.20475 m -3.154391,3.15439 -0.948153,0.94815 m 25.707561,-25.30844 0.791675,-0.79167 m -3.539066,3.53906 -0.756079,0.75608 m -3.916265,3.91627 0.515773,-0.51577 m -6.734767,6.73476 -0.657291,0.65729 m -5.298526,5.29853 0.496346,-0.49635 m -2.418561,2.41856 -0.101731,0.10173 m -4.039651,4.03966 0.764358,-0.76436 m 25.73513,-25.33601 -0.666136,0.66614 m -3.671561,3.67156 0.839816,-0.83982 m -3.939217,3.93922 -0.587519,0.58752 m -6.807153,6.80715 0.602037,-0.60204 m -5.742491,5.74249 -0.445057,0.44506 m -1.851281,1.85128 0.07269,-0.0727 m -3.589187,3.58919 -0.651129,0.65113 m 25.945261,-25.54614 0.544954,-0.54495 m -3.47465,3.47465 -0.845413,0.84541 m -3.522119,3.52212 0.659265,-0.65927 m -6.850228,6.85023 -0.566647,0.56665 m -5.908798,5.9088 0.563993,-0.564 m -2.117085,2.11709 -0.06625,0.0663 m -4.346788,4.34678 0.566231,-0.56623 m 25.98028,-25.58116 -0.444141,0.44415 m -3.856185,3.85618 0.673087,-0.67309 m -3.307818,3.30782 -0.781904,0.78191 m -6.66862,6.66862 0.524962,-0.52497 m -6.130411,6.13041 -0.531603,0.53161 m -1.481994,1.48199 0.0962,-0.0962 m -4.084632,4.08464 -0.537951,0.53795 m 26.25905,-25.85993 0.356106,-0.35611 m -3.728272,3.72827 -0.533894,0.5339 m -3.341682,3.34168 0.922581,-0.92258 m -7.019175,7.01918 -0.524475,0.52447 m -6.457465,6.45747 0.691497,-0.6915 m -1.681491,1.68149 -0.20534,0.20534 m -4.729686,4.72968 0.506046,-0.50604 m 26.1855,-25.78638 -0.279308,0.27931 m -3.901555,3.90156 0.487391,-0.4874 m -2.74217,2.74217 -1.067348,1.06735 m -6.554961,6.55496 0.510296,-0.51029 m -6.425093,6.42509 -1.715365,1.71536 m -5.07015,5.07016 0.52379,-0.5238 m 26.313058,-25.91393 -0.24879,0.24879 m -3.827359,3.82736 0.424368,-0.42437 m -2.494075,2.49408 -1.28603,1.28603 m -6.463405,6.4634 0.484727,-0.48473 m -6.512253,6.51226 -1.570133,1.57013 m -5.361534,5.36153 0.494575,-0.49457 m 26.438986,-26.03987 -0.215538,0.21554 m -3.744102,3.7441 0.448818,-0.44881 m -2.288566,2.28856 -1.561887,1.56189 m -6.388067,6.38807 0.475379,-0.47538 m -6.580898,6.5809 -1.267407,1.2674 m -5.884982,5.88499 0.521413,-0.52142 m 26.591419,-26.1923 -0.401764,0.40177 m -3.467872,3.46787 0.561681,-0.56168 m -2.27269,2.27269 -1.767994,1.76799 m -6.28126,6.28126 0.45551,-0.45551 m -6.599031,6.59904 -1.06344,1.06344 m -6.500643,6.50064 0.781165,-0.78117 m 26.538086,-26.13896 -0.343349,0.34335 m -3.324956,3.32495 0.803204,-0.8032 m -2.230855,2.23086 -2.137256,2.13725 m -6.163673,6.16368 0.430108,-0.43011 m -6.588755,6.58875 -0.722155,0.72216 m -7.437486,7.43748 0.843911,-0.84391 m 26.904688,-26.50556 -0.477731,0.47773 m -3.093047,3.09304 1.09841,-1.09841 m -2.283482,2.28349 -0.441596,0.44159 m -1.980833,1.98083 0.48442,-0.48442 m -6.116984,6.11699 -0.418436,0.41844 m -6.594124,6.59412 0.532126,-0.53213 m -7.778969,7.77897 -0.811173,0.81118 m -15.33129,15.33129 3.883149,-3.88315 m 39.280326,-38.88121 -4.845757,4.84576 m -2.250418,2.25042 0.528324,-0.52833 m -6.029517,6.02952 -0.381646,0.38165 m -6.315017,6.31501 0.440919,-0.44091 m -8.500419,8.50041 -1.248176,1.24818 m -14.975972,14.97597 5.251757,-5.25176 m 38.352095,-37.95297 -4.543122,4.54312 m -2.546115,2.54612 0.608683,-0.60868 m -5.989303,5.9893 -0.347663,0.34766 m -6.023433,6.02344 0.706478,-0.70648 m -9.587389,9.58739 -2.250951,2.25095 m -13.949449,13.94945 7.499243,-7.49925 m 36.20076,-35.80163 -4.066056,4.06605 m -2.807655,2.80766 0.739253,-0.73926 m -5.960149,5.96015 -0.326619,0.32662 m -5.718215,5.71822 0.749035,-0.74904 M 31.70605,278.28103 21.231184,288.7559 m -5.784375,5.78437 1.12899,-1.12899 m 42.425252,-42.02613 -0.858129,0.85813 m -2.646297,2.6463 1.184018,-1.18402 m -3.338114,3.33811 -0.926321,0.92633 m -5.366746,5.36674 0.304721,-0.30472 m -5.046295,5.0463 -0.671422,0.67142 m -17.5175,17.5175 6.465619,-6.46562 m -14.436747,14.43675 -0.634013,0.63401 m 40.233158,-39.83404 1.020669,-1.02067 m -3.244645,3.24465 -1.113534,1.11353 m -5.21396,5.21396 0.310805,-0.3108 m -4.810692,4.81069 -0.651977,0.65198 m -15.843644,15.84364 2.99637,-2.99637 m -13.280279,13.28028 -0.271351,0.27135 m 40.337307,-39.93818 0.890618,-0.89062 m -3.123393,3.12339 -1.346539,1.34654 m -5.070891,5.07089 0.384759,-0.38476 m -4.665906,4.66591 -0.62149,0.62149 m -26.625435,26.62543 0.228664,-0.22866 m 40.958164,-40.55904 -0.773482,0.77348 m -3.821119,3.82112 1.586446,-1.58645 m -6.058425,6.05843 -0.478035,0.47803 m -4.66399,4.66399 0.598965,-0.59896 m -27.26976,27.26976 -0.133444,0.13344 m 40.465979,-40.06686 0.680676,-0.68067 m -2.91244,2.91244 -1.822708,1.82271 m -4.890241,4.89024 0.672678,-0.67268 m -2.479565,2.47957 -0.281213,0.28121 m -2.34241,2.34241 0.688353,-0.68835 m -27.424828,27.42482 -0.180297,0.1803 m 40.505735,-40.10661 0.61722,-0.61722 m -2.834638,2.83464 -0.474507,0.4745 m -1.574649,1.57465 0.587215,-0.58721 m -4.538529,4.53853 -3.18287,3.18287 m -1.932292,1.93229 0.770867,-0.77087 m -27.555407,27.55541 -0.198207,0.19821 m 40.529537,-40.13042 0.553763,-0.55376 m -2.756835,2.75683 -0.372632,0.37264 m -2.004337,2.00433 0.577214,-0.57721 m -4.122236,4.12223 -5.229206,5.22921 m -26.942239,26.94224 0.245755,-0.24576 m 40.7548,-40.35567 -0.491482,0.49148 m -2.459935,2.45993 0.242241,-0.24224 m -1.9831,1.9831 -0.835903,0.8359 m -5.742371,5.74238 2.750338,-2.75034 m -3.575306,3.5753 -1.821167,1.82117 m -22.776383,22.77638 0.343709,-0.3437 m -4.090446,4.09044 -0.327722,0.32772 m 40.470798,-40.07167 0.447012,-0.44701 m -4.815313,4.81531 -0.825148,0.82515 m -5.149335,5.14933 2.649129,-2.64913 m -4.156518,4.15652 -1.667187,1.66719 m -23.309474,23.30947 1.017297,-1.0173 m -3.999674,3.99968 -0.350758,0.35076 m 40.354723,-39.9556 0.402542,-0.40254 m -4.893119,4.89311 -3.808737,3.80874 m -5.357568,5.35757 1.739536,-1.73954 m -24.620119,24.62012 -0.554116,0.55412 m -2.951644,2.95164 0.447445,-0.44744 m 40.14919,-39.75007 -0.358657,0.35866 m -8.432709,8.4327 3.847936,-3.84793 m -7.343205,7.3432 -1.966855,1.96686 m -23.563084,23.56308 0.446939,-0.44694 m -2.404097,2.4041 -0.517721,0.51772 m 40.111754,-39.71263 0.332067,-0.33207 m -4.957238,4.95724 -3.925137,3.92514 m -3.952339,3.95234 0.633212,-0.63322 m -1.413309,1.41331 -0.855951,0.85596 m -6.305335,6.30533 0.923812,-0.92381 m -17.85362,17.85362 -0.473097,0.4731 m -1.850434,1.85043 0.707854,-0.70786 m 39.47395,-39.07482 -0.311215,0.31121 m -8.662169,8.66217 4.074051,-4.07405 m -7.14164,7.14164 -0.558728,0.55873 m -2.630581,2.63058 1.630793,-1.63079 m -4.593405,4.5934 -3.025557,3.02556 m -18.586733,18.58673 1.863141,-1.86314 m 38.094411,-37.69529 -0.290363,0.29037 m -5.099796,5.09979 0.55628,-0.55628 m -1.200663,1.20066 -3.047524,3.04753 m -3.334694,3.33469 0.63301,-0.63301 m -1.721391,1.72139 -7.993946,7.99395 m -7.645004,7.645 1.398208,-1.39821 M 20.484799,295.09 l -1.581926,1.58192 m 39.443519,-39.04439 0.270719,-0.27072 m -4.665859,4.66586 -0.500261,0.50026 m -1.693742,1.69374 0.864193,-0.86419 m -2.830227,2.83022 -0.330236,0.33024 m -2.844366,2.84436 0.554146,-0.55414 m -1.926175,1.92617 -6.098194,6.0982 m -2.289941,2.28994 0.595357,-0.59536 m -4.546884,4.54689 -4.221532,4.22153 m -9.359882,9.35988 1.28828,-1.28828 m 38.135789,-37.73666 -0.25961,0.25961 m -4.671607,4.6716 0.434697,-0.4347 m -1.445722,1.44573 -0.642102,0.6421 m -2.660154,2.66015 0.444205,-0.4442 m -2.245847,2.24584 -0.540492,0.5405 m -7.553103,7.5531 5.924988,-5.92499 m -8.183066,8.18307 -0.621584,0.62158 m -8.179135,8.17914 4.870823,-4.87083 m -12.655753,12.65576 -1.027409,1.0274 m 38.893511,-38.49438 0.247825,-0.24783 m -4.303187,4.30319 -0.42957,0.42957 m -1.732861,1.73286 0.576804,-0.5768 m -2.868392,2.86839 -2.559036,2.55903 m -2.19875,2.19875 0.479903,-0.4799 m -3.179912,3.17991 -2.715492,2.71549 m -7.669138,7.66914 5.039201,-5.0392 m -7.120574,7.12058 -2.124706,2.1247 m -7.922427,7.92243 0.836395,-0.8364 m 37.992433,-37.59331 -0.27258,0.27258 m -4.200582,4.20058 0.393081,-0.39308 m -1.738273,1.73828 -0.482437,0.48243 m -4.351174,4.35118 1.967619,-1.96762 m -4.119832,4.11983 -0.433258,0.43326 m -5.469117,5.46912 0.445691,-0.44569 m -3.518198,3.51819 -3.030964,3.03097 m -6.568082,6.56808 1.137899,-1.1379 m -7.520797,7.5208 -0.654626,0.65462 m 38.218995,-37.81987 0.297254,-0.29725 m -3.856903,3.8569 -0.378915,0.37891 m -1.905317,1.90532 0.384603,-0.3846 m -2.818124,2.81812 -1.448331,1.44833 m -2.942824,2.94283 0.392616,-0.39262 m -5.597576,5.59758 -0.337351,0.33735 m -5.176596,5.17659 1.524115,-1.52411 m -8.606846,8.60685 -0.804845,0.80484 m -6.619352,6.61935 0.626808,-0.6268 m 37.637578,-37.23846 -0.822245,0.82224 m -3.201627,3.20163 0.398732,-0.39873 m -2.041691,2.04169 -0.287063,0.28706 m -3.257588,3.25759 0.777472,-0.77747 m -3.880323,3.88032 -0.402935,0.40294 m -5.593191,5.59319 0.304332,-0.30433 m -4.513914,4.51391 -0.619828,0.61983 m -8.864071,8.86407 1.156348,-1.15635 m -6.479548,6.47955 -0.394077,0.39408 m 33.936771,-33.53765 3.840967,-3.84097 m -5.593455,5.59345 -0.106088,0.10609 m -2.988477,2.98848 0.410875,-0.41087 m -3.765545,3.76554 -0.372884,0.37289 m -5.702359,5.70235 0.290272,-0.29027 m -13.636603,13.6366 -0.640958,0.64096 m -5.235462,5.23546 0.357921,-0.35792 m 36.981584,-36.58246 -3.644056,3.64406 m -4.791598,4.7916 0.373074,-0.37308 m -3.624256,3.62426 -0.397156,0.39715 m -5.783716,5.78372 0.249055,-0.24906 m -14.105894,14.1059 -0.629334,0.62933 m -4.54857,4.54857 0.285968,-0.28596 m 36.599374,-36.20026 -3.506817,3.50682 m -4.634495,4.6345 0.308923,-0.30893 m -3.482663,3.48267 -0.487719,0.48772 m -5.863003,5.863 0.192096,-0.1921 m -14.495218,14.49522 -0.875831,0.87583 m -3.530241,3.53024 0.191743,-0.19174 m 36.022433,-35.62331 -3.253755,3.25375 m -4.521414,4.52142 0.329888,-0.32989 m -3.354304,3.3543 -0.57285,0.57285 m -5.990783,5.99079 0.140917,-0.14092 m -14.788403,14.7884 -3.712365,3.71237 m 32.530494,-32.13138 1.339925,-1.33992 m -5.366314,5.36632 -0.347443,0.34744 m -3.653268,3.65326 0.774765,-0.77476 m -6.686807,6.68681 -0.142068,0.14206 m -17.830926,17.83093 2.625262,-2.62526 m 30.381072,-29.98195 -1.068939,1.06894 m -4.195994,4.19599 0.370662,-0.37066 m -3.097587,3.09759 -1.002015,1.00201 m -6.16007,6.16007 0.152089,-0.15209 m -15.496036,15.49604 -1.882117,1.88212 m 31.336325,-30.9372 0.849292,-0.8493 m -4.473565,4.47357 -0.406533,0.40653 m -3.964934,3.96493 1.402239,-1.40223 m -7.338704,7.3387 -0.140306,0.14031 m -16.37877,16.37877 0.346725,-0.34673 m 30.839406,-30.44028 -0.721773,0.72177 m -3.853438,3.85344 0.442405,-0.44241 m -2.852406,2.85241 -1.926658,1.92666 m -5.941033,5.94103 0.211814,-0.21181 m 14.647687,-14.24857 -0.705948,0.70595 m -3.719826,3.71983 0.513255,-0.51326 m -2.4727,2.4727 -2.714529,2.71453 m -5.805294,5.80529 0.283322,-0.28332 m 14.548677,-14.14955 -0.636447,0.63644 m -3.57771,3.57771 0.62723,-0.62723 m -1.814121,1.81412 -3.806938,3.80694 m -5.706566,5.70657 0.371084,-0.37108 m 14.527037,-14.12792 -0.624141,0.62414 m -5.589558,5.58956 2.889742,-2.88974 m -5.321352,5.32135 -0.727525,0.72752 m -5.53047,5.53047 0.375808,-0.3758 m 14.511065,-14.11195 -0.652062,0.65207 m -4.889233,4.88923 2.52292,-2.52292 m -5.81686,5.81686 -0.702864,0.70286 m -5.387332,5.38733 0.413908,-0.4139 m 14.502055,-14.10294 -0.680476,0.68048 m -3.752451,3.75245 1.72152,-1.72152 m -6.270402,6.2704 -0.669203,0.66921 m -5.303509,5.3035 0.452007,-0.452 m 14.477362,-14.07824 -0.838231,0.83823 m -2.469843,2.46984 0.952915,-0.95291 m -6.748855,6.74885 -0.644113,0.64412 m -5.2198,5.2198 0.490107,-0.49011 m 14.550386,-14.15126 -2.961435,2.96143 m -6.92254,6.92254 0.642707,-0.64271 m -5.309576,5.30958 -0.528068,0.52807 m 12.920194,-12.52107 1.92373,-1.92373 m -9.084991,9.08499 -0.624276,0.62427 m -5.135971,5.13597 0.549609,-0.5496 m 14.067521,-13.6684 -1.219826,1.21982 m -8.267019,8.26702 0.603629,-0.60363 m -5.20291,5.20291 -0.532319,0.53232 m 13.986541,-13.58742 0.411265,-0.41126 m -8.7129,8.7129 -0.561276,0.56128 m -5.124944,5.12494 0.534884,-0.53489 m 5.125821,-4.72669 -0.498093,0.49809 m -5.232556,5.23256 0.606078,-0.60608 m 5.120233,-4.72111 -0.494933,0.49493 m -5.151322,5.15132 0.527273,-0.52727 m 5.142024,-4.7429 -0.425626,0.42562 m -5.210922,5.21092 0.495775,-0.49577 m 5.163618,-4.7645 -0.377854,0.37786 m -5.248791,5.24879 0.488523,-0.48852 m 5.160966,-4.76185 -0.330082,0.33008 m -5.286659,5.28666 0.476084,-0.47608 m 5.204573,-4.80545 -0.323382,0.32338 m -5.337023,5.33702 0.476143,-0.47614 m 5.244988,-4.84586 -0.313492,0.31349 m -5.342963,5.34296 0.431777,-0.43178 m 5.285405,-4.88628 -0.303602,0.3036 m -5.348903,5.34891 0.430041,-0.43004 m 5.28319,-4.88407 -0.309483,0.30948 m -5.339072,5.33907 0.382006,-0.382 m 5.327275,-4.92816 -0.273318,0.27332 m -5.371287,5.37129 0.362884,-0.36289 m 5.342448,-4.94332 -0.245187,0.24519 m -5.403233,5.40323 0.351527,-0.35153 m 5.357619,-4.95849 -0.217056,0.21705 m -5.396775,5.39678 0.301767,-0.30177 m 5.372791,-4.97367 -0.188925,0.18893 m -5.390319,5.39032 0.287954,-0.28796 m 5.385856,-4.98673 -0.194633,0.19463 m -5.383863,5.38386 0.2689,-0.2689 m 5.402497,-5.00337 -0.200174,0.20017 m -5.375908,5.37591 0.249846,-0.24984 m 5.419137,-5.02002 -0.178892,0.17889 m -5.399976,5.39998 0.235991,-0.23599 m 5.448981,-5.04986 -0.170813,0.17081 m -5.388771,5.38877 0.221525,-0.22152 m 5.458988,-5.05987 -0.177559,0.17756 m -5.377566,5.37757 0.20651,-0.20651 m 5.469545,-5.07042 -0.184305,0.1843 m -5.366361,5.36636 0.191495,-0.19149 m 5.4801,-5.08098 -0.191255,0.19125 m -5.354952,5.35496 0.17648,-0.17648 m 5.51942,-5.1203 -0.194996,0.19499 m -5.378876,5.37888 0.19745,-0.19745 m 5.52652,-5.1274 -0.199143,0.19915 m -5.369259,5.36925 0.186662,-0.18666 m 5.531838,-5.13271 -0.20329,0.20329 m -5.359642,5.35964 0.175873,-0.17587 m 5.548617,-5.1495 -0.218896,0.2189 m -5.350025,5.35002 0.165085,-0.16508 m 5.580262,-5.18114 -0.233649,0.23365 m -5.35613,5.35613 0.180926,-0.18093 m 5.585278,-5.18615 -0.229972,0.22997 m -5.381661,5.38166 0.202511,-0.20251 m 5.585548,-5.18643 -0.226294,0.2263 m -5.375247,5.37524 0.192148,-0.19214 m 5.599864,-5.20075 -0.236663,0.23667 m -5.36883,5.36883 0.181785,-0.18179 m 5.620873,-5.22175 -0.253749,0.25375 m -5.362391,5.36239 0.187149,-0.18715 m 5.626156,-5.22703 -0.258432,0.25843 m -5.368355,5.36836 0.202601,-0.20261 m 5.621351,-5.22222 -0.263115,0.26311 m -5.372263,5.37226 0.215998,-0.21599 m 5.624627,-5.22551 -0.27588,0.27588 m -5.352767,5.35277 0.205991,-0.20599 m 5.634147,-5.23503 -0.294889,0.29489 m -5.333271,5.33327 0.198189,-0.19818 m 5.641461,-5.24234 -0.315112,0.31511 m -5.31256,5.31256 0.206773,-0.20677 m 5.63239,-5.23327 -0.375789,0.37579 m -5.245391,5.24539 0.209352,-0.20935 m 5.623406,-5.22429 -0.436554,0.43656 m -5.161605,5.1616 0.195315,-0.19531 m 5.611993,-5.21287 -0.506139,0.50614 m -5.066571,5.06657 0.181278,-0.18128 m 5.600582,-5.20146 -1.378677,1.37868 m -4.168585,4.16858 0.164544,-0.16454 m 5.591868,-5.19275 -2.133396,2.1334 m -3.365562,3.36556 0.170993,-0.17099 m 5.537114,-5.138 -2.362885,2.36289 m -3.082393,3.08239 0.172065,-0.17206 m 5.482363,-5.08324 -2.142829,2.14283 m -3.248769,3.24876 0.173138,-0.17313 m 5.427609,-5.02849 -0.770629,0.77063 m -4.543273,4.54327 0.163647,-0.16364 m 5.359215,-4.9601 -0.441202,0.4412 m -4.784119,4.78412 0.215705,-0.2157 m 5.197977,-4.79886 -0.391229,0.39123 m -4.724913,4.72492 0.267763,-0.26777 m 5.03674,-4.63761 -0.375572,0.37557 m -4.595038,4.59504 0.279454,-0.27946 m 4.879517,-4.48039 -0.379743,0.37974 m -4.439722,4.43972 0.363674,-0.36367 m 4.644152,-4.24503 -0.383914,0.38391 m -4.284406,4.28441 0.447894,-0.4479 m 4.408787,-4.00966 -0.387406,0.38741 m -4.065894,4.06589 0.519589,-0.51959 m 4.103382,-3.70426 -0.386783,0.38678 m -3.846942,3.84695 0.520295,-0.5203 m 3.866556,-3.46743 -0.369617,0.36962 m -3.576111,3.57611 0.547602,-0.5476 m 3.551253,-3.15213 -0.35245,0.35244 m -3.299601,3.2996 0.57099,-0.57099 m 3.234187,-2.83506 -0.373034,0.37304 m -3.061572,3.06157 0.731347,-0.73135 m 2.834446,-2.43532 -0.373268,0.37326 m -2.560756,2.56076 0.639269,-0.63927 m 2.401334,-2.00221 -2.59818,2.59818 m 0.732262,-0.33314 1.918822,-1.91882 m -0.02725,0.42637 -1.286062,1.28607 m 0.963112,-0.56399 0.19542,-0.19542"
         inkscape:connector-curvature="0" />
    </g>
  </g>
</svg>
