<?xml version="1.0" encoding="UTF-8" standalone="no"?>
<!-- Created with Inkscape (http://www.inkscape.org/) -->

<svg
   xmlns:dc="http://purl.org/dc/elements/1.1/"
   xmlns:cc="http://creativecommons.org/ns#"
   xmlns:rdf="http://www.w3.org/1999/02/22-rdf-syntax-ns#"
   xmlns:svg="http://www.w3.org/2000/svg"
   xmlns="http://www.w3.org/2000/svg"
   xmlns:sodipodi="http://sodipodi.sourceforge.net/DTD/sodipodi-0.dtd"
   xmlns:inkscape="http://www.inkscape.org/namespaces/inkscape"
   width="50mm"
   height="50mm"
   viewBox="0 0 50 50"
   version="1.1"
   id="svg8"
   inkscape:version="0.92.2 2405546, 2018-03-11"
   sodipodi:docname="50.svg">
  <sodipodi:namedview
     id="base"
     pagecolor="#ffffff"
     bordercolor="#666666"
     borderopacity="1.0"
     inkscape:pageopacity="0.0"
     inkscape:pageshadow="2"
     inkscape:zoom="1.4"
     inkscape:cx="116.82655"
     inkscape:cy="114.17669"
     inkscape:document-units="mm"
     inkscape:current-layer="layer1"
     showgrid="false"
     inkscape:window-width="1366"
     inkscape:window-height="703"
     inkscape:window-x="0"
     inkscape:window-y="0"
     inkscape:window-maximized="1" />
  <defs
     id="defs2" />
  <metadata
     id="metadata5">
    <rdf:RDF>
      <cc:Work
         rdf:about="">
        <dc:format>image/svg+xml</dc:format>
        <dc:type
           rdf:resource="http://purl.org/dc/dcmitype/StillImage" />
        <dc:title></dc:title>
      </cc:Work>
    </rdf:RDF>
  </metadata>
  <g
     transform="translate(0,-247)"
     id="layer1"
     inkscape:groupmode="layer"
     inkscape:label="Layer 1">
    <g
       id="g1001">
      <path
         id="path948"
         d="m 24.569015,287.67335 c -0.322602,-0.0642 -0.688223,-0.18327 -0.812493,-0.26463 -0.464579,-0.30417 -0.867722,-1.1795 -1.027616,-2.23124 -0.05589,-0.36765 -0.127047,-0.8217 -0.158125,-1.00901 l -0.0565,-0.34058 -1.539508,0.0328 c -3.361647,0.0716 -5.178713,0.023 -6.643781,-0.17788 -1.547081,-0.2121 -3.743501,-0.62287 -4.8402581,-0.9052 -0.566338,-0.14579 -1.005255,-0.1837 -2.2441206,-0.19386 -1.4018124,-0.0115 -1.5874921,-0.0315 -2.0681124,-0.22309 -0.6761621,-0.26951 -1.5593311,-1.1193 -1.7199348,-1.65492 -0.098115,-0.32722 -0.1578231,-0.38279 -0.6025608,-0.56081 -0.7287353,-0.29171 -1.7987083,-0.81455 -2.24736747,-1.09816 -0.5731342,-0.36231 -0.6261599,-0.50555 -0.5047384,-1.36347 0.055866,-0.39474 0.1444685,-0.76935 0.1968921,-0.83247 0.098162,-0.11818 0.6444073,-0.33605 1.07150627,-0.42736 0.2131405,-0.0456 0.2420116,-0.0921 0.2420116,-0.39029 0,-0.1862 0.05401,-0.67018 0.1200178,-1.07552 0.066011,-0.40534 0.1232875,-0.83591 0.1272823,-0.95682 0.020556,-0.62218 0.2878061,-1.33388 0.5965703,-1.58871 0.083982,-0.0693 0.3187826,-0.38463 0.5217782,-0.7007 0.6835196,-1.0643 1.7554217,-1.97095 2.7546671,-2.32999 0.2471105,-0.0888 0.4584315,-0.22952 0.5060988,-0.33705 0.04501,-0.10153 0.1808434,-0.23419 0.3018491,-0.29479 0.2965905,-0.14854 1.3574929,-0.14306 1.6544559,0.009 0.309756,0.15813 0.550613,0.0637 0.855204,-0.33534 0.240328,-0.31483 0.9557561,-0.90971 1.7322091,-1.44031 0.68086,-0.46528 2.14048,-1.15105 3.217599,-1.5117 0.556332,-0.18628 1.041774,-0.37122 1.078759,-0.41098 0.03699,-0.0397 0.330186,-0.6879 0.651557,-1.44032 1.824445,-4.27155 3.037675,-5.38708 6.959076,-6.39865 3.825097,-0.98675 9.386646,-1.30605 13.156699,-0.75537 2.314031,0.338 4.102182,0.81628 5.374971,1.43764 0.800115,0.39061 2.018232,1.32714 2.441702,1.87728 1.060566,1.37779 1.863844,3.74062 1.863844,5.48247 v 0.56006 l 0.418022,9.9e-4 c 0.472927,0.001 1.169579,0.16794 1.562082,0.37391 0.319142,0.16748 0.916833,0.7856 1.168368,1.2083 0.252372,0.42411 0.591045,1.49404 0.723563,2.28587 0.08002,0.47818 0.167815,0.71722 0.319285,0.86936 0.274362,0.27558 0.308594,0.89026 0.07401,1.32901 -0.06464,0.12091 -0.13943,0.32361 -0.166185,0.45044 -0.04938,0.23407 -0.30332,0.34097 -0.809974,0.34097 -0.199899,0 -0.209013,0.0266 -0.209013,0.60918 0,1.28586 -0.314362,2.7483 -0.750684,3.49223 -0.314689,0.53655 -0.859288,0.96638 -1.383684,1.09208 -0.727867,0.17447 -1.428509,0.12539 -1.966852,-0.13779 -0.499905,-0.24439 -1.091054,-0.84822 -1.091054,-1.11446 0,-0.088 -0.04532,-0.16004 -0.100713,-0.16004 -0.09152,0 -3.193341,1.40761 -6.675649,3.02943 -0.750239,0.34941 -1.651187,0.76628 -2.002107,0.92638 -0.35092,0.1601 -0.638034,0.33683 -0.638034,0.39272 0,0.0559 -0.131946,0.22943 -0.293214,0.38561 -0.337366,0.32673 -0.51809,0.30452 -0.67891,-0.0834 -0.144781,-0.34926 -0.406214,-0.51779 -0.80322,-0.51779 -0.393502,0 -1.198988,0.16384 -1.255619,0.2554 -0.02222,0.0359 -0.08345,0.41853 -0.136084,0.85025 -0.196233,1.60961 -0.750772,3.24152 -1.461137,4.29988 -0.649655,0.9679 -1.089648,1.33432 -1.947389,1.62174 -0.644986,0.21613 -1.909658,0.23834 -2.855446,0.0501 z"
         style="fill:none;stroke:#ff0000;stroke-width:0.1;stroke-miterlimit:4;stroke-dasharray:none" />
      <path
         id="path946"
         d="m 28.10614,285.63251 c 0.411594,-0.28673 0.713836,-0.68533 1.051915,-1.38727 0.761389,-1.58086 1.044844,-4.01958 0.654835,-5.63392 -0.204923,-0.84823 -0.762409,-1.42414 -1.270626,-1.3126 -0.317886,0.0698 -0.433427,0.21951 -0.169369,0.21951 0.291971,0 0.823347,0.59731 1.05607,1.18712 0.187824,0.47601 0.20791,0.6609 0.205406,1.8906 -0.0031,1.53936 -0.150102,2.26622 -0.668766,3.30755 -0.481678,0.96707 -0.991564,1.45886 -1.61817,1.56075 -0.140672,0.0229 -0.275569,0.0461 -0.29977,0.0516 -0.0242,0.006 0.03287,0.0681 0.126826,0.13913 0.229716,0.17361 0.665256,0.1631 0.931649,-0.0225 z"
         style="fill:none;stroke:#0000ff;stroke-width:0.1;stroke-miterlimit:4;stroke-dasharray:none" />
      <path
         id="path944"
         d="m 27.655005,285.12908 c 1.274157,-0.65837 2.136864,-3.71453 1.664381,-5.89612 -0.243006,-1.12204 -0.957003,-1.78605 -1.522434,-1.41586 -0.271445,0.17772 -1.014577,1.64992 -0.858996,1.70174 0.226307,0.0754 0.0015,0.98917 -0.243343,0.98917 -0.116225,0 -0.171473,0.13487 -0.250084,0.6105 -0.128158,0.77541 -0.127336,0.79646 0.03111,0.79646 0.09974,0 0.132007,0.10747 0.132007,0.43967 0,0.31719 -0.03415,0.43967 -0.122591,0.43967 -0.181776,0 -0.209653,0.15797 -0.13966,0.79142 0.163496,1.47966 0.550411,1.93563 1.309615,1.54335 z"
         style="fill:none;stroke:#0000ff;stroke-width:0.1;stroke-miterlimit:4;stroke-dasharray:none" />
      <path
         id="path942"
         d="m 26.553404,284.2358 c -0.09027,-0.35938 0.241388,-0.50338 0.438868,-0.19055 0.06307,0.0999 0.05531,0.18207 -0.02649,0.28055 -0.172056,0.20715 -0.347348,0.16889 -0.412378,-0.09 z"
         style="fill:none;stroke:#0000ff;stroke-width:0.1;stroke-miterlimit:4;stroke-dasharray:none" />
      <path
         id="path940"
         d="m 27.281518,284.1085 c -0.295335,-0.23212 -0.49832,-0.91097 -0.496339,-1.6599 0.0048,-1.80846 1.01499,-3.76618 1.833086,-3.55242 0.211766,0.0553 0.258654,0.20488 0.06424,0.20488 -0.239686,0 -0.640905,0.43556 -0.868969,0.94335 -0.515831,1.14851 -0.709478,2.55756 -0.466339,3.39326 0.08283,0.2847 0.220922,0.54849 0.31924,0.60985 0.0953,0.0595 0.173271,0.13817 0.173271,0.1749 0,0.13138 -0.332415,0.0635 -0.558189,-0.11392 z"
         style="fill:none;stroke:#0000ff;stroke-width:0.1;stroke-miterlimit:4;stroke-dasharray:none" />
      <path
         id="path938"
         d="m 27.594394,278.73283 c -0.15441,-0.15429 -0.131191,-0.31597 0.06006,-0.41825 0.221597,-0.1185 0.439818,0.11477 0.305867,0.32696 -0.120103,0.19025 -0.237565,0.21955 -0.36593,0.0913 z"
         style="fill:none;stroke:#0000ff;stroke-width:0.1;stroke-miterlimit:4;stroke-dasharray:none" />
      <path
         id="path936"
         d="m 23.109455,283.27828 c 0.183319,-0.048 0.242013,-0.11717 0.242013,-0.28524 0,-0.21148 -0.01753,-0.21917 -0.37402,-0.16408 -0.205711,0.0318 -0.690837,0.0822 -1.078057,0.11207 -0.450778,0.0348 -0.729354,0.0972 -0.774414,0.17361 -0.05299,0.0899 -0.368176,0.12355 -1.276069,0.13638 l -1.205691,0.017 0.880047,0.0519 c 1.120595,0.0661 3.2701,0.0411 3.586191,-0.0416 z"
         style="fill:none;stroke:#0000ff;stroke-width:0.1;stroke-miterlimit:4;stroke-dasharray:none" />
      <path
         id="path934"
         d="m 18.252605,283.16879 c -0.214836,-0.019 -0.432648,-0.085 -0.484026,-0.14677 -0.05891,-0.0708 -0.648733,-0.16706 -1.59686,-0.26058 -0.826896,-0.0816 -2.269225,-0.26566 -3.205175,-0.40911 -0.93595,-0.14345 -1.716592,-0.24597 -1.73476,-0.22781 -0.09242,0.0923 3.654187,0.72871 6.179367,1.04957 0.145208,0.0184 0.481826,0.0326 0.74804,0.0314 0.434889,-0.002 0.444371,-0.006 0.09341,-0.0367 z"
         style="fill:none;stroke:#0000ff;stroke-width:0.1;stroke-miterlimit:4;stroke-dasharray:none" />
      <path
         id="path932"
         d="m 20.975341,282.79951 c 0,-0.19061 -0.0297,-0.3648 -0.066,-0.38709 -0.0363,-0.0223 -0.729339,-0.0695 -1.540082,-0.10488 l -1.474079,-0.0643 v 0.36349 c 0,0.31515 0.02633,0.36492 0.198011,0.37422 0.108906,0.006 0.75244,0.0386 1.430076,0.0727 0.677636,0.0341 1.281568,0.0688 1.342072,0.0772 0.07198,0.01 0.110005,-0.10454 0.110005,-0.33129 z"
         style="fill:none;stroke:#0000ff;stroke-width:0.1;stroke-miterlimit:4;stroke-dasharray:none" />
      <path
         id="path930"
         d="m 23.021451,282.26405 c 0.18698,-0.053 0.330017,-0.14892 0.330017,-0.22131 0,-0.15228 0.04605,-0.14927 -0.538018,-0.0351 -0.260719,0.051 -1.147272,0.0979 -1.970116,0.10431 -1.232842,0.01 -1.350233,0.0204 -0.667173,0.0613 0.596291,0.0357 0.840312,0.0839 0.869552,0.172 0.0326,0.0982 0.199499,0.11154 0.843182,0.0674 0.441396,-0.0303 0.951046,-0.0971 1.132556,-0.14854 z"
         style="fill:none;stroke:#0000ff;stroke-width:0.1;stroke-miterlimit:4;stroke-dasharray:none" />
      <path
         id="path928"
         d="m 17.719168,282.22275 c 0,-0.10498 0.128747,-0.1319 0.6307,-0.1319 0.346885,0 0.614199,-0.0146 0.594032,-0.0323 -0.02017,-0.0178 -0.472292,-0.0586 -1.00472,-0.0906 -6.141359,-0.37002 -12.5159335,-1.8326 -16.3226488,-3.74506 l -0.71733327,-0.36038 0.027541,0.3258 c 0.027441,0.32454 0.0311,0.32729 0.95158817,0.71733 3.5194513,1.49129 8.3969129,2.64503 13.9927449,3.30995 1.425282,0.16936 1.848099,0.17101 1.848099,0.007 z"
         style="fill:none;stroke:#0000ff;stroke-width:0.1;stroke-miterlimit:4;stroke-dasharray:none" />
      <path
         id="path926"
         d="m 11.052813,282.03261 c -0.0605,-0.0244 -0.159509,-0.0244 -0.220012,0 -0.0605,0.0244 -0.011,0.0444 0.110006,0.0444 0.121006,0 0.170509,-0.02 0.110006,-0.0444 z"
         style="fill:none;stroke:#0000ff;stroke-width:0.1;stroke-miterlimit:4;stroke-dasharray:none" />
      <path
         id="path924"
         d="m 22.539767,281.86659 c 0.580931,-0.0671 0.585289,-0.0695 0.23967,-0.13266 -0.19361,-0.0354 -0.926249,-0.10922 -1.628086,-0.16413 -2.791022,-0.21832 -5.804033,-0.57039 -6.810876,-0.79585 -0.209891,-0.047 -0.726489,-0.12461 -1.147996,-0.17247 -0.482799,-0.0548 -0.871076,-0.15167 -1.049329,-0.26175 -0.175022,-0.10808 -0.65094,-0.22896 -1.247675,-0.31691 -1.8212101,-0.2684 -4.4959535,-0.91028 -6.1584622,-1.4779 -0.3627877,-0.12387 -0.7321347,-0.19402 -0.895416,-0.17007 -0.4047572,0.0594 -0.8490526,-0.11758 -1.1848352,-0.47186 -0.1619275,-0.17084 -0.4627223,-0.38525 -0.668432,-0.47646 -0.2631693,-0.11669 -0.3740202,-0.21889 -0.3740202,-0.34484 0,-0.20661 -0.1385114,-0.22362 -0.62782297,-0.0771 -0.2306261,0.069 -0.3402297,0.15267 -0.3402297,0.25958 0,0.33452 1.53730517,1.14639 3.53598557,1.8674 4.0538596,1.46241 8.6349247,2.3338 14.1529587,2.69213 2.449148,0.15903 3.138822,0.16608 4.204566,0.0429 z"
         style="fill:none;stroke:#0000ff;stroke-width:0.1;stroke-miterlimit:4;stroke-dasharray:none" />
      <path
         id="path922"
         d="m 23.923463,281.01365 c 0.486335,-0.56499 0.887612,-1.33745 1.594365,-3.06916 0.817956,-2.00419 1.192674,-2.71152 1.761969,-3.32593 0.654984,-0.7069 1.21976,-0.99089 2.068241,-1.03996 0.822675,-0.0476 1.275714,0.13302 1.823682,0.72702 0.715255,0.77535 1.177891,1.99415 1.770189,4.66354 0.398624,1.79653 0.477853,2.03937 0.579417,1.77594 0.08253,-0.21405 -0.280858,-2.72551 -0.537727,-3.71638 -0.927965,-3.57965 -3.34353,-5.49846 -7.405013,-5.8822 l -0.54503,-0.0515 -0.170293,0.38467 c -0.239521,0.54105 -0.717864,0.76559 -1.605583,0.7537 -0.915231,-0.0123 -1.100533,-0.0765 -1.068943,-0.37081 0.01393,-0.12978 0.0054,-0.23597 -0.01888,-0.23597 -0.02432,0 -0.352532,0.18499 -0.729369,0.41108 -1.873372,1.12396 -3.645598,2.83366 -4.956327,4.78145 -0.501042,0.74456 -0.545459,0.855 -0.837986,2.08367 -0.169895,0.71359 -0.330073,1.36669 -0.355949,1.45132 -0.02588,0.0846 -0.0064,0.15389 0.04335,0.15389 0.04972,0 0.138563,-0.16062 0.197426,-0.35693 0.204282,-0.68129 0.669429,-0.64854 0.574912,0.0405 -0.03051,0.2224 -0.02653,0.40516 0.0089,0.40612 0.03538,10e-4 0.321734,0.0387 0.636351,0.0838 0.660174,0.0948 2.677558,0.29184 5.013769,0.48981 0.894073,0.0758 1.643213,0.15536 1.664755,0.17688 0.08841,0.0883 0.187652,0.0211 0.493823,-0.33458 z"
         style="fill:none;stroke:#0000ff;stroke-width:0.1;stroke-miterlimit:4;stroke-dasharray:none" />
      <path
         id="path920"
         d="m 19.094461,279.85131 c -0.533143,-0.18989 -0.952933,-0.58157 -1.281992,-1.19612 -0.745542,-1.39241 -0.303858,-3.2821 0.937558,-4.01123 0.347754,-0.20425 0.520987,-0.24683 0.993249,-0.24415 1.068401,0.006 1.880683,0.69192 2.236203,1.88814 0.61854,2.08119 -1.097065,4.20018 -2.885018,3.56336 z"
         style="fill:none;stroke:#0000ff;stroke-width:0.1;stroke-miterlimit:4;stroke-dasharray:none" />
      <path
         id="path918"
         d="m 20.978928,278.95165 c 0.919767,-1.04673 0.87412,-2.79352 -0.09588,-3.66916 -0.504915,-0.4558 -1.118926,-0.59249 -1.623795,-0.3615 l -0.264014,0.12079 0.352018,0.009 c 0.737115,0.019 1.367847,0.4852 1.732059,1.28026 0.285016,0.62218 0.285428,1.68744 8.65e-4,2.224 -0.110077,0.20755 -0.2777,0.45487 -0.372497,0.54959 -0.0948,0.0947 -0.136859,0.17223 -0.09347,0.17223 0.04339,0 0.207514,-0.14638 0.364722,-0.32529 z"
         style="fill:none;stroke:#0000ff;stroke-width:0.1;stroke-miterlimit:4;stroke-dasharray:none" />
      <path
         id="path916"
         d="m 20.419963,278.71785 c 0.963525,-1.05055 0.221287,-3.22362 -1.100439,-3.22178 -1.131193,0.002 -1.578725,1.96504 -0.692698,3.03909 0.539285,0.65372 1.29089,0.7303 1.793137,0.18269 z"
         style="fill:none;stroke:#0000ff;stroke-width:0.1;stroke-miterlimit:4;stroke-dasharray:none" />
      <path
         id="path914"
         d="m 14.847638,280.2662 c 0.135219,-0.46776 0.49391,-2.07529 0.468685,-2.10049 -0.07106,-0.071 -0.830138,0.91641 -0.888057,1.15519 -0.03519,0.14509 -0.160639,0.41143 -0.278764,0.59186 l -0.214774,0.32805 0.198129,0.0422 c 0.411051,0.0877 0.551925,0.11694 0.610222,0.12684 0.03304,0.006 0.08009,-0.0591 0.104559,-0.14369 z"
         style="fill:none;stroke:#0000ff;stroke-width:0.1;stroke-miterlimit:4;stroke-dasharray:none" />
      <path
         id="path912"
         d="m 38.180257,278.3527 c 4.923138,-2.18283 5.482482,-2.41728 5.766919,-2.41728 0.330012,0 0.412501,-0.15191 0.198565,-0.36568 -0.170931,-0.17079 -0.178957,-0.16938 -1.088736,0.19195 -0.504096,0.2002 -1.035344,0.41881 -1.180551,0.4858 -0.145207,0.067 -0.838246,0.35463 -1.540082,0.63918 -0.701837,0.28456 -2.454232,1.00619 -3.894207,1.60362 -2.316844,0.96123 -2.618142,1.10865 -2.618142,1.28099 0,0.43058 0.06909,0.47497 0.469082,0.30142 0.201829,-0.0876 1.95105,-0.86158 3.887152,-1.72 z"
         style="fill:none;stroke:#0000ff;stroke-width:0.1;stroke-miterlimit:4;stroke-dasharray:none" />
      <path
         id="path910"
         d="m 13.561035,279.87294 c 0.684243,-0.6385 0.608563,-1.83188 -0.156991,-2.47554 -0.564552,-0.47466 -1.27118,-0.29386 -1.64293,0.42038 -0.218538,0.41987 -0.122283,1.25254 0.196739,1.70192 0.436075,0.61426 1.153946,0.77244 1.603182,0.35324 z"
         style="fill:none;stroke:#0000ff;stroke-width:0.1;stroke-miterlimit:4;stroke-dasharray:none" />
      <path
         id="path908"
         d="m 11.148863,279.39379 c 0.116343,-0.0329 0.147711,-0.0993 0.111208,-0.23525 -0.02797,-0.10416 -0.05139,-0.27841 -0.05205,-0.38723 -9.31e-4,-0.15108 -0.05223,-0.19785 -0.217072,-0.19785 -1.0303941,0 -1.2084501,-1.24993 -0.488534,-3.42946 0.809403,-2.45044 1.909502,-4.29557 3.514534,-5.89472 1.130621,-1.12648 1.963619,-1.72763 3.370339,-2.43227 1.247863,-0.62508 1.895911,-0.8617 2.988748,-1.0913 1.606096,-0.33743 4.414067,-0.24135 6.693878,0.22904 1.919432,0.39603 1.520988,0.99108 -1.238956,1.85029 -4.890336,1.52243 -8.973464,4.26505 -11.833022,7.94819 l -0.773073,0.99572 0.244849,0.12693 c 0.486433,0.25217 0.74156,0.5974 0.944929,1.27868 l 0.09808,0.32854 0.833184,-1.0722 c 2.396546,-3.08404 3.931139,-4.53642 6.221429,-5.88811 0.49725,-0.29347 0.904091,-0.58663 0.904091,-0.65146 0,-0.1605 0.227237,-0.26574 0.731769,-0.33891 0.233063,-0.0338 0.688488,-0.18109 1.012054,-0.32732 1.639825,-0.74108 4.865116,-1.73853 6.936124,-2.14508 0.190452,-0.0374 0.293157,-0.26252 0.295329,-0.64736 0.0017,-0.31605 -0.671914,-0.91681 -1.288575,-1.14909 -1.42199,-0.5356 -6.014189,-1.23206 -8.123833,-1.23206 -1.898416,0 -4.651285,1.06513 -6.882568,2.66297 -2.556009,1.83039 -4.160902,4.01497 -5.2206101,7.10631 -0.218009,0.63597 -0.396379,1.16573 -0.396379,1.17724 0,0.0115 0.09901,0.002 0.220011,-0.0211 0.176376,-0.0337 0.220012,-0.007 0.220012,0.13691 0,0.27445 -0.09347,0.45711 -0.233918,0.45711 -0.313697,0 -0.525584,1.26645 -0.250108,1.4949 0.16666,0.1382 0.168312,0.44643 0.0045,0.8382 -0.156225,0.3736 -0.246249,0.3811 -0.488806,0.0407 -0.160187,-0.22479 -0.180045,-0.3396 -0.133066,-0.76943 l 0.05522,-0.50522 -0.188281,0.24182 c -0.259108,0.33278 -0.697639,0.33328 -1.005848,10e-4 -0.2698313,-0.29077 -0.5356415,-1.06496 -0.6721538,-1.9577 -0.1685033,-1.10194 0.03572,-2.84599 0.5089328,-4.34627 0.214847,-0.68115 0.722016,-1.80573 0.924071,-2.049 0.05306,-0.0639 0.07062,-0.14198 0.03903,-0.17356 -0.07388,-0.0738 -0.246921,0.15088 -0.626443,0.81351 -1.1850049,2.06896 -1.6958535,4.98523 -1.2322996,7.03478 0.2171784,0.96024 0.4752985,1.53573 0.733372,1.63512 0.1285295,0.0495 0.8673266,0.22338 1.6417656,0.3864 1.2832451,0.27011 1.6127271,0.29483 2.0981571,0.1574 z"
         style="fill:none;stroke:#0000ff;stroke-width:0.1;stroke-miterlimit:4;stroke-dasharray:none" />
      <path
         id="path906"
         d="m 39.751197,276.53995 c 1.310381,-0.4676 1.590487,-0.59827 1.688808,-0.78783 0.217535,-0.4194 0.330967,-2.04769 0.272453,-3.91108 -0.05186,-1.65171 -0.206132,-3.99907 -0.266798,-4.05969 -0.01487,-0.0148 -0.141844,0.0328 -0.282152,0.10591 -0.140307,0.0731 -0.35411,0.1305 -0.475119,0.12753 l -0.220009,-0.005 0.19801,-0.0954 c 0.334552,-0.16122 0.221775,-0.23334 -0.308016,-0.19697 -0.278316,0.0191 -0.426823,0.0132 -0.330018,-0.0132 0.928351,-0.25285 1.364072,-0.40847 1.364072,-0.48717 0,-0.0561 -0.08839,-0.0716 -0.220012,-0.0386 -0.121006,0.0303 -0.220013,0.0191 -0.220013,-0.0249 0,-0.044 0.09901,-0.10491 0.220013,-0.13525 0.18389,-0.0461 0.220012,-0.10734 0.220012,-0.37286 0,-0.3173 -3.33e-4,-0.31761 -0.330019,-0.26796 -0.181508,0.0274 -1.914099,0.40531 -3.850204,0.83992 -1.936102,0.43462 -3.768674,0.83829 -4.07238,0.89705 -0.44045,0.0852 -0.543524,0.13557 -0.509361,0.24886 0.239054,0.79273 0.391003,4.60342 0.247602,6.20951 -0.07477,0.83741 -0.06714,0.91081 0.160062,1.53886 0.131217,0.36273 0.303762,0.99586 0.383433,1.40696 0.07967,0.41109 0.163707,0.83542 0.186741,0.94295 0.04092,0.19099 0.09406,0.17757 2.306919,-0.58258 1.245771,-0.42795 2.971959,-1.03034 3.835976,-1.33866 z"
         style="fill:none;stroke:#0000ff;stroke-width:0.1;stroke-miterlimit:4;stroke-dasharray:none" />
      <path
         id="path904"
         d="m 40.267996,267.06298 c 0.03587,-0.31033 0.289263,-0.4415 0.481605,-0.24931 0.144684,0.14457 0.140477,0.15239 -0.08198,0.15239 -0.128976,0 -0.277136,0.0693 -0.329247,0.15389 -0.08273,0.13436 -0.09166,0.12713 -0.07038,-0.057 z"
         style="fill:none;stroke:#0000ff;stroke-width:0.1;stroke-miterlimit:4;stroke-dasharray:none" />
      <path
         id="path902"
         d="m 0.73426363,278.14789 c 0,-0.36281 -0.030867,-0.43961 -0.209332,-0.52086 -0.1991672,-0.0907 -0.2117834,-0.0775 -0.2599162,0.27167 -0.042528,0.3085 -0.019691,0.39118 0.1433276,0.5189 0.2890334,0.22646 0.3259206,0.19594 0.3259206,-0.26971 z"
         style="fill:none;stroke:#0000ff;stroke-width:0.1;stroke-miterlimit:4;stroke-dasharray:none" />
      <path
         id="path900"
         d="m 6.0654984,277.77272 c 0.074243,-0.35761 0.1690687,-1.36247 0.2107256,-2.23302 0.1023925,-2.13987 0.4258717,-3.53408 1.1578302,-4.9903 0.1884007,-0.37482 0.3248827,-0.68149 0.3032927,-0.68149 -0.02159,0 -0.150738,0.0429 -0.2869979,0.0954 -0.3427177,0.13192 -1.5320167,0.12157 -1.6159158,-0.0141 -0.166471,-0.26915 -1.9427377,1.08846 -2.2744492,1.73837 -0.084425,0.16541 -0.076152,0.1886 0.058061,0.16277 0.2345709,-0.0451 0.799892,0.17371 1.0494805,0.40628 0.1212086,0.11294 0.3249992,0.4032 0.4528702,0.64502 0.2012327,0.38056 0.2326018,0.54608 0.2333036,1.23109 6.652e-4,0.6976 -0.028405,0.84696 -0.2457169,1.26007 -0.2223372,0.42268 -0.236367,0.49941 -0.1430016,0.78208 0.1399416,0.4237 0.050301,1.19252 -0.1760837,1.51019 -0.2353093,0.3302 -0.2298876,0.41912 0.028572,0.46849 0.1857129,0.0355 0.2172849,9.9e-4 0.2635185,-0.28793 0.028904,-0.18052 0.1092578,-0.34997 0.1785949,-0.37656 0.2064981,-0.0792 0.341048,0.17033 0.2766934,0.51309 -0.050631,0.26968 -0.031898,0.31995 0.1440328,0.38642 0.1112335,0.042 0.213034,0.067 0.2262255,0.0554 0.013205,-0.0116 0.084734,-0.31364 0.1589773,-0.67124 z"
         style="fill:none;stroke:#0000ff;stroke-width:0.1;stroke-miterlimit:4;stroke-dasharray:none" />
      <path
         id="path898"
         d="m 11.232243,278.01131 c 0.08164,-0.50268 0.468192,-1.01537 0.914187,-1.21249 0.219917,-0.0972 0.493987,-0.15875 0.609045,-0.13678 0.171273,0.0327 0.277031,-0.0495 0.583385,-0.45326 2.077572,-2.73843 4.29594,-4.70826 7.138746,-6.33894 1.631949,-0.93612 3.186055,-1.60513 5.510468,-2.37215 1.377726,-0.45463 2.027643,-0.73978 2.027643,-0.88964 0,-0.24294 -1.145634,-0.51002 -3.168169,-0.73859 -2.954372,-0.33389 -4.875805,-0.0418 -7.191771,1.09325 -1.72857,0.84717 -2.769918,1.61677 -3.923051,2.89931 -1.252501,1.39306 -2.291382,3.23814 -2.965974,5.26764 -0.680486,2.04724 -0.615883,3.17998 0.181361,3.17998 0.199737,0 0.243068,-0.0455 0.28413,-0.29833 z"
         style="fill:none;stroke:#0000ff;stroke-width:0.1;stroke-miterlimit:4;stroke-dasharray:none" />
      <path
         id="path896"
         d="m 4.2256654,277.67982 c 0.7563758,-0.71002 0.2360044,-2.27202 -0.7569047,-2.27202 -0.986107,0 -1.2725261,1.49226 -0.4324542,2.25312 0.113349,0.10267 0.2654942,0.20983 0.3380977,0.23815 0.221662,0.0864 0.6405355,-0.0214 0.8512612,-0.21925 z"
         style="fill:none;stroke:#0000ff;stroke-width:0.1;stroke-miterlimit:4;stroke-dasharray:none" />
      <path
         id="path894"
         d="m 8.3961699,277.86703 c 0.240385,-0.12855 0.448583,-0.57658 0.877196,-1.88766 0.515871,-1.57799 0.9042191,-2.57717 1.3282831,-3.4175 1.690913,-3.35075 4.658531,-5.82284 8.745605,-7.28527 l 0.704038,-0.25192 -1.012054,0.0473 c -1.124075,0.0526 -3.036272,0.31379 -3.921884,0.53571 -1.99893,0.50091 -4.381074,1.80921 -5.6706271,3.11435 -1.546731,1.56543 -2.5756622,5.33156 -2.0788368,7.60903 0.1444652,0.66225 0.4738648,1.42941 0.6605558,1.53841 0.179865,0.10502 0.166508,0.10511 0.367724,-0.002 z"
         style="fill:none;stroke:#0000ff;stroke-width:0.1;stroke-miterlimit:4;stroke-dasharray:none" />
      <path
         id="path892"
         d="m 47.075205,276.33264 c 0.5211,-0.52069 0.85325,-1.77762 0.860175,-3.25511 0.0083,-1.76593 -0.416452,-2.76266 -1.08666,-2.55011 -0.221057,0.0701 -0.230347,0.21983 -0.01364,0.21983 0.205114,0 0.408924,0.22328 0.582314,0.63793 0.173283,0.41439 0.172265,0.55466 -0.0027,0.37978 -0.178515,-0.17837 -0.422975,-0.057 -0.655826,0.32558 -0.207812,0.34145 -0.438122,1.32274 -0.438122,1.86674 0,0.53049 0.169255,1.18964 0.320349,1.24758 0.135744,0.0521 0.162939,0.20294 0.03657,0.20294 -0.0457,0 -0.184699,-0.089 -0.308877,-0.19786 -0.770476,-0.67516 -0.186698,-3.67127 0.71533,-3.67127 0.261347,0 0.258244,-0.0988 -0.01324,-0.42114 -0.165925,-0.19703 -0.271528,-0.24851 -0.442692,-0.21582 -0.270207,0.0516 -0.459489,0.34435 -0.315606,0.48812 0.152917,0.15279 0.111636,0.42506 -0.07172,0.47297 -0.204419,0.0534 -0.269372,0.27189 -0.270945,0.91135 -6.66e-4,0.26842 -0.0358,0.52563 -0.07809,0.57158 -0.146198,0.15884 -0.178941,0.8266 -0.04699,0.95844 0.135258,0.13515 0.172358,0.75189 0.04523,0.75189 -0.09934,0 0.04104,0.64167 0.225238,1.02953 0.07561,0.15922 0.18885,0.28949 0.251637,0.28949 0.207816,0 0.540894,-0.50129 0.83952,-1.26351 0.162051,-0.41362 0.309935,-0.73674 0.328628,-0.71806 0.05384,0.0538 -0.246182,1.02141 -0.422735,1.36338 -0.08814,0.17073 -0.242913,0.3978 -0.343935,0.5046 -0.21926,0.23179 -0.228757,0.28946 -0.04766,0.28946 0.0748,0 0.234325,-0.0982 0.354493,-0.21831 z"
         style="fill:none;stroke:#0000ff;stroke-width:0.1;stroke-miterlimit:4;stroke-dasharray:none" />
      <path
         id="path890"
         d="m 46.100679,275.6716 c -0.08269,-0.13368 0.03303,-0.2638 0.234621,-0.2638 0.12819,0 0.164808,0.0402 0.126813,0.13909 -0.02937,0.0765 -0.05342,0.15564 -0.05342,0.17587 0,0.0758 -0.255788,0.0333 -0.308016,-0.0512 z"
         style="fill:none;stroke:#0000ff;stroke-width:0.1;stroke-miterlimit:4;stroke-dasharray:none" />
      <path
         id="path888"
         d="m 46.760713,271.31883 c 0,-0.0726 0.05941,-0.1319 0.132009,-0.1319 0.0726,0 0.132005,0.0593 0.132005,0.1319 0,0.0725 -0.0594,0.1319 -0.132005,0.1319 -0.0726,0 -0.132009,-0.0594 -0.132009,-0.1319 z"
         style="fill:none;stroke:#0000ff;stroke-width:0.1;stroke-miterlimit:4;stroke-dasharray:none" />
      <path
         id="path886"
         d="m 2.2202229,275.62763 c 0.00565,-0.20094 -0.012906,-0.23237 -0.077885,-0.1319 -0.046919,0.0726 -0.081967,0.29019 -0.077885,0.48364 0.00645,0.30515 0.016764,0.32262 0.077885,0.13191 0.038753,-0.12092 0.073801,-0.33855 0.077885,-0.48365 z"
         style="fill:none;stroke:#0000ff;stroke-width:0.1;stroke-miterlimit:4;stroke-dasharray:none" />
      <path
         id="path884"
         d="m 43.398629,275.04556 c 0.220777,-1.77123 1.113552,-6.56285 1.469688,-7.88799 0.121168,-0.45086 0.220308,-0.95999 0.220308,-1.13141 v -0.31167 l -0.594033,0.0598 c -0.705964,0.071 -2.595573,0.38041 -2.798462,0.4582 -0.107103,0.0411 -0.129601,0.12432 -0.09024,0.33395 0.0576,0.30679 0.08981,0.72104 0.219127,2.81788 0.176902,2.86848 0.189046,3.45697 0.09616,4.66054 -0.05225,0.6771 -0.117154,1.35467 -0.144216,1.50571 l -0.04921,0.27463 0.822394,-0.28512 c 0.703346,-0.24385 0.826168,-0.31543 0.848487,-0.49447 z"
         style="fill:none;stroke:#0000ff;stroke-width:0.1;stroke-miterlimit:4;stroke-dasharray:none" />
      <path
         id="path882"
         d="m 44.854224,275.765 c 0.250932,-0.0953 0.282737,-0.23263 0.408635,-1.76416 0.139157,-1.69279 0.671236,-3.76448 1.197112,-4.66104 0.463251,-0.78979 0.925658,-1.0839 1.680317,-1.06877 0.209286,0.004 0.38052,-0.0321 0.38052,-0.0806 0,-0.16634 -0.353119,-0.77984 -0.630654,-1.09568 -0.41247,-0.4694 -1.036199,-0.75076 -1.790762,-0.80778 l -0.636717,-0.0481 -0.141728,0.42956 c -0.304081,0.9216 -0.968169,4.22302 -1.368805,6.80481 -0.101318,0.65292 -0.205154,1.31298 -0.230742,1.46679 -0.0422,0.25366 -0.02385,0.28229 0.197134,0.30778 0.161166,0.0186 0.303659,0.12371 0.420863,0.3105 0.198588,0.31648 0.21184,0.32181 0.514827,0.2067 z"
         style="fill:none;stroke:#0000ff;stroke-width:0.1;stroke-miterlimit:4;stroke-dasharray:none" />
      <path
         id="path880"
         d="m 4.9135821,274.13274 c 6.652e-4,-0.5875 -0.034815,-0.7658 -0.2157548,-1.08154 -0.2779706,-0.48505 -0.6608251,-0.72223 -1.1578035,-0.71726 l -0.3856319,0.004 0.3292168,0.1174 c 0.5550033,0.19793 0.7782287,0.39735 1.0093171,0.90172 0.2310618,0.5043 0.3064193,1.23704 0.1792668,1.7431 l -0.066284,0.2638 0.153386,-0.2638 c 0.1107778,-0.19052 0.1536354,-0.45921 0.1542873,-0.96728 z"
         style="fill:none;stroke:#0000ff;stroke-width:0.1;stroke-miterlimit:4;stroke-dasharray:none" />
      <path
         id="path878"
         d="m 3.4624078,274.93813 c 0.072603,-0.002 0.2805151,0.0261 0.4620238,0.0615 0.315799,0.0616 0.3307002,0.0538 0.3458343,-0.18144 0.050431,-0.78387 -0.094579,-1.30693 -0.4590602,-1.65584 -0.470286,-0.45021 -0.9748115,-0.32353 -1.2380938,0.31085 -0.1192361,0.28732 -0.1167848,1.03208 0.00446,1.35053 0.089218,0.23434 0.1179024,0.2468 0.4242619,0.18428 0.180717,-0.0369 0.3879801,-0.0683 0.4605835,-0.0699 z"
         style="fill:none;stroke:#0000ff;stroke-width:0.1;stroke-miterlimit:4;stroke-dasharray:none" />
      <path
         id="path876"
         d="m 32.653916,272.02231 c -0.03499,-2.17848 -0.135181,-3.49991 -0.283534,-3.73976 -0.07575,-0.12246 -2.724996,0.47328 -4.473493,1.00595 -1.44446,0.44005 -3.489365,1.19472 -3.489365,1.28774 0,0.12814 0.485273,0.25895 0.960665,0.25895 1.087861,0 2.991187,0.4723 4.03671,1.00168 1.141563,0.57802 2.315043,1.67064 2.907775,2.70742 0.216907,0.3794 0.241022,0.39657 0.308746,0.21983 0.0404,-0.10543 0.05503,-1.33925 0.0325,-2.74181 z"
         style="fill:none;stroke:#0000ff;stroke-width:0.1;stroke-miterlimit:4;stroke-dasharray:none" />
      <path
         id="path874"
         d="m 24.328903,271.70952 c 0.204647,-0.10944 0.356101,-0.38521 0.296618,-0.5401 -0.0852,-0.22186 -0.427739,-0.35706 -0.894018,-0.35287 -0.807043,0.007 -0.979833,0.078 -1.081233,0.4428 -0.161601,0.58137 -0.140039,0.61904 0.371181,0.64845 0.490855,0.0283 1.039443,-0.055 1.307452,-0.19828 z"
         style="fill:none;stroke:#0000ff;stroke-width:0.1;stroke-miterlimit:4;stroke-dasharray:none" />
      <path
         id="path872"
         d="m 7.2466083,269.77272 c 0.3918816,-0.09 0.8800496,-0.45519 0.8800496,-0.65845 0,-0.21579 -0.8200955,-0.28669 -1.3164054,-0.11381 -0.2888438,0.10061 -0.5984662,0.60042 -0.4852969,0.78338 0.066842,0.10807 0.4209523,0.1038 0.9216527,-0.0111 z"
         style="fill:none;stroke:#0000ff;stroke-width:0.1;stroke-miterlimit:4;stroke-dasharray:none" />
      <path
         id="path870"
         d="m 32.100737,267.87997 c 0.08905,-0.0341 0.139203,-0.16076 0.139203,-0.35139 0,-0.38383 0.474725,-3.60301 0.755054,-5.12016 0.234442,-1.26878 0.398305,-1.6767 0.893567,-2.22446 0.833732,-0.92211 3.052482,-1.52234 6.095793,-1.64908 l 1.452076,-0.0605 -0.528028,-0.24645 c -1.120571,-0.52301 -3.175114,-1.04203 -5.280282,-1.33391 -3.413189,-0.47322 -8.692041,-0.20315 -12.276652,0.62809 -0.980084,0.22728 -2.587979,0.73188 -2.526821,0.79299 0.02004,0.02 0.487865,-0.004 1.039614,-0.0523 1.274032,-0.11267 2.991392,-0.11358 4.787383,-0.003 3.562682,0.22028 4.740428,0.50744 5.442527,1.32703 0.633536,0.73956 0.634591,1.85561 0.0044,4.63252 -0.250809,1.10515 -0.450542,1.43552 -0.971811,1.60742 -0.361381,0.11917 -0.585292,0.0937 -1.922963,-0.21833 -3.333372,-0.77765 -6.628125,-1.11411 -10.252546,-1.04699 -2.879475,0.0533 -2.812396,0.0546 -2.942423,-0.0533 -0.07814,-0.0648 -0.14679,-0.005 -0.254389,0.22003 -0.257545,0.53965 -0.243921,0.54651 0.754682,0.38004 3.04434,-0.50753 5.911066,-0.46553 10.186542,0.14924 1.730005,0.24876 3.01706,0.54949 3.764451,0.87961 0.853649,0.37704 1.315051,0.94777 1.211614,1.49869 -0.04798,0.25555 -0.03163,0.29709 0.117021,0.29709 0.09504,0 0.235442,-0.024 0.312004,-0.0534 z"
         style="fill:none;stroke:#0000ff;stroke-width:0.1;stroke-miterlimit:4;stroke-dasharray:none" />
      <path
         id="path868"
         d="m 35.584118,267.31121 c 1.33107,-0.28142 3.130341,-0.67206 3.998379,-0.86808 0.868038,-0.19603 1.613731,-0.35641 1.657094,-0.35641 0.09761,0 0.02548,-0.75724 -0.247157,-2.59408 -0.308934,-2.08149 -0.610657,-3.4349 -0.933461,-4.18716 l -0.174208,-0.40598 -0.500238,0.0354 c -0.912818,0.0647 -2.426697,0.29833 -3.140372,0.48467 -1.491281,0.38937 -2.337606,1.00858 -2.622346,1.91862 -0.12806,0.40929 -0.611777,3.11233 -0.805416,4.50071 l -0.05743,0.41175 0.258635,-0.0975 c 0.407884,-0.15384 0.838406,0.006 0.894984,0.33246 l 0.04518,0.26061 h 1.186013 c 1.185024,0 1.186102,-1.8e-4 1.293753,-0.22462 0.07326,-0.15273 0.08772,-0.40602 0.04519,-0.79142 l -0.06256,-0.56679 -0.550027,-0.0262 -0.550031,-0.0262 -0.0099,-1.02904 c -0.0055,-0.56596 -0.03604,-1.6028 -0.06797,-2.30409 -0.03193,-0.70128 -0.04351,-1.34104 -0.02571,-1.4217 0.07388,-0.335 1.885797,-0.82266 3.437621,-0.92521 0.693771,-0.0458 0.872259,-0.0296 1.115798,0.10143 0.332486,0.17891 0.373205,0.30789 0.653401,2.06962 0.313457,1.97084 0.440567,3.29202 0.348705,3.62445 -0.157903,0.57143 -0.236431,0.60301 -2.584255,1.03945 -1.217688,0.22636 -1.516507,0.31123 -1.642119,0.46643 -0.139326,0.17213 -0.252905,0.19245 -1.225504,0.21925 -1.216644,0.0335 -1.462467,-0.005 -1.537176,-0.24008 -0.02904,-0.0914 -0.128456,-0.18595 -0.22095,-0.21012 -0.130266,-0.034 -0.174238,0.008 -0.195096,0.18837 -0.03296,0.28436 -0.377839,0.37152 -0.548315,0.13857 -0.096,-0.13119 -0.118827,-0.0874 -0.168104,0.3227 -0.09469,0.78801 -0.09571,0.78477 0.227466,0.72484 0.157311,-0.0292 1.375075,-0.28328 2.706145,-0.5647 z"
         style="fill:none;stroke:#0000ff;stroke-width:0.1;stroke-miterlimit:4;stroke-dasharray:none" />
      <path
         id="path866"
         d="m 33.325525,265.76921 c -0.136702,-0.20846 -0.140783,-0.32781 -0.04442,-1.29845 0.19139,-1.92786 0.611594,-3.21745 1.223239,-3.75406 0.161625,-0.14179 0.332084,-0.25781 0.378803,-0.25781 0.04672,0 0.08824,0.16818 0.09228,0.37372 0.004,0.20555 0.01906,0.47266 0.03338,0.59357 0.01434,0.1209 0.04073,1.01072 0.05867,1.97736 l 0.03263,1.75752 -0.43882,0.0628 c -0.80858,0.11573 -0.837248,0.13178 -0.837248,0.46882 0,0.24629 -0.034,0.3061 -0.173978,0.3061 -0.09569,0 -0.241726,-0.10331 -0.324521,-0.22957 z"
         style="fill:none;stroke:#0000ff;stroke-width:0.1;stroke-miterlimit:4;stroke-dasharray:none" />
      <path
         id="path864"
         d="m 38.436019,266.04082 c 0.900079,-0.17033 1.735844,-0.35491 1.857246,-0.41019 0.393039,-0.17893 0.43244,-0.55751 0.22252,-2.13799 -0.280998,-2.11563 -0.503175,-3.43223 -0.614156,-3.63943 -0.143234,-0.26742 -0.269579,-0.22971 -0.187892,0.0561 0.16111,0.5637 0.643836,4.67394 0.585448,4.98492 -0.07944,0.42311 -0.216806,0.47743 -2.129442,0.84211 -1.354689,0.2583 -1.502284,0.30374 -1.463817,0.45073 0.02352,0.0899 0.05421,0.16346 0.06818,0.16346 0.01397,0 0.761831,-0.13936 1.661913,-0.3097 z"
         style="fill:none;stroke:#0000ff;stroke-width:0.1;stroke-miterlimit:4;stroke-dasharray:none" />
      <path
         id="path862"
         d="m 42.976512,265.74096 c 0.605032,-0.0989 1.349141,-0.18864 1.653578,-0.19947 l 0.55352,-0.0197 -0.0573,-0.61887 c -0.06933,-0.7488 -0.191148,-1.35117 -0.205188,-1.01458 -0.0051,0.12092 -0.08632,0.34627 -0.180607,0.50079 -0.197844,0.32421 -0.658737,0.49243 -2.248033,0.82047 -0.532429,0.1099 -0.978227,0.20739 -0.990664,0.21665 -0.01244,0.009 0.0027,0.14289 0.03346,0.29697 0.04071,0.20341 0.09512,0.26883 0.198622,0.23883 0.0784,-0.0227 0.637575,-0.12221 1.242607,-0.22109 z"
         style="fill:none;stroke:#0000ff;stroke-width:0.1;stroke-miterlimit:4;stroke-dasharray:none" />
      <path
         id="path860"
         d="m 18.040372,264.1965 c 0.09587,-0.0304 0.300274,-0.80656 0.785152,-2.9815 0.251718,-1.12908 0.241277,-1.01991 0.09755,-1.01991 -0.366733,0 -1.357623,1.20544 -1.794441,2.18298 -0.25398,0.56837 -0.641529,1.66676 -0.641529,1.81822 0,0.071 0.216947,0.091 0.726039,0.0668 0.399321,-0.019 0.771575,-0.0489 0.827231,-0.0666 z"
         style="fill:none;stroke:#0000ff;stroke-width:0.1;stroke-miterlimit:4;stroke-dasharray:none" />
      <path
         id="path858"
         d="m 22.241766,263.99826 c 0.07302,-0.24311 1.021697,-4.6194 1.021697,-4.71313 0,-0.052 -0.378307,-0.0626 -0.990053,-0.0276 -0.917579,0.0525 -1.833705,0.23775 -2.495483,0.50459 l -0.273367,0.11022 -0.417958,1.94204 c -0.229876,1.06812 -0.437872,2.03107 -0.462213,2.13989 l -0.04425,0.19785 h 1.807706 c 1.645348,0 1.811857,-0.0138 1.853926,-0.15388 z"
         style="fill:none;stroke:#0000ff;stroke-width:0.1;stroke-miterlimit:4;stroke-dasharray:none" />
      <path
         id="path856"
         d="m 27.612803,263.40754 c 0.699301,-0.0402 0.957353,-0.18659 1.259512,-0.71458 0.259406,-0.45328 0.273649,-1.30435 0.02982,-1.78191 -0.382419,-0.74901 -1.313354,-1.32446 -2.513951,-1.55399 -0.762003,-0.14568 -2.068666,-0.17384 -2.068666,-0.0446 0,0.0466 -0.138607,0.9922 -0.308017,2.1014 -0.169409,1.10922 -0.308016,2.04104 -0.308016,2.07072 0,0.0507 2.566704,9e-5 3.909316,-0.077 z"
         style="fill:none;stroke:#0000ff;stroke-width:0.1;stroke-miterlimit:4;stroke-dasharray:none" />
      <path
         id="path854"
         d="m 43.904578,262.32751 c -0.21936,-0.89805 -0.852056,-1.73248 -1.585498,-2.09103 -0.487469,-0.23831 -1.37293,-0.50413 -1.443707,-0.4334 -0.0407,0.0407 0.231261,1.98238 0.285208,2.03628 0.01533,0.0153 0.479686,0.14525 1.031905,0.28872 0.552223,0.14348 1.122846,0.29806 1.268053,0.3435 0.451982,0.14146 0.509245,0.12288 0.444039,-0.14407 z"
         style="fill:none;stroke:#0000ff;stroke-width:0.1;stroke-miterlimit:4;stroke-dasharray:none" />
      <path
         id="path852"
         d="m 38.558196,261.77791 h 1.010338 l -0.06135,-0.7555 c -0.03374,-0.41553 -0.09978,-0.85651 -0.146754,-0.97996 -0.08385,-0.22037 -0.09732,-0.22345 -0.739878,-0.16918 -0.817574,0.0691 -1.85044,0.27873 -2.596408,0.52708 l -0.57203,0.19045 -0.02614,0.65126 -0.02614,0.65126 1.074007,-0.0577 c 0.590703,-0.0317 1.528658,-0.0577 2.084346,-0.0577 z"
         style="fill:none;stroke:#0000ff;stroke-width:0.1;stroke-miterlimit:4;stroke-dasharray:none" />
      <path
         id="path826"
         d="m 42.860832,259.53466 c -0.493549,-0.45389 -0.778725,-0.54867 -1.886376,-0.62699 l -0.813992,-0.0575 0.100361,0.28766 c 0.08255,0.23661 0.114553,0.26232 0.180331,0.14488 0.184948,-0.33022 1.566455,-0.1009 2.34832,0.38981 0.223877,0.14051 0.426849,0.25465 0.45105,0.25365 0.02422,-9.9e-4 -0.146663,-0.17716 -0.379694,-0.39146 z"
         style="fill:none;stroke:#0000ff;stroke-width:0.1;stroke-miterlimit:4;stroke-dasharray:none" />
      <path
         id="path836"
         style="fill:none;stroke:#0000ff;stroke-width:0.1"
         d="m 4.811992,269.99297 -1.571553,1.57155 m 1.704392,-1.30527 0.626966,-0.62696 m -2.234262,2.23426 -1.03183,1.03183 m 3.588759,-3.18964 0.67849,-0.67849 m -3.5577,3.5577 -0.725296,0.7253 m -0.135159,0.53428 0.194281,-0.19428 m -0.158416,0.55754 -0.083364,0.0834 m -0.100087,0.49921 0.24813,-0.24813 m 0.047325,0.3518 -0.312469,0.31247 m 5.944252,-5.54513 1.628579,-1.62858 m -7.11244,7.11244 -0.510524,0.51052 m -1.397961,1.39796 0.117797,-0.11779 m 18.467443,-18.06832 -1.055637,1.05563 m -9.275117,9.27512 1.88692,-1.88692 m -7.997009,7.99701 -0.167398,0.1674 m -1.170138,1.17014 0.485564,-0.48557 m 18.228748,-17.82962 -2.795893,2.79589 M 1.695553,276.70155 3.121808,275.2753 m 17.474699,-17.07558 -3.859749,3.85975 m -4.558043,4.55804 0.165375,-0.16537 m -9.98865,9.98865 -0.497403,0.4974 m 17.344159,-16.94504 1.439973,-1.43997 m -3.848081,3.84808 -0.364464,0.36447 m -14.373223,14.37322 0.250028,-0.25003 m 18.69944,-18.30032 -0.738411,0.73841 m -4.192412,4.19241 0.54332,-0.54332 m -2.76827,2.76828 -0.121351,0.12135 m -9.522649,9.52265 0.177851,-0.17786 m -1.975943,1.97595 -0.112486,0.11248 m -1.520148,1.52015 0.093357,-0.0934 m 20.557407,-20.15828 -0.597461,0.59746 m -5.060388,5.06039 0.63248,-0.63248 M 5.024354,274.9692 4.412156,275.5814 m -3.374911,3.37491 0.092413,-0.0924 m 20.717106,-20.31799 -0.552354,0.55236 m -6.229431,6.22943 1.118186,-1.11819 m -11.340118,11.34012 -0.251989,0.25199 m -3.293975,3.29397 0.103585,-0.10358 m 20.861317,-20.4622 -0.509894,0.5099 m -20.19517,20.19517 0.123263,-0.12327 m 20.997023,-20.5979 -0.467434,0.46744 m -20.393014,20.39301 0.139601,-0.1396 m 21.136068,-20.73694 -0.486842,0.48684 M 2.096017,279.49404 2.248753,279.3413 m 21.258896,-20.85977 -0.513766,0.51376 m -19.101572,19.10158 0.758694,-0.7587 m -2.10986,2.10986 -0.169747,0.16975 m 21.010783,-20.61166 0.550282,-0.55028 m -5.623904,5.6239 -0.211004,0.211 m -5.755577,5.75558 1.581462,-1.58146 m -9.384623,9.38462 -0.311393,0.31139 m -1.580645,1.58065 0.186758,-0.18676 m 21.485766,-21.08664 -0.753235,0.75323 m -20.643908,20.6439 0.203769,-0.20377 m 21.580214,-21.18109 -1.250542,1.25054 m -18.557345,18.55735 0.349105,-0.34911 m -1.82904,1.82904 -0.230997,0.231 m 20.157809,-19.75869 1.747849,-1.74785 m -11.564386,11.56439 -0.325766,0.32577 m -9.753004,9.753 0.260887,-0.26089 m 21.769109,-21.36998 -0.445207,0.4452 m -1.799949,1.79995 0.69003,-0.69003 m -17.452604,17.45261 -0.112978,0.11298 m -2.751281,2.75128 0.395272,-0.39528 m 21.863557,-21.46443 -0.462824,0.46282 m -2.279639,2.27964 0.731947,-0.73194 M 6.566098,277.8178 5.825416,278.55849 m -2.081553,2.08155 0.551634,-0.55163 m 21.958004,-21.55889 -0.485165,0.48517 m -2.754604,2.7546 0.773864,-0.77386 m -17.127492,17.12749 -0.523328,0.52333 m -2.252878,2.25288 0.697611,-0.69761 m 22.058612,-21.65949 -0.507286,0.50728 m -3.229571,3.22957 0.815781,-0.81578 M 6.75411,278.42804 6.448137,278.73401 m -2.393417,2.39342 0.840169,-0.84017 m 22.114086,-21.71497 -0.511641,0.51164 m -3.704537,3.70454 0.856275,-0.85627 m -16.756825,16.75682 -0.132749,0.13275 m -2.517417,2.51742 0.96619,-0.96619 m 22.169557,-21.77044 -0.576209,0.57621 m -4.119289,4.11929 0.896999,-0.897 m -13.850182,13.85018 -0.402769,0.40277 m -4.878971,4.87897 1.074245,-1.07424 m 22.225029,-21.82591 -0.632546,0.63255 m -5.069371,5.06937 1.464822,-1.46482 M 9.072887,277.30663 8.45131,277.9282 m -3.78524,3.78524 1.168963,-1.16896 m 22.280502,-21.88138 -0.691944,0.69195 m -5.005906,5.0059 1.022158,-1.02216 m -17.291429,17.29143 -1.2504,1.2504 m 22.784557,-22.38543 0.801817,-0.80182 m -4.987318,4.98732 -0.706463,0.70646 m -17.63655,17.63655 1.307739,-1.30774 m 22.392762,-21.99364 -0.903096,0.9031 m -4.787934,4.78793 0.648637,-0.64863 m -14.528118,14.52811 -0.178425,0.17843 m -3.66576,3.66576 1.335315,-1.33531 m 22.422021,-22.0229 -0.99686,0.99686 m -4.663889,4.66388 0.682858,-0.68285 m -14.810856,14.81085 -0.178479,0.17848 m -3.473361,3.47336 1.331947,-1.33194 m 22.451279,-22.05216 -1.116315,1.11631 m -4.514151,4.51416 0.717078,-0.71708 m -17.22451,17.22451 -1.342049,1.34205 m 22.586817,-22.1877 1.23577,-1.23577 m -4.848886,4.84889 -0.751298,0.7513 m -17.785506,17.7855 1.218533,-1.21853 m 22.536029,-22.13691 -1.417635,1.41764 m -4.203466,4.20346 0.810485,-0.81048 m -13.373138,13.37314 -0.403165,0.40316 m -4.78086,4.78086 1.145019,-1.14502 m 22.510702,-22.11158 -1.536922,1.53693 m -4.02037,4.02036 0.865875,-0.86587 m -12.142591,12.14259 -0.154028,0.15403 m -2.320926,2.32093 0.327817,-0.32782 m -3.197886,3.19788 -1.089908,1.08991 m 21.894626,-21.4955 1.666701,-1.6667 m -4.576663,4.57666 -0.921265,0.92127 m -17.677244,17.67724 1.035425,-1.03542 m 22.432136,-22.03302 -1.882775,1.88278 m -3.55579,3.55579 0.976655,-0.97666 m -17.638555,17.63856 -0.980919,0.98092 m 21.286456,-20.88734 2.060625,-2.06062 m -4.320465,4.32046 -1.032045,1.03205 m -15.025615,15.02561 0.492734,-0.49273 m -2.1491,2.1491 -0.926413,0.92641 m 20.931448,-20.53232 2.250115,-2.25012 m -4.148526,4.14853 -1.072892,1.07289 m -15.04246,15.04246 0.298538,-0.29854 m -1.958139,1.95814 -0.889636,0.88963 m 20.276113,-19.87699 2.757661,-2.75766 m -3.909039,3.90904 -1.181287,1.18129 m -15.059652,15.05965 0.122341,-0.12234 m -1.78483,1.78483 -0.881733,0.88173 m 17.936933,-17.53781 4.914541,-4.91454 m -21.63807,21.63807 -0.872245,0.87225 m 17.928221,-17.5291 4.724141,-4.72414 m -21.448446,21.44844 -0.872487,0.87249 m 17.92924,-17.53012 4.470138,-4.47014 m -12.343496,12.3435 -4.315282,4.31528 m -5.411492,5.41149 0.87505,-0.87505 m 21.241693,-20.84257 -4.184163,4.18417 m -13.795022,13.79502 1.934274,-1.93427 m -4.865111,4.86511 -0.877614,0.87761 m 17.93592,-17.5368 3.898189,-3.89819 m -9.712291,9.7123 -0.320525,0.32052 m -3.976458,3.97646 0.327029,-0.32703 m -2.890229,2.89023 -0.160719,0.16072 m -2.328233,2.32823 0.885319,-0.88532 m -2.960801,2.9608 -0.368093,0.3681 m 17.93926,-17.54014 3.497006,-3.49701 m -12.994512,12.99451 -1.485624,1.48563 m -4.165507,4.1655 0.304147,-0.30414 m -2.413927,2.41392 -0.351735,0.35174 m 22.764872,-22.36575 0.690867,-0.69087 m -2.38859,2.38859 -3.12455,3.12455 m -11.270893,11.2709 1.239199,-1.2392 m -7.242463,7.24246 -0.339335,0.33933 m 17.93647,-17.53734 2.780243,-2.78025 m -7.895031,7.89503 -0.113608,0.11361 m -6.425053,6.42506 0.236596,-0.2366 m -5.84291,5.84291 -0.347599,0.3476 m 17.947914,-17.54879 2.293328,-2.29333 m -14.134039,14.13404 -0.157508,0.15751 m -3.104594,3.10459 0.43332,-0.43332 m -2.593451,2.59345 -0.342692,0.34269 m 22.285759,-21.88663 0.28089,-0.28089 m -2.766076,2.76607 -1.863448,1.86345 m -12.261233,12.26123 0.119254,-0.11925 m -2.885266,2.88527 -0.0589,0.0589 m -2.508277,2.50828 0.337365,-0.33737 m 22.773701,-22.37458 -0.07953,0.0795 m -1.469309,1.46931 0.684499,-0.6845 m -2.88724,2.88724 -1.433567,1.43356 m -12.515733,12.51574 0.133401,-0.1334 m -2.19229,2.19229 -0.494863,0.49486 m -2.513732,2.51373 0.342141,-0.34214 m 21.599285,-21.20016 -0.813548,0.81355 m -3.221001,3.221 0.967707,-0.96771 m -13.578263,13.57826 -0.111905,0.11191 m -2.322531,2.32253 0.157288,-0.15729 m -2.344365,2.34436 -0.332109,0.33211 m 20.607734,-20.20861 0.981641,-0.98164 m -3.07368,3.07368 -0.448568,0.44857 m -13.084041,13.08404 0.129456,-0.12946 m -4.433355,4.43336 -0.336487,0.33649 m 20.212721,-19.8136 1.045455,-1.04546 m -16.333624,16.33363 -0.11372,0.11372 m -4.468133,4.46813 0.340866,-0.34087 m 20.586112,-20.18699 -1.122109,1.12211 m -15.16629,15.1663 0.158189,-0.15819 m -4.108825,4.10882 -0.345245,0.34524 m 21.360658,-20.96153 0.256347,-0.25635 m -1.021224,1.02123 -1.20831,1.20831 m -14.898366,14.89836 0.178112,-0.17811 m -3.974894,3.9749 -0.358893,0.35889 m 21.038665,-20.63955 0.732756,-0.73275 m -1.497569,1.49757 -1.249722,1.24972 m -14.642029,14.64203 0.221627,-0.22163 m -3.897757,3.89776 -0.311087,0.31109 m 20.655217,-20.2561 1.072811,-1.07281 m -1.843452,1.84345 -1.322829,1.32283 m -14.297481,14.29748 0.208409,-0.20841 m -3.814511,3.81451 -0.286267,0.28627 m 20.294757,-19.89563 1.47186,-1.47186 m -2.246663,2.24666 -1.241544,1.24154 m -14.047457,14.04746 1.43068,-1.43068 m -5.028288,5.02829 -0.261448,0.26145 m 19.936558,-19.53744 1.868648,-1.86865 m -2.649874,2.64988 -0.207238,0.20724 m -1.636194,1.63619 0.224952,-0.22495 m -11.431908,11.4319 -0.07035,0.0704 m -1.835477,1.83548 0.974389,-0.97439 m -4.564983,4.56498 -0.236629,0.23663 m 25.255424,-24.8563 0.237184,-0.23718 m -0.932046,0.93204 -0.16745,0.16745 m -4.824647,4.82465 2.27533,-2.27533 m -16.327655,16.32766 -1.163686,1.16368 m -3.048577,3.04858 0.192835,-0.19284 m -0.913006,0.91301 -0.211809,0.21181 m 25.231457,-24.83234 0.131853,-0.13185 m -0.839169,0.83917 -0.411802,0.4118 m -4.911968,4.91197 2.763491,-2.76349 m -17.222411,17.22241 -0.05224,0.0522 m -4.317314,4.31731 0.18699,-0.18699 m 24.350815,-23.95169 -0.130554,0.13055 m -5.285415,5.28542 2.795568,-2.79557 m -21.391603,21.3916 -0.173312,0.17332 m 24.393508,-23.99439 0.108812,-0.10881 m -2.538282,2.53828 -2.813715,2.81372 m -18.715838,18.71583 0.121871,-0.12187 m 24.274445,-23.87532 -0.147817,0.14782 m -5.196563,5.19656 3.098847,-3.09884 m -21.652049,21.65204 -0.0983,0.0983 m 24.137542,-23.73842 0.130096,-0.1301 m -2.466762,2.46677 -3.046847,3.04684 m -9.207743,9.20775 0.06553,-0.0655 m -9.11658,9.11658 -0.0948,0.0948 m 24.026586,-23.62747 0.112374,-0.11237 m -2.68799,2.68799 -3.050244,3.05024 m -10.012833,10.01283 1.417342,-1.41734 m 14.598965,-14.19984 -0.127207,0.12721 m -5.914731,5.91473 3.120589,-3.12059 m -11.038855,11.03885 -2.147771,2.14778 m 16.220016,-15.8209 0.143421,-0.14342 m -3.144611,3.14461 -2.306899,2.3069 m -11.233308,11.23331 2.949882,-2.94988 m 14.213596,-13.81448 -0.399224,0.39923 m -2.004139,2.00414 0.261777,-0.26178 m -1.449485,1.44949 -1.83199,1.83199 m -12.309028,12.30902 3.949924,-3.94992 m 13.934792,-13.53567 -0.359065,0.35906 m -2.1366,2.1366 0.513317,-0.51331 m -1.729151,1.72915 -1.348009,1.34801 m -12.89939,12.89939 4.340138,-4.34014 m 13.771386,-13.37226 -0.318906,0.3189 m -2.26906,2.26906 0.783175,-0.78317 m -2.027134,2.02713 -0.863345,0.86335 m -13.737755,13.73775 4.962679,-4.96268 m -8.629427,8.62943 -0.155504,0.1555 m 22.09808,-21.69895 0.309824,-0.30983 m -1.66266,1.66266 -1.01824,1.01824 m -1.650133,1.65013 0.37868,-0.37868 m -9.413309,9.41331 -5.649303,5.64931 m 18.856701,-18.45758 0.31089,-0.31089 m -1.501235,1.50123 -1.285705,1.28571 m -17.849192,17.84919 7.325051,-7.32505 m 13.43906,-13.03994 -0.294709,0.29471 m -2.573624,2.57362 1.553169,-1.55317 m -11.924894,11.9249 -8.001099,8.0011 m 21.052517,-20.6534 0.306415,-0.30641 m -1.090811,1.09081 -1.848711,1.84871 m -12.526596,12.5266 2.276379,-2.27638 m -4.519561,4.51956 -3.228863,3.22886 m 20.752628,-20.3535 0.30331,-0.30331 m -0.912999,0.913 -2.097712,2.09771 m -12.288918,12.28892 2.160209,-2.16021 m -4.674451,4.67445 -3.079817,3.07981 m 17.878499,-17.47937 3.132964,-3.13297 m -13.10819,13.10819 -2.075259,2.07526 m -6.589403,6.58941 4.014518,-4.01452 m 17.876109,-17.47699 -2.571146,2.57115 m -12.538896,12.53889 2.010472,-2.01047 m -4.997649,4.99765 -3.737713,3.73771 m 19.761067,-19.36194 2.163401,-2.1634 m -12.214911,12.21491 -0.07185,0.0718 m -2.747923,2.74792 1.971972,-1.97197 m -3.307054,3.30705 -0.694152,0.69415 m -4.806478,4.80648 3.30035,-3.30035 m 18.653641,-18.25452 -1.692051,1.69206 m -13.287234,13.28723 1.959373,-1.95937 m -5.800211,5.80021 -3.110788,3.11078 m 20.771118,-20.37199 1.24339,-1.24339 m -13.011778,13.01178 -1.943522,1.94352 m -6.965606,6.96561 3.155422,-3.15543 m 18.849081,-18.44995 -0.794729,0.79472 m -3.126753,3.12676 0.258518,-0.25852 m -9.335955,9.33595 -1.947757,1.94776 m -6.986648,6.98665 3.215239,-3.21524 m 5.815623,-5.4165 -1.999418,1.99942 m -6.949662,6.94966 3.08874,-3.08874 m 5.956797,-5.55767 -2.051079,2.05107 m -6.887426,6.88743 2.756514,-2.75651 m 6.260959,-5.86184 -2.085252,2.08525 m -6.816289,6.81629 2.725512,-2.72551 m 6.2543,-5.85518 -2.13813,2.13813 m -6.695049,6.69505 2.598778,-2.59878 m 6.312673,-5.91355 -2.234581,2.23458 m -6.506596,6.5066 2.489741,-2.48974 m 6.329707,-5.93059 -2.331031,2.33103 m -6.287344,6.28735 2.399235,-2.39924 m 19.083783,-18.68466 -0.07222,0.0722 m -15.121157,15.12115 2.407009,-2.40701 m -6.168268,6.16827 -2.213043,2.21305 m 7.307464,-6.90835 1.151778,-1.15177 m -2.101191,2.10119 -0.469666,0.46966 m -5.58732,5.58732 2.071742,-2.07174 m 6.16409,-5.76497 -0.807898,0.8079 m -1.933752,1.93375 0.486752,-0.48675 m -3.679863,3.67986 -1.948998,1.949 m 8.748842,-8.34972 0.219866,-0.21986 m -1.007294,1.00729 -0.474149,0.47415 m -2.457739,2.45774 0.511726,-0.51173 m -3.522321,3.52232 -1.650115,1.65012 m 8.413103,-8.01398 0.781839,-0.78184 m -1.524689,1.52469 -0.248778,0.24878 m -2.905253,2.90525 0.571147,-0.57115 m -3.187065,3.18707 -1.531488,1.53148 m 8.077364,-7.67824 1.343812,-1.34381 m -2.042084,2.04209 -0.06633,0.0663 m -3.531386,3.53139 0.994892,-0.99489 m -2.948178,2.94818 -1.459276,1.45927 m 9.192432,-8.79331 0.560541,-0.56054 m -5.705981,5.70598 -3.634199,3.6342 m 9.479762,-9.08064 0.357397,-0.3574 m -2.385405,2.38541 -0.576673,0.57667 m -6.445832,6.44584 3.220247,-3.22025 m 6.800732,-6.40161 -0.319046,0.31904 m -3.054921,3.05493 0.870011,-0.87001 m -4.828272,4.82827 -2.17092,2.17092 m 9.903005,-9.50389 0.213211,-0.21321 m -8.461062,8.46107 -0.962393,0.96239 m 9.888788,-9.48967 0.147734,-0.14773 m 8.979903,-8.58078 -0.352351,0.35235 m -8.096741,8.09674 0.08226,-0.0823 m 9.005628,-8.6065 -1.426704,1.4267 m -6.982637,6.98264 0.251211,-0.25121 m 9.081112,-8.68199 -2.33678,2.33678 m -0.373467,0.77259 2.825233,-2.82524 m -7.89676,7.89676 -0.368359,0.36836 m 6.77032,-6.3712 1.592054,-1.59205 m -2.797786,2.79779 -0.08773,0.0877 m -4.617239,4.61724 0.149569,-0.14957 m 7.432341,-7.03322 -1.420194,1.4202 m -1.65354,1.65354 0.280778,-0.28078 m 2.872106,-2.47299 -1.331207,1.33121 m 0.16619,0.23293 1.244168,-1.24416 m -2.178283,2.17828 -0.107008,0.10701 m -1.132483,1.13248 0.07251,-0.0725 m -2.307058,2.30705 -0.226534,0.22654 m 4.747732,-4.34861 1.209,-1.209 m 0.07687,0.32225 -1.204255,1.20426 m 0.09592,0.3032 1.235894,-1.23589 m -3.808828,3.80882 -0.06263,0.0626 m -1.932812,1.93281 0.187147,-0.18714 m 5.766957,-5.36784 -1.362643,1.36264 m -2.708389,2.70839 0.198322,-0.19832 m -1.328014,1.32802 -0.613543,0.61354 m 4.474712,-4.07559 1.496575,-1.49658 m -4.010794,4.0108 -1.811725,1.81172 m 4.339221,-3.9401 1.543576,-1.54357 m -4.125603,4.1256 -1.559098,1.5591 m 5.097249,-4.69813 0.329281,-0.32928 m -1.149559,1.14956 -0.128222,0.12822 m -3.920553,3.92055 1.433777,-1.43377 m 2.590974,-2.19185 -0.129896,0.12989 m -3.666659,3.66666 1.304979,-1.30498 m 2.467507,-2.06838 -0.127852,0.12785 m -3.388923,3.38892 1.193426,-1.19342 m 2.303219,-1.9041 -0.199367,0.19937 m -3.004576,3.00457 1.086325,-1.08632 m 2.012714,-1.61359 -0.182546,0.18254 m -2.562924,2.56293 0.982162,-0.98217 m 1.708339,-1.30921 -2.255851,2.25585 m 0.438742,-0.0396 1.607302,-1.6073 m -0.316398,0.71552 -0.92195,0.92195"
         inkscape:connector-curvature="0" />
    </g>
  </g>
</svg>
