<?xml version="1.0" encoding="UTF-8" standalone="no"?>
<!-- Created with Inkscape (http://www.inkscape.org/) -->

<svg
   xmlns:dc="http://purl.org/dc/elements/1.1/"
   xmlns:cc="http://creativecommons.org/ns#"
   xmlns:rdf="http://www.w3.org/1999/02/22-rdf-syntax-ns#"
   xmlns:svg="http://www.w3.org/2000/svg"
   xmlns="http://www.w3.org/2000/svg"
   xmlns:sodipodi="http://sodipodi.sourceforge.net/DTD/sodipodi-0.dtd"
   xmlns:inkscape="http://www.inkscape.org/namespaces/inkscape"
   width="75mm"
   height="75mm"
   viewBox="0 0 75 75"
   version="1.1"
   id="svg8"
   sodipodi:docname="75.svg"
   inkscape:version="0.92.2 2405546, 2018-03-11">
  <sodipodi:namedview
     id="base"
     pagecolor="#ffffff"
     bordercolor="#666666"
     borderopacity="1.0"
     inkscape:pageopacity="0.0"
     inkscape:pageshadow="2"
     inkscape:zoom="0.98994949"
     inkscape:cx="116.82655"
     inkscape:cy="114.17669"
     inkscape:document-units="mm"
     inkscape:current-layer="layer1"
     showgrid="false"
     inkscape:window-width="1366"
     inkscape:window-height="703"
     inkscape:window-x="0"
     inkscape:window-y="0"
     inkscape:window-maximized="1" />
  <defs
     id="defs2" />
  <metadata
     id="metadata5">
    <rdf:RDF>
      <cc:Work
         rdf:about="">
        <dc:format>image/svg+xml</dc:format>
        <dc:type
           rdf:resource="http://purl.org/dc/dcmitype/StillImage" />
        <dc:title></dc:title>
      </cc:Work>
    </rdf:RDF>
  </metadata>
  <g
     transform="translate(0,-222)"
     id="layer1"
     inkscape:groupmode="layer"
     inkscape:label="Layer 1">
    <g
       id="g1381">
      <path
         id="path1328"
         d="m 36.852969,283.03568 c -0.484228,-0.0964 -1.033027,-0.2752 -1.219558,-0.39737 -0.697336,-0.45674 -1.302456,-1.77114 -1.542458,-3.35044 -0.08389,-0.55206 -0.190699,-1.23387 -0.237347,-1.51513 l -0.08481,-0.51142 -2.310813,0.0492 c -5.045856,0.10752 -7.773285,0.0345 -9.972362,-0.2671 -2.32218,-0.31849 -5.619022,-0.93531 -7.265262,-1.35925 -0.850077,-0.21892 -1.508895,-0.27585 -3.368441,-0.29111 -2.1041301,-0.0173 -2.3828367,-0.0473 -3.1042512,-0.33499 -1.0149241,-0.4047 -2.340567,-1.68074 -2.5816343,-2.48503 -0.1472713,-0.49136 -0.2368936,-0.5748 -0.904448,-0.84212 -1.0938369,-0.43803 -2.699874,-1.22313 -3.37331457,-1.649 -0.8602785,-0.54405 -0.93987045,-0.75914 -0.75761592,-2.04739 0.0838553,-0.59275 0.21684825,-1.15526 0.29553644,-1.25004 0.14734186,-0.17746 0.96725995,-0.50462 1.60833855,-0.64173 0.3199254,-0.0685 0.3632611,-0.1383 0.3632611,-0.58606 0,-0.2796 0.081069,-1.00635 0.1801476,-1.61501 0.099083,-0.60866 0.1850554,-1.2552 0.1910516,-1.43676 0.030855,-0.93427 0.431999,-2.00296 0.8954563,-2.38561 0.1260575,-0.10407 0.4784949,-0.57757 0.7831927,-1.05218 1.0259678,-1.59816 2.6349005,-2.95959 4.1347749,-3.49872 0.3709146,-0.13334 0.688109,-0.34465 0.7596579,-0.50612 0.06756,-0.15245 0.2714472,-0.35166 0.4530777,-0.44266 0.4451842,-0.22304 2.0376062,-0.21481 2.4833502,0.0135 0.464946,0.23745 0.826474,0.0956 1.283667,-0.50355 0.360734,-0.47275 1.434597,-1.36602 2.600058,-2.16277 1.021976,-0.69867 3.212876,-1.72843 4.829639,-2.26998 0.835058,-0.27972 1.56371,-0.55743 1.619225,-0.61713 0.05552,-0.0596 0.495612,-1.03295 0.977992,-2.16279 2.738505,-6.41418 4.559572,-8.08926 10.445622,-9.60824 5.741498,-1.48171 14.089423,-1.96117 19.748299,-1.13427 3.473377,0.50755 6.157404,1.22573 8.06787,2.15877 1.200978,0.58654 3.02938,1.99284 3.665012,2.81893 1.591917,2.0689 2.797643,5.61693 2.797643,8.2325 v 0.84099 l 0.627454,0.001 c 0.709866,0.001 1.755546,0.25218 2.344696,0.56146 0.479034,0.25149 1.376173,1.17966 1.753728,1.81439 0.378813,0.63685 0.887163,2.24346 1.086074,3.43247 0.12011,0.71804 0.251891,1.07698 0.479249,1.30544 0.411819,0.41381 0.463201,1.33682 0.111089,1.99564 -0.09703,0.18156 -0.209285,0.48594 -0.249445,0.67639 -0.07412,0.35148 -0.455285,0.512 -1.215776,0.512 -0.30005,0 -0.31373,0.0399 -0.31373,0.91475 0,1.93085 -0.47186,4.12686 -1.126782,5.24394 -0.472351,0.80569 -1.289798,1.45112 -2.07692,1.63988 -1.092533,0.26198 -2.144202,0.18828 -2.952259,-0.20691 -0.750361,-0.36698 -1.637679,-1.27369 -1.637679,-1.67348 0,-0.13214 -0.06803,-0.24031 -0.151171,-0.24031 -0.137373,0 -4.793228,2.11367 -10.020197,4.549 -1.126114,0.52468 -2.478443,1.15065 -3.005177,1.39106 -0.526733,0.2404 -0.957693,0.50578 -0.957693,0.58971 0,0.0839 -0.198052,0.34451 -0.440117,0.57903 -0.506388,0.49062 -0.777656,0.45727 -1.019048,-0.12523 -0.217318,-0.52445 -0.60973,-0.77752 -1.205639,-0.77752 -0.59065,0 -1.79969,0.24602 -1.884693,0.38351 -0.03335,0.0539 -0.125259,0.62847 -0.204263,1.27674 -0.294547,2.417 -1.126914,4.86748 -2.193177,6.45672 -0.975137,1.4534 -1.63557,2.00362 -2.923045,2.43521 -0.968129,0.32454 -2.86641,0.35789 -4.286045,0.0752 z"
         style="fill:none;stroke:#ff0000;stroke-width:0.1;stroke-miterlimit:4;stroke-dasharray:none" />
      <path
         id="path1326"
         d="m 42.162219,279.97115 c 0.617805,-0.43056 1.071473,-1.0291 1.578932,-2.08314 1.14285,-2.37382 1.568318,-6.03581 0.982912,-8.45991 -0.307591,-1.27371 -1.144382,-2.1385 -1.907219,-1.97101 -0.477149,0.10481 -0.650577,0.32962 -0.254224,0.32962 0.438251,0 1.23585,0.89692 1.585169,1.78258 0.281925,0.71478 0.312074,0.99241 0.308316,2.83894 -0.0047,2.3115 -0.225305,3.40296 -1.003823,4.96663 -0.723002,1.45215 -1.488345,2.19063 -2.428885,2.34363 -0.211149,0.0344 -0.413631,0.0692 -0.449957,0.0775 -0.03632,0.009 0.04934,0.10226 0.190367,0.20892 0.344806,0.26069 0.998554,0.24491 1.398412,-0.0338 z"
         style="fill:none;stroke:#0000ff;stroke-width:0.1;stroke-miterlimit:4;stroke-dasharray:none" />
      <path
         id="path1324"
         d="m 41.485062,279.21519 c 1.912519,-0.98861 3.207448,-5.57775 2.498248,-8.85364 -0.364754,-1.68486 -1.436469,-2.68194 -2.285184,-2.12606 -0.407441,0.26687 -1.522888,2.47753 -1.28936,2.55534 0.339689,0.11322 0.0023,1.48534 -0.365259,1.48534 -0.174455,0 -0.257382,0.20253 -0.375378,0.91673 -0.192366,1.16436 -0.191132,1.19597 0.0467,1.19597 0.149711,0 0.198144,0.16138 0.198144,0.66021 0,0.4763 -0.05126,0.66021 -0.18401,0.66021 -0.272847,0 -0.314691,0.23721 -0.209631,1.1884 0.245409,2.22187 0.826171,2.90655 1.965742,2.3175 z"
         style="fill:none;stroke:#0000ff;stroke-width:0.1;stroke-miterlimit:4;stroke-dasharray:none" />
      <path
         id="path1322"
         d="m 39.831551,277.87384 c -0.135496,-0.53965 0.362325,-0.75588 0.658744,-0.28613 0.09467,0.15001 0.08302,0.2734 -0.03976,0.42127 -0.258257,0.31106 -0.521371,0.25361 -0.618982,-0.13514 z"
         style="fill:none;stroke:#0000ff;stroke-width:0.1;stroke-miterlimit:4;stroke-dasharray:none" />
      <path
         id="path1320"
         d="m 40.924455,277.68269 c -0.443299,-0.34856 -0.747981,-1.36792 -0.745008,-2.49252 0.0072,-2.71559 1.523507,-5.65531 2.751475,-5.33433 0.317862,0.083 0.388242,0.30765 0.09642,0.30765 -0.359771,0 -0.962003,0.65404 -1.304329,1.41654 -0.774266,1.72461 -1.064931,3.84044 -0.699978,5.09533 0.124329,0.42751 0.331606,0.82362 0.479182,0.91576 0.143046,0.0893 0.260081,0.20747 0.260081,0.26263 0,0.19728 -0.498958,0.0953 -0.837846,-0.17106 z"
         style="fill:none;stroke:#0000ff;stroke-width:0.1;stroke-miterlimit:4;stroke-dasharray:none" />
      <path
         id="path1318"
         d="m 41.394085,269.61056 c -0.231771,-0.23169 -0.196919,-0.47447 0.09015,-0.62805 0.332619,-0.17794 0.66017,0.17234 0.459109,0.49096 -0.180276,0.28568 -0.356587,0.32968 -0.549264,0.1371 z"
         style="fill:none;stroke:#0000ff;stroke-width:0.1;stroke-miterlimit:4;stroke-dasharray:none" />
      <path
         id="path1316"
         d="m 34.662159,276.43602 c 0.275163,-0.0721 0.363263,-0.17594 0.363263,-0.42831 0,-0.31756 -0.02631,-0.32911 -0.561406,-0.24639 -0.308774,0.0478 -1.036951,0.12343 -1.618171,0.16829 -0.676621,0.0523 -1.094766,0.14595 -1.162401,0.26069 -0.07954,0.135 -0.552635,0.18552 -1.915389,0.20479 l -1.809751,0.0255 1.320957,0.0779 c 1.682021,0.0993 4.908443,0.0617 5.382898,-0.0625 z"
         style="fill:none;stroke:#0000ff;stroke-width:0.1;stroke-miterlimit:4;stroke-dasharray:none" />
      <path
         id="path1314"
         d="m 27.371993,276.27161 c -0.32247,-0.0285 -0.649408,-0.12763 -0.726527,-0.22039 -0.08842,-0.10631 -0.973752,-0.25086 -2.396898,-0.39129 -1.241176,-0.12253 -3.406123,-0.39891 -4.81099,-0.61432 -1.404868,-0.2154 -2.576617,-0.36935 -2.603887,-0.34208 -0.138723,0.1386 5.48496,1.09424 9.275274,1.57604 0.217958,0.0276 0.723224,0.0489 1.122813,0.0472 0.652771,-0.003 0.667004,-0.009 0.140209,-0.0551 z"
         style="fill:none;stroke:#0000ff;stroke-width:0.1;stroke-miterlimit:4;stroke-dasharray:none" />
      <path
         id="path1312"
         d="m 31.458839,275.7171 c 0,-0.28622 -0.04458,-0.54778 -0.09907,-0.58126 -0.05449,-0.0335 -1.094743,-0.10436 -2.311674,-0.15748 l -2.212604,-0.0966 v 0.54582 c 0,0.47323 0.03952,0.54797 0.297216,0.56193 0.163469,0.009 1.129418,0.058 2.146555,0.10917 1.017136,0.0512 1.923642,0.10331 2.014459,0.11592 0.108043,0.015 0.165118,-0.15698 0.165118,-0.49746 z"
         style="fill:none;stroke:#0000ff;stroke-width:0.1;stroke-miterlimit:4;stroke-dasharray:none" />
      <path
         id="path1310"
         d="m 34.530065,274.91305 c 0.280658,-0.0796 0.495357,-0.22362 0.495357,-0.33232 0,-0.22866 0.06912,-0.22414 -0.807568,-0.0527 -0.391341,0.0766 -1.722064,0.14701 -2.957158,0.15664 -1.850505,0.015 -2.02671,0.0306 -1.001432,0.092 0.895037,0.0536 1.261314,0.12598 1.305204,0.25827 0.04893,0.14746 0.299449,0.16749 1.265622,0.10121 0.662539,-0.0455 1.427527,-0.14581 1.699975,-0.22305 z"
         style="fill:none;stroke:#0000ff;stroke-width:0.1;stroke-miterlimit:4;stroke-dasharray:none" />
      <path
         id="path1308"
         d="m 26.5713,274.85105 c 0,-0.15763 0.19325,-0.19806 0.946685,-0.19806 0.520677,0 0.921917,-0.0219 0.891647,-0.0485 -0.03028,-0.0267 -0.708914,-0.088 -1.508092,-0.13604 -9.218224,-0.55563 -18.7865053,-2.75184 -24.500412,-5.6236 l -1.0767223,-0.54115 0.041339,0.48922 c 0.041189,0.48733 0.046681,0.49146 1.4283406,1.07715 5.2827214,2.23933 12.6038257,3.97179 21.0032097,4.97023 2.139358,0.25432 2.77401,0.25679 2.77401,0.0105 z"
         style="fill:none;stroke:#0000ff;stroke-width:0.1;stroke-miterlimit:4;stroke-dasharray:none" />
      <path
         id="path1306"
         d="m 16.565054,274.56554 c -0.09081,-0.0366 -0.239424,-0.0366 -0.33024,0 -0.09081,0.0366 -0.01651,0.0667 0.16512,0.0667 0.181631,0 0.255935,-0.03 0.16512,-0.0667 z"
         style="fill:none;stroke:#0000ff;stroke-width:0.1;stroke-miterlimit:4;stroke-dasharray:none" />
      <path
         id="path1304"
         d="m 33.807054,274.31624 c 0.871981,-0.10075 0.878522,-0.10436 0.359746,-0.1992 -0.29061,-0.0532 -1.390306,-0.164 -2.443769,-0.24646 -4.189344,-0.32783 -8.711894,-0.8565 -10.223173,-1.19505 -0.315048,-0.0706 -1.090465,-0.18711 -1.72315,-0.25898 -0.724685,-0.0823 -1.307491,-0.22775 -1.57505,-0.39305 -0.26271,-0.16229 -0.977066,-0.3438 -1.872769,-0.47587 -2.73365,-0.40303 -6.7484586,-1.36688 -9.2438959,-2.21922 -0.5445469,-0.186 -1.0989394,-0.29134 -1.3440258,-0.25538 -0.6075434,0.0892 -1.274434,-0.17656 -1.778446,-0.70855 -0.2430544,-0.25653 -0.6945495,-0.57849 -1.0033212,-0.71545 -0.395019,-0.17522 -0.561407,-0.32869 -0.561407,-0.51781 0,-0.31025 -0.2079066,-0.33579 -0.9423667,-0.11578 -0.3461714,0.10361 -0.51068723,0.22925 -0.51068723,0.38979 0,0.50232 2.30750593,1.72142 5.30753943,2.8041 6.0848724,2.19596 12.9610834,3.50444 21.2436914,4.04251 3.676189,0.2388 4.711394,0.24939 6.311084,0.0644 z"
         style="fill:none;stroke:#0000ff;stroke-width:0.1;stroke-miterlimit:4;stroke-dasharray:none" />
      <path
         id="path1302"
         d="m 35.883991,273.03547 c 0.729992,-0.8484 1.332312,-2.00833 2.393153,-4.60867 1.227758,-3.0095 1.790212,-4.07163 2.644728,-4.99423 0.983136,-1.06148 1.830869,-1.48792 3.104445,-1.56161 1.234841,-0.0715 1.914855,0.19975 2.737359,1.0917 1.073603,1.16427 1.768023,2.99442 2.657067,7.00279 0.598337,2.69768 0.71726,3.06233 0.869709,2.66676 0.123878,-0.32142 -0.42157,-4.09264 -0.807132,-5.58053 -1.392883,-5.37522 -5.018663,-8.25651 -11.114978,-8.83274 l -0.818093,-0.0773 -0.255611,0.57762 c -0.359523,0.81244 -1.077519,1.14961 -2.409992,1.13176 -1.373768,-0.0185 -1.651908,-0.11487 -1.604491,-0.55681 0.02091,-0.19488 0.0081,-0.35433 -0.02834,-0.35433 -0.0365,0 -0.529153,0.27778 -1.094788,0.61728 -2.811945,1.68774 -5.472069,4.25503 -7.439482,7.17984 -0.752068,1.11804 -0.818738,1.28387 -1.257823,3.12885 -0.255014,1.07153 -0.495442,2.05223 -0.534282,2.17931 -0.03885,0.12703 -0.0096,0.23108 0.06507,0.23108 0.07463,0 0.207984,-0.24119 0.296338,-0.53597 0.306628,-1.02303 1.004817,-0.97385 0.862946,0.0608 -0.04579,0.33395 -0.03982,0.60839 0.01336,0.60983 0.05311,0.002 0.482925,0.0581 0.955168,0.12583 0.990926,0.14235 4.019033,0.43823 7.525703,0.7355 1.34201,0.11382 2.466474,0.23329 2.498809,0.26561 0.132704,0.13259 0.281667,0.0317 0.741232,-0.50241 z"
         style="fill:none;stroke:#0000ff;stroke-width:0.1;stroke-miterlimit:4;stroke-dasharray:none" />
      <path
         id="path1300"
         d="m 28.635625,271.29009 c -0.800252,-0.28514 -1.430359,-0.87329 -1.924279,-1.7961 -1.119064,-2.09085 -0.456093,-4.92841 1.407281,-6.02328 0.521981,-0.3067 0.782005,-0.37064 1.490874,-0.36662 1.603677,0.009 2.822918,1.03899 3.356556,2.83524 0.928433,3.12513 -1.646702,6.30701 -4.330432,5.35076 z"
         style="fill:none;stroke:#0000ff;stroke-width:0.1;stroke-miterlimit:4;stroke-dasharray:none" />
      <path
         id="path1298"
         d="m 31.464223,269.93916 c 1.380577,-1.57178 1.31206,-4.19476 -0.143916,-5.50963 -0.757881,-0.68443 -1.679516,-0.88968 -2.437328,-0.54283 l -0.396287,0.18138 0.528381,0.0135 c 1.106415,0.0285 2.053148,0.72858 2.599833,1.92245 0.427811,0.93427 0.42843,2.53387 0.0013,3.33957 -0.165227,0.31165 -0.41683,0.68303 -0.559121,0.82526 -0.142296,0.1422 -0.205426,0.25862 -0.140299,0.25862 0.06513,0 0.31148,-0.2198 0.54745,-0.48845 z"
         style="fill:none;stroke:#0000ff;stroke-width:0.1;stroke-miterlimit:4;stroke-dasharray:none" />
      <path
         id="path1296"
         d="m 30.625213,269.58808 c 1.446258,-1.57751 0.332153,-4.8406 -1.651767,-4.83784 -1.697929,0.003 -2.369678,2.95072 -1.039745,4.56351 0.809471,0.98163 1.937635,1.09663 2.691512,0.27433 z"
         style="fill:none;stroke:#0000ff;stroke-width:0.1;stroke-miterlimit:4;stroke-dasharray:none" />
      <path
         id="path1294"
         d="m 22.261113,271.91309 c 0.202965,-0.70239 0.741363,-3.11626 0.7035,-3.1541 -0.106662,-0.10662 -1.246043,1.37608 -1.33298,1.73463 -0.05282,0.21787 -0.24112,0.61781 -0.418427,0.88874 l -0.322377,0.49261 0.297393,0.0634 c 0.61699,0.13169 0.828443,0.1756 0.915947,0.19047 0.04959,0.009 0.120216,-0.0888 0.156944,-0.21577 z"
         style="fill:none;stroke:#0000ff;stroke-width:0.1;stroke-miterlimit:4;stroke-dasharray:none" />
      <path
         id="path1292"
         d="m 57.28354,269.03975 c 7.389665,-3.27775 8.229244,-3.6298 8.656186,-3.6298 0.495351,0 0.619167,-0.22811 0.298048,-0.5491 -0.256569,-0.25646 -0.268616,-0.25435 -1.634201,0.28823 -0.756651,0.30062 -1.554058,0.62889 -1.772015,0.72948 -0.217957,0.10061 -1.258213,0.53251 -2.311674,0.95979 -1.053462,0.4273 -3.68382,1.5109 -5.845232,2.40801 -3.4776,1.44338 -3.92985,1.66475 -3.92985,1.92354 0,0.64656 0.103704,0.71321 0.704095,0.45261 0.302947,-0.13154 2.92854,-1.29375 5.834643,-2.58276 z"
         style="fill:none;stroke:#0000ff;stroke-width:0.1;stroke-miterlimit:4;stroke-dasharray:none" />
      <path
         id="path1290"
         d="m 20.329913,271.32255 c 1.027054,-0.95877 0.913457,-2.75076 -0.235645,-3.71728 -0.847396,-0.71275 -1.90805,-0.44126 -2.466049,0.63124 -0.328027,0.63048 -0.183548,1.88082 0.295306,2.55561 0.654552,0.92238 1.732082,1.1599 2.406388,0.53043 z"
         style="fill:none;stroke:#0000ff;stroke-width:0.1;stroke-miterlimit:4;stroke-dasharray:none" />
      <path
         id="path1288"
         d="m 16.709226,270.60306 c 0.174631,-0.0494 0.221715,-0.14911 0.166924,-0.35326 -0.04198,-0.1564 -0.07714,-0.41806 -0.07813,-0.58146 -0.0014,-0.22686 -0.0784,-0.29709 -0.325826,-0.29709 -1.546629,0 -1.813892,-1.8769 -0.733293,-5.1497 1.214919,-3.67959 2.866176,-6.45024 5.27534,-8.85153 1.69707,-1.69153 2.947406,-2.59422 5.058903,-3.65231 1.873051,-0.93862 2.845776,-1.29393 4.486132,-1.6387 2.410761,-0.50669 6.625546,-0.36241 10.047558,0.34393 2.881081,0.59468 2.283014,1.48821 -1.859681,2.7784 -7.340429,2.28609 -13.469234,6.40442 -17.76145,11.93504 l -1.160389,1.49517 0.367521,0.1906 c 0.730139,0.37866 1.113086,0.89706 1.418345,1.92007 l 0.147218,0.49334 1.250616,-1.61002 c 3.597232,-4.63101 5.900667,-6.81191 9.338409,-8.84161 0.746375,-0.44068 1.357047,-0.88089 1.357047,-0.97824 0,-0.241 0.341084,-0.39903 1.09839,-0.5089 0.349829,-0.0508 1.033426,-0.27193 1.5191,-0.49151 2.461389,-1.11281 7.302574,-2.61058 10.411172,-3.22106 0.28587,-0.0562 0.440031,-0.3942 0.443291,-0.97208 0.0026,-0.47458 -1.008548,-1.37669 -1.934161,-1.72548 -2.134417,-0.80426 -9.02734,-1.85006 -12.193931,-1.85006 -2.849535,0 -6.981611,1.5994 -10.330783,3.99872 -3.836588,2.74852 -6.245543,6.0289 -7.836173,10.67087 -0.327233,0.95497 -0.594967,1.75046 -0.594967,1.76775 0,0.0173 0.148614,0.003 0.330238,-0.0317 0.264741,-0.0506 0.330239,-0.0105 0.330239,0.20559 0,0.41211 -0.140299,0.6864 -0.351112,0.6864 -0.470862,0 -0.788906,1.9017 -0.375414,2.24474 0.250158,0.20753 0.252637,0.67037 0.0068,1.25865 -0.234495,0.561 -0.369621,0.57226 -0.733701,0.0611 -0.240442,-0.33754 -0.270249,-0.50994 -0.199733,-1.15538 l 0.08289,-0.75864 -0.282612,0.36312 c -0.388923,0.49971 -1.047161,0.50046 -1.509785,10e-4 -0.405018,-0.43662 -0.804001,-1.59914 -1.008907,-2.93969 -0.252925,-1.65467 0.05362,-4.27355 0.763912,-6.52637 0.322486,-1.02282 1.083751,-2.7115 1.387037,-3.07679 0.07964,-0.096 0.106001,-0.2132 0.05858,-0.26062 -0.110894,-0.11082 -0.37063,0.22656 -0.940295,1.22157 -1.778701,3.10676 -2.5454885,7.48584 -1.8496908,10.56346 0.3259858,1.4419 0.7134268,2.30605 1.1007968,2.4553 0.192923,0.0743 1.301863,0.33543 2.464302,0.58022 1.92616,0.4056 2.420714,0.44272 3.149348,0.23635 z"
         style="fill:none;stroke:#0000ff;stroke-width:0.1;stroke-miterlimit:4;stroke-dasharray:none" />
      <path
         id="path1286"
         d="m 59.641532,266.31772 c 1.966891,-0.70215 2.387332,-0.89837 2.534913,-1.18301 0.326522,-0.62977 0.496784,-3.07482 0.408954,-5.8729 -0.07784,-2.48021 -0.309406,-6.00502 -0.400466,-6.09604 -0.02232,-0.0222 -0.212909,0.0492 -0.423512,0.15903 -0.210602,0.10977 -0.531522,0.19596 -0.713157,0.1915 l -0.330235,-0.008 0.297214,-0.14325 c 0.502165,-0.24209 0.332886,-0.35038 -0.462334,-0.29577 -0.417754,0.0287 -0.640664,0.0198 -0.495359,-0.0198 1.393461,-0.37968 2.047482,-0.61336 2.047482,-0.73154 0,-0.0842 -0.132674,-0.10751 -0.33024,-0.058 -0.181631,0.0455 -0.330241,0.0287 -0.330241,-0.0374 0,-0.0661 0.148615,-0.15753 0.330241,-0.20309 0.27602,-0.0692 0.33024,-0.16118 0.33024,-0.55989 0,-0.47646 -5e-4,-0.47693 -0.495361,-0.40237 -0.272445,0.0411 -2.873077,0.60861 -5.779184,1.26123 -2.906103,0.65262 -5.656806,1.25878 -6.112671,1.34701 -0.661119,0.12794 -0.815834,0.20357 -0.764555,0.37369 0.358822,1.19037 0.586899,6.91252 0.371653,9.32423 -0.112231,1.25746 -0.100778,1.36767 0.240254,2.31076 0.196958,0.54467 0.455949,1.49538 0.575536,2.11269 0.119585,0.6173 0.245725,1.25447 0.280299,1.41594 0.06142,0.28679 0.141185,0.26664 3.462702,-0.8748 1.869911,-0.64262 4.460932,-1.54717 5.757827,-2.01014 z"
         style="fill:none;stroke:#0000ff;stroke-width:0.1;stroke-miterlimit:4;stroke-dasharray:none" />
      <path
         id="path1284"
         d="m 60.417251,252.08706 c 0.05384,-0.46599 0.434186,-0.66296 0.722893,-0.37437 0.217171,0.21709 0.210857,0.22883 -0.123053,0.22883 -0.193594,0 -0.415983,0.10406 -0.494202,0.23109 -0.124178,0.20175 -0.137582,0.19089 -0.105641,-0.0856 z"
         style="fill:none;stroke:#0000ff;stroke-width:0.1;stroke-miterlimit:4;stroke-dasharray:none" />
      <path
         id="path1282"
         d="m 1.0768382,268.73221 c 0,-0.5448 -0.046332,-0.66012 -0.31420887,-0.78213 -0.29895138,-0.13619 -0.31788838,-0.11637 -0.39013606,0.40794 -0.0638348,0.46325 -0.0295563,0.5874 0.21513575,0.77919 0.43384118,0.34005 0.48920918,0.29422 0.48920918,-0.405 z"
         style="fill:none;stroke:#0000ff;stroke-width:0.1;stroke-miterlimit:4;stroke-dasharray:none" />
      <path
         id="path1280"
         d="m 9.0790594,268.16885 c 0.1114393,-0.53699 0.2537733,-2.04589 0.3163006,-3.35311 0.1536919,-3.21324 0.639236,-5.30679 1.737911,-7.49346 0.282791,-0.56283 0.487652,-1.02333 0.455245,-1.02333 -0.03241,0 -0.226259,0.0644 -0.430786,0.14326 -0.514422,0.19809 -2.299568,0.18255 -2.4255011,-0.0212 -0.2498742,-0.40415 -2.9160631,1.63444 -3.4139644,2.61035 -0.1267225,0.24838 -0.1143047,0.2832 0.08715,0.24441 0.3520925,-0.0677 1.2006435,0.26085 1.5752776,0.61008 0.181935,0.16959 0.4878262,0.60544 0.6797614,0.96856 0.3020517,0.57145 0.349137,0.82 0.3501904,1.84861 9.985e-4,1.04752 -0.042636,1.2718 -0.3688228,1.89213 -0.3337297,0.6347 -0.3547886,0.74991 -0.2146464,1.17437 0.2100533,0.63623 0.075502,1.7907 -0.2643029,2.26771 -0.353201,0.49583 -0.3450629,0.62935 0.042887,0.70349 0.2787563,0.0533 0.3261461,10e-4 0.3955431,-0.43236 0.043385,-0.27107 0.1639967,-0.52552 0.2680722,-0.56544 0.3099551,-0.11893 0.5119155,0.25576 0.4153188,0.77045 -0.075998,0.40496 -0.047879,0.48044 0.2161942,0.58025 0.1669623,0.0631 0.3197656,0.10061 0.3395661,0.0832 0.019821,-0.0174 0.1271863,-0.47096 0.2386261,-1.00793 z"
         style="fill:none;stroke:#0000ff;stroke-width:0.1;stroke-miterlimit:4;stroke-dasharray:none" />
      <path
         id="path1278"
         d="m 16.83438,268.52712 c 0.122542,-0.75483 0.702759,-1.52469 1.372201,-1.82068 0.330097,-0.14596 0.741478,-0.23838 0.914181,-0.20539 0.257082,0.0491 0.415825,-0.0743 0.875665,-0.68062 3.11845,-4.11204 6.448236,-7.06994 10.715308,-9.51858 2.449567,-1.40568 4.782291,-2.41027 8.271252,-3.56203 2.067976,-0.68267 3.043506,-1.11086 3.043506,-1.33589 0,-0.3648 -1.719604,-0.76584 -4.755444,-1.10907 -4.434533,-0.50137 -7.318618,-0.0628 -10.794899,1.64163 -2.594596,1.27212 -4.157667,2.42775 -5.888528,4.35362 -1.880012,2.09182 -3.43938,4.8624 -4.451948,7.90991 -1.021414,3.07414 -0.924444,4.77507 0.272225,4.77507 0.299806,0 0.364846,-0.0683 0.426481,-0.44797 z"
         style="fill:none;stroke:#0000ff;stroke-width:0.1;stroke-miterlimit:4;stroke-dasharray:none" />
      <path
         id="path1276"
         d="m 6.317457,268.02935 c 1.1353254,-1.06617 0.3542443,-3.41167 -1.1361193,-3.41167 -1.4801536,0 -1.9100707,2.24078 -0.6491169,3.38329 0.1701377,0.15417 0.3985087,0.31508 0.5074871,0.35761 0.3327162,0.12974 0.9614483,-0.0321 1.2777491,-0.32923 z"
         style="fill:none;stroke:#0000ff;stroke-width:0.1;stroke-miterlimit:4;stroke-dasharray:none" />
      <path
         id="path1274"
         d="m 12.577414,268.31047 c 0.360819,-0.19303 0.673326,-0.8658 1.316677,-2.83452 0.774326,-2.36952 1.35724,-3.86989 1.993763,-5.13173 2.538072,-5.0315 6.992488,-8.74361 13.127215,-10.9396 l 1.056766,-0.37828 -1.5191,0.071 c -1.687245,0.079 -4.557466,0.47119 -5.886776,0.80443 -3.000408,0.75217 -6.576023,2.71672 -8.511652,4.67652 -2.321654,2.35066 -3.866087,8.00589 -3.120348,11.42575 0.216843,0.99444 0.711274,2.14641 0.991499,2.31009 0.269978,0.15769 0.249929,0.15783 0.551956,-0.003 z"
         style="fill:none;stroke:#0000ff;stroke-width:0.1;stroke-miterlimit:4;stroke-dasharray:none" />
      <path
         id="path1272"
         d="m 70.63492,266.00642 c 0.782175,-0.78187 1.280734,-2.66928 1.291129,-4.88789 0.01246,-2.65172 -0.625097,-4.14842 -1.631084,-3.82925 -0.331809,0.10526 -0.345753,0.33009 -0.02047,0.33009 0.307877,0 0.613798,0.33528 0.874057,0.95792 0.260099,0.62225 0.258571,0.83288 -0.0041,0.57028 -0.267953,-0.26784 -0.634889,-0.0856 -0.9844,0.48889 -0.311927,0.51273 -0.657624,1.98624 -0.657624,2.80311 0,0.79659 0.254053,1.78637 0.480846,1.87337 0.203753,0.0782 0.244573,0.30474 0.05489,0.30474 -0.0686,0 -0.277235,-0.13365 -0.463627,-0.29711 -1.15649,-1.01382 -0.280235,-5.5128 1.073716,-5.5128 0.392283,0 0.387626,-0.14835 -0.01987,-0.63238 -0.249054,-0.29586 -0.407565,-0.37316 -0.664484,-0.32408 -0.405582,0.0775 -0.689696,0.51708 -0.473726,0.73297 0.229529,0.22943 0.167566,0.63827 -0.107653,0.71021 -0.306834,0.0802 -0.404329,0.40827 -0.40669,1.36849 -0.001,0.40306 -0.05374,0.78928 -0.117214,0.85828 -0.219444,0.23852 -0.268591,1.24123 -0.07053,1.4392 0.203023,0.20294 0.258711,1.12904 0.06789,1.12904 -0.14911,0 0.0616,0.96354 0.338083,1.54595 0.113492,0.23908 0.283466,0.4347 0.377709,0.4347 0.311934,0 0.811886,-0.75274 1.260126,-1.89729 0.24324,-0.6211 0.465214,-1.1063 0.493273,-1.07825 0.08081,0.0808 -0.369521,1.53376 -0.634528,2.04726 -0.132299,0.25637 -0.364615,0.59734 -0.516249,0.75771 -0.329111,0.34806 -0.343366,0.43466 -0.07154,0.43466 0.112275,0 0.351723,-0.14746 0.532096,-0.32782 z"
         style="fill:none;stroke:#0000ff;stroke-width:0.1;stroke-miterlimit:4;stroke-dasharray:none" />
      <path
         id="path1270"
         d="m 69.17215,265.0138 c -0.124119,-0.20073 0.04958,-0.39612 0.352168,-0.39612 0.192414,0 0.247377,0.0604 0.190347,0.20885 -0.04408,0.11488 -0.08018,0.23371 -0.08018,0.26409 0,0.11382 -0.38394,0.05 -0.462334,-0.0769 z"
         style="fill:none;stroke:#0000ff;stroke-width:0.1;stroke-miterlimit:4;stroke-dasharray:none" />
      <path
         id="path1268"
         d="m 70.162865,258.47766 c 0,-0.10901 0.08917,-0.19806 0.198147,-0.19806 0.108973,0 0.19814,0.089 0.19814,0.19806 0,0.10887 -0.08916,0.19806 -0.19814,0.19806 -0.108973,0 -0.198147,-0.0892 -0.198147,-0.19806 z"
         style="fill:none;stroke:#0000ff;stroke-width:0.1;stroke-miterlimit:4;stroke-dasharray:none" />
      <path
         id="path1266"
         d="m 3.3072736,264.94777 c 0.00848,-0.30173 -0.019372,-0.34892 -0.116906,-0.19806 -0.070426,0.10902 -0.123033,0.43575 -0.1169059,0.72624 0.00968,0.45821 0.025163,0.48445 0.1169059,0.19808 0.058169,-0.18158 0.1107759,-0.50837 0.116906,-0.72626 z"
         style="fill:none;stroke:#0000ff;stroke-width:0.1;stroke-miterlimit:4;stroke-dasharray:none" />
      <path
         id="path1264"
         d="m 65.116353,264.07374 c 0.331388,-2.65969 1.67145,-9.85481 2.206013,-11.84464 0.181874,-0.67702 0.330683,-1.44153 0.330683,-1.69893 v -0.46801 l -0.891647,0.0898 c -1.059657,0.10661 -3.895974,0.57122 -4.200512,0.68803 -0.160762,0.0617 -0.194532,0.18668 -0.13545,0.50146 0.08646,0.46068 0.134805,1.08272 0.328911,4.23134 0.265531,4.30733 0.283759,5.191 0.144337,6.99829 -0.07843,1.01674 -0.175849,2.03418 -0.21647,2.26098 l -0.07386,0.41239 1.234419,-0.42814 c 1.055727,-0.36617 1.240084,-0.47365 1.273585,-0.7425 z"
         style="fill:none;stroke:#0000ff;stroke-width:0.1;stroke-miterlimit:4;stroke-dasharray:none" />
      <path
         id="path1262"
         d="m 67.301212,265.15405 c 0.376651,-0.1431 0.42439,-0.34932 0.613364,-2.64907 0.208876,-2.5419 1.00753,-5.65276 1.796874,-6.99904 0.695343,-1.18595 1.389419,-1.62759 2.522167,-1.60487 0.31414,0.006 0.571164,-0.0482 0.571164,-0.12103 0,-0.24977 -0.530035,-1.17101 -0.946617,-1.64527 -0.61912,-0.70486 -1.555342,-1.12735 -2.687946,-1.21297 l -0.955717,-0.0722 -0.212735,0.64503 c -0.456427,1.38388 -1.453228,6.34131 -2.054586,10.21813 -0.152079,0.98043 -0.307937,1.97158 -0.346345,2.20254 -0.06334,0.3809 -0.0358,0.42389 0.2959,0.46217 0.241911,0.0279 0.455794,0.18576 0.631718,0.46624 0.298082,0.47523 0.317973,0.48323 0.772759,0.31038 z"
         style="fill:none;stroke:#0000ff;stroke-width:0.1;stroke-miterlimit:4;stroke-dasharray:none" />
      <path
         id="path1260"
         d="m 7.3500248,262.70304 c 9.985e-4,-0.88219 -0.052257,-1.14993 -0.3238494,-1.62404 -0.4172359,-0.72836 -0.9919032,-1.08451 -1.7378713,-1.07704 l -0.5788362,0.006 0.4941567,0.17629 c 0.8330639,0.29721 1.1681268,0.59666 1.5149922,1.35403 0.3468254,0.75726 0.4599375,1.85754 0.2690807,2.61744 l -0.099493,0.39613 0.2302335,-0.39613 c 0.1662783,-0.28608 0.2306078,-0.68955 0.2315863,-1.45247 z"
         style="fill:none;stroke:#0000ff;stroke-width:0.1;stroke-miterlimit:4;stroke-dasharray:none" />
      <path
         id="path1258"
         d="m 5.1718019,263.91242 c 0.1089776,-0.003 0.4210552,0.0392 0.693501,0.0924 0.4740166,0.0925 0.4963834,0.0808 0.5190998,-0.27245 0.075697,-1.17707 -0.1419638,-1.9625 -0.6890527,-2.48642 -0.7059026,-0.67604 -1.4631989,-0.48581 -1.8583875,0.46677 -0.1789743,0.43144 -0.1752949,1.54978 0.00669,2.02796 0.1339168,0.35189 0.1769723,0.3706 0.6368201,0.27672 0.2712575,-0.0554 0.5823609,-0.10256 0.6913391,-0.10496 z"
         style="fill:none;stroke:#0000ff;stroke-width:0.1;stroke-miterlimit:4;stroke-dasharray:none" />
      <path
         id="path1256"
         d="m 48.988463,259.53401 c -0.05252,-3.27121 -0.202908,-5.25548 -0.425587,-5.61564 -0.113701,-0.18389 -4.090238,0.71068 -6.714744,1.51054 -2.168145,0.66078 -5.237562,1.794 -5.237562,1.93368 0,0.19241 0.728398,0.38884 1.441965,0.38884 1.632887,0 4.489793,0.7092 6.05913,1.50412 1.713495,0.86796 3.474896,2.50864 4.364591,4.06548 0.325579,0.56971 0.361776,0.59549 0.46343,0.33009 0.06064,-0.15831 0.0826,-2.01102 0.04878,-4.11711 z"
         style="fill:none;stroke:#0000ff;stroke-width:0.1;stroke-miterlimit:4;stroke-dasharray:none" />
      <path
         id="path1254"
         d="m 36.492559,259.06432 c 0.307177,-0.16433 0.53451,-0.57843 0.445226,-0.81101 -0.127886,-0.33315 -0.642039,-0.53617 -1.341927,-0.52987 -1.211378,0.0105 -1.470737,0.11712 -1.622939,0.66491 -0.242564,0.87298 -0.210199,0.92955 0.557146,0.97371 0.736776,0.0425 1.560211,-0.0826 1.962494,-0.29774 z"
         style="fill:none;stroke:#0000ff;stroke-width:0.1;stroke-miterlimit:4;stroke-dasharray:none" />
      <path
         id="path1252"
         d="m 10.851914,256.15602 c 0.588217,-0.13515 1.32096,-0.68352 1.32096,-0.98873 0,-0.32404 -1.230969,-0.4305 -1.975933,-0.1709 -0.433557,0.15107 -0.8983024,0.90159 -0.7284345,1.17632 0.1003303,0.16228 0.6318525,0.15587 1.3834075,-0.0167 z"
         style="fill:none;stroke:#0000ff;stroke-width:0.1;stroke-miterlimit:4;stroke-dasharray:none" />
      <path
         id="path1250"
         d="m 48.158137,253.31385 c 0.133665,-0.0512 0.208945,-0.24139 0.208945,-0.52764 0,-0.57636 0.712566,-5.4103 1.133341,-7.68846 0.3519,-1.9052 0.597859,-2.51774 1.341251,-3.34026 1.251438,-1.38464 4.581797,-2.28595 9.149828,-2.47626 l 2.179577,-0.0908 -0.792574,-0.37007 c -1.681985,-0.78535 -4.765869,-1.56472 -7.925741,-2.003 -5.123221,-0.71059 -13.046815,-0.30506 -18.427342,0.94314 -1.471113,0.34128 -3.884574,1.09899 -3.792776,1.19075 0.03008,0.03 0.732289,-0.006 1.560468,-0.0785 1.912331,-0.16918 4.490101,-0.17055 7.185896,-0.005 5.347611,0.33077 7.115416,0.76197 8.169272,1.99267 0.950942,1.11053 0.952525,2.78639 0.0066,6.95621 -0.376466,1.6595 -0.676267,2.15559 -1.458695,2.41371 -0.542435,0.17895 -0.878527,0.1407 -2.886381,-0.32784 -5.003415,-1.16773 -9.948863,-1.67296 -15.389144,-1.57217 -4.322113,0.08 -4.221427,0.082 -4.416598,-0.08 -0.117289,-0.0973 -0.220333,-0.008 -0.38184,0.33039 -0.386577,0.81034 -0.366127,0.82065 1.132783,0.57067 4.569576,-0.76211 8.872552,-0.69904 15.290072,0.2241 2.59675,0.37354 4.528628,0.82512 5.650468,1.32083 1.281333,0.56616 1.9739,1.42317 1.818641,2.25044 -0.07202,0.38373 -0.04748,0.44611 0.175649,0.44611 0.142656,0 0.3534,-0.036 0.46832,-0.0802 z"
         style="fill:none;stroke:#0000ff;stroke-width:0.1;stroke-miterlimit:4;stroke-dasharray:none" />
      <path
         id="path1248"
         d="m 53.386717,252.4598 c 1.997946,-0.42258 4.698664,-1.00917 6.001595,-1.30351 1.302931,-0.29436 2.422222,-0.53519 2.48731,-0.53519 0.146513,0 0.03825,-1.13707 -0.370984,-3.89528 -0.463712,-3.12557 -0.916601,-5.15786 -1.401132,-6.28746 l -0.261487,-0.60962 -0.750861,0.0532 c -1.370146,0.0971 -3.64249,0.44797 -4.713721,0.72778 -2.238423,0.58468 -3.508763,1.51449 -3.93616,2.88101 -0.192219,0.61459 -0.918281,4.67349 -1.208935,6.75829 l -0.0862,0.61828 0.388213,-0.14641 c 0.612237,-0.231 1.258454,0.009 1.343378,0.49923 l 0.06782,0.39133 h 1.780214 c 1.778729,0 1.780348,-2.7e-4 1.941932,-0.33729 0.109964,-0.22934 0.131669,-0.60968 0.06783,-1.1884 l -0.0939,-0.85109 -0.825594,-0.0393 -0.825601,-0.0393 -0.01486,-1.54521 c -0.0083,-0.84985 -0.0541,-2.40677 -0.102023,-3.45983 -0.04793,-1.05304 -0.06531,-2.01371 -0.03859,-2.13483 0.110894,-0.50304 2.830594,-1.23531 5.159893,-1.3893 1.041356,-0.0688 1.309267,-0.0445 1.674821,0.15231 0.499064,0.26865 0.560183,0.46233 0.98076,3.10775 0.470501,2.95942 0.661294,4.94331 0.523408,5.44249 -0.237013,0.85806 -0.354884,0.90548 -3.878985,1.56084 -1.827758,0.3399 -2.276288,0.46734 -2.464832,0.70039 -0.209129,0.25847 -0.379612,0.28899 -1.83949,0.32923 -1.826192,0.0503 -2.195174,-0.008 -2.307312,-0.3605 -0.04359,-0.13725 -0.192814,-0.27923 -0.331648,-0.31552 -0.19553,-0.0511 -0.261532,0.012 -0.29284,0.28286 -0.04947,0.42699 -0.567139,0.55787 -0.823025,0.20807 -0.144097,-0.19699 -0.17836,-0.13124 -0.252325,0.48457 -0.142131,1.18328 -0.143662,1.17841 0.341428,1.08842 0.236125,-0.0438 2.063997,-0.42537 4.061943,-0.84795 z"
         style="fill:none;stroke:#0000ff;stroke-width:0.1;stroke-miterlimit:4;stroke-dasharray:none" />
      <path
         id="path1246"
         d="m 49.996553,250.14433 c -0.205191,-0.31303 -0.211316,-0.49224 -0.06667,-1.94976 0.287278,-2.89488 0.918007,-4.83134 1.836091,-5.63711 0.2426,-0.21291 0.49846,-0.38713 0.568586,-0.38713 0.07013,0 0.132448,0.25254 0.138512,0.56118 0.006,0.30865 0.02861,0.70975 0.0501,0.89131 0.02153,0.18154 0.06114,1.5177 0.08806,2.96921 l 0.04898,2.6391 -0.658672,0.0943 c -1.213684,0.17378 -1.256715,0.19788 -1.256715,0.70398 0,0.36983 -0.05103,0.45964 -0.261142,0.45964 -0.143632,0 -0.362833,-0.15513 -0.487109,-0.34472 z"
         style="fill:none;stroke:#0000ff;stroke-width:0.1;stroke-miterlimit:4;stroke-dasharray:none" />
      <path
         id="path1244"
         d="m 57.667441,250.55218 c 1.351025,-0.25577 2.605514,-0.53294 2.787739,-0.61594 0.589954,-0.26869 0.649096,-0.83716 0.334004,-3.21042 -0.42178,-3.17684 -0.755269,-5.15385 -0.921852,-5.46498 -0.214996,-0.40156 -0.40464,-0.34494 -0.282028,0.0842 0.241828,0.84645 0.966403,7.01841 0.878762,7.48537 -0.11924,0.63535 -0.325427,0.71692 -3.196308,1.26452 -2.033397,0.38787 -2.254938,0.4561 -2.197199,0.67682 0.0353,0.13499 0.08137,0.24545 0.102338,0.24545 0.02097,0 1.143514,-0.20926 2.494544,-0.46505 z"
         style="fill:none;stroke:#0000ff;stroke-width:0.1;stroke-miterlimit:4;stroke-dasharray:none" />
      <path
         id="path1242"
         d="m 64.482753,250.10191 c 0.908157,-0.14851 2.02507,-0.28326 2.482032,-0.29953 l 0.830838,-0.0296 -0.08601,-0.9293 c -0.104065,-1.1244 -0.286915,-2.02892 -0.307989,-1.52349 -0.0077,0.18157 -0.129567,0.51996 -0.271092,0.75198 -0.296965,0.48684 -0.988769,0.73944 -3.374314,1.23203 -0.799179,0.16502 -1.468325,0.31141 -1.486993,0.32532 -0.01867,0.0135 0.0041,0.21456 0.05022,0.44593 0.06111,0.30544 0.142776,0.40368 0.298133,0.35863 0.117679,-0.0341 0.957005,-0.18351 1.865162,-0.33199 z"
         style="fill:none;stroke:#0000ff;stroke-width:0.1;stroke-miterlimit:4;stroke-dasharray:none" />
      <path
         id="path1240"
         d="m 27.05343,247.78274 c 0.143901,-0.0456 0.450713,-1.21113 1.178518,-4.47703 0.377831,-1.69543 0.362159,-1.5315 0.146424,-1.5315 -0.550469,0 -2.037802,1.81009 -2.693469,3.27797 -0.381226,0.85346 -0.96294,2.50281 -0.96294,2.73025 0,0.10661 0.325639,0.13664 1.08979,0.1003 0.599384,-0.0285 1.15814,-0.0734 1.24168,-0.1 z"
         style="fill:none;stroke:#0000ff;stroke-width:0.1;stroke-miterlimit:4;stroke-dasharray:none" />
      <path
         id="path1238"
         d="m 33.359752,247.48506 c 0.109603,-0.36505 1.533574,-6.93651 1.533574,-7.07725 0,-0.0781 -0.567841,-0.094 -1.486076,-0.0414 -1.377293,0.0788 -2.752404,0.35701 -3.745738,0.7577 l -0.410326,0.1655 -0.627358,2.91618 c -0.345045,1.60389 -0.657249,3.04986 -0.693785,3.21327 l -0.06642,0.29709 h 2.713379 c 2.469679,0 2.719611,-0.0207 2.782756,-0.23107 z"
         style="fill:none;stroke:#0000ff;stroke-width:0.1;stroke-miterlimit:4;stroke-dasharray:none" />
      <path
         id="path1236"
         d="m 41.421717,246.59803 c 1.049655,-0.0604 1.436993,-0.28018 1.890536,-1.07301 0.38937,-0.68065 0.410749,-1.95862 0.04476,-2.67573 -0.574014,-1.12471 -1.971354,-1.98881 -3.773458,-2.33347 -1.143772,-0.21876 -3.105083,-0.26104 -3.105083,-0.067 0,0.07 -0.20805,1.4899 -0.462335,3.15548 -0.254284,1.66561 -0.462334,3.06483 -0.462334,3.1094 0,0.0761 3.85264,1.3e-4 5.867911,-0.11563 z"
         style="fill:none;stroke:#0000ff;stroke-width:0.1;stroke-miterlimit:4;stroke-dasharray:none" />
      <path
         id="path1234"
         d="m 65.875787,244.97626 c -0.329261,-1.34852 -1.278943,-2.6015 -2.379844,-3.1399 -0.731695,-0.35785 -2.060778,-0.75701 -2.167015,-0.6508 -0.06109,0.0611 0.347125,2.97675 0.4281,3.05769 0.02301,0.023 0.720012,0.21811 1.548896,0.43354 0.828891,0.21545 1.6854,0.44757 1.903357,0.5158 0.678428,0.21242 0.76438,0.18452 0.666506,-0.21633 z"
         style="fill:none;stroke:#0000ff;stroke-width:0.1;stroke-miterlimit:4;stroke-dasharray:none" />
      <path
         id="path1232"
         d="m 57.850829,244.15098 h 1.516525 l -0.09209,-1.13447 c -0.05064,-0.62396 -0.149771,-1.28614 -0.220279,-1.47151 -0.125859,-0.33091 -0.146078,-0.33553 -1.110562,-0.25404 -1.227184,0.10376 -2.777524,0.41854 -3.897227,0.79147 l -0.858621,0.28598 -0.03924,0.97793 -0.03924,0.97794 1.612093,-0.0866 c 0.886649,-0.0476 2.294526,-0.0866 3.128618,-0.0866 z"
         style="fill:none;stroke:#0000ff;stroke-width:0.1;stroke-miterlimit:4;stroke-dasharray:none" />
      <path
         id="path826"
         d="m 64.309116,240.7825 c -0.74082,-0.68156 -1.168871,-0.82388 -2.831463,-0.94149 l -1.221808,-0.0863 0.150642,0.43195 c 0.123909,0.35529 0.171945,0.3939 0.270679,0.21755 0.277608,-0.49586 2.35126,-0.15151 3.524845,0.58534 0.33604,0.21099 0.640703,0.38239 0.677029,0.38088 0.03635,-0.001 -0.220142,-0.26602 -0.569924,-0.58781 z"
         style="fill:none;stroke:#0000ff;stroke-width:0.1;stroke-miterlimit:4;stroke-dasharray:none" />
      <path
         id="path1216"
         style="fill:none;stroke:#0000ff;stroke-width:0.1"
         d="m 6.224081,257.22153 -0.597816,0.59781 m -1.730289,2.12942 3.484991,-3.48499 m 1.040711,-0.64159 -1.143912,1.14391 m -3.970817,3.97082 1.753937,-1.75394 m 4.652266,-4.25314 -1.36885,1.36885 m -5.072783,5.07278 1.838159,-1.83816 m 5.151789,-4.75267 -1.383592,1.38359 m -3.555141,3.55515 0.225368,-0.22537 m -0.820187,0.82018 -1.602135,1.60214 m 2.55146,-2.15234 0.151542,-0.15154 m -0.80281,0.80281 -0.210583,0.21058 m -1.743687,1.74369 0.505351,-0.50535 m 2.552571,-2.15345 -0.12453,0.12453 m -0.785196,0.7852 0.085721,-0.0857 m -1.794589,1.79458 -0.500541,0.50055 m 3.271169,-2.87205 0.118749,-0.11875 m -0.81189,0.81189 -0.114503,0.1145 m -2.524737,2.52474 0.466518,-0.46652 m 3.229283,-2.83016 -0.113353,0.11336 m -0.815829,0.81582 0.10959,-0.10959 m -2.373573,2.37358 -0.594082,0.59408 m 3.891007,-3.49188 0.099843,-0.0999 m -0.810426,0.81043 -0.099482,0.0995 m -3.106256,3.10625 0.674613,-0.67461 m 3.506148,-3.10702 -0.064424,0.0644 m -0.834397,0.8344 0.108153,-0.10816 m -2.642198,2.6422 -0.798004,0.79801 m 8.986004,-8.58689 2.64162,-2.64162 m -7.232158,7.23216 -0.062088,0.0621 m -0.825551,0.82555 0.07206,-0.0721 m -2.624494,2.6245 -1.005504,1.0055 m -2.119913,2.11991 0.500648,-0.50065 m 27.571654,-27.17253 -1.813209,1.81321 m -13.915953,13.91596 3.053594,-3.0536 m -8.666647,8.66665 -0.062075,0.0621 m -0.873487,0.87349 0.095917,-0.0959 m -2.606132,2.60614 -0.326217,0.32621 M 2.683565,265.5515 2.79307,265.442 m -0.933896,0.9339 -1.481556,1.48155 M 25.8414,242.7928 l 3.291561,-3.29156 m -12.161528,12.16153 -3.986997,3.987 m -5.589835,5.58983 0.080307,-0.0803 m -0.881108,0.88111 -0.058411,0.0584 m -2.960161,2.96016 0.751458,-0.75145 m -1.511124,1.51112 -0.804732,0.80473 m 23.579493,-23.18037 4.585502,-4.5855 m -12.646156,12.64616 -0.679272,0.67927 M 7.49352,261.5398 7.585333,261.448 m -0.888888,0.88889 -0.1043,0.1043 m -4.205481,4.20548 2.388553,-2.38855 m 25.978695,-25.57957 -5.897794,5.89779 m -6.932069,6.93207 0.431196,-0.4312 M 7.695759,261.7367 7.580155,261.8523 m -0.912093,0.91209 0.072906,-0.0729 m -1.513124,1.51312 -0.144697,0.1447 m -2.470839,2.47084 0.909155,-0.90916 m 27.880367,-27.48124 -6.68679,6.68679 m -6.041643,6.04164 0.355964,-0.35596 m -11.333603,11.3336 -0.09235,0.0924 m -0.935939,0.93594 0.135125,-0.13512 m -1.222553,1.22255 -0.131127,0.13113 m -2.73976,2.73976 0.808696,-0.8087 m 28.538363,-28.13924 -0.328933,0.32893 m -3.040884,3.04089 2.361077,-2.36108 m -5.460608,5.46061 -1.202746,1.20274 m -4.947076,4.94708 0.266434,-0.26644 m -7.979191,7.9792 -0.179966,0.17996 m -3.904919,3.90492 0.077804,-0.0778 m -0.927302,0.9273 -0.134555,0.13455 m -0.872881,0.87288 0.155228,-0.15522 m -2.38637,2.38637 -0.623307,0.6233 m 29.51725,-29.11812 0.172393,-0.1724 m -1.213023,1.21303 -1.605595,1.60559 m -5.937206,5.93721 1.562201,-1.5622 m -5.046445,5.04644 -0.176904,0.17691 M 7.614173,263.0157 7.750382,262.87949 m -1.010434,1.01044 -0.70549,0.70549 m -2.855807,2.8558 0.433141,-0.43314 m -2.342074,2.34208 -0.37655,0.37655 m 32.10576,-31.70664 0.180181,-0.18018 m -1.354207,1.3542 -1.408054,1.40806 m -6.694021,6.69402 1.278356,-1.27836 m -3.94758,3.94758 -0.213266,0.21327 m -13.267408,13.26741 0.119725,-0.11973 m -0.980926,0.98093 -0.432889,0.43289 m -2.849876,2.84987 0.296683,-0.29668 m -2.25371,2.25371 -0.33697,0.33697 m 32.416398,-32.01727 0.313833,-0.31384 m -1.620031,1.62003 -1.267004,1.26701 m -7.584791,7.58479 1.352316,-1.35232 m -3.047166,3.04717 -0.223899,0.2239 m -14.069654,14.06965 0.264104,-0.2641 m -0.988084,0.98808 -0.205761,0.20576 m -2.795951,2.79595 0.17097,-0.17097 m -2.107335,2.10734 -0.348143,0.34814 m 32.709032,-32.30991 0.181734,-0.18173 m -1.618426,1.61842 -1.146855,1.14686 m -9.485924,9.48592 2.556588,-2.55658 m -17.183606,17.1836 -0.750138,0.75014 m -2.76544,2.76544 0.119044,-0.11904 m -1.99689,1.99689 -0.359317,0.35931 m 33.001666,-32.60254 0.143844,-0.14385 m -1.717736,1.71774 -1.123281,1.12328 m -7.76375,7.76375 0.224983,-0.22498 m -1.341502,1.3415 -0.479786,0.47979 M 6.808064,265.41824 7.43581,264.7905 m -3.243526,3.24352 -0.084098,0.0841 m -2.193814,2.19381 0.37049,-0.37049 m 33.029766,-32.63064 -0.148772,0.14877 m -2.749088,2.74909 1.080812,-1.08081 m -8.90625,8.90625 -0.05398,0.054 m -1.452971,1.45297 0.142628,-0.14262 m -16.119574,16.11957 -0.171648,0.17165 m -2.612539,2.61254 0.060545,-0.0606 m -1.827958,1.82796 -0.381663,0.38166 m 33.510451,-33.11133 0.144549,-0.14454 m -1.916359,1.91635 -1.038342,1.03835 M 7.035788,265.98874 7.15597,265.86856 m -2.538044,2.53804 -0.079905,0.0799 m -2.104049,2.10405 0.401133,-0.40113 m 33.509302,-33.11018 -0.160076,0.16008 m -2.852157,2.85215 0.995873,-0.99587 m -6.236038,6.23604 -0.05922,0.0592 m -20.918998,20.919 0.102071,-0.10207 m -4.094253,4.09425 -0.418749,0.41875 m 33.981184,-33.58206 0.139942,-0.13994 m -2.080701,2.0807 -0.995723,0.99572 m -5.837059,5.83706 0.0716,-0.0716 m -20.678102,20.6781 -0.179936,0.17994 m -2.034329,2.03432 0.073884,-0.0739 m -1.755513,1.75551 -0.429903,0.42991 m 34.205547,-33.80643 0.119809,-0.11981 m -2.145042,2.14505 -1.001167,1.00116 m -6.504996,6.505 0.219842,-0.21985 m -20.654723,20.65473 -0.11639,0.11639 m -1.695785,1.69578 0.151577,-0.15157 m -1.862268,1.86226 -0.441057,0.44106 m 34.395024,-33.9959 0.134561,-0.13456 m -2.209383,2.20938 -1.00661,1.00661 m -6.912515,6.91252 0.107663,-0.10767 m -20.663244,20.66325 -1.268483,1.26848 m -2.301666,2.30167 0.452211,-0.45222 m 34.281603,-33.88248 -0.144462,0.14447 m -3.220222,3.22022 1.098083,-1.09808 m -8.343725,8.34372 -0.700152,0.70015 m -8.577476,8.57748 2.57786,-2.57786 m -14.095405,14.0954 -0.662976,0.66298 m -2.389991,2.38999 0.463365,-0.46336 m 34.477081,-34.07796 -0.156767,0.15676 m -3.418597,3.4186 1.213659,-1.21366 m -8.822486,8.82249 -0.203678,0.20368 m -5.821385,5.82138 1.135204,-1.1352 M 6.686959,268.73226 6.53187,268.88735 m -2.452277,2.45228 0.474519,-0.47452 m 34.644402,-34.24528 -0.140913,0.14091 m -3.938719,3.93872 1.650983,-1.65098 m -8.949835,8.94983 -0.05862,0.0586 m -23.406472,23.40647 0.48843,-0.48843 m 34.808966,-34.40984 -0.12506,0.12506 m -4.518805,4.5188 2.148271,-2.14827 m -8.937589,8.93759 -0.05315,0.0532 m -21.005057,21.0051 0.860536,-0.86054 m -2.880136,2.88014 -0.522541,0.52254 m 35.350642,-34.95152 0.136718,-0.13672 m -2.562539,2.56254 -2.645559,2.64556 m -15.341197,15.34119 2.542034,-2.54203 m -12.448065,12.44807 -0.153844,0.15384 m -2.030728,2.03073 0.529901,-0.5299 m -2.556853,2.55685 -0.558045,0.55804 m 35.535532,-35.13641 0.143184,-0.14318 m -2.629483,2.62948 -0.978619,0.97862 m -2.164228,2.16423 1.341426,-1.34143 m -7.111677,7.11168 -0.055,0.055 m -19.52357,19.52357 0.266963,-0.26696 m -1.728891,1.72889 -0.205386,0.20538 m -2.64417,2.64417 0.60993,-0.60993 m 35.383704,-34.98458 -0.256829,0.25683 m -3.500179,3.50018 0.953401,-0.9534 m -2.256816,2.25681 -1.38332,1.38332 m -5.319565,5.31957 0.05885,-0.0589 m -19.62633,19.62633 -0.404409,0.40441 m -1.309009,1.30901 0.119552,-0.11955 m -2.161078,2.16108 -0.735459,0.73546 m 36.011719,-35.6126 0.150327,-0.15033 m -2.757583,2.75758 -0.93726,0.93727 m -3.200164,3.20016 1.425213,-1.42521 m -6.176396,6.17639 -0.0627,0.0627 M 9.283482,268.53049 9.884171,267.9298 m -1.440359,1.44036 -0.061781,0.0618 m -2.981451,2.98145 0.932638,-0.93264 m 35.561506,-35.16238 -0.13586,0.13586 m -3.638958,3.63895 0.971224,-0.97122 m -3.167605,3.16761 -1.467107,1.4671 m -4.308197,4.3082 0.06655,-0.0666 M 9.978152,268.23491 8.68729,269.52577 m -3.146708,3.14671 1.090608,-1.09061 m 35.696425,-35.2973 -0.136218,0.13622 m -3.707003,3.707 0.993616,-0.99361 m -3.623,3.623 -1.509,1.509 m -3.802513,3.80251 0.07096,-0.071 m -20.542326,20.54233 -1.079584,1.07958 m -3.311965,3.31197 1.250895,-1.2509 m 35.829027,-35.42991 -0.140093,0.1401 m -3.771531,3.77153 1.020581,-1.02058 m -4.082968,4.08297 -1.550893,1.55089 m -3.296829,3.29683 0.08129,-0.0813 m -20.853951,20.85395 -0.868306,0.86831 m -3.457177,3.45717 1.393138,-1.39314 m 35.959629,-35.5605 -0.143969,0.14397 m -3.836059,3.83606 1.024938,-1.02494 m -4.520328,4.52033 -1.592787,1.59278 m -2.791145,2.79115 0.09162,-0.0916 m -0.965479,0.96548 -0.199738,0.19974 m -20.644923,20.64492 0.644566,-0.64457 m -2.717894,2.7179 -1.514246,1.51424 m 37.45049,-37.05136 0.147844,-0.14785 m -3.019135,3.01914 -1.029296,1.02929 m -5.563073,5.56308 1.633158,-1.63316 m -3.816671,3.81667 -0.101948,0.10195 m -0.924317,0.92431 0.06635,-0.0663 m -1.629943,1.62994 -0.06991,0.0699 m -19.239135,19.23913 0.471597,-0.47159 m -2.553336,2.55333 -1.635354,1.63536 m 37.692182,-37.29306 0.147311,-0.14731 m -3.078772,3.07877 -1.077495,1.07749 m -5.994128,5.99413 1.673858,-1.67386 m -3.341357,3.34136 -0.112278,0.11228 m -18.24171,18.24171 0.60278,-0.60278 m -3.937001,3.937 -0.299456,0.29946 m -3.840063,3.84006 1.749913,-1.74991 m 36.310097,-35.91098 -0.132686,0.13269 m -4.125479,4.12547 1.133847,-1.13384 m -5.836317,5.83631 -1.714559,1.71456 m -1.274093,1.2741 0.171251,-0.17125 m -18.10401,18.10401 -0.935519,0.93551 m -3.085543,3.08555 0.180867,-0.18087 m -2.279427,2.27943 -1.839718,1.83972 m 38.120686,-37.72157 0.135089,-0.13509 m -3.169864,3.16987 -1.190199,1.1902 m -7.635898,7.63589 2.551226,-2.55122 M 13.82535,267.18157 12.534922,268.472 m -1.652037,1.65204 0.07981,-0.0798 m -2.186779,2.18678 -1.929523,1.92952 m 38.314634,-37.91551 0.136906,-0.1369 m -3.215411,3.21541 -1.246551,1.24655 m -7.575476,7.57547 2.108604,-2.1086 m -21.590325,21.59033 -0.172304,0.1723 m -2.406742,2.40674 0.08603,-0.086 m -2.201408,2.20141 -2.019329,2.01932 m 38.508583,-38.10946 0.138723,-0.13872 m -3.260957,3.26096 -1.330231,1.33023 m -7.487727,7.48773 1.665982,-1.66599 m -21.541794,21.5418 -0.1167,0.1167 m -2.124327,2.12432 0.09224,-0.0922 m -2.218523,2.21852 -2.076962,2.07697 m 38.672843,-38.27373 0.14054,-0.14053 m -3.306503,3.3065 -1.430217,1.43021 m -7.383672,7.38368 1.305941,-1.30594 m -21.499986,21.49998 -0.233388,0.23339 m -1.76593,1.76593 0.118915,-0.11892 m -2.223456,2.22346 -2.139081,2.13908 m 38.829409,-38.43028 0.143413,-0.14342 m -3.343175,3.34318 -1.540134,1.54013 m -7.279616,7.27962 1.227993,-1.228 m -21.666997,21.667 -0.371221,0.37122 m -1.403889,1.40389 0.08981,-0.0898 m -2.22839,2.22839 -2.201199,2.2012 m 38.985974,-38.58685 0.127605,-0.12761 m -3.397319,3.39732 -1.613898,1.6139 m -7.17556,7.17556 1.251631,-1.25163 m -21.902287,21.90228 -0.520034,0.52004 m -1.089403,1.0894 0.08594,-0.0859 m -2.233323,2.23333 -2.229071,2.22907 m 39.091352,-38.69223 0.128737,-0.12874 m -3.451461,3.45146 -1.707225,1.70723 m -7.051942,7.05194 1.275269,-1.27527 m -22.245866,22.24587 -0.456199,0.45619 m -0.879276,0.87928 0.08206,-0.0821 m -2.238257,2.23825 -2.250907,2.25091 m 39.191681,-38.79256 0.128884,-0.12888 m -3.505604,3.5056 -1.8267,1.8267 m -6.902177,6.90218 1.298907,-1.29891 m -22.867792,22.8678 -0.05034,0.0503 m -0.732829,0.73283 0.07819,-0.0782 m -2.243191,2.24319 -2.217064,2.21707 m 39.236331,-38.83721 0.12903,-0.12903 m -3.559748,3.55975 -1.946175,1.94617 m -6.75241,6.75241 1.322545,-1.32254 m -23.643898,23.64389 -0.07668,0.0767 m -4.329028,4.32903 2.155218,-2.15522 m 37.226936,-36.82781 -0.129176,0.12917 m -5.550365,5.55037 2.065649,-2.06565 m -7.328419,7.32842 -1.339874,1.33987 m -22.444007,22.44401 0.09035,-0.0904 m -2.272971,2.27297 -2.086567,2.08656 m 39.262819,-38.86369 0.148355,-0.14836 m -3.687066,3.68707 -2.206109,2.20611 m -6.449434,6.44943 1.398174,-1.39817 m -19.957849,19.95785 -0.817296,0.81729 m -3.095474,3.09548 0.104026,-0.10403 m -2.291863,2.29186 -2.021506,2.02151 m 39.27266,-38.87354 0.119915,-0.11991 m -3.711295,3.71129 -2.381442,2.38144 m -6.266315,6.26632 1.46011,-1.46011 m -13.66968,13.66968 -2.120148,2.12015 m -5.565115,5.56511 1.511044,-1.51104 m -3.995756,3.99575 -0.105831,0.10584 m -4.161371,4.16137 1.954758,-1.95476 m 37.429799,-37.03068 -0.1193,0.1193 m -6.183579,6.18358 2.520203,-2.5202 m -7.081353,7.08135 -1.522046,1.52205 m -15.773577,15.77357 4.643366,-4.64336 m -7.159434,7.15943 -0.149182,0.14919 m -2.203429,2.20342 0.731955,-0.73195 m -2.48037,2.48037 -0.107243,0.10724 m -4.113792,4.11379 1.89523,-1.89523 m 37.481308,-37.08218 -0.118128,0.11813 m -6.394892,6.39489 2.658965,-2.65897 m -6.97506,6.97506 -1.583982,1.58399 m -18.399643,18.39964 0.232201,-0.2322 m -2.268297,2.26829 -0.264907,0.26491 m -1.809806,1.80981 0.108655,-0.10866 m -2.339167,2.33917 -1.875914,1.87591 m 39.291777,-38.89265 0.116956,-0.11696 m -3.936728,3.93673 -2.833411,2.83341 m -5.669981,5.66998 1.645918,-1.64591 m -10.611596,10.61159 -0.154758,0.15476 m -9.281054,9.28105 0.102139,-0.10214 m -2.516308,2.51631 -0.126181,0.12618 m -1.58115,1.58115 0.115927,-0.11592 m -2.358389,2.35839 -1.777117,1.77711 m 39.245663,-38.84654 0.115783,-0.11578 m -4.039966,4.03996 -3.01137,3.01137 m -5.415807,5.41581 1.707854,-1.70785 m -20.096118,20.09612 -0.09727,0.0973 m -2.760758,2.76076 0.129509,-0.12951 m -1.223675,1.22367 -0.195064,0.19507 m -3.972605,3.9726 1.718194,-1.71819 m 37.635839,-37.23672 -0.114611,0.11461 m -7.241082,7.24109 3.210015,-3.21002 m -6.578698,6.5787 -1.76979,1.76979 m -18.594739,18.59474 0.103192,-0.10319 m -2.904182,2.90418 -1.152336,1.15233 m -3.925631,3.92564 1.65927,-1.65927 m 37.684209,-37.28509 -0.110298,0.1103 m -7.591172,7.59117 3.419079,-3.41908 m -6.403931,6.40393 -1.831726,1.83173 m -18.722087,18.72208 0.120838,-0.12083 m -3.056669,3.05667 -0.902685,0.90268 m -3.878657,3.87866 1.600347,-1.60035 m 37.716055,-37.31693 -0.11004,0.11004 m -7.937925,7.93792 3.645277,-3.64527 m -6.242397,6.24239 -1.880322,1.88032 m -18.878285,18.87829 0.127043,-0.12704 m -3.122427,3.12242 -0.705786,0.70579 m -3.825369,3.82537 1.541424,-1.54143 m 37.747902,-37.34878 -0.107981,0.10799 m -8.372862,8.37286 3.920677,-3.92068 m -5.989919,5.98992 -1.982682,1.98268 m -19.040956,19.04096 0.132268,-0.13227 m -3.184686,3.18469 -0.503279,0.50327 m -3.826349,3.82635 1.537235,-1.53723 m 37.777628,-37.37851 -0.105922,0.10592 m -8.955803,8.95581 4.344083,-4.34409 m -5.518105,5.51811 -2.304379,2.30438 m -19.23953,19.23953 0.119615,-0.11962 m -3.136114,3.13612 -0.357821,0.35782 m -3.819748,3.81975 1.532051,-1.53205 m 37.800767,-37.40165 -0.103863,0.10386 m -12.463502,12.46351 7.653491,-7.6535 m -26.959178,26.95918 -0.117007,0.11701 m -3.219814,3.21981 0.253611,-0.25361 m -2.508551,2.50855 -1.526867,1.52687 m 39.24897,-38.84985 0.101804,-0.1018 m -5.123425,5.12342 -7.470609,7.47061 m -19.646726,19.64673 0.105718,-0.10572 m -2.981327,2.98133 -0.15839,0.15839 m -3.734876,3.73487 1.521683,-1.52168 m 37.847537,-37.44841 -0.103859,0.10386 m -12.517334,12.51733 7.257649,-7.25765 m -11.992192,11.99219 -0.130386,0.13039 m -10.489318,10.48932 2.920928,-2.92093 m -7.33335,7.33335 -0.11559,0.11559 m -2.836774,2.83677 0.117013,-0.11701 m -2.28837,2.28837 -1.531795,1.5318 m 39.277981,-38.87886 0.106232,-0.10624 m -5.616161,5.61617 -7.013443,7.01344 m -16.221101,16.2211 4.64181,-4.64181 m -8.428547,8.42855 -0.146705,0.1467 m -2.606295,2.6063 0.101854,-0.10186 m -2.227876,2.22788 -1.538664,1.53866 m 39.291218,-38.89209 0.104746,-0.10475 m -5.886041,5.88604 -6.751973,6.75198 m -11.531919,11.53191 0.676088,-0.67608 m -6.202683,6.20268 -1.32932,1.32932 m -2.087424,2.08742 0.248938,-0.24894 m -2.488561,2.48857 -0.08695,0.0869 m -2.274485,2.27449 0.192981,-0.19298 m -0.793933,0.79393 -0.751601,0.7516 m 39.304456,-38.90533 0.103259,-0.10326 m -6.199016,6.19901 -6.447409,6.44741 m -9.914112,9.91411 0.06441,-0.0644 m -7.780431,7.78043 -3.379408,3.37941 m -1.770024,1.77002 0.134099,-0.1341 m -2.234334,2.23433 -1.552403,1.55241 m 39.317693,-38.91857 0.101773,-0.10178 m -6.516901,6.51691 -6.137935,6.13793 m -9.384587,9.38459 0.939093,-0.9391 m -5.99939,5.99939 -0.701123,0.70113 m -4.094193,4.09419 0.442931,-0.44293 m -2.056583,2.05658 -1.917732,1.91773 m -2.368526,2.36853 0.260021,-0.26002 m -0.765725,0.76572 -0.789732,0.78974 m 39.330931,-38.93181 0.100287,-0.10029 m -6.900306,6.90031 -5.762941,5.76294 m -8.21607,8.21607 0.07412,-0.0741 m -0.966138,0.96614 -0.219866,0.21986 m -6.600561,6.60056 1.875715,-1.87571 m -5.22766,5.22766 -0.28981,0.28981 m -3.231401,3.2314 1.017643,-1.01764 m -3.079955,3.07995 -0.255774,0.25578 m -1.319128,1.31912 0.773369,-0.77337 m 38.669598,-38.27047 -0.0988,0.0988 m -12.572857,12.57285 5.390524,-5.39052 m -14.957586,14.95759 -0.0556,0.0556 m -4.47969,4.47969 0.15185,-0.15185 m -0.862484,0.86249 -1.694552,1.69455 m -3.509736,3.50974 0.250354,-0.25036 m -2.335423,2.33543 -0.643044,0.64304 m -2.354021,2.35402 0.251527,-0.25153 m -0.83734,0.83734 -0.757007,0.75701 m 39.318863,-38.91974 0.138997,-0.139 m -4.161774,4.16178 -1.247299,1.2473 m -7.274135,7.27413 5.018107,-5.0181 m -12.861422,12.86142 -0.05963,0.0596 m -9.004653,9.00465 2.094117,-2.09412 m -5.439897,5.4399 -0.210898,0.2109 m -2.266561,2.26656 0.120743,-0.12074 m -2.221681,2.22168 -0.24728,0.24728 m -1.366513,1.36651 0.749068,-0.74907 m 38.703931,-38.30481 -0.106299,0.1063 m -6.038803,6.0388 2.034156,-2.03415 m -3.91837,3.91837 -4.645691,4.64569 m -7.855339,7.85534 0.319625,-0.31963 m -6.237235,6.23724 -0.09499,0.095 m -1.001663,1.00166 0.108946,-0.10894 m -1.956432,1.95643 -0.600571,0.60057 m -3.593616,3.59362 0.195823,-0.19583 m -1.897951,1.89795 -0.102882,0.10289 m -2.342415,2.34241 0.243033,-0.24303 m -0.875904,0.8759 -0.757334,0.75734 m 39.344293,-38.94517 0.103847,-0.10385 m -3.711428,3.71143 -0.07471,0.0747 m -2.943163,2.94317 0.107138,-0.10714 m -1.686075,1.68607 -4.359263,4.35927 m -7.838493,7.83849 0.634119,-0.63412 m -7.550218,7.55022 -0.09109,0.0911 m -2.793149,2.79315 0.525447,-0.52545 m -4.063435,4.06344 -0.180771,0.18077 m -1.343459,1.34346 0.08632,-0.0863 m -2.184147,2.18415 -0.238786,0.23879 m -1.413897,1.41389 0.7656,-0.7656 m 38.67768,-38.27855 -0.101395,0.10139 m -12.55886,12.55886 3.802409,-3.80241 M 37.563046,256.615 37.30648,256.87156 m -6.76442,6.76442 0.07944,-0.0794 m -0.927097,0.92709 -0.104086,0.10409 m -3.127655,3.12765 0.474187,-0.47418 m -4.138951,4.13895 -0.33514,0.33514 m -0.71633,0.71633 0.07361,-0.0736 m -2.166031,2.16603 -0.234539,0.23454 m -1.423955,1.42396 0.760232,-0.76023 m 38.664554,-38.26544 -0.09894,0.099 m -5.945519,5.94552 0.77776,-0.77776 m -4.013712,4.01371 -3.372598,3.3726 m -6.559689,6.55968 0.184382,-0.18438 m -7.498286,7.49829 -0.06188,0.0619 m -0.94776,0.94776 0.07088,-0.0709 m -2.970327,2.97033 -0.453486,0.45348 m -4.444203,4.44421 0.581359,-0.58136 m -2.665737,2.66574 -0.229318,0.22931 m -1.435027,1.43503 0.754903,-0.7549 m 38.651428,-38.25231 -0.09649,0.0965 m -3.075187,3.07519 0.175358,-0.17536 m -2.553466,2.55347 -0.8793,0.8793 m -1.546903,1.5469 0.0504,-0.0504 m -1.777393,1.77739 -2.942788,2.94279 m -6.495201,6.4952 0.262163,-0.26216 m -7.709992,7.70999 -0.08512,0.0851 m -0.945016,0.94502 0.08987,-0.0899 m -3.199011,3.19901 -0.416872,0.41687 m -4.172173,4.17218 0.196393,-0.1964 m -2.272723,2.27273 -0.223919,0.22392 m -1.446277,1.44627 0.749573,-0.74957 m 38.638304,-38.23918 -0.09404,0.094 m -2.760397,2.76039 0.0695,-0.0695 m -1.759022,1.75902 -0.403255,0.40325 m -2.201106,2.20111 1.29412,-1.29412 m -4.271348,4.27135 -2.512977,2.51298 m -8.21498,8.21498 0.202843,-0.20285 m -6.028357,6.02836 -0.08586,0.0859 m -0.936752,0.93675 0.08165,-0.0816 m -3.339682,3.33968 -0.4248,0.4248 m -3.916399,3.9164 1.08428,-1.08428 m -3.152563,3.15256 -0.218521,0.21852 m -1.457525,1.45753 0.778457,-0.77846 m 38.587137,-38.18802 -0.101259,0.10126 m -2.579225,2.57923 0.05311,-0.0531 m -1.378013,1.37801 -0.422964,0.42296 m -3.151521,3.15153 1.426513,-1.42652 m -4.390931,4.39093 -2.083167,2.08317 m -9.282317,9.28232 0.473708,-0.47371 m -5.346655,5.34666 -0.07458,0.0746 m -0.960408,0.9604 0.07863,-0.0786 m -3.445582,3.44558 -0.403307,0.40331 m -3.692816,3.69282 0.764253,-0.76426 m -2.824489,2.82449 -0.213122,0.21312 m -1.468774,1.46878 0.743335,-0.74334 m 38.584281,-38.18516 -0.09613,0.0961 m -4.096766,4.09677 0.223881,-0.22388 m -2.475073,2.47507 -1.573184,1.57318 m -1.138874,1.13888 0.124343,-0.12435 m -1.97811,1.97811 -1.544852,1.54486 m -14.421032,14.42103 0.08782,-0.0878 m -0.954503,0.9545 -0.09986,0.0999 m -3.833437,3.83343 0.402858,-0.40285 m -3.442597,3.44259 -0.419551,0.41955 m -2.269854,2.26986 0.207723,-0.20772 m -0.940032,0.94003 -0.747715,0.74771 m 39.198644,-38.79952 0.09099,-0.091 m -3.76521,3.76521 -0.192833,0.19283 m -4.526557,4.52656 1.74731,-1.74731 m -4.686047,4.68604 -1.090226,1.09023 m -14.580722,14.58072 0.08032,-0.0803 m -0.968261,0.96826 -0.08473,0.0847 m -3.873638,3.87364 0.413167,-0.41317 m -3.508436,3.50844 -0.150454,0.15045 m -2.269372,2.26937 0.202324,-0.20232 m -0.941502,0.9415 -0.752095,0.75209 m 39.165798,-38.76667 0.08586,-0.0859 m -3.56141,3.56141 -0.161784,0.16178 m -5.130623,5.13062 1.823321,-1.82332 m -20.120885,20.12089 -0.07522,0.0752 m -1.000314,1.00032 0.08991,-0.0899 m -3.542775,3.54277 -0.411315,0.41132 m -3.046466,3.04646 0.09749,-0.0975 m -2.169453,2.16945 -0.196925,0.19692 m -1.502523,1.50253 0.756475,-0.75648 m 38.457207,-38.05808 -0.08073,0.0807 m -3.434133,3.43413 0.15918,-0.15918 m -3.968019,3.96802 -1.899941,1.89994 m -18.167227,18.16723 0.08037,-0.0804 m -0.981302,0.9813 -0.111847,0.11185 m -3.830986,3.83098 0.426349,-0.42635 m -3.183831,3.18383 -0.09671,0.0967 m -2.268409,2.26841 0.191527,-0.19153 m -0.944443,0.94444 -0.760855,0.76086 m 39.100106,-38.70098 0.0756,-0.0756 m -3.20727,3.20727 -0.146207,0.14621 m -6.23999,6.23999 1.97656,-1.97656 m -19.861756,19.86175 -0.07647,0.0765 m -1.015765,1.01577 0.08139,-0.0814 m -3.410368,3.41037 -0.451678,0.45168 m -2.688521,2.68852 0.09228,-0.0923 m -2.174077,2.17407 -0.186128,0.18613 m -1.525021,1.52502 0.765235,-0.76523 m 38.369365,-37.97025 -0.08035,0.0804 m -3.106128,3.10612 0.130747,-0.13074 m -3.570458,3.57045 -0.407437,0.40744 m -3.020364,3.02036 2.147003,-2.147 m -8.802218,8.80222 -0.05372,0.0537 m -10.981717,10.98171 0.07997,-0.08 m -1.034326,1.03433 -0.10066,0.10066 m -3.665699,3.6657 0.477006,-0.47701 m -2.89744,2.89744 -0.102419,0.10242 m -2.267445,2.26744 0.180729,-0.18072 m -0.947384,0.94738 -0.769615,0.76961 m 38.999226,-38.6001 0.07417,-0.0742 m -2.884098,2.8841 -0.115287,0.11528 m -4.30429,4.30429 0.817785,-0.81778 m -1.691081,1.69108 -2.118005,2.118 m -6.208974,6.20898 0.08276,-0.0828 m -11.418534,11.41853 -0.09267,0.0927 m -1.07591,1.07591 0.119929,-0.11993 m -3.171214,3.17121 -0.461386,0.46139 m -2.395256,2.39526 0.11256,-0.11256 m -2.204193,2.20419 -0.17533,0.17533 m -1.534137,1.53414 0.760612,-0.76062 m 38.238208,-37.83908 -0.068,0.068 m -1.420291,1.42029 0.059,-0.059 m -1.288171,1.28817 -0.09483,0.0948 m -4.761432,4.76143 1.321467,-1.32147 m -2.194699,2.1947 -2.159402,2.15941 m -5.638621,5.63862 0.06278,-0.0628 m -11.866006,11.86601 -0.07752,0.0775 m -1.10836,1.10836 0.07682,-0.0768 m -2.885775,2.88577 -0.533034,0.53303 m -2.25957,2.25958 0.114075,-0.11408 m -2.215492,2.21549 -0.173691,0.17369 m -1.526421,1.52642 0.746028,-0.74602 m 38.17263,-37.77351 -0.06183,0.0618 m -2.625231,2.62523 0.096,-0.096 m -3.617443,3.61745 -1.635275,1.63527 m -3.073966,3.07397 2.196155,-2.19616 m -19.552054,19.55206 -0.09248,0.0925 m -1.151948,1.15195 0.111583,-0.11159 m -2.620005,2.62001 -0.563428,0.56343 m -2.163394,2.16339 0.113847,-0.11385 m -2.212289,2.21229 -0.186553,0.18656 m -1.518707,1.5187 0.731444,-0.73144 m 38.107052,-37.70793 -0.05565,0.0556 m -1.199053,1.19905 0.125771,-0.12577 m -1.293177,1.29318 -0.134209,0.13421 m -5.557503,5.5575 2.034327,-2.03432 m -2.916298,2.91629 -2.220435,2.22044 m -17.381229,17.38123 0.09839,-0.0984 m -1.226715,1.22671 -0.08461,0.0846 m -2.790726,2.79073 0.618027,-0.61803 m -2.574263,2.57427 -0.113619,0.11362 m -2.294883,2.29488 0.199414,-0.19941 m -0.993546,0.99354 -0.716861,0.71686 m 36.210707,-35.81158 0.150825,-0.15083 m -3.55369,3.55369 -2.43338,2.43338 m -3.02979,3.02979 2.14366,-2.14366 m -3.345654,3.34566 -0.168312,0.16831 m -16.120953,16.12095 0.180421,-0.18042 m -1.322017,1.32202 -0.221275,0.22127 m -2.297818,2.29782 0.802319,-0.80232 m -2.71196,2.71196 -0.113391,0.11339 m -2.302788,2.30279 0.210294,-0.21029 m -1.013277,1.01327 -0.702277,0.70228 m 36.030128,-35.631 0.2789,-0.2789 m -3.452346,3.45234 -2.832432,2.83243 m -1.848292,1.84829 0.958001,-0.958 m -1.904196,1.9042 -0.05015,0.0502 m -1.625232,1.62523 0.78144,-0.78144 m -2.354967,2.35497 -0.557528,0.55753 m -13.95266,13.95266 0.121698,-0.1217 m -1.44982,1.44982 -1.964325,1.96433 m -2.006353,2.00635 0.113163,-0.11316 m -2.202682,2.20268 -0.221578,0.22158 m -1.483029,1.48303 0.671599,-0.6716 m 37.186355,-36.78724 -0.0508,0.0508 m -8.151122,8.15113 3.233397,-3.2334 m -4.125935,4.12593 -0.460152,0.46016 m -2.474314,2.47431 0.605355,-0.60536 m -2.64993,2.64993 -0.238909,0.23891 m -14.640293,14.6403 0.271148,-0.27115 m -2.065479,2.06548 -0.94192,0.94192 m -2.011057,2.01105 0.112935,-0.11293 m -2.19948,2.19948 -0.232862,0.23286 m -1.457703,1.45771 0.637825,-0.63783 m 37.769796,-37.37067 -0.615281,0.61528 m -1.237702,1.2377 0.264325,-0.26433 m -3.899882,3.89989 -3.64008,3.64008 m -3.603211,3.60321 0.697415,-0.69742 m -17.7858,17.7858 -0.379668,0.37967 m -1.886939,1.88694 0.421651,-0.42165 m -2.488816,2.48882 -0.112707,0.1127 m -2.327717,2.32772 0.255081,-0.25508 m -1.083405,1.0834 -0.604051,0.60405 m 37.775326,-37.3762 0.507862,-0.50786 m -1.357833,1.35783 -0.64779,0.64779 m -7.375597,7.3756 4.046763,-4.04677 m -8.669163,8.66917 -0.622731,0.62273 m -17.284439,17.28444 1.646858,-1.64686 m -3.782869,3.78287 -0.112479,0.11248 m -2.355122,2.35512 0.420139,-0.42014 m -1.237814,1.23782 -0.570277,0.57027 M 62.50349,239.657 l 0.377558,-0.37756 m -1.213405,1.21341 -0.924963,0.92496 m -7.469189,7.46919 4.4538,-4.4538 m -9.007931,9.00793 -0.197012,0.19701 m -16.939956,16.93996 0.295443,-0.29544 m -2.913515,2.91351 -0.112251,0.11225 m -2.400302,2.40031 0.111629,-0.11163 m -0.900881,0.90088 -0.536503,0.5365 m 37.710583,-37.31146 0.277968,-0.27797 m -1.066671,1.06667 -0.399017,0.39902 m -0.825206,0.82521 0.252902,-0.25291 m -2.950158,2.95016 -4.471936,4.47194 m -4.844671,4.84467 0.107339,-0.10734 m -19.589237,19.58924 -0.112023,0.11202 m -3.709039,3.70904 0.495221,-0.49522 m 37.346011,-36.94689 -0.184184,0.18418 m -1.197081,1.19708 0.398057,-0.39805 m -1.250152,1.25015 -0.21006,0.21006 m -6.903746,6.90375 4.524624,-4.52463 m -28.834039,28.83404 -0.111795,0.1118 m -3.667463,3.66746 0.47285,-0.47285 m 37.196504,-36.79738 -0.118578,0.11857 m -1.178117,1.17812 0.396949,-0.39695 m -1.528983,1.52899 -0.167218,0.16721 m -6.569195,6.5692 4.508207,-4.50821 m -28.869573,28.86957 -0.111566,0.11157 m -1.265376,1.26538 0.08382,-0.0838 m -1.993854,1.99385 -0.455434,0.45543 m 37.419803,-37.02068 0.07628,-0.0763 m -0.795621,0.79562 -0.44076,0.44076 m -1.500302,1.5003 0.118938,-0.11894 m -1.479439,1.47944 -4.914133,4.91413 m -24.490103,24.49011 0.111338,-0.11134 m -1.276077,1.27608 -0.08203,0.082 m -2.347456,2.34746 0.432903,-0.4329 m 36.138843,-35.73972 -0.423037,0.42303 m -1.729445,1.72945 0.127803,-0.1278 m -1.503188,1.50318 -4.831838,4.83184 m -24.254003,24.254 0.11111,-0.11111 m -1.259033,1.25904 -0.08892,0.0889 m -2.320762,2.32077 0.734098,-0.7341 m 35.708937,-35.30982 -0.405314,0.40532 m -1.958589,1.95859 0.106162,-0.10617 m -1.49643,1.49643 -4.8376,4.8376 m -14.413296,14.4133 0.963813,-0.96381 m -10.36948,10.36948 -0.110882,0.11088 m -3.520982,3.52098 0.343863,-0.34386 m 35.97046,-35.57134 -0.387591,0.38759 m -2.187732,2.18773 0.105014,-0.10501 m -1.510166,1.51017 -4.835996,4.83599 m -15.03312,15.03312 2.39794,-2.39794 m -10.867219,10.86722 -0.110654,0.11066 m -3.484362,3.48436 0.320322,-0.32033 m 35.863651,-35.46452 -0.386304,0.3863 m -2.398801,2.3988 0.103866,-0.10386 m -1.486971,1.48697 -4.901854,4.90185 m -15.117519,15.11752 3.149103,-3.1491 m -11.186889,11.18689 -0.110426,0.11042 m -3.447741,3.44774 0.296781,-0.29678 m 35.742181,-35.34306 -0.40252,0.40252 m -2.577707,2.57771 0.102717,-0.10272 m -1.548781,1.54878 -4.395888,4.39589 m -16.14956,16.14956 4.14318,-4.14318 m -11.288648,11.28865 -0.111498,0.1115 m -3.40982,3.40982 0.273241,-0.27324 m 35.62071,-35.22159 -0.418736,0.41873 m -2.756612,2.75662 0.212471,-0.21247 m -1.680573,1.68057 -3.870152,3.87015 m -1.536846,1.53685 0.387007,-0.38701 m -10.946825,10.94683 -4.787691,4.78769 m -6.723616,6.72361 0.112646,-0.11264 m -3.230863,3.23086 -0.253725,0.25372 m 35.31399,-34.91486 0.829429,-0.82943 m -3.300942,3.30094 -0.464005,0.464 m -4.891395,4.8914 3.401254,-3.40125 m -15.613012,15.61301 -5.471592,5.47159 m -6.069227,6.06923 0.110862,-0.11087 m -3.199077,3.19908 -0.245848,0.24585 m 35.114105,-34.71498 0.797449,-0.79745 m -3.157676,3.15767 -0.715538,0.71554 m -4.444535,4.44454 2.932356,-2.93236 m -15.251983,15.25198 -6.167874,6.16788 m -5.409683,5.40968 0.109079,-0.10908 m -3.167291,3.16729 -0.237971,0.23798 m 34.906413,-34.5073 0.767216,-0.76721 m -3.008351,3.00835 -0.967072,0.96707 m -4.152283,4.15228 2.618068,-2.61806 m -14.969837,14.96983 -6.795165,6.79517 m -4.740249,4.74025 0.107295,-0.1073 m -1.780118,1.78012 -0.146056,0.14606 m -1.439425,1.43942 0.230095,-0.23009 m 35.205611,-34.80649 -0.736984,0.73698 m -3.340647,3.34065 1.218605,-1.21861 m -2.774859,2.77486 -2.009117,2.00912 m -20.115422,20.11542 7.439492,-7.43949 m -11.3904,11.3904 -0.105512,0.10551 m -2.220286,2.22029 0.596478,-0.59648 m -1.374399,1.3744 -0.222218,0.22222 m 34.489428,-34.09031 0.700933,-0.70093 m -2.702458,2.70246 -1.469961,1.46996 m -3.126591,3.12659 1.528971,-1.52897 m -14.449981,14.44998 -8.014767,8.01477 m -3.372591,3.37259 0.103728,-0.10373 m -1.693291,1.69329 -0.260774,0.26077 m -1.332209,1.33221 0.214341,-0.21434 m 34.71868,-34.31956 -0.692507,0.69251 m -3.565466,3.56547 1.726442,-1.72645 m -3.361457,3.36146 -1.056376,1.05638 m -21.831306,21.8313 8.671557,-8.67155 m -11.17686,11.17686 -0.165433,0.16543 m -1.689545,1.68954 0.260311,-0.26031 m -1.44548,1.44548 -0.206464,0.20647 m 33.991599,-33.59248 0.684081,-0.68408 m -2.360603,2.3606 -1.993896,1.9939 m -2.156203,2.1562 0.494766,-0.49476 M 46.158712,262.78686 34.802474,274.1431 m -1.450084,1.45008 0.277309,-0.2773 m -1.51232,1.51232 -0.190045,0.19004 m 33.734143,-33.33502 0.675656,-0.67566 m -2.189678,2.18968 -2.26135,2.26135 M 35.14654,274.19816 46.365878,262.97882 m -12.27678,12.27678 -0.291259,0.29126 m -1.462699,1.4627 0.180652,-0.18065 m 33.944984,-33.54587 -0.659033,0.65904 m -3.869067,3.86906 2.528804,-2.5288 m -17.892475,17.89248 -12.325716,12.32571 m -1.500344,1.50034 0.193595,-0.19359 m 33.641978,-33.24286 -0.670737,0.67074 m -3.928536,3.92854 2.796258,-2.79626 M 46.73706,263.40588 42.962944,267.18 m -8.32595,8.32595 5.832089,-5.83209 m -7.111794,7.11179 -0.206539,0.20654 m 32.86307,-32.46395 0.68244,-0.68244 m -1.610274,1.61028 -3.060171,3.06017 m -18.722472,18.72247 3.601772,-3.60177 m -6.759145,6.75915 -5.047069,5.04707 m -1.540346,1.54034 0.219482,-0.21948 m 33.035965,-32.63685 -0.677272,0.67728 m -4.064345,4.06434 3.347569,-3.34757 m -18.346784,18.34679 -3.458219,3.45822 m -2.044885,2.04488 0.126209,-0.12621 m -1.584365,1.58437 -4.827399,4.8274 m -1.342752,1.34275 0.257027,-0.25703 m 32.732959,-32.33383 -4.81279,4.81279 m -18.270087,18.27008 3.392358,-3.39236 m -6.961454,6.96146 -6.221469,6.22147 m 28.115018,-27.7159 4.876166,-4.87616 m -19.676679,19.67667 -3.290024,3.29003 m -9.966887,9.96689 6.096955,-6.09696 m 26.954377,-26.55525 -4.220979,4.22097 m -18.680575,18.68058 3.233494,-3.23349 m -7.531423,7.53142 -5.797794,5.79779 m 29.287193,-28.88807 3.827826,-3.82782 m -5.147229,5.14723 -0.374159,0.37415 m -1.123393,1.1234 0.09177,-0.0918 m -13.106434,13.10643 -3.194998,3.195 m -3.100303,3.1003 1.03828,-1.03828 m -2.979868,2.97987 -5.164632,5.16463 m 29.688142,-29.28902 3.444451,-3.44445 m -5.061524,5.06152 -0.12619,0.12619 m -13.461705,13.46171 0.31366,-0.31366 m -1.268952,1.26895 -3.156503,3.1565 m -3.304466,3.30447 1.526475,-1.52648 m -3.48946,3.48946 -5.049874,5.04988 m 30.204563,-29.80544 2.957546,-2.95755 m -4.825261,4.82526 -0.292354,0.29236 m -13.481718,13.48172 0.163742,-0.16375 m -1.126329,1.12633 -3.154386,3.15439 m -3.737784,3.73778 0.248093,-0.24809 m -1.967654,1.96765 -4.934402,4.9344 m 30.663809,-30.26468 2.527815,-2.52782 m -19.544411,19.54441 -3.147916,3.14792 m -4.107487,4.10749 0.284051,-0.28405 m -1.69253,1.69253 -4.923685,4.92368 m 31.025384,-30.62626 2.190165,-2.19017 m -19.531554,19.53156 -3.136794,3.13679 m -4.268546,4.26855 0.348098,-0.3481 m -1.487559,1.48756 -5.068039,5.06804 m 31.643408,-31.24429 1.584557,-1.58455 m -5.472824,5.47282 -0.979172,0.97917 m -16.213725,16.21373 3.147024,-3.14703 m -7.400631,7.40063 -0.243028,0.24303 m -5.994454,5.99446 5.084548,-5.08455 m 22.628225,-22.22911 -0.342185,0.34219 m -16.818756,16.81876 3.182708,-3.18271 m -7.603517,7.60352 -0.14988,0.14988 m -5.910797,5.91079 5.087301,-5.0873 m 8.673321,-8.2742 -3.23619,3.23619 m -4.64295,4.64295 0.154264,-0.15426 m -1.415049,1.41505 -4.513696,4.51369 m 10.479994,-10.08087 3.270055,-3.27005 m -7.846411,7.84641 -0.148036,0.14803 m -5.648602,5.64861 4.403387,-4.40339 m 9.326986,-8.92786 -3.328632,3.32863 m -4.728846,4.72884 0.09864,-0.0986 m -1.353234,1.35323 -4.319347,4.31935 m 10.338086,-9.93896 3.371583,-3.37159 m -7.998824,7.99883 -0.106974,0.10697 m -5.457275,5.45728 4.229701,-4.2297 m 9.411619,-9.0125 -3.455039,3.45504 m -4.659498,4.6595 0.087,-0.087 m -1.32287,1.32287 -4.144323,4.14432 m 10.021514,-9.62239 3.551457,-3.55146 m -8.05624,8.05624 -0.06385,0.0639 M 35.3572,281.97 l 4.058895,-4.0589 m 28.615201,-28.21607 -0.170872,0.17087 m -22.646527,22.64653 3.647875,-3.64788 m -8.753577,8.75358 -0.05948,0.0595 m -4.490478,4.49048 3.919079,-3.91908 m 28.553984,-28.15486 -0.09603,0.096 m -22.739538,22.73954 3.744293,-3.74429 m -8.666633,8.66663 -0.08409,0.0841 m -4.430033,4.43003 3.811351,-3.81135 m 28.533008,-28.13389 -0.176063,0.17606 m -22.750009,22.75001 3.840711,-3.84071 m -9.339714,9.33972 -3.651206,3.6512 m 31.803757,-31.40463 0.584544,-0.58454 m -19.319134,19.31913 -3.94697,3.94697 m -8.840778,8.84078 3.51701,-3.51701 m 29.001053,-28.60193 -0.108695,0.10869 m -21.714805,21.71481 2.171431,-2.17143 m -3.06913,3.06912 -1.049179,1.04918 m -8.420711,8.42071 3.355497,-3.35549 m 29.187052,-28.78793 -0.08907,0.0891 m -21.69219,21.69219 1.855135,-1.85514 m -3.222554,3.22255 -1.066255,1.06626 m -8.01136,8.01136 3.257255,-3.25725 m 29.320496,-28.92138 -0.08738,0.0874 m -19.158874,19.15888 0.201849,-0.20185 m -1.155544,1.15554 -1.381796,1.3818 m -3.077735,3.07774 1.083331,-1.08334 m -5.469272,5.46928 -3.175828,3.17582 m 32.479112,-32.07999 0.0936,-0.0936 m -18.96296,18.96296 -0.56936,0.56936 m -1.945345,1.94535 1.003883,-1.00388 m -3.541616,3.54161 -1.110261,1.11026 m -7.095477,7.09548 2.785433,-2.78543 m 29.764701,-29.36558 -0.07735,0.0774 m -19.739904,19.73991 1.120467,-1.12047 m -2.028358,2.02836 -0.737089,0.73709 m -4.110598,4.1106 1.143414,-1.14342 m -3.224168,3.22417 -0.817988,0.81799 m -3.726978,3.72698 2.642436,-2.64244 m 29.851407,-29.45229 -0.0867,0.0867 m -19.981792,19.98179 1.671574,-1.67157 m -2.545893,2.54589 -0.518311,0.51831 m -4.565297,4.5653 1.216679,-1.21668 m -4.791464,4.79146 -2.505358,2.50536 m 32.317416,-31.91829 0.08443,-0.0844 m -18.097035,18.09704 -2.22268,2.22268 m -1.177681,1.17768 0.336934,-0.33694 m -3.963717,3.96372 -1.686065,1.68606 m -5.204601,5.20461 2.485463,-2.48547 m 29.83694,-29.43781 -0.122903,0.1229 m -18.937849,18.93785 1.251324,-1.25133 m -3.580962,3.58097 -0.206389,0.20638 m -5.6706,5.6706 1.568219,-1.56821 m -3.718156,3.71815 -2.518088,2.51809 m 32.065431,-31.66631 0.10338,-0.10338 m -17.450103,17.4501 -1.143725,1.14373 m -2.191705,2.1917 0.07486,-0.0749 m -0.807228,0.80723 -0.147304,0.1473 m -10.072917,10.07292 5.64822,-5.64822 m 26.317852,-25.91873 -0.0784,0.0784 m -18.043047,18.04305 1.056592,-1.05659 m -3.5891,3.5891 -0.349949,0.34995 m -0.744062,0.74406 0.135213,-0.13521 m -4.797032,4.79703 -5.127024,5.12702 m 31.669554,-31.27043 0.07283,-0.0728 m -16.657228,16.65723 -0.96946,0.96946 m -4.168954,4.16896 1.368381,-1.36839 m -6.582847,6.58285 -4.334972,4.33497 m 31.481237,-31.08211 0.06941,-0.0694 m -16.249598,16.24959 -0.941032,0.94104 m -4.396116,4.39611 1.652397,-1.6524 m -7.549865,7.54987 -3.482058,3.48206 m 14.504331,-14.10521 0.825542,-0.82554 m -3.58183,3.58183 -0.210912,0.21091 m -10.868404,10.8684 2.24864,-2.24864 m 28.404845,-28.00572 -0.06341,0.0634 m -16.075738,16.07574 0.760006,-0.76001 m -3.47891,3.47891 -0.183942,0.18394 m -11.130623,11.13063 1.655089,-1.65509 m 28.694689,-28.29557 -0.07703,0.077 m -15.560547,15.56054 0.69447,-0.69447 m -3.375989,3.37599 -0.156972,0.15698 m 18.562581,-18.16346 0.09065,-0.0906 m -1.978646,1.97865 -0.746859,0.74685 m -12.410496,12.4105 0.628933,-0.62893 m -3.273068,3.27307 -0.130002,0.13 m 17.9755,-17.57638 0.08544,-0.0854 m -1.393213,1.39322 -1.575816,1.57581 m -11.639036,11.63904 0.563397,-0.5634 m -3.170148,3.17015 -0.461592,0.46159 m 17.710869,-17.31175 0.08049,-0.0805 m -1.066608,1.06661 -2.456922,2.45692 m -10.520753,10.52076 0.587891,-0.5879 m -3.157257,3.15726 -0.08168,0.0817 m 16.734738,-16.33561 0.07555,-0.0756 m -0.741555,0.74156 -3.028451,3.02845 m -9.710496,9.71049 0.448443,-0.44844 m -2.88122,2.88122 -0.15687,0.15687 m 12.125524,-11.7264 4.059578,-4.05958 m -12.499416,12.49942 -0.417303,0.4173 m 8.623784,-8.22466 4.407889,-4.40789 m -11.847675,11.84767 -0.755813,0.75582 m 10.045187,-9.64607 2.673255,-2.67325 m -4.262431,4.26243 -0.342162,0.34216 m -7.177848,7.17785 0.677028,-0.67703 m 11.173342,-10.77422 -2.472222,2.47222 m -2.309306,2.30931 0.592302,-0.5923 m -6.760612,6.76061 -0.218047,0.21805 m 8.931971,-8.53285 2.31504,-2.31504 m -4.209572,4.20957 -0.760089,0.76009 m -5.646124,5.64612 0.19788,-0.19788 m 10.497031,-10.09791 -2.194938,2.19494 m -2.978289,2.97829 0.266632,-0.26663 m -4.995629,4.99563 -0.06468,0.0647 m 7.924268,-7.52514 2.121765,-2.12177 m -3.506513,3.50651 -0.252904,0.25291 m -1.55282,1.55282 0.288044,-0.28805 m -4.020447,4.02045 -0.322997,0.323 m 7.393964,-6.99484 2.052798,-2.0528 m -2.868302,2.8683 -1.320454,1.32045 m -1.262489,1.26249 0.286403,-0.2864 m -3.317899,3.3179 -0.536314,0.53631 m 7.047844,-6.64872 2.050337,-2.05033 m -4.155588,4.15558 -0.06515,0.0652 m -1.369517,1.36952 0.283158,-0.28316 m 5.383103,-4.98398 -2.044756,2.04476 m -3.744229,3.74423 0.331927,-0.33193 m 5.533901,-5.13478 -2.040012,2.04001 m -3.818688,3.81869 0.275784,-0.27578 m 5.706365,-5.30725 -2.065165,2.06517 m -3.966702,3.9667 0.307327,-0.30733 m -2.927982,2.92799 -0.246817,0.24681 m 6.857254,-6.45813 2.191212,-2.19121 m -5.751163,5.75116 -0.479549,0.47955 m -2.683176,2.68318 1.082149,-1.08215 m 7.982254,-7.58313 -2.318648,2.31864 m -4.112297,4.1123 0.66134,-0.66134 m -2.0325,2.0325 -1.148827,1.14883 m 6.655363,-6.25624 2.446955,-2.44696 m -5.895427,5.89543 -0.727788,0.72779 m -2.319134,2.31913 1.453767,-1.45376 m 7.538015,-7.1389 -2.473309,2.47331 m -6.338324,6.33833 2.907334,-2.90734 m 5.88009,-5.48097 -2.421727,2.42173 m -6.16031,6.16031 2.538124,-2.53812 m 6.104023,-5.7049 -1.269996,1.26999 m -1.237528,1.23753 0.492889,-0.49289 m -3.990907,3.99091 -2.424287,2.42429 m 7.688576,-7.28946 0.265148,-0.26515 m -1.562413,1.56242 -0.494694,0.49469 m -5.669288,5.66929 2.296325,-2.29633 m 3.843593,-3.44447 -0.496318,0.49632 m -5.398592,5.39859 2.150685,-2.15068 m 3.720167,-3.32105 -0.503751,0.50376 m -5.122887,5.12288 2.033095,-2.03309 m 3.569485,-3.17036 -0.571292,0.57129 m -4.723284,4.72328 1.880648,-1.88065 m 3.428362,-3.02924 -0.817606,0.81761 m -4.198732,4.19873 1.810804,-1.8108 m 3.060053,-2.66093 -0.645894,0.64589 m -3.866155,3.86616 1.734561,-1.73456 m 2.700765,-2.30165 -0.957665,0.95767 m -3.133037,3.13303 1.638618,-1.63861 m 2.430209,-2.03109 -3.645473,3.64547 m 0.388019,0.0111 3.007465,-3.00747 m -0.151254,0.55038 -2.323192,2.32319 m 0.630064,-0.23094 1.325234,-1.32524 m 0.01968,0.37944 -0.577954,0.57796"
         inkscape:connector-curvature="0" />
    </g>
  </g>
</svg>
