<?xml version="1.0" encoding="UTF-8" standalone="no"?>
<!-- Created with Inkscape (http://www.inkscape.org/) -->

<svg
   xmlns:dc="http://purl.org/dc/elements/1.1/"
   xmlns:cc="http://creativecommons.org/ns#"
   xmlns:rdf="http://www.w3.org/1999/02/22-rdf-syntax-ns#"
   xmlns:svg="http://www.w3.org/2000/svg"
   xmlns="http://www.w3.org/2000/svg"
   xmlns:sodipodi="http://sodipodi.sourceforge.net/DTD/sodipodi-0.dtd"
   xmlns:inkscape="http://www.inkscape.org/namespaces/inkscape"
   width="50mm"
   height="50mm"
   viewBox="0 0 50 50"
   version="1.1"
   id="svg1586"
   inkscape:version="0.92.2 2405546, 2018-03-11"
   sodipodi:docname="50.svg">
  <sodipodi:namedview
     id="base"
     pagecolor="#ffffff"
     bordercolor="#666666"
     borderopacity="1.0"
     inkscape:pageopacity="0.0"
     inkscape:pageshadow="2"
     inkscape:zoom="3.3031093"
     inkscape:cx="103.98132"
     inkscape:cy="68.979071"
     inkscape:document-units="mm"
     inkscape:current-layer="layer1"
     showgrid="false"
     inkscape:window-width="1366"
     inkscape:window-height="703"
     inkscape:window-x="0"
     inkscape:window-y="0"
     inkscape:window-maximized="1" />
  <defs
     id="defs1580" />
  <metadata
     id="metadata1583">
    <rdf:RDF>
      <cc:Work
         rdf:about="">
        <dc:format>image/svg+xml</dc:format>
        <dc:type
           rdf:resource="http://purl.org/dc/dcmitype/StillImage" />
        <dc:title></dc:title>
      </cc:Work>
    </rdf:RDF>
  </metadata>
  <g
     inkscape:label="Layer 1"
     inkscape:groupmode="layer"
     id="layer1"
     transform="translate(0,-247)">
    <g
       id="g978"
       transform="translate(-4.520782,4.4734365e-5)">
      <path
         inkscape:connector-curvature="0"
         id="path955"
         d="m 32.740978,296.87129 c -1.743673,-0.40658 -2.75365,-1.0147 -3.236442,-1.94871 -0.713363,-1.38006 -0.661857,-1.80523 0.410135,-3.38554 0.880447,-1.29796 0.895824,-1.39569 0.289356,-1.83934 -0.352277,-0.2577 -1.17316,-0.49538 -1.824182,-0.52819 -0.651028,-0.0328 -1.414072,-0.0731 -1.695663,-0.0895 -0.28159,-0.0164 -0.885255,0.51935 -1.341488,1.19058 -1.026074,1.50961 -3.054427,2.28681 -5.417222,2.07571 -3.178816,-0.28402 -4.962826,-2.30818 -5.19078,-5.88954 -0.08425,-1.32373 -0.394065,-2.77456 -0.688469,-3.22407 -0.842127,-1.28579 -0.39944,-3.97041 0.829041,-5.02754 0.590739,-0.50835 1.294106,-0.78903 1.7559,-0.70072 0.613854,0.1174 0.846043,-0.0945 1.142691,-1.04262 0.295516,-0.94456 0.27264,-1.18996 -0.110923,-1.18996 -0.808383,0 -1.92309,-1.38296 -1.951361,-2.42097 -0.101806,-3.73754 0.06453,-4.89851 0.816655,-5.69942 0.42691,-0.45462 1.178154,-0.82657 1.66943,-0.82657 0.491283,0 1.185533,-0.26463 1.542777,-0.58807 0.622166,-0.56329 0.596972,-0.64628 -0.597864,-1.96937 -1.22318,-1.35448 -1.392629,-1.8162 -1.261393,-3.43704 0.03583,-0.44287 -0.107301,-0.80522 -0.318126,-0.80522 -0.665746,0 -0.415483,-1.65198 0.409123,-2.70074 0.435862,-0.55434 0.798061,-1.32411 0.8049,-1.71061 0.01565,-0.8846 2.40254,-1.79458 3.960028,-1.50971 l 1.085771,0.19859 -0.01259,-2.17767 c -0.01159,-2.00332 0.07868,-2.25931 1.127348,-3.19738 1.333624,-1.19296 3.96722,-1.74263 5.343539,-1.11527 0.485736,0.2214 1.157409,0.88473 1.492609,1.47405 0.492796,0.86639 0.849127,1.07298 1.861515,1.07923 0.688623,0.005 1.477167,0.15033 1.752297,0.32462 0.334021,0.21157 0.741161,0.0923 1.225291,-0.35892 1.038894,-0.96826 2.760091,-1.19584 4.270229,-0.5646 1.585984,0.66294 2.447378,1.92887 2.672589,3.92771 0.143722,1.27566 0.01665,1.71778 -0.758929,2.63986 -0.512367,0.60916 -1.328808,1.20731 -1.814332,1.32922 -1.299839,0.32636 -0.778567,1.14705 1.180484,1.85858 2.728032,0.9908 3.977284,3.0082 1.862802,3.0082 h -1.056928 l 0.878063,0.87842 c 0.97941,0.97981 1.16452,2.51382 0.341474,2.82978 -0.295131,0.1133 -0.536597,0.4489 -0.536597,0.74579 0,0.29689 -0.393619,0.79782 -0.874719,1.11317 -0.70017,0.45897 -0.81441,0.73204 -0.57251,1.36856 0.339202,0.89252 0.07463,4.08021 -0.360987,4.34955 -0.501613,0.31014 0.06771,5.6621 0.676615,6.36051 0.939797,1.07795 0.992908,4.8388 0.09695,6.8651 -0.923454,2.08848 -0.927784,1.97214 0.0734,1.97214 0.455076,0 1.259961,0.45169 1.788653,1.00375 1.268797,1.32489 1.266754,2.87266 -0.006,4.38563 -0.891602,1.06005 -2.939454,2.23298 -3.587618,2.05484 -0.151076,-0.0415 -0.838112,0.10612 -1.526742,0.32809 -1.446006,0.46609 -5.566744,0.8307 -6.618012,0.58558 z"
         style="fill:none;stroke:#ff0000;stroke-width:0.1;stroke-miterlimit:4;stroke-dasharray:none" />
      <path
         inkscape:connector-curvature="0"
         id="path953"
         d="m 38.35697,295.80584 c 0.345964,-0.0976 0.524236,-0.38931 0.413851,-0.67709 -0.15726,-0.40997 0.142191,-0.46576 1.583482,-0.29499 2.239517,0.26535 3.291238,-0.57762 3.30882,-2.6521 0.01066,-1.25766 0.04442,-1.29837 0.536601,-0.64736 0.505521,0.66864 0.525214,0.66951 0.525214,0.0231 0,-1.79255 -2.631977,-2.94004 -4.134956,-1.80277 -1.221003,0.9239 -1.265776,0.58989 -0.130384,-0.97279 0.607807,-0.83655 1.333225,-2.06405 1.612032,-2.7278 0.644369,-1.534 0.655489,-4.71601 0.01958,-5.58609 -0.448116,-0.6131 -0.534744,-0.52489 -1.07515,1.0947 -0.821317,2.46148 -1.624996,3.55686 -3.820514,5.20723 -2.031489,1.52705 -3.940002,2.45929 -5.034797,2.45929 -0.467854,0 -0.671773,0.25694 -0.671773,0.84643 0,0.46554 -0.299819,1.2305 -0.666253,1.69992 -1.561744,2.00066 -1.063861,3.51964 1.381714,4.2154 1.152827,0.32799 4.714087,0.22086 6.152586,-0.18507 z"
         style="fill:none;stroke:#0000ff;stroke-width:0.1;stroke-miterlimit:4;stroke-dasharray:none" />
      <path
         inkscape:connector-curvature="0"
         id="path951"
         d="m 22.466066,291.1772 c 0.64044,-0.44877 0.795064,-0.90339 0.795064,-2.33771 0,-3.51506 -1.827991,-5.85164 -3.904693,-4.99108 -0.717365,0.29726 -1.245856,0.31943 -1.708616,0.0717 -0.50046,-0.26795 -0.883031,-0.19796 -1.511923,0.27661 -0.752755,0.56804 -0.824173,0.84954 -0.674297,2.65772 0.123224,1.48651 0.396756,2.27081 1.032307,2.95995 1.671176,1.81208 4.431952,2.44209 5.972158,1.36284 z"
         style="fill:none;stroke:#0000ff;stroke-width:0.1;stroke-miterlimit:4;stroke-dasharray:none" />
      <path
         inkscape:connector-curvature="0"
         id="path949"
         d="m 25.407512,288.67598 c 0,-0.25605 0.424627,-0.9704 0.943627,-1.58745 1.266608,-1.50591 1.871971,-3.40044 1.651696,-5.16914 -0.125534,-1.00796 -0.0662,-1.34775 0.192178,-1.10038 0.382678,0.36638 0.582008,1.777 0.486009,3.43937 -0.02964,0.51383 -0.466516,1.54245 -0.970766,2.28582 -1.202501,1.7727 -0.832704,2.08849 2.445555,2.08849 2.057995,0 2.998699,-0.18632 4.35043,-0.86169 3.990689,-1.99388 6.255966,-5.59973 6.559467,-10.44131 0.120587,-1.92373 0.05021,-2.77356 -0.229838,-2.77356 -0.222027,0 -0.403696,0.24556 -0.403696,0.54568 0,0.7048 -1.708609,1.35301 -2.86089,1.08535 -0.492403,-0.11438 -3.229464,-0.24632 -6.082363,-0.29321 -4.772246,-0.0784 -5.349406,-0.16137 -7.216715,-1.0371 -2.031856,-0.9529 -2.79131,-0.97407 -2.030184,-0.0566 0.639207,0.77053 0.02804,1.01477 -0.758189,0.30298 -0.660386,-0.59789 -0.768971,-0.6018 -1.599385,-0.0574 -1.695849,1.11163 -2.101689,3.08914 -0.633973,3.08914 1.139055,0 3.501024,2.35815 4.375524,4.36845 0.607841,1.39729 0.832378,2.61321 0.85564,4.63347 0.02471,2.14588 0.128379,2.65951 0.478703,2.37185 0.245942,-0.20194 0.44717,-0.57666 0.44717,-0.8327 z"
         style="fill:none;stroke:#0000ff;stroke-width:0.1;stroke-miterlimit:4;stroke-dasharray:none" />
      <path
         inkscape:connector-curvature="0"
         id="path947"
         d="m 23.090216,283.16919 c -1.085671,-3.27001 -4.850264,-5.58464 -5.897922,-3.62628 -0.602047,1.12541 -0.432539,2.71929 0.366088,3.44234 0.880081,0.79679 1.792188,0.39941 2.174892,-0.94753 0.230238,-0.81034 0.258089,-0.81857 0.474854,-0.14038 0.12666,0.39625 0.704466,0.99272 1.284029,1.32547 0.579564,0.33277 1.248833,1.03336 1.487269,1.55688 0.681743,1.49689 0.76082,0.34736 0.11079,-1.61049 z"
         style="fill:none;stroke:#0000ff;stroke-width:0.1;stroke-miterlimit:4;stroke-dasharray:none" />
      <path
         inkscape:connector-curvature="0"
         id="path945"
         d="m 16.166413,281.64915 c -0.06546,-0.91381 0.06835,-2.0116 0.29728,-2.43956 0.48888,-0.91385 0.334615,-1.18045 -0.49807,-0.86079 -1.336327,0.51301 -2.168391,3.77453 -1.208035,4.73529 0.930774,0.93116 1.53424,0.3165 1.408825,-1.43494 z"
         style="fill:none;stroke:#0000ff;stroke-width:0.1;stroke-miterlimit:4;stroke-dasharray:none" />
      <path
         inkscape:connector-curvature="0"
         id="path943"
         d="m 34.663776,275.40609 c 1.338604,-0.26783 1.407712,-0.57385 0.267438,-1.18435 -0.719824,-0.3854 -0.997883,-0.35873 -1.809996,0.17361 -0.720023,0.47197 -0.842588,0.70316 -0.491016,0.9262 0.570432,0.36193 0.634019,0.36457 2.033574,0.0845 z"
         style="fill:none;stroke:#0000ff;stroke-width:0.1;stroke-miterlimit:4;stroke-dasharray:none" />
      <path
         inkscape:connector-curvature="0"
         id="path941"
         d="m 38.911826,275.40409 c 1.06843,-0.28645 1.106157,-1.77782 0.05341,-2.11208 -0.536809,-0.17045 -0.641412,-0.34871 -0.36618,-0.62406 0.275229,-0.27534 0.590151,-0.19996 1.102493,0.26389 0.587209,0.53163 0.815676,0.56757 1.260507,0.19824 0.793365,-0.65871 0.663882,-1.97622 -0.261591,-2.66181 l -0.804893,-0.59626 0.983758,0.20155 c 0.54107,0.11086 0.983759,0.0733 0.983759,-0.0835 0,-0.55337 -1.119883,-1.87595 -1.588343,-1.87595 -0.261026,0 -0.558779,-0.32209 -0.66169,-0.71576 -0.283862,-1.08594 -1.848636,-0.90474 -4.914657,0.56912 -3.407989,1.63824 -5.715915,1.90749 -8.672911,1.01181 -1.538655,-0.46606 -2.624433,-1.08306 -3.569192,-2.02821 l -1.357812,-1.35838 -0.886201,0.88656 c -1.710834,1.71154 -0.866489,4.46273 1.918249,6.25044 2.289145,1.46955 5.081521,2.54395 6.589815,2.53551 0.637329,-0.004 2.029638,-0.4867 3.094018,-1.07364 2.005603,-1.10595 3.251854,-1.36063 3.251854,-0.66454 0,0.25649 0.389529,0.32468 1.07319,0.18789 1.039,-0.20788 1.462442,0.20023 0.698092,0.67282 -0.256423,0.15854 -0.24257,0.39168 0.04382,0.73688 0.459616,0.55403 0.820751,0.60372 2.030519,0.27938 z"
         style="fill:none;stroke:#0000ff;stroke-width:0.1;stroke-miterlimit:4;stroke-dasharray:none" />
      <path
         inkscape:connector-curvature="0"
         id="path939"
         d="m 18.385638,274.01041 c 0.146626,-0.38227 0.47913,-0.47785 1.110665,-0.31928 0.495759,0.12448 1.172367,0.1223 1.503572,-0.005 0.513986,-0.19732 0.443201,-0.37646 -0.483272,-1.22301 -0.596998,-0.5455 -1.163243,-1.2238 -1.258316,-1.50735 -0.270056,-0.80542 -1.931575,0.23381 -2.475982,1.54866 -0.39019,0.94239 -0.362818,1.1336 0.223651,1.56261 0.856566,0.6266 1.12174,0.61568 1.379682,-0.0568 z"
         style="fill:none;stroke:#0000ff;stroke-width:0.1;stroke-miterlimit:4;stroke-dasharray:none" />
      <path
         inkscape:connector-curvature="0"
         id="path937"
         d="m 17.626877,270.28192 c 0.541064,-0.27133 0.983751,-0.70903 0.983751,-0.97269 0,-0.76942 -1.339471,-0.55203 -1.947225,0.31601 -0.58924,0.84162 -0.737498,1.49957 -0.288583,1.28076 0.147558,-0.0719 0.710986,-0.35277 1.252057,-0.62408 z"
         style="fill:none;stroke:#0000ff;stroke-width:0.1;stroke-miterlimit:4;stroke-dasharray:none" />
      <path
         inkscape:connector-curvature="0"
         id="path935"
         d="m 34.452344,267.24598 c 2.322031,-1.14781 3.019258,-1.33865 4.275197,-1.17012 0.825365,0.11075 1.695715,0.46823 1.934112,0.79439 0.646633,0.88468 1.900367,0.34239 2.155185,-0.93221 0.114887,-0.57467 0.430228,-1.04484 0.700764,-1.04484 0.850099,0 0.543715,-0.85686 -0.667525,-1.86684 l -1.165847,-0.97213 1.165888,-0.44961 c 0.641231,-0.24728 1.111836,-0.61178 1.045786,-0.81002 -0.06606,-0.19823 -0.953378,-0.68576 -1.971847,-1.08341 -2.170256,-0.84736 -2.788059,-1.62028 -3.995989,-4.9994 -0.691492,-1.93438 -1.170009,-2.68688 -2.109854,-3.31778 -1.950062,-1.30906 -3.018971,-1.0907 -5.454515,1.11425 -1.17264,1.06162 -2.50422,2.00139 -2.959061,2.08838 -0.454855,0.087 -1.962276,0.0225 -3.349836,-0.14329 -2.78605,-0.33288 -4.832743,0.10043 -4.071498,0.86199 0.598018,0.59827 0.516078,0.90874 -0.309014,1.17073 -0.398734,0.12661 -0.991937,0.63778 -1.318214,1.13595 -0.554557,0.84671 -0.553171,0.92818 0.02118,1.24974 0.476792,0.26693 0.562395,0.62135 0.382198,1.58229 -0.187643,1.00065 -0.04322,1.51114 0.752468,2.65979 0.541564,0.78181 1.105224,1.42147 1.252576,1.42147 0.147345,0 0.910329,0.66215 1.695497,1.47144 3.044996,3.13852 7.267402,3.57484 11.992358,1.23923 z"
         style="fill:none;stroke:#0000ff;stroke-width:0.1;stroke-miterlimit:4;stroke-dasharray:none" />
      <path
         inkscape:connector-curvature="0"
         id="path933"
         d="m 28.865568,265.37036 c -0.440763,-0.44094 -0.254712,-0.93602 0.208674,-0.55528 0.245941,0.20207 0.849613,0.44143 1.341488,0.5319 0.792453,0.14576 0.768685,0.17004 -0.208673,0.21323 -0.606649,0.0269 -1.210321,-0.0586 -1.341489,-0.18985 z"
         style="fill:none;stroke:#0000ff;stroke-width:0.1;stroke-miterlimit:4;stroke-dasharray:none" />
      <path
         inkscape:connector-curvature="0"
         id="path931"
         d="m 32.919844,264.99833 c -0.295124,-0.10793 -0.886882,-0.51471 -1.315011,-0.90394 -0.42813,-0.38924 -0.958359,-0.59644 -1.178294,-0.46046 -0.219935,0.13598 -0.632202,0.0543 -0.916163,-0.18141 -0.283948,-0.23576 -0.887093,-0.33554 -1.340317,-0.22174 -1.233182,0.30964 -2.96905,-0.91039 -3.474258,-2.44181 -0.348267,-1.0557 -0.521279,-1.21893 -0.931207,-0.87858 -0.612303,0.50838 -0.676129,-0.0695 -0.07419,-0.67168 0.519034,-0.51925 2.074837,-0.57293 2.074837,-0.0716 0,0.19684 -0.160977,0.35788 -0.35773,0.35788 -0.680351,0 -0.354401,1.46738 0.520333,2.34248 0.718184,0.71848 1.234281,0.87843 2.834391,0.87843 1.535392,0 2.173907,0.18254 2.967532,0.84836 1.503785,1.26163 3.027343,1.48948 4.082566,0.61058 0.47502,-0.39566 0.66245,-0.72473 0.416515,-0.73128 -0.245941,-0.007 -0.447162,-0.17862 -0.447162,-0.38237 0,-0.25118 0.230377,-0.24712 0.715453,0.0126 0.448614,0.24019 0.713424,0.74544 0.709986,1.35463 -0.004,0.67924 -0.09778,0.82586 -0.312238,0.48728 -0.235525,-0.37184 -0.477984,-0.39262 -1.044187,-0.0895 -0.772981,0.41386 -2.022134,0.47442 -2.930857,0.14209 z"
         style="fill:none;stroke:#0000ff;stroke-width:0.1;stroke-miterlimit:4;stroke-dasharray:none" />
      <path
         inkscape:connector-curvature="0"
         id="path929"
         d="m 30.39111,259.85988 c -1.189482,-1.1116 -1.278349,-1.48796 -0.503331,-2.13145 0.299885,-0.24898 0.466529,-0.53144 0.370317,-0.62768 -0.09621,-0.0962 -0.01398,-0.47591 0.182808,-0.8437 0.393526,-0.73561 1.59315,-0.93996 1.299474,-0.22136 -0.100549,0.24604 -0.292814,0.72093 -0.427245,1.05531 -0.189993,0.47255 0.02144,0.67759 0.949441,0.92064 1.088922,0.2852 1.250984,0.21969 1.843682,-0.74521 0.498316,-0.81126 0.747959,-0.95969 1.07082,-0.6367 0.322852,0.32299 0.275249,0.67524 -0.204192,1.51097 -0.343859,0.59939 -0.545786,1.21834 -0.448735,1.37545 0.275397,0.44578 -0.593842,0.97638 -1.897225,1.15811 -0.936833,0.13061 -1.408417,-0.0412 -2.235814,-0.81438 z"
         style="fill:none;stroke:#0000ff;stroke-width:0.1;stroke-miterlimit:4;stroke-dasharray:none" />
      <path
         inkscape:connector-curvature="0"
         id="path927"
         d="m 33.456438,259.16713 c -0.121598,-0.19683 -0.372567,-0.35788 -0.557713,-0.35788 -0.185138,0 -0.336612,0.16105 -0.336612,0.35788 0,0.19684 0.250962,0.35788 0.557706,0.35788 0.306744,0 0.458219,-0.16104 0.336619,-0.35788 z"
         style="fill:none;stroke:#0000ff;stroke-width:0.1;stroke-miterlimit:4;stroke-dasharray:none" />
      <path
         inkscape:connector-curvature="0"
         id="path925"
         d="m 18.527702,267.4683 c 0.226755,-0.68055 -0.81792,-0.49577 -1.507621,0.26666 -0.610224,0.67457 -0.599662,0.68685 0.368406,0.42784 0.548164,-0.14667 1.060811,-0.45919 1.139215,-0.6945 z"
         style="fill:none;stroke:#0000ff;stroke-width:0.1;stroke-miterlimit:4;stroke-dasharray:none" />
      <path
         inkscape:connector-curvature="0"
         id="path923"
         d="m 40.902852,256.26221 c 1.145283,-0.58594 2.016599,-1.80033 2.024151,-2.82114 0.011,-1.49129 -1.238484,-3.13667 -2.685529,-3.53639 -2.044663,-0.56479 -3.958416,0.44755 -3.009174,1.5918 0.385607,0.46482 0.536083,0.46557 1.236886,0.007 0.735866,-0.48237 0.870924,-0.44671 1.738152,0.45887 1.220456,1.2744 1.205338,2.37077 -0.04342,3.15234 -0.541065,0.33863 -1.040119,0.65373 -1.109013,0.7002 -0.232483,0.15685 0.343298,0.84789 0.706483,0.84789 0.198079,0 0.711751,-0.1799 1.141507,-0.39977 z"
         style="fill:none;stroke:#0000ff;stroke-width:0.1;stroke-miterlimit:4;stroke-dasharray:none" />
      <path
         inkscape:connector-curvature="0"
         id="path921"
         d="m 39.885337,254.38752 c 0.742511,-0.54316 0.550373,-1.54598 -0.363418,-1.89678 -0.828935,-0.31823 -1.311022,0.34824 -1.038275,1.43539 0.270168,1.07692 0.470224,1.14277 1.401693,0.46139 z"
         style="fill:none;stroke:#0000ff;stroke-width:0.1;stroke-miterlimit:4;stroke-dasharray:none" />
      <path
         inkscape:connector-curvature="0"
         id="path919"
         d="m 25.912135,253.26213 c -0.38985,-1.55393 0.125907,-2.6262 1.633228,-3.3955 1.732698,-0.88432 1.681318,-0.88551 1.646721,0.0382 -0.01565,0.41709 0.251063,0.93826 0.59265,1.15815 0.494673,0.31843 0.772501,0.24828 1.365271,-0.34473 l 0.74421,-0.74453 -0.949907,-1.12937 c -1.070234,-1.27244 -2.283019,-1.45234 -4.249483,-0.63036 -2.273955,0.95052 -3.146983,3.72449 -1.645043,5.22705 0.942202,0.94259 1.133754,0.90285 0.862353,-0.17894 z"
         style="fill:none;stroke:#0000ff;stroke-width:0.1;stroke-miterlimit:4;stroke-dasharray:none" />
      <path
         inkscape:connector-curvature="0"
         id="path1148"
         d="m 28.689227,252.98086 0.95648,-0.79237 -0.789756,-0.98254 c -0.742066,-0.9232 -0.837639,-0.949 -1.582508,-0.42706 -0.494853,0.34675 -0.792747,0.9289 -0.792747,1.5492 0,1.6979 0.697913,1.90418 2.208531,0.65277 z"
         style="fill:none;stroke:#0000ff;stroke-width:0.1;stroke-miterlimit:4;stroke-dasharray:none" />
      <path
         id="path903"
         style="fill:none;stroke:#0000ff;stroke-width:0.1"
         d="m 25.355881,248.294 -1.149351,1.14936 m 0.02148,0.37764 1.819467,-1.81947 m -6.518194,6.5182 -0.453856,0.45386 m 5.042534,-4.64342 2.623694,-2.62369 m -6.485532,6.48553 -1.517463,1.51746 m 8.129265,-7.73014 0.548204,-0.5482 m -6.625712,6.62571 -0.131328,0.13133 m -2.458774,2.45877 1.410694,-1.41069 m 8.194591,-7.79547 -0.18145,0.18145 m -6.531012,6.53101 0.267989,-0.26799 m -1.603377,1.60338 -2.034484,2.03448 m 10.446417,-10.04729 0.116975,-0.11698 m -6.497395,6.4974 -0.256475,0.25647 m -3.853217,3.85322 2.257482,-2.25748 m 8.76067,-8.36155 -0.08682,0.0868 m -6.638468,6.63847 0.230839,-0.23084 m -2.137151,2.13715 -0.243542,0.24354 m -2.331934,2.33193 0.282168,-0.28216 m 11.327073,-10.92795 -0.108981,0.10898 m -6.665662,6.66566 0.255975,-0.25598 m -4.828536,4.82854 -0.249891,0.24989 m 11.836705,-11.43758 0.172145,-0.17215 m -5.286016,5.28602 -0.12665,0.12665 m -1.349951,1.34995 0.169604,-0.1696 m -4.990685,4.99068 -0.325079,0.32508 m 12.058042,-11.65892 0.128732,-0.12873 m -5.461294,5.46129 -0.227074,0.22708 m -0.975294,0.97529 0.130062,-0.13006 m -5.086891,5.08689 -0.285523,0.28552 m 12.0585,-11.65938 0.163344,-0.16334 m -2.663679,2.66368 -1.333315,1.33332 m -2.605546,2.60554 0.984886,-0.98488 m -6.091918,6.09191 -0.333655,0.33366 m 12.147622,-11.7485 0.14259,-0.14259 m -1.963204,1.9632 -0.922146,0.92215 m -1.428401,1.4284 0.397186,-0.39719 m -1.77893,1.77893 -0.777079,0.77708 m -5.762287,5.76229 0.427861,-0.42786 m 12.04108,-11.64196 -0.142689,0.14269 m -2.203991,2.20399 0.696279,-0.69628 m -2.72812,2.72812 -0.114895,0.1149 m -1.857707,1.8577 0.590693,-0.59069 m -6.263663,6.26366 -0.397269,0.39727 m 12.505998,-12.10687 0.128804,-0.12881 m -1.890158,1.89016 -0.448399,0.4484 m -2.327945,2.32795 0.08168,-0.0817 m -1.18357,1.18357 -0.409882,0.40988 m -6.468614,6.46861 0.335708,-0.33571 m 12.500958,-12.10183 -0.115792,0.11579 m -2.199069,2.19907 0.277374,-0.27738 m -2.715194,2.7152 -0.07709,0.0771 m -1.169478,1.16948 0.249515,-0.24952 m -6.801997,6.802 -0.367701,0.3677 m 12.999159,-12.60004 0.09622,-0.0962 m -2.105942,2.10594 -0.200303,0.2003 m -2.633429,2.63343 0.09578,-0.0958 m -0.87732,0.87731 -0.08518,0.0852 m -7.198544,7.19855 0.228597,-0.2286 m 12.952292,-12.55317 -0.08412,0.0841 m -2.213512,2.21351 0.155822,-0.15582 m -2.756072,2.75607 -0.130185,0.13019 m -8.087908,8.0879 0.235628,-0.23563 m 13.056294,-12.65717 -0.07773,0.0777 m -2.216942,2.21695 0.144757,-0.14476 m -2.76472,2.76472 -0.506051,0.50605 m -7.784917,7.78492 0.210203,-0.21021 m 13.157816,-12.75869 -0.05781,0.0578 m -2.221426,2.22142 0.176942,-0.17694 m -2.743265,2.74327 -0.330482,0.33048 m -8.050116,8.05012 0.198635,-0.19864 m 11.180738,-10.78162 -0.254599,0.2546 m -2.668439,2.66844 0.268238,-0.26824 m -8.407115,8.40712 -0.175594,0.17559 m 11.160764,-10.76164 0.366731,-0.36673 m -2.48935,2.48935 -0.317454,0.31746 m -8.553256,8.55325 0.159628,-0.15963 m 13.318871,-12.91975 -4.247652,4.24766 m -9.049724,9.04972 0.133001,-0.133 m 13.412517,-13.01339 -3.720964,3.72096 m -9.643432,9.64343 0.106373,-0.10637 m 13.562535,-13.16341 -2.251054,2.25105 m -11.236731,11.23673 0.09296,-0.093 m 13.719924,-13.3208 -0.38548,0.38548 m -9.047646,9.04765 0.367246,-0.36725 m -4.480274,4.48027 -0.08227,0.0823 m 13.810323,-13.4112 0.191125,-0.19112 m -9.053698,9.05369 -0.494742,0.49475 m -4.267238,4.26723 0.07027,-0.0703 m 14.109628,-13.71051 -0.148751,0.14875 m -9.269936,9.26994 0.484505,-0.48451 m -5.001677,5.00168 -0.05827,0.0583 m -3.527905,3.5279 0.852361,-0.85236 m 17.033888,-16.63476 -0.156679,0.15667 m -9.472718,9.47272 0.72853,-0.72853 m -7.57721,7.57721 -1.45573,1.45573 m 18.132393,-17.73327 0.169796,-0.16979 m -9.721782,9.72178 -0.131167,0.13116 m -4.535137,4.53514 0.10993,-0.10993 m -2.095243,2.09524 -0.451653,0.45166 m -1.678565,1.67856 0.275475,-0.27547 m 18.53209,-18.13297 -0.168975,0.16897 m -14.358625,14.35863 0.158621,-0.15862 m -1.681492,1.68149 -0.43673,0.43673 m -2.341222,2.34122 0.604019,-0.60402 m 18.532186,-18.13306 -0.19625,0.19625 m -16.30278,16.30278 2.049433,-2.04943 m -3.53341,3.53341 -1.182512,1.18251 m 19.249775,-18.85065 0.193903,-0.19391 m -14.494385,14.49439 -2.243063,2.24306 m -2.735544,2.73555 1.946915,-1.94692 m 18.135114,-17.73599 -0.557585,0.55758 m -17.655304,17.65531 3.339664,-3.33967 m -5.161663,5.16167 -0.08103,0.081 m 19.807382,-19.40826 1.552245,-1.55225 m -15.912897,15.9129 -0.05609,0.0561 m -3.097586,3.09759 1.206124,-1.20613 m 18.277337,-17.87821 -1.725661,1.72566 m -5.505335,5.50533 0.817216,-0.81721 m -9.71196,9.71196 -0.06061,0.0606 m -3.007969,3.00797 0.580842,-0.58084 m 19.265221,-18.8661 -0.612003,0.612 m -1.54549,1.54549 0.526757,-0.52675 m -5.33131,5.33131 -1.349627,1.34962 m -8.326902,8.32691 0.06514,-0.0651 m -2.762279,2.76228 -0.312585,0.31258 m -2.769307,2.76931 0.437796,-0.4378 m 22.365488,-21.96636 -0.280345,0.28034 m -2.042914,2.04292 0.298383,-0.29838 m -5.697315,5.69731 -1.390778,1.39078 m -7.71176,7.71176 0.06966,-0.0697 m -2.933481,2.93348 -0.226886,0.22689 m -2.884299,2.8843 1.490888,-1.49089 m 21.706845,-21.30772 -0.247404,0.2474 m -2.260599,2.2606 0.238608,-0.23861 m -5.965622,5.96562 -1.196401,1.1964 m -7.591788,7.59179 0.07418,-0.0742 m -3.091412,3.09141 -3.153747,3.15375 m 23.346846,-22.94772 0.267448,-0.26745 m -2.528052,2.52805 -0.223972,0.22397 m -6.955536,6.95554 1.198465,-1.19847 m -8.648955,8.64896 -0.08575,0.0857 m -6.365426,6.36543 3.210086,-3.21009 m 20.713078,-20.31395 -0.242458,0.24246 m -2.647421,2.64742 0.245798,-0.2458 m -5.97993,5.97993 -1.21305,1.21305 m -7.521158,7.52116 0.09872,-0.0987 m -3.34144,3.34144 -0.630274,0.63028 m -2.612413,2.61241 0.467212,-0.46721 m 23.690353,-23.29123 -0.196645,0.19664 m -2.831175,2.83118 0.341911,-0.34191 m -6.008926,6.00892 -1.259751,1.25975 m -7.510921,7.51092 0.104568,-0.10456 m -3.433646,3.43364 -0.283472,0.28348 m -3.021637,3.02163 0.212947,-0.21295 m 24.20069,-23.80156 -0.174139,0.17414 m -3.030402,3.0304 0.945829,-0.94583 m -6.447147,6.44715 -1.366251,1.36625 m -7.494889,7.49489 0.104616,-0.10462 m -3.525853,3.52585 -0.182878,0.18288 m 21.277079,-20.87796 0.191043,-0.19104 m -1.96204,1.96204 -1.402287,1.40229 m -6.798889,6.79889 1.459055,-1.45906 m -8.842731,8.84273 -0.104664,0.10467 m -3.64993,3.64993 0.164006,-0.16401 m 21.39003,-20.99091 -0.155809,0.15581 m -3.323846,3.32385 1.661958,-1.66196 m -6.809204,6.8092 -1.571074,1.57108 m -7.488963,7.48896 0.103462,-0.10346 m -3.643667,3.64367 -0.166375,0.16637 m -3.114825,3.11483 0.07889,-0.0789 m 24.682003,-24.28288 -0.166473,0.16647 m -3.438818,3.43882 1.779982,-1.77998 m -6.753002,6.753 -1.654423,1.65442 m -7.466519,7.46652 0.110647,-0.11065 m -3.728202,3.7282 -0.168744,0.16875 m -3.079727,3.07973 0.102852,-0.10286 m 24.714977,-24.31585 -0.171345,0.17134 m -2.013612,2.01362 0.309002,-0.30901 m -1.511574,1.51158 -0.357769,0.35777 m -4.796888,4.79689 1.795048,-1.79505 m -2.562955,2.56295 -0.915812,0.91581 m -7.485663,7.48567 0.117831,-0.11783 m -3.812735,3.81273 -0.148612,0.14861 m -3.057052,3.05705 0.13943,-0.13943 m 24.710381,-24.31125 -0.192378,0.19237 m -1.925419,1.92542 0.206071,-0.20607 m -1.736764,1.73677 -0.22194,0.22194 m -4.623754,4.62375 1.71109,-1.71109 m -2.587094,2.58709 -0.833825,0.83383 m -7.504996,7.50499 0.125016,-0.12501 m -3.863137,3.86314 -0.150195,0.15019 m -3.046794,3.04679 0.162069,-0.16206 m 24.689723,-24.2906 -0.184702,0.1847 m -1.899504,1.8995 0.145541,-0.14554 m -1.824221,1.82422 -0.202673,0.20267 m -4.532521,4.53253 1.554408,-1.55441 m -2.39964,2.39964 -0.715166,0.71516 m -7.593061,7.59306 0.107293,-0.10729 m -3.913001,3.913 -0.152318,0.15232 m -2.977741,2.97774 0.204772,-0.20477 m 24.576237,-24.17711 -0.182932,0.18293 m -1.856423,1.85642 0.07711,-0.0771 m -1.920418,1.92041 -0.16404,0.16404 m -4.493282,4.49329 1.326699,-1.3267 m -2.0446,2.0446 -0.578782,0.57878 m -2.78479,2.78479 0.121792,-0.12179 m -4.985619,4.98562 -0.09142,0.0914 m -4.031138,4.03114 0.15444,-0.15444 m -1.859879,1.85988 -1.129322,1.12932 m 24.446097,-24.04697 0.173533,-0.17354 m -1.969149,1.96915 -0.0753,0.0753 m -2.06586,2.06586 0.157648,-0.15765 m -4.140607,4.14061 -1.526328,1.52633 m -2.910053,2.91005 0.191798,-0.1918 M 25.024,268.1827 24.93167,268.275 m -4.099967,4.09996 0.151021,-0.15102 m -1.680962,1.68097 -1.218959,1.21895 m -3.384331,3.38434 0.437616,-0.43762 m 27.430532,-27.03141 -0.148138,0.14814 m -1.912346,1.91234 0.111697,-0.11169 m -1.95196,1.95196 -0.245904,0.2459 m -5.031515,5.03152 0.803363,-0.80337 m -3.769533,3.76954 -0.264903,0.2649 m -4.943586,4.94359 0.09766,-0.0977 m -4.100327,4.10033 -0.176443,0.17644 m -2.784019,2.78402 1.366513,-1.36651 m -3.951042,3.95104 -1.215463,1.21546 m 28.125623,-27.7265 0.121069,-0.12107 m -1.959326,1.95933 -0.132999,0.133 m -2.071649,2.07165 0.362852,-0.36285 m -4.597566,4.59756 -0.217678,0.21768 m -3.472901,3.4729 0.09566,-0.0957 m -5.104841,5.10484 -0.09044,0.0904 m -4.27081,4.27081 0.201866,-0.20186 m -1.46375,1.46375 -1.775766,1.77576 m -4.041621,4.04163 2.059264,-2.05927 m 26.610455,-26.21133 -0.09859,0.0986 m -4.082711,4.08271 2.163651,-2.16365 m -14.924094,14.92409 -0.08321,0.0832 m -4.392078,4.39208 0.256855,-0.25685 m -1.327428,1.32742 -2.264569,2.26457 m -1.595799,1.5958 0.137748,-0.13775 m -2.16577,2.16577 -0.509328,0.50933 m 28.913134,-28.51401 0.102936,-0.10294 m -2.070371,2.07037 -2.128251,2.12825 m -12.662395,12.6624 0.06403,-0.064 m -4.265534,4.26553 -5.128917,5.12892 m -2.82127,2.82127 0.230878,-0.23088 m 28.869585,-28.47046 -0.0647,0.0647 m -2.652274,2.65228 0.259418,-0.25942 m -14.096119,14.09612 -0.07902,0.079 m -5.536533,5.53654 1.264174,-1.26418 m -4.074435,4.07444 -1.074348,1.07435 m -3.097999,3.098 0.222257,-0.22226 m 24.930371,-24.53125 -0.06582,0.0658 m -12.250804,12.25081 0.09677,-0.0968 m -4.431851,4.43186 -1.276275,1.27627 m -4.063241,4.06324 1.016208,-1.01621 m -3.947712,3.94772 -0.211779,0.21177 m 25.205486,-24.80636 0.138135,-0.13813 m -12.094363,12.09436 -0.114521,0.11452 m -5.685392,5.68539 1.287596,-1.28759 m -4.458704,4.4587 -1.649586,1.64959 m -2.602797,2.60279 0.133638,-0.13364 m 29.183938,-28.78481 -0.10909,0.10909 m -3.89205,3.89205 0.269054,-0.26905 m -12.027478,12.02747 -0.115653,0.11566 m -4.887094,4.88709 0.409962,-0.40996 m -1.101127,1.10113 -0.221353,0.22135 m -5.017607,5.01761 1.782174,-1.78218 m -4.225952,4.22595 -0.108679,0.10868 m 29.167456,-28.76833 0.113443,-0.11344 m -3.243278,3.24327 -0.657333,0.65734 m -11.667289,11.66729 0.112887,-0.11289 m -4.679201,4.6792 -0.343017,0.34302 m -1.000876,1.00087 0.132784,-0.13278 m -3.380577,3.38058 -0.375534,0.37553 m -1.705765,1.70577 0.223293,-0.2233 m -2.520569,2.52057 -0.08396,0.084 m 28.97833,-28.5792 0.233502,-0.2335 m -2.59749,2.59749 -1.164434,1.16443 m -11.486045,11.48605 0.161481,-0.16149 m -4.816978,4.81698 -0.276073,0.27608 m -4.542881,4.54288 0.257707,-0.25771 m -2.253095,2.25309 -0.123977,0.12398 m -2.241794,2.2418 0.07667,-0.0767 M 43.389065,254.20784 39.7159,257.881 m -11.28095,11.28095 0.186222,-0.18622 m -4.954755,4.95475 -0.256518,0.25652 m -4.44691,4.44691 0.224208,-0.22421 m -2.605763,2.60577 -0.118669,0.11867 m -2.105709,2.1057 0.102686,-0.10268 m 28.758592,-28.35947 -2.094393,2.09439 m -1.22795,1.22795 0.155202,-0.1552 m -11.038104,11.0381 -0.199503,0.19951 m -5.122871,5.12287 0.241424,-0.24142 m -4.394186,4.39418 -0.234878,0.23488 m -2.85081,2.85081 0.114927,-0.11493 m -1.925642,1.92564 -0.163783,0.16379 m 27.527395,-27.12828 1.011081,-1.01108 m -2.819552,2.81956 -0.106995,0.10699 m -10.897474,10.89747 0.213432,-0.21343 m -5.197486,5.19749 -0.236638,0.23664 m -4.395168,4.39516 0.223452,-0.22345 m -3.154441,3.15444 -0.206817,0.20682 m -1.860469,1.86047 0.281132,-0.28113 m 25.527082,-25.12796 -0.09073,0.0907 M 29.619462,269.17514 29.87,268.9246 m -5.385787,5.38579 -0.231852,0.23185 m -4.406024,4.40603 0.215353,-0.21536 m -3.334158,3.33416 -0.30267,0.30267 m -1.764044,1.76405 0.451318,-0.45132 m 25.5061,-25.10698 -0.09524,0.0952 m -10.479042,10.47904 0.29037,-0.29037 m -5.574087,5.57408 -0.226744,0.22675 m -4.417201,4.4172 0.184903,-0.1849 m -3.491524,3.49152 -0.558922,0.55892 m -1.505939,1.50594 0.721807,-0.72181 m 25.389945,-24.99082 -0.106151,0.10615 m -10.365343,10.36535 0.466019,-0.46602 m -5.81482,5.81482 -0.221362,0.22136 m -4.446112,4.44611 0.162103,-0.1621 m -3.582704,3.5827 -2.155344,2.15535 m 26.23532,-25.8362 0.102462,-0.10246 m -5.883369,5.88336 -0.07282,0.0728 m -4.181793,4.18179 0.309795,-0.30979 m -5.990145,5.99014 -0.21598,0.21598 m -4.499578,4.49958 0.160615,-0.16062 m -3.655957,3.65596 -2.26051,2.26051 m 26.456189,-26.05707 0.107622,-0.10762 m -4.699518,4.69952 -0.877982,0.87798 m -4.421713,4.42172 0.457392,-0.4574 m -6.277396,6.2774 -0.207753,0.20775 m -4.553044,4.55305 0.141186,-0.14119 m -3.678569,3.67857 -0.561694,0.56169 m -1.836682,1.83668 0.296403,-0.2964 m 26.493437,-26.09431 -0.112781,0.11278 m -5.195597,5.19559 0.464844,-0.46484 m -4.291989,4.29199 -0.472259,0.47226 m -6.411843,6.41184 0.229124,-0.22912 m -4.713878,4.71388 -0.121757,0.12175 m -3.763732,3.76374 0.209649,-0.20965 m -2.376097,2.37609 -0.185486,0.18549 m 26.897928,-26.49881 0.129146,-0.12914 m -5.059287,5.05928 -0.158088,0.15809 m -4.253267,4.25327 0.534957,-0.53496 m -6.837305,6.83731 -0.199874,0.19987 m -4.720756,4.72076 0.106575,-0.10658 m -3.653436,3.65344 -0.131253,0.13125 m -2.607302,2.6073 0.14761,-0.14761 m 27.09688,-26.69775 -0.125693,0.12569 m -8.789558,8.78956 0.410726,-0.41073 m -7.231136,7.23114 -0.178971,0.17897 m -4.850057,4.85005 0.09556,-0.0956 m -3.541574,3.54157 -0.136721,0.13673 m -2.850502,2.8505 0.122941,-0.12294 m 27.353029,-26.95391 -0.129148,0.12915 m -8.3482,8.3482 0.379681,-0.37968 m -7.61325,7.61325 -0.158068,0.15807 m -4.979358,4.97935 0.08454,-0.0845 m -3.387588,3.38758 -0.183576,0.18358 m -3.096801,3.0968 0.100632,-0.10063 m 27.609178,-27.21006 -0.133629,0.13363 m -7.899139,7.89914 0.409543,-0.40954 m -8.062947,8.06295 -0.137165,0.13716 m -5.108659,5.10866 0.07352,-0.0735 m -1.830829,1.83083 -1.528512,1.52851 m -3.447792,3.4478 0.09663,-0.0966 m 27.838726,-27.43961 -0.129818,0.12982 m -7.482003,7.482 0.490782,-0.49078 m -8.518119,8.51812 -0.06685,0.0668 m -5.301349,5.30135 0.0625,-0.0625 m -1.848118,1.84812 -1.239789,1.23979 m -3.864137,3.86414 0.102468,-0.10247 m 28.043744,-27.64462 -0.10557,0.10557 m -7.058861,7.05886 0.659433,-0.65944 m -14.505804,14.50581 -0.07933,0.0793 m -2.666129,2.66613 0.895519,-0.89552 m -5.138716,5.13872 -0.06206,0.0621 m 28.221953,-27.82283 0.08887,-0.0889 m -6.395641,6.39564 -0.335611,0.33561 m -14.446848,14.44685 0.101356,-0.10136 m -1.818854,1.81886 -0.431619,0.43162 m -4.898913,4.89891 0.05629,-0.0563 m 28.411316,-28.01219 -0.08338,0.0834 m -6.385034,6.38504 0.357494,-0.3575 m -15.045447,15.04545 -0.101865,0.10186 m -1.998253,1.99826 0.342765,-0.34277 m -5.416617,5.41662 -0.05257,0.0526 m 28.530563,-28.13144 0.07127,-0.0713 m -5.952593,5.95259 -0.197122,0.19712 m -9.067958,9.06796 0.05413,-0.0541 m -6.054082,6.05408 -0.0982,0.0982 m -1.808706,1.80871 0.215232,-0.21524 m 23.128222,-22.72909 -0.07992,0.0799 m -1.69998,1.69998 0.410453,-0.41045 m -4.424471,4.42447 -0.09183,0.0918 m -9.121129,9.12113 0.07664,-0.0766 m -6.34864,6.34864 -0.105068,0.10507 m -1.688335,1.68833 0.167245,-0.16725 m 23.098408,-22.69928 -0.994189,0.99419 m -0.761442,0.76144 0.188932,-0.18893 m -12.900876,12.90087 -0.343287,0.34329 m -6.643658,6.64366 0.122537,-0.12254 m -1.546047,1.54605 -0.126995,0.12699 m -5.656714,5.65672 0.05005,-0.05 m 28.791772,-28.39265 -0.775152,0.77515 m -0.942922,0.94292 0.170809,-0.17081 m -12.56322,12.56322 -0.491077,0.49108 m -6.910246,6.91024 0.135062,-0.13506 m -1.460993,1.461 -0.08674,0.0867 m -5.790248,5.79025 0.08649,-0.0865 m 28.762621,-28.3635 -0.538434,0.53843 m -1.101216,1.10122 0.157528,-0.15753 m -3.833982,3.83398 -0.06729,0.0673 m -8.963158,8.96315 0.817611,-0.81761 m -7.846857,7.84686 -0.147588,0.14759 m -1.337399,1.3374 0.109047,-0.10905 m -5.838885,5.83889 -0.09226,0.0923 m 28.672016,-28.2729 0.123881,-0.12388 m -1.395613,1.39561 -0.155143,0.15515 m -3.72264,3.72264 0.171037,-0.17104 m -7.824269,7.82427 -1.143552,1.14355 m -7.438519,7.43852 0.129344,-0.12934 m -1.272703,1.2727 -0.12174,0.12174 m -5.855876,5.85588 0.105935,-0.10594 m 27.323218,-26.9241 -0.14833,0.14833 m -3.756672,3.75668 0.268588,-0.26859 m -7.015629,7.01563 -1.828229,1.82823 m -7.742096,7.74209 0.152558,-0.15256 m -1.199297,1.1993 -0.104171,0.10417 m -5.889652,5.88966 0.146996,-0.147 m 27.282727,-26.88361 -0.113218,0.11322 m -3.828107,3.82811 0.391064,-0.39106 m -6.821695,6.82169 -1.885724,1.88572 m -8.04567,8.04567 0.175772,-0.17577 m -1.138164,1.13817 -0.114751,0.11475 m -5.852683,5.85268 0.157733,-0.15773 m 27.242235,-26.84311 -0.10269,0.10269 m -3.865949,3.86594 0.465329,-0.46532 m -6.387467,6.38746 -0.320877,0.32088 m -1.826032,1.82603 0.287028,-0.28703 m -8.450913,8.45092 -0.182761,0.18276 m -1.010469,1.01047 0.112341,-0.11235 m -5.752492,5.7525 -0.157043,0.15704 m 27.242925,-26.8438 0.115863,-0.11586 m -3.46995,3.46994 -0.495631,0.49563 m -5.946998,5.947 0.310018,-0.31002 m -2.113743,2.11375 -0.101013,0.10101 m -8.639183,8.63919 0.167169,-0.16717 m -1.009567,1.00956 -0.110212,0.11021 m -5.741706,5.74171 0.181366,-0.18137 m 23.742907,-23.34378 -0.456267,0.45627 m -5.844629,5.84463 0.162874,-0.16288 m -10.845733,10.84574 -0.197558,0.19755 m -0.868091,0.86809 0.127484,-0.12748 m -5.582889,5.58289 -0.191726,0.19173 m 25.796593,-25.39747 1.323718,-1.32372 m -3.137009,3.13701 -0.469274,0.46927 m -16.958523,16.95852 0.236308,-0.23631 m -0.866763,0.86677 -0.167506,0.1675 m -5.506645,5.50665 0.178924,-0.17893 m 26.784942,-26.38582 -1.504243,1.50425 m -1.959845,1.95984 0.736647,-0.73664 m -17.6617,17.6617 -0.957666,0.95766 m -5.366159,5.36616 0.182523,-0.18252 m 26.519942,-26.12082 -3.252321,3.25232 m -5.793435,5.79344 0.142752,-0.14276 m -11.430148,11.43015 -0.890706,0.89071 m -5.227707,5.2277 0.201146,-0.20114 m 25.165749,-24.76663 -1.966386,1.96639 m -5.75212,5.75212 0.344269,-0.34427 m -11.828756,11.82875 -0.867106,0.86711 m -4.990961,4.99096 0.164833,-0.16483 m 24.707903,-24.30878 -0.188072,0.18807 m -1.411202,1.4112 0.244044,-0.24404 m -5.416924,5.41692 -0.546742,0.54674 m -12.49379,12.49379 0.81068,-0.81068 m -5.421341,5.42134 -0.153944,0.15395 m 23.143019,-22.7439 0.161452,-0.16145 m -5.08842,5.08842 -1.754135,1.75414 m -6.756308,6.7563 0.07229,-0.0723 m -4.1865,4.1865 -0.79146,0.79146 m -4.50449,4.50449 0.163113,-0.16312 m 22.959029,-22.5599 -0.103294,0.10329 m -6.465214,6.46522 1.509226,-1.50923 m -8.550712,8.55071 -0.09816,0.0982 m -4.825201,4.8252 0.723275,-0.72328 m -4.848307,4.84831 -0.119946,0.11995 m 21.883469,-21.48435 0.07645,-0.0765 m -4.661511,4.66152 -0.719073,0.71907 m -7.499517,7.49952 0.11822,-0.11822 m -4.177489,4.17748 -0.750999,0.751 m -3.927447,3.92745 0.113186,-0.11318 m 22.37697,-21.97785 -0.759582,0.75958 m -2.322349,2.32235 0.13556,-0.13556 m -2.451936,2.45193 -0.484969,0.48497 m -7.975078,7.97508 0.211622,-0.21162 m -4.177336,4.17733 -0.714067,0.71407 m -3.609914,3.60992 0.1195,-0.1195 m 22.033621,-21.6345 -0.585833,0.58583 m -2.229255,2.22926 0.104022,-0.10403 m -2.484393,2.4844 -0.323242,0.32324 m -8.592126,8.59213 0.452749,-0.45275 m -4.149942,4.14994 -0.709154,0.70915 m -3.257237,3.25724 0.09868,-0.0987 m 21.66455,-21.26543 -0.475949,0.47595 m -2.067388,2.06739 0.06624,-0.0662 m -2.501815,2.50181 -0.158952,0.15895 m -8.961457,8.96146 0.446155,-0.44616 m -4.122546,4.12255 -0.745892,0.74589 m -2.85724,2.85724 0.125949,-0.12595 m 21.241716,-20.84259 -0.368205,0.3682 m -1.973965,1.97397 0.09751,-0.0975 m -2.432124,2.43213 -0.08025,0.0803 m -9.856538,9.85654 0.863294,-0.8633 m -3.993132,3.99313 -0.75732,0.75732 m -2.547382,2.54739 0.232682,-0.23269 m 20.804251,-20.40512 -0.266639,0.26663 m -1.906589,1.90659 0.181595,-0.18159 m -11.939576,11.93958 -1.479741,1.47974 m -3.267593,3.26759 0.967432,-0.96743 m -2.586185,2.58618 -0.216384,0.21639 m 20.095874,-19.69676 0.325725,-0.32572 m -1.641367,1.64137 -0.322606,0.3226 m -13.94653,13.94653 1.331973,-1.33197 m -2.934135,2.93413 -2.431193,2.4312 m 18.034072,-17.63495 1.842727,-1.84273 m -3.138307,3.13831 -0.313189,0.31319 m -12.70733,12.70733 1.360358,-1.36036 m -2.50784,2.50784 -2.082192,2.08219 m 16.437813,-16.03869 3.000593,-3.00059 m -15.107602,15.1076 -3.725041,3.72504 m 16.355276,-15.95615 2.202388,-2.20239 m -14.72689,14.72689 -3.074559,3.07456 m 17.278165,-16.87904 0.260938,-0.26094 m -14.304384,14.30438 -0.469912,0.46991 m -2.05625,2.05625 0.563559,-0.56356 m 16.312583,-15.91346 -0.141766,0.14177 m -14.149514,14.14951 0.207239,-0.20724 m 14.060887,-13.66176 -0.07969,0.0797 m -13.809321,13.80932 0.113624,-0.11362 m 0.334043,0.0651 -0.06855,0.0686 m 13.480055,-13.08093 0.07251,-0.0725 m 0.02133,0.37779 -0.100641,0.10065 m -12.740121,12.74012 0.06935,-0.0693 m 12.792742,-12.39362 -0.128772,0.12877 m -12.393794,12.39379 0.113659,-0.11366 m 12.46943,-12.0703 -0.196095,0.19609 m -12.047468,12.04747 0.157967,-0.15797 m 12.139022,-11.7399 -0.262616,0.26262 m -11.737506,11.7375 0.244934,-0.24493 m 11.808614,-11.40949 -0.368853,0.36885 m -11.392928,11.39293 0.342504,-0.3425 m 11.472703,-11.07358 -0.475091,0.47509 m -11.062079,11.06207 0.4756,-0.4756 m 11.114996,-10.71587 -0.702674,0.70268 m -10.631894,10.6317 0.630661,-0.63066 m 10.75729,-10.35817 -0.700438,0.70044 m -10.47444,10.47444 0.821389,-0.82139 m 10.441042,-10.04192 -0.911364,0.91136 m -10.178061,10.17806 1.1058,-1.1058 m 10.067546,-9.66842 -1.118659,1.11866 m -8.659216,8.65921 0.220795,-0.22079 m -1.14814,1.14814 -0.328449,0.32845 m 9.793181,-9.39406 1.347911,-1.34791 m -9.221673,9.22167 -0.177714,0.17772 m -2.530143,2.53014 1.109751,-1.10975 m 10.95046,-10.55134 -0.220404,0.2204 m -1.496199,1.4962 0.624004,-0.624 m -7.703513,7.70351 -0.249549,0.24955 m -3.617016,3.61702 1.435189,-1.43519 m 11.370172,-10.97105 -0.179853,0.17985 m -1.966599,1.9666 0.459311,-0.45931 m -6.346666,6.34667 -0.431472,0.43147 m -4.413658,4.41366 0.98735,-0.98735 m 12.040635,-11.64152 -0.155867,0.15587 m -2.452661,2.45266 0.502998,-0.503 m -5.576082,5.57608 -0.372609,0.37261 m -5.129165,5.12917 0.747631,-0.74763 m 12.550488,-12.15137 -0.139778,0.13978 m -4.029,4.029 1.691405,-1.6914 m -4.306534,4.30653 -0.233001,0.233 m -6.243146,6.24315 0.418914,-0.41892 m 12.93666,-12.53753 -0.127271,0.12727 m -5.671239,5.67124 3.237611,-3.23762 m -10.544175,10.54418 -0.173602,0.1736 m 13.197079,-12.79796 0.181721,-0.18172 m -3.492636,3.49264 -1.952561,1.95256 m -7.812416,7.81242 0.134775,-0.13478 m 13.157349,-12.75822 -0.124744,0.12474 m -13.046193,13.04619 0.08553,-0.0855 M 42.9191,281.81847 42.766162,281.9714 m -12.92917,12.92917 0.08838,-0.0884 m 13.016015,-12.61689 -0.147268,0.14727 m -12.78955,12.78955 0.05958,-0.0596 m 12.899477,-12.50036 -0.141553,0.14155 m -12.650492,12.6505 0.100853,-0.10086 m 12.730579,-12.33145 -0.164925,0.16492 m -12.442178,12.44218 0.07948,-0.0795 m 12.481307,-12.08218 -0.151606,0.1516 m -12.18485,12.18485 0.08565,-0.0857 m 12.238967,-11.83985 -0.172769,0.17277 m -11.927524,11.92753 0.113974,-0.11398 m 11.92967,-11.53055 -0.226712,0.22672 m -11.535894,11.53589 0.07792,-0.0779 m 11.632526,-11.23341 -0.150508,0.15051 M 31.397,296.13442 l 0.09958,-0.0996 m 11.232833,-10.83371 -0.119717,0.11972 m -10.94131,10.94131 0.121243,-0.12125 m 10.830095,-10.43097 -0.231038,0.23104 m -10.411745,10.41175 0.09481,-0.0948 m 10.316641,-9.91752 -0.312785,0.31279 m -9.790164,9.79016 0.138354,-0.13835 m 9.975054,-9.57593 -0.764585,0.76458 m -9.040317,9.04032 0.181895,-0.1819 m 9.009518,-8.61039 -0.969421,0.96942 m -7.913487,7.91349 0.225436,-0.22544 m 8.519729,-8.12061 -1.762146,1.76215 m -6.58204,6.58204 0.182688,-0.18269 m 8.252378,-7.85325 -0.95764,0.95764 m -7.101175,7.10117 0.201856,-0.20185 m 8.073839,-7.67472 -0.286405,0.2864 m -7.613039,7.61304 0.221023,-0.22102 m 8.059944,-7.66082 -0.284877,0.28488 m -7.568882,7.56888 0.189234,-0.18924 m 8.043959,-7.64483 -0.256477,0.25648 m -7.554418,7.55441 0.152836,-0.15283 m 7.98206,-7.58294 -0.247985,0.24798 m -7.464614,7.46462 0.158938,-0.15894 m 7.82718,-7.42806 -0.216623,0.21663 m -7.347197,7.34719 0.165039,-0.16504 m 7.652005,-7.25288 -0.164966,0.16497 m -7.30912,7.30912 0.250481,-0.25048 m 7.464007,-7.06489 -0.163904,0.1639 m -6.995128,6.99513 0.142613,-0.14261 m 7.235086,-6.83596 -0.129635,0.12963 m -6.794094,6.7941 0.125734,-0.12574 m 7.009311,-6.61019 -0.12055,0.12055 m -6.560525,6.56053 0.155644,-0.15564 m 6.710995,-6.31188 -0.102906,0.10291 m -6.309763,6.30976 1.245301,-1.2453 m 5.347351,-4.94823 -0.08199,0.082 m -5.97832,5.97832 1.092886,-1.09289 m 5.123374,-4.72425 -0.09303,0.093 m -5.614406,5.61441 0.963988,-0.96399 m 4.887742,-4.48862 -0.09241,0.0924 m -5.298572,5.29857 0.882645,-0.88265 m 4.616716,-4.21759 -0.100736,0.10074 m -1.001499,1.0015 0.175028,-0.17503 m -3.31309,3.31309 -0.641489,0.64149 m 4.815437,-4.41632 0.165342,-0.16534 m -0.837592,0.83759 -0.342211,0.34221 m -3.420188,3.42019 0.637986,-0.63798 m 3.989673,-3.59055 -1.208756,1.20875 m -2.887458,2.88746 0.599692,-0.59969 m 3.464289,-3.06517 -1.367229,1.36723 m -2.362344,2.36234 0.835896,-0.83589 m 2.917052,-2.51793 -2.845262,2.84526 m 0.472927,-0.0738 2.203938,-2.20394 m -0.724142,1.12326 -0.416959,0.41696"
         inkscape:connector-curvature="0" />
    </g>
  </g>
</svg>
