<?xml version="1.0" encoding="UTF-8" standalone="no"?>
<!-- Created with Inkscape (http://www.inkscape.org/) -->

<svg
   xmlns:dc="http://purl.org/dc/elements/1.1/"
   xmlns:cc="http://creativecommons.org/ns#"
   xmlns:rdf="http://www.w3.org/1999/02/22-rdf-syntax-ns#"
   xmlns:svg="http://www.w3.org/2000/svg"
   xmlns="http://www.w3.org/2000/svg"
   xmlns:sodipodi="http://sodipodi.sourceforge.net/DTD/sodipodi-0.dtd"
   xmlns:inkscape="http://www.inkscape.org/namespaces/inkscape"
   width="75mm"
   height="75mm"
   viewBox="0 0 75 75"
   version="1.1"
   id="svg1586"
   inkscape:version="0.92.2 2405546, 2018-03-11"
   sodipodi:docname="75.svg">
  <sodipodi:namedview
     id="base"
     pagecolor="#ffffff"
     bordercolor="#666666"
     borderopacity="1.0"
     inkscape:pageopacity="0.0"
     inkscape:pageshadow="2"
     inkscape:zoom="0.82577733"
     inkscape:cx="121.03123"
     inkscape:cy="68.979071"
     inkscape:document-units="mm"
     inkscape:current-layer="layer1"
     showgrid="false"
     inkscape:window-width="1366"
     inkscape:window-height="703"
     inkscape:window-x="0"
     inkscape:window-y="0"
     inkscape:window-maximized="1" />
  <defs
     id="defs1580" />
  <metadata
     id="metadata1583">
    <rdf:RDF>
      <cc:Work
         rdf:about="">
        <dc:format>image/svg+xml</dc:format>
        <dc:type
           rdf:resource="http://purl.org/dc/dcmitype/StillImage" />
        <dc:title></dc:title>
      </cc:Work>
    </rdf:RDF>
  </metadata>
  <g
     transform="translate(0,-222)"
     id="layer1"
     inkscape:groupmode="layer"
     inkscape:label="Layer 1">
    <g
       id="g1617">
      <path
         id="path1575"
         d="m 36.251252,230.95201 1.43623,-1.18934 -1.18588,-1.4748 c -1.11427,-1.38574 -1.25778,-1.42446 -2.37626,-0.64102 -0.74306,0.52047 -1.19037,1.39428 -1.19037,2.32535 0,2.54857 1.04797,2.85819 3.31628,0.97981 z"
         style="fill:none;stroke:#0000ff;stroke-width:0.1;stroke-miterlimit:4;stroke-dasharray:none" />
      <path
         id="path1573"
         d="m 32.081232,231.37421 c -0.58539,-2.33247 0.18906,-3.94195 2.45242,-5.09667 2.60178,-1.32737 2.52463,-1.32916 2.47268,0.0574 -0.0235,0.62605 0.37699,1.40833 0.88991,1.73838 0.74279,0.47797 1.15997,0.37267 2.05006,-0.51744 l 1.11749,-1.11755 -1.42636,-1.69519 c -1.60704,-1.90994 -3.42813,-2.17997 -6.38093,-0.94617 -3.41452,1.42673 -4.72544,5.59048 -2.47016,7.84584 1.41479,1.41484 1.70242,1.35518 1.29489,-0.26859 z"
         style="fill:none;stroke:#0000ff;stroke-width:0.1;stroke-miterlimit:4;stroke-dasharray:none" />
      <path
         id="path1571"
         d="m 53.063083,233.06342 c 1.114938,-0.81529 0.826429,-2.32053 -0.5457,-2.84708 -1.244711,-0.47766 -1.968601,0.52272 -1.55905,2.15453 0.405678,1.61647 0.706078,1.71531 2.10475,0.69255 z"
         style="fill:none;stroke:#0000ff;stroke-width:0.1;stroke-miterlimit:4;stroke-dasharray:none" />
      <path
         id="path1569"
         d="m 54.590962,235.87735 c 1.719731,-0.8795 3.02808,-2.70231 3.03942,-4.23455 0.01651,-2.23844 -1.85968,-4.70817 -4.032531,-5.30815 -3.07022,-0.84776 -5.94387,0.67178 -4.518509,2.3893 0.579019,0.6977 0.804971,0.69883 1.85728,0.01 1.104961,-0.72404 1.307761,-0.67052 2.609971,0.68876 1.83261,1.91289 1.809909,3.55855 -0.0652,4.73169 -0.812451,0.50829 -1.561819,0.98125 -1.665269,1.05101 -0.349091,0.23543 0.515488,1.27268 1.060839,1.27268 0.297431,0 1.06875,-0.27003 1.714061,-0.60006 z"
         style="fill:none;stroke:#0000ff;stroke-width:0.1;stroke-miterlimit:4;stroke-dasharray:none" />
      <path
         id="path1567"
         d="m 20.992932,252.69777 c 0.34049,-1.02151 -1.228171,-0.74416 -2.263811,0.40026 -0.916299,1.01254 -0.900439,1.03096 0.553191,0.64219 0.82311,-0.22015 1.59289,-0.68925 1.71062,-1.04245 z"
         style="fill:none;stroke:#0000ff;stroke-width:0.1;stroke-miterlimit:4;stroke-dasharray:none" />
      <path
         id="path1565"
         d="m 43.409591,240.23766 c -0.182589,-0.29545 -0.559438,-0.53719 -0.837449,-0.53719 -0.278,0 -0.505449,0.24174 -0.505449,0.53719 0,0.29545 0.376838,0.53718 0.837438,0.53718 0.4606,0 0.688052,-0.24173 0.50546,-0.53718 z"
         style="fill:none;stroke:#0000ff;stroke-width:0.1;stroke-miterlimit:4;stroke-dasharray:none" />
      <path
         id="path1563"
         d="m 38.806762,241.27747 c -1.7861,-1.66852 -1.91954,-2.23343 -0.75579,-3.19931 0.4503,-0.37372 0.70053,-0.7977 0.55606,-0.94216 -0.14447,-0.14447 -0.021,-0.71435 0.2745,-1.2664 0.59091,-1.10416 2.392239,-1.41089 1.951261,-0.33226 -0.150982,0.36931 -0.439682,1.08212 -0.641541,1.58402 -0.28529,0.70931 0.0322,1.01707 1.42566,1.38189 1.635101,0.42809 1.878449,0.32976 2.768431,-1.11856 0.74826,-1.21771 1.123119,-1.44051 1.60792,-0.9557 0.484788,0.48481 0.413308,1.01355 -0.30661,2.26799 -0.516331,0.89969 -0.819541,1.82873 -0.673811,2.06455 0.41353,0.66912 -0.891699,1.46556 -2.84883,1.73833 -1.406729,0.19606 -2.114849,-0.0618 -3.35725,-1.22239 z"
         style="fill:none;stroke:#0000ff;stroke-width:0.1;stroke-miterlimit:4;stroke-dasharray:none" />
      <path
         id="path1561"
         d="m 42.603853,248.99032 c -0.443151,-0.162 -1.331722,-0.77257 -1.974591,-1.35681 -0.64287,-0.58425 -1.43905,-0.89527 -1.7693,-0.69116 -0.33025,0.20411 -0.9493,0.0815 -1.37569,-0.2723 -0.42637,-0.35387 -1.33204,-0.50365 -2.01259,-0.33283 -1.85172,0.46477 -4.45826,-1.3665 -5.21687,-3.66518 -0.52295,-1.58461 -0.78274,-1.82962 -1.39828,-1.31875 -0.91942,0.76308 -1.01526,-0.10431 -0.1114,-1.0082 0.77937,-0.7794 3.11553,-0.85997 3.11553,-0.10743 0,0.29545 -0.24172,0.53718 -0.53716,0.53718 -1.0216,0 -0.53216,2.20254 0.78132,3.51607 1.07841,1.07845 1.85337,1.31853 4.25606,1.31853 2.30551,0 3.26429,0.27399 4.45598,1.2734 2.25805,1.89371 4.545791,2.23572 6.13029,0.91648 0.71328,-0.59388 0.99472,-1.08782 0.62543,-1.09765 -0.3693,-0.01 -0.671449,-0.26811 -0.671449,-0.57395 0,-0.37702 0.34593,-0.37093 1.074309,0.0189 0.673629,0.36053 1.071261,1.11891 1.066099,2.03332 -0.006,1.01954 -0.14682,1.23962 -0.46885,0.7314 -0.353658,-0.55813 -0.71773,-0.58932 -1.567928,-0.13429 -1.160691,0.6212 -3.036391,0.7121 -4.40091,0.21327 z"
         style="fill:none;stroke:#0000ff;stroke-width:0.1;stroke-miterlimit:4;stroke-dasharray:none" />
      <path
         id="path1559"
         d="m 36.516042,249.54875 c -0.66184,-0.66186 -0.38247,-1.40497 0.31334,-0.83348 0.3693,0.30331 1.27576,0.66259 2.01435,0.79839 1.189929,0.21878 1.15424,0.25523 -0.31334,0.32005 -0.91093,0.0403 -1.81739,-0.088 -2.01435,-0.28496 z"
         style="fill:none;stroke:#0000ff;stroke-width:0.1;stroke-miterlimit:4;stroke-dasharray:none" />
      <path
         id="path1557"
         d="m 44.905021,252.36406 c 3.486711,-1.72286 4.533652,-2.00931 6.419541,-1.75635 1.23935,0.16624 2.546249,0.70281 2.90422,1.19238 0.97097,1.32791 2.85355,0.51393 3.236179,-1.39925 0.172511,-0.86258 0.64602,-1.56832 1.052251,-1.56832 1.27649,0 0.81643,-1.28615 -1.00234,-2.80213 l -1.75061,-1.45918 1.750671,-0.67486 c 0.962859,-0.37118 1.669508,-0.9183 1.570329,-1.21586 -0.0992,-0.29754 -1.431571,-1.02933 -2.960881,-1.6262 -3.258809,-1.27189 -4.186489,-2.43205 -6.000289,-7.50413 -1.038329,-2.90353 -1.75686,-4.03303 -3.168111,-4.98002 -2.92817,-1.9649 -4.53322,-1.63715 -8.190379,1.6725 -1.76081,1.5935 -3.76028,3.0041 -4.44326,3.13467 -0.683,0.13057 -2.94651,0.0338 -5.03004,-0.21507 -4.18347,-0.49966 -7.25674,0.15074 -6.11367,1.29385 0.89797,0.89801 0.77493,1.36403 -0.46401,1.75727 -0.59873,0.19004 -1.48947,0.95732 -1.9794,1.70507 -0.83271,1.27092 -0.83063,1.3932 0.0318,1.87587 0.71594,0.40067 0.84448,0.93265 0.5739,2.37503 -0.28176,1.50198 -0.0649,2.26823 1.12989,3.99236 0.8132,1.17351 1.65958,2.13364 1.88084,2.13364 0.22125,0 1.36693,0.99389 2.54592,2.20864 4.5723,4.71094 10.91257,5.36587 18.00746,1.86009 z"
         style="fill:none;stroke:#0000ff;stroke-width:0.1;stroke-miterlimit:4;stroke-dasharray:none" />
      <path
         id="path1555"
         d="m 19.640272,256.92103 c 0.81245,-0.40726 1.47718,-1.06426 1.47718,-1.46001 0,-1.1549 -2.01132,-0.8286 -2.92391,0.47434 -0.88479,1.26327 -1.107411,2.25086 -0.433331,1.92242 0.221571,-0.10796 1.067601,-0.52951 1.880061,-0.93675 z"
         style="fill:none;stroke:#0000ff;stroke-width:0.1;stroke-miterlimit:4;stroke-dasharray:none" />
      <path
         id="path1553"
         d="m 20.779612,262.51753 c 0.22017,-0.57379 0.71945,-0.71726 1.66775,-0.47925 0.74442,0.18685 1.7604,0.18357 2.25773,-0.008 0.77179,-0.29617 0.6655,-0.56506 -0.72567,-1.83574 -0.89644,-0.8188 -1.7467,-1.83694 -1.88946,-2.26254 -0.40551,-1.20895 -2.90041,0.35094 -3.71788,2.32454 -0.5859,1.41453 -0.5448,1.70154 0.33583,2.34549 1.2862,0.94054 1.68438,0.92415 2.0717,-0.0852 z"
         style="fill:none;stroke:#0000ff;stroke-width:0.1;stroke-miterlimit:4;stroke-dasharray:none" />
      <path
         id="path1551"
         d="m 51.601281,264.60945 c 1.604331,-0.42996 1.660981,-2.66852 0.0802,-3.17025 -0.806061,-0.25584 -0.963131,-0.52341 -0.549849,-0.93671 0.413279,-0.41329 0.886158,-0.30015 1.655479,0.39609 0.88174,0.79799 1.224801,0.85193 1.89275,0.29757 1.1913,-0.98873 0.996871,-2.96632 -0.3928,-3.9954 l -1.208609,-0.895 1.47719,0.30253 c 0.812458,0.1664 1.47719,0.10999 1.47719,-0.12535 0,-0.8306 -1.681591,-2.81581 -2.385021,-2.81581 -0.391951,0 -0.839049,-0.48346 -0.993579,-1.07436 -0.426241,-1.63001 -2.775871,-1.35802 -7.37974,0.85425 -5.117361,2.45901 -8.582891,2.86316 -13.023051,1.51874 -2.31041,-0.69956 -3.94079,-1.62568 -5.35942,-3.04436 l -2.03886,-2.03894 -1.3307,1.33074 c -2.56895,2.56903 -1.3011,6.69859 2.8804,9.38195 3.43733,2.2058 7.6303,3.81849 9.89512,3.80582 0.957,-0.006 3.04766,-0.73054 4.645909,-1.61154 3.01157,-1.66004 4.882912,-2.04232 4.882912,-0.99748 0,0.38499 0.584909,0.48734 1.611479,0.28202 1.56014,-0.31203 2.195971,0.30055 1.04824,1.00991 -0.38504,0.23797 -0.364239,0.58792 0.0658,1.10606 0.69015,0.83161 1.232421,0.90619 3.048982,0.41936 z"
         style="fill:none;stroke:#0000ff;stroke-width:0.1;stroke-miterlimit:4;stroke-dasharray:none" />
      <path
         id="path1549"
         d="m 45.222503,264.61245 c 2.010018,-0.40202 2.11379,-0.86135 0.401579,-1.77772 -1.080871,-0.57849 -1.498399,-0.53845 -2.71785,0.26059 -1.08117,0.70844 -1.265211,1.05545 -0.737299,1.39024 0.856549,0.54325 0.952029,0.54722 3.05357,0.12689 z"
         style="fill:none;stroke:#0000ff;stroke-width:0.1;stroke-miterlimit:4;stroke-dasharray:none" />
      <path
         id="path1547"
         d="m 17.447272,273.98333 c -0.0983,-1.37163 0.10263,-3.01943 0.44639,-3.66179 0.73409,-1.3717 0.50245,-1.77187 -0.747891,-1.29206 -2.006599,0.77004 -3.256009,5.6656 -1.813959,7.10771 1.39763,1.39767 2.30378,0.47506 2.11546,-2.15386 z"
         style="fill:none;stroke:#0000ff;stroke-width:0.1;stroke-miterlimit:4;stroke-dasharray:none" />
      <path
         id="path1545"
         d="m 27.843902,276.26492 c -1.63022,-4.9083 -7.28305,-8.38259 -8.85619,-5.44307 -0.90402,1.68925 -0.64949,4.08167 0.54971,5.16697 1.32151,1.19599 2.69111,0.59952 3.26577,-1.42224 0.34572,-1.21633 0.38754,-1.22869 0.71303,-0.21071 0.19019,0.59477 1.05781,1.49007 1.92807,1.98954 0.87026,0.49948 1.87522,1.55108 2.23325,2.33689 1.02369,2.24683 1.14243,0.52139 0.16636,-2.41737 z"
         style="fill:none;stroke:#0000ff;stroke-width:0.1;stroke-miterlimit:4;stroke-dasharray:none" />
      <path
         id="path1543"
         d="m 31.323502,284.53066 c 0,-0.38434 0.63761,-1.45659 1.41693,-2.38278 1.90191,-2.26038 2.81091,-5.10408 2.48015,-7.75892 -0.1885,-1.51296 -0.0994,-2.02298 0.28857,-1.65168 0.57462,0.54994 0.87393,2.66729 0.72978,5.16253 -0.0445,0.77125 -0.70051,2.31522 -1.45768,3.43102 -1.80565,2.66084 -1.25037,3.13485 3.67219,3.13485 3.090241,0 4.50278,-0.27967 6.53251,-1.29341 5.992331,-2.99282 9.39382,-8.40524 9.849551,-15.67248 0.18107,-2.88754 0.0754,-4.16313 -0.34512,-4.16313 -0.333391,0 -0.606181,0.36858 -0.606181,0.81906 0,1.05792 -2.565609,2.03088 -4.295849,1.62912 -0.739381,-0.17168 -4.849292,-0.36973 -9.133142,-0.4401 -7.165899,-0.11773 -8.032549,-0.24222 -10.836459,-1.5567 -3.05099,-1.43031 -4.19137,-1.46209 -3.04848,-0.085 0.95982,1.15656 0.0421,1.52317 -1.13848,0.45477 -0.99162,-0.89744 -1.15467,-0.9033 -2.4016,-0.0862 -2.54645,1.66856 -3.15585,4.63682 -0.95196,4.63682 1.71038,0 5.25706,3.5396 6.57019,6.55707 0.91272,2.09735 1.24988,3.92245 1.28481,6.95488 0.0371,3.22098 0.19277,3.99195 0.71881,3.56017 0.3693,-0.30312 0.67146,-0.86558 0.67146,-1.2499 z"
         style="fill:none;stroke:#0000ff;stroke-width:0.1;stroke-miterlimit:4;stroke-dasharray:none" />
      <path
         id="path1541"
         d="m 26.906692,288.285 c 0.96167,-0.6736 1.19385,-1.35599 1.19385,-3.50891 0,-5.27613 -2.74487,-8.78336 -5.8632,-7.49166 -1.07718,0.4462 -1.87075,0.47947 -2.56562,0.10758 -0.75148,-0.40219 -1.32594,-0.29714 -2.27027,0.4152 -1.130321,0.85263 -1.23756,1.27517 -1.01251,3.98925 0.18503,2.23126 0.59576,3.4085 1.55009,4.44291 2.5094,2.71995 6.65492,3.6656 8.96766,2.04563 z"
         style="fill:none;stroke:#0000ff;stroke-width:0.1;stroke-miterlimit:4;stroke-dasharray:none" />
      <path
         id="path1539"
         d="m 50.768122,295.23263 c 0.519491,-0.14654 0.78718,-0.58436 0.621429,-1.01632 -0.236138,-0.61537 0.213511,-0.69911 2.377721,-0.44278 3.362809,0.39829 4.942051,-0.86702 4.968451,-3.98083 0.01601,-1.88775 0.0667,-1.94885 0.805749,-0.97168 0.759079,1.00363 0.788649,1.00493 0.788649,0.0346 0,-2.69063 -3.952118,-4.41302 -6.208958,-2.70597 -1.833431,1.38679 -1.900661,0.88543 -0.195782,-1.46016 0.91267,-1.25566 2.001941,-3.09816 2.420591,-4.09445 0.967571,-2.30254 0.984269,-7.07876 0.0294,-8.38476 -0.672881,-0.92026 -0.80296,-0.78786 -1.614421,1.64316 -1.233271,3.69469 -2.440059,5.33887 -5.7368,7.81609 -3.050439,2.29211 -5.91622,3.6914 -7.56014,3.6914 -0.702519,0 -1.008719,0.38567 -1.008719,1.2705 0,0.69878 -0.450201,1.847 -1.000431,2.5516 -2.34508,3.003 -1.59747,5.283 2.074751,6.32735 1.73106,0.49231 7.07857,0.33151 9.238588,-0.2778 z"
         style="fill:none;stroke:#0000ff;stroke-width:0.1;stroke-miterlimit:4;stroke-dasharray:none" />
      <path
         id="path1148"
         d="m 42.335272,296.83188 c -2.61826,-0.61028 -4.13482,-1.52308 -4.85977,-2.92503 -1.07117,-2.07148 -0.99383,-2.70966 0.61585,-5.08173 1.32206,-1.94824 1.34515,-2.09494 0.43449,-2.76085 -0.52897,-0.38681 -1.76159,-0.74358 -2.73915,-0.79282 -0.97757,-0.0492 -2.12334,-0.10967 -2.54617,-0.13429 -0.42283,-0.0246 -1.32928,0.77956 -2.01435,1.78708 -1.54073,2.26593 -4.58646,3.43252 -8.13438,3.11565 -4.77324,-0.42631 -7.45207,-3.46459 -7.79436,-8.84024 -0.12651,-1.98693 -0.59172,-4.16464 -1.03379,-4.83935 -1.26452,-1.92998 -0.59979,-5.95962 1.24487,-7.54638 0.88704,-0.76303 1.9432,-1.18434 2.63662,-1.05178 0.92175,0.17621 1.2704,-0.14179 1.71584,-1.56499 0.44374,-1.41778 0.40939,-1.78613 -0.16656,-1.78613 -1.21385,0 -2.88767,-2.07583 -2.93012,-3.63389 -0.15287,-5.61008 0.0969,-7.3527 1.22627,-8.55488 0.64104,-0.68238 1.76909,-1.24069 2.50678,-1.24069 0.7377,0 1.78017,-0.39721 2.3166,-0.88269 0.93423,-0.84551 0.8964,-0.97008 -0.89774,-2.95604 -1.8367,-2.03308 -2.09114,-2.72613 -1.89408,-5.15902 0.0538,-0.66475 -0.16112,-1.20864 -0.47769,-1.20864 -0.99967,0 -0.623881,-2.47964 0.61433,-4.05384 0.65448,-0.83206 1.19835,-1.98749 1.20862,-2.56763 0.0235,-1.32779 3.6076,-2.69368 5.94629,-2.26609 l 1.63037,0.29808 -0.0189,-3.2687 c -0.0174,-3.007 0.11815,-3.39123 1.6928,-4.79928 2.00254,-1.79064 5.95709,-2.6157 8.02374,-1.67404 0.72937,0.33233 1.737939,1.32799 2.241269,2.21256 0.739971,1.30046 1.27503,1.61055 2.79521,1.61994 1.03402,0.007 2.218081,0.22565 2.631209,0.48725 0.50156,0.31757 1.112912,0.13857 1.839871,-0.53873 1.55998,-1.45337 4.144491,-1.79497 6.412081,-0.84747 2.381478,0.99508 3.674928,2.89524 4.0131,5.89551 0.21581,1.91478 0.025,2.57841 -1.13959,3.96245 -0.76936,0.91436 -1.99531,1.81218 -2.724361,1.99517 -1.95181,0.48988 -1.16908,1.72174 1.772589,2.78974 4.096351,1.4872 5.972201,4.51533 2.797141,4.51533 h -1.587059 l 1.31848,1.31852 c 1.47066,1.47071 1.748618,3.77326 0.512749,4.24752 -0.443161,0.17006 -0.805741,0.67381 -0.805741,1.11944 0,0.44563 -0.59105,1.19753 -1.31346,1.67088 -1.051359,0.68891 -1.222899,1.0988 -0.859668,2.05421 0.509338,1.33969 0.112069,6.12443 -0.54205,6.52871 -0.75321,0.46552 0.10168,8.49885 1.01599,9.54717 1.411179,1.61801 1.490929,7.26308 0.145579,10.30457 -1.386639,3.13483 -1.39314,2.96019 0.110209,2.96019 0.683332,0 1.89193,0.67799 2.685802,1.50664 1.905198,1.98867 1.902129,4.31189 -0.009,6.58287 -1.33881,1.59114 -4.413819,3.35171 -5.387089,3.08433 -0.226851,-0.0623 -1.25849,0.15928 -2.292522,0.49246 -2.17129,0.69961 -8.358899,1.24689 -9.937459,0.87896 z"
         style="fill:none;stroke:#ff0000;stroke-width:0.1;stroke-miterlimit:4;stroke-dasharray:none" />
      <path
         id="path1523"
         style="fill:none;stroke:#0000ff;stroke-width:0.1"
         d="m 30.515502,224.42939 -0.873083,0.87308 m -0.17331,0.57243 2.151845,-2.15184 m 0.880423,-0.4813 -3.120625,3.12062 m -7.710599,7.7106 1.064283,-1.06428 m 10.5935,-10.19438 -4.10799,4.10799 m -7.637435,7.63744 1.9068,-1.9068 m 10.281485,-9.88237 -0.93968,0.93968 m -3.592011,3.59201 0.860206,-0.8602 m -5.865952,5.86595 -2.918163,2.91816 m 12.092307,-11.69318 1.025099,-1.0251 m -4.80207,4.80207 -0.399416,0.39942 m -5.273235,5.27323 0.670799,-0.6708 m -1.922542,1.92254 -2.31471,2.31471 m 13.798769,-13.39964 0.642146,-0.64215 m -5.301414,5.30142 -0.307802,0.3078 m -4.819784,4.81978 0.818268,-0.81827 m -2.358292,2.3583 -2.778991,2.77899 m 14.650551,-14.25143 0.567585,-0.56759 m -5.866685,5.86669 -0.220641,0.22064 m -4.28348,4.28348 0.662728,-0.66273 m -2.570153,2.57015 -3.335847,3.33585 m 15.585512,-15.18639 0.495599,-0.4956 m -6.347456,6.34746 -0.214594,0.21459 m -3.833523,3.83353 0.648585,-0.64859 m -2.820466,2.82047 -3.755033,3.75503 m 16.272028,-15.87291 0.461521,-0.46152 m -6.754352,6.75435 -0.216466,0.21647 m -3.412807,3.41281 0.644405,-0.64441 m -3.061485,3.06149 -1.498103,1.4981 m -2.579261,2.57926 1.171209,-1.17121 m 16.145659,-15.74653 -0.446753,0.44675 m -6.960569,6.96057 0.235791,-0.23579 m -2.639052,2.63905 -0.592411,0.59241 m -2.94204,2.94204 0.226891,-0.22689 m -3.439495,3.43949 -0.847263,0.84727 m 17.332682,-16.93356 0.42712,-0.42712 m -7.484904,7.4849 -0.275025,0.27503 m -2.624557,2.62455 0.594594,-0.59459 m -7.25575,7.25575 -0.646984,0.64698 m 17.645402,-17.24628 0.404528,-0.40452 m -7.728337,7.72833 -0.386601,0.38661 m -2.20791,2.2079 0.513083,-0.51308 m -7.458237,7.45824 -0.688713,0.68871 m 17.88126,-17.48214 0.438417,-0.43841 m -7.988551,7.98855 -0.487055,0.48705 m -1.820921,1.82092 0.46123,-0.46123 m -7.55467,7.55467 -0.676489,0.67649 m 17.946246,-17.54712 0.423124,-0.42312 m -4.422639,4.42263 -0.68756,0.68756 m -3.666026,3.66603 0.587508,-0.58751 m -1.612064,1.61207 -0.409377,0.40937 m -7.881158,7.88116 0.639674,-0.63967 m 17.754555,-17.35544 -0.418211,0.41822 m -5.347838,5.34783 1.850281,-1.85028 m -4.44231,4.44231 -0.718766,0.71877 m -1.069176,1.06918 0.379757,-0.37976 m -7.760545,7.76054 -0.692877,0.69288 m 18.063186,-17.66406 0.444642,-0.44465 m -3.64646,3.64646 -2.653936,2.65394 m -3.767329,3.76733 1.574611,-1.57461 m -9.108465,9.10846 -0.776755,0.77676 m 18.201465,-17.80234 0.423889,-0.42389 m -2.944075,2.94407 -1.58712,1.58712 m -2.152103,2.1521 0.802598,-0.80259 m -2.691656,2.69165 -1.375951,1.37595 m -8.591522,8.59153 0.823243,-0.82325 m 17.960694,-17.56157 -0.423338,0.42334 m -3.41411,3.41411 1.360188,-1.36019 m -3.893067,3.89307 -0.521414,0.52141 m -2.934236,2.93424 1.193923,-1.19392 m -9.282457,9.28245 -0.857394,0.8574 m 18.57593,-18.17681 0.409453,-0.40945 m -2.512823,2.51282 -1.226557,1.22656 m -3.375346,3.37534 0.48521,-0.48521 m -2.025258,2.02526 -1.016273,1.01627 m -9.324856,9.32486 0.892056,-0.89206 m 18.317324,-17.9182 -0.395568,0.39557 m -3.318964,3.31896 0.932306,-0.9323 m -4.05544,4.05544 -0.427849,0.42785 m -2.250193,2.25019 0.855932,-0.85593 m -9.743934,9.74393 -0.81776,0.81776 m 19.035443,-18.63632 0.391279,-0.39128 m -2.915523,2.91553 -0.771262,0.77126 m -3.721711,3.72171 0.387504,-0.38751 m -1.635562,1.63557 -0.69559,0.69559 m -10.086668,10.08666 0.767259,-0.76725 m 18.860405,-18.46129 -0.384573,0.38458 m -3.306461,3.30646 0.582299,-0.5823 m -4.066405,4.0664 -0.360026,0.36003 m -1.637015,1.63701 0.535249,-0.53525 m -10.267602,10.26761 -0.742275,0.74227 m 19.457794,-19.05867 0.377866,-0.37787 m -3.17957,3.17957 -0.515711,0.51571 m -3.967271,3.96728 0.382506,-0.38251 m -1.336901,1.3369 -0.375269,0.37527 m -10.800875,10.80087 0.651026,-0.65102 m 19.31992,-18.9208 -0.364196,0.3642 m -3.324335,3.32433 0.441122,-0.44112 m -4.13497,4.13497 -0.396563,0.39656 m -1.022314,1.02232 0.249339,-0.24934 m -10.722732,10.72273 -0.64262,0.64262 m 19.735448,-19.33633 0.34398,-0.34397 m -3.240896,3.24089 -0.426822,0.42682 m -4.926881,4.92688 1.212099,-1.21209 m -12.00671,12.0067 -0.631558,0.63156 m 19.859163,-19.46004 0.323765,-0.32376 m -3.236108,3.23611 -0.415879,0.41587 m -4.735956,4.73596 1.001362,-1.00136 m -12.11719,12.11719 -0.541794,0.54179 m 19.904175,-19.50505 0.302107,-0.30211 m -3.186747,3.18675 -0.448066,0.44807 m -4.591808,4.5918 0.924075,-0.92407 m -12.227564,12.22756 -0.560557,0.56056 m 19.970935,-19.57181 0.279656,-0.27966 m -3.125795,3.1258 -0.49105,0.49105 m -4.316596,4.31659 0.737746,-0.73774 m -12.375485,12.37548 -0.521441,0.52144 m 19.99534,-19.59621 0.257205,-0.25721 m -3.016713,3.01671 -0.582166,0.58217 m -4.10241,4.10241 0.701344,-0.70135 m -12.612304,12.61231 -0.484593,0.48459 m 20.022012,-19.62289 0.24406,-0.24406 m -2.922932,2.92293 -0.667285,0.66729 m -3.926713,3.92671 0.935803,-0.9358 m -13.05774,13.05774 -0.457576,0.45758 m 20.034757,-19.63564 0.275541,-0.27554 m -2.736742,2.73674 -0.889439,0.88944 m -3.613556,3.61356 1.8906,-1.8906 m -14.349054,14.34905 -0.430947,0.43095 m 13.573144,-13.17402 6.769849,-6.76985 m -19.757514,19.75751 -0.404318,0.40432 m 14.501141,-14.10202 5.889523,-5.88952 m -19.831815,19.83181 -0.377689,0.37769 m 15.797848,-15.39872 4.707008,-4.70701 m -19.972635,19.97263 -0.35106,0.35106 m 17.050295,-16.65117 3.586764,-3.58676 m -20.114503,20.1145 -0.341397,0.3414 m 19.245692,-18.84657 1.52295,-1.52295 m -13.8662,13.8662 -0.457557,0.45755 m -6.261136,6.26114 0.331455,-0.33145 m 20.624308,-20.22519 -0.893677,0.89368 m -13.928711,13.92871 1.158625,-1.15863 m -6.786738,6.78674 -0.319453,0.31946 m 20.483739,-20.08462 0.658736,-0.65874 m -13.554898,13.5549 -1.25977,1.25977 m -6.141999,6.142 0.307451,-0.30745 m 21.013486,-20.61437 -0.613254,0.61326 m -13.696551,13.69655 0.897069,-0.89707 m -7.426943,7.42694 -0.295449,0.29545 m -4.871229,4.87123 0.52552,-0.52552 m 25.845107,-25.44598 -0.47833,0.47833 m -13.982312,13.98231 1.090398,-1.0904 m -7.659899,7.6599 -0.283447,0.28345 m -5.396278,5.39627 1.713164,-1.71316 m 25.360974,-24.96185 -0.444341,0.44434 m -14.227019,14.22702 1.261848,-1.26185 m -7.80905,7.80905 -0.271739,0.27174 m -5.806411,5.80641 2.595892,-2.59589 m 25.08474,-24.68562 -0.501893,0.50189 m -14.394283,14.39429 1.381841,-1.38184 m -7.891417,7.89141 -0.316977,0.31698 m -6.054578,6.05458 3.172773,-3.17277 m 24.925552,-24.52643 -0.48764,0.48764 m -14.62123,14.62123 0.227021,-0.22702 m -6.648191,6.64819 -0.362215,0.36221 m -3.177379,3.17738 0.641931,-0.64193 m -3.002231,3.00223 -0.757186,0.75719 m 28.006866,-27.60775 0.515039,-0.51504 m -15.151259,15.15126 -0.184072,0.18407 m -6.72118,6.72118 0.420639,-0.42063 m -2.506183,2.50618 -0.837835,0.83783 m -3.571341,3.57134 1.148383,-1.14838 m 27.683601,-27.28448 -0.515254,0.51526 m -14.992506,14.9925 0.150531,-0.15053 m -6.307503,6.30751 -0.778713,0.77871 m -2.523682,2.52368 1.182272,-1.18227 m -3.452003,3.452 -1.624452,1.62445 m 28.626595,-28.22747 0.517561,-0.51756 m -15.546186,15.54619 -0.128782,0.12878 m -9.375245,9.37524 3.354906,-3.3549 m -5.306614,5.30661 -2.171562,2.17156 m 28.93646,-28.53733 0.513115,-0.51312 m -15.707272,15.70727 -0.122308,0.12231 m -9.506039,9.50604 3.585174,-3.58517 m -4.56697,4.56697 -3.161485,3.16148 m 29.217085,-28.81796 0.709482,-0.70948 m -16.027831,16.02783 -0.127935,0.12793 m -11.630151,11.63015 5.808759,-5.80876 m -7.025138,7.02514 -0.967044,0.96705 m 29.508945,-29.10983 1.487359,-1.48736 m -16.91764,16.91764 -0.119511,0.11952 m -10.946708,10.9467 5.189424,-5.18942 m -8.074129,8.07413 -0.124192,0.12419 m 29.754484,-29.35536 2.544446,-2.54445 m -9.628922,9.62892 -0.515058,0.51506 m -8.040711,8.04071 0.116393,-0.11639 m -5.828232,5.82823 -0.283969,0.28397 m -4.712389,4.71239 2.070445,-2.07044 m -5.364454,5.36445 -0.108484,0.10848 m 30.000022,-29.6009 2.725535,-2.72553 m -9.615883,9.61588 -1.307241,1.30724 m -7.533109,7.53311 0.113275,-0.11327 m -5.779669,5.77967 -0.288491,0.28849 m -4.591889,4.59189 1.30227,-1.30227 m -4.824467,4.82446 -0.196804,0.19681 m 30.227903,-29.82878 3.111019,-3.11102 m -9.833593,9.83359 -1.709669,1.70967 m -7.352506,7.35251 0.116038,-0.11604 m -5.755732,5.75573 -0.293013,0.29301 m -4.522776,4.52278 0.979798,-0.9798 m -4.396898,4.3969 -0.567023,0.56702 m 32.768578,-32.36945 1.127724,-1.12773 m -2.460869,2.46087 -0.991133,0.99113 m -8.707385,8.70739 1.776725,-1.77673 m -8.773821,8.77383 -0.110372,0.11037 m -5.92299,5.92299 0.297534,-0.29754 m -4.075148,4.07515 -0.741511,0.74151 m -4.183783,4.18379 1.058031,-1.05804 m 33.240181,-32.84105 -0.769651,0.76965 m -2.867865,2.86786 0.757233,-0.75723 m -8.21478,8.21478 -2.651154,2.65115 m -5.736257,5.73626 0.112791,-0.11279 m -5.724008,5.72401 -0.302056,0.30205 m -4.598166,4.59817 0.585917,-0.58592 m -3.036716,3.03672 -1.849951,1.84995 m 33.975795,-33.57667 0.768915,-0.76892 m -3.226568,3.22657 -0.64105,0.64105 m -10.326406,10.3264 2.377233,-2.37723 m -7.786632,7.78663 -0.12514,0.12514 m -5.917674,5.91768 0.306578,-0.30658 m -4.466102,4.4661 -4.935401,4.9354 m 34.449743,-34.05062 0.66502,-0.66502 m -3.460082,3.46008 -0.566999,0.567 m -10.433748,10.43375 2.28933,-2.28933 m -7.589218,7.58922 -0.12219,0.12219 m -5.937373,5.93737 0.311099,-0.3111 m -4.608749,4.60875 -4.993285,4.99329 m 34.820087,-34.42097 0.66473,-0.66473 m -3.693596,3.6936 -0.530961,0.53096 m -10.445651,10.44565 2.034665,-2.03466 m -7.282468,7.28246 -0.119241,0.11925 m -5.957073,5.95707 0.31589,-0.31589 m -4.751665,4.75166 -5.063851,5.06385 m 35.222935,-34.82381 0.631808,-0.63181 m -3.863486,3.86349 -0.545737,0.54574 m -10.45151,10.45151 1.996797,-1.9968 m -7.175367,7.17537 -0.126208,0.1262 m -5.990049,5.99005 0.320789,-0.32079 m -4.894689,4.89469 -5.074336,5.07434 m 35.552481,-35.15336 0.583557,-0.58356 m -3.997775,3.99778 -0.567565,0.56756 m -10.431178,10.43118 2.019327,-2.01933 m -7.123601,7.12361 -0.146379,0.14638 m -6.041073,6.04107 0.325688,-0.32569 m -4.980131,4.98013 -1.157408,1.15741 m -3.978182,3.97818 0.953126,-0.95312 m 35.465053,-35.06594 -0.596688,0.59669 m -4.132428,4.13243 0.642334,-0.64233 m -8.979811,8.97981 -2.07337,2.07337 m -5.19653,5.19653 0.166551,-0.16655 m -5.92806,5.92806 -0.327615,0.32761 m -5.50558,5.50558 0.768932,-0.76893 m -4.649914,4.64991 -0.502817,0.50282 m 36.054777,-35.65565 0.557569,-0.55757 m -4.139581,4.13958 -0.73039,0.73039 m -10.370885,10.37088 2.146995,-2.14699 m -7.099857,7.09986 -0.167716,0.16771 m -6.149044,6.14905 0.325764,-0.32577 m -5.154576,5.15458 -0.56525,0.56525 m -4.598323,4.59832 0.368197,-0.3682 m 36.432016,-36.03289 -0.518449,0.51845 m -4.511615,4.51161 1.621431,-1.62143 m -9.679631,9.67963 -2.253485,2.25349 m -5.028246,5.02825 0.216409,-0.21641 m -6.107592,6.10759 -0.334162,0.33416 m -5.408103,5.4081 0.487127,-0.48712 m -4.859531,4.85953 -0.286755,0.28675 m 36.437666,-36.03854 0.522393,-0.52239 m -2.98144,2.98143 -2.208825,2.20883 m -10.251386,10.25139 2.358877,-2.35888 m -7.030788,7.03079 -0.265102,0.2651 m -6.301644,6.30164 0.342559,-0.34256 m -5.346863,5.34687 -0.445343,0.44534 m -4.69287,4.69287 0.272271,-0.27227 m 36.817734,-36.41861 -0.501759,0.50176 m -4.818429,4.81843 2.578028,-2.57803 m -10.293585,10.29358 -2.45526,2.45526 m -4.807927,4.80793 0.24251,-0.24251 m -6.32762,6.32762 -0.350957,0.35096 m -5.520698,5.52069 0.468557,-0.46855 m -4.863698,4.8637 -0.274006,0.274 m 36.710901,-36.31178 0.481124,-0.48112 m -2.758926,2.75892 -2.691187,2.69119 m -10.090247,10.09025 2.567265,-2.56726 m -6.970075,6.97007 -0.279335,0.27933 m -6.567186,6.56719 0.361765,-0.36176 m -5.463472,5.46347 -0.479312,0.47931 m -4.656153,4.65615 0.322577,-0.32257 m 36.972344,-36.57323 -0.499216,0.49922 m -5.086497,5.0865 2.809145,-2.80915 m -10.134753,10.13475 -2.679271,2.67928 m -4.455851,4.45585 0.220617,-0.22062 m -6.631835,6.63184 -0.356986,0.35698 m -5.651176,5.65118 0.469289,-0.46929 m -4.762078,4.76208 -0.352969,0.35296 m 36.860079,-36.46095 0.489336,-0.48934 m -2.794236,2.79424 -0.858201,0.8582 m -2.058536,2.05853 0.90288,-0.90288 m -7.994193,7.9942 -2.795834,2.79583 m -4.26201,4.26201 0.181871,-0.18187 m -6.778913,6.77891 -0.355038,0.35504 m -5.719199,5.7192 0.459963,-0.45996 m -4.688362,4.68836 -0.39819,0.39819 m 36.916376,-36.51725 0.479457,-0.47946 m -2.830129,2.83013 -0.653227,0.65323 m -2.352878,2.35287 0.73008,-0.73008 m -5.039299,5.0393 -2.888876,2.88888 m -2.542025,2.54202 1.581173,-1.58117 m -5.535029,5.53503 -0.08406,0.0841 m -7.195509,7.1955 0.35309,-0.35309 m -5.689674,5.68968 -0.427414,0.42741 m -4.617076,4.61708 0.435511,-0.43551 m 36.99343,-36.59431 -0.493973,0.49397 m -2.923267,2.92327 0.550961,-0.55096 m -2.526587,2.52659 -0.568887,0.56888 m -7.055107,7.05511 2.863895,-2.8639 m -3.929784,3.92979 -1.472097,1.4721 m -3.945252,3.94525 0.115967,-0.11597 m -7.071564,7.07156 -0.351902,0.35191 m -5.808797,5.80879 0.424116,-0.42411 m -4.558846,4.55884 -0.456579,0.45658 m 36.929116,-36.52999 0.486297,-0.4863 m -2.872047,2.87205 -0.478223,0.47822 m -2.706619,2.70662 0.529355,-0.52935 m -4.672425,4.67242 -2.749735,2.74974 m -2.509923,2.50992 1.373309,-1.37331 m -5.121362,5.12136 -0.161779,0.16178 m -7.405586,7.40559 0.368564,-0.36857 m -5.795923,5.79593 -0.426239,0.42624 m -4.547792,4.54779 0.475885,-0.47589 m 36.908251,-36.50913 -0.478622,0.47863 m -2.816497,2.81649 0.402311,-0.40231 m -2.767187,2.76719 -0.492032,0.49203 m -6.805344,6.80534 2.582427,-2.58242 m -3.664133,3.66413 -1.294947,1.29495 m -3.928638,3.92863 0.231453,-0.23145 m -7.32604,7.32604 -0.354188,0.35419 m -5.929435,5.92944 0.428361,-0.42836 m -4.386547,4.38654 -0.522843,0.52285 m 36.846798,-36.44768 0.481377,-0.48138 m -2.91545,2.91545 -0.362928,0.36293 m -2.981405,2.9814 0.490926,-0.49092 m -5.004445,5.00444 -2.17963,2.17963 m -2.254063,2.25407 1.322859,-1.32286 m -4.957908,4.95791 -0.358132,0.35813 m -7.448956,7.44895 0.342542,-0.34254 m -5.914601,5.9146 -0.430484,0.43049 m -4.357472,4.35747 1.852507,-1.85251 m 35.333713,-34.93459 -0.471978,0.47198 m -2.770354,2.77035 0.333442,-0.33344 m -2.939196,2.9392 -0.461592,0.46159 m -8.611908,8.61191 3.508599,-3.5086 m -7.267265,7.26726 -0.442001,0.442 m -7.435373,7.43538 0.332689,-0.33269 m -5.975733,5.97573 -0.432606,0.43261 m -4.245196,4.24519 1.967862,-1.96786 m 35.087683,-34.68856 -0.462579,0.46258 m -2.788606,2.78861 0.329236,-0.32924 m -3.005366,3.00537 -0.445982,0.44598 m -8.301565,8.30156 2.765661,-2.76566 m -6.609259,6.60926 -0.537074,0.53707 m -7.410585,7.41059 0.341027,-0.34103 m -6.055057,6.05506 -0.428952,0.42895 m -4.117329,4.11733 1.980263,-1.98026 m -6.815913,6.81591 -0.256818,0.25682 m 41.54168,-41.14256 0.454291,-0.45429 m -2.944785,2.94478 -0.326393,0.3264 m -3.165736,3.16573 0.496729,-0.49672 m -6.397135,6.39713 -1.972971,1.97297 m -4.637719,4.63772 0.634357,-0.63436 m -7.711594,7.7116 -0.349366,0.34936 m -6.208541,6.20854 0.450745,-0.45074 m -2.442746,2.44274 -2.191122,2.19113 m -5.718298,5.7183 2.073767,-2.07377 m 40.553434,-40.15431 -0.439064,0.43906 m -2.884857,2.88486 0.390748,-0.39075 m -2.935548,2.93555 -0.597364,0.59736 m -7.475024,7.47503 1.352017,-1.35202 m -5.601223,5.60122 -0.545771,0.54577 m -7.486609,7.48661 0.33174,-0.33174 m -6.155637,6.15564 -0.476167,0.47617 m -4.304075,4.30407 2.467687,-2.46769 m -5.818893,5.8189 -2.568218,2.56821 m 42.465048,-42.06592 0.427413,-0.42741 m -2.970141,2.97014 -0.427827,0.42782 m -3.100865,3.10087 0.805095,-0.8051 m -6.970082,6.97009 -1.06143,1.06143 m -4.672148,4.67214 0.342384,-0.34238 m -2.647334,2.64733 -0.143281,0.14329 m -5.228556,5.22855 0.320227,-0.32023 m -6.210394,6.2104 -0.501589,0.50159 m -4.533105,4.5331 2.85233,-2.85233 m -5.630978,5.63098 -3.379743,3.37974 m 42.885394,-42.48627 0.418246,-0.41824 m -3.004317,3.00431 -0.662074,0.66208 m -2.86519,2.86519 1.093749,-1.09375 m -7.252229,7.25223 -0.261854,0.26185 m -5.178574,5.17857 0.210776,-0.21077 m -2.668289,2.66829 -0.233337,0.23333 m -5.104335,5.10434 0.324034,-0.32403 m -6.280473,6.28047 -0.551942,0.55194 m -5.050136,5.05014 3.542189,-3.54219 m -5.576702,5.5767 -0.733626,0.73363 m -3.173517,3.17351 1.024745,-1.02474 m 42.511011,-42.11189 -0.390891,0.39089 m -6.137144,6.13714 3.458271,-3.45827 m -14.697682,14.69769 -0.153486,0.15348 m -2.714176,2.71418 0.197747,-0.19775 m -4.975668,4.97567 -0.327841,0.32784 m -6.635044,6.63504 0.612335,-0.61233 m -1.822427,1.82243 -3.987047,3.98704 m -2.148535,2.14854 0.472952,-0.47295 m -3.347809,3.3478 -1.067106,1.06711 m 43.399093,-42.99997 0.379845,-0.37985 m -3.139877,3.13988 -3.390091,3.39009 m -11.246017,11.24602 0.126635,-0.12663 m -2.642848,2.64284 -0.128171,0.12817 m -5.141174,5.14118 0.326482,-0.32648 m -6.415462,6.41546 -0.726849,0.72685 m -7.12941,7.12941 6.291481,-6.29148 m -9.865528,9.86552 -0.740758,0.74076 m 43.558801,-43.15968 0.378173,-0.37817 m -3.39378,3.39378 -1.097964,1.09796 m -2.040155,2.04016 0.191908,-0.19191 m -11.191264,11.19126 -0.09674,0.0967 m -7.740668,7.74067 0.337188,-0.33719 m -6.49347,6.49347 -2.438062,2.43807 m -5.447826,5.44782 2.328424,-2.32842 m -6.070039,6.07004 -0.853705,0.8537 m 43.740662,-43.34154 0.34383,-0.34383 m -3.667033,3.66704 -0.06514,0.0651 m -2.764613,2.76462 0.227148,-0.22715 m -11.106476,11.10647 -0.10247,0.10247 m -7.651536,7.65154 0.342345,-0.34234 m -6.561335,6.56133 -2.145396,2.1454 m -5.864766,5.86476 1.886486,-1.88648 m -5.993074,5.99307 -0.600504,0.6005 m 43.810431,-43.4113 0.340845,-0.34085 m -6.179877,6.17988 -0.29536,0.29536 m -10.862061,10.86206 0.10528,-0.10528 m -7.318629,7.31863 -0.347501,0.3475 m -8.415083,8.41508 2.133385,-2.13338 m -6.419545,6.41954 -1.912266,1.91227 m -4.62149,4.62149 0.532376,-0.53238 m 43.685684,-43.28656 -0.324005,0.32401 m -6.099307,6.0993 0.367677,-0.36767 m -11.033555,11.03355 -0.108729,0.10873 m -7.468258,7.46826 0.35712,-0.35712 m -6.701526,6.70152 -2.116314,2.11632 m -6.801601,6.8016 2.317422,-2.31742 m -6.082554,6.08255 -0.510033,0.51003 m 43.913902,-43.51478 0.338324,-0.33832 m -5.888922,5.88892 -0.446114,0.44612 m -10.688192,10.68819 0.113215,-0.11322 m -7.099758,7.09976 -0.388086,0.38809 m -8.55831,8.55831 2.151197,-2.1512 m -6.746558,6.74656 -2.678672,2.67867 m -3.94932,3.94932 0.43039,-0.43039 m 43.804188,-43.40507 -0.359138,0.35914 m -5.894119,5.89412 0.600068,-0.60007 m -11.083725,11.08373 -0.118119,0.11812 m -7.266122,7.26612 0.404176,-0.40418 m -6.888873,6.88888 -0.842887,0.84288 m -1.343192,1.3432 0.510032,-0.51004 m -5.166266,5.16627 -2.922804,2.9228 m -3.790904,3.79091 0.402172,-0.40217 m 43.814759,-43.41564 -0.402663,0.40266 m -5.768814,5.76882 0.775523,-0.77553 m -11.143921,11.14392 -0.146962,0.14697 m -7.146033,7.14603 0.404824,-0.40482 m -6.978688,6.97868 -0.775955,0.77596 m -1.443617,1.44362 0.438646,-0.43865 m -5.095157,5.09516 -3.23304,3.23304 m -3.619072,3.61907 0.387937,-0.38794 m 43.764756,-43.36563 -0.451084,0.45108 m -5.589149,5.58915 1.188595,-1.18859 m -11.453904,11.4539 -0.175806,0.17581 m -7.025944,7.02594 0.437899,-0.4379 m -7.100929,7.10093 -0.709023,0.70902 m -1.540909,1.54091 0.381305,-0.3813 m -5.051014,5.05101 -0.64925,0.64925 m -2.826409,2.82641 0.676416,-0.67642 m -3.807783,3.80779 -0.327419,0.32742 m 43.44092,-43.0418 0.606891,-0.60689 m -4.295508,4.29551 -1.606011,1.60601 m -10.350361,10.35036 0.175031,-0.17503 m -6.639531,6.63953 -0.470973,0.47097 m -7.394287,7.39429 0.642091,-0.64209 m -1.958117,1.95811 -0.30484,0.30484 m -5.163245,5.16325 0.588388,-0.58839 m -3.350177,3.35018 -0.510617,0.51061 m -3.281369,3.28137 0.309812,-0.30981 m 43.633115,-43.23399 -5.762804,5.7628 m -10.258258,10.25826 0.18975,-0.18975 m -6.540638,6.54064 -0.495462,0.49546 m -7.454237,7.45424 0.612875,-0.61288 m -2.048551,2.04855 -0.209625,0.20963 m -5.040748,5.04075 0.546024,-0.54603 m -3.717277,3.71728 -0.475196,0.4752 m -3.162413,3.16241 0.311545,-0.31155 m 43.441455,-43.04233 -5.537126,5.53713 m -10.166157,10.16615 0.217744,-0.21774 m -6.414512,6.41451 -0.522035,0.52204 m -7.555156,7.55515 0.582797,-0.58279 m -6.676404,6.6764 -0.54246,0.54246 m -3.969868,3.96987 0.462341,-0.46234 m -3.141944,3.14194 -0.369477,0.36948 m 40.074364,-39.67524 3.49508,-3.49508 m -4.815808,4.8158 -0.471696,0.4717 m -10.059808,10.05981 0.2068,-0.2068 m -6.288387,6.28839 -0.55173,0.55173 m -7.652953,7.65295 0.578012,-0.57801 m -6.625201,6.6252 -0.552318,0.55232 m -4.280017,4.28001 0.457482,-0.45748 m -2.94809,2.94809 -0.444987,0.44499 m 40.645048,-40.24593 2.438828,-2.43883 m -4.364542,4.36455 -0.364394,0.36439 m -9.931787,9.93179 0.186854,-0.18686 m -6.18995,6.18995 -0.573341,0.57334 m -7.75075,7.75075 0.573227,-0.57322 m -6.611512,6.61151 -0.55119,0.55119 m -4.562054,4.56205 0.506547,-0.50654 m -2.788289,2.78829 -0.558382,0.55838 m 41.31433,-40.91521 0.912533,-0.91253 m -3.423042,3.42304 -0.359451,0.35945 m -9.803765,9.80376 0.18689,-0.18689 m -6.067356,6.06736 -0.639092,0.63909 m -7.848547,7.84855 0.568441,-0.56844 m -6.625678,6.62568 -0.543092,0.54309 m -4.829743,4.82974 0.545606,-0.5456 m -2.613556,2.61355 -0.691737,0.69174 m 38.568305,-38.16918 0.34274,-0.34274 m -9.852748,9.85274 -0.178667,0.17867 m -6.411377,6.41138 0.653539,-0.65354 m -8.08753,8.08753 -0.563656,0.56366 m -6.611183,6.61118 0.534994,-0.535 m -5.020739,5.02074 -0.627337,0.62734 m -2.6636,2.6636 0.882064,-0.88206 m 38.172112,-37.77299 -0.341159,0.34116 m -9.510699,9.51069 0.151549,-0.15154 m -5.870286,5.87028 -0.673582,0.67358 m -8.141287,8.14129 0.558871,-0.55887 m -6.67177,6.67177 -0.509137,0.50914 m -5.401714,5.40171 0.755747,-0.75575 m -2.244484,2.24449 -1.065091,1.06509 m 38.849336,-38.45022 0.347945,-0.34794 m -6.903969,6.90397 -0.119972,0.11997 m -2.678956,2.67896 0.116611,-0.11661 m -5.732936,5.73293 -0.734707,0.73471 m -8.284324,8.28432 0.553482,-0.55348 m -6.718094,6.7181 -0.468881,0.46888 m -8.166362,8.16636 3.352776,-3.35278 m 36.024631,-35.62551 -0.35979,0.35979 m -6.597627,6.59763 0.08679,-0.0868 m -2.485663,2.48566 -0.202706,0.20271 m -6.348504,6.34851 0.895939,-0.89594 m -8.736446,8.73644 -0.5481,0.5481 m -6.661736,6.66174 0.445417,-0.44542 m -5.367026,5.36703 -3.43878,3.43878 m 39.217178,-38.81806 0.363745,-0.36374 m -6.887786,6.88778 -0.07013,0.0701 m -2.363754,2.36375 0.169183,-0.16918 m -5.677565,5.67757 -0.785812,0.78581 m -8.661493,8.66149 0.542718,-0.54272 m -6.810742,6.81075 -0.447172,0.44717 m -8.529199,8.5292 3.522436,-3.52244 m 36.262005,-35.86288 -0.368979,0.36898 m -8.750476,8.75047 2.1963,-2.1963 m -7.636202,7.6362 -0.836971,0.83698 m -8.862274,8.86227 0.537337,-0.53734 m -6.871304,6.87131 -0.434691,0.43469 m -8.735195,8.73519 3.672351,-3.67235 m 36.35397,-35.95485 -0.375388,0.37539 m -8.356441,8.35644 1.719681,-1.71968 m -7.27648,7.27648 -0.889339,0.88934 m -9.063058,9.06306 0.53092,-0.53092 m -6.937776,6.93778 -0.415263,0.41526 m -6.147718,6.14772 1.042834,-1.04284 m -3.163983,3.16399 -0.607449,0.60744 m 39.832815,-39.43369 0.390498,-0.3905 m -7.129119,7.12912 -1.379461,1.37946 m -6.373666,6.37367 0.899408,-0.89941 m -9.71601,9.71601 -0.544586,0.54459 m -6.875582,6.87558 0.395835,-0.39583 m -5.530363,5.53036 -0.654084,0.65408 m -3.27879,3.27879 0.582341,-0.58234 m 39.887931,-39.48881 -0.394963,0.39496 m -7.80711,7.80712 0.887571,-0.88758 m -6.382554,6.38256 -0.916743,0.91674 m -9.647164,9.64717 0.573371,-0.57338 m -7.110889,7.11089 -0.376407,0.37641 m -5.622933,5.62293 0.49033,-0.49033 m -3.619774,3.61978 -0.506111,0.50611 m 40.317803,-39.91868 0.399427,-0.39943 m -7.491556,7.49156 -0.536577,0.53657 m -6.358145,6.35815 1.101787,-1.10179 m -10.391846,10.39185 -0.530455,0.53045 m -7.034562,7.03456 0.363948,-0.36394 m -5.48969,5.48969 -0.415645,0.41564 m -3.897594,3.8976 0.475868,-0.47587 m 40.485439,-40.08632 -0.40101,0.40101 m -7.621356,7.62136 0.259713,-0.25972 m -5.106392,5.1064 -1.084424,1.08442 m -10.223843,10.22384 0.515113,-0.51511 m -7.304655,7.30466 -0.361049,0.36104 m -5.446655,5.44666 0.409465,-0.40947 m -4.098448,4.09845 -0.458909,0.45891 m 40.797679,-40.39856 0.40284,-0.40284 m -8.047586,8.04759 -0.07697,0.077 m -5.473471,5.47347 1.147327,-1.14733 m -11.186001,11.186 -0.492226,0.49223 m -7.282627,7.28262 0.35815,-0.35815 m -5.314725,5.31473 -0.394147,0.39415 m -4.394036,4.39403 0.436594,-0.43659 m 40.997784,-40.59866 -0.40732,0.40732 m -13.053263,13.05326 1.429491,-1.42949 m -11.57215,11.57215 -0.4672,0.4672 m -7.424756,7.42475 0.355252,-0.35525 m -2.69103,2.69103 -0.122957,0.12296 m -2.795893,2.79589 0.501277,-0.50127 m -4.727337,4.72733 -0.414279,0.41428 m 41.256434,-40.85731 0.411801,-0.4118 m -11.55694,11.55694 -1.170507,1.17051 m -11.284515,11.28451 0.442175,-0.44217 m -7.656705,7.6567 -0.352353,0.35235 m -3.329677,3.32968 0.930897,-0.9309 m -2.066611,2.06662 -0.604299,0.60429 m -4.975487,4.97549 0.391964,-0.39196 m 41.510128,-41.11101 -0.416281,0.41628 m -11.866841,11.86684 1.576113,-1.57611 m -12.826075,12.82608 -0.397857,0.39785 m -7.731552,7.73155 0.342462,-0.34246 m -2.797893,2.7979 -2.497665,2.49766 m -5.24229,5.24229 0.398806,-0.3988 m 41.724489,-41.32537 -0.408107,0.4081 m -11.404565,11.40457 1.204779,-1.20478 m -12.868738,12.86874 -0.350537,0.35054 m -7.906318,7.90631 0.323436,-0.32343 m -2.802213,2.80221 -2.064935,2.06494 m -5.803417,5.80341 0.40043,-0.40043 m 41.929529,-41.5304 -0.383862,0.38386 m -10.94501,10.94501 1.098823,-1.09882 m -13.161512,13.16151 -0.315764,0.31576 m -8.104316,8.10432 0.327643,-0.32765 m -2.796023,2.79603 -1.585851,1.58585 m -6.379366,6.37936 0.360015,-0.36001 m 42.134566,-41.73544 -0.359616,0.35961 m -10.562363,10.56236 1.129812,-1.12981 m -13.514322,13.51432 -0.280992,0.281 m -8.312129,8.31213 0.341666,-0.34167 m -2.786814,2.78681 -1.184991,1.185 m -6.880111,6.88011 0.319599,-0.3196 m 42.339605,-41.94049 -0.33537,0.33538 m -10.177206,10.1772 0.947794,-0.94779 m -13.646611,13.64661 -0.256244,0.25624 m -8.519944,8.51995 0.355688,-0.35569 m -2.752418,2.75242 -0.953764,0.95376 m -7.236409,7.23641 0.316837,-0.31684 m 42.506991,-42.10787 -0.340914,0.34092 m -10.04324,10.04324 1.046756,-1.04676 m -13.751817,13.75182 -0.258578,0.25858 m -8.727758,8.72775 0.359357,-0.35935 m -2.70767,2.70767 -0.769094,0.76909 m -7.546149,7.54615 0.313115,-0.31311 m 42.65035,-42.25123 -0.318723,0.31872 m -9.498256,9.49826 0.732878,-0.73288 m -13.880693,13.88069 -0.23817,0.23817 m -8.935572,8.93557 0.35569,-0.35569 m -2.649645,2.64965 -0.602961,0.60296 m -7.853827,7.85383 0.319927,-0.31993 m 42.788313,-42.38919 -0.304268,0.30427 m -2.566641,2.56664 0.289384,-0.28939 m -6.343935,6.34394 -0.70482,0.70482 m -13.422457,13.42246 0.322794,-0.3228 m -9.114159,9.11416 -0.352022,0.35202 m -2.749978,2.74998 0.531868,-0.53187 m -8.29308,8.29308 -0.27564,0.27564 m 42.876113,-42.47699 0.325801,-0.3258 m -2.139464,2.13946 -0.732725,0.73273 m -6.369986,6.36999 0.475358,-0.47536 m -13.716474,13.71647 -0.391922,0.39193 m -9.377141,9.37714 0.346998,-0.347 m -2.49062,2.49062 -0.466076,0.46607 m -8.214576,8.21458 0.285425,-0.28542 m 43.010164,-42.61105 -2.87347,2.87347 m -6.188308,6.18831 0.469096,-0.46909 m -13.58477,13.58477 -0.527334,0.52733 m -9.632964,9.63296 0.371139,-0.37114 m -2.412145,2.41215 -0.422968,0.42297 m -8.368579,8.36858 0.28688,-0.28688 m 43.070004,-42.67089 -1.767803,1.76781 m -1.074567,1.07456 0.486829,-0.48682 m -6.091818,6.09181 -0.352037,0.35204 m -13.702584,13.70258 0.781941,-0.78194 m -10.295951,10.29596 -0.374777,0.37477 m -2.335474,2.33548 0.39582,-0.39582 m -8.612843,8.61284 -0.288334,0.28833 m 41.862918,-41.46379 1.548804,-1.54881 m -2.336107,2.33611 -0.468707,0.46871 m -5.805782,5.80578 0.315017,-0.31502 m -13.075563,13.07557 -0.921574,0.92157 m -10.14461,10.14461 0.376569,-0.37657 m -2.214873,2.21487 -0.387193,0.3872 m -8.623613,8.62361 0.311756,-0.31176 m 43.154802,-42.75568 -1.329804,1.32981 m -1.437452,1.43745 0.450585,-0.45058 m -5.826513,5.82651 -0.334518,0.33452 m -13.605749,13.60574 1.308758,-1.30875 m -11.330828,11.33082 -0.391466,0.39147 m -2.115906,2.11591 0.372922,-0.37293 m -8.742799,8.7428 -0.334567,0.33457 m 42.386656,-41.98753 1.0612,-1.0612 m -2.247631,2.24763 -0.43692,0.43692 m -5.607749,5.60775 0.317441,-0.31744 m -12.334118,12.33411 -1.515605,1.51561 m -10.691184,10.69118 0.415083,-0.41508 m -2.062633,2.06263 -0.380059,0.38006 m -8.738221,8.73822 0.34034,-0.34034 m 43.054296,-42.65517 -0.690929,0.69093 m -1.904719,1.90472 0.434535,-0.43454 m -5.627941,5.62794 -0.409719,0.40972 m -13.349462,13.34946 1.911447,-1.91144 M 28.4629,275.574 l -0.421101,0.42111 m -1.939312,1.93931 0.387196,-0.3872 m -8.813082,8.81308 -0.346113,0.34612 m 43.000814,-42.6017 0.248117,-0.24811 m -1.98211,1.98211 -0.43215,0.43215 m -5.58202,5.58202 0.477652,-0.47766 m -11.351017,11.35102 -2.309757,2.30976 m -11.256059,11.25606 0.427996,-0.428 m -1.892805,1.89281 -0.376625,0.37662 m -8.805777,8.80578 0.376408,-0.37641 m 40.923712,-40.52459 -0.429766,0.42977 m -5.634951,5.63495 0.5941,-0.5941 m -10.521173,10.52117 -3.015673,3.01567 m -11.55961,11.55961 0.451215,-0.45121 m -1.819393,1.81939 -0.359055,0.35906 m -8.839554,8.83955 0.417469,-0.41747 m 40.899835,-40.50071 -0.411266,0.41127 m -5.707424,5.70742 0.739414,-0.73941 m -10.364339,10.36433 -3.057904,3.05791 m -11.863162,11.86316 0.474433,-0.47443 m -1.74598,1.74598 -0.375148,0.37515 m -8.818655,8.81865 0.437517,-0.43752 m 40.875384,-40.47626 -0.392193,0.3922 m -5.78967,5.78967 0.834508,-0.83451 m -9.981897,9.98189 -3.265749,3.26575 m -12.166714,12.16672 0.497652,-0.49765 m -1.700381,1.70038 -0.377282,0.37728 m -8.763164,8.76316 0.436828,-0.43682 m 40.838285,-40.43917 -0.383387,0.38339 m -5.843753,5.84375 0.924797,-0.9248 m -9.564649,9.56465 -0.702773,0.70278 m -2.808892,2.80889 0.684343,-0.68434 m -12.615376,12.61537 -0.536411,0.53641 m -1.513329,1.51333 0.374871,-0.37487 m -8.646406,8.64641 -0.436138,0.43613 m 40.852833,-40.45371 0.363968,-0.36396 m -5.251849,5.25185 -0.958474,0.95847 m -9.011684,9.01168 0.693008,-0.693 m -3.096298,3.09629 -0.515891,0.51589 m -12.768775,12.76878 0.500645,-0.50065 m -1.581332,1.58134 -0.365958,0.36595 m -8.652182,8.65219 0.455613,-0.45562 m 40.702875,-40.30375 -0.361261,0.36126 m -5.777564,5.77757 0.937398,-0.9374 m -9.105743,9.10574 -0.695997,0.696 m -2.900552,2.90055 0.345306,-0.34531 m -12.921546,12.92155 -0.497761,0.49776 m -1.374141,1.37414 0.347265,-0.34726 m -8.460145,8.46014 -0.485737,0.48574 m 40.734592,-40.33547 0.330123,-0.33012 m -5.055321,5.05532 -0.881599,0.8816 m -8.823509,8.82351 0.52789,-0.52789 m -3.185486,3.18548 -0.212764,0.21277 m -13.420871,13.42087 0.536521,-0.53652 m -1.467942,1.46794 -0.362738,0.36274 m -8.489625,8.48962 0.4946,-0.4946 m 40.455173,-40.05605 -0.394689,0.39469 m -1.501607,1.50161 0.54522,-0.54522 m -3.564625,3.56462 -0.825195,0.8252 m -8.856796,8.85679 0.353343,-0.35334 m -3.040438,3.04044 -0.07316,0.0732 m -13.767741,13.76774 0.575281,-0.57528 m -1.375731,1.37573 -0.423562,0.42356 m -8.349133,8.34914 0.481799,-0.4818 m 40.293336,-39.89422 -2.172083,2.17209 m -3.413853,3.41385 1.028797,-1.0288 m -9.615567,9.61557 -0.225105,0.22511 m -16.766994,16.76699 0.596831,-0.59683 m -1.272564,1.27256 -0.47502,0.47502 m -8.208642,8.20865 0.463559,-0.46356 m 40.131697,-39.73258 -2.493093,2.49309 m -2.938425,2.93843 1.310066,-1.31007 m -9.832065,9.83207 -0.239173,0.23917 m -18.08348,18.08348 1.682644,-1.68264 m -9.269808,9.2698 -0.480987,0.48099 m 35.114105,-34.71498 5.230181,-5.23018 m -13.623405,13.6234 -0.333596,0.3336 m -2.386768,2.38677 0.115045,-0.11505 m -8.253817,8.25382 -0.113595,0.11359 m -7.585839,7.58584 1.633988,-1.63398 m -9.045756,9.04575 -0.499607,0.49961 m 35.064472,-34.66535 5.110532,-5.11053 m -13.317769,13.31777 -0.47827,0.47827 m -2.242218,2.24221 0.06607,-0.0661 m -8.472946,8.47295 -0.198426,0.19842 m -7.515386,7.51539 1.574807,-1.57481 m -8.821705,8.82171 -0.493676,0.49367 m 34.9903,-34.59113 3.378876,-3.37888 m -11.285926,11.28593 -0.737144,0.73714 m -2.097667,2.09767 0.170514,-0.17052 m -8.903693,8.9037 -0.274944,0.27494 m -7.43062,7.43062 1.5512,-1.5512 m -8.597653,8.59766 -0.467758,0.46775 m 34.884888,-34.48576 2.921003,-2.921 m -10.606889,10.60688 -0.911903,0.91191 m -1.946978,1.94697 0.26604,-0.26603 m -9.314039,9.31403 -0.266849,0.26685 m -7.441952,7.44195 1.506544,-1.50654 m -8.345041,8.34504 -0.44935,0.44935 m 34.754452,-34.35533 0.556295,-0.55629 m -7.870232,7.87023 -1.265762,1.26576 m -1.742939,1.74294 0.416904,-0.4169 m -9.779722,9.77972 -0.314411,0.31441 m -7.397627,7.39763 1.453548,-1.45355 m -8.056515,8.05651 -0.458517,0.45852 m 34.624017,-34.22489 0.472921,-0.47293 m -7.659649,7.65966 -2.913781,2.91378 m -10.024475,10.02447 0.311886,-0.31189 m -6.279773,6.27978 -1.400552,1.40055 m -6.83512,6.83512 0.467683,-0.46768 m 34.417617,-34.0185 -0.391718,0.39172 m -9.878382,9.87838 2.797698,-2.7977 m -12.867744,12.86775 -0.361012,0.36101 m -7.292888,7.29289 1.360533,-1.36053 m -7.479462,7.47946 -0.445697,0.44569 m 34.325704,-33.92658 0.30929,-0.30929 m -1.619037,1.61904 -0.159439,0.15944 m -8.180779,8.18078 1.558864,-1.55887 m -11.986369,11.98637 -0.410139,0.41014 m -7.248886,7.24889 1.352064,-1.35207 m -7.188696,7.1887 -0.410452,0.41045 m 34.110149,-33.71103 0.257597,-0.25759 m -1.325831,1.32583 -0.31942,0.31942 m -3.592912,3.59291 0.273703,-0.2737 m -3.392066,3.39206 -1.308335,1.30834 m -11.235339,11.23534 0.468271,-0.46827 m -6.320555,6.32055 -1.343595,1.3436 m -5.929541,5.92954 0.416764,-0.41677 m 33.643036,-33.24391 -0.188003,0.188 m -1.284855,1.28486 0.472569,-0.47257 m -3.61889,3.61889 -0.438479,0.43848 m -4.271725,4.27172 1.103512,-1.10351 m -12.238249,12.23825 -0.543827,0.54383 m -7.097728,7.09773 1.327726,-1.32773 m -6.516649,6.51665 -0.423076,0.42307 m 32.410686,-32.01156 1.337331,-1.33733 m -4.373109,4.37311 -0.418105,0.4181 m -4.198853,4.19886 0.907732,-0.90774 m -12.418405,12.41841 -0.608633,0.60863 m -7.002062,7.00206 1.313758,-1.31375 m -6.150116,6.15011 -0.458099,0.4581 m 32.234432,-31.83531 1.247288,-1.24729 m -4.225702,4.22571 -0.368836,0.36883 m -4.101699,4.1017 0.743097,-0.7431 m -12.629704,12.62971 -0.745861,0.74586 m -6.840171,6.84017 1.305988,-1.30599 m -5.814294,5.8143 -0.426656,0.42665 m 31.990393,-31.59127 1.030814,-1.03081 m -3.919836,3.91983 -0.327538,0.32754 m -3.996574,3.99657 0.578462,-0.57846 M 35.96046,277.65544 35.0709,278.545 m -6.70582,6.70582 1.332229,-1.33223 m -5.413264,5.41326 -0.453918,0.45392 m 31.72284,-31.32372 0.902796,-0.90279 m -3.686798,3.68679 -0.31545,0.31545 m -3.860854,3.86086 0.453364,-0.45336 m -13.091842,13.09184 -1.209008,1.20901 m -6.39572,6.39572 1.358471,-1.35848 m -4.988551,4.98856 -0.504865,0.50486 m 31.432676,-31.03355 0.797389,-0.79739 m -3.454318,3.45432 -0.342562,0.34256 m -3.685376,3.68537 0.374683,-0.37468 m -13.525537,13.52554 -1.589318,1.58932 m -5.870666,5.87066 1.400447,-1.40045 m -4.5933,4.5933 -0.582731,0.58274 m 31.159082,-30.75996 0.698409,-0.69841 m -3.222497,3.22249 -0.384373,0.38438 m -3.49454,3.49454 0.304235,-0.30424 m -14.073299,14.0733 -1.886179,1.88618 m -5.422101,5.4221 1.534881,-1.53488 m -3.995352,3.99535 -0.743605,0.74361 m 30.6802,-30.28108 0.738848,-0.73885 m -2.979664,2.97967 -0.538048,0.53804 m -3.250258,3.25026 0.348117,-0.34811 m -14.503158,14.50315 -2.43133,2.43133 m -4.901094,4.9011 1.612933,-1.61294 m -3.109914,3.10992 -1.238464,1.23846 m 30.222944,-29.82382 0.618959,-0.61896 m -2.555608,2.55561 -0.706419,0.70642 m -3.007583,3.00758 0.40535,-0.40535 m -15.417491,15.41749 -3.372577,3.37258 m -5.835332,5.83533 4.080376,-4.08037 m 26.342194,-25.94308 -3.136858,3.13686 m -2.712531,2.71253 0.566645,-0.56664 m -16.446033,16.44603 -2.903769,2.90377 m -5.183881,5.18388 3.611797,-3.6118 m 26.137541,-25.73841 -3.174006,3.174 m -2.174105,2.17411 0.644741,-0.64475 m -17.485327,17.48533 -2.620476,2.62048 m -4.451908,4.45191 3.370299,-3.3703 m 25.874343,-25.47522 -4.989772,4.98977 m -23.642884,23.64288 6.143168,-6.14317 M 55.93553,261.27247 51.7823,265.4257 m -23.729175,23.72918 5.506544,-5.50655 M 55.49112,262.116 l -3.106745,3.10675 m -23.440529,23.44053 4.800978,-4.80098 m 21.723629,-21.32451 -0.639475,0.63948 m -1.737407,1.7374 0.570687,-0.57068 m -19.765333,19.76533 -0.900769,0.90077 m -3.086097,3.0861 1.039784,-1.03979 m 24.486472,-24.08735 -0.435151,0.43515 m -21.465887,21.46589 0.625243,-0.62524 m 21.282121,-20.883 -0.378485,0.37848 m -21.149753,21.14976 0.512089,-0.51209 m 21.026361,-20.62724 -0.325704,0.3257 m -20.833619,20.83362 0.43275,-0.43275 m 20.736784,-20.33766 -0.290152,0.29015 m -20.500256,20.50026 0.387687,-0.38769 m 20.412932,-20.01381 -0.291755,0.29176 m -20.129737,20.12974 0.329118,-0.32912 m 20.12765,-19.72853 -0.318422,0.31842 m -19.759219,19.75922 0.32247,-0.32247 m 19.785755,-19.38663 -0.338144,0.33814 m -19.390955,19.39096 0.315822,-0.31583 m 19.443862,-19.04473 -0.386953,0.38695 m -19.015642,19.01564 0.331212,-0.33121 m 19.101968,-18.70285 -0.435762,0.43576 m -18.640365,18.64037 0.350763,-0.35076 m 18.774778,-18.37566 -0.5034,0.5034 m -18.291163,18.29116 0.4128,-0.4128 m 18.435206,-18.03608 -0.626795,0.6268 m -17.897422,17.89742 0.482027,-0.48203 m 18.095634,-17.69651 -0.660294,0.66029 m -17.593579,17.59358 0.551253,-0.55125 m 17.756063,-17.35694 -0.766572,0.76657 m -17.254607,17.25461 0.657746,-0.65775 m 17.416877,-17.01775 -0.87285,0.87285 m -16.906818,16.90681 0.773918,-0.77391 m 17.059193,-16.66007 -0.979127,0.97912 m -16.590286,16.59029 0.921348,-0.92135 m 16.701509,-16.30238 -1.085405,1.0854 m -16.27918,16.27918 1.074203,-1.0742 m 16.343826,-15.9447 -1.215413,1.21541 m -15.975108,15.97511 1.257823,-1.25783 m 15.986141,-15.58702 -1.33314,1.33314 m -15.697712,15.69772 1.45447,-1.45447 m 15.651664,-15.25255 -1.531856,1.53186 m -15.362923,15.36292 1.700507,-1.7005 m 15.278218,-14.8791 -1.739237,1.73924 m -15.082742,15.08274 2.001153,-2.00115 m 14.904773,-14.50565 -1.946618,1.94661 m -13.190639,13.19064 0.760927,-0.76092 m -1.739134,1.73913 -0.730327,0.73033 m 14.806303,-14.40718 2.123434,-2.12344 m -14.041052,14.04105 -0.71264,0.71264 m -2.453374,2.45338 0.976101,-0.9761 m 16.35482,-15.9557 -2.485444,2.48544 m -11.865545,11.86555 0.73922,-0.73922 m -2.804697,2.8047 -1.670267,1.67026 m 17.657373,-17.25825 0.560073,-0.56007 m -1.664923,1.66492 -1.189389,1.18939 m -11.081019,11.08102 0.717494,-0.71749 m -3.275707,3.2757 -2.746091,2.74609 m 18.872508,-18.47338 0.49784,-0.49784 m -2.146788,2.14679 -1.331696,1.33169 m -10.213314,10.21332 1.032804,-1.03281 m -4.219928,4.21993 -2.709153,2.70915 m 19.278354,-18.87923 0.461438,-0.46144 m -2.51736,2.51736 -1.121981,1.12198 m -9.263515,9.26352 0.845797,-0.8458 m -5.267173,5.26718 -2.555971,2.55597 m 19.589802,-19.19068 0.439484,-0.43949 m -2.936432,2.93644 -1.312339,1.31233 m -8.132402,8.13241 0.987717,-0.98772 m -7.292621,7.29262 -1.345385,1.34539 m 19.722834,-19.32372 0.457711,-0.45771 m -3.342786,3.34279 -1.572491,1.57249 m -6.664986,6.66499 1.314426,-1.31443 m -8.949845,8.94985 -0.942024,0.94202 m 19.838332,-19.43921 0.410321,-0.41032 m -3.691003,3.691 -7.071127,7.07113 m -9.425637,9.42564 0.781696,-0.7817 m 19.501619,-19.1025 -0.417599,0.4176 m -10.030582,10.03058 6.562156,-6.56215 m -15.698204,15.6982 -0.577866,0.57787 m 19.823638,-19.42452 0.434005,-0.434 m -4.557973,4.55797 -3.882925,3.88293 m -11.695526,11.69552 0.482919,-0.48292 m 19.721986,-19.32286 -0.413764,0.41376 m -5.973392,5.97339 1.205352,-1.20535 m -14.489738,14.48974 -0.412144,0.41215 m 19.713046,-19.31393 0.42681,-0.42681 m -19.677268,19.67727 -0.341369,0.34137 m 19.634952,-19.23583 0.439855,-0.43986 m -19.585029,19.58503 -0.362824,0.36283 m 19.560851,-19.16173 0.443172,-0.44317 m -19.502386,19.50238 -0.349613,0.34962 m 19.423891,-19.02477 0.450917,-0.45092 m -19.386381,19.38638 -0.327518,0.32752 m 19.276111,-18.87699 0.460039,-0.46004 m -19.213933,19.21393 -0.339641,0.33965 m 19.074451,-18.67533 0.501373,-0.50138 m -19.033189,19.03319 -0.345537,0.34554 m 18.909476,-18.51035 0.491501,-0.4915 m -18.852447,18.85244 -0.324164,0.32417 m 18.668649,-18.26953 0.488954,-0.48895 m -18.619778,18.61977 -0.313458,0.31346 m 18.378728,-17.9796 0.542669,-0.54267 M 39.462045,294.90822 39.12027,295.25 m 18.173082,-17.77396 0.512108,-0.51211 m -18.090731,18.09073 -0.370093,0.37009 m 17.897433,-17.49831 0.591869,-0.59186 m -17.866525,17.86652 -0.351223,0.35122 m 17.591852,-17.19273 0.509924,-0.50992 m -17.489898,17.4899 -0.340456,0.34045 m 17.2201,-16.82097 0.558074,-0.55808 m -17.14464,17.14464 -0.362112,0.36211 m 16.750812,-16.35169 0.703761,-0.70376 m -16.799384,16.79939 -0.383768,0.38377 m 16.444376,-16.04526 0.611486,-0.61148 m -16.379016,16.37901 -0.405424,0.40543 m 15.972155,-15.57304 0.702544,-0.70254 m -15.983933,15.98393 -0.378385,0.37839 m 15.314318,-14.9152 0.999394,-0.99939 m -15.600412,15.60041 -0.404769,0.40477 m 14.250969,-13.85185 1.416308,-1.41631 m -14.927593,14.9276 -0.431152,0.43115 m 13.730357,-13.33124 1.523981,-1.52398 m -14.478759,14.47876 -0.467048,0.46705 m 12.265094,-11.86597 2.2051,-2.2051 m -13.636899,13.6369 -0.524763,0.52476 m 10.975726,-10.5766 2.876761,-2.87676 m -12.961477,12.96147 -0.606068,0.60607 m 10.385758,-9.98663 3.03056,-3.03056 m -12.434451,12.43445 -0.577474,0.57747 m 11.242559,-10.84343 1.655533,-1.65554 m -11.925198,11.9252 -0.617186,0.61719 m 11.435635,-11.03652 1.258298,-1.25829 m -11.681327,11.68132 -0.605205,0.60521 m 11.75753,-11.35841 0.788705,-0.78871 m -11.54561,11.54561 -0.608389,0.60839 m 11.858099,-11.45897 0.652456,-0.65246 m -11.506746,11.50675 -0.660834,0.66083 m 11.906506,-11.50738 0.650223,-0.65022 m -11.500475,11.50047 -0.566144,0.56614 m 11.789437,-11.39031 0.646323,-0.64632 m -11.483254,11.48325 -0.530218,0.53022 m 11.74019,-11.34107 0.621933,-0.62193 m -11.403517,11.40352 -0.536317,0.53631 m 11.630307,-11.23118 0.583078,-0.58308 m -11.248681,11.24868 -0.542416,0.54242 m 11.512928,-11.11381 0.55172,-0.55172 m -11.093844,11.09384 -0.548516,0.54852 M 58.01085,285.53924 58.520084,285.03 m -10.927878,10.92788 -0.554615,0.55461 m 11.256002,-10.85687 0.46693,-0.46693 m -10.73993,10.73992 -0.530492,0.5305 m 11.056463,-10.65734 0.454396,-0.4544 m -10.514019,10.51402 -0.542894,0.54289 m 10.855488,-10.45636 0.428415,-0.42842 m -10.334736,10.33474 -0.49522,0.49522 m 10.654513,-10.25539 0.386797,-0.3868 m -10.082229,10.08223 -0.505134,0.50513 m 10.41937,-10.02024 0.379346,-0.37935 m -9.834887,9.83489 -0.509883,0.50988 m 10.16867,-9.76955 0.371892,-0.37189 m -7.843563,7.84356 -0.321489,0.32149 m -1.921564,1.92157 0.566884,-0.56689 m 9.699753,-9.30063 -0.348667,0.34867 m -9.491483,9.49148 2.229313,-2.22931 m 7.790858,-7.39173 -0.32247,0.32247 m -9.164367,9.16436 2.060397,-2.0604 m 7.599717,-7.20059 -0.347648,0.34765 m -8.824077,8.82407 1.936426,-1.93642 m 7.37963,-6.98051 -0.347032,0.34703 m -8.433364,8.43337 1.824148,-1.82415 m 7.10058,-6.70146 -0.346416,0.34642 m -1.280319,1.28032 0.108159,-0.10816 m -5.272333,5.27233 -1.596341,1.59634 m 8.166276,-7.76715 0.365307,-0.36531 m -1.482124,1.48213 -0.299791,0.29979 m -6.199549,6.19955 1.422649,-1.42265 m 6.645306,-6.24619 -0.348115,0.34812 m -1.526299,1.5263 0.481001,-0.481 m -4.875466,4.87546 -1.250613,1.25061 m 7.206052,-6.80692 0.412463,-0.41247 m -1.316971,1.31697 -0.689707,0.68971 m -5.122782,5.12278 1.147269,-1.14727 m 6.03512,-5.63599 -0.440881,0.44088 m -1.751649,1.75165 1.016907,-1.01691 m -4.422838,4.42284 -1.119015,1.11901 m 4.569767,-4.17064 2.186194,-2.1862 m -5.23521,5.23521 -1.11911,1.11911 m 3.960278,-3.56115 2.469295,-2.4693 m -4.547801,4.5478 -1.472243,1.47225 m 0.593348,-0.19423 5.286876,-5.28687 m -0.169426,0.56854 -4.283255,4.28326 m 0.664348,-0.26523 3.489127,-3.48912 m -0.444391,0.84351 -1.542972,1.54297"
         inkscape:connector-curvature="0" />
    </g>
  </g>
</svg>
