<?xml version="1.0" encoding="UTF-8" standalone="no"?>
<!-- Created with Inkscape (http://www.inkscape.org/) -->

<svg
   xmlns:dc="http://purl.org/dc/elements/1.1/"
   xmlns:cc="http://creativecommons.org/ns#"
   xmlns:rdf="http://www.w3.org/1999/02/22-rdf-syntax-ns#"
   xmlns:svg="http://www.w3.org/2000/svg"
   xmlns="http://www.w3.org/2000/svg"
   xmlns:sodipodi="http://sodipodi.sourceforge.net/DTD/sodipodi-0.dtd"
   xmlns:inkscape="http://www.inkscape.org/namespaces/inkscape"
   sodipodi:docname="50.svg"
   viewBox="0 0 188.97638 188.97639"
   height="50mm"
   width="50mm"
   id="svg2"
   version="1.1"
   inkscape:version="0.92.2 2405546, 2018-03-11">
  <sodipodi:namedview
     units="mm"
     inkscape:current-layer="svg2"
     inkscape:window-maximized="1"
     inkscape:window-y="0"
     inkscape:window-x="0"
     inkscape:cy="186.09237"
     inkscape:cx="85.193449"
     inkscape:zoom="1.0858904"
     showgrid="false"
     id="namedview4"
     inkscape:window-height="703"
     inkscape:window-width="1366"
     inkscape:pageshadow="2"
     inkscape:pageopacity="0"
     guidetolerance="10"
     gridtolerance="10"
     objecttolerance="10"
     borderopacity="1"
     bordercolor="#666666"
     pagecolor="#ffffff" />
  <metadata
     id="metadata8">
    <rdf:RDF>
      <cc:Work
         rdf:about="">
        <dc:format>image/svg+xml</dc:format>
        <dc:type
           rdf:resource="http://purl.org/dc/dcmitype/StillImage" />
        <dc:title></dc:title>
      </cc:Work>
    </rdf:RDF>
  </metadata>
  <defs
     id="defs6" />
  <g
     id="g2207">
    <path
       id="path2187"
       d="m 88.954302,188.90326 c -3.513537,-0.43308 -7.10282,-2.64277 -10.991962,-6.76704 -6.456215,-6.84653 -9.970572,-13.74471 -10.905307,-21.40555 -0.165899,-1.35966 -0.143472,-5.69974 0.03641,-7.04534 0.338496,-2.53215 1.004289,-5.21588 1.831608,-7.38296 0.700098,-1.83384 0.683396,-1.59349 0.14386,-2.0703 -0.949164,-0.83883 -3.40676,-3.37192 -4.231927,-4.36192 -3.235444,-3.88174 -5.722724,-8.06859 -7.62263,-12.83118 -0.172715,-0.43296 -0.325136,-0.79849 -0.338713,-0.81229 -0.01357,-0.0139 -0.46211,0.16813 -0.996739,0.40428 -6.236102,2.75467 -11.200555,3.06774 -14.675678,0.92545 -2.959317,-1.82431 -4.648834,-5.15413 -5.078033,-10.00812 -0.118775,-1.34328 -0.05005,-5.32386 0.120864,-7.00094 0.559413,-5.48911 1.73237,-9.84696 3.782037,-14.051335 1.541698,-3.1624 3.381111,-5.745019 5.862511,-8.231231 3.09622,-3.102227 6.73509,-5.452948 11.021036,-7.119626 1.447783,-0.563005 2.374709,-0.854131 4.120283,-1.294107 l 1.480454,-0.373152 0.350429,-0.522339 0.35043,-0.522348 -0.777893,-1.044624 C 57.603588,70.900074 54.680689,62.980069 53.871848,54.184579 53.706864,52.390525 53.684403,48.012856 53.831258,46.273326 54.43504,39.121287 56.34844,32.385529 59.519187,26.250056 l 0.625024,-1.20944 -0.353083,-1.03405 C 59.119755,22.040364 58.813645,20.38359 58.747986,18.360702 l -0.04493,-1.384338 2.267314,-0.05228 c 1.247023,-0.02876 2.820096,-0.05228 3.495716,-0.05228 h 1.228401 l 0.921398,-1.043026 c 2.999576,-3.395531 6.127756,-6.122322 9.782189,-8.526994 10.064593,-6.622661 21.776978,-8.82073 32.681226,-6.133308 8.68545,2.140585 16.28863,7.206324 21.7771,14.509334 l 0.78873,1.049486 2.15328,-0.02614 2.15329,-0.02614 v 0.826549 c -8e-4,1.487271 -0.20974,3.240645 -0.56345,4.723136 l -0.15964,0.669112 0.49028,1.102065 c 2.08886,4.695335 3.38741,9.877965 3.86587,15.428915 0.13233,1.53527 0.13231,6.10067 -2e-5,7.635737 -0.6892,7.994451 -2.94888,15.27639 -6.86414,22.120025 -0.65495,1.144815 -2.34133,3.738216 -3.15666,4.854469 l -0.32592,0.446209 0.14901,0.191128 c 0.0819,0.10512 0.56434,0.738617 1.07197,1.407769 l 0.92296,1.21664 1.08446,0.424641 c 2.10551,0.824446 4.8622,2.312282 6.81651,3.678985 7.90058,5.525085 12.42273,13.227672 13.48411,22.967514 0.18971,1.7409 0.19193,5.67737 0.004,7.61072 -0.55647,5.73307 -1.86177,10.6367 -3.63205,13.64455 -3.08499,5.24161 -8.07429,6.69593 -13.96077,4.06937 l -0.85088,-0.37966 -0.46709,0.86822 c -0.55144,1.025 -0.10473,0.21416 -0.78055,1.26024 v 0 c 0.63603,0.64997 2.9688,4.47013 3.79073,5.87043 2.25454,3.84102 3.71156,7.92517 4.32135,12.11308 0.92447,6.3492 -0.15821,12.61589 -3.23909,18.74812 -1.8628,3.70774 -4.14569,6.93574 -7.43606,10.51451 -2.17705,2.36789 -4.48399,4.20273 -6.56957,5.22521 -1.80154,0.88324 -3.31587,1.22245 -5.15691,1.15521 -1.64883,-0.0602 -2.89676,-0.4251 -4.28686,-1.25339 -4.06342,-2.42122 -7.09602,-7.98256 -9.40681,-17.25074 l -0.44945,-1.80262 -0.13824,0.85798 c -1.37276,8.5202 -3.54166,14.90224 -6.352884,18.69357 -1.78871,2.41233 -3.960447,3.92089 -6.406914,4.45044 -0.548147,0.11866 -2.268858,0.20492 -2.794646,0.14012 z"
       style="fill:none;stroke:#ff0000;stroke-width:0.1;stroke-miterlimit:4;stroke-dasharray:none" />
    <path
       id="path2185"
       d="m 91.431683,182.8598 c 0.780388,-0.38599 1.753185,-1.33584 2.468256,-2.41003 0.64599,-0.97042 1.705845,-3.1313 2.218956,-4.52414 1.474981,-4.0038 2.632967,-9.40358 3.421622,-15.95529 0.178208,-1.48046 0.513653,-5.0042 0.513653,-5.39579 0,-0.31303 -0.0146,-0.33794 -0.17713,-0.30176 -0.958831,0.21347 -5.585923,0.26347 -7.637004,0.0826 -6.257064,-0.55196 -12.407921,-2.59081 -17.492205,-5.7982 l -0.469404,-0.29612 -0.142003,0.37026 c -0.456051,1.18914 -0.986918,3.25256 -1.23125,4.78575 -1.399694,8.78303 1.837877,17.25743 9.630855,25.20888 2.024189,2.06535 3.398446,3.14906 4.961907,3.91285 1.145354,0.55954 1.54906,0.66234 2.523716,0.64275 0.745951,-0.015 0.827634,-0.0336 1.410031,-0.32171 z"
       style="fill:none;stroke:#0000ff;stroke-width:0.1;stroke-miterlimit:4;stroke-dasharray:none" />
    <path
       id="path2183"
       d="m 120.36455,179.2254 c 2.29867,-0.67945 5.36649,-3.36752 8.6488,-7.57822 3.96771,-5.08993 6.22892,-10.42821 6.70823,-15.83685 0.12962,-1.46258 0.0517,-4.12423 -0.16252,-5.54928 -0.65927,-4.38642 -2.52097,-8.83918 -5.20827,-12.45703 -0.36169,-0.48695 -0.67897,-0.88547 -0.70506,-0.88559 -0.0261,0 -0.21919,0.22116 -0.42912,0.49176 -1.50136,1.93519 -4.54513,5.11908 -6.45102,6.74799 -1.85353,1.58415 -4.1778,3.24731 -6.37652,4.5628 -1.96916,1.17813 -6.101,3.09553 -7.65576,3.55268 -0.18401,0.054 -0.33457,0.14622 -0.33457,0.20471 0,0.26826 0.58612,4.32027 0.8726,6.03256 1.63713,9.78507 4.16301,16.73167 7.11394,19.56457 1.05943,1.01703 1.87821,1.38114 2.95588,1.31443 0.32473,-0.0201 0.78526,-0.0941 1.02339,-0.16453 z"
       style="fill:none;stroke:#0000ff;stroke-width:0.1;stroke-miterlimit:4;stroke-dasharray:none" />
    <path
       id="path2181"
       d="m 99.424385,150.97647 c 6.664355,-0.84562 12.807185,-3.36644 18.381685,-7.54329 3.12869,-2.34423 6.315,-5.55315 8.775,-8.83719 4.72487,-6.30764 7.84631,-13.90847 9.05172,-22.04131 0.87039,-5.87252 0.66463,-12.05411 -0.58842,-17.678095 -1.34039,-6.015898 -3.76379,-11.520487 -7.20033,-16.355058 -0.43955,-0.618352 -0.82901,-1.113302 -0.86545,-1.099887 -0.0365,0.01341 -0.57802,0.575168 -1.20347,1.248344 -0.95958,1.032807 -1.85873,1.89582 -3.93275,3.774699 l -0.30413,0.275516 0.48507,0.629752 c 0.26678,0.346363 0.84955,1.178816 1.29504,1.849896 2.98434,4.495567 4.8151,9.309987 5.70245,14.995963 0.19984,1.28048 0.32639,2.87541 0.37167,4.68377 0.24169,9.65536 -3.04821,19.10363 -9.14125,26.25277 -0.86089,1.0101 -2.76786,2.9254 -3.78277,3.79929 -5.33864,4.59682 -11.55825,7.25488 -18.293971,7.81826 -1.376229,0.11511 -4.537145,0.0509 -5.817417,-0.11819 -8.166347,-1.07851 -15.032031,-4.99771 -20.296927,-11.58628 -3.000732,-3.75517 -5.33357,-8.52749 -6.564001,-13.42806 -1.820788,-7.25185 -1.507108,-14.93826 0.903719,-22.144701 1.027118,-3.070259 2.344501,-5.837499 4.051321,-8.510037 0.593022,-0.928554 0.604413,-0.955626 0.443765,-1.054765 -0.742678,-0.458301 -2.975011,-2.351696 -4.194998,-3.558072 L 65.74,81.400571 65.235952,82.178464 c -2.121915,3.274731 -4.154952,7.65041 -5.35888,11.533837 -3.759386,12.126389 -2.874315,24.954709 2.467686,35.766949 4.834982,9.78604 12.686077,16.84484 22.243603,19.99891 2.176454,0.71825 5.010715,1.31183 7.475477,1.5656 1.477886,0.15215 5.953544,0.11118 7.360547,-0.0672 z"
       style="fill:none;stroke:#0000ff;stroke-width:0.1;stroke-miterlimit:4;stroke-dasharray:none" />
    <path
       id="path2179"
       d="m 99.22758,140.50646 c 7.74439,-1.11206 14.52087,-5.1117 19.77382,-11.67101 0.8292,-1.0354 2.28981,-3.18814 2.98143,-4.39421 0.88913,-1.55051 2.56606,-5.17029 2.4493,-5.28703 -0.0204,-0.0203 -2.5646,0.0371 -5.65386,0.12783 -14.65638,0.4302 -22.364907,0.65466 -35.491984,1.03348 -7.81517,0.22553 -14.224215,0.42253 -14.24232,0.4378 -0.117017,0.0986 1.323292,3.30613 2.152465,4.79351 4.339448,7.78408 11.192676,12.98374 19.292958,14.63785 2.089824,0.42674 3.052121,0.50793 5.628654,0.4749 1.47946,-0.019 2.538516,-0.0711 3.109537,-0.15312 z"
       style="fill:none;stroke:#0000ff;stroke-width:0.1;stroke-miterlimit:4;stroke-dasharray:none" />
    <path
       id="path2177"
       d="m 141.65008,125.10737 c 2.3856,-0.73681 4.19032,-4.69361 5.1615,-11.31646 0.3229,-2.20198 0.41528,-3.74273 0.37385,-6.23488 -0.0477,-2.86814 -0.23633,-4.42764 -0.81411,-6.73047 -1.39873,-5.574879 -4.64759,-10.438222 -9.37701,-14.036819 l -0.6498,-0.494442 0.15779,0.397405 c 0.0868,0.218564 0.23186,0.58337 0.32238,0.810671 0.33409,0.838892 0.95737,2.733878 1.32695,4.034346 1.44746,5.093345 2.0452,10.079839 1.88017,15.684749 -0.15366,5.21814 -1.08155,10.29032 -2.81632,15.39488 -0.26216,0.77141 -0.47666,1.43175 -0.47666,1.46741 0,0.0706 1.21882,0.61763 1.84998,0.83016 1.13944,0.38367 2.2236,0.45217 3.06128,0.19345 z"
       style="fill:none;stroke:#0000ff;stroke-width:0.1;stroke-miterlimit:4;stroke-dasharray:none" />
    <path
       id="path2175"
       d="m 47.448312,123.22033 c 1.908035,-0.201 4.317837,-0.95926 6.975557,-2.19489 0.627307,-0.29165 0.692952,-0.34231 0.649326,-0.50102 -0.165989,-0.60389 -0.704927,-3.46385 -0.871395,-4.62419 -0.412069,-2.87226 -0.468783,-3.75312 -0.471356,-7.32086 -0.0019,-2.64656 0.02676,-3.63337 0.137196,-4.72313 0.59945,-5.915016 1.888105,-11.043052 4.033924,-16.052474 0.24502,-0.572004 0.432534,-1.052952 0.416699,-1.068791 -0.05476,-0.05475 -2.706146,1.274555 -3.568861,1.789298 -1.854823,1.106702 -3.40298,2.335395 -5.00187,3.96975 -1.286909,1.315456 -1.896325,2.066435 -2.897155,3.570156 -2.819962,4.236901 -4.422011,9.272411 -4.983495,15.663951 -0.152855,1.73998 -0.13462,5.19051 0.03307,6.25816 0.298796,1.90235 0.823674,3.28067 1.553323,4.07899 0.620856,0.67928 1.34023,1.03045 2.36113,1.15261 0.731724,0.0876 0.824585,0.0877 1.633907,0.002 z"
       style="fill:none;stroke:#0000ff;stroke-width:0.1;stroke-miterlimit:4;stroke-dasharray:none" />
    <path
       id="path2173"
       d="m 76.763513,119.24581 c 16.286957,-0.48261 47.274207,-1.3776 47.696657,-1.3776 h 0.46548 l 0.31376,-1.00367 c 0.8112,-2.59493 1.36315,-5.54531 1.57941,-8.4426 0.14362,-1.92421 0.0787,-5.49221 -0.1235,-6.78584 l -0.0456,-0.29152 -0.76125,0.0371 c -0.41868,0.0204 -13.46114,0.2857 -28.983236,0.58949 -15.522096,0.30379 -28.544717,0.57174 -28.939158,0.59546 l -0.717166,0.0431 -0.08775,0.64291 c -0.230481,1.68862 -0.28356,2.61159 -0.285966,4.97245 -0.0033,3.21699 0.209159,5.29006 0.824445,8.04527 0.22213,0.99468 0.755451,2.97227 0.83956,3.11314 0.05443,0.0912 1.078027,0.074 8.224282,-0.13774 z"
       style="fill:none;stroke:#0000ff;stroke-width:0.1;stroke-miterlimit:4;stroke-dasharray:none" />
    <path
       id="path2171"
       d="m 97.293027,100.19508 c 15.995153,-0.325091 29.092963,-0.601947 29.106243,-0.615234 0.0133,-0.01328 -0.0969,-0.615708 -0.24474,-1.338734 -0.90198,-4.409662 -2.64905,-8.604304 -5.09095,-12.2231 -0.38291,-0.567454 -0.84941,-1.229032 -1.03667,-1.470187 l -0.34049,-0.438448 -0.23167,0.181217 c -0.12742,0.09967 -0.65677,0.479367 -1.17634,0.843774 -6.3447,4.449966 -13.29115,7.105314 -20.664641,7.89925 -1.631089,0.175629 -4.874041,0.237203 -6.4946,0.123312 -5.335067,-0.37493 -10.08394,-1.659528 -14.760458,-3.992798 -0.801001,-0.399648 -1.844068,-0.959175 -2.317927,-1.243389 -0.47386,-0.284222 -0.886183,-0.516766 -0.916272,-0.516766 -0.05638,0 -0.908948,1.347873 -1.468882,2.322209 -1.664104,2.895708 -3.185466,6.89422 -3.946061,10.371224 l -0.150674,0.68879 0.326022,-2e-5 c 0.179312,0 13.412962,-0.266 29.40811,-0.5911 z"
       style="fill:none;stroke:#0000ff;stroke-width:0.1;stroke-miterlimit:4;stroke-dasharray:none" />
    <path
       id="path2169"
       d="m 96.20071,90.628887 c 6.95045,-0.533604 13.53319,-2.840659 19.6373,-6.882303 8.82876,-5.845672 15.57658,-14.895966 18.99674,-25.478715 0.82105,-2.540516 1.52517,-5.559557 1.89783,-8.137315 0.37806,-2.615126 0.43281,-3.479966 0.43354,-6.848548 8e-4,-2.802188 -0.0223,-3.436847 -0.17342,-4.816365 -0.38376,-3.502148 -1.06178,-6.632719 -2.098,-9.687097 -0.55176,-1.626389 -0.83843,-2.381752 -0.90388,-2.381752 -0.0293,0 -0.14819,0.193652 -0.26427,0.430339 -0.94555,1.927828 -2.97145,4.410377 -4.81734,5.903193 -2.20302,1.781627 -4.84983,3.057799 -7.52126,3.62641 -1.68305,0.358234 -4.24157,0.461439 -5.90419,0.238161 -3.2501,-0.436466 -6.26272,-1.731466 -8.89563,-3.823869 -0.88786,-0.705587 -2.50134,-2.372607 -3.20492,-3.311263 -2.49735,-3.331734 -3.958825,-7.633618 -3.958825,-11.652912 v -0.91581 l 8.875955,-0.04918 c 4.88178,-0.02706 11.42427,-0.07566 14.53888,-0.108015 l 5.66293,-0.05884 -0.81931,-0.983986 c -1.32884,-1.595954 -3.25659,-3.541096 -4.69557,-4.737944 -5.93623,-4.93737 -12.96774,-7.770273 -20.68952,-8.335539 -1.40134,-0.102581 -4.785413,-0.05586 -6.061623,0.08363 -8.209222,0.8975 -15.692496,4.093218 -22.346452,9.543006 -1.320933,1.081882 -3.187254,2.809736 -4.072191,3.770065 l -0.740598,0.803689 8.777552,-0.05178 c 4.827653,-0.02848 10.722861,-0.07514 13.100461,-0.103688 l 4.322912,-0.05191 -0.05128,1.300227 c -0.105555,2.676334 -0.509923,4.7146 -1.371183,6.911627 -0.966276,2.464917 -2.287024,4.525 -4.096396,6.389498 -1.53891,1.585796 -2.990015,2.664098 -4.858854,3.610559 -2.571791,1.30247 -5.003688,1.881727 -7.91367,1.884967 -2.144349,0.0024 -3.555066,-0.219631 -5.547867,-0.873124 -2.734365,-0.896673 -5.123323,-2.398031 -7.208996,-4.530549 -1.00504,-1.027611 -1.557065,-1.694385 -2.237698,-2.702842 -0.24838,-0.368012 -0.464799,-0.68355 -0.480931,-0.701194 -0.01614,-0.01765 -0.245598,0.425146 -0.509925,0.983986 -2.473221,5.228877 -3.98258,10.674451 -4.601727,16.602422 -0.170315,1.630674 -0.236533,5.640587 -0.121544,7.360221 0.643371,9.621435 3.959176,18.184529 9.677905,24.993267 0.865868,1.030903 3.058609,3.239033 4.105274,4.134077 5.668897,4.847701 12.311061,7.734278 19.641247,8.535763 0.606164,0.06628 1.296953,0.132004 1.535089,0.146048 1.068183,0.06301 4.000875,0.04728 4.963458,-0.02662 z"
       style="fill:none;stroke:#0000ff;stroke-width:0.1;stroke-miterlimit:4;stroke-dasharray:none" />
    <path
       id="path2167"
       d="m 124.06451,50.634866 c -0.71534,-0.09243 -1.13628,-0.241583 -2.40675,-0.85279 -1.94048,-0.933535 -3.08375,-1.797901 -4.46134,-3.372997 -1.85368,-2.119441 -2.75456,-2.932797 -4.133,-3.731461 -0.37906,-0.219624 -0.81828,-0.485656 -0.97606,-0.59118 -0.15778,-0.105528 -0.4766,-0.242683 -0.7085,-0.304796 -0.60291,-0.161483 -2.37315,-0.274611 -3.40078,-0.217325 -0.76931,0.04288 -0.95638,0.08299 -1.50804,0.323321 -1.48554,0.64718 -3.07361,1.699984 -4.17229,2.766002 -1.07493,1.042988 -1.93383,1.509197 -3.570805,1.938246 -1.197119,0.313761 -3.360962,0.24734 -3.543748,-0.108776 -0.177689,-0.346187 0.108236,-0.470854 1.303571,-0.568388 0.966989,-0.07891 1.460241,-0.239116 2.799625,-0.909352 1.330167,-0.665624 2.213757,-1.307487 3.848247,-2.795456 0.82944,-0.755086 2.27022,-1.843732 2.65166,-2.003572 0.44843,-0.187915 1.64331,-0.340119 3.12374,-0.397898 1.32997,-0.05191 1.35589,-0.04976 2.01214,0.166584 2.50364,0.825369 3.52761,1.421273 4.84807,2.821377 0.59902,0.635154 0.8133,0.917928 2.09788,2.768455 1.08761,1.566775 1.96009,2.432971 3.42794,3.403252 0.8826,0.583417 0.9024,0.591707 1.84998,0.774195 2.13792,0.411734 2.32542,0.480818 2.21857,0.817428 -0.0574,0.181003 -0.34995,0.197908 -1.30011,0.07514 z"
       style="fill:none;stroke:#0000ff;stroke-width:0.1;stroke-miterlimit:4;stroke-dasharray:none" />
    <path
       id="path2165"
       d="m 79.310803,35.24649 c 2.699613,-0.400984 5.333252,-1.503091 7.570373,-3.167994 0.934115,-0.695184 2.778364,-2.548611 3.490565,-3.507937 1.508282,-2.031633 2.62448,-4.471806 3.190831,-6.975624 0.210485,-0.930547 0.429966,-2.572789 0.429966,-3.217181 v -0.427361 l -4.113248,0.05086 c -2.262286,0.02798 -9.090474,0.06936 -15.17375,0.09197 -6.083277,0.02261 -11.911288,0.06187 -12.951137,0.08725 l -1.890634,0.04614 0.05326,0.728434 c 0.294067,4.021326 2.033337,8.062958 4.708944,10.942409 2.067934,2.225484 4.41045,3.756067 7.16695,4.682831 1.248439,0.419739 2.403284,0.645294 4.211531,0.822567 0.562365,0.05512 2.499076,-0.03647 3.306342,-0.156369 z"
       style="fill:none;stroke:#0000ff;stroke-width:0.1;stroke-miterlimit:4;stroke-dasharray:none" />
    <path
       id="path2163"
       d="m 70.139638,33.249818 c -3.38857,-0.718499 -5.730733,-4.000846 -5.200437,-7.287985 0.22827,-1.414968 0.773164,-2.472241 1.808413,-3.508906 1.052589,-1.054032 2.293074,-1.64666 3.757452,-1.795083 1.495008,-0.151526 2.851009,0.192249 4.39728,1.114807 1.55981,0.930634 1.978434,1.430899 2.413264,2.883896 0.383842,1.282624 0.484062,1.927804 0.4354,2.80295 -0.215612,3.877569 -3.793922,6.599757 -7.611372,5.790321 z"
       style="fill:none;stroke:#0000ff;stroke-width:0.1;stroke-miterlimit:4;stroke-dasharray:none" />
    <path
       id="path2161"
       d="m 74.841204,27.894458 c 0.664576,-0.309186 1.224042,-0.850339 1.537874,-1.487537 0.238821,-0.484897 0.255161,-0.571207 0.255161,-1.347715 0,-0.777343 -0.01617,-0.862523 -0.256609,-1.351295 -0.299137,-0.608104 -0.726425,-1.024514 -1.347753,-1.313442 -0.366887,-0.170609 -0.55736,-0.206025 -1.115644,-0.207437 -0.621497,-0.0016 -0.719312,0.02107 -1.273069,0.294741 -1.074181,0.530866 -1.711918,1.456126 -1.776863,2.577961 -0.04544,0.784947 0.07913,1.295201 0.460087,1.884595 0.744311,1.151542 2.22439,1.551411 3.516816,0.950129 z"
       style="fill:none;stroke:#0000ff;stroke-width:0.1;stroke-miterlimit:4;stroke-dasharray:none" />
    <path
       id="path2159"
       d="m 120.08903,35.24649 c 2.69961,-0.400984 5.33324,-1.503091 7.57037,-3.167994 0.93411,-0.695184 2.77836,-2.548611 3.49056,-3.507937 1.50828,-2.031633 2.62448,-4.471806 3.19083,-6.975624 0.21049,-0.930547 0.42997,-2.572789 0.42997,-3.217181 v -0.427361 l -4.11325,0.05086 c -2.26228,0.02798 -9.09047,0.06936 -15.17375,0.09197 -6.08327,0.02261 -11.91129,0.06187 -12.95113,0.08725 l -1.89064,0.04614 0.0533,0.728434 c 0.2942,4.0232 2.0328,8.064483 4.70659,10.940253 2.07272,2.229302 4.41195,3.757934 7.1693,4.684988 1.24844,0.419739 2.40329,0.645294 4.21153,0.822567 0.56237,0.05512 2.49908,-0.03647 3.30635,-0.156369 z"
       style="fill:none;stroke:#0000ff;stroke-width:0.1;stroke-miterlimit:4;stroke-dasharray:none" />
    <path
       id="path2157"
       d="m 113.24017,31.66706 c -2.21292,-0.346609 -4.18417,-1.831039 -5.09293,-3.835175 -0.74879,-1.651344 -0.74413,-3.654667 0.0122,-5.271034 0.77602,-1.658337 2.15514,-2.824242 3.99373,-3.376298 0.58356,-0.17522 0.84916,-0.208898 1.67737,-0.212688 1.47181,-0.0067 2.28088,0.239294 3.87185,1.177407 0.98367,0.580017 1.60299,1.145349 1.90015,1.734482 0.30213,0.599018 0.76386,2.222849 0.83808,2.947433 0.26539,2.590834 -1.09145,5.053378 -3.43697,6.237826 -1.02073,0.515448 -2.64401,0.773397 -3.76352,0.598047 z"
       style="fill:none;stroke:#0000ff;stroke-width:0.1;stroke-miterlimit:4;stroke-dasharray:none" />
    <path
       id="path819"
       d="m 117.60927,26.204285 c 0.85253,-0.437545 1.39892,-1.078098 1.664,-1.950787 0.74293,-2.44581 -1.60843,-4.533167 -3.89907,-3.461298 -1.96941,0.921561 -2.45522,3.437897 -0.95437,4.943331 0.57735,0.579113 1.05031,0.747663 2.0086,0.715819 0.63658,-0.02116 0.81229,-0.05792 1.18084,-0.247065 z"
       style="fill:none;stroke:#0000ff;stroke-width:0.1;stroke-miterlimit:4;stroke-dasharray:none" />
    <path
       id="path1019"
       style="fill:none;stroke:#0000ff;stroke-width:0.1"
       d="m 70.757355,12.133776 -5.019839,5.019839 m 1.423806,-0.0096 8.794155,-8.794155 M 79.722297,5.997264 68.585128,17.134433 M 79.520969,7.612805 81.668292,5.465482 M 60.951165,26.182607 60.39592,26.737852 M 83.296643,5.251343 84.370309,4.177677 M 61.441472,27.106514 58.213686,30.3343 M 85.067258,4.894941 86.550251,3.411948 M 67.865729,22.096471 66.46922,23.49298 m -8.32614,8.326139 0.921935,-0.921935 M 88.706991,2.669422 87.803903,3.57251 m -21.886907,21.886907 3.939,-3.939 M 58.1408,33.235613 57.419433,33.95698 M 89.952537,2.838089 90.570992,2.219634 m -19.48214,19.482141 -5.109233,5.109233 m -9.2921,9.2921 0.787195,-0.787195 M 92.456368,1.748472 91.686332,2.518508 M 66.047967,28.156873 72.418035,21.786805 M 56.849503,37.355337 56.261097,37.943743 M 93.417964,2.20109 94.090436,1.528618 M 69.969014,25.65004 66.497851,29.121203 M 55.302899,40.316155 56.460933,39.158121 M 95.969043,1.064224 95.149596,1.883671 m -28.17242,28.17242 3.207969,-3.207969 M 56.034917,40.99835 55.460606,41.572661 M 96.774637,1.672844 97.284822,1.162659 M 70.704051,27.74343 67.694919,30.752562 m -12.44945,12.449449 0.55523,-0.55523 M 98.740813,1.120881 98.187546,1.674148 M 68.412661,31.449033 71.385992,28.475702 M 55.560741,44.300953 55.030332,44.831362 M 99.621544,1.654363 100.25307,1.02284 m -27.996982,27.99698 -2.83882,2.83882 M 54.832146,46.443762 55.320784,45.955124 M 101.56441,1.125712 101.05554,1.634579 M 70.4112,32.278922 73.392281,29.297841 M 55.368843,47.321279 54.839365,47.850757 M 102.48954,1.614795 102.87575,1.228585 M 76.726355,27.37798 71.702015,32.40232 M 54.846583,49.257752 55.345096,48.759239 M 104.29072,1.22783 103.70196,1.81659 M 73.345413,32.173136 76.473102,29.045447 M 55.321351,50.197198 54.853802,50.664747 M 104.93204,2.00072 105.43572,1.497044 M 76.186996,30.745766 75.807003,31.125759 M 54.861021,52.071741 55.297605,51.635157 M 106.62499,1.721985 106.16212,2.184851 M 54.786717,53.560259 55.273859,53.073117 M 107.81426,1.946926 107.39221,2.368982 M 54.977184,54.784006 55.46998,54.29121 m 53.51329,-52.099073 -0.38283,0.38283 M 55.16765,56.007752 55.643414,55.531988 M 110.03829,2.551323 109.64326,2.946355 M 55.358117,57.231499 55.816849,56.772767 M 111.09332,2.910509 110.71968,3.284149 M 55.548584,58.455246 55.990285,58.013545 M 112.14835,3.269696 111.7961,3.621944 M 55.73905,59.678993 56.163719,59.254324 M 113.20337,3.628882 112.87252,3.959738 m -56.888351,56.88835 0.357632,-0.357632 M 114.2584,3.988069 113.94894,4.297534 m -57.643934,57.64393 0.410077,-0.410077 M 115.26731,4.393373 114.86088,4.799806 M 85.582993,34.077691 91.00747,28.653214 M 57.040532,62.620152 56.625844,63.03484 M 115.80501,5.269887 116.18075,4.894152 M 57.365981,63.708917 56.946682,64.128216 M 116.74914,5.739968 117.09418,5.394931 m -59.40275,59.40275 -0.423911,0.423911 M 117.69328,6.210049 118.00762,5.89571 M 58.016879,65.886446 57.589556,66.313769 M 118.63741,6.680129 118.92105,6.396488 M 58.342328,66.97521 58.028783,67.288755 M 119.49073,7.24102 119.83448,6.897268 M 58.829742,67.90201 58.468011,68.263741 M 120.31739,7.828575 120.72882,7.417144 m -61.438311,61.438313 -0.38327,0.38327 M 121.14405,8.41613 121.51541,8.044774 M 59.751276,69.808903 59.346467,70.213712 M 121.97071,9.003685 122.30199,8.672404 m -12.92859,12.928594 -0.34248,0.34248 M 59.785695,71.188698 60.212043,70.76235 M 123.08857,9.300034 122.79737,9.59124 m -13.79382,13.793813 3.19872,-3.198714 m -51.52946,51.529458 -0.404984,0.404984 m 63.356194,-61.941985 0.25114,-0.251132 m -10.05105,10.05105 -5.2117,5.211697 m -47.794547,47.794546 0.315714,-0.315714 m 63.528163,-62.113949 -0.33188,0.331878 m -15.47124,15.471244 6.30863,-6.308633 M 61.685779,73.531254 61.3679,73.849133 m -17.781582,17.781582 6.702913,-6.702913 m 75.159089,-73.744878 -0.41453,0.414531 m -15.91045,15.910455 3.7597,-3.759703 M 62.271432,74.359815 61.917938,74.713309 M 40.799036,95.832211 53.227879,83.403368 m 72.920601,-71.506386 -0.41076,0.410755 m -16.0722,16.072203 3.23506,-3.235064 M 62.857084,75.188377 62.467975,75.577486 M 40.789683,97.255778 54.916055,83.129406 m 71.898755,-70.484545 -0.37316,0.373159 m -16.09884,16.098843 3.08789,-3.087885 m -49.987964,49.98796 -0.424724,0.424724 M 39.670538,99.789136 57.428776,82.030898 m 70.052374,-68.638158 -0.33557,0.335564 m -16.02066,16.020667 3.00255,-3.002557 M 64.028389,76.845499 63.598128,77.27576 m -25.14761,25.14761 21.04004,-21.040041 m 68.656922,-67.24271 -0.29797,0.297968 m -15.82978,15.82979 2.97204,-2.972049 M 64.614041,77.67406 52.77389,89.514211 m -14.354894,14.354899 7.394793,-7.394798 m 83.000031,-81.585815 -0.2717,0.271696 m -15.42902,15.42902 3.06353,-3.063524 m -50.976937,50.976932 -7.347258,7.347258 m -20.166667,20.166671 6.193857,-6.19386 m 85.600525,-84.186314 -0.2955,0.2955 m -14.70923,14.709233 5.13484,-5.134846 m -19.17122,19.171225 -1.069548,1.069549 m -40.305837,40.305836 6.843204,-6.843204 m -23.204884,23.204881 -5.01854,5.01854 m 91.839195,-90.424979 0.62386,-0.623856 m -10.82626,10.82626 -3.53048,3.53048 m -14.37725,14.377243 3.84378,-3.843776 m -38.644786,38.644786 -7.502221,7.502221 m -21.651153,21.651151 5.304707,-5.3047 m 76.088793,-74.674583 -1.18867,1.188672 m -50.811382,50.811379 0.464561,-0.464561 m -5.227108,5.227108 -3.842008,3.842008 m -21.003469,21.003467 4.442239,-4.44224 M 68.020764,81.338405 67.576857,81.782312 M 57.378919,91.98025 61.179045,88.180124 M 41.582977,107.77619 37.2187,112.14047 m 31.123353,-29.709141 0.383345,-0.383345 m -8.809537,8.809538 -3.125787,3.125787 m -19.596217,19.596221 3.949332,-3.94934 M 69.433834,82.753762 69.10725,83.080346 m -12.87939,12.87939 2.785684,-2.785684 M 40.920395,111.2672 37.169013,115.01858 M 69.872446,83.729363 70.247852,83.353957 M 58.47498,95.12683 55.851021,97.750789 M 37.144169,116.45764 40.87216,112.72965 M 71.06187,83.954153 70.637643,84.37838 m -15.179578,15.179579 2.518374,-2.518374 m -17.096845,17.096845 -3.693738,3.69374 M 71.40284,85.027397 71.875889,84.554348 m -14.242766,14.242766 -2.396237,2.396236 m -17.84925,17.84925 3.499392,-3.49939 M 72.689907,85.154544 71.40377,86.440681 m -16.744784,16.744779 2.640246,-2.64024 m -16.40477,16.40477 -3.363138,3.36314 m 96.781846,-95.367639 0.50779,-0.50779 m -61.317035,61.317038 -4.61443,4.61443 m -14.03742,14.037421 2.16826,-2.16826 m -16.118439,16.11844 -2.988267,2.98826 m 96.931011,-95.516792 0.37299,-0.372994 m -4.77753,4.77753 -1.25341,1.253417 M 73.950904,86.721974 74.36725,86.305628 m -3.812596,3.812596 -1.545574,1.545574 m -14.199313,14.199312 2.310248,-2.31025 m -15.88668,15.88668 -2.937401,2.9374 m 96.937756,-95.52354 0.3827,-0.382698 M 75.292577,86.794514 74.861101,87.22599 m -7.617578,7.617578 1.735033,-1.735033 m -12.229434,12.229435 -1.981663,1.98166 m -16.055786,16.05579 2.805137,-2.80514 m 94.49834,-93.084121 -0.39241,0.392402 m -59.84118,59.841184 0.436344,-0.436344 m -7.896759,7.896758 -1.09584,1.09584 m -12.490718,12.490721 1.906168,-1.90617 m -14.657797,14.6578 -2.699178,2.69917 m 96.69285,-95.278636 0.39468,-0.394675 m -59.228078,59.228077 -0.441213,0.441213 m -9.96861,9.96861 0.732076,-0.732076 m -10.705115,10.705117 -1.996775,1.99677 m -14.907707,14.90771 2.644623,-2.64462 m 94.193619,-92.779407 -0.41101,0.411005 m -58.60587,58.605874 0.391309,-0.391309 m -11.216206,11.216206 -0.895738,0.895741 m -11.424666,11.42466 2.112901,-2.1129 m -13.444721,13.44472 -2.612451,2.61245 m 96.001932,-94.587718 0.42734,-0.427335 m -58.004847,58.004846 -0.35329,0.35329 m -12.767802,12.767797 1.072027,-1.07202 m -10.287789,10.28779 -1.812571,1.81257 m -13.503508,13.50351 2.632688,-2.63269 M 137.33977,31.818391 136.8961,32.262056 M 79.640375,89.517784 80.06233,89.095829 m -12.701081,12.701081 -1.648612,1.64861 m -10.704673,10.70468 1.697685,-1.69769 m -11.561532,11.56153 -2.885851,2.88585 m 94.931424,-93.517213 0.37918,-0.37918 m -56.456312,56.456318 -0.523269,0.523269 m -15.055027,15.055026 0.554484,-0.55448 m -9.210347,9.21034 -1.745773,1.74578 m -11.862622,11.86262 3.083816,-3.08382 m 91.45776,-90.043544 -0.4263,0.426298 m -55.664298,55.6643 0.441803,-0.441803 m -16.160333,16.160329 -0.638005,0.63801 m -10.00758,10.00758 1.669277,-1.66928 m -9.200613,9.20061 -3.543789,3.54379 m 93.299128,-91.884909 0.47341,-0.473416 m -54.841267,54.841271 -0.425567,0.425567 m -17.381442,17.381447 0.510154,-0.51016 m -8.742267,8.74227 -1.592782,1.59278 m -9.981597,9.9816 4.441399,-4.4414 m 88.181589,-86.76738 -0.44605,0.446048 m -53.92254,53.922546 0.434111,-0.434111 m -18.316927,18.316927 -0.523533,0.52353 m -9.64221,9.64221 1.699033,-1.69903 m -5.901509,5.90151 -4.677197,4.67719 m 91.059682,-89.645467 0.39444,-0.39444 m -52.897929,52.897933 -0.456687,0.456687 m -19.536066,19.536067 0.472911,-0.47291 m -8.331709,8.33171 -9.473937,9.47393 m 89.878127,-88.463914 0.50259,-0.50259 m -51.861379,51.861383 -0.488274,0.488274 m -20.643987,20.643987 0.476822,-0.47682 m -8.139698,8.1397 -7.678744,7.67874 m 87.88182,-86.46761 0.50109,-0.501091 M 87.869571,91.188082 87.34971,91.707943 m -21.595177,21.595177 0.324001,-0.324 m -7.947687,7.94769 -6.213778,6.21377 m 85.972801,-84.558586 0.69488,-0.694879 m -49.520847,49.520849 -0.450514,0.450514 m -22.647782,22.647782 0.364019,-0.36402 m -7.885323,7.88532 -4.093835,4.09384 m 83.806782,-82.39257 0.4275,-0.427498 M 90.31391,91.572171 89.880139,92.005942 M 66.17668,115.7094 l 0.355681,-0.35568 m -7.745666,7.74566 -2.443227,2.44323 m 81.784472,-80.370256 0.45681,-0.456806 m -46.937774,46.937771 -0.500085,0.500085 m -24.806988,24.806986 0.395194,-0.39519 m -7.60601,7.60601 -1.430567,1.43056 m 80.44665,-79.03243 0.43957,-0.439574 m -45.515925,45.515927 -0.483213,0.483213 m -25.912146,25.912144 0.368597,-0.3686 m -7.570574,7.57058 -1.358079,1.35808 m 79.84974,-78.435526 0.6216,-0.621602 m -44.094086,44.094086 -0.463468,0.463468 m -27.020177,27.020174 0.335426,-0.33542 m -7.478851,7.47885 -1.284635,1.28463 m 79.251751,-77.837533 0.43779,-0.437796 m -42.41379,42.413794 -0.38593,0.38593 m -28.128208,28.128205 0.302254,-0.30225 m -7.351958,7.35196 -1.246361,1.24636 m 78.451793,-77.037582 0.54479,-0.544787 m -40.53739,40.537388 -0.593334,0.593334 m -29.205446,29.205447 0.869144,-0.86915 m -7.855921,7.85593 -1.208088,1.20808 M 136.78937,53.581996 137.81366,52.5577 m -38.660981,38.660983 -0.914178,0.914178 m -30.110751,30.110749 0.337619,-0.33762 m -7.319962,7.31996 -1.169814,1.16982 M 136.76725,55.018323 137.36747,54.4181 m -36.53037,36.530377 -0.61925,0.619253 m -31.66726,31.66726 0.353025,-0.35303 m -7.298242,7.29824 -1.164231,1.16423 m 75.159958,-73.745745 1.29348,-1.293471 m -34.27292,34.272919 -0.69337,0.693364 m -32.962681,32.962683 0.376252,-0.37625 m -7.244157,7.24416 -1.191014,1.19101 m 74.73355,-73.319335 0.78144,-0.781438 m -31.83844,31.838434 -0.99853,0.998537 m -34.114232,34.114222 0.309629,-0.30963 m -7.17973,7.17974 -1.232024,1.23202 m 73.012977,-71.598763 1.21333,-1.213332 m -29.08084,29.080839 -0.66344,0.663446 m -35.875033,35.87503 0.243005,-0.24301 m -7.115303,7.11531 -1.148177,1.14817 m 71.869498,-70.455281 0.93108,-0.931083 m -25.78537,25.785377 -1.06942,1.069415 m -37.420444,37.420442 0.258765,-0.25876 m -7.110941,7.11094 -1.086647,1.08665 m 70.076817,-68.662605 1.74701,-1.747014 m -23.01048,23.01048 -0.86949,0.86949 m -39.468673,39.468679 0.265402,-0.26541 m -7.082186,7.08219 -1.071881,1.07188 m 65.008268,-63.594055 3.98258,-3.982582 m -16.67151,16.671511 -2.35746,2.357465 m -41.4871,41.487101 0.222287,-0.22229 m -7.053431,7.05343 -1.057114,1.05711 M 116.83735,84.847723 131.88808,69.796994 m -59.486244,59.486236 -0.213034,0.21304 m -7.88785,7.88785 1.042347,-1.04235 m 63.237521,-61.823302 -9.73369,9.73369 m -46.072215,46.072212 0.24317,-0.24317 m -7.079074,7.07907 -1.051539,1.05154 m 62.853108,-61.438897 1.1292,-1.129195 m -7.9336,7.933598 -0.22336,0.223365 m -47.257174,47.257169 0.178688,-0.17869 m -7.054992,7.055 -1.10535,1.10535 m 62.889348,-61.475143 1.11779,-1.117788 m -7.94753,7.947536 -0.22959,0.229585 m -55.158781,55.15878 1.074445,-1.07444 m 62.871896,-61.457686 -1.14344,1.143445 m -7.05816,7.058154 0.22598,-0.225979 m -54.255946,54.255946 -1.018365,1.01837 m 62.656541,-61.242331 1.19006,-1.190064 m -8.01213,8.012136 -0.25406,0.254055 m -54.884,54.884004 0.989532,-0.98954 m 63.154548,-61.740326 -1.6339,1.633895 m -7.0941,7.094101 0.24603,-0.246028 m -53.963069,53.963068 -1.00263,1.00263 m 62.363829,-60.949611 2.0657,-2.065707 m -8.93978,8.939782 -0.238,0.238001 m -46.574075,46.574075 0.180729,-0.18073 m -7.146264,7.14627 -1.015728,1.01572 m 62.210848,-60.796626 2.48289,-2.482891 m -9.37635,9.376342 -0.28387,0.283871 m -54.337107,54.337114 1.028826,-1.02883 m 63.929111,-62.514897 -2.97097,2.970974 m -7.19447,7.194463 0.29925,-0.299246 m -53.319496,53.319496 -1.11207,1.11207 m 61.799316,-60.385099 3.45142,-3.45142 m -10.38267,10.382665 -0.28036,0.280358 m -54.868855,54.868856 2.173665,-2.17366 m 64.23687,-62.822662 -3.85754,3.857546 m -7.26758,7.267575 0.3003,-0.300301 m -52.631603,52.631602 -3.421636,3.42164 m 63.512869,-62.098657 4.24385,-4.243847 M 126.02853,92.6271 125.6667,92.988932 m -56.811882,56.811878 4.886056,-4.88605 m 64.433286,-63.019077 -4.73163,4.731637 m -7.40086,7.400855 0.32615,-0.326144 m -51.800338,51.800329 -6.04727,6.04727 m 65.313178,-63.898963 5.18787,-5.187866 m -12.31228,12.312284 -0.32442,0.324413 m -58.289573,58.289572 7.326925,-7.32692 m 64.396018,-62.981803 -2.61248,2.612475 m -2.98119,2.981192 1.42384,-1.423841 m -8.59797,8.597967 -0.37795,0.377957 m -51.448762,51.448763 1.052925,-1.05293 m -3.575367,3.57537 -4.613335,4.61333 m 69.893919,-68.479699 2.63303,-2.633038 m -4.50909,4.509097 -1.55151,1.551508 m -7.5942,7.594198 0.37736,-0.377355 m -50.217891,50.217889 -0.982575,0.98257 m -8.05639,8.05639 4.13081,-4.13081 m 69.202216,-67.788003 -2.68625,2.686259 m -3.7695,3.769491 1.42138,-1.421374 m -8.80045,8.800452 -0.35879,0.35879 m -50.168041,50.168035 1.000548,-1.00055 m -6.233311,6.23331 -3.745958,3.74596 m 71.399632,-69.985411 2.66389,-2.663895 m -5.4075,5.407498 -1.46765,1.467649 m -8.70435,8.704349 1.26288,-1.262872 m -48.834675,48.834672 -1.018521,1.01852 m -9.901053,9.90105 3.646391,-3.64639 m 71.147628,-69.733408 -2.64154,2.641531 m -4.65301,4.653012 1.51393,-1.513924 m -9.0178,9.017799 -0.49939,0.49939 m -48.680171,48.68017 1.036494,-1.0365 m -8.352591,8.3526 -3.530853,3.53085 m 72.928901,-71.514693 2.61917,-2.619167 m -6.20386,6.203862 -1.5907,1.590695 m -8.08132,8.081323 0.43987,-0.43986 m -47.279639,47.27963 -1.004376,1.00438 m -11.580628,11.58062 3.377323,-3.37732 m 72.59722,-71.183001 -2.66151,2.661503 m -5.47015,5.470157 1.53074,-1.530742 m -9.40501,9.405013 -0.51856,0.51855 m -46.857624,46.85763 1.010431,-1.01043 m -10.172668,10.17266 -3.182774,3.18278 m 73.693365,-72.279154 2.67988,-2.679878 m -6.97021,6.970215 -1.59959,1.599587 m -8.57553,8.57553 0.59725,-0.59725 m -45.451868,45.45187 -1.016485,1.01648 m -13.109393,13.10939 3.10146,-3.10146 m 73.670496,-72.256272 -2.69826,2.698253 m -6.30969,6.30969 1.66843,-1.668432 m -9.56791,9.567911 -0.85875,0.85876 m -44.884582,44.88457 1.014049,-1.01405 m -11.824241,11.82424 -3.063585,3.06359 m 74.454029,-73.039814 2.6847,-2.684705 m -7.79037,7.79038 -1.60773,1.607721 m -8.98082,8.980828 0.55912,-0.55913 m -43.339073,43.33908 -1.039211,1.03921 m -14.651205,14.6512 2.983688,-2.98368 m 74.430811,-73.0166 -2.69001,2.690013 m -7.17057,7.170567 1.70084,-1.700843 m -10.25468,10.254683 -0.60552,0.60552 m -42.628435,42.62843 1.043435,-1.04343 m -13.496322,13.49632 -2.904656,2.90466 M 144.54059,93.914029 147.2935,91.16112 m -8.52909,8.529095 -1.79396,1.793965 m -9.47474,9.47473 0.61012,-0.61012 m -40.863328,40.86333 -1.047659,1.04766 m -16.063879,16.06388 2.832282,-2.83228 m 74.897084,-73.482876 -2.81743,2.817431 m -8.12242,8.122425 1.92,-1.92001 m -10.9115,10.9115 -0.59121,0.59121 m -29.217526,29.21753 0.448751,-0.44875 m -10.175516,10.17552 -1.083717,1.08371 m -16.770216,16.77022 2.759908,-2.75991 m 75.019166,-73.604945 -2.77341,2.773406 m -8.41628,8.416279 1.8163,-1.8163 m -11.38211,11.38211 -0.68812,0.68812 m -38.383051,38.38305 1.122517,-1.12252 m -15.885767,15.88577 -2.780572,2.78057 m 75.057843,-73.643624 2.79258,-2.79258 m -9.74856,9.748564 -1.93721,1.9372 m -10.79663,10.79663 0.88635,-0.88635 m -25.41713,25.41714 -0.27708,0.27707 m -11.784083,11.78409 1.111248,-1.11125 m -16.665797,16.66579 -2.805798,2.8058 m 75.00422,-73.590002 2.9104,-2.910401 m -10.25741,10.257413 -1.92443,1.92443 m -11.64819,11.64819 1.12583,-1.12584 m -22.3823,22.38231 -0.99157,0.99157 m -12.243946,12.24394 1.111247,-1.11124 m -17.457094,17.45709 -2.707873,2.70787 m 74.827446,-73.41323 2.9238,-2.923796 m -10.62584,10.625846 -1.97608,1.97607 m -12.24049,12.2405 1.29189,-1.29189 m -20.43295,20.43295 -0.26014,0.26013 m -13.221659,13.22166 1.306234,-1.30623 m -18.394552,18.39455 -2.658776,2.65877 m 74.650673,-73.236457 2.95148,-2.951474 m -10.94113,10.941131 -2.2103,2.2103 m -13.92002,13.92001 1.90094,-1.90093 m -15.44983,15.44983 -1.88506,1.88506 m -13.986613,13.98661 1.370432,-1.37044 m -19.292571,19.29258 -2.649117,2.64911 m 74.431499,-73.01728 3.02156,-3.021557 m -11.65528,11.655277 -2.33029,2.33029 m -25.89956,25.89956 12.79993,-12.79993 m -26.998928,26.99892 -1.418234,1.41824 m -21.411813,21.41181 2.639458,-2.63946 m 74.553237,-73.139022 -3.07216,3.072162 m -11.13404,11.13404 2.1059,-2.1059 m -17.46166,17.46166 -8.37115,8.37115 m -16.468329,16.46833 1.466035,-1.46604 m -21.088609,21.08861 -2.629799,2.6298 m 73.790112,-72.3759 3.15788,-3.15788 m -12.56097,12.56097 -2.3157,2.31571 m -19.05474,19.05474 2.36233,-2.36233 m -20.306483,20.30648 -1.334913,1.33491 m -23.176068,23.17607 2.669308,-2.66931 m 74.011416,-72.5972 -3.28643,3.28643 m -12.26071,12.26071 2.5255,-2.5255 m -37.39462,37.39462 -1.591089,1.59109 m -24.030566,24.03056 2.631278,-2.63128 m 73.573617,-72.1594 -3.37561,3.37561 m -12.68041,12.68041 2.98492,-2.98492 m -35.75866,35.75866 -2.09642,2.09643 m -24.635906,24.6359 2.593249,-2.59325 m 73.161237,-71.74702 -3.45232,3.45231 m -13.5268,13.52681 2.69501,-2.69502 m -33.02455,33.02456 -3.2706,3.27059 m -24.532417,24.53242 2.555219,-2.55522 m 72.748858,-71.33464 -3.73492,3.73492 m -14.89416,14.89416 3.65203,-3.65203 m -30.39738,30.39738 -5.54601,5.54601 m -23.740828,23.74083 2.588119,-2.58812 m 71.989209,-70.575 -3.74119,3.74119 m -14.91823,14.91823 3.26577,-3.26577 m -27.73467,27.73467 -7.85697,7.85697 m -22.949229,22.94923 2.61564,-2.61564 m 71.319719,-69.9055 -3.83224,3.83223 m -17.29249,17.2925 5.75973,-5.75974 m -25.2726,25.27261 -10.7801,10.7801 m -21.874849,21.87484 2.64316,-2.64316 m 70.650219,-69.236 -3.93859,3.93859 m -17.63362,17.63362 5.9636,-5.9636 m -22.31878,22.31878 -3.14991,3.14991 m -10.24743,10.24743 7.09669,-7.09669 m -25.751849,25.75185 -2.617483,2.61748 m 68.443062,-67.02884 4.15515,-4.15515 m -14.63329,14.63328 -24.29525,24.29525 m -12.67184,12.67184 7.55021,-7.55021 m -25.197794,25.1978 -2.627011,2.62701 m 67.371705,-65.95749 4.5041,-4.50411 m -13.69149,13.69149 -2.8086,2.80861 m -19.03735,19.03735 16.84411,-16.84411 m -25.17896,25.17895 -8.003725,8.00373 m -19.276552,19.27655 2.639897,-2.63989 m 68.2585,-66.84429 -4.57482,4.57482 m -10.65306,10.65306 2.9638,-2.9638 m -6.58136,6.58136 -12.67216,12.67216 m -20.379053,20.37905 8.457243,-8.45724 m -24.082965,24.08296 -2.652784,2.65279 m 64.305079,-62.89087 5.65116,-5.65115 m -10.78809,10.78808 -3.18643,3.18643 m -6.88919,6.8892 2.79208,-2.79209 m -7.94747,7.94748 -1.89346,1.89345 m -24.039981,24.03998 8.910771,-8.91076 m -23.498837,23.49883 -2.615837,2.61584 m 56.319434,-54.90523 12.93494,-12.93493 m -17.61466,17.61466 -2.72013,2.72012 m -31.984371,31.98438 9.409521,-9.40952 m -22.86454,22.86454 -2.663966,2.66396 m 56.680956,-55.26674 10.92654,-10.92654 m -16.22912,16.22912 -2.70684,2.70684 m -26.15102,26.15102 3.248,-3.248 m -5.29595,5.29595 -4.90432,4.90432 m -14.752019,14.75202 2.712096,-2.7121 m 64.053923,-62.6397 -9.49363,9.49363 m -8.86024,8.86024 2.70489,-2.7049 m -25.92474,25.92474 -3.18049,3.18049 m -7.810529,7.81053 5.055979,-5.05598 m -15.629563,15.62957 -2.736947,2.73694 m 58.04858,-56.63436 6.59058,-6.59058 m -13.85798,13.85797 -2.70295,2.70295 m -26.67387,26.67388 3.13721,-3.13721 m -6.52126,6.52126 -5.654809,5.65481 m -11.419918,11.41991 2.74448,-2.74448 m 59.535437,-58.12122 -3.97682,3.97682 m -10.65052,10.65052 2.73792,-2.73792 m -26.5545,26.5545 -3.0517,3.0517 m -9.789737,9.78974 5.733967,-5.73397 m -12.808904,12.80891 -2.97404,2.97404 m 47.171764,-45.75755 2.76179,-2.76179 m -26.80312,26.80312 -2.96619,2.96619 M 87.670772,187.5534 101.76512,173.45905 m 35.21288,-33.79866 -2.78501,2.78501 m -27.14676,27.14676 2.96615,-2.96615 m -8.80895,8.80895 -12.400217,12.40022 m 45.850727,-44.43652 2.81204,-2.81204 m -27.12781,27.12781 -2.96641,2.96642 M 90.213717,187.83889 100.8131,177.2395 m 37.07151,-35.6573 -2.86412,2.86412 m -27.32321,27.32321 2.96669,-2.96668 m -11.199411,11.19941 -7.761979,7.76198 m 43.68447,-42.27026 2.91019,-2.91019 m -27.30747,27.30747 -2.92995,2.92995 m -14.205759,14.20576 5.429669,-5.42967 m 39.42614,-38.01193 -2.93893,2.93893 m -27.27837,27.27837 2.82299,-2.82299 m -13.96397,13.96397 -1.508872,1.50887 m 40.180522,-38.76631 3.01431,-3.0143 m -27.31244,27.31243 -2.79978,2.79979 m 27.35022,-25.93601 3.09061,-3.09061 m -27.20391,27.20391 -2.80417,2.80417 m 27.19337,-25.77915 3.14332,-3.14332 m -27.09539,27.09538 -2.80854,2.80855 m 26.80085,-25.38664 3.31012,-3.31012 m -26.86529,26.86529 -2.74587,2.74586 m 26.34128,-24.92706 3.50292,-3.50292 m -26.66073,26.66073 -2.60783,2.60783 m 25.80588,-24.39166 3.5909,-3.5909 m -26.1571,26.1571 -2.66405,2.66404 m 25.36699,-23.95277 3.54275,-3.54275 m -25.64457,25.64457 -2.68954,2.68953 m 24.49889,-23.08467 3.92381,-3.92381 m -25.13205,25.13205 -2.64844,2.64844 m 23.16481,-21.7506 4.70427,-4.70427 m -24.53335,24.53335 -2.56887,2.56888 m 22.40152,-20.98732 4.49791,-4.4979 m -23.50978,23.50977 -2.62279,2.6228 m 20.37902,-18.96481 5.60975,-5.60975 m -22.4611,22.4611 -2.76081,2.76081 m 19.19341,-17.77919 5.88471,-5.88471 m -21.22357,21.22357 -2.8993,2.8993 m 13.81503,-12.40082 9.71442,-9.71442 m -17.87724,17.87724 -4.67487,4.67487 m 1.24363,0.17058 20.8271,-20.8271 m -0.99,2.40421 -18.60858,18.60859 m 1.68611,-0.2719 15.90387,-15.90387 m -2.23215,3.64637 -11.49755,11.49754 m 1.38682,0.0274 9.17155,-9.17155"
       inkscape:connector-curvature="0" />
  </g>
</svg>
