<?xml version="1.0" encoding="UTF-8" standalone="no"?>
<!-- Created with Inkscape (http://www.inkscape.org/) -->

<svg
   xmlns:dc="http://purl.org/dc/elements/1.1/"
   xmlns:cc="http://creativecommons.org/ns#"
   xmlns:rdf="http://www.w3.org/1999/02/22-rdf-syntax-ns#"
   xmlns:svg="http://www.w3.org/2000/svg"
   xmlns="http://www.w3.org/2000/svg"
   xmlns:sodipodi="http://sodipodi.sourceforge.net/DTD/sodipodi-0.dtd"
   xmlns:inkscape="http://www.inkscape.org/namespaces/inkscape"
   version="1.1"
   id="svg2"
   width="75mm"
   height="75mm"
   viewBox="0 0 283.46458 283.46457"
   sodipodi:docname="75.svg"
   inkscape:version="0.92.2 2405546, 2018-03-11">
  <sodipodi:namedview
     pagecolor="#ffffff"
     bordercolor="#666666"
     borderopacity="1"
     objecttolerance="10"
     gridtolerance="10"
     guidetolerance="10"
     inkscape:pageopacity="0"
     inkscape:pageshadow="2"
     inkscape:window-width="1366"
     inkscape:window-height="703"
     id="namedview4"
     showgrid="false"
     inkscape:zoom="1.0858904"
     inkscape:cx="85.193449"
     inkscape:cy="186.09237"
     inkscape:window-x="0"
     inkscape:window-y="0"
     inkscape:window-maximized="1"
     inkscape:current-layer="svg2"
     fit-margin-top="0"
     fit-margin-left="0"
     fit-margin-right="0"
     fit-margin-bottom="0"
     units="mm" />
  <metadata
     id="metadata8">
    <rdf:RDF>
      <cc:Work
         rdf:about="">
        <dc:format>image/svg+xml</dc:format>
        <dc:type
           rdf:resource="http://purl.org/dc/dcmitype/StillImage" />
        <dc:title></dc:title>
      </cc:Work>
    </rdf:RDF>
  </metadata>
  <defs
     id="defs6" />
  <g
     id="g994">
    <path
       id="path974"
       d="m 133.42905,283.38034 c -5.27182,-0.64974 -10.65729,-3.96486 -16.49268,-10.15237 -9.6871,-10.27163 -14.96015,-20.62073 -16.36266,-32.11404 -0.24892,-2.03986 -0.21527,-8.55113 0.0546,-10.5699 0.50789,-3.79889 1.50687,-7.8252 2.7482,-11.0764 1.05045,-2.75126 1.02539,-2.39066 0.21586,-3.10601 -1.42416,-1.25847 -5.111612,-5.05878 -6.349717,-6.54404 -4.85456,-5.82364 -8.586551,-12.10503 -11.437229,-19.2502 -0.259146,-0.64955 -0.487844,-1.19795 -0.508215,-1.21865 -0.02036,-0.0208 -0.693364,0.25224 -1.495538,0.60653 -9.356838,4.13274 -16.805655,4.60242 -22.019836,1.38842 -4.44025,-2.73695 -6.975253,-7.73256 -7.619237,-15.01485 -0.178214,-2.01528 -0.0751,-7.98722 0.181348,-10.50329 0.839361,-8.23512 2.599301,-14.77307 5.674684,-21.08075 2.313211,-4.74444 5.073123,-8.61906 8.796292,-12.34904 4.645663,-4.65417 10.105535,-8.18088 16.5363,-10.68134 2.172297,-0.84466 3.563086,-1.28143 6.182199,-1.94151 l 2.221318,-0.55982 0.525795,-0.78365 0.525795,-0.78366 -1.167174,-1.56722 C 86.389473,106.34405 82.003866,94.461926 80.790256,81.266343 80.542709,78.574782 80.509008,72.00711 80.729356,69.397351 81.63529,58.667383 84.506213,48.561947 89.263699,39.3571 l 0.937806,-1.814484 -0.529777,-1.55135 C 88.66438,33.041438 88.205083,30.555834 88.106566,27.520962 l -0.06741,-2.076877 3.401948,-0.07844 c 1.871071,-0.04314 4.231358,-0.07844 5.245079,-0.07844 h 1.843131 l 1.382494,-1.564818 c 4.500652,-5.094203 9.194272,-9.185117 14.677492,-12.792767 15.10123,-9.93576 32.67485,-13.23345 49.03592,-9.2016 13.03192,3.21145 24.43996,10.81141 32.67502,21.767875 l 1.18343,1.57451 3.23086,-0.03922 3.23086,-0.03922 v 1.240044 c -0.001,2.231304 -0.3147,4.861833 -0.84541,7.085965 l -0.23954,1.003846 0.73564,1.653392 c 3.13418,7.044256 5.08258,14.819585 5.80046,23.147492 0.19855,2.303316 0.19853,9.152634 -3e-5,11.455644 -1.03409,11.993812 -4.42458,22.918664 -10.29916,33.185942 -0.98272,1.71753 -3.51301,5.60832 -4.73635,7.283 l -0.48902,0.66943 0.22357,0.28675 c 0.12297,0.15771 0.84676,1.10812 1.60842,2.11203 l 1.38485,1.82528 1.62715,0.63708 c 3.15917,1.23689 7.29539,3.46904 10.22771,5.51946 11.85427,8.2891 18.63943,19.84504 20.23196,34.45741 0.28465,2.6118 0.28797,8.51756 0.007,11.4181 -0.83494,8.60114 -2.79345,15.95789 -5.44964,20.47047 -4.62882,7.86382 -12.11491,10.04568 -20.94716,6.10515 l -1.2767,-0.56959 -0.70082,1.30256 c -0.82741,1.53777 -0.15715,0.32129 -1.17118,1.89069 v 0 c 0.95433,0.97513 4.45449,6.70639 5.68774,8.80722 3.38278,5.76256 5.56894,11.88987 6.48388,18.17285 1.38711,9.5255 -0.23738,18.9272 -4.86003,28.12719 -2.79499,5.5626 -6.22032,10.40545 -11.15729,15.77457 -3.26651,3.55246 -6.72791,6.30522 -9.85718,7.83921 -2.70309,1.32509 -4.97523,1.834 -7.73759,1.73312 -2.47395,-0.0903 -4.34638,-0.63776 -6.43214,-1.88042 -6.09688,-3.63248 -10.64707,-11.97597 -14.11426,-25.88072 l -0.67436,-2.70441 -0.20742,1.28721 c -2.05974,12.78257 -5.31402,22.35733 -9.53207,28.04534 -2.68384,3.61914 -5.94238,5.88238 -9.61313,6.67685 -0.82246,0.17802 -3.40426,0.30744 -4.19317,0.21021 z"
       style="fill:none;stroke:#ff0000;stroke-width:0.10000001;stroke-miterlimit:4;stroke-dasharray:none" />
    <path
       id="path972"
       d="m 137.14619,274.31353 c 1.17091,-0.57908 2.63053,-2.00412 3.70344,-3.61568 0.96927,-1.45589 2.5595,-4.6978 3.32939,-6.78742 2.21311,-6.00677 3.95059,-14.10788 5.13391,-23.9372 0.26739,-2.22108 0.77069,-7.50764 0.77069,-8.09513 0,-0.46963 -0.0219,-0.507 -0.26576,-0.45271 -1.43866,0.32025 -8.38129,0.39527 -11.4588,0.12387 -9.38829,-0.82808 -18.61722,-3.8869 -26.24584,-8.69884 l -0.70431,-0.44426 -0.21306,0.55548 c -0.68428,1.78403 -1.4808,4.87971 -1.84741,7.1799 -2.10014,13.17689 2.75761,25.89076 14.45043,37.82006 3.03716,3.09858 5.09914,4.72443 7.445,5.87031 1.71852,0.83946 2.32426,0.9937 3.78666,0.9643 1.11925,-0.0225 1.24181,-0.0504 2.11566,-0.48265 z"
       style="fill:none;stroke:#0000ff;stroke-width:0.10000001;stroke-miterlimit:4;stroke-dasharray:none" />
    <path
       id="path970"
       d="m 180.55795,268.86096 c 3.44899,-1.01936 8.05204,-5.05218 12.97693,-11.36935 5.95326,-7.63626 9.34605,-15.6451 10.06523,-23.75951 0.19448,-2.19426 0.0775,-6.18744 -0.24385,-8.32539 -0.9892,-6.58081 -3.78254,-13.26114 -7.81465,-18.68887 -0.5427,-0.73056 -1.01875,-1.32845 -1.05789,-1.32863 -0.0391,0 -0.32889,0.3318 -0.64388,0.73777 -2.25267,2.90331 -6.81964,7.67998 -9.6793,10.12379 -2.78109,2.37665 -6.2685,4.87183 -9.56753,6.84541 -2.95458,1.76752 -9.15413,4.64413 -11.48693,5.32997 -0.2761,0.0811 -0.502,0.21937 -0.502,0.30712 0,0.40246 0.87943,6.48156 1.30927,9.05046 2.4564,14.68022 6.24631,25.10197 10.67398,29.35207 1.58959,1.52582 2.81812,2.07208 4.43509,1.972 0.48724,-0.0302 1.17823,-0.14125 1.53553,-0.24684 z"
       style="fill:none;stroke:#0000ff;stroke-width:0.10000001;stroke-miterlimit:4;stroke-dasharray:none" />
    <path
       id="path968"
       d="m 149.13868,226.48002 c 9.99941,-1.26865 19.21629,-5.05056 27.58045,-11.31694 4.69437,-3.51698 9.47521,-8.33121 13.16627,-13.25816 7.08934,-9.46314 11.77285,-20.86642 13.58148,-33.06784 1.30596,-8.81035 0.99724,-18.08439 -0.88289,-26.52186 -2.01115,-9.02546 -5.64729,-17.28381 -10.80359,-24.53696 -0.65951,-0.92769 -1.24387,-1.67025 -1.29855,-1.65012 -0.0547,0.0201 -0.86727,0.8629 -1.80572,1.87285 -1.43979,1.54948 -2.78889,2.84423 -5.90082,5.66305 l -0.45632,0.41335 0.72781,0.9448 c 0.40028,0.51964 1.2747,1.76854 1.94312,2.77534 4.47779,6.74455 7.22472,13.96746 8.55613,22.49794 0.29984,1.92106 0.48973,4.31389 0.55766,7.02691 0.36264,14.48562 -4.57362,28.66055 -13.71581,39.38617 -1.2917,1.51542 -4.15298,4.38888 -5.67579,5.69994 -8.01025,6.89646 -17.34235,10.88426 -27.44883,11.72948 -2.06493,0.1727 -6.80767,0.0763 -8.72863,-0.17732 -12.25304,-1.61804 -22.55452,-7.49789 -30.45413,-17.38251 -4.50239,-5.63375 -8.00265,-12.79351 -9.848827,-20.14567 -2.731966,-10.87971 -2.261311,-22.41138 1.355968,-33.22297 1.541119,-4.60621 3.517759,-8.75781 6.078729,-12.76733 0.88978,-1.39308 0.90688,-1.43369 0.66583,-1.58243 -1.11433,-0.68757 -4.46379,-3.52817 -6.2943,-5.33805 l -1.440324,-1.42409 -0.756288,1.16704 c -3.183786,4.91297 -6.234218,11.47766 -8.040628,17.30384 -5.640698,18.19282 -4.312711,37.43872 3.702592,53.65997 7.254558,14.68167 19.034578,25.27176 33.374978,30.00371 3.26562,1.07757 7.51824,1.96809 11.21644,2.34881 2.21746,0.22828 8.93288,0.16681 11.04399,-0.10086 z"
       style="fill:none;stroke:#0000ff;stroke-width:0.10000001;stroke-miterlimit:4;stroke-dasharray:none" />
    <path
       id="path966"
       d="m 148.84339,210.77222 c 11.61992,-1.66839 21.78756,-7.66892 29.66925,-17.50964 1.24416,-1.55338 3.4357,-4.78306 4.47342,-6.59249 1.33408,-2.32617 3.85019,-7.75681 3.67501,-7.93196 -0.0306,-0.0305 -3.84801,0.0557 -8.48322,0.19178 -21.99088,0.64541 -33.557,0.98217 -53.25327,1.5505 -11.72612,0.33835 -21.34245,0.63391 -21.36961,0.65681 -0.17558,0.1479 1.98551,4.96009 3.22962,7.19155 6.51104,11.6782 16.79384,19.47907 28.94775,21.96069 3.13563,0.64023 4.57949,0.76203 8.4454,0.71247 2.21983,-0.0284 3.80887,-0.10666 4.66565,-0.22971 z"
       style="fill:none;stroke:#0000ff;stroke-width:0.10000001;stroke-miterlimit:4;stroke-dasharray:none" />
    <path
       id="path964"
       d="m 212.49541,187.66947 c 3.57943,-1.10541 6.28728,-7.04168 7.74446,-16.97772 0.4845,-3.30356 0.62311,-5.61509 0.56095,-9.35399 -0.0715,-4.30296 -0.35459,-6.64264 -1.22152,-10.0975 -2.0987,-8.3638 -6.97339,-15.66011 -14.06955,-21.05897 l -0.97499,-0.74179 0.23676,0.59621 c 0.13023,0.3279 0.34789,0.87521 0.48371,1.21622 0.50127,1.25856 1.43647,4.10155 1.99099,6.0526 2.17182,7.64138 3.06869,15.12244 2.82106,23.53131 -0.23054,7.82861 -1.62278,15.43822 -4.22567,23.09643 -0.39337,1.15733 -0.71521,2.148 -0.71521,2.2015 0,0.10598 1.82876,0.92661 2.77577,1.24547 1.70965,0.5756 3.33636,0.67838 4.59324,0.29023 z"
       style="fill:none;stroke:#0000ff;stroke-width:0.10000001;stroke-miterlimit:4;stroke-dasharray:none" />
    <path
       id="path962"
       d="m 71.152188,184.8384 c 2.862873,-0.30156 6.478615,-1.43914 10.466339,-3.29292 0.941231,-0.43755 1.039726,-0.51355 0.974268,-0.75166 -0.249055,-0.906 -1.057694,-5.1967 -1.307468,-6.93753 -0.61828,-4.30915 -0.703376,-5.63068 -0.707237,-10.98323 -0.0029,-3.97055 0.04015,-5.45104 0.205854,-7.08597 0.899433,-8.8741 2.832971,-16.56752 6.052623,-24.08299 0.367635,-0.85816 0.648988,-1.57971 0.625228,-1.60347 -0.08217,-0.0821 -4.060384,1.91217 -5.354828,2.68442 -2.783034,1.66035 -5.105936,3.50372 -7.50496,5.95569 -1.930917,1.97353 -2.845304,3.1002 -4.34698,5.35618 -4.231157,6.35649 -6.634921,13.9111 -7.477389,23.50011 -0.229347,2.61044 -0.201987,7.78716 0.04962,9.38891 0.448322,2.85404 1.235866,4.92189 2.330653,6.11958 0.931552,1.0191 2.010922,1.54596 3.542712,1.72922 1.097902,0.13137 1.237233,0.13153 2.451564,0.003 z"
       style="fill:none;stroke:#0000ff;stroke-width:0.10000001;stroke-miterlimit:4;stroke-dasharray:none" />
    <path
       id="path960"
       d="m 115.13761,178.87556 c 24.43745,-0.72404 70.93167,-2.06677 71.56553,-2.06677 h 0.69842 l 0.47077,-1.50577 c 1.21716,-3.89309 2.04532,-8.31945 2.3698,-12.66616 0.21549,-2.88682 0.11806,-8.23977 -0.18531,-10.18056 l -0.0684,-0.43736 -1.14219,0.0557 c -0.62821,0.0307 -20.19751,0.42862 -43.48735,0.88439 -23.28982,0.45577 -42.82937,0.85777 -43.4212,0.89335 l -1.07605,0.0647 -0.13166,0.96453 c -0.34582,2.53339 -0.42546,3.91808 -0.42907,7.46001 -0.005,4.82633 0.31383,7.9365 1.23702,12.07005 0.33329,1.49228 1.1335,4.45919 1.2597,4.67054 0.0817,0.13681 1.61751,0.11109 12.33997,-0.20665 z"
       style="fill:none;stroke:#0000ff;stroke-width:0.10000001;stroke-miterlimit:4;stroke-dasharray:none" />
    <path
       id="path958"
       d="m 145.94073,150.29438 c 23.99961,-0.48773 43.65196,-0.90308 43.67189,-0.92302 0.0199,-0.0199 -0.14533,-0.92372 -0.36722,-2.00846 -1.35335,-6.61567 -3.97471,-12.90875 -7.63861,-18.33791 -0.57453,-0.85133 -1.27448,-1.84387 -1.55546,-2.20567 l -0.51087,-0.65779 -0.34761,0.27187 c -0.19118,0.14953 -0.98544,0.71918 -1.76501,1.26589 -9.51978,6.67614 -19.94246,10.65987 -31.00586,11.85098 -2.44734,0.26349 -7.31316,0.35587 -9.7447,0.185 -8.0049,-0.56249 -15.13025,-2.48973 -22.14704,-5.99026 -1.20185,-0.59958 -2.7669,-1.43902 -3.47789,-1.86541 -0.711,-0.42641 -1.32966,-0.77529 -1.37481,-0.77529 -0.0846,0 -1.36381,2.02217 -2.20395,3.48393 -2.49687,4.34434 -4.77957,10.34317 -5.92079,15.5596 l -0.22608,1.03337 0.48918,-2e-5 c 0.26904,-10e-6 20.12521,-0.39907 44.12483,-0.88681 z"
       style="fill:none;stroke:#0000ff;stroke-width:0.10000001;stroke-miterlimit:4;stroke-dasharray:none" />
    <path
       id="path956"
       d="m 144.30178,135.94253 c 10.42868,-0.80054 20.30562,-4.26174 29.46441,-10.32529 13.24693,-8.77007 23.37158,-22.34792 28.50329,-38.224873 1.23193,-3.811452 2.28841,-8.34082 2.84756,-12.208145 0.56726,-3.923387 0.64941,-5.220878 0.65049,-10.27465 0.001,-4.204031 -0.0334,-5.156188 -0.2602,-7.225834 -0.57581,-5.254157 -1.59312,-9.950849 -3.1479,-14.533232 -0.82788,-2.440018 -1.258,-3.573264 -1.35622,-3.573264 -0.0439,0 -0.22234,0.29053 -0.39652,0.645624 -1.41872,2.892257 -4.45844,6.616743 -7.22808,8.856366 -3.30547,2.672916 -7.27683,4.587514 -11.28513,5.440583 -2.5253,0.537447 -6.36417,0.692281 -8.85882,0.357305 -4.87655,-0.654815 -9.39678,-2.597662 -13.34728,-5.736825 -1.33217,-1.058568 -3.75309,-3.559544 -4.80876,-4.967778 -3.7471,-4.99849 -5.93994,-11.452466 -5.93994,-17.48248 v -1.373959 l 13.31775,-0.07378 c 7.32477,-0.04059 17.14133,-0.113509 21.81459,-0.162051 l 8.49682,-0.08828 -1.2293,-1.476243 c -1.99384,-2.394357 -4.8863,-5.312589 -7.04538,-7.108181 C 175.58625,9.00017 165.03597,4.75006 153.44997,3.90201 c -2.10262,-0.1539 -7.18019,-0.0838 -9.09505,0.12547 -12.31737,1.34649 -23.5455,6.14092 -33.5293,14.317056 -1.98197,1.623113 -4.78225,4.215355 -6.11004,5.656105 l -1.11122,1.205748 13.17011,-0.07768 c 7.24356,-0.04273 16.08891,-0.112726 19.65633,-0.15556 l 6.48623,-0.07788 -0.0769,1.950688 c -0.15837,4.015216 -0.7651,7.073158 -2.05736,10.369286 -1.44983,3.698033 -3.43152,6.788708 -6.14636,9.585953 -2.30903,2.379118 -4.48631,3.996858 -7.29037,5.416803 -3.8588,1.954053 -7.50769,2.823092 -11.87392,2.827953 -3.21744,0.0036 -5.33413,-0.329504 -8.32419,-1.309919 -4.10272,-1.345249 -7.687187,-3.597687 -10.816595,-6.797033 -1.507992,-1.541692 -2.336268,-2.54203 -3.357511,-4.054985 -0.372677,-0.552116 -0.697398,-1.025507 -0.721603,-1.051979 -0.02421,-0.02648 -0.368503,0.637834 -0.765107,1.476243 -3.710897,7.844712 -5.975585,16.014526 -6.904573,24.908066 -0.255545,2.446447 -0.354901,8.462386 -0.182368,11.042297 0.965334,14.434721 5.940469,27.281648 14.521025,37.496578 1.299172,1.54663 4.589232,4.85941 6.159682,6.20221 8.50578,7.27285 18.47189,11.60349 29.47033,12.80593 0.9095,0.0994 1.94598,0.19804 2.30329,0.21911 1.60274,0.0945 6.00304,0.0709 7.44733,-0.0399 z"
       style="fill:none;stroke:#0000ff;stroke-width:0.10000001;stroke-miterlimit:4;stroke-dasharray:none" />
    <path
       id="path954"
       d="m 186.10948,75.940825 c -1.07333,-0.138675 -1.70491,-0.362439 -3.61116,-1.279412 -2.91156,-1.400552 -4.62695,-2.697332 -6.69393,-5.060397 -2.78132,-3.179727 -4.13304,-4.399978 -6.20128,-5.598187 -0.56875,-0.329495 -1.22778,-0.728614 -1.46451,-0.886929 -0.23674,-0.15832 -0.71511,-0.364088 -1.06306,-0.457274 -0.90462,-0.242269 -3.56075,-0.41199 -5.10264,-0.326047 -1.15429,0.06434 -1.43498,0.124516 -2.2627,0.485069 -2.22896,0.970943 -4.61175,2.55043 -6.26023,4.149741 -1.61287,1.56476 -2.90158,2.264199 -5.35775,2.907886 -1.79619,0.470726 -5.04289,0.371076 -5.31715,-0.163193 -0.26661,-0.519372 0.1624,-0.706406 1.95592,-0.852733 1.4509,-0.118382 2.19099,-0.358738 4.20064,-1.364271 1.99582,-0.998613 3.3216,-1.96158 5.77403,-4.193931 1.24451,-1.13283 3.40631,-2.76609 3.97863,-3.005892 0.67284,-0.281923 2.46568,-0.510269 4.68696,-0.596953 1.99552,-0.07788 2.03442,-0.07466 3.01908,0.24992 3.75654,1.238274 5.29292,2.132289 7.27419,4.232818 0.89879,0.952901 1.2203,1.377138 3.14772,4.153422 1.63188,2.350581 2.94098,3.650106 5.14338,5.105787 1.32428,0.875282 1.354,0.887718 2.77577,1.1615 3.2078,0.61771 3.48913,0.721355 3.32882,1.226359 -0.0862,0.271553 -0.52508,0.296915 -1.95073,0.112725 z"
       style="fill:none;stroke:#0000ff;stroke-width:0.10000001;stroke-miterlimit:4;stroke-dasharray:none" />
    <path
       id="path952"
       d="m 118.95964,52.854152 c 4.05059,-0.601582 8.00218,-2.255037 11.35882,-4.752836 1.40158,-1.042962 4.16875,-3.823598 5.23736,-5.262842 2.26307,-3.047993 3.93785,-6.708903 4.78762,-10.465299 0.31581,-1.396069 0.64513,-3.859871 0.64513,-4.826631 v -0.641155 l -6.17164,0.0763 c -3.39441,0.04197 -13.63963,0.104053 -22.76716,0.137977 -9.12754,0.03392 -17.872064,0.09282 -19.432285,0.130905 l -2.836766,0.06923 0.07992,1.092845 c 0.441226,6.033063 3.05088,12.09659 7.065443,16.416536 3.102788,3.33882 6.617578,5.635103 10.753508,7.025497 1.8732,0.62972 3.60596,0.968114 6.31911,1.23407 0.84379,0.0827 3.74969,-0.05471 4.96094,-0.234595 z"
       style="fill:none;stroke:#0000ff;stroke-width:0.10000001;stroke-miterlimit:4;stroke-dasharray:none" />
    <path
       id="path950"
       d="m 105.19895,49.858611 c -5.08432,-1.07794 -8.598569,-6.002337 -7.802896,-10.933923 0.342502,-2.12283 1.160079,-3.709021 2.713396,-5.264296 1.57934,-1.58133 3.4406,-2.47043 5.6378,-2.693104 2.24315,-0.22733 4.27774,0.288425 6.59781,1.672508 2.34039,1.3962 2.9685,2.146731 3.62094,4.326615 0.57592,1.924277 0.7263,2.89222 0.65328,4.205173 -0.32351,5.817388 -5.69251,9.901397 -11.42033,8.687027 z"
       style="fill:none;stroke:#0000ff;stroke-width:0.10000001;stroke-miterlimit:4;stroke-dasharray:none" />
    <path
       id="path948"
       d="m 112.25332,41.824141 c 0.99715,-0.463861 1.83659,-1.275735 2.30748,-2.231703 0.35833,-0.727474 0.38285,-0.856962 0.38285,-2.021932 0,-1.166221 -0.0243,-1.294015 -0.38503,-2.027303 -0.44883,-0.912318 -1.08995,-1.537044 -2.02221,-1.970514 -0.55049,-0.255958 -0.83628,-0.309092 -1.67394,-0.311211 -0.93252,-0.0024 -1.07928,0.03161 -1.91016,0.442191 -1.61173,0.79644 -2.56861,2.184577 -2.66606,3.867629 -0.0682,1.177631 0.11873,1.943147 0.69033,2.827396 1.11679,1.727621 3.33755,2.327531 5.27674,1.425447 z"
       style="fill:none;stroke:#0000ff;stroke-width:0.10000001;stroke-miterlimit:4;stroke-dasharray:none" />
    <path
       id="path946"
       d="m 180.14454,52.854152 c 4.05058,-0.601582 8.00217,-2.255037 11.35882,-4.752836 1.40157,-1.042962 4.16874,-3.823598 5.23735,-5.262842 2.26307,-3.047993 3.93785,-6.708903 4.78762,-10.465299 0.31582,-1.396069 0.64513,-3.859871 0.64513,-4.826631 v -0.641155 l -6.17164,0.0763 c -3.3944,0.04197 -13.63962,0.104053 -22.76716,0.137977 -9.12753,0.03392 -17.87206,0.09282 -19.43228,0.130905 l -2.83677,0.06923 0.0799,1.092845 c 0.44143,6.035874 3.05006,12.098878 7.0619,16.413301 3.10998,3.344548 6.61982,5.637903 10.75705,7.028732 1.87319,0.62972 3.60596,0.968114 6.31911,1.23407 0.84378,0.0827 3.74969,-0.05471 4.96094,-0.234595 z"
       style="fill:none;stroke:#0000ff;stroke-width:0.10000001;stroke-miterlimit:4;stroke-dasharray:none" />
    <path
       id="path944"
       d="m 169.86831,47.484051 c -3.32034,-0.520006 -6.27806,-2.747047 -7.64159,-5.753786 -1.12351,-2.477457 -1.11652,-5.482976 0.0184,-7.907958 1.16437,-2.487949 3.23363,-4.237118 5.99231,-5.065348 0.87559,-0.262878 1.27411,-0.313403 2.51679,-0.319089 2.20834,-0.01005 3.42229,0.359004 5.80943,1.766424 1.47593,0.870181 2.40518,1.718329 2.85104,2.602186 0.45333,0.898687 1.14613,3.334868 1.25749,4.421937 0.3982,3.886942 -1.63764,7.581416 -5.15694,9.358404 -1.53154,0.77331 -3.96715,1.160303 -5.64691,0.89723 z"
       style="fill:none;stroke:#0000ff;stroke-width:0.10000001;stroke-miterlimit:4;stroke-dasharray:none" />
    <path
       id="path819"
       d="m 176.42384,39.28843 c 1.27916,-0.656433 2.09898,-1.617434 2.49672,-2.9267 1.11471,-3.669369 -2.41334,-6.800962 -5.85028,-5.192872 -2.95498,1.382587 -3.6839,5.157763 -1.43197,7.416316 0.86627,0.868824 1.57591,1.121695 3.01376,1.07392 0.95515,-0.03174 1.21879,-0.0869 1.77177,-0.370664 z"
       style="fill:none;stroke:#0000ff;stroke-width:0.10000001;stroke-miterlimit:4;stroke-dasharray:none" />
    <path
       id="path930"
       style="fill:none;stroke:#0000ff;stroke-width:0.10000001"
       d="m 89.352241,26.414074 -0.436142,0.436142 m 9.121462,-0.63618 8.422429,-8.422427 m 7.48637,-6.072159 -14.484994,14.484994 m 1.423804,-0.0096 14.68141,-14.681414 m 4.34148,-2.92726 -17.59909,17.599083 M 115.26174,14.6467 122.10111,7.80733 M 91.518951,38.389492 90.204503,39.70394 M 119.22034,12.10231 125.71769,5.60497 M 92.009292,39.313363 89.025757,42.296898 M 123.1027,9.63417 127.28076,5.4561 M 92.499634,40.237235 86.918667,45.818202 M 126.55728,7.59381 129.46058,4.6905 M 90.407959,43.743124 86.789228,47.361855 M 128.81916,6.74614 l 3.0981,-3.09811 m -29.18292,29.182926 -3.450546,3.450547 M 86.065462,49.499834 89.04443,46.520866 M 133.65941,3.3201 131.11439,5.86512 m -32.696777,32.696777 6.694557,-6.694559 m -17.102065,17.102067 -2.66841,2.66841 M 133.08066,5.31306 135.52335,2.87038 m -29.14424,29.144235 -8.162191,8.162189 M 84.575749,53.817975 87.339904,51.05382 M 137.95491,1.85302 135.10309,4.70485 M 98.4019,41.406037 107.69964,32.108292 M 86.661008,53.14693 84.149267,55.658671 M 136.91651,4.30564 139.19794,2.02421 M 108.95863,32.263524 98.635489,42.586662 M 83.722784,57.499366 85.982112,55.240038 M 140.83198,1.80438 138.73319,3.90317 m -29.08255,29.082549 0.29496,-0.294951 m -4.28052,4.280513 -6.687664,6.687667 M 83.296302,59.340062 85.572775,57.063589 M 142.46602,1.58456 140.34185,3.70873 M 99.499252,44.551326 105.36111,38.689471 M 85.146699,58.903879 82.815948,61.23463 M 142.12214,3.34265 144.28962,1.17517 m -38.62103,38.621027 -5.61946,5.619462 M 82.600784,62.864007 84.720623,60.744168 M 145.65226,1.22674 143.77794,3.10106 m -43.07522,43.075226 5.36358,-5.363582 M 84.613297,62.265708 82.385619,64.493386 M 145.03223,3.26099 147.10825,1.18497 m -40.39216,40.392163 -5.28719,5.287182 M 82.170455,66.122763 84.165151,64.128067 M 148.56423,1.1432 146.71258,2.99485 m -44.50214,44.502144 5.19496,-5.194963 M 83.925162,65.78227 81.955291,67.752141 M 148.14658,2.97507 150.02022,1.10143 m -41.65583,41.655827 -5.24869,5.248692 M 81.729792,69.391853 83.685173,67.436472 M 151.44477,1.09108 l -1.8642,1.8642 M 104.0331,48.502755 109.42426,43.1116 M 83.700235,68.835625 81.694182,70.841678 M 151.01457,2.9355 152.75613,1.19394 m -42.09569,42.095695 -5.5062,5.506197 m -23.495669,23.49567 1.819075,-1.819075 M 154.06748,1.29681 152.44856,2.91572 m -46.05798,46.057981 9.22587,-9.225867 m -32.207007,32.20701 -1.786483,1.786483 m 72.2596,-70.845387 1.49627,-1.49627 m -39.76102,39.761018 -7.94256,7.942566 M 81.581351,75.197149 83.34124,73.43726 m 73.43763,-72.02342 -1.66663,1.66663 m -45.74232,45.742319 5.95267,-5.952665 M 83.345151,74.847563 81.628539,76.564175 M 156.38509,3.22183 157.93696,1.66997 m -43.53176,43.531759 -2.78875,2.788748 M 81.675727,77.9312 83.362537,76.24439 M 159.12625,1.89489 157.65794,3.3632 M 81.722915,79.298226 83.379924,77.641217 M 160.31555,2.11981 158.86259,3.57276 M 81.728739,80.706615 83.39731,79.038044 M 161.50484,2.34473 160.05176,3.79781 M 81.884167,81.965401 83.506453,80.343115 M 162.69413,2.56965 l -1.4532,1.4532 M 82.039595,83.224187 83.638407,81.625375 M 163.84393,2.83406 162.4301,4.2479 M 82.195022,84.482973 83.77036,82.907635 M 164.9378,3.1544 163.5252,4.56701 M 82.336418,85.75579 83.902314,84.189894 M 166.03167,3.47475 164.63771,4.86871 M 82.560961,86.945461 84.214109,85.292313 M 167.12554,3.79509 165.75023,5.17041 M 82.785505,88.135131 84.294736,86.6259 M 168.21181,4.12304 166.82786,5.50699 M 83.010048,89.324801 84.508254,87.826595 M 169.22943,4.51963 167.86952,5.87954 M 83.225206,90.523857 84.721774,89.027289 M 170.24705,4.91622 168.91119,6.25209 M 83.514827,91.64845 84.935293,90.227984 M 171.26468,5.31281 169.95286,6.62463 m -30.63552,30.635519 0.58119,-0.581187 m -15.5022,15.502199 -0.40511,0.405112 M 83.804447,92.773042 85.240129,91.33736 M 172.2823,5.7094 170.95368,7.03802 m -20.71766,20.717666 1.45373,-1.453734 M 140.0717,37.920007 138.0702,39.9215 m -11.5818,11.581801 0.71739,-0.717392 m -41.676295,41.6763 -1.435426,1.435426 M 171.92932,7.47659 l 1.32671,-1.3267 m -36.18993,36.189927 -9.07724,9.077241 M 84.372204,95.033712 85.81886,93.587056 M 174.20308,6.61705 172.90497,7.91516 m -41.12067,41.120667 1.8188,-1.818796 M 86.108226,94.711905 84.723607,96.096524 M 173.88061,8.35373 175.15013,7.08421 M 86.446804,95.78754 85.075009,97.159335 M 174.8182,8.83035 176.09718,7.55138 M 86.807407,96.841151 85.426411,98.222147 M 175.73184,9.33093 177.04381,8.01896 m -89.8758,89.875801 -1.409038,1.409038 M 176.64547,9.83151 177.92453,8.55246 M 87.528614,98.948371 86.169489,100.3075 m 91.389621,-89.97541 1.24614,-1.24614 m -90.916033,90.91603 -1.309213,1.30921 m 91.864256,-90.45004 1.24171,-1.24171 m -91.365335,91.36534 -1.330115,1.33011 m 92.30873,-90.89451 1.26744,-1.26744 m -91.817907,91.8179 -1.347747,1.34775 m 92.753194,-91.33898 1.27588,-1.27589 m -92.253179,92.25319 -1.33879,1.33879 m 93.171069,-91.75686 1.23836,-1.23835 m -92.642492,92.64248 -1.299433,1.29944 m 93.544995,-92.13078 1.21438,-1.21439 m -93.008983,93.00899 -1.282887,1.28289 m 93.87661,-92.4624 1.23271,-1.23272 m -18.07793,18.077945 -2.66142,2.66142 m -73.902465,73.902455 1.304034,-1.30403 m 94.155241,-92.74103 -1.25105,1.25105 m -20.83006,20.830068 5.37619,-5.376191 m -76.957553,76.957553 -1.31939,1.31939 M 184.248,14.95691 l 1.24224,-1.24224 m -15.43987,15.439868 -7.91052,7.910522 m -71.898939,71.89893 1.289314,-1.28931 M 186.2465,14.37262 185.04712,15.572 m -22.60968,22.609682 8.68992,-8.689925 m -79.104367,79.104373 -1.259237,1.25923 m 95.024204,-93.609987 1.2148,-1.214803 m -14.61712,14.61712 -9.83739,9.837391 M 91.286599,110.74673 92.542336,109.491 m -20.581525,20.58152 -4.736638,4.73664 M 186.52116,16.926399 187.75902,15.688536 M 173.56383,29.883727 162.89525,40.552309 M 91.800121,111.64744 93.097458,110.3501 M 76.047486,127.40007 62.703958,140.7436 M 187.25435,17.607417 188.51528,16.34649 m -18.87301,18.873005 -6.34257,6.342578 m -70.922622,70.922617 1.275501,-1.2755 M 80.151508,124.71026 60.784345,144.07742 M 187.98755,18.288435 l 1.25173,-1.251731 m -19.73899,19.738985 -5.65837,5.658377 m -70.887884,70.887884 1.253666,-1.25367 M 81.951826,124.32416 60.786897,145.48909 M 188.72074,18.969453 l 1.21481,-1.214802 m -19.9723,19.972294 -5.55536,5.55536 m -70.876897,70.876895 1.23183,-1.23183 m -9.88301,9.88301 -26.09841,26.09841 M 189.40204,19.702371 l 1.22977,-1.229775 m -20.14068,20.140685 -5.36206,5.362062 m -71.021119,71.021117 1.238625,-1.23862 m -8.551207,8.5512 -28.056926,28.05693 M 190.07809,20.44053 l 1.24999,-1.249987 m -20.23393,20.233928 -5.24391,5.24391 m -71.154562,71.154569 1.266683,-1.26669 m -7.105313,7.10532 -30.786042,30.78604 M 190.75415,21.178688 l 1.2702,-1.270199 m -20.08908,20.089083 -5.20694,5.206932 m -71.428995,71.428996 1.278811,-1.27881 m -5.525002,5.525 -33.687149,33.68715 M 191.4302,21.916846 l 1.25607,-1.256062 m -19.80571,19.805711 -5.25738,5.257379 M 78.756847,134.5902 97.193931,116.15312 M 71.440913,141.90614 56.964317,156.38273 M 192.10626,22.655004 193.32294,21.43832 m -19.21998,19.219984 -5.43674,5.436736 m -85.911533,85.91154 15.05503,-15.05503 m -30.739905,30.7399 -10.507173,10.50718 M 192.75803,23.417454 l 1.20159,-1.201596 m -14.47888,14.478883 -9.71777,9.717766 m -82.839233,82.839233 11.539004,-11.539 m -31.94659,31.94659 -10.365518,10.36551 M 193.40059,24.189098 194.5963,22.993395 m -14.80244,14.802437 -8.66167,8.661675 m -22.45343,22.453423 2.3005,-2.300499 M 99.167414,118.42228 88.185396,129.4043 m -32.260105,32.2601 9.033352,-9.03335 M 195.23297,23.770931 l -2.2289,2.228907 M 172.57648,46.427422 179.55991,39.444 m -21.57471,21.574707 -6.55474,6.554735 m -63.605842,63.605848 12.04747,-12.04747 m -35.829199,35.8292 -8.342941,8.34294 M 194.4269,25.991215 l 1.42605,-1.42605 m -16.16358,16.163584 -5.09051,5.090511 m -17.81267,17.812666 2.39143,-2.391425 M 100.57676,119.84136 87.406717,133.0114 m -32.183209,32.18321 8.466178,-8.46618 M 196.45979,25.37254 l -0.61005,0.610052 m -19.72844,19.72844 2.47264,-2.472635 m -17.7957,17.795693 -0.67915,0.679148 m -60.242583,60.242592 1.404923,-1.40493 m -6.991011,6.99101 -7.761524,7.76153 m -31.216202,31.2162 7.903757,-7.90376 m 99.50025,-98.08603 -0.78989,0.78989 m -61.33919,61.33918 1.39849,-1.39848 m -9.281595,9.28159 -7.06789,7.06789 m -30.393111,30.39311 7.499701,-7.4997 M 163.9706,60.690157 163.2487,61.41206 m -61.90545,61.90545 1.34753,-1.34753 m -10.219841,10.21984 -7.42325,7.42325 m -29.873354,29.87335 7.335349,-7.33534 M 165.35104,60.723937 l -0.77307,0.773061 m -62.46949,62.469492 1.28697,-1.28697 m -12.882711,12.88271 -6.053986,6.05399 m -29.372296,29.3723 7.200405,-7.20041 M 166.43782,61.051366 l -0.53057,0.53057 m -63.03353,63.033534 1.22641,-1.22641 m -14.373605,14.3736 -5.842005,5.84201 m -28.778149,28.77815 6.957669,-6.95767 m 105.37201,-103.957803 -0.19952,0.199527 m -63.59758,63.597576 1.21218,-1.21218 m -15.890563,15.89056 -5.452939,5.45294 m -28.381343,28.38134 6.714932,-6.71493 M 168.43429,61.883328 l -0.18962,0.189611 m -63.84048,63.840481 1.23487,-1.23487 m -16.577125,16.57713 -5.9312,5.9312 m -27.984536,27.98453 6.886188,-6.88618 M 169.43252,62.299309 l -0.26851,0.268507 m -63.99459,63.994584 1.25757,-1.25757 m -18.504523,18.50453 -5.214644,5.21464 m -27.499101,27.49911 6.493866,-6.49387 M 170.39399,62.752048 170.0448,63.101237 m -64.11014,64.110143 1.28027,-1.28026 m -19.791077,19.79107 -4.937236,4.93723 m -27.076097,27.0761 6.247331,-6.24733 M 171.22674,63.33351 170.8721,63.688152 m -64.17221,64.172208 1.32032,-1.32031 m -21.094972,21.09497 -4.659827,4.65982 m -26.653093,26.6531 6.000796,-6.0008 M 202.10111,33.873354 201.48933,34.48514 m -29.79772,29.797714 0.30654,-0.306532 m -63.13709,63.137088 -1.52475,1.52475 m -25.292106,25.2921 4.649264,-4.64926 m -24.996102,24.9961 -5.883249,5.88325 M 201.54698,35.841697 l 0.61954,-0.619533 m -16.74119,16.741189 -0.81644,0.816434 m -12.09777,12.09777 0.21189,-0.211887 m -63.0211,63.0211 -3.06179,3.06179 m -24.850285,24.85029 4.6247,-4.6247 m -24.652996,24.65299 -5.705617,5.70562 M 199.04941,39.753483 l 3.55258,-3.552574 m -14.37876,14.378756 -1.23992,1.239922 m -82.11054,82.110533 5.66999,-5.66998 m -24.407159,24.40715 -4.38808,4.38808 m -25.309264,25.30927 5.387455,-5.38746 M 203.00679,37.210319 188.60087,51.616239 m -85.47528,85.475281 8.2705,-8.2705 m -25.539423,25.53942 -4.151459,4.15146 m -24.884616,24.88462 5.263351,-5.26335 M 203.40558,38.225746 l -1.33792,1.337913 m -10.61483,10.614828 7.02432,-7.024313 m -86.18462,86.184616 -1.33774,1.33774 m -8.78033,8.78033 4.35285,-4.35285 m -20.765864,20.76587 -4.098552,4.09855 m -24.459966,24.45997 5.164516,-5.16452 M 203.80436,39.241172 l -1.34761,1.347617 m -90.59186,90.591861 1.32408,-1.32408 m -8.66174,8.66173 -4.07672,4.07672 m -18.829929,18.82993 4.032485,-4.03248 m -23.002123,23.00212 -4.995604,4.99561 M 202.84583,41.613919 l 1.35732,-1.357321 m -90.11774,90.117742 -1.30003,1.30003 m -12.4153,12.4153 2.91396,-2.91396 m -17.739354,17.73935 -3.966205,3.96621 m -23.350998,23.351 4.806251,-4.80626 M 204.60194,41.272025 203.25102,42.62294 m -89.54515,89.54515 1.28946,-1.28946 m -11.80039,11.80039 -3.979684,3.97969 m -17.607763,17.60776 3.828813,-3.82881 m -21.884982,21.88498 -4.751695,4.7517 M 203.55754,43.730638 l 1.40059,-1.400593 m -89.00765,89.007655 -1.32411,1.32411 m -15.390757,15.39075 2.518457,-2.51845 m -16.325924,16.32592 -3.791642,3.79164 m -22.264731,22.26473 4.69714,-4.69714 M 205.28098,43.421412 l -1.41693,1.416924 m -88.27882,88.278824 1.32039,-1.32039 m -15.02466,15.02465 -3.045979,3.04599 m -17.169465,17.16946 3.758456,-3.75845 m -20.730454,20.73045 -4.614689,4.61469 M 204.17057,45.946034 205.60382,44.51278 m -87.74305,87.74305 -1.29395,1.29395 m -18.121868,18.12187 2.269778,-2.26978 m -15.260355,15.26036 -3.78221,3.78221 m -20.821805,20.8218 4.645838,-4.64583 M 205.92667,45.604147 l -1.44958,1.449585 m -86.92867,86.928668 1.28927,-1.28927 m -18.0999,18.09989 -2.471234,2.47124 m -16.449091,16.44909 3.667313,-3.66731 m -19.167989,19.16799 -4.694899,4.6949 m 143.16171,-141.7475 1.46592,-1.465916 m -86.39433,86.394326 -1.32518,1.32518 m -20.441851,20.44185 2.675631,-2.67563 m -15.24861,15.24861 -3.552416,3.55242 m -19.569343,19.56934 5.03162,-5.03162 M 206.607,47.752249 l -1.51688,1.516879 m -85.57851,85.578512 1.36109,-1.3611 m -18.68742,18.68743 -4.275518,4.27551 m -15.801697,15.8017 3.49493,-3.49493 m -17.078247,17.07825 -5.176112,5.17611 M 205.35409,50.419366 l 1.42609,-1.426085 m -84.84393,84.843929 -1.44305,1.44305 m -17.85354,17.85354 0.98884,-0.98884 m -3.971159,3.97116 -1.925975,1.92597 m -15.489609,15.48961 3.503046,-3.50304 m -15.8078,15.8078 -5.646443,5.64644 M 205.5497,51.637975 l 1.4732,-1.473207 m -84.07593,84.075932 -1.36043,1.36043 m -17.20067,17.20067 0.68584,-0.68584 m -5.500673,5.50068 -2.045893,2.04589 m -15.059125,15.05912 3.426545,-3.42654 m -14.518357,14.51836 -5.987007,5.987 m 140.3581,-138.943887 1.52033,-1.520329 m -83.23452,83.234516 -1.37807,1.37808 m -16.82325,16.82324 0.68514,-0.68514 m -7.030197,7.0302 -1.918027,1.91803 m -14.876425,14.87642 3.350043,-3.35004 m -12.850177,12.85018 -6.718033,6.71803 M 205.94091,54.075192 l 1.56745,-1.567451 m -82.3931,82.393099 -1.39573,1.39573 m -16.44582,16.44581 0.68444,-0.68443 m -8.559722,8.55972 -1.790161,1.79016 m -14.693723,14.69373 3.273542,-3.27355 m -10.821343,10.82135 -7.63115,7.63115 M 206.13651,55.2938 l 1.64518,-1.645177 m -81.58547,81.585467 -1.4102,1.4102 m -16.06838,16.06839 0.68373,-0.68374 m -10.089246,10.08925 -1.662295,1.66229 m -14.511023,14.51103 3.19704,-3.19704 m -9.352529,9.35252 -8.005987,8.00599 m 137.35479,-135.940572 1.53747,-1.537477 m -80.51755,80.517549 -1.49953,1.49953 m -15.69095,15.69096 0.68303,-0.68304 m -11.495028,11.49503 -1.658171,1.65817 m -14.328323,14.32833 3.224075,-3.22408 m -7.269812,7.26981 -8.877895,8.8779 M 206.51031,57.748429 l 1.5166,-1.516599 m -79.51904,79.51904 -1.46094,1.46094 m -15.44145,15.44145 0.68233,-0.68233 m -12.879985,12.87998 -1.674872,1.67488 m -25.900128,25.90012 15.004603,-15.0046 M 208.18422,57.488728 l -1.62475,1.624759 m -78.35026,78.350253 1.56733,-1.56733 m -16.04551,16.04551 -0.68163,0.68163 m -15.29289,15.29289 1.709577,-1.70957 M 87.087715,178.58524 73.556593,192.11636 M 206.60862,60.478545 l 1.73292,-1.732919 m -77.48674,77.486744 -1.4833,1.48329 m -14.87818,14.87819 0.68093,-0.68093 m -15.6499,15.6499 -1.595872,1.59587 M 74.782137,192.30503 87.338002,179.74916 M 208.67613,59.825248 l -2.01835,2.018355 m -76.12399,76.123987 1.55447,-1.55447 m -15.47079,15.47079 -0.68023,0.68023 m -17.836795,17.8368 1.482168,-1.48217 M 87.588288,180.91309 77.162561,191.33882 M 206.70693,63.208661 l 1.6896,-1.689601 m -75.07481,75.07481 -1.56223,1.56224 m -14.37833,14.37832 0.67953,-0.67952 m -18.256363,18.25636 -1.563136,1.56313 m -18.796709,18.79671 8.394092,-8.39409 M 208.39653,62.933276 l -1.62159,1.621588 m -73.74869,73.748686 1.53475,-1.53474 m -15.0571,15.05709 -0.67882,0.67882 m -20.335669,20.33568 1.517669,-1.51767 m -11.805503,11.8055 -6.538692,6.53869 M 206.74563,65.998392 l 1.6509,-1.650899 m -72.54416,72.544167 -1.55935,1.55934 m -14.02402,14.02402 0.67812,-0.67812 m -20.73729,20.73729 -1.4722,1.4722 m -14.856341,14.85634 4.662709,-4.66271 M 208.39652,65.761709 l -1.68021,1.68021 m -71.15653,71.156531 1.6177,-1.6177 m -14.78714,14.78714 -0.67742,0.67742 m -22.727069,22.72707 1.426729,-1.42673 m -11.526162,11.52617 -3.076493,3.07649 M 206.687,68.885448 l 1.70952,-1.709522 m -69.7972,69.797204 -1.77277,1.77277 m -13.6697,13.6697 0.67671,-0.67671 m -23.21823,23.21823 -1.369692,1.36969 m -12.911129,12.91113 2.89433,-2.89433 M 208.39652,68.590142 l -1.71674,1.716743 m -68.45073,68.450725 1.79211,-1.79211 m -14.74438,14.74438 -0.67601,0.67602 m -25.021552,25.02154 1.363302,-1.3633 m -11.371261,11.37126 -2.819385,2.81939 M 206.49772,71.903153 l 1.8988,-1.898794 m -66.95352,66.953511 -1.8199,1.81991 m -13.57841,13.57841 0.67531,-0.67531 m -25.47707,25.47707 -1.330131,1.33013 m -12.726503,12.7265 2.727384,-2.72738 M 208.57643,71.238658 206.31567,73.49942 m -65.29852,65.29852 1.84769,-1.84769 m -14.70162,14.70162 -0.67461,0.67461 m -27.24223,27.24223 1.29695,-1.29696 m -11.192536,11.19254 -2.730078,2.73008 M 206.15647,75.072836 l 1.86638,-1.866384 m -63.75033,63.750328 -2.05637,2.05637 m -13.28362,13.28362 0.67391,-0.67391 m -27.7627,27.7627 -1.26378,1.26378 m -12.524823,12.52483 2.722964,-2.72297 M 207.7954,74.848111 l -1.97339,1.973392 m -61.85597,61.855977 1.95544,-1.95544 m -14.87182,14.87182 -0.67321,0.67321 m -29.44763,29.44763 1.62834,-1.62835 m -11.351751,11.35176 -2.71585,2.71585 M 205.48756,78.570169 l 2.0804,-2.0804 m -59.99752,59.997521 -2.11206,2.11206 m -13.63801,13.63801 0.6725,-0.67251 m -28.49741,28.49742 -2.64377,2.64377 m -12.4401,12.4401 2.721126,-2.72113 M 207.34051,78.131428 l -2.5506,2.550602 m -57.83919,57.83919 2.26868,-2.26868 m -15.28331,15.28331 -0.6718,0.6718 m -31.48973,31.48973 1.22319,-1.22319 m -10.937727,10.93773 -2.651967,2.65197 M 204.75687,82.129283 l 2.3562,-2.356196 m -55.79381,55.793813 -2.56453,2.56452 m -14.04652,14.04653 0.6711,-0.67111 m -31.98873,31.98874 -1.19315,1.19314 m -12.292907,12.29291 2.582807,-2.5828 m 114.06541,-112.651204 -2.33371,2.333718 m -53.75389,53.753886 2.10797,-2.10797 m -15.75058,15.75058 -0.6704,0.6704 m -33.53182,33.53182 1.16309,-1.16309 m -10.814048,10.81405 -2.568362,2.56836 m 112.60775,-111.193538 3.07104,-3.071034 m -51.54517,51.545162 -2.35906,2.35906 m -14.5795,14.5795 0.6697,-0.6697 m -34.0052,34.0052 -1.22054,1.22054 m -12.142554,12.14256 2.574604,-2.57461 m 112.13475,-110.72053 -2.50589,2.505891 m -49.21496,49.214959 2.61016,-2.61016 m -16.78715,16.78715 -0.669,0.66899 m -35.49505,35.49506 1.18106,-1.18106 m -10.751212,10.75121 -2.580845,2.58084 M 202.27428,90.268732 l 2.85956,-2.85956 m -46.21827,46.218268 -3.67709,3.67709 m -14.75459,14.75458 0.6683,-0.66829 m -35.96079,35.96079 -1.14158,1.14158 m -12.127951,12.12795 2.555607,-2.55561 M 204.31635,89.640874 l -3.13617,3.13617 m -43.2882,43.288196 2.67285,-2.67285 m -17.96942,17.96943 -0.66759,0.66759 m -37.37309,37.37308 1.1021,-1.1021 m -10.676646,10.67665 -2.501133,2.50113 M 200.41815,94.953283 203.477,91.894441 m -40.45611,40.456109 -3.07872,3.07872 m -16.57043,16.57043 0.66689,-0.66689 m -37.88083,37.88083 -1.09817,1.09816 m -12.023397,12.0234 2.44666,-2.44665 M 202.63764,94.148007 l -4.16588,4.16588 m -36.47941,36.479413 4.21534,-4.21534 m -20.72635,20.72635 -0.66568,0.66568 m -39.25112,39.25112 1.13629,-1.13629 m -10.659309,10.65931 -2.448106,2.44811 m 104.140625,-102.72642 4.12723,-4.127228 m -33.66171,33.661718 -3.64454,3.64453 m -18.52429,18.5243 0.89536,-0.89536 m -39.68222,39.68222 -1.12296,1.12295 m -11.970313,11.97032 2.462714,-2.46272 M 200.13537,99.478704 l -4.40735,4.407356 m -28.5687,28.5687 6.00608,-6.00608 m -24.79457,24.79456 -0.6679,0.66791 m -40.99586,40.99586 1.07983,-1.07983 m -10.601799,10.6018 -2.468712,2.46871 m 97.470971,-96.05676 6.51411,-6.51411 m -20.66224,20.66225 -8.27561,8.27561 m -20.61712,20.61711 0.66908,-0.66908 m -41.48565,41.48565 -1.03671,1.03671 m -11.9616,11.9616 2.425271,-2.42527 m 100.390069,-98.97586 -24.65271,24.65272 m -22.90418,22.90418 0.67026,-0.67027 m -42.34747,42.34747 -1.03349,1.0335 m -11.932519,11.93251 2.38183,-2.38183 m 95.506589,-94.09237 -16.6571,16.6571 m -25.14453,25.14453 0.67144,-0.67144 m -43.17593,43.17593 -1.06363,1.06363 m -11.903437,11.90344 2.338389,-2.33839 m 94.677548,-93.26333 -13.84119,13.84118 m -26.25962,26.25962 0.67262,-0.67262 m -44.0044,44.0044 -1.0707,1.0707 m -11.897416,11.89742 2.356233,-2.35623 m 94.101843,-92.68763 -2.40833,2.40832 m -10.54415,10.54415 1.0487,-1.04869 m -26.13703,26.13703 -0.6738,0.67379 m -45.18661,45.18662 1.02755,-1.02755 m -10.5878,10.5878 -2.381375,2.38137 m 94.057315,-92.6431 2.39692,-2.39692 m -11.9055,11.9055 -1.06421,1.06421 m -24.91272,24.91272 0.67498,-0.67498 m -45.66132,45.66132 -0.98441,0.9844 m -11.932012,11.93202 2.352692,-2.3527 m 94.04389,-92.62967 -2.38551,2.38552 m -10.61072,10.61072 1.06174,-1.06174 m -24.4396,24.4396 -0.67616,0.67615 m -46.75488,46.75488 0.9901,-0.9901 m -10.58848,10.58849 -2.296622,2.29662 m 93.879242,-92.46503 2.43109,-2.43109 m -11.9623,11.9623 -1.05947,1.05946 m -23.19511,23.19511 0.67733,-0.67733 m -47.19574,47.19575 -1.0206,1.0206 m -11.857992,11.85799 2.240532,-2.24054 m 93.98344,-92.56922 -2.49109,2.49109 m -10.60865,10.60865 1.10974,-1.10974 m -22.71489,22.71489 -0.6785,0.67851 m -48.27474,48.27473 1.00269,-1.00269 m -10.68763,10.68763 -2.18445,2.18445 m 93.58652,-92.1723 2.70178,-2.70178 m -12.22071,12.22071 -1.1077,1.10769 m -21.37219,21.3722 0.67968,-0.67969 m -48.70535,48.70536 -0.96862,0.96862 m -11.89696,11.89696 2.19804,-2.19804 m 94.41011,-92.9959 -3.16799,3.16799 m -10.6446,10.6446 1.09967,-1.09967 m -20.87955,20.87955 -0.68086,0.68086 m -49.71384,49.71384 0.93454,-0.93454 m -10.64794,10.64793 -2.21113,2.21114 m 93.2938,-91.87959 3.60397,-3.60397 m -13.17491,13.17491 -1.09163,1.09163 m -19.54929,19.54929 0.68204,-0.68204 m -50.15162,50.15162 -0.96381,0.96381 m -11.9521,11.9521 2.22423,-2.22423 m 94.93773,-93.52352 -4.01452,4.01453 m -10.69057,10.69056 1.09363,-1.09363 m -19.03822,19.03823 -0.68322,0.68321 m -51.13308,51.13308 0.98528,-0.98527 m -10.74748,10.74748 -2.23733,2.23733 m 92.98615,-91.57194 4.44001,-4.44001 m -14.04802,14.04802 -1.16229,1.16229 m -17.63967,17.63967 0.6844,-0.6844 m -51.51043,51.51043 -0.95889,0.95889 m -12.09481,12.09481 2.25043,-2.25043 m 95.43993,-94.02572 -4.9281,4.9281 m -10.78744,10.78744 1.23096,-1.23096 m -17.1969,17.19691 -0.68558,0.68557 m -52.43676,52.43676 0.9325,-0.9325 m -10.84619,10.84619 -2.23677,2.23677 m 92.49875,-91.08453 5.41617,-5.41618 m -15.02548,15.02549 -1.19528,1.19527 m -15.66337,15.66337 0.68675,-0.68675 m -52.86099,52.86099 -0.91436,0.91437 m -12.39064,12.39063 2.4657,-2.4657 m 95.84084,-94.42662 -5.88678,5.88678 m -10.82172,10.82172 1.17638,-1.17638 m -15.16368,15.16367 -0.68793,0.68794 m -53.74045,53.74044 0.96662,-0.96661 m -10.90279,10.90279 -4.03845,4.03845 m 93.68459,-92.27037 6.2929,-6.29291 m -15.97427,15.97428 -1.18533,1.18532 m -13.65925,13.65925 0.68911,-0.68911 m -54.06253,54.06253 -0.95053,0.95053 m -15.46782,15.46782 5.45206,-5.45206 m 96.03725,-94.62303 -6.69903,6.69903 m -10.96426,10.96425 1.24686,-1.24686 m -13.14725,13.14725 -0.69029,0.69029 m -54.90443,54.90443 0.93142,-0.93142 m -11.02978,11.02979 -6.86568,6.86567 m 95.91665,-94.50243 7.08448,-7.08448 m -16.85858,16.85858 -1.3084,1.3084 m -11.5221,11.5221 0.69146,-0.69146 m -55.26406,55.26406 -0.91232,0.91232 m -18.42727,18.42727 8.2463,-8.2463 m 96.23366,-94.81945 -7.57228,7.57228 m -11.09839,11.09839 1.29796,-1.29796 m -11.05885,11.05885 -0.69264,0.69264 m -56.0654,56.06541 0.9339,-0.93391 m -11.16425,11.16425 -9.39466,9.39466 m 97.63323,-96.21901 8.06008,-8.06008 m -17.91022,17.91022 -1.23929,1.23929 m -9.40982,9.40982 0.69382,-0.69382 m -56.34127,56.34127 -0.94197,0.94197 m -20.87921,20.87921 10.58378,-10.58378 m 96.27396,-94.85975 -8.49896,8.49896 m -11.19269,11.19269 1.29284,-1.29284 m -8.85173,8.85173 -0.695,0.695 m -57.09427,57.09427 0.93086,-0.93086 m -11.31054,11.31054 -11.80047,11.80047 m 99.1119,-97.69768 8.90477,-8.90478 m -18.85434,18.85434 -1.34638,1.34638 m -7.09796,7.09796 0.69617,-0.69617 m -57.37553,57.37554 -0.91976,0.91975 m -23.18094,23.18094 12.71701,-12.717 m 96.15844,-94.74423 -4.63049,4.63049 m -4.6801,4.68009 2.91428,-2.91427 m -12.91355,12.91355 -1.39993,1.39993 m -5.94203,5.94203 0.69735,-0.69736 m -57.89128,57.89129 -0.91003,0.91003 m -12.83424,12.83424 2.28604,-2.28604 m -5.81352,5.81352 -7.82002,7.82001 m 105.07652,-103.6623 4.6577,-4.6577 m -6.7906,6.7906 -2.92579,2.92579 m -11.50246,11.50246 1.5294,-1.5294 m -5.61697,5.61697 -0.69853,0.69853 m -58.55533,58.55533 0.93625,-0.93625 m -11.63456,11.63456 -2.21311,2.21311 m -12.54362,12.54362 8.14096,-8.14096 m 102.67107,-101.25685 -4.70886,4.70885 m -5.45591,5.45592 2.90991,-2.90991 m -13.11473,13.11473 -1.37912,1.37912 m -3.60938,3.60937 0.69971,-0.69971 m -58.74394,58.74394 -0.93529,0.9353 m -13.01578,13.01577 2.23109,-2.23108 m -8.40815,8.40814 -7.08256,7.08256 m 106.6497,-105.23548 4.72897,-4.72897 m -7.67047,7.67047 -2.95619,2.95618 m -14.05352,14.05352 3.7863,-3.78629 m -62.25567,62.25567 -0.93434,0.93434 m -13.12014,13.12014 2.24906,-2.24906 m -9.3869,9.3869 -6.99348,6.99348 M 208.81967,131.8066 213.52627,127.1 m -8.04359,8.0436 -3.00247,3.00246 m -13.01489,13.01489 2.68526,-2.68526 m -61.50679,61.50679 -0.90521,0.90521 m -13.2245,13.2245 2.26703,-2.26703 m -10.65877,10.65877 -6.61128,6.61128 m 108.05416,-106.63994 4.68423,-4.68424 m -8.41672,8.41673 -3.04875,3.04874 m -12.06346,12.06347 1.67143,-1.67144 m -60.62892,60.62893 -0.94354,0.94354 m -13.39039,13.39038 2.285,-2.285 m -11.73823,11.73823 -6.48268,6.48268 m 108.81757,-107.40336 4.66188,-4.66187 m -8.78986,8.78986 -3.09502,3.09502 m -12.03254,12.03254 1.57811,-1.57811 m -59.75107,59.75107 -0.95683,0.95683 m -13.58131,13.58131 2.30298,-2.30298 m -12.8025,12.8025 -6.1497,6.1497 m 109.36141,-107.9472 4.63951,-4.63951 m -9.21503,9.21503 -3.08926,3.08926 m -12.25544,12.25545 1.55611,-1.55612 m -58.69071,58.69071 -0.97012,0.97012 m -13.69593,13.69593 2.27808,-2.27807 m -13.6556,13.65559 -6.06131,6.06131 m 109.80012,-108.38591 4.69382,-4.69381 m -9.63291,9.6329 -3.10459,3.1046 m -12.43609,12.43609 1.57922,-1.57923 m -57.70665,57.70665 -0.95222,0.95222 m -13.79004,13.79004 2.28413,-2.28413 m -14.62061,14.62061 -5.91247,5.91247 m 110.2262,-108.81198 4.71219,-4.71219 m -10.00222,10.00222 -3.17344,3.17344 m -12.6966,12.6966 1.73571,-1.73571 m -56.59373,56.59372 -0.97958,0.97959 m -13.96774,13.96774 2.29018,-2.29018 m -15.58562,15.58562 -5.74654,5.74654 m 110.63518,-109.22097 4.73056,-4.73056 m -10.37153,10.37153 -3.24229,3.24229 m -12.73581,12.73581 1.6709,-1.6709 m -55.47404,55.47404 -1.00377,1.00377 m -14.15539,14.15539 2.29624,-2.29623 m -16.44048,16.44047 -5.6188,5.6188 m 110.97219,-109.55798 4.74894,-4.74894 m -10.74083,10.74084 -3.31115,3.31114 m -12.97078,12.97079 1.80185,-1.80186 m -54.35435,54.35436 -1.02796,1.02795 m -14.34304,14.34304 2.30229,-2.30229 m -17.2488,17.24881 -5.53758,5.53758 m 111.3092,-109.89499 4.76732,-4.76732 m -11.171,11.171 -3.31914,3.31914 m -13.20577,13.20577 1.79272,-1.79272 m -53.04415,53.04415 -1.10256,1.10256 m -14.53069,14.5307 2.32173,-2.32174 m -18.07052,18.07052 -5.54289,5.54289 m 111.73274,-110.31853 4.74962,-4.74962 m -11.58522,11.58522 -3.3075,3.3075 m -13.42496,13.42496 1.77498,-1.77498 m -51.63055,51.63056 -1.11827,1.11826 m -14.83488,14.83488 2.37662,-2.37661 m -18.98012,18.98012 -5.32988,5.32987 m 111.89595,-110.48174 4.72908,-4.72907 m -11.95461,11.9546 -3.40062,3.40063 m -13.67715,13.67715 1.89502,-1.89502 m -50.21696,50.21696 -1.16533,1.16533 m -15.05705,15.05705 2.38084,-2.38084 m -19.81458,19.81458 -5.24325,5.24325 m 112.02696,-110.61275 4.79197,-4.79197 m -12.32398,12.32398 -3.49375,3.49375 m -13.99257,13.99257 2.07828,-2.07828 m -48.80419,48.80419 -1.21157,1.21157 m -15.27922,15.27922 2.38506,-2.38506 m -20.59751,20.59751 -5.20814,5.20814 m 112.15796,-110.74375 4.85487,-4.85486 m -12.69336,12.69335 -3.58688,3.58688 m -14.30798,14.30798 2.0599,-2.05989 m -47.08568,47.08568 -1.25397,1.25396 m -15.60932,15.60933 2.38928,-2.38929 m -21.38045,21.38045 -5.19277,5.19278 m 112.3087,-110.89449 4.91777,-4.91777 m -13.16186,13.16186 -3.58088,3.58088 m -14.69817,14.69816 2.17048,-2.17047 m -45.42137,45.42136 -1.30402,1.30403 m -15.93177,15.93177 2.41117,-2.41117 m -22.18104,22.18104 -5.08511,5.08511 m 112.36715,-110.95293 4.92524,-4.92525 m -13.56692,13.56692 -3.56624,3.56624 m -15.08352,15.08352 2.25955,-2.25955 m -43.81433,43.81433 -1.2968,1.2968 m -16.25421,16.25421 2.51724,-2.51723 m -23.06581,23.06581 -4.97746,4.97745 m 112.4256,-111.01138 4.90286,-4.90287 m -13.94212,13.94213 -3.68715,3.68714 m -15.53021,15.53021 2.34993,-2.34992 m -41.68932,41.68932 -1.42415,1.42414 m -16.84585,16.84585 2.70468,-2.70468 m -23.83958,23.83959 -4.98079,4.98078 m 112.47718,-111.06296 4.88735,-4.88735 m -14.31733,14.31733 -3.80806,3.80805 m -16.56238,16.56239 3.03758,-3.03758 m -39.17534,39.17533 -1.9638,1.96381 m -17.08534,17.08534 2.55152,-2.55152 m -24.6196,24.6196 -4.97788,4.97788 M 218.7908,145.8771 l 5.00518,-5.00518 m -14.50664,14.50664 -4.11487,4.11487 m -18.23822,18.23822 4.3689,-4.3689 m -37.39324,37.39324 -2.19621,2.19621 m -17.04208,17.04208 2.54025,-2.54024 m -25.39962,25.39961 -4.93113,4.93113 m 112.26982,-110.8556 5.123,-5.12301 m -15.22778,15.22778 -3.88984,3.88984 m -17.37897,17.37898 2.88524,-2.88524 m -34.06168,34.06168 -2.54907,2.54906 m -18.14795,18.14795 2.5853,-2.58529 m -26.23595,26.23594 -4.86311,4.86312 m 112.12295,-110.70874 5.15239,-5.1524 m -15.61224,15.61225 -3.92663,3.92663 m -18.91047,18.91047 3.84447,-3.84447 m -32.06891,32.06891 -2.63624,2.63624 m -18.21928,18.21928 2.73358,-2.73358 m -27.17551,27.17551 -4.7951,4.7951 m 111.97608,-110.56187 5.18007,-5.18007 m -15.99498,15.99498 -4.09345,4.09346 m -18.97086,18.97085 3.9014,-3.9014 m -29.11072,29.11072 -2.79205,2.79205 m -19.62619,19.62619 2.88188,-2.88188 m -28.01698,28.01699 -4.8252,4.82519 m 111.82922,-110.41501 5.20776,-5.20775 m -16.37774,16.37774 -4.26027,4.26026 m -20.74992,20.74993 4.23187,-4.23188 m -23.84522,23.84522 -4.16005,4.16005 m -20.54481,20.54482 2.89191,-2.89191 m -28.86829,28.86829 -4.82318,4.82318 m 111.64024,-110.22603 5.25528,-5.25528 m -16.90411,16.90411 -4.28346,4.28346 m -22.30056,22.30056 5.51104,-5.51104 m -19.68748,19.68748 -5.91835,5.91835 m -21.13361,21.13361 2.91756,-2.91756 m -29.74411,29.74411 -4.78521,4.78521 m 111.30095,-109.88674 5.46963,-5.46962 m -17.44811,17.44811 -4.29646,4.29645 m -38.62446,38.62446 19.64523,-19.64523 m -40.03951,40.03952 -3.01607,3.01606 m -32.42397,32.42397 4.74724,-4.74723 m 111.65594,-110.24173 -5.44151,5.44151 m -16.87923,16.87923 4.57108,-4.57108 m -25.6127,25.61269 -14.33846,14.33847 m -24.89895,24.89895 3.11457,-3.11458 m -31.64148,31.64149 -4.70927,4.70927 m 110.62238,-109.20817 5.50777,-5.50777 m -18.05533,18.05533 -4.93595,4.93595 m -28.88996,28.88996 7.92545,-7.92545 m -34.26001,34.26001 -3.29873,3.29874 m -34.04839,34.04838 4.72851,-4.72851 m 111.12861,-109.7144 -5.58103,5.58103 m -18.08079,18.0808 4.91344,-4.91344 m -58.23986,58.23985 -3.27443,3.27444 m -34.98362,34.98361 4.72249,-4.72249 m 110.81801,-109.40379 -5.79742,5.79742 m -18.53495,18.53495 5.05196,-5.05196 m -56.24861,56.2486 -3.53057,3.53058 m -35.86177,35.86177 4.70817,-4.70817 m 110.4034,-108.98919 -5.90982,5.90982 m -18.88727,18.88727 5.08864,-5.08864 m -54.25734,54.25734 -3.78672,3.78672 m -36.73992,36.73992 4.69385,-4.69385 m 109.991,-108.57679 -6.02443,6.02443 m -19.6959,19.6959 5.40417,-5.40416 m -51.6103,51.6103 -4.96472,4.96472 m -37.17453,37.17452 4.67952,-4.67952 m 109.57861,-108.16439 -6.13442,6.13442 m -20.50915,20.50915 5.73103,-5.73104 m -49.85725,49.85726 -6.08788,6.08788 m -36.7799,36.77989 4.66378,-4.66377 m 109.16621,-107.752 -6.34924,6.34924 m -21.21757,21.21757 6.0579,-6.0579 m -47.32679,47.32679 -8.3632,8.3632 m -35.96579,35.9658 4.66904,-4.66905 m 108.58409,-107.16987 -6.46008,6.46008 m -21.91095,21.91094 6.17599,-6.17598 m -44.60258,44.60258 -10.63853,10.63852 m -35.15169,35.1517 4.67412,-4.67413 M 228.27,159.02532 l -6.57243,6.57243 m -22.99423,22.99423 6.71093,-6.71093 m -41.98119,41.98119 -12.80045,12.80045 m -34.3376,34.3376 4.6792,-4.6792 m 107.34818,-105.93397 -6.68776,6.68776 m -24.26413,24.26413 7.43548,-7.43548 m -38.60476,38.60477 -15.71742,15.71741 m -33.5235,33.5235 4.68428,-4.68428 m 106.73023,-105.31602 -6.91062,6.91062 m -25.50635,25.50636 8.15799,-8.15799 m -34.3382,34.33819 -19.4267,19.42671 m -32.72533,32.72533 4.68935,-4.68935 m 106.36285,-104.94864 -7.33549,7.33549 m -27.5436,27.5436 10.76284,-10.76284 m -32.35219,32.35219 -7.26166,7.26166 m -14.82815,14.82815 11.62715,-11.62715 m -38.76138,38.76138 -4.63916,4.63916 m 102.66653,-101.25232 7.2883,-7.2883 m -22.76324,22.76324 -38.19298,38.19298 m -17.4566,17.4566 12.03726,-12.03726 m -38.21395,38.21395 -4.64205,4.64205 m 101.59509,-100.18088 7.58383,-7.58382 m -21.7344,21.7344 -37.35704,37.35704 m -19.50012,19.50011 12.44737,-12.44736 m -37.65651,37.65651 -4.65494,4.65494 m 100.52365,-99.10944 7.87934,-7.87934 m -20.72635,20.72635 -5.00077,5.00077 m -29.48868,29.48868 26.94393,-26.94392 m -37.64094,37.64093 -12.96339,12.96339 m -28.80352,28.80352 4.66783,-4.66783 m 102.82733,-101.41312 -7.95088,7.95088 m -16.61376,16.61376 5.19611,-5.19611 m -9.56754,9.56754 -23.98343,23.98344 m -25.94482,25.94482 13.3148,-13.31481 m -36.54165,36.54165 -4.68071,4.68071 m 98.08155,-96.66733 8.47138,-8.47138 m -18.01653,18.01653 -5.27823,5.27823 m -24.57239,24.57239 19.72644,-19.72645 m -37.01113,37.01114 -13.81927,13.81927 m -26.84759,26.84759 4.68265,-4.68265 m 100.91709,-99.50288 -9.49127,9.49127 m -12.55006,12.55006 5.68686,-5.68686 m -10.99087,10.99087 -4.96592,4.96592 m -10.57636,10.57636 3.54327,-3.54327 m -25.4098,25.4098 -14.32373,14.32373 m -25.7056,25.7056 4.6415,-4.6415 m 99.92303,-98.50881 -20.7879,20.7879 m -10.67752,10.67751 4.91545,-4.91544 m -37.79295,37.79294 -14.81726,14.81726 m -24.58808,24.58809 4.68963,-4.68963 m 98.65636,-97.24215 -19.17151,19.17151 m -11.28282,11.28282 4.88304,-4.88304 m -38.11886,38.11886 -15.52718,15.52717 m -23.3124,23.31241 4.73776,-4.73776 m 97.39935,-95.98514 -17.60112,17.60112 m -11.90371,11.90372 4.87337,-4.87338 m -38.42603,38.42603 -5.71776,5.71776 m -10.50887,10.50888 8.46808,-8.46809 m -25.71891,25.71892 -4.7859,4.78589 m 85.05563,-83.64142 15.8726,-15.8726 m -23.70248,23.70248 -4.85286,4.85286 m -39.50272,39.50273 5.63322,-5.63323 m -8.35592,8.35592 -8.52271,8.52271 m -20.80849,20.8085 4.85123,-4.85123 m 94.58112,-93.16691 -13.80664,13.80664 m -13.51221,13.51221 4.83234,-4.83234 m -39.01868,39.01868 -5.59101,5.591 m -12.19565,12.19566 8.84446,-8.84446 m -23.12799,23.12799 -4.88926,4.88925 m 86.3074,-84.89318 11.48269,-11.48269 m -21.2756,21.2756 -4.81183,4.81183 m -40.04299,40.04299 5.53982,-5.53981 m -9.52849,9.52848 -9.55837,9.55837 m -17.16701,17.16701 4.92618,-4.92618 m 91.85242,-90.4382 -9.69036,9.69035 m -15.78853,15.78854 4.80552,-4.80552 m -39.61133,39.61132 -5.4543,5.4543 m -14.3147,14.3147 9.65423,-9.65423 m -19.99364,19.99365 -5.43987,5.43987 m 88.73779,-87.32358 4.88236,-4.88236 m -17.93815,17.93815 -4.86311,4.86311 m -40.39935,40.39935 5.36878,-5.36878 m -10.70106,10.70105 -10.34901,10.34902 m -13.79263,13.79263 5.79281,-5.79281 m 85.37609,-83.96188 -0.69301,0.69302 m -20.13783,20.13782 4.88634,-4.88633 m -40.14167,40.14166 -5.28326,5.28326 m -28.65436,28.65436 22.41678,-22.41678 m 52.15052,-50.73631 -4.90955,4.90956 m -40.67784,40.67784 5.25427,-5.25428 m -12.37918,12.37919 -20.72253,20.72253 m 68.99007,-67.57586 4.93278,-4.93278 m -40.49531,40.49531 -5.25455,5.25455 m -27.04053,27.04053 19.02829,-19.02829 m 54.25012,-52.8359 -4.97239,4.97238 m -40.93993,40.93994 5.25481,-5.25482 m -14.1544,14.1544 -17.05868,17.05868 m 67.26479,-65.85057 5.04652,-5.04652 m -40.77241,40.7724 -5.25508,5.25509 m -24.79497,24.79496 14.50523,-14.50522 m 56.72989,-55.31568 -5.0926,5.0926 m -41.06013,41.06014 5.29349,-5.2935 m -16.84148,16.84148 -12.04555,12.04555 m 65.02025,-63.60604 5.13868,-5.13867 m -40.94608,40.94607 -5.2066,5.20661 m -21.82276,21.82276 9.37651,-9.37652 m 59.01159,-57.59737 -5.18476,5.18475 m -40.97757,40.97758 5.12941,-5.12942 m -21.25052,21.25053 -2.89706,2.89706 m 60.31268,-58.89847 5.28048,-5.28047 m -41.11975,41.11974 -5.05223,5.05223 m 41.14383,-39.72962 5.33842,-5.33841 m -41.01073,41.01072 -5.08025,5.08025 m 41.00489,-39.59067 5.41472,-5.41472 m -40.90219,40.90219 -5.05269,5.05269 m 40.79249,-39.37828 5.49103,-5.49103 m -40.79366,40.79367 -5.02513,5.02512 m 40.56807,-39.15385 5.57936,-5.57936 m -40.68514,40.68513 -4.99756,4.99757 m 40.20341,-38.7892 5.70603,-5.70603 m -40.47471,40.47471 -4.95182,4.95182 m 39.82057,-38.40635 5.83902,-5.83903 m -40.2706,40.2706 -4.85299,4.85299 m 39.40462,-37.99041 5.95204,-5.95203 m -40.0665,40.0665 -4.75416,4.75416 m 38.84403,-37.42982 6.20968,-6.20968 m -39.73475,39.73475 -4.78511,4.78511 m 38.28558,-36.87137 6.29422,-6.29421 m -39.24228,39.24227 -4.71912,4.71912 m 37.68376,-36.26954 6.36624,-6.36624 m -38.76565,38.76565 -4.66595,4.66594 m 36.77285,-35.35862 6.74735,-6.74736 m -38.19602,38.19602 -4.70981,4.70981 m 35.86597,-34.45175 7.12846,-7.12847 m -37.62794,37.62795 -4.65269,4.65269 m 34.42017,-33.00596 7.94906,-7.94906 m -36.98283,36.98283 -4.67261,4.67261 m 33.76484,-32.35063 7.76173,-7.76172 m -36.03315,36.03314 -4.75803,4.75803 m 32.30531,-30.8911 8.34205,-8.34205 m -35.06851,35.06851 -4.75449,4.75449 m 30.27219,-28.85797 9.407,-9.407 m -33.9345,33.9345 -4.92032,4.92032 m 28.9591,-27.54488 9.75191,-9.75191 m -32.58083,32.58082 -5.20106,5.20106 m 25.45759,-24.04337 12.22823,-12.22823 m -30.72637,30.72636 -5.98207,5.98207 m 23.71005,-22.29583 12.29986,-12.29986 m -27.25927,27.25927 -7.77326,7.77326 m 1.1693,0.24491 33.38179,-33.38179 m -0.48144,1.89566 -31.67182,31.67181 m 1.22854,0.18568 30.61976,-30.61976 m -2.1519,3.56611 -26.84803,26.84804 m 1.54606,-0.13185 24.28318,-24.28318 m -1.78095,3.19516 -20.36081,20.36081 m 2.22465,-0.81044 17.84001,-17.84001 m -2.51089,3.92511 -12.59642,12.59642"
       inkscape:connector-curvature="0" />
  </g>
</svg>
