<?xml version="1.0" encoding="UTF-8" standalone="no"?>
<!-- Created with Inkscape (http://www.inkscape.org/) -->

<svg
   xmlns:dc="http://purl.org/dc/elements/1.1/"
   xmlns:cc="http://creativecommons.org/ns#"
   xmlns:rdf="http://www.w3.org/1999/02/22-rdf-syntax-ns#"
   xmlns:svg="http://www.w3.org/2000/svg"
   xmlns="http://www.w3.org/2000/svg"
   xmlns:sodipodi="http://sodipodi.sourceforge.net/DTD/sodipodi-0.dtd"
   xmlns:inkscape="http://www.inkscape.org/namespaces/inkscape"
   width="50mm"
   height="50mm"
   viewBox="0 0 50 50"
   version="1.1"
   id="svg1586"
   inkscape:version="0.92.2 2405546, 2018-03-11"
   sodipodi:docname="50.svg">
  <sodipodi:namedview
     id="base"
     pagecolor="#ffffff"
     bordercolor="#666666"
     borderopacity="1.0"
     inkscape:pageopacity="0.0"
     inkscape:pageshadow="2"
     inkscape:zoom="1.7850556"
     inkscape:cx="94.488189"
     inkscape:cy="141.73228"
     inkscape:document-units="mm"
     inkscape:current-layer="layer1"
     showgrid="false"
     inkscape:window-width="1366"
     inkscape:window-height="703"
     inkscape:window-x="0"
     inkscape:window-y="0"
     inkscape:window-maximized="1" />
  <defs
     id="defs1580" />
  <metadata
     id="metadata1583">
    <rdf:RDF>
      <cc:Work
         rdf:about="">
        <dc:format>image/svg+xml</dc:format>
        <dc:type
           rdf:resource="http://purl.org/dc/dcmitype/StillImage" />
        <dc:title></dc:title>
      </cc:Work>
    </rdf:RDF>
  </metadata>
  <g
     inkscape:label="Layer 1"
     inkscape:groupmode="layer"
     id="layer1"
     transform="translate(0,-247)">
    <g
       id="g991"
       transform="translate(-4.2587915,-1.0100375e-5)">
      <path
         id="path957"
         d="m 30.977543,296.7901 c -1.260172,-0.32939 -2.570112,-3.27033 -2.757458,-6.19076 l -0.173601,-2.70607 h -1.35851 c -1.988033,0 -2.668091,0.90608 -2.37151,3.1597 0.208724,1.586 0.134534,1.87429 -0.67806,2.63484 -1.813493,1.69734 -5.439934,1.96697 -8.16749,0.60726 -2.18122,-1.08735 -2.879652,-2.18196 -2.578157,-4.04058 0.33915,-2.0907 2.329274,-6.00739 3.718366,-7.31797 l 1.260411,-1.18917 -0.675762,-1.9196 c -0.538836,-1.53065 -0.917805,-2.02141 -1.870354,-2.42208 -0.657028,-0.27636 -1.405029,-0.78818 -1.662217,-1.13738 -1.213686,-1.64785 -0.885192,-4.91457 0.746789,-7.42637 l 0.845926,-1.30199 -0.876714,-0.84412 c -1.109188,-1.06796 -1.371364,-2.12087 -1.075709,-4.32016 0.267464,-1.98963 0.302228,-3.15802 0.192308,-6.46313 -0.152183,-4.57576 2.660052,-8.46817 5.946091,-8.23 0.861923,0.0625 2.174387,-0.0964 2.916594,-0.35295 1.140842,-0.39441 1.517592,-0.37955 2.437049,0.0961 0.598169,0.30944 1.390211,0.94442 1.760089,1.41108 0.567527,0.71601 0.872372,0.80713 1.952909,0.58374 0.70422,-0.14559 1.729847,-0.17481 2.279166,-0.0649 0.76778,0.15359 1.299511,-0.0644 2.299165,-0.94239 1.49453,-1.31272 2.709115,-1.45346 3.642178,-0.42204 0.491299,0.54308 0.814152,0.63307 1.31305,0.36597 1.274377,-0.68229 1.80776,-0.3729 2.701763,1.56712 0.486963,1.05674 1.550465,2.65135 2.363339,3.5436 0.812867,0.89224 1.729353,2.15226 2.036629,2.80005 0.811409,1.71055 0.706624,5.05854 -0.242976,7.76326 -0.71598,2.03929 -0.753221,2.43937 -0.323665,3.47668 1.055616,2.54912 0.957424,3.46082 -0.5232,4.85775 l -1.364963,1.28781 0.958004,1.8472 c 0.526902,1.01597 0.95801,2.38785 0.95801,3.04863 0,1.70627 -2.2655,6.46865 -3.619281,7.60821 -1.422584,1.19748 -1.431662,1.84173 -0.03989,2.83313 2.203218,1.56941 1.763898,3.39541 -1.329087,5.52423 -2.680557,1.84496 -6.468744,2.84266 -8.639229,2.27532 z"
         style="fill:none;stroke:#ff0000;stroke-width:0.1;stroke-miterlimit:4;stroke-dasharray:none"
         inkscape:connector-curvature="0" />
      <path
         id="path955"
         d="m 31.630908,294.50548 c -0.596943,-1.15478 -1.078566,-1.40028 -1.478166,-0.75346 -0.385229,0.62353 0.20588,1.85761 1.040225,2.17171 1.027352,0.38675 1.155859,-0.0294 0.437941,-1.41825 z"
         style="fill:none;stroke:#0000ff;stroke-width:0.1;stroke-miterlimit:4;stroke-dasharray:none"
         inkscape:connector-curvature="0" />
      <path
         id="path953"
         d="m 34.309495,295.98462 c 0.619253,-0.39251 0.290393,-1.54093 -0.697333,-2.43515 -0.556819,-0.50409 -0.83262,-0.56006 -1.157651,-0.2349 -0.325031,0.32514 -0.280804,0.73288 0.185635,1.71139 0.642816,1.34849 0.858733,1.47249 1.669349,0.95866 z"
         style="fill:none;stroke:#0000ff;stroke-width:0.1;stroke-miterlimit:4;stroke-dasharray:none"
         inkscape:connector-curvature="0" />
      <path
         id="path951"
         d="m 36.373869,295.2985 c 0.201205,-0.14788 0.365822,-1.00996 0.365822,-1.91573 0,-1.44966 0.102847,-1.66141 0.858919,-1.76848 0.524265,-0.0743 1.21342,0.21093 1.768773,0.73193 l 0.909847,0.85357 0.700583,-0.86396 c 0.96822,-1.19403 0.891033,-1.57744 -0.579821,-2.88012 -1.063621,-0.94201 -1.280404,-1.38349 -1.280404,-2.60751 0,-1.48307 0.59025,-2.33773 1.073864,-1.55493 0.182938,0.29611 0.42887,0.2284 0.826666,-0.22759 1.067378,-1.22351 1.391929,-2.25031 1.383205,-4.37618 -0.01725,-4.20605 -0.795978,-5.91996 -3.683555,-8.10711 -0.886731,-0.67164 -1.889176,-1.82061 -2.227646,-2.55327 -0.41288,-0.89373 -0.952216,-1.42221 -1.63892,-1.60593 -1.385196,-0.3706 -3.71814,0.0189 -5.105447,0.85241 -1.52625,0.91697 -2.432727,0.86349 -3.719191,-0.2194 -1.238874,-1.04283 -1.647512,-0.884 -1.14274,0.44415 0.193993,0.51042 0.256842,1.02394 0.139669,1.14116 -0.293144,0.29326 -0.88055,-0.66044 -1.139509,-1.85008 -0.149672,-0.6876 -0.5105,-1.05149 -1.190864,-1.20098 -0.536872,-0.11796 -1.624448,-0.6059 -2.416836,-1.0843 l -1.440699,-0.86983 -1.765816,1.47898 c -1.799774,1.50742 -2.918905,3.25771 -3.340463,5.2244 l -0.235337,1.0979 2.423031,0.0777 c 2.773708,0.0889 3.334202,0.41896 3.659739,2.15487 0.143519,0.76531 0.446819,1.24411 0.788093,1.24411 0.437635,0 0.507782,-0.29408 0.332197,-1.39255 -0.247764,-1.55001 0.476341,-2.99905 1.498672,-2.99905 0.454777,0 0.354927,-0.25218 -0.420366,-1.06171 -0.559242,-0.58395 -0.960441,-1.31045 -0.891559,-1.61446 0.08346,-0.3683 0.532137,-0.0194 1.344678,1.04577 0.965036,1.26501 1.219433,1.94239 1.219433,3.2469 0,0.90662 -0.116339,1.83671 -0.258533,2.06687 -0.418754,0.67782 -3.180101,1.78939 -4.466766,1.79809 -1.423682,0.01 -1.496127,0.46017 -0.436582,2.7151 1.670162,3.55444 4.962294,6.06741 8.632397,6.58934 1.433898,0.20391 1.561014,0.14556 2.258214,-1.03655 0.879431,-1.49109 2.333409,-2.5253 3.246593,-2.3093 0.553814,0.13099 0.513156,0.21619 -0.256382,0.53725 -2.440226,1.01807 -3.909988,4.89299 -3.059873,8.06708 0.174946,0.65322 0.329506,0.74238 0.722001,0.41652 0.274676,-0.22804 0.760361,-0.31445 1.079312,-0.19201 0.318944,0.12244 0.908262,0.0468 1.309594,-0.16805 0.960241,-0.5141 2.229324,0.29631 2.863862,1.8288 0.484732,1.17069 0.678212,1.29739 1.292145,0.84618 z"
         style="fill:none;stroke:#0000ff;stroke-width:0.1;stroke-miterlimit:4;stroke-dasharray:none"
         inkscape:connector-curvature="0" />
      <path
         id="path949"
         d="m 28.511144,279.625 c -2.780768,-1.20635 -3.673199,-3.02529 -2.155007,-4.39234 0.425826,-0.38344 1.253292,-1.3919 1.838807,-2.24102 0.827192,-1.19961 1.409104,-1.62754 2.609684,-1.91918 0.849809,-0.20643 2.008066,-0.53053 2.573902,-0.72024 0.741514,-0.2486 0.989697,-0.2276 0.888795,0.0752 -0.07699,0.23107 -1.116134,0.70869 -2.309188,1.06139 -2.598969,0.7683 -3.879946,2.08354 -3.564751,3.66012 0.129992,0.65019 -0.02457,1.37517 -0.422784,1.98316 -0.490886,0.74946 -0.530558,1.04948 -0.182058,1.37665 0.334827,0.31433 0.485778,0.30917 0.607166,-0.0207 0.08885,-0.2415 0.491452,-0.85865 0.894656,-1.37143 0.602351,-0.76606 0.861457,-0.86362 1.452772,-0.54704 0.395818,0.21191 1.025348,0.28824 1.398955,0.16962 0.825847,-0.26221 1.853879,0.67604 1.853879,1.69197 0,0.50066 0.202697,0.69364 0.640205,0.6095 0.438647,-0.0844 0.701822,-0.58248 0.835937,-1.58219 0.238034,-1.77435 0.577989,-2.37399 1.345869,-2.37399 0.526716,0 0.524605,0.0655 -0.02158,0.66925 -0.332996,0.36809 -0.605442,1.18511 -0.605442,1.81558 0,1.88239 -1.157264,2.64135 -4.001646,2.62437 -1.320203,-0.008 -2.97538,-0.26377 -3.678161,-0.56865 z"
         style="fill:none;stroke:#0000ff;stroke-width:0.1;stroke-miterlimit:4;stroke-dasharray:none"
         inkscape:connector-curvature="0" />
      <path
         id="path947"
         d="m 33.198402,278.43489 c 0.09486,-0.98756 -0.0013,-1.19482 -0.509533,-1.09491 -0.84271,0.16577 -1.425288,1.16089 -1.130113,1.93038 0.412274,1.07477 1.509887,0.51548 1.639646,-0.83547 z"
         style="fill:none;stroke:#0000ff;stroke-width:0.1;stroke-miterlimit:4;stroke-dasharray:none"
         inkscape:connector-curvature="0" />
      <path
         id="path945"
         d="m 30.703506,278.19516 c 0,-1.43499 -0.498711,-1.6682 -1.112784,-0.52035 -0.489761,0.91546 -0.218028,1.80123 0.552563,1.80123 0.39637,0 0.560221,-0.37463 0.560221,-1.28088 z"
         style="fill:none;stroke:#0000ff;stroke-width:0.1;stroke-miterlimit:4;stroke-dasharray:none"
         inkscape:connector-curvature="0" />
      <path
         id="path943"
         d="m 27.352321,276.71408 c 0.63553,-1.39535 0.513763,-1.82384 -0.307109,-1.08069 -0.726723,0.65792 -1.012501,2.01282 -0.424549,2.01282 0.168906,0 0.498153,-0.41946 0.731658,-0.93213 z"
         style="fill:none;stroke:#0000ff;stroke-width:0.1;stroke-miterlimit:4;stroke-dasharray:none"
         inkscape:connector-curvature="0" />
      <path
         id="path941"
         d="m 38.693573,294.26067 c 0.795278,-0.55724 0.805454,-0.62003 0.207612,-1.28088 -0.345763,-0.38221 -0.761973,-0.69492 -0.924918,-0.69492 -0.473185,0 -1.1292,1.47101 -0.910393,2.04142 0.256901,0.66973 0.597842,0.65598 1.627699,-0.0656 z"
         style="fill:none;stroke:#0000ff;stroke-width:0.1;stroke-miterlimit:4;stroke-dasharray:none"
         inkscape:connector-curvature="0" />
      <path
         id="path939"
         d="m 18.265301,293.40437 c 0,-1.29745 -0.463195,-1.65495 -1.455756,-1.12354 -0.908216,0.48624 -0.970924,1.71964 -0.09902,1.94757 1.346263,0.35195 1.554774,0.24144 1.554774,-0.82403 z"
         style="fill:none;stroke:#0000ff;stroke-width:0.1;stroke-miterlimit:4;stroke-dasharray:none"
         inkscape:connector-curvature="0" />
      <path
         id="path937"
         d="m 21.11563,293.70166 c 0.133415,-0.70459 -0.92605,-1.87446 -1.520929,-1.67942 -0.228151,0.0748 -0.467304,0.67059 -0.531451,1.32396 -0.108834,1.10849 -0.04788,1.18004 0.911445,1.06971 0.594566,-0.0684 1.075662,-0.36955 1.140935,-0.71425 z"
         style="fill:none;stroke:#0000ff;stroke-width:0.1;stroke-miterlimit:4;stroke-dasharray:none"
         inkscape:connector-curvature="0" />
      <path
         id="path935"
         d="m 23.177873,293.17365 c 1.017735,-1.01812 0.56473,-3.6128 -0.567967,-3.25316 -0.378589,0.1202 -0.686311,0.0428 -0.686311,-0.17272 0,-0.21485 0.123473,-0.39145 0.274377,-0.39245 0.150904,-0.001 0.751364,-0.38363 1.334362,-0.85031 l 1.059985,-0.8485 -1.79165,-1.11927 c -1.951251,-1.21898 -3.061504,-2.1913 -3.948201,-3.45771 l -0.572269,-0.81734 -0.898705,0.84461 c -0.49429,0.46454 -1.491267,1.97267 -2.215505,3.35141 l -1.316793,2.5068 0.74846,0.74874 c 0.611808,0.61204 0.70661,1.03205 0.519217,2.30038 l -0.229243,1.55163 1.111139,-1.28089 c 0.933615,-1.07623 1.218907,-1.21589 1.785589,-0.87415 0.370943,0.22369 1.204256,0.32894 1.851813,0.23386 1.017543,-0.1494 1.265127,-0.0187 1.823856,0.96334 0.739603,1.29984 0.923473,1.3604 1.717846,0.56573 z"
         style="fill:none;stroke:#0000ff;stroke-width:0.1;stroke-miterlimit:4;stroke-dasharray:none"
         inkscape:connector-curvature="0" />
      <path
         id="path933"
         d="m 14.314402,290.38191 c -0.538324,-0.53853 -0.996737,0.52609 -0.622417,1.44551 0.23258,0.57126 0.302694,0.5502 0.649116,-0.19493 0.279664,-0.60155 0.272192,-0.95158 -0.02671,-1.25058 z"
         style="fill:none;stroke:#0000ff;stroke-width:0.1;stroke-miterlimit:4;stroke-dasharray:none"
         inkscape:connector-curvature="0" />
      <path
         id="path931"
         d="m 43.873369,278.51547 c 0,-1.31065 -0.533902,-2.69909 -1.037895,-2.69909 -0.154267,0 -0.118584,0.97935 0.0793,2.17632 0.384829,2.32775 0.958597,2.64065 0.958597,0.52277 z"
         style="fill:none;stroke:#0000ff;stroke-width:0.1;stroke-miterlimit:4;stroke-dasharray:none"
         inkscape:connector-curvature="0" />
      <path
         id="path929"
         d="m 18.996965,276.39526 c 0,-1.44005 -0.389324,-2.04275 -1.319544,-2.04275 -0.748273,0 -0.875435,0.1772 -0.875435,1.21989 0,1.44612 0.205567,1.70785 1.341374,1.70785 0.658926,0 0.853605,-0.20184 0.853605,-0.88499 z"
         style="fill:none;stroke:#0000ff;stroke-width:0.1;stroke-miterlimit:4;stroke-dasharray:none"
         inkscape:connector-curvature="0" />
      <path
         id="path927"
         d="m 16.070328,276.02929 c 0,-2.03507 -1.062556,-2.74374 -1.86498,-1.24384 -0.363891,0.68019 -0.305418,0.89772 0.393487,1.46387 1.102041,0.89271 1.471493,0.83746 1.471493,-0.22003 z"
         style="fill:none;stroke:#0000ff;stroke-width:0.1;stroke-miterlimit:4;stroke-dasharray:none"
         inkscape:connector-curvature="0" />
      <path
         id="path925"
         d="m 22.760444,274.50869 c 0.05141,-0.70807 -0.09474,-1.07109 -0.431148,-1.07109 -0.792867,0 -1.271067,1.06408 -0.987014,2.19627 0.227805,0.90798 0.321582,0.96515 0.799261,0.48729 0.297646,-0.29776 0.576152,-1.02337 0.618901,-1.61247 z"
         style="fill:none;stroke:#0000ff;stroke-width:0.1;stroke-miterlimit:4;stroke-dasharray:none"
         inkscape:connector-curvature="0" />
      <path
         id="path923"
         d="m 42.150222,273.98655 c -0.105231,-0.40257 -0.420459,-0.73194 -0.70051,-0.73194 -0.417602,0 -0.426999,0.13164 -0.05228,0.73194 0.251307,0.40256 0.566541,0.73193 0.70051,0.73193 0.133968,0 0.157477,-0.32937 0.05228,-0.73193 z"
         style="fill:none;stroke:#0000ff;stroke-width:0.1;stroke-miterlimit:4;stroke-dasharray:none"
         inkscape:connector-curvature="0" />
      <path
         id="path921"
         d="m 43.641122,271.76419 c 1.046779,-0.82371 1.221432,-1.93536 0.539356,-3.43291 -0.555093,-1.21876 -1.429183,-1.17871 -2.829224,0.12961 -0.851001,0.79526 -1.129966,1.36936 -1.111419,2.28729 0.02318,1.14818 0.04982,1.17357 0.421731,0.40212 0.569039,-1.18033 1.036936,-1.01548 0.779036,0.27448 -0.185062,0.92566 -0.105278,1.0979 0.508554,1.0979 0.400433,0 1.161814,-0.34132 1.691966,-0.75849 z"
         style="fill:none;stroke:#0000ff;stroke-width:0.1;stroke-miterlimit:4;stroke-dasharray:none"
         inkscape:connector-curvature="0" />
      <path
         id="path919"
         d="m 39.666334,270.50986 v -1.64685 h -1.396517 c -1.275189,0 -1.375739,0.0715 -1.157418,0.82343 0.210749,0.7258 1.879925,2.46357 2.371018,2.46846 0.100603,10e-4 0.182917,-0.73927 0.182917,-1.64504 z"
         style="fill:none;stroke:#0000ff;stroke-width:0.1;stroke-miterlimit:4;stroke-dasharray:none"
         inkscape:connector-curvature="0" />
      <path
         id="path917"
         d="m 30.054703,268.35833 1.729094,-0.84776 -0.921468,-0.866 c -0.77821,-0.73136 -1.032034,-0.79692 -1.632667,-0.42168 -1.469276,0.91793 -2.948088,0.0419 -2.221605,-1.31606 0.533469,-0.99717 -0.759236,-2.23889 -1.602212,-1.53902 -0.65541,0.54415 -0.755127,-0.0143 -0.116613,-0.65303 0.620319,-0.62056 2.150745,-0.57446 1.908336,0.0575 -0.119144,0.31061 0.257354,0.68223 1.005115,0.99208 0.657594,0.27248 1.835137,1.11628 2.61677,1.87512 1.578383,1.53234 3.015612,2.07375 6.309416,2.3768 3.524879,0.3243 5.842671,-1.15438 7.106592,-4.53377 0.97161,-2.59785 0.932324,-5.34884 -0.104245,-7.2987 -0.731964,-1.37687 -3.681597,-4.88718 -4.106592,-4.88718 -0.09646,0 -0.175378,0.37878 -0.175378,0.84173 0,0.46295 -0.205781,1.0496 -0.457288,1.30367 -0.366262,0.37 -0.329853,0.53388 0.182924,0.82332 1.480131,0.83545 2.184544,3.85912 1.387567,5.95611 -0.192561,0.50667 -0.858367,1.18414 -1.479572,1.5055 -0.947101,0.48995 -1.330652,0.51151 -2.375539,0.13354 -0.956079,-0.34586 -1.463122,-0.35183 -2.178716,-0.0257 -1.142673,0.52082 -1.258214,-0.0911 -0.131132,-0.69451 l 0.801513,-0.42912 -1.004829,-0.86464 c -1.103001,-0.94912 -1.745044,-1.05983 -2.817223,-0.4858 -0.474663,0.25413 -0.707616,0.25642 -0.707616,0.007 0,-0.20452 0.418727,-0.477 0.930512,-0.60549 1.347701,-0.33838 0.87736,-1.0612 -0.690533,-1.0612 -1.548614,0 -1.739963,-0.41398 -0.42289,-0.91492 0.503013,-0.19132 0.914575,-0.60248 0.914575,-0.9137 0,-0.31122 0.410889,-0.75314 0.913084,-0.98204 0.75446,-0.34389 1.040451,-0.30088 1.646232,0.24755 0.870435,0.78802 0.954514,2.10671 0.175559,2.75343 -0.48729,0.40456 -0.406573,0.61049 0.640205,1.63335 1.368114,1.33686 2.456989,1.84818 2.521536,1.18406 0.09604,-0.98817 -0.162646,-1.58317 -1.20433,-2.77002 -0.823549,-0.93832 -1.035044,-1.46459 -0.863441,-2.14856 0.16112,-0.64221 -0.0289,-1.24153 -0.653032,-2.05926 -4.029245,-5.27937 -6.385278,-5.18943 -11.936064,0.45567 -1.900643,1.93294 -3.834965,4.07264 -4.298493,4.7549 -1.082835,1.59378 -1.132277,3.96514 -0.109787,5.26552 0.841198,1.0698 4.150313,2.82617 5.32472,2.82617 0.435843,0 1.413893,0.49405 2.173448,1.0979 1.644355,1.30725 1.713164,1.31124 3.924067,0.22724 z"
         style="fill:none;stroke:#0000ff;stroke-width:0.1;stroke-miterlimit:4;stroke-dasharray:none"
         inkscape:connector-curvature="0" />
      <path
         id="path915"
         d="m 26.923271,267.8871 c -0.486438,-0.48662 -0.229863,-0.9319 0.288828,-0.50125 0.292998,0.24325 0.704559,0.33604 0.914575,0.20619 0.210024,-0.12985 0.381859,-0.0617 0.381859,0.15148 0,0.42523 -1.195478,0.53351 -1.585262,0.14358 z"
         style="fill:none;stroke:#0000ff;stroke-width:0.1;stroke-miterlimit:4;stroke-dasharray:none"
         inkscape:connector-curvature="0" />
      <path
         id="path913"
         d="m 24.728291,258.73794 c -0.827252,-0.82756 0.15903,-3.38404 1.604024,-4.15767 2.028597,-1.08608 3.106358,2.15273 1.212307,3.64315 -0.94517,0.74375 -2.333622,0.99741 -2.816331,0.51452 z"
         style="fill:none;stroke:#0000ff;stroke-width:0.1;stroke-miterlimit:4;stroke-dasharray:none"
         inkscape:connector-curvature="0" />
      <path
         id="path911"
         d="m 27.786972,257.49917 c 0.662849,-1.23901 0.310533,-2.3599 -0.74176,-2.3599 -0.639906,0 -0.866705,0.16486 -0.755194,0.54895 0.08766,0.30192 0.169971,1.00183 0.182918,1.55535 0.02771,1.18453 0.742673,1.32359 1.314036,0.2556 z"
         style="fill:none;stroke:#0000ff;stroke-width:0.1;stroke-miterlimit:4;stroke-dasharray:none"
         inkscape:connector-curvature="0" />
      <path
         id="path909"
         d="m 17.538512,266.00493 c 0.785721,-0.63648 0.794432,-0.70708 0.223442,-1.81166 -0.745963,-1.44308 -0.75873,-3.59886 -0.02977,-5.02837 0.513609,-1.00721 2.201426,-2.8483 6.843684,-7.46519 0.955733,-0.95051 1.737692,-1.92075 1.737692,-2.15611 0,-0.23535 -0.645833,-0.75751 -1.435191,-1.16036 -1.318112,-0.67271 -1.540203,-0.68856 -2.722521,-0.19437 -0.824648,0.34469 -1.578843,0.43021 -2.098386,0.23794 -1.314869,-0.48658 -2.432374,-0.0649 -3.778684,1.42586 -1.255589,1.39031 -2.405348,4.34755 -2.401379,6.17644 0.0013,0.51699 0.175972,1.56659 0.388565,2.33243 0.305458,1.10041 0.261004,1.77049 -0.211927,3.1949 -1.189871,3.5837 1.039126,6.42936 3.48448,4.44849 z"
         style="fill:none;stroke:#0000ff;stroke-width:0.1;stroke-miterlimit:4;stroke-dasharray:none"
         inkscape:connector-curvature="0" />
      <path
         id="path907"
         d="m 16.579928,252.91353 c 0.122134,-0.31838 0.222058,-0.63432 0.222058,-0.70208 0,-0.0678 0.558649,-0.4686 1.241444,-0.89074 1.036989,-0.64114 1.41354,-0.70153 2.286432,-0.36671 0.574746,0.22046 1.674443,0.30151 2.443775,0.18011 1.008405,-0.15912 1.325897,-0.10275 1.137625,0.202 -0.177816,0.28782 -1.015884,0.35222 -2.626054,0.2018 -2.267238,-0.21179 -2.409797,-0.176 -3.452201,0.86679 -1.217362,1.21782 -1.581806,1.36581 -1.253079,0.50883 z"
         style="fill:none;stroke:#0000ff;stroke-width:0.1;stroke-miterlimit:4;stroke-dasharray:none"
         inkscape:connector-curvature="0" />
      <path
         id="path905"
         d="m 40.129576,260.07657 c 0.691819,-1.30955 0.347594,-4.02292 -0.608631,-4.79751 -0.634378,-0.51389 -0.987747,-0.55313 -2.048318,-0.22751 -1.579741,0.48502 -1.603936,0.97596 -0.130791,2.65441 0.697006,0.79414 1.165895,1.74058 1.188945,2.39984 0.04642,1.32821 0.889827,1.31279 1.598795,-0.0292 z"
         style="fill:none;stroke:#0000ff;stroke-width:0.1;stroke-miterlimit:4;stroke-dasharray:none"
         inkscape:connector-curvature="0" />
      <path
         id="path903"
         d="m 34.512378,256.16059 c -0.866851,-1.37476 -1.411948,-0.36397 -0.92234,1.71036 0.02204,0.0935 0.32541,-0.1155 0.674103,-0.46433 0.480045,-0.48022 0.540329,-0.78281 0.248237,-1.24603 z"
         style="fill:none;stroke:#0000ff;stroke-width:0.1;stroke-miterlimit:4;stroke-dasharray:none"
         inkscape:connector-curvature="0" />
      <path
         id="path901"
         d="m 38.431996,253.61648 c 0.739197,-0.64783 1.502608,-4.18486 1.012354,-4.69042 -0.514761,-0.53084 -1.583271,0.26998 -1.734761,1.30016 -0.07017,0.47722 -0.522886,1.33764 -1.006027,1.91203 -0.885925,1.05325 -1.086285,1.75619 -0.630529,2.21211 0.324305,0.32443 1.606574,-0.0745 2.358963,-0.73388 z"
         style="fill:none;stroke:#0000ff;stroke-width:0.1;stroke-miterlimit:4;stroke-dasharray:none"
         inkscape:connector-curvature="0" />
      <path
         id="path899"
         d="m 36.752424,250.27475 c -0.324544,-0.3218 -2.050482,1.78211 -1.797656,2.19134 0.100976,0.16345 0.605535,-0.20446 1.121235,-0.81758 0.515707,-0.6131 0.8201,-1.2313 0.676421,-1.37376 z"
         style="fill:none;stroke:#0000ff;stroke-width:0.1;stroke-miterlimit:4;stroke-dasharray:none"
         inkscape:connector-curvature="0" />
      <path
         id="path878"
         d="m 34.979363,250.96164 c 0.100775,-0.38551 0.579235,-0.80036 1.063235,-0.92189 0.954567,-0.23966 1.137185,-0.90125 0.441017,-1.59767 -0.721747,-0.72203 -2.094037,-0.50022 -3.09395,0.50007 l -0.938877,0.93923 0.836363,0.8906 c 1.007865,1.07323 1.448337,1.12259 1.692212,0.18966 z"
         style="fill:none;stroke:#0000ff;stroke-width:0.1;stroke-miterlimit:4;stroke-dasharray:none"
         inkscape:connector-curvature="0" />
      <path
         id="path882"
         style="fill:none;stroke:#0000ff;stroke-width:0.1"
         d="m 16.933783,248.46411 -1.427412,1.42741 m -0.791176,1.1903 2.81143,-2.81143 m 0.583524,-0.1844 -0.06306,0.0631 m -3.43415,3.43415 0.970113,-0.97011 m -0.866261,1.26538 -0.596574,0.59657 m 0.02872,0.37041 0.212381,-0.21238 m -0.189228,0.58835 -0.127421,0.12742 m 5.6766,-5.27748 0.12158,-0.12158 m -5.850465,5.85047 -0.05198,0.052 m 6.113191,-5.71407 0.204062,-0.20406 m 0.494929,-0.0958 -0.369648,0.36964 m 0.301129,0.098 0.426586,-0.42659 m 0.504904,-0.10578 -0.457298,0.4573 m -4.097126,4.09712 0.793494,-0.79349 m 4.341715,-3.94259 -0.500486,0.50048 m -4.826165,4.82617 1.694494,-1.6945 m 4.086034,-3.68691 -0.355445,0.35545 m -5.021697,5.02169 1.862571,-1.86257 m 4.067554,-3.66843 -0.196531,0.19653 m -3.713212,3.71321 0.273505,-0.2735 m 4.081914,-3.68279 -0.233559,0.23356 m -3.592617,3.59261 0.05119,-0.0512 m 4.12936,-3.73024 -0.248822,0.24882 m 0.318503,0.0806 0.206381,-0.20638 m -10.401141,10.40114 -0.07494,0.0749 m 10.553788,-10.15466 0.198354,-0.19835 m -10.605993,10.60599 -0.141346,0.14134 m 10.82038,-10.42125 0.179849,-0.17985 m -10.776952,10.77695 -0.218474,0.21847 m 11.086972,-10.68785 0.14751,-0.14751 m -10.957274,10.95728 -0.272406,0.2724 m 11.337875,-10.93875 0.13086,-0.13086 m -11.126347,11.12635 -0.327832,0.32783 m 11.567525,-11.1684 0.125709,-0.12571 m -11.363225,11.36322 -0.367944,0.36795 m 11.849667,-11.45055 0.09355,-0.0935 m -11.562445,11.56245 -0.41871,0.41871 m 12.13181,-11.73269 0.05274,-0.0527 M 14.0584,260.51939 13.71839,260.8594 m -0.03794,0.43706 0.219372,-0.21937 m -0.164219,0.56334 -0.09309,0.0931 m -0.07377,0.47289 0.06462,-0.0646 m 13.098112,-12.69899 -0.719797,0.7198 m -6.112211,6.51133 7.074461,-7.07446 m 0.24501,0.15411 -9.240811,9.24081 m 8.760818,-8.36169 0.895555,-0.89556 m -7.48862,7.48862 -2.207527,2.20753 m 9.629094,-9.22997 0.417558,-0.41756 m -9.905488,9.90549 -0.490682,0.49068 m 10.724917,-10.32579 0.146567,-0.14657 m -10.661862,10.66186 -0.213553,0.21355 m -0.04364,0.44277 0.151633,-0.15163 m -0.04597,0.44509 -0.187281,0.18728 m 0.03962,0.3595 0.108544,-0.10855 m 0.02924,0.36989 -0.09817,0.0982 m 12.953379,-12.55426 0.101851,-0.10185 m -12.938461,12.93847 -0.07715,0.0771 m 13.231784,-12.83266 0.105919,-0.10592 m -13.183482,13.18348 -0.112817,0.11282 m 13.489124,-13.09 0.150721,-0.15072 m -5.107858,5.10786 -0.504217,0.50421 m -7.923533,7.92354 0.07494,-0.075 m -3.214572,3.21458 -0.05541,0.0554 m 16.854583,-16.45546 0.37126,-0.37126 m -5.199637,5.19964 -1.648938,1.64894 m -7.077997,7.07799 0.08418,-0.0842 m -3.116583,3.11658 -0.07057,0.0706 m 16.932949,-16.53383 1.349097,-1.34909 m -5.907861,5.90786 -0.278447,0.27844 m -2.124978,2.12498 1.315548,-1.31555 m -7.989153,7.98916 -0.08994,0.0899 m -3.003871,3.00387 0.113741,-0.11374 m 19.436542,-19.03742 -2.57605,2.57605 m -4.665614,4.66561 0.225449,-0.22545 m -1.407836,1.40784 -1.295046,1.29505 m -6.719724,6.71972 0.126766,-0.12677 m -2.848791,2.84879 -0.186097,0.1861 m 19.559163,-19.16004 0.264353,-0.26435 m -2.594068,2.59407 -0.216062,0.21606 m -4.54858,4.54858 0.08485,-0.0848 m -1.584761,1.58476 -1.385028,1.38503 m -6.542331,6.54233 0.150684,-0.15068 m -2.689906,2.6899 -0.294969,0.29497 m 19.855798,-19.45667 0.196935,-0.19694 m -2.833333,2.83334 -0.166863,0.16686 m -7.642325,7.64232 1.393337,-1.39333 m -7.646643,7.64664 -0.192924,0.19292 m -2.753645,2.75365 0.503259,-0.50326 m 19.65353,-19.25441 -0.127277,0.12728 m -2.981551,2.98155 0.154395,-0.1544 m -6.567144,6.56715 -1.286829,1.28683 m -6.505986,6.50598 0.302222,-0.30222 m -2.173297,2.1733 -1.847054,1.84705 m 18.132598,-17.73347 0.138785,-0.13879 m -6.701844,6.70185 -1.132888,1.13288 m -10.997679,10.99768 4.782362,-4.78236 m 14.246467,-13.84734 -0.126299,0.1263 m -7.582951,7.58295 0.876982,-0.87699 m -7.189268,7.18927 -1.86105,1.86105 m -3.216946,3.21695 0.494772,-0.49477 m 18.810881,-18.41176 -0.123515,0.12351 m -7.325315,7.32532 0.517819,-0.51782 m -7.071715,7.07171 -0.247797,0.2478 m -5.364604,5.36461 0.356297,-0.3563 m 19.464951,-19.06583 -0.120732,0.12073 m -6.959819,6.95982 0.122573,-0.12257 m -7.018461,7.01846 -0.231338,0.23134 m -5.775502,5.7755 0.33656,-0.33656 m 19.845569,-19.44645 -0.110678,0.11068 m -14.047081,14.04708 0.230701,-0.2307 m -6.198428,6.19843 -0.214791,0.21479 m 23.619447,-23.22033 0.07491,-0.0749 m -3.086084,3.08608 -0.183908,0.18391 m -13.992977,13.99298 0.230063,-0.23007 m -6.627232,6.62724 -0.112552,0.11255 m 23.801462,-23.40234 0.259805,-0.25981 m -1.520096,1.5201 -0.567037,0.56704 m -1.28986,1.28986 0.243123,-0.24313 m -13.939383,13.93939 -0.229426,0.22942 m -6.837813,6.83782 0.08811,-0.0881 m 24.563052,-24.16393 -3.706085,3.70608 m -13.858394,13.8584 0.228788,-0.22879 m 18.119686,-17.72056 -1.754829,1.75482 m -2.553675,2.55368 0.484924,-0.48492 m -14.047876,14.04787 -0.218578,0.21858 m -7.389155,7.38915 0.09271,-0.0927 m 25.765077,-25.36595 -2.020475,2.02048 m -2.485052,2.48505 0.144707,-0.14471 m -13.638356,13.63835 -0.206759,0.20676 m -7.611405,7.61141 0.377936,-0.37794 m 25.740367,-25.34124 -0.122142,0.12214 m -4.502772,4.50277 2.655063,-2.65506 m -4.824949,4.82495 -0.523144,0.52314 m -1.633591,1.63359 0.306522,-0.30652 m -9.381136,9.38114 -0.21805,0.21805 m -7.833655,7.83365 0.724208,-0.7242 m 25.574798,-25.17568 -0.07388,0.0739 m -4.590607,4.59061 2.172274,-2.17227 m -3.940154,3.94015 -2.38164,2.38164 m -5.602573,5.60257 0.219846,-0.21984 m -3.776575,3.77657 -0.229341,0.22934 m -8.040286,8.04029 1.054863,-1.05486 m 25.373088,-24.97397 -0.06007,0.0601 m -4.607851,4.60785 1.237749,-1.23775 m -2.769181,2.76918 -2.43016,2.43016 m -5.936293,5.93629 0.683493,-0.68349 m -4.002017,4.00201 -0.240632,0.24064 m -8.211582,8.21158 1.350182,-1.35018 m 25.149615,-24.7505 -0.08768,0.0877 m -4.571502,4.5715 0.645812,-0.64581 m -2.072254,2.07226 -2.358014,2.35801 m -5.437423,5.43742 0.364928,-0.36493 m -4.257463,4.25747 -0.227732,0.22773 m -8.415352,8.41535 0.462743,-0.46274 m 26.093027,-25.69391 -0.208936,0.20894 m -4.428765,4.42876 0.244148,-0.24414 m -2.534758,2.53475 -1.285418,1.28542 m -5.486044,5.48605 0.361374,-0.36138 m -4.300298,4.3003 -0.209494,0.2095 m -8.564933,8.56493 0.05772,-0.0577 m 26.494501,-26.09538 -0.34458,0.34458 m -7.652929,7.65293 0.900665,-0.90066 m -6.119743,6.11974 -0.349835,0.34984 m -4.128636,4.12863 0.198036,-0.19803 m -6.772442,6.77244 -0.196068,0.19607 m -1.94404,1.94404 0.06087,-0.0609 m 26.487798,-26.08868 -0.547364,0.54737 m -7.282147,7.28214 0.656916,-0.65691 m -6.230241,6.23024 -0.07118,0.0712 m -4.06791,4.06791 0.209282,-0.20929 m -6.705223,6.70523 -0.376971,0.37697 m -1.961398,1.9614 0.05438,-0.0544 m 26.46095,-26.06183 -0.750148,0.75015 m -3.882288,3.88229 0.07839,-0.0784 m -2.709239,2.70924 -0.444208,0.44421 m -5.719265,5.71926 0.06603,-0.066 m -3.813316,3.81332 -0.208839,0.20884 m -7.042219,7.04222 0.618839,-0.61884 m -2.446014,2.44601 -0.05018,0.0502 m 25.491498,-25.09237 0.956844,-0.95685 m -4.3631,4.3631 -0.355372,0.35537 m -2.918658,2.91866 0.276365,-0.27636 m -5.932911,5.93291 -0.115355,0.11535 m -3.850594,3.8506 0.287991,-0.28799 m -6.609823,6.60982 -0.875496,0.8755 m 24.063396,-23.66428 0.539724,-0.53972 m -1.142748,1.14274 -0.125372,0.12538 m -3.555685,3.55568 0.654736,-0.65473 m -3.289459,3.28946 -0.704725,0.70472 m -5.252412,5.25241 0.205111,-0.20511 m -3.564397,3.5644 -0.398064,0.39806 m -7.354778,7.35478 1.188245,-1.18825 m 23.485714,-23.08659 -0.437562,0.43757 m -1.27013,1.27013 0.340458,-0.34046 m -2.489758,2.48976 -1.16349,1.16349 m -2.927639,2.92763 1.73259,-1.73259 m -6.874167,6.87417 -0.459185,0.45919 m -3.582131,3.58213 0.532465,-0.53247 m -6.561012,6.56101 -0.09992,0.0999 m -1.357787,1.35778 0.299562,-0.29956 m 24.463875,-24.06475 -0.377701,0.3777 m -3.362208,3.36221 2.127364,-2.12737 m -3.434464,3.43447 -0.164625,0.16462 m -2.511356,2.51136 1.327377,-1.32738 m -6.575808,6.57581 -0.759681,0.75968 m -3.373002,3.373 0.638514,-0.63851 m -3.044583,3.04458 -0.05795,0.058 m -3.498445,3.49844 0.0905,-0.0905 m -1.583,1.58299 -0.220498,0.2205 m 24.609049,-24.20992 0.316682,-0.31669 m -1.73644,1.73644 -1.602207,1.60221 m -1.958769,1.95877 0.166549,-0.16655 m -2.093328,2.09333 -0.366383,0.36638 m -6.514112,6.51412 1.236795,-1.2368 m -3.477624,3.47762 -0.804333,0.80434 m -2.393787,2.39378 0.07545,-0.0754 m -5.210631,5.21063 -0.210398,0.2104 m 24.764863,-24.36574 0.27052,-0.27052 m -2.479378,2.47938 -0.571536,0.57153 m -2.249631,2.24964 0.16275,-0.16275 m -2.079815,2.07981 -0.231227,0.23123 m -6.775693,6.77569 1.46016,-1.46016 m -3.484219,3.48422 -0.94883,0.94883 m -2.32174,2.32174 0.09296,-0.093 m -3.312831,3.31283 -0.05166,0.0517 m -2.90963,2.90963 0.896817,-0.89682 m 24.949677,-24.55055 -0.227741,0.22774 m -2.511828,2.51182 0.296965,-0.29696 m -2.681318,2.68132 -0.182392,0.18239 m -2.047511,2.04751 0.151765,-0.15176 m -5.458785,5.45878 -1.55888,1.55888 m -2.119281,2.11928 0.187348,-0.18735 m -0.929784,0.92979 -0.171059,0.17106 m -2.24126,2.24126 0.09361,-0.0936 m -5.472039,5.47204 -0.714684,0.71469 m 25.548075,-25.14896 0.201765,-0.20176 m -2.368624,2.36862 -0.251356,0.25136 m -2.672272,2.67227 0.180325,-0.18032 m -2.063977,2.06397 -0.111253,0.11125 m -6.860223,6.86023 1.573258,-1.57326 m -3.497409,3.49741 -0.154916,0.15491 m -1.09794,1.09795 0.163049,-0.16305 m -2.237858,2.23785 -0.07957,0.0796 m -6.027886,6.02789 0.580412,-0.58041 m 25.098904,-24.69978 -0.185483,0.18548 m -2.33658,2.33658 0.210241,-0.21024 m -2.797804,2.7978 -0.178257,0.17826 m -1.942299,1.9423 0.07801,-0.078 m -5.351388,5.35139 -1.527193,1.52719 m -2.141285,2.14129 0.170941,-0.17095 m -1.248372,1.24838 -0.135603,0.1356 m -2.088394,2.08839 0.06553,-0.0655 m -5.52662,5.52662 -0.54155,0.54155 m 25.479574,-25.08045 0.169201,-0.1692 m -2.261787,2.26178 -0.195346,0.19535 m -2.826206,2.8262 0.176014,-0.17601 m -2.021117,2.02112 -0.04999,0.05 m -6.626628,6.62663 1.347339,-1.34734 m -3.479993,3.48 -0.175179,0.17517 m -1.315578,1.31558 0.08891,-0.0889 m -2.077123,2.07713 -0.05148,0.0515 m -1.308083,1.30808 0.42204,-0.42204 m -4.504867,4.50487 -0.586493,0.58649 m 25.465314,-25.06619 0.152919,-0.15292 m -2.233602,2.2336 -0.178762,0.17877 m -2.865402,2.8654 0.172742,-0.17274 m -7.306851,7.30685 -1.0336,1.0336 m -2.608265,2.60826 0.172423,-0.17242 m -3.579827,3.57983 -1.566872,1.56687 m -1.943151,1.94315 0.0532,-0.0532 m -1.842861,1.84286 -0.692353,0.69235 m 25.485657,-25.08654 0.140182,-0.14018 m -2.234712,2.23471 -0.163725,0.16373 m -2.873755,2.87376 0.168571,-0.16858 m -7.26241,7.26241 -0.622821,0.62282 m -3.001369,3.00137 0.165298,-0.1653 m -3.67622,3.67623 -1.899075,1.89907 m -1.713594,1.71359 0.109004,-0.109 m -1.563242,1.56324 -0.909466,0.90947 m 25.513602,-25.11448 0.136579,-0.13658 m -2.235825,2.23582 -0.168106,0.16811 m -2.86269,2.86269 0.164224,-0.16422 m -7.217792,7.21779 -0.225425,0.22542 m -3.379979,3.37998 0.157063,-0.15706 m -3.7982,3.7982 -0.457348,0.45735 m -1.596693,1.59669 0.07283,-0.0728 m -1.546591,1.54659 -0.171632,0.17163 m -2.229792,2.22979 1.12516,-1.12516 m 24.543456,-24.14433 -0.132976,0.13297 m -2.307858,2.30786 0.158726,-0.15872 m -2.819063,2.81906 -0.174762,0.17476 m -3.068201,3.0682 0.31065,-0.31065 m -4.240862,4.24086 -0.163161,0.16317 m -3.423457,3.42345 0.152558,-0.15256 m -3.95003,3.95004 -0.273904,0.2739 m -1.829892,1.82989 0.05931,-0.0593 m -1.436515,1.43651 -1.212103,1.2121 m -1.203368,1.20337 0.141088,-0.14109 m 25.586479,-25.18735 -0.129373,0.12937 m -2.356942,2.35694 0.162326,-0.16232 m -2.806801,2.8068 -0.170815,0.17081 m -2.570007,2.57001 0.933991,-0.93399 m -5.290824,5.29082 -0.118672,0.11867 m -3.449218,3.44922 0.181304,-0.1813 m -4.135111,4.13511 -0.184752,0.18475 m -1.966951,1.96695 0.06054,-0.0605 m -1.322801,1.3228 -0.898061,0.89806 m -1.551686,1.55169 0.09512,-0.0951 m 25.697341,-25.29822 -0.131718,0.13171 m -2.436178,2.43618 0.173049,-0.17305 m -2.767195,2.7672 -0.174515,0.17451 m -2.154377,2.15438 0.618825,-0.61882 m -5.315712,5.31571 -0.125971,0.12597 m -3.368994,3.36899 0.183497,-0.18349 m -4.422351,4.42235 -0.09822,0.0982 m -2.016903,2.0169 0.0798,-0.0798 m -1.19767,1.19767 -0.606812,0.60681 m -1.917299,1.9173 0.06421,-0.0642 m 25.793121,-25.394 -0.134034,0.13403 m -2.516661,2.51666 0.171179,-0.17118 m -2.739492,2.73949 -0.184415,0.18442 m -1.812141,1.81214 0.408996,-0.409 m -5.340601,5.3406 -0.130186,0.13019 m -3.253706,3.25371 0.192909,-0.19291 m -4.738658,4.73866 -0.168849,0.16885 m -1.93738,1.93738 0.13398,-0.13398 m -1.01151,1.01151 -0.404223,0.40422 m -2.282242,2.28224 0.07698,-0.077 m 25.84864,-25.44952 -0.13635,0.13635 m -2.630456,2.63046 0.202622,-0.20262 m -2.719007,2.71901 -0.239571,0.23957 m -1.539057,1.53905 0.320791,-0.32079 m -5.365488,5.36549 -0.140008,0.14001 m -3.066856,3.06685 0.441366,-0.44136 m -5.411185,5.41119 -0.139587,0.13958 m -2.637219,2.63722 0.957517,-0.95752 m -3.627834,3.62784 -0.09137,0.0914 m 25.86234,-25.46322 0.137938,-0.13794 m -2.690981,2.69099 -0.18491,0.18491 m -2.745702,2.7457 0.23099,-0.23099 m -1.248752,1.24875 -0.298107,0.29811 m -5.281892,5.28189 0.15349,-0.15349 m -2.588403,2.5884 -0.511071,0.51107 m -5.601292,5.60129 0.279821,-0.27982 m -1.63878,1.63878 -0.51443,0.51443 m -3.256339,3.25634 0.10577,-0.10577 m 25.969172,-25.57005 -0.157477,0.15748 m -2.892083,2.89208 0.236032,-0.23603 m -2.694763,2.69476 -0.301077,0.30108 m -0.975624,0.97562 0.302889,-0.30288 m -5.543109,5.54311 -0.166972,0.16697 m -2.195065,2.19506 0.510042,-0.51004 m -6.813211,6.81321 -1.650558,1.65056 m -3.630045,3.63004 0.120166,-0.12016 M 43.957635,254.967 43.78062,255.14402 m -3.046213,3.04621 0.255931,-0.25593 m -2.681818,2.68182 -1.010349,1.01035 m -5.505549,5.50555 0.199299,-0.1993 m -1.551045,1.55104 -0.535927,0.53593 m -7.467169,7.46717 0.517172,-0.51717 m -4.908439,4.90843 -0.134562,0.13457 m 26.027714,-25.62859 0.189786,-0.18979 m -3.127721,3.12772 -0.262409,0.26241 m -3.133706,3.1337 0.81354,-0.81354 m -6.17543,6.17544 -1.382027,1.38202 m -12.845826,12.84583 0.174451,-0.17445 m 26.0939,-25.69478 -0.185513,0.18551 m -3.371661,3.37166 0.298114,-0.29811 m -2.442014,2.44201 -0.67185,0.67185 m -6.523309,6.52331 1.105847,-1.10584 m -14.162581,14.16258 -2.003387,2.00338 m 27.929886,-27.53076 0.181241,-0.18124 m -3.507405,3.5074 -0.257737,0.25774 m -2.384092,2.38409 0.521241,-0.52124 m -6.040078,6.04008 -0.851043,0.85104 m -16.063907,16.06391 2.616213,-2.61621 m 26.12158,-25.72246 -0.185417,0.18542 m -5.622336,5.62233 2.159911,-2.15991 m -7.897913,7.89791 -0.61295,0.61296 m -13.965989,13.96598 0.144047,-0.14404 m -2.60138,2.60138 -0.691152,0.69115 m 29.210843,-28.81172 0.217108,-0.21711 m -4.090286,4.09029 -1.140023,1.14002 m -6.666501,6.6665 0.485248,-0.48525 m -14.582924,14.58293 -0.115787,0.11578 m -3.931256,3.93126 0.676273,-0.67627 m 29.520029,-29.12091 -0.248799,0.2488 m -4.531572,4.53157 0.389979,-0.38998 m -6.861621,6.86162 -0.363714,0.36372 m -4.822338,4.82233 0.810456,-0.81045 m -10.354057,10.35406 -0.119013,0.11901 m -4.41417,4.41417 0.416872,-0.41687 m 30.200639,-29.80152 -0.238346,0.23835 m -11.044187,11.04418 0.24218,-0.24218 m -3.82908,3.82908 -4.005414,4.00542 m -7.164128,7.16412 0.120854,-0.12085 m -4.69725,4.69725 -0.320688,0.32069 m 30.789545,-30.39042 0.253524,-0.25353 m -10.833041,10.83304 -0.209454,0.20946 m -4.293164,4.29316 0.953731,-0.95373 m -2.275878,2.27588 -2.504875,2.50488 m -6.815032,6.81503 0.11879,-0.11879 m -5.305104,5.3051 -0.222086,0.22209 m 31.204269,-30.80515 0.258245,-0.25825 m -10.59512,10.59513 -0.16686,0.16685 m -3.420318,3.42032 0.278171,-0.27817 m -3.196192,3.19619 -2.155806,2.15581 m -6.621409,6.62141 0.108419,-0.10842 m -5.912959,5.91296 -0.195648,0.19565 m 31.715025,-31.31591 0.231934,-0.23193 m -10.351425,10.35142 -0.122877,0.12288 m -3.18121,3.18121 0.23635,-0.23635 m -3.692552,3.69255 -0.288088,0.28809 m -1.906924,1.90693 0.09204,-0.092 m -6.45746,6.45745 -0.09805,0.0981 m -6.147916,6.14792 0.359715,-0.35972 m 31.627631,-31.22851 -0.241777,0.24178 m -9.990636,9.99064 0.164407,-0.16441 m -2.866193,2.86619 -0.286851,0.28686 m -4.066045,4.06604 0.07349,-0.0735 m -8.339908,8.33991 -0.109334,0.10933 m -6.475963,6.47597 0.710706,-0.71071 m 31.451347,-31.05222 -0.199124,0.19912 m -9.774606,9.77461 0.23514,-0.23514 m -2.664648,2.66465 -0.09448,0.0945 m -4.860825,4.86082 0.154941,-0.15494 m -8.182835,8.18284 -0.114355,0.11435 m -6.70485,6.70485 0.953821,-0.95382 m 31.287451,-30.88833 -0.210255,0.21026 m -9.552662,9.55266 0.341357,-0.34136 m -7.851159,7.85116 -0.536017,0.53602 m -7.526391,7.52639 0.103377,-0.10338 m -5.856177,5.85618 -1.184006,1.18401 m 32.086177,-31.68706 0.193779,-0.19378 m -9.076927,9.07693 -0.46836,0.46836 m -9.320635,9.32063 1.635153,-1.63515 m -7.818687,7.81869 -0.0924,0.0924 m -5.845797,5.84579 0.08123,-0.0812 m -1.242885,1.24289 -0.124635,0.12463 m 32.09427,-31.69515 0.183109,-0.1831 m -8.727709,8.7277 -0.616495,0.6165 m -9.321318,9.32132 0.928203,-0.92821 m -7.125258,7.12526 -0.08142,0.0814 m -5.84794,5.84795 0.06337,-0.0634 m -1.318277,1.31828 -0.149443,0.14945 m 31.998616,-31.5995 0.201111,-0.20111 m -8.386777,8.38678 -0.781023,0.78102 m -9.297322,9.29732 0.298179,-0.29818 m -6.491245,6.49125 -0.08348,0.0835 m -7.366695,7.3667 0.123988,-0.12399 m 31.917655,-31.51853 -0.143895,0.14389 m -8.782094,8.7821 0.99375,-0.99375 m -10.071287,10.07128 -0.162232,0.16224 m -6.286085,6.28608 0.07458,-0.0746 m -6.035758,6.03576 -0.08963,0.0896 m -1.406149,1.40615 0.115692,-0.1157 m 31.745258,-31.34613 -0.156349,0.15635 m -8.579474,8.57947 1.239245,-1.23924 m -10.284789,10.28479 -0.09903,0.099 m -6.300498,6.3005 0.06567,-0.0657 m -6.255057,6.25506 -0.297929,0.29793 m -1.03769,1.03769 0.132532,-0.13253 m 31.525512,-31.12639 -0.152485,0.15248 m -7.170681,7.17068 0.298335,-0.29833 m -1.390526,1.39053 -0.1303,0.13029 m -7.14925,7.14926 0.292545,-0.29255 m -2.12273,2.12273 -0.06994,0.0699 m -6.31491,6.31491 0.05677,-0.0568 m -6.513529,6.51352 -1.11544,1.11544 m 31.212911,-30.81378 0.221378,-0.22138 m -6.599169,6.59917 -0.264436,0.26443 m -1.487022,1.48703 0.103433,-0.10344 m -6.708848,6.70885 -1.626885,1.62689 m -0.705373,0.70537 0.06008,-0.0601 m -13.136886,13.13688 -0.871771,0.87178 m 30.916777,-30.51766 0.338457,-0.33846 m -6.166304,6.16631 -0.31844,0.31844 m -1.735077,1.73507 0.09831,-0.0983 m -7.972114,7.97212 -0.947397,0.94739 m -14.003701,14.00371 0.586844,-0.58685 m 30.236948,-29.83782 -0.308496,0.30849 m -5.556196,5.5562 0.343183,-0.34319 m -2.235028,2.23503 -0.08415,0.0842 m -6.391047,6.39104 0.06172,-0.0617 m -1.724334,1.72433 -0.660099,0.6601 m -14.040622,14.04062 0.288936,-0.28893 m 30.267546,-29.86843 -0.467642,0.46764 m -4.959334,4.95934 0.50746,-0.50746 m -2.625539,2.62554 -0.08086,0.0809 m -6.437922,6.43792 0.240627,-0.24063 m -2.011371,2.01137 -0.415642,0.41564 m 15.284079,-14.88495 0.680344,-0.68035 m -4.116245,4.11625 -0.689931,0.68993 m -2.357759,2.35776 0.08787,-0.0879 m -6.146736,6.14673 -0.517905,0.51791 m -1.908664,1.90866 0.251575,-0.25157 m -12.383018,12.38301 -1.993114,1.99312 m 25.058088,-24.65897 4.73413,-4.73413 m -6.911162,6.91116 -0.0879,0.0879 m -6.778079,6.77809 1.043958,-1.04396 m -2.523655,2.52365 -0.107442,0.10744 m -14.179559,14.17956 2.221708,-2.22171 m 26.917365,-26.51824 -4.329363,4.32937 m -2.069853,2.06985 0.07601,-0.076 m -5.614308,5.61431 -1.361194,1.36119 m -7.996951,7.99696 0.05829,-0.0583 m -5.401717,5.40172 -0.06267,0.0627 m -2.18895,2.18895 0.417461,-0.41746 m 28.436405,-28.03729 -4.292534,4.29254 m -1.874774,1.87477 0.08476,-0.0848 m -5.477516,5.47751 -1.705071,1.70507 m -7.747305,7.74731 0.07708,-0.0771 m -5.356923,5.35692 -0.06154,0.0615 m -2.251666,2.25167 0.240748,-0.24075 m 28.162378,-27.76325 -1.181408,1.1814 m -4.585311,4.58531 0.09515,-0.0951 m -7.111356,7.11136 -0.946849,0.94684 m -6.834641,6.83465 0.0966,-0.0966 m -5.312127,5.31212 -0.130872,0.13088 m -2.203921,2.20392 0.08409,-0.0841 m 28.035595,-27.63647 -0.772728,0.77272 m -4.784205,4.78421 0.08903,-0.089 m -7.305553,7.30555 -0.5585,0.5585 m -6.991747,6.99175 0.116117,-0.11611 m -5.266852,5.26685 -0.29241,0.29241 m 25.332138,-24.93302 0.45533,-0.45533 m -4.085869,4.08587 -0.05084,0.0508 m -1.22611,1.22611 0.08602,-0.086 m -7.411457,7.41146 -0.295973,0.29597 m -7.114439,7.11444 0.13077,-0.13077 m -5.127025,5.12702 -0.524913,0.52492 m 25.427215,-25.0281 0.285398,-0.2854 m -4.153135,4.15314 -0.184186,0.18419 m -0.903551,0.90355 0.133648,-0.13365 m -7.53065,7.53065 -0.07079,0.0708 m -7.237129,7.23713 0.179825,-0.17982 m -4.94937,4.94937 -0.95767,0.95767 m 25.579949,-25.18083 0.192826,-0.19283 m -4.220973,4.22098 -0.89931,0.89931 m -5.69758,5.69758 0.208557,-0.20856 m -8.961716,8.96172 -0.228881,0.22888 m -5.974032,5.97403 0.562764,-0.56276 m 25.312578,-24.91346 -0.120288,0.12029 m -4.881463,4.88146 1.900605,-1.9006 m -4.52358,4.52358 -0.805684,0.80568 m -2.569946,2.56995 0.348587,-0.34859 m -8.725948,8.72595 -0.277936,0.27793 m -2.258185,2.25819 0.915707,-0.91571 m -4.579197,4.5792 -0.245661,0.24566 m 25.846236,-25.44711 0.08003,-0.08 m -3.295685,3.29568 -1.589402,1.5894 m -3.657619,3.65762 0.648027,-0.64802 m -2.817217,2.81721 -1.153988,1.15399 m -9.797575,9.79758 2.477179,-2.47718 m -4.716682,4.71668 -0.09521,0.0952 m -2.716729,2.71673 1.010844,-1.01084 m 25.807337,-25.40822 -0.06579,0.0658 m -4.702635,4.70264 1.302991,-1.30299 m -4.953134,4.95313 -0.315677,0.31568 m -2.823009,2.82301 0.859897,-0.8599 m -8.287565,8.28756 -2.385897,2.3859 m -2.508981,2.50898 0.08544,-0.0854 m -2.0334,2.0334 -0.627654,0.62765 m 26.489379,-26.09026 0.0693,-0.0693 m -3.545131,3.54513 -1.117312,1.11731 m -4.263829,4.26383 0.201438,-0.20144 m -1.877539,1.87754 -0.702819,0.70282 m -7.816446,7.81645 0.362811,-0.36281 m -1.801269,1.80127 -0.680788,0.68078 m -2.539647,2.53965 0.06443,-0.0644 m -2.098507,2.09851 -0.387587,0.38759 m 26.232653,-25.83353 0.07282,-0.0728 m -3.593759,3.59376 -0.971083,0.97108 m -4.520635,4.52063 0.260449,-0.26045 m -1.503539,1.50354 -0.535847,0.53585 m -7.848928,7.84893 0.180609,-0.18061 m -2.274864,2.27486 -0.348755,0.34876 m -2.568704,2.5687 0.06211,-0.0621 m -2.038519,2.03852 -0.24752,0.24752 m 25.988002,-25.58888 0.06426,-0.0643 m -3.48305,3.48305 -0.984193,0.9842 m -5.962048,5.96204 1.405713,-1.40571 m -9.283061,9.28306 -0.101656,0.10166 m -2.701676,2.70167 0.211704,-0.2117 m -2.712283,2.71228 -0.05903,0.059 m -1.975861,1.97585 0.123976,-0.12397 m 25.582473,-25.18335 -0.113457,0.11346 m -4.213917,4.21391 1.148021,-1.14802 m -6.105246,6.10525 -0.776365,0.77636 m -10.999417,10.99942 0.154747,-0.15475 m -2.612233,2.61224 -0.0895,0.0895 m -1.696312,1.69631 0.178307,-0.1783 m 25.186157,-24.78704 -0.218967,0.21897 m -2.952411,2.95241 0.296501,-0.2965 m -1.092553,1.09255 -0.231364,0.23137 m -19.440623,19.44062 0.214454,-0.21445 m -1.306293,1.30629 -0.230436,0.23044 m 24.689601,-24.29048 0.260034,-0.26004 m -2.331453,2.33146 -0.61267,0.61267 m -1.067792,1.06779 0.182002,-0.182 m -10.556701,10.5567 -0.412553,0.41255 m -6.18233,6.18233 0.0546,-0.0546 m -2.327178,2.32718 -1.20564,1.20564 m 21.673722,-21.2746 2.677982,-2.67798 m -3.549027,3.54902 -0.180053,0.18006 m -11.639066,11.63906 1.950171,-1.95017 m -3.308458,3.30846 -0.07364,0.0736 m -4.055499,4.0555 0.06625,-0.0662 m -2.142747,2.14275 -0.954332,0.95433 m 21.350166,-20.95105 2.253635,-2.25363 m -3.093733,3.09373 -0.177926,0.17793 m -13.001014,13.00101 3.561585,-3.56158 m -7.759691,7.75969 -0.108054,0.10805 m -2.444659,2.44466 0.566506,-0.5665 m 20.391794,-19.99268 -0.08694,0.0869 m -0.965627,0.96563 0.224966,-0.22497 m -12.041697,12.0417 -1.314125,1.31412 m -6.233766,6.23377 1.989625,-1.98963 m 18.563864,-18.16474 -1.04636,1.04636 m -13.249302,13.2493 0.69132,-0.69132 m -4.994347,4.99435 -1.092147,1.09215 m 18.786983,-18.38786 1.040157,-1.04016 m -13.882274,13.88228 -0.525631,0.52563 m -4.574984,4.57498 0.09227,-0.0923 m 19.026927,-18.6278 -1.036489,1.03649 m -13.483659,13.48366 0.333335,-0.33334 m 14.323117,-13.92399 -1.066454,1.06645 m -13.565937,13.56594 0.261387,-0.26139 m 14.507308,-14.10818 -1.096419,1.09641 m -13.648215,13.64822 0.170713,-0.17071 m 14.710226,-14.31111 -0.126491,0.1265 m -1.001392,1.00139 0.243192,-0.24319 m -13.853741,13.85374 -0.143244,0.14324 m 13.839541,-13.44042 0.191482,-0.19148 m -13.889711,13.88971 -0.08447,0.0845 m 13.852776,-13.45365 0.161515,-0.16152 m 0.04011,0.35902 -0.131548,0.13155 m 0.06509,0.33403 0.106564,-0.10656 m 0.07579,0.32332 -0.144717,0.14472 m 0.03764,0.36148 0.163005,-0.163 m 1.385166,-0.98605 -0.06161,0.0616 m -1.447662,1.44766 0.198537,-0.19854 m 1.394158,-0.99503 -0.110848,0.11085 m -1.460382,1.46038 0.251507,-0.25151 m 1.380335,-0.98121 -0.146974,0.14697 m -1.473036,1.47304 0.31411,-0.31411 m -13.810528,13.81053 -0.118066,0.11806 m 15.095809,-14.69668 0.182549,-0.18255 m -1.224478,1.22448 -0.427564,0.42756 m -13.531417,13.53142 0.515905,-0.51591 m 14.607311,-14.20819 -0.158898,0.1589 m -1.413131,1.41313 0.563613,-0.56361 m -13.013267,13.01327 -0.989928,0.98993 m 13.421098,-13.02198 1.531805,-1.53181 m -13.587749,13.58775 -1.25355,1.25355 m 13.29101,-12.89188 1.349843,-1.34985 m -13.012484,13.01249 -0.09467,0.0947 m -1.41834,1.41834 0.276425,-0.27642 m 14.240454,-13.84134 -1.434132,1.43414 m -11.438647,11.43864 0.250807,-0.2508 m -1.537673,1.53767 -0.222175,0.22217 m 12.979912,-12.58079 0.888768,-0.88876 m -11.451425,11.45142 -0.700592,0.70059 m -1.581605,1.58161 0.174369,-0.17437 m 13.283485,-12.88436 -0.713977,0.71397 m -2.977053,2.97706 0.37821,-0.37821 m -7.402763,7.40276 -0.982907,0.98291 m -1.616491,1.61649 0.163685,-0.16369 m 12.928618,-12.52949 -0.580261,0.58026 m -2.933402,2.9334 0.613718,-0.61372 m -7.16697,7.16697 -1.257207,1.25721 m -1.605104,1.6051 0.164668,-0.16466 m 12.142587,-11.74347 -0.358995,0.359 m -2.611451,2.61145 0.973054,-0.97306 m -7.117758,7.11776 -0.09909,0.0991 m -1.336223,1.33622 0.16629,-0.16629 m -1.594358,1.59436 -0.165651,0.16565 m 9.198187,-8.79906 2.465795,-2.4658 m -8.369616,8.36962 -0.07663,0.0766 m -1.487842,1.48784 0.131445,-0.13145 m -1.476505,1.47651 -0.193537,0.19354 m 9.000385,-8.60127 1.792852,-1.79285 m -7.461246,7.46125 -0.09168,0.0917 m -1.579835,1.57983 0.117558,-0.11756 m -1.346288,1.34629 -0.230285,0.23029 m 8.893077,-8.49396 0.259093,-0.25909 m -5.814657,5.81465 -0.08648,0.0865 m -1.67014,1.67014 0.11528,-0.11528 m -1.228597,1.2286 -0.223108,0.22311 m 8.727607,-8.32849 0.104933,-0.10493 m -5.532512,5.53251 -0.107528,0.10753 m -1.751083,1.75108 0.142567,-0.14256 m -1.035606,1.0356 -0.283973,0.28398 m 8.626213,-8.2271 0.06562,-0.0656 m -5.473021,5.47302 -0.104786,0.10479 m -2.754386,2.75438 1.091173,-1.09117 m 7.394506,-6.99538 -0.0561,0.0561 m -5.489259,5.48926 0.06496,-0.065 m -1.776105,1.77611 -0.884868,0.88486 m 8.272975,-7.87385 0.08089,-0.0809 m -5.546783,5.54678 -0.06747,0.0675 m -2.351476,2.35148 0.635272,-0.63528 m 7.542,-7.14287 -0.09037,0.0904 m -3.146521,3.14652 0.262598,-0.2626 m -2.637916,2.63792 -0.08388,0.0839 m -2.083048,2.08305 0.434129,-0.43413 m 7.556543,-7.15742 -0.09985,0.0999 m -3.451043,3.45104 0.774703,-0.7747 m -2.913375,2.91337 -0.07022,0.0702 m -1.832752,1.83276 0.218064,-0.21807 m 7.586837,-7.18771 -0.110484,0.11048 m -3.665943,3.66594 1.076895,-1.07689 m -3.075869,3.07587 -0.173754,0.17375 m -1.382985,1.38299 0.126956,-0.12696 m 7.420317,-7.02119 -0.124202,0.1242 m -2.5877,2.5877 0.09725,-0.0973 m -3.249359,3.24936 -1.231418,1.23142 m 7.172637,-6.77351 0.13792,-0.13792 m -2.569385,2.56938 -0.101849,0.10185 m -4.127381,4.12738 0.898583,-0.89858 m 6.111671,-5.71255 -0.148144,0.14814 m -2.529155,2.52916 0.134379,-0.13438 m -3.402366,3.40237 -0.555327,0.55532 m 6.545944,-6.14682 0.122661,-0.12266 m -2.487777,2.48778 -0.150097,0.15009 m -2.22611,2.22612 0.199361,-0.19937 m -1.108943,1.10895 -0.544675,0.54467 m 6.360652,-5.96153 0.125582,-0.12558 m -2.445908,2.44591 -0.16319,0.16319 m -3.083449,3.08345 1.018388,-1.01839 m 4.795794,-4.39667 -0.112982,0.11298 m -2.436985,2.43698 0.188354,-0.18835 m -2.140389,2.14039 -0.938729,0.93873 m 5.416483,-5.01736 0.120414,-0.12042 m -2.251849,2.25185 -0.239482,0.23949 m -2.099874,2.09987 0.488543,-0.48854 m 4.099924,-3.7008 -0.201897,0.20189 m -3.568987,3.56899 1.727703,-1.7277 m 2.016958,-1.61784 -3.246844,3.24684 m 1.049058,-0.64993 1.893581,-1.89358"
         inkscape:connector-curvature="0" />
    </g>
  </g>
</svg>
