<?xml version="1.0" encoding="UTF-8" standalone="no"?>
<!-- Created with Inkscape (http://www.inkscape.org/) -->

<svg
   xmlns:dc="http://purl.org/dc/elements/1.1/"
   xmlns:cc="http://creativecommons.org/ns#"
   xmlns:rdf="http://www.w3.org/1999/02/22-rdf-syntax-ns#"
   xmlns:svg="http://www.w3.org/2000/svg"
   xmlns="http://www.w3.org/2000/svg"
   xmlns:sodipodi="http://sodipodi.sourceforge.net/DTD/sodipodi-0.dtd"
   xmlns:inkscape="http://www.inkscape.org/namespaces/inkscape"
   width="75mm"
   height="75mm"
   viewBox="0 0 75 75"
   version="1.1"
   id="svg1586"
   inkscape:version="0.92.2 2405546, 2018-03-11"
   sodipodi:docname="75.svg">
  <sodipodi:namedview
     id="base"
     pagecolor="#ffffff"
     bordercolor="#666666"
     borderopacity="1.0"
     inkscape:pageopacity="0.0"
     inkscape:pageshadow="2"
     inkscape:zoom="1.1678255"
     inkscape:cx="151.60477"
     inkscape:cy="190.57535"
     inkscape:document-units="mm"
     inkscape:current-layer="layer1"
     showgrid="false"
     inkscape:window-width="1366"
     inkscape:window-height="703"
     inkscape:window-x="0"
     inkscape:window-y="0"
     inkscape:window-maximized="1" />
  <defs
     id="defs1580" />
  <metadata
     id="metadata1583">
    <rdf:RDF>
      <cc:Work
         rdf:about="">
        <dc:format>image/svg+xml</dc:format>
        <dc:type
           rdf:resource="http://purl.org/dc/dcmitype/StillImage" />
        <dc:title></dc:title>
      </cc:Work>
    </rdf:RDF>
  </metadata>
  <g
     transform="translate(0,-222)"
     id="layer1"
     inkscape:groupmode="layer"
     inkscape:label="Layer 1">
    <g
       id="g2286">
      <path
         id="path2252"
         d="m 46.090295,227.92138 c 0.15132,-0.57866 0.86975,-1.20136 1.5965,-1.38377 1.43333,-0.35974 1.70754,-1.35279 0.66221,-2.39813 -1.08374,-1.08377 -3.1443,-0.75084 -4.64572,0.75061 l -1.40977,1.4098 1.25584,1.3368 c 1.51336,1.61093 2.17475,1.68503 2.54094,0.28469 z"
         style="fill:none;stroke:#0000ff;stroke-width:0.1;stroke-miterlimit:4;stroke-dasharray:none" />
      <path
         id="path2250"
         d="m 48.752635,226.89034 c -0.48732,-0.48303 -3.0789,2.67497 -2.69927,3.28924 0.15162,0.24533 0.90924,-0.30691 1.68359,-1.2272 0.77436,-0.92028 1.23142,-1.8482 1.01568,-2.06204 z"
         style="fill:none;stroke:#0000ff;stroke-width:0.1;stroke-miterlimit:4;stroke-dasharray:none" />
      <path
         id="path2248"
         d="m 51.274595,231.90633 c 1.10994,-0.9724 2.25624,-6.28153 1.5201,-7.04039 -0.77294,-0.7968 -2.37736,0.40524 -2.60483,1.95156 -0.10537,0.71632 -0.78514,2.00781 -1.5106,2.86998 -1.33026,1.58095 -1.63111,2.63606 -0.94677,3.32041 0.48696,0.48698 2.41235,-0.11181 3.5421,-1.10156 z"
         style="fill:none;stroke:#0000ff;stroke-width:0.1;stroke-miterlimit:4;stroke-dasharray:none" />
      <path
         id="path2246"
         d="m 45.389095,235.72507 c -1.30162,-2.06354 -2.12011,-0.54632 -1.38494,2.56727 0.0331,0.14027 0.48862,-0.17336 1.0122,-0.69696 0.72081,-0.72082 0.81133,-1.17501 0.37274,-1.87031 z"
         style="fill:none;stroke:#0000ff;stroke-width:0.1;stroke-miterlimit:4;stroke-dasharray:none" />
      <path
         id="path2244"
         d="m 53.823595,241.60301 c 1.0388,-1.96566 0.52193,-6.03846 -0.91389,-7.20113 -0.95255,-0.77135 -1.48315,-0.83026 -3.07565,-0.3415 -2.37206,0.72802 -2.40839,1.46493 -0.19639,3.98431 1.04659,1.19201 1.75065,2.61263 1.78526,3.60219 0.0697,1.99366 1.33612,1.97052 2.40067,-0.0439 z"
         style="fill:none;stroke:#ff0000;stroke-width:0.1;stroke-miterlimit:4;stroke-dasharray:none" />
      <path
         id="path2242"
         d="m 18.462635,230.85119 c 0.18339,-0.47789 0.33343,-0.95212 0.33343,-1.05383 0,-0.10172 0.83884,-0.70338 1.86409,-1.33702 1.55709,-0.96236 2.1225,-1.05301 3.43319,-0.55043 0.86301,0.33091 2.51426,0.45257 3.66945,0.27035 1.51417,-0.23885 1.9909,-0.15423 1.7082,0.3032 -0.267,0.43202 -1.5254,0.52869 -3.94315,0.30291 -3.40437,-0.31791 -3.61843,-0.26418 -5.18365,1.30106 -1.82793,1.82796 -2.37516,2.0501 -1.88156,0.76376 z"
         style="fill:none;stroke:#0000ff;stroke-width:0.1;stroke-miterlimit:4;stroke-dasharray:none" />
      <path
         id="path2240"
         d="m 19.901995,250.50155 c 1.1798,-0.95536 1.19288,-1.06133 0.33551,-2.71932 -1.1201,-2.16608 -1.13927,-5.40194 -0.0447,-7.54765 0.77121,-1.51184 3.30555,-4.27534 10.27613,-11.20535 1.43508,-1.42673 2.60923,-2.88308 2.60923,-3.23635 0,-0.35326 -0.96975,-1.13704 -2.15501,-1.74172 -1.97921,-1.00974 -2.31269,-1.03354 -4.088,-0.29175 -1.23825,0.51738 -2.37071,0.64575 -3.15083,0.35715 -1.97434,-0.73037 -3.65233,-0.0974 -5.67388,2.14024 -1.88533,2.08687 -3.61175,6.52572 -3.60579,9.27092 0.002,0.77601 0.26423,2.35147 0.58345,3.50101 0.45866,1.65172 0.39191,2.65752 -0.31822,4.79559 -1.78665,5.37917 1.5603,9.65055 5.23212,6.67723 z"
         style="fill:none;stroke:#0000ff;stroke-width:0.1;stroke-miterlimit:4;stroke-dasharray:none" />
      <path
         id="path2238"
         d="m 35.290565,237.73429 c 0.9953,-1.85977 0.46628,-3.54224 -1.11379,-3.54224 -0.96085,0 -1.3014,0.24746 -1.13396,0.82398 0.13163,0.45319 0.25522,1.50376 0.27466,2.33461 0.0416,1.77799 1.11516,1.98673 1.97309,0.38365 z"
         style="fill:none;stroke:#0000ff;stroke-width:0.1;stroke-miterlimit:4;stroke-dasharray:none" />
      <path
         id="path2236"
         d="m 30.697805,239.5937 c -1.24216,-1.24218 0.23879,-5.07949 2.40852,-6.24071 3.04604,-1.63022 4.66435,3.23128 1.82034,5.46842 -1.41922,1.11637 -3.50405,1.49712 -4.22886,0.77229 z"
         style="fill:none;stroke:#0000ff;stroke-width:0.1;stroke-miterlimit:4;stroke-dasharray:none" />
      <path
         id="path2234"
         d="m 33.993675,253.32672 c -0.73041,-0.73042 -0.34515,-1.39879 0.43369,-0.75239 0.43995,0.36513 1.05793,0.5044 1.37328,0.3095 0.31536,-0.19491 0.57338,-0.0926 0.57338,0.22737 0,0.63828 -1.79507,0.80081 -2.38035,0.21552 z"
         style="fill:none;stroke:#0000ff;stroke-width:0.1;stroke-miterlimit:4;stroke-dasharray:none" />
      <path
         id="path2232"
         d="m 38.695675,254.03404 2.59632,-1.2725 -1.38363,-1.29988 c -1.16852,-1.09778 -1.54965,-1.19618 -2.45153,-0.63294 -2.20619,1.37782 -4.4267,0.0629 -3.33585,-1.97542 0.80103,-1.49677 -1.14003,-3.36061 -2.4058,-2.31009 -0.98413,0.81677 -1.13386,-0.0215 -0.1751,-0.98022 0.93144,-0.93146 3.22945,-0.86226 2.86546,0.0863 -0.1789,0.46623 0.38643,1.02403 1.50923,1.48912 0.98741,0.409 2.75555,1.67556 3.92921,2.81458 2.37002,2.30007 4.52809,3.11273 9.4739,3.56761 5.29278,0.48678 8.77306,-1.73273 10.6709,-6.80525 1.45892,-3.8994 1.39993,-8.02868 -0.15653,-10.95545 -1.09908,-2.0667 -5.5281,-7.33571 -6.16625,-7.33571 -0.14484,0 -0.26334,0.56855 -0.26334,1.26344 0,0.69489 -0.30899,1.57546 -0.68664,1.95683 -0.54996,0.55538 -0.49529,0.80136 0.27467,1.23581 2.22249,1.25403 3.2802,5.7926 2.0835,8.94021 -0.28914,0.76051 -1.28888,1.77741 -2.22165,2.25977 -1.42212,0.73542 -1.99804,0.76778 -3.56699,0.20044 -1.4356,-0.51913 -2.19695,-0.52809 -3.27145,-0.0385 -1.71578,0.78177 -1.88927,-0.13673 -0.1969,-1.04247 l 1.20351,-0.64411 -1.5088,-1.29784 c -1.65621,-1.42463 -2.62027,-1.59081 -4.2302,-0.72919 -0.71273,0.38145 -1.06252,0.38489 -1.06252,0.0105 0,-0.307 0.62874,-0.71599 1.39721,-0.90886 2.02364,-0.50791 1.3174,-1.59287 -1.03687,-1.59287 -2.32532,0 -2.61264,-0.62139 -0.63499,-1.37331 0.7553,-0.28717 1.37328,-0.90433 1.37328,-1.37148 0,-0.46714 0.61697,-1.13047 1.37104,-1.47405 1.13286,-0.51618 1.56229,-0.45163 2.4719,0.37157 1.307,1.18284 1.43325,3.16221 0.26361,4.13294 -0.73169,0.60726 -0.61049,0.91635 0.9613,2.45169 2.05429,2.00664 3.68929,2.77413 3.78621,1.77729 0.14421,-1.48327 -0.24422,-2.37636 -1.80836,-4.15785 -1.2366,-1.40843 -1.55417,-2.19837 -1.2965,-3.22501 0.24193,-0.96396 -0.0434,-1.86356 -0.98056,-3.09098 -6.05011,-7.92441 -9.58781,-7.7894 -17.92259,0.68397 -2.85391,2.90137 -5.75839,6.11309 -6.4544,7.13717 -1.62593,2.39229 -1.70017,5.95173 -0.16485,7.90361 1.2631,1.60579 6.2319,4.24212 7.99533,4.24212 0.65444,0 2.12303,0.74158 3.26354,1.64796 2.46908,1.96221 2.5724,1.96819 5.89218,0.3411 z"
         style="fill:none;stroke:#0000ff;stroke-width:0.1;stroke-miterlimit:4;stroke-dasharray:none" />
      <path
         id="path2230"
         d="m 53.128015,257.26352 v -2.47194 h -2.09694 c -1.91476,0 -2.06574,0.10737 -1.73792,1.23597 0.31645,1.08944 2.8228,3.69786 3.5602,3.70519 0.15106,0.002 0.27466,-1.10965 0.27466,-2.46922 z"
         style="fill:none;stroke:#ff0000;stroke-width:0.1;stroke-miterlimit:4;stroke-dasharray:none" />
      <path
         id="path2228"
         d="m 59.096355,259.14628 c 1.57179,-1.2364 1.83404,-2.90499 0.80987,-5.15284 -0.8335,-1.82937 -2.14599,-1.76926 -4.24822,0.19455 -1.27782,1.19369 -1.6967,2.05542 -1.66885,3.43325 0.0348,1.72344 0.0748,1.76154 0.63325,0.60359 0.85444,-1.77169 1.55701,-1.52425 1.16976,0.41199 -0.27788,1.38944 -0.15808,1.64797 0.76362,1.64797 0.60127,0 1.74452,-0.51233 2.54057,-1.13851 z"
         style="fill:none;stroke:#0000ff;stroke-width:0.1;stroke-miterlimit:4;stroke-dasharray:none" />
      <path
         id="path2226"
         d="m 56.857695,262.48207 c -0.15801,-0.60425 -0.63134,-1.09864 -1.05185,-1.09864 -0.62705,0 -0.64116,0.19759 -0.0785,1.09864 0.37735,0.60425 0.85069,1.09864 1.05185,1.09864 0.20116,0 0.23646,-0.49439 0.0785,-1.09864 z"
         style="fill:none;stroke:#0000ff;stroke-width:0.1;stroke-miterlimit:4;stroke-dasharray:none" />
      <path
         id="path2224"
         d="m 27.742985,263.26581 c 0.0772,-1.06282 -0.14226,-1.60772 -0.64739,-1.60772 -1.19053,0 -1.90857,1.5972 -1.48205,3.29663 0.34206,1.36289 0.48287,1.44871 1.20013,0.73143 0.44693,-0.44694 0.86512,-1.53609 0.92931,-2.42034 z"
         style="fill:none;stroke:#0000ff;stroke-width:0.1;stroke-miterlimit:4;stroke-dasharray:none" />
      <path
         id="path2222"
         d="m 17.697445,265.54826 c 0,-3.05467 -1.59548,-4.11839 -2.80036,-1.86702 -0.5464,1.02097 -0.4586,1.34748 0.59084,2.19728 1.65477,1.33997 2.20952,1.25705 2.20952,-0.33026 z"
         style="fill:none;stroke:#0000ff;stroke-width:0.1;stroke-miterlimit:4;stroke-dasharray:none" />
      <path
         id="path2220"
         d="m 22.091935,266.09758 c 0,-2.16153 -0.58459,-3.06619 -1.98136,-3.06619 -1.12357,0 -1.31451,0.26598 -1.31451,1.83107 0,2.17064 0.30867,2.5635 2.01414,2.5635 0.98941,0 1.28173,-0.30296 1.28173,-1.32838 z"
         style="fill:none;stroke:#0000ff;stroke-width:0.1;stroke-miterlimit:4;stroke-dasharray:none" />
      <path
         id="path2218"
         d="m 59.445085,269.28005 c 0,-1.9673 -0.80168,-4.05138 -1.55845,-4.05138 -0.23164,0 -0.17806,1.47002 0.11907,3.2667 0.57784,3.49398 1.43938,3.96365 1.43938,0.78468 z"
         style="fill:none;stroke:#0000ff;stroke-width:0.1;stroke-miterlimit:4;stroke-dasharray:none" />
      <path
         id="path2216"
         d="m 15.060835,287.09173 c -0.80832,-0.80834 -1.49665,0.78968 -0.93459,2.16973 0.34923,0.85747 0.45451,0.82587 0.97468,-0.29259 0.41993,-0.90293 0.40871,-1.42833 -0.0401,-1.87714 z"
         style="fill:none;stroke:#0000ff;stroke-width:0.1;stroke-miterlimit:4;stroke-dasharray:none" />
      <path
         id="path2214"
         d="m 28.369775,291.28217 c 1.52818,-1.5282 0.84797,-5.42285 -0.85283,-4.88304 -0.56847,0.18043 -1.03053,0.0642 -1.03053,-0.25925 0,-0.32249 0.1854,-0.58757 0.41199,-0.58907 0.22659,-0.002 1.12821,-0.57584 2.00361,-1.27633 l 1.59162,-1.2736 -2.69025,-1.68004 c -2.9299,-1.82971 -4.597,-3.28918 -5.92842,-5.19008 l -0.85929,-1.22683 -1.34945,1.26776 c -0.7422,0.69728 -2.23921,2.96101 -3.32669,5.03052 l -1.97723,3.76274 1.12385,1.12387 c 0.91866,0.91868 1.06101,1.54912 0.77963,3.4529 l -0.34422,2.32901 1.66843,-1.92262 c 1.40187,-1.61544 1.83025,-1.82508 2.68115,-1.31212 0.55699,0.33577 1.80825,0.49374 2.78059,0.35103 1.52789,-0.22425 1.89965,-0.028 2.73861,1.44598 1.11055,1.95109 1.38664,2.04199 2.57943,0.84917 z"
         style="fill:none;stroke:#0000ff;stroke-width:0.1;stroke-miterlimit:4;stroke-dasharray:none" />
      <path
         id="path2212"
         d="m 25.273215,292.07473 c 0.20033,-1.0576 -1.39051,-2.8136 -2.28375,-2.52083 -0.34258,0.11229 -0.70168,1.00656 -0.798,1.98728 -0.16342,1.66386 -0.0719,1.77125 1.36858,1.60565 0.89277,-0.10263 1.61516,-0.5547 1.71317,-1.0721 z"
         style="fill:none;stroke:#0000ff;stroke-width:0.1;stroke-miterlimit:4;stroke-dasharray:none" />
      <path
         id="path2210"
         d="m 20.993305,291.62849 c 0,-1.94749 -0.69551,-2.4841 -2.18589,-1.68645 -1.36373,0.72986 -1.45789,2.5812 -0.14868,2.92333 2.02148,0.52828 2.33457,0.3624 2.33457,-1.23688 z"
         style="fill:none;stroke:#0000ff;stroke-width:0.1;stroke-miterlimit:4;stroke-dasharray:none" />
      <path
         id="path2208"
         d="m 51.667365,292.9138 c 1.19415,-0.83642 1.20943,-0.93066 0.31174,-1.92261 -0.51918,-0.5737 -1.14414,-1.04308 -1.38881,-1.04308 -0.71051,0 -1.69555,2.208 -1.367,3.06419 0.38575,1.00528 0.89769,0.98464 2.44407,-0.0985 z"
         style="fill:none;stroke:#0000ff;stroke-width:0.1;stroke-miterlimit:4;stroke-dasharray:none" />
      <path
         id="path2206"
         d="m 34.637915,266.57613 c 0.95428,-2.09444 0.77144,-2.7376 -0.46114,-1.62212 -1.09121,0.98755 -1.52032,3.02127 -0.63748,3.02127 0.25362,0 0.748,-0.62962 1.09862,-1.39915 z"
         style="fill:none;stroke:#0000ff;stroke-width:0.1;stroke-miterlimit:4;stroke-dasharray:none" />
      <path
         id="path2204"
         d="m 39.669885,268.79926 c 0,-2.15394 -0.74884,-2.50399 -1.6709,-0.78106 -0.7354,1.37412 -0.32738,2.70368 0.8297,2.70368 0.59517,0 0.8412,-0.56233 0.8412,-1.92262 z"
         style="fill:none;stroke:#0000ff;stroke-width:0.1;stroke-miterlimit:4;stroke-dasharray:none" />
      <path
         id="path2202"
         d="m 43.416095,269.15909 c 0.14243,-1.48233 -0.002,-1.79344 -0.76509,-1.64347 -1.26537,0.24883 -2.14014,1.74252 -1.69692,2.89753 0.61905,1.61324 2.26717,0.77374 2.46201,-1.25406 z"
         style="fill:none;stroke:#0000ff;stroke-width:0.1;stroke-miterlimit:4;stroke-dasharray:none" />
      <path
         id="path2200"
         d="m 36.377945,270.94547 c -4.17546,-1.81075 -5.51549,-4.54101 -3.23585,-6.59297 0.6394,-0.57555 1.88188,-2.08925 2.76106,-3.3638 1.24207,-1.80062 2.11584,-2.44296 3.91857,-2.88071 1.27603,-0.30985 3.01521,-0.79634 3.86484,-1.08109 1.11342,-0.37316 1.48608,-0.34163 1.33457,0.1129 -0.11561,0.34685 -1.67593,1.06376 -3.46736,1.59316 -3.90248,1.15323 -5.82593,3.12743 -5.35265,5.49389 0.19519,0.97595 -0.0369,2.06416 -0.63483,2.97675 -0.73709,1.12496 -0.79666,1.57529 -0.27337,2.06637 0.50276,0.47182 0.72942,0.46407 0.91169,-0.0311 0.13342,-0.36249 0.73794,-1.28884 1.34337,-2.05853 0.90446,-1.14986 1.29352,-1.29631 2.18141,-0.82112 0.59434,0.31809 1.53961,0.43265 2.1006,0.2546 1.24005,-0.39358 2.78369,1.01475 2.78369,2.53967 0,0.75151 0.30436,1.04117 0.9613,0.91487 0.65865,-0.12663 1.05382,-0.87431 1.2552,-2.37489 0.35742,-2.66331 0.86788,-3.56339 2.02089,-3.56339 0.79089,0 0.78772,0.0983 -0.0324,1.00456 -0.50001,0.55251 -0.9091,1.77886 -0.9091,2.72521 0,2.82549 -1.73769,3.9647 -6.00867,3.93922 -1.98235,-0.0118 -4.46768,-0.39593 -5.52294,-0.85356 z"
         style="fill:none;stroke:#0000ff;stroke-width:0.1;stroke-miterlimit:4;stroke-dasharray:none" />
      <path
         id="path2198"
         d="m 48.184215,294.4716 c 0.30212,-0.22197 0.5493,-1.51596 0.5493,-2.87553 0,-2.17597 0.15443,-2.4938 1.28971,-2.65452 0.78721,-0.11144 1.82201,0.31661 2.6559,1.09864 l 1.36618,1.28122 1.05196,-1.29682 c 1.45383,-1.79225 1.33793,-2.36775 -0.87063,-4.3231 -1.59708,-1.41396 -1.92259,-2.07663 -1.92259,-3.9139 0,-2.22611 0.88629,-3.50897 1.61246,-2.33397 0.27469,0.44446 0.64397,0.34283 1.24128,-0.34162 1.60272,-1.83651 2.09005,-3.37774 2.07695,-6.56871 -0.0259,-6.31333 -1.1952,-8.88593 -5.53104,-12.16887 -1.33147,-1.00815 -2.83669,-2.73277 -3.34492,-3.8325 -0.61996,-1.3415 -1.4298,-2.13475 -2.46092,-2.41052 -2.07994,-0.55628 -5.58297,0.0284 -7.66608,1.27948 -2.29174,1.37638 -3.65286,1.29611 -5.58455,-0.32932 -1.86023,-1.56531 -2.47382,-1.3269 -1.71588,0.66667 0.29129,0.76615 0.38566,1.53695 0.20972,1.7129 -0.44017,0.44018 -1.32219,-0.99133 -1.71103,-2.777 -0.22474,-1.0321 -0.76654,-1.5783 -1.78814,-1.80269 -0.80614,-0.17706 -2.43919,-0.90946 -3.629,-1.62755 l -2.16328,-1.30562 -2.65146,2.21997 c -2.70245,2.26265 -4.38288,4.88987 -5.01587,7.84189 l -0.35337,1.64796 3.6383,0.11663 c 4.16486,0.1335 5.00647,0.62887 5.49528,3.23449 0.2155,1.14875 0.67092,1.86743 1.18336,1.86743 0.65713,0 0.76246,-0.44142 0.49881,-2.09023 -0.37203,-2.3266 0.71525,-4.50162 2.25033,-4.50162 0.68287,0 0.53294,-0.37853 -0.6312,-1.59365 -0.83973,-0.87651 -1.44215,-1.967 -1.33872,-2.42332 0.12532,-0.55283 0.79903,-0.0291 2.0191,1.56971 1.44905,1.89881 1.83104,2.91556 1.83104,4.87364 0,1.36085 -0.17469,2.75694 -0.3882,3.10241 -0.62878,1.01741 -4.77508,2.6859 -6.70707,2.69895 -2.13773,0.0145 -2.24651,0.69072 -0.65555,4.0754 2.50783,5.33527 7.45113,9.10727 12.96197,9.89069 2.15307,0.30607 2.34394,0.21849 3.39082,-1.55587 1.32051,-2.23814 3.50373,-3.79051 4.87492,-3.46629 0.83158,0.19662 0.77053,0.3245 -0.38497,0.80642 -3.66412,1.52814 -5.87104,7.34444 -4.59455,12.1088 0.26269,0.98048 0.49477,1.11432 1.08412,0.62519 0.41244,-0.34229 1.14172,-0.47198 1.62064,-0.2882 0.47891,0.18378 1.3638,0.0703 1.96642,-0.25225 1.44185,-0.77167 3.34744,0.44477 4.30023,2.74506 0.72785,1.75721 1.01837,1.9474 1.94022,1.27012 z"
         style="fill:none;stroke:#0000ff;stroke-width:0.1;stroke-miterlimit:4;stroke-dasharray:none" />
      <path
         id="path2196"
         d="m 45.084455,295.50148 c 0.92984,-0.58917 0.43604,-2.31296 -1.04708,-3.65519 -0.83609,-0.75665 -1.25022,-0.84066 -1.73827,-0.3526 -0.48805,0.48805 -0.42164,1.10007 0.27874,2.56883 0.96522,2.0241 1.28943,2.21022 2.50661,1.43896 z"
         style="fill:none;stroke:#0000ff;stroke-width:0.1;stroke-miterlimit:4;stroke-dasharray:none" />
      <path
         id="path2194"
         d="m 41.062425,293.28127 c -0.89634,-1.73334 -1.61952,-2.10184 -2.21954,-1.13096 -0.57844,0.93594 0.30914,2.7883 1.56195,3.25977 1.54262,0.58052 1.73558,-0.0442 0.65759,-2.12881 z"
         style="fill:none;stroke:#0000ff;stroke-width:0.1;stroke-miterlimit:4;stroke-dasharray:none" />
      <path
         id="path878"
         d="m 40.081365,296.71052 c -1.89221,-0.49443 -3.85915,-4.90882 -4.14046,-9.29242 l -0.26067,-4.06184 h -2.03987 c -2.98513,0 -4.00627,1.36003 -3.56094,4.74274 0.31341,2.38062 0.20201,2.81334 -1.01814,3.95493 -2.72305,2.54774 -8.16833,2.95245 -12.26389,0.91151 -3.27521,-1.63212 -4.32394,-3.27515 -3.87123,-6.06496 0.50925,-3.13818 3.49752,-9.01718 5.58331,-10.98438 l 1.89257,-1.78495 -1.01469,-2.88135 c -0.80909,-2.29753 -1.37813,-3.03417 -2.80843,-3.63558 -0.98656,-0.41482 -2.10972,-1.18307 -2.4959,-1.70722 -1.82241,-2.47345 -1.32916,-7.37684 1.12134,-11.14709 l 1.2702,-1.95429 -1.31643,-1.26704 c -1.6655,-1.60302 -2.05917,-3.18346 -1.61523,-6.48462 0.40161,-2.98646 0.45381,-4.74023 0.28876,-9.70125 -0.22851,-6.86827 3.9942,-12.71084 8.92835,-12.35334 1.29422,0.0938 3.26495,-0.14463 4.37941,-0.52978 1.71303,-0.59201 2.27874,-0.56971 3.65935,0.14424 0.89818,0.46448 2.08747,1.4176 2.64286,2.11805 0.85217,1.07474 1.30991,1.21152 2.93239,0.8762 1.05742,-0.21853 2.59745,-0.26238 3.42228,-0.0974 1.15286,0.23054 1.95128,-0.0966 3.45231,-1.41454 2.24411,-1.9704 4.06787,-2.18165 5.46891,-0.63348 0.73771,0.81517 1.22249,0.95024 1.97161,0.54932 1.91354,-1.02412 2.71444,-0.55972 4.05683,2.35228 0.7312,1.58617 2.3281,3.97971 3.54867,5.31898 1.22056,1.33927 2.59671,3.23058 3.0581,4.20292 1.21837,2.56756 1.06103,7.59294 -0.36484,11.65276 -1.07508,3.061 -1.131,3.66152 -0.486,5.21854 1.58506,3.82627 1.43762,5.19474 -0.78561,7.29155 l -2.04956,1.93302 1.43849,2.77267 c 0.79117,1.52498 1.4385,3.58419 1.4385,4.57603 0,2.56114 -3.40176,9.70954 -5.43453,11.42003 -2.13608,1.79743 -2.14971,2.76446 -0.0599,4.25257 3.30824,2.35571 2.64858,5.09655 -1.99569,8.29194 -4.02499,2.76932 -9.71314,4.26688 -12.97223,3.41529 z"
         style="fill:none;stroke:#ff0000;stroke-width:0.1;stroke-miterlimit:4;stroke-dasharray:none" />
      <path
         id="path2150"
         style="fill:none;stroke:#0000ff;stroke-width:0.1"
         d="m 17.561244,225.19943 -0.304304,0.30431 m -1.268553,1.66767 3.102835,-3.10283 m 0.81482,-0.4157 -3.930931,3.93093 m -0.461034,0.86016 4.803347,-4.80335 m 0.60346,-0.20434 -0.647191,0.64719 m -5.157075,5.15708 1.945602,-1.9456 m 4.333239,-3.93412 -0.406378,0.40638 m -6.025404,6.0254 1.435115,-1.43511 m 5.470784,-5.07166 -0.299885,0.29988 m -6.826898,6.8269 0.942566,-0.94257 m 6.585249,-6.18612 -0.281607,0.2816 m -7.378808,7.37881 0.792828,-0.79283 m 7.269918,-6.87079 -0.263257,0.26326 m -7.953226,7.95322 0.728987,-0.72899 m 7.882587,-7.48346 -0.315571,0.31557 m -8.37583,8.37583 0.549085,-0.54908 m 8.537406,-8.13829 -0.351572,0.35157 m -8.814745,8.81475 0.413993,-0.41399 m 9.148871,-8.74975 -0.451898,0.4519 m -9.185218,9.18521 0.360444,-0.36044 m 9.711121,-9.312 -0.576444,0.57645 m -9.532815,9.53281 0.250042,-0.25004 m 10.38878,-9.98966 -0.779459,0.77946 m -9.982723,9.98272 0.280938,-0.28093 m 10.83132,-10.4322 -0.800845,0.80084 m -10.251594,10.2516 0.132696,-0.1327 M 25.64992,223.09759 24.783513,223.964 m -5.69203,5.69203 0.08654,-0.0865 m -5.001918,5.00191 -0.05743,0.0574 m 11.072066,-10.67294 0.921216,-0.92122 m -5.640103,5.6401 -1.498811,1.49881 m 6.74434,-6.34521 0.938172,-0.93818 m -5.764518,5.76452 -2.11748,2.11748 m 7.335524,-6.9364 1.089308,-1.08931 m -5.408658,5.40866 -3.247341,3.24734 m 8.366718,-7.96759 0.857628,-0.85763 m -5.340037,5.34003 -3.028683,3.02869 m -5.262299,5.2623 0.05249,-0.0525 m 14.138318,-13.7392 -0.779191,0.77919 m -5.195463,5.19547 0.467297,-0.4673 m -8.592291,8.59229 -0.08127,0.0813 m 13.939041,-13.53992 0.688015,-0.68801 m -5.568108,5.56811 -0.426426,0.42642 m -8.622637,8.62264 0.110054,-0.11005 m 14.918611,-14.51949 -0.637335,0.63733 m -5.363264,5.36327 0.327953,-0.32796 m -9.207295,9.2073 -0.138838,0.13884 m 14.800744,-14.40163 0.551856,-0.55185 m -5.699512,5.69951 -0.22987,0.22987 m -9.413333,9.41333 0.205046,-0.20504 m 15.462507,-15.06339 -0.577569,0.57757 m -5.311698,5.3117 0.174676,-0.17468 m -9.676688,9.67669 -0.266388,0.26639 m 15.398623,-14.9995 0.535136,-0.53514 m -5.675845,5.67585 -0.118064,0.11806 m -10.13012,10.13012 0.327886,-0.32788 m 15.872236,-15.47312 -0.50423,0.50423 m -5.194323,5.19433 0.05443,-0.0544 m -10.156885,10.15688 -0.401263,0.40127 m 15.965078,-15.56596 0.513012,-0.51301 m -16.0056,16.0056 -0.47464,0.47464 m 16.238654,-15.83953 0.491008,-0.49101 m -16.183795,16.18379 -0.548017,0.54802 m 16.51223,-16.11311 0.469003,-0.469 m -16.36363,16.36363 -0.619753,0.61975 m 16.785806,-16.38668 0.442043,-0.44204 m -16.538093,16.53809 -0.691906,0.6919 m 17.047245,-16.64812 0.412612,-0.41261 m -5.004639,5.00464 -0.07951,0.0795 m -12.377781,12.37778 0.763985,-0.76398 m 16.927806,-16.52868 -0.388371,0.38837 m -4.551923,4.55192 0.06991,-0.0699 m -12.040932,12.04093 -0.805329,0.80533 m 17.582371,-17.18325 0.361823,-0.36182 m -4.661061,4.66106 -0.138828,0.13883 m -13.169159,13.16915 0.843017,-0.84301 m 17.33916,-16.94004 -0.327568,0.32757 m -4.262079,4.26208 0.156019,-0.15602 m -12.892698,12.8927 -0.880705,0.8807 m 18.112656,-17.71353 0.307505,-0.30751 m -4.190874,4.19088 -0.208175,0.20817 m -14.045965,14.04597 0.804226,-0.80423 m 17.852262,-17.45314 -0.285786,0.28579 m -3.965133,3.96513 0.295039,-0.29504 m -13.971344,13.97134 -0.758598,0.7586 m 18.625683,-18.22656 0.252289,-0.25229 m -3.741135,3.74114 -0.12277,0.12277 m -15.065631,15.06563 0.650817,-0.65082 m 18.470869,-18.07174 -0.239896,0.23989 m -18.933354,18.93336 0.53808,-0.53808 m 18.827158,-18.42804 -0.227341,0.22734 m -19.18946,19.18946 0.466355,-0.46635 m 19.142212,-18.74309 -0.267841,0.26784 m -19.408723,19.40872 0.344871,-0.34487 m 19.523458,-19.12434 -0.624158,0.62416 m -19.269382,19.26939 0.333588,-0.33359 M 33.902876,225.621 26.23148,233.2924 m -12.45963,12.45963 0.213637,-0.21364 m 20.17317,-19.77405 -10.821789,10.82179 m -9.598577,9.59858 0.236729,-0.23673 M 34.420562,225.90151 21.44681,238.87526 m -7.742092,7.74209 0.204434,-0.20443 m 20.820155,-20.42104 -14.221322,14.22133 m -6.859853,6.85985 0.234757,-0.23476 m 21.270538,-20.87141 -2.629961,2.62996 m -12.363068,12.36306 3.746281,-3.74628 m -9.989364,9.98937 -0.249782,0.24978 m 20.126421,-19.7273 1.697601,-1.6976 m -14.028913,14.02891 -1.450864,1.45087 m -6.324843,6.32484 0.249204,-0.2492 m 22.0262,-21.62708 -1.024468,1.02447 m -15.078731,15.07873 1.057269,-1.05727 m -6.922966,6.92296 -0.275513,0.27552 m 22.174245,-21.77513 0.539793,-0.53979 m -15.932979,15.93298 -0.711926,0.71193 m -6.009739,6.00974 0.273659,-0.27366 m 22.827956,-22.42884 -0.430621,0.43062 m -16.735644,16.73565 0.674479,-0.67448 m -6.259372,6.25937 -0.289168,0.28917 M 37.02592,226.09 l 0.299991,-0.29999 m -17.056925,17.05693 -0.575407,0.57541 m -5.755585,5.75558 0.282243,-0.28224 m 23.552645,-23.15352 -0.312922,0.31292 m -17.800935,17.80093 0.563866,-0.56386 m -5.910197,5.91019 -0.283331,0.28334 m 23.890286,-23.49117 0.296228,-0.29623 m -18.032118,18.03212 -0.503049,0.50305 m -5.515037,5.51504 0.274412,-0.27442 m 24.170478,-23.77135 -0.304346,0.30435 m -18.603821,18.60382 0.442232,-0.44224 m -5.579028,5.57903 -0.263618,0.26362 m 24.381496,-23.98237 0.325446,-0.32545 m -18.824857,18.82486 -0.458937,0.45893 m -5.273658,5.27366 0.257637,-0.25763 m 24.657465,-24.25835 -0.305837,0.30584 m -19.27927,19.27927 0.421211,-0.42121 m -5.335153,5.33515 -0.248123,0.24812 m 24.752941,-24.35381 0.350186,-0.35019 m -19.47049,19.47049 -0.414235,0.41424 m -5.050471,5.05047 0.238609,-0.23861 m 25.067664,-24.66854 -0.403215,0.40321 m -19.788194,19.7882 0.40801,-0.40801 m -5.089291,5.08929 -0.243901,0.2439 m 25.031425,-24.63231 0.44814,-0.44814 m -8.292255,8.29226 -0.31071,0.31071 m -11.863134,11.86313 0.386108,-0.3861 m -4.962757,4.96275 -0.243688,0.24369 m 25.118429,-24.71931 0.631335,-0.63133 m -7.912068,7.91207 -1.666152,1.66615 m -11.262923,11.26292 0.36433,-0.36433 m -4.812063,4.81206 -0.267535,0.26754 m 25.199767,-24.80064 0.844609,-0.84461 m -7.700042,7.70004 -2.859642,2.85964 m -10.669891,10.66989 0.388579,-0.38858 m -4.704674,4.70468 -0.295329,0.29533 m 25.271081,-24.87196 2.287353,-2.28736 m -8.931321,8.93132 -3.339274,3.33928 m -10.55654,10.55654 0.378736,-0.37874 m -4.569225,4.56923 -0.337434,0.33743 m 25.342397,-24.94327 3.583021,-3.58302 m -10.122938,10.12293 -0.591687,0.59169 m -3.342816,3.34282 2.130781,-2.13078 m -11.982069,11.98207 -0.368893,0.36889 m -4.44442,4.44442 0.410318,-0.41032 m 29.043327,-28.6442 -4.077913,4.07791 m -6.993313,6.99331 0.53001,-0.53001 m -2.050521,2.05052 -2.246808,2.24681 m -10.04734,10.04734 0.397619,-0.39762 m -4.269649,4.26965 -0.492354,0.49236 m 28.846587,-28.44747 0.827565,-0.82756 m -3.703901,3.7039 -0.555368,0.55536 m -6.871434,6.87144 0.407786,-0.40779 m -2.233286,2.23329 -2.375504,2.3755 m -9.848618,9.84862 0.42154,-0.42154 m -4.089781,4.08978 -0.622209,0.62221 m 29.304923,-28.9058 0.674998,-0.675 m -4.019718,4.01972 -0.506171,0.50617 m -6.827058,6.82706 0.344429,-0.34443 m -2.397413,2.39741 -2.384107,2.38411 m -9.769991,9.76999 0.445461,-0.44546 m -3.89228,3.89228 -0.769697,0.7697 m 29.686196,-29.28708 0.522441,-0.52244 m -4.25848,4.25848 -0.456974,0.45698 m -6.80224,6.80224 0.273888,-0.27389 m -2.573999,2.574 -2.364674,2.36467 m -9.684693,9.6847 0.496443,-0.49645 m -3.664842,3.66484 -0.960216,0.96022 m 29.873988,-29.47487 0.436216,-0.43621 m -4.379567,4.37957 -0.432241,0.43224 m -6.810148,6.81014 0.22073,-0.22073 m -2.70392,2.70392 -2.243209,2.24321 m -9.737775,9.73778 0.599068,-0.59907 m -3.243898,3.2439 -2.092434,2.09243 m 30.713788,-30.31466 0.435117,-0.43512 m -4.511749,4.51175 -0.407098,0.4071 m -6.832005,6.832 0.161079,-0.16108 m -2.813808,2.81381 -2.122212,2.12221 m -9.835343,9.83535 0.746649,-0.74665 m -2.750646,2.75064 -3.553586,3.55359 m 31.880006,-31.48089 0.292983,-0.29298 m -4.572689,4.57269 -0.381955,0.38196 m -6.907516,6.90751 0.137043,-0.13704 m -2.898121,2.89812 -1.917197,1.9172 m -16.508002,16.508 7.38118,-7.38118 m 25.921528,-25.52241 -0.252171,0.25217 m -4.738271,4.73828 0.356811,-0.35682 m -7.291875,7.29188 -0.05223,0.0522 m -4.505557,4.50556 1.643327,-1.64333 m -10.856594,10.8566 -7.700778,7.70077 m 33.429684,-33.03056 0.187799,-0.1878 m -4.650445,4.65045 -0.348205,0.3482 m -7.139843,7.13985 0.05122,-0.0512 m -2.875837,2.87584 -1.37212,1.37212 m -9.920156,9.92016 0.563643,-0.56365 m -6.88913,6.88913 -1.632673,1.63268 m 34.266319,-33.8672 0.155796,-0.1558 m -4.652862,4.65287 -0.353938,0.35393 m -7.289465,7.28947 0.0588,-0.0588 m -2.818806,2.8188 -1.146301,1.1463 m -10.050247,10.05025 0.577471,-0.57747 m -7.709502,7.7095 -1.00039,1.00039 m 34.456473,-34.05735 0.136462,-0.13646 m -4.654402,4.6544 -0.359671,0.35967 m -10.865025,10.86503 0.785549,-0.78555 m -10.564469,10.56447 -0.553595,0.55359 m -8.543433,8.54344 0.81011,-0.81011 m 34.150051,-33.75093 -0.138304,0.1383 m -4.88046,4.88046 0.365404,-0.3654 m -8.131292,8.13129 -0.173167,0.17317 m -2.483503,2.4835 0.371785,-0.37179 m -10.545332,10.54534 -0.552957,0.55295 m -9.049399,9.0494 1.079016,-1.07901 m 34.343324,-33.94421 -0.159946,0.15995 m -4.863509,4.86351 0.370015,-0.37002 m -8.54178,8.54178 -0.26381,0.26381 m -1.631571,1.63158 0.207035,-0.20704 m -10.688155,10.68816 -0.552319,0.55231 m -9.329326,9.32933 0.630401,-0.6304 m 35.063234,-34.66411 -0.238833,0.23883 m -4.82702,4.82702 0.412997,-0.413 m -9.084372,9.08438 -0.957135,0.95713 m -11.421045,11.42105 0.551682,-0.55169 m -9.628586,9.62859 -0.579693,0.57969 m 35.685126,-35.286 0.348929,-0.34893 m -4.66638,4.66638 -0.474625,0.47463 m -20.987552,20.98755 0.551044,-0.55105 m -10.018807,10.01881 -0.630891,0.63089 m 35.949037,-35.54991 0.599985,-0.59999 m -2.298744,2.29875 -1.116093,1.11609 m -1.861082,1.86108 0.558783,-0.55878 m -20.933925,20.93392 -0.550406,0.55041 m -10.291695,10.29169 0.469384,-0.46938 m 36.396786,-35.99766 -0.951516,0.95151 m -4.510513,4.51052 3.311236,-3.31124 m -23.625012,23.62501 -0.549768,0.54977 m -10.554829,10.55483 0.374671,-0.37467 m 37.491185,-37.09207 -6.260586,6.26059 m -20.80154,20.80154 0.54913,-0.54913 m -11.087133,11.08713 -0.279959,0.27996 m 35.581683,-35.18256 2.872967,-2.87296 m -5.750393,5.75039 -0.897858,0.89786 m -20.728096,20.72809 0.537052,-0.53705 m -11.275521,11.27552 -0.362422,0.36242 m 35.765289,-35.36616 3.03484,-3.03484 m -6.298939,6.29894 -0.489999,0.48999 m -20.64757,20.64758 0.525059,-0.52506 m -11.212391,11.21239 -0.635828,0.63583 m 38.526026,-38.12691 0.617136,-0.61714 m -2.090781,2.09079 -1.536482,1.53648 m -3.368341,3.36834 0.411109,-0.41111 m -20.450771,20.45077 -0.522006,0.52201 m -11.545429,11.54543 0.982092,-0.9821 m 38.424002,-38.02488 -0.470353,0.47036 m -3.745616,3.74561 1.370233,-1.37023 m -3.436341,3.43634 -0.840092,0.84009 m -4.067337,4.06734 0.994342,-0.99434 m -2.78173,2.78173 -0.681441,0.68144 m -13.939599,13.9396 0.526348,-0.52635 m -10.96569,10.96569 -1.328356,1.32836 m 39.269831,-38.87071 0.316987,-0.31699 m -3.226017,3.22602 -3.940511,3.94051 m -6.412942,6.41294 3.866057,-3.86606 m -17.312288,17.31229 -0.53069,0.53069 m -11.981379,11.98138 1.666034,-1.66603 m 38.088551,-37.68943 -0.300861,0.30086 m -6.905654,6.90565 3.430049,-3.43005 m -5.739957,5.73996 -3.882887,3.88289 m -8.453374,8.45337 0.893443,-0.89344 m -6.016203,6.0162 -0.535032,0.53503 m -12.152682,12.15269 1.961332,-1.96134 m 37.878034,-37.47891 -0.293214,0.29322 m -6.912682,6.91268 2.675788,-2.67579 m -4.779442,4.77944 -3.896454,3.89646 m -8.88441,8.88441 1.474418,-1.47442 m -6.266789,6.26679 -0.541168,0.54117 m -12.323986,12.32398 2.256631,-2.25663 m 37.667515,-37.26839 -0.355659,0.35566 m -6.851934,6.85193 2.097253,-2.09725 m -4.074045,4.07404 -3.828312,3.82832 m -8.207639,8.20763 0.751795,-0.75179 m -6.308737,6.30874 -0.546419,0.54642 m -12.509022,12.50902 2.55193,-2.55193 m 37.426863,-37.02774 -0.419168,0.41917 m -6.773894,6.77389 0.764709,-0.76471 m -2.678212,2.67821 -3.676731,3.67673 m -8.195161,8.19516 0.779145,-0.77914 m -6.442327,6.44233 -0.535877,0.53587 m -10.040243,10.04025 0.177621,-0.17762 m -2.380397,2.38039 -0.447553,0.44756 m 39.46676,-39.06764 0.540454,-0.54046 m -6.610661,6.61066 -0.560923,0.56093 m -2.113738,2.11374 0.263525,-0.26353 m -1.342883,1.34288 -2.180948,2.18095 m -8.253708,8.25371 0.810558,-0.81056 m -6.510273,6.51027 -0.525336,0.52534 m -10.05305,10.05305 0.284898,-0.2849 m -2.7232,2.7232 -0.348797,0.3488 m 39.339361,-38.94024 0.664299,-0.6643 m -6.851574,6.85158 -0.298528,0.29852 m -2.015078,2.01508 0.218509,-0.21851 m -1.559713,1.55972 -1.830612,1.83061 m -8.301513,8.30151 0.769621,-0.76962 m -6.488715,6.48871 -0.513653,0.51366 m -10.097411,10.09741 0.424877,-0.42488 m -3.021774,3.02178 -0.295418,0.29541 m 39.156251,-38.75712 0.843856,-0.84386 m -6.908418,6.90842 -0.234695,0.23469 m -1.930937,1.93094 0.178444,-0.17844 m -1.778242,1.77824 -1.470794,1.47079 m -8.391589,8.39159 0.543594,-0.54359 m -6.200592,6.20059 -0.524897,0.5249 m -10.194355,10.19435 0.600264,-0.60026 m -3.244033,3.24403 -0.301179,0.30118 m 38.989444,-38.59032 1.007111,-1.00711 m -6.916825,6.91682 -0.241729,0.24173 m -1.8593,1.8593 0.166148,-0.16615 m -1.911706,1.91171 -1.218288,1.21829 m -8.462121,8.46212 0.323092,-0.32309 m -5.908127,5.90812 -0.536141,0.53614 m -10.300434,10.30044 0.784786,-0.78479 m -3.44769,3.44769 -0.295013,0.29501 m 38.729362,-38.33024 1.23311,-1.23311 m -6.88272,6.88272 -0.291272,0.29128 m -1.810663,1.81066 0.144656,-0.14466 m -2.033509,2.03351 -0.966634,0.96664 m -8.54575,8.54575 0.309331,-0.30933 m -5.765945,5.76594 -0.564896,0.5649 m -10.468297,10.46829 1.026628,-1.02662 m -3.609681,3.60968 -0.307796,0.30779 m 38.3342,-37.93507 1.571474,-1.57148 m -6.783397,6.7834 -0.429517,0.42952 m -1.738544,1.73854 0.123165,-0.12317 m -2.128179,2.12818 -0.791518,0.79152 m -2.239109,2.23911 0.409084,-0.40908 m -6.471441,6.47144 -0.299086,0.29908 m -5.900267,5.90027 0.570382,-0.57038 m -9.939072,9.93907 -1.268471,1.26847 m -2.803598,2.8036 0.300397,-0.3004 m 39.526618,-39.12749 -1.696336,1.69633 m -5.594158,5.59416 0.670742,-0.67074 m -2.247786,2.24779 -0.07868,0.0787 m -2.724154,2.72415 0.639677,-0.63968 m -2.120354,2.12036 -0.526984,0.52698 m -6.652738,6.65274 0.372006,-0.37201 m -5.508797,5.5088 -0.647928,0.64793 m -10.808679,10.80868 1.539923,-1.53993 m -3.929498,3.9295 -0.287023,0.28703 m 37.769438,-37.37032 1.969066,-1.96907 m -6.376753,6.37676 -0.991288,0.99128 m -1.581298,1.5813 0.06447,-0.0645 m -2.220341,2.22034 -1.79236,1.79236 m -7.454882,7.45488 0.484086,-0.48408 m -5.391343,5.39134 -0.760706,0.76071 m -3.536778,3.53678 0.133822,-0.13383 m -5.727915,5.72792 -1.835272,1.83527 m -2.525701,2.5257 0.294688,-0.29469 m 39.355307,-38.95618 -0.948927,0.94893 m -1.298643,1.29864 0.588471,-0.58847 m -4.216389,4.21639 -1.77107,1.77107 m -4.780811,4.78081 1.276033,-1.27604 m -8.604633,8.60464 -0.637682,0.63768 m -5.531688,5.53169 0.858336,-0.85834 m -4.292336,4.29234 -0.213162,0.21316 m -7.46519,7.46519 2.113613,-2.11361 m -4.197318,4.19732 -0.279612,0.27961 m 38.706028,-38.30691 0.832716,-0.83272 m -1.94422,1.94423 -0.797855,0.79785 m -5.001927,5.00193 2.091715,-2.09172 m -3.501091,3.50109 -2.959114,2.95912 m -8.407314,8.40731 0.893153,-0.89315 m -5.266538,5.26654 -0.997886,0.99788 m -3.697067,3.69707 0.292837,-0.29284 m -5.440334,5.44034 -0.435565,0.43556 m -1.978964,1.97896 0.66432,-0.66432 m -2.539371,2.53938 -0.266605,0.2666 m 38.665148,-38.26602 0.764415,-0.76442 m -2.023412,2.02341 -1.28759,1.28759 m -4.647536,4.64754 2.946162,-2.94616 m -4.221264,4.22126 -2.65784,2.65784 m -8.942194,8.9422 1.337623,-1.33763 m -5.255721,5.25572 -1.112269,1.11227 m -3.704647,3.70465 0.3307,-0.3307 m -5.309216,5.30922 -0.379152,0.37915 m -2.336293,2.33629 0.578089,-0.57809 m -2.244486,2.24449 -0.258541,0.25854 m 38.630393,-38.23127 0.713109,-0.71311 m -2.295865,2.29586 -3.431961,3.43196 m -2.312017,2.31202 0.453831,-0.45383 m -1.937928,1.93793 -2.194145,2.19414 m -9.56989,9.56989 1.898168,-1.89817 m -5.238725,5.23873 -1.250417,1.25042 m -3.688461,3.68846 0.35268,-0.35268 m -5.187206,5.1872 -0.294811,0.29482 m -2.683103,2.6831 0.518335,-0.51834 m -1.965422,1.96543 -0.237873,0.23787 m 38.558923,-38.1598 0.659334,-0.65934 m -2.594483,2.59449 -2.904674,2.90467 m -2.634383,2.63438 0.453548,-0.45354 m -3.103597,3.10359 -0.776422,0.77642 m -9.817978,9.81798 2.096895,-2.09689 m -5.236036,5.23603 -1.414821,1.41482 m -3.624078,3.62408 0.367026,-0.36702 m -5.087316,5.08731 -0.275062,0.27506 m -3.038261,3.03827 0.60621,-0.60621 m -1.724875,1.72487 -0.241993,0.24199 m 38.487101,-38.08797 0.616646,-0.61665 m -3.20959,3.20959 -1.736917,1.73692 m -3.197409,3.19741 0.459318,-0.45932 m -3.143082,3.14308 -0.616397,0.6164 m -10.09077,10.09077 2.362465,-2.36247 m -5.24441,5.24441 -1.567485,1.56749 m -3.54244,3.54244 0.363439,-0.36344 m -5.003729,5.00373 -0.264451,0.26445 m -4.408461,4.40846 1.724523,-1.72452 m 37.268843,-36.86973 -0.581111,0.58112 m -4.080252,4.08025 0.987336,-0.98734 m -4.030114,4.03012 -0.450152,0.45015 m -3.174895,3.17489 0.509812,-0.50981 m -8.255212,8.25521 -2.486663,2.48667 m -4.485363,4.48536 1.73016,-1.73016 m -4.821098,4.8211 -0.359852,0.35985 m -4.846836,4.84684 0.245509,-0.24551 m -3.14863,3.14863 -1.48635,1.48635 m 38.341581,-37.94246 0.545576,-0.54558 m -3.665556,3.66556 -0.727653,0.72765 m -3.775975,3.77598 0.475567,-0.47557 m -3.117454,3.11745 -0.438388,0.43839 M 34.42966,250.638 l 2.566225,-2.56622 m -5.22949,5.22949 -0.508781,0.50878 m -1.382793,1.38279 0.453154,-0.45315 m -3.469045,3.46904 -0.34189,0.34189 m -4.834741,4.83474 0.256308,-0.25631 m -3.296623,3.29663 -1.285714,1.28571 m 38.270907,-37.87178 0.512902,-0.5129 m -3.594799,3.5948 -0.633704,0.6337 m -3.919921,3.91992 0.473499,-0.4735 m -3.112579,3.11258 -0.388588,0.38859 m -10.322029,10.32203 2.594076,-2.59408 m -5.236469,5.23647 -0.483883,0.48388 m -1.549752,1.54975 0.47815,-0.47815 m -3.421196,3.4212 -0.316742,0.31674 m -4.841317,4.84132 0.236359,-0.23636 m -3.379065,3.37907 -1.106193,1.10619 m 38.200233,-37.80111 0.489797,-0.4898 m -3.521705,3.52171 -0.567121,0.56712 m -4.048407,4.0484 0.471431,-0.47143 m -3.091149,3.09115 -0.355345,0.35535 m -10.283632,10.28363 2.566155,-2.56616 m -5.243447,5.24345 -0.465489,0.46549 m -1.713028,1.71303 0.474418,-0.47442 m -3.341798,3.3418 -0.291595,0.29159 m -4.89887,4.89887 0.267386,-0.26738 m -3.398411,3.39841 -1.033304,1.0333 m 38.173096,-37.77397 0.466692,-0.46669 m -3.462128,3.46213 -0.519937,0.51993 m -4.143977,4.14398 0.469363,-0.46936 m -3.069719,3.06971 -0.322102,0.32211 m -10.223985,10.22398 2.512698,-2.5127 m -5.24614,5.24614 -0.466811,0.46682 m -1.815575,1.81557 0.429674,-0.42967 m -3.262401,3.2624 -0.266448,0.26645 m -4.966644,4.96664 0.247805,-0.24781 m -3.325735,3.32574 -1.004485,1.00448 m 38.158837,-37.75971 0.443586,-0.44359 m -3.40527,3.40527 -0.505042,0.50505 m -4.204538,4.20453 0.467295,-0.46729 m -3.048288,3.04829 -0.288859,0.28886 m -10.077957,10.07795 2.362632,-2.36263 m -3.942318,3.94232 -0.06346,0.0635 m -1.700957,1.70096 0.467057,-0.46706 m -1.978383,1.97839 -0.406796,0.40679 m -3.055658,3.05566 0.257585,-0.25759 m -5.037591,5.0376 -0.273387,0.27338 m -3.965242,3.96525 1.00639,-1.00639 m 37.558668,-37.15955 -0.420481,0.42048 m -3.418079,3.41808 0.490147,-0.49015 m -4.290018,4.29002 -0.464437,0.46444 m -2.83085,2.83085 0.268428,-0.26843 m -7.974978,7.97498 -2.21119,2.21119 m -1.859059,1.85906 0.167582,-0.16759 m -1.333559,1.33356 -0.464302,0.4643 m -2.020669,2.02067 0.336916,-0.33691 m -3.11568,3.11568 -0.247954,0.24795 m -2.084831,2.08483 1.074398,-1.07439 m -3.849282,3.84928 -0.286636,0.28663 m -3.827895,3.8279 1.087441,-1.08744 m 37.440864,-37.04174 -0.397375,0.39737 m -3.391884,3.39188 0.471511,-0.47151 m -4.311559,4.31156 -0.461166,0.46117 m -2.79456,2.79456 0.262294,-0.2623 m -7.957769,7.95777 -1.889845,1.88985 m -2.218082,2.21808 0.222131,-0.22213 m -1.346974,1.34697 -0.461546,0.46155 m -2.095011,2.09501 0.261734,-0.26173 m -3.065309,3.06531 -2.731445,2.73144 m -2.765526,2.76553 0.332098,-0.3321 m -2.78896,2.78896 -1.252706,1.2527 m 38.171556,-37.77243 0.377007,-0.37701 m -3.314775,3.31478 -0.456473,0.45647 m -4.309567,4.30957 0.457278,-0.45728 m -2.954981,2.95498 -0.260567,0.26057 m -9.055585,9.05558 1.371183,-1.37118 m -3.850195,3.8502 -0.21369,0.21369 m -1.627066,1.62706 0.461639,-0.46164 m -2.441593,2.4416 -0.16001,0.16001 m -5.867604,5.8676 3.012677,-3.01268 m -5.222078,5.22208 -0.37756,0.37756 m -3.591241,3.59124 1.469797,-1.4698 m 37.110716,-36.71159 -0.378929,0.37893 m -3.385999,3.386 0.441435,-0.44144 m -4.306424,4.30643 -0.452932,0.45293 m -2.72198,2.72198 0.25884,-0.25884 m -7.9415,7.9415 -1.184827,1.18483 m -2.74966,2.74966 0.151461,-0.15146 m -1.433498,1.43349 -0.464844,0.46485 m -6.338276,6.33827 1.250193,-1.25019 m -2.601275,2.60128 -0.570929,0.57093 m -2.549392,2.54939 0.451588,-0.45159 m -2.172902,2.1729 -1.732308,1.73231 m 38.229532,-37.83041 0.382931,-0.38293 m -3.332211,3.33221 -0.453994,0.45399 m -4.298677,4.29868 0.448586,-0.44859 m -2.877163,2.87717 -0.257114,0.25711 m -8.312568,8.31257 0.626604,-0.6266 m -3.661139,3.66114 -0.108356,0.10835 m -1.897244,1.89724 0.46805,-0.46805 m -5.671581,5.67159 -0.90872,0.90872 m -2.417728,2.41772 0.482943,-0.48294 m -2.453974,2.45398 -0.518676,0.51867 m -3.314655,3.31466 1.925024,-1.92503 m 36.712898,-36.31377 -0.386934,0.38693 m -3.443782,3.44378 0.452323,-0.45232 m -4.264283,4.26428 -0.449992,0.44999 m -2.643649,2.64365 0.255387,-0.25538 m -1.562542,1.56254 -0.767058,0.76706 m -6.100111,6.10011 0.485057,-0.48506 m -3.221815,3.22182 -0.434814,0.43481 m -1.985021,1.98502 0.460796,-0.46079 m -5.819692,5.81969 -0.69958,0.69958 m -2.676637,2.67663 0.314146,-0.31414 m -2.202429,2.20243 -2.369932,2.36993 m -1.463618,1.46362 0.491449,-0.49145 m 38.213036,-37.81392 -0.390936,0.39094 m -3.484292,3.48429 0.447343,-0.44734 m -4.235109,4.23511 -0.462953,0.46295 m -2.576114,2.57611 0.253661,-0.25366 m -1.333398,1.3334 -0.895261,0.89526 m -6.157453,6.15746 0.439881,-0.43989 m -5.138641,5.13865 -0.463556,0.46355 m -6.123805,6.12381 0.595179,-0.59518 m -3.111368,3.11137 -0.35821,0.35821 m -3.716305,3.7163 1.968069,-1.96807 m -3.43057,3.43057 -0.416905,0.41691 m 38.376109,-37.97699 0.394939,-0.39494 m -3.477377,3.47738 -0.457766,0.45776 m -4.224085,4.22409 0.463322,-0.46332 m -2.719964,2.71996 -1.996213,1.99622 m -6.339646,6.33964 0.387953,-0.38795 m -5.083731,5.08373 -0.478914,0.47891 m -6.21028,6.21028 0.511924,-0.51192 m -3.149605,3.1496 -0.320689,0.32069 m -3.320439,3.32044 1.637979,-1.63798 m -3.509062,3.50906 -0.370713,0.37072 m 38.43867,-38.03955 0.397596,-0.3976 m -3.525523,3.52553 -0.491521,0.49152 m -4.174119,4.17412 0.463691,-0.46369 m -2.628647,2.62864 -1.648791,1.64879 m -6.705251,6.70525 0.377639,-0.37763 m -5.010166,5.01016 -0.478491,0.47849 m -6.424039,6.42404 0.463506,-0.4635 m -3.11337,3.11337 -0.335244,0.33524 m -2.924361,2.92436 1.38631,-1.38631 m -3.614355,3.61436 -0.339792,0.33979 m 38.501231,-38.10211 0.399911,-0.39991 m -3.614197,3.6142 -0.484408,0.4844 m -4.12576,4.12576 0.465669,-0.46567 m -2.531883,2.53189 -1.165249,1.16525 m -7.217894,7.21789 0.372797,-0.3728 m -4.860391,4.86039 -0.550892,0.5509 m -6.65753,6.65753 0.432831,-0.43283 m -3.054547,3.05454 -0.382798,0.3828 m -2.517817,2.51782 1.147693,-1.1477 m -3.716949,3.71695 -0.334088,0.33409 m 38.571804,-38.17268 0.402227,-0.40223 m -3.698875,3.69888 -0.487591,0.48759 m -4.129734,4.12973 0.497167,-0.49716 m -2.406006,2.406 -0.903047,0.90305 m -7.509197,7.5092 0.367954,-0.36796 m -4.732428,4.73243 -0.556772,0.55677 m -7.044451,7.04445 0.510877,-0.51087 m -2.98769,2.98769 -0.452525,0.45252 m -2.021897,2.0219 0.936213,-0.93621 m -3.907275,3.90727 -0.333187,0.33319 m 38.63254,-38.23342 0.404543,-0.40454 m -3.783553,3.78355 -0.519041,0.51904 m -4.105442,4.10544 0.524813,-0.52481 m -2.276276,2.27628 -0.778746,0.77874 m -7.665044,7.66505 0.365557,-0.36556 m -4.527599,4.5276 -0.630311,0.63031 m -7.36009,7.36009 0.553198,-0.5532 m -2.9656,2.9656 -2.056069,2.05607 m -3.708932,3.70893 0.347583,-0.34758 m 38.76417,-38.36505 -0.406859,0.40686 m -4.011863,4.01186 0.550492,-0.55049 m -4.079181,4.07918 -0.533493,0.5335 m -2.282342,2.28234 0.659639,-0.65964 m -8.08673,8.08673 -0.385781,0.38578 m -4.570398,4.5704 0.812772,-0.81277 m -8.147503,8.1475 -0.509325,0.50932 m -3.787265,3.78727 1.588071,-1.58807 m -5.456061,5.45606 -0.361978,0.36198 m 38.779306,-38.38019 0.407117,-0.40711 m -4.00111,4.00111 -0.534764,0.53476 m -4.122964,4.12296 0.60228,-0.60228 m -1.932891,1.93289 -0.61673,0.61673 m -7.942767,7.94277 0.408959,-0.40896 m -3.737805,3.73781 -1.084243,1.08424 m -8.416551,8.41655 0.693685,-0.69368 m -2.527171,2.52717 -1.14592,1.14592 m -4.724483,4.72448 0.376374,-0.37637 m 38.88472,-38.4856 -0.426656,0.42666 m -4.261637,4.26163 0.564617,-0.56462 m -4.050587,4.05059 -0.662509,0.66251 m -1.643487,1.64349 0.604795,-0.6048 m -8.214176,8.21418 -0.432136,0.43213 m -3.970421,3.97043 1.175624,-1.17563 m -9.571982,9.57198 -3.049595,3.0496 m -5.218996,5.21899 0.39077,-0.39077 m 38.944994,-38.54587 -0.446196,0.4462 m -4.394514,4.39451 0.59447,-0.59447 m -4.01428,4.01428 -2.092354,2.09236 m -8.141731,8.14173 0.455318,-0.45532 m -2.721961,2.72196 -1.183733,1.18373 m -11.806655,11.80666 2.659427,-2.65943 m -7.734442,7.73444 -0.405165,0.40517 m 38.9447,-38.54558 0.465735,-0.46573 m -4.332908,4.3329 -0.664008,0.66401 m -5.228573,5.22858 1.788626,-1.78863 m -9.53352,9.53352 -0.497051,0.49705 m -2.831572,2.83157 1.141912,-1.14191 m -11.202992,11.20299 -1.415429,1.41543 m -6.530972,6.53097 0.419561,-0.41956 m 39.065544,-38.66642 -0.485274,0.48528 m -4.709717,4.70971 0.632366,-0.63236 m -3.967481,3.96748 -1.568344,1.56834 m -8.341813,8.34181 0.543099,-0.54309 m -1.655776,1.65577 -1.083998,1.084 m -11.710466,11.71047 0.817349,-0.81735 m -7.396298,7.39629 -0.454804,0.45481 m 39.054962,-38.65584 0.493573,-0.49357 m -4.718607,4.7186 -0.679405,0.67941 m -4.562107,4.5621 1.372017,-1.37201 m -9.224603,9.2246 -2.280405,2.28041 m -19.351477,19.35147 0.491821,-0.49182 m 39.115034,-38.71591 -0.496762,0.49676 m -5.102759,5.10276 0.730043,-0.73004 m -3.710112,3.71011 -1.237087,1.23709 m -9.870882,9.87088 1.96263,-1.96263 m -21.24914,21.24914 -3.219855,3.21985 m 41.856241,-41.45711 0.499951,-0.49996 m -5.097835,5.09784 -0.801998,0.802 m -3.718231,3.71823 1.060255,-1.06026 m -9.052271,9.05227 -1.675314,1.67532 m -23.8949,23.8949 4.184922,-4.18492 m 39.157641,-38.75852 -0.50314,0.50314 m -5.943796,5.94379 1.136614,-1.13661 m -3.094828,3.09483 -1.010295,1.01029 m -9.536816,9.53682 1.457031,-1.45703 m -21.521445,21.52144 -5.271658,5.27166 m 43.931656,-43.53253 0.518944,-0.51895 m -5.522808,5.52281 -3.565369,3.56537 m -9.522689,9.52269 1.230488,-1.23049 m -21.657599,21.6576 -0.42659,0.42659 m -5.054494,5.0545 2.609692,-2.6097 m 42.051065,-41.65194 -0.537528,0.53753 m -8.192619,8.19262 2.865947,-2.86595 m -11.378525,11.37853 -1.054178,1.05417 m -21.135812,21.13582 0.394007,-0.39401 m -3.846229,3.84623 -2.486831,2.48683 m 44.957351,-44.55823 0.559329,-0.55933 m -6.163715,6.16372 -1.8786,1.8786 m -9.942712,9.94271 0.899862,-0.89986 m -21.94839,21.94839 -0.37967,0.37967 m -6.28946,6.28946 1.669235,-1.66924 m 44.178364,-43.77924 -0.581131,0.58113 m -6.804147,6.80415 0.778665,-0.77867 m -10.320992,10.32099 -0.848672,0.84868 m -7.115205,7.1152 1.533508,-1.53351 m -15.654253,15.65426 -0.38151,0.38151 m -7.048088,7.04808 1.609012,-1.60901 m 44.94554,-44.54641 -0.572069,0.57206 m -16.825892,16.8259 0.660102,-0.66011 m -5.779717,5.77972 -3.998573,3.99858 m -12.825913,12.82591 0.383351,-0.38335 m -6.145787,6.14578 -1.553157,1.55316 m 46.177443,-45.77832 0.587249,-0.58725 m -16.538303,16.5383 -0.550565,0.55057 m -11.410509,11.41051 6.460394,-6.4604 m -16.860523,16.86053 -0.385192,0.38519 m -7.758704,7.7587 1.087395,-1.08739 M 61.4009,236.8378 l -0.602429,0.60243 m -16.224397,16.2244 0.507094,-0.50709 m -5.23732,5.23732 -7.45677,7.45677 m -10.208141,10.20814 0.381662,-0.38166 m -7.664722,7.66472 -0.920538,0.92054 m 46.91499,-46.51587 0.61761,-0.61761 m -16.101163,16.10116 -0.455481,0.45548 m -5.79663,5.79663 1.243308,-1.24331 m -4.416148,4.41615 -3.611797,3.6118 m -10.014477,10.01448 0.37129,-0.37129 m -8.272943,8.27294 -0.679908,0.67991 m 47.212246,-46.81313 0.578747,-0.57874 m -15.832598,15.83259 -0.429429,0.42943 m -5.192015,5.19202 0.841157,-0.84116 m -5.065149,5.06515 -3.572179,3.57218 m -9.782604,9.78261 0.360918,-0.36092 m -8.881164,8.88116 -0.468846,0.46885 m 47.502574,-47.10346 0.588592,-0.58859 m -15.574314,15.57432 -0.420306,0.4203 m -4.926692,4.92669 0.793294,-0.79329 m -5.608439,5.60844 -0.615405,0.61541 m -2.87199,2.87198 0.536228,-0.53622 m -9.88729,9.88729 -0.350546,0.35054 m -9.28667,9.28667 0.795042,-0.79504 m 47.486346,-47.08722 -0.598438,0.59843 m -15.128777,15.12878 0.436314,-0.43631 m -4.35225,4.35225 -0.739758,0.73976 m -5.860354,5.86035 0.435987,-0.43599 m -3.049445,3.04945 -0.34077,0.34077 m -9.620612,9.62061 0.356525,-0.35652 m -8.825208,8.8252 -1.285181,1.28518 m 48.032942,-47.63382 0.587952,-0.58795 m -14.987157,14.98716 -0.50665,0.50665 m -4.525425,4.52542 0.881279,-0.88127 m -6.690072,6.69007 -0.391728,0.39173 m -2.927531,2.92753 0.186043,-0.18605 m -9.358912,9.35892 -0.370263,0.37026 m -9.865814,9.86581 1.420076,-1.42007 m 47.171794,-46.77268 -0.559956,0.55996 m -14.687538,14.68754 0.577369,-0.57737 m -3.949344,3.94934 -0.652955,0.65296 m -7.047583,7.04758 0.489999,-0.49 m -3.110752,3.11075 -0.0822,0.0822 m -9.515642,9.51564 0.373163,-0.37316 m -8.806794,8.80679 -1.663243,1.66324 m 48.100028,-47.7009 0.571089,-0.57109 m -14.353094,14.35309 -0.648088,0.64809 m -3.830597,3.8306 0.730127,-0.73013 m -7.731098,7.7311 -0.741273,0.74127 m -2.324615,2.32461 0.09156,-0.0915 m -9.203648,9.20364 -0.362186,0.36219 m -10.338485,10.33849 1.903084,-1.90309 m 46.843956,-46.44483 -0.582223,0.58222 m -14.238843,14.23885 0.785003,-0.78501 m -3.506736,3.50674 -0.480564,0.48056 m -8.875993,8.87599 0.96344,-0.96343 m -2.669944,2.66994 -0.168455,0.16845 m -9.43291,9.43291 0.351209,-0.35121 m -8.78838,8.78839 -0.397434,0.39743 m -1.683702,1.6837 0.744086,-0.74408 m 47.991415,-47.5923 -0.567687,0.56769 m -14.03766,14.03766 0.911986,-0.91199 m -3.405585,3.40559 -0.07235,0.0723 m -11.422991,11.42299 2.646295,-2.64629 m -11.727645,11.72765 -0.340232,0.34023 m -8.782574,8.78257 0.331112,-0.33111 m -1.760576,1.76057 -0.49821,0.49821 m 48.179264,-47.78014 0.550288,-0.55029 m -13.344129,13.34413 -1.0409,1.0409 m -14.008819,14.00882 2.138454,-2.13845 m -11.233325,11.23332 -0.329255,0.32926 m -8.759395,8.7594 0.287928,-0.28793 m -1.912683,1.91268 -0.446315,0.44631 m 48.083582,-47.68446 0.568296,-0.56829 m -12.994897,12.9949 -1.213694,1.21369 m -13.984823,13.98482 1.603002,-1.603 m -10.711394,10.71139 -0.318278,0.31828 m -8.794191,8.79419 0.30272,-0.30272 m -2.052471,2.05247 -0.406739,0.40674 m 47.9879,-47.58877 0.586305,-0.58631 m -12.651776,12.65178 -1.380377,1.38038 m -13.960827,13.96082 1.028641,-1.02864 m -10.127061,10.12706 -0.32745,0.32745 m -8.860566,8.86057 0.291145,-0.29115 m -2.074274,2.07428 -0.410115,0.41011 m 47.870067,-47.47094 0.572406,-0.57241 m -12.233773,12.23377 -1.588316,1.58832 m -13.916664,13.91666 0.644144,-0.64414 m -9.752369,9.75237 -0.318545,0.31854 m -8.971176,8.97118 0.296058,-0.29606 m -2.081359,2.08136 -0.387597,0.3876 m 47.698707,-47.29959 0.581055,-0.58105 m -11.816121,11.81612 -1.820268,1.82027 m -13.834978,13.83498 0.401597,-0.4016 m -9.533138,9.53314 -0.30964,0.30964 m -9.291464,9.29146 0.45083,-0.45083 m -2.009813,2.00981 -0.383891,0.38389 m 47.505505,-47.10638 0.611545,-0.61154 m -11.398469,11.39846 -2.065733,2.06574 m -13.739778,13.73978 0.360268,-0.36027 m -9.515125,9.51512 -0.300736,0.30074 m -9.739383,9.73938 0.703338,-0.70333 m -1.861142,1.86114 -0.394286,0.39428 m 47.195547,-46.79642 0.725664,-0.72567 m -10.980817,10.98082 -0.713248,0.71325 m -1.59795,1.59795 0.468317,-0.46832 m -13.809802,13.8098 -0.303094,0.3031 m -9.470004,9.47 0.291831,-0.29183 m -9.522471,9.52247 -2.10803,2.10803 m 47.0249,-46.62578 0.640244,-0.64024 m -10.523231,10.52323 -0.658314,0.65832 m -1.887665,1.88766 0.393049,-0.39305 m -10.428073,10.42807 -0.668263,0.66827 m -2.846422,2.84642 0.287021,-0.28702 m -9.488509,9.48851 -0.282927,0.28292 m -11.385867,11.38587 1.849396,-1.84939 m 45.5727,-45.17358 -0.689934,0.68993 m -10.012796,10.0128 0.697805,-0.69781 m -2.496024,2.49603 -0.351958,0.35196 m -11.784696,11.78469 2.060648,-2.06065 m -3.436752,3.43676 -0.275872,0.27587 m -9.52351,9.52351 0.274022,-0.27402 m -10.079908,10.0799 -1.598421,1.59842 m 46.338593,-45.93947 0.811699,-0.8117 m -9.486619,9.48662 -0.828541,0.82854 m -2.321445,2.32145 0.327158,-0.32716 m -9.914823,9.91482 -0.211305,0.21131 m -3.521231,3.52123 2.101485,-2.10148 m -11.393213,11.39321 -0.274312,0.27431 m -11.416898,11.4169 1.322636,-1.32264 m 45.508267,-45.10914 -0.778112,0.77811 m -8.946857,8.94686 0.798393,-0.7984 m -3.121782,3.12179 -0.330207,0.3302 m -9.634543,9.63455 0.183266,-0.18327 m -2.080259,2.08026 -1.672195,1.67219 m -9.590039,9.59004 0.271472,-0.27147 m -10.676623,10.67662 -1.042869,1.04287 m 45.651172,-45.25205 0.856472,-0.85647 m -8.374067,8.37407 -0.839069,0.83907 m -2.891577,2.89157 0.327512,-0.32751 m -9.65443,9.65443 -0.267193,0.2672 m -3.505092,3.50509 1.3003,-1.3003 m -10.645706,10.6457 -0.27074,0.27074 m -11.463493,11.4635 0.74956,-0.74956 m 45.421284,-45.02216 -0.918837,0.91883 m -7.782465,7.78247 1.003263,-1.00327 m -3.799818,3.79982 -0.317929,0.31793 m -9.654046,9.65405 0.44117,-0.44117 m -2.812307,2.8123 -0.984567,0.98457 m -9.642253,9.64225 0.270008,-0.27 m -11.292722,11.29272 -0.442783,0.44278 m 44.695,-44.29588 1.275887,-1.27588 m -7.172324,7.17232 -1.167457,1.16746 m -3.337389,3.33739 0.324942,-0.32495 m -9.382313,9.38232 -0.685653,0.68565 m -3.153575,3.15358 0.759628,-0.75963 m -10.182412,10.18241 -0.269276,0.26928 m -11.467499,11.46749 0.136005,-0.136 m 45.222438,-44.82331 -1.398995,1.39899 m -6.17735,6.17735 1.349213,-1.34921 m -4.566983,4.56698 -0.331954,0.33195 m -9.881894,9.8819 0.993948,-0.99395 m -3.295955,3.29595 -0.585515,0.58552 m -9.755897,9.7559 0.268544,-0.26855 m -8.482287,8.48229 -3.25576,3.25576 m 43.454452,-43.05533 1.491848,-1.49185 m -4.931449,4.93145 -2.35779,2.35779 m -3.487258,3.48726 0.340196,-0.3402 m -9.048722,9.04872 -1.311009,1.31101 m -2.621468,2.62147 0.441734,-0.44173 m -9.993657,9.99365 -0.267812,0.26782 m -11.456695,11.45669 3.559974,-3.55997 m 40.936392,-40.53727 -7.091674,7.09167 m -3.292144,3.29215 0.32831,-0.32831 m -8.747616,8.74761 -1.738411,1.73841 m -2.375002,2.37501 0.324632,-0.32464 m -9.942553,9.94256 -0.265652,0.26565 m -11.438149,11.43815 3.584779,-3.58478 m 40.458205,-40.05908 -6.8964,6.8964 m -3.097027,3.09702 0.316424,-0.31642 m -8.430156,8.43015 -2.262155,2.26216 m -2.006811,2.00681 0.240102,-0.2401 m -9.937953,9.93795 -0.291297,0.2913 m -8.420677,8.42068 0.610558,-0.61056 m -2.69292,2.69292 -0.916565,0.91656 m 36.888477,-36.48935 6.701126,-6.70113 m -9.284488,9.28449 -0.31855,0.31855 m -10.61101,10.61101 2.642846,-2.64285 m -4.078188,4.07819 -0.197311,0.19731 m -10.077991,10.07799 0.311197,-0.31119 m -8.082862,8.08286 -0.327107,0.32711 m -3.308031,3.30803 0.702836,-0.70284 m 42.515884,-42.11676 -6.588351,6.58835 m -2.706797,2.7068 0.332081,-0.33208 m -8.188899,8.1889 -0.471351,0.47135 m -2.665846,2.66584 0.93366,-0.93366 m -1.857475,1.85748 -0.1868,0.1868 m -10.166449,10.16645 0.330714,-0.33072 m -8.068488,8.06849 -0.29625,0.29625 m -3.348784,3.34879 0.52494,-0.52495 m 42.319045,-41.91992 -2.116586,2.11659 m -4.366715,4.36671 0.459393,-0.45939 m -2.625463,2.62546 -0.344264,0.34427 m -7.909803,7.9098 0.129417,-0.12942 m -2.561018,2.56102 -1.625539,1.62554 m -10.254908,10.25491 0.35023,-0.35023 m -8.000305,8.0003 -0.369564,0.36957 m -3.32566,3.32566 0.362623,-0.36263 m 42.093113,-41.69399 -1.564032,1.56404 m -4.810886,4.81088 0.372087,-0.37209 m -2.332844,2.33285 -0.338147,0.33815 m -11.8185,11.8185 1.268308,-1.26831 m -11.270986,11.27098 -0.369746,0.36975 m -8.080806,8.08081 0.504721,-0.50473 m -3.458341,3.45835 -0.273364,0.27336 m 40.96801,-40.56889 1.258126,-1.25812 m -6.110969,6.11096 -0.336896,0.3369 m -2.064794,2.06479 0.33203,-0.33202 m -11.010289,11.01029 -0.99836,0.99836 m -10.483378,10.48337 0.389263,-0.38926 m -7.83536,7.83536 -0.728557,0.72856 m -3.095625,3.09562 0.193814,-0.19381 m 41.769744,-41.37062 -0.931718,0.93171 m -5.556116,5.55612 0.324823,-0.32482 m -1.827526,1.82752 -0.327982,0.32799 m -7.881083,7.88108 0.08948,-0.0895 m -2.990619,2.99062 -0.752514,0.75251 m -10.59433,10.59433 0.402791,-0.40279 m -7.705583,7.70559 -0.98361,0.98361 m -2.946368,2.94636 0.184777,-0.18477 m 41.5435,-41.14438 -0.743835,0.74383 m -5.811264,5.81127 0.367778,-0.36778 m -1.611078,1.61108 -0.353275,0.35327 m -8.033831,8.03383 0.194791,-0.19479 m -3.014756,3.01476 -0.539063,0.53906 m -10.705284,10.70529 0.451841,-0.45185 m -7.61146,7.61147 -1.33285,1.33285 m -2.70279,2.70279 0.190239,-0.19024 M 60.015898,252.19209 59.407997,252.8 m -6.060706,6.0607 0.389761,-0.38976 m -1.390933,1.39093 -0.370239,0.37024 m -8.240815,8.24082 0.335828,-0.33583 m -3.001721,3.00172 -0.322631,0.32263 m -10.840036,10.84004 0.50089,-0.50089 m -7.479381,7.47938 -1.720046,1.72005 m -2.425789,2.42578 0.203735,-0.20373 m 41.129783,-40.73066 -0.517056,0.51705 m -7.402786,7.40279 1.612617,-1.61262 m -5.831286,5.83129 -0.142848,0.14285 m -4.197833,4.19783 0.547998,-0.548 m -2.894669,2.89467 -0.162345,0.16235 m -10.975293,10.97529 0.54994,-0.54994 m -8.468583,8.46858 -0.985962,0.98596 m -2.147345,2.14735 0.215787,-0.21579 m 40.899463,-40.50034 -0.423377,0.42338 m -4.878328,4.87833 0.669323,-0.66933 m -1.730259,1.73026 -1.437025,1.43703 m -4.719737,4.71973 0.962272,-0.96227 m -4.368151,4.36815 -0.621214,0.62122 m -13.271114,13.27111 0.598989,-0.59899 m -3.459135,3.45914 -0.698021,0.69802 m -3.178114,3.17811 0.182353,-0.18235 m -1.819146,1.81915 -0.75771,0.75771 m -1.848789,1.84878 0.261332,-0.26133 m 40.644734,-40.24561 -0.388692,0.38869 m -7.299882,7.29989 2.945459,-2.94546 m -6.597643,6.59764 -1.555762,1.55576 m -3.810847,3.81085 0.703922,-0.70392 m -13.029318,13.02931 -0.648039,0.64804 m -3.441322,3.44133 1.608301,-1.60831 m -4.644936,4.64494 -0.218725,0.21873 m -2.71708,2.71708 0.683764,-0.68377 m -1.912794,1.9128 -0.264405,0.2644 m 40.342875,-39.94375 0.356394,-0.3564 m -4.893441,4.89344 -2.686428,2.68643 m -5.51622,5.51622 1.700411,-1.70041 m -4.675849,4.67585 -2.063963,2.06396 m -14.622623,14.62263 3.90882,-3.90882 m -7.079343,7.07934 -0.324681,0.32468 m -4.127885,4.12789 1.832041,-1.83204 m 38.660431,-38.26131 -0.336987,0.33698 m -7.134177,7.13418 2.427397,-2.4274 m -7.620639,7.62064 -0.631253,0.63126 m -4.539198,4.53919 1.69515,-1.69515 m -12.525209,12.52521 -3.783267,3.78327 m -3.689215,3.68921 0.309413,-0.30941 m -2.857507,2.85751 -1.457233,1.45723 m 39.919095,-39.51997 0.3349,-0.3349 m -5.233221,5.23322 -2.129238,2.12924 m -6.214291,6.21429 0.677276,-0.67728 m -3.184984,3.18499 -1.449766,1.44976 m -14.75304,14.75304 3.840468,-3.84046 m -7.280538,7.28053 -0.316416,0.31642 m -3.853747,3.85375 1.140173,-1.14018 m 38.868594,-38.46947 -0.332814,0.33282 m -6.933238,6.93323 1.866477,-1.86647 m -7.646706,7.6467 -0.650749,0.65075 m -3.536561,3.53656 1.244975,-1.24497 m -12.240059,12.24006 -3.933205,3.9332 m -3.798284,3.79829 0.29803,-0.29803 m -3.143627,3.14362 -0.846507,0.84651 m 39.419353,-39.02023 0.322787,-0.32279 m -5.421608,5.42161 -1.733405,1.73341 m -6.814676,6.81467 0.745431,-0.74543 m -2.605313,2.60531 -1.016617,1.01662 m -11.84909,11.84909 0.706121,-0.70612 m -3.048315,3.04831 -0.996443,0.99645 m -3.84137,3.84137 0.279746,-0.27975 m -3.135138,3.13514 -0.654965,0.65496 m 39.146635,-38.74751 0.332406,-0.3324 m -5.377881,5.37788 -1.669619,1.66962 m -7.315698,7.31569 1.007815,-1.00781 m -2.156949,2.15695 -0.969312,0.96931 m -11.784859,11.78486 0.513338,-0.51334 m -3.472914,3.47291 -0.750553,0.75056 m -3.826413,3.82641 0.270573,-0.27057 m -3.043658,3.04366 -0.546411,0.54641 m 38.877345,-38.47823 0.338596,-0.33859 m -5.255163,5.25516 -1.684826,1.68483 m -9.276204,9.2762 2.730537,-2.73054 m -14.031519,14.03152 -0.43796,0.43796 m -3.964215,3.96422 0.593457,-0.59346 m -4.143512,4.14351 -0.28533,0.28533 m -3.051288,3.05129 0.47662,-0.47662 m 38.40401,-38.00489 -0.372151,0.37216 m -6.441534,6.44153 1.776103,-1.7761 m -8.503679,8.50367 -2.033839,2.03384 m -12.028569,12.02857 0.333171,-0.33317 m -4.149397,4.1494 -0.456078,0.45608 m -3.826727,3.82672 0.311981,-0.31198 m -2.587465,2.58747 -0.499675,0.49967 m 38.159775,-37.76065 0.378889,-0.37889 m -4.772008,4.77201 -0.497643,0.49764 m -1.403927,1.40393 0.601337,-0.60134 m -7.855686,7.85569 -0.931112,0.93111 m -12.399078,12.39908 0.288013,-0.28802 m -4.48385,4.48386 -0.394255,0.39425 m -3.809543,3.80954 0.359952,-0.35995 m -2.321545,2.32155 -0.516548,0.51654 m 37.731594,-37.33247 0.465105,-0.4651 m -4.305556,4.30555 -0.737858,0.73786 m -1.503563,1.50356 0.530604,-0.5306 m -8.342333,8.34233 -0.18092,0.18092 m -12.380174,12.38018 0.25009,-0.25009 m -4.814531,4.81453 -0.328361,0.32836 m -3.928644,3.92864 0.536364,-0.53636 m -1.965373,1.96537 -0.623673,0.62368 m 37.289692,-36.89057 0.516203,-0.51621 m -3.661785,3.66179 -1.153145,1.15314 m -1.569157,1.56916 0.500287,-0.50029 m -20.436678,20.43668 -0.212166,0.21217 m -5.263529,5.26353 0.330485,-0.33049 m -3.597437,3.59744 -2.273518,2.27352 M 60.245105,257.94973 61.254832,256.94 m -2.934515,2.93451 -1.663463,1.66347 m -1.611768,1.61176 0.46997,-0.46997 m -15.843645,15.84365 -1.470183,1.47018 m -3.080435,3.08044 0.178447,-0.17845 m -5.476391,5.47639 -0.368498,0.3685 m -5.071402,5.0714 1.979718,-1.97972 m 34.798023,-34.3989 -4.335193,4.3352 m -1.605554,1.60555 0.472463,-0.47246 m -15.217509,15.21751 -2.735526,2.73552 m -2.219456,2.21946 0.384513,-0.38452 m -6.045624,6.04563 -0.376207,0.37621 m -4.634371,4.63437 1.703674,-1.70368 m 34.490815,-34.09169 -4.067706,4.06771 m -1.580208,1.5802 0.470335,-0.47033 m -14.690943,14.69094 -5.307114,5.30712 m -6.501491,6.50149 0.529171,-0.52917 m -3.108788,3.10879 -1.545971,1.54597 m 31.856263,-31.45714 3.604417,-3.60442 m -4.662814,4.66281 -0.464748,0.46475 m -19.605684,19.60568 5.722297,-5.72229 m -11.759016,11.75901 -0.603227,0.60323 m -3.383461,3.38346 1.185839,-1.18584 m 30.376221,-29.9771 -0.345732,0.34574 m -1.444698,1.44469 0.516738,-0.51673 m -14.142576,14.14257 -0.694708,0.69471 m -5.403608,5.40361 2.174865,-2.17487 m -8.25063,8.25063 -3.407161,3.40716 m 30.695485,-30.29636 0.438361,-0.43836 m -1.194735,1.19473 -0.589491,0.5895 m -19.842625,19.84262 1.672319,-1.67232 m -7.806992,7.80699 -2.587917,2.58792 m 28.707754,-28.30863 1.778023,-1.77802 m -20.397023,20.39702 -1.342095,1.34209 m -8.018896,8.0189 1.858801,-1.8588 m 28.035549,-27.63643 -1.771819,1.77182 m -20.079565,20.07957 1.164107,-1.16411 m -7.692635,7.69263 -0.333083,0.33309 m 27.083715,-26.6846 1.765616,-1.76561 m -20.991934,20.99193 -0.971717,0.97172 m 20.318925,-19.9198 1.781063,-1.78107 m -21.296591,21.2966 -0.779328,0.77932 m 20.401223,-20.0021 1.811032,-1.81103 m -21.480466,21.48047 -0.70772,0.70772 m 20.483522,-20.0844 1.841001,-1.841 m -21.683443,21.68344 -0.617011,0.61701 m 20.56582,-20.1667 1.870969,-1.87097 m -21.886418,21.88642 -0.526302,0.5263 m 22.127987,-21.72886 0.42107,-0.42107 m -1.260488,1.26049 -0.640451,0.64045 m -20.673635,20.67363 0.485179,-0.48518 m 22.225731,-21.8266 -0.349969,0.34997 m -1.598009,1.598 0.540737,-0.54073 m -20.80384,20.80384 -0.419622,0.41962 m 22.470513,-22.07139 0.284176,-0.28418 m -1.476308,1.47631 -0.525561,0.52556 m -20.713083,20.71308 0.383398,-0.38339 m 22.456975,-22.05786 -0.270154,0.27016 m -1.787042,1.78704 0.495586,-0.49559 m -20.891852,20.89186 -0.347174,0.34717 m 22.669927,-22.2708 0.256131,-0.25613 m -1.646912,1.64691 -0.465611,0.46561 m -20.773797,20.7738 0.310949,-0.31095 m 22.700792,-22.30167 -0.242109,0.24211 m -1.92574,1.92574 0.435635,-0.43564 m -20.965065,20.96506 -0.277038,0.27704 m 22.851144,-22.45202 0.234024,-0.23402 m -1.802946,1.80294 -0.416528,0.41653 m -20.799237,20.79924 0.289047,-0.28905 m 22.835405,-22.43628 -0.253542,0.25354 m -2.034019,2.03402 0.418994,-0.41899 m -20.907412,20.90741 -0.282017,0.28202 m 22.890676,-22.49156 0.273061,-0.27306 m -1.907808,1.90781 -0.44784,0.44784 m -20.741632,20.74163 0.274987,-0.27499 m 22.928034,-22.52891 -0.292579,0.29258 m -2.131156,2.13116 0.484642,-0.48465 m -20.929515,20.92952 -0.267957,0.26796 m 22.927346,-22.52823 0.303986,-0.30398 m -1.959403,1.9594 -0.521445,0.52145 m -20.679575,20.67957 0.256475,-0.25647 m 22.987397,-22.58828 -0.35324,0.35324 m -2.17347,2.17347 0.558314,-0.55831 m -20.924573,20.92457 -0.261346,0.26135 m 22.83527,-22.43615 0.402494,-0.4025 m -1.977388,1.97739 -0.620934,0.62094 m -20.549886,20.54988 0.273099,-0.2731 m 22.958558,-22.55943 -0.451747,0.45175 m -2.218189,2.21818 0.683554,-0.68355 m -20.821572,20.82157 -0.334146,0.33415 m 22.728128,-22.32901 0.46239,-0.46239 m -1.949326,1.94933 -0.757192,0.75719 m -20.394444,20.39444 0.414652,-0.41465 m 22.730188,-22.33106 -0.521738,0.52174 m -2.216822,2.21682 0.866783,-0.86679 m -20.198952,20.19896 -0.97553,0.97553 m 22.457464,-22.05835 0.632672,-0.63267 m -1.798352,1.79835 -0.972249,0.97225 m -20.207902,20.20791 1.383136,-1.38314 m 21.489045,-21.08992 -0.511757,0.51175 m -2.14875,2.14875 1.155126,-1.15512 m -19.431226,19.43122 -1.823941,1.82394 m 20.08155,-19.68242 2.619416,-2.61942 m -20.47361,20.47361 -2.115722,2.11573 m 19.951426,-19.55231 2.476475,-2.47647 m -19.980138,19.98013 -0.466152,0.46616 m -1.876163,1.87616 0.999959,-0.99996 m 21.166238,-20.76712 -2.33871,2.33871 m -17.524902,17.52491 0.355008,-0.35501 m -1.902431,1.90243 -0.620071,0.62007 m 19.673906,-19.27478 2.235083,-2.23509 m -18.931124,18.93113 -0.585592,0.58559 m -2.257182,2.25718 0.540721,-0.54072 m 20.924058,-20.52493 -1.952056,1.95205 m -17.047883,17.04788 0.908413,-0.90841 m -2.763199,2.7632 -0.474964,0.47496 m 19.182152,-18.78303 1.910254,-1.91025 m -5.846483,5.84648 -0.34592,0.34592 m -12.362596,12.3626 1.235316,-1.23532 m -3.1793,3.1793 -0.458332,0.45834 m 19.084465,-18.68535 1.896529,-1.89653 m -5.621242,5.62125 -0.771081,0.77108 m -12.015773,12.01577 1.675718,-1.67572 m -3.66139,3.66139 -0.442172,0.44218 m 18.82282,-18.4237 1.363953,-1.36396 m -4.789171,4.78918 -1.156739,1.15673 m -11.661294,11.6613 2.003901,-2.0039 m -3.994318,3.99432 -0.426042,0.42604 m 18.342425,-17.94331 1.457521,-1.45752 m -4.367513,4.36752 -1.291211,1.29121 m -11.573039,11.57304 2.160242,-2.16025 m -4.13811,4.13811 -0.427204,0.42721 m 17.84773,-17.44861 1.235011,-1.23501 m -3.490879,3.49088 -1.679726,1.67973 m -9.341596,9.34159 0.32744,-0.32744 m -1.833247,1.83325 -0.507937,0.50793 m -2.393686,2.39369 0.444755,-0.44475 m 18.143835,-17.74472 -4.794703,4.79471 m -9.127674,9.12767 0.334026,-0.33403 m -2.012235,2.01224 -0.449743,0.44974 m -2.357599,2.3576 0.460668,-0.46067 m 17.235989,-16.83686 -4.059485,4.05948 m -8.898755,8.89876 0.355169,-0.35517 m -2.205537,2.20553 -0.408536,0.40854 m -2.278015,2.27802 0.475872,-0.47588 m 16.918345,-16.51922 -3.9995,3.9995 m -8.635704,8.6357 0.357541,-0.35754 m -2.324508,2.32451 -0.392118,0.39212 m -2.198431,2.19843 0.508215,-0.50821 m 15.806894,-15.40778 -3.002635,3.00264 m -8.532864,8.53286 0.359912,-0.35991 m -2.42934,2.42934 -0.389837,0.38984 m -2.10299,2.10299 0.552384,-0.55239 m 13.060379,-12.66125 -0.423463,0.42346 m -8.42278,8.42278 0.365418,-0.36542 m -2.519478,2.51948 -0.387556,0.38756 m -1.960467,1.96046 0.56952,-0.56952 m 12.824821,-12.42569 -0.375297,0.37529 m -8.319209,8.31921 0.358728,-0.35873 m -2.590907,2.59091 -0.405173,0.40517 m -1.798046,1.79805 0.603153,-0.60315 m 12.590485,-12.19137 -0.301419,0.30142 m -8.259971,8.25997 0.352939,-0.35293 m -2.641748,2.64174 -0.454459,0.45446 m -1.555512,1.55551 0.653407,-0.6534 m 12.367754,-11.96863 -0.299363,0.29936 m -8.249821,8.24982 0.345753,-0.34575 m -2.66972,2.66972 -1.803681,1.80368 m 12.540515,-12.1414 0.285454,-0.28545 m -8.191547,8.19155 -0.333576,0.33357 m -3.956518,3.95652 1.597391,-1.59739 m 11.076416,-10.67729 -0.303516,0.30351 m -8.255373,8.25538 0.336196,-0.3362 m -2.715685,2.71569 -1.391101,1.3911 m 12.228063,-11.82894 0.297831,-0.29783 m -8.288612,8.28861 -0.321072,0.32107 m -3.507397,3.5074 1.135127,-1.13513 m 11.185029,-10.78591 -0.298805,0.29881 m -4.746048,4.74605 0.423974,-0.42398 m -3.73905,3.73905 -0.316947,0.31695 m -3.245142,3.24514 0.907295,-0.90729 m 11.238596,-10.83948 -0.320578,0.32058 m -5.075027,5.07503 1.064573,-1.06458 m -4.121011,4.12102 -0.337614,0.33761 m -2.958095,2.95809 0.711841,-0.71184 m 11.259785,-10.86066 -0.342351,0.34235 m -5.290304,5.29031 1.488052,-1.48806 m -4.40522,4.40522 -0.368827,0.36883 m -2.669536,2.66954 0.560053,-0.56006 m 11.250823,-10.8517 -0.363304,0.36331 m -5.505217,5.50521 1.809847,-1.80984 m -4.58728,4.58728 -0.407951,0.40795 m -2.263146,2.26314 0.35332,-0.35332 m 11.178899,-10.77977 -0.377023,0.37702 m -3.933438,3.93344 0.357232,-0.35723 m -1.917394,1.91739 -0.22527,0.22527 m -3.206312,3.20631 0.56764,-0.56764 m -2.008486,2.00849 -0.337342,0.33734 m 10.90482,-10.5057 0.390741,-0.39074 m -3.907965,3.90797 -0.354745,0.35474 m -6.581024,6.58103 2.024832,-2.02484 m 9.03407,-8.63494 -0.404459,0.40445 m -3.810499,3.8105 0.352258,-0.35225 m -4.986994,4.98699 -1.702696,1.7027 m 10.349381,-9.95026 0.418178,-0.41818 m -3.828149,3.82815 -0.391352,0.39135 m -6.038467,6.03847 1.372018,-1.37202 m 9.083492,-8.68437 -0.41427,0.41427 m -3.79532,3.79532 0.407072,-0.40707 m -3.190267,3.19027 -0.123914,0.12391 m -2.829221,2.82922 1.092823,-1.09282 m 9.021125,-8.622 -0.386336,0.38633 m -3.783829,3.78383 0.422791,-0.42279 m -3.249095,3.24909 -0.519052,0.51906 m -2.165859,2.16585 1.011176,-1.01117 m 8.838231,-8.43911 -0.389258,0.38926 m -3.74148,3.74148 0.430267,-0.43027 m -3.317009,3.31701 -2.135756,2.13576 m 8.937422,-8.5383 0.383842,-0.38384 m -3.662533,3.66253 -0.452714,0.45271 m -4.62856,4.62856 1.758963,-1.75896 m 7.1253,-6.72618 -0.409842,0.40984 m -3.66506,3.66506 0.477878,-0.47787 m -3.258925,3.25892 -1.551894,1.55189 m 8.121227,-7.7221 0.404072,-0.40407 m -3.508514,3.50851 -0.501479,0.50148 m -3.694273,3.69427 1.119806,-1.1198 m 6.655505,-6.25638 -0.480777,0.48077 m -3.449651,3.44965 0.556835,-0.55683 m -2.759324,2.75932 -0.976224,0.97623 m 6.50584,-6.10672 0.635078,-0.63508 m -3.199405,3.19941 -3.1399,3.1399 m 4.925531,-4.52641 1.432384,-1.43239 m -3.012049,3.01205 -2.546416,2.54642 m 0.385839,0.0133 5.076444,-5.07644 m -0.418468,0.81759 -3.168804,3.1688 m 1.55969,-1.16057 0.743618,-0.74361"
         inkscape:connector-curvature="0" />
    </g>
  </g>
</svg>
