<?xml version="1.0" encoding="UTF-8" standalone="no"?>
<!-- Created with Inkscape (http://www.inkscape.org/) -->

<svg
   xmlns:dc="http://purl.org/dc/elements/1.1/"
   xmlns:cc="http://creativecommons.org/ns#"
   xmlns:rdf="http://www.w3.org/1999/02/22-rdf-syntax-ns#"
   xmlns:svg="http://www.w3.org/2000/svg"
   xmlns="http://www.w3.org/2000/svg"
   xmlns:sodipodi="http://sodipodi.sourceforge.net/DTD/sodipodi-0.dtd"
   xmlns:inkscape="http://www.inkscape.org/namespaces/inkscape"
   sodipodi:docname="50.svg"
   inkscape:version="0.92.2 2405546, 2018-03-11"
   id="svg1586"
   version="1.1"
   viewBox="0 0 50 50"
   height="50mm"
   width="50mm">
  <sodipodi:namedview
     inkscape:window-maximized="1"
     inkscape:window-y="0"
     inkscape:window-x="0"
     inkscape:window-height="703"
     inkscape:window-width="1366"
     showgrid="false"
     inkscape:current-layer="layer1"
     inkscape:document-units="mm"
     inkscape:cy="141.73228"
     inkscape:cx="94.488189"
     inkscape:zoom="1.7850556"
     inkscape:pageshadow="2"
     inkscape:pageopacity="0.0"
     borderopacity="1.0"
     bordercolor="#666666"
     pagecolor="#ffffff"
     id="base" />
  <defs
     id="defs1580" />
  <metadata
     id="metadata1583">
    <rdf:RDF>
      <cc:Work
         rdf:about="">
        <dc:format>image/svg+xml</dc:format>
        <dc:type
           rdf:resource="http://purl.org/dc/dcmitype/StillImage" />
        <dc:title></dc:title>
      </cc:Work>
    </rdf:RDF>
  </metadata>
  <g
     transform="translate(0,-247)"
     id="layer1"
     inkscape:groupmode="layer"
     inkscape:label="Layer 1">
    <g
       id="g1000"
       transform="translate(-4.4027739,5.1014339e-5)">
      <path
         id="path964"
         d="m 17.22721,296.8385 c -0.431169,-0.11187 -1.379046,-0.7325 -2.106388,-1.37919 -1.307926,-1.16288 -1.31982,-1.19821 -1.082754,-3.21609 0.131846,-1.12218 0.489183,-2.4212 0.794094,-2.88673 0.638858,-0.97539 2.870945,-2.03307 5.025458,-2.3813 2.949951,-0.47681 3.638059,-2.15327 0.719562,-1.75309 -2.19573,0.30107 -2.97464,-0.90309 -2.245646,-3.47165 0.214895,-0.75716 0.107204,-0.98724 -0.616435,-1.31707 -0.685817,-0.3126 -0.91186,-0.73683 -1.037786,-1.94766 -0.08853,-0.85142 0.0033,-1.95093 0.204026,-2.44336 0.200756,-0.49244 0.394893,-1.19054 0.431429,-1.55133 0.03656,-0.36078 0.324091,-0.91374 0.639018,-1.22879 0.52478,-0.52498 0.483189,-0.62718 -0.498181,-1.22422 -0.588916,-0.35828 -1.312501,-0.65142 -1.607968,-0.65142 -0.295466,0 -0.690332,-0.4029 -0.877482,-0.89533 -0.18715,-0.49244 -0.50554,-0.89533 -0.707522,-0.89533 -0.22278,0 -0.335126,-0.95092 -0.285583,-2.41742 0.04795,-1.41909 -0.120871,-2.90575 -0.408732,-3.5999 -0.399195,-0.96259 -0.408558,-1.46207 -0.05035,-2.68601 0.619571,-2.11694 1.33994,-3.11249 2.265933,-3.13149 1.003774,-0.0206 2.608485,-3.07116 2.000835,-3.8036 -0.273935,-0.33021 -0.125619,-0.6815 0.553612,-1.31122 0.510282,-0.4731 0.927791,-1.14482 0.927791,-1.49271 0,-0.5207 0.217593,-0.5972 1.230824,-0.43271 0.831696,0.13502 1.368331,0.0341 1.654833,-0.31128 0.556535,-0.67084 1.410328,-0.65502 1.410328,0.0261 0,0.38886 0.399362,0.5372 1.446259,0.5372 1.495228,0 3.809532,0.96904 4.605398,1.92836 0.299948,0.36157 0.794873,0.48013 1.453804,0.34829 1.268692,-0.25383 2.309322,0.30272 3.113977,1.66541 0.972967,1.64773 1.371781,1.31297 1.389704,-1.16652 0.01831,-2.52998 0.946679,-4.72048 2.528107,-5.9649 1.269417,-0.99892 3.029951,-0.97432 3.985267,0.0557 0.896723,0.96683 1.042101,1.56138 0.699204,2.85963 -0.324271,1.22773 -1.923262,1.76315 -2.58044,0.86407 -0.237194,-0.3245 -0.589023,-0.59001 -0.781834,-0.59001 -0.55533,0 -1.181493,1.69716 -1.181493,3.20234 0,1.73176 1.28939,5.97227 2.210189,7.26878 0.898368,1.26493 2.866269,5.58262 3.797065,8.33096 0.700794,2.06926 1.219629,7.31555 1.299068,13.13596 0.02597,1.90652 -0.120232,2.59695 -0.720768,3.40228 -1.298536,1.7414 -2.786604,2.36691 -5.725847,2.40688 l -2.649976,0.036 0.22308,1.68472 c 0.204205,1.54217 0.130813,1.77705 -0.86732,2.77555 -0.9779,0.97827 -1.316697,1.09082 -3.283713,1.09082 -2.14768,0 -4.305742,-0.72261 -4.305742,-1.44174 0,-0.62862 -2.859244,-0.36557 -4.399753,0.40479 -0.828979,0.41455 -2.151629,1.36041 -2.93923,2.10191 -1.531678,1.44204 -2.398498,1.79046 -3.647923,1.4663 z"
         style="fill:none;stroke:#ff0000;stroke-width:0.1;stroke-miterlimit:4;stroke-dasharray:none"
         inkscape:connector-curvature="0" />
      <path
         id="path962"
         d="m 20.62197,294.89156 c 1.890428,-1.75505 3.390298,-2.61351 5.250044,-3.00491 l 1.261159,-0.26543 -1.810022,-2.7684 c -1.78666,-2.73266 -1.820978,-2.76121 -2.65918,-2.21179 -0.467046,0.30614 -1.833805,0.7864 -3.037244,1.06724 -2.690422,0.62788 -4.154988,1.36003 -4.678683,2.33894 -0.363171,0.67885 -0.323605,0.72314 0.436883,0.48902 l 0.836225,-0.25744 -0.764351,0.85028 c -1.073703,1.19443 -1.300174,2.19847 -0.680709,3.01788 0.520312,0.68825 0.527444,0.68788 0.53868,-0.0286 0.01545,-0.9861 0.995203,-2.31804 1.705082,-2.31804 0.476063,0 0.440606,0.14748 -0.199298,0.82888 -0.927445,0.9876 -1.002569,2.26921 -0.185918,3.17193 0.962703,1.06419 2.1541,0.79242 3.987332,-0.90954 z"
         style="fill:none;stroke:#0000ff;stroke-width:0.1;stroke-miterlimit:4;stroke-dasharray:none"
         inkscape:connector-curvature="0" />
      <path
         id="path960"
         d="m 32.152099,292.68412 c 0,-2.59457 -3.12405,-6.4131 -6.302609,-7.70367 -2.6929,-1.09338 -3.247796,-0.55733 -1.465739,1.41594 0.711345,0.78768 1.608474,2.04376 1.99361,2.79128 0.385129,0.74754 1.290709,2.04408 2.01239,2.88122 1.067629,1.23844 1.540443,1.52207 2.537251,1.52207 1.07225,0 1.225097,-0.11313 1.225097,-0.90684 z"
         style="fill:none;stroke:#0000ff;stroke-width:0.1;stroke-miterlimit:4;stroke-dasharray:none"
         inkscape:connector-curvature="0" />
      <path
         id="path958"
         d="m 35.168981,293.02872 c 0.819861,-0.82018 1.072738,-2.22225 0.5914,-3.27906 -0.627569,-1.3779 -0.03477,-1.69553 3.17862,-1.70311 3.218733,-0.008 4.388445,-0.58843 5.474002,-2.71814 1.044747,-2.04966 0.664939,-6.1383 -0.751636,-8.0915 -0.495411,-0.68307 -0.925968,-0.81572 -2.678295,-0.82517 -1.519517,-0.008 -2.754197,-0.30376 -4.53499,-1.08565 -1.345846,-0.59092 -2.538662,-1.0744 -2.650688,-1.0744 -0.112033,0 -0.427066,0.52377 -0.700089,1.16393 -0.27301,0.64017 -0.835611,1.54728 -1.25021,2.01579 -0.414594,0.46852 -0.850332,1.43548 -0.968297,2.14881 -0.434446,2.62708 -0.617134,2.71109 -2.430993,1.11789 -1.509727,-1.32607 -3.15798,-1.4416 -3.97238,-0.27844 -0.71608,1.02273 -0.713602,2.57786 0.0053,3.29701 0.718943,0.71921 1.383449,0.71366 2.11452,-0.0177 0.53499,-0.53519 0.563954,-0.51425 0.371369,0.2686 -0.174156,0.70797 0.01439,0.96811 1.134369,1.56533 1.653048,0.88148 3.927019,3.80603 4.455476,5.73016 0.216387,0.7879 0.450529,1.63399 0.520311,1.88021 0.177546,0.62645 1.419473,0.55844 2.09223,-0.11457 z"
         style="fill:none;stroke:#0000ff;stroke-width:0.1;stroke-miterlimit:4;stroke-dasharray:none"
         inkscape:connector-curvature="0" />
      <path
         id="path956"
         d="m 20.620512,284.69193 c 0.347973,-0.22086 0.369824,-0.5337 0.08892,-1.27284 -0.204852,-0.539 -0.269833,-1.38908 -0.144387,-1.88905 0.209654,-0.83564 0.166998,-0.87635 -0.52821,-0.50414 -1.443122,0.77262 -1.895589,2.43721 -0.926113,3.40704 0.636407,0.63667 0.855531,0.67425 1.509794,0.25899 z"
         style="fill:none;stroke:#0000ff;stroke-width:0.1;stroke-miterlimit:4;stroke-dasharray:none"
         inkscape:connector-curvature="0" />
      <path
         id="path954"
         d="m 23.378532,282.04113 c 0.0013,-1.13258 -0.08238,-2.05926 -0.186245,-2.05927 -0.103867,-2e-5 -0.528476,0.23797 -0.943588,0.52883 -1.564079,1.09594 -1.296597,3.93605 0.348559,3.70097 0.696027,-0.0995 0.778949,-0.32984 0.781274,-2.17053 z"
         style="fill:none;stroke:#0000ff;stroke-width:0.1;stroke-miterlimit:4;stroke-dasharray:none"
         inkscape:connector-curvature="0" />
      <path
         id="path952"
         d="m 30.004105,280.36927 c 0,-0.37784 0.08747,-0.91501 0.194376,-1.19371 0.148629,-0.38748 -0.06274,-0.46897 -0.898274,-0.34629 -1.18254,0.17363 -2.160094,-0.40076 -2.160094,-1.2692 0,-0.88672 -1.127722,-1.51415 -1.939911,-1.0793 -0.564586,0.30226 -0.830057,0.21097 -1.396509,-0.48027 l -0.699416,-0.85348 0.176134,1.88808 c 0.21058,2.25744 0.371683,2.4667 1.502249,1.95138 1.180847,-0.53823 3.239984,0.0606 4.052878,1.1786 0.765863,1.05335 1.168567,1.12371 1.168567,0.20419 z"
         style="fill:none;stroke:#0000ff;stroke-width:0.1;stroke-miterlimit:4;stroke-dasharray:none"
         inkscape:connector-curvature="0" />
      <path
         id="path950"
         d="m 22.625383,275.80131 c 0.03223,-1.93566 0.202468,-3.84169 0.378356,-4.23564 0.313488,-0.70215 0.304817,-0.70312 -0.439927,-0.0494 -0.537687,0.47196 -0.707595,0.94298 -0.581356,1.61159 0.09811,0.51961 0.004,1.75054 -0.209341,2.73541 -0.213244,0.98488 -0.458255,2.40136 -0.544461,3.14777 -0.151825,1.31461 -0.133344,1.34068 0.590721,0.83334 0.663852,-0.46516 0.753994,-0.91733 0.806008,-4.04309 z"
         style="fill:none;stroke:#0000ff;stroke-width:0.1;stroke-miterlimit:4;stroke-dasharray:none"
         inkscape:connector-curvature="0" />
      <path
         id="path948"
         d="m 20.266544,279.55208 c 0.751637,-0.75193 0.471029,-1.00277 -1.121734,-1.00277 -1.717816,0 -2.072682,0.18478 -1.786693,0.93034 0.236613,0.61684 2.312539,0.66854 2.908427,0.0724 z"
         style="fill:none;stroke:#0000ff;stroke-width:0.1;stroke-miterlimit:4;stroke-dasharray:none"
         inkscape:connector-curvature="0" />
      <path
         id="path946"
         d="m 30.487295,277.4592 c 0.682061,-0.40258 1.503467,-1.28715 1.825347,-1.9657 1.067835,-2.25118 -0.36842,-5.1813 -2.539722,-5.1813 -1.455549,0 -3.940413,2.74633 -2.632807,2.90985 0.1969,0.0246 0.519106,0.085 0.716006,0.1343 0.196894,0.0492 0.478821,0.11205 0.626491,0.13957 0.147677,0.0275 -0.13425,0.25316 -0.626491,0.5014 -0.492253,0.24825 -0.949169,0.83048 -1.015382,1.29385 -0.113578,0.79489 -0.04276,0.828 1.252994,0.58611 l 1.373379,-0.25638 -0.843004,0.90049 c -1.493344,1.59516 -0.282813,2.20447 1.863189,0.93781 z"
         style="fill:none;stroke:#0000ff;stroke-width:0.1;stroke-miterlimit:4;stroke-dasharray:none"
         inkscape:connector-curvature="0" />
      <path
         id="path944"
         d="m 21.041544,277.14031 c 0.653324,-1.22122 0.426414,-1.45609 -1.406811,-1.45609 -1.417062,0 -1.855883,0.14671 -2.16455,0.72367 -0.566518,1.05897 -0.149388,1.42514 1.623492,1.42514 1.193002,0 1.667561,-0.16877 1.947869,-0.69272 z"
         style="fill:none;stroke:#0000ff;stroke-width:0.1;stroke-miterlimit:4;stroke-dasharray:none"
         inkscape:connector-curvature="0" />
      <path
         id="path942"
         d="m 44.682056,276.22143 c 0,-0.29547 -0.151584,-0.53721 -0.336864,-0.53721 -0.451434,0 -0.774746,0.55926 -0.488731,0.84539 0.403172,0.40332 0.825595,0.24564 0.825595,-0.30818 z"
         style="fill:none;stroke:#0000ff;stroke-width:0.1;stroke-miterlimit:4;stroke-dasharray:none"
         inkscape:connector-curvature="0" />
      <path
         id="path940"
         d="m 25.508822,275.2464 c 0.714062,-1.01985 0.739796,-2.78539 0.04063,-2.78539 -1.051326,0 -2.134673,2.60026 -1.392626,3.34259 0.413513,0.41368 0.777191,0.2638 1.352027,-0.5572 z"
         style="fill:none;stroke:#0000ff;stroke-width:0.1;stroke-miterlimit:4;stroke-dasharray:none"
         inkscape:connector-curvature="0" />
      <path
         id="path938"
         d="m 43.60806,274.96795 c 0.859582,-0.8599 0.962922,-3.14767 0.207084,-4.584 -0.696107,-1.32282 -3.695662,-4.15616 -5.204317,-4.91593 -1.92791,-0.97089 -3.768527,-0.87491 -4.898453,0.25545 l -0.949777,0.95013 1.156833,1.46117 c 1.034543,1.30671 1.320845,1.46117 2.708457,1.46117 1.626848,0 2.684189,0.26716 2.684189,0.67823 0,0.13392 -0.973432,0.15037 -2.16319,0.0366 -2.365506,-0.22625 -2.490792,-0.18715 -2.490792,0.77741 0,0.36112 -0.312297,0.96899 -0.693982,1.35083 -0.686636,0.6869 -0.668661,0.70743 1.700493,1.94191 2.012544,1.04867 2.779917,1.25212 4.810963,1.2755 1.962926,0.0226 2.55089,-0.10662 3.132492,-0.68845 z"
         style="fill:none;stroke:#0000ff;stroke-width:0.1;stroke-miterlimit:4;stroke-dasharray:none"
         inkscape:connector-curvature="0" />
      <path
         id="path936"
         d="m 21.408352,274.43531 c 0.661675,-0.79757 0.165645,-1.61616 -0.979319,-1.61616 -1.177771,0 -2.59689,0.89178 -2.59689,1.63191 0,0.7204 2.976371,0.70729 3.576209,-0.0158 z"
         style="fill:none;stroke:#0000ff;stroke-width:0.1;stroke-miterlimit:4;stroke-dasharray:none"
         inkscape:connector-curvature="0" />
      <path
         id="path934"
         d="m 27.140113,273.89355 c 0,-0.19697 -0.161097,-0.35813 -0.357997,-0.35813 -0.1969,0 -0.357996,0.16116 -0.357996,0.35813 0,0.19698 0.161096,0.35814 0.357996,0.35814 0.1969,0 0.357997,-0.16116 0.357997,-0.35814 z"
         style="fill:none;stroke:#0000ff;stroke-width:0.1;stroke-miterlimit:4;stroke-dasharray:none"
         inkscape:connector-curvature="0" />
      <path
         id="path932"
         d="m 24.950063,272.11215 c 0.784017,-0.67077 1.135068,-1.23382 0.995736,-1.59705 -0.11836,-0.30857 -0.367041,-0.56103 -0.552613,-0.56103 -0.486699,0 -2.191055,2.11074 -2.191055,2.71348 0,0.73543 0.380467,0.61453 1.747932,-0.5554 z"
         style="fill:none;stroke:#0000ff;stroke-width:0.1;stroke-miterlimit:4;stroke-dasharray:none"
         inkscape:connector-curvature="0" />
      <path
         id="path930"
         d="m 21.203853,271.88549 c 0.926193,-0.35555 0.654296,-0.71726 -0.886227,-1.17899 -2.03925,-0.61121 -2.84348,-1.52954 -2.84348,-3.24691 0,-1.62451 1.609446,-3.80309 3.082877,-4.17303 0.808406,-0.20298 1.218649,-0.85333 0.538287,-0.85333 -0.74254,0 -1.537093,-1.87472 -1.309324,-3.08929 0.311563,-1.66141 2.155511,-3.71527 3.33554,-3.71527 0.505573,0 1.207388,-0.26089 1.55959,-0.57974 1.519977,-1.37608 4.51491,0.43474 4.944127,2.98936 l 0.226956,1.3508 2.297248,-0.10996 c 1.263483,-0.0605 2.664082,-0.0178 3.112434,0.0947 1.118517,0.28083 2.005796,2.09904 1.724183,3.53319 -0.166852,0.84971 -0.128664,1.00178 0.150812,0.60059 0.205832,-0.29546 0.376706,-0.89476 0.379722,-1.33177 0.004,-0.53239 0.17072,-0.73113 0.506266,-0.60232 1.021224,0.39203 1.045998,-0.69013 0.0357,-1.55947 -0.751536,-0.64669 -0.891995,-0.94239 -0.548496,-1.15477 0.763572,-0.47209 0.05221,-1.08183 -1.262106,-1.08183 -0.856323,0 -1.231861,-0.16376 -1.231861,-0.53721 0,-0.63138 -0.328221,-0.66695 -1.62005,-0.17561 -1.019139,0.38762 -1.598331,-0.0768 -4.278083,-3.43025 -0.585839,-0.7331 -1.552437,-1.53268 -2.147999,-1.77683 -1.122581,-0.4602 -3.272192,-0.32279 -3.614344,0.23104 -0.43729,0.70781 -0.869205,0.25958 -0.6437,-0.66803 0.230619,-0.94863 0.214096,-0.96247 -0.448858,-0.37625 -0.473892,0.41904 -0.853,0.50441 -1.217097,0.27408 -0.81757,-0.51719 -1.134076,-0.40855 -0.905808,0.31094 0.151167,0.47646 -0.06087,0.77914 -0.773568,1.10397 -0.85677,0.39051 -0.904848,0.49062 -0.377423,0.7859 0.542283,0.30358 0.487292,0.50458 -0.53481,1.9552 -0.963908,1.36804 -1.146044,1.95897 -1.183572,3.84015 -0.06134,3.07521 -0.02171,2.94228 -1.318129,4.41938 -0.639917,0.72911 -1.190464,1.74198 -1.223418,2.25081 -0.03297,0.50883 -0.177606,1.39473 -0.32144,1.96866 -0.220176,0.87856 -0.168262,1.00771 0.32842,0.81704 0.437955,-0.16812 0.591353,-0.0217 0.595422,0.5681 0.0073,1.05959 0.538467,1.89998 0.865894,1.37 0.340215,-0.55068 0.918621,-0.49647 0.918621,0.0861 0,0.93857 2.645368,1.64449 4.087704,1.09081 z"
         style="fill:none;stroke:#0000ff;stroke-width:0.1;stroke-miterlimit:4;stroke-dasharray:none"
         inkscape:connector-curvature="0" />
      <path
         id="path928"
         d="m 34.129298,271.36076 c 0.314473,-0.99121 -0.0097,-2.15882 -0.921405,-3.31824 -0.992713,-1.26251 -1.855596,-1.20295 -3.048679,0.2104 l -0.982535,1.16395 0.93489,0.11179 c 0.531428,0.0635 1.366593,0.63198 1.935208,1.31715 1.165385,1.40425 1.75418,1.54985 2.082521,0.51495 z"
         style="fill:none;stroke:#0000ff;stroke-width:0.1;stroke-miterlimit:4;stroke-dasharray:none"
         inkscape:connector-curvature="0" />
      <path
         id="path926"
         d="m 27.860255,270.30998 c 0.564207,-0.30207 0.615109,-0.52666 0.314734,-1.38864 -0.19708,-0.56557 -0.73843,-1.38552 -1.202992,-1.82213 l -0.844669,-0.79382 -0.408439,0.76346 c -0.455051,0.8506 -0.208395,2.02639 0.62406,2.97475 0.644352,0.73406 0.643919,0.73399 1.517306,0.26638 z"
         style="fill:none;stroke:#0000ff;stroke-width:0.1;stroke-miterlimit:4;stroke-dasharray:none"
         inkscape:connector-curvature="0" />
      <path
         id="path924"
         d="m 24.299663,269.94147 c 0.445581,-0.23857 0.692464,-0.7493 0.692464,-1.43254 0,-0.9363 -0.12446,-1.06181 -1.052871,-1.06181 -0.579079,0 -1.159223,-0.17214 -1.289211,-0.38254 -0.129988,-0.21041 -0.461685,-0.29605 -0.737125,-0.19032 -0.613884,0.23566 -0.653723,-0.20529 -0.07119,-0.78805 0.558746,-0.55895 1.026391,-0.54978 0.912893,0.0179 -0.142802,0.71432 1.854264,0.76059 2.627153,0.0608 0.376391,-0.34076 0.684339,-0.51028 0.684339,-0.37673 0,0.13356 0.362478,0.006 0.805502,-0.28452 0.443017,-0.29005 1.530446,-0.63751 2.416486,-0.77215 1.91367,-0.29079 2.959369,-1.0754 2.665933,-2.00031 -0.156007,-0.4917 -0.02271,-0.65618 0.531934,-0.65618 0.981325,0 0.933952,0.33502 -0.244378,1.72858 -0.780022,0.9225 -1.376384,1.22494 -2.871352,1.45622 -1.037773,0.16055 -1.987056,0.39214 -2.109512,0.51465 -0.395531,0.39568 0.704212,1.36951 1.354479,1.1994 0.532119,-0.13921 0.565952,-0.0621 0.217559,0.49601 -0.685105,1.09745 0.05934,1.26433 1.019425,0.22852 0.493286,-0.53219 1.206901,-0.96762 1.585804,-0.96762 0.3789,0 0.864402,-0.32803 1.078885,-0.72896 0.214488,-0.40092 1.146474,-1.08826 2.071089,-1.52739 1.576526,-0.74877 1.681114,-0.88484 1.681114,-2.18701 0,-2.1307 -1.099977,-2.78093 -4.206489,-2.48659 -2.249457,0.21313 -2.416487,0.28845 -2.416487,1.08961 0,2.19514 -5.072431,4.00387 -6.811958,2.42902 -0.540758,-0.48956 -0.650373,-0.48956 -1.056521,0 -0.24924,0.30043 -0.658052,0.54624 -0.908471,0.54624 -0.250419,0 -0.955636,0.46755 -1.567155,1.03902 -0.895285,0.83664 -1.111858,1.32598 -1.111858,2.51221 0,1.27772 0.15437,1.56734 1.163492,2.18285 1.268206,0.77353 3.811217,0.94917 4.946025,0.34161 z"
         style="fill:none;stroke:#0000ff;stroke-width:0.1;stroke-miterlimit:4;stroke-dasharray:none"
         inkscape:connector-curvature="0" />
      <path
         id="path922"
         d="m 41.080814,264.18161 c -1.335864,-2.6579 -1.541222,-2.90231 -1.958712,-2.33114 -0.386289,0.52849 -0.373815,0.86397 0.07268,1.95343 0.583435,1.42362 3.07986,4.24269 3.265027,3.687 0.06234,-0.18705 -0.558228,-1.67622 -1.379,-3.30929 z"
         style="fill:none;stroke:#0000ff;stroke-width:0.1;stroke-miterlimit:4;stroke-dasharray:none"
         inkscape:connector-curvature="0" />
      <path
         id="path920"
         d="m 38.596075,264.06598 c 0,-0.28384 -0.144219,-0.60524 -0.320487,-0.71421 -0.368519,-0.22785 -0.812888,0.69336 -0.490169,1.01619 0.384136,0.38429 0.810656,0.2254 0.810656,-0.30198 z"
         style="fill:none;stroke:#0000ff;stroke-width:0.1;stroke-miterlimit:4;stroke-dasharray:none"
         inkscape:connector-curvature="0" />
      <path
         id="path918"
         d="m 15.684063,263.0671 c 0.981171,-1.05357 1.217484,-2.11885 0.831863,-3.75002 l -0.316499,-1.3388 -0.775753,0.77604 c -1.328724,1.32924 -1.92316,5.11146 -0.803344,5.11146 0.175961,0 0.654642,-0.35941 1.063733,-0.79868 z"
         style="fill:none;stroke:#0000ff;stroke-width:0.1;stroke-miterlimit:4;stroke-dasharray:none"
         inkscape:connector-curvature="0" />
      <path
         id="path916"
         d="m 24.824417,262.89442 c 0.377377,-0.51629 0.538507,-0.53826 1.019399,-0.139 0.68246,0.5666 1.654293,0.27874 1.654293,-0.49002 0,-0.30412 0.309553,-0.54844 0.694875,-0.54844 1.37613,0 1.206056,-1.13376 -0.237665,-1.58438 -0.901878,-0.28151 -3.572513,0.76364 -4.345742,1.70068 -0.533218,0.64619 -0.319915,1.67438 0.347348,1.67438 0.230599,0 0.620969,-0.27595 0.867492,-0.61322 z"
         style="fill:none;stroke:#0000ff;stroke-width:0.1;stroke-miterlimit:4;stroke-dasharray:none"
         inkscape:connector-curvature="0" />
      <path
         id="path914"
         d="m 23.272386,261.13106 c 1.54043,-1.06792 1.705129,-1.45358 0.603135,-1.41227 -0.417224,0.0156 -0.940799,-0.29389 -1.163493,-0.68784 -0.222694,-0.39395 -0.440139,-0.77839 -0.483222,-0.85431 -0.04309,-0.0759 -0.486107,0.12924 -0.984501,0.45592 -1.043134,0.68375 -1.172989,1.83772 -0.313681,2.78761 0.751197,0.83038 0.721694,0.83401 2.341762,-0.28911 z"
         style="fill:none;stroke:#0000ff;stroke-width:0.1;stroke-miterlimit:4;stroke-dasharray:none"
         inkscape:connector-curvature="0" />
      <path
         id="path912"
         d="m 28.842458,258.94142 c 0.09286,-0.28217 -0.201469,-0.44767 -0.796138,-0.44767 -0.72954,0 -1.029622,-0.24729 -1.323517,-1.09068 -0.435917,-1.25093 -0.969316,-1.21969 -1.71336,0.10035 -0.43998,0.78057 -0.444789,1.01227 -0.03137,1.5106 0.581463,0.70089 3.628682,0.64364 3.864376,-0.0726 z"
         style="fill:none;stroke:#0000ff;stroke-width:0.1;stroke-miterlimit:4;stroke-dasharray:none"
         inkscape:connector-curvature="0" />
      <path
         id="path910"
         d="m 24.097122,258.13562 c 0.121697,-0.19698 0.05068,-0.35814 -0.157866,-0.35814 -0.208522,0 -0.379129,0.16116 -0.379129,0.35814 0,0.19697 0.07104,0.35813 0.157867,0.35813 0.08683,0 0.257445,-0.16116 0.379128,-0.35813 z"
         style="fill:none;stroke:#0000ff;stroke-width:0.1;stroke-miterlimit:4;stroke-dasharray:none"
         inkscape:connector-curvature="0" />
      <path
         id="path908"
         d="m 21.928058,257.58703 c 0.382212,-0.2892 0.986325,-0.52582 1.342497,-0.52582 0.796424,0 0.851941,-0.56118 0.08464,-0.85574 -0.716472,-0.27503 -1.816462,0.30805 -2.305452,1.22209 -0.445375,0.8325 -0.0952,0.89608 0.878315,0.15947 z"
         style="fill:none;stroke:#0000ff;stroke-width:0.1;stroke-miterlimit:4;stroke-dasharray:none"
         inkscape:connector-curvature="0" />
      <path
         id="path906"
         d="m 37.666639,255.62378 c -0.292443,-2.20542 0.464342,-4.42923 2.012151,-5.91268 0.828938,-0.79448 1.166256,-0.92923 1.497239,-0.59812 0.330991,0.33111 0.290119,0.4274 -0.181362,0.4274 -0.410502,0 -0.608595,0.29143 -0.608595,0.89534 0,0.70559 0.181549,0.89533 0.856689,0.89533 0.867061,0 1.291303,-0.58939 1.291303,-1.79397 0,-0.83773 -1.636284,-2.14551 -2.684454,-2.14551 -1.080796,0 -2.522132,1.51778 -3.248703,3.42102 -0.719835,1.88556 -0.577687,5.76022 0.230081,6.27159 0.936588,0.59294 1.075694,0.34983 0.835651,-1.4604 z"
         style="fill:none;stroke:#0000ff;stroke-width:0.1;stroke-miterlimit:4;stroke-dasharray:none"
         inkscape:connector-curvature="0" />
      <path
         id="path904"
         d="m 26.608533,255.18047 c -0.64715,-0.36229 -1.974403,0.27922 -1.974403,0.95433 0,0.38583 0.247922,0.36852 1.253668,-0.0875 0.969775,-0.43972 1.132989,-0.63601 0.720735,-0.86681 z"
         style="fill:none;stroke:#0000ff;stroke-width:0.1;stroke-miterlimit:4;stroke-dasharray:none"
         inkscape:connector-curvature="0" />
      <path
         id="path902"
         d="m 28.214116,256.34494 c 0,-0.19697 -0.170607,-0.35813 -0.379129,-0.35813 -0.208521,0 -0.279562,0.16116 -0.157873,0.35813 0.12169,0.19697 0.292297,0.35813 0.379129,0.35813 0.08683,0 0.157873,-0.16116 0.157873,-0.35813 z"
         style="fill:none;stroke:#0000ff;stroke-width:0.1;stroke-miterlimit:4;stroke-dasharray:none"
         inkscape:connector-curvature="0" />
      <path
         id="path1384"
         d="m 33.560814,256.19394 c 0.840067,-1.01261 -1.295099,-2.91113 -2.46236,-2.18946 -0.568336,0.35138 -0.466559,0.70811 0.499552,1.75096 0.9991,1.07846 1.364223,1.16003 1.962808,0.4385 z"
         style="fill:none;stroke:#0000ff;stroke-width:0.1;stroke-miterlimit:4;stroke-dasharray:none"
         inkscape:connector-curvature="0" />
      <path
         id="path886"
         style="fill:none;stroke:#0000ff;stroke-width:0.1"
         d="m 19.683116,250.86711 -0.134259,0.13426 m -0.302824,0.70195 0.757618,-0.75762 m -0.168526,0.56765 -1.837899,1.8379 m -0.009,0.40808 1.935767,-1.93577 m -1.353654,1.75278 -0.461069,0.46107 m 3.281909,-2.88279 0.313414,-0.31342 m -2.89545,2.89546 -0.61539,0.61539 m 3.591162,-3.19204 0.838274,-0.83828 m -3.591637,3.59164 -0.836914,0.83691 m 4.638892,-4.23977 0.275745,-0.27574 m -4.023258,4.02326 -1.095688,1.09568 m -3.102509,3.10251 0.385568,-0.38556 m 8.005337,-7.60622 -0.226387,0.22639 m -5.336937,5.33693 0.437681,-0.43768 m -2.493576,2.49358 -1.321202,1.3212 m 8.579836,-8.18071 0.452517,-0.45252 m -5.764645,5.76465 -3.484212,3.48421 m 8.860506,-8.46139 0.584636,-0.58463 m -6.356009,6.35601 -0.707448,0.70745 m -2.703125,2.70312 0.491681,-0.49168 m 9.525351,-9.12623 -0.869431,0.86943 m -6.368162,6.36816 0.522648,-0.52264 m -3.106962,3.10696 -0.268686,0.26868 m 9.474143,-9.07502 0.954243,-0.95424 m -7.090268,7.09027 -0.408805,0.4088 m -3.060888,3.06089 0.299065,-0.29906 m 10.611049,-10.21193 -0.161315,0.16131 m -7.611597,7.6116 0.288051,-0.28805 m -3.228446,3.22845 -0.266764,0.26676 m 11.298163,-10.89904 0.07175,-0.0718 m -7.897613,7.89762 -0.193671,0.19367 m -3.229735,3.22973 0.195406,-0.1954 m 3.268244,-2.86913 -0.181375,0.18138 m -3.224864,3.22486 0.136893,-0.13689 m 3.20183,-2.80271 -0.06132,0.0613 m -3.174643,3.17465 0.05969,-0.0597 m 0.196228,0.60202 -0.06298,0.063 m 7.477336,-7.07821 0.547027,-0.54703 m -5.015605,5.01561 -0.0559,0.0559 m -2.855882,2.85588 0.139077,-0.13907 m 2.6896,-2.29048 -0.06898,0.069 m -2.705102,2.70511 0.361654,-0.36166 m 6.243034,-5.84391 -0.403217,0.40322 m -6.146872,6.14687 2.653268,-2.65327 m 6.702242,-6.30312 -0.08461,0.0846 m -3.32786,3.32786 1.051961,-1.05196 m -4.757404,4.7574 -2.190394,2.1904 m 9.484983,-9.08586 0.815885,-0.81589 m -2.661063,2.66106 -1.800649,1.80065 m -5.824597,5.8246 0.541391,-0.54139 m 10.42249,-10.02337 -1.245651,1.24565 m -1.820373,1.82038 0.535035,-0.53504 m -2.563653,2.56365 -0.07481,0.0748 m -5.779872,5.77987 0.296021,-0.29602 m 13.765563,-13.36644 -0.06904,0.069 m -2.678883,2.67888 0.08366,-0.0837 m -1.141237,1.14124 -0.386785,0.38678 m -1.598824,1.59882 0.675761,-0.67576 m -8.745018,8.74502 -0.186665,0.18667 m 14.181302,-13.78218 0.128837,-0.12884 m -4.100161,4.10016 -1.809862,1.80986 m -8.385557,8.38556 0.106906,-0.1069 m 14.43021,-14.03109 -0.170944,0.17094 m -5.83642,5.83642 1.929525,-1.92952 m 4.309294,-3.91018 -0.20297,0.20297 m -4.650056,4.65006 0.94016,-0.94016 m -1.772338,1.77234 -0.40942,0.40942 m -2.515835,2.51583 0.06273,-0.0627 m 8.756503,-8.35738 -0.212311,0.21231 m -4.596584,4.59658 1.360227,-1.36022 m -2.293992,2.29399 -0.392469,0.39247 m -2.533971,2.53397 0.0846,-0.0846 m 8.785751,-8.38663 -0.214134,0.21413 m -2.944015,2.94402 1.016558,-1.01656 m -2.851493,2.85149 -1.130267,1.13027 m -2.596873,2.59687 0.119553,-0.11955 m 8.814809,-8.41569 -0.236028,0.23603 m -2.903841,2.90384 1.034791,-1.03479 m -3.126356,3.12636 -0.844819,0.84481 m -2.670778,2.67078 0.130025,-0.13002 m 8.871162,-8.47204 -0.309679,0.30968 m -2.909777,2.90977 1.087516,-1.08751 m -3.261481,3.26148 -0.605646,0.60564 m -4.728628,4.72863 0.09703,-0.097 m 10.924486,-10.52537 -0.422999,0.423 m -2.957716,2.95772 1.182243,-1.18224 m -3.31639,3.31639 -0.412924,0.41292 m -5.910823,5.91082 1.545799,-1.54579 m -5.072484,5.07248 -0.415603,0.4156 m 15.538404,-15.13928 0.589064,-0.58906 m -3.006126,3.00612 -0.588593,0.58859 m -2.313589,2.31359 0.232926,-0.23292 m -2.710477,2.71048 -0.430182,0.43018 m -3.638749,3.63875 2.434986,-2.43499 m -5.469978,5.46998 -0.394994,0.39499 m 15.476217,-15.07709 0.866387,-0.86639 m -3.283889,3.28389 -0.643708,0.64371 m -2.227878,2.22788 0.256547,-0.25655 m -1.958317,1.95832 -2.146966,2.14696 m -3.136754,3.13675 0.127914,-0.12791 m -2.911589,2.91159 -0.217244,0.21724 m 15.456003,-15.05688 1.10266,-1.10266 m -2.840482,2.84049 -1.391511,1.39151 m -5.688119,5.68812 3.880871,-3.88088 m -7.427519,7.42752 -0.137269,0.13727 m -2.8129,2.8129 0.122748,-0.12275 m 16.743532,-16.3444 -0.117012,0.11701 m -4.386254,4.38625 1.379551,-1.37955 m -3.078216,3.07822 -3.09405,3.09405 m -4.791211,4.79121 0.144841,-0.14484 m 14.244204,-13.84509 -0.05195,0.0519 m -4.515103,4.51511 1.286216,-1.28622 m -2.85622,2.85622 -0.727753,0.72776 m -2.492564,2.49256 0.261682,-0.26168 m -5.129983,5.12998 -0.152129,0.15213 m 19.57012,-19.171 1.076462,-1.07646 m -5.966926,5.96692 -0.05713,0.0571 m -4.476746,4.47675 1.095917,-1.09592 m -2.634225,2.63423 -0.507914,0.50791 m -8.027317,8.02732 0.09899,-0.099 m 18.999063,-18.59994 -0.06399,0.064 m -4.201058,4.20105 0.05272,-0.0527 m -3.597271,3.59727 -0.895525,0.89553 m -1.722864,1.72286 0.231887,-0.23189 m -8.727939,8.72794 -0.09036,0.0904 M 28.6064,258.3077 l 0.619999,-0.62 m -11.114065,11.11406 -0.06217,0.0622 m -2.245732,2.24573 0.488573,-0.48857 m 20.04999,-19.65086 -0.08699,0.087 m -7.354446,7.35445 0.416381,-0.41638 m -1.725631,1.72563 -0.08526,0.0852 m -9.304188,9.30419 0.06448,-0.0645 m -1.560498,1.5605 -0.568197,0.5682 m 19.836283,-19.43716 0.08852,-0.0885 m -6.676239,6.67624 -0.265545,0.26555 m -1.248662,1.24866 0.203937,-0.20394 m -9.627907,9.62791 -0.07514,0.0751 m -1.922393,1.92239 0.392238,-0.39224 m 12.600881,-12.20176 -1.25625,1.25625 m -3.684378,3.68438 0.852111,-0.85211 m -3.280957,3.28096 -0.290906,0.2909 m -3.204165,3.20417 0.07348,-0.0735 m -1.708221,1.70823 -0.207499,0.20749 m 19.132292,-18.73316 0.05117,-0.0512 m -6.419268,6.41927 -1.030673,1.03068 m -3.64802,3.64802 0.766225,-0.76623 m -3.064259,3.06426 -0.600925,0.60092 m -3.122578,3.12258 0.08749,-0.0875 m -1.782488,1.78249 -0.09557,0.0956 m 11.714438,-11.31532 0.833768,-0.83377 m -3.718573,3.71858 -0.503579,0.50357 m -2.99538,2.99538 0.175393,-0.17539 m -3.392274,3.39228 -0.08138,0.0814 m 14.935488,-14.53636 0.08846,-0.0885 m -4.394265,4.39426 -0.708655,0.70866 m -3.192925,3.19292 0.33605,-0.33605 m -3.419757,3.41976 -0.07631,0.0763 m -3.301048,3.30105 0.07021,-0.0702 m 21.067473,-20.66835 -1.528803,1.52881 m -4.866538,4.86653 0.182385,-0.18238 m -4.189752,4.18975 -0.889402,0.8894 m -2.823968,2.82397 0.06769,-0.0677 m -3.478136,3.47814 -0.07287,0.0729 m -3.253483,3.25349 0.05262,-0.0526 m 21.210093,-20.81098 -2.271609,2.27161 m -2.767126,2.76713 0.04999,-0.05 m -1.466221,1.46622 -1.19993,1.19993 m -3.005834,3.00584 0.267379,-0.26738 m -0.963862,0.96386 -0.185586,0.18559 m -2.439195,2.43919 1.219114,-1.21911 m -4.843031,4.84303 -0.161329,0.16133 m -3.210673,3.21067 0.05221,-0.0522 m -1.842545,1.84254 -0.06008,0.0601 m 21.680013,-21.28089 0.395965,-0.39596 m -1.756699,1.75669 -0.08682,0.0868 m -2.468435,2.46843 0.07967,-0.0797 m -1.302521,1.30252 -0.657379,0.65738 m -6.279369,6.27937 1.791912,-1.79191 m -5.862658,5.86266 -0.147233,0.14723 m -3.25124,3.25124 0.0677,-0.0677 m -1.845298,1.8453 -0.130358,0.13036 m 21.725556,-21.32643 0.149951,-0.14995 m -4.230893,4.23089 -0.107029,0.10703 m -1.43347,1.43347 0.438552,-0.43855 m -5.699778,5.69977 -0.98501,0.98501 m -4.348022,4.34802 0.222601,-0.2226 m -3.442418,3.44242 -0.09728,0.0973 m -2.001502,2.0015 0.253089,-0.25308 m 19.392825,-18.99371 -0.05647,0.0565 m -3.186535,3.18654 1.079117,-1.07912 m -11.454446,11.45445 -0.358325,0.35832 m -3.372858,3.37286 0.14568,-0.14568 m -1.85637,1.85637 -0.833719,0.83372 m 19.698597,-19.29948 0.09969,-0.0997 m -2.010661,2.01067 -0.911831,0.91183 m -10.571689,10.57168 1.17667,-1.17667 m -4.44739,4.4474 -0.195105,0.1951 m -3.222097,3.2221 1.565352,-1.56536 m 16.666594,-16.26747 -0.81742,0.81742 m -10.436258,10.43626 1.181585,-1.18158 m -4.399355,4.39935 -0.244529,0.24453 m -1.96001,1.96001 0.405011,-0.40501 m 21.141229,-20.74211 -0.08845,0.0884 m -2.954391,2.95439 0.119951,-0.11995 m -1.846072,1.84608 -0.850487,0.85048 m -8.936699,8.9367 0.360457,-0.36045 m -1.363785,1.36378 -0.31306,0.31306 m -3.468564,3.46856 0.354889,-0.35488 m -1.78089,1.78089 -0.275133,0.27513 m -2.440608,2.44061 0.265606,-0.26561 m 23.59053,-23.19141 -0.113275,0.11328 m -3.275429,3.27543 0.137867,-0.13787 m -1.807715,1.80771 -0.754625,0.75463 m -8.910511,8.91051 0.684986,-0.68498 m -2.01021,2.01021 -0.07315,0.0731 m -3.353057,3.35306 0.525485,-0.52549 m -1.782553,1.78255 -0.204094,0.2041 m -3.014587,3.01458 0.579135,-0.57913 m 24.549566,-24.15045 -0.799323,0.79933 m -3.797231,3.79723 0.213233,-0.21323 m -1.730333,1.73033 -0.541525,0.54152 m -9.040584,9.04059 0.189788,-0.18979 m -4.211623,4.21162 -2.038689,2.03869 m -3.566247,3.56625 1.029834,-1.02983 m 24.209514,-23.8104 -0.209931,0.20994 m -4.215796,4.21579 0.170939,-0.17094 m -1.597735,1.59774 -0.327356,0.32735 m -9.226944,9.22695 0.17693,-0.17693 m -4.016326,4.01632 -2.092195,2.0922 m -3.996772,3.99677 1.48214,-1.48214 m 19.643605,-19.24448 -0.18158,0.18158 m -1.428646,1.42864 0.175865,-0.17586 m -9.413094,9.41309 -0.14504,0.14504 m -1.936954,1.93696 0.08807,-0.0881 m -1.66189,1.66189 -0.34777,0.34777 m -1.973102,1.9731 0.674066,-0.67407 m -3.13706,3.13706 -0.237527,0.23753 m 19.335609,-18.93649 0.271622,-0.27162 m -1.249828,1.24983 -0.08644,0.0864 m -9.559754,9.55976 0.202472,-0.20247 m -2.124246,2.12424 -1.957735,1.95774 m -1.887074,1.88707 0.07757,-0.0776 m -2.440681,2.44068 -0.158412,0.15842 m 18.954568,-18.55545 0.311258,-0.31126 m -3.111852,3.11185 -0.08468,0.0847 m -2.915115,2.91511 0.300764,-0.30076 m -4.71807,4.71807 -0.269726,0.26972 m -4.261247,4.26125 2.266583,-2.26658 m -5.88935,5.88935 -0.169199,0.1692 m -2.532755,2.53275 0.234697,-0.2347 m 21.231643,-20.83252 -0.894926,0.89493 m -2.10154,2.10154 0.08545,-0.0854 m -2.620719,2.62072 -0.581155,0.58115 m -1.808813,1.80881 0.05034,-0.0503 m -2.465167,2.46516 -0.364804,0.36481 m -2.149553,2.14955 0.123082,-0.12308 m -5.584641,5.58464 -0.283555,0.28356 m -2.884808,2.8848 0.491894,-0.49189 m 21.070608,-20.67149 -0.70583,0.70583 m -2.142197,2.1422 0.0784,-0.0784 m -3.116588,3.11659 -1.411664,1.41167 m -3.303816,3.30381 0.549116,-0.54911 m -7.925061,7.92506 -0.266209,0.26621 m -3.265359,3.26535 0.726286,-0.72628 m 20.864616,-20.4655 -0.59673,0.59673 m -2.114332,2.11434 0.06194,-0.0619 m -7.158292,7.15829 -0.739022,0.73902 m -7.399499,7.3995 1.072222,-1.07222 m -3.663553,3.66355 -1.021296,1.0213 m 20.582492,-20.18337 1.057762,-1.05776 m -2.548842,2.54884 -0.06206,0.062 m -7.880274,7.88028 0.0778,-0.0778 m -5.081244,5.08124 -0.148679,0.14868 m -2.045112,2.04512 0.651937,-0.65194 m -3.208851,3.20885 -0.199733,0.19973 m 19.456155,-19.05703 1.070593,-1.07059 m -2.478906,2.4789 -0.0613,0.0613 m -7.895704,7.89571 0.08256,-0.0826 m -2.010321,2.01032 -0.162543,0.16255 m -3.219861,3.21986 0.457192,-0.4572 m -1.896204,1.89621 -0.294944,0.29494 m -2.665544,2.66555 0.192199,-0.1922 m 20.063576,-19.66446 -1.004967,1.00497 m -1.515516,1.51552 0.0788,-0.0788 m -7.801321,7.80132 -0.170598,0.17059 m -5.463765,5.46377 3.604061,-3.60406 m -7.407167,7.40717 -0.160066,0.16006 m 19.041446,-18.64232 0.903147,-0.90315 m -2.459531,2.45953 -0.07786,0.0779 m -7.890169,7.89016 1.182377,-1.18237 m -2.886706,2.8867 -1.494961,1.49496 m -2.375656,2.37566 1.245086,-1.24509 m -4.533925,4.53393 -0.329662,0.32966 m 18.923343,-18.52422 0.801724,-0.80172 m -2.467327,2.46732 -0.09998,0.1 m -7.886426,7.88643 2.350502,-2.3505 m -3.745753,3.74575 -1.388497,1.3885 m -2.890177,2.89017 0.769626,-0.76962 m -3.669964,3.66996 -0.25178,0.25178 m -1.90471,1.90471 0.06565,-0.0657 m 21.222888,-20.82377 -0.722657,0.72266 m -1.921555,1.92155 0.169088,-0.16908 m -7.774752,7.77475 -2.869363,2.86936 m -2.641384,2.64139 0.235034,-0.23504 m -2.3983,2.3983 -1.081074,1.08107 m -2.025401,2.02541 0.1516,-0.1516 m 20.98282,-20.5837 -0.64359,0.64359 m -2.083876,2.08388 0.189826,-0.18983 m -3.401591,3.40159 -1.384369,1.38437 m -5.741089,5.74109 2.973961,-2.97396 m -5.529893,5.52989 -0.06429,0.0643 m -3.130807,3.13081 0.704305,-0.7043 m -2.536371,2.53637 -0.24943,0.24943 m 20.436753,-20.03763 0.564523,-0.56453 m -2.611704,2.61171 -0.241776,0.24178 m -4.210121,4.21011 2.166105,-2.1661 m -4.940794,4.94079 -0.788502,0.78851 m -2.484579,2.48457 0.205066,-0.20506 m -5.392643,5.39264 -0.324276,0.32428 m -2.191359,2.19136 0.506261,-0.50626 m 20.415674,-20.01656 -0.549153,0.54916 m -4.084564,4.08456 1.840327,-1.84032 m -4.022338,4.02233 -0.07363,0.0736 m -2.964772,2.96477 0.287435,-0.28743 m -3.379716,3.37971 -0.179604,0.17961 m -3.483251,3.48325 0.08883,-0.0888 m -1.969345,1.96935 -0.05758,0.0576 m -2.267199,2.2672 0.803169,-0.80317 m 20.138962,-19.73984 -0.60316,0.60316 m -1.230108,1.23011 0.401343,-0.40135 m -1.546382,1.54638 -1.207942,1.20795 m -5.411096,5.41109 0.208398,-0.20839 m -3.4959,3.4959 -0.436535,0.43653 m -3.42735,3.42735 0.13478,-0.13478 m -2.074091,2.07409 -2.394183,2.39418 m 19.180303,-18.78118 2.02646,-2.02646 m -3.103396,3.1034 -0.659848,0.65985 m -5.616878,5.61687 0.157829,-0.15782 m -7.471742,7.47174 -0.184707,0.18471 m -4.273361,4.27336 2.300268,-2.30027 m 18.976371,-18.57725 -3.518642,3.51864 m -5.644255,5.64426 0.07023,-0.0702 m -4.311717,4.31172 -1.895173,1.89517 m -1.750515,1.75052 0.275463,-0.27547 m -2.160708,2.16071 -2.528886,2.52889 m 21.410742,-21.01162 0.205762,-0.20577 m -1.476039,1.47604 -1.844758,1.84476 m -5.747562,5.74757 0.06298,-0.063 m -3.334386,3.33438 -2.747902,2.7479 m -2.271508,2.27151 0.476223,-0.47622 m -2.155573,2.15557 -0.235711,0.23571 m -2.350368,2.35037 0.052,-0.052 m 21.720021,-21.3209 -0.156291,0.15629 m -1.507443,1.50744 0.139323,-0.13932 m -1.186547,1.18655 -0.401087,0.40108 M 25.638117,276.0434 28.0034,273.67812 m -4.825634,4.82563 -2.260777,2.26078 m 19.245559,-18.84644 0.148474,-0.14847 m -1.582984,1.58298 -0.05315,0.0532 m -1.296353,1.29636 0.16601,-0.16601 m -10.935073,10.93507 -0.597453,0.59745 m -5.075781,5.07578 2.358026,-2.35802 m 17.16339,-16.76427 -0.140443,0.14044 m -2.632402,2.63241 0.09407,-0.0941 m -11.225918,11.22591 -0.25286,0.25286 m -5.458481,5.45849 2.556612,-2.55662 m 17.206052,-16.80693 -0.132411,0.13241 m -13.862841,13.86285 0.111688,-0.11169 m -3.155553,3.15555 -0.30804,0.30804 m -2.438989,2.43899 0.327678,-0.32768 m -2.522985,2.52299 -0.0623,0.0623 m 22.052651,-21.65353 0.13773,-0.13773 m -1.659753,1.65975 -0.82295,0.82295 m -4.101219,4.10122 0.115451,-0.11545 m -7.265344,7.26534 -0.196342,0.19634 m -3.37283,3.37283 0.361802,-0.3618 m -2.888533,2.88854 -0.116955,0.11695 m -2.072623,2.07262 0.06322,-0.0632 m 22.10271,-21.70359 -0.148187,0.14819 m -2.203539,2.20354 0.69217,-0.69217 m -4.755034,4.75503 -0.200477,0.20048 m -7.25224,7.25224 0.372593,-0.3726 m -3.207943,3.20795 -0.67522,0.67522 m -2.64769,2.64769 0.06871,-0.0687 m 20.103489,-19.70437 -0.158644,0.15865 m -2.075575,2.07557 0.574858,-0.57486 m -4.679052,4.67906 -0.305053,0.30505 m -2.031948,2.03195 0.05256,-0.0526 m -4.490803,4.4908 -0.712876,0.71287 m -3.614628,3.61463 1.196641,-1.19664 m -3.782071,3.78207 -0.07787,0.0779 m 20.08199,-19.68286 0.152142,-0.15215 m -1.642205,1.64221 -0.47947,0.47947 m -4.60146,4.60146 0.477858,-0.47786 m -2.313657,2.31366 -0.09476,0.0947 m -5.163652,5.16366 1.004628,-1.00463 m -2.99613,2.99613 -1.747778,1.74778 m -8.800167,8.80016 0.684516,-0.68451 m 25.802393,-25.40327 -0.146089,0.14609 m -1.866386,1.86638 0.386977,-0.38698 m -4.47466,4.47466 -0.730598,0.7306 m -1.84656,1.84656 0.230164,-0.23016 m -4.00495,4.00495 -1.440521,1.44052 m -2.045963,2.04596 0.437293,-0.43729 m -1.537275,1.53727 -0.633966,0.63397 m -2.50127,2.50127 0.0503,-0.0503 m -4.537405,4.53741 -1.812338,1.81234 m 26.459335,-26.06022 0.144033,-0.14403 m -1.58198,1.58198 -0.321295,0.3213 m -4.205547,4.20554 0.182205,-0.1822 m -2.402047,2.40204 -0.372279,0.37228 m -5.267331,5.26733 0.183071,-0.18307 m -1.498155,1.49816 -0.283469,0.28347 m -2.221617,2.22161 0.190087,-0.19008 m -2.503909,2.50391 -0.154834,0.15483 m -4.106201,4.1062 0.13727,-0.13727 m 24.356151,-23.95703 -0.140734,0.14074 m -1.653342,1.65334 0.258142,-0.25814 m -4.192953,4.19295 -0.08114,0.0811 m -2.921838,2.92184 0.608605,-0.60861 m -5.72916,5.72916 -0.09117,0.0912 m -1.284912,1.28491 0.163074,-0.16307 m -4.979063,4.97906 -0.782077,0.78208 m -3.000533,3.00053 0.339041,-0.33904 m -3.303857,3.30386 -0.22745,0.22745 m 27.005239,-26.60612 0.144245,-0.14424 m -1.489888,1.48988 -0.194989,0.19499 m -3.884159,3.88416 0.08956,-0.0896 m -2.046409,2.04641 -1.287405,1.2874 m -5.054415,5.05442 0.07592,-0.0759 m -1.051394,1.05139 -0.197544,0.19754 m -3.001498,3.0015 0.05503,-0.055 m -1.948088,1.94809 -0.588475,0.58848 m -2.881846,2.88184 0.189856,-0.18985 m -3.236537,3.23653 -0.794865,0.79487 m 27.229505,-26.83038 0.147756,-0.14776 m -1.443841,1.44384 -0.143961,0.14396 m -3.741461,3.74146 0.09905,-0.099 m -3.306208,3.3062 -0.37216,0.37216 m -4.837001,4.837 0.05289,-0.0529 m -1.004218,1.00422 -0.160026,0.16003 m -3.32473,3.32473 0.09808,-0.0981 m -1.716189,1.71619 -0.427811,0.42781 m -2.75771,2.75771 0.16322,-0.16322 m -3.249361,3.24936 -1.421485,1.42148 m 27.471776,-27.07265 0.151267,-0.15127 m -1.397793,1.3978 -0.106048,0.10604 m -3.58565,3.58565 0.111617,-0.11161 m -3.510207,3.5102 -0.527821,0.52783 m -4.564283,4.56428 0.05418,-0.0542 m -1.024649,1.02464 -0.146165,0.14617 m -3.635868,3.63587 0.173464,-0.17347 m -1.37481,1.37481 -0.494836,0.49484 m -2.536133,2.53613 0.281816,-0.28181 m 22.413304,-22.01419 -0.154778,0.15478 m -1.265105,1.26511 0.06814,-0.0681 m -3.373785,3.37379 -0.124188,0.12418 m -4.407954,4.40796 0.871106,-0.87111 m -4.771802,4.7718 -0.266837,0.26684 m -1.126757,1.12676 0.147573,-0.14757 m -3.769704,3.7697 -1.64095,1.64095 m -2.467498,2.4675 0.246323,-0.24632 m 22.155916,-21.7568 -0.147866,0.14787 m -1.177635,1.17763 0.05064,-0.0506 m -3.191648,3.19165 -0.120402,0.1204 m -4.793897,4.7939 1.108328,-1.10833 m -4.363408,4.36341 -0.446353,0.44635 m -1.33517,1.33517 0.156628,-0.15663 m -3.894324,3.89433 -1.563165,1.56316 m -1.97291,1.97291 0.16885,-0.16885 m 21.642547,-21.24342 -0.141474,0.14147 m -4.185107,4.18511 0.08345,-0.0834 m -3.914489,3.91449 -0.139672,0.13967 m -1.814096,1.81409 1.077411,-1.07741 m -2.947163,2.94717 -0.861767,0.86176 m -1.440467,1.44047 0.130587,-0.13059 m -3.94881,3.94881 -0.32728,0.32728 m -1.206279,1.20628 0.416084,-0.41608 m 19.339289,-18.94017 -0.135083,0.13509 m -3.931171,3.93117 0.05983,-0.0598 m -4.011288,4.01129 -0.115794,0.1158 m -4.337847,4.33784 2.897446,-2.89744 m -4.489813,4.48981 -0.115431,0.11543 m -3.982356,3.98236 0.149047,-0.14905 m -1.224198,1.2242 -1.638783,1.63878 m -7.25044,7.25044 0.09892,-0.0989 m 28.147171,-27.74805 -0.138378,0.13838 m -7.831334,7.83133 0.09192,-0.0919 m -2.446104,2.4461 -1.93971,1.93971 m -1.810467,1.81047 0.08053,-0.0805 m -3.912359,3.91236 -0.07274,0.0727 m -2.155217,2.15522 0.922711,-0.92271 m -6.522011,6.52201 -1.119983,1.11998 m -1.238106,1.23811 0.07192,-0.0719 m 28.139548,-27.74042 -0.148387,0.14838 m -7.657536,7.65754 0.06804,-0.068 m -3.307128,3.30713 -1.14566,1.14566 m -7.647279,7.64728 0.66229,-0.66229 m -6.393464,6.39346 -1.381509,1.38151 m -1.091901,1.0919 0.09532,-0.0953 m 28.06743,-27.66831 -0.154081,0.15408 m -12.162247,12.16225 0.56212,-0.56212 m -7.374665,7.37466 -0.114883,0.11489 m -7.962477,7.96247 0.467038,-0.46703 m -1.139389,1.13939 -0.07848,0.0785 m 27.277384,-26.87826 0.799896,-0.79989 m -12.296536,12.29653 -0.28301,0.28301 m -6.559221,6.55922 0.07091,-0.0709 m -8.087151,8.08715 -0.716577,0.71657 m 27.267966,-26.86884 0.72384,-0.72384 m -12.53012,12.53012 -0.252907,0.25291 m -4.467303,4.4673 0.916132,-0.91613 m -2.672651,2.67265 -0.06066,0.0607 m -8.718604,8.71861 0.581479,-0.58148 m 27.331537,-26.93242 -0.65447,0.65447 m -12.916495,12.9165 0.811397,-0.8114 m -3.694717,3.69472 -0.637823,0.63782 m -1.920926,1.92093 0.05908,-0.0591 m -8.328243,8.32824 -0.408997,0.409 m 27.232999,-26.83388 0.556792,-0.55679 m -12.960711,12.96071 -0.45507,0.45507 m -3.509354,3.50935 0.313768,-0.31376 m -2.264622,2.26462 -0.05426,0.0543 m -8.633354,8.63335 0.271718,-0.27172 m 27.401052,-27.00192 -0.469686,0.46968 m -16.299047,16.29905 0.168218,-0.16822 m -2.208079,2.20808 -0.05235,0.0523 m -8.585637,8.58564 0.17389,-0.17389 m 27.381859,-26.98274 -0.382579,0.38258 m -16.229751,16.22975 0.08577,-0.0858 m -2.214634,2.21463 -0.06918,0.0692 m -8.519182,8.51918 0.111847,-0.11184 m 27.32688,-26.92776 -0.318729,0.31873 m -18.441085,18.44108 0.08601,-0.086 m -8.478596,8.4786 -0.06014,0.0601 m 27.062726,-26.66361 0.25898,-0.25898 m -18.606407,18.60641 -0.102841,0.10284 m 18.619183,-18.22006 0.199231,-0.19923 m -18.539011,18.53901 -0.119671,0.11967 m 18.628366,-18.22924 0.139482,-0.13948 m -16.016346,16.01635 -0.05479,0.0548 m -2.536982,2.53699 0.113997,-0.114 m 18.584183,-18.18506 -0.06063,0.0606 m -15.864395,15.86439 0.06016,-0.0602 m -2.564543,2.56455 -0.109039,0.10903 m 2.849595,-2.45047 0.06553,-0.0655 m -2.651313,2.65131 -0.105044,0.10505 m 2.905322,-2.5062 0.08619,-0.0862 m -2.73169,2.73169 -0.10203,0.10203 m 13.499673,-13.10055 0.07041,-0.0704 m -10.521069,10.52107 -0.08915,0.0892 m -2.802068,2.80207 0.09902,-0.099 m 13.694649,-13.29552 -0.112709,0.11271 m -10.666564,10.66656 0.09212,-0.0921 m -2.853247,2.85325 -0.09548,0.0955 m -6.987166,6.98717 1.365391,-1.36539 m 19.639023,-19.2399 -0.155013,0.15501 m -10.79331,10.79331 0.08884,-0.0888 m -2.908717,2.90871 -0.09126,0.0913 m -6.25099,6.25099 1.947245,-1.94725 m 18.546875,-18.14775 -0.154896,0.1549 m -10.964774,10.96477 0.06562,-0.0656 m -2.944239,2.94424 -0.08705,0.0871 m -3.934161,3.93416 0.768481,-0.76848 m 17.65545,-17.25633 -0.181856,0.18186 m -11.14687,11.14687 0.05934,-0.0593 m -2.979762,2.97976 -0.08283,0.0828 m -2.674292,2.67429 0.439349,-0.43935 m 16.971355,-16.57223 -0.208815,0.20881 m -11.333791,11.33379 0.05789,-0.0579 m -3.015285,3.01528 -0.07862,0.0786 m -2.208305,2.2083 0.205859,-0.20585 m 16.984826,-16.58571 -0.223911,0.22391 m -11.531901,11.5319 0.05643,-0.0564 m -3.050807,3.05081 -0.0744,0.0744 m -1.745948,1.74595 0.147567,-0.14756 m 19.343957,-18.94484 -0.156355,0.15636 m -2.602496,2.60249 0.291131,-0.29113 m -11.963547,11.96355 -0.05498,0.055 m -3.101542,3.10154 0.08333,-0.0833 m -1.269846,1.26984 -0.250365,0.25037 M 44.4544,273.99053 44.690431,273.7545 m -2.058417,2.05842 -0.38247,0.38247 m -11.900523,11.90052 0.05353,-0.0535 m -3.08889,3.08889 -0.09894,0.0989 m -1.111558,1.11156 0.272774,-0.27277 m 18.360213,-17.96109 -2.14331,2.14331 m -12.068302,12.0683 0.05719,-0.0572 m -3.09467,3.09467 -0.900783,0.90079 m 16.347577,-15.94846 1.848017,-1.84801 m -17.121419,17.12141 -0.682291,0.6823 m 16.208249,-15.80913 1.641175,-1.64118 m -16.99374,16.99374 -0.460658,0.46066 m 17.182845,-16.78372 0.355314,-0.35532 m -1.372989,1.37299 -0.08805,0.0881 m -15.682092,15.68209 0.239024,-0.23903 m 16.883161,-16.48403 -0.0956,0.0956 m -16.722159,16.72216 0.10799,-0.10799 m 15.744265,-15.34514 -0.0918,0.0918 m 0.160197,0.23892 0.952197,-0.95219 m -13.403778,13.40377 -0.05492,0.0549 m -3.009979,3.00998 0.08907,-0.0891 m 16.407155,-16.00803 -0.832513,0.83251 m -12.511821,12.51182 0.06025,-0.0602 m -2.930808,2.93081 -0.148534,0.14853 m 15.67814,-15.27901 0.71283,-0.71283 m -13.178378,13.17837 -0.05159,0.0516 m -2.934386,2.93439 0.121515,-0.12152 m 16.070386,-15.67126 -0.601992,0.60199 m -12.523751,12.52375 0.05307,-0.0531 m -2.774788,2.77478 -0.07346,0.0735 m 15.430829,-15.0317 0.517639,-0.51764 m -12.980805,12.9808 -0.06613,0.0661 m 12.641195,-12.24207 0.433286,-0.43329 m -12.902457,12.90246 -0.06567,0.0657 m 12.65528,-12.25616 0.340392,-0.34039 m -12.824109,12.8241 -0.06521,0.0652 m 12.62977,-12.23065 0.306246,-0.30624 m -12.784174,12.78417 -0.06771,0.0677 m 12.626489,-12.22737 0.211457,-0.21146 m -12.683721,12.68372 -0.106045,0.10605 m 12.659154,-12.26003 0.143253,-0.14326 m -8.843472,8.84348 -0.477243,0.47724 m -3.433512,3.43351 0.144375,-0.14437 m 12.622495,-12.22338 -0.08238,0.0824 m -8.326052,8.32605 0.07181,-0.0718 m -0.632722,0.63272 -0.296101,0.2961 m -3.478321,3.47832 0.207782,-0.20778 m -1.223906,1.22391 -0.107242,0.10724 m 5.863323,-5.4642 0.06877,-0.0688 m -0.987638,0.98763 -0.230155,0.23016 m -4.344276,4.34427 1.047631,-1.04763 m 4.929726,-4.5306 -0.07944,0.0794 m -1.469264,1.46927 0.192449,-0.19245 m -3.48696,3.48696 -0.764113,0.76411 m 5.932507,-5.53339 0.09011,-0.0901 m -1.724876,1.72488 -0.154742,0.15474 m -3.772974,3.77298 0.532005,-0.53201 m 5.535876,-5.13675 -0.10078,0.10078 m -2.10872,2.10872 0.116005,-0.11601 m -3.228854,3.22886 -0.438022,0.43802 m 6.06421,-5.66509 0.109988,-0.10999 m -2.471159,2.47116 -0.167961,0.16796 m -3.034521,3.03452 0.225743,-0.22574 m 5.873587,-5.47446 -0.131058,0.13105 m -2.915738,2.91574 0.185042,-0.18504 m -2.678774,2.67878 -0.14849,0.14849 m 5.996771,-5.59765 0.117935,-0.11794 m -3.252348,3.25235 -0.601754,0.60175 m -1.78595,1.78595 0.288797,-0.28879 m 10.928049,-10.52893 -0.177819,0.17782 m -5.085032,5.08503 0.111746,-0.11174 m -3.764724,3.76472 -1.814018,1.81402 m 10.600733,-10.20161 0.06036,-0.0604 m -4.656666,4.65667 -0.105556,0.10555 m -5.192612,5.19262 0.808349,-0.80835 m 9.140786,-8.74167 -0.302721,0.30273 m -4.021924,4.02192 0.0961,-0.0961 m 4.280541,-3.88142 -0.324343,0.32435 m -3.725926,3.72592 0.380976,-0.38097 m 3.524156,-3.12504 -0.383743,0.38374 m -2.849215,2.84922 0.382077,-0.38208 m 2.899148,-2.50002 -2.64732,2.64732 m 0.764958,-0.36584 1.620812,-1.62081"
         inkscape:connector-curvature="0" />
    </g>
  </g>
</svg>
