<?xml version="1.0" encoding="UTF-8" standalone="no"?>
<!-- Created with Inkscape (http://www.inkscape.org/) -->

<svg
   xmlns:dc="http://purl.org/dc/elements/1.1/"
   xmlns:cc="http://creativecommons.org/ns#"
   xmlns:rdf="http://www.w3.org/1999/02/22-rdf-syntax-ns#"
   xmlns:svg="http://www.w3.org/2000/svg"
   xmlns="http://www.w3.org/2000/svg"
   xmlns:sodipodi="http://sodipodi.sourceforge.net/DTD/sodipodi-0.dtd"
   xmlns:inkscape="http://www.inkscape.org/namespaces/inkscape"
   sodipodi:docname="75.svg"
   inkscape:version="0.92.2 2405546, 2018-03-11"
   id="svg1586"
   version="1.1"
   viewBox="0 0 75 75"
   height="75mm"
   width="75mm">
  <sodipodi:namedview
     inkscape:window-maximized="1"
     inkscape:window-y="0"
     inkscape:window-x="0"
     inkscape:window-height="703"
     inkscape:window-width="1366"
     showgrid="false"
     inkscape:current-layer="layer1"
     inkscape:document-units="mm"
     inkscape:cy="205.0135"
     inkscape:cx="121.03123"
     inkscape:zoom="3.3031093"
     inkscape:pageshadow="2"
     inkscape:pageopacity="0.0"
     borderopacity="1.0"
     bordercolor="#666666"
     pagecolor="#ffffff"
     id="base" />
  <defs
     id="defs1580" />
  <metadata
     id="metadata1583">
    <rdf:RDF>
      <cc:Work
         rdf:about="">
        <dc:format>image/svg+xml</dc:format>
        <dc:type
           rdf:resource="http://purl.org/dc/dcmitype/StillImage" />
        <dc:title></dc:title>
      </cc:Work>
    </rdf:RDF>
  </metadata>
  <g
     inkscape:label="Layer 1"
     inkscape:groupmode="layer"
     id="layer1"
     transform="translate(0,-222)">
    <g
       id="g2187">
      <path
         id="path2132"
         d="m 43.743803,235.77495 c 1.26138,-1.51992 -1.944621,-4.36961 -3.69729,-3.28637 -0.85337,0.52742 -0.70055,1.06287 0.750089,2.62819 1.500171,1.61876 2.048412,1.7412 2.947201,0.65818 z"
         style="fill:none;stroke:#0000ff;stroke-width:0.1;stroke-miterlimit:4;stroke-dasharray:none" />
      <path
         id="path2130"
         d="m 35.715613,236.0016 c 0,-0.29565 -0.25617,-0.53755 -0.56927,-0.53755 -0.3131,0 -0.41977,0.2419 -0.23705,0.53755 0.18272,0.29566 0.43889,0.53756 0.56927,0.53756 0.13038,0 0.23705,-0.2419 0.23705,-0.53756 z"
         style="fill:none;stroke:#0000ff;stroke-width:0.1;stroke-miterlimit:4;stroke-dasharray:none" />
      <path
         id="path2128"
         d="m 33.304793,234.25374 c -0.97171,-0.54381 -2.96461,0.41911 -2.96461,1.43245 0,0.57912 0.37226,0.55314 1.88241,-0.13137 1.45614,-0.66003 1.70121,-0.95465 1.0822,-1.30108 z"
         style="fill:none;stroke:#0000ff;stroke-width:0.1;stroke-miterlimit:4;stroke-dasharray:none" />
      <path
         id="path2126"
         d="m 49.908793,234.91915 c -0.43911,-3.31034 0.69722,-6.64828 3.021291,-8.87494 1.244669,-1.19252 1.75116,-1.39478 2.248138,-0.89778 0.496991,0.497 0.43562,0.64153 -0.27232,0.64153 -0.616378,0 -0.913818,0.43743 -0.913818,1.3439 0,1.0591 0.2726,1.3439 1.286338,1.3439 1.301912,0 1.93892,-0.88468 1.93892,-2.69275 0,-1.25744 -2.456918,-3.22042 -4.030768,-3.22042 -1.622841,0 -3.78704,2.27819 -4.878002,5.13496 -1.080849,2.83022 -0.86741,8.64609 0.345472,9.41366 1.406308,0.88999 1.615178,0.52509 1.254749,-2.19206 z"
         style="fill:none;stroke:#0000ff;stroke-width:0.1;stroke-miterlimit:4;stroke-dasharray:none" />
      <path
         id="path2124"
         d="m 26.276953,237.86598 c 0.5739,-0.43409 1.48099,-0.78926 2.01579,-0.78926 1.19585,0 1.27921,-0.84233 0.12709,-1.28446 -1.0758,-0.41282 -2.72746,0.46238 -3.46169,1.83435 -0.66874,1.24959 -0.14295,1.34502 1.31881,0.23937 z"
         style="fill:none;stroke:#0000ff;stroke-width:0.1;stroke-miterlimit:4;stroke-dasharray:none" />
      <path
         id="path2122"
         d="m 29.533853,238.68941 c 0.18273,-0.29566 0.0761,-0.53756 -0.23704,-0.53756 -0.3131,0 -0.56927,0.2419 -0.56927,0.53756 0,0.29566 0.10667,0.53756 0.23704,0.53756 0.13038,0 0.38656,-0.2419 0.56927,-0.53756 z"
         style="fill:none;stroke:#0000ff;stroke-width:0.1;stroke-miterlimit:4;stroke-dasharray:none" />
      <path
         id="path2120"
         d="m 36.659083,239.89892 c 0.13943,-0.42353 -0.30251,-0.67195 -1.19542,-0.67195 -1.09542,0 -1.546,-0.37118 -1.98729,-1.63711 -0.65454,-1.87765 -1.45545,-1.83075 -2.57265,0.15063 -0.66064,1.17163 -0.66786,1.51941 -0.0471,2.26741 0.87308,1.05203 5.44855,0.96609 5.80245,-0.10898 z"
         style="fill:none;stroke:#0000ff;stroke-width:0.1;stroke-miterlimit:4;stroke-dasharray:none" />
      <path
         id="path2118"
         d="m 28.295493,243.18557 c 2.31299,-1.60295 2.56029,-2.18182 0.90562,-2.11982 -0.62647,0.0235 -1.41263,-0.44112 -1.74701,-1.03244 -0.33438,-0.59132 -0.66088,-1.16837 -0.72557,-1.28233 -0.0647,-0.11396 -0.7299,0.19399 -1.47825,0.68434 -1.56629,1.02631 -1.76127,2.75842 -0.471,4.1842 1.12794,1.2464 1.08364,1.25186 3.51621,-0.43395 z"
         style="fill:none;stroke:#0000ff;stroke-width:0.1;stroke-miterlimit:4;stroke-dasharray:none" />
      <path
         id="path2116"
         d="m 30.625903,245.83238 c 0.56664,-0.77496 0.80858,-0.80793 1.53065,-0.20865 1.02473,0.85047 2.48396,0.41839 2.48396,-0.73551 0,-0.45649 0.4648,-0.82321 1.04337,-0.82321 2.06629,0 1.81092,-1.70178 -0.35686,-2.37816 -1.35419,-0.42254 -5.36421,1.14622 -6.52523,2.55273 -0.80064,0.96993 -0.48036,2.51324 0.52155,2.51324 0.34625,0 0.9324,-0.4142 1.30256,-0.92044 z"
         style="fill:none;stroke:#0000ff;stroke-width:0.1;stroke-miterlimit:4;stroke-dasharray:none" />
      <path
         id="path2114"
         d="m 16.901453,246.09157 c 1.47325,-1.58141 1.82808,-3.18039 1.24906,-5.62878 l -0.47523,-2.00954 -1.16481,1.16484 c -1.99511,1.99519 -2.88767,7.67229 -1.20624,7.67229 0.26421,0 0.98296,-0.53947 1.59722,-1.19881 z"
         style="fill:none;stroke:#0000ff;stroke-width:0.1;stroke-miterlimit:4;stroke-dasharray:none" />
      <path
         id="path2112"
         d="m 51.304362,247.59089 c 0,-0.42605 -0.216548,-0.90847 -0.481219,-1.07204 -0.553339,-0.342 -1.22057,1.04074 -0.735999,1.52531 0.576789,0.57682 1.217218,0.33833 1.217218,-0.45327 z"
         style="fill:none;stroke:#ff0000;stroke-width:0.1;stroke-miterlimit:4;stroke-dasharray:none" />
      <path
         id="path2110"
         d="m 55.035254,247.76445 c -2.00583,-3.98951 -2.31418,-4.35637 -2.94105,-3.49904 -0.580022,0.79326 -0.561292,1.29681 0.109138,2.93209 0.876041,2.13685 4.62448,6.36828 4.902512,5.53419 0.0936,-0.28076 -0.838192,-2.51601 -2.0706,-4.96724 z"
         style="fill:none;stroke:#0000ff;stroke-width:0.1;stroke-miterlimit:4;stroke-dasharray:none" />
      <path
         id="path2108"
         d="m 29.837973,256.40999 c 0.66905,-0.35808 1.03975,-1.1247 1.03975,-2.15024 0,-1.40538 -0.18688,-1.59377 -1.58091,-1.59377 -0.8695,0 -1.7406,-0.25839 -1.93578,-0.5742 -0.19518,-0.31582 -0.69323,-0.44436 -1.10681,-0.28566 -0.92176,0.35372 -0.98158,-0.30815 -0.10689,-1.18287 0.83897,-0.83898 1.54115,-0.82522 1.37073,0.0269 -0.21442,1.07219 2.78422,1.14165 3.94473,0.0913 0.56516,-0.51147 1.02755,-0.76592 1.02755,-0.56546 0,0.20047 0.54427,0.009 1.20948,-0.42707 0.6652,-0.43536 2.298,-0.95691 3.62841,-1.159 2.873419,-0.43647 4.443559,-1.61418 4.002959,-3.00246 -0.234249,-0.73805 -0.0341,-0.98493 0.798711,-0.98493 1.473481,0 1.40235,0.50287 -0.36694,2.5946 -1.17122,1.38467 -2.066671,1.83864 -4.3114,2.18579 -1.55824,0.24098 -2.98361,0.58859 -3.16748,0.77248 -0.5939,0.59392 1.05739,2.05564 2.03378,1.8003 0.79899,-0.20895 0.84979,-0.0932 0.32667,0.74452 -1.0287,1.64727 0.0891,1.89776 1.53069,0.343 0.74068,-0.79882 1.81219,-1.4524 2.381121,-1.4524 0.568928,0 1.297919,-0.49237 1.61997,-1.09416 0.322059,-0.60179 1.721458,-1.63348 3.109788,-2.29262 2.36719,-1.1239 2.524231,-1.32814 2.524231,-3.2827 0,-3.19818 -1.651641,-4.17418 -6.316139,-3.73237 -3.377611,0.31991 -3.628411,0.43296 -3.628411,1.6355 0,3.29491 -7.61637,6.00982 -10.22831,3.64596 -0.81196,-0.73483 -0.97655,-0.73483 -1.58639,0 -0.37424,0.45095 -0.98808,0.81991 -1.36409,0.81991 -0.37601,0 -1.43491,0.7018 -2.35312,1.55957 -1.34429,1.25579 -1.66948,1.9903 -1.66948,3.77082 0,1.91787 0.23179,2.35259 1.74701,3.27646 1.90424,1.16108 5.72263,1.42471 7.42657,0.51276 z"
         style="fill:none;stroke:#0000ff;stroke-width:0.1;stroke-miterlimit:4;stroke-dasharray:none" />
      <path
         id="path2106"
         d="m 35.184283,256.96313 c 0.84717,-0.4534 0.9236,-0.79051 0.47258,-2.08435 -0.29592,-0.84892 -1.10877,-2.07967 -1.80632,-2.73501 l -1.26829,-1.19153 -0.61328,1.14595 c -0.68327,1.27676 -0.31291,3.04162 0.93704,4.4651 0.96751,1.10183 0.96686,1.10172 2.27827,0.39984 z"
         style="fill:none;stroke:#0000ff;stroke-width:0.1;stroke-miterlimit:4;stroke-dasharray:none" />
      <path
         id="path2104"
         d="m 44.597394,258.54035 c 0.472189,-1.4878 -0.0146,-3.24039 -1.383511,-4.98068 -1.490581,-1.89502 -2.786219,-1.80563 -4.57766,0.31582 l -1.4753,1.74708 1.40376,0.1678 c 0.79795,0.0953 2.05197,0.9486 2.905759,1.97704 1.749851,2.10778 2.633941,2.32632 3.126952,0.77294 z"
         style="fill:none;stroke:#0000ff;stroke-width:0.1;stroke-miterlimit:4;stroke-dasharray:none" />
      <path
         id="path2102"
         d="m 25.189543,259.32797 c 1.3907,-0.53368 0.98244,-1.07661 -1.33069,-1.76967 -3.06198,-0.91742 -4.26955,-2.29583 -4.26955,-4.87361 0,-2.43839 2.41662,-5.70843 4.62901,-6.26372 1.21384,-0.30466 1.82983,-1.28084 0.80825,-1.28084 -1.11494,0 -2.30798,-2.81395 -1.96598,-4.63703 0.46782,-2.49377 3.23655,-5.57661 5.00839,-5.57661 0.75913,0 1.81292,-0.3916 2.34176,-0.8702 2.28228,-2.0655 6.77924,0.65255 7.42372,4.48703 l 0.34078,2.02755 3.449369,-0.16505 c 1.89715,-0.0908 4.00018,-0.0267 4.673391,0.14219 1.67948,0.42153 3.011749,3.15067 2.5889,5.30332 -0.250531,1.27542 -0.193191,1.50367 0.226449,0.90149 0.30906,-0.44349 0.565632,-1.34303 0.570161,-1.99899 0.006,-0.79911 0.256339,-1.09742 0.760169,-0.90408 1.533391,0.58843 1.570591,-1.03589 0.0536,-2.34076 -1.128448,-0.97069 -1.33935,-1.41454 -0.823579,-1.73332 1.146521,-0.7086 0.0784,-1.62382 -1.895081,-1.62382 -1.285788,0 -1.849668,-0.24581 -1.849668,-0.80635 0,-0.9477 -0.492831,-1.0011 -2.432542,-0.2636 -1.53026,0.58182 -2.39993,-0.11525 -6.423639,-5.1488 -0.87965,-1.10039 -2.33102,-2.30056 -3.22527,-2.66702 -1.68558,-0.69076 -4.91327,-0.48451 -5.42702,0.34678 -0.6566,1.06243 -1.30513,0.38963 -0.96653,-1.00271 0.34628,-1.42389 0.32147,-1.44467 -0.67397,-0.56475 -0.71156,0.62898 -1.2808,0.75712 -1.8275,0.4114 -1.2276,-0.77631 -1.70284,-0.61323 -1.36009,0.46672 0.22698,0.71516 -0.0914,1.16949 -1.16153,1.65705 -1.28646,0.58616 -1.35865,0.73643 -0.56671,1.17964 0.81425,0.45568 0.73168,0.75738 -0.80303,2.93476 -1.44733,2.05342 -1.72081,2.94042 -1.77716,5.76407 -0.0921,4.61588 -0.0326,4.41636 -1.9792,6.63349 -0.96085,1.09439 -1.78751,2.6147 -1.83699,3.37846 -0.0495,0.76376 -0.26668,2.09349 -0.48265,2.95496 -0.3306,1.31871 -0.25265,1.51257 0.49313,1.22638 0.6576,-0.25235 0.88793,-0.0326 0.89404,0.85271 0.011,1.59045 0.80852,2.85188 1.30016,2.05638 0.51084,-0.82658 1.37933,-0.7452 1.37933,0.12924 0,1.4088 3.97208,2.46839 6.13778,1.63731 z"
         style="fill:none;stroke:#0000ff;stroke-width:0.1;stroke-miterlimit:4;stroke-dasharray:none" />
      <path
         id="path2100"
         d="m 30.814563,259.66819 c 1.17722,-1.00683 1.70433,-1.85196 1.49512,-2.39718 -0.17772,-0.46316 -0.55112,-0.8421 -0.82976,-0.8421 -0.73079,0 -3.28992,3.16822 -3.28992,4.07294 0,1.10388 0.57128,0.92241 2.62456,-0.83366 z"
         style="fill:none;stroke:#0000ff;stroke-width:0.1;stroke-miterlimit:4;stroke-dasharray:none" />
      <path
         id="path2098"
         d="m 34.102973,262.34207 c 0,-0.29566 -0.24189,-0.53756 -0.53754,-0.53756 -0.29565,0 -0.53754,0.2419 -0.53754,0.53756 0,0.29566 0.24189,0.53756 0.53754,0.53756 0.29565,0 0.53754,-0.2419 0.53754,-0.53756 z"
         style="fill:none;stroke:#0000ff;stroke-width:0.1;stroke-miterlimit:4;stroke-dasharray:none" />
      <path
         id="path2096"
         d="m 25.496603,263.15525 c 0.99352,-1.19715 0.24872,-2.42586 -1.47047,-2.42586 -1.76845,0 -3.89929,1.33857 -3.89929,2.4495 0,1.08132 4.46909,1.06164 5.36976,-0.0237 z"
         style="fill:none;stroke:#0000ff;stroke-width:0.1;stroke-miterlimit:4;stroke-dasharray:none" />
      <path
         id="path2094"
         d="m 58.829972,263.95474 c 1.290682,-1.29071 1.44585,-4.72465 0.310941,-6.88058 -1.045221,-1.98556 -5.54912,-6.2384 -7.8144,-7.37881 -2.894801,-1.45731 -5.65853,-1.31324 -7.355139,0.38343 l -1.426112,1.42614 1.737011,2.19322 c 1.55339,1.96137 1.983279,2.19321 4.06681,2.19321 2.442749,0 4.030371,0.40101 4.030371,1.01803 0,0.20101 -1.46163,0.22571 -3.24808,0.0549 -3.55186,-0.3396 -3.739981,-0.2809 -3.739981,1.1669 0,0.54204 -0.468921,1.45445 -1.04203,2.02759 -1.030999,1.03104 -1.004009,1.06186 2.55333,2.91481 3.02188,1.57405 4.174109,1.87943 7.22377,1.91452 2.947379,0.0339 3.83022,-0.16003 4.703509,-1.03335 z"
         style="fill:none;stroke:#0000ff;stroke-width:0.1;stroke-miterlimit:4;stroke-dasharray:none" />
      <path
         id="path2092"
         d="m 31.653553,264.37269 c 1.07218,-1.53079 1.11082,-4.18086 0.061,-4.18086 -1.57859,0 -3.20526,3.90299 -2.09106,5.01722 0.6209,0.62094 1.16697,0.39597 2.0301,-0.83636 z"
         style="fill:none;stroke:#0000ff;stroke-width:0.1;stroke-miterlimit:4;stroke-dasharray:none" />
      <path
         id="path2090"
         d="m 60.442602,265.83621 c 0,-0.44349 -0.227608,-0.80634 -0.505809,-0.80634 -0.677839,0 -1.163299,0.83945 -0.733841,1.26892 0.605372,0.60539 1.23965,0.36871 1.23965,-0.46258 z"
         style="fill:none;stroke:#0000ff;stroke-width:0.1;stroke-miterlimit:4;stroke-dasharray:none" />
      <path
         id="path2088"
         d="m 24.945833,267.21546 c 0.98098,-1.83306 0.64027,-2.18559 -2.11236,-2.18559 -2.12775,0 -2.78665,0.22021 -3.25012,1.08623 -0.85064,1.58951 -0.22431,2.13913 2.43771,2.13913 1.79132,0 2.50388,-0.25332 2.92477,-1.03977 z"
         style="fill:none;stroke:#0000ff;stroke-width:0.1;stroke-miterlimit:4;stroke-dasharray:none" />
      <path
         id="path2086"
         d="m 39.128843,267.69411 c 1.024131,-0.60427 2.257491,-1.93201 2.7408,-2.95052 1.60338,-3.37901 -0.553191,-7.77713 -3.81345,-7.77713 -2.18554,0 -5.91662,4.12224 -3.95322,4.36769 0.29565,0.0369 0.77945,0.12766 1.0751,0.20158 0.29564,0.0739 0.71896,0.16819 0.94069,0.2095 0.22174,0.0413 -0.20158,0.37999 -0.94069,0.7526 -0.73913,0.37262 -1.4252,1.24655 -1.52462,1.94207 -0.17054,1.19312 -0.0642,1.24283 1.8814,0.87975 l 2.06216,-0.38483 -1.26579,1.35163 c -2.24229,2.39435 -0.42465,3.30892 2.79762,1.40766 z"
         style="fill:none;stroke:#0000ff;stroke-width:0.1;stroke-miterlimit:4;stroke-dasharray:none" />
      <path
         id="path2084"
         d="m 23.782153,270.83552 c 1.1286,-1.12864 0.70726,-1.50516 -1.68431,-1.50516 -2.57934,0 -3.11218,0.27736 -2.68276,1.39645 0.35528,0.92587 3.47233,1.00347 4.36707,0.10871 z"
         style="fill:none;stroke:#0000ff;stroke-width:0.1;stroke-miterlimit:4;stroke-dasharray:none" />
      <path
         id="path2082"
         d="m 27.324003,265.20561 c 0.0484,-2.90542 0.30401,-5.76637 0.56811,-6.35769 0.47071,-1.05392 0.45769,-1.05538 -0.66056,-0.0742 -0.80735,0.70842 -1.06247,1.41542 -0.87292,2.41901 0.14732,0.77993 0.006,2.62756 -0.31433,4.10585 -0.32019,1.4783 -0.68808,3.60444 -0.81752,4.72479 -0.22797,1.97323 -0.20022,2.01237 0.88698,1.25085 0.99679,-0.6982 1.13214,-1.37691 1.21024,-6.06868 z"
         style="fill:none;stroke:#0000ff;stroke-width:0.1;stroke-miterlimit:4;stroke-dasharray:none" />
      <path
         id="path2080"
         d="m 38.403323,272.06213 c 0,-0.56714 0.13134,-1.37343 0.29186,-1.79176 0.22317,-0.58161 -0.0942,-0.70393 -1.34878,-0.51979 -1.77561,0.26062 -3.24343,-0.60153 -3.24343,-1.90507 0,-1.33096 -1.6933,-2.27273 -2.91282,-1.62003 -0.84774,0.4537 -1.24635,0.31668 -2.09689,-0.72088 l -1.05019,-1.28107 0.26447,2.83401 c 0.31619,3.38841 0.55809,3.70252 2.25566,2.92902 1.77307,-0.80788 4.86491,0.091 6.08549,1.76908 1.14996,1.58108 1.75463,1.68669 1.75463,0.30649 z"
         style="fill:none;stroke:#0000ff;stroke-width:0.1;stroke-miterlimit:4;stroke-dasharray:none" />
      <path
         id="path2078"
         d="m 28.454873,274.57159 c 0.002,-1.70001 -0.1237,-3.09095 -0.27965,-3.09097 -0.15596,-2e-5 -0.79352,0.35719 -1.41682,0.79377 -2.3485,1.64501 -1.94687,5.90802 0.52337,5.55516 1.0451,-0.14928 1.16961,-0.49508 1.1731,-3.25796 z"
         style="fill:none;stroke:#0000ff;stroke-width:0.1;stroke-miterlimit:4;stroke-dasharray:none" />
      <path
         id="path2076"
         d="m 24.313643,278.55044 c 0.52249,-0.33151 0.5553,-0.80109 0.13351,-1.91054 -0.30759,-0.80904 -0.40516,-2.08501 -0.2168,-2.83546 0.3148,-1.2543 0.25075,-1.3154 -0.79312,-0.75672 -2.16688,1.15971 -2.84627,3.65826 -1.39058,5.11398 0.95558,0.95563 1.2846,1.01204 2.26699,0.38874 z"
         style="fill:none;stroke:#0000ff;stroke-width:0.1;stroke-miterlimit:4;stroke-dasharray:none" />
      <path
         id="path2074"
         d="m 46.158502,291.06396 c 1.23104,-1.23109 1.610741,-3.33559 0.888,-4.92187 -0.942308,-2.06823 -0.0522,-2.54499 4.772771,-2.55637 4.833001,-0.0114 6.58935,-0.88323 8.219339,-4.07993 1.568712,-3.07653 0.998422,-9.21359 -1.128598,-12.14533 -0.743871,-1.02529 -1.390362,-1.2244 -4.021521,-1.23858 -2.28159,-0.0123 -4.135491,-0.45595 -6.809391,-1.62957 -2.020819,-0.88697 -3.81186,-1.61268 -3.980069,-1.61268 -0.16822,0 -0.64125,0.78618 -1.0512,1.74707 -0.40993,0.96089 -1.254689,2.32246 -1.877219,3.0257 -0.622522,0.70324 -1.276792,2.15466 -1.45392,3.22536 -0.652331,3.94325 -0.926641,4.06935 -3.650191,1.67795 -2.26689,-1.99042 -4.74178,-2.16384 -5.96462,-0.41794 -1.07521,1.53513 -1.07149,3.86938 0.008,4.94882 1.07951,1.07954 2.07728,1.0712 3.175,-0.0265 0.8033,-0.80332 0.84679,-0.77188 0.55762,0.40317 -0.2615,1.06266 0.0216,1.45313 1.70328,2.34957 2.48209,1.3231 5.896509,5.71284 6.69,8.60097 0.324909,1.18263 0.676479,2.45262 0.781259,2.82219 0.266589,0.9403 2.13137,0.83822 3.14153,-0.17197 z"
         style="fill:none;stroke:#0000ff;stroke-width:0.1;stroke-miterlimit:4;stroke-dasharray:none" />
      <path
         id="path2072"
         d="m 41.628584,290.54672 c 0,-3.89446 -4.690831,-9.62606 -9.463511,-11.56321 -4.04345,-1.64116 -4.87664,-0.83656 -2.20084,2.12533 1.0681,1.1823 2.41516,3.06767 2.99345,4.18971 0.57828,1.12205 1.93803,3.06816 3.02165,4.32471 1.60307,1.85889 2.31301,2.28463 3.809741,2.28463 1.610008,0 1.83951,-0.16982 1.83951,-1.36117 z"
         style="fill:none;stroke:#0000ff;stroke-width:0.1;stroke-miterlimit:4;stroke-dasharray:none" />
      <path
         id="path2070"
         d="m 24.315833,293.86008 c 2.83852,-2.63432 5.09061,-3.92288 7.88306,-4.51037 l 1.89366,-0.3984 -2.71779,-4.15537 c -2.68271,-4.10173 -2.73424,-4.14458 -3.99282,-3.3199 -0.70128,0.45951 -2.7535,1.18038 -4.56049,1.60193 -4.03973,0.94244 -6.23881,2.0414 -7.02515,3.51075 -0.54531,1.01895 -0.4859,1.08543 0.65599,0.73401 l 1.25561,-0.38642 -1.14769,1.27628 c -1.61219,1.79283 -1.95224,3.2999 -1.0221,4.52984 0.78126,1.03306 0.79197,1.0325 0.80884,-0.043 0.0232,-1.48013 1.49432,-3.47937 2.56022,-3.47937 0.71482,0 0.66158,0.22137 -0.29925,1.24415 -1.39258,1.48238 -1.50538,3.40608 -0.27916,4.76107 1.44552,1.59734 3.23443,1.18941 5.98707,-1.36523 z"
         style="fill:none;stroke:#0000ff;stroke-width:0.1;stroke-miterlimit:4;stroke-dasharray:none" />
      <path
         id="path1384"
         d="m 19.218523,296.78244 c -0.64741,-0.16791 -2.07067,-1.09948 -3.16279,-2.07016 -1.96388,-1.74548 -1.98174,-1.79851 -1.62578,-4.82736 0.19797,-1.68438 0.73452,-3.63421 1.19235,-4.33297 0.95926,-1.46407 4.31079,-3.05164 7.54584,-3.57434 4.42942,-0.71569 5.46263,-3.23206 1.08044,-2.63139 -3.29694,0.45191 -4.46649,-1.35554 -3.37189,-5.21095 0.32267,-1.13649 0.16097,-1.48184 -0.92559,-1.97691 -1.02977,-0.46922 -1.36918,-1.10599 -1.55826,-2.92345 -0.13293,-1.27797 0.005,-2.92834 0.30635,-3.66748 0.30144,-0.73915 0.59294,-1.78699 0.6478,-2.32854 0.0549,-0.54154 0.48663,-1.37153 0.9595,-1.84441 0.78797,-0.788 0.72552,-0.94141 -0.74803,-1.83756 -0.88427,-0.53778 -1.97075,-0.97778 -2.4144,-0.97778 -0.44365,0 -1.03655,-0.60475 -1.31756,-1.3439 -0.28101,-0.73914 -0.75908,-1.34389 -1.06236,-1.34389 -0.33451,0 -0.5032,-1.42733 -0.42881,-3.62854 0.072,-2.13005 -0.18149,-4.36153 -0.61372,-5.40345 -0.5994,-1.44485 -0.61346,-2.19457 -0.0756,-4.0317 0.9303,-3.17753 2.01195,-4.67185 3.40235,-4.70037 1.50719,-0.0309 3.9167,-4.60981 3.0043,-5.70921 -0.41132,-0.49564 -0.18862,-1.02292 0.83126,-1.96814 0.7662,-0.71012 1.3931,-1.71837 1.3931,-2.24055 0,-0.78158 0.32672,-0.8964 1.84811,-0.6495 1.24881,0.20266 2.05458,0.0512 2.48477,-0.46723 0.83565,-1.00693 2.11764,-0.98319 2.11764,0.0392 0,0.58368 0.59965,0.80634 2.17159,0.80634 2.24512,0 5.7201,1.45453 6.91511,2.89447 0.45038,0.54271 1.19352,0.72068 2.18292,0.52279 1.904971,-0.381 3.4675,0.45438 4.675709,2.49977 1.460931,2.47324 2.05976,1.97077 2.086671,-1.75094 0.0275,-3.79751 1.42146,-7.08545 3.796011,-8.95332 1.906059,-1.49937 4.54954,-1.46245 5.98397,0.0836 1.346449,1.4512 1.564738,2.34363 1.04987,4.2923 -0.4869,1.84282 -2.887822,2.64648 -3.87459,1.29696 -0.356151,-0.48707 -0.884431,-0.8856 -1.173941,-0.8856 -0.83384,0 -1.774039,2.54744 -1.774039,4.80672 0,2.59937 1.936049,8.96437 3.31865,10.91043 1.34892,1.89866 4.303768,8.37952 5.701379,12.50478 1.052259,3.10595 1.831301,10.98064 1.95058,19.71707 0.039,2.86169 -0.18053,3.89802 -1.082249,5.10683 -1.949781,2.61384 -4.18415,3.55273 -8.59749,3.61272 l -3.979,0.0541 0.33496,2.52877 c 0.306618,2.31479 0.196419,2.66734 -1.3023,4.1661 -1.46834,1.46838 -1.977051,1.63732 -4.930571,1.63732 -3.22479,0 -6.46517,-1.08464 -6.46517,-2.16405 0,-0.94357 -4.29322,-0.54873 -6.60633,0.60758 -1.24473,0.62224 -3.23072,2.04198 -4.41332,3.15497 -2.29985,2.1645 -3.6014,2.68748 -5.47744,2.20092 z"
         style="fill:none;stroke:#ff0000;stroke-width:0.1;stroke-miterlimit:4;stroke-dasharray:none" />
      <path
         id="path2054"
         style="fill:none;stroke:#0000ff;stroke-width:0.1"
         d="m 23.002957,227.67 -0.406488,0.40649 m -0.09978,0.4989 0.82805,-0.82805 m 0.356047,0.0431 -3.14965,3.14965 m -0.323181,0.7223 3.047705,-3.0477 m 0.0563,0.34283 -3.114197,3.11419 m 4.477223,-4.0781 0.118815,-0.11881 m -1.435214,1.43521 -0.982763,0.98277 m -2.045388,2.04538 0.802856,-0.80285 m 4.018219,-3.6191 -0.214293,0.21429 m -1.746707,1.74671 0.263314,-0.26331 m -2.124767,2.12476 -0.866893,0.8669 m 4.747597,-4.34848 0.340191,-0.34019 m -3.982949,3.98295 -1.03256,1.03256 m 4.958669,-4.55955 1.617382,-1.61738 m -5.312579,5.31258 -1.30051,1.30051 m 5.436371,-5.03725 1.645423,-1.64542 m -5.558842,5.55884 -1.554414,1.55441 m 5.99249,-5.59336 1.560963,-1.56096 m -5.865407,5.8654 -2.016038,2.01604 m -4.656314,4.65631 0.452072,-0.45207 m 12.373458,-11.97433 -0.495563,0.49556 m -7.728918,7.72892 1.510699,-1.5107 m -5.017412,5.01741 -1.528972,1.52897 m 12.806797,-12.40767 0.614088,-0.61409 m -7.767232,7.76723 -0.916115,0.91612 m -5.12813,5.12813 2.50616,-2.50616 m 11.340764,-10.94164 -0.619629,0.61962 m -13.443914,13.44392 5.492817,-5.49282 m 8.666955,-8.26783 -0.853111,0.85311 m -9.811355,9.81135 1.691605,-1.6916 m -4.050295,4.0503 -1.353235,1.35323 m 13.481774,-13.08265 1.123773,-1.12378 m -9.506953,9.50696 -1.310334,1.31033 m -4.046978,4.04698 0.938994,-0.93899 m 14.14902,-13.7499 -1.412279,1.41228 m -9.552422,9.55242 1.175746,-1.17575 m -4.557025,4.55703 -0.867295,0.86729 m 13.879374,-13.48025 1.664123,-1.66412 m -10.216907,10.21691 -1.001681,1.00168 m -4.562155,4.56215 0.894957,-0.89495 m 15.218732,-14.81961 -1.780356,1.78035 m -9.694843,9.69484 0.827615,-0.82761 m -4.664448,4.66445 -0.793779,0.79378 m 15.796471,-15.39735 0.665534,-0.66554 m -11.001368,11.00137 -0.75369,0.75369 m -4.853631,4.85363 0.828678,-0.82867 m 16.162384,-15.76327 -0.443618,0.44362 m -11.628819,11.62882 0.665775,-0.66577 m -4.767374,4.76737 -0.722855,0.72285 m 16.88412,-16.48499 0.396406,-0.39641 m -11.813217,11.81322 -0.568146,0.56815 m -4.850256,4.85025 0.578453,-0.57845 M 31.20975,228.2439 30.8585,228.59515 m -12.349471,12.34947 0.492671,-0.49267 m -4.856883,4.85688 -0.491736,0.49174 m 17.598841,-17.19972 0.353872,-0.35387 m -12.615398,12.6154 -0.428812,0.42881 m -4.805717,4.80572 0.406931,-0.40693 m 17.771163,-17.37204 -0.293015,0.29301 m -13.026806,13.02681 0.364831,-0.36483 m -4.785497,4.78549 -0.33482,0.33482 m 18.171316,-17.77219 0.239169,-0.23917 m -13.301594,13.30159 -0.296858,0.29686 m -4.705753,4.70575 0.259215,-0.25921 m 18.388909,-17.98979 -0.194063,0.19407 m -13.73237,13.73237 0.269494,-0.2695 m -4.637834,4.63784 -0.262917,0.26291 m 18.700136,-18.30101 0.157622,-0.15762 m -13.968433,13.96843 -0.248208,0.24821 m -4.550683,4.55068 0.29657,-0.29657 m 18.770822,-18.3717 -0.117362,0.11736 m -14.457455,14.45746 0.294891,-0.29489 m -4.334531,4.33453 -0.362501,0.3625 m 19.176679,-18.77756 0.100348,-0.10034 m -7.02598,7.02598 -1.781195,1.78119 m -6.13941,6.13941 0.378242,-0.37824 m -4.125127,4.12513 -0.509273,0.50927 m 19.406489,-19.00737 0.09632,-0.0963 m -6.534752,6.53475 -0.126101,0.1261 m -3.017507,3.01751 0.285733,-0.28573 m -5.55337,5.55337 -0.437184,0.43718 m -4.065014,4.06501 0.759541,-0.75954 m 18.988722,-18.5896 -0.0923,0.0923 m -6.36568,6.36568 0.230329,-0.23033 m -3.465069,3.46507 -0.782598,0.7826 m -9.218332,9.21833 4.452257,-4.45226 m 15.541457,-15.14233 -0.144416,0.14441 m -6.236742,6.23675 0.222997,-0.223 m -3.641097,3.6411 -1.091497,1.09149 m -9.051419,9.05142 4.212199,-4.2122 m 16.023845,-15.62472 -0.180777,0.18078 m -6.171118,6.17112 0.341634,-0.34164 m -3.530592,3.53059 -1.822469,1.82247 m -8.830215,8.83022 3.955843,-3.95584 m 16.510076,-16.11096 -0.19565,0.19565 m -6.139651,6.13965 0.583203,-0.5832 m -3.107356,3.10736 -2.907692,2.90769 m -8.671034,8.67103 2.483336,-2.48333 m 18.227226,-17.82811 -0.242307,0.24231 m -6.117537,6.11754 1.793808,-1.79381 m -3.573191,3.57319 -1.683479,1.68348 m -2.134664,2.13466 0.832967,-0.83296 m -8.453099,8.45309 -1.10532,1.10532 m 20.669153,-20.27003 0.288709,-0.28871 m -4.302368,4.30237 -2.084677,2.08468 m -2.725479,2.72548 1.241711,-1.24171 m -4.006043,4.00604 -0.324274,0.32428 m -8.764459,8.76445 0.822278,-0.82227 m 20.396943,-19.99782 -0.313702,0.3137 m -6.125606,6.1256 2.436073,-2.43607 m -3.661648,3.66165 -1.198461,1.19846 m -3.545705,3.54571 0.292973,-0.29298 m -8.419227,8.41923 -0.632173,0.63217 m 21.078109,-20.67898 0.342998,-0.343 m -3.779203,3.7792 -0.599518,0.59952 m -2.21781,2.21781 0.58272,-0.58272 m -1.488476,1.48847 -1.466369,1.46637 m -3.621626,3.62163 0.270314,-0.27031 m -8.509581,8.50958 -0.590377,0.59037 m 21.286063,-20.88694 0.387494,-0.38749 m -3.708087,3.70809 -0.162056,0.16205 m -5.207918,5.20792 2.941406,-2.94141 m -6.367058,6.36706 -0.265037,0.26504 m -8.903627,8.90362 0.484872,-0.48487 m 21.428063,-21.02894 -0.418917,0.41892 m -3.304706,3.30471 0.112338,-0.11234 m -2.560737,2.56073 -3.002371,3.00238 m -3.730836,3.73083 0.267511,-0.26751 m -8.846926,8.84693 -0.481062,0.48106 m 21.755925,-21.3568 0.441271,-0.44127 m -3.505416,3.50541 -0.117597,0.1176 m -5.638644,5.63864 3.130448,-3.13045 m -6.606671,6.60668 -0.303315,0.30331 m -9.10253,9.10253 0.371009,-0.37101 m 22.004204,-21.60508 -0.464039,0.46404 m -3.091499,3.0915 0.139631,-0.13963 m -2.403841,2.40384 -1.679801,1.6798 m -1.84937,1.84937 0.845398,-0.8454 m -4.323809,4.32381 -0.311502,0.3115 m -9.239452,9.23945 0.256418,-0.25641 m 22.335253,-21.93613 -0.487992,0.48799 m -3.063694,3.06369 0.19515,-0.19515 m -1.801206,1.80121 -2.283226,2.28322 m -1.955724,1.95573 0.765701,-0.7657 m -4.239063,4.23906 -0.348314,0.34831 m -9.376375,9.37638 0.159327,-0.15933 m 22.63688,-22.23776 -0.500023,0.50003 m -3.038429,3.03843 0.253212,-0.25322 m -1.218648,1.21865 -3.163273,3.16328 m -1.753876,1.75387 0.798366,-0.79836 m -4.276806,4.2768 -0.372659,0.37266 m -9.535378,9.53538 0.07156,-0.0716 m 22.937418,-22.5383 -0.512053,0.51206 m -4.455562,4.45556 1.75367,-1.75367 m -3.695631,3.69563 -2.486089,2.48609 m -3.909994,3.90999 0.393805,-0.3938 m 13.125073,-12.72596 -0.535787,0.53579 m -4.377128,4.37713 1.745855,-1.74585 m -4.510143,4.51014 -1.687901,1.6879 m -3.968221,3.96822 0.40609,-0.40609 m 13.134227,-12.73511 -0.56224,0.56224 m -4.345742,4.34575 1.761257,-1.76126 m -4.681922,4.68192 -1.466507,1.46651 m -4.028765,4.02876 0.387528,-0.38752 m 13.220785,-12.82167 -0.666093,0.6661 m -4.358737,4.35873 1.821039,-1.82103 m -4.868759,4.86875 -1.171449,1.17145 m -4.073859,4.07386 0.295024,-0.29502 m -10.440445,10.44044 -0.123472,0.12347 m 23.101198,-22.70207 0.759592,-0.75959 m -3.250502,3.2505 -1.887528,1.88753 m -4.057094,4.05709 1.003665,-1.00366 m -4.846027,4.84602 -0.216529,0.21653 m -3.887921,3.88792 1.778158,-1.77815 m -7.908528,7.90852 -0.542333,0.54234 m 23.235586,-22.83647 0.940823,-0.94082 m -3.384944,3.38494 -0.16023,0.16023 m -1.838002,1.83801 1.046355,-1.04636 m -4.053752,4.05375 -0.764507,0.76451 m -4.189245,4.18924 0.274126,-0.27412 m -2.177089,2.17709 -2.979901,2.9799 m -5.766501,5.7665 0.851696,-0.8517 m 23.505411,-23.10628 -1.1237,1.1237 m -2.522029,2.52202 0.0931,-0.0931 m -0.998372,0.99837 -1.07922,1.07922 m -3.522214,3.52221 0.590873,-0.59087 m -4.066784,4.06679 -0.929898,0.92989 m -5.445815,5.44582 4.053462,-4.05346 m -8.33423,8.33423 -0.802671,0.80267 m 23.144342,-22.74522 1.453538,-1.45354 m -3.875743,3.87574 -0.08849,0.0885 m -2.057682,2.05769 1.138095,-1.1381 m -3.953807,3.95381 -0.592868,0.59287 m -6.494751,6.49475 3.192175,-3.19218 m -6.352772,6.35277 -0.607332,0.60734 m -4.706401,4.7064 0.652342,-0.65234 m 24.138347,-23.73923 -1.66411,1.66411 m -2.562291,2.56229 0.146812,-0.14681 m -0.980773,0.98077 -1.231911,1.23191 m -3.436635,3.43664 0.735573,-0.73557 m -1.768217,1.76821 -4.621884,4.62189 m -4.862015,4.86201 0.504086,-0.50408 m -4.336487,4.33648 -0.539861,0.53986 m 23.134143,-22.73502 1.944758,-1.94475 m -4.353509,4.3535 -2.289187,2.28919 m -8.828173,8.82817 6.318771,-6.31877 m -11.089575,11.08958 -0.516462,0.51646 m -4.179,4.179 0.421169,-0.42117 m 24.898936,-24.49981 -0.506612,0.50661 m -1.640577,1.64058 0.391115,-0.39112 m -2.793138,2.79314 -2.298342,2.29834 m -7.26715,7.26715 4.882061,-4.88206 m -11.41825,11.41825 -0.530327,0.53033 m -3.997119,3.99712 0.323931,-0.32394 m 25.220152,-24.82102 -0.397656,0.39765 m -1.934737,1.93474 0.277897,-0.2779 m -2.719196,2.7192 -2.261493,2.26149 m -7.156689,7.15669 4.912279,-4.91228 m -11.763292,11.76329 -0.480261,0.48026 m -3.879168,3.87917 0.226693,-0.22669 m 25.501688,-25.10257 -0.35954,0.35954 m -2.118378,2.11838 0.239287,-0.23929 m -2.716362,2.71637 -2.149746,2.14974 m -3.57753,3.57753 1.42429,-1.42429 m -4.300308,4.30031 -0.72942,0.72942 m -7.545148,7.54515 0.485621,-0.48562 m -4.020553,4.02055 -0.223905,0.22391 m 33.036264,-32.63715 1.214111,-1.21411 m -8.356203,8.35621 -0.32438,0.32438 m -2.275478,2.27547 0.200678,-0.20067 m -2.71353,2.71353 -2.029057,2.02905 m -3.165257,3.16526 1.081023,-1.08102 m -4.734026,4.73402 -0.410746,0.41075 m -7.692299,7.6923 0.432466,-0.43247 m -3.924714,3.92472 -0.205429,0.20543 m 32.284912,-31.88579 2.638761,-2.63877 m -8.882938,8.88294 -0.327306,0.32731 m -2.371998,2.372 0.18565,-0.18565 m -2.734278,2.73427 -1.787283,1.78729 m -3.124406,3.1244 1.040056,-1.04005 m -5.04363,5.04363 -0.262048,0.26205 m -7.845552,7.84555 0.37931,-0.37931 m -3.828875,3.82887 -0.156489,0.15649 m 34.946976,-34.54785 0.587862,-0.58786 m -2.338013,2.33801 -1.196929,1.19693 m -6.167602,6.1676 0.304338,-0.30434 m -2.589839,2.58984 -0.186109,0.18611 m -4.17055,4.17055 1.567422,-1.56742 m -3.613851,3.61385 -0.613626,0.61363 m -4.844476,4.84447 0.118724,-0.11872 m -7.742173,7.74217 -0.358999,0.359 m -3.52619,3.52619 0.167321,-0.16732 m 31.74207,-31.34295 -0.485101,0.4851 m -5.506161,5.50616 0.283427,-0.28342 m -2.648129,2.64812 -0.177879,0.17788 m -3.975998,3.976 1.287798,-1.2878 m -3.331155,3.33116 -0.485366,0.48536 m -5.128192,5.1282 0.05371,-0.0537 m -7.81921,7.81921 -0.330806,0.3308 m -3.423147,3.42315 0.173041,-0.17304 m 31.535593,-31.13647 -0.733684,0.73368 m -5.047085,5.04709 0.281413,-0.28142 m -2.695435,2.69544 -0.16965,0.16965 m -3.853856,3.85385 1.080586,-1.08058 m -3.007934,3.00793 -0.387659,0.38766 m -13.625328,13.62533 0.295898,-0.2959 m -2.716925,2.71693 -0.84755,0.84755 m 30.47286,-30.07374 0.387818,-0.38782 m -4.722982,4.72298 -0.258337,0.25834 m -2.624762,2.62476 0.16142,-0.16142 m -3.058872,3.05887 -0.852182,0.85219 m -2.185682,2.18568 0.378148,-0.37815 M 20.8678,254.94986 20.570258,255.2474 m -3.102033,3.10204 1.092514,-1.09252 m 29.246589,-28.84747 -0.330336,0.33034 m -4.234767,4.23477 0.241676,-0.24168 m -2.73287,2.73287 -0.168244,0.16825 m -3.753914,3.75391 0.740147,-0.74015 m -2.236188,2.23619 -0.462379,0.46238 m -14.134876,14.13488 0.313944,-0.31395 m -2.31173,2.31173 -0.959775,0.95978 m 36.368371,-35.96925 0.08254,-0.0825 m -6.585561,6.58556 -0.316436,0.31643 m -3.895369,3.89537 0.236549,-0.23655 m -2.714488,2.71449 -0.169862,0.16986 m -5.559288,5.55929 2.399241,-2.39924 m -6.46932,6.46932 -1.554233,1.55423 m -8.671746,8.67175 0.302826,-0.30283 m -2.44571,2.44571 -0.701473,0.70148 m 36.35618,-35.95706 0.130898,-0.1309 m -6.98421,6.98421 -0.328866,0.32887 m -3.63716,3.63716 0.229705,-0.22971 m -2.694389,2.69439 -0.163994,0.164 m -5.448065,5.44806 2.136986,-2.13699 m -6.174708,6.17471 -1.537931,1.53793 m -4.026913,4.02692 0.64446,-0.64446 m -5.141606,5.1416 -0.309814,0.30982 m -2.755995,2.75599 0.494245,-0.49424 m 36.005164,-35.60605 -0.160045,0.16005 m -7.528813,7.52881 0.318424,-0.31842 m -3.481799,3.4818 -0.211574,0.21157 m -2.613556,2.61356 0.158126,-0.15813 m -3.620234,3.62024 -1.911397,1.91139 m -5.490996,5.491 1.403752,-1.40375 m -4.601102,4.6011 -1.338178,1.33818 m -4.459806,4.4598 0.33937,-0.33937 m -2.663586,2.66359 -0.379752,0.37975 m 36.340915,-35.94179 0.2031,-0.2031 m -7.752597,7.7526 -0.312068,0.31206 m -3.166102,3.1661 0.23455,-0.23455 m -2.623276,2.62328 -0.152258,0.15226 m -5.298947,5.29895 1.685808,-1.68581 m -5.823487,5.82349 -1.225683,1.22568 m -4.445889,4.44589 0.931059,-0.93106 m -5.316015,5.31601 -0.332587,0.33259 m -2.681001,2.681 0.322601,-0.3226 m 36.215245,-35.81612 -0.202658,0.20266 m -8.143537,8.14353 0.316657,-0.31665 m -3.067167,3.06716 -0.257525,0.25753 m -2.435319,2.43532 0.143262,-0.14326 m -3.940527,3.94052 -1.492899,1.4929 m -5.201956,5.20196 1.056092,-1.0561 m -4.934856,4.93486 -0.54156,0.54156 m -4.912965,4.91297 0.326472,-0.32648 m -2.722632,2.72264 -0.261207,0.2612 m 36.309984,-35.91086 0.221694,-0.22169 m -8.322272,8.32227 -0.305454,0.30545 m -2.851597,2.8516 0.281153,-0.28115 m -2.468475,2.46847 -0.142914,0.14292 m -5.290466,5.29046 1.311289,-1.31129 m -5.448638,5.44864 -0.843003,0.843 m -4.543024,4.54303 0.317201,-0.3172 m -4.989888,4.98988 -0.336336,0.33634 m -2.633732,2.63373 0.225113,-0.22511 m 36.270735,-35.87161 -0.217524,0.21752 m -8.660788,8.66079 0.292967,-0.29297 m -2.68601,2.68601 -0.398625,0.39863 m -2.094291,2.09429 0.146965,-0.14697 m -4.155655,4.15566 -1.331359,1.33136 m -4.746718,4.74672 0.700169,-0.70017 m -5.170221,5.17022 -0.261295,0.26129 m -5.004022,5.00402 0.327868,-0.32786 m -2.753571,2.75357 -0.218216,0.21821 m 36.246664,-35.84754 0.198068,-0.19807 m -1.97178,1.97178 -2.505613,2.50562 m -4.640896,4.64089 0.314994,-0.31499 m -2.525959,2.52596 -0.682858,0.68286 m -1.670456,1.67045 0.2014,-0.2014 m -4.087019,4.08702 -1.562607,1.56261 m -2.014304,2.0143 0.07981,-0.0798 m -1.992248,1.99225 -0.443471,0.44347 m -5.103446,5.10345 0.316725,-0.31673 m -4.917974,4.91798 -0.32312,0.32312 m -2.674368,2.67436 0.235299,-0.23529 m 36.17833,-35.77921 -0.196413,0.19641 m -5.112777,5.11278 3.608623,-3.60862 m -7.313696,7.31369 -0.340035,0.34004 m -4.142302,4.1423 2.113416,-2.11342 m -5.976261,5.97626 -1.801584,1.80159 m -2.265547,2.26554 0.576245,-0.57624 m -1.913001,1.913 -0.404269,0.40427 m -5.432723,5.43272 0.416718,-0.41672 m -4.952305,4.95231 -0.331362,0.33136 m -2.704859,2.70486 0.271308,-0.27131 m 36.077892,-35.67877 -0.163783,0.16379 m -5.299933,5.29993 3.83331,-3.83331 m -7.561455,7.56145 -0.365077,0.36508 m -3.584951,3.58495 1.768145,-1.76814 m -5.743589,5.74359 -0.4592,0.4592 m -1.648244,1.64824 0.303871,-0.30387 m -1.729255,1.72925 -2.150662,2.15067 m -5.697802,5.6978 0.451898,-0.4519 m -4.96594,4.96594 -0.336438,0.33644 m -2.758599,2.7586 0.327373,-0.32738 m 35.9574,-35.55827 -0.133324,0.13332 m -3.703794,3.70379 0.861849,-0.86184 m -2.727468,2.72746 -0.328882,0.32889 m -3.727959,3.72795 0.390118,-0.39011 m -1.997797,1.99779 -1.352392,1.3524 m -4.506231,4.50623 0.350657,-0.35066 m -2.222574,2.22257 -3.116926,3.11693 m -6.151782,6.15178 0.483253,-0.48325 m -5.006172,5.00617 -0.340107,0.34011 m -2.829008,2.82901 0.398699,-0.3987 m 35.836908,-35.43779 -0.128166,0.12817 m -3.631369,3.63137 0.586696,-0.5867 m -2.832998,2.833 -0.301286,0.30128 m -3.697888,3.69789 0.492989,-0.49299 m -1.814732,1.81473 -0.968457,0.96846 m -4.663068,4.66307 0.325168,-0.32517 m -2.77037,2.77037 -2.257618,2.25762 m -6.553462,6.55346 0.575185,-0.57518 m -5.121277,5.12127 -0.349303,0.34931 m -2.934358,2.93436 0.518056,-0.51806 m 35.703326,-35.3042 -0.123009,0.123 m -3.585472,3.58548 0.400957,-0.40096 m -3.021487,3.02149 -0.406622,0.40662 m -3.46909,3.46909 0.544313,-0.54431 m -1.609273,1.60927 -0.734105,0.7341 m -4.682525,4.68253 0.295314,-0.29531 m -3.428635,3.42863 -1.121566,1.12157 m -7.080781,7.08078 0.623444,-0.62345 m -5.209859,5.20986 -0.397805,0.39781 m -3.011196,3.01119 0.646709,-0.64671 m 35.520018,-35.12089 -0.107048,0.10705 m -3.553377,3.55337 0.274213,-0.27421 m -3.201679,3.20168 -0.319681,0.31968 m -4.786748,4.78675 1.913261,-1.91326 m -6.34009,6.34009 -0.265461,0.26546 m -11.411895,11.41189 0.775502,-0.7755 m -5.405399,5.4054 -0.418518,0.41852 m -3.802641,3.80264 1.462181,-1.46218 m 35.327208,-34.92809 -0.103403,0.10341 m -3.499465,3.49946 0.212109,-0.21211 m -3.371326,3.37133 -0.360073,0.36007 m -4.423045,4.42305 1.673562,-1.67357 m -5.965386,5.96539 -0.240377,0.24038 m -11.484112,11.48411 1.037975,-1.03798 m -5.714548,5.71455 -0.454761,0.45476 m -4.644769,4.64477 2.35481,-2.35481 m 35.081261,-34.68214 -0.0665,0.0665 m -3.436157,3.43616 0.194694,-0.1947 m -3.593906,3.59391 -0.396989,0.39699 m -4.139841,4.13984 1.522908,-1.52291 m -5.616771,5.61677 -0.249802,0.2498 m -11.501615,11.50162 2.08945,-2.08945 m -6.784037,6.78403 -0.518832,0.51884 m -5.395129,5.39512 3.183332,-3.18333 m 34.779762,-34.38064 -0.102646,0.10265 m -3.265651,3.26565 0.248671,-0.24867 m -3.894146,3.89415 -0.373127,0.37312 m -4.009297,4.0093 1.470361,-1.47036 m -5.274383,5.27438 -0.185899,0.1859 m -11.684844,11.68484 1.993029,-1.99302 m -6.613232,6.61323 -0.582904,0.5829 m -3.1278,3.1278 1.018633,-1.01863 m -3.295496,3.2955 -0.240707,0.2407 m 37.886677,-37.48755 0.08536,-0.0854 m -2.875137,2.87514 -0.319869,0.31987 m -4.261971,4.26197 0.375704,-0.3757 m -2.836644,2.83664 -1.470413,1.47041 m -3.625508,3.62551 0.163928,-0.16393 m -9.803526,9.80353 -2.196187,2.19619 m -5.20535,5.20535 0.669803,-0.66981 m -2.677645,2.67765 -0.729181,0.72918 m -3.28761,3.28761 0.422513,-0.42251 m 37.633417,-37.2343 -0.10667,0.10667 m -2.783088,2.78309 0.433761,-0.43376 m -4.569533,4.56953 -0.422315,0.42232 m -3.831509,3.83151 1.483325,-1.48333 m -4.627294,4.62729 -0.141957,0.14196 m -10.065361,10.06536 1.252483,-1.25248 m -2.555232,2.55523 -0.713773,0.71377 m -5.125159,5.12516 0.801087,-0.80108 m -2.639788,2.63978 -0.652847,0.65285 m -3.90159,3.90159 0.711688,-0.71169 m 37.35248,-36.95335 -0.06732,0.0673 m -2.373423,2.37342 0.539642,-0.53964 m -4.995061,4.99506 -0.422948,0.42295 m -3.6309,3.6309 1.358626,-1.35862 m -4.327731,4.32773 -0.147986,0.14798 m -10.256455,10.25646 1.434062,-1.43407 m -3.092867,3.09287 -0.439712,0.43971 m -5.028186,5.02819 1.044938,-1.04494 m -2.671815,2.67182 -0.644366,0.64436 m -4.544828,4.54483 1.160435,-1.16043 m 37.013379,-36.61426 -1.976599,1.9766 m -5.222556,5.22255 0.423581,-0.42358 m -2.619946,2.61995 -1.142545,1.14254 m -3.050244,3.05025 0.16462,-0.16462 m -8.717703,8.7177 -0.389685,0.38969 m -1.494174,1.49417 0.589526,-0.58953 m -2.582932,2.58294 -0.223505,0.2235 m -4.931597,4.9316 1.188815,-1.18882 m -2.34759,2.34759 -0.858632,0.85863 m -5.187462,5.18747 1.634143,-1.63415 m 36.700881,-36.30176 -1.38057,1.38057 m -5.749145,5.74915 0.464486,-0.46449 m -2.548099,2.5481 -0.96378,0.96378 m -2.98132,2.98132 0.18799,-0.18799 m -8.603277,8.60328 -0.240095,0.24009 m -1.962049,1.96205 0.494125,-0.49412 m -2.675566,2.67557 -0.21847,0.21847 m -6.629186,6.62918 3.296476,-3.29647 m -6.89219,6.89219 -2.111325,2.11132 m 37.761211,-37.36209 0.506377,-0.50637 m -6.362514,6.36251 -0.488077,0.48808 m -2.676174,2.67617 0.722699,-0.7227 m -3.555705,3.55571 -0.167973,0.16797 m -8.515998,8.516 0.238508,-0.23851 m -2.083832,2.08383 -0.436596,0.4366 m -2.578243,2.57824 0.228055,-0.22806 m -3.160062,3.16007 -3.411625,3.41162 m -6.080768,6.08077 2.505042,-2.50504 m 29.519058,-29.11994 -0.511668,0.51167 m -2.333196,2.3332 0.545135,-0.54514 m -3.389577,3.38958 -0.203494,0.20349 m -8.351425,8.35143 0.26727,-0.26727 m -2.415135,2.41513 -0.423579,0.42358 m -2.933728,2.93373 0.424557,-0.42456 m -2.70496,2.70496 -3.58958,3.58958 m -4.376072,4.37608 0.812737,-0.81274 m -2.565787,2.56578 -0.346513,0.34652 m 31.618064,-31.21894 0.535259,-0.53526 m -2.090904,2.0909 -0.435444,0.43544 m -3.086423,3.08643 0.231417,-0.23142 m -8.125615,8.12562 -0.300252,0.30025 m -2.868436,2.86843 0.428112,-0.42811 m -3.044029,3.04403 -0.721394,0.7214 m -2.456201,2.4562 0.897679,-0.89768 m -3.085215,3.08521 -0.756719,0.75672 m -4.024713,4.02471 0.57621,-0.57621 m -3.029613,3.02962 -0.278332,0.27833 m 31.66933,-31.27021 0.585096,-0.58509 m -1.908325,1.90832 -0.344696,0.3447 m -3.105968,3.10596 0.25934,-0.25934 m -4.144906,4.14491 -0.143302,0.1433 m -4.008607,4.00861 0.300411,-0.30041 m -2.989722,2.98972 -0.483706,0.48371 m -5.875834,5.87583 3.157941,-3.15794 m -5.626256,5.62625 -0.338238,0.33824 m -3.844574,3.84458 0.512902,-0.5129 m -3.31605,3.31605 -0.446846,0.44684 m 31.780027,-31.3809 0.648123,-0.64813 m -1.722906,1.72291 -0.275621,0.27562 m -3.147809,3.14781 0.344304,-0.3443 m -4.077395,4.07739 -0.522061,0.52206 m -3.575874,3.57588 0.280218,-0.28022 m -3.224021,3.22402 -0.5393,0.5393 m -6.334724,6.33472 3.549773,-3.54977 m -5.687869,5.68787 -0.205367,0.20537 m -3.625577,3.62557 0.52314,-0.52314 m -3.577996,3.578 -0.537379,0.53738 m 30.670479,-30.27136 1.767699,-1.7677 m -4.60399,4.60399 -0.342272,0.34228 m -4.483834,4.48383 0.820038,-0.82004 m -3.418308,3.41831 -0.530916,0.53091 m -3.805498,3.8055 0.604772,-0.60477 m -3.445306,3.44531 -3.958552,3.95855 m -1.875559,1.87556 0.05446,-0.0545 m -2.860076,2.86007 -0.586975,0.58698 m -3.987093,3.98709 0.707236,-0.70724 m 31.793587,-31.39446 -1.556092,1.55609 m -3.190098,3.1901 0.34387,-0.34387 m -3.933819,3.93382 -1.12308,1.12308 m -2.681985,2.68198 0.765392,-0.76539 m -4.168576,4.16858 -0.73365,0.73365 m -3.240458,3.24046 0.386081,-0.38608 m -3.776726,3.77672 -0.276094,0.27609 m -4.955055,4.95506 0.607319,-0.60732 m -4.008345,4.00835 -0.948064,0.94806 m 31.190923,-30.7918 1.380171,-1.38017 m -4.260924,4.26092 -0.316183,0.31619 m -6.96065,6.96065 3.206574,-3.20658 m -6.969831,6.96983 -0.89028,0.89028 m -3.14163,3.14163 0.281494,-0.28149 m -4.182876,4.18287 -0.0851,0.0851 m -4.500397,4.5004 0.720292,-0.7203 m -4.242728,4.24273 -1.175542,1.17554 m 31.379834,-30.98071 1.219667,-1.21966 m -4.119529,4.11952 -0.320602,0.32061 m -6.704246,6.70424 2.35125,-2.35125 m -6.168513,6.16852 -1.151139,1.15113 m -3.079314,3.07932 0.221646,-0.22165 m -4.41916,4.41916 -0.06398,0.064 m -1.821199,1.82119 0.07398,-0.074 m -1.274049,1.27405 -1.047055,1.04705 m -5.024286,5.02429 1.442195,-1.4422 m 31.185713,-30.78659 -1.124276,1.12428 m -3.178878,3.17888 0.298196,-0.2982 m -10.755552,10.75555 -1.285255,1.28526 m -3.066356,3.06636 0.222658,-0.22266 m -4.550196,4.55019 -0.148281,0.14828 m -3.636067,3.63607 1.925386,-1.92539 m -5.547146,5.54715 -1.759666,1.75967 m 31.562352,-31.16323 1.124795,-1.1248 m -3.904665,3.90467 -0.278126,0.27812 m -11.79596,11.79596 0.530066,-0.53006 m -3.359793,3.35979 -0.230502,0.2305 m -4.651772,4.65177 0.317755,-0.31775 m -2.06603,2.06603 -1.487079,1.48708 m -4.342629,4.34263 0.714898,-0.7149 m -1.904834,1.90483 -0.116613,0.11662 m 30.810789,-30.41167 1.84621,-1.84621 m -3.804373,3.80437 -0.307716,0.30772 m -11.808178,11.80818 0.326658,-0.32666 m -3.107414,3.10741 -0.27005,0.27005 m -4.822492,4.8225 0.552567,-0.55257 m -2.346698,2.3467 -1.107147,1.10714 m -4.183812,4.18382 0.616745,-0.61675 m -2.191478,2.19148 -0.09959,0.0996 m 30.799241,-30.40012 1.835451,-1.83545 m -3.742531,3.74253 -0.298857,0.29886 m -11.837554,11.83755 0.293779,-0.29378 m -3.005673,3.00568 -0.448949,0.44894 m -4.856592,4.8566 0.918301,-0.9183 m -2.758288,2.75828 -0.740538,0.74054 m -4.06545,4.06545 0.572371,-0.57237 m -2.43725,2.43725 -0.120647,0.12065 m 30.86193,-30.46281 1.77122,-1.77122 m -3.70035,3.70035 -0.299181,0.29918 m -11.85186,11.85186 0.397419,-0.39742 m -3.050234,3.05024 -5.51854,5.51854 m -2.315929,2.31592 0.430085,-0.43008 m -3.789745,3.78974 -0.534057,0.53406 m -2.223927,2.22393 0.124053,-0.12405 m 32.43635,-32.03723 -1.681419,1.68142 m -2.335028,2.33502 0.344216,-0.34421 m -11.533014,11.53301 -0.660114,0.66012 m -8.28257,8.28257 5.771675,-5.77168 m -7.703375,7.70338 -0.184316,0.18431 m -3.657299,3.6573 0.53674,-0.53674 m -2.820677,2.82068 -0.178392,0.17839 m 30.908064,-30.50894 1.579592,-1.57959 m -3.662177,3.66217 -0.371185,0.37119 m -11.845964,11.84596 2.561269,-2.56127 m -4.911052,4.91106 -6.044,6.044 m -5.398312,5.39831 0.693165,-0.69317 m -3.054641,3.05464 -0.216127,0.21613 m 30.875342,-30.47622 1.477765,-1.47776 m -3.652124,3.65212 -0.397707,0.39771 m -11.836796,11.83679 3.686406,-3.6864 m -5.639242,5.63924 -2.351669,2.35167 m -4.207158,4.20716 1.706421,-1.70642 m -6.045647,6.04564 -0.619257,0.61926 m -2.748869,2.74887 0.256872,-0.25687 m 31.952854,-31.55373 -1.379113,1.37911 m -2.747642,2.74764 0.454147,-0.45415 m -8.122017,8.12202 -4.240235,4.24024 m -3.98629,3.98628 2.857998,-2.85799 m -5.902253,5.90225 -1.458067,1.45807 m -2.483666,2.48366 0.3324,-0.3324 m -1.62427,1.62427 -0.782975,0.78298 m -2.876046,2.87604 0.328315,-0.32831 m 31.733797,-31.33468 -1.284281,1.28429 m -2.919398,2.91939 0.504256,-0.50425 m -7.732943,7.73294 -0.260439,0.26044 m -8.223606,8.22361 4.504706,-4.50471 m -7.822973,7.82297 -0.647626,0.64763 m -0.82577,0.82577 0.251248,-0.25125 m -2.417067,2.41707 -1.933298,1.9333 m -2.997759,2.99776 0.416685,-0.41669 m 31.492348,-31.09323 -1.189449,1.18945 m -3.087269,3.08727 0.550482,-0.55048 m -5.388999,5.389 -2.191362,2.19136 m -8.527093,8.52709 4.544656,-4.54465 m -8.118557,8.11855 -0.399,0.399 m -0.963621,0.96363 0.24337,-0.24337 m -2.546205,2.5462 -1.497702,1.4977 m -3.081122,3.08113 0.513405,-0.51341 m 31.242549,-30.84343 -1.123925,1.12393 m -3.278842,3.27884 0.585387,-0.58539 m -4.305144,4.30515 -2.940303,2.9403 m -8.784695,8.7847 4.810912,-4.81092 m -8.424253,8.42426 -0.270014,0.27001 m -1.155311,1.15531 0.28933,-0.28933 m -2.65464,2.65464 -1.097982,1.09799 m -3.203508,3.2035 0.718974,-0.71897 m 30.938098,-30.53898 -1.063287,1.06329 m -3.46553,3.46553 0.637355,-0.63736 m -3.461326,3.46133 -3.463465,3.46347 m -5.358884,5.35888 1.39095,-1.39095 m -4.483988,4.48399 -0.592862,0.59286 m -3.794126,3.79412 0.125888,-0.12588 m -1.1376,1.1376 -0.335291,0.33529 m -3.201181,3.20118 0.776585,-0.77659 m -3.108847,3.10885 -0.934734,0.93474 m 30.548486,-30.14937 1.02594,-1.02594 m -2.58677,2.58677 -0.06963,0.0696 m -2.181302,2.1813 0.786548,-0.78654 m -2.150175,2.15017 -1.11716,1.11716 m -3.344042,3.34404 0.379279,-0.37928 m -4.248512,4.24852 -0.83497,0.83497 m -4.573037,4.57303 0.514202,-0.5142 m -4.075156,4.07516 -0.07872,0.0787 m -1.538695,1.53869 0.381252,-0.38125 m -2.865133,2.86514 -0.521395,0.52139 m -3.326708,3.32671 1.369392,-1.36939 m 30.197866,-29.79875 -1.014725,1.01473 m -1.81099,1.81099 0.46256,-0.46256 m -1.847218,1.84722 -2.65546,2.65546 m -3.639014,3.63901 0.280862,-0.28086 m -4.068718,4.06872 -0.650458,0.65045 m -5.104808,5.10481 0.611896,-0.61189 m -5.383882,5.38388 -0.427213,0.42721 m -2.958502,2.9585 0.415335,-0.41533 m -1.813439,1.81344 -1.886151,1.88615 m 30.547154,-30.14803 1.067338,-1.06734 m -2.157957,2.15796 -0.845798,0.84579 m -3.49157,3.49157 2.101655,-2.10165 m -5.778485,5.77848 -0.240084,0.24009 m -4.27395,4.27395 0.574774,-0.57478 m -5.249553,5.24956 -0.829678,0.82967 m -5.192982,5.19299 0.473173,-0.47318 m -3.075626,3.07563 -3.69341,3.69341 m 28.483468,-28.08435 3.320589,-3.32059 m -4.572443,4.57245 -1.560407,1.5604 m -4.181793,4.1818 0.194318,-0.19432 m -3.80931,3.80931 -0.478227,0.47823 m -6.15649,6.15649 0.303628,-0.30363 m -3.043857,3.04386 -0.07952,0.0795 m -2.158177,2.15818 0.547765,-0.54777 m -3.156328,3.15633 -3.754605,3.75461 m 28.583228,-28.18411 3.44678,-3.44678 m -4.621338,4.62134 -1.197181,1.19718 m -4.413845,4.41384 0.163869,-0.16386 m -3.731517,3.73151 -0.406574,0.40658 m -4.899488,4.89948 0.07613,-0.0761 m -1.216075,1.21608 -0.714503,0.7145 m -2.356507,2.35651 0.129848,-0.12985 m -1.887925,1.88792 -0.598604,0.59861 m -6.47267,6.47267 3.827937,-3.82794 m 28.443007,-28.04388 -5.561833,5.56183 m -4.606865,4.60686 0.152033,-0.15203 m -3.653725,3.65373 -0.342976,0.34297 m -5.030465,5.03047 0.225427,-0.22543 m -1.339876,1.33988 -3.034895,3.03489 m -2.651915,2.65192 0.689392,-0.6894 m -3.295858,3.29586 -3.996546,3.99655 m 32.039252,-31.64013 0.557075,-0.55708 m -1.890845,1.89085 -3.4299,3.4299 m -4.807945,4.80794 0.140197,-0.14019 m -3.581386,3.58138 -0.310142,0.31015 m -5.182245,5.18224 0.43174,-0.43174 m -1.406648,1.40665 -2.994507,2.9945 m -3.008449,3.00845 0.780179,-0.78017 m -3.294051,3.29405 -0.74259,0.74259 m -3.31615,3.31615 0.24638,-0.24638 m 32.513812,-32.11469 -0.49029,0.49029 m -2.334653,2.33465 0.62793,-0.62793 m -1.566497,1.5665 -1.354155,1.35415 m -4.981049,4.98105 0.139168,-0.13917 m -3.534702,3.5347 -0.255143,0.25515 m -9.050975,9.05097 4.357584,-4.35758 m -6.920647,6.92065 -0.86073,0.86073 m -2.863405,2.8634 0.539259,-0.53926 m -4.01581,4.01581 -0.231419,0.23142 m 32.501392,-32.10227 0.441593,-0.44159 m -2.259808,2.25981 -0.445869,0.44586 m -2.218183,2.21819 0.836192,-0.83619 m -5.842932,5.84293 -0.15688,0.15688 m -3.559105,3.5591 0.227968,-0.22796 m -4.845192,4.84519 -4.106788,4.10678 m -4.158013,4.15802 1.061702,-1.0617 m -2.897632,2.89763 -0.750369,0.75037 m -3.868418,3.86841 0.240634,-0.24063 m 32.889886,-32.49076 -0.434092,0.43409 m -2.244302,2.2443 0.335277,-0.33528 m -1.798736,1.79874 -0.587945,0.58795 m -5.346191,5.34619 0.174592,-0.1746 m -3.441332,3.44134 -0.205852,0.20585 m -8.314586,8.31458 1.343536,-1.34353 m -5.014949,5.01495 -3.684707,3.6847 m -3.868418,3.86842 0.241332,-0.24133 m 32.993035,-32.59391 -0.42606,0.42606 m -2.209523,2.20952 0.251403,-0.2514 m -1.746212,1.74621 -0.429914,0.42991 m -5.50366,5.50366 0.196455,-0.19645 m -3.422253,3.42225 -0.187106,0.18711 m -8.20228,8.20228 0.984568,-0.98457 m -4.906029,4.90603 -3.916297,3.9163 m -3.674644,3.67464 0.235972,-0.23597 m 33.102242,-32.70312 -0.418028,0.41803 m -2.28368,2.28368 0.278239,-0.27824 m -1.612384,1.61238 -0.365362,0.36536 m -5.650729,5.65073 0.221465,-0.22146 m -3.410203,3.4102 -0.179102,0.1791 m -8.02491,8.02491 0.5713,-0.5713 m -4.747278,4.74728 -4.086486,4.08649 m -3.554792,3.55479 0.292447,-0.29245 m 33.116164,-32.71704 -0.409995,0.41 m -2.369445,2.36944 0.316684,-0.31668 m -1.509077,1.50907 -0.27029,0.27029 m -5.788932,5.78894 0.23761,-0.23761 m -3.398154,3.39815 -0.171098,0.1711 m -7.949355,7.94935 0.418116,-0.41811 m -4.739474,4.73947 -4.270954,4.27095 m -3.385159,3.38516 0.284432,-0.28443 m 33.151753,-32.75263 -0.403344,0.40334 m -3.679689,3.67969 1.582008,-1.58201 m -7.255387,7.25539 -0.305063,0.30507 m -3.244135,3.24413 0.162362,-0.16236 m -7.701881,7.70188 -0.332452,0.33245 m -5.091211,5.09121 0.714341,-0.71434 m -3.631799,3.6318 -0.927903,0.9279 m -3.200741,3.20074 0.320809,-0.32081 m 33.140747,-32.74162 -0.413801,0.4138 m -3.542495,3.5425 1.449808,-1.44981 m -7.212891,7.21289 -0.373245,0.37324 m -3.164517,3.16452 0.160857,-0.16086 m -7.521386,7.52139 -0.483143,0.48314 m -5.099469,5.09947 0.765319,-0.76532 m -4.22808,4.22808 -0.506821,0.50683 m -3.097315,3.09731 0.298468,-0.29847 m 33.115373,-32.71625 -0.424259,0.42426 m -3.401064,3.40106 1.306808,-1.3068 m -7.163004,7.163 -0.442254,0.44225 m -3.124921,3.12493 0.199374,-0.19938 m -7.349054,7.34906 -0.628457,0.62845 m -5.188325,5.18833 0.988623,-0.98863 m -4.595332,4.59534 -0.446565,0.44656 m -2.951035,2.95104 0.276128,-0.27613 m 33.089998,-32.69088 -0.434717,0.43472 m -3.259631,3.25963 1.163809,-1.16381 m -7.074799,7.0748 -0.549583,0.54959 m -3.085325,3.08532 0.237891,-0.23789 m -7.06689,7.06689 -0.918404,0.9184 m -5.326864,5.32687 1.767099,-1.7671 m -5.432992,5.43299 -0.374235,0.37423 m -2.766383,2.76639 0.23935,-0.23935 m 33.028336,-32.62922 -0.445175,0.44518 m -3.118199,3.1182 1.03908,-1.03908 m -7.004865,7.00486 -0.660447,0.66045 m -3.042193,3.04219 0.276408,-0.27641 m -6.734895,6.7349 -1.275275,1.27527 m -5.443505,5.44351 2.079498,-2.0795 m -5.755961,5.75596 -0.328446,0.32845 m -2.584169,2.58417 0.180901,-0.1809 m 32.951519,-32.5524 -0.443247,0.44325 m -3.008808,3.0088 0.95028,-0.95027 m -6.938818,6.93881 -0.833269,0.83327 m -2.937103,2.93711 0.314924,-0.31493 m -6.495818,6.49582 -1.577219,1.57722 m -5.560054,5.56005 2.651673,-2.65167 m -6.276789,6.27679 -0.304649,0.30465 m -2.403981,2.40398 0.122453,-0.12246 m -5.833152,5.83316 -0.69198,0.69198 m 38.958514,-38.55939 0.437193,-0.4372 m -2.47513,2.47513 -0.857138,0.85714 m -7.021724,7.02172 1.007988,-1.00798 m -3.47662,3.47662 -0.394636,0.39463 m -7.785587,7.78559 1.971531,-1.97153 m -4.535887,4.53588 -3.077868,3.07787 m -3.847165,3.84717 0.282667,-0.28267 m -7.625831,7.62583 -1.895546,1.89555 m 39.429957,-39.03084 0.431139,-0.43114 m -2.448485,2.44849 -0.763996,0.764 m -7.267166,7.26716 1.284678,-1.28468 m -3.529405,3.52941 -0.516516,0.51651 m -7.837653,7.83766 2.407771,-2.40777 m -4.602839,4.60284 -3.487399,3.48739 m -3.750534,3.75054 0.293521,-0.29352 m -6.81573,6.81573 -3.001656,3.00166 m 39.740474,-39.34136 0.425085,-0.42508 m -2.410015,2.41001 -0.687965,0.68797 m -7.443421,7.44342 1.509324,-1.50933 m -3.592812,3.59282 -0.639631,0.63963 m -7.916349,7.91635 1.695119,-1.69512 m -3.546118,3.54612 -0.702897,0.70289 m -3.142185,3.14219 0.512016,-0.51202 m -3.831847,3.83185 -0.406088,0.40609 m -6.767766,6.76776 0.819532,-0.81953 m 36.681253,-36.28213 -0.419735,0.41973 m -2.577532,2.57754 0.633302,-0.63331 m -6.477852,6.47786 -0.423757,0.42375 m -1.423065,1.42307 0.110236,-0.11024 m -1.899545,1.89955 -0.810201,0.8102 m -7.89778,7.89778 0.522744,-0.52274 m -2.129602,2.1296 -0.647618,0.64762 m -3.552484,3.55248 0.387982,-0.38798 m -3.570631,3.57063 -1.668817,1.66881 m -4.88743,4.88743 0.703019,-0.70301 m -4.399096,4.39909 -0.191358,0.19136 m 40.326123,-39.927 0.423246,-0.42325 m -2.317913,2.31792 -0.578639,0.57864 m -6.112551,6.11255 0.401656,-0.40166 m -2.145924,2.14593 -0.165737,0.16573 m -2.410766,2.41077 1.029178,-1.02918 m -8.448684,8.44868 -0.416331,0.41633 m -1.988083,1.98809 0.558228,-0.55823 m -4.158693,4.15869 -0.357537,0.35754 m -4.439777,4.43978 1.432167,-1.43217 m -5.151413,5.15141 -0.924948,0.92495 m -4.733558,4.73356 0.697518,-0.69752 m 40.361958,-39.96284 -0.426758,0.42676 m -2.369081,2.36908 0.523976,-0.52397 m -6.086196,6.08619 -0.398878,0.39888 m -4.654378,4.65438 2.444979,-2.44498 m -9.786321,9.78632 -0.359452,0.35945 m -1.829149,1.82915 0.577616,-0.57761 m -4.596195,4.59619 -0.291446,0.29145 m -4.00366,4.00366 1.216616,-1.21662 m -4.968442,4.96844 -0.717629,0.71763 m -5.377806,5.37781 1.151988,-1.15199 m 40.080366,-39.68124 -0.430269,0.43027 m -2.264857,2.26485 0.469313,-0.46931 m -5.882857,5.88286 -0.403942,0.40394 m -4.980143,4.98014 2.232482,-2.23248 m -9.428279,9.42828 -0.324453,0.32445 m -1.718926,1.71893 0.512412,-0.51241 m -4.848178,4.84817 -0.323074,0.32308 m -3.568051,3.56805 1.055725,-1.05573 m -4.682783,4.68279 -0.702068,0.70207 m -6.020054,6.02005 1.775042,-1.77504 m 39.66311,-39.26399 -0.433781,0.43378 m -2.168757,2.16876 0.422776,-0.42278 m -5.679185,5.67919 -0.413914,0.41391 m -5.327834,5.32783 0.951405,-0.9514 m -7.921113,7.92111 -0.320247,0.32025 m -1.652036,1.65204 0.485533,-0.48554 m -5.112082,5.11209 -0.361023,0.36102 m -3.132443,3.13244 0.921312,-0.92131 m -4.428621,4.42862 -0.697746,0.69775 m -6.652356,6.65235 2.433564,-2.43356 m 39.216698,-38.81758 -0.437293,0.4373 m -2.081282,2.08128 0.384863,-0.38487 m -5.472917,5.47292 -0.42648,0.42648 m -5.657564,5.65757 0.928871,-0.92888 m -7.569249,7.56925 -0.416441,0.41644 m -1.634645,1.63465 0.494459,-0.49446 m -5.334572,5.33457 -0.448057,0.44806 m -2.763145,2.76315 0.892394,-0.8924 m -4.259753,4.25975 -0.646751,0.64675 m -7.245303,7.24531 0.639652,-0.63965 m 41.183363,-40.78425 -0.440804,0.44081 m -1.993808,1.99381 0.34695,-0.34695 m -5.26665,5.26665 -0.439047,0.43904 m -6.062852,6.06286 1.13817,-1.13817 m -7.410434,7.41043 -0.433225,0.43322 m -1.660318,1.66032 0.465068,-0.46507 m -5.516906,5.51691 -0.605769,0.60577 m -2.340019,2.34002 0.928069,-0.92807 m -4.145948,4.14595 -0.589846,0.58984 m -7.838249,7.83825 0.427494,-0.42749 m 41.568274,-41.16915 -0.444316,0.44431 m -1.906333,1.90634 0.309038,-0.30904 m -5.060383,5.06038 -0.451613,0.45161 m -6.567619,6.56762 1.488844,-1.48884 m -7.132045,7.13205 -0.609264,0.60926 m -1.70595,1.70595 0.453419,-0.45342 m -5.658067,5.65807 -2.721546,2.72154 m -3.656147,3.65615 0.612053,-0.61205 m -8.702753,8.70275 -0.285689,0.28569 m 41.720694,-41.32157 0.440392,-0.44039 m -1.978356,1.97835 -0.280895,0.2809 m -5.038662,5.03866 0.462927,-0.46293 m -5.687623,5.68762 -1.67989,1.67989 m -5.907124,5.90713 0.714466,-0.71447 m -2.090739,2.09074 -0.456402,0.4564 m -7.917872,7.91787 2.578588,-2.57858 m -5.373318,5.37331 -0.504597,0.5046 m -9.05324,9.05324 0.210053,-0.21005 m 42.12293,-41.72381 -0.434,0.434 m -1.731383,1.73138 0.260505,-0.2605 m -4.706745,4.70674 -0.42599,0.42599 m -7.41659,7.41659 2.057322,-2.05732 m -6.557895,6.5579 -0.854782,0.85478 m -1.998702,1.9987 0.430364,-0.43036 m -5.866543,5.86654 -2.51249,2.51249 m -2.959134,2.95913 0.422087,-0.42208 m -9.783707,9.7837 -0.247323,0.24733 m 42.017645,-41.61852 0.427607,-0.42761 m -1.831401,1.8314 -0.240115,0.24011 m -4.705798,4.7058 0.389053,-0.38905 m -5.882661,5.88266 -0.436219,0.43622 m -2.694081,2.69408 1.814984,-1.81498 m -4.41833,4.41833 -1.495366,1.49536 m -2.174288,2.17429 0.404326,-0.40433 m -5.921025,5.92103 -0.69001,0.69001 m -1.832883,1.83288 0.842884,-0.84288 m -2.88564,2.88564 -0.516059,0.51606 m -10.142518,10.14251 0.305512,-0.30551 m 42.229881,-41.83076 -0.421215,0.42122 m -1.556434,1.55643 0.219725,-0.21972 m -4.406974,4.40697 -0.352116,0.35212 m -6.005417,6.00542 0.391422,-0.39143 m -2.238115,2.23812 -4.801215,4.80121 m -2.393274,2.39328 0.396531,-0.39653 m -5.950328,5.95032 -0.549563,0.54957 m -4.162222,4.16222 2.967042,-2.96704 m -13.266437,13.26643 -0.335608,0.33561 m 42.170959,-41.77183 0.413485,-0.41349 m -1.67721,1.67721 -0.206571,0.20657 m -4.372933,4.37294 0.300825,-0.30083 m -6.035206,6.03521 -0.35934,0.35934 m -6.578361,6.57836 3.974787,-3.97479 m -6.142894,6.14289 -0.361635,0.36164 m -5.955771,5.95577 0.403455,-0.40346 m -1.874062,1.87407 -2.653973,2.65397 m -8.197155,8.19715 0.421594,-0.42159 m -2.787164,2.78716 -0.352563,0.35257 m 42.150928,-41.75181 0.423495,-0.42349 m -1.586531,1.58653 -0.203384,0.20338 m -4.2065,4.2065 0.206409,-0.20641 m -6.061175,6.06118 -0.327257,0.32726 m -6.480268,6.48026 3.135448,-3.13544 m -5.503466,5.50346 -0.326739,0.32674 m -5.86925,5.86925 0.318416,-0.31842 m -1.948588,1.94859 -1.936306,1.93631 m -9.751837,9.75184 1.90088,-1.90088 m -3.4305,3.4305 -0.344493,0.34449 m 42.101881,-41.70276 0.433505,-0.4335 m -1.49585,1.49584 -0.200196,0.2002 m -3.999529,3.99953 0.07145,-0.0715 m -6.087144,6.08714 -0.295175,0.29518 m -6.572889,6.57289 1.927556,-1.92756 m -4.30847,4.30847 -0.288144,0.28814 m -5.777722,5.77773 0.228371,-0.22837 m -2.019658,2.01965 -1.264249,1.26425 m -10.771243,10.77124 2.405666,-2.40566 m -3.572308,3.57231 -0.340253,0.34025 m 42.036515,-41.63739 0.443516,-0.44352 m -1.403313,1.40331 -0.207658,0.20766 m -10.234186,10.23419 0.273803,-0.27381 m -5.549947,5.54995 -1.427673,1.42768 m -2.597606,2.5976 0.247743,-0.24774 m -5.755838,5.75584 -0.174834,0.17483 m -2.791852,2.79185 0.839451,-0.83945 m -9.88068,9.88068 -2.242985,2.24299 m -1.371953,1.37195 0.312849,-0.31285 m 42.084925,-41.6858 -0.45067,0.45067 m -1.08424,1.08424 0.261321,-0.26132 m -10.157851,10.15785 -0.253725,0.25372 m -7.071029,7.07103 1.085255,-1.08525 m -3.166489,3.16649 -0.207597,0.20759 m -5.60333,5.60333 0.161443,-0.16144 m -2.247952,2.24795 -0.436643,0.43664 m -11.913135,11.91314 0.917305,-0.91731 m -1.738802,1.73881 -0.285909,0.2859 m 41.808282,-41.40915 0.504012,-0.50402 m -1.162405,1.16241 -0.296444,0.29644 m -10.066325,10.06633 0.233647,-0.23365 m -6.937196,6.9372 -0.818678,0.81867 m -1.896069,1.89607 0.16745,-0.16745 m -5.508926,5.50893 -0.191734,0.19173 m -2.552531,2.55253 0.355364,-0.35536 m -11.840087,11.84009 -1.592634,1.59263 m 40.844026,-40.4449 1.382788,-1.38279 m -11.1507,11.1507 -0.214482,0.21448 m -7.84198,7.84198 0.732856,-0.73285 m -2.233906,2.2339 -0.133704,0.13371 m -5.46309,5.46309 0.322942,-0.32295 m -2.630766,2.63077 -0.292608,0.29261 m -13.11565,13.11565 1.258756,-1.25876 m 40.882578,-40.48345 -1.306726,1.30672 m -9.898464,9.89847 0.202965,-0.20297 m -7.588713,7.58871 -0.829866,0.82987 m -1.319556,1.31956 0.131321,-0.13132 m -3.755076,3.75507 -1.769217,1.76922 m -2.69673,2.69673 0.27825,-0.27825 m -12.301462,12.30146 -1.082333,1.08233 m 40.825188,-40.42606 1.230665,-1.23067 m -10.85375,10.85375 -0.191449,0.19145 m -8.493663,8.49367 0.610112,-0.61012 m -1.548028,1.54803 -0.162028,0.16203 m -5.322851,5.32285 1.342323,-1.34232 m -3.871462,3.87146 -0.263892,0.26389 m -13.084907,13.08491 0.895684,-0.89569 m 41.056773,-40.65765 -1.14722,1.14722 m -9.730603,9.73061 0.179932,-0.17994 m -8.446313,8.44632 -1.385662,1.38566 m -5.275021,5.27502 1.013841,-1.01384 m -3.634945,3.63494 -0.265096,0.2651 m -13.035148,13.03515 0.758601,-0.7586 m 41.076827,-40.67771 -1.060106,1.06011 m -9.646672,9.64667 0.168416,-0.16841 m -8.817627,8.81762 -1.026277,1.02628 m -5.266215,5.26621 0.695347,-0.69534 m -3.405454,3.40545 -0.270121,0.27012 m -12.980498,12.9805 0.622158,-0.62216 m 41.096243,-40.69712 -0.972993,0.97299 m -9.562742,9.56275 0.156899,-0.1569 m -9.188939,9.18894 -0.651828,0.65183 m -5.272472,5.27247 0.530261,-0.53026 m -3.329371,3.32937 -0.275147,0.27514 m -12.925847,12.92585 0.529827,-0.52983 m 41.071545,-40.67242 -0.885879,0.88588 m -9.478811,9.47881 0.145383,-0.14538 m -14.703559,14.70356 -0.412803,0.4128 m -3.17548,3.17548 0.287367,-0.28737 m -12.719374,12.71938 -0.431994,0.43199 m 40.685579,-40.28646 0.798765,-0.79876 m -10.061245,10.06124 -0.126041,0.12605 m -14.991977,14.99197 0.342413,-0.34241 m -3.31953,3.31953 -0.304198,0.3042 M 17.485909,295.45 l 0.37725,-0.37725 m 40.990067,-40.59094 -0.72371,0.72371 m -9.287633,9.28763 0.128967,-0.12897 m -14.854654,14.85466 -0.285828,0.28583 m -3.387149,3.38715 0.321029,-0.32103 m -12.730631,12.73063 -0.321487,0.32148 m 40.595832,-40.19671 0.654457,-0.65445 m -9.696828,9.69683 -0.138571,0.13857 m -15.031052,15.03105 0.229244,-0.22925 m -3.384368,3.38437 -0.33786,0.33786 m -12.664632,12.66463 0.285345,-0.28534 m 40.847916,-40.44879 -0.585205,0.5852 m -9.074251,9.07425 0.148175,-0.14817 m -14.991936,14.99193 -0.237307,0.23731 m -3.56834,3.56834 0.354692,-0.35469 m -12.683934,12.68393 -0.247406,0.24741 m 40.478753,-40.07963 0.515952,-0.51596 m -9.325732,9.32574 -0.157779,0.15778 m -15.129999,15.13 0.252344,-0.25235 m -3.525603,3.5256 -0.371523,0.37153 m -12.486122,12.48612 0.206925,-0.20693 M 59.29,255.64152 l -0.448708,0.44871 m -8.85886,8.85886 0.167383,-0.16738 m -15.078932,15.07893 -0.267381,0.26738 m -3.721223,3.72123 0.381397,-0.3814 m -12.579061,12.57906 -0.197933,0.19793 m 40.311267,-39.91214 0.401245,-0.40125 m -8.952748,8.95275 -0.16145,0.16145 m -15.245288,15.24529 0.282418,-0.28242 m -3.703643,3.70364 -0.376439,0.37644 m -12.279892,12.2799 0.183986,-0.18399 m 40.362249,-39.96313 -0.353781,0.35378 m -8.562322,8.56233 0.193494,-0.1935 m -15.219192,15.21919 -0.290672,0.29068 m -3.874105,3.8741 0.37148,-0.37148 m -12.361419,12.36142 -0.168655,0.16866 m 40.068049,-39.66893 0.285508,-0.28551 m -8.471663,8.47166 -0.225538,0.22554 m -15.387451,15.38745 0.296043,-0.29604 m -3.880068,3.88007 -0.366521,0.36652 m -11.995791,11.99579 0.181,-0.181 m 39.936316,-39.53719 -0.233691,0.23369 m -8.242548,8.24254 0.257582,-0.25758 m -15.414702,15.41471 -0.301414,0.30141 m -4.028339,4.02834 0.362914,-0.36292 m -12.013431,12.01343 -0.170256,0.17026 m 39.669047,-39.26992 0.201164,-0.20117 m -7.965652,7.96565 -0.289626,0.28963 m -15.545104,15.5451 0.322274,-0.32227 m -4.053609,4.05361 -0.359899,0.3599 m -11.602972,11.60297 0.237568,-0.23757 m 39.343348,-38.94422 -0.168638,0.16863 m -7.866143,7.86615 0.326862,-0.32686 m -15.635475,15.63547 -0.330958,0.33096 m -4.145771,4.14577 0.356884,-0.35689 m -11.413554,11.41356 -0.323805,0.3238 m 39.141157,-38.74203 0.134025,-0.13403 m -7.401124,7.40113 -0.35572,0.35572 m -15.779735,15.77973 0.333925,-0.33392 m -4.180363,4.18036 -0.353869,0.35387 m -11.058477,11.05848 0.399572,-0.39957 m 38.461455,-38.06234 -0.116925,0.11693 m -7.366494,7.36649 0.39801,-0.39801 m -15.967585,15.96759 -0.336892,0.33689 m -4.254842,4.25484 0.350854,-0.35085 m -9.535833,9.53583 -1.446772,1.44677 m 38.242317,-37.84319 0.09983,-0.0998 m -6.769693,6.76969 -0.4403,0.4403 m -16.0332,16.0332 0.339859,-0.33985 m -4.302468,4.30246 -0.346769,0.34677 m -9.995482,9.99548 3.659414,-3.65941 m 33.954302,-33.55518 -0.08909,0.0891 m -6.847475,6.84748 0.48259,-0.48259 m -16.30314,16.30314 -0.339382,0.33938 m -4.363914,4.36391 0.342555,-0.34255 m -6.340938,6.34094 -3.388141,3.38814 m 36.804217,-36.4051 0.108384,-0.10838 m -6.142311,6.14231 -0.491524,0.49153 m -16.315971,16.31597 0.323883,-0.32389 m -4.403992,4.404 -0.338341,0.33834 m -6.961023,6.96102 2.300298,-2.3003 m 32.094645,-31.69552 -0.127677,0.12768 m -6.194372,6.19437 0.518503,-0.51851 m -16.691183,16.69119 -0.308384,0.30838 m -4.472985,4.47299 0.334126,-0.33413 m -4.227954,4.22795 -1.10478,1.10478 M 60.165163,259.955 60.29875,259.82141 m -5.439204,5.43921 -0.545483,0.54548 m -16.668016,16.66802 0.314744,-0.31475 m -4.490494,4.4905 -0.329912,0.32991 m -4.242391,4.24239 1.090769,-1.09077 m 30.355715,-29.95659 -0.173913,0.17391 m -5.479052,5.47905 0.572463,-0.57246 m -17.106327,17.10633 -0.321017,0.32101 m -4.538426,4.53843 0.325698,-0.3257 m -3.287195,3.2872 -1.035004,1.035 m 30.889005,-30.48988 0.199496,-0.1995 m -4.721801,4.7218 -0.605692,0.60569 m -17.035496,17.0355 0.325744,-0.32574 m -4.57545,4.57545 -0.321483,0.32148 m -3.266876,3.26688 0.709332,-0.70934 m 29.537451,-29.13833 -0.292869,0.29287 m -4.684236,4.68424 0.622718,-0.62272 m -17.546861,17.54686 -0.316885,0.31689 m -4.603953,4.60395 0.317269,-0.31727 m -2.47086,2.47086 -0.651988,0.65199 m 29.277527,-28.8784 0.395867,-0.39587 m -3.946876,3.94687 -0.68991,0.68991 m -17.436492,17.4365 0.308026,-0.30803 m -4.626813,4.62681 -0.317928,0.31793 m -2.496551,2.49655 0.783292,-0.78329 m 28.46898,-28.06986 -0.524322,0.52432 m -3.772143,3.77215 0.844292,-0.84429 m -18.177081,18.17708 -0.299167,0.29916 m -4.669479,4.66948 0.333534,-0.33353 m -1.710946,1.71094 -0.703192,0.7032 m 28.052409,-27.65329 0.671824,-0.67182 m -3.08592,3.08592 -0.870225,0.87022 m -17.82742,17.82742 0.290308,-0.29031 m -4.643412,4.64342 -0.349139,0.34913 m -1.734496,1.7345 0.704729,-0.70473 m 27.561303,-27.16218 -3.668558,3.66856 m -17.978927,17.97893 0.290225,-0.29023 m -4.651711,4.65171 -0.364744,0.36475 m -1.445805,1.4458 0.763682,-0.76368 m 27.101566,-26.70244 -3.373261,3.37326 m -18.151775,18.15177 0.292641,-0.29264 m -4.648877,4.64888 -1.523336,1.52333 m 24.372372,-23.97325 3.077965,-3.07796 m -21.110626,21.11062 -0.291962,0.29197 m -5.630011,5.63001 1.279024,-1.27903 m 25.799303,-25.40018 -2.845128,2.84513 m -18.435011,18.43501 0.291283,-0.29128 m -4.63702,4.63702 -1.034227,1.03423 m 24.078902,-23.67978 2.62693,-2.62693 m -20.867088,20.86708 -0.290604,0.29061 m -5.214278,5.21428 0.873792,-0.87379 m 25.543906,-25.14479 -0.732408,0.73241 m -1.676323,1.67632 0.370708,-0.37071 m -18.707295,18.7073 -0.289924,0.28992 m -4.960206,4.96021 0.624968,-0.62497 m 25.391536,-24.99241 -0.496092,0.49609 m -1.722635,1.72264 0.272232,-0.27224 m -18.659661,18.65966 -0.281966,0.28197 m -4.786496,4.7865 0.456509,-0.45651 m 25.245665,-24.84654 -0.340296,0.34029 m -1.715084,1.71508 0.282399,-0.28239 m -18.708535,18.70853 -0.268693,0.26869 m -4.65507,4.65507 0.339597,-0.33959 m 25.093239,-24.69412 -0.285267,0.28527 m -1.606767,1.60677 0.330768,-0.33077 m -18.795611,18.79561 -0.278942,0.27894 m -4.533764,4.53376 0.268646,-0.26864 m 24.928493,-24.52937 -0.203399,0.2034 m -1.544515,1.54451 0.422342,-0.42234 m -18.906666,18.90667 -0.289191,0.28919 m -4.494366,4.49436 0.279605,-0.2796 m 24.763746,-24.36463 -1.628207,1.62821 m -18.778831,18.77883 0.29944,-0.29944 m -4.463845,4.46385 -0.372897,0.37289 m 23.463397,-23.06427 1.508499,-1.5085 m -19.99108,19.99108 -0.301568,0.30157 m -4.539361,4.53936 0.425312,-0.42531 m 24.434254,-24.03514 -1.388792,1.3888 m -18.789467,18.78946 0.292902,-0.2929 m -4.356594,4.3566 -0.412939,0.41294 m 23.413361,-23.01424 1.269085,-1.26909 m -19.779631,19.77963 -0.284237,0.28424 m -4.379887,4.37989 0.388192,-0.3882 m 24.08312,-23.68399 -1.161665,1.16166 m -18.803027,18.80303 0.290785,-0.29079 m -4.186256,4.18626 -0.35732,0.35732 m 23.167746,-22.76862 1.077293,-1.0773 m -19.568182,19.56819 -0.317682,0.31768 m -4.093742,4.09374 0.314844,-0.31484 m 23.692318,-23.2932 -0.992921,0.99292 m -18.814116,18.81412 0.320131,-0.32013 m -3.982455,3.98245 -0.251864,0.25186 m 22.840233,-22.4411 0.908548,-0.90855 m -19.408539,19.40854 -0.31967,0.31967 m -3.734633,3.73463 0.220953,-0.22095 m 23.269446,-22.87033 -0.824176,0.82418 m -18.825206,18.8252 0.31921,-0.31921 m -3.655168,3.65517 -0.204594,0.2046 m 22.473962,-22.07484 0.743529,-0.74353 m -19.251806,19.2518 -0.305998,0.306 m -3.348613,3.34861 0.177626,-0.17762 m 22.756347,-22.35723 -0.690217,0.69022 m -18.828623,18.82862 0.324492,-0.32449 m -3.260364,3.26037 -0.168188,0.16818 m 22.013551,-21.61442 0.618799,-0.6188 m -19.117265,19.11726 -0.344504,0.34451 m -2.885527,2.88552 0.247481,-0.24748 m 22.112462,-21.71334 -0.550577,0.55058 m -13.744188,13.74419 0.338992,-0.33899 m -5.087606,5.0876 -0.372636,0.37264 m -2.572521,2.57252 0.240422,-0.24042 m 21.76076,-21.36164 -0.482355,0.48235 m -13.782925,13.78293 0.932658,-0.93266 m -5.636869,5.63687 -0.432447,0.43245 m -2.265456,2.26545 0.287451,-0.28745 m 21.39259,-20.99347 -0.412213,0.41222 m -13.813274,13.81327 1.355778,-1.35578 m -6.025896,6.0259 -0.497508,0.49751 m -1.95314,1.95314 0.372341,-0.37234 m 20.986558,-20.58744 -0.374586,0.37459 m -12.410093,12.41009 0.381164,-0.38116 m -1.06453,1.06453 -0.661336,0.66133 m -5.380178,5.38018 0.687841,-0.68784 m -1.773611,1.77361 -0.399479,0.39948 m 20.670496,-20.27137 0.336959,-0.33696 M 49.32614,283.96517 48.934317,284.357 m -1.639946,1.63994 0.59864,-0.59864 m -5.313825,5.31383 -1.902606,1.9026 m 20.363752,-19.96463 0.299332,-0.29933 m -11.598241,11.59824 -0.402482,0.40249 m -1.939648,1.93964 0.540401,-0.5404 m -5.273974,5.27398 -1.632122,1.63212 m 20.057008,-19.65789 0.261705,-0.2617 m -11.195605,11.1956 -0.413142,0.41315 m -2.228316,2.22831 0.47113,-0.47113 m -5.234125,5.23413 -1.33251,1.33251 m 19.721618,-19.3225 0.223596,-0.22359 m -10.792968,10.79296 -0.423801,0.4238 m -2.567382,2.56739 0.452256,-0.45226 m -5.138846,5.13885 -1.090876,1.09087 m 19.354087,-18.95496 0.220177,-0.22018 m -10.390332,10.39033 -0.43446,0.43446 m -2.899514,2.89952 0.426447,-0.42645 m -5.001187,5.00119 -0.891619,0.89162 m 18.986554,-18.58744 0.216758,-0.21675 m -9.987696,9.98769 -0.445119,0.44512 m -3.28252,3.28252 0.451514,-0.45151 m -4.828394,4.82839 -0.700491,0.70049 m 18.592014,-18.19289 0.213338,-0.21334 m -9.58494,9.58494 -0.455897,0.4559 m -3.660924,3.66092 0.462082,-0.46208 m -4.557071,4.55707 -0.598294,0.5983 m 18.171241,-17.77212 0.236449,-0.23645 m -9.186816,9.18681 -0.462044,0.46205 m -4.223165,4.22316 0.654805,-0.6548 m -4.260275,4.26027 -0.519887,0.51989 m 17.783227,-17.3841 0.226802,-0.22681 m -8.788692,8.7887 -0.468191,0.46819 m -4.586326,4.58632 0.648448,-0.64844 m -3.914363,3.91436 -0.490597,0.49059 m 17.344602,-16.94547 0.267765,-0.26777 m -8.390567,8.39057 -0.458786,0.45878 m -5.131611,5.13161 0.808661,-0.80866 m -3.499975,3.49998 -0.590624,0.59062 m 16.966821,-16.5677 0.308729,-0.30872 m -7.996608,7.9966 -0.448808,0.44881 m -8.230557,8.23056 3.43473,-3.43473 m 13.237953,-12.83883 -0.33874,0.33874 m -7.6868,7.6868 0.476836,-0.47684 m -5.740567,5.74057 -2.89645,2.89645 m 15.785582,-15.38646 0.394439,-0.39444 m -7.098391,7.09839 -0.552115,0.55212 m -7.955272,7.95527 2.128432,-2.12843 m 13.471645,-13.07253 -0.486754,0.48676 m -6.639903,6.6399 0.462867,-0.46287 m 6.658089,-6.25896 -0.626619,0.62662 m -6.043756,6.04375 0.513189,-0.51319 m 6.151485,-5.75236 -0.73753,0.73753 m -5.52927,5.52927 0.766269,-0.76627 m 5.426121,-5.027 -1.039441,1.03944 m -4.559781,4.55979 0.568873,-0.56888 m 4.975172,-4.57605 -1.649213,1.64922 m -3.388049,3.38804 0.761299,-0.76129 m 4.24426,-3.84514 -4.372796,4.3728 m 0.527486,-0.12837 3.549742,-3.54974 m 0.03081,0.36831 -2.655896,2.6559 m 0.92744,-0.52832 0.370997,-0.371"
         inkscape:connector-curvature="0" />
    </g>
  </g>
</svg>
