<?xml version="1.0" encoding="UTF-8" standalone="no"?>
<!-- Created with Inkscape (http://www.inkscape.org/) -->

<svg
   xmlns:dc="http://purl.org/dc/elements/1.1/"
   xmlns:cc="http://creativecommons.org/ns#"
   xmlns:rdf="http://www.w3.org/1999/02/22-rdf-syntax-ns#"
   xmlns:svg="http://www.w3.org/2000/svg"
   xmlns="http://www.w3.org/2000/svg"
   xmlns:sodipodi="http://sodipodi.sourceforge.net/DTD/sodipodi-0.dtd"
   xmlns:inkscape="http://www.inkscape.org/namespaces/inkscape"
   width="50mm"
   height="50mm"
   viewBox="0 0 50 50"
   version="1.1"
   id="svg1586"
   inkscape:version="0.92.2 2405546, 2018-03-11"
   sodipodi:docname="50.svg">
  <sodipodi:namedview
     id="base"
     pagecolor="#ffffff"
     bordercolor="#666666"
     borderopacity="1.0"
     inkscape:pageopacity="0.0"
     inkscape:pageshadow="2"
     inkscape:zoom="0.82577735"
     inkscape:cx="97.561143"
     inkscape:cy="115.43908"
     inkscape:document-units="mm"
     inkscape:current-layer="layer1"
     showgrid="false"
     inkscape:window-width="1366"
     inkscape:window-height="703"
     inkscape:window-x="0"
     inkscape:window-y="0"
     inkscape:window-maximized="1" />
  <defs
     id="defs1580" />
  <metadata
     id="metadata1583">
    <rdf:RDF>
      <cc:Work
         rdf:about="">
        <dc:format>image/svg+xml</dc:format>
        <dc:type
           rdf:resource="http://purl.org/dc/dcmitype/StillImage" />
        <dc:title></dc:title>
      </cc:Work>
    </rdf:RDF>
  </metadata>
  <g
     transform="translate(0,-247)"
     id="layer1"
     inkscape:groupmode="layer"
     inkscape:label="Layer 1">
    <g
       id="g895"
       transform="translate(-4.6216712,1.8227195e-6)">
      <path
         id="path880"
         d="m 19.531765,296.28802 c -0.688609,-0.36411 -1.407806,-1.00228 -1.598221,-1.41815 -0.190415,-0.41588 -0.756339,-0.85788 -1.257616,-0.98223 -1.445181,-0.35849 -2.528332,-1.59122 -2.528332,-2.87748 0,-1.11094 1.802535,-4.1251 2.466889,-4.1251 0.168564,0 1.056872,-0.66078 1.974003,-1.4684 1.54535,-1.36083 1.667516,-1.59395 1.667516,-3.18201 0,-1.26147 -0.2367,-2.03589 -0.897111,-2.93502 -1.906015,-2.59503 -2.420386,-4.17588 -2.277814,-7.00048 0.126268,-2.50147 0.09159,-2.64281 -0.697054,-2.84082 -0.456458,-0.11461 -0.92768,-0.48664 -1.047149,-0.82674 -0.119475,-0.34009 -0.530707,-1.32752 -0.913854,-2.19429 -0.899982,-2.03598 -0.628805,-3.50458 1.009308,-5.46606 1.132327,-1.35585 1.236485,-1.65917 1.033883,-3.01076 -0.151189,-1.00863 -0.03869,-1.94982 0.342043,-2.86141 0.535802,-1.28286 0.527551,-1.40902 -0.148358,-2.26864 -0.427821,-0.54411 -0.715708,-1.45639 -0.715708,-2.26802 0,-1.31003 0.05195,-1.36656 1.476895,-1.60741 1.194288,-0.20185 1.672803,-0.10472 2.500674,0.5076 1.287865,0.95255 1.412202,0.94642 1.412202,-0.0695 0,-0.81763 0.593361,-1.68948 1.149821,-1.68948 0.158102,0 0.287448,0.24264 0.287448,0.53919 0,0.61133 0.23658,0.66241 2.571114,0.55505 1.63098,-0.075 2.726845,0.36462 4.384791,1.759 0.367304,0.30891 1.175775,0.56166 1.796588,0.56166 1.093287,0 1.129809,0.0508 1.162203,1.61758 0.01838,0.88968 0.239522,2.10286 0.491408,2.69598 0.251869,0.59311 0.455778,2.01917 0.453121,3.16902 -0.004,1.76334 -0.260922,2.59628 -1.640611,5.3205 -1.338938,2.64376 -1.536632,3.26791 -1.089438,3.43959 0.300487,0.11535 0.979326,-0.11051 1.508528,-0.50192 2.785898,-2.0605 5.482973,-2.44321 8.277615,-1.1746 1.893374,0.85949 1.725149,0.85724 1.94247,0.0258 0.299274,-1.14488 -0.995897,-3.36326 -2.90205,-4.9707 -2.641781,-2.22777 -3.253197,-4.96637 -1.771968,-7.93677 0.289246,-0.58004 0.407582,-1.27723 0.26296,-1.54931 -0.144616,-0.27209 -0.344714,-1.26306 -0.444677,-2.20216 -0.134679,-1.26534 -0.05907,-1.70745 0.291903,-1.70745 0.260502,0 0.588701,0.18627 0.729346,0.41392 0.177409,0.28718 0.402675,0.21286 0.735653,-0.24271 0.414603,-0.56723 0.59672,-0.59412 1.33752,-0.19749 0.642171,0.34382 1.043853,0.3594 1.599308,0.062 1.093593,-0.58551 1.345884,0.12963 0.600575,1.70233 -0.343377,0.72456 -0.811482,1.72178 -1.040237,2.21605 -0.228762,0.49426 -0.752184,0.94744 -1.163161,1.00706 -1.501889,0.21791 -2.084581,3.42502 -0.933148,5.13603 0.344548,0.51198 1.24232,1.46722 1.995047,2.12275 2.521873,2.19618 3.645476,5.60342 2.640968,8.00851 -0.490383,1.17412 -0.4919,1.43776 -0.01378,2.39661 1.360076,2.7274 0.937057,5.36473 -1.292501,8.05831 -1.494301,1.80531 -1.863418,3.32784 -0.896745,3.69893 0.301932,0.11591 0.713217,0.5178 0.913987,0.89308 0.294872,0.5512 0.08578,1.07247 -1.087932,2.7122 -1.631721,2.27958 -1.892022,4.11985 -0.913987,6.46156 1.424328,3.41026 0.01598,5.15677 -4.158202,5.15677 -2.012322,0 -3.926455,-1.3086 -3.926455,-2.68432 0,-0.57769 -0.325028,-0.95777 -1.090124,-1.27482 -1.561493,-0.64705 -2.544842,-2.02134 -2.27798,-3.18361 0.421294,-1.83487 2.025996,-3.66503 4.460864,-5.08764 1.631695,-0.95335 2.544822,-1.74701 2.845509,-2.47322 0.560651,-1.35408 0.32991,-1.70821 -1.463134,-2.24564 -1.375661,-0.41233 -1.485913,-0.38652 -2.230657,0.52234 -1.150161,1.40361 -3.048996,2.06539 -5.196252,1.81097 -1.620658,-0.19202 -1.852823,-0.12845 -2.341593,0.64119 -1.069106,1.68344 -1.099574,3.66263 -0.100982,6.557 1.158826,3.35879 1.159625,4.20987 0.0053,5.58234 -1.499491,1.78277 -4.172232,2.28292 -6.270573,1.1734 z"
         style="fill:none;stroke:#ff0000;stroke-width:0.1;stroke-miterlimit:4;stroke-dasharray:none"
         inkscape:connector-curvature="0" />
      <path
         id="path878"
         d="m 26.005093,292.82067 c 0,-1.02386 -0.609085,-1.67633 -2.720365,-2.91412 -1.793285,-1.05136 -1.777588,-1.58363 0.04669,-1.58363 1.445047,0 1.51313,-0.19819 0.455145,-1.32483 -0.88296,-0.94024 -1.374641,-1.06305 -1.374641,-0.34335 0,0.26873 -0.563306,1.19884 -1.251789,2.06692 l -1.251782,1.5783 1.199976,0.29305 c 0.677748,0.16551 1.873941,0.98004 2.748583,1.87159 1.634803,1.66642 2.148188,1.75151 2.148188,0.35607 z"
         style="fill:none;stroke:#0000ff;stroke-width:0.1;stroke-miterlimit:4;stroke-dasharray:none"
         inkscape:connector-curvature="0" />
      <path
         id="path876"
         d="m 40.723537,292.36687 c -0.0075,-0.14827 -0.736991,-0.83575 -1.621139,-1.52772 -1.377084,-1.07776 -1.527275,-1.31708 -1.047655,-1.66943 0.307941,-0.22621 0.875762,-0.32867 1.261826,-0.22767 0.97986,0.25635 0.875762,-0.43017 -0.192724,-1.27098 -0.707837,-0.557 -0.797724,-0.7845 -0.430452,-1.08944 0.255312,-0.21197 0.79731,-0.29827 1.204425,-0.19176 0.986844,0.25817 1.481595,-0.92505 0.643242,-1.53832 -0.799488,-0.58483 -0.349803,-1.20166 0.87604,-1.20166 1.442471,0 1.587313,-0.35351 0.541943,-1.32271 -0.762593,-0.70704 -0.901594,-1.11786 -0.802625,-2.37231 l 0.119697,-1.51719 -1.706754,0.0582 c -0.938724,0.032 -1.706764,-0.0589 -1.706764,-0.20199 0,-0.14311 0.518694,-0.64384 1.152647,-1.11273 1.155415,-0.85458 2.819041,-1.10197 3.935174,-0.58518 0.43428,0.20108 0.663694,0.0638 0.844165,-0.50499 0.537067,-1.69284 -1.809506,-2.07918 -4.448378,-0.73239 -2.021812,1.03187 -2.440829,0.63796 -1.098682,-1.03284 1.383319,-1.72204 3.464823,-2.70722 5.143968,-2.43462 l 1.241718,0.20158 -0.44985,-1.29987 c -0.247417,-0.71494 -0.697214,-1.45598 -0.999559,-1.64677 -0.92122,-0.58133 -3.661739,1.01361 -5.192862,3.02216 -0.744677,0.97689 -1.482436,1.77616 -1.639452,1.77616 -0.15701,0 -0.285483,-0.45351 -0.285483,-1.00781 0,-1.55317 1.661862,-4.53288 3.098385,-5.55539 1.195748,-0.85113 1.239955,-0.94603 0.600188,-1.28857 -0.577831,-0.30937 -0.974471,-0.0947 -2.428642,1.31463 -1.863,1.80551 -3.04588,3.95136 -3.058626,5.54861 -0.01171,1.46827 -0.628239,1.19649 -0.897086,-0.39546 -0.215275,-1.27469 0.18672,-2.9525 1.433985,-5.98501 0.291724,-0.70925 0.285217,-0.70971 -0.483861,-0.0342 -0.428768,0.37662 -0.779568,0.83225 -0.779568,1.01251 0,0.18025 -0.396095,0.84725 -0.880223,1.48222 -1.417137,1.85872 -2.337272,4.24232 -2.34575,6.07667 -0.0047,0.9391 -0.148571,1.70745 -0.320506,1.70745 -0.584138,0 -1.226881,-3.20201 -0.989921,-4.93153 l 0.231012,-1.68607 -1.228227,1.19093 c -0.675529,0.655 -1.737822,2.1844 -2.360666,3.39865 l -1.13244,2.20775 0.148804,-2.80497 c 0.08185,-1.54274 0.334232,-2.99047 0.560863,-3.2172 0.909778,-0.91015 0.316623,-0.95109 -1.37259,-0.0948 -0.981551,0.49759 -2.227845,0.90472 -2.769534,0.90472 -0.932728,0 -0.871505,-0.10412 1.155835,-1.96564 2.520667,-2.31449 3.923805,-3.06685 5.719594,-3.06685 0.722887,0 1.227321,-0.14086 1.120959,-0.31303 -0.231606,-0.3749 -2.288969,-0.88682 -3.172721,-0.78945 -0.936864,0.10322 -0.761893,-0.46119 0.412157,-1.32956 0.782811,-0.57899 1.352804,-0.71932 2.298352,-0.56581 1.05915,0.17194 1.295237,0.0848 1.497453,-0.55257 0.31948,-1.00699 0.03969,-1.37982 -1.247707,-1.6627 -1.470767,-0.32317 -1.350879,-0.63606 0.543094,-1.41742 1.130449,-0.46636 1.616936,-0.87657 1.616936,-1.36341 0,-0.60806 -0.174425,-0.66688 -1.375694,-0.46384 -1.985271,0.33554 -2.596268,-0.47663 -1.319491,-1.75392 0.512193,-0.51241 1.126026,-0.93524 1.364072,-0.93964 0.634685,-0.0117 1.899634,-1.12156 2.408809,-2.11342 0.401683,-0.78246 0.380385,-0.83704 -0.227428,-0.58284 -0.368837,0.15426 -1.074841,0.36225 -1.5689,0.46221 -0.494072,0.1 -1.104322,0.34485 -1.356133,0.54419 -0.702089,0.55582 -0.910751,0.0629 -0.252251,-0.59586 0.319967,-0.3201 0.904225,-0.58199 1.298347,-0.58199 0.394123,0 1.029354,-0.16745 1.411603,-0.37211 0.876361,-0.46921 0.935132,-1.24517 0.0662,-0.87419 -0.345847,0.14765 -1.351166,0.33349 -2.234059,0.41296 -0.88288,0.0795 -1.865769,0.38036 -2.184198,0.66865 -0.318428,0.28828 -0.785488,0.52415 -1.037925,0.52415 -0.252437,0 -0.783577,0.41284 -1.180317,0.91741 -0.685272,0.87154 -0.755233,0.88673 -1.399148,0.30375 -0.372799,-0.3375 -0.677821,-0.85942 -0.677821,-1.15979 0,-0.43235 -0.168451,-0.39282 -0.808464,0.18968 -0.863167,0.78562 -1.706761,0.73557 -1.706761,-0.10127 0,-0.66339 -0.367671,-0.64312 -1.395273,0.0769 -1.184266,0.82983 -1.838591,2.64409 -1.838591,5.09798 0,1.69038 -0.150969,2.24929 -0.75542,2.79653 -0.90499,0.81933 -1.759806,2.39275 -1.759806,3.23919 0,0.33673 0.408974,1.47707 0.908826,2.53409 1.040729,2.20083 1.848408,2.46172 3.017596,0.97473 0.774593,-0.98513 1.058091,-3.72588 0.385399,-3.72588 -0.197628,0 -0.359319,-0.16176 -0.359319,-0.35947 0,-0.41936 1.314263,-0.48992 1.565029,-0.084 0.09359,0.15149 0.02211,1.06799 -0.158741,2.03667 -0.180899,0.96868 -0.271065,1.81909 -0.200385,1.8898 0.381895,0.38205 1.325086,-0.46453 1.664792,-1.49426 0.214623,-0.65058 0.707516,-1.47014 1.095332,-1.82124 0.747135,-0.67642 0.948085,-2.13161 0.345786,-2.504 -0.500911,-0.30971 -0.45065,-1.25812 0.06668,-1.25812 0.592475,0 2.089236,1.46127 2.089236,2.0397 0,0.2621 0.163609,0.47654 0.363568,0.47654 0.56256,0 0.02065,-2.91764 -0.744917,-4.01078 -0.55658,-0.79472 -0.582474,-0.9886 -0.153993,-1.15309 0.891697,-0.34231 2.681812,0.5078 2.899918,1.37716 0.305135,1.21624 -0.442213,3.54318 -1.438774,4.47978 -0.48337,0.45429 -1.414919,0.93532 -2.070116,1.06896 -0.843089,0.17197 -1.336468,0.55407 -1.688115,1.30739 -0.745982,1.59808 -1.498645,2.32253 -2.412999,2.32253 -1.335721,0 -1.941004,1.28642 -1.940378,4.12394 6.35e-4,2.64802 0.27221,3.38837 2.305065,6.28284 0.77725,1.10668 1.048015,1.90537 1.048015,3.09143 0,1.15318 0.144489,1.59924 0.51804,1.59924 0.355782,0 0.456631,-0.25334 0.321978,-0.80879 -0.635085,-2.61979 -0.677721,-2.94991 -0.33659,-2.60611 0.55738,0.56174 1.173384,2.67887 1.173384,4.03273 0,1.06941 0.105264,1.21453 0.808471,1.11462 1.149789,-0.16336 1.303362,-1.67121 0.251085,-2.46527 -1.000397,-0.7549 -0.641644,-1.42396 0.763531,-1.42396 0.805694,0 1.241986,-0.28197 1.80763,-1.16825 0.726077,-1.13766 0.741507,-1.14314 0.58918,-0.20937 -0.140408,0.86075 -0.01026,0.996 1.271608,1.3215 1.622423,0.41198 2.849877,0.0816 4.12026,-1.10888 0.940806,-0.88166 1.017574,-1.44907 0.278996,-2.06228 -0.713576,-0.59245 -1.110084,-2.82502 -0.593508,-3.3418 0.299573,-0.2997 0.404338,-0.11166 0.404338,0.72574 0,1.51243 1.209567,2.79704 3.376095,3.58552 2.615769,0.95199 3.32108,2.16367 3.136999,5.38913 -0.02497,0.43714 -0.780694,1.69796 -1.67943,2.80181 l -1.634065,2.007 1.723898,1.58734 c 1.504958,1.38576 3.367231,2.13929 3.327221,1.3463 z"
         style="fill:none;stroke:#0000ff;stroke-width:0.1;stroke-miterlimit:4;stroke-dasharray:none"
         inkscape:connector-curvature="0" />
      <path
         id="path874"
         d="m 16.858551,266.4463 c -0.259736,-0.8187 0.118197,-1.91845 0.564471,-1.64253 0.376948,0.23307 0.292636,2.31082 -0.09378,2.31082 -0.142272,0 -0.354084,-0.30073 -0.470696,-0.66829 z"
         style="fill:none;stroke:#0000ff;stroke-width:0.1;stroke-miterlimit:4;stroke-dasharray:none"
         inkscape:connector-curvature="0" />
      <path
         id="path872"
         d="m 18.818735,257.42578 c 0,-1.97954 1.809434,-2.83055 3.065685,-1.44186 0.64349,0.71135 0.642551,0.74993 -0.03416,1.39305 -0.382781,0.36379 -1.221474,0.75843 -1.863757,0.87699 -1.098843,0.20281 -1.167784,0.15393 -1.167784,-0.82818 z"
         style="fill:none;stroke:#0000ff;stroke-width:0.1;stroke-miterlimit:4;stroke-dasharray:none"
         inkscape:connector-curvature="0" />
      <path
         id="path870"
         d="m 20.096996,257.15357 c -0.110172,-0.28722 -0.200311,-0.59941 -0.200311,-0.69376 0,-0.0944 -0.161692,-0.0716 -0.359312,0.0506 -0.614453,0.37991 -0.433941,1.62367 0.200311,1.38019 0.307786,-0.11816 0.469484,-0.44983 0.359312,-0.73704 z"
         style="fill:none;stroke:#0000ff;stroke-width:0.1;stroke-miterlimit:4;stroke-dasharray:none"
         inkscape:connector-curvature="0" />
      <path
         id="path868"
         d="m 21.69328,256.17218 c 0,-0.0872 -0.161692,-0.25849 -0.359319,-0.38068 -0.197621,-0.12219 -0.359313,-0.0508 -0.359313,0.15852 0,0.20937 0.161692,0.38068 0.359313,0.38068 0.197627,0 0.359319,-0.0713 0.359319,-0.15852 z"
         style="fill:none;stroke:#0000ff;stroke-width:0.1;stroke-miterlimit:4;stroke-dasharray:none"
         inkscape:connector-curvature="0" />
      <path
         id="path866"
         d="m 19.690939,289.32948 c 0.491122,-0.70145 0.49342,-0.88269 0.02038,-1.60494 -0.770957,-1.1771 -0.678193,-1.31654 0.724352,-1.08885 1.035008,0.16803 1.25761,0.0931 1.25761,-0.42345 0,-0.34519 -0.202117,-0.88968 -0.449139,-1.20998 -0.399064,-0.5174 -0.663309,-0.38821 -2.369305,1.15832 l -1.920159,1.74069 0.819946,1.10948 c 0.975843,1.32043 1.19004,1.35605 1.916315,0.31873 z"
         style="fill:none;stroke:#0000ff;stroke-width:0.1;stroke-miterlimit:4;stroke-dasharray:none"
         inkscape:connector-curvature="0" />
      <path
         id="path864"
         d="m 35.057867,288.85236 c 0.313741,-0.68885 0.311875,-1.01031 -0.0077,-1.33002 -0.872484,-0.87284 -0.490057,-1.46142 0.812206,-1.25 1.016181,0.16497 1.329263,0.0543 1.776111,-0.62798 0.539371,-0.82351 0.746608,-1.87879 0.638754,-3.25259 -0.04375,-0.55712 -0.197841,-0.43725 -0.684688,0.53257 -0.41847,0.83361 -1.288143,1.61967 -2.604499,2.35412 -2.082522,1.1619 -2.221358,1.52051 -1.412574,3.64863 0.412696,1.0859 0.966505,1.05798 1.482396,-0.0747 z"
         style="fill:none;stroke:#0000ff;stroke-width:0.1;stroke-miterlimit:4;stroke-dasharray:none"
         inkscape:connector-curvature="0" />
      <path
         id="path862"
         d="m 44.24536,266.97787 c 0.802052,-1.76104 -0.584842,-5.00639 -3.073737,-7.19255 -1.732061,-1.52139 -2.342971,-2.91078 -2.137832,-4.86214 0.09529,-0.90635 0.234556,-1.80968 0.309491,-2.00738 0.07493,-0.19771 -0.02544,-0.44035 -0.223074,-0.5392 -0.197629,-0.0988 -0.410479,0.26511 -0.473015,0.8088 -0.06253,0.54368 -0.264649,0.98852 -0.449152,0.98852 -0.488263,0 -0.41075,1.21873 0.110699,1.74039 0.355317,0.35546 0.347484,0.50732 -0.03849,0.74594 -0.70723,0.43727 -0.161771,1.82722 0.717065,1.82722 0.482725,0 0.68321,0.20555 0.613562,0.62906 -0.145835,0.88684 0.33972,1.52773 1.157434,1.52773 0.383587,0 0.697892,0.20219 0.698465,0.44932 7.33e-4,0.24713 0.458703,0.75605 1.018086,1.13093 0.736579,0.49364 0.974592,0.90383 0.863068,1.48744 -0.08469,0.44321 0.03809,1.16485 0.272815,1.60363 0.308658,0.57696 0.318123,0.90652 0.03417,1.19056 -0.463477,0.46366 -0.522675,1.32738 -0.09097,1.32738 0.165901,0 0.477004,-0.38505 0.691347,-0.85565 z"
         style="fill:none;stroke:#0000ff;stroke-width:0.1;stroke-miterlimit:4;stroke-dasharray:none"
         inkscape:connector-curvature="0" />
      <path
         id="path860"
         d="m 19.178054,252.0464 c 0,-0.1677 -0.363808,-0.38385 -0.808471,-0.48033 -0.44465,-0.0965 -1.110237,-0.30161 -1.479072,-0.45587 -0.609905,-0.25508 -0.629424,-0.20232 -0.215689,0.58284 0.250193,0.47481 0.624103,0.97332 0.830894,1.10781 0.424232,0.27588 1.672338,-0.28718 1.672338,-0.75445 z"
         style="fill:none;stroke:#0000ff;stroke-width:0.1;stroke-miterlimit:4;stroke-dasharray:none"
         inkscape:connector-curvature="0" />
      <path
         id="path854"
         d="m 19.682481,249.97036 c -0.816229,-0.59707 -3.134107,-0.63322 -2.938378,-0.0458 0.07763,0.23301 0.374064,0.5304 0.658741,0.66086 0.284676,0.13047 1.002675,0.47403 1.59555,0.76347 1.008216,0.4922 1.085969,0.47983 1.201908,-0.19139 0.06818,-0.39471 -0.164848,-0.92891 -0.517821,-1.18712 z"
         style="fill:none;stroke:#0000ff;stroke-width:0.1;stroke-miterlimit:4;stroke-dasharray:none"
         inkscape:connector-curvature="0" />
      <path
         id="path844"
         style="fill:none;stroke:#0000ff;stroke-width:0.1"
         d="m 16.488107,249.43197 -0.225778,0.22578 m -0.0164,0.41552 0.742702,-0.7427 m -0.427474,0.82659 -0.339267,0.33927 m 1.684944,-1.28582 0.107909,-0.10791 m -1.291698,1.2917 -0.470466,0.47047 m 1.994173,-1.59505 0.113259,-0.11326 m -1.434079,1.43407 -0.187835,0.18784 m 1.863982,-1.46486 0.135789,-0.13579 m -1.579531,1.57953 -0.109952,0.10995 m 1.909021,-1.50989 0.07458,-0.0746 m -1.619894,1.6199 -0.05574,0.0557 m 1.898669,-1.49955 0.05358,-0.0536 m -2.386708,3.18495 -0.05059,0.0506 m 0.166377,0.23275 0.07722,-0.0772 m 5.236905,-4.83779 -0.65688,0.65688 m -1.500609,1.50061 0.06989,-0.0699 m -2.957101,2.9571 -0.103052,0.10305 m 4.476672,-4.07755 0.798619,-0.79861 m -1.988516,1.98851 -0.142329,0.14233 m -3.00733,3.00733 0.267321,-0.26732 m 4.939566,-4.54044 -0.938528,0.93852 m -1.163181,1.16318 0.327036,-0.32703 m -2.822437,2.82244 -0.487308,0.4873 m 3.032048,-2.63292 2.180392,-2.18039 m -3.077852,3.07785 -2.245621,2.24562 m -0.05285,0.45198 5.632774,-5.63278 m 0.297487,0.10164 -3.571114,3.57111 m -2.604508,2.60451 0.267161,-0.26716 m 6.28222,-5.8831 -3.461833,3.46184 m -3.294936,3.29493 0.419296,-0.4193 m 6.714005,-6.31488 -3.563211,3.56321 m -3.691137,3.69114 0.273802,-0.2738 m 7.392913,-6.99379 -3.935483,3.93548 m -3.751808,3.75181 0.164405,-0.16441 m 7.935252,-7.53613 -4.272378,4.27238 m -3.847007,3.84701 0.148723,-0.14872 m 8.391749,-7.99263 -4.523801,4.5238 m -3.985128,3.98513 0.08695,-0.087 m 8.805255,-8.40613 -4.434817,4.43482 m 0.352686,0.0464 4.465413,-4.46542 m 0.394672,0.004 -3.548221,3.54822 m -3.392813,3.39282 0.299723,-0.29973 m 6.955591,-6.55646 -3.687129,3.68712 m -3.828346,3.82835 1.124804,-1.1248 m 6.70495,-6.30583 -3.927299,3.9273 m -3.021887,3.02188 0.647522,-0.64752 m -4.010614,4.01062 -0.362491,0.36249 m 6.831341,-6.43222 4.173101,-4.1731 m -6.351799,6.3518 -0.793028,0.79302 m -5.047669,5.04767 1.457581,-1.45758 m 10.995485,-10.59636 -4.255528,4.25553 m -3.060448,3.06045 0.514898,-0.5149 m -4.148562,4.14856 -1.857118,1.85712 m 8.729374,-8.33025 4.337956,-4.33796 m -6.864875,6.86488 -0.624863,0.62486 m -5.936076,5.93608 0.936228,-0.93623 m 12.750156,-12.35104 -4.407092,4.4071 m -3.80572,3.80572 1.781303,-1.78131 m -7.22184,7.22184 -0.210322,0.21032 m 9.676477,-9.27735 4.451819,-4.45182 m -6.513281,6.51328 -1.364174,1.36418 m -6.365095,6.36509 0.264442,-0.26444 m 14.205365,-13.80624 -4.37438,4.37438 m -3.128605,3.1286 0.921995,-0.92199 m 6.808246,-6.40913 -2.630722,2.63072 m -11.987904,11.98791 0.07575,-0.0757 m 14.770137,-14.37101 -1.874515,1.87451 m -12.893171,12.89318 0.08185,-0.0819 m 14.913089,-14.51397 -1.239151,1.23915 m -13.68851,13.68852 0.09888,-0.0989 m 15.055851,-14.65673 -0.995605,0.9956 m -14.048822,14.04883 0.09274,-0.0927 m 15.194246,-14.79513 -0.741511,0.74151 m -14.435174,14.43518 0.100006,-0.10001 m 15.333551,-14.93443 -0.600405,0.60041 m -14.721634,14.72163 0.106055,-0.10605 m 15.5198,-15.12068 -0.364991,0.36499 m -15.143514,15.14352 0.106272,-0.10628 m 15.699936,-15.30081 -0.200094,0.20009 m -15.488764,15.48877 0.106489,-0.10649 m 15.924643,-15.52552 -0.20486,0.20486 m -2.09885,2.09885 0.479911,-0.47991 m -11.90254,11.90254 -0.06324,0.0632 m -2.124207,2.12421 0.106707,-0.10671 m 14.373496,-13.97437 -0.459282,0.45928 m -10.301927,10.30193 0.173846,-0.17385 m -1.601631,1.60163 -0.310662,0.31067 m -1.863197,1.86319 0.136078,-0.13607 m 14.759735,-14.36062 -0.352828,0.35283 m -5.209064,5.20906 0.363297,-0.36329 m -5.611775,5.61177 -0.219028,0.21903 m -1.956899,1.9569 0.278478,-0.27848 m -1.90565,1.90565 -0.164994,0.165 m 15.147347,-14.74823 0.131969,-0.13197 m -5.343044,5.34305 -0.562733,0.56273 m -5.393558,5.39356 0.338454,-0.33846 m -2.228098,2.2281 -0.255195,0.2552 m -1.717793,1.71779 0.193911,-0.19391 m 15.661432,-15.26231 -0.255778,0.25578 m -6.191795,6.19179 0.714426,-0.71442 m -2.627706,2.6277 -0.192441,0.19244 m -3.327338,3.32734 0.368814,-0.36881 m -4.003348,4.00334 -0.222827,0.22283 m 16.048031,-15.64891 0.799673,-0.79967 m -6.539585,6.53959 -0.888874,0.88887 m -2.153869,2.15387 0.394468,-0.39447 m -3.420892,3.42089 -0.329647,0.32965 m -3.778215,3.77821 0.238004,-0.238 m 16.487425,-16.0883 -0.340642,0.34064 m -6.967806,6.96781 1.028866,-1.02887 m -2.679504,2.6795 -0.450828,0.45083 m -3.530745,3.53075 0.255179,-0.25518 m -3.620322,3.62032 -0.237444,0.23744 m 12.382689,-11.98356 0.73177,-0.73177 m -2.610293,2.61029 -1.140543,1.14054 m -2.020681,2.02069 0.460613,-0.46062 m -4.009469,4.00947 -0.150923,0.15092 m -3.396852,3.39686 0.185253,-0.18526 m 13.298042,-12.89892 -1.661954,1.66196 m -2.575999,2.576 1.253016,-1.25302 m -2.72172,2.72172 -0.554644,0.55464 m -3.926087,3.92609 0.188188,-0.18819 m -3.066675,3.06668 -0.152381,0.15238 m 21.671486,-21.27236 0.175258,-0.17526 m -5.724023,5.72402 -4.454786,4.45479 m -2.603975,2.60397 1.378209,-1.37821 m -2.739143,2.73914 -0.68935,0.68935 m -4.086107,4.08611 0.218141,-0.21814 m -2.753489,2.75349 -0.116627,0.11663 m 21.406472,-21.00735 0.416405,-0.41641 m -5.936724,5.93673 -4.240416,4.24041 m -2.773713,2.77372 1.456142,-1.45615 m -2.716254,2.71626 -0.853347,0.85334 m -4.456054,4.45606 0.496183,-0.49618 m -2.328942,2.32894 -0.181025,0.18102 m 21.128325,-20.7292 0.610859,-0.61086 m -6.102733,6.10273 -3.970562,3.97057 m -2.998934,2.99893 1.45861,-1.45861 m -2.6179,2.6179 -1.337508,1.33751 m -5.947612,5.94761 2.259966,-2.25997 m 20.243198,-19.84407 -1.587618,1.58762 m -9.068611,9.06861 3.635785,-3.63579 m -5.533018,5.53302 -1.404421,1.40442 m -3.638285,3.63829 2.529946,-2.52995 m -5.191927,5.19193 -2.095118,2.09512 m 20.818357,-20.41924 2.018999,-2.019 m -7.419813,7.41982 -3.27078,3.27078 m -3.717832,3.71783 1.337596,-1.3376 m -2.387696,2.3877 -2.670194,2.67019 m -4.631358,4.63136 2.146896,-2.1469 m 20.929083,-20.52996 -2.282192,2.2822 m -8.327517,8.32751 2.958715,-2.95871 m -5.846652,5.84665 -1.193134,1.19313 m -4.107579,4.10758 3.122045,-3.12204 m -4.908906,4.9089 -0.263824,0.26383 m -2.199205,2.1992 0.284178,-0.28418 m 23.035584,-22.63646 -2.500996,2.501 m -7.858661,7.85866 2.52187,-2.52187 m -6.042581,6.04258 -1.071898,1.0719 m -2.363657,2.36366 1.568986,-1.56899 m -3.101131,3.10113 -1.771492,1.77149 m -2.675662,2.67566 0.184755,-0.18475 m 23.386867,-22.98775 -2.718433,2.71844 m -7.53895,7.53895 2.221917,-2.22192 m -6.163441,6.16344 -2.821289,2.82129 m -3.459485,3.45949 0.748748,-0.74875 m -3.615404,3.6154 -0.24086,0.24086 m 20.956306,-20.55718 2.915827,-2.91583 m -8.244701,8.2447 -2.008006,2.00801 m -2.913518,2.91352 0.06591,-0.0659 m -1.869312,1.86931 -1.454051,1.45405 m -7.464026,7.46403 0.142936,-0.14294 m 24.050628,-23.6515 -3.134143,3.13414 m -7.200882,7.20088 1.860168,-1.86017 m -4.406158,4.40616 -0.323038,0.32304 m -2.431249,2.43125 0.39531,-0.39531 m -8.837243,8.83724 -0.159691,0.15969 m 21.175852,-20.77673 3.756637,-3.75663 m -9.094719,9.09472 -1.90103,1.90103 m -2.598997,2.59899 0.761508,-0.7615 m -11.966167,11.96616 -0.110133,0.11013 m 21.147159,-20.74803 4.234315,-4.23432 m -9.479533,9.47954 -4.282279,4.28227 m -11.613981,11.61399 0.07785,-0.0779 m 25.716794,-25.31767 -4.722035,4.72203 m -9.152274,9.15228 3.967814,-3.96782 m -7.12542,7.12542 -0.234799,0.2348 m -8.522246,8.52225 0.103621,-0.10362 m 25.745994,-25.34687 -4.967547,4.96754 m -8.66119,8.66119 3.68878,-3.68878 m -6.519515,6.51952 -1.055083,1.05508 m -8.32938,8.32938 0.114789,-0.11479 m 25.712023,-25.3129 -3.900491,3.90049 m -1.573534,1.57354 0.647752,-0.64776 m -5.069368,5.06937 -3.438864,3.43887 m -3.795024,3.79502 1.333621,-1.33362 m -9.899266,9.89927 -0.140301,0.1403 m 22.120733,-21.72161 3.262942,-3.26295 m -4.513257,4.51326 -0.511581,0.51158 m -7.626731,7.62673 3.234921,-3.23492 m -5.453379,5.45338 -1.415112,1.41511 m -9.046461,9.04647 0.105075,-0.10508 m 24.848742,-24.44962 -2.835627,2.83563 m -2.079752,2.07975 0.746506,-0.74651 m -4.881592,4.88159 -2.98873,2.98873 m -3.482666,3.48267 1.396065,-1.39606 m -6.114218,6.11421 -1.382941,1.38295 m -3.278787,3.27878 0.104006,-0.104 m 24.444634,-24.04552 -2.41984,2.41984 m -2.100266,2.10027 0.126337,-0.12634 m -4.326242,4.32624 -2.87156,2.87156 m -3.251343,3.25135 1.436079,-1.43608 m -4.655381,4.65538 -2.813521,2.81352 m -3.610311,3.61031 0.09966,-0.0997 m 24.033282,-23.63416 -0.654148,0.65415 m -3.540215,3.54021 0.219903,-0.2199 m -4.415097,4.41509 -2.746465,2.74647 m -3.018119,3.01812 1.457971,-1.45797 m -3.691181,3.69118 -3.655599,3.6556 m -4.006569,4.00657 0.09722,-0.0972 m 20.089073,-19.68995 -0.361309,0.36131 m -7.049046,7.04904 2.7692,-2.7692 m -3.819079,3.81908 -1.49501,1.49501 m -5.656283,5.65629 3.855351,-3.85536 m -8.241269,8.24127 -0.109576,0.10958 m 19.789897,-19.39078 0.470152,-0.47015 m -4.904808,4.90481 -4.904349,4.90435 m -5.28076,5.28076 3.790895,-3.79089 m -8.743328,8.74332 -0.106272,0.10628 m 19.722655,-19.32354 0.586347,-0.58634 m -5.311459,5.31145 -4.355022,4.35503 m -4.904683,4.90468 3.564558,-3.56456 m -9.063689,9.06369 -0.12728,0.12728 m 19.668514,-19.26939 0.688648,-0.68865 m -5.722952,5.72295 -3.800061,3.80007 m -4.735199,4.73519 3.544814,-3.54481 m -9.384049,9.38405 -0.144722,0.14472 m 10.959819,-10.56069 3.182062,-3.18207 m -4.160679,4.16068 -3.032606,3.03261 m -6.814211,6.81421 0.142772,-0.14277 m 13.491009,-13.09189 -2.563368,2.56337 m -3.783227,3.78322 3.005835,-3.00583 m -10.017814,10.01781 -0.140822,0.14083 m 7.470117,-7.071 5.976064,-5.97606 m -13.172924,13.17292 -0.134962,0.13496 m 7.00919,-6.61006 5.58699,-5.58699 m -12.301756,12.30175 -0.13592,0.13592 m 6.760055,-6.36093 5.572526,-5.57253 m -12.037216,12.03722 -0.136861,0.13686 m 19.550769,-19.15165 0.121489,-0.12148 m -7.976712,7.97671 -5.322433,5.32243 m -6.214609,6.21461 0.137802,-0.1378 m 19.664142,-19.26502 -0.246501,0.2465 m -13.318201,13.3182 5.260629,-5.26063 m -11.200623,11.20062 -0.138743,0.13875 m 19.571781,-19.17266 0.452227,-0.45223 m -8.614878,8.61488 -5.378505,5.3785 m -5.872121,5.87212 0.139684,-0.13968 m 20.749273,-20.35015 -0.05119,0.0512 m -1.249645,1.24965 0.497582,-0.49758 m -8.638445,8.63844 -5.623248,5.62325 m -5.665505,5.6655 0.140625,-0.14062 m 20.771816,-20.3727 -0.06826,0.0683 m -1.239717,1.23972 0.34797,-0.34797 m -8.337506,8.3375 -5.99753,5.99753 m -5.458889,5.45889 0.141566,-0.14156 m 20.794359,-20.39524 -0.06365,0.0636 m -1.228744,1.22874 0.120909,-0.12091 m -7.878111,7.87811 -6.483582,6.48359 m -5.247024,5.24702 0.143553,-0.14355 m 20.830895,-20.43178 -0.06135,0.0613 m -11.183105,11.18311 2.845417,-2.84542 m -5.056063,5.05607 -2.294684,2.29468 m -5.0698,5.0698 0.142622,-0.14262 m 20.87964,-20.48052 -0.06748,0.0675 m -11.311535,11.31153 3.835373,-3.83537 m -7.598573,7.59857 -0.832608,0.83261 m -4.891299,4.8913 0.140414,-0.14041 m 20.928385,-20.52927 -0.07361,0.0736 m -11.571449,11.57145 4.887578,-4.88758 m -8.993822,8.99383 -0.448557,0.44855 m -4.752205,4.75221 0.177612,-0.17761 m 20.97713,-20.57801 -0.07974,0.0797 m -11.831362,11.83136 5.463907,-5.46391 m -14.414071,14.41408 -0.176741,0.17674 m 21.155819,-20.7567 0.08487,-0.0849 m -5.995505,5.99551 -0.310384,0.31038 m -5.8942,5.8942 4.016471,-4.01647 M 20.557761,280.48434 20.3551,280.687 m 21.260708,-20.86158 0.08626,-0.0863 m -1.134985,1.13498 -0.151822,0.15183 m -5.369731,5.36973 0.968581,-0.96858 m -3.687761,3.68776 -3.034485,3.03448 m -8.868087,8.86809 0.223993,-0.22399 m 21.25453,-20.85541 -0.08521,0.0852 m -1.20182,1.20182 0.258491,-0.2585 m -4.339737,4.33974 -1.510389,1.51039 m -5.739209,5.73921 2.162685,-2.16269 m -10.722568,10.72257 -0.234266,0.23427 m 21.528098,-21.12898 0.08379,-0.0838 m -0.941564,0.94156 -0.34532,0.34532 m -6.03993,6.03993 2.186032,-2.18603 m -5.860519,5.86052 -1.823876,1.82388 m -8.766003,8.766 0.311878,-0.31188 m 21.479173,-21.08005 -0.08238,0.0824 m -1.204363,1.20436 0.243586,-0.24358 m -3.844725,3.84472 -2.887086,2.88709 m -5.257894,5.25789 1.478481,-1.47848 m -9.949834,9.94983 -0.25312,0.25313 m 21.858832,-21.45972 0.09837,-0.0984 m -1.088735,1.08874 -0.197863,0.19786 m -6.929621,6.92962 3.496325,-3.49632 m -7.020582,7.02058 -1.445439,1.44544 m -8.789793,8.78979 0.296258,-0.29626 m 21.864737,-21.46561 -0.104138,0.10414 m -1.196593,1.19659 0.207512,-0.20751 m -3.444105,3.4441 -4.035228,4.03523 m -4.751836,4.75184 1.017295,-1.0173 m -9.546763,9.54677 -0.412004,0.412 m 22.341241,-21.94212 0.09786,-0.0979 m -1.051147,1.05114 -0.256194,0.2562 m -7.764542,7.76454 4.734477,-4.73448 m -8.315885,8.31589 -0.797529,0.79753 m -8.953308,8.9533 0.41448,-0.41448 m -3.720021,3.72003 -1.718543,1.71854 m 27.509867,-27.11075 0.09159,-0.0916 m -1.009076,1.00908 -0.304877,0.30487 m -7.919065,7.91907 5.045666,-5.04567 m -8.684304,8.68431 -0.735983,0.73598 m -7.352737,7.35274 0.07011,-0.0701 m -1.212835,1.21283 -5.74591,5.74591 m 27.927271,-27.52815 0.09498,-0.095 m -0.967004,0.967 -0.353559,0.35356 m -8.163843,8.16384 5.447111,-5.44711 m -9.06041,9.06041 -0.583818,0.58382 m -7.37977,7.37977 0.06583,-0.0658 m -1.154114,1.15411 -6.31902,6.31902 m 28.531124,-28.132 0.09945,-0.0994 m -0.906846,0.90685 -0.409049,0.40905 m -2.688994,2.68899 0.136051,-0.13605 m -4.726697,4.7267 -1.15674,1.15674 m -4.00254,4.00254 0.442338,-0.44234 m -7.770604,7.7706 -0.06939,0.0694 m -3.142687,3.14269 2.152042,-2.15205 m -4.397205,4.39721 -2.318002,2.318 m 28.916381,-28.51726 0.08787,-0.0879 m -0.828217,0.82822 -0.461989,0.46198 m -2.560323,2.56033 0.124657,-0.12466 m -5.268772,5.26877 -0.888101,0.8881 m -3.929319,3.92932 0.419648,-0.41965 m -6.553153,6.55316 -0.07867,0.0787 m -1.322143,1.32215 0.191729,-0.19173 m -0.886796,0.88679 -0.497643,0.49765 m -6.545199,6.54519 2.567656,-2.56765 m 26.662557,-26.26343 -0.07629,0.0763 m -1.224155,1.22416 0.516398,-0.5164 m -2.798863,2.79886 -0.118766,0.11877 m -6.311543,6.31154 0.564362,-0.56436 m -4.229916,4.22991 -0.190542,0.19055 m -6.200803,6.2008 0.37858,-0.37858 m -1.5604,1.5604 -1.187944,1.18794 m -6.763524,6.76353 2.710461,-2.71046 m 26.638866,-26.23975 -0.072,0.072 m -1.238678,1.23868 0.525883,-0.52589 m -2.655147,2.65515 -0.172501,0.1725 m -6.522122,6.52212 0.420944,-0.42094 m -9.651704,9.6517 -0.658941,0.65895 m -2.346156,2.34615 1.006695,-1.00669 m -5.105528,5.10552 -2.786258,2.78626 m 29.316809,-28.91768 0.06985,-0.0699 m -0.804761,0.80476 -0.507337,0.50733 m -2.243125,2.24313 0.269307,-0.26931 m -1.647692,1.64769 -0.678681,0.67868 m -4.56905,4.56905 0.355407,-0.3554 m -9.15077,9.15077 -0.986934,0.98693 m -2.38792,2.38792 0.890818,-0.89082 m -2.692944,2.69295 -0.164036,0.16403 m -4.945173,4.94518 2.832105,-2.83211 m 26.54668,-26.14756 -0.05245,0.0524 m -1.269079,1.26908 0.392127,-0.39213 m -2.197379,2.19738 -2.821255,2.82126 m -4.264826,4.26482 0.144655,-0.14465 m -7.245169,7.24517 -2.566615,2.56661 m -2.448773,2.44878 0.839985,-0.83999 m -2.422021,2.42202 -0.375382,0.37538 m -4.93867,4.93867 2.854345,-2.85434 m 25.385833,-24.98671 -0.228274,0.22827 m -5.523043,5.52305 3.884241,-3.88424 m -9.055064,9.05506 -0.100712,0.10071 m -7.665951,7.66595 2.276643,-2.27664 m -4.140486,4.14048 -0.66978,0.66979 m -1.93165,1.93164 0.58587,-0.58587 m -2.639134,2.63914 -2.878903,2.8789 m 27.917944,-27.51882 0.22426,-0.22426 m -1.648007,1.64801 -4.493878,4.49387 m -4.850357,4.85036 0.05492,-0.0549 m -5.381608,5.38161 -2.273709,2.2737 m -2.615189,2.61519 0.686158,-0.68615 m -1.719481,1.71948 -0.822004,0.822 m -4.903894,4.9039 2.882238,-2.88224 m 25.176485,-24.77737 -0.268806,0.26881 m -6.317772,6.31777 5.132083,-5.13208 m -9.537399,9.5374 -0.06877,0.0688 m -7.482298,7.4823 2.312517,-2.31252 m -4.248572,4.24857 -2.513791,2.51379 m -4.848665,4.84867 2.852859,-2.85286 m 25.085409,-24.68629 -0.389409,0.38941 m -6.487752,6.48775 5.653455,-5.65345 m -9.828339,9.82834 -0.09474,0.0947 m -7.37383,7.37382 2.446175,-2.44617 m -4.260866,4.26087 -2.697769,2.69776 m -4.687943,4.68795 2.876514,-2.87652 m 24.944328,-24.5452 -7.130884,7.13088 m -4.025597,4.0256 0.116402,-0.1164 m -4.859239,4.85924 -0.467503,0.4675 m -2.246897,2.2469 0.465364,-0.46537 m -1.860924,1.86093 -0.39461,0.39461 m -3.116356,3.11635 2.292754,-2.29275 m -3.512094,3.51209 -2.864006,2.86401 m 20.554964,-20.15584 7.14976,-7.14976 m -11.025013,11.02501 -0.142473,0.14247 m -4.913658,4.91366 0.389274,-0.38927 m -2.834349,2.83435 -1.723407,1.7234 m -7.194989,7.19499 5.725663,-5.72566 m 21.820087,-21.42097 -7.244986,7.24499 m -3.944849,3.94485 0.199547,-0.19955 m -4.503279,4.50328 -0.310274,0.31028 m -4.32116,4.32115 1.366711,-1.36671 m -3.928363,3.92837 -4.595052,4.59505 m 23.921464,-23.52234 2.886124,-2.88613 m -6.469109,6.46911 -0.161253,0.16125 m -3.947441,3.94745 0.210674,-0.21068 m -4.304076,4.30408 -0.292617,0.29261 m -4.481233,4.48124 1.123942,-1.12394 m -5.108421,5.10842 -3.068678,3.06867 m 24.997012,-24.59788 1.379855,-1.37986 m -10.068339,10.06834 -0.231119,0.23112 m -4.155215,4.15521 0.253058,-0.25305 m -4.032223,4.03222 -0.884043,0.88404 m -6.966122,6.96612 3.07107,-3.07107 m 23.115041,-22.71591 -0.877933,0.87793 m -9.338787,9.33879 0.223718,-0.22372 m -3.915233,3.91523 -0.254926,0.25493 m -4.863865,4.86386 0.712507,-0.71251 m -2.491497,2.4915 -0.06357,0.0636 m -5.028728,5.02873 3.104053,-3.10406 m 24.281491,-23.88237 -0.05412,0.0541 m -1.888396,1.88839 0.702666,-0.70266 m -10.034092,10.03409 -0.243634,0.24364 m -3.739194,3.73919 0.194056,-0.19406 m -4.722387,4.72239 -0.546035,0.54603 m -1.835157,1.83516 0.314936,-0.31493 m -2.109347,2.10934 -3.18795,3.18795 m 25.553186,-25.15406 1.269791,-1.26979 m -10.73978,10.73978 -0.255996,0.25599 m -3.541697,3.5417 0.252195,-0.25219 m -5.128041,5.12804 -0.409021,0.40902 m -1.787084,1.78708 0.531856,-0.53185 m -2.230839,2.23083 -3.288386,3.28839 m 25.638542,-25.23942 0.71103,-0.71103 m -10.27105,10.27105 -0.392637,0.39264 m -3.160194,3.16019 0.193981,-0.19398 m -5.484528,5.48453 -0.288422,0.28842 m -1.722767,1.72277 0.719216,-0.71922 m -2.369672,2.36967 -3.368271,3.36828 m 25.622429,-25.22331 0.426103,-0.4261 m -4.724128,4.72413 -0.74532,0.74531 m -4.983205,4.98321 0.512946,-0.51295 m -2.710923,2.71093 -0.616791,0.61679 m -7.525798,7.5258 1.826274,-1.82628 m -3.424527,3.42453 -3.486225,3.48622 m 25.632638,-25.23351 0.280649,-0.28065 m -4.028727,4.02873 -2.110039,2.11003 m -6.559751,6.55976 2.954345,-2.95435 m -9.165684,9.16569 -1.682367,1.68236 m -5.161433,5.16143 3.575649,-3.57564 m 22.209174,-21.81006 -0.130773,0.13078 m -6.097941,6.09794 3.000891,-3.00089 m -6.276347,6.27634 -2.538475,2.53848 m -8.338248,8.33825 1.526371,-1.52637 m -3.105598,3.10559 -3.664538,3.66454 m 25.64142,-25.24229 0.09937,-0.0994 m -2.672256,2.67226 -3.200191,3.20019 m -5.637035,5.63703 2.160346,-2.16034 m -9.53502,9.53502 -1.368538,1.36854 m -5.289478,5.28947 3.710967,-3.71096 m 21.952659,-21.55354 -0.09325,0.0932 m -5.124039,5.12404 2.981581,-2.98158 m -6.963711,6.96371 -0.326735,0.32674 m -10.603658,10.60365 1.210706,-1.2107 m -2.806185,2.80618 -3.73029,3.73029 m 25.489908,-25.09078 0.08492,-0.0849 m -1.813052,1.81305 -3.042383,3.04239 m -4.469771,4.46977 0.277715,-0.27772 m -9.904356,9.90436 -1.052873,1.05287 m -5.335257,5.33526 3.722809,-3.72281 m 21.734924,-21.3358 -0.06995,0.07 m -3.992437,3.99244 2.453904,-2.45391 m -7.285594,7.2856 -0.207953,0.20795 m -10.776111,10.77611 0.89504,-0.89504 m -2.524597,2.5246 -3.715188,3.71519 m 25.257874,-24.85875 0.08277,-0.0828 m -1.343665,1.34366 -2.296883,2.29688 m -5.264253,5.26426 0.168963,-0.16897 m -10.272911,10.27291 -0.751929,0.75193 m -5.345118,5.34512 3.688466,-3.68846 m 21.535086,-21.13597 -0.09791,0.0979 m -3.222244,3.22225 2.202114,-2.20211 m -7.453899,7.45389 -0.153989,0.15399 m -10.935783,10.93578 0.629901,-0.6299 m -2.295149,2.29515 -3.661745,3.66175 m 24.993408,-24.59429 0.07469,-0.0747 m -0.854052,0.85405 -2.0188,2.0188 m -3.828362,3.82836 0.725544,-0.72554 m -2.394007,2.394 -0.143016,0.14302 m -11.011686,11.01169 0.507872,-0.50788 m -2.181717,2.18172 -3.577226,3.57723 m 24.803378,-24.40426 0.05339,-0.0534 m -0.591988,0.59198 -1.959885,1.95989 m -3.902476,3.90247 0.792318,-0.79232 m -2.516513,2.51652 -0.122839,0.12284 m -11.087589,11.08759 0.385843,-0.38585 m -2.069281,2.06929 -3.5035,3.50349 m 22.405446,-22.00632 2.251779,-2.25178 m -4.864171,4.86417 -1.279147,1.27915 m -1.946754,1.94675 0.08364,-0.0836 m -10.98332,10.98332 -0.278857,0.27886 m -5.08386,5.08386 3.405402,-3.4054 m 20.980217,-20.5811 -1.960234,1.96024 m -3.828481,3.82848 1.604448,-1.60445 m -3.601888,3.60189 -0.09085,0.0908 m -11.265566,11.26556 0.214362,-0.21436 m -1.845347,1.84535 -3.28761,3.28761 m 22.404585,-22.00546 1.689739,-1.68974 m -3.872743,3.87274 -1.561375,1.56138 m -2.253676,2.25367 0.09926,-0.0993 m -11.278141,11.27814 -0.149867,0.14987 m -4.75333,4.75333 3.169817,-3.16982 m 20.633211,-20.23409 -1.470754,1.47076 m -3.581789,3.58179 1.555734,-1.55574 m -3.908642,3.90864 -0.125068,0.12507 m -11.374946,11.37495 0.07888,-0.0789 m -1.599965,1.59996 -2.994958,2.99496 m 22.169235,-21.77011 1.194474,-1.19448 m -3.024832,3.02484 -1.5567,1.5567 m -2.753344,2.75334 0.195807,-0.19581 m -5.384372,5.38437 -1.466936,1.46694 m -4.796494,4.79649 0.08686,-0.0869 m -1.443089,1.44309 -2.843885,2.84388 m 21.965837,-21.56671 0.988112,-0.98811 m -2.676846,2.67684 -1.458433,1.45844 m -3.111845,3.11184 0.3124,-0.3124 m -4.828571,4.82857 -2.526638,2.52664 m -4.37118,4.37118 0.08899,-0.089 m -1.307972,1.30798 -2.632328,2.63232 m 21.621954,-21.22283 0.746048,-0.74605 m -2.217475,2.21748 -1.360166,1.36016 m -3.902141,3.90214 0.860789,-0.86078 m -3.74463,3.74463 -4.106568,4.10656 m -4.110294,4.1103 0.136793,-0.1368 m -1.013113,1.01312 -2.46565,2.46565 m 21.229983,-20.83086 0.563328,-0.56333 m -1.774455,1.77445 -1.384441,1.38445 m -7.56754,7.56753 4.36335,-4.36335 m -5.410174,5.41018 -2.802555,2.80255 m -6.654234,6.65424 2.882185,-2.88219 m 18.015566,-17.61644 -2.820627,2.82063 m -3.180539,3.18054 0.09215,-0.0922 m -1.212194,1.21219 -2.082725,2.08273 m -5.107532,5.10753 2.827682,-2.82768 m -6.494237,6.49423 -2.499225,2.49923 m 17.622436,-17.22331 2.881309,-2.88131 m -7.468865,7.46886 -0.833219,0.83322 m -6.007048,6.00705 2.807298,-2.8073 m -7.019137,7.01914 -1.220733,1.22073 m 16.82621,-16.42709 2.320655,-2.32065 m -5.179563,5.17956 -0.05391,0.0539 m -8.372437,8.37244 2.800746,-2.80075 m 9.01868,-8.61955 -0.568926,0.56892 m -2.869408,2.86941 0.117473,-0.11747 m -5.601783,5.60178 -2.778597,2.7786 m 11.1202,-10.72108 0.303489,-0.30349 m -3.031701,3.0317 -0.109095,0.1091 m -3.660014,3.66001 0.326049,-0.32605 m -2.074295,2.0743 -2.725298,2.72529 m 10.966773,-10.56765 0.203057,-0.20305 m -2.899795,2.89979 -0.175018,0.17502 m -3.455049,3.45505 0.583323,-0.58332 m -2.401957,2.40195 -2.639018,2.63902 m 10.808916,-10.40979 0.113966,-0.11397 m -2.840253,2.84026 -0.213304,0.2133 m -3.245487,3.24549 0.76078,-0.76078 m -2.621932,2.62193 -2.565577,2.56558 m 7.363794,-6.96468 0.512472,-0.51247 m -2.355607,2.35561 -0.92514,0.92514 m -4.39841,4.39841 2.510101,-2.5101 m 8.238298,-7.83918 -0.05338,0.0534 m -6.200917,6.20091 3.175798,-3.17579 m -5.018169,5.01817 -2.454626,2.45462 m 10.690883,-10.29176 0.05774,-0.0577 m -3.423929,3.42393 -3.023628,3.02363 m -4.046419,4.04641 2.411668,-2.41166 m 8.325453,-7.92633 -0.107919,0.10791 m -10.376088,10.37609 6.50446,-6.50446 m 4.213539,-3.81441 -0.1511,0.1511 m -1.930985,1.93098 0.161891,-0.16189 m -3.504724,3.50472 -5.039967,5.03997 m 10.50377,-10.10465 0.18799,-0.18799 m -1.684228,1.68423 -0.4679,0.4679 m -8.286518,8.28652 3.168962,-3.16896 m 7.443391,-7.04427 -0.171712,0.17171 m -1.94478,1.94478 0.720669,-0.72067 m -5.839378,5.83938 -3.112594,3.1126 m 10.327815,-9.9287 0.193686,-0.19368 m -1.133919,1.13391 -0.956576,0.95658 m -2.125721,2.12572 0.330023,-0.33002 m -3.314923,3.31492 -3.056146,3.05615 m 8.328357,-7.92924 2.012256,-2.01225 m -3.58419,3.58419 -0.529758,0.52976 m -6.014566,6.01456 3.051839,-3.05184 m 6.953622,-6.5545 -1.77434,1.77434 m -2.002869,2.00287 0.699522,-0.69952 m -3.668144,3.66814 -3.058911,3.05892 m 6.236339,-5.83722 3.158476,-3.15848 m -6.128113,6.12812 -3.120166,3.12016 m 6.294208,-5.89508 2.290046,-2.29005 m -5.256297,5.2563 -3.230943,3.23094 m 6.401598,-6.00248 1.59833,-1.59832 m -2.858572,2.85857 -0.406378,0.40637 m -4.679878,4.67988 3.383635,-3.38363 m 4.147788,-3.74867 -1.001051,1.00105 m -1.658638,1.65864 0.608355,-0.60835 m -1.888663,1.88866 -3.543804,3.5438 m 6.622234,-6.22311 0.509673,-0.50967 m -1.307451,1.30745 -0.799495,0.79949 m -4.892064,4.89207 3.624122,-3.62412 m 3.1838,-2.78468 -1.696569,1.69657 m -4.964595,4.96459 3.701442,-3.70144 m 2.934558,-2.53543 -1.452115,1.45211 m -5.00173,5.00173 3.743364,-3.74336 m 2.683679,-2.28456 -1.206023,1.20602 m -5.023655,5.02366 3.770076,-3.77008 m 2.497481,-2.09836 -1.026993,1.027 m -5.020473,5.02047 3.774063,-3.77406 m 2.306354,-1.90723 -0.844135,0.84413 m -5.005558,5.00556 3.768484,-3.76849 m 2.147953,-1.74883 -0.695068,0.69507 m -4.967888,4.96789 3.774313,-3.77431 m 1.963946,-1.56483 -0.554561,0.55456 m -4.930218,4.93022 3.780142,-3.78014 m 1.779941,-1.38082 -0.414054,0.41406 m -4.854883,4.85488 3.748307,-3.74831 m 1.63103,-1.23191 -0.318584,0.31859 m -4.774108,4.77411 3.718566,-3.71857 m 1.479807,-1.08069 -0.239674,0.23968 m -4.636831,4.63683 3.68753,-3.68753 m 1.294657,-0.89553 -0.160764,0.16076 m -4.497805,4.4978 3.66742,-3.66741 m 1.090062,-0.69094 -4.393772,4.39377 m 0.369925,0.0292 4.123859,-4.12386 m 0.100012,0.29911 -3.80296,3.80296 m 0.42321,-0.0241 3.479762,-3.47976 m 0.03135,0.36777 -3.087903,3.0879 m 0.36383,0.0353 2.77029,-2.77029 m 0.04622,0.35291 -2.199966,2.19997 m 0.503929,-0.10481 1.571975,-1.57198 m 0.0283,0.37082 -0.790888,0.79089"
         inkscape:connector-curvature="0" />
    </g>
  </g>
</svg>
