<?xml version="1.0" encoding="UTF-8" standalone="no"?>
<!-- Created with Inkscape (http://www.inkscape.org/) -->

<svg
   xmlns:dc="http://purl.org/dc/elements/1.1/"
   xmlns:cc="http://creativecommons.org/ns#"
   xmlns:rdf="http://www.w3.org/1999/02/22-rdf-syntax-ns#"
   xmlns:svg="http://www.w3.org/2000/svg"
   xmlns="http://www.w3.org/2000/svg"
   xmlns:sodipodi="http://sodipodi.sourceforge.net/DTD/sodipodi-0.dtd"
   xmlns:inkscape="http://www.inkscape.org/namespaces/inkscape"
   width="75mm"
   height="75mm"
   viewBox="0 0 75 75"
   version="1.1"
   id="svg1586"
   inkscape:version="0.92.2 2405546, 2018-03-11"
   sodipodi:docname="75.svg">
  <sodipodi:namedview
     id="base"
     pagecolor="#ffffff"
     bordercolor="#666666"
     borderopacity="1.0"
     inkscape:pageopacity="0.0"
     inkscape:pageshadow="2"
     inkscape:zoom="1.6515547"
     inkscape:cx="-25.80383"
     inkscape:cy="115.43908"
     inkscape:document-units="mm"
     inkscape:current-layer="layer1"
     showgrid="false"
     inkscape:window-width="1366"
     inkscape:window-height="703"
     inkscape:window-x="0"
     inkscape:window-y="0"
     inkscape:window-maximized="1" />
  <defs
     id="defs1580" />
  <metadata
     id="metadata1583">
    <rdf:RDF>
      <cc:Work
         rdf:about="">
        <dc:format>image/svg+xml</dc:format>
        <dc:type
           rdf:resource="http://purl.org/dc/dcmitype/StillImage" />
        <dc:title></dc:title>
      </cc:Work>
    </rdf:RDF>
  </metadata>
  <g
     inkscape:label="Layer 1"
     inkscape:groupmode="layer"
     id="layer1"
     transform="translate(0,-222)">
    <g
       id="g938">
      <path
         id="path904"
         d="m 22.575273,226.43335 c -1.22562,-0.89621 -4.70606,-0.95047 -4.41216,-0.0688 0.11657,0.34975 0.56168,0.79613 0.98914,0.99196 0.42746,0.19583 1.50558,0.71152 2.39582,1.14597 1.5139,0.7388 1.63065,0.72022 1.80474,-0.28728 0.10237,-0.59246 -0.24753,-1.3943 -0.77754,-1.78187 z"
         style="fill:none;stroke:#0000ff;stroke-width:0.1;stroke-miterlimit:4;stroke-dasharray:none" />
      <path
         id="path902"
         d="m 21.817843,229.54949 c 0,-0.25172 -0.54628,-0.57616 -1.21397,-0.72097 -0.66767,-0.14481 -1.66709,-0.45273 -2.22092,-0.68427 -0.91581,-0.38287 -0.94512,-0.30368 -0.32387,0.87484 0.37568,0.7127 0.93713,1.46097 1.24764,1.66283 0.63701,0.4141 2.51112,-0.43106 2.51112,-1.13243 z"
         style="fill:none;stroke:#0000ff;stroke-width:0.1;stroke-miterlimit:4;stroke-dasharray:none" />
      <path
         id="path900"
         d="m 59.457983,251.96169 c 1.204331,-2.64333 -0.878178,-7.51461 -4.61541,-10.79604 -2.600798,-2.28362 -3.518119,-4.3691 -3.210089,-7.2981 0.143079,-1.36044 0.3522,-2.71634 0.46472,-3.01309 0.112519,-0.29676 -0.0382,-0.66096 -0.33496,-0.80934 -0.296752,-0.14837 -0.61636,0.39793 -0.710261,1.21401 -0.0939,0.81607 -0.397388,1.48377 -0.674431,1.48377 -0.733158,0 -0.616767,1.82933 0.166222,2.61234 0.53353,0.53354 0.521769,0.76149 -0.0578,1.11966 -1.06195,0.65635 -0.242909,2.74267 1.076719,2.74267 0.724842,0 1.025883,0.30852 0.921301,0.94422 -0.21898,1.33114 0.510111,2.29312 1.73796,2.29312 0.57598,0 1.04793,0.3035 1.04879,0.67444 0.0011,0.37094 0.688771,1.13483 1.52872,1.69753 1.106019,0.74095 1.463411,1.35665 1.295951,2.23265 -0.12717,0.66526 0.0572,1.74844 0.409649,2.40706 0.46347,0.86602 0.477681,1.36069 0.0513,1.78704 -0.695939,0.69595 -0.784829,1.99239 -0.136599,1.99239 0.24911,0 0.716251,-0.57795 1.0381,-1.28433 z"
         style="fill:none;stroke:#0000ff;stroke-width:0.1;stroke-miterlimit:4;stroke-dasharray:none" />
      <path
         id="path898"
         d="m 45.662383,284.79539 c 0.471102,-1.03396 0.4683,-1.51648 -0.01159,-1.99636 -1.31009,-1.31014 -0.735852,-2.19359 1.219578,-1.87625 1.52586,0.24761 1.995972,0.0815 2.666942,-0.9426 0.8099,-1.2361 1.121079,-2.82008 0.95913,-4.88216 -0.0657,-0.83623 -0.297071,-0.65631 -1.028102,0.79939 -0.628359,1.25125 -1.934228,2.43114 -3.910819,3.53354 -3.127039,1.74403 -3.33551,2.2823 -2.12107,5.47662 0.619689,1.62994 1.451269,1.58803 2.225911,-0.11218 z"
         style="fill:none;stroke:#0000ff;stroke-width:0.1;stroke-miterlimit:4;stroke-dasharray:none" />
      <path
         id="path896"
         d="m 22.587973,285.51156 c 0.73745,-1.05288 0.7409,-1.32493 0.0306,-2.40902 -1.15764,-1.76684 -1.01835,-1.97614 1.08766,-1.63437 1.55413,0.25221 1.88838,0.13971 1.88838,-0.63561 0,-0.51813 -0.30349,-1.33541 -0.67441,-1.81618 -0.59922,-0.77662 -0.996,-0.58271 -3.55766,1.73865 l -2.88324,2.61277 1.2312,1.66534 c 1.46529,1.98197 1.78692,2.03544 2.87747,0.47842 z"
         style="fill:none;stroke:#0000ff;stroke-width:0.1;stroke-miterlimit:4;stroke-dasharray:none" />
      <path
         id="path894"
         d="m 25.594613,235.7423 c 0,-0.13086 -0.24279,-0.38799 -0.53954,-0.5714 -0.29674,-0.1834 -0.53953,-0.0763 -0.53953,0.23794 0,0.31427 0.24279,0.5714 0.53953,0.5714 0.29675,0 0.53954,-0.10707 0.53954,-0.23794 z"
         style="fill:none;stroke:#0000ff;stroke-width:0.1;stroke-miterlimit:4;stroke-dasharray:none" />
      <path
         id="path892"
         d="m 23.197693,237.21537 c -0.16543,-0.43111 -0.30078,-0.89971 -0.30078,-1.04133 0,-0.14162 -0.24279,-0.10743 -0.53953,0.076 -0.92264,0.57024 -0.65159,2.43713 0.30078,2.07167 0.46216,-0.17736 0.70496,-0.6752 0.53953,-1.10631 z"
         style="fill:none;stroke:#0000ff;stroke-width:0.1;stroke-miterlimit:4;stroke-dasharray:none" />
      <path
         id="path890"
         d="m 21.278303,237.62396 c 0,-2.97129 2.71698,-4.24867 4.60332,-2.16424 0.96624,1.06774 0.96483,1.12566 -0.0513,2.09098 -0.57477,0.54605 -1.83412,1.13841 -2.798549,1.31636 -1.649981,0.30443 -1.753501,0.23105 -1.753501,-1.2431 z"
         style="fill:none;stroke:#0000ff;stroke-width:0.1;stroke-miterlimit:4;stroke-dasharray:none" />
      <path
         id="path888"
         d="m 18.334963,251.16381 c -0.39001,-1.22888 0.17748,-2.87961 0.84759,-2.46545 0.56601,0.34983 0.43941,3.46855 -0.14081,3.46855 -0.21363,0 -0.53168,-0.4514 -0.70678,-1.0031 z"
         style="fill:none;stroke:#0000ff;stroke-width:0.1;stroke-miterlimit:4;stroke-dasharray:none" />
      <path
         id="path886"
         d="m 54.169743,290.07069 c -0.01119,-0.22256 -1.106638,-1.25446 -2.434241,-2.29311 -2.067779,-1.61772 -2.2933,-1.97695 -1.57312,-2.50582 0.462392,-0.33955 1.315011,-0.49334 1.894711,-0.34174 1.471321,0.38478 1.315011,-0.64569 -0.289388,-1.90775 -1.062861,-0.83606 -1.197833,-1.17754 -0.646351,-1.63525 0.383368,-0.31817 1.197211,-0.4477 1.80852,-0.28783 1.481809,0.38751 2.224709,-1.38851 0.965869,-2.30903 -1.200481,-0.87783 -0.525251,-1.80369 1.315429,-1.80369 2.165961,0 2.383451,-0.53062 0.813761,-1.9854 -1.14508,-1.06126 -1.353799,-1.67791 -1.205191,-3.56085 l 0.179732,-2.27731 -2.562799,0.0874 c -1.409552,0.0481 -2.562813,-0.0884 -2.562813,-0.3032 0,-0.2148 0.778852,-0.9664 1.730772,-1.67021 1.734929,-1.28273 4.232968,-1.65406 5.908911,-0.87836 0.6521,0.30183 0.996579,0.0958 1.267568,-0.75799 0.806439,-2.54096 -2.717088,-3.12086 -6.67952,-1.09931 -3.035879,1.54884 -3.665059,0.95757 -1.649741,-1.5503 2.077141,-2.5848 5.202651,-4.06355 7.723992,-3.65438 l 1.864519,0.30258 -0.675479,-1.95112 c -0.371512,-1.07312 -1.046911,-2.18543 -1.500901,-2.47181 -1.383269,-0.87257 -5.498331,1.52144 -7.797409,4.53628 -1.118179,1.46632 -2.225971,2.66602 -2.461741,2.66602 -0.23576,0 -0.42867,-0.68072 -0.42867,-1.51273 0,-2.33131 2.495391,-6.80387 4.65242,-8.33866 1.795491,-1.27755 1.86187,-1.42 0.901221,-1.93414 -0.867651,-0.46437 -1.463231,-0.1421 -3.64676,1.97326 -2.797411,2.71008 -4.57358,5.931 -4.59272,8.32849 -0.01759,2.20388 -0.94334,1.79594 -1.34703,-0.59359 -0.32325,-1.91332 0.280371,-4.43171 2.153218,-8.98352 0.438042,-1.0646 0.428271,-1.06529 -0.726548,-0.0513 -0.643821,0.56531 -1.17057,1.24921 -1.17057,1.51978 0,0.27056 -0.594762,1.27173 -1.32171,2.22483 -2.127921,2.78994 -3.509561,6.36774 -3.522291,9.1211 -0.007,1.40959 -0.22309,2.56289 -0.48126,2.56289 -0.87712,0 -1.84224,-4.80623 -1.48643,-7.40224 l 0.34688,-2.5308 -1.84426,1.78758 c -1.01435,0.98316 -2.60945,3.2788 -3.54469,5.1014 l -1.70043,3.31384 0.22344,-4.21028 c 0.1229,-2.31565 0.50187,-4.48871 0.84217,-4.82902 1.36609,-1.36614 0.47543,-1.4276 -2.06103,-0.14224 -1.47386,0.74689 -3.34525,1.35798 -4.15863,1.35798 -1.40055,0 -1.30862,-0.15627 1.73556,-2.95042 3.78494,-3.47406 5.89184,-4.60336 8.58833,-4.60336 1.08546,0 1.8429,-0.21144 1.68319,-0.46986 -0.34777,-0.56273 -3.43703,-1.33112 -4.76404,-1.18497 -1.40676,0.15494 -1.14403,-0.69225 0.61888,-1.99568 1.17544,-0.86906 2.03132,-1.07969 3.45112,-0.84928 1.59038,0.25809 1.94488,0.12733 2.24852,-0.82941 0.47972,-1.5115 0.0596,-2.07112 -1.87351,-2.49572 -2.20845,-0.48507 -2.02843,-0.95473 0.81549,-2.12755 1.69744,-0.70001 2.42793,-1.31574 2.42793,-2.04649 0,-0.9127 -0.26191,-1.00098 -2.06569,-0.69622 -2.98101,0.50365 -3.89846,-0.71543 -1.9813,-2.63265 0.76909,-0.76912 1.6908,-1.40379 2.04824,-1.41039 0.95302,-0.0176 2.852421,-1.68347 3.616979,-3.17226 0.603152,-1.17448 0.571172,-1.2564 -0.341498,-0.87484 -0.553831,0.23154 -1.613941,0.54373 -2.355801,0.69377 -0.74188,0.15004 -1.65821,0.51762 -2.03632,0.81684 -1.05423,0.83428 -1.36755,0.0944 -0.37877,-0.89439 0.48045,-0.48047 1.35775,-0.87357 1.94955,-0.87357 0.5918,0 1.54564,-0.25134 2.11961,-0.55854 1.315911,-0.70428 1.40416,-1.86901 0.0994,-1.31217 -0.51931,0.22163 -2.02886,0.50057 -3.35458,0.61986 -1.3257,0.11929 -2.80157,0.57093 -3.27971,1.00365 -0.47814,0.43271 -1.17946,0.78675 -1.55851,0.78675 -0.37905,0 -1.17659,0.61967 -1.77232,1.37704 -1.02898,1.30818 -1.13403,1.33098 -2.10091,0.45593 -0.55978,-0.5066 -1.01779,-1.29 -1.01779,-1.74086 0,-0.64895 -0.25294,-0.58962 -1.21396,0.28472 -1.2961,1.17922 -2.56281,1.10409 -2.56281,-0.15201 0,-0.99575 -0.55208,-0.96532 -2.09509,0.11548 -1.77825,1.24558 -2.76076,3.9688 -2.76076,7.65209 0,2.53728 -0.22669,3.3762 -1.13431,4.19761 -1.3589,1.22982 -2.64246,3.59153 -2.64246,4.86204 0,0.50543 0.6141,2.21708 1.36466,3.80368 1.56272,3.30345 2.7755,3.69505 4.53111,1.46308 1.1631,-1.47869 1.58879,-5.59257 0.5787,-5.59257 -0.29675,0 -0.53954,-0.2428 -0.53954,-0.53956 0,-0.62947 1.97345,-0.73537 2.34999,-0.12611 0.14053,0.2274 0.0332,1.60307 -0.23836,3.05706 -0.27163,1.45399 -0.40702,2.73046 -0.30089,2.83659 0.57344,0.57346 1.9897,-0.69726 2.49979,-2.24289 0.32227,-0.97652 1.06238,-2.20668 1.64471,-2.73369 1.12187,-1.01531 1.42361,-3.19955 0.51922,-3.75851 -0.75215,-0.46487 -0.67668,-1.88845 0.10012,-1.88845 0.88964,0 3.13712,2.19338 3.13712,3.06161 0,0.39341 0.24567,0.71528 0.54592,0.71528 0.84472,0 0.031,-4.37939 -1.11854,-6.0202 -0.83574,-1.19287 -0.87462,-1.48389 -0.23123,-1.73079 1.33894,-0.51381 4.02691,0.76221 4.35441,2.06712 0.45818,1.82558 -0.66401,5.31834 -2.16041,6.72417 -0.72581,0.68189 -2.12459,1.40392 -3.10841,1.60452 -1.26595,0.25812 -2.00679,0.83166 -2.53481,1.96239 -1.12014,2.39873 -2.25031,3.48613 -3.62327,3.48613 -2.00567,0 -2.91454,1.93093 -2.9136,6.19006 9.53e-4,3.97469 0.40874,5.08596 3.4612,9.43056 1.16709,1.66113 1.57366,2.85998 1.57366,4.64026 0,1.73092 0.21696,2.40046 0.77787,2.40046 0.53423,0 0.68566,-0.38026 0.48347,-1.214 -0.95362,-3.93231 -1.01764,-4.42783 -0.50541,-3.91178 0.83694,0.84317 1.76191,4.021 1.76191,6.05315 0,1.60519 0.15806,1.82301 1.21397,1.67304 1.72648,-0.2452 1.95708,-2.50849 0.37702,-3.70037 -1.50216,-1.13311 -0.96347,-2.13737 1.14649,-2.13737 1.2098,0 1.86492,-0.42325 2.71427,-1.75356 1.09025,-1.70763 1.11342,-1.71585 0.88469,-0.31426 -0.21083,1.29199 -0.0154,1.495 1.9094,1.98358 2.43617,0.61839 4.27927,0.12255 6.186831,-1.66443 1.412679,-1.32338 1.52795,-2.17506 0.41893,-3.09549 -1.07148,-0.88928 -1.666862,-4.24037 -0.891191,-5.01606 0.449829,-0.44985 0.60714,-0.16761 0.60714,1.08933 0,2.27017 1.81624,4.19837 5.069419,5.38189 3.927742,1.42894 4.986811,3.24768 4.710401,8.08911 -0.0375,0.65615 -1.17226,2.54864 -2.52177,4.20552 l -2.453651,3.01252 2.588541,2.38261 c 2.25979,2.08003 5.05611,3.21108 4.996032,2.02079 z"
         style="fill:none;stroke:#0000ff;stroke-width:0.1;stroke-miterlimit:4;stroke-dasharray:none" />
      <path
         id="path884"
         d="m 32.069073,290.75184 c 0,-1.53681 -0.91458,-2.51617 -4.0848,-4.3741 -2.69273,-1.57809 -2.66916,-2.37704 0.0701,-2.37704 2.16983,0 2.27206,-0.29748 0.68343,-1.98857 -1.32582,-1.4113 -2.06411,-1.59564 -2.06411,-0.51537 0,0.40337 -0.84584,1.79947 -1.87964,3.10245 l -1.87963,2.36904 1.80184,0.43987 c 1.01768,0.24843 2.81384,1.47105 4.12717,2.80927 2.45476,2.5013 3.22564,2.62902 3.22564,0.53445 z"
         style="fill:none;stroke:#0000ff;stroke-width:0.1;stroke-miterlimit:4;stroke-dasharray:none" />
      <path
         id="path854"
         d="m 22.348963,295.95635 c -1.03399,-0.54653 -2.11391,-1.50442 -2.39983,-2.12865 -0.28592,-0.62423 -1.13569,-1.28767 -1.88839,-1.47432 -2.17003,-0.5381 -3.79645,-2.38843 -3.79645,-4.31912 0,-1.66752 2.70662,-6.19179 3.70419,-6.19179 0.25311,0 1.58696,-0.99183 2.96409,-2.20408 2.32044,-2.0426 2.50388,-2.39252 2.50388,-4.77621 0,-1.89346 -0.35542,-3.05587 -1.347069,-4.40548 -2.862001,-3.89515 -3.634361,-6.268 -3.420281,-10.50774 0.1896,-3.75472 0.13753,-3.96687 -1.04667,-4.26409 -0.6854,-0.17203 -1.39297,-0.73045 -1.57236,-1.24093 -0.1794,-0.51048 -0.79689,-1.99262 -1.37221,-3.29365 -1.35138,-3.05601 -0.94419,-5.26038 1.51554,-8.20457 1.70026,-2.03514 1.85666,-2.49042 1.55244,-4.51917 -0.22702,-1.51396 -0.0581,-2.92669 0.5136,-4.29499 0.80454,-1.92557 0.79215,-2.11494 -0.22277,-3.40524 -0.6424,-0.81671 -1.07468,-2.18605 -1.07468,-3.40431 0,-1.96635 0.078,-2.05121 2.21765,-2.41272 1.7933,-0.30298 2.51182,-0.15719 3.75492,0.76191 1.93381,1.42977 2.12051,1.42058 2.12051,-0.10439 0,-1.22726 0.89097,-2.53591 1.72653,-2.53591 0.2374,0 0.43162,0.3642 0.43162,0.80933 0,0.91761 0.35524,0.99427 3.86069,0.83313 2.44902,-0.11257 4.09453,0.54729 6.58404,2.64026 0.55153,0.46368 1.7655,0.84306 2.69769,0.84306 1.64164,0 1.69648,0.0763 1.745121,2.428 0.0276,1.3354 0.359658,3.1564 0.73788,4.04667 0.378198,0.89026 0.684379,3.03079 0.68039,4.75672 -0.006,2.64678 -0.39179,3.89702 -2.46348,7.98608 -2.010501,3.9683 -2.307351,4.90516 -1.635861,5.16285 0.4512,0.17314 1.47052,-0.16588 2.265151,-0.75338 4.1832,-3.09282 8.233029,-3.66728 12.42936,-1.76308 2.84302,1.29009 2.590419,1.28672 2.916741,0.0388 0.449379,-1.71847 -1.495402,-5.04828 -4.357611,-7.46105 -3.9668,-3.34389 -4.884881,-7.45454 -2.660722,-11.91312 0.434322,-0.87064 0.612011,-1.91713 0.394851,-2.32553 -0.217149,-0.4084 -0.517609,-1.89585 -0.66771,-3.30544 -0.202229,-1.89929 -0.0887,-2.56289 0.438311,-2.56289 0.39116,0 0.883971,0.27958 1.095158,0.62129 0.266391,0.43105 0.604642,0.3195 1.10463,-0.36431 0.622552,-0.85141 0.896012,-0.89177 2.00837,-0.29644 0.964261,0.51608 1.567411,0.53946 2.401462,0.0931 1.642099,-0.87885 2.02093,0.19457 0.901801,2.5552 -0.515602,1.08757 -1.218491,2.58441 -1.561981,3.3263 -0.343501,0.74189 -1.129451,1.42211 -1.74656,1.51161 -2.255181,0.32708 -3.130129,5.14097 -1.40118,7.7092 0.517361,0.76849 1.865421,2.2023 2.995689,3.18625 3.786751,3.29648 5.473912,8.41076 3.96558,12.02081 -0.736341,1.76236 -0.738619,2.15809 -0.02069,3.59732 2.042239,4.09385 1.407049,8.05249 -1.940772,12.09556 -2.243788,2.70978 -2.79804,4.9951 -1.34652,5.55211 0.453371,0.17398 1.070941,0.77722 1.37241,1.34052 0.442769,0.82735 0.128801,1.60978 -1.633599,4.07103 -2.450131,3.42166 -2.84099,6.18391 -1.372409,9.69882 2.138719,5.11882 0.024,7.74034 -6.243802,7.74034 -3.021629,0 -5.895819,-1.96421 -5.895819,-4.02917 0,-0.86712 -0.48805,-1.43763 -1.63689,-1.91352 -2.344681,-0.97122 -3.821241,-3.03404 -3.420531,-4.77861 0.6326,-2.75414 3.042161,-5.50123 6.698269,-7.63657 2.450092,-1.43098 3.82121,-2.62227 4.272711,-3.71231 0.841852,-2.03248 0.49538,-2.56404 -2.196989,-3.37072 -2.065641,-0.61891 -2.231191,-0.58016 -3.349471,0.78403 -1.727039,2.10683 -4.57826,3.10016 -7.8025,2.71828 -2.43352,-0.28822 -2.78213,-0.1928 -3.51605,0.96243 -1.60533,2.52685 -1.65108,5.49762 -0.15163,9.84209 1.74005,5.04156 1.74125,6.31902 0.008,8.37911 -2.25158,2.67595 -6.26487,3.42667 -9.41566,1.76128 z"
         style="fill:none;stroke:#ff0000;stroke-width:0.1;stroke-miterlimit:4;stroke-dasharray:none" />
      <path
         id="path868"
         style="fill:none;stroke:#0000ff;stroke-width:0.1"
         d="m 17.768061,225.43105 -0.543362,0.54336 m 0.05952,0.3396 0.919031,-0.91903 m 0.500479,-0.10136 -1.435912,1.43591 m 1.471737,-1.07261 0.466575,-0.46658 m -1.314891,1.3149 -0.659181,0.65918 m 2.048444,-1.64933 0.378211,-0.37821 m -1.58998,1.58998 -0.805975,0.80598 m 2.479719,-2.0806 0.426636,-0.42663 m -1.938456,1.93845 -0.937199,0.9372 m 2.814477,-2.41535 0.419878,-0.41988 m -2.110641,2.11064 -1.08539,1.08539 m 3.131493,-2.73237 0.43884,-0.43884 m -2.252504,2.2525 -0.438251,0.43826 m -0.802992,0.80299 0.06659,-0.0666 m 3.786291,-3.38717 -0.44263,0.44263 m -2.314523,2.31452 0.377958,-0.37795 m -1.26072,1.26072 -0.136377,0.13637 m 3.689002,-3.28988 0.381441,-0.38144 m -2.423708,2.42371 -0.331899,0.3319 m -1.221859,1.22186 0.175512,-0.17551 m 4.096105,-3.69699 -0.337271,0.33727 m -2.417033,2.41704 0.306429,-0.30643 m -1.503603,1.5036 -0.205926,0.20593 m 4.121016,-3.7219 0.29723,-0.29723 m -2.438734,2.43874 -0.280958,0.28096 m -1.584341,1.58434 0.246529,-0.24653 m 4.300929,-3.90181 -0.236374,0.23638 m -2.421417,2.42141 0.245616,-0.24561 m -1.733938,1.73393 -0.263245,0.26325 m 4.434935,-4.03581 0.217848,-0.21785 m -2.385616,2.38562 -0.200956,0.20095 m -1.913087,1.91309 0.264937,-0.26494 m 4.475961,-4.07684 -0.199162,0.19917 m -2.314006,2.314 0.156297,-0.1563 m -1.955841,1.95585 -0.276865,0.27686 m 4.61471,-4.21559 0.209849,-0.20985 m -2.32187,2.32187 -0.111637,0.11164 m -2.224639,2.22464 0.303496,-0.3035 m 7.558814,-7.15969 -0.390532,0.39054 m -2.823677,2.82367 0.245025,-0.24502 m -2.286866,2.28686 -0.08724,0.0872 m -2.35261,2.35261 0.330127,-0.33013 m 7.775377,-7.37625 -1.198442,1.19844 m -2.252714,2.25271 0.307347,-0.30734 m -2.251864,2.25186 -0.06667,0.0667 m -2.476744,2.47675 0.356758,-0.35676 m 7.75006,-7.35094 -1.408893,1.4089 m -2.062692,2.06269 0.39503,-0.39503 m -4.379015,4.37901 -0.498634,0.49864 m 6.446274,-6.04715 1.580389,-1.58039 m -2.905072,2.90507 -0.517531,0.51753 m -1.745348,1.74535 0.07829,-0.0783 m -2.055986,2.05599 -0.750887,0.75089 m 6.286561,-5.88744 1.640524,-1.64053 m -2.689186,2.68919 -0.655502,0.6555 m -1.644553,1.64456 0.143191,-0.1432 m -1.944155,1.94416 -1.031556,1.03156 m 4.424254,-4.02514 3.510313,-3.51031 m -4.67848,4.67848 -0.441994,0.44199 m -2.885917,2.88592 1.646438,-1.64644 m 6.557743,-6.15862 -3.66495,3.66495 m -4.595759,4.59576 3.750884,-3.75088 m 4.766383,-4.36726 -8.76675,8.76675 m 2.769167,-2.37005 6.305999,-6.306 m -7.899209,7.89921 -1.422718,1.42272 m 4.273093,-3.87397 5.422603,-5.4226 m -9.080367,9.08036 -0.953282,0.95329 m 4.985988,-4.58687 5.421429,-5.42143 m -9.54273,9.54273 -0.896166,0.89617 m 5.307249,-4.90813 5.502118,-5.50212 m -10.209336,10.20934 -0.80637,0.80637 m 5.672278,-5.27316 5.755789,-5.75579 m -10.588226,10.58823 -0.798485,0.79849 m 5.697226,-5.29811 6.101846,-6.10184 M 18.533634,236.24 l -0.577018,0.57702 m 5.777022,-5.3779 6.454995,-6.45499 m -11.712004,11.712 -0.54895,0.54895 m 5.88325,-5.48412 6.790066,-6.79007 m -12.190816,12.19081 -0.450947,0.45095 m 6.037308,-5.63818 7.018587,-7.01859 m -12.653995,12.65399 -0.370346,0.37035 m 6.313817,-5.91469 7.111787,-7.11179 m -13.015047,13.01505 -0.379584,0.37958 m 6.742028,-6.34291 7.065191,-7.06519 m -13.507914,13.50792 -0.263722,0.26372 m 7.180712,-6.78159 6.956715,-6.95672 m -13.887847,13.88785 -0.213998,0.214 m 8.689818,-8.2907 5.812134,-5.81213 m -9.903806,9.90381 -0.701127,0.70112 m -3.861437,3.86144 0.164274,-0.16427 m 14.616167,-14.21705 -5.573211,5.57321 m -5.423758,5.42376 1.175479,-1.17548 m -4.806766,4.80677 -0.135069,0.13507 m 9.30632,-8.9072 5.787829,-5.78783 m -9.604814,9.60481 -1.964054,1.96406 m -3.55255,3.55255 0.149657,-0.14966 m 15.296126,-14.897 -6.054777,6.05477 m -4.596961,4.59697 1.094802,-1.09481 m -5.751871,5.75187 -0.259763,0.25977 m 9.594629,-9.19551 6.272977,-6.27298 m -9.503742,9.50375 -1.213742,1.21374 m -6.739483,6.73948 1.859318,-1.85932 m 15.904241,-15.50512 -6.450696,6.4507 m -4.483932,4.48393 1.403864,-1.40386 m -6.503315,6.50331 -2.470172,2.47018 m 12.206419,-11.8073 6.56987,-6.56987 m -10.161273,10.16127 -0.955946,0.95595 m -1.740923,1.74092 0.149385,-0.14938 m -3.671471,3.67147 -3.019029,3.01903 m 12.992346,-12.59323 6.678948,-6.67895 m -10.292894,10.2929 -1.006915,1.00691 m -1.716864,1.71687 0.205212,-0.20521 m -4.198129,4.19812 -3.193317,3.19332 m 13.712977,-13.31385 6.76264,-6.76264 m -10.35505,10.35505 -1.140085,1.14008 m -1.455983,1.45599 0.12042,-0.12042 m -4.90915,4.90915 -2.738969,2.73896 m 13.909112,-13.50999 6.820066,-6.82006 m -10.338611,10.33861 -2.398064,2.39806 m -8.196308,8.19631 1.00903,-1.00903 m 20.174316,-19.77519 -6.851499,6.8515 m -5.668255,5.66825 2.813463,-2.81346 m -10.894401,10.8944 -0.623688,0.62369 m 14.592816,-14.1937 6.884509,-6.8845 m -9.776347,9.77634 -2.452893,2.4529 m -9.356012,9.35601 0.59921,-0.59921 m 21.213335,-20.81421 -6.866415,6.86641 m -5.143471,5.14347 2.189135,-2.18913 m -11.584438,11.58443 -0.351014,0.35102 m 15.232153,-14.83303 6.751343,-6.75135 m -9.92263,9.92263 -1.562357,1.56236 m -10.467839,10.46784 0.270444,-0.27044 m 21.909675,-21.51056 -4.145839,4.14584 m -6.830136,6.83014 0.630919,-0.63092 m -11.488309,11.48831 -0.324488,0.32449 m 18.711905,-18.31278 3.673242,-3.67325 m -21.998563,21.99857 -0.308364,0.30836 m 19.498656,-19.09953 3.035564,-3.03557 m -22.121097,22.1211 -0.334904,0.3349 m 20.485837,-20.08671 2.197457,-2.19746 m -22.251291,22.25129 -0.364118,0.36412 m 20.948962,-20.54984 1.89374,-1.89374 m -22.381486,22.38149 -0.350886,0.35088 m 21.370569,-20.97144 1.593972,-1.59398 m -22.493919,22.49392 -0.36029,0.36029 m 21.716902,-21.31777 1.382805,-1.38281 m -22.621819,22.62182 -0.367557,0.36756 m 22.07373,-21.67461 1.16129,-1.16129 m -22.749865,22.74986 -0.375469,0.37547 m 22.426712,-22.02759 0.985248,-0.98525 m -22.918894,22.9189 -0.375687,0.37568 m 22.771906,-22.37278 0.809301,-0.8093 m -23.087922,23.08792 -0.375904,0.37591 m 23.117098,-22.71798 0.649981,-0.64998 m -23.273577,23.27358 -0.376121,0.37612 m 23.46229,-23.06317 0.509254,-0.50925 m -23.477825,23.47782 -0.376339,0.37634 m 23.709747,-23.31062 0.46657,-0.46657 m -2.696949,2.69694 -1.133154,1.13316 m -17.093704,17.0937 0.355895,-0.35589 m -3.114469,3.11447 -0.376556,0.37655 m 24.277249,-23.87812 0.147778,-0.14778 m -2.516509,2.51651 -1.570114,1.57011 m -6.388508,6.38851 0.09112,-0.0911 m -8.424874,8.42488 -0.130736,0.13073 m -2.4332,2.4332 0.571098,-0.5711 m -3.113675,3.11368 -0.392246,0.39225 m 21.020472,-20.62135 1.251435,-1.25144 m -7.807882,7.80788 -0.518055,0.51806 m -8.387258,8.38726 0.492285,-0.49229 m -2.460615,2.46062 -0.730461,0.73046 m -2.742542,2.74254 0.411074,-0.41108 m 22.145095,-21.74597 -0.775899,0.7759 m -7.821973,7.82197 0.766843,-0.76684 m -8.427261,8.42726 -0.529781,0.52978 m -3.010193,3.0102 0.716945,-0.71695 m -2.927567,2.92757 -0.429902,0.4299 m 22.325351,-21.92623 0.585124,-0.58512 m -7.931509,7.93151 -0.981046,0.98104 m -8.116515,8.11652 0.681485,-0.68149 m -3.185721,3.18572 -0.685156,0.68516 m -2.574633,2.57463 0.44873,-0.44873 m 22.828138,-22.42901 -0.571601,0.5716 m -8.667723,8.66772 1.146635,-1.14663 m -3.951677,3.95167 -0.309219,0.30922 m -5.010916,5.01092 0.818739,-0.81874 m -3.451618,3.45162 -0.575696,0.57569 m -2.586412,2.58641 0.479776,-0.47977 m 25.037656,-24.63853 -0.251294,0.25129 m -2.087352,2.08735 0.767909,-0.76791 m -8.563062,8.56306 -1.31144,1.31144 m -3.177657,3.17766 0.552997,-0.553 m -4.69845,4.69845 -0.841539,0.84154 m -3.191972,3.19197 0.355019,-0.35501 m -2.43229,2.43229 -0.52092,0.52092 m 23.595977,-23.19686 1.940293,-1.94029 m -9.983928,9.98393 -1.453341,1.45334 m -3.279926,3.27992 0.768945,-0.76894 m -4.953622,4.95362 -0.77972,0.77972 m -3.110681,3.11068 0.145008,-0.145 m -2.20956,2.20955 -0.5533,0.5533 m 24.089239,-23.69011 1.342385,-1.34239 m -9.716918,9.71692 -1.597662,1.59766 m -3.273111,3.27311 0.868946,-0.86894 m -5.219346,5.21934 -0.751953,0.75196 m -5.596507,5.5965 0.566751,-0.56675 m 24.722189,-24.32306 -0.760187,0.76018 m -10.425232,10.42524 1.721904,-1.72191 m -4.038188,4.03819 -0.876229,0.87623 m -5.283469,5.28347 0.649101,-0.6491 m -5.517631,5.51763 -0.556965,0.55696 M 41.568,230.36793 l 0.229943,-0.22994 m -9.225076,9.22507 -1.862643,1.86264 m -3.106758,3.10676 0.894852,-0.89485 m -5.793736,5.79374 -0.674731,0.67473 m -5.11928,5.11928 0.534246,-0.53425 m 19.643172,-19.24405 -2.173441,2.17344 m -4.089272,4.08927 1.984935,-1.98493 m -4.092462,4.09246 -0.941534,0.94154 m -5.71476,5.71476 0.57942,-0.57942 m -5.00534,5.00534 -0.481728,0.48172 m 17.653756,-17.25463 2.732664,-2.73266 m -4.505151,4.50515 -2.09904,2.09904 m -3.035716,3.03571 1.03686,-1.03686 m -6.360013,6.36002 -0.685423,0.68542 m -4.46541,4.46541 0.463777,-0.46378 m 32.418696,-32.01957 -0.345926,0.34592 m -8.426163,8.42617 0.328252,-0.32825 m -3.555945,3.55594 -3.392859,3.39286 m -3.896448,3.89645 2.225921,-2.22592 m -4.111148,4.11115 -1.158496,1.15849 m -6.079242,6.07924 0.609703,-0.6097 m -4.36177,4.36177 -0.429558,0.42956 m 32.15595,-31.75683 0.756498,-0.7565 m -8.736881,8.73688 -6.803795,6.8038 m -3.9835,3.9835 2.328615,-2.32862 m -4.113008,4.11301 -1.294069,1.29407 m -6.303175,6.30317 0.71324,-0.71324 m -3.980642,3.98065 -0.450475,0.45047 m 31.93831,-31.53919 0.893912,-0.89391 m -8.897445,8.89745 -6.628195,6.62819 m -4.123385,4.12339 2.405087,-2.40509 m -4.088647,4.08865 -1.482857,1.48285 m -6.691246,6.69125 1.034131,-1.03413 m -3.581042,3.58104 -0.489867,0.48987 m 31.677633,-31.27851 1.074364,-1.07437 m -9.055069,9.05507 -6.345572,6.34558 m -4.373233,4.37323 2.448433,-2.44843 m -4.031158,4.03115 -1.821839,1.82184 m -9.320496,9.3205 3.746392,-3.74639 m 28.950991,-28.55187 -1.244734,1.24473 m -14.002234,14.00224 6.044357,-6.04436 m -8.269697,8.2697 -2.416332,2.41633 m -3.672703,3.6727 2.190811,-2.19081 m -7.599326,7.59933 -3.523877,3.52387 m 31.282407,-30.88328 1.525697,-1.5257 m -9.453043,9.45304 -5.727522,5.72753 m -4.929135,4.92913 2.36972,-2.36972 m -3.803089,3.80309 -4.009369,4.00937 m -7.141514,7.14151 3.405847,-3.40584 m 30.917699,-30.51858 -3.102565,3.10257 m -13.362003,13.362 5.45428,-5.45428 m -8.374632,8.37463 -2.304476,2.30448 m -5.879371,5.87937 4.510428,-4.51043 m -7.849151,7.84915 -3.331183,3.33118 m 31.188834,-30.78971 3.41557,-3.41557 m -11.303669,11.30367 -5.003945,5.00395 m -5.697613,5.69761 2.238334,-2.23834 m -3.566283,3.56629 -4.946046,4.94604 m -6.297443,6.29745 3.560612,-3.56062 m 31.288187,-30.88906 -3.634978,3.63498 m -12.497325,12.49732 4.634725,-4.63472 m -8.619745,8.61974 -2.109425,2.10943 m -6.355532,6.35553 5.054482,-5.05448 m -7.37464,7.37464 -0.679905,0.6799 m -3.238716,3.23872 0.812428,-0.81243 m 34.280764,-33.88164 -3.854386,3.85438 m -12.082086,12.08209 4.269727,-4.26973 m -8.801199,8.8012 -2.019323,2.01933 m -3.657249,3.65725 2.507622,-2.50763 m -4.023773,4.02378 -3.734937,3.73493 m -3.665015,3.66502 0.809393,-0.80939 m 34.524938,-34.12582 -4.075371,4.07537 m -11.672496,11.6725 3.906537,-3.90654 m -9.055295,9.0553 -1.840947,1.84094 m -3.171828,3.17183 2.222509,-2.22251 m -5.294458,5.29446 -2.248522,2.24852 m -4.120041,4.12004 0.56892,-0.56892 m 35.057423,-34.6583 -4.283707,4.28371 m -11.363876,11.36387 3.625346,-3.62534 m -9.295873,9.29587 -4.429178,4.42918 m -5.197603,5.1976 1.32178,-1.32178 m -5.429872,5.42987 -0.588941,0.58894 m 31.445784,-31.04666 4.463634,-4.46363 m -12.19666,12.19666 -3.343112,3.34311 m -9.773552,9.77355 3.451568,-3.45156 m -13.574004,13.574 -0.489238,0.48924 m 31.548932,-31.14981 4.710832,-4.71083 m -12.438356,12.43835 -3.191177,3.19118 m -4.402026,4.40203 0.376336,-0.37634 m -2.916924,2.91692 -2.306453,2.30646 m -11.396744,11.39674 0.459454,-0.45945 m 36.135775,-35.73666 -4.943149,4.94315 m -10.816602,10.8166 3.069639,-3.06963 m -6.541145,6.54114 -0.849028,0.84903 m -4.210744,4.21074 1.373866,-1.37386 m -13.15436,13.15436 -0.556989,0.55699 m 31.767178,-31.36806 5.341826,-5.34183 m -13.108976,13.10898 -3.081072,3.08107 m -4.065832,4.06583 1.304439,-1.30444 m -17.697417,17.69742 -0.454331,0.45433 m 31.837775,-31.43865 5.879122,-5.87912 m -13.661057,13.66106 -3.079257,3.07925 m -3.824376,3.82438 2.02166,-2.02166 m -18.731309,18.73131 -0.451173,0.45117 m 31.789262,-31.39014 6.597408,-6.59741 m -14.260588,14.26059 -6.660362,6.66036 m -17.474336,17.47434 0.448014,-0.44802 m 38.40124,-38.00211 -7.280524,7.28052 m -13.788399,13.7884 6.385403,-6.3854 m -23.699222,23.69922 -0.479145,0.47915 m 31.306687,-30.90757 7.779895,-7.77989 m -14.869284,14.86928 -6.11808,6.11808 m -5.673477,5.67348 1.094099,-1.0941 m -13.023841,13.02384 -0.475723,0.47572 m 31.301359,-30.90223 7.811554,-7.81156 m -14.876961,14.87696 -5.850756,5.85076 m -5.887276,5.88727 1.921122,-1.92112 m -13.926464,13.92647 -0.472301,0.4723 m 30.997809,-30.59869 8.016922,-8.01692 m -14.776307,14.77631 -5.567251,5.56725 m -5.80689,5.80689 2.256405,-2.25641 m -14.631533,14.63153 -0.46888,0.46888 m 33.04653,-32.6474 5.76715,-5.76715 m -7.000175,7.00017 -1.161451,1.16145 m -11.739461,11.73946 5.320247,-5.32024 m -8.680254,8.68025 -2.316217,2.31622 m -13.206604,13.2066 0.45597,-0.45597 m 38.374726,-37.9756 -5.613953,5.61395 m -2.722769,2.72277 1.158222,-1.15822 m -7.43443,7.43443 -5.079535,5.07953 m -5.546128,5.54613 2.392912,-2.39291 m -15.512191,15.51219 -0.420732,0.42073 m 33.30298,-32.90386 5.081266,-5.08126 m -6.921661,6.92166 -1.149018,1.14902 m -11.029729,11.02973 4.896526,-4.89653 m -7.88098,7.88098 -2.373873,2.37388 m -8.851777,8.85177 2.120277,-2.12028 m -6.756425,6.75643 -0.385494,0.38549 m 33.289258,-32.89013 4.416018,-4.41602 m -7.172082,7.17208 -0.425564,0.42557 m -10.704928,10.70492 4.694509,-4.69451 m -7.483459,7.48346 -2.363088,2.36309 m -9.108761,9.10876 4.569638,-4.56963 m -9.25364,9.25363 -0.415288,0.41529 m 33.163296,-32.76417 4.146017,-4.14602 m -6.862839,6.86284 -0.408828,0.40883 m -10.540236,10.54023 4.534532,-4.53453 m -7.097166,7.09717 -2.402111,2.40211 m -9.067557,9.06756 5.350666,-5.35067 m -10.342217,10.34222 -0.390106,0.3901 m 34.886895,-34.48777 1.985617,-1.98562 m -3.822615,3.82262 -0.163907,0.16391 m -2.959165,2.95916 0.539091,-0.53909 m -6.540081,6.54008 -4.434661,4.43466 m -4.70627,4.70627 2.423993,-2.42399 m -5.453466,5.45347 -5.928875,5.92887 m -5.743104,5.7431 0.364923,-0.36492 m 36.097885,-35.69876 -1.207157,1.20716 m -2.443157,2.44315 0.142633,-0.14263 m -2.499825,2.49983 -0.639299,0.63929 m -10.475074,10.47508 4.478798,-4.4788 m -6.329347,6.32935 -2.453238,2.45323 m -8.831885,8.83189 6.396221,-6.39622 m -12.139116,12.13912 -0.37891,0.37891 m 29.717669,-29.31855 0.753577,-0.75358 m -6.851532,6.85153 -4.479058,4.47906 m -3.851276,3.85128 2.514567,-2.51457 m -4.901637,4.90164 -6.205885,6.20588 m -6.615179,6.61518 0.389317,-0.38932 m 30.132237,-29.73311 -0.840931,0.84093 m -14.163714,14.16372 7.910881,-7.91088 m -9.975265,9.97526 -6.288978,6.28898 m -7.052089,7.05209 0.369514,-0.36952 m 30.204062,-29.80494 -0.960211,0.96021 m -13.904832,13.90483 7.497121,-7.49712 m -9.376141,9.37615 -6.108386,6.10838 m -7.609669,7.60967 0.374381,-0.37438 m 30.263353,-29.86423 -1.091627,1.09163 m -13.645949,13.64594 6.957418,-6.95741 m -8.631547,8.63154 -6.096354,6.09636 m -8.018218,8.01822 0.383863,-0.38387 m 30.325907,-29.92678 -1.229812,1.22981 m -13.388174,13.38817 6.402276,-6.40227 m -7.956696,7.95669 -5.615123,5.61513 m -8.814794,8.81479 0.397356,-0.39735 m 30.331874,-29.93276 -1.258673,1.25868 m -13.205756,13.20575 5.869751,-5.86975 m -7.227893,7.2279 -5.366907,5.3669 m -9.405334,9.40534 0.383878,-0.38388 m 29.315499,-28.91638 -0.265192,0.26519 m -13.02782,13.02782 5.223445,-5.22344 m -6.489841,6.48984 -5.009579,5.00958 m -9.995971,9.99597 0.394165,-0.39416 m 29.136424,-28.73731 -0.132777,0.13278 m -12.884957,12.88496 4.60855,-4.60855 m -5.706493,5.70649 -4.995459,4.99546 m -10.285035,10.28503 0.401999,-0.402 m 31.255933,-30.85681 -0.05382,0.0538 m -2.242675,2.24268 0.141035,-0.14104 m -8.889476,8.88948 -4.01709,4.01709 m -5.652235,5.65223 4.885406,-4.8854 m -15.28483,15.28483 -0.409833,0.40983 m 31.536459,-31.13734 0.06735,-0.0673 m -2.119637,2.11964 -0.146935,0.14693 m -18.205668,18.20567 9.183319,-9.18332 m -19.762806,19.76281 -0.413012,0.41301 m 31.430667,-31.03155 0.11437,-0.11437 m -2.060611,2.06062 -0.145863,0.14586 m -18.129944,18.12994 8.367178,-8.36718 m -19.007494,19.0075 -0.416396,0.41639 m 31.399272,-31.00015 0.103643,-0.10364 m -1.995222,1.99522 -0.180641,0.18064 m -18.841606,18.84161 8.554744,-8.55474 m -18.464313,18.46431 -0.42397,0.42397 m 31.352241,-30.95312 0.131991,-0.13199 m -1.938264,1.93826 -0.230427,0.23043 m -19.286615,19.28662 8.616461,-8.61646 m -18.061936,18.06193 -0.431544,0.43154 m 31.305209,-30.90608 0.160338,-0.16034 m -1.839142,1.83914 -0.322375,0.32238 m -19.541051,19.54105 8.365448,-8.36545 m -17.537402,17.5374 -0.439118,0.43912 m 31.278254,-30.87913 0.168611,-0.16861 m -1.742852,1.74285 -0.412417,0.41242 m -19.804529,19.80453 8.212956,-8.21296 m -17.101423,17.10142 -0.445387,0.44539 m 31.262649,-30.86353 0.182467,-0.18246 m -1.560043,1.56004 -0.571811,0.57181 m -20.043629,20.04363 8.174861,-8.17486 m -16.839626,16.83962 -0.440495,0.4405 m 31.235885,-30.83676 0.226883,-0.22689 m -1.403741,1.40374 -0.735258,0.73526 m -20.28273,20.28273 8.255746,-8.25574 m -16.696809,16.69681 -0.435602,0.4356 m 31.220855,-30.82174 0.259564,-0.25956 m -1.23309,1.23309 -0.913055,0.91306 m -20.531618,20.53161 8.465815,-8.46581 m -16.673388,16.67339 -0.43071,0.43071 m 31.221433,-30.82231 0.276638,-0.27664 m -1.195396,1.19539 -0.957894,0.9579 m -20.741455,20.74145 8.714852,-8.71485 m -16.727987,16.72799 -0.425817,0.42582 m 31.222009,-30.82289 0.293712,-0.29371 m -1.336257,1.33625 -0.824177,0.82418 m -20.951292,20.95129 9.04008,-9.04008 m -16.858776,16.85878 -0.420925,0.42092 m 31.220881,-30.82175 0.312491,-0.3125 m -1.548121,1.54813 -0.617157,0.61715 m -21.16343,21.16343 9.426592,-9.42659 m -17.05085,17.05085 -0.417598,0.4176 m 31.245327,-30.84621 0.307262,-0.30726 m -1.714167,1.71417 -0.429378,0.42938 m -21.404482,21.40448 9.958449,-9.95845 m -17.387392,17.38739 -0.42072,0.42072 m 31.277681,-30.87856 0.306986,-0.30698 m -1.860167,1.86016 -0.266598,0.2666 M 30.332047,263.1565 41.49433,251.99422 m -18.414891,18.41489 -0.419789,0.41979 m 31.310037,-30.91092 0.322448,-0.32245 m -1.950807,1.95081 -0.174916,0.17492 m -14.931225,14.93122 4.689681,-4.68968 m -8.957397,8.9574 -2.657792,2.65779 m -7.495129,7.49513 0.418857,-0.41886 m 31.261443,-30.86232 -0.3371,0.3371 m -1.787581,1.78758 0.111624,-0.11162 m -9.277147,9.27715 -6.027367,6.02736 m -6.889969,6.88997 1.710151,-1.71015 m -8.610086,8.61009 -0.417874,0.41787 m 31.393316,-30.99419 0.334748,-0.33475 m -2.053288,2.05329 -0.07035,0.0703 m -15.460042,15.46004 6.920314,-6.92031 m -12.519184,12.51918 -1.250074,1.25007 m -7.178675,7.17868 0.455077,-0.45508 m 31.358938,-30.95981 -0.332397,0.33239 m -1.7902,1.7902 0.063,-0.063 m -7.964543,7.96455 -7.825649,7.82565 m -6.807919,6.80791 1.017424,-1.01742 m -7.582188,7.58219 -0.474778,0.47478 m 31.56992,-31.1708 0.330046,-0.33005 m -2.030322,2.03033 -0.08876,0.0888 m -15.996814,15.99681 8.521497,-8.52149 m -14.87551,14.87551 -0.412879,0.41288 m -6.900409,6.9004 0.48036,-0.48036 m 31.505556,-31.10643 -0.327695,0.3277 m -1.785976,1.78597 0.13488,-0.13488 m -7.117241,7.11724 -0.819148,0.81915 m -8.466829,8.46683 6.601396,-6.6014 m -19.602595,19.6026 -0.498643,0.49864 m 31.756583,-31.35746 0.327984,-0.32798 m -1.899705,1.8997 -0.208551,0.20855 m -7.587235,7.58724 0.893896,-0.8939 m -3.921441,3.92144 -5.920718,5.92072 m -13.372114,13.37212 0.552292,-0.5523 m 31.666291,-31.26717 -0.329377,0.32938 m -1.773464,1.77347 0.415275,-0.41528 m -6.806571,6.80657 -1.704321,1.70432 m -8.677976,8.67798 5.969678,-5.96968 m -18.670532,18.67053 -0.572597,0.5726 m 32.02183,-31.62271 0.328883,-0.32888 m -1.584645,1.58464 -0.510894,0.5109 m -8.294972,8.29497 2.239316,-2.23932 m -5.90888,5.90888 -5.059133,5.05914 M 23.641205,273.43944 24.210653,272.87 m 31.901225,-31.50211 -0.327469,0.32747 m -1.769628,1.76963 0.638458,-0.63846 m -6.465113,6.46512 -2.915098,2.91509 m -8.469462,8.46947 3.631929,-3.63193 m -16.148043,16.14804 -0.62553,0.62553 m 32.32381,-31.92469 0.326054,-0.32605 m -1.414158,1.41416 -0.691073,0.69107 m -9.181959,9.18196 3.590881,-3.59088 m -8.193973,8.19397 -3.607134,3.60713 m -13.13173,13.13173 0.681611,-0.68161 m 32.147442,-31.74832 -0.324639,0.32464 m -1.788725,1.78873 0.618261,-0.61826 m -5.973763,5.97376 -4.266663,4.26666 m -7.961106,7.96111 2.906658,-2.90666 m -14.084101,14.0841 -0.06986,0.0699 m -1.864395,1.8644 0.664687,-0.66469 m 32.343557,-31.94443 -0.324992,0.32499 m -1.796507,1.79651 0.531913,-0.53192 m -5.656356,5.65636 -5.053882,5.05388 m -7.54989,7.54989 2.477374,-2.47737 m -13.564531,13.56453 -0.134627,0.13463 m -1.925603,1.9256 0.678186,-0.67819 m 32.518822,-32.1197 -0.345343,0.34535 m -1.784289,1.78429 0.500081,-0.50009 m -5.448431,5.44844 -5.519229,5.51922 m -7.40558,7.40559 2.37195,-2.37196 m -13.38944,13.38945 -0.178773,0.17877 m -2.016466,2.01646 0.72134,-0.72134 m 32.690228,-32.2911 -0.361834,0.36183 m -1.783556,1.78356 0.491708,-0.49171 m -5.25248,5.25248 -6.058235,6.05824 m -7.187612,7.18761 1.940376,-1.94038 m -12.898627,12.89863 -0.212491,0.21249 m -2.107328,2.10733 0.75316,-0.75316 m 32.850202,-32.45108 -0.355561,0.35556 m -1.78781,1.78781 0.509392,-0.50939 m -5.077599,5.0776 -6.59724,6.59724 m -6.969644,6.96964 1.880702,-1.8807 m -12.779715,12.77971 -0.246209,0.24621 m -2.171694,2.1717 0.76001,-0.76001 m -6.650431,6.65043 -1.151972,1.15197 m 40.461766,-40.06265 0.349288,-0.34928 m -1.604433,1.60443 -0.536919,0.53692 m -11.691427,11.69143 7.316819,-7.31682 m -12.339257,12.33926 -1.549698,1.54969 m -11.119701,11.1197 0.279927,-0.27992 m -1.749129,1.74913 -0.923385,0.92338 m -7.470513,7.47051 2.786606,-2.7866 m 38.774393,-38.37527 -0.343015,0.34301 m -1.796319,1.79632 0.568027,-0.56803 m -4.794611,4.79461 -7.60883,7.60883 m -6.556621,6.55663 1.44202,-1.44202 m -12.222555,12.22255 -0.313644,0.31365 m -10.536411,10.53641 9.067604,-9.06761 m 33.267639,-32.86851 -0.336742,0.33674 m -1.801102,1.8011 0.620085,-0.62009 m -4.698117,4.69812 -8.010333,8.01033 m -6.433907,6.43391 1.270696,-1.27069 m -11.977516,11.97751 -0.359545,0.35955 m -11.168304,11.1683 9.6888,-9.6888 m 33.379268,-32.98015 -0.343425,0.34343 m -1.81038,1.81038 0.689594,-0.68959 m -4.601623,4.60162 -8.411835,8.41183 m -6.27868,6.27868 1.113295,-1.11329 m -11.848926,11.84893 -0.335433,0.33543 m -11.201327,11.20132 9.781032,-9.78103 m 33.420991,-33.02186 -0.359167,0.35916 m -1.810598,1.8106 0.758026,-0.75803 m -4.504052,4.50406 -0.715827,0.71582 m -8.222217,8.22222 3.678494,-3.67849 m -8.660412,8.66041 -1.016829,1.01683 m -11.071916,11.07191 0.333614,-0.33361 m -1.684432,1.68443 -3.430518,3.43052 m -6.756586,6.75658 3.602461,-3.60246 m 40.009427,-39.6103 -0.351093,0.35109 m -1.810818,1.81082 0.825295,-0.8253 m -4.414975,4.41498 -0.437771,0.43777 m -8.747438,8.74744 2.105869,-2.10587 m -7.181313,7.18131 -0.920572,0.92057 m -11.087057,11.08706 0.3539,-0.3539 m -1.516658,1.51666 -2.019228,2.01923 m -8.485353,8.48535 3.847436,-3.84744 m 39.985735,-39.58661 -0.339512,0.33951 m -1.811036,1.81104 0.892565,-0.89257 m -4.350646,4.35065 -0.383485,0.38349 m -9.177673,9.17767 1.814028,-1.81403 m -6.77177,6.77177 -0.849261,0.84926 m -9.311415,9.31142 0.342638,-0.34264 m -1.791986,1.79198 -0.383155,0.38316 m -1.973716,1.97372 1.022011,-1.02201 m -6.743672,6.74367 -4.070524,4.07052 m 43.704639,-43.30552 0.32793,-0.32793 m -1.202286,1.20229 -0.952156,0.95216 m -3.696224,3.69622 0.384997,-0.385 m -8.170736,8.17074 -1.590651,1.59065 m -5.793709,5.79371 0.649513,-0.64951 m -9.170811,9.17081 -0.778251,0.77825 m -3.607316,3.60731 2.118497,-2.11849 m -7.983261,7.98326 -4.202818,4.20282 m 43.824823,-43.4257 0.316348,-0.31635 m -1.168331,1.16833 -0.996347,0.99635 m -3.573645,3.57364 0.415616,-0.41561 m -8.856088,8.85608 -1.156953,1.15696 m -5.733277,5.73327 0.51668,-0.51668 m -8.782454,8.78246 -1.003095,1.00309 m -3.497498,3.4975 1.912733,-1.91273 m -7.846044,7.84604 -4.313218,4.31322 m 43.912682,-43.51356 0.315199,-0.3152 m -1.164423,1.16442 -1.01049,1.01049 m -3.468449,3.46845 0.463616,-0.46361 m -9.276063,9.27606 -0.976307,0.97631 m -5.640371,5.64037 0.339049,-0.33905 m -8.32844,8.32844 -1.251019,1.25102 m -3.481258,3.48126 1.759682,-1.75969 m -4.547712,4.54772 -0.115241,0.11524 m -7.436611,7.43661 4.389025,-4.38903 m 39.890972,-39.49185 -0.327829,0.32783 m -1.852573,1.85258 0.973751,-0.97376 m -3.829364,3.82937 -0.520463,0.52046 m -9.950755,9.95076 0.775926,-0.77593 m -6.172102,6.1721 -0.17254,0.17254 m -9.171767,9.17177 1.486644,-1.48665 m -3.385215,3.38522 -1.637306,1.63731 m -2.95616,2.95616 0.346525,-0.34653 m -3.328094,3.32809 -4.453268,4.45327 m 43.98009,-43.58096 0.312787,-0.31279 m -1.32346,1.32346 -0.868735,0.86873 m -6.409028,6.40903 3.721983,-3.72198 m -10.009035,10.00903 -0.665873,0.66588 m -10.724297,10.72429 0.445099,-0.4451 m -2.649954,2.64996 -1.671562,1.67156 m -3.608295,3.6083 1.53273,-1.53273 m -3.922297,3.92229 -0.55785,0.55785 m -7.446262,7.44626 4.486878,-4.48687 m 39.785883,-39.38676 -0.295382,0.29538 m -1.906244,1.90624 0.772831,-0.77283 m -3.291306,3.29131 -4.893098,4.8931 m -5.956243,5.95624 0.523724,-0.52373 m -10.969947,10.96995 -4.051902,4.0519 m -3.672793,3.6728 1.446264,-1.44627 m -3.615762,3.61576 -0.769174,0.76918 m -7.460062,7.46006 4.531093,-4.53109 m 39.723925,-39.32481 -0.277977,0.27798 m -1.947688,1.94769 0.617442,-0.61744 m -2.952739,2.95274 -5.820649,5.82065 m -5.198978,5.19897 0.388902,-0.3889 m -2.767954,2.76796 -0.170364,0.17036 m -11.850506,11.85051 3.82695,-3.82695 m -6.266953,6.26695 -1.29457,1.29457 m -2.932405,2.9324 0.980184,-0.98018 m -3.87809,3.87809 -4.538795,4.53879 m 43.946531,-43.5474 0.253584,-0.25359 m -1.677729,1.67773 -0.567352,0.56735 m -8.887643,8.88765 6.7309,-6.7309 m -10.933878,10.93388 -0.220772,0.22077 m -2.818426,2.81842 0.37796,-0.37796 m -8.271633,8.27163 -3.641162,3.64117 m -3.850689,3.85069 1.240412,-1.24042 m -2.907537,2.90754 -1.188471,1.18847 m -7.413266,7.41327 4.546497,-4.5465 M 59.60851,246.652 l -0.265627,0.26563 m -2.035386,2.03538 0.543635,-0.54363 m -2.485308,2.48531 -7.137196,7.13719 m -7.112498,7.1125 0.373575,-0.37358 m -8.167565,8.16757 -3.587125,3.58713 m -3.932269,3.93226 1.25883,-1.25883 m -2.598092,2.5981 -1.440203,1.4402 m -7.375883,7.37588 4.540928,-4.54093 m 39.54716,-39.14803 -0.288721,0.28872 m -2.068218,2.06822 0.560914,-0.56092 m -2.296678,2.29668 -7.722777,7.72278 m -6.807768,6.80776 0.397439,-0.39743 m -8.017133,8.01713 -3.595203,3.5952 m -4.006005,4.00601 1.266404,-1.26641 m -2.353212,2.35322 -1.634529,1.63452 m -7.320538,7.32054 4.517395,-4.51739 m 39.422461,-39.02334 -0.23867,0.23867 m -2.208112,2.20811 0.674316,-0.67432 m -2.069263,2.06927 -8.184553,8.18455 m -6.607337,6.60734 0.394974,-0.39498 m -7.812488,7.81249 -3.746805,3.74681 m -6.691037,6.69103 4.043404,-4.0434 m -6.773353,6.77335 -4.518868,4.51887 m 43.603004,-43.20388 0.214911,-0.21491 m -1.730372,1.73037 -0.843846,0.84385 m -9.716343,9.71634 8.673515,-8.67352 m -14.665064,14.66507 -0.392336,0.39233 m -11.084314,11.08432 3.88034,-3.88034 m -6.382869,6.38287 -4.229729,4.22973 m -7.099942,7.09994 4.501635,-4.50164 m 39.169449,-38.77032 -0.180485,0.18048 m -12.242327,12.24233 10.728664,-10.72867 m -16.572667,16.57267 -0.412396,0.4124 m -8.091075,8.09107 1.072697,-1.0727 m -2.556644,2.55665 -1.570498,1.5705 m -2.80893,2.80893 0.651719,-0.65172 m -1.460307,1.4603 -3.298542,3.29855 m -6.697907,6.6979 4.54124,-4.54124 m 38.977581,-38.57846 -0.197391,0.1974 m -12.383557,12.38355 10.931309,-10.93131 m -16.601998,16.602 -0.457151,0.45715 m -7.684613,7.68462 0.924296,-0.9243 m -3.419257,3.41926 -1.000593,1.00059 m -2.579393,2.57939 0.787658,-0.78765 m -2.146103,2.1461 -3.333161,3.33316 m -6.126482,6.12648 4.688552,-4.68855 m 38.695869,-38.29675 -0.232159,0.23216 M 47.490822,261.16442 58.50405,250.15119 m -16.630699,16.6307 -0.435835,0.43584 m -7.367512,7.36751 0.799185,-0.79918 m -4.169897,4.16989 -2.882524,2.88253 m -10.803458,10.80345 8.807402,-8.8074 m 34.297792,-33.89867 -0.159774,0.15978 m -12.425824,12.42582 11.035636,-11.03563 m -16.545463,16.54546 -0.480951,0.48095 m -7.124476,7.12448 0.760146,-0.76015 m -4.576102,4.5761 -2.538819,2.53882 m -10.785489,10.78549 7.157437,-7.15744 m 35.716672,-35.31755 -0.137887,0.13789 m -12.443546,12.44355 10.929741,-10.92974 m -16.336053,16.33605 -0.50962,0.50962 m -6.870567,6.87057 0.710055,-0.71006 m -5.003329,5.00333 -2.221548,2.22155 m -10.706039,10.70604 5.25632,-5.25632 m 37.365465,-36.96635 -0.133491,0.13349 m -6.714032,6.71404 4.528012,-4.52802 m -9.710224,9.71023 -0.447119,0.44712 m -5.915555,5.91555 0.512344,-0.51234 m -6.478798,6.4788 -0.676147,0.67614 m -6.67487,6.67487 1.974272,-1.97427 m -7.749932,7.74993 -4.836571,4.83657 m 42.184848,-41.78572 0.170256,-0.17026 m -2.541191,2.54119 -3.20545,3.20545 m -12.538016,12.53802 0.55258,-0.55258 m -6.322482,6.32248 -0.647531,0.64753 m -6.834916,6.83492 1.734321,-1.73432 m -7.437267,7.43726 -4.815477,4.81548 m 41.808373,-41.40925 0.18673,-0.18673 m -2.39676,2.39676 -2.257187,2.25719 m -13.3858,13.3858 0.545477,-0.54548 m -6.153726,6.15373 -0.618005,0.618 m -7.004813,7.00482 1.494371,-1.49438 m -7.082377,7.08238 -4.848687,4.84869 m 41.564508,-41.16539 0.105278,-0.10528 m -2.288877,2.28888 -1.704082,1.70408 m -13.821111,13.82111 0.535003,-0.535 m -5.963943,5.96394 -0.611067,0.61107 m -7.189647,7.18965 1.328887,-1.32889 m -3.769404,3.76941 -0.326478,0.32647 m -7.571236,7.57124 4.881663,-4.88166 m 36.46257,-36.06345 -0.407728,0.40773 m -3.115659,3.11566 1.463393,-1.4634 m -14.981322,14.98133 -0.531101,0.5311 m -5.869733,5.86973 0.612992,-0.61299 m -6.831303,6.8313 -1.162385,1.16239 m -2.759596,2.75959 0.628087,-0.62809 m -3.187409,3.18741 -4.955801,4.95581 m 38.094286,-37.69517 2.841335,-2.84133 m -16.67085,16.67085 -0.549921,0.54992 m -5.641014,5.64101 0.612424,-0.61242 m -7.232503,7.2325 -0.995882,0.99588 m -2.745111,2.74511 0.846881,-0.84688 m -3.283038,3.28304 -5.033719,5.03372 m 38.193495,-37.79437 2.332383,-2.33239 m -16.295473,16.29548 -0.593016,0.59301 m -5.390404,5.39041 0.627096,-0.6271 m -7.618451,7.61845 -0.857487,0.85749 m -2.691645,2.69164 1.024744,-1.02474 m -3.371332,3.37133 -5.134868,5.13487 m 38.316878,-37.91776 1.879094,-1.87909 m -15.978731,15.97873 -0.67955,0.67955 m -5.099711,5.09971 0.723195,-0.72319 m -8.0789,8.0789 -0.725127,0.72512 m -2.63907,2.63907 1.212058,-1.21205 m -3.510125,3.51012 -5.214746,5.21475 m 38.397028,-37.99791 1.252658,-1.25266 m -15.402144,15.40215 -0.82973,0.82973 m -4.691678,4.69168 0.942155,-0.94216 m -8.739592,8.73959 -0.631025,0.63103 m -2.548238,2.54823 1.399372,-1.39937 m -3.648918,3.64892 -5.295965,5.29597 m 38.388991,-37.98987 1.052649,-1.05265 m -8.180657,8.18066 -0.469824,0.46982 m -7.720927,7.72093 1.208954,-1.20896 m -4.065681,4.06568 -1.219031,1.21903 m -8.782022,8.78203 0.564008,-0.56401 m -1.455068,1.45507 -1.539259,1.53926 m -7.623041,7.62304 5.426744,-5.42675 m 33.657957,-33.25883 -0.650726,0.65072 m -8.331654,8.33166 2.868298,-2.8683 m -8.614958,8.61496 -4.955322,4.95532 m -11.540676,11.54068 2.831033,-2.83104 m -5.014863,5.01487 -5.516786,5.51678 m 38.43886,-38.03974 0.535512,-0.53551 m -5.184355,5.18436 -4.245214,4.24521 m -9.749138,9.74914 4.644089,-4.64409 m -13.831374,13.83137 -2.671142,2.67115 m -7.776452,7.77645 5.605089,-5.60509 m 33.267751,-32.86863 -0.430834,0.43084 m -9.182043,9.18204 4.79673,-4.79673 m -9.517919,9.51792 -4.169331,4.16933 m -12.349377,12.34938 2.50426,-2.50426 m -4.670148,4.67014 -5.693391,5.6934 m 38.436129,-38.03701 0.375772,-0.37577 m -4.212359,4.21236 -5.21142,5.21142 m -8.215829,8.21582 3.4655,-3.4655 m -14.197523,14.19753 -2.336622,2.33662 m -7.909106,7.9091 5.747938,-5.74793 m 32.979004,-32.57988 -0.346164,0.34616 m -8.645699,8.6457 5.204573,-5.20458 m -10.236595,10.2366 -1.000597,1.0006 m -1.726071,1.72607 0.31449,-0.31449 m -11.96842,11.96842 -2.168984,2.16898 m -7.954817,7.95482 5.782536,-5.78254 m 32.867234,-32.46811 -0.328461,0.32846 m -8.076574,8.07658 5.04394,-5.04394 m -10.517516,10.51751 -0.658902,0.65891 m -15.91307,15.91306 2.025263,-2.02526 m -4.214513,4.21451 -5.806854,5.80686 m 38.24718,-37.84806 0.320993,-0.32099 m -3.038832,3.03883 -4.699376,4.69938 m -6.583632,6.58363 0.603822,-0.60382 m -14.733719,14.73372 -1.875963,1.87596 m -8.017381,8.01738 5.811164,-5.81116 m 32.651566,-32.25245 -0.322597,0.3226 m -7.161465,7.16146 4.793389,-4.79338 m -10.862916,10.86291 -0.565283,0.56528 m -16.082107,16.08211 1.726663,-1.72666 m -3.949849,3.94985 -5.815473,5.81547 m 38.033085,-37.63396 0.32434,-0.32434 m -2.43492,2.43492 -4.116986,4.11698 m -7.369742,7.36975 0.532351,-0.53236 m -15.107737,15.10774 -1.577363,1.57736 m -8.059937,8.05994 5.821525,-5.82152 m 32.430596,-32.03148 -0.333425,0.33343 m -5.937403,5.9374 4.091663,-4.09166 m -11.045914,11.04591 -0.499345,0.49935 m -16.22339,16.22339 1.428063,-1.42807 m -3.702694,3.7027 -5.779954,5.77995 m 37.771616,-37.37249 0.34857,-0.34857 m -1.92902,1.92902 -3.706918,3.70692 m -7.891262,7.89126 0.466018,-0.46602 m -15.481679,15.48168 -1.299629,1.29963 m -8.030806,8.0308 5.741226,-5.74122 m 32.249857,-31.85074 -0.363715,0.36372 m -4.834686,4.83468 3.494989,-3.49498 m -11.193874,11.19387 -0.451358,0.45136 m -16.394874,16.39487 1.177591,-1.17759 m -3.475769,3.47577 -5.702497,5.7025 m 37.48312,-37.084 0.354198,-0.3542 m -1.453142,1.45314 -3.400574,3.40058 m -8.295399,8.2954 0.440387,-0.44039 m -15.855605,15.8556 -1.055552,1.05556 m -7.932166,7.93216 5.625392,-5.62539 m 32.007997,-31.60887 -0.332895,0.33289 m -4.13862,4.13862 3.28043,-3.28043 m -7.765266,7.76527 -1.272985,1.27298 m -2.708462,2.70846 0.429416,-0.42941 m -16.042568,16.04257 -0.933513,0.93351 m -7.86804,7.86804 5.552668,-5.55267 m 31.881174,-31.48205 -0.311592,0.31159 m -3.852556,3.85256 3.23512,-3.23512 m -7.308112,7.30811 -1.734434,1.73443 m -2.754909,2.75491 0.40487,-0.40487 m -16.215956,16.21596 -0.811475,0.81147 m -7.803913,7.80392 5.478642,-5.47865 m 31.755654,-31.35653 -3.836139,3.83614 m -5.847775,5.84778 2.145845,-2.14585 m -4.611421,4.61142 -0.365678,0.36568 m -16.698456,16.69846 0.689436,-0.68944 m -3.024767,3.02477 -5.404455,5.40445 m 33.498687,-33.09956 3.536062,-3.53606 m -6.984395,6.98439 -2.393093,2.3931 m -2.928002,2.928 0.328124,-0.32813 m -16.533441,16.53344 -0.599495,0.5995 m -7.6023,7.6023 5.289006,-5.28901 m 31.455415,-31.05629 -3.235115,3.23511 m -5.786427,5.78643 2.510376,-2.51037 m -5.244557,5.24455 -0.342081,0.34208 m -16.867108,16.86711 0.517006,-0.517 m -2.800812,2.80081 -5.171228,5.17123 m 33.488511,-33.08939 2.964604,-2.96461 m -6.049452,6.04946 -2.617493,2.61749 m -3.215276,3.21527 0.334624,-0.33462 m -16.838758,16.83876 -0.449343,0.44934 m -7.292941,7.29294 5.05345,-5.05345 m 31.108357,-30.70923 -2.694092,2.69409 m -5.618256,5.61826 2.725036,-2.72504 m -5.777177,5.77718 -0.356526,0.35652 m -17.009701,17.0097 0.405914,-0.40591 m -2.576857,2.57686 -4.935672,4.93567 m 33.407575,-33.00845 2.462925,-2.46293 m -5.264645,5.26465 -2.666179,2.66618 m -3.629689,3.62968 0.379131,-0.37913 m -17.103351,17.10335 -0.354835,0.35484 m -6.844485,6.84448 4.755923,-4.75592 m 30.693546,-30.29442 -2.186942,2.18694 m -5.296084,5.29608 2.657848,-2.65784 m -6.105344,6.10534 -0.482058,0.48206 m -9.124108,9.12411 0.539671,-0.53967 m -8.184338,8.18433 -0.362812,0.36282 m -6.528573,6.52857 4.596761,-4.59676 m 30.442925,-30.0438 -1.961841,1.96184 m -5.074917,5.07491 2.58146,-2.58146 m -6.251271,6.25127 -0.588862,0.58887 m -9.881275,9.88127 3.436514,-3.43651 m -10.339316,10.33931 -0.341093,0.3411 m -6.242357,6.24235 4.455934,-4.45593 m 30.17397,-29.77485 -1.763001,1.763 m -4.827488,4.82749 2.539602,-2.5396 m -6.451286,6.45128 -0.735934,0.73594 m -10.518202,10.5182 4.460044,-4.46004 m -10.681396,10.68139 -0.369233,0.36923 m -5.844693,5.8447 4.244047,-4.24405 m 29.969996,-29.57087 -1.649917,1.64991 m -4.549814,4.54982 2.406339,-2.40634 m -6.559894,6.55989 -1.015662,1.01567 m -10.970898,10.97089 6.1052,-6.1052 m -11.748221,11.74822 -0.410016,0.41002 m -5.375633,5.37563 4.085262,-4.08526 m 29.436559,-29.03744 -1.306874,1.30688 m -4.232947,4.23295 2.287063,-2.28707 m -6.682491,6.68249 -1.476593,1.4766 m -10.742855,10.74285 7.671278,-7.67128 m -13.221958,13.22196 -0.65978,0.65978 m -4.711137,4.71114 3.917958,-3.91796 m 29.029128,-28.63 -1.170253,1.17025 m -3.940503,3.9405 2.285618,-2.28562 m -6.861169,6.86117 -12.56765,12.56765 m -10.130189,10.13019 4.780489,-4.78049 m 27.653688,-27.25456 -1.300702,1.3007 m -3.831611,3.83161 2.532316,-2.53232 m -7.01454,7.01455 -5.32789,5.32789 m -7.404143,7.40414 4.426165,-4.42617 m -9.775367,9.77537 -4.18956,4.18956 m 26.71882,-26.3197 4.573747,-4.57375 m -8.899971,8.89998 -0.326814,0.32681 m -4.067738,4.06774 2.665774,-2.66578 m -6.685187,6.68519 -4.45689,4.45689 m -8.787416,8.78742 3.264757,-3.26476 m 27.214361,-26.81524 -4.528823,4.52882 m -4.491665,4.49167 0.292433,-0.29243 m -2.481021,2.48102 -1.443091,1.44309 m -9.033726,9.03373 4.484847,-4.48485 m -10.016175,10.01617 -2.607351,2.60735 m 25.261551,-24.86243 3.614895,-3.61489 m -7.707692,7.70769 -0.29477,0.29477 m -12.610064,12.61006 4.428968,-4.42896 m -11.107082,11.10708 -0.507066,0.50707 m 24.148612,-23.74949 2.482881,-2.48288 m -6.469241,6.46924 -0.358349,0.35834 m -12.510312,12.51032 4.404855,-4.40486 m 14.261454,-13.86233 -1.842246,1.84225 m -4.305093,4.30509 0.421929,-0.42193 m -5.730777,5.73078 -0.279178,0.27918 m -6.808024,6.80802 4.366233,-4.36623 m 13.607819,-13.2087 -1.285029,1.28503 m -4.284315,4.28431 0.438715,-0.43871 m -5.395099,5.3951 -0.592722,0.59272 m -6.706233,6.70623 4.317907,-4.3179 m 13.050228,-12.65111 -0.8406,0.8406 m -4.268459,4.26846 0.462369,-0.46237 m -5.003709,5.00371 -0.869176,0.86918 m -6.70278,6.70278 4.27711,-4.27711 m 12.621241,-12.22212 -0.506706,0.5067 m -4.329781,4.32978 0.541192,-0.54119 m -4.620896,4.6209 -1.119479,1.11948 m -6.680425,6.68042 4.199837,-4.19984 m 12.491242,-12.09211 -0.423017,0.42301 m -4.439887,4.43989 0.620016,-0.62002 m -4.33148,4.33148 -1.251766,1.25177 m -6.682689,6.68269 4.122564,-4.12257 m 12.428638,-12.02951 -0.41314,0.41314 m -4.556928,4.55693 0.664657,-0.66466 m -3.950056,3.95006 -1.433087,1.43308 m -6.675122,6.67513 4.060796,-4.0608 m 12.32372,-11.9246 -0.294114,0.29412 m -4.85979,4.85979 0.818396,-0.8184 m -3.608173,3.60817 -1.596879,1.59688 m -6.632712,6.63271 3.974125,-3.97412 m 12.323288,-11.92417 -0.278388,0.27839 m -5.165048,5.16505 0.97453,-0.97453 m -3.142347,3.14235 -1.927523,1.92752 m -6.547392,6.54739 3.925332,-3.92533 m 12.312687,-11.91357 -0.27047,0.27047 m -9.320974,9.32098 4.96143,-4.96143 m -7.509811,7.50981 -3.87863,3.87863 m 15.940991,-15.54187 0.279323,-0.27932 m -5.069494,5.06949 -4.811777,4.81178 m -6.10012,6.10012 3.860434,-3.86044 m 12.364733,-11.96561 -0.330093,0.3301 m -10.076512,10.07651 4.573875,-4.57388 m -6.221764,6.22177 -3.93175,3.93175 m 15.849158,-15.45004 0.38616,-0.38616 m -6.857311,6.85731 -9.129971,9.12997 m 15.791413,-15.39229 0.448251,-0.44825 m -2.908633,2.90864 -0.362798,0.36279 m -12.700943,12.70095 7.80404,-7.80404 m 8.38477,-7.98565 -0.474665,0.47467 m -2.928997,2.92899 0.821398,-0.8214 m -7.897031,7.89704 -5.442225,5.44222 m 15.636877,-15.23775 0.478346,-0.47835 m -2.250195,2.25019 -1.171006,1.17101 m -12.426732,12.42673 4.944123,-4.94412 m 11.077552,-10.67843 -0.462066,0.46207 m -2.923496,2.92349 1.292174,-1.29217 m -8.776273,8.77627 -4.888488,4.88849 m 15.465531,-15.06641 0.466361,-0.46636 m -1.831535,1.83153 -1.526129,1.52613 m -3.170293,3.1703 0.457329,-0.45733 m -4.764948,4.76495 -4.832042,4.83204 m 15.356807,-14.95769 0.484554,-0.48455 m -1.493038,1.49304 -1.838467,1.83846 m -3.202361,3.20236 0.810877,-0.81087 m -5.078501,5.0785 -4.791516,4.79152 m 12.411889,-12.01277 3.289722,-3.28972 m -5.415254,5.41525 -1.040608,1.04061 m -9.029946,9.02994 4.78354,-4.78354 m 10.745381,-10.34625 -3.185024,3.18502 m -3.100228,3.10023 1.174945,-1.17495 m -5.427245,5.42725 -4.775564,4.77556 m 12.133743,-11.73462 2.967275,-2.96727 m -4.475333,4.47533 -1.384098,1.3841 m -9.073056,9.07305 4.814861,-4.81486 m 9.584516,-9.18539 -2.483915,2.48391 m -2.633946,2.63395 1.648347,-1.64835 m -5.907174,5.90718 -4.876119,4.87612 m 9.339387,-8.94027 4.061687,-4.06169 m -8.317127,8.31713 -4.96818,4.96818 m 9.428062,-9.02894 3.642206,-3.6422 m -5.689641,5.68964 -0.383602,0.3836 m -6.980713,6.98071 5.159696,-5.15969 m 7.05291,-6.65379 -2.596415,2.59641 m -2.499611,2.49961 0.800627,-0.80062 m -2.549683,2.54968 -5.273659,5.27366 m 9.726767,-9.32765 1.686336,-1.68633 m -3.124185,3.12418 -1.074311,1.07432 m -7.156926,7.15692 5.423806,-5.42381 m 5.72821,-5.32908 -1.316637,1.31664 m -2.486561,2.48655 1.287918,-1.28791 m -3.005101,3.0051 -5.548687,5.54869 m 9.909424,-9.51031 0.919558,-0.91955 m -1.975467,1.97546 -1.388187,1.38819 m -7.332397,7.3324 5.626587,-5.62659 m 4.992861,-4.59374 -0.70397,0.70397 m -2.363755,2.36376 1.501996,-1.502 m -3.210958,3.21096 -5.718246,5.71825 m 7.646535,-7.24742 2.735597,-2.73559 m -4.447712,4.44771 -5.752227,5.75222 m 7.683668,-7.28454 2.48269,-2.48269 m -4.197956,4.19796 -5.786209,5.7862 m 7.720801,-7.32168 2.236551,-2.23655 m -3.950171,3.95017 -5.824989,5.82499 m 7.757936,-7.35881 1.990412,-1.99041 m -3.690806,3.69081 -5.84122,5.84122 m 7.758243,-7.35913 1.810653,-1.81065 m -3.495124,3.49512 -5.853645,5.85365 m 7.753965,-7.35484 1.627767,-1.62777 m -3.295535,3.29554 -5.866069,5.86606 m 7.749686,-7.35056 1.444881,-1.44488 m -3.088315,3.08831 -5.863238,5.86324 m 7.722521,-7.3234 1.291318,-1.29131 m -2.900838,2.90083 -5.859485,5.85949 m 7.684854,-7.28573 1.150795,-1.1508 m -2.726401,2.7264 -5.855733,5.85574 m 7.647188,-7.24807 1.010272,-1.01027 m -2.552704,2.5527 -5.840185,5.84019 m 7.598466,-7.19934 0.86975,-0.86975 m -2.357386,2.35738 -5.824154,5.82416 m 7.527639,-7.12852 0.752923,-0.75292 m -2.185762,2.18576 -5.808124,5.80812 m 7.442448,-7.04332 0.657149,-0.65715 m -2.021386,2.02138 -5.791535,5.79154 m 7.353581,-6.95446 0.565051,-0.56505 m -1.825382,1.82538 -5.770036,5.77004 m 7.228363,-6.82924 0.472766,-0.47277 m -1.636077,1.63608 -5.74141,5.74141 m 7.061659,-6.66254 0.424808,-0.42481 m -1.397602,1.3976 -5.765224,5.76523 m 0.360311,0.0388 6.897268,-6.89727 m 0.10004,0.29908 -6.627372,6.62738 m 0.369936,0.0292 6.357476,-6.35747 m 0.10004,0.29908 -6.04118,6.04118 m 0.4232,-0.0241 5.71802,-5.71802 m 0.10004,0.29908 -5.394859,5.39486 m 0.423201,-0.0241 5.019724,-5.01973 m 0.06296,0.33616 -4.659485,4.65949 m 0.493574,-0.0945 4.188896,-4.18889 m 0.02622,0.3729 -3.711235,3.71124 m 0.50388,-0.10476 3.170156,-3.17016 m 0.02339,0.37574 -2.698938,2.69894 m 0.704551,-0.30543 1.793764,-1.79377 m -0.196122,0.59525 -0.926625,0.92662"
         inkscape:connector-curvature="0" />
    </g>
  </g>
</svg>
