<?xml version="1.0" encoding="UTF-8" standalone="no"?>
<!-- Created with Inkscape (http://www.inkscape.org/) -->

<svg
   xmlns:dc="http://purl.org/dc/elements/1.1/"
   xmlns:cc="http://creativecommons.org/ns#"
   xmlns:rdf="http://www.w3.org/1999/02/22-rdf-syntax-ns#"
   xmlns:svg="http://www.w3.org/2000/svg"
   xmlns="http://www.w3.org/2000/svg"
   xmlns:sodipodi="http://sodipodi.sourceforge.net/DTD/sodipodi-0.dtd"
   xmlns:inkscape="http://www.inkscape.org/namespaces/inkscape"
   sodipodi:docname="50.svg"
   inkscape:version="0.92.2 2405546, 2018-03-11"
   id="svg1586"
   version="1.1"
   viewBox="0 0 50 50"
   height="50mm"
   width="50mm">
  <sodipodi:namedview
     inkscape:window-maximized="1"
     inkscape:window-y="0"
     inkscape:window-x="0"
     inkscape:window-height="703"
     inkscape:window-width="1366"
     showgrid="false"
     inkscape:current-layer="layer1"
     inkscape:document-units="mm"
     inkscape:cy="82.968293"
     inkscape:cx="142.29739"
     inkscape:zoom="1.6515547"
     inkscape:pageshadow="2"
     inkscape:pageopacity="0.0"
     borderopacity="1.0"
     bordercolor="#666666"
     pagecolor="#ffffff"
     id="base" />
  <defs
     id="defs1580" />
  <metadata
     id="metadata1583">
    <rdf:RDF>
      <cc:Work
         rdf:about="">
        <dc:format>image/svg+xml</dc:format>
        <dc:type
           rdf:resource="http://purl.org/dc/dcmitype/StillImage" />
        <dc:title />
      </cc:Work>
    </rdf:RDF>
  </metadata>
  <g
     inkscape:label="Layer 1"
     inkscape:groupmode="layer"
     id="layer1"
     transform="translate(0,-247)">
    <g
       id="g915"
       transform="translate(-4.5253505,-1.0266827e-5)">
      <path
         id="path896"
         d="m 17.907749,296.66874 c -3.625354,-1.09911 -5.235983,-5.21771 -3.704038,-9.47176 0.662118,-1.83862 0.652874,-2.66064 -0.05741,-5.10483 -1.24422,-4.28174 0.122265,-10.09772 3.170525,-13.49427 0.682797,-0.76081 1.797447,-2.59225 2.477007,-4.06985 1.383494,-3.0082 3.292143,-4.93305 5.86704,-5.91681 1.276653,-0.48777 1.553603,-0.75791 1.564012,-1.52553 0.007,-0.51304 0.242019,-1.33423 0.522378,-1.82487 0.711593,-1.2453 0.681212,-1.32045 -0.633528,-1.56721 -2.697861,-0.50632 -5.207746,-4.00815 -4.209814,-5.87357 0.433298,-0.80996 1.742677,-1.01765 2.815877,-0.44664 0.359556,0.1913 1.433795,0.1754 2.675691,-0.0396 1.912339,-0.33108 2.140327,-0.29781 2.908966,0.4246 0.674079,0.63352 0.971813,0.71006 1.552577,0.39911 0.447611,-0.23965 2.040624,-0.31506 4.224651,-0.2 1.928356,0.1016 4.228376,0.2217 5.111161,0.26689 0.88278,0.0452 1.805692,0.21121 2.050915,0.3689 1.154215,0.74229 -0.225392,3.17671 -2.289145,4.03935 -0.97473,0.40743 -1.188492,0.69053 -1.188492,1.57395 0,1.89715 0.876314,3.37065 2.608581,4.38624 1.827402,1.07137 2.318373,2.06029 1.646458,3.3163 -0.571473,1.06826 -2.917697,1.86806 -3.663494,1.24886 -0.275616,-0.22884 -0.76347,-0.31537 -1.084114,-0.19227 -0.320644,0.12309 -0.983015,-0.0384 -1.471935,-0.3589 -0.943369,-0.61838 -1.242375,-0.23342 -0.376851,0.4852 0.281652,0.23384 0.613669,0.88784 0.737812,1.45331 0.157235,0.71615 0.621161,1.22299 1.528894,1.67028 1.647432,0.81178 2.673414,2.57625 2.732187,4.69873 0.02517,0.90897 0.24004,2.00341 0.477511,2.43208 1.303399,2.35288 -0.635985,5.91334 -4.761321,8.74119 -1.091308,0.74807 -1.187307,0.95116 -1.000903,2.11735 0.186572,1.16727 0.11779,1.3121 -0.723414,1.52332 -1.675528,0.4207 -1.078387,1.04608 0.764651,0.80083 5.208339,-0.69311 5.214332,-0.693 6.241914,0.12105 1.63126,1.29228 1.171917,4.29353 -0.657131,4.29353 -1.731715,0 -4.118989,0.78202 -3.925686,1.28597 0.5211,1.35853 -2.437067,2.22261 -8.504438,2.48416 -2.611578,0.11258 -4.086589,0.33163 -4.458506,0.66211 -1.42511,1.26634 -6.596921,2.01187 -8.968624,1.29282 z"
         style="fill:none;stroke:#ff0000;stroke-width:0.1;stroke-miterlimit:4;stroke-dasharray:none"
         inkscape:connector-curvature="0" />
      <path
         id="path894"
         d="m 26.93041,294.4527 c 0.774993,-0.61406 2.38156,-2.25694 3.570166,-3.65085 2.254486,-2.64389 5.35992,-5.43161 6.431261,-5.77328 0.927479,-0.29578 0.757631,-0.98873 -0.411715,-1.67976 -2.1138,-1.24917 -5.136074,-0.41444 -8.907595,2.4602 -1.337089,1.01913 -3.091281,2.1899 -3.898214,2.60173 -1.53054,0.78116 -4.146986,1.00767 -4.527354,0.39198 -0.135331,-0.21905 0.443901,-0.35683 1.500125,-0.35683 1.957585,0 3.482411,-0.71076 6.336821,-2.95376 1.0545,-0.82863 2.548132,-1.92996 3.319183,-2.4474 1.901024,-1.27575 3.289447,-4.08097 3.289447,-6.64613 0,-2.93942 -0.243652,-3.18047 -3.506853,-3.46945 -2.607642,-0.23093 -2.946746,-0.17923 -4.73371,0.7216 -1.058662,0.5337 -2.350885,1.27089 -2.871605,1.63825 -1.333461,0.94068 -1.647871,0.8296 -0.652362,-0.23052 1.11112,-1.18322 4.03176,-2.53985 6.146807,-2.85516 1.416333,-0.21115 1.693342,-0.37762 1.688774,-1.01493 -0.0091,-1.27229 -0.43537,-1.54107 -2.771484,-1.74763 -3.790448,-0.33516 -5.775464,-2.5755 -4.166992,-4.70298 0.288024,-0.38095 0.523677,-0.9904 0.523677,-1.35432 0,-0.72718 1.509741,-2.41337 2.160824,-2.41337 0.22541,0 -0.08831,0.56759 -0.697154,1.26131 -0.608841,0.69372 -1.106985,1.55721 -1.106985,1.91886 0,0.36166 -0.240767,0.85745 -0.535025,1.10177 -0.763026,0.63351 -0.661752,1.54262 0.267506,2.40139 0.960025,0.8872 3.30248,1.5813 4.403564,1.30483 1.226665,-0.308 2.22581,0.43666 2.492243,1.85745 0.245216,1.30768 1.002708,1.9317 1.608825,1.32534 0.188202,-0.18829 0.440191,-1.17019 0.559978,-2.18202 0.254627,-2.15079 -0.188602,-2.92285 -1.677978,-2.92285 -0.548458,0 -1.25108,-0.0975 -1.561387,-0.21659 -0.641674,-0.24634 -0.758997,-1.40499 -0.178606,-1.76384 0.212077,-0.13113 0.692999,-0.74276 1.068711,-1.35917 0.569975,-0.93512 0.683336,-0.99809 0.684455,-0.3801 6.34e-4,0.40737 -0.394985,1.11315 -0.879377,1.5684 -1.08578,1.02046 -0.875854,1.43764 0.723421,1.43764 0.774473,0 1.506019,0.2788 1.982645,0.75563 0.675597,0.67588 0.730379,1.00882 0.519035,3.15449 -0.273565,2.77745 0.0861,3.34554 2.001651,3.16159 l 1.182512,-0.11355 0.111676,-3.03304 c 0.113136,-3.07262 -0.247126,-4.99824 -1.156771,-6.18295 -0.475534,-0.61933 -0.547566,-0.62138 -1.433169,-0.0408 -0.512856,0.33618 -1.021641,0.52203 -1.130626,0.41299 -0.108986,-0.10903 0.217039,-0.47039 0.724492,-0.80303 1.181879,-0.77472 1.166329,-1.16419 -0.05821,-1.45863 -1.590378,-0.38239 -3.753133,-1.56169 -4.951142,-2.69972 l -1.116821,-1.06091 -1.558284,0.79402 c -0.85706,0.43672 -2.059365,1.17567 -2.671789,1.64209 -1.098879,0.83693 -3.345015,4.55909 -3.345015,5.54317 0,0.27864 -0.747808,1.38017 -1.661795,2.44786 -0.913981,1.06768 -2.077,2.82437 -2.58448,3.90378 -0.799721,1.70098 -0.922898,2.43817 -0.92415,5.53084 -6.33e-4,2.11204 0.210093,4.25772 0.516884,5.25762 0.471205,1.53577 0.459338,1.85344 -0.130623,3.49474 -1.243102,3.45838 -0.607289,7.02966 1.497115,8.40909 2.373761,1.55599 7.948889,1.03276 10.495482,-0.98502 z"
         style="fill:none;stroke:#0000ff;stroke-width:0.1;stroke-miterlimit:4;stroke-dasharray:none"
         inkscape:connector-curvature="0" />
      <path
         id="path892"
         d="m 34.114994,293.82806 c 0.951954,-0.1565 1.874873,-0.50822 2.050914,-0.7816 0.272507,-0.42317 0.367402,-0.42357 0.638477,-0.003 0.210498,0.32682 0.633522,0.4152 1.248382,0.26081 1.172016,-0.29428 1.277133,-1.85354 0.202727,-3.00725 -0.89881,-0.96502 -1.601931,-0.97712 -3.909596,-0.0672 -0.9954,0.39251 -2.084758,0.72879 -2.420805,0.74727 -0.336041,0.0185 -1.233744,0.74106 -1.994885,1.60573 l -1.383908,1.57212 1.918926,-0.0213 c 1.055411,-0.0117 2.697808,-0.14932 3.649768,-0.30582 z"
         style="fill:none;stroke:#0000ff;stroke-width:0.1;stroke-miterlimit:4;stroke-dasharray:none"
         inkscape:connector-curvature="0" />
      <path
         id="path890"
         d="m 42.025996,290.42666 c 0.680305,-0.28438 1.236922,-0.76609 1.236922,-1.07049 0,-0.3044 0.171326,-0.55345 0.380727,-0.55345 0.225482,0 0.282935,0.30819 0.140904,0.75587 -0.173391,0.54654 -0.105961,0.7113 0.243479,0.59488 1.116694,-0.37199 0.734922,-2.94264 -0.498424,-3.35608 -0.960412,-0.32196 -2.008897,-0.24701 -4.296329,0.30711 -1.231382,0.2983 -1.993161,0.30807 -2.716656,0.0348 -0.921099,-0.34782 -1.148328,-0.24841 -2.709269,1.18538 -0.937115,0.86078 -1.621444,1.64749 -1.520722,1.74825 0.100713,0.10076 1.012462,-0.14384 2.026098,-0.54354 2.445673,-0.9644 3.018618,-0.92097 4.396885,0.3333 1.340293,1.21968 1.629775,1.26889 3.316385,0.5639 z"
         style="fill:none;stroke:#0000ff;stroke-width:0.1;stroke-miterlimit:4;stroke-dasharray:none"
         inkscape:connector-curvature="0" />
      <path
         id="path888"
         d="m 42.35836,278.2204 c 1.303346,-1.70764 1.660417,-3.61293 0.892324,-4.76131 -0.309022,-0.46202 -0.432366,-0.43762 -0.901687,0.17842 -0.541845,0.71124 -0.548645,0.71093 -2.008171,-0.0887 -1.828394,-1.00174 -2.577002,-0.62342 -2.006422,1.01399 0.488908,1.40306 0.09854,3.80461 -0.9577,5.89182 -0.470986,0.9307 -0.774548,1.82459 -0.674579,1.98641 0.314409,0.50893 4.337966,-2.49338 5.656235,-4.22059 z"
         style="fill:none;stroke:#0000ff;stroke-width:0.1;stroke-miterlimit:4;stroke-dasharray:none"
         inkscape:connector-curvature="0" />
      <path
         id="path886"
         d="m 36.758047,280.12675 c 0.891604,-1.79294 1.402088,-5.11287 0.898263,-5.84189 -0.186105,-0.26928 -0.824675,-0.35169 -1.756409,-0.22668 l -1.46401,0.19645 -0.169889,2.36765 c -0.103537,1.44286 -0.476272,2.96792 -0.95429,3.90444 l -0.784391,1.53679 1.688241,-0.10947 c 1.6258,-0.10543 1.719842,-0.17302 2.542485,-1.82729 z"
         style="fill:none;stroke:#0000ff;stroke-width:0.1;stroke-miterlimit:4;stroke-dasharray:none"
         inkscape:connector-curvature="0" />
      <path
         id="path884"
         d="m 42.425177,271.7792 c 0.872278,-2.08852 -0.380814,-4.50026 -2.818235,-5.42408 -0.719238,-0.27261 -0.980869,-0.61641 -0.980869,-1.2889 0,-1.19254 -1.489537,-2.66883 -2.692794,-2.66883 h -0.941805 l 0.92459,1.57835 c 0.508526,0.86809 1.047459,2.43245 1.197629,3.47637 0.250317,1.74006 0.360396,1.91315 1.322751,2.0799 0.889906,0.15421 1.094032,0.39909 1.340794,1.60846 0.295481,1.44818 1.171729,2.46824 1.791218,2.08521 0.18729,-0.1158 0.57282,-0.76672 0.856721,-1.44648 z"
         style="fill:none;stroke:#0000ff;stroke-width:0.1;stroke-miterlimit:4;stroke-dasharray:none"
         inkscape:connector-curvature="0" />
      <path
         id="path882"
         d="m 38.35856,272.2487 c 0.3433,-0.26071 0.624192,-0.82878 0.624192,-1.26236 0,-0.61344 -0.178048,-0.76305 -0.802532,-0.67432 -0.615094,0.0874 -0.828637,0.38488 -0.914301,1.27371 -0.120853,1.25393 0.12114,1.40075 1.092641,0.66297 z"
         style="fill:none;stroke:#ff0000;stroke-width:0.1;stroke-miterlimit:4;stroke-dasharray:none"
         inkscape:connector-curvature="0" />
      <path
         id="path880"
         d="m 42.19288,261.62263 c 0,-0.62238 0.240982,-1.39799 0.535512,-1.72358 0.481668,-0.53245 0.451859,-0.63678 -0.296282,-1.03734 -1.233878,-0.66062 -1.970206,-2.16211 -2.181703,-4.44882 -0.228627,-2.47193 -0.469407,-2.95187 -2.320017,-4.62448 -1.151073,-1.04036 -1.73418,-1.30733 -2.855377,-1.30733 -0.7749,0 -1.820429,0.18757 -2.323387,0.41684 -0.780641,0.35582 -0.98803,0.31666 -1.417067,-0.26763 -0.417694,-0.56882 -0.974063,-0.689 -3.293315,-0.7114 -1.534889,-0.0149 -3.08951,-0.0951 -3.454713,-0.17841 -0.868455,-0.19811 -1.461553,0.75274 -1.176998,1.88697 0.487895,1.94472 4.17252,4.23258 5.806418,3.60535 0.696082,-0.26723 0.619616,0.0256 -0.398608,1.52673 -1.749364,2.5789 -1.042906,4.06673 2.793014,5.88219 2.251995,1.06582 4.148711,1.30084 5.70892,0.7074 0.696395,-0.26487 1.0101,-0.1905 1.505226,0.35683 0.344026,0.3803 0.852193,0.69144 1.129268,0.69144 0.481035,0 0.447084,-0.41858 -0.166425,-2.05176 -0.110936,-0.29533 0.176761,-0.43651 0.851479,-0.41786 0.560472,0.0154 0.818402,0.10916 0.573179,0.20815 -0.567578,0.22911 -0.57898,1.62874 -0.01785,2.19011 0.702455,0.70275 0.998704,0.4941 0.998704,-0.7034 z"
         style="fill:none;stroke:#0000ff;stroke-width:0.1;stroke-miterlimit:4;stroke-dasharray:none"
         inkscape:connector-curvature="0" />
      <path
         id="path878"
         d="m 34.671751,256.34711 c -1.296979,-0.39322 -2.822618,-1.44596 -2.822618,-1.94771 0,-0.39817 1.903982,-1.27955 2.764124,-1.27955 0.777365,0 1.516049,1.14252 1.516049,2.34488 0,1.29939 -0.02744,1.31597 -1.457555,0.88238 z"
         style="fill:none;stroke:#0000ff;stroke-width:0.1;stroke-miterlimit:4;stroke-dasharray:none"
         inkscape:connector-curvature="0" />
      <path
         id="path876"
         d="m 35.415942,255.24675 c 0,-0.60452 -0.08424,-0.64983 -0.497584,-0.26762 -0.513327,0.47467 -0.42861,0.99535 0.161956,0.99535 0.184593,0 0.335628,-0.32748 0.335628,-0.72773 z"
         style="fill:none;stroke:#0000ff;stroke-width:0.1;stroke-miterlimit:4;stroke-dasharray:none"
         inkscape:connector-curvature="0" />
      <path
         id="path874"
         d="m 34.345898,253.8335 c 0,-0.19625 -0.160511,-0.35682 -0.356686,-0.35682 -0.196173,0 -0.356677,0.16057 -0.356677,0.35682 0,0.19626 0.160504,0.35683 0.356677,0.35683 0.196175,0 0.356686,-0.16057 0.356686,-0.35683 z"
         style="fill:none;stroke:#0000ff;stroke-width:0.1;stroke-miterlimit:4;stroke-dasharray:none"
         inkscape:connector-curvature="0" />
      <path
         id="path872"
         d="m 34.456017,251.26008 c 0.556029,-0.35368 1.940928,-0.35719 2.158207,-0.006 0.09369,0.15165 -0.449188,0.27573 -1.206387,0.27573 -0.760068,0 -1.186408,-0.12106 -0.95182,-0.27027 z"
         style="fill:none;stroke:#0000ff;stroke-width:0.1;stroke-miterlimit:4;stroke-dasharray:none"
         inkscape:connector-curvature="0" />
      <path
         id="path870"
         d="m 29.097415,250.47452 c -0.562676,-0.47366 -1.497907,-0.93132 -2.078285,-1.01703 -0.881987,-0.13024 -0.820438,-0.16461 0.37486,-0.20929 1.080899,-0.0404 1.538885,0.12079 1.875598,0.66019 0.245023,0.39252 0.684901,0.71366 0.9775,0.71366 0.2926,0 0.532002,0.16057 0.532002,0.35683 0,0.5875 -0.597473,0.40831 -1.681675,-0.50436 z"
         style="fill:none;stroke:#0000ff;stroke-width:0.1;stroke-miterlimit:4;stroke-dasharray:none"
         inkscape:connector-curvature="0" />
      <path
         id="path868"
         d="m 42.202684,251.81875 c 1.980481,-1.31924 2.340097,-2.46756 0.536677,-1.71373 -0.68032,0.28436 -1.5631,0.51703 -1.961754,0.51703 -0.804396,0 -0.956689,0.69578 -0.296796,1.35595 0.552887,0.55311 0.668498,0.54242 1.721873,-0.15925 z"
         style="fill:none;stroke:#0000ff;stroke-width:0.1;stroke-miterlimit:4;stroke-dasharray:none"
         inkscape:connector-curvature="0" />
      <path
         id="path1308"
         d="m 43.192399,249.20814 c 0.4557,-0.26941 0.321108,-0.30481 -0.543903,-0.14306 -0.665295,0.12442 -1.716964,-0.002 -2.496772,-0.30021 -0.741022,-0.28334 -1.650755,-0.44698 -2.021632,-0.36365 -0.602334,0.13533 -0.56739,0.23679 0.327324,0.95051 0.860916,0.68675 1.221352,0.75794 2.565534,0.50671 0.860143,-0.16076 1.836399,-0.45339 2.169449,-0.6503 z"
         style="fill:none;stroke:#0000ff;stroke-width:0.1;stroke-miterlimit:4;stroke-dasharray:none"
         inkscape:connector-curvature="0" />
      <path
         id="path852"
         style="fill:none;stroke:#0000ff;stroke-width:0.1"
         d="m 23.931234,247.35945 -1.032449,1.03245 m 0.08242,0.31671 1.344542,-1.34455 m 0.423877,-0.0247 -0.121224,0.12122 m -1.615913,1.61592 0.08449,-0.0845 m 1.949918,-1.5508 -0.05234,0.0523 m -1.940571,1.94057 0.05456,-0.0545 m 1.133949,2.05903 -0.05623,0.0562 m 0.18307,0.21605 0.07953,-0.0795 m 4.494234,-4.09511 -0.122437,0.12244 m -4.264922,4.26492 0.0995,-0.0995 m 4.780845,-4.38172 -0.227289,0.22729 m -4.437626,4.43762 0.09177,-0.0918 m 4.976601,-4.57747 -0.242612,0.24261 m -4.61033,4.61033 0.109585,-0.10959 m 5.143238,-4.74411 -0.293993,0.29399 m -4.743402,4.7434 0.127401,-0.1274 m 5.201789,-4.80267 -0.229127,0.22913 m -1.916115,1.91612 0.08424,-0.0842 m -2.907547,2.90755 -0.132248,0.13225 m 5.192968,-4.79385 0.157324,-0.15732 m -2.054989,2.05499 -0.0954,0.0954 m -2.947741,2.94774 0.1204,-0.1204 m 5.197133,-4.79801 -0.08619,0.0862 m -2.039255,2.03925 0.05572,-0.0557 m -2.867568,2.86757 -0.128084,0.12809 m 0.252158,0.14696 0.135769,-0.13577 m 5.112949,-4.71382 -0.05115,0.0511 m -4.904841,4.90484 0.110649,-0.11064 m 5.075915,-4.6768 -0.08213,0.0821 m -4.802618,4.80262 0.08215,-0.0822 m 5.064961,-4.66584 -0.15939,0.15939 m -4.685906,4.6859 0.07295,-0.0729 m 5.144265,-4.74514 -0.284045,0.28404 m 0.4188,-0.0197 0.368876,-0.36887 m 0.569029,-0.16991 -0.190533,0.19053 m -5.134271,5.13428 0.0603,-0.0603 m 5.70401,-5.30489 -0.07739,0.0774 m -5.447158,5.44715 0.142806,-0.1428 m 5.829187,-5.43007 -0.07802,0.078 m -5.689467,5.68947 0.529978,-0.52998 m 0.439097,-0.04 -1.009727,1.00973 m -0.368214,0.76734 0.361326,-0.36133 m -5.558833,5.55883 -1.058048,1.05805 m 5.830751,-5.43163 0.254317,-0.25431 m -4.13744,4.13744 -2.499301,2.4993 m 6.346019,-5.9469 0.124472,-0.12447 m -3.014903,3.0149 -0.341777,0.34178 m -3.694398,3.6944 0.246968,-0.24697 m 15.289249,-14.89013 -0.105578,0.10558 m -8.601227,8.60123 0.235608,-0.23561 m -2.222994,2.22299 -0.171664,0.17167 m -5.292643,5.29264 0.661062,-0.66106 m 15.891846,-15.49273 -0.195741,0.19575 m -9.005718,9.00571 0.216937,-0.21693 m -1.33433,1.33433 -0.40674,0.40674 m -6.04043,6.04043 0.07052,-0.0705 m 17.091889,-16.69277 -0.310932,0.31093 m -9.690035,9.69004 0.683738,-0.68374 m -7.849808,7.84981 -0.458441,0.45844 m 17.563588,-17.16447 0.441206,-0.44121 m -9.609498,9.6095 -0.318226,0.31823 m -8.568768,8.56877 0.673712,-0.67372 m 18.202095,-17.80297 -0.571479,0.57148 m -9.535646,9.53565 0.207304,-0.20731 m -8.396806,8.39681 -1.892149,1.89215 m 19.849026,-19.44991 0.119149,-0.11914 m -9.502477,9.50247 -0.179362,0.17937 m -4.304248,4.30424 1.688353,-1.68835 m -6.283881,6.28388 -2.397517,2.39752 m 21.077979,-20.67886 0.07971,-0.0797 m -4.773513,4.77351 -0.705196,0.7052 m -4.177004,4.177 0.136382,-0.13638 m -3.735666,3.73567 -0.877577,0.87757 m -7.429331,7.42933 1.658842,-1.65884 m 20.119602,-19.72048 -0.07825,0.0783 m -5.412506,5.4125 1.214592,-1.21459 m -5.293117,5.29312 -0.09828,0.0983 m -4.915932,4.91593 0.3821,-0.3821 m -7.418768,7.41877 -0.706788,0.70679 m 22.466697,-22.06757 0.07731,-0.0773 m -4.70105,4.70105 -0.788808,0.7888 m -4.190075,4.19008 0.103713,-0.10372 m -5.241153,5.24116 -0.304306,0.3043 m -7.713427,7.71343 0.145937,-0.14594 m 22.914589,-22.51546 -0.09871,0.0987 m -3.77491,3.77491 0.117242,-0.11725 m -0.957568,0.95757 -0.783381,0.78338 m -4.19539,4.19539 0.101192,-0.10119 m -5.632301,5.6323 -0.544586,0.54459 m -7.673712,7.67371 0.225209,-0.22521 m 23.451284,-23.05216 -0.130742,0.13074 m -5.354876,5.35488 1.794239,-1.79424 m -5.924398,5.9244 -0.09002,0.09 m 11.403372,-11.00425 0.106302,-0.1063 m -1.576875,1.57687 -0.155402,0.15541 m -5.305655,5.30565 1.750962,-1.75096 m -5.908927,5.90893 -0.09249,0.0925 m -14.491843,14.49184 0.11742,-0.11742 m 26.042127,-25.643 -0.160091,0.16009 m -1.749164,1.74916 0.241966,-0.24196 m -3.807257,3.80725 -1.691142,1.69114 m -4.280731,4.28074 0.113219,-0.11322 m -15.004846,15.00484 -0.08017,0.0802 m 26.580262,-26.18114 0.217267,-0.21727 m -1.778599,1.7786 -0.307635,0.30764 m -5.195093,5.19509 1.580923,-1.58092 m -5.770101,5.7701 -0.133945,0.13394 m -15.231686,15.23169 0.121663,-0.12166 m 27.093789,-26.69467 -0.274442,0.27444 m -1.99881,1.99881 0.49892,-0.49892 m -4.181122,4.18112 -0.103033,0.10304 m -1.317968,1.31796 0.07858,-0.0786 m -4.30993,4.30993 -0.133869,0.13387 m -15.559673,15.55967 0.09054,-0.0905 m 27.6375,-27.23838 -0.378991,0.37899 m -2.155889,2.15589 0.715945,-0.71594 m -4.43894,4.43894 -0.07125,0.0712 m -5.592361,5.59236 0.131937,-0.13194 m -15.890282,15.89029 -0.134106,0.1341 m 27.834352,-27.43523 0.302662,-0.30266 m -1.674818,1.67482 -1.018077,1.01808 m -3.903976,3.90397 0.05773,-0.0577 m -5.310341,5.31034 -0.148201,0.1482 m -16.240519,16.24052 0.241806,-0.2418 m 28.355157,-27.95604 -0.235253,0.23526 m -1.526023,1.52602 0.200046,-0.20005 m -5.285819,5.28582 -0.755843,0.75585 m -4.506673,4.50667 0.164465,-0.16447 m -16.446615,16.44662 -0.231152,0.23115 m 28.766228,-28.3671 0.215399,-0.2154 m -1.392762,1.39276 -0.227061,0.22706 m -6.028564,6.02856 0.440933,-0.44093 m -4.833264,4.83326 -0.180729,0.18073 m -16.786082,16.78609 0.250225,-0.25023 m 29.116253,-28.71713 -0.05483,0.0548 m -1.520334,1.52033 0.355838,-0.35584 m -2.07428,2.07428 -0.05065,0.0506 m -4.361147,4.36115 0.124243,-0.12424 m -4.555366,4.55536 -0.179151,0.17915 m -17.076707,17.07671 0.269298,-0.2693 m 29.432913,-29.03379 -0.05645,0.0565 m -1.069303,1.0693 0.427674,-0.42767 m -2.740487,2.74049 -0.117312,0.11731 m -8.799545,8.79954 0.17516,-0.17516 m -17.259481,17.25949 -0.310958,0.31095 m 28.978433,-28.57931 1.108401,-1.1084 m -3.560248,3.56025 -0.233554,0.23355 m -8.627669,8.62767 0.190848,-0.19085 m -17.533886,17.53389 -0.298509,0.29851 m 29.66865,-29.26953 0.583896,-0.58389 m -3.535692,3.53569 -0.361765,0.36176 m -8.443458,8.44346 0.206537,-0.20654 m -17.801742,17.80175 -0.29261,0.29261 m 29.947192,-29.54807 0.393114,-0.39312 m -3.347292,3.34729 -0.615867,0.61587 m -8.219248,8.21925 0.222225,-0.22223 m -18.069597,18.0696 -0.28671,0.28671 m 30.132642,-29.73352 0.269487,-0.26949 m -2.421467,2.42147 -1.58146,1.58146 m -7.968566,7.96857 0.211444,-0.21144 m -2.134585,2.13458 -0.109413,0.10941 m -16.374266,16.37427 0.280811,-0.28081 m 29.968333,-29.56921 -2.211832,2.21183 m -1.616053,1.61605 0.126601,-0.1266 m -7.643824,7.64382 -0.197479,0.19748 m -3.759074,3.75908 1.221439,-1.22144 m -15.870194,15.87019 -0.277759,0.27776 m 28.775401,-28.37628 1.23398,-1.23398 m -10.826988,10.82699 -0.197067,0.19707 m -4.132116,4.13211 0.184085,-0.18408 m -14.741619,14.74162 -0.227168,0.22717 m 19.216555,-18.81744 0.22372,-0.22372 m -19.19519,19.19519 -0.176576,0.17658 m 19.444767,-19.04565 0.25339,-0.25339 m -4.656515,4.65652 -0.08443,0.0844 m -14.888699,14.88869 0.125984,-0.12598 m 19.830056,-19.43093 -0.284456,0.28445 m -4.502479,4.50248 0.07417,-0.0742 m -15.080195,15.08019 -0.09457,0.0946 m 19.898399,-19.49928 0.302897,-0.3029 m -4.659103,4.65911 -0.114776,0.11477 m -15.359371,15.35938 0.07218,-0.0722 m 20.440832,-20.04171 -0.469164,0.46917 m -4.375456,4.37545 0.173177,-0.17318 m 5.06445,-4.66532 -2.302104,2.3021 m -2.522486,2.52249 0.127473,-0.12748 m -2.557418,2.55742 -0.122352,0.12235 m -6.416802,6.41681 1.302146,-1.30215 m 12.88455,-12.48543 -0.199815,0.19982 m -1.581959,1.58196 0.939672,-0.93967 m -3.860104,3.8601 -0.143473,0.14347 m -2.570356,2.57036 0.171606,-0.17161 m -5.134893,5.13489 -0.696693,0.6967 m 13.275323,-12.8762 0.191791,-0.19179 m -1.085764,1.08576 -0.474775,0.47478 m -3.30437,3.30437 0.08406,-0.0841 m -2.548185,2.54818 -0.163589,0.16359 m -4.77423,4.77423 0.587649,-0.58765 m 16.903473,-16.50435 -0.08093,0.0809 m -4.981257,4.98125 0.359548,-0.35954 m -1.45996,1.45996 -0.163954,0.16395 m -3.438034,3.43803 0.06946,-0.0695 m -2.579965,2.57996 -0.145768,0.14577 m -4.150662,4.15066 0.227827,-0.22783 m 16.50731,-16.10818 -0.08475,0.0848 m -4.824511,4.82451 0.592636,-0.59264 m -1.862152,1.86215 -0.08462,0.0846 m -6.025041,6.02504 0.08543,-0.0854 m -3.646601,3.6466 -0.14595,0.14595 m 16.0706,-15.67148 0.10426,-0.10426 m -3.944015,3.94402 -0.852713,0.85271 m -21.969773,21.96978 0.06301,-0.063 m 26.894797,-26.49567 -0.135775,0.13577 m -4.59846,4.59846 0.977391,-0.97739 m -5.736806,5.73681 -0.05834,0.0583 m -5.603224,5.60323 0.139796,-0.1398 m -11.794198,11.7942 -0.122783,0.12278 m 26.978204,-26.57908 0.147802,-0.1478 m -3.695614,3.69561 -1.002039,1.00204 m -4.865692,4.86569 0.06331,-0.0633 m -17.472018,17.47202 -0.136657,0.13666 M 42.119541,258.307 42.28948,258.13706 m -2.136605,2.13661 -0.06796,0.068 m -1.699798,1.6998 0.186087,-0.18609 m -0.856532,0.85654 -0.121498,0.12149 m -4.982121,4.98212 0.130694,-0.13069 m -4.822963,4.82296 -0.05715,0.0571 m -12.956837,12.95684 0.218645,-0.21865 m 27.394886,-26.99576 -0.165416,0.16541 m -2.164715,2.16472 0.428193,-0.42819 m -1.830788,1.83078 -0.163202,0.16321 m -0.799037,0.79903 0.06655,-0.0666 m -5.039149,5.03915 -0.14392,0.14392 m -4.427738,4.42774 0.128396,-0.1284 m -13.386622,13.38662 -0.147731,0.14773 m 27.721163,-27.32204 0.152863,-0.15286 m -1.775549,1.77555 -0.680146,0.68015 m -1.402025,1.40202 0.114478,-0.11448 m -0.920418,0.92042 -0.06144,0.0614 m -5.236125,5.23613 0.169821,-0.16982 m -2.873772,2.87377 -0.101537,0.10154 m -1.283882,1.28388 0.183468,-0.18347 m -13.842331,13.84233 -0.336526,0.33653 m 28.143608,-27.74449 0.131227,-0.13123 m -2.488544,2.48855 -0.0878,0.0878 m -1.23298,1.23298 0.05073,-0.0507 m -0.950529,0.95053 -0.07415,0.0741 m -5.423468,5.42347 0.166108,-0.16611 m -2.756769,2.75677 -1.125656,1.12566 m -14.531119,14.53111 0.14117,-0.14117 m 28.541768,-28.14264 -0.122859,0.12286 m -2.609053,2.60905 0.07651,-0.0765 m -1.05301,1.053 -0.0511,0.0511 m -1.081847,1.08185 0.06928,-0.0693 m -5.483317,5.48332 -0.196766,0.19677 m -3.326673,3.32667 0.849302,-0.8493 m -15.776007,15.77601 -0.125906,0.1259 m 28.899977,-28.50085 0.165316,-0.16532 m -3.657057,3.65706 -0.05773,0.0577 m -1.189745,1.18975 0.0644,-0.0644 m -2.146511,2.14651 -0.05404,0.054 m -3.742259,3.74226 0.240591,-0.24059 m -2.461057,2.46106 -0.636301,0.6363 m -15.574101,15.5741 0.109831,-0.10983 m 29.337817,-28.9387 -0.902498,0.9025 m -2.685547,2.68555 0.648205,-0.64821 m -7.87063,7.87063 -0.162103,0.16211 m -2.527998,2.52799 0.433689,-0.43368 m -16.286371,16.28637 -0.259558,0.25956 m 28.588981,-28.18986 1.25767,-1.25767 m -3.028164,3.02816 -0.411264,0.41126 m -3.931987,3.93199 0.102642,-0.10264 m -3.806422,3.80642 -0.219834,0.21983 m -2.087213,2.08722 0.264006,-0.26401 m -16.635091,16.63509 -0.13585,0.13585 m 28.554544,-28.15542 1.568474,-1.56847 m -3.091285,3.09128 -0.06674,0.0667 m -2.116232,2.11623 0.05294,-0.0529 m -2.206554,2.20656 -0.13739,0.13739 m -4.143237,4.14323 0.385076,-0.38507 m -1.791355,1.79135 -0.148178,0.14818 m -16.90259,16.90259 0.101224,-0.10122 m 30.287966,-29.88885 -1.880837,1.88084 m -3.568324,3.56832 0.108364,-0.10836 m -2.242067,2.24207 -0.166045,0.16604 m -4.231812,4.23182 0.415905,-0.41591 m -1.322534,1.32253 -0.246118,0.24612 m -17.349295,17.3493 0.176252,-0.17626 m 30.501709,-30.10258 -2.110841,2.11084 m -3.484701,3.4847 0.187335,-0.18734 m -2.301203,2.30121 -0.194701,0.1947 m -5.071424,5.07142 1.19777,-1.19777 m -18.737624,18.73763 -0.119474,0.11947 m 27.848173,-27.44905 2.962188,-2.96219 m -5.419231,5.41923 -0.210908,0.21091 m -2.407976,2.40798 0.209446,-0.20945 m -4.142344,4.14234 -0.826889,0.82689 m -17.98203,17.98203 0.07537,-0.0754 m 30.861546,-30.46243 -2.762191,2.76219 m -2.8147,2.81471 0.178787,-0.17879 m -2.529302,2.5293 -0.266721,0.26672 m -4.451041,4.45104 0.584173,-0.58417 m -18.771601,18.7716 -0.07389,0.0739 m 28.583881,-28.18476 2.421606,-2.42161 m -5.282952,5.28296 -0.122844,0.12284 m -2.886367,2.88637 0.323997,-0.324 m -4.104072,4.10407 -0.352204,0.35221 m -18.569657,18.56965 0.0999,-0.0999 m 30.92413,-30.52501 -1.922196,1.9222 m -3.244556,3.24456 0.06705,-0.0671 m -2.786882,2.78688 -0.434544,0.43455 m -3.836999,3.837 0.162928,-0.16293 m -18.891534,18.89153 -0.05012,0.0501 m 29.367983,-28.96886 1.471109,-1.47111 m -4.749633,4.74964 -0.04999,0.05 m -3.422777,3.42277 0.540475,-0.54047 m -4.045288,4.04529 -0.1042,0.1042 m 11.361522,-10.9624 0.298676,-0.29868 m -7.323494,7.3235 -0.720972,0.72097 m -3.384829,3.38483 0.06075,-0.0608 m 4.260444,-3.86132 -0.951625,0.95163 m -3.208666,3.20866 0.180377,-0.18037 m 4.258071,-3.85895 -1.24504,1.24504 m -3.033024,3.03302 0.315788,-0.31579 m 7.211507,-6.81238 -0.05302,0.053 m -4.456511,4.45651 1.584489,-1.58449 m -3.934514,3.93451 -0.580424,0.58043 m 4.618267,-4.21915 0.204819,-0.20482 m -1.54307,1.54307 -0.364824,0.36483 m -2.823469,2.82347 0.890169,-0.89017 m 6.897119,-6.498 -0.0596,0.0596 m -2.798243,2.79825 0.115684,-0.11569 m -1.829942,1.82994 -0.406974,0.40698 m -1.729981,1.72998 0.230334,-0.23034 m -1.009055,1.00906 -0.280092,0.28009 m -13.884705,13.88471 0.06883,-0.0688 m 21.773726,-21.37461 -0.05431,0.0543 m -2.725075,2.72508 0.07852,-0.0785 m -2.130215,2.13022 -0.353239,0.35324 m -1.253743,1.25374 0.210873,-0.21087 m -1.481426,1.48142 -0.229822,0.22983 m -13.491536,13.49153 0.141732,-0.14173 m 18.736619,-18.3375 -0.06538,0.0654 m -3.36008,3.36008 1.223832,-1.22383 m -2.986218,2.98622 -0.179552,0.17955 M 20.7624,288.84369 20.898687,288.7074 m 18.461261,-18.06214 -0.15447,0.15447 m -2.965607,2.96561 0.930283,-0.93029 m -3.140741,3.14074 -0.129282,0.12929 m -12.745092,12.74509 0.188742,-0.18874 m 18.097195,-17.69808 -0.21779,0.21779 m -2.571927,2.57193 0.915078,-0.91508 m -3.567776,3.56778 -0.08955,0.0895 m -12.234609,12.23461 0.228946,-0.22895 m 17.618655,-17.21953 -2.459357,2.45936 m -3.181541,3.18154 0.127352,-0.12735 m -11.748253,11.74825 -0.102757,0.10275 m 15.230001,-14.83087 2.234561,-2.23456 m -16.752058,16.75205 -0.289815,0.28982 m 20.097905,-19.69878 0.05433,-0.0543 m -3.013513,3.01351 -0.819432,0.81944 m -1.235249,1.23525 0.209991,-0.21 m -4.022588,4.02259 -0.08297,0.083 m -10.405725,10.40573 0.07497,-0.075 m 16.377852,-15.97873 -0.590762,0.59077 m -5.535009,5.535 0.05277,-0.0528 m -9.410229,9.41023 -0.466919,0.46692 m 19.004571,-18.60545 0.05969,-0.0597 m -2.973532,2.97353 -0.445841,0.44584 m -6.209005,6.20901 0.341397,-0.3414 m 9.356025,-8.9569 -0.07019,0.0702 m -3.13802,3.13802 0.318116,-0.31812 m -6.639353,6.63935 -0.149838,0.14984 m -7.656657,7.65666 1.29245,-1.29245 m 16.112189,-15.71307 -0.09155,0.0916 m -2.905144,2.90514 0.19039,-0.19039 m -6.922033,6.92203 -0.273602,0.2736 m -5.355716,5.35572 0.577524,-0.57752 m 14.816864,-14.41775 -0.149783,0.14979 m -2.603434,2.60343 0.099,-0.099 m -2.182463,2.18247 -0.14854,0.14854 m -9.029151,9.02915 3.87815,-3.87815 m 10.16774,-9.76862 -0.213625,0.21362 m -2.302454,2.30246 0.0566,-0.0566 m -2.423939,2.42394 -0.167763,0.16776 m -7.806084,7.80608 2.220861,-2.22086 m 10.675176,-10.27605 -0.438433,0.43843 m -4.685961,4.68596 0.179043,-0.17904 m -6.014346,6.01434 -1.187732,1.18774 m 10.114719,-9.7156 2.07355,-2.07355 m -5.01675,5.01675 -0.170493,0.17049 m -6.369947,6.36995 0.785016,-0.78501 m 10.813013,-10.4139 -1.862576,1.86258 m -3.477838,3.47784 0.252266,-0.25227 m -5.298068,5.29807 -0.531932,0.53193 m 9.381954,-8.98283 1.577034,-1.57703 m -5.126135,5.12613 -0.367451,0.36745 m -4.965088,4.96509 0.458415,-0.45841 m -14.239238,14.23923 -0.0638,0.0638 m 24.060506,-23.66138 0.325929,-0.32593 m -5.431058,5.43106 -0.351357,0.35136 m -4.213374,4.21337 0.339188,-0.33919 m -14.297719,14.29772 -0.05175,0.0518 m 23.934826,-23.5357 0.165068,-0.16507 m -5.65555,5.65555 -0.282479,0.28248 m -3.654805,3.6548 0.265688,-0.26569 m 9.420972,-9.02185 -0.08006,0.0801 m -6.191171,6.19117 0.479991,-0.47999 m -3.185951,3.18595 -0.329043,0.32905 m 2.832896,-2.43378 0.214129,-0.21413 m -2.265969,2.26597 -0.374475,0.37448 m 0.356589,0.0425 2.006961,-2.00696 m -0.312703,0.71182 -1.359329,1.35933 m -14.000562,14.00057 0.08748,-0.0875 m 22.537214,-22.1381 -0.08072,0.0807 m -8.208485,8.20849 0.827158,-0.82716 m 7.459697,-7.06058 -0.05365,0.0536 m -7.94365,7.94365 0.448233,-0.44823 m -14.111993,14.11199 -0.0704,0.0704 m 21.654219,-21.2551 0.0948,-0.0948 m -7.477561,7.47756 -0.260929,0.26093 m -13.563632,13.56363 0.222584,-0.22258 m 21.160931,-20.76181 -0.236253,0.23626 m -7.307257,7.30725 0.295919,-0.29592 m -13.560054,13.56006 -0.08843,0.0884 m 20.537163,-20.13805 0.09452,-0.0945 m -6.387567,6.38756 -0.641008,0.64101 m -13.114775,13.11478 0.145596,-0.1456 m 19.989941,-19.59082 -0.288222,0.28822 m -6.503775,6.50378 1.96631,-1.96631 m -14.56967,14.56967 -0.25185,0.25185 m 13.083976,-12.68485 6.007112,-6.00712 m -18.27521,18.27521 -0.245128,0.24513 m 14.585969,-14.18685 3.120869,-3.12086 m -4.643133,4.64313 -0.339509,0.33951 m -12.176171,12.17617 0.453787,-0.45379 m 12.075679,-11.67655 -0.197652,0.19765 m -11.631879,11.63188 9.651085,-9.65109 m 2.216537,-1.81741 -0.05647,0.0565 M 26.368948,295.6103 36.740502,285.23874 m 1.148306,-0.74918 -2.326561,2.32656 m -8.054912,8.05491 4.585912,-4.58591 m 5.83827,-5.43915 -0.843534,0.84354 m -1.006,1.006 0.151017,-0.15102 m -3.793732,3.79373 -0.364044,0.36405 m -4.015047,4.01504 0.309143,-0.30914 m 8.106948,-7.70782 -0.105937,0.10593 m -3.699795,3.6998 0.184612,-0.18462 m -4.113546,4.11355 -0.294625,0.29463 m 8.236293,-7.83717 0.0924,-0.0924 m -3.316731,3.31673 -0.391354,0.39135 m -4.116162,4.11616 0.19378,-0.19378 m 7.983343,-7.58422 -0.131495,0.1315 m -3.116999,3.117 0.284285,-0.28429 m -4.615531,4.61553 -0.162967,0.16297 m 7.959906,-7.56079 0.195588,-0.19558 m -2.871056,2.87105 -0.202789,0.20279 m -4.647235,4.64724 0.132155,-0.13216 m 8.049223,-7.6501 -0.284209,0.28421 m -2.608952,2.60895 0.174249,-0.17425 m -4.931929,4.93193 -0.09612,0.0961 m 7.90647,-7.50734 0.223653,-0.22366 m -2.486459,2.48646 -0.176624,0.17663 m -5.032624,5.03262 0.08313,-0.0831 m 8.070354,-7.67123 -0.281829,0.28183 m -2.362813,2.36281 0.210501,-0.2105 m -5.214793,5.2148 -0.07013,0.0701 m 8.010327,-7.61121 0.166514,-0.16651 m -2.466313,2.46631 -0.162931,0.16293 m -5.161425,5.16143 0.105381,-0.10538 m 8.143062,-7.74394 -0.114874,0.11487 m -2.621316,2.62132 0.163933,-0.16393 m -5.05467,5.05467 -0.141538,0.14153 m 8.163872,-7.76475 0.06237,-0.0624 m -7.298979,7.6981 -0.06186,0.0619 m 0.432702,-0.0336 0.08066,-0.0807 m 0.555424,-0.1563 -0.20338,0.20338 m 0.432701,-0.0336 0.138759,-0.13876 m 4.322247,-3.92313 -0.06499,0.065 m -3.963312,3.96331 0.248026,-0.24803 m 3.998483,-3.59936 -0.108839,0.10884 m -3.704968,3.70497 0.316454,-0.31646 m 7.90188,-7.50275 -0.09715,0.0971 m -4.254351,4.25436 0.165177,-0.16518 m -2.569546,2.56954 -1.029765,1.02977 m 8.015739,-7.61662 0.09081,-0.0908 m -4.289032,4.28904 -0.248396,0.24839 m -3.080853,3.08085 0.721792,-0.72179 m 2.847341,-2.44821 -0.370679,0.37067 m -2.726956,2.72696 0.455985,-0.45599 m 2.918291,-2.51916 -0.539007,0.539 m -2.363771,2.36377 0.24882,-0.24882 m 2.924303,-2.52518 -0.833768,0.83377 m -1.806709,1.80671 0.06632,-0.0663 m 2.941842,-2.54272 -1.242386,1.24239 m 5.38949,-4.99037 0.07779,-0.0778 m -3.798702,3.79871 -0.14803,0.14803 m -2.140828,2.14082 1.006648,-1.00665 m 5.23012,-4.83099 -0.09777,0.0978 m -3.4692,3.4692 0.170139,-0.17014 m -1.807889,1.80789 -0.48015,0.48015 m 5.701628,-5.30251 0.11556,-0.11556 m -1.325006,1.32501 -0.05946,0.0595 m -1.71074,1.71074 0.124929,-0.12493 m 3.070963,-2.67184 -0.16818,0.16818 m -2.497945,2.49795 1.122374,-1.12238 m 1.612757,-1.21363 -0.151316,0.15131 m -2.145857,2.14586 0.619393,-0.61939 m 1.763619,-1.3645 -0.198865,0.19887 m -1.743197,1.74319 0.34409,-0.34409 m 1.522722,-1.1236 -1.425861,1.42587 m 0.500827,-0.10171 0.763517,-0.76352"
         inkscape:connector-curvature="0" />
    </g>
  </g>
</svg>
