<?xml version="1.0" encoding="UTF-8" standalone="no"?>
<!-- Created with Inkscape (http://www.inkscape.org/) -->

<svg
   xmlns:dc="http://purl.org/dc/elements/1.1/"
   xmlns:cc="http://creativecommons.org/ns#"
   xmlns:rdf="http://www.w3.org/1999/02/22-rdf-syntax-ns#"
   xmlns:svg="http://www.w3.org/2000/svg"
   xmlns="http://www.w3.org/2000/svg"
   xmlns:sodipodi="http://sodipodi.sourceforge.net/DTD/sodipodi-0.dtd"
   xmlns:inkscape="http://www.inkscape.org/namespaces/inkscape"
   sodipodi:docname="75.svg"
   inkscape:version="0.92.2 2405546, 2018-03-11"
   id="svg1586"
   version="1.1"
   viewBox="0 0 75 75"
   height="75mm"
   width="75mm">
  <sodipodi:namedview
     inkscape:window-maximized="1"
     inkscape:window-y="0"
     inkscape:window-x="0"
     inkscape:window-height="703"
     inkscape:window-width="1366"
     showgrid="false"
     inkscape:current-layer="layer1"
     inkscape:document-units="mm"
     inkscape:cy="144.44478"
     inkscape:cx="121.03123"
     inkscape:zoom="3.3031093"
     inkscape:pageshadow="2"
     inkscape:pageopacity="0.0"
     borderopacity="1.0"
     bordercolor="#666666"
     pagecolor="#ffffff"
     id="base" />
  <defs
     id="defs1580" />
  <metadata
     id="metadata1583">
    <rdf:RDF>
      <cc:Work
         rdf:about="">
        <dc:format>image/svg+xml</dc:format>
        <dc:type
           rdf:resource="http://purl.org/dc/dcmitype/StillImage" />
        <dc:title />
      </cc:Work>
    </rdf:RDF>
  </metadata>
  <g
     transform="translate(0,-222)"
     id="layer1"
     inkscape:groupmode="layer"
     inkscape:label="Layer 1">
    <g
       id="g2281">
      <path
         id="path2243"
         d="m 58.022103,225.28931 c 0.684268,-0.40439 0.482168,-0.45753 -0.816711,-0.21473 -0.99899,0.18675 -2.57815,-0.003 -3.74909,-0.45062 -1.1127,-0.4253 -2.478731,-0.67093 -3.035631,-0.54585 -0.904449,0.20313 -0.851979,0.35542 0.491501,1.42672 1.29273,1.03082 1.833951,1.13768 3.852341,0.76058 1.291569,-0.2413 2.75749,-0.68054 3.25759,-0.9761 z"
         style="fill:none;stroke:#0000ff;stroke-width:0.1;stroke-miterlimit:4;stroke-dasharray:none" />
      <path
         id="path2241"
         d="m 56.535972,229.20785 c 2.97384,-1.98019 3.513831,-3.70383 0.80586,-2.57232 -1.021551,0.42683 -2.34711,0.77607 -2.94572,0.77607 -1.20786,0 -1.436539,1.04437 -0.445661,2.03529 0.830202,0.83023 1.0038,0.81418 2.585521,-0.23904 z"
         style="fill:none;stroke:#0000ff;stroke-width:0.1;stroke-miterlimit:4;stroke-dasharray:none" />
      <path
         id="path2239"
         d="m 36.857432,227.19015 c -0.8449,-0.71096 -2.24922,-1.39791 -3.1207,-1.52656 -1.32437,-0.1955 -1.23195,-0.24708 0.56288,-0.31415 1.62305,-0.0607 2.31075,0.18131 2.81635,0.99095 0.36792,0.58917 1.02843,1.07121 1.46779,1.07121 0.43936,0 0.79884,0.24102 0.79884,0.5356 0,0.88185 -0.89715,0.61288 -2.52516,-0.75705 z"
         style="fill:none;stroke:#0000ff;stroke-width:0.1;stroke-miterlimit:4;stroke-dasharray:none" />
      <path
         id="path2237"
         d="m 44.903773,228.36928 c 0.834919,-0.53087 2.914449,-0.53614 3.240709,-0.009 0.140679,0.22763 -0.674489,0.41387 -1.811481,0.41387 -1.141298,0 -1.781479,-0.18171 -1.429228,-0.40567 z"
         style="fill:none;stroke:#0000ff;stroke-width:0.1;stroke-miterlimit:4;stroke-dasharray:none" />
      <path
         id="path2235"
         d="m 44.738421,232.23202 c 0,-0.29458 -0.241019,-0.5356 -0.535591,-0.5356 -0.294568,0 -0.535577,0.24102 -0.535577,0.5356 0,0.29458 0.241009,0.5356 0.535577,0.5356 0.294572,0 0.535591,-0.24102 0.535591,-0.5356 z"
         style="fill:none;stroke:#0000ff;stroke-width:0.1;stroke-miterlimit:4;stroke-dasharray:none" />
      <path
         id="path2233"
         d="m 46.345172,234.35332 c 0,-0.90739 -0.126489,-0.97541 -0.747159,-0.40171 -0.7708,0.71249 -0.643591,1.49403 0.243189,1.49403 0.27718,0 0.50397,-0.49154 0.50397,-1.09232 z"
         style="fill:none;stroke:#0000ff;stroke-width:0.1;stroke-miterlimit:4;stroke-dasharray:none" />
      <path
         id="path2231"
         d="m 45.227713,236.00496 c -1.947511,-0.59022 -4.238371,-2.1704 -4.238371,-2.92353 0,-0.59766 2.858971,-1.92061 4.150539,-1.92061 1.167271,0 2.27646,1.71493 2.27646,3.51968 0,1.9504 -0.0412,1.97529 -2.188628,1.32446 z"
         style="fill:none;stroke:#0000ff;stroke-width:0.1;stroke-miterlimit:4;stroke-dasharray:none" />
      <path
         id="path2229"
         d="m 56.521251,243.92356 c 0,-0.93419 0.361852,-2.09839 0.804111,-2.58711 0.72326,-0.7992 0.6785,-0.9558 -0.444889,-1.55705 -1.85276,-0.9916 -2.958412,-3.24534 -3.275991,-6.67771 -0.3433,-3.7104 -0.70485,-4.43079 -3.483679,-6.94139 -1.728422,-1.56159 -2.604,-1.96232 -4.287562,-1.96232 -1.163569,0 -2.733509,0.28155 -3.488738,0.62568 -1.172191,0.5341 -1.483601,0.47531 -2.127832,-0.40171 -0.627199,-0.85381 -1.462629,-1.0342 -4.945159,-1.06782 -2.30475,-0.0223 -4.63913,-0.14276 -5.18751,-0.2678 -1.30405,-0.29736 -2.19463,1.12988 -1.76735,2.83237 0.73261,2.91903 6.26535,6.35314 8.71877,5.41165 1.04522,-0.40111 0.9304,0.0385 -0.59854,2.29164 -2.6268,3.87096 -1.566,6.1042 4.19392,8.82922 3.381539,1.5998 6.229599,1.95258 8.57237,1.06182 1.045689,-0.39758 1.51674,-0.28595 2.260209,0.5356 0.51658,0.57083 1.279631,1.03786 1.69568,1.03786 0.72231,0 0.67133,-0.6283 -0.249899,-3.07971 -0.166579,-0.44329 0.265419,-0.65521 1.278559,-0.62722 0.84159,0.0232 1.228892,0.16385 0.860671,0.31244 -0.85226,0.3439 -0.869381,2.44475 -0.0268,3.28737 1.054788,1.05484 1.499629,0.74165 1.499629,-1.05581 z"
         style="fill:none;stroke:#0000ff;stroke-width:0.1;stroke-miterlimit:4;stroke-dasharray:none" />
      <path
         id="path2227"
         d="m 50.763733,259.87339 c 0.51549,-0.39133 0.93727,-1.244 0.93727,-1.89482 0,-0.92077 -0.267351,-1.14534 -1.205061,-1.01216 -0.92361,0.13118 -1.244261,0.57771 -1.372891,1.91186 -0.18147,1.88215 0.181901,2.10254 1.640682,0.99512 z"
         style="fill:none;stroke:#ff0000;stroke-width:0.1;stroke-miterlimit:4;stroke-dasharray:none" />
      <path
         id="path2225"
         d="m 56.870062,259.16867 c 1.309791,-3.13489 -0.57182,-6.75494 -4.231791,-8.1416 -1.079989,-0.40919 -1.472848,-0.92524 -1.472848,-1.93464 0,-1.79002 -2.23665,-4.00594 -4.043431,-4.00594 h -1.41419 l 1.38834,2.36912 c 0.76359,1.30301 1.572839,3.65113 1.79833,5.21805 0.37587,2.61185 0.541161,2.87166 1.986209,3.12196 1.33626,0.23146 1.642771,0.59903 2.013302,2.4143 0.443688,2.17373 1.759439,3.70485 2.689648,3.12993 0.281231,-0.17382 0.860132,-1.15086 1.286431,-2.17118 z"
         style="fill:none;stroke:#0000ff;stroke-width:0.1;stroke-miterlimit:4;stroke-dasharray:none" />
      <path
         id="path2223"
         d="m 48.360443,271.69841 c 1.33881,-2.69121 2.10534,-7.67446 1.348809,-8.76872 -0.279451,-0.4042 -1.238311,-0.5279 -2.63738,-0.34025 l -2.19832,0.29487 -0.255101,3.55386 c -0.155469,2.16575 -0.715158,4.45487 -1.432938,5.8606 l -1.177822,2.30673 2.535021,-0.16431 c 2.44126,-0.15825 2.582471,-0.2597 3.817731,-2.74278 z"
         style="fill:none;stroke:#0000ff;stroke-width:0.1;stroke-miterlimit:4;stroke-dasharray:none" />
      <path
         id="path2221"
         d="m 56.769732,268.83696 c 1.95707,-2.56318 2.49324,-5.42304 1.33989,-7.14677 -0.464019,-0.69349 -0.64923,-0.65687 -1.35395,0.26781 -0.81362,1.06758 -0.823831,1.06712 -3.015419,-0.13319 -2.74547,-1.50363 -3.869561,-0.93577 -3.012792,1.522 0.734131,2.10601 0.14796,5.71076 -1.438058,8.84368 -0.707221,1.39699 -1.163042,2.73872 -1.012931,2.98161 0.472109,0.76391 6.51378,-3.74258 8.49326,-6.33514 z"
         style="fill:none;stroke:#0000ff;stroke-width:0.1;stroke-miterlimit:4;stroke-dasharray:none" />
      <path
         id="path2219"
         d="m 56.270662,287.15866 c 1.021529,-0.42685 1.85733,-1.1499 1.85733,-1.60681 0,-0.4569 0.257259,-0.83073 0.57169,-0.83073 0.338579,0 0.424849,0.46259 0.211579,1.13457 -0.26036,0.82035 -0.159109,1.06766 0.365602,0.89291 1.676799,-0.55836 1.10354,-4.41692 -0.748422,-5.0375 -1.44213,-0.48327 -3.016509,-0.37076 -6.451259,0.46097 -1.849011,0.44775 -2.992879,0.46242 -4.079261,0.0523 -1.383099,-0.52208 -1.7243,-0.37286 -4.06817,1.77927 -1.407149,1.29204 -2.434719,2.47289 -2.283478,2.62413 0.151228,0.15125 1.520288,-0.2159 3.042338,-0.81586 3.672361,-1.44756 4.53268,-1.38238 6.602251,0.50029 2.01255,1.83075 2.447229,1.90462 4.9798,0.84642 z"
         style="fill:none;stroke:#0000ff;stroke-width:0.1;stroke-miterlimit:4;stroke-dasharray:none" />
      <path
         id="path2217"
         d="m 44.391701,292.2642 c 1.42943,-0.23491 2.815262,-0.76285 3.079601,-1.17319 0.409189,-0.63519 0.551681,-0.63579 0.958721,-0.004 0.316079,0.49057 0.95128,0.62322 1.874538,0.39149 1.759871,-0.44172 1.917711,-2.78218 0.304411,-4.51392 -1.349631,-1.4485 -2.405419,-1.46666 -5.870551,-0.10078 -1.494668,0.58916 -3.13042,1.09391 -3.63502,1.12165 -0.50459,0.0278 -1.852559,1.11234 -2.995469,2.41022 l -2.07804,2.35976 2.88141,-0.0319 c 1.584779,-0.0176 4.050961,-0.22412 5.480399,-0.45904 z"
         style="fill:none;stroke:#0000ff;stroke-width:0.1;stroke-miterlimit:4;stroke-dasharray:none" />
      <path
         id="path2215"
         d="m 33.603512,293.20178 c 1.16371,-0.9217 3.57609,-3.38768 5.36087,-5.47995 3.38528,-3.9685 8.048321,-8.1529 9.657019,-8.66575 1.39268,-0.44397 1.13764,-1.48408 -0.61822,-2.52133 -3.174029,-1.87502 -7.712199,-0.62208 -13.375419,3.69279 -2.00774,1.52971 -4.64179,3.28705 -5.85346,3.90522 -2.29822,1.17252 -6.22701,1.51252 -6.79816,0.58836 -0.20321,-0.3288 0.66655,-0.53561 2.25255,-0.53561 2.93946,0 5.2291,-1.06685 9.51521,-4.43362 1.58341,-1.24378 3.82621,-2.89688 4.984,-3.67357 2.85453,-1.91491 4.939351,-6.12557 4.939351,-9.97589 0,-4.4121 -0.365861,-4.77392 -5.265801,-5.20768 -3.91557,-0.34662 -4.42476,-0.26902 -7.10802,1.08313 -1.58966,0.80108 -3.53003,1.90762 -4.31193,2.45902 -2.00229,1.41198 -2.4744,1.24524 -0.97957,-0.346 1.66843,-1.77603 6.05399,-3.81234 9.22989,-4.28563 2.12673,-0.31694 2.54268,-0.56681 2.53582,-1.52342 -0.0137,-1.90971 -0.65374,-2.31315 -4.16159,-2.62321 -5.69164,-0.50307 -8.67229,-3.86584 -6.25705,-7.0592 0.43249,-0.57182 0.78634,-1.4866 0.78634,-2.03285 0,-1.09151 2.26699,-3.6225 3.24464,-3.6225 0.33847,0 -0.1326,0.85196 -1.04683,1.89324 -0.91422,1.04129 -1.66222,2.33739 -1.66222,2.88023 0,0.54285 -0.36153,1.28704 -0.80338,1.65376 -1.14574,0.95091 -0.99367,2.31549 0.40168,3.60452 1.44155,1.33169 4.95892,2.37354 6.61228,1.95856 1.84193,-0.46231 3.34222,0.65542 3.74229,2.78804 0.36821,1.96285 1.505641,2.8995 2.415771,1.98935 0.282599,-0.28262 0.660979,-1.75646 0.840848,-3.27523 0.382342,-3.22836 -0.283199,-4.38722 -2.519609,-4.38722 -0.82355,0 -1.87859,-0.14629 -2.34454,-0.32511 -0.96352,-0.36976 -1.13969,-2.1089 -0.26819,-2.64754 0.31845,-0.19682 1.04059,-1.11488 1.60475,-2.04013 0.85586,-1.40362 1.02608,-1.49813 1.02776,-0.57052 9.52e-4,0.61146 -0.5931,1.67084 -1.32045,2.35417 -1.63038,1.53172 -1.31516,2.15792 1.08627,2.15792 1.162929,0 2.2614,0.41848 2.97709,1.1342 1.01446,1.0145 1.096719,1.51425 0.77937,4.73492 -0.410779,4.16898 0.12928,5.02168 3.005629,4.74558 l 1.77563,-0.17044 0.16769,-4.55263 c 0.169881,-4.61202 -0.371078,-7.5024 -1.736979,-9.28066 -0.71405,-0.92961 -0.822211,-0.93269 -2.15201,-0.0613 -0.770091,0.50461 -1.53407,0.78357 -1.69772,0.6199 -0.16365,-0.16365 0.325901,-0.70606 1.087879,-1.20535 1.77468,-1.16286 1.75133,-1.74746 -0.0874,-2.18941 -2.388071,-0.57398 -5.63561,-2.34412 -7.43451,-4.05231 l -1.67699,-1.59244 -2.33988,1.19184 c -1.28694,0.65552 -3.09229,1.76468 -4.01189,2.46479 -1.65005,1.25623 -5.02279,6.84323 -5.02279,8.32035 0,0.41824 -1.12289,2.07164 -2.49531,3.67425 -1.37241,1.6026 -3.11877,4.23941 -3.88079,5.85961 -1.20084,2.55318 -1.3858,3.65972 -1.38768,8.30184 -9.5e-4,3.17019 0.31547,6.39088 0.77614,7.89173 0.70755,2.3052 0.68973,2.78203 -0.19614,5.24564 -1.86661,5.19105 -0.91189,10.55158 2.24803,12.62211 3.56438,2.33556 11.93585,1.55019 15.75975,-1.47852 z"
         style="fill:none;stroke:#0000ff;stroke-width:0.1;stroke-miterlimit:4;stroke-dasharray:none" />
      <path
         id="path1308"
         d="m 20.055312,296.52809 c -5.44374,-1.64978 -7.86222,-7.83183 -5.56189,-14.2172 0.99422,-2.75979 0.98034,-3.99365 -0.0862,-7.6624 -1.86829,-6.42693 0.18359,-15.15676 4.76078,-20.25502 1.02527,-1.14198 2.699,-3.89098 3.71941,-6.10888 2.07742,-4.51533 4.9434,-7.40455 8.8098,-8.88118 1.91699,-0.73214 2.33285,-1.13762 2.34848,-2.28983 0.0105,-0.77008 0.36341,-2.00269 0.78439,-2.73914 1.06851,-1.86922 1.02289,-1.98202 -0.95129,-2.3524 -4.05104,-0.75999 -7.81982,-6.01627 -6.32135,-8.81628 0.65063,-1.21576 2.61676,-1.52751 4.22825,-0.67042 0.5399,0.28715 2.15295,0.26329 4.01775,-0.0594 2.87152,-0.49696 3.21386,-0.44702 4.36803,0.63732 1.01218,0.95093 1.459249,1.06581 2.33131,0.59908 0.672121,-0.35972 3.06415,-0.47292 6.343629,-0.30021 2.895571,0.1525 6.349222,0.33277 7.67479,0.40061 1.32556,0.0678 2.711381,0.31702 3.079602,0.55372 1.73314,1.11418 -0.338442,4.76826 -3.437322,6.06309 -1.46363,0.61157 -1.784609,1.0365 -1.784609,2.36252 0,2.84764 1.31585,5.05937 3.916979,6.58379 2.743981,1.60813 3.48121,3.09251 2.47228,4.97779 -0.85811,1.60347 -4.38114,2.80398 -5.50101,1.87455 -0.413859,-0.34349 -1.146408,-0.47337 -1.627878,-0.2886 -0.481471,0.18476 -1.476071,-0.0576 -2.210221,-0.53871 -1.416539,-0.9282 -1.865519,-0.35036 -0.56587,0.72829 0.422921,0.351 0.92147,1.33265 1.10788,2.18143 0.2361,1.07494 0.932719,1.83571 2.295749,2.5071 2.473741,1.21849 4.01433,3.86697 4.102582,7.05284 0.0378,1.36437 0.360439,3.00714 0.717018,3.65057 1.957152,3.53169 -0.954979,8.87598 -7.149478,13.1206 -1.638681,1.12287 -1.782831,1.42771 -1.502931,3.17817 0.280151,1.75208 0.176871,1.96947 -1.08626,2.28651 -2.515931,0.63148 -1.619279,1.57018 1.14818,1.20205 7.82071,-1.04036 7.829709,-1.0402 9.372701,0.1817 2.449459,1.93972 1.75972,6.44463 -0.986732,6.44463 -2.600299,0 -6.184969,1.17382 -5.89471,1.93025 0.78247,2.03917 -3.659439,3.33616 -12.770049,3.72874 -3.92148,0.16899 -6.13632,0.49778 -6.69478,0.99384 -2.13991,1.90079 -9.90577,3.01983 -13.46706,1.94053 z"
         style="fill:none;stroke:#ff0000;stroke-width:0.1;stroke-miterlimit:4;stroke-dasharray:none" />
      <path
         id="path2199"
         style="fill:none;stroke:#0000ff;stroke-width:0.1"
         d="m 28.15743,222.79585 -0.28585,0.28585 m -0.242044,0.64117 1.222616,-1.22262 m 0.528145,-0.12902 -1.86624,1.86624 m 0.0028,0.3963 2.308017,-2.30802 m 0.365632,0.0335 -0.418399,0.4184 m -2.244592,2.24459 0.442809,-0.44281 m 2.577055,-2.17793 -0.406006,0.406 m -2.558854,2.55886 0.357907,-0.35791 m 2.925112,-2.52599 -0.358256,0.35826 m -2.85192,2.85192 0.276107,-0.27611 m 3.23892,-2.8398 -0.296638,0.29664 m -3.113494,3.1135 0.242461,-0.24247 m 3.446292,-3.04716 -0.208791,0.20879 m -3.375067,3.37506 0.192898,-0.19289 m 3.674168,-3.27505 -0.12553,0.12553 m -3.63664,3.63664 0.204716,-0.20472 m 3.872961,-3.47383 -0.07457,0.0746 m -3.903473,3.90348 0.210853,-0.21086 m 0.144293,0.25483 -0.206165,0.20617 m 0.14898,0.25014 0.194647,-0.19465 m 0.173036,0.22609 -0.218702,0.2187 m 0.148981,0.25014 0.242754,-0.24275 m 5.056106,-4.65698 -0.05618,0.0562 m -5.093694,5.0937 0.266807,-0.26681 m 5.299503,-4.90038 -0.08487,0.0849 m -5.310455,5.31046 0.26885,-0.26885 m 5.589921,-5.1908 -0.160563,0.16056 m -5.515101,5.5151 0.258776,-0.25877 m 5.880339,-5.48122 -0.236262,0.23626 m -5.719746,5.71975 0.280975,-0.28098 m 6.137385,-5.73826 -0.324412,0.32441 m -5.91084,5.91084 0.304278,-0.30427 m 6.40143,-6.00231 -0.393004,0.393 m -6.129597,6.1296 0.327581,-0.32758 m 6.665475,-6.26636 -0.475325,0.47533 m -6.334624,6.33462 0.350884,-0.35088 m 6.929521,-6.5304 -0.557645,0.55765 m -6.507768,6.50776 0.342303,-0.3423 m 7.180156,-6.78103 -0.626555,0.62655 m -6.680439,6.68044 0.345397,-0.3454 m 7.36505,-6.96592 -0.641872,0.64187 m -2.569119,2.56912 0.06084,-0.0608 m -3.981614,3.98162 -0.363213,0.36321 m 7.213492,-6.81437 0.716877,-0.71688 m -3.186289,3.18629 -0.179459,0.17946 m -4.349156,4.34916 0.381029,-0.38103 m 7.652876,-7.25376 -0.679201,0.67921 m -2.72492,2.72492 0.231785,-0.23179 m -4.247259,4.24726 -0.398845,0.39884 m 7.495915,-7.09679 0.612846,-0.61284 m -3.113263,3.11326 -0.321426,0.32142 m -4.448676,4.44868 0.40673,-0.40673 m 7.725228,-7.3261 -0.504763,0.50476 m -2.922096,2.92209 0.320542,-0.32054 m -4.390001,4.39 -0.383448,0.38345 m 7.675073,-7.27595 0.42413,-0.42413 m -3.063528,3.06353 -0.326346,0.32634 m -4.457136,4.45714 0.391131,-0.39113 m 7.675315,-7.27619 -0.353,0.353 m -3.012685,3.01268 0.265154,-0.26515 m -4.314907,4.31491 -0.398815,0.39881 m 7.751819,-7.3527 0.281847,-0.28184 m -3.137511,3.13751 -0.215705,0.2157 m -4.428257,4.42826 0.406499,-0.4065 m 7.59211,-7.19299 -0.26196,0.26196 m -3.07651,3.07651 0.159995,-0.15999 m -4.153759,4.15376 -0.414183,0.41418 m 7.688724,-7.2896 0.274827,-0.27483 m -3.221215,3.22122 -0.10418,0.10418 m -4.356654,4.35665 0.392558,-0.39256 m 7.503516,-7.10439 -0.284585,0.28458 m -3.02787,3.02787 0.08344,-0.0834 m -3.999237,3.99924 -0.380581,0.38058 m 7.515378,-7.11626 0.354734,-0.35473 m -3.279398,3.2794 -0.06737,0.0674 m -4.238289,4.23829 0.388162,-0.38816 m 7.464279,-7.06516 -0.436981,0.43698 m -2.950206,2.95021 0.08757,-0.0876 m -3.872022,3.87202 -0.34925,0.34925 m 7.304323,-6.9052 0.539157,-0.53916 m -3.367148,3.36715 -0.115664,0.11567 m -4.042962,4.04296 0.324185,-0.32419 m 7.543569,-7.14444 -0.618706,0.6187 m -2.954595,2.9546 0.180863,-0.18087 m -3.873891,3.87389 -0.27663,0.27664 m 7.407876,-7.00876 0.818283,-0.81828 m -3.719795,3.71979 -0.27215,0.27215 m -3.909877,3.90988 0.297286,-0.29729 m 8.238859,-7.83973 -0.721936,0.72193 m -3.639776,3.63978 0.258445,-0.25845 m -3.7906,3.7906 -0.317941,0.31795 m 8.089508,-7.69039 0.537201,-0.5372 m -7.963775,7.96377 -0.365769,0.36577 m 8.296135,-7.89701 0.472905,-0.4729 m -8.063576,8.06357 -0.435995,0.436 m 8.540501,-8.14138 0.465944,-0.46595 m -8.129618,8.12962 -0.695794,0.6958 m 8.779455,-8.38034 0.404383,-0.40438 m -7.983545,7.98354 -1.114294,1.1143 m 9.135383,-8.73626 0.367423,-0.36742 m -7.816129,7.81612 -1.717272,1.71728 m 9.607906,-9.20879 0.330464,-0.33046 m -8.714961,8.71496 -1.874131,1.87413 m 10.700555,-10.30143 0.293504,-0.29351 m -9.967556,9.96756 -1.280412,1.28041 m -8.929379,8.92938 1.77887,-1.77887 m 18.806755,-18.40763 -0.325135,0.32513 m -11.625312,11.62532 1.023679,-1.02368 m -6.528764,6.52876 -4.088984,4.08899 m 21.590134,-21.19101 0.340543,-0.34055 m -11.520805,11.52081 -0.849396,0.84939 m -10.527313,10.52732 6.188388,-6.18839 m 17.095285,-16.69617 -0.355951,0.35596 m -12.520276,12.52027 0.604697,-0.60469 m -4.19487,4.19486 -1.056202,1.05621 m -5.95189,5.95189 1.080993,-1.081 m 22.77966,-22.38053 -0.417777,0.41777 m -12.891405,12.89141 0.558132,-0.55813 m -3.321342,3.32134 -0.879148,0.87915 m -7.536231,7.53623 1.193425,-1.19343 m 23.680506,-23.28138 -0.499663,0.49966 m -13.252853,13.25286 0.499613,-0.49962 m -2.564065,2.56407 -0.598775,0.59877 m -8.6426,8.6426 0.774981,-0.77498 m 24.669522,-24.2704 -0.581549,0.58155 m -15.834269,15.83427 2.797066,-2.79707 m -11.513131,11.51313 -1.03381,1.03381 m 25.888419,-25.48929 0.66382,-0.66382 m -13.9616,13.9616 -1.593312,1.59331 m -11.109386,11.10939 0.889454,-0.88946 m 26.154167,-25.75504 -0.807202,0.8072 m -14.31356,14.31356 0.842301,-0.8423 m -12.24093,12.24093 -1.370265,1.37026 m 27.331531,-26.9324 0.937447,-0.93745 m -14.552314,14.55231 -0.644049,0.64405 m -13.371434,13.37143 1.557192,-1.55719 m 27.389928,-26.9908 -1.067693,1.06769 m -14.303271,14.30327 0.54828,-0.54828 m -12.653258,12.65326 -3.033206,3.0332 m 29.690533,-29.2914 1.197938,-1.19794 m -4.5776,4.5776 -0.0794,0.0794 m -4.458834,4.45884 0.09275,-0.0928 m -6.034432,6.03443 -0.488052,0.48805 m -6.046665,6.04667 2.054294,-2.0543 m -8.464303,8.46431 -4.519012,4.51901 m 31.54011,-31.14099 0.368663,-0.36866 m -3.520704,3.5207 -0.158734,0.15874 m -4.74068,4.74067 1.092632,-1.09263 m -6.971494,6.9715 -0.429385,0.42938 m -6.445378,6.44538 2.686788,-2.68679 m -9.396735,9.39674 -4.749797,4.74979 m 32.482857,-32.08373 0.329225,-0.32923 m -3.241155,3.24116 -0.251794,0.25179 m -4.932733,4.93274 1.305627,-1.30563 m -7.188087,7.18809 -0.394096,0.39409 m -6.760887,6.76089 2.224749,-2.22475 m -10.649355,10.64936 -2.941608,2.9416 m 32.718147,-32.31902 0.319034,-0.31903 m -3.088452,3.08845 -0.160996,0.16099 m -5.19516,5.19516 1.761198,-1.7612 m -7.656711,7.65672 -0.365237,0.36523 m -7.006238,7.00624 1.075366,-1.07536 m -10.477082,10.47708 -2.423251,2.42325 m 33.435562,-33.03644 0.318088,-0.31809 m -2.900006,2.90001 -0.128996,0.12899 m -5.414703,5.41471 1.613401,-1.61341 m -7.538051,7.53806 -0.349368,0.34936 m -7.372956,7.37296 0.230192,-0.23019 m -10.599055,10.59905 -1.585399,1.5854 m 35.857771,-35.45865 0.09274,-0.0927 m -1.688478,1.68848 -0.317142,0.31714 m -8.12566,8.12566 1.37484,-1.37484 m -7.307326,7.30732 -0.354801,0.35481 m -8.177072,8.17707 0.749052,-0.74906 m -11.600562,11.60057 -0.794647,0.79464 m 36.461444,-36.06232 0.159675,-0.15967 m -1.849489,1.84949 -0.32673,0.32673 m -5.620448,5.62044 0.253819,-0.25381 m -1.40482,1.40481 -1.344945,1.34495 m -6.300555,6.30055 0.360233,-0.36023 m -8.05449,8.05449 -1.423596,1.4236 m -11.201389,11.20139 0.625757,-0.62576 m 36.665975,-36.26685 -0.226613,0.22661 m -2.126553,2.12655 0.358762,-0.35876 m -5.571219,5.57122 -0.454594,0.45459 m -2.433728,2.43373 1.370297,-1.3703 m -7.318455,7.31846 -0.349387,0.34939 m -9.290639,9.29064 1.201389,-1.20139 m -12.013306,12.0133 -0.719808,0.71981 m 37.659625,-37.2605 0.293552,-0.29355 m -2.13932,2.13932 -0.390794,0.39079 m -8.052999,8.053 2.899486,-2.89949 m -8.887645,8.88765 -0.338219,0.33822 m -9.635582,9.63558 0.169967,-0.16997 m -11.311786,11.31179 -0.432701,0.4327 m 38.138426,-37.7393 0.36049,-0.36049 m -2.284236,2.28423 -0.422826,0.42283 m -8.003779,8.00378 2.88705,-2.88705 m -8.916688,8.91669 -0.327012,0.32701 m -9.893542,9.89354 0.128952,-0.12895 m -11.52325,11.52325 -0.31,0.31 m 38.61398,-38.21486 0.430673,-0.43067 m -2.417033,2.41703 -0.466976,0.46698 m -7.95456,7.95456 2.846956,-2.84696 m -8.886141,8.88614 -0.347737,0.34774 m -21.985577,21.98558 0.351794,-0.3518 m 39.238597,-38.83947 -0.503911,0.50391 m -2.557046,2.55704 0.553532,-0.55353 m -5.68383,5.68383 -2.775043,2.77504 m -6.417194,6.4172 0.368463,-0.36846 m -22.360415,22.36041 -0.491806,0.49181 m 39.669424,-39.27031 0.577148,-0.57714 m -2.597817,2.59781 -0.640088,0.64009 m -7.856121,7.85612 2.697036,-2.69703 m -8.755313,8.75531 -0.389188,0.38919 m -10.358061,10.35806 0.07945,-0.0794 m -12.071506,12.07151 -0.378922,0.37892 m 39.980809,-39.58169 0.669048,-0.66904 m -2.667094,2.66709 -0.747759,0.74776 m -7.784748,7.78475 2.562588,-2.56259 m -8.652566,8.65256 -0.409913,0.40992 m -10.439628,10.43963 0.06839,-0.0684 m -12.248996,12.24899 -0.416071,0.41607 m 40.440315,-40.04119 0.674803,-0.6748 m -2.662828,2.66282 -0.935022,0.93503 m -5.678034,5.67803 0.400091,-0.40009 m -1.934337,1.93434 -0.484575,0.48457 m -6.539157,6.53916 0.407008,-0.40701 m -10.863378,10.86338 -0.09536,0.0954 m -12.815462,12.81546 0.45966,-0.45966 m 41.120719,-40.72159 -0.715237,0.71523 m -3.083652,3.08366 1.120847,-1.12085 m -6.473368,6.47337 -0.359118,0.35911 m -1.879281,1.87929 0.255601,-0.25561 m -6.429921,6.42992 -0.402142,0.40215 m -10.625573,10.62557 0.08847,-0.0885 m -12.659701,12.6597 -0.503249,0.50324 m 41.313691,-40.91456 0.737296,-0.7373 m -2.607911,2.60791 -1.397362,1.39736 m -5.797724,5.79773 0.374944,-0.37495 m -1.927357,1.92736 -0.134849,0.13485 m -6.613766,6.61377 0.410435,-0.41044 m -11.01146,11.01146 -0.09856,0.0986 M 14.26776,266.22084 14.814598,265.674 m 41.948865,-41.54974 -0.719798,0.71979 m -3.464763,3.46477 1.685034,-1.68504 m -7.222895,7.2229 -0.402654,0.40265 m -1.439742,1.43974 0.09262,-0.0926 m -6.316992,6.317 -0.426697,0.42669 m -10.753234,10.75324 0.100427,-0.10043 m -13.122521,13.12252 -0.601229,0.60123 m 42.248923,-41.8498 0.7023,-0.7023 m -2.402338,2.40234 -0.59576,0.59576 m -1.395002,1.395 0.34873,-0.34873 m -5.964697,5.9647 -0.481258,0.48125 m -1.132208,1.13221 0.109328,-0.10933 m -6.371588,6.37159 -0.44296,0.44296 m -10.798943,10.79895 0.09588,-0.0959 m -13.31742,13.31742 -0.628896,0.6289 m 42.720478,-42.32136 0.615435,-0.61543 m -2.233951,2.23395 -0.691152,0.69115 m -1.676536,1.67653 0.245152,-0.24515 m -6.000112,6.00011 -1.311421,1.31143 m -6.771596,6.77159 0.459222,-0.45922 m -11.18336,11.18336 -0.108779,0.10878 m -14.089294,14.08929 0.647977,-0.64797 m 43.072627,-42.67351 -0.538181,0.53818 m -2.223689,2.22369 0.696306,-0.69631 m -2.58411,2.58412 -0.160655,0.16065 m -6.903179,6.90318 1.081717,-1.08172 m -7.444203,7.4442 -0.475484,0.47549 m -10.853544,10.85354 0.108333,-0.10833 m -13.78277,13.78277 -0.667058,0.66706 m 43.66522,-43.2661 0.470409,-0.47041 m -1.927512,1.92751 -0.740585,0.74059 m -2.415756,2.41575 0.201895,-0.20189 m -6.237792,6.23779 -0.66958,0.66958 m -6.897524,6.89753 0.484924,-0.48493 m -11.254743,11.25474 -0.111172,0.11118 m -14.593698,14.5937 0.686139,-0.68614 m 43.787132,-43.38801 -0.329888,0.32988 m -2.304565,2.30457 0.934613,-0.93461 m -3.326377,3.32637 -0.253777,0.25378 m -6.472422,6.47242 0.306176,-0.30617 m -6.804241,6.80424 -0.477984,0.47798 m -10.887862,10.88786 0.102383,-0.10238 m -14.28002,14.28002 -0.70522,0.70522 m 44.510794,-44.11167 0.314586,-0.31459 m -1.380539,1.38054 -0.742985,0.74299 m -3.374067,3.37406 0.328156,-0.32815 m -13.141595,13.14159 -0.473514,0.47352 m -10.897702,10.8977 0.09656,-0.0966 m -14.54131,14.54131 -0.768246,0.76825 m 43.37276,-42.97364 1.833449,-1.83345 m -5.275323,5.27533 -0.451938,0.45194 m -13.098138,13.09813 0.481419,-0.48142 m -11.299588,11.29959 -0.08937,0.0894 m -15.437587,15.43759 0.725731,-0.72573 m 44.728861,-44.32974 -1.510354,1.51036 m -4.419671,4.41967 0.584428,-0.58443 m -13.004425,13.00442 -0.489325,0.48933 m -10.917382,10.91738 0.106143,-0.10614 m -15.067958,15.06796 -0.724109,0.7241 m 44.361239,-43.96211 1.297746,-1.29775 m -5.347675,5.34768 -0.730187,0.73018 m -12.7077,12.7077 0.49723,-0.49723 m -11.301538,11.30154 -0.122914,0.12292 m -15.934263,15.93426 0.721439,-0.72144 m 45.084478,-44.68536 -0.944447,0.94445 m -5.246397,5.2464 0.945579,-0.94558 m -12.915236,12.91524 -0.513814,0.51381 m -10.90024,10.90024 0.102424,-0.10243 m -15.60308,15.60308 -0.717326,0.71733 m 45.085501,-44.68638 0.803814,-0.80381 m -5.000646,5.00064 -1.241088,1.24109 m -12.259243,12.25925 0.523387,-0.52339 m -11.300068,11.30007 -0.09133,0.0913 m -16.485097,16.4851 0.69136,-0.69136 m 45.187679,-44.78856 -0.617992,0.61799 m -5.602812,5.60282 1.772102,-1.7721 m -13.259462,13.25946 -0.520441,0.52044 m -3.02106,3.02106 0.396858,-0.39686 m -8.152281,8.15228 -0.08651,0.0865 m -16.752212,16.75221 0.665395,-0.6654 m 45.058011,-44.65888 -0.806991,0.80699 m -3.594287,3.59428 1.926953,-1.92695 m -3.208049,3.20805 -0.372142,0.37214 m -11.753924,11.75393 0.515061,-0.51507 m -3.577781,3.57779 -2.40145,2.40145 m -5.396235,5.39623 0.08169,-0.0817 m -16.461585,16.46158 -0.667324,0.66732 m 42.191526,-41.7924 3.545594,-3.54559 m -5.724746,5.72474 -0.304934,0.30494 m -11.500047,11.50004 0.50968,-0.50968 m -4.124871,4.12487 -2.236175,2.23618 m -5.006456,5.00645 0.08644,-0.0864 m -16.742273,16.74227 -0.619286,0.61929 m 43.172521,-42.7734 2.03624,-2.03624 m -5.308707,5.30871 -0.220976,0.22097 m -11.246367,11.24637 0.514592,-0.51459 m -5.286629,5.28663 -1.387535,1.38753 m -4.695666,4.69567 0.103023,-0.10302 m -17.034469,17.03446 -0.588498,0.5885 m 44.163782,-43.76466 0.434539,-0.43454 m -4.734915,4.73492 -0.197002,0.197 m -10.991457,10.99146 0.52934,-0.52934 m -6.652475,6.65247 -0.274469,0.27447 m -4.398155,4.39816 0.06272,-0.0627 m -17.326667,17.32667 -0.557711,0.55771 m 39.653732,-39.25461 0.174514,-0.17451 m -10.366974,10.36697 -0.544087,0.54409 m -6.571837,6.57183 0.288458,-0.28845 m -22.049354,22.04935 -0.530561,0.53056 m 39.644696,-39.24557 0.152026,-0.15203 m -10.079887,10.07989 -0.556308,0.55631 m -6.700442,6.70044 0.312536,-0.31254 m -22.215319,22.21532 -0.478089,0.47809 m 39.618649,-39.21953 0.167099,-0.1671 m -9.808278,9.80828 -0.600801,0.6008 m -6.767496,6.7675 0.374086,-0.37409 m -22.47843,22.47843 -0.425617,0.42562 m 39.607265,-39.20814 0.162666,-0.16267 m -9.531826,9.53183 -0.645295,0.64529 m -6.758044,6.75805 0.371672,-0.37168 m -4.143257,4.14326 -0.07545,0.0755 m -18.90852,18.90852 0.392077,-0.39208 m 39.362035,-38.96291 -0.158233,0.15823 m -9.786928,9.78693 0.707246,-0.70725 m -7.021536,7.02154 -0.412271,0.41227 m -3.823608,3.82361 0.140903,-0.1409 m -18.961938,18.96194 -0.358489,0.35848 m 39.585648,-39.18652 0.192937,-0.19294 m -9.002856,9.00286 -0.817765,0.81776 m -6.627997,6.628 0.452871,-0.45287 m -4.07974,4.07974 -0.1697,0.1697 m -19.452063,19.45206 0.322825,-0.32282 m 39.474605,-39.07549 -0.201026,0.20103 m -9.527006,9.52701 0.997673,-0.99768 m -6.998132,6.99813 -0.459798,0.4598 m -3.803205,3.80321 0.271671,-0.27167 m -19.709112,19.70911 -0.28716,0.28716 m 39.607159,-39.20804 0.209115,-0.20911 m -8.470656,8.47065 -1.390012,1.39002 m -2.249547,2.24954 0.682201,-0.6822 m -4.033459,4.03346 -0.455062,0.45506 m -3.821265,3.82127 0.45264,-0.45264 m -7.863068,7.86307 -2.152013,2.15201 m -10.434699,10.4347 0.251496,-0.2515 m 39.613683,-39.21456 -0.251053,0.25105 m -8.479514,8.47952 0.542112,-0.54211 m -1.075499,1.07549 -2.481555,2.48156 m -3.929331,3.92933 0.44945,-0.44945 m -3.82956,3.82956 -0.459216,0.45922 m -9.349362,9.34936 2.011998,-2.012 m -12.665782,12.66578 -0.266532,0.26653 m 39.650639,-39.25151 0.26662,-0.26662 m -7.905016,7.90501 -0.559843,0.55985 m -2.393604,2.3936 1.608565,-1.60856 m -5.739928,5.73992 -0.446495,0.4465 m -3.857387,3.85739 0.484619,-0.48462 m -7.194576,7.19457 -1.808877,1.80888 m -12.023382,12.02338 0.22237,-0.22237 m 39.746969,-39.34784 -0.282188,0.28218 m -7.916964,7.91697 0.586092,-0.58609 m -1.622781,1.62278 -0.923076,0.92307 m -5.038945,5.03895 0.387099,-0.3871 m -3.825223,3.82522 -0.489182,0.48918 m -7.462676,7.46268 1.442813,-1.44281 m -14.529353,14.52935 -0.213621,0.21362 m 39.717593,-39.31847 0.320452,-0.32045 m -7.283677,7.28368 -0.666392,0.66639 m -1.823078,1.82308 0.534737,-0.53474 m -5.409914,5.40991 -0.32769,0.32769 m -3.952112,3.95211 0.435773,-0.43577 m -6.236651,6.23665 -1.477619,1.47762 m -13.756492,13.75649 0.211277,-0.21127 m 39.915494,-39.51638 -0.338767,0.33877 m -7.440182,7.44018 0.81874,-0.81874 m -2.294386,2.29439 -0.423572,0.42357 m -5.159079,5.15908 0.31258,-0.31258 m -3.878867,3.87887 -0.372074,0.37207 m -6.361577,6.36158 1.000603,-1.0006 m -15.706327,15.70632 -0.210646,0.21065 m 39.860128,-39.46101 0.357082,-0.35708 m -6.478581,6.47858 -1.114697,1.1147 m -2.017252,2.01725 0.339751,-0.33975 m -5.150891,5.15089 -0.26759,0.26759 m -3.982938,3.98294 0.339748,-0.33975 m -5.37302,5.37302 -0.731267,0.73127 m -15.724627,15.72463 0.242034,-0.24204 m 40.082986,-39.68386 -0.380295,0.38029 m -7.100078,7.10008 1.489561,-1.48956 m -3.296152,3.29615 -0.302771,0.30277 m -5.013085,5.01309 0.281952,-0.28195 m -3.968813,3.96881 -0.273588,0.27359 m -5.648118,5.64811 1.052505,-1.0525 m -16.838894,16.83889 -0.262823,0.26283 m 40.055163,-39.65604 0.397959,-0.39796 m -5.831618,5.83162 -1.554696,1.55469 m -2.211493,2.21149 0.265791,-0.26579 m -4.958885,4.95889 -0.258588,0.25859 m -3.989384,3.98938 0.246708,-0.24671 m -4.556677,4.55668 -0.44019,0.44019 m -17.139051,17.13905 0.322994,-0.32299 m 40.296436,-39.89732 -0.414448,0.41445 m -6.897617,6.89762 1.658344,-1.65835 m -3.72217,3.72217 -0.248342,0.24835 m -4.913842,4.91384 0.278317,-0.27832 m -4.059126,4.05913 -0.197843,0.19784 m -4.429739,4.42974 0.660149,-0.66015 m -17.924909,17.92491 -0.439344,0.43934 m 40.411637,-40.01251 0.43028,-0.43028 m -5.57547,5.57547 -1.681598,1.6816 m -2.400136,2.40013 0.237437,-0.23744 m -4.831331,4.83134 -0.299794,0.29979 m -4.004932,4.00493 0.198982,-0.19898 m -3.769378,3.76938 -0.329418,0.32942 m -18.320133,18.32013 0.427779,-0.42778 m 40.549356,-40.15023 -0.424894,0.42489 m -6.787196,6.7872 1.660988,-1.66099 m -3.937848,3.93785 -0.211242,0.21124 m -4.892962,4.89296 0.321882,-0.32188 m -4.162428,4.16243 -0.17596,0.17596 m -3.531156,3.53115 0.311728,-0.31173 m -18.685387,18.68539 -0.557131,0.55713 m 40.853461,-40.45434 0.434996,-0.43499 m -3.121796,3.12179 -0.35259,0.35259 m -2.650966,2.65097 0.563621,-0.56362 m -1.247607,1.24761 -0.392109,0.39211 m -2.575588,2.57558 0.204132,-0.20413 m -4.734032,4.73403 -0.389276,0.38928 m -4.053951,4.05395 0.224117,-0.22412 m -3.018657,3.01866 -0.393041,0.39304 m -19.313405,19.31341 0.554703,-0.55471 m 40.913296,-40.51417 -0.433436,0.43344 m -3.154488,3.15448 0.690667,-0.69066 m -2.671526,2.67152 -0.48771,0.48771 m -1.146838,1.14684 0.308057,-0.30806 m -2.761582,2.76159 -0.20789,0.20789 m -4.932488,4.93248 0.429092,-0.42909 m -4.294058,4.29406 -0.235693,0.23569 m -2.839236,2.83924 0.464257,-0.46426 m -19.554386,19.55439 -0.74593,0.74593 m 41.381188,-40.98207 0.408851,-0.40885 m -2.758867,2.75887 -0.942594,0.94259 m -2.304793,2.3048 0.438991,-0.439 m -1.351222,1.35123 -0.28673,0.28673 m -2.747241,2.74724 0.211648,-0.21165 m -4.715044,4.71504 -0.503133,0.50314 m -4.197545,4.19754 0.36145,-0.36145 m -2.205962,2.20596 -0.535472,0.53548 m -20.351668,20.35166 0.631603,-0.6316 m 41.487805,-41.08868 -0.39864,0.39864 m -3.430733,3.43073 1.194521,-1.19452 m -2.945267,2.94527 -0.390272,0.39027 m -1.266731,1.26673 0.281051,-0.28105 m -2.900701,2.9007 -0.209699,0.2097 m -5.057252,5.05725 0.503196,-0.5032 m -4.324851,4.32486 -0.38142,0.38142 m -2.023476,2.02347 0.610635,-0.61063 m -20.828237,20.82823 -0.723586,0.72359 m 42.140366,-41.74124 0.391563,-0.39157 m -3.465607,3.46561 -0.500919,0.50092 m -1.979689,1.97969 0.343999,-0.344 m -1.400682,1.40068 -0.288687,0.28869 m -2.914069,2.91407 0.219949,-0.21995 m -4.866115,4.86611 -0.499328,0.49933 m -5.865307,5.86531 2.110657,-2.11066 m -22.947372,22.94737 -0.822434,0.82244 m 42.734107,-42.33499 0.381964,-0.38196 m -3.721588,3.72159 -0.389392,0.38939 m -1.815366,1.81536 0.306589,-0.30658 m -1.434692,1.43469 -0.291598,0.2916 m -2.99879,2.99879 0.2302,-0.2302 m -4.963654,4.96365 -0.508613,0.50861 m -5.497032,5.49703 1.837264,-1.83726 m -23.242039,23.24204 -0.630569,0.63057 m 42.987382,-42.58826 0.372365,-0.37237 m -3.914902,3.91491 -0.36333,0.36333 m -1.628244,1.62824 0.311607,-0.31161 m -1.513195,1.5132 -0.307588,0.30759 m -3.072026,3.07202 0.244109,-0.24411 m -5.061194,5.0612 -0.524424,0.52442 m -5.12223,5.12223 1.578457,-1.57846 m -23.312371,23.31238 -1.058911,1.05891 m 43.555533,-43.15641 0.431368,-0.43137 m -4.105636,4.10563 -0.34204,0.34204 m -1.396213,1.39622 0.284222,-0.28423 m -1.644851,1.64486 -0.299253,0.29925 m -3.151361,3.15136 0.280439,-0.28044 m -5.205847,5.20585 -0.527712,0.52771 m -4.712838,4.71284 1.33408,-1.33408 m -23.817937,23.81794 -0.651434,0.65143 m 43.739208,-43.34009 0.460605,-0.4606 m -4.297143,4.29714 -0.398834,0.39884 m -1.092647,1.09264 0.417329,-0.41733 m -1.927971,1.92797 -0.293398,0.2934 m -3.230695,3.2307 0.29513,-0.29513 m -5.330038,5.33004 -0.540732,0.54073 m -4.292537,4.29253 1.111542,-1.11154 m -24.133063,24.13306 -0.60387,0.60387 m 42.97579,-42.57666 1.584569,-1.58457 m -4.43118,4.43118 -1.237933,1.23793 m -2.035306,2.03531 0.280393,-0.2804 m -3.254833,3.25484 -0.306525,0.30652 m -5.710536,5.71054 0.559926,-0.55993 m -3.522226,3.52223 -0.903761,0.90376 m -24.117696,24.1177 0.58186,-0.58186 m 44.342509,-43.94339 -2.079489,2.07949 m -3.389253,3.38925 0.913393,-0.91339 m -2.992419,2.99242 -0.28729,0.28729 m -3.343838,3.34383 0.348146,-0.34814 m -5.584231,5.58423 -0.614288,0.61429 m -3.436722,3.43672 0.7561,-0.7561 m -24.699557,24.69956 -0.579681,0.57968 m 42.940908,-42.54179 2.271188,-2.27119 m -4.608349,4.60835 -0.582977,0.58298 m -2.748405,2.74841 0.261921,-0.26192 m -3.283105,3.2831 -0.389767,0.38977 m -5.990211,5.99021 0.696492,-0.69649 m -3.069767,3.06976 -0.586168,0.58617 m -25.016289,25.01629 0.607024,-0.60702 m 44.932568,-44.53345 -2.630012,2.63001 m -2.425132,2.42513 0.40102,-0.40102 m -3.155495,3.1555 -0.302466,0.30246 m -3.410384,3.41039 0.416694,-0.41669 m -5.821253,5.82125 -0.868793,0.86879 m -2.365456,2.36546 0.452131,-0.45213 m -25.300609,25.3006 -0.533535,0.53354 m 42.875263,-42.47614 2.890994,-2.89099 m -4.653411,4.65341 -0.301633,0.30163 m -3.328133,3.32813 0.353331,-0.35333 m -3.330222,3.33022 -0.438732,0.43874 m -6.280267,6.28026 0.796429,-0.79643 m -2.390057,2.39006 -0.449522,0.44952 m -25.765996,25.766 0.478305,-0.47831 m 45.513699,-45.11457 -3.13208,3.13208 m -1.718745,1.71874 0.217303,-0.2173 m -3.395519,3.39552 -0.416216,0.41621 m -3.427962,3.42797 0.478034,-0.47804 m -6.023886,6.02389 -2.44491,2.44491 m -26.155574,26.15557 0.509495,-0.50949 m 45.705296,-45.30618 -3.362135,3.36214 m -1.444619,1.44462 0.192736,-0.19274 m -3.505662,3.50566 -0.469898,0.4699 m -3.449505,3.44951 0.517335,-0.51734 m -6.08652,6.08652 -2.108178,2.10818 m -26.484093,26.48409 0.481558,-0.48156 m 45.914217,-45.51509 -3.551374,3.55137 m -1.188079,1.18808 0.21982,-0.21982 m -3.620847,3.62085 -0.51395,0.51395 m -3.566524,3.56652 0.564857,-0.56485 m -6.1479,6.1479 -1.765447,1.76544 m -26.812079,26.81208 0.453622,-0.45362 m 46.087049,-45.68792 -4.629331,4.62933 m -4.013332,4.01333 0.507546,-0.50755 m -3.621866,3.62187 -0.592122,0.59212 m -7.037247,7.03725 1.422715,-1.42272 m -28.137097,28.1371 -0.424919,0.42492 m 42.250007,-41.85089 4.432662,-4.43266 m -8.121582,8.12158 -0.467831,0.46783 m -3.915739,3.91574 0.649416,-0.64941 m -6.201221,6.20122 -1.144172,1.14417 m -27.435736,27.43574 0.457398,-0.4574 m 46.300044,-45.90092 -4.192194,4.19219 m -4.268009,4.26801 0.432237,-0.43224 m -3.890084,3.89009 -0.70671,0.70671 m -6.403576,6.40357 0.899393,-0.89939 m -28.190821,28.19082 -0.391874,0.39187 m 42.987402,-42.58827 3.827272,-3.82728 m -7.916808,7.91681 -0.377761,0.37776 m -4.432258,4.43226 0.764004,-0.764 m -6.175153,6.17515 -0.69136,0.69136 m -27.937949,27.93795 0.381898,-0.3819 m 46.422484,-46.02336 -3.453755,3.45375 m -4.609242,4.60925 0.323285,-0.32329 m -4.147061,4.14706 -0.876183,0.87618 m -5.80144,5.80145 0.504879,-0.50488 m -28.325553,28.32555 -0.345272,0.34527 m 43.914468,-43.51534 2.839937,-2.83994 m -7.519927,7.51993 -0.297536,0.29753 m -4.968587,4.96859 0.982142,-0.98214 m -6.159841,6.15984 -0.382577,0.38258 m -28.334039,28.33403 0.308645,-0.30864 m 46.231758,-45.83264 -2.004626,2.00463 m -5.40347,5.40347 0.280474,-0.28048 m -4.429395,4.4294 -1.088102,1.0881 m -5.322428,5.32243 0.348195,-0.34819 m -28.542451,28.54245 -0.305509,0.30551 m 44.831872,-44.43276 1.303445,-1.30344 m -6.543284,6.54328 -0.263411,0.26342 m -5.508852,5.50885 1.26186,-1.26186 m -6.037154,6.03715 -0.305894,0.3059 m -28.638652,28.63865 0.28783,-0.28783 m 39.456425,-39.05731 -0.246158,0.24616 m -5.783058,5.78306 1.466908,-1.46691 m -5.985107,5.98511 -0.388836,0.38884 m -28.708074,28.70807 0.27015,-0.27015 m 39.624961,-39.22584 -0.242685,0.24269 m -6.05258,6.05258 1.7145,-1.7145 m -5.935533,5.93553 -0.509797,0.5098 m -28.774723,28.77472 0.258107,-0.25811 m 39.793497,-39.39437 -0.26175,0.26175 m -6.299565,6.29956 2.043538,-2.04354 m -5.946928,5.94693 -0.645637,0.64564 m -28.817048,28.81705 0.216143,-0.21614 m 39.962033,-39.56292 -0.280815,0.28082 m -6.546549,6.54655 2.375374,-2.37538 m -5.904147,5.90415 -0.917647,0.91765 m -28.780177,28.78018 0.196182,-0.19619 m 40.087338,-39.68821 -0.278652,0.27865 m -6.793534,6.79354 2.707358,-2.70736 m -5.86444,5.86444 -1.186732,1.18673 m -28.743306,28.7433 0.196718,-0.19671 m 40.182104,-39.78299 -0.266447,0.26645 m -4.50908,4.50908 0.506494,-0.50649 m -2.06474,2.06474 -0.973193,0.97319 m -4.238685,4.23869 1.51598,-1.51598 m -22.6814,22.6814 -0.17172,0.17172 m -7.360376,7.36037 0.185814,-0.18581 m 40.276869,-39.87775 -0.27115,0.27115 m -4.337452,4.33745 0.435365,-0.43536 m -2.54826,2.54826 -0.820248,0.82025 m -4.188792,4.18879 1.904672,-1.90467 m -22.62849,22.62849 -0.335193,0.33519 m -7.525651,7.52565 0.16308,-0.16308 m 40.364787,-39.96566 -0.288507,0.2885 m -4.194003,4.19401 0.376215,-0.37622 m -2.84847,2.84847 -0.814911,0.81491 m -2.50443,2.50443 0.663079,-0.66308 m -1.629399,1.6294 -0.668148,0.66815 m -20.782459,20.78246 0.437901,-0.4379 m -7.986904,7.9869 -0.140347,0.14035 m 40.287187,-39.88807 0.283213,-0.28321 m -4.064994,4.06499 -0.316983,0.31699 m -3.59298,3.59298 0.820808,-0.82081 m -2.205393,2.20539 -0.643628,0.64363 m -2.053039,2.05304 0.594901,-0.5949 m -20.483947,20.48395 -0.549742,0.54974 m -7.924367,7.92436 0.114062,-0.11406 m 40.495318,-40.09619 -0.277919,0.27792 m -4.124238,4.12423 0.331869,-0.33186 m -3.283243,3.28324 -0.826705,0.8267 m -1.551999,1.552 0.624178,-0.62417 m -2.574133,2.57413 -0.557297,0.55729 m -20.07639,20.07639 0.512163,-0.51216 m -8.516262,8.51626 -0.119163,0.11917 m 40.356531,-39.95741 0.272625,-0.27263 m -4.12316,4.12316 -0.317514,0.31752 m -5.020626,5.02062 1.995304,-1.9953 m -4.437076,4.43708 -0.519694,0.51969 m -19.658626,19.65863 0.507202,-0.50721 m -8.767788,8.76779 -0.116936,0.11694 m 40.356682,-39.95756 0.27073,-0.27073 m -4.154512,4.15451 -0.418439,0.41844 m -4.69469,4.69469 1.778298,-1.7783 m -4.613092,4.61309 -0.48209,0.48209 m -19.250141,19.25014 0.494243,-0.49424 m -9.002039,9.00204 -0.11471,0.11471 m 40.343701,-39.94458 0.274696,-0.27469 m -4.245583,4.24558 -0.466184,0.46618 m -4.198302,4.1983 1.475572,-1.47557 m -4.860028,4.86003 -0.441409,0.44141 m -18.802117,18.80212 0.511197,-0.5112 m -9.308818,9.30882 -0.09474,0.0947 m 40.31297,-39.91385 0.278662,-0.27866 m -4.325756,4.32576 -0.594102,0.5941 m -3.732738,3.73274 1.517639,-1.51764 m -5.351658,5.35166 -0.438462,0.43846 m -18.315131,18.31513 0.582431,-0.58243 m -9.671105,9.67111 -0.06981,0.0698 m 40.277294,-39.87817 0.275002,-0.275 m -4.398303,4.3983 -4.028702,4.0287 m -4.679588,4.67959 0.435514,-0.43551 m -17.68726,17.68725 -0.687667,0.68767 m -9.313356,9.31336 0.07358,-0.0736 m 40.417923,-40.0188 -0.254168,0.25416 m -7.921208,7.92121 3.727399,-3.7274 m -8.41125,8.41125 -0.444792,0.4448 m -17.215573,17.21557 0.645586,-0.64559 m -10.341215,10.34122 -0.07435,0.0743 m 40.149183,-39.75006 0.272533,-0.27254 m -4.4973,4.4973 -3.509544,3.50955 m -5.448143,5.44814 0.411471,-0.41147 m -16.411765,16.41176 -0.807902,0.80791 m -9.942539,9.94254 0.06464,-0.0646 m 40.273221,-39.8741 -0.290898,0.2909 m -5.810427,5.81043 1.554704,-1.55471 m -2.694805,2.69481 -0.590229,0.59023 m -5.84832,5.84832 0.452171,-0.45217 m -15.715072,15.71507 -0.703206,0.70321 m -10.475789,10.47579 0.07648,-0.0765 m 40.152726,-39.7536 -0.284451,0.28445 m -5.558238,5.55823 1.307643,-1.30764 m -2.77739,2.77739 -0.409502,0.4095 m -6.222683,6.22269 0.613293,-0.6133 m -14.679711,14.67971 -1.040296,1.0403 m -10.961873,10.96187 0.08831,-0.0883 m 40.026622,-39.6275 -0.268085,0.26808 m -5.324288,5.32429 1.066698,-1.0667 m -2.861357,2.86136 -0.244264,0.24426 m -6.477684,6.47769 0.491181,-0.49118 m -13.286265,13.28626 -1.766715,1.76672 m -11.204281,11.20428 0.09136,-0.0914 m 39.885419,-39.48629 -0.311239,0.31124 m -5.079845,5.07984 0.89457,-0.89457 m -2.900768,2.90077 -0.228181,0.22818 m -6.762569,6.76257 0.568598,-0.5686 m -12.506702,12.5067 -0.955507,0.95551 m -12.455279,12.45528 0.108026,-0.10803 m 39.742557,-39.34343 -0.366333,0.36633 m -4.841723,4.84173 0.736329,-0.73633 m -2.953089,2.95309 -0.200803,0.2008 m -7.037811,7.03781 0.654754,-0.65475 m -10.214943,10.21494 -2.140672,2.14067 m -13.246432,13.24643 0.124691,-0.12469 m 39.528036,-39.12891 -0.34977,0.34977 m -4.603601,4.6036 0.585669,-0.58567 m -3.012992,3.01299 -0.252452,0.25245 m -7.373268,7.37327 0.734445,-0.73444 m -9.16764,9.16764 -1.511149,1.51115 m -14.446218,14.44622 0.141963,-0.14197 m 39.323734,-38.92461 -0.38041,0.38041 m -4.37545,4.37545 0.48724,-0.48724 m -3.103209,3.10321 -0.339827,0.33983 m -7.63768,7.63768 0.843101,-0.8431 m -7.104728,7.10472 -2.02557,2.02557 m -15.564158,15.56416 0.161756,-0.16176 m 39.107655,-38.70853 -0.470639,0.47064 m -4.086115,4.08612 0.387217,-0.38722 m -3.191189,3.19119 -0.359229,0.35923 m -8.445664,8.44566 1.30569,-1.30569 m -4.611769,4.61177 -3.723592,3.72359 m -15.809115,15.80912 0.191987,-0.19199 m 38.83652,-38.4374 -0.599518,0.59952 m -3.713512,3.71351 0.320942,-0.32094 m -3.346316,3.34632 -0.42003,0.42003 m -13.480719,13.48072 6.067005,-6.06701 m -23.374797,23.3748 -0.216556,0.21655 m 38.192694,-37.79357 0.602334,-0.60233 m -3.820148,3.82015 -0.259439,0.25943 m -3.711356,3.71136 0.456159,-0.45616 m -8.31835,8.31835 -4.468929,4.46893 m -18.372783,18.37278 0.226777,-0.22677 m 38.299598,-37.90048 -0.795798,0.7958 m -3.054216,3.05422 0.244618,-0.24462 m -3.72577,3.72577 -0.545141,0.54514 m -11.44921,11.44921 3.224439,-3.22444 m -21.884098,21.8841 -0.249219,0.24922 m 37.27446,-36.87534 0.987045,-0.98705 m -3.378035,3.37804 -0.237988,0.23799 m -4.341229,4.34123 0.582823,-0.58283 m -9.052895,9.0529 -2.0663,2.0663 m -19.475902,19.4759 0.277705,-0.27771 m 37.719232,-37.3201 -1.737409,1.7374 m -1.644923,1.64493 0.306501,-0.3065 m -4.334504,4.3345 -0.623511,0.62351 m -9.712049,9.71205 1.515151,-1.51515 m -21.154234,21.15423 -0.277564,0.27757 m 34.541311,-34.14219 3.148642,-3.14864 m -7.393679,7.39368 -0.75926,0.75926 m -9.005179,9.00518 1.326748,-1.32675 m -21.248177,21.24817 -0.27813,0.27813 m 34.493976,-34.09485 2.922667,-2.92267 m -7.587141,7.58714 -0.868282,0.86829 m -8.14732,8.14732 1.139192,-1.13919 m -21.319428,21.31942 -0.301388,0.30139 m 34.463471,-34.06435 2.674432,-2.67443 m -7.694233,7.69423 -0.761573,0.76158 m -7.586132,7.58613 0.951636,-0.95164 m -21.377886,21.37789 -0.337438,0.33744 m 34.432965,-34.03385 2.426198,-2.42619 m -7.859145,7.85914 -0.785069,0.78507 m -6.967574,6.96757 0.894735,-0.89473 m -21.436346,21.43634 -0.346992,0.347 m 35.956379,-35.55726 0.625572,-0.62557 m -8.043695,8.04369 -0.801119,0.80112 m -6.3518,6.3518 0.824785,-0.82478 m -21.494804,21.4948 -0.340253,0.34025 m 35.83042,-35.43129 0.454777,-0.45478 m -8.064437,8.06444 -1.048858,1.04886 m -5.664896,5.66489 0.75121,-0.75121 m -21.549636,21.54964 -0.333514,0.33351 m 35.633903,-35.23478 0.354539,-0.35454 m -8.513679,8.51368 -0.925264,0.92526 m -5.07148,5.07148 0.848895,-0.84889 m -21.6367,21.6367 -0.315149,0.31515 m 35.424348,-35.02523 0.309656,-0.30965 m -8.653075,8.65307 -1.103251,1.10325 m -4.385956,4.38596 0.80389,-0.80389 m -21.665621,21.66562 -0.354925,0.35492 m 35.183692,-34.78456 0.288387,-0.28839 m -9.196609,9.19661 -0.958507,0.9585 m -3.693727,3.69373 0.874863,-0.87486 m -21.728332,21.72833 -0.361138,0.36114 m 34.909473,-34.51035 0.277028,-0.27703 m -9.31712,9.31712 -1.79735,1.79735 m -2.450844,2.45084 0.991284,-0.99128 m -21.836492,21.83649 -0.364676,0.36468 m 34.607965,-34.20884 0.291948,-0.29195 m -10.104066,10.10406 -3.246283,3.24629 m -21.138261,21.13826 0.368215,-0.36822 m 34.257323,-33.8582 -0.34842,0.34842 m -12.803907,12.80391 2.618102,-2.6181 m -23.227607,23.2276 -0.452403,0.45241 m 33.957743,-33.55862 0.314297,-0.3143 m -10.893646,10.89365 -1.981535,1.98153 m -20.985556,20.98556 0.390334,-0.39034 m 33.556568,-33.15744 -0.37998,0.37998 m -12.246417,12.24641 1.442502,-1.4425 m -21.903427,21.90343 -0.404564,0.40456 m 33.097294,-32.69817 0.425681,-0.42568 m -11.396922,11.39692 -0.962864,0.96287 m -20.716314,20.71631 0.426934,-0.42693 m 32.691266,-32.29215 -0.440856,0.44086 m -11.684626,11.68462 0.707937,-0.70793 m -20.804476,20.80447 -0.449304,0.44931 m 32.089479,-31.69036 0.559506,-0.5595 m -11.227543,11.22754 -0.599195,0.59919 m -20.375371,20.37537 0.526087,-0.52608 m 31.666579,-31.26746 -0.534009,0.53401 m -11.006883,11.00688 0.685617,-0.68561 m -20.364892,20.36489 -0.640253,0.64025 m 31.115955,-30.71683 0.646837,-0.64684 m -10.300385,10.30039 -0.866475,0.86647 m -19.960287,19.96029 0.550032,-0.55003 m 30.620418,-30.2213 -0.814412,0.81441 m -10.161676,10.16168 1.345798,-1.3458 m -20.444703,20.4447 -0.607167,0.60717 m 29.618966,-29.21984 0.740265,-0.74027 m -8.325279,8.32528 -2.099078,2.09908 m -19.446584,19.44658 0.746284,-0.74628 m 28.844873,-28.44575 -0.929904,0.9299 m -8.985867,8.98587 4.36365,-4.36365 m -22.773483,22.77348 -0.725584,0.72559 m 19.364219,-18.9651 9.29489,-9.29489 m -27.250732,27.25073 -0.860429,0.86043 m 21.827613,-21.42849 5.552216,-5.55222 m -7.372486,7.37249 -0.969219,0.96922 m -18.490176,18.49018 1.085762,-1.08577 m 25.269634,-24.87051 -2.970103,2.97011 m -4.715304,4.7153 0.598424,-0.59842 m -5.665248,5.66524 -5.155955,5.15596 m -8.026697,8.0267 1.542447,-1.54245 M 50.075281,277.11059 49.605873,277.58 M 32.064237,295.12164 46.803976,280.3819 m 3.309409,-2.91029 -0.36805,0.36805 m -17.13066,17.13066 15.220297,-15.2203 m 2.316517,-1.91739 -4.650357,4.65036 m -11.835506,11.8355 7.826774,-7.82677 m 8.701568,-8.30245 -3.693743,3.69375 m -12.096058,12.09605 7.078703,-7.0787 m 8.753821,-8.3547 -1.532731,1.53273 m -1.619636,1.61964 0.5742,-0.5742 m -5.829468,5.82947 -0.730921,0.73092 m -6.126919,6.12692 0.857473,-0.85748 m 14.450725,-14.0516 -0.897968,0.89797 m -1.97029,1.97029 0.423662,-0.42366 m -5.370906,5.3709 -0.855341,0.85535 m -6.13495,6.13495 0.671259,-0.67126 m 14.057233,-13.65811 -0.222668,0.22266 m -2.255324,2.25533 0.348198,-0.3482 m -5.226101,5.2261 -0.710955,0.71096 m -6.203633,6.20363 0.616841,-0.61684 m 11.856491,-11.45737 -0.367876,0.36788 m -5.37513,5.37513 0.78794,-0.78794 m -6.497834,6.49783 -0.572254,0.57225 m 11.97083,-11.5717 0.382844,-0.38285 m -4.679908,4.67991 -0.742509,0.74251 m -6.483079,6.48308 0.527666,-0.52767 m 11.764805,-11.36568 -0.456193,0.45619 m -4.736876,4.73688 0.728103,-0.72811 m -6.896248,6.89625 -0.483079,0.48308 m 11.701726,-11.3026 0.523368,-0.52337 m -4.23345,4.23345 -0.724097,0.7241 m -6.819369,6.81937 0.438491,-0.43849 m 11.774343,-11.37523 -0.569751,0.56976 m -4.439582,4.43958 0.952281,-0.95228 m -7.3137,7.3137 -0.425644,0.42564 m 11.59834,-11.19922 0.626333,-0.62633 m -3.873012,3.87301 -0.721935,0.72194 m -7.205213,7.20521 0.406917,-0.40692 m 11.850991,-11.45186 -0.648415,0.64841 m -3.791146,3.79115 0.711816,-0.71182 m -7.701833,7.70183 -0.403816,0.40382 m 11.6225,-11.22338 0.668643,-0.66864 m -3.607565,3.60756 -0.676609,0.67661 m -7.582455,7.58246 0.400716,-0.40072 m 11.923662,-11.52454 -0.747887,0.74789 m -3.504242,3.50424 0.572907,-0.57291 m -7.823027,7.82303 -0.397616,0.39762 m 11.750309,-11.35119 0.607305,-0.6073 m -3.705956,3.70595 -0.56526,0.56526 m -7.661884,7.66189 0.394515,-0.39452 m 11.996334,-11.59721 -0.565258,0.56526 m -3.699981,3.69998 0.435098,-0.4351 m -7.74478,7.74478 -0.391723,0.39172 m 11.913066,-11.51394 0.511326,-0.51133 m -3.951428,3.95143 -0.402118,0.40212 m -7.6466,7.6466 0.425962,-0.42596 m 12.031933,-11.63281 -0.458848,0.45884 m -3.998489,3.99849 0.322685,-0.32268 m -7.499481,7.49948 -0.399516,0.39952 m 12.085028,-11.68591 0.40637,-0.40637 m -4.310444,4.31045 -0.311874,0.31187 m -7.444834,7.44483 0.426749,-0.42675 m 12.098152,-11.69903 -0.353892,0.3539 m -4.439046,4.43904 0.261233,-0.26123 m -7.114969,7.11497 -0.453982,0.45398 m 12.130099,-11.73098 0.436245,-0.43624 m -4.760904,4.7609 -0.251882,0.25189 m -7.129312,7.12931 0.481215,-0.48122 m 12.090159,-11.69103 -0.311193,0.31119 m -4.893716,4.89371 0.248073,-0.24807 m -6.681844,6.68185 -0.508448,0.50844 m 12.297573,-11.89845 0.27883,-0.27883 m -5.170886,5.17089 -0.243328,0.24333 m -6.798609,6.79861 0.633831,-0.63383 m 12.008268,-11.60915 -0.246467,0.24647 m -5.393079,5.39308 0.254609,-0.25461 m -6.182996,6.18299 -0.558871,0.55887 m 12.281197,-11.88207 0.274882,-0.27488 m -5.598987,5.59898 -0.26589,0.26589 m -6.248278,6.24828 0.716374,-0.71637 m 11.826057,-11.42694 -0.309096,0.3091 m -5.808339,5.80834 0.306852,-0.30685 m -5.572732,5.57273 -0.716193,0.71619 m 12.185473,-11.78635 0.344288,-0.34429 m -6.022595,6.0226 -0.350699,0.3507 m -5.713543,5.71354 0.830637,-0.83064 m 11.62109,-11.22196 -0.325957,0.32595 m -6.237832,6.23783 0.394546,-0.39454 m -3.853761,3.85376 -1.985799,1.9858 m 11.996018,-11.5969 0.3732,-0.3732 m -6.311416,6.31142 -0.468319,0.46832 m -5.152167,5.15216 1.754894,-1.75489 m 10.480387,-10.08126 -0.349304,0.3493 m -6.59879,6.59879 0.551542,-0.55154 m -3.90863,3.90863 -1.440406,1.4404 m 11.72356,-11.32443 0.304402,-0.3044 m -6.464398,6.46439 -0.62736,0.62736 m -4.464738,4.46474 1.167062,-1.16706 m 10.640652,-10.24153 -0.281365,0.28136 m -6.974155,6.97416 0.79387,-0.79387 m -3.945643,3.94564 -0.928956,0.92896 m 11.306288,-10.90717 0.265721,-0.26572 m -6.440155,6.44016 -0.976455,0.97645 m -3.683933,3.68394 0.73229,-0.73229 m 10.59446,-10.19534 -0.240523,0.24052 m -7.335314,7.33531 1.193469,-1.19346 m -3.860528,3.86052 -0.672544,0.67255 m 10.866472,-10.46735 0.267444,-0.26745 m -6.312535,6.31254 -1.453692,1.45369 m -2.756382,2.75638 0.439753,-0.43975 m 10.289941,-9.89082 -0.292616,0.29262 m -7.862106,7.8621 2.091222,-2.09122 m -3.740188,3.74019 -0.404713,0.40471 m 10.100249,-9.70112 0.300427,-0.30043 m -5.917253,5.91725 -3.962131,3.96213 m 9.715804,-9.31668 0.340219,-0.34022 m -5.617706,5.61771 -0.578529,0.57853 m -3.214582,3.21458 1.786839,-1.78684 m 7.770444,-7.37132 -0.357428,0.35743 m -5.308212,5.30821 0.530606,-0.53061 m -2.550442,2.55044 -1.239304,1.23931 m 8.705696,-8.30657 0.351437,-0.35144 m -2.050397,2.0504 -0.103679,0.10367 m -3.124635,3.12464 0.775386,-0.77539 m -3.339922,3.33993 -0.115726,0.11572 m 7.687063,-7.28794 0.404263,-0.40426 m -1.989292,1.98929 -0.570952,0.57095 m -2.321119,2.32112 0.992146,-0.99215 m 4.02157,-3.62244 -0.457089,0.45709 m -4.026926,4.02692 2.365919,-2.36592 m 2.175341,-1.77621 -0.439199,0.43919 m -3.57236,3.57236 1.763432,-1.76343 m 2.317154,-1.91803 -0.489966,0.48997 m -3.149235,3.14923 1.205525,-1.20552 m 2.502704,-2.10359 -0.514545,0.51455 m -2.731273,2.73127 0.798981,-0.79898 m 2.420526,-2.0214 -0.72946,0.72946 m -2.068938,2.06894 0.581329,-0.58133 m 2.20411,-1.80499 -2.364729,2.36473 m 0.37759,0.0215 2.050904,-2.0509 m -0.348798,0.74792 -1.225652,1.22565 m 0.473983,-0.0749 0.220304,-0.2203"
         inkscape:connector-curvature="0" />
    </g>
  </g>
</svg>
