<?xml version="1.0" encoding="UTF-8" standalone="no"?>
<!-- Created with Inkscape (http://www.inkscape.org/) -->

<svg
   xmlns:dc="http://purl.org/dc/elements/1.1/"
   xmlns:cc="http://creativecommons.org/ns#"
   xmlns:rdf="http://www.w3.org/1999/02/22-rdf-syntax-ns#"
   xmlns:svg="http://www.w3.org/2000/svg"
   xmlns="http://www.w3.org/2000/svg"
   xmlns:sodipodi="http://sodipodi.sourceforge.net/DTD/sodipodi-0.dtd"
   xmlns:inkscape="http://www.inkscape.org/namespaces/inkscape"
   width="50mm"
   height="50mm"
   viewBox="0 0 50 50"
   version="1.1"
   id="svg1586"
   inkscape:version="0.92.2 2405546, 2018-03-11"
   sodipodi:docname="50.svg">
  <sodipodi:namedview
     id="base"
     pagecolor="#ffffff"
     bordercolor="#666666"
     borderopacity="1.0"
     inkscape:pageopacity="0.0"
     inkscape:pageshadow="2"
     inkscape:zoom="1.1678255"
     inkscape:cx="76.67908"
     inkscape:cy="166.8714"
     inkscape:document-units="mm"
     inkscape:current-layer="layer1"
     showgrid="false"
     inkscape:window-width="1366"
     inkscape:window-height="703"
     inkscape:window-x="0"
     inkscape:window-y="0"
     inkscape:window-maximized="1" />
  <defs
     id="defs1580" />
  <metadata
     id="metadata1583">
    <rdf:RDF>
      <cc:Work
         rdf:about="">
        <dc:format>image/svg+xml</dc:format>
        <dc:type
           rdf:resource="http://purl.org/dc/dcmitype/StillImage" />
        <dc:title></dc:title>
      </cc:Work>
    </rdf:RDF>
  </metadata>
  <g
     inkscape:label="Layer 1"
     inkscape:groupmode="layer"
     id="layer1"
     transform="translate(0,-247)">
    <g
       id="g989"
       transform="translate(-4.648074)">
      <path
         inkscape:connector-curvature="0"
         id="path964"
         d="m 31.056049,295.31035 c -1.887567,-1.9253 -3.988946,-2.92266 -5.035554,-2.38998 -0.314272,0.15995 -1.088922,0.38886 -1.721436,0.5087 -0.632515,0.11985 -1.823948,0.70628 -2.647632,1.30322 -1.890138,1.3698 -2.739228,1.39816 -3.02334,0.10099 -0.377432,-1.72327 -0.476746,-1.8792 -1.196841,-1.8792 -0.978632,0 -1.189715,-0.49773 -0.682953,-1.61043 0.33513,-0.73584 0.336149,-1.10149 0.0047,-1.63271 -0.587309,-0.94085 -0.616311,-0.89675 1.1538,-1.75402 2.508514,-1.21488 2.53396,-1.36487 0.696373,-4.10524 -2.217236,-3.30657 -2.635251,-4.44229 -2.635251,-7.15986 0,-1.92685 -0.117755,-2.38857 -0.686917,-2.69331 -1.042998,-0.55844 -1.575366,-2.55197 -1.126663,-4.21903 0.554724,-2.06102 2.288034,-4.45383 3.95736,-5.46312 2.885292,-1.74447 3.706213,-2.3294 3.839365,-2.73564 0.07417,-0.22627 -0.513741,-0.87057 -1.306445,-1.43176 -3.675406,-2.60202 -3.081217,-6.6463 1.258556,-8.56639 1.099917,-0.48665 2.32678,-1.39404 2.973592,-2.19925 2.028423,-2.52521 4.398923,-3.09284 5.219092,-1.24975 0.365711,0.82185 0.754065,0.95467 2.413814,0.82555 1.593692,-0.12399 2.778679,1.35128 2.778679,3.45937 0,1.65377 0.05741,1.75486 1.240588,2.18287 0.682314,0.24683 1.809776,1.11406 2.505463,1.92717 1.005618,1.17535 1.574253,1.51995 2.77431,1.68127 1.084221,0.14575 1.622035,0.42909 1.909177,1.00581 0.219859,0.4416 0.66721,1.09858 0.99411,1.45996 1.429433,1.58018 0.06267,4.27057 -1.963606,3.86514 -0.578757,-0.11581 -1.775966,-0.0169 -2.660459,0.21976 -1.336265,0.35755 -1.983837,0.33204 -3.83,-0.15091 -1.222009,-0.31967 -2.248831,-0.55598 -2.281842,-0.52512 -0.03303,0.0309 0.53641,0.75581 1.265349,1.61103 l 1.325351,1.55495 1.545709,-0.80602 c 1.894041,-0.98766 4.418137,-1.11823 5.263925,-0.27231 0.562062,0.56215 0.526973,0.71089 -0.548929,2.32662 l -1.149386,1.72608 0.247737,5.23477 c 0.312101,6.59471 -0.09506,8.13241 -2.89515,10.93371 -1.030097,1.03054 -2.293527,1.97934 -2.80762,2.10842 -1.24928,0.31368 -1.178408,0.66392 0.322051,1.59166 0.691231,0.42738 1.437177,1.11429 1.657671,1.52645 0.332712,0.62196 0.271098,0.85454 -0.362315,1.36767 -0.419762,0.34005 -0.763203,0.86117 -0.763203,1.15802 0,1.22115 -0.447591,1.67213 -1.659535,1.67213 -0.729432,0 -1.304241,0.20606 -1.420537,0.50923 -0.406594,1.06003 -1.1607,0.7994 -2.941007,-1.0165 z"
         style="fill:none;stroke:#ff0000;stroke-width:0.1;stroke-miterlimit:4;stroke-dasharray:none" />
      <path
         inkscape:connector-curvature="0"
         id="path962"
         d="m 33.681663,295.44863 c 0.193588,-0.61022 0.427214,-0.69002 1.455247,-0.49707 1.183282,0.22208 1.224646,0.19185 1.224646,-0.89504 0,-0.66972 0.217161,-1.20827 0.536676,-1.33094 0.984653,-0.37801 0.554136,-1.17249 -1.319318,-2.43468 -1.25474,-0.84537 -1.989818,-1.13935 -2.269081,-0.90748 -0.669501,0.55588 -0.903321,-0.039 -0.334611,-0.8513 0.669434,-0.95617 0.668955,-1.43733 -0.0014,-1.18006 -0.288867,0.1109 -0.619149,0.0496 -0.73394,-0.13622 -0.114791,-0.18582 0.435257,-0.59563 1.222319,-0.9107 4.086085,-1.63564 5.71701,-8.33093 2.98309,-12.24615 -0.24482,-0.35061 -0.653338,-0.15744 -1.704888,0.80615 -1.074184,0.98435 -1.287237,1.36296 -0.954352,1.69599 0.642877,0.64316 0.523871,1.19382 -0.459716,2.1272 -0.570888,0.54174 -0.890495,1.24136 -0.89447,1.95798 -0.004,0.61326 -0.298796,1.49918 -0.656436,1.96867 -0.357646,0.46951 -0.851534,1.35624 -1.09754,1.97053 -0.552879,1.38055 -1.688345,1.92562 -4.011375,1.92562 -2.334372,0 -3.810843,-0.79515 -4.555285,-2.45323 -0.328903,-0.73256 -1.201776,-1.9353 -1.93971,-2.67276 -0.874597,-0.87402 -1.341694,-1.67051 -1.341694,-2.28782 0,-1.34544 -0.75577,-3.26328 -1.380479,-3.50311 -0.987344,-0.37905 -1.159821,0.63855 -0.608353,3.58932 0.111427,0.59622 0.792537,1.96535 1.513591,3.04251 1.620437,2.42074 3.39134,5.78233 3.165301,6.00847 -0.09255,0.0926 -0.415619,-0.037 -0.717937,-0.28804 -0.454163,-0.37709 -0.823924,-0.31082 -2.128137,0.38136 -1.33275,0.70732 -1.523927,0.9397 -1.228081,1.49272 0.192708,0.36024 0.24723,0.98011 0.121158,1.37751 -0.161735,0.5098 0.04309,0.97499 0.695753,1.58012 0.508733,0.47168 0.92497,1.18745 0.92497,1.59058 0,0.99326 0.458619,0.92368 2.192049,-0.33256 0.808661,-0.58605 2.055043,-1.1708 2.769742,-1.29947 1.874474,-0.33744 2.193921,-0.73025 2.193921,-2.69768 0,-1.5231 -0.117547,-1.80714 -0.894462,-2.16128 -0.49195,-0.22425 -0.894462,-0.56018 -0.894462,-0.7465 0,-0.19478 0.266143,-0.2152 0.626121,-0.048 0.344374,0.1599 1.229893,0.27378 1.967822,0.25303 1.429499,-0.0402 1.816534,0.39893 0.626127,0.71038 -0.594515,0.15553 -0.715573,0.48822 -0.715573,1.96659 0,1.88461 0.31073,2.3451 1.826052,2.70624 0.512363,0.12209 1.55889,0.9345 2.325602,1.80534 1.562272,1.77443 2.133306,1.98794 2.470887,0.92384 z"
         style="fill:none;stroke:#0000ff;stroke-width:0.1;stroke-miterlimit:4;stroke-dasharray:none" />
      <path
         inkscape:connector-curvature="0"
         id="path960"
         d="m 37.613805,286.90996 c 0.955058,-0.68176 1.847721,-1.82976 2.683392,-3.45093 1.227276,-2.38088 1.249007,-2.49781 1.089749,-5.86311 -0.345866,-7.30819 -0.284717,-8.05113 0.786578,-9.55654 0.903692,-1.2699 0.930311,-1.39881 0.334383,-1.61935 -0.868942,-0.32158 -3.409016,0.16934 -4.468049,0.86356 -0.740847,0.48562 -0.883116,0.92763 -1.062538,3.30106 -0.18672,2.4699 -0.118074,2.90533 0.695494,4.41173 0.795328,1.47261 0.88105,1.97498 0.720908,4.22473 -0.207213,2.91106 -0.825436,4.35615 -2.735919,6.39516 -0.737835,0.78748 -1.447734,1.73437 -1.577555,2.1042 -0.208905,0.59512 -0.101626,0.64591 0.93318,0.44176 0.643077,-0.12687 1.813245,-0.69039 2.600377,-1.25227 z"
         style="fill:none;stroke:#0000ff;stroke-width:0.1;stroke-miterlimit:4;stroke-dasharray:none" />
      <path
         inkscape:connector-curvature="0"
         id="path958"
         d="m 29.474177,285.20991 c 1.634895,-1.02558 0.997333,-1.4807 -2.325608,-1.66014 -1.721849,-0.093 -3.49288,-0.28886 -3.935642,-0.43531 -1.096741,-0.36272 -1.072787,0.51463 0.04269,1.56302 1.570104,1.47568 4.337222,1.7126 6.218569,0.53243 z"
         style="fill:none;stroke:#0000ff;stroke-width:0.1;stroke-miterlimit:4;stroke-dasharray:none" />
      <path
         inkscape:connector-curvature="0"
         id="path956"
         d="m 31.213628,282.09326 c 1.426483,-1.22754 0.990673,-2.10382 -0.800263,-1.6091 -2.224695,0.61453 -6.213234,-0.036 -10.241619,-1.67031 -0.956103,-0.3879 -0.802407,0.96387 0.218708,1.92356 1.436579,1.35019 4.07279,2.15918 7.09595,2.17756 2.385051,0.0145 2.883075,-0.0953 3.727224,-0.82171 z"
         style="fill:none;stroke:#0000ff;stroke-width:0.1;stroke-miterlimit:4;stroke-dasharray:none" />
      <path
         inkscape:connector-curvature="0"
         id="path954"
         d="m 30.780488,279.75091 c 0.595734,-0.23381 0.538421,-0.32571 -0.461596,-0.7401 -0.627985,-0.26024 -1.674033,-1.09523 -2.324548,-1.85554 -1.049671,-1.22684 -1.365069,-1.38239 -2.802934,-1.38239 -0.891099,0 -2.323117,-0.24812 -3.182264,-0.55138 -2.980325,-1.05197 -4.310517,0.89827 -1.775585,2.60325 2.590712,1.74249 8.33972,2.79242 10.546927,1.92616 z"
         style="fill:none;stroke:#0000ff;stroke-width:0.1;stroke-miterlimit:4;stroke-dasharray:none" />
      <path
         inkscape:connector-curvature="0"
         id="path952"
         d="m 32.807214,278.26587 c 1.001448,-0.53619 0.855378,-1.11587 -0.213553,-0.84747 l -0.905598,0.22739 0.81616,-1.28131 c 0.448882,-0.70472 1.061472,-1.36702 1.361305,-1.47177 1.086373,-0.37958 2.496107,-3.10843 2.494689,-4.82906 -0.0014,-1.78355 -0.616172,-2.99415 -2.599044,-5.11851 -1.781352,-1.90846 -3.168998,-1.76796 -1.891963,0.19156 0.887737,1.36216 1.228361,3.61572 0.726881,4.80892 -0.469653,1.11746 -1.131317,1.53195 -2.44544,1.53195 -1.978104,0 -3.212604,2.27458 -2.356601,4.34206 0.486056,1.17396 2.623631,2.81679 3.665077,2.81679 0.360822,0 0.967458,-0.16675 1.348087,-0.37055 z"
         style="fill:none;stroke:#0000ff;stroke-width:0.1;stroke-miterlimit:4;stroke-dasharray:none" />
      <path
         inkscape:connector-curvature="0"
         id="path950"
         d="m 26.869732,274.07655 c 0.280622,-1.11856 0.106174,-1.27076 -2.089325,-1.82293 -1.654561,-0.41612 -1.802784,-0.39177 -2.951729,0.48496 -0.665332,0.50769 -1.2097,0.99941 -1.2097,1.0927 0,0.5126 4.363048,1.55988 5.425931,1.30241 0.327705,-0.0794 0.698871,-0.55509 0.824823,-1.05714 z"
         style="fill:none;stroke:#0000ff;stroke-width:0.1;stroke-miterlimit:4;stroke-dasharray:none" />
      <path
         inkscape:connector-curvature="0"
         id="path948"
         d="m 19.211354,274.68646 c 0.380629,-0.20379 0.695494,-0.64674 0.69969,-0.98434 0.0047,-0.33759 0.668582,-1.08185 1.476397,-1.6539 l 1.468765,-1.0401 -0.864201,-0.453 c -0.475308,-0.24915 -1.094597,-0.88368 -1.376191,-1.41007 -0.422677,-0.79014 -0.701081,-0.92826 -1.596103,-0.79193 -0.596273,0.0908 -1.28538,0.0927 -1.531359,0.005 -0.613447,-0.2207 -0.565791,-0.74917 0.06207,-0.68787 0.497364,0.0486 3.192606,-3.34598 2.893937,-3.64478 -0.40754,-0.40772 -3.454894,1.9057 -4.409486,3.34751 -2.010429,3.03653 -1.752237,6.25301 0.501953,6.25301 0.747505,0 0.869709,0.12805 0.683214,0.71589 -0.178664,0.56316 -0.06426,0.71589 0.53609,0.71589 0.419754,0 1.074624,-0.16674 1.455253,-0.37055 z"
         style="fill:none;stroke:#0000ff;stroke-width:0.1;stroke-miterlimit:4;stroke-dasharray:none" />
      <path
         inkscape:connector-curvature="0"
         id="path946"
         d="m 27.774697,271.83552 c 0,-0.19687 -0.161009,-0.35795 -0.357786,-0.35795 -0.196784,0 -0.357787,0.16108 -0.357787,0.35795 0,0.19687 0.161003,0.35794 0.357787,0.35794 0.196777,0 0.357786,-0.16107 0.357786,-0.35794 z"
         style="fill:none;stroke:#0000ff;stroke-width:0.1;stroke-miterlimit:4;stroke-dasharray:none" />
      <path
         inkscape:connector-curvature="0"
         id="path944"
         d="m 26.578435,271.2817 c 0.128431,-0.33484 0.583753,-0.52578 1.15157,-0.48293 3.087204,0.233 4.6959,-0.57675 4.6959,-2.3637 0,-1.04707 -0.105167,-1.07694 -1.219576,-0.34643 -2.177965,1.42767 -7.563519,0.79592 -9.640598,-1.13089 -1.042052,-0.96667 -1.599759,-1.07098 -1.875972,-0.35086 -0.168321,0.43884 0.979139,1.75237 3.612613,4.13548 1.284767,1.16262 2.932915,1.43395 3.276063,0.53933 z"
         style="fill:none;stroke:#0000ff;stroke-width:0.1;stroke-miterlimit:4;stroke-dasharray:none" />
      <path
         inkscape:connector-curvature="0"
         id="path942"
         d="m 30.676539,267.69872 c 0.85555,-0.4426 1.054478,-0.75584 0.966147,-1.52125 -0.087,-0.75378 -0.26721,-0.92973 -0.826815,-0.80724 -0.393562,0.0861 -2.003604,0.16668 -3.577857,0.17897 -2.371212,0.0185 -3.101496,-0.11909 -4.256581,-0.802 -0.877274,-0.51867 -1.519898,-0.69868 -1.733031,-0.48545 -0.691705,0.69202 -0.02864,1.69876 1.863992,2.83024 1.650099,0.98646 2.293615,1.16411 4.21701,1.16411 1.35482,0 2.704045,-0.22467 3.347135,-0.55738 z"
         style="fill:none;stroke:#0000ff;stroke-width:0.1;stroke-miterlimit:4;stroke-dasharray:none" />
      <path
         inkscape:connector-curvature="0"
         id="path940"
         d="m 30.071036,264.81736 c 1.05615,-0.40546 0.571965,-0.78858 -1.312432,-1.03849 -1.033108,-0.13701 -2.812303,-0.55927 -3.953776,-0.93836 -1.141467,-0.37909 -2.228245,-0.59474 -2.415053,-0.47924 -1.498813,0.92673 1.707165,2.67266 4.908422,2.67308 1.213796,1.5e-4 2.461576,-0.0975 2.772839,-0.21699 z"
         style="fill:none;stroke:#0000ff;stroke-width:0.1;stroke-miterlimit:4;stroke-dasharray:none" />
      <path
         inkscape:connector-curvature="0"
         id="path938"
         d="m 37.896363,263.60286 c 0.124148,-0.47494 0.011,-0.71588 -0.336223,-0.71588 -0.287846,0 -0.957035,-0.46769 -1.487099,-1.03929 -0.819568,-0.88382 -1.284879,-1.05784 -3.110452,-1.16331 -1.99765,-0.11541 -2.154657,-0.0681 -2.26105,0.68134 -0.131687,0.92769 -0.509598,1.02587 -1.119383,0.29081 -0.280942,-0.33867 -0.343182,-1.07282 -0.182074,-2.14766 0.245666,-1.63893 -0.02078,-2.02143 -0.838255,-1.20355 -0.323509,0.32364 -0.42935,0.32592 -0.42935,0.009 0,-0.42377 1.79003,-1.51255 2.486736,-1.51255 0.206554,0 0.375554,0.16108 0.375554,0.35795 0,0.19687 -0.24151,0.35794 -0.536676,0.35794 -0.809533,0 -0.673637,1.69119 0.17229,2.14411 0.389932,0.20878 1.498142,0.43492 2.462688,0.50253 1.918421,0.13449 2.492571,0.37824 3.19932,1.35829 0.349061,0.48404 0.943391,0.64831 2.345546,0.64831 1.441402,0 2.159897,0.20804 3.090401,0.89486 1.412511,1.04256 1.888465,1.10208 2.657848,0.33237 0.743171,-0.7435 0.709812,-1.41649 -0.108951,-2.19762 -0.369147,-0.3522 -0.776987,-0.98538 -0.90631,-1.40707 -0.236248,-0.77033 -1.146255,-1.18799 -2.60828,-1.19707 -0.477912,-0.003 -1.168863,-0.506 -1.759923,-1.28126 -0.948172,-1.24367 -3.178914,-2.66099 -4.18816,-2.66099 -0.724005,0 -2.388655,-1.77139 -2.388655,-2.54182 0,-0.7193 1.240036,-1.55596 1.796331,-1.21201 0.610397,0.37742 0.377871,-0.26272 -0.275739,-0.75908 -0.344369,-0.26153 -1.313837,-0.48064 -2.154383,-0.4869 -1.277323,-0.01 -1.595179,-0.15831 -1.935803,-0.90623 -0.699843,-1.53666 -2.24813,-1.21854 -4.194674,0.86186 -0.904032,0.9662 -2.473084,2.16892 -3.48678,2.6727 -4.322179,2.14805 -4.499543,5.05123 -0.48252,7.89819 3.241893,2.29761 6.110896,3.14872 9.48132,2.81272 1.26008,-0.12562 2.42355,0.0404 3.935643,0.56133 2.654965,0.91481 2.560857,0.91319 2.787063,0.0478 z"
         style="fill:none;stroke:#0000ff;stroke-width:0.1;stroke-miterlimit:4;stroke-dasharray:none" />
      <path
         inkscape:connector-curvature="0"
         id="path936"
         d="m 43.338378,262.88698 c -0.385291,-0.62368 0.185789,-1.15576 0.743483,-0.69271 0.275494,0.22873 0.412655,0.55871 0.304816,0.73327 -0.260997,0.42248 -0.774517,0.40261 -1.048299,-0.0406 z"
         style="fill:none;stroke:#0000ff;stroke-width:0.1;stroke-miterlimit:4;stroke-dasharray:none" />
      <path
         inkscape:connector-curvature="0"
         id="path934"
         d="m 41.776952,260.69221 c -0.712929,-0.26801 -0.773984,-0.40463 -0.388528,-0.86928 0.399801,-0.48194 0.522704,-0.48591 0.976835,-0.0316 0.760638,0.76097 0.421392,1.28045 -0.588307,0.90086 z"
         style="fill:none;stroke:#0000ff;stroke-width:0.1;stroke-miterlimit:4;stroke-dasharray:none" />
      <path
         inkscape:connector-curvature="0"
         id="path932"
         d="m 26.549147,253.96795 c -0.341491,-0.3775 -0.56769,-1.06055 -0.502686,-1.5179 0.134903,-0.94906 1.707471,-1.85595 2.614467,-1.50775 0.856949,0.32898 1.310434,1.74426 0.902701,2.81716 -0.422991,1.11301 -2.09185,1.22844 -3.014482,0.20849 z"
         style="fill:none;stroke:#0000ff;stroke-width:0.1;stroke-miterlimit:4;stroke-dasharray:none" />
      <path
         inkscape:connector-curvature="0"
         id="path930"
         d="m 29.026939,252.89444 c 0,-0.67264 -0.188579,-1.28586 -0.419074,-1.36272 -0.268175,-0.0894 -0.348663,0.12962 -0.223529,0.60834 0.118973,0.45515 -0.0668,1.03809 -0.474409,1.4887 -0.661237,0.73097 -0.658327,0.73896 0.223535,0.61463 0.753879,-0.1063 0.893477,-0.31707 0.893477,-1.34895 z"
         style="fill:none;stroke:#0000ff;stroke-width:0.1;stroke-miterlimit:4;stroke-dasharray:none" />
      <path
         inkscape:connector-curvature="0"
         id="path928"
         d="m 27.416911,252.14873 c 0,-0.19687 -0.161002,-0.35795 -0.357787,-0.35795 -0.196784,0 -0.357786,0.16108 -0.357786,0.35795 0,0.19687 0.161002,0.35794 0.357786,0.35794 0.196785,0 0.357787,-0.16107 0.357787,-0.35794 z"
         style="fill:none;stroke:#0000ff;stroke-width:0.1;stroke-miterlimit:4;stroke-dasharray:none" />
      <path
         inkscape:connector-curvature="0"
         id="path926"
         d="m 40.474322,263.96147 c 0.516618,-0.1965 0.849551,-0.50254 0.739867,-0.68009 -0.273969,-0.44347 -2.705922,-0.40966 -2.705922,0.0376 0,0.19825 0.241509,0.26773 0.536681,0.15441 0.295173,-0.11331 0.536677,-0.0634 0.536677,0.11085 0,0.17429 -0.201252,0.39812 -0.447231,0.49742 -0.885226,0.35735 0.383686,0.24351 1.339928,-0.12022 z"
         style="fill:none;stroke:#0000ff;stroke-width:0.1;stroke-miterlimit:4;stroke-dasharray:none" />
      <path
         inkscape:connector-curvature="0"
         id="path924"
         d="m 30.372935,259.90277 c -0.324722,-0.55759 -0.906357,0.42552 -0.639527,1.08096 0.249275,0.6123 0.280915,0.60847 0.539413,-0.0654 0.151046,-0.39373 0.196092,-0.85072 0.100114,-1.01552 z"
         style="fill:none;stroke:#0000ff;stroke-width:0.1;stroke-miterlimit:4;stroke-dasharray:none" />
      <path
         inkscape:connector-curvature="0"
         id="path1476"
         d="m 34.801028,253.04358 c 0.197189,-0.5141 -0.116476,-1.86402 -0.365385,-1.57248 -0.06606,0.0774 -0.22636,0.58366 -0.356188,1.12505 -0.249516,1.04056 0.351187,1.41305 0.721573,0.44743 z"
         style="fill:none;stroke:#0000ff;stroke-width:0.1;stroke-miterlimit:4;stroke-dasharray:none" />
      <path
         id="path908"
         style="fill:none;stroke:#0000ff;stroke-width:0.1"
         d="m 19.68194,253.08626 -0.100064,0.10006 m -0.700563,1.09969 1.562577,-1.56258 m 1.293852,-0.89473 -3.045623,3.04562 m 3.083118,-2.68399 0.801104,-0.80111 m -3.753707,3.75371 -0.294812,0.29481 m 3.806106,-3.40698 3.929342,-3.92934 m 0.806146,-0.40703 -3.869157,3.86916 m -4.684383,4.68438 0.08286,-0.0829 m 9.174253,-8.77513 -2.733194,2.7332 m 2.769152,-2.37003 0.373151,-0.37315 m 0.43596,-0.0368 -0.225822,0.22582 m 0.459613,-0.0605 0.0886,-0.0886 m 0.277029,0.12209 -0.08713,0.0871 m -10.208125,10.20812 0.05719,-0.0572 m 10.470506,-10.07138 -0.05004,0.05 m -10.328187,10.32819 0.0559,-0.0559 m 0.158226,0.2409 -0.06466,0.0646 m 0.170204,0.22892 0.07919,-0.0792 m 7.426255,-7.02713 -0.476693,0.47669 m -6.852095,6.8521 0.08727,-0.0873 m 7.697571,-7.29844 -0.132212,0.13221 m -0.892147,0.89214 0.116341,-0.11634 m -6.604815,6.60482 -0.08588,0.0859 m 7.73569,-7.33657 0.490468,-0.49046 m -1.405551,1.40555 -0.237742,0.23774 m -6.381919,6.38192 0.06967,-0.0697 m 10.487454,-10.08833 -0.06122,0.0612 m -2.821827,2.82183 0.750635,-0.75063 m -1.545376,1.54537 -0.423383,0.42338 m -6.255009,6.25501 0.05814,-0.0581 m 10.556837,-10.15771 -0.06518,0.0652 m -4.174103,4.1741 2.144819,-2.14482 m -8.24257,8.24257 -0.05878,0.0588 m 10.647847,-10.24873 0.09627,-0.0963 m -3.010764,3.01076 -1.424757,1.42476 m -6.085413,6.08542 0.0554,-0.0554 m 10.813595,-10.41447 -0.06831,0.0683 m -4.52527,4.52527 1.270236,-1.27023 m -7.270454,7.27045 -0.05201,0.052 m 10.957173,-10.55805 0.104393,-0.10439 m -3.791029,3.79103 -1.005319,1.00532 m -6.050555,6.05055 0.05715,-0.0571 m 11.239106,-10.83999 -0.194228,0.19423 m -2.905211,2.90521 0.106746,-0.10674 m -8.026614,8.02661 -0.06238,0.0624 m 11.244793,-10.84567 0.202123,-0.20213 m -3.320419,3.32042 -0.132366,0.13237 m -7.779565,7.77957 0.06837,-0.0684 m 11.537028,-11.13791 -0.217831,0.21783 m -3.551408,3.55141 0.1287,-0.1287 m -7.656337,7.65634 -0.09395,0.094 m -4.522805,4.52281 0.176691,-0.17669 m 16.041165,-15.64205 -0.164718,0.16472 m -11.328487,11.32849 0.132259,-0.13226 m -3.945624,3.94562 -2.096437,2.09644 m 17.534052,-17.13493 0.138895,-0.13889 m -4.391745,4.39174 -0.422805,0.42281 m -6.77597,6.77597 0.199786,-0.19979 m -3.097035,3.09703 -4.081955,4.08196 m 18.721395,-18.32227 0.09903,-0.099 m -11.401279,11.40128 -0.336811,0.33681 m -2.468099,2.4681 1.1907,-1.1907 m -5.776973,5.77697 -0.404986,0.40499 m 5.588762,-5.18964 2.446898,-2.4469 m -7.874112,7.87411 -0.499408,0.49941 m 18.334437,-17.93531 0.269956,-0.26996 m -9.975529,9.97553 -2.404582,2.40458 m -6.171928,6.17193 0.19304,-0.19304 m 19.003064,-18.60394 -0.909275,0.90927 m -10.114491,10.1145 0.659517,-0.65952 m -1.426951,1.42695 -1.165381,1.16538 m -6.339061,6.33906 0.218482,-0.21848 m 19.494443,-19.09532 -1.250149,1.25015 m -9.735829,9.73583 0.459792,-0.45979 m -1.676792,1.67679 -1.31354,1.31354 m -6.253954,6.25395 0.163297,-0.1633 m 20.29489,-19.89576 -1.811689,1.81168 m -9.513969,9.51397 0.367102,-0.3671 m -1.747789,1.74779 -0.369021,0.36902 m -4.134167,4.13417 3.322623,-3.32262 m -6.406687,6.40668 -0.118043,0.11805 m 20.418242,-20.01912 0.10956,-0.10956 m -0.842503,0.8425 -0.910745,0.91074 m -9.383621,9.38363 0.322609,-0.32261 m -1.828018,1.82801 -0.209553,0.20956 m -4.148012,4.14801 2.922912,-2.92291 m -6.345463,6.34546 -0.05886,0.0589 m 18.902612,-18.50349 0.551241,-0.55124 m -9.513204,9.51321 -0.282371,0.28237 m -1.762864,1.76286 0.16255,-0.16255 m -1.534561,1.53456 -0.384379,0.38438 m -2.295295,2.2953 1.21338,-1.21338 m -4.955019,4.95501 -0.05554,0.0555 m 19.030668,-18.63155 0.345049,-0.34505 m -4.761652,4.76165 -0.603987,0.60399 m -4.084456,4.08446 0.242133,-0.24213 m -1.917625,1.91762 -0.128566,0.12857 m -1.794057,1.79405 0.295763,-0.29576 m -1.474065,1.47406 -0.906545,0.90655 m -4.187343,4.18734 0.06969,-0.0697 m 19.221038,-18.82192 -0.131018,0.13102 m -4.162593,4.16259 0.394382,-0.39438 m -5.005413,5.00541 -0.201895,0.2019 m -1.845251,1.84525 0.09397,-0.094 m -1.671298,1.6713 -0.215941,0.21594 m -1.925721,1.92572 0.635452,-0.63545 m 14.208913,-13.80979 -0.09237,0.0924 m -4.174772,4.17478 0.836276,-0.83628 m -5.374681,5.37468 -0.160682,0.16068 m -1.886443,1.88645 0.08801,-0.088 m -1.744381,1.74438 -0.184368,0.18437 m -1.71742,1.71742 0.373071,-0.37307 m -5.141059,5.14106 -0.06516,0.0652 m 19.363841,-18.96472 0.06272,-0.0627 m -3.38376,3.38376 -0.07114,0.0711 m -5.381822,5.38183 0.144065,-0.14407 m -1.979283,1.97928 -0.09739,0.0974 m -1.886474,1.88648 0.157843,-0.15785 m -1.551223,1.55123 -0.193412,0.19341 m -5.045929,5.04593 0.07447,-0.0745 m 20.147468,-19.74834 -0.783899,0.7839 m -8.67382,8.67382 0.127123,-0.12713 m -1.999454,1.99946 -0.108018,0.10802 m -1.93096,1.93095 0.142796,-0.14279 m -6.762696,6.76269 -0.06328,0.0633 m 19.511383,-19.11226 0.598605,-0.5986 m -5.304504,5.3045 -0.05635,0.0564 m -3.842231,3.84224 0.110181,-0.11019 m -2.005026,2.00503 -0.133245,0.13325 m -1.967354,1.96735 0.150305,-0.15031 m -6.766922,6.76693 -0.103757,0.10375 m 19.608403,-19.20928 0.392987,-0.39298 m -5.296688,5.29668 -0.188198,0.1882 m -3.488273,3.48828 0.09207,-0.0921 m -1.993698,1.9937 -0.137575,0.13757 m -2.036176,2.03618 0.15361,-0.15361 m -6.771147,6.77115 -0.106728,0.10673 m 19.719587,-19.32047 0.197665,-0.19766 m -5.276664,5.27666 -0.376065,0.37606 m -3.152469,3.15247 0.100809,-0.1008 m -2.009213,2.00921 -0.133968,0.13397 m -2.112936,2.11293 0.156915,-0.15691 m -1.707821,1.70782 -0.07285,0.0729 m -5.109718,5.10972 0.144329,-0.14433 m 19.757127,-19.358 -0.08613,0.0861 m -8.614132,8.61413 0.109545,-0.10954 m -2.024236,2.02424 -0.130851,0.13085 m -2.189696,2.18969 0.16022,-0.16022 m -1.748196,1.7482 -0.109068,0.10907 m -5.041244,5.04124 0.251527,-0.25153 m 11.152693,-10.75357 -0.10125,0.10125 m -2.003349,2.00335 0.09596,-0.096 m -2.259466,2.25947 -0.131635,0.13163 m -1.790792,1.79079 0.132034,-0.13203 m -4.767096,4.7671 -0.453619,0.45361 m 14.697858,-14.29873 0.06751,-0.0675 m -3.157601,3.1576 -0.09593,0.0959 m -1.976918,1.97692 0.0724,-0.0724 m -2.338952,2.33895 -0.115307,0.1153 m -1.891936,1.89194 0.155001,-0.155 m -4.557848,4.55785 -0.725382,0.72538 m 14.567821,-14.1687 0.371797,-0.3718 m -3.113808,3.11381 -0.112998,0.113 m -1.950489,1.95049 0.05512,-0.0551 m -2.424706,2.42471 -0.09898,0.099 m -1.993081,1.99308 0.18795,-0.18795 m -4.559982,4.55998 -0.881341,0.88134 m 13.774752,-13.37563 1.424711,-1.42471 m -3.070017,3.07002 -0.130063,0.13006 m -4.479339,4.47934 0.08265,-0.0827 m -1.955179,1.95518 -0.178927,0.17892 m -5.421911,5.42191 0.796701,-0.7967 m 19.851188,-19.45206 -0.05055,0.0506 m -5.248047,5.24804 0.121323,-0.12132 m -1.259301,1.2593 -0.27911,0.27911 m -1.645626,1.64563 0.14065,-0.14065 m -6.620197,6.62019 -0.162161,0.16217 m -5.618552,5.61855 0.699368,-0.69937 m 15.095937,-14.69681 -0.07154,0.0715 m -3.129634,3.12964 0.191694,-0.1917 m -6.798922,6.79892 -0.145395,0.1454 m -5.832569,5.83257 0.89137,-0.89137 m 12.270432,-11.87131 -0.239244,0.23924 m -6.841628,6.84163 0.103228,-0.10323 m -6.135557,6.13556 -0.07078,0.0708 m 13.282001,-12.88288 0.275502,-0.2755 m -11.987101,11.9871 -0.08499,0.085 m 12.133853,-11.73473 0.357627,-0.35763 m -8.96345,8.96345 -0.930528,0.93053 m -2.374311,2.37431 0.405384,-0.40539 M 30.614,263.30769 l -0.47279,0.47279 m -10.031905,10.0319 2.929824,-2.92982 m -4.015712,4.01571 -0.921376,0.92138 m 12.322238,-11.92312 0.614974,-0.61497 m -7.776891,7.77689 -5.009827,5.00983 m 12.454812,-12.05569 0.74821,-0.74821 m -7.95795,7.95795 -0.781921,0.78192 m -2.666527,2.66652 0.496665,-0.49666 m -1.942873,1.94287 -0.216078,0.21608 m -2.05202,2.05202 0.08887,-0.0889 m 15.499451,-15.10033 -1.965772,1.96577 m -3.412109,3.41211 0.0605,-0.0605 m -2.872938,2.87294 -0.421183,0.42118 m -2.861519,2.86152 0.326518,-0.32652 m -2.072999,2.073 -0.182458,0.18246 m -2.122782,2.12278 0.07696,-0.077 m 15.791597,-15.39248 -0.128651,0.12865 m -1.743763,1.74377 0.781492,-0.78149 m -7.207966,7.20796 -0.197773,0.19778 m -2.928696,2.92869 0.205418,-0.20542 m -2.266747,2.26675 -0.130567,0.13057 m -2.215899,2.2159 0.09322,-0.0932 m 16.108905,-15.70978 -0.232781,0.23278 m -1.571438,1.57144 0.432634,-0.43264 m -7.054638,7.05464 -0.105648,0.10565 m -2.936295,2.9363 0.163476,-0.16348 m -2.370524,2.37052 -0.218335,0.21834 m 13.927483,-13.52836 0.335306,-0.33531 m -1.588971,1.58897 -0.146101,0.1461 m -3.536437,3.53644 0.08211,-0.0821 m -3.309444,3.30944 -0.07607,0.0761 m -2.919296,2.9193 0.127421,-0.12742 m -2.514034,2.51403 -0.289279,0.28928 m -2.199479,2.19948 0.05069,-0.0507 m 16.651315,-16.25219 -0.436669,0.43667 m -4.743827,4.74382 0.09218,-0.0922 m -6.30377,6.30377 -0.115531,0.11553 m -2.902233,2.90223 0.372844,-0.37284 m 14.369423,-13.9703 -0.539777,0.53978 m -4.548043,4.54804 0.100597,-0.1006 m -6.430146,6.43015 -0.103642,0.10364 m -3.150979,3.15098 0.520311,-0.52031 m -2.605001,2.605 -0.04993,0.0499 m 16.489279,-16.09016 0.646818,-0.64682 m -4.879097,4.8791 -0.113115,0.11311 m -3.622707,3.62271 0.05386,-0.0539 m -2.878663,2.87867 -0.09035,0.0903 m -3.429202,3.42921 0.695852,-0.69585 m 20.307117,-19.908 -0.05598,0.056 m -6.431017,6.43102 0.749789,-0.74979 m -4.713463,4.71346 -0.08067,0.0807 m -3.815205,3.81521 0.237916,-0.23791 m -3.067632,3.06763 -0.07733,0.0773 m -3.707169,3.70717 0.871392,-0.8714 m 20.329069,-19.92994 -0.06193,0.0619 m -5.805019,5.80502 0.196527,-0.19653 m -0.726761,0.72676 -0.125999,0.126 m -1.832054,1.83206 0.155115,-0.15512 m -1.991556,1.99156 -0.06938,0.0694 m -4.013121,4.01312 1.209081,-1.20908 m -4.014641,4.01464 -0.09338,0.0934 m -3.978802,3.9788 1.057921,-1.05792 m -2.872817,2.87282 -0.06411,0.0641 m 23.221227,-22.8221 0.08578,-0.0858 m -5.637239,5.63724 -0.181342,0.18134 m -0.77688,0.77688 0.09777,-0.0978 m -1.842989,1.84299 -1.791439,1.79144 m -4.127446,4.12744 1.333981,-1.33398 m -4.094022,4.09402 -0.10943,0.10943 m -3.246236,3.24624 0.261188,-0.26119 m -1.173418,1.17342 -0.07838,0.0784 m -1.811609,1.81161 0.08096,-0.081 m 17.757582,-17.35846 -0.155172,0.15517 m -0.916829,0.91683 0.08884,-0.0888 m -1.96476,1.96476 -0.942106,0.94211 m -3.544866,3.54487 0.233702,-0.23371 m -1.112298,1.1123 -0.340535,0.34053 m -2.815889,2.81589 0.125479,-0.12547 m -3.174695,3.17469 -0.214858,0.21486 m -1.166516,1.16651 0.0779,-0.0779 m -1.788611,1.78861 -0.09632,0.0963 m 19.613386,-19.21426 0.05137,-0.0514 m -1.658943,1.65895 -0.129003,0.129 m -1.056778,1.05678 0.07991,-0.0799 m -2.060827,2.06082 -0.304827,0.30483 m -4.085834,4.08583 0.443321,-0.44332 m -1.274548,1.27455 -0.297137,0.29714 m -2.704957,2.70496 0.08418,-0.0842 m -3.254911,3.25491 -0.174588,0.17459 m -3.11525,3.11525 0.08812,-0.0881 m 19.786036,-19.38692 -0.165554,0.16556 m -1.661901,1.6619 0.102834,-0.10284 m -1.228578,1.22858 -0.07098,0.071 m -7.473661,7.47366 1.743021,-1.74302 m -4.224136,4.22414 -0.07213,0.0721 m -3.411546,3.41155 0.133827,-0.13383 m -3.310858,3.31086 -0.07993,0.0799 m 19.858049,-19.45893 0.202277,-0.20228 m -1.767066,1.76707 -0.07666,0.0767 m -1.336675,1.33668 0.06205,-0.062 m -5.551893,5.55189 -2.019674,2.01967 m -5.817174,5.81718 0.121159,-0.12116 m -3.448093,3.44809 -0.07173,0.0717 m 19.999529,-19.6004 0.291278,-0.29128 m -1.832708,1.83271 -0.07161,0.0716 m -1.476623,1.47662 0.05312,-0.0531 m -5.316629,5.31663 -0.191144,0.19114 m -2.185044,2.18505 0.422323,-0.42232 m -2.35304,2.35303 -0.100514,0.10052 m -3.543998,3.544 0.10849,-0.10849 m -3.581145,3.58114 -0.06772,0.0677 m 20.037784,-19.63866 0.483296,-0.48329 m -8.54752,8.54752 -0.230922,0.23092 m -2.711042,2.71104 0.23591,-0.23591 m -1.73681,1.73681 -0.06551,0.0655 m -3.628533,3.62854 0.09582,-0.0958 m -3.710862,3.71086 -0.06704,0.067 m 23.086648,-22.68752 0.405402,-0.40541 m -2.743611,2.74361 -0.934152,0.93416 m -2.848316,2.84831 0.05134,-0.0513 m -4.719786,4.71979 -0.27378,0.27378 m -4.332457,4.33246 1.260604,-1.26061 m -4.890383,4.89038 -0.08315,0.0832 m -1.916904,1.9169 0.0514,-0.0514 m -1.891924,1.89193 -0.06637,0.0664 m 23.159107,-22.75998 0.432286,-0.43229 m -2.597496,2.5975 -0.361629,0.36162 m -1.738799,1.7388 0.972278,-0.97227 m -2.819344,2.81934 -0.0786,0.0786 m -4.639303,4.63931 1.693585,-1.69359 m -5.199735,5.19974 -0.974492,0.97449 m -3.727787,3.72779 0.07528,-0.0753 m -2.016514,2.01651 -0.08833,0.0883 m -1.935936,1.93594 0.06569,-0.0657 m 23.564317,-23.16519 -0.348593,0.34859 m -2.271943,2.27194 0.165601,-0.1656 m -1.263053,1.26306 -0.866549,0.86655 m -2.075841,2.07584 0.105866,-0.10587 m -3.393148,3.39315 -1.092367,1.09237 m -4.558868,4.55886 0.6589,-0.6589 m -4.343298,4.3433 -0.08493,0.0849 m -2.143709,2.14371 0.129023,-0.12902 m -2.027519,2.02752 -0.06501,0.065 m 23.461414,-23.06229 0.18111,-0.18111 m -2.286283,2.28628 -0.154448,0.15445 m -1.922841,1.92284 0.899916,-0.89992 m -3.074286,3.07429 -0.133128,0.13313 m -3.877776,3.87777 0.07023,-0.0702 m -4.551211,4.55121 -0.431931,0.43193 m -3.777281,3.77728 0.09459,-0.0946 m -2.158099,2.1581 -0.194339,0.19433 m -1.991399,1.9914 0.06466,-0.0646 m 20.378032,-19.97891 -0.06251,0.0625 m -0.900147,0.90014 0.253204,-0.2532 m -2.599237,2.59924 -0.160391,0.16039 m -8.727993,8.72799 0.302384,-0.30238 m -3.898233,3.89823 -0.0896,0.0896 m -2.386632,2.38663 0.259654,-0.25965 m -2.214643,2.21464 -0.0648,0.0648 m 19.750085,-19.35096 0.139551,-0.13955 m -2.725725,2.72573 -0.179717,0.17971 m -8.660746,8.66075 0.160347,-0.16035 m -3.681844,3.68185 -0.07844,0.0784 m -2.521587,2.52158 0.328683,-0.32868 m -2.311919,2.31192 -0.06495,0.065 m 20.018364,-19.61924 0.135771,-0.13577 m -2.962725,2.96272 -0.254476,0.25448 m -8.554229,8.55422 0.09515,-0.0951 m -3.516285,3.51629 -0.07471,0.0747 m -2.656544,2.65654 0.418285,-0.41828 m -2.437096,2.4371 -0.05776,0.0578 m 24.588971,-24.18985 0.0845,-0.0845 m -4.181892,4.18189 -0.100874,0.10088 m -3.501031,3.50103 0.654028,-0.65403 m -12.40917,12.40917 -0.08432,0.0843 m -2.808103,2.8081 0.52449,-0.52449 m 22.080192,-21.68107 -0.08022,0.0802 m -3.896632,3.89663 1.230906,-1.2309 m -3.49481,3.49481 -1.609872,1.60987 m -11.62886,11.62886 0.09394,-0.0939 m -2.419531,2.41953 -0.648099,0.6481 m 22.550549,-22.15142 0.07595,-0.0759 m -2.677776,2.67777 -0.976373,0.97638 m -4.258269,4.25827 2.227262,-2.22727 m -13.547013,13.54702 -0.08324,0.0832 m -3.159593,3.15959 0.791013,-0.79101 m 21.849699,-21.45058 -0.06421,0.0642 m -3.276209,3.27621 0.736722,-0.73672 m -2.526023,2.52602 -0.480707,0.48071 m -2.408088,2.40808 0.55054,-0.55054 m -11.611234,11.61124 -0.06833,0.0683 m -3.341682,3.34169 0.933927,-0.93393 m -6.239342,6.23934 -0.101629,0.10163 m 26.839224,-26.4401 0.107748,-0.10775 m -1.414616,1.41462 -0.507018,0.50701 m -2.189446,2.18945 0.277986,-0.27799 m -2.923943,2.92395 -0.275247,0.27524 m -10.832375,10.83238 0.0836,-0.0836 m -2.527875,2.52788 -0.195983,0.19598 m -3.038155,3.03815 0.08142,-0.0814 m -2.41862,2.41861 -0.968577,0.96858 m 26.819696,-26.42057 0.316645,-0.31665 m -1.462313,1.46232 -0.377312,0.37731 m -2.01604,2.01604 0.210965,-0.21097 m -3.446766,3.44677 -0.191365,0.19137 m -10.535731,10.53573 0.09917,-0.0992 m -2.549858,2.54986 -0.214175,0.21417 m -3.261587,3.26159 0.139291,-0.13929 m -2.136971,2.13697 -1.24796,1.24796 m 26.869486,-26.47037 0.294207,-0.2942 m -1.360241,1.36024 -0.260489,0.26049 m -1.940805,1.9408 0.219678,-0.21968 m -3.96451,3.96452 -0.110215,0.11021 m -10.217623,10.21762 0.09093,-0.0909 m -2.571843,2.57184 -0.171274,0.17127 m -5.062069,5.06207 1.708747,-1.70875 m 22.571139,-22.17201 -0.160219,0.16022 m -1.850417,1.85041 0.207118,-0.20711 m -4.476135,4.47613 -0.186759,0.18676 m -9.745239,9.74524 0.08611,-0.0861 m -2.593826,2.59383 -0.154292,0.15429 m -4.643132,4.64313 1.0757,-1.0757 m 22.83049,-22.43136 -0.158852,0.15885 m -1.787804,1.7878 0.210084,-0.21008 m -4.9157,4.9157 -0.189617,0.18961 m -7.14073,7.14073 0.06237,-0.0624 m -2.23827,2.23827 -0.08854,0.0885 m -2.671839,2.67184 0.137311,-0.13731 m -3.918849,3.91885 -0.630698,0.6307 m 23.563249,-23.16413 1.396301,-1.3963 m -3.049421,3.04942 -0.177125,0.17713 m -5.33698,5.33698 0.211399,-0.2114 m -6.951937,6.95194 -0.07559,0.0756 m -2.180046,2.18005 0.15074,-0.15074 m -2.673874,2.67387 -0.12033,0.12033 m -1.822887,1.82289 0.05131,-0.0513 m -2.224071,2.22407 -0.38703,0.38703 m -3.227038,3.22704 0.148891,-0.14889 m 27.425207,-27.02609 -0.519781,0.51978 m -2.019582,2.01958 0.0891,-0.0891 m -5.686593,5.6866 -0.459109,0.45911 m -6.313536,6.31353 0.08881,-0.0888 m -1.971516,1.97152 -0.09334,0.0933 m -2.704203,2.70421 0.07171,-0.0717 m -1.998101,1.9981 -0.07058,0.0706 m -2.467223,2.46722 0.223965,-0.22396 m -3.640776,3.64077 -0.231189,0.23119 m 25.478917,-25.07979 0.06885,-0.0689 m -6.00618,6.00618 -0.787814,0.78782 m -5.711306,5.7113 0.08339,-0.0834 m -1.810225,1.81022 -0.118021,0.11802 m -2.716111,2.71611 0.07456,-0.0746 m -2.145064,2.14507 -0.08862,0.0886 m -2.421396,2.4214 0.101033,-0.10103 m -3.75644,3.75643 -0.538202,0.53821 m 26.04612,-25.647 0.07851,-0.0785 m -6.272515,6.27252 -3.80388,3.80388 m -2.454895,2.45489 0.07871,-0.0787 m -1.693108,1.69311 -0.133848,0.13385 m -2.701652,2.70165 0.07741,-0.0774 m -2.298412,2.29841 -0.07324,0.0732 m -6.827267,6.82727 0.51524,-0.51524 m 25.823033,-25.42391 -0.05987,0.0599 m -10.796011,10.79601 4.368436,-4.36843 m -5.915344,5.91534 -0.09309,0.0931 m -1.549191,1.54919 0.0877,-0.0877 m -2.809827,2.80983 -0.08026,0.0803 m -2.421663,2.42166 0.09445,-0.0944 m -6.601277,6.60127 -0.446098,0.4461 m 26.27341,-25.87429 0.138133,-0.13813 m -6.656294,6.65629 -0.38465,0.38465 m -3.538327,3.53833 0.663925,-0.66392 m -2.376883,2.37688 -0.117087,0.11709 m -1.403668,1.40366 0.121552,-0.12155 m -2.893108,2.89311 -0.08311,0.0831 m -2.522504,2.5225 0.08908,-0.0891 m -6.696759,6.69675 -0.281369,0.28137 m 25.16535,-24.76623 1.011974,-1.01197 m -6.663479,6.66348 -0.241862,0.24186 m -3.314169,3.31417 0.350355,-0.35035 m -2.211429,2.21142 -0.175423,0.17543 m -1.155635,1.15563 0.05961,-0.0596 m -2.958472,2.95847 -0.08596,0.086 m -2.614797,2.61479 0.07122,-0.0712 m -6.789049,6.78905 -0.104474,0.10448 m 24.566013,-24.16689 0.964794,-0.9648 m -6.272871,6.27287 -0.130758,0.13076 m -3.20444,3.20444 0.2101,-0.2101 m -1.7859,1.7859 -0.536307,0.53631 m -0.897213,0.89721 0.139735,-0.13973 m -3.157176,3.15717 -0.143134,0.14314 m -2.628066,2.62806 0.07025,-0.0702 m 17.707002,-17.30788 -0.690243,0.69024 m -4.934319,4.93432 0.06831,-0.0683 m -3.046578,3.04657 -0.169227,0.16923 m -2.713016,2.71302 1.604056,-1.60406 m -4.720381,4.72038 -0.133023,0.13302 m -2.73058,2.73059 0.0595,-0.0595 m 11.984031,-11.58491 -0.0528,0.0528 m -5.609531,5.60953 2.479731,-2.47973 m -5.592663,5.59266 -0.173414,0.17342 m 3.624383,-3.22527 1.912894,-1.91289 m -4.893979,4.89398 -0.279025,0.27902 m 3.541347,-3.14222 0.180221,-0.18022 m -3.087822,3.08782 -0.269474,0.26947 m 8.560457,-8.16133 0.0529,-0.0529 m -7.892288,7.89229 -0.356795,0.35679 m 8.318533,-7.91941 0.0614,-0.0614 m -7.559196,7.5592 -0.498158,0.49816 m -2.703009,2.703 0.07049,-0.0705 m -1.299016,1.29902 -0.10647,0.10647 m -6.712694,6.71269 0.098,-0.098 m 18.840905,-18.44178 -0.0981,0.0981 m -7.76456,7.76456 2.120551,-2.12055 m -6.061628,6.06163 -0.172201,0.1722 m -6.909643,6.90964 0.09396,-0.094 m 18.922471,-18.52335 -0.134793,0.1348 m -7.583878,7.58387 1.869225,-1.86922 m -4.234895,4.23489 -0.05029,0.0503 m -1.720147,1.72015 0.299606,-0.2996 m 11.651523,-11.25241 -0.139445,0.13945 m -7.423937,7.42394 1.118845,-1.11885 m -3.262932,3.26293 -0.09444,0.0944 m -1.945337,1.94534 0.475138,-0.47514 m -7.554059,7.55406 -0.06127,0.0613 m 18.812494,-18.41338 0.164627,-0.16462 m -7.089164,7.08916 -0.382837,0.38284 m -1.904902,1.9049 0.14934,-0.14934 m -1.754412,1.75441 -0.686024,0.68603 m -7.120858,7.12085 0.110801,-0.1108 m 18.767737,-18.36861 -0.189809,0.18981 m -8.934056,8.93405 1.358617,-1.35861 m -2.929116,2.92911 -0.94946,0.94946 m -6.917438,6.91744 0.539042,-0.53904 m 18.032481,-17.63336 -0.146188,0.14619 m -8.066181,8.06618 0.292029,-0.29203 m -2.373084,2.37308 -1.30026,1.30026 m -6.471302,6.4713 1.126495,-1.12649 m 16.964183,-16.56506 -0.139389,0.13939 m -11.429702,11.4297 0.206479,-0.20648 m -5.11544,5.11544 -1.093113,1.09311 m 20.95637,-20.55724 0.05091,-0.0509 m -3.349886,3.34989 -0.184956,0.18495 m -11.457699,11.4577 0.179853,-0.17985 m -4.075244,4.07524 -0.916242,0.91625 m 19.768532,-19.36941 0.05368,-0.0537 m -3.479616,3.47961 -0.0766,0.0766 m -11.441905,11.4419 0.154621,-0.15462 m -3.337851,3.33785 -0.317188,0.31719 m 18.460136,-18.06101 0.05644,-0.0564 m -3.517605,3.5176 -0.09954,0.0995 m -11.427119,11.42712 0.26078,-0.26078 m -2.841623,2.84162 -0.289071,0.28907 m 17.873007,-17.47388 0.05537,-0.0554 m -3.551759,3.55176 -0.07033,0.0703 m -11.464478,11.46448 0.246298,-0.2463 m -2.274444,2.27445 -0.172486,0.17248 m 17.2471,-16.84797 0.05382,-0.0538 m -3.638834,3.63883 -0.06647,0.0665 m -11.589137,11.58914 0.463711,-0.46371 m -1.698167,1.69816 -0.271025,0.27103 m 16.761374,-16.36225 0.05227,-0.0523 m -3.710561,3.71056 -0.07796,0.078 m -12.497059,12.49706 1.502178,-1.50218 m 14.797124,-14.398 -0.05072,0.0507 m -3.860916,3.86091 0.129347,-0.12934 m -10.94499,10.94499 -0.907521,0.90752 m 15.584007,-15.18489 0.06451,-0.0645 m -3.854015,3.85401 -0.144538,0.14454 m -11.121691,11.12169 0.511165,-0.51116 m 10.604962,-10.20584 -0.145308,0.14531 m -10.611621,10.61162 0.31278,-0.31278 m 10.438722,-10.0396 -0.464883,0.46488 m -4.53428,4.53428 0.601038,-0.60104 m -5.852692,5.85269 -0.164402,0.16441 m 9.549678,-9.15056 0.539613,-0.53961 m -3.319624,3.31962 -0.902436,0.90244 m -5.542832,5.54283 0.08168,-0.0817 m 9.352649,-8.95353 -3.480662,3.48066 m -5.662526,5.66253 0.05528,-0.0553 m 13.760474,-13.36136 -0.05556,0.0556 m -7.923984,7.92398 1.609381,-1.60938 m -7.091446,7.09145 -0.06906,0.0691 m 5.477344,-5.07822 0.774767,-0.77477 m -5.884189,5.88419 -0.09893,0.0989 m 4.493418,-4.09429 0.721978,-0.72198 m -4.823141,4.82314 -0.144778,0.14478 m 12.858755,-12.45963 0.07421,-0.0742 m -7.786527,7.78653 -0.921638,0.92164 m -3.977321,3.97732 0.173018,-0.17302 m 5.007315,-4.60819 -0.636395,0.63639 m -4.296461,4.29646 0.175231,-0.17523 m 12.135859,-11.73674 -0.279827,0.27983 m -7.279335,7.27934 0.579507,-0.57951 m -4.919971,4.91997 -0.163987,0.16399 m 11.757701,-11.35858 0.212993,-0.21299 m -6.434766,6.43476 -0.715639,0.71564 m -4.572812,4.57281 0.14351,-0.14351 m 11.518514,-11.11939 -0.801848,0.80185 m -6.049012,6.04901 1.112371,-1.11237 m -5.574356,5.57436 -0.123234,0.12323 m 9.945017,-9.54589 1.176221,-1.17623 m -4.851438,4.85144 -1.430633,1.43064 m -4.626628,4.62662 0.116364,-0.11636 m 10.783114,-10.38399 -4.636015,4.63601 m -1.382888,1.38289 0.241639,-0.24164 m -4.800181,4.80018 -0.109494,0.1095 m 7.213655,-6.81454 2.902128,-2.90212 m -5.031895,5.03189 -0.161904,0.16191 m -4.709444,4.70944 0.102623,-0.10262 m 4.982686,-4.58357 -0.121917,0.12192 m -4.750853,4.75085 0.09575,-0.0958 m 5.012654,-4.61353 -0.103607,0.10361 m -4.79226,4.79226 0.08587,-0.0859 m 5.045631,-4.64651 -0.116304,0.11631 m -4.802662,4.80266 0.06851,-0.0685 m 5.087302,-4.68818 -0.126048,0.12605 m -4.821601,4.8216 0.05552,-0.0555 m 5.118284,-4.71916 -0.125106,0.12511 m 0.227096,0.17202 0.124163,-0.12416 m 0.226153,0.17297 -0.12322,0.12322 m 0.185633,0.21349 0.16374,-0.16374 m -4.971579,4.97158 -0.05397,0.054 m 5.046982,-4.64786 0.181755,-0.18176 m -4.939172,4.93918 -0.07227,0.0723 m 5.014863,-4.61574 0.181249,-0.18125 m 0.184669,0.21445 -0.219775,0.21978 m -4.667078,4.66707 1.382691,-1.38269 m 3.670681,-3.27155 -1.187479,1.18747 m -3.618929,3.61893 1.484401,-1.4844 m 3.441605,-3.04248 -1.370447,1.37045 m -3.2019,3.2019 1.481308,-1.48131 m 3.099493,-2.70037 -1.475433,1.47543 m -1.592231,1.59223 0.313884,-0.31388 m 1.399446,-1.00033 -0.221185,0.22119 m -1.02265,1.02265 0.156902,-0.1569 m 1.047897,-0.64878 -0.758656,0.75866 m 0.392575,0.007 0.377835,-0.37784"
         inkscape:connector-curvature="0" />
    </g>
  </g>
</svg>
