<?xml version="1.0" encoding="UTF-8" standalone="no"?>
<!-- Created with Inkscape (http://www.inkscape.org/) -->

<svg
   xmlns:dc="http://purl.org/dc/elements/1.1/"
   xmlns:cc="http://creativecommons.org/ns#"
   xmlns:rdf="http://www.w3.org/1999/02/22-rdf-syntax-ns#"
   xmlns:svg="http://www.w3.org/2000/svg"
   xmlns="http://www.w3.org/2000/svg"
   xmlns:sodipodi="http://sodipodi.sourceforge.net/DTD/sodipodi-0.dtd"
   xmlns:inkscape="http://www.inkscape.org/namespaces/inkscape"
   width="75mm"
   height="75mm"
   viewBox="0 0 75 75"
   version="1.1"
   id="svg1586"
   inkscape:version="0.92.2 2405546, 2018-03-11"
   sodipodi:docname="75.svg">
  <sodipodi:namedview
     id="base"
     pagecolor="#ffffff"
     bordercolor="#666666"
     borderopacity="1.0"
     inkscape:pageopacity="0.0"
     inkscape:pageshadow="2"
     inkscape:zoom="3.3031093"
     inkscape:cx="121.03123"
     inkscape:cy="166.8714"
     inkscape:document-units="mm"
     inkscape:current-layer="layer1"
     showgrid="false"
     inkscape:window-width="1366"
     inkscape:window-height="703"
     inkscape:window-x="0"
     inkscape:window-y="0"
     inkscape:window-maximized="1" />
  <defs
     id="defs1580" />
  <metadata
     id="metadata1583">
    <rdf:RDF>
      <cc:Work
         rdf:about="">
        <dc:format>image/svg+xml</dc:format>
        <dc:type
           rdf:resource="http://purl.org/dc/dcmitype/StillImage" />
        <dc:title></dc:title>
      </cc:Work>
    </rdf:RDF>
  </metadata>
  <g
     transform="translate(0,-222)"
     id="layer1"
     inkscape:groupmode="layer"
     inkscape:label="Layer 1">
    <g
       id="g2001">
      <path
         id="path1976"
         d="m 45.237604,231.04636 c 0.296098,-0.77166 -0.1749,-2.79789 -0.548661,-2.36029 -0.0992,0.11616 -0.3399,0.87608 -0.53485,1.6887 -0.374671,1.56188 0.527341,2.12098 1.083511,0.67159 z"
         style="fill:none;stroke:#0000ff;stroke-width:0.1;stroke-miterlimit:4;stroke-dasharray:none" />
      <path
         id="path1974"
         d="m 38.588403,241.34198 c -0.4876,-0.83694 -1.36098,0.6387 -0.96031,1.62251 0.37431,0.91907 0.42182,0.91331 0.80998,-0.0982 0.22681,-0.59099 0.29445,-1.27693 0.15033,-1.5243 z"
         style="fill:none;stroke:#0000ff;stroke-width:0.1;stroke-miterlimit:4;stroke-dasharray:none" />
      <path
         id="path1972"
         d="m 53.756592,247.43407 c 0.775751,-0.29494 1.275681,-0.75431 1.11098,-1.02081 -0.41139,-0.66565 -4.063198,-0.6149 -4.063198,0.0565 0,0.29756 0.362648,0.40186 0.805878,0.23176 0.44323,-0.17008 0.805871,-0.0952 0.805871,0.16639 0,0.2616 -0.302199,0.59758 -0.67156,0.74662 -1.329251,0.53639 0.576141,0.36551 2.012029,-0.18044 z"
         style="fill:none;stroke:#0000ff;stroke-width:0.1;stroke-miterlimit:4;stroke-dasharray:none" />
      <path
         id="path1970"
         d="m 34.149653,229.70319 c 0,-0.2955 -0.24176,-0.53727 -0.53725,-0.53727 -0.29549,0 -0.53725,0.24177 -0.53725,0.53727 0,0.2955 0.24176,0.53727 0.53725,0.53727 0.29549,0 0.53725,-0.24177 0.53725,-0.53727 z"
         style="fill:none;stroke:#0000ff;stroke-width:0.1;stroke-miterlimit:4;stroke-dasharray:none" />
      <path
         id="path1968"
         d="m 36.567263,230.8225 c 0,-1.00962 -0.28317,-1.93007 -0.62928,-2.04544 -0.40269,-0.13424 -0.52355,0.19457 -0.33565,0.91312 0.17865,0.68318 -0.1003,1.55817 -0.71237,2.23453 -0.99291,1.09719 -0.98854,1.10918 0.33566,0.92256 1.13202,-0.15956 1.34164,-0.47592 1.34164,-2.02477 z"
         style="fill:none;stroke:#0000ff;stroke-width:0.1;stroke-miterlimit:4;stroke-dasharray:none" />
      <path
         id="path1966"
         d="m 32.846623,232.43384 c -0.51278,-0.56663 -0.85244,-1.59189 -0.75483,-2.27836 0.20257,-1.42454 2.56393,-2.78578 3.92587,-2.26313 1.28679,0.4938 1.96774,2.61812 1.35549,4.22855 -0.63516,1.67062 -3.14111,1.84388 -4.52653,0.31294 z"
         style="fill:none;stroke:#0000ff;stroke-width:0.1;stroke-miterlimit:4;stroke-dasharray:none" />
      <path
         id="path1964"
         d="m 55.712614,242.52693 c -1.07053,-0.40229 -1.162211,-0.60735 -0.583411,-1.30479 0.600339,-0.72339 0.784889,-0.72935 1.46681,-0.0474 1.142169,1.14221 0.632759,1.92194 -0.883399,1.35219 z"
         style="fill:none;stroke:#0000ff;stroke-width:0.1;stroke-miterlimit:4;stroke-dasharray:none" />
      <path
         id="path1962"
         d="m 58.057243,245.82126 c -0.578551,-0.93613 0.27898,-1.73478 1.11641,-1.03975 0.413681,0.34332 0.619641,0.83862 0.45771,1.10063 -0.391911,0.63415 -1.16301,0.60432 -1.57412,-0.0609 z"
         style="fill:none;stroke:#0000ff;stroke-width:0.1;stroke-miterlimit:4;stroke-dasharray:none" />
      <path
         id="path1960"
         d="m 49.885542,246.8958 c 0.18642,-0.71288 0.01651,-1.07454 -0.50487,-1.07454 -0.432228,0 -1.437079,-0.70199 -2.23302,-1.55997 -1.230659,-1.3266 -1.929368,-1.58781 -4.670639,-1.74612 -2.99966,-0.17323 -3.23542,-0.10221 -3.39518,1.02269 -0.19774,1.39246 -0.76521,1.53982 -1.68086,0.4365 -0.42186,-0.50834 -0.51532,-1.6103 -0.2734,-3.22362 0.36889,-2.46003 -0.0312,-3.03416 -1.25872,-1.80653 -0.48578,0.48579 -0.64471,0.4892 -0.64471,0.0138 0,-0.63608 2.6879,-2.27034 3.73407,-2.27034 0.31016,0 0.56393,0.24178 0.56393,0.53728 0,0.2955 -0.36265,0.53727 -0.80587,0.53727 -1.21559,0 -1.01153,2.53847 0.25871,3.2183 0.58552,0.31338 2.249601,0.65281 3.697959,0.7543 2.880691,0.20186 3.742831,0.56773 4.804082,2.03878 0.524148,0.72654 1.41659,0.97311 3.522059,0.97311 2.164401,0 3.243289,0.31228 4.64053,1.34318 2.121019,1.56489 2.835709,1.65423 3.99101,0.49889 1.115941,-1.11599 1.06585,-2.12614 -0.1636,-3.29862 -0.55431,-0.52865 -1.16672,-1.47904 -1.360911,-2.112 -0.354748,-1.15627 -1.72121,-1.78317 -3.916579,-1.7968 -0.71763,-0.005 -1.755159,-0.7595 -2.642691,-1.92316 -1.42377,-1.86675 -4.77344,-3.99414 -6.288918,-3.99414 -1.087162,0 -3.586792,-2.65885 -3.586792,-3.81526 0,-1.07966 1.862032,-2.33549 2.697361,-1.81922 0.916569,0.5665 0.567409,-0.39434 -0.414049,-1.13938 -0.517102,-0.39256 -1.97285,-0.72143 -3.23501,-0.73083 -1.918021,-0.0143 -2.395311,-0.23763 -2.906791,-1.36025 -1.05088,-2.30652 -3.37578,-1.82902 -6.2987,1.29365 -1.35749,1.45026 -3.71357,3.25553 -5.23573,4.01171 -6.49016,3.22421 -6.75649,7.58188 -0.72455,11.85515 4.86801,3.4487 9.17609,4.72621 14.2371,4.22188 1.89213,-0.18856 3.639189,0.0606 5.90974,0.84256 3.986681,1.37312 3.84537,1.37069 4.185039,0.0717 z"
         style="fill:none;stroke:#0000ff;stroke-width:0.1;stroke-miterlimit:4;stroke-dasharray:none" />
      <path
         id="path1958"
         d="m 38.135073,248.71876 c 1.58591,-0.6086 0.85886,-1.18366 -1.97074,-1.55878 -1.55131,-0.20565 -4.22294,-0.83946 -5.93697,-1.40847 -1.71402,-0.56901 -3.34592,-0.8927 -3.62643,-0.71933 -2.25061,1.39101 2.56347,4.01165 7.37046,4.01227 1.82263,2.3e-4 3.69629,-0.14633 4.16368,-0.32569 z"
         style="fill:none;stroke:#0000ff;stroke-width:0.1;stroke-miterlimit:4;stroke-dasharray:none" />
      <path
         id="path1956"
         d="m 39.044293,253.04367 c 1.28469,-0.66435 1.583399,-1.13451 1.450761,-2.28339 -0.130631,-1.13143 -0.401241,-1.39552 -1.241541,-1.21167 -0.59097,0.1293 -3.0086,0.25019 -5.37249,0.26863 -3.5606,0.0278 -4.65719,-0.17875 -6.39166,-1.20379 -1.31731,-0.77853 -2.28227,-1.04872 -2.60231,-0.72866 -1.03866,1.03871 -0.043,2.54983 2.79896,4.24818 2.47778,1.48067 3.44408,1.74732 6.33224,1.74732 2.03439,0 4.06038,-0.33723 5.02604,-0.83662 z"
         style="fill:none;stroke:#0000ff;stroke-width:0.1;stroke-miterlimit:4;stroke-dasharray:none" />
      <path
         id="path1954"
         d="m 32.890603,258.42171 c 0.19285,-0.5026 0.87656,-0.7892 1.72919,-0.72489 4.63573,0.34974 7.051339,-0.86569 7.051339,-3.54789 0,-1.57165 -0.157919,-1.61649 -1.831309,-0.52 -3.27042,2.14293 -11.35734,1.19467 -14.47627,-1.69746 -1.56474,-1.45097 -2.40219,-1.60753 -2.81695,-0.52663 -0.25275,0.65869 1.47027,2.6303 5.42468,6.20733 1.9292,1.74509 4.40405,2.15236 4.91932,0.80954 z"
         style="fill:none;stroke:#0000ff;stroke-width:0.1;stroke-miterlimit:4;stroke-dasharray:none" />
      <path
         id="path1952"
         d="m 34.686903,259.25298 c 0,-0.2955 -0.24177,-0.53727 -0.53725,-0.53727 -0.29549,0 -0.53725,0.24177 -0.53725,0.53727 0,0.2955 0.24176,0.53727 0.53725,0.53727 0.29548,0 0.53725,-0.24177 0.53725,-0.53727 z"
         style="fill:none;stroke:#0000ff;stroke-width:0.1;stroke-miterlimit:4;stroke-dasharray:none" />
      <path
         id="path1950"
         d="m 21.828233,263.53224 c 0.57155,-0.3059 1.04435,-0.97076 1.05065,-1.4775 0.007,-0.50672 1.00394,-1.62385 2.21695,-2.4825 l 2.20549,-1.56118 -1.29768,-0.67995 c -0.71372,-0.37397 -1.64364,-1.3264 -2.06648,-2.11651 -0.63469,-1.18599 -1.05274,-1.39332 -2.3967,-1.18868 -0.89536,0.13633 -1.93012,0.13919 -2.29948,0.007 -0.92115,-0.33127 -0.84959,-1.1245 0.0932,-1.03249 0.74684,0.0729 4.794,-5.02229 4.34552,-5.47079 -0.61196,-0.61199 -5.18785,2.86045 -6.62126,5.02459 -3.01885,4.55782 -2.63115,9.38575 0.75373,9.38575 1.12245,0 1.30595,0.1922 1.02591,1.07454 -0.26828,0.84531 -0.0965,1.07455 0.80499,1.07455 0.6303,0 1.61365,-0.25028 2.1852,-0.55619 z"
         style="fill:none;stroke:#0000ff;stroke-width:0.1;stroke-miterlimit:4;stroke-dasharray:none" />
      <path
         id="path1948"
         d="m 33.328013,262.61676 c 0.42138,-1.67896 0.15943,-1.90741 -3.13732,-2.73621 -2.48448,-0.6246 -2.70705,-0.58804 -4.4323,0.72792 -0.99906,0.76204 -1.81648,1.50011 -1.81648,1.64014 0,0.76942 6.55153,2.34138 8.14755,1.95491 0.49208,-0.11914 1.04942,-0.83319 1.23855,-1.58676 z"
         style="fill:none;stroke:#0000ff;stroke-width:0.1;stroke-miterlimit:4;stroke-dasharray:none" />
      <path
         id="path1946"
         d="m 42.243703,268.90492 c 1.50377,-0.80482 1.284431,-1.67492 -0.320669,-1.27205 l -1.359842,0.3413 1.225542,-1.92323 c 0.674039,-1.05778 1.5939,-2.05189 2.044128,-2.20913 1.631292,-0.56974 3.748141,-4.66574 3.746011,-7.2484 -0.0021,-2.6771 -0.92524,-4.4942 -3.90271,-7.68285 -2.674869,-2.86459 -4.75855,-2.6537 -2.840961,0.28753 1.333021,2.04459 1.8445,5.42717 1.09148,7.21817 -0.705228,1.6773 -1.698779,2.29945 -3.672059,2.29945 -2.97031,0 -4.82403,3.41413 -3.53866,6.5174 0.72986,1.76212 3.93963,4.22799 5.50346,4.22799 0.541809,0 1.45273,-0.25028 2.02428,-0.55618 z"
         style="fill:none;stroke:#0000ff;stroke-width:0.1;stroke-miterlimit:4;stroke-dasharray:none" />
      <path
         id="path1944"
         d="m 39.200383,271.13395 c 0.89455,-0.35094 0.80849,-0.48888 -0.69313,-1.11089 -0.94298,-0.39061 -2.51372,-1.64393 -3.49053,-2.78516 -1.57618,-1.84147 -2.04978,-2.07495 -4.20887,-2.07495 -1.33807,0 -3.48838,-0.37243 -4.77847,-0.82762 -4.47524,-1.57901 -6.47265,1.3483 -2.66621,3.90746 3.8902,2.61548 12.52288,4.19142 15.83721,2.89116 z"
         style="fill:none;stroke:#0000ff;stroke-width:0.1;stroke-miterlimit:4;stroke-dasharray:none" />
      <path
         id="path1942"
         d="m 39.850783,274.64981 c 2.142,-1.84253 1.48759,-3.15783 -1.20167,-2.41526 -3.34059,0.92241 -9.32976,-0.054 -15.37876,-2.50712 -1.43568,-0.58223 -1.20489,1.44676 0.32841,2.88726 2.15716,2.02663 6.11568,3.24091 10.65524,3.26851 3.58138,0.0217 4.32921,-0.14304 5.59678,-1.23339 z"
         style="fill:none;stroke:#0000ff;stroke-width:0.1;stroke-miterlimit:4;stroke-dasharray:none" />
      <path
         id="path1940"
         d="m 37.238833,279.32789 c 2.45495,-1.53939 1.49759,-2.22253 -3.49212,-2.49186 -2.58552,-0.13957 -5.24489,-0.43359 -5.90974,-0.6534 -1.64686,-0.54445 -1.61089,0.77246 0.0641,2.34608 2.35766,2.21499 6.51275,2.57061 9.33777,0.79918 z"
         style="fill:none;stroke:#0000ff;stroke-width:0.1;stroke-miterlimit:4;stroke-dasharray:none" />
      <path
         id="path1938"
         d="m 49.461254,281.87965 c 1.43411,-1.02332 2.774529,-2.74645 4.029368,-5.17983 1.842871,-3.57369 1.875502,-3.7492 1.636361,-8.8005 -0.519351,-10.96956 -0.42753,-12.08471 1.181121,-14.34433 1.356979,-1.90611 1.39695,-2.0996 0.502108,-2.43064 -1.304798,-0.48269 -5.11896,0.25419 -6.709198,1.2962 -1.112452,0.72892 -1.326082,1.39237 -1.595501,4.95489 -0.280379,3.70731 -0.1773,4.36088 1.04435,6.62198 1.19426,2.21039 1.32298,2.96444 1.082511,6.3413 -0.31115,4.3695 -1.23947,6.53857 -4.108241,9.59912 -1.10793,1.182 -2.17391,2.60327 -2.368849,3.15839 -0.31369,0.89327 -0.152601,0.96951 1.401259,0.66308 0.96564,-0.19043 2.722759,-1.03627 3.904711,-1.87966 z"
         style="fill:none;stroke:#0000ff;stroke-width:0.1;stroke-miterlimit:4;stroke-dasharray:none" />
      <path
         id="path1936"
         d="m 43.556772,294.69617 c 0.29069,-0.91594 0.641501,-1.03572 2.185191,-0.7461 1.77681,0.33333 1.838921,0.28796 1.838921,-1.34346 0,-1.00524 0.326088,-1.81361 0.80587,-1.99773 1.47855,-0.56739 0.832088,-1.7599 -1.981081,-3.65445 -1.884111,-1.26889 -2.987899,-1.71015 -3.40724,-1.36212 -1.005319,0.83437 -1.356421,-0.0586 -0.502449,-1.2778 1.005218,-1.43521 1.004498,-2.15742 -0.0021,-1.77126 -0.433761,0.16645 -0.929711,0.0744 -1.10208,-0.20447 -0.17237,-0.27892 0.65358,-0.89404 1.835428,-1.36696 6.135643,-2.45508 8.584631,-12.50469 4.479391,-18.38142 -0.36762,-0.52626 -0.981049,-0.23632 -2.56005,1.21003 -1.61299,1.4775 -1.932909,2.0458 -1.43305,2.54568 0.96534,0.96538 0.786641,1.79191 -0.690308,3.19291 -0.857242,0.81316 -1.337162,1.86328 -1.343131,2.93892 -0.006,0.92051 -0.44867,2.25026 -0.9857,2.95497 -0.53704,0.70473 -1.27866,2.03571 -1.64806,2.95775 -0.830201,2.07221 -2.53521,2.89036 -6.02346,2.89036 -3.505281,0 -5.722341,-1.19352 -6.840191,-3.68229 -0.49388,-1.09957 -1.80458,-2.90488 -2.912659,-4.0118 -1.31329,-1.31191 -2.01468,-2.50743 -2.01468,-3.43402 0,-2.01949 -1.13486,-4.89816 -2.07292,-5.25814 -1.482591,-0.56896 -1.741581,0.95845 -0.9135,5.38755 0.167319,0.89492 1.19007,2.94998 2.2728,4.56679 2.43324,3.63352 5.092419,8.67925 4.753,9.01869 -0.138971,0.13898 -0.624091,-0.0556 -1.078051,-0.43234 -0.681969,-0.56602 -1.237199,-0.46655 -3.195599,0.57241 -2.00125,1.06169 -2.28832,1.41049 -1.84408,2.24057 0.28937,0.54072 0.37124,1.47114 0.18193,2.06763 -0.24286,0.76521 0.0647,1.46346 1.04474,2.37176 0.76391,0.70799 1.38893,1.78235 1.38893,2.38745 0,1.49088 0.68866,1.38644 3.291569,-0.49917 1.21428,-0.87965 3.085841,-1.75737 4.15903,-1.9505 2.8147,-0.5065 3.29438,-1.0961 3.29438,-4.04921 0,-2.28616 -0.176509,-2.7125 -1.34312,-3.24406 -0.73871,-0.33661 -1.34312,-0.84083 -1.34312,-1.1205 0,-0.29237 0.39964,-0.32302 0.94018,-0.0721 0.517111,0.24001 1.846801,0.41093 2.954871,0.37979 2.146529,-0.0603 2.727699,0.5988 0.94019,1.06628 -0.892721,0.23345 -1.074501,0.73282 -1.074501,2.95184 0,2.82879 0.46659,3.51999 2.74199,4.06205 0.769361,0.18326 2.340821,1.40268 3.492111,2.70982 2.345899,2.6634 3.203361,2.98388 3.710271,1.38668 z"
         style="fill:none;stroke:#0000ff;stroke-width:0.1;stroke-miterlimit:4;stroke-dasharray:none" />
      <path
         id="path1476"
         d="m 39.614163,294.48861 c -2.83436,-2.88987 -5.98978,-4.3869 -7.56136,-3.58736 -0.47191,0.24009 -1.63512,0.58369 -2.5849,0.76357 -0.94978,0.17988 -2.73883,1.06012 -3.97567,1.95612 -2.83822,2.05607 -4.11321,2.09864 -4.53983,0.15158 -0.56675,-2.58661 -0.71588,-2.82067 -1.79717,-2.82067 -1.46951,0 -1.78647,-0.74708 -1.02552,-2.41725 0.50323,-1.10449 0.50476,-1.65333 0.007,-2.45068 -0.8819,-1.41221 -0.92545,-1.34603 1.73254,-2.63278 3.76677,-1.82353 3.80498,-2.04866 1.04567,-6.16195 -3.32939,-4.96314 -3.95708,-6.66786 -3.95708,-10.74692 0,-2.89219 -0.17682,-3.58523 -1.03147,-4.04264 -1.566161,-0.83822 -2.365561,-3.8305 -1.691791,-6.33276 0.83297,-3.09357 3.4357,-6.68518 5.94235,-8.20012 4.33254,-2.61844 5.56523,-3.49642 5.76517,-4.10618 0.11137,-0.33963 -0.77143,-1.30672 -1.96175,-2.14907 -5.51897,-3.90561 -4.62674,-9.97606 1.88984,-12.85811 1.65163,-0.73046 3.49388,-2.09244 4.46513,-3.30106 3.04587,-3.79033 6.6054,-4.64235 7.83696,-1.87587 0.54915,1.23359 1.1323,1.43295 3.624571,1.23914 2.39308,-0.18611 4.17245,2.02827 4.17245,5.1925 0,2.48231 0.0862,2.63404 1.86286,3.27648 1.024559,0.3705 2.717549,1.6722 3.76219,2.89267 1.51003,1.7642 2.36389,2.28145 4.165888,2.52359 1.628061,0.21876 2.43564,0.64406 2.866811,1.50971 0.330139,0.66284 1.001879,1.64896 1.49275,2.19139 2.146429,2.37185 0.0941,6.41011 -2.948541,5.80156 -0.869058,-0.17382 -2.66678,-0.0254 -3.99493,0.32986 -2.006529,0.53669 -2.97892,0.49839 -5.751108,-0.22651 -1.834962,-0.47982 -3.376832,-0.83452 -3.426402,-0.78821 -0.0496,0.0464 0.805471,1.13448 1.900042,2.41815 l 1.99014,2.33398 2.321028,-1.20984 c 2.844081,-1.48246 6.63425,-1.67845 7.904282,-0.40873 0.843989,0.84379 0.7913,1.06705 -0.82427,3.49224 l -1.725911,2.59084 0.372001,7.85737 c 0.468649,9.89864 -0.14275,12.20671 -4.347342,16.41145 -1.546788,1.54684 -3.443949,2.97098 -4.215908,3.16473 -1.875911,0.47084 -1.769491,0.99654 0.48359,2.38908 1.03795,0.6415 2.158058,1.67255 2.48915,2.2912 0.499599,0.93356 0.407079,1.28266 -0.54405,2.05287 -0.630312,0.51041 -1.146022,1.2926 -1.146022,1.73818 0,1.83293 -0.672099,2.50985 -2.491949,2.50985 -1.095311,0 -1.95844,0.3093 -2.13307,0.76436 -0.61054,1.5911 -1.742901,1.19989 -4.4162,-1.52576 z"
         style="fill:none;stroke:#ff0000;stroke-width:0.1;stroke-miterlimit:4;stroke-dasharray:none" />
      <path
         id="path1920"
         style="fill:none;stroke:#0000ff;stroke-width:0.1"
         d="m 22.62834,231.00308 -0.351141,0.35115 m -0.49108,0.8902 1.823901,-1.8239 m 1.044616,-0.6455 -3.407168,3.40717 m -0.318128,0.71725 4.785786,-4.78578 m 0.543011,-0.14389 -1.956402,1.9564 m -3.490351,3.49035 1.001256,-1.00126 m 5.250707,-4.85158 -1.742572,1.74257 m -4.628393,4.6284 0.402818,-0.40282 m 11.413609,-11.01449 -6.097856,6.09786 m -5.747199,5.7472 0.336205,-0.33621 m 12.64207,-12.24295 -6.018971,6.01897 m -6.987479,6.98748 0.288929,-0.28893 m 13.11211,-12.71298 -5.013169,5.01317 m -8.354224,8.35422 0.283753,-0.28375 m 13.82459,-13.42547 -4.306795,4.30679 m -9.783088,9.78309 0.278858,-0.27886 m 14.24423,-13.8451 -1.432343,1.43234 m -13.010139,13.01014 0.273788,-0.27379 m 14.715972,-14.31685 -0.781729,0.78173 m -14.127425,14.12743 0.266188,-0.26619 m 14.949911,-14.55079 -0.559508,0.55951 m -14.575741,14.57574 0.280268,-0.28027 m 15.195489,-14.79637 -0.484872,0.48488 m -14.872752,14.87275 0.277906,-0.27791 m 15.383198,-14.98407 -0.405728,0.40572 m -15.137244,15.13725 0.275544,-0.27555 m 15.520756,-15.12163 -0.369875,0.36988 m -15.308078,15.30807 0.292345,-0.29234 m 15.618527,-15.21941 -0.301782,0.30179 m -15.459586,15.45958 0.291052,-0.29105 m 15.68196,-15.28284 -0.284919,0.28492 m -15.538589,15.53859 0.289758,-0.28976 m 15.709166,-15.31004 -0.243752,0.24375 m -15.605668,15.60567 0.29641,-0.29641 m 15.712324,-15.3132 -0.186482,0.18648 m -15.654031,15.65403 0.30201,-0.30201 m 15.678528,-15.27941 -0.167966,0.16797 m -15.635874,15.63588 0.299131,-0.29914 m 15.651632,-15.25251 -0.16277,0.16277 m -5.327512,5.32752 0.923237,-0.92324 m -10.910767,10.91077 -0.296252,0.29625 m 15.758032,-15.35891 0.166283,-0.16628 m -4.081907,4.0819 -1.72383,1.72383 m -9.940349,9.94035 0.305593,-0.30559 m 15.590743,-15.19162 -0.162676,0.16267 m -4.287266,4.28727 0.819632,-0.81963 m -1.857386,1.85738 -0.465035,0.46504 m -9.742618,9.74262 0.299285,-0.29929 m 15.579576,-15.18045 -0.198871,0.19887 m -4.181382,4.18138 0.989003,-0.989 m -2.134047,2.13405 -0.58166,0.58166 m -9.570918,9.57091 0.292977,-0.29297 m 15.594182,-15.19506 -0.244356,0.24435 m -4.164793,4.1648 1.215312,-1.21532 m -2.322012,2.32202 -0.742172,0.74217 m -9.428152,9.42815 0.286669,-0.28667 m 15.669015,-15.26989 -0.290017,0.29002 m -4.250796,4.25079 1.423001,-1.423 m -2.40628,2.40628 -0.882722,0.88272 m -9.344652,9.34466 0.288419,-0.28842 m 15.758409,-15.35929 -0.361528,0.36153 m -6.219931,6.21993 3.422746,-3.42275 m -12.387595,12.3876 -0.277296,0.27729 m 15.803919,-15.40479 0.368003,-0.36801 m -3.270487,3.27049 -0.179197,0.1792 m -3.330743,3.33074 2.430697,-2.4307 m -11.332794,11.3328 -0.266173,0.26617 m 15.89792,-15.4988 0.399096,-0.39909 m -3.418521,3.41852 -0.165898,0.1659 m -3.380248,3.38024 2.327383,-2.32738 m -11.181458,11.18146 -0.25505,0.25505 m 16.057104,-15.65798 0.382472,-0.38247 m -3.611747,3.61174 -0.213597,0.2136 m -3.303889,3.30389 2.149436,-2.14944 m -10.988486,10.98849 -0.248069,0.24807 m 16.213653,-15.81453 0.418452,-0.41845 m -3.87087,3.87087 -0.246176,0.24617 m -3.214911,3.21491 1.836809,-1.83681 m -10.661926,10.66193 -0.250958,0.25096 m 16.369353,-15.97023 0.454431,-0.45443 m -4.162508,4.16251 -0.299657,0.29965 m -3.056339,3.05634 1.279457,-1.27946 m -10.106817,10.10682 -0.253756,0.25376 m 16.520002,-16.12088 0.5214,-0.5214 m -4.487404,4.4874 -0.340355,0.34036 m -2.871686,2.87168 0.760846,-0.76084 m -9.622085,9.62208 -0.256553,0.25655 m 16.670522,-16.2714 0.518657,-0.51865 m -4.78237,4.78237 -0.39189,0.39189 m -11.7944,11.7944 0.262996,-0.263 m 17.087215,-16.68809 -0.525523,0.52552 m -4.996485,4.99649 0.434007,-0.43401 m -11.764947,11.76495 -0.293756,0.29375 m 16.950256,-16.55113 0.548914,-0.54892 m -5.422426,5.42243 -0.474495,0.4745 m -11.398741,11.39874 0.330439,-0.33044 m -6.66429,6.66429 -1.392518,1.39252 m 24.814125,-24.41501 0.512158,-0.51215 m -5.669428,5.66942 -0.577461,0.57746 m -1.574251,1.57426 0.06123,-0.0612 m -9.269374,9.26937 -0.367122,0.36712 m -8.73258,8.73255 3.186344,-3.18634 m 23.247545,-22.84843 -0.493057,0.49306 m -7.273584,7.27359 1.685289,-1.68529 m -11.012645,11.01264 -0.430954,0.43096 m -9.723549,9.72355 4.926846,-4.92685 m 22.568326,-22.1692 -0.430618,0.43061 m -7.003701,7.0037 0.932317,-0.93231 m -10.598477,10.59847 -0.498481,0.49848 m -10.480637,10.48064 7.179319,-7.17932 m 21.14695,-20.74782 -0.368179,0.36817 m -17.3306,17.3306 0.591819,-0.59181 m -3.627059,3.62706 -2.259455,2.25945 m -5.635559,5.63556 1.648343,-1.64834 m 27.210997,-26.81188 -0.326897,0.3269 m -21.188817,21.18882 4.418638,-4.41864 m -11.162284,11.16228 -0.919656,0.91966 m 29.116453,-28.71733 0.261922,-0.26193 m -17.056491,17.0565 -4.027179,4.02718 m -8.49341,8.4934 0.874665,-0.87466 m 28.901773,-28.50265 -0.229041,0.22904 m -20.607068,20.60707 3.835641,-3.83564 m -12.159312,12.15931 -0.803231,0.80323 m 29.939559,-29.54044 0.201706,-0.2017 m -1.631976,1.63197 -0.943909,0.94391 m -18.185691,18.18569 3.838236,-3.83823 m -12.594956,12.59495 -0.856766,0.85677 m 30.378946,-29.97982 0.153168,-0.15317 m -1.232601,1.2326 -1.605541,1.60554 m -15.176059,15.17606 1.18919,-1.18919 m -2.14354,2.14354 -1.949864,1.94986 m -9.552762,9.55277 0.669281,-0.66929 m 29.958948,-29.55982 -0.120924,0.12092 m -2.818627,2.81863 1.974777,-1.97478 m -15.761906,15.76191 -0.995598,0.9956 m -3.674737,3.67473 2.25861,-2.25861 m -10.933333,10.93334 -0.580525,0.58052 m 30.686442,-30.28732 0.101984,-0.10198 m -0.799241,0.79924 -2.14223,2.14223 m -14.544734,14.54473 0.878743,-0.87874 m -2.550941,2.55094 -2.698979,2.69898 m -4.298025,4.29803 0.224483,-0.22449 m -4.389767,4.38977 -0.489187,0.48919 m 30.8638,-30.46468 0.06227,-0.0623 m -0.622028,0.62203 -2.301395,2.3014 m -14.330924,14.33092 0.786072,-0.78607 m -2.648551,2.64855 -0.725983,0.72599 m -6.215021,6.21501 5.19255,-5.19255 m -9.558707,9.55871 -0.476144,0.47615 m 28.140237,-27.74112 2.876089,-2.87609 m -16.329106,16.32911 -0.729093,0.72909 m -2.603586,2.60359 0.618118,-0.61812 m -2.019762,2.01976 -4.864197,4.8642 m -5.079246,5.07925 0.45405,-0.45405 m 30.684634,-30.28552 -0.355866,0.35587 m -2.477392,2.47739 1.554551,-1.55455 m -14.908523,14.90852 -0.688862,0.68887 m -2.578659,2.57865 0.47817,-0.47817 m -2.185442,2.18545 -4.507606,4.5076 m -5.403128,5.40313 0.375483,-0.37548 m 30.736029,-30.33691 -0.230005,0.23001 m -2.467365,2.46736 1.161776,-1.16178 m -14.416704,14.41671 -0.648632,0.64863 m -2.614847,2.61485 0.435207,-0.43521 m -2.292928,2.29293 -0.868066,0.86806 m -3.404654,3.40466 2.11748,-2.11748 m -7.430766,7.43076 -0.386081,0.38609 m 30.923244,-30.52413 0.196117,-0.19611 m -1.701108,1.7011 -0.895395,0.8954 m -7.468964,7.46896 1.042825,-1.04282 m -6.729744,6.72974 -0.608401,0.6084 m -2.639833,2.63984 0.385026,-0.38503 m -2.397806,2.39781 -0.697432,0.69743 m -3.286643,3.28664 1.800332,-1.80033 m -7.534317,7.53432 -0.323022,0.32302 m 30.973724,-30.5746 0.154534,-0.15454 m -1.870754,1.87076 -0.624883,0.62488 m -7.088581,7.08858 1.022275,-1.02227 m -6.990532,6.99053 -0.568171,0.56817 m -2.680919,2.68092 0.350946,-0.35095 m -2.472113,2.47212 -0.584148,0.58414 m -3.131786,3.13179 1.487419,-1.48742 m -7.576495,7.5765 -0.298592,0.29859 m 30.917993,-30.51887 0.115181,-0.11518 m -1.839717,1.83971 -0.476336,0.47634 m -6.242003,6.242 0.84453,-0.84453 m -7.572101,7.5721 -0.527941,0.52794 m -2.734179,2.73418 0.32904,-0.32904 m -2.532933,2.53294 -0.507523,0.50752 m -2.953759,2.95376 1.227004,-1.22701 m -7.659807,7.65981 -0.285525,0.28553 m 30.862261,-30.46314 0.09552,-0.0955 m -1.773544,1.77355 -0.356772,0.35677 m -6.227698,6.2277 1.23166,-1.23166 m -7.91212,7.91212 -0.48771,0.48771 m -2.787439,2.78744 0.33223,-0.33223 m -2.618848,2.61885 -0.452454,0.45245 m -2.753531,2.75353 0.964968,-0.96497 m -7.714342,7.71435 -0.289092,0.28909 m 30.775223,-30.3761 0.09762,-0.0976 m -1.649075,1.64908 -0.297127,0.29712 m -6.322535,6.32254 1.5869,-1.5869 m -8.099144,8.09914 -0.460184,0.46019 m -2.839955,2.83995 0.346906,-0.3469 m -2.687161,2.68716 -0.43925,0.43925 m -2.540367,2.54036 0.702773,-0.70277 m -7.757946,7.75795 -0.278608,0.27861 m 30.528274,-30.12916 0.209004,-0.209 m -1.433518,1.43352 -0.302918,0.30292 m -5.086609,5.0866 0.348573,-0.34857 m -1.591693,1.59169 -0.129278,0.12928 m -6.735787,6.73579 0.443245,-0.44325 m -2.973399,2.9734 -0.357535,0.35754 m -2.823986,2.82398 0.425788,-0.42578 m -2.312413,2.31241 -0.52064,0.52064 m -7.549035,7.54903 0.295074,-0.29507 m 30.315029,-29.91591 -1.535063,1.53507 m -6.634426,6.63442 0.08568,-0.0857 m -6.119568,6.11957 -0.426306,0.4263 m -2.935423,2.93542 0.368163,-0.36816 m -2.824303,2.8243 -0.412327,0.41233 m -2.302763,2.30277 0.367107,-0.36711 m -7.778563,7.77856 -0.295408,0.29541 m 29.120411,-28.72129 1.33369,-1.33369 m -8.030272,8.03027 -0.188693,0.1887 m -6.109179,6.10917 0.409367,-0.40936 m -3.018324,3.01832 -0.374199,0.3742 m -2.912949,2.91295 0.423194,-0.42319 m -2.400796,2.40079 -0.276362,0.27636 m -7.797456,7.79746 0.310011,-0.31001 m 30.045642,-29.64652 -1.162516,1.16252 m -7.175012,7.17501 0.289454,-0.28946 m -5.655185,5.65519 -0.392429,0.39243 m -3.03089,3.03089 0.415155,-0.41516 m -2.933792,2.93379 -0.438609,0.43861 m -2.257093,2.2571 0.254533,-0.25454 m -7.750165,7.75017 -0.325483,0.32548 m 29.253179,-28.85406 0.923456,-0.92345 m -7.935307,7.9353 -0.489536,0.48954 m -5.373007,5.37301 0.38427,-0.38427 m -3.006784,3.00678 -0.43597,0.43597 m -3.021641,3.02164 0.453981,-0.45398 m -2.481541,2.48154 -0.232704,0.23271 m -7.809767,7.80976 0.331435,-0.33143 m 29.731362,-29.33224 -0.719481,0.71948 m -7.828923,7.82892 0.613259,-0.61326 m -5.291489,5.29149 -0.373567,0.37357 m -3.061656,3.06166 0.432364,-0.43237 m -3.073467,3.07347 -0.469354,0.46935 m -2.320787,2.32079 0.268227,-0.26823 m -7.651795,7.6518 -0.357499,0.3575 m 29.453871,-29.05475 0.526749,-0.52675 m -7.907562,7.90756 -0.834934,0.83494 m -4.691717,4.69171 0.3823,-0.3823 m -3.018369,3.01837 -0.428758,0.42876 m -3.176477,3.17648 0.461929,-0.46193 m -2.562286,2.56228 -0.30881,0.30881 m -7.674359,7.67436 0.418803,-0.4188 m 29.517832,-29.11871 -0.35635,0.35635 m -8.610563,8.61056 1.04678,-1.04678 m -4.988197,4.9882 -0.391034,0.39104 m -3.068,3.06799 0.415772,-0.41577 m -3.203763,3.20377 -0.45371,0.45371 m -2.498828,2.49882 0.349879,-0.34987 m -7.46634,7.46634 -0.490674,0.49067 m 29.665915,-29.26679 0.281076,-0.28108 m -12.819119,12.81912 -0.399768,0.39977 m -3.078703,3.0787 0.450805,-0.4508 m -3.304709,3.3047 -0.44549,0.44549 m -2.584813,2.58482 0.387272,-0.38727 m -7.305673,7.30567 -0.663466,0.66347 m 29.779561,-29.38044 0.23293,-0.23293 m -12.746773,12.74677 -0.390512,0.39051 m -3.017379,3.01738 0.395821,-0.39582 m -3.402256,3.40225 -0.40974,0.40974 m -2.701726,2.70173 0.424665,-0.42466 m -7.136617,7.13661 -0.903055,0.90306 m 29.951616,-29.5525 0.217629,-0.21762 m -7.962131,7.96213 -0.121489,0.12149 m -5.001442,5.00144 0.379687,-0.37969 m -2.998372,2.99837 -0.372271,0.37227 m -3.502869,3.50287 0.393414,-0.39341 m -2.748648,2.74865 -0.451518,0.45151 m -7.671268,7.67127 1.165449,-1.16545 m 29.17313,-28.774 -0.240126,0.24012 m -8.117926,8.11793 0.40355,-0.40355 m -1.878069,1.87807 -0.06552,0.0655 m -3.13475,3.13475 0.396746,-0.39674 m -3.012558,3.01256 -0.348722,0.34872 m -3.589563,3.58956 0.377088,-0.37709 m -2.807158,2.80716 -0.464852,0.46485 m -7.759297,7.7593 1.41986,-1.41986 m 29.102966,-28.70384 -0.261342,0.26134 m -8.460154,8.46015 0.788214,-0.78821 m -2.057723,2.05772 -0.05248,0.0525 m -2.937132,2.93713 0.413806,-0.41381 m -3.018159,3.01816 -0.333757,0.33376 m -3.676258,3.67626 0.360763,-0.36076 m -2.858225,2.85822 -0.485632,0.48563 m -7.897431,7.89743 1.558713,-1.55871 m 29.190097,-28.79097 -0.274189,0.27418 m -8.810854,8.81086 1.199246,-1.19925 m -2.193313,2.19332 -0.07802,0.078 m -2.762887,2.76289 0.430865,-0.43087 m -3.020556,3.02056 -0.286599,0.2866 m -3.798349,3.79835 0.344437,-0.34444 m -2.909289,2.90929 -0.490073,0.49007 m -8.051905,8.05191 1.392006,-1.39201 m 29.575553,-29.17643 -0.279801,0.2798 m -9.939232,9.93923 2.404453,-2.40445 m -4.589689,4.58969 -0.447925,0.44792 m -2.81668,2.81668 0.268007,-0.268 m -3.858126,3.85812 -0.328111,0.32812 m -3.119405,3.1194 0.487161,-0.48716 m -7.467557,7.46756 -1.23697,1.23697 m 30.904531,-30.50541 0.285412,-0.28541 m -7.76076,7.76076 -0.473848,0.47384 m -2.046322,2.04633 0.666353,-0.66636 m -2.706853,2.70685 -0.462936,0.46294 m -2.757071,2.75707 0.249416,-0.24941 m -3.978356,3.97835 -0.280737,0.28074 m -3.212318,3.21232 0.484249,-0.48425 m -7.600734,7.60073 -1.301079,1.30108 m 31.15604,-30.75692 0.280406,-0.2804 m -7.665187,7.66518 -0.382833,0.38284 m -2.240638,2.24064 0.272381,-0.27239 m -2.17568,2.17568 -0.513963,0.51397 m -2.697462,2.69746 0.230825,-0.23083 m -4.071161,4.07117 -0.255242,0.25524 m -3.278889,3.27889 0.44945,-0.44945 m -7.659897,7.65989 -1.439205,1.43921 m 31.407551,-31.00843 0.256023,-0.25602 m -7.550236,7.55023 -0.33717,0.33717 m -4.720692,4.72069 0.56499,-0.56499 m -3.003273,3.00328 -0.199569,0.19957 m -4.18148,4.18148 0.236035,-0.23604 m -3.166844,3.16685 -0.416467,0.41646 m -8.879922,8.87993 1.68059,-1.68059 m 30.210111,-29.81099 -0.266975,0.26697 m -7.472843,7.47285 0.304533,-0.30454 m -4.458974,4.45897 -0.612064,0.61207 m -2.582195,2.58219 0.220466,-0.22046 m -4.27102,4.27102 -0.216827,0.21683 m -3.396938,3.39693 0.364759,-0.36476 m -7.498577,7.49858 -0.228925,0.22893 m -1.797285,1.79728 0.450549,-0.45055 m 31.698389,-31.29926 -0.273514,0.27351 m -7.318717,7.31872 0.271896,-0.2719 m -4.425074,4.42508 -0.659705,0.6597 m -2.502549,2.50255 0.21794,-0.21794 m -4.397025,4.39702 -0.19762,0.19762 m -3.442646,3.44265 0.309097,-0.3091 m -7.353806,7.35381 -0.254792,0.25479 m -2.082279,2.08228 0.278733,-0.27873 m 32.061464,-31.66234 -0.275381,0.27538 m -7.164593,7.16459 0.23926,-0.23926 m -4.384834,4.38483 -0.713689,0.71369 m -2.429346,2.42935 0.221859,-0.22186 m -4.535225,4.53522 -0.166218,0.16622 m -3.488354,3.48836 0.253434,-0.25344 m -7.092367,7.09237 -0.49383,0.49383 m -2.30178,2.30178 0.284394,-0.28439 m 32.262786,-31.86367 -0.261963,0.26197 m -7.010466,7.01046 0.209112,-0.20911 m -4.315454,4.31545 -0.799301,0.79931 m -2.356144,2.35614 0.225778,-0.22578 m -4.609553,4.60955 -0.181086,0.18109 m -3.551665,3.55166 0.197772,-0.19777 m -2.407962,2.40796 -1.602389,1.60239 m -3.55955,3.55955 0.811411,-0.81141 m -3.032269,3.03227 -0.294318,0.29432 m 32.505619,-32.1065 0.248545,-0.24854 m -6.919331,6.91933 -0.20431,0.20431 m -4.933268,4.93327 0.884914,-0.88492 m -2.938158,2.93816 -0.229698,0.2297 m -4.635332,4.63533 0.181149,-0.18115 m -3.66882,3.66882 -0.142109,0.14211 m -4.227699,4.2277 2.419237,-2.41924 m -4.564314,4.56432 -1.081976,1.08197 m -2.68938,2.68938 0.308307,-0.3083 m 32.656905,-32.25779 -0.235126,0.23513 m -6.738244,6.73824 0.198025,-0.19802 m -4.189874,4.18987 -1.006427,1.00643 m -2.173839,2.17384 0.291499,-0.2915 m -4.816091,4.81609 -0.181211,0.18121 m -11.244352,11.24435 7.622903,-7.6229 m -10.126792,10.12679 -0.33218,0.33218 m 32.926117,-32.52699 0.221708,-0.22171 m -6.631359,6.63136 -0.19174,0.19174 m -5.06311,5.06311 1.129544,-1.12955 m -2.937918,2.93792 -0.256535,0.25654 m -4.776275,4.77627 0.181274,-0.18127 m -3.922369,3.92237 -7.708894,7.70889 m -2.936942,2.93694 0.350364,-0.35036 m 32.966409,-32.56729 -0.204672,0.20468 m -6.454488,6.45448 0.185455,-0.18545 m -4.069109,4.06911 -1.2878,1.2878 m -1.91247,1.91247 0.313563,-0.31356 m -4.96378,4.96377 -0.196529,0.19653 m -6.107158,6.10716 2.248519,-2.24852 m -4.417299,4.4173 -1.397214,1.39722 m -1.982476,1.98247 0.732773,-0.73277 m -3.402038,3.40204 -0.423744,0.42374 m 33.340107,-32.94098 0.194561,-0.19457 m -6.322888,6.32289 -0.166086,0.16609 m -5.30848,5.30848 1.474738,-1.47474 m -2.835496,2.8355 -0.370591,0.37059 m -4.917217,4.91721 0.2422,-0.2422 m -4.218382,4.21839 -1.020768,1.02076 m -4.293889,4.29389 0.894159,-0.89416 m -2.890538,2.89054 -0.574047,0.57405 m -3.12619,3.12619 0.374237,-0.37424 m 33.255439,-32.85631 -0.18445,0.18445 m -6.192818,6.19281 0.171607,-0.1716 m -3.833621,3.83362 -1.758296,1.75829 m -1.483579,1.48358 0.680176,-0.68017 m -5.413358,5.41336 -0.298399,0.29839 m -4.859723,4.85973 0.78779,-0.78779 m -4.399253,4.39925 -0.722498,0.7225 m -2.862691,2.86269 0.449339,-0.44934 m -3.283979,3.28398 -0.362326,0.36232 m 33.587941,-33.18881 0.17434,-0.17434 m -6.088436,6.08843 -0.162421,0.16242 m -4.08325,4.08325 0.432257,-0.43225 m -1.474091,1.47409 -1.664257,1.66425 m -5.06453,5.06453 0.279869,-0.27986 m -4.506783,4.50678 -0.603747,0.60375 m -4.349297,4.34929 0.574971,-0.57497 m -3.288843,3.28884 -0.424793,0.4248 m -3.275332,3.27533 0.350414,-0.35041 m 33.543722,-33.1446 -0.177217,0.17721 m -5.946482,5.94648 0.153236,-0.15323 m -3.757851,3.75785 -0.457173,0.45717 m -2.613003,2.61301 1.306531,-1.30654 m -6.107347,6.10735 -0.324649,0.32465 m -4.818955,4.81896 0.465046,-0.46505 m -4.360119,4.36012 -0.489933,0.48993 m -3.398178,3.39818 0.457961,-0.45796 m -3.423903,3.4239 -0.339189,0.33919 m 33.839897,-33.44077 0.184361,-0.18436 m -5.870417,5.87041 -0.154804,0.15481 m -4.10157,4.10157 0.574433,-0.57444 m -2.044293,2.0443 -0.957711,0.95771 m -5.1864,5.1864 0.311866,-0.31187 m -4.786207,4.78621 -0.389024,0.38902 m -4.368133,4.36814 0.439663,-0.43967 m -3.582962,3.58296 -0.510859,0.51086 m -3.303999,3.304 0.297034,-0.29703 m 33.826416,-33.4273 -0.191505,0.19151 m -5.769798,5.7698 0.160184,-0.16019 m -3.563475,3.56348 -0.68848,0.68848 m -2.330634,2.33063 0.734528,-0.73453 m -5.556944,5.55695 -0.351445,0.35144 m -4.913378,4.91338 0.342057,-0.34205 m -4.289579,4.28957 -0.428498,0.4285 m -3.879775,3.87978 0.581996,-0.582 m -3.583927,3.58393 -0.300937,0.30094 m 34.023869,-33.62475 0.198775,-0.19878 m -5.756337,5.75634 -0.14105,0.14105 m -4.085492,4.08549 0.757693,-0.75769 m -2.475007,2.47501 -0.373103,0.3731 m -5.301081,5.30108 0.391024,-0.39102 m -5.059326,5.05932 -0.295089,0.29509 m -4.383185,4.38319 0.416612,-0.41662 m -3.854512,3.85452 -0.668213,0.66821 m -3.301737,3.30174 0.303071,-0.30307 m 34.018765,-33.61965 -0.206335,0.20634 m -5.627135,5.62713 0.112311,-0.11231 m -3.364618,3.36462 -0.86473,0.86473 m -2.075195,2.0752 0.274497,-0.2745 m -5.018769,5.01877 -0.372919,0.37292 m -5.061695,5.06169 0.262183,-0.26218 m -4.247807,4.24781 -0.404725,0.40472 m -4.332454,4.33245 0.760487,-0.76048 m -3.755887,3.75588 -0.29802,0.29803 m 34.199949,-33.80083 0.213895,-0.2139 m -5.728393,5.7284 -0.07681,0.0768 m -4.108983,4.10898 0.967821,-0.96782 m -2.85585,2.85585 -0.19701,0.19701 m -4.911613,4.91161 0.402051,-0.40205 m -5.30921,5.30921 -0.253408,0.25341 m -4.397515,4.39751 0.392839,-0.39283 m -4.078125,4.07812 -0.886363,0.88636 m -3.25386,3.25386 0.30482,-0.30482 m 34.208226,-33.8091 -0.247037,0.24704 m -5.570872,5.57087 0.0567,-0.0567 m -3.071331,3.07133 -1.070912,1.07091 m -2.172726,2.17273 0.198543,-0.19855 m -4.395552,4.39556 -0.431182,0.43118 m -5.276586,5.27658 0.258711,-0.25871 m -4.265293,4.2653 -0.40582,0.40582 m -4.807854,4.80785 1.034116,-1.03411 m -3.916829,3.91682 -0.309708,0.30971 m 34.351099,-33.95197 0.267338,-0.26734 m -8.732907,8.7329 -1.172212,1.17222 m -2.282727,2.28272 0.228527,-0.22852 m -4.092677,4.09267 -0.452093,0.4521 m -5.38958,5.38958 0.322292,-0.3223 m -4.333803,4.33381 -0.383675,0.38367 m -5.073668,5.07367 1.18993,-1.18993 m -4.011835,4.01184 -0.314596,0.31459 m 34.44552,-34.0464 0.27831,-0.27831 m -8.651205,8.65121 -1.275169,1.27517 m -2.422814,2.42281 0.308183,-0.30818 m -3.738887,3.73889 -0.523917,0.52391 m -5.502575,5.50258 0.390211,-0.39021 m -4.416547,4.41654 -0.371882,0.37189 m -5.358732,5.35873 1.394391,-1.39439 m -4.115989,4.11599 -0.317942,0.31794 m 34.538397,-34.13928 0.289282,-0.28928 m -8.569503,8.5695 -1.378126,1.37813 m -2.568613,2.56861 0.36966,-0.36966 m -3.199062,3.19907 -0.639709,0.63971 m -5.733745,5.73374 1.804307,-1.80431 m -5.806493,5.8065 -0.399064,0.39906 m -5.653343,5.65334 1.608399,-1.6084 m -4.207869,4.20787 -0.316284,0.31629 m 34.63584,-34.23672 0.300475,-0.30048 m -8.509866,8.50987 -0.52837,0.52837 m -0.952712,0.95271 0.382229,-0.38223 m -2.667972,2.66797 -0.48119,0.48119 m -2.96442,2.96443 0.516512,-0.51652 m -4.383862,4.38387 -2.064226,2.06422 m -4.384672,4.38467 0.406635,-0.40663 m -4.533967,4.53397 -1.795201,1.7952 m -2.836997,2.83699 0.31771,-0.31771 m 34.756486,-34.35736 -0.324317,0.32432 m -8.665557,8.66555 0.510398,-0.51039 m -1.241129,1.24112 -0.342909,0.34291 m -2.967186,2.96719 0.594654,-0.59465 m -2.42243,2.42243 -0.630021,0.63002 m -6.129407,6.1294 2.229854,-2.22985 m -6.18374,6.18374 -0.412326,0.41233 m -4.85749,4.85749 0.655647,-0.65565 m -1.587196,1.5872 -0.424953,0.42495 m -2.737853,2.73785 0.319137,-0.31914 m 34.892942,-34.49382 -0.348158,0.34816 m -5.712361,5.71236 0.09676,-0.0968 m -2.486108,2.48611 -0.491646,0.49165 m -1.201601,1.2016 0.310622,-0.31062 m -2.781949,2.78194 -2.500143,2.50015 m -4.670899,4.6709 0.45389,-0.45389 m -1.426386,1.42638 -0.84936,0.84936 m -4.322346,4.32235 0.418018,-0.41802 m -4.694371,4.69437 -0.586338,0.58634 m -1.555388,1.55539 0.344602,-0.3446 m -2.750119,2.75012 -0.320563,0.32056 m 35.060148,-34.66103 0.289851,-0.28985 m -5.961539,5.96154 -0.151988,0.15199 m -2.779661,2.77966 0.465483,-0.46548 m -1.503996,1.50399 -0.303022,0.30302 m -4.771075,4.77108 2.207166,-2.20717 m -6.42367,6.42367 -0.568295,0.5683 m -1.808239,1.80824 0.692782,-0.69278 m -4.545528,4.54552 -0.42371,0.42371 m -4.897503,4.89751 0.546642,-0.54665 m -1.975499,1.9755 -0.295805,0.29581 m -2.711843,2.71184 0.319525,-0.31952 m 35.199534,-34.80042 -0.295635,0.29564 m -5.904503,5.9045 0.235041,-0.23504 m -2.47405,2.47405 -0.439321,0.43932 m -1.481467,1.48147 0.298816,-0.29882 m -2.955309,2.95531 -0.791324,0.79133 m -6.081722,6.08172 0.742858,-0.74286 m -1.880968,1.88097 -0.622579,0.62258 m -4.181841,4.18184 0.406904,-0.40691 m -4.854773,4.85478 -0.512614,0.51261 m -1.893586,1.89359 0.295577,-0.29558 m -2.658977,2.65898 -0.314983,0.31498 m 35.480045,-35.08092 0.215033,-0.21503 m -5.953425,5.95342 -0.337368,0.33737 m -2.593818,2.59382 0.413158,-0.41316 m -1.739947,1.73995 -0.294609,0.29461 m -3.192468,3.19246 0.425724,-0.42572 m -5.819038,5.81904 -1.02917,1.02917 m -1.616221,1.61622 0.678963,-0.67897 m -4.361262,4.36127 -0.392786,0.39278 m -5.020775,5.02078 0.478586,-0.47859 m -2.241283,2.24129 -0.256651,0.25665 m -2.688087,2.68808 0.313263,-0.31326 m 35.557836,-35.15871 -0.177206,0.1772 m -6.194389,6.19439 0.469379,-0.46938 m -2.601542,2.60154 -0.386996,0.387 m -1.761331,1.76133 0.290403,-0.2904 m -3.175313,3.17531 -0.179062,0.17906 m -8.155766,8.15577 2.839566,-2.83957 m -6.356228,6.35623 -0.404046,0.40405 m -5.081066,5.08106 0.445503,-0.4455 m -2.348856,2.34886 -0.241758,0.24175 m -2.697789,2.69779 0.311542,-0.31154 m 35.735145,-35.33602 -0.138947,0.13895 m -6.279431,6.27943 0.505547,-0.50555 m -2.6228,2.6228 -0.360833,0.36083 m -1.901264,1.90127 0.286196,-0.2862 m -3.289274,3.28927 -0.06207,0.0621 m -8.160533,8.16053 3.086253,-3.08625 m -6.455365,6.45537 -0.408642,0.40864 m -5.11256,5.11256 0.439073,-0.43908 m -2.472668,2.47267 -0.237279,0.23728 m -2.707492,2.70749 0.309822,-0.30982 m 35.917041,-35.51792 -0.139064,0.13907 m -6.305543,6.30554 0.582049,-0.58205 m -2.709534,2.70954 -0.334671,0.33467 m -2.041196,2.04119 0.28199,-0.28199 m -8.180665,8.18067 -3.437283,3.43728 m -3.431142,3.43114 0.356816,-0.35681 m -5.167545,5.16754 -0.432642,0.43264 m -2.392384,2.39239 0.232377,-0.23238 m -2.645722,2.64572 -0.308101,0.3081 m 36.246396,-35.84727 0.160643,-0.16064 m -5.812286,5.81228 -0.634838,0.63484 m -2.469939,2.46994 0.308509,-0.30851 M 45.519284,250.02 45.2415,250.29779 m -8.786673,8.78667 1.107975,-1.10797 m -2.960217,2.96021 -0.868973,0.86898 m -3.066448,3.06644 0.348556,-0.34855 m -5.252959,5.25296 -0.426212,0.42621 m -2.492809,2.49281 0.233327,-0.23333 m -2.68281,2.68281 -0.307003,0.307 m 36.399234,-36.00011 0.199165,-0.19916 m -5.772588,5.77259 -0.839958,0.83995 m -2.326684,2.32669 0.293761,-0.29376 m -2.340243,2.34024 -0.273894,0.27389 m -8.081667,8.08167 0.712164,-0.71216 m -3.838087,3.83808 -0.554345,0.55435 m -2.665631,2.66563 0.403693,-0.40369 m -5.355776,5.35577 -0.419782,0.41978 m -2.593233,2.59324 0.234277,-0.23428 m -2.71948,2.71948 -0.306325,0.30633 m 36.552072,-36.15295 0.18127,-0.18127 m -5.680203,5.6802 -1.100491,1.10049 m -2.124461,2.12446 0.295729,-0.29573 m -2.482137,2.48214 -0.27304,0.27304 m -3.687137,3.68714 0.05681,-0.0568 m -3.286151,3.28615 -0.845835,0.84583 m -4.49821,4.49821 0.787722,-0.78772 m -2.22911,2.22911 -0.48155,0.48155 m -5.497448,5.49745 0.400352,-0.40035 m -2.863363,2.86336 -0.243648,0.24365 m -2.826568,2.82657 0.305646,-0.30565 m 36.562639,-36.16352 -0.189118,0.18912 m -1.964257,1.96426 0.671366,-0.67137 m -4.10581,4.10581 -1.444723,1.44473 m -1.838539,1.83853 0.297696,-0.29769 m -2.62403,2.62403 -0.275373,0.27537 m -3.978786,3.97879 0.166048,-0.16605 m -2.911683,2.91168 -0.752746,0.75275 m -6.506976,6.50697 2.252448,-2.25244 m -7.446587,7.44658 -0.381069,0.38107 m -2.819936,2.81994 0.274587,-0.27459 m -2.831227,2.83123 -0.304967,0.30497 m 36.780109,-36.38099 0.213419,-0.21342 m -1.485665,1.48567 -0.876499,0.87649 m -5.027919,5.02792 1.904347,-1.90434 m -3.058759,3.05875 -0.282813,0.28282 m -2.759954,2.75995 0.293693,-0.29369 m -4.324625,4.32462 -0.489704,0.48971 m -2.686335,2.68633 1.020401,-1.0204 m -5.713455,5.71346 -1.868811,1.86881 m -5.652966,5.65296 0.360132,-0.36013 m -2.98782,2.98782 -0.305309,0.30531 m -2.896866,2.89687 0.304289,-0.30429 m 36.765109,-36.36599 -0.20901,0.20901 m -2.128273,2.12827 0.833065,-0.83306 m -3.83401,3.83401 -0.658068,0.65807 m -2.737864,2.73786 1.628876,-1.62888 m -4.235063,4.23507 -0.312014,0.31201 m -6.931604,6.93161 2.67602,-2.67602 m -7.807313,7.80731 -1.539645,1.53964 m -5.681712,5.68172 0.363168,-0.36317 m -3.073195,3.07319 -0.335913,0.33592 m -2.932241,2.93224 0.30361,-0.30361 m 36.841658,-36.44254 -0.222953,0.22295 m -2.067902,2.06791 0.756711,-0.75671 m -3.698799,3.69879 -0.545012,0.54502 m -2.863058,2.86305 1.535442,-1.53544 m -4.281555,4.28156 -0.330334,0.33033 m -6.656238,6.65624 2.049462,-2.04946 m -7.599259,7.59926 -1.230404,1.2304 m -5.710268,5.71027 0.366204,-0.3662 m -3.155832,3.15583 -0.369255,0.36925 m -2.967616,2.96762 0.302932,-0.30293 m 36.857176,-36.45806 -0.204312,0.20431 m -1.958189,1.95819 0.643473,-0.64347 m -3.547601,3.5476 -0.431957,0.43196 m -2.946359,2.94636 1.687761,-1.68776 m -4.615691,4.61569 -0.348269,0.34827 m -6.229567,6.22956 1.496732,-1.49673 m -7.616723,7.61673 -0.97721,0.97721 m -5.682777,5.68277 0.36924,-0.36924 m -3.214302,3.2143 -0.426763,0.42677 m -3.002569,3.00256 0.30183,-0.30183 m 36.868,-36.46887 -0.188405,0.1884 m -1.830134,1.83014 0.491804,-0.49181 m -3.356127,3.35613 -0.409938,0.40994 m -2.961561,2.96156 1.682235,-1.68224 m -4.781804,4.78181 -0.385744,0.38574 m -5.846423,5.84642 0.331967,-0.33196 m -6.870554,6.87055 -0.828931,0.82893 m -5.638901,5.6389 0.372276,-0.37227 m -3.272773,3.27277 -0.486125,0.48613 m -3.032325,3.03232 0.297387,-0.29739 m 36.868534,-36.46941 -0.220766,0.22077 m -1.579185,1.57918 0.226159,-0.22616 m -3.179321,3.17933 -0.323726,0.32372 m -2.97665,2.97665 1.714697,-1.7147 m -4.985903,4.98591 -0.423218,0.42321 m -13.128546,13.12855 0.686882,-0.68688 m -5.879165,5.87917 -0.365163,0.36516 m -3.524871,3.52487 0.55879,-0.55879 m -3.314625,3.31462 -0.292944,0.29295 m 36.911821,-36.5127 0.245622,-0.24562 m -4.618794,4.61879 -0.237513,0.23751 m -3.013249,3.01325 0.577579,-0.57758 m -3.998913,3.99892 -0.460692,0.46069 m -13.04315,13.04315 0.544834,-0.54484 m -5.662777,5.66278 -0.354005,0.35401 m -3.667164,3.66716 0.628326,-0.62833 m -3.405057,3.40506 -0.288501,0.2885 m 36.886146,-36.48702 0.262818,-0.26282 m -4.484474,4.48448 -0.151301,0.1513 m -2.902914,2.90291 0.457624,-0.45762 m -4.17602,4.17602 -0.50555,0.50555 m -12.950371,12.95037 0.419995,-0.42 m -5.470434,5.47044 -0.336009,0.33601 m -3.809457,3.80945 0.722553,-0.72255 m -3.520182,3.52018 -0.284058,0.28406 m 36.860473,-36.46135 0.280013,-0.28001 m -4.363602,4.3636 -0.120923,0.12092 m -2.782043,2.78204 0.518383,-0.51838 m -4.477022,4.47702 -0.566152,0.56615 m -12.861684,12.86169 0.353186,-0.35319 m -5.286752,5.28675 -0.345618,0.34562 m -3.951752,3.95175 0.819501,-0.8195 m -3.646556,3.64656 -0.271086,0.27109 m 36.8348,-36.43568 0.297209,-0.29721 m -4.269869,4.26987 -0.05842,0.0584 m -2.750845,2.75084 0.657175,-0.65717 m -4.469775,4.46977 -0.928352,0.92835 m -12.791016,12.79102 0.303872,-0.30387 m -5.102547,5.10254 -0.355228,0.35523 m -4.098088,4.09809 0.920492,-0.92049 m -3.774867,3.77487 -0.260486,0.26048 m 36.826497,-36.42737 0.327028,-0.32703 m -4.20182,4.20182 -0.08658,0.0866 m -2.307159,2.30716 0.569554,-0.56955 m -4.207618,4.20761 -1.641061,1.64107 m -12.720155,12.72015 0.270324,-0.27032 m -4.934106,4.9341 -0.364837,0.36484 m -4.254707,4.25471 1.031765,-1.03177 m -3.903179,3.90318 -0.256301,0.2563 m 36.856484,-36.45736 0.322754,-0.32275 m -4.131554,4.13155 -0.233746,0.23375 m -1.894425,1.89442 0.924676,-0.92467 m -4.033825,4.03382 -2.588898,2.5889 m -12.618593,12.61859 0.25465,-0.25465 m -4.783541,4.78354 -0.374447,0.37445 m -4.411324,4.41132 1.149787,-1.14978 m -4.03824,4.03824 -0.252116,0.25211 m 36.886471,-36.48735 0.318479,-0.31848 m -4.062362,4.06237 -1.86412,1.86412 m -6.114374,6.11437 3.079121,-3.07912 m -15.357176,15.35718 -0.238976,0.23897 m -4.762255,4.76226 0.368256,-0.36826 m -3.668266,3.66827 -1.283733,1.28373 m -3.153423,3.15342 0.247932,-0.24793 m 36.98273,-36.58361 -0.314204,0.31421 m -5.278738,5.27874 1.597055,-1.59706 m -4.408461,4.40846 -3.720627,3.72063 m -12.413948,12.41395 0.225499,-0.2255 m -4.485093,4.48509 -0.361371,0.36137 m -4.756856,4.75686 1.417679,-1.41768 m -4.340209,4.34021 -0.245358,0.24536 m 36.948057,-36.54894 0.309796,-0.3098 m -3.929279,3.92928 -1.38165,1.38165 m -3.708775,3.70878 1.031988,-1.03199 m -3.246757,3.24676 -1.008787,1.00878 m -12.27368,12.27369 0.228966,-0.22897 m -4.359202,4.3592 -0.352324,0.35232 m -4.944521,4.94453 1.566177,-1.56618 m -4.491194,4.49119 -0.272217,0.27222 m -4.959799,4.9598 0.360538,-0.36054 m 41.913524,-41.5144 -0.303207,0.30321 m -1.698833,1.69883 0.240101,-0.2401 m -2.10052,2.10052 -1.16578,1.16578 m -3.3602,3.3602 0.814037,-0.81404 m -4.010314,4.01032 -0.776616,0.77661 m -12.133412,12.13341 0.232432,-0.23243 m -4.215441,4.21544 -0.361147,0.36115 m -3.94854,3.94854 0.525783,-0.52578 m -1.490049,1.49005 -0.224886,0.22488 m -3.221073,3.22107 0.299076,-0.29907 m -4.390731,4.39073 -0.903762,0.90376 m 42.069927,-41.6708 0.281346,-0.28135 m -1.592821,1.59282 -0.540037,0.54004 m -2.646344,2.64634 0.998381,-0.99838 m -3.44421,3.44421 -0.797684,0.79769 m -4.45214,4.45214 0.631247,-0.63125 m -12.378225,12.37822 -0.235899,0.2359 m -4.205751,4.20575 0.376711,-0.37671 m -3.816765,3.81677 -0.523965,0.52396 m -1.366843,1.36685 0.149098,-0.1491 m -3.068076,3.06807 -0.315725,0.31573 m -4.976502,4.9765 1.665784,-1.66578 m 40.677779,-40.27866 -0.239307,0.23931 m -1.914888,1.91489 0.669857,-0.66986 m -2.194667,2.19467 -0.796672,0.79667 m -3.142225,3.14222 0.773656,-0.77365 m -5.189603,5.1896 -0.560847,0.56085 m -11.805845,11.80584 0.248231,-0.24823 m -3.923302,3.9233 -0.392275,0.39228 m -3.971234,3.97123 0.513881,-0.51388 m -1.917515,1.91752 -0.1492,0.1492 m -3.347372,3.34737 0.431448,-0.43145 m -3.084927,3.08493 -2.205034,2.20503 m 42.140991,-41.74187 0.168357,-0.16836 m -1.390556,1.39056 -0.679626,0.67963 m -2.10234,2.10234 0.640061,-0.64006 m -2.976208,2.9762 -0.677916,0.67792 m -5.480925,5.48092 0.480272,-0.48027 m -11.859618,11.85962 -0.252327,0.25233 m -3.929674,3.92967 0.39091,-0.39091 m -3.88249,3.88249 -0.480427,0.48043 m -1.762687,1.76269 0.145,-0.145 m -3.057379,3.05737 -0.480086,0.48009 m -4.807056,4.80706 3.436171,-3.43617 m 38.826809,-38.42769 -0.135109,0.13511 m -1.7889,1.7889 0.596344,-0.59635 m -2.032652,2.03266 -0.545258,0.54525 m -2.991582,2.99159 0.819075,-0.81908 m -6.250945,6.25095 -0.478229,0.47823 m -11.378471,11.37847 0.255926,-0.25593 m -3.658882,3.65888 -0.386088,0.38609 m -3.98183,3.98183 0.452567,-0.45257 m -2.240762,2.24077 -0.178752,0.17875 m -5.663611,5.66361 2.745154,-2.74516 m -5.022325,5.02233 -0.266342,0.26634 m 42.115769,-41.71665 0.06631,-0.0663 m -1.28415,1.28415 -0.389319,0.38931 m -1.917086,1.91709 0.471216,-0.47122 m -2.665007,2.66501 -0.621664,0.62167 m -6.597329,6.59732 0.581025,-0.58102 m -11.341931,11.34193 -0.259525,0.25953 m -3.648413,3.64841 0.381266,-0.38127 m -3.944088,3.94409 -0.428831,0.42883 m -2.171206,2.17121 0.209398,-0.2094 m -3.137688,3.13769 -2.11178,2.11178 m -3.162679,3.16268 0.220626,-0.22063 m 38.995801,-38.59668 -0.407754,0.40776 m -2.72354,2.72354 0.564364,-0.56437 m -7.075901,7.0759 -0.49166,0.49166 m -10.854552,10.85456 0.276596,-0.2766 m -3.406105,3.4061 -0.378273,0.37828 m -4.001477,4.00148 0.422744,-0.42275 m -2.542834,2.54284 -0.229745,0.22974 m -4.630781,4.63078 1.66703,-1.66703 m -5.077978,5.07798 -0.256698,0.2567 m 39.098497,-38.69938 0.45035,-0.45035 m -2.563259,2.56326 -0.516967,0.51697 m -7.57925,7.57925 0.588043,-0.58805 m -10.808554,10.80856 -0.285532,0.28553 m -3.379594,3.37959 0.402259,-0.40225 m -3.996904,3.9969 -0.416656,0.41666 m -2.520902,2.5209 0.251996,-0.252 m -3.258772,3.25878 -1.099196,1.09919 m -4.284429,4.28443 0.285269,-0.28527 m 41.548942,-41.14982 -2.368692,2.36869 m -2.670165,2.67017 0.456641,-0.45664 m -7.879227,7.87922 -0.688577,0.68858 m -10.150579,10.15058 0.288861,-0.28886 m -3.119629,3.11963 -0.426246,0.42624 m -4.021125,4.02113 0.410569,-0.41057 m -2.828289,2.82829 -0.274248,0.27425 m -3.905407,3.9054 0.855605,-0.8556 m -5.176009,5.17601 -0.46943,0.46943 m 40.150933,-39.75181 1.518027,-1.51803 m -3.937692,3.93769 -0.403129,0.40313 m -8.969108,8.96911 1.121958,-1.12196 m -10.289189,10.28919 -0.295038,0.29504 m -3.095685,3.09568 0.411484,-0.41148 m -4.084983,4.08498 -0.374118,0.37412 m -2.864464,2.86446 0.295576,-0.29557 m -3.409053,3.40905 -0.599411,0.59941 m -5.491843,5.49184 0.806722,-0.80672 m 40.502244,-40.10312 -0.289561,0.28956 m -2.995385,2.99539 0.35881,-0.35881 m -8.609622,8.60962 -1.089314,1.08931 m -9.239984,9.23999 0.319148,-0.31915 m -2.856781,2.85678 -0.408244,0.40825 m -4.059522,4.05952 0.365247,-0.36525 m -3.078222,3.07822 -0.313617,0.31362 m -3.690241,3.69024 0.499655,-0.49966 m -5.41205,5.41205 -0.819743,0.81975 m 38.350246,-37.95113 0.339156,-0.33915 m -8.929249,8.92925 -1.466482,1.46648 m -8.586616,8.58661 0.321986,-0.32198 m -2.691532,2.69153 -0.447796,0.4478 m -4.071426,4.07142 0.356376,-0.35637 m -3.213438,3.21343 -0.331658,0.33166 m -3.644418,3.64442 0.376723,-0.37672 m -5.658602,5.6586 -0.999496,0.9995 m 38.950953,-38.55184 0.343473,-0.34347 m -9.253832,9.25384 -2.052932,2.05293 m -4.012865,4.01286 1.708325,-1.70832 m -5.107714,5.10771 -0.313856,0.31386 m -2.694393,2.69439 0.419689,-0.41969 m -4.155513,4.15551 -0.347506,0.34751 m -3.334311,3.33431 0.333162,-0.33316 m -3.707315,3.70731 -0.247353,0.24736 m -6.586069,6.58606 0.996196,-0.99619 m 38.591901,-38.19278 -0.314951,0.31495 m -15.385813,15.38582 6.241957,-6.24196 m -9.210426,9.21042 -0.340985,0.34099 m -2.538057,2.53806 0.428964,-0.42897 m -4.218949,4.21895 -0.338635,0.33864 m -3.461705,3.4617 0.324967,-0.32497 m -3.836515,3.83652 -0.106002,0.106 m -6.763214,6.76322 1.013999,-1.014 m 38.74098,-38.34186 -0.3014,0.3014 m -16.335324,16.33532 6.962955,-6.96295 m -8.945679,8.94568 -0.354366,0.35436 m -2.388505,2.38851 0.431274,-0.43128 m -4.279414,4.27942 -0.332735,0.33273 m -3.589099,3.5891 0.346173,-0.34617 m -9.875405,9.8754 -0.909042,0.90905 m 39.435221,-39.0361 0.338456,-0.33846 m -9.856227,9.85623 -1.187618,1.18762 m -5.263126,5.26312 1.507853,-1.50785 m -3.738493,3.73849 -0.363226,0.36323 m -2.243022,2.24302 0.433584,-0.43358 m -4.319155,4.31915 -0.347558,0.34756 m -3.70389,3.70389 0.354776,-0.35478 m -9.986879,9.98688 -0.786516,0.78652 m 38.764827,-38.36571 0.913365,-0.91336 m -10.014269,10.01427 -0.726218,0.72622 m -5.355166,5.35516 1.207783,-1.20778 m -3.486395,3.48639 -0.429181,0.42918 m -2.097538,2.09754 0.431918,-0.43192 m -4.35492,4.35492 -0.362381,0.36239 m -3.796161,3.79616 0.340859,-0.34086 m -10.096688,10.09669 -0.626931,0.62693 m 37.696429,-37.29731 1.815366,-1.81537 m -10.064664,10.06467 -0.568244,0.56824 m -5.086787,5.08679 0.824138,-0.82414 m -3.302901,3.3029 -0.500309,0.50031 m -1.847899,1.8479 0.535147,-0.53515 m -4.574835,4.57484 -0.377204,0.3772 m -3.888432,3.88843 0.323159,-0.32315 m -10.19005,10.19005 -0.395518,0.39551 m 36.835568,-36.43644 2.267196,-2.2672 m -9.965151,9.96515 -0.455928,0.45593 m -4.883165,4.88316 0.596188,-0.59618 m -3.001795,3.00179 -0.744745,0.74475 m -1.588984,1.58898 0.440648,-0.44065 m -4.593259,4.59326 -0.386416,0.38642 m -3.980703,3.9807 0.347651,-0.34765 m -10.297633,10.29763 -0.23432,0.23432 m 36.063085,-35.66396 2.255147,-2.25515 m -9.447894,9.4479 -0.392537,0.39253 m -4.768673,4.76868 0.515336,-0.51534 m -2.718057,2.71806 -2.310925,2.31092 m -4.665945,4.66595 0.426549,-0.42655 m -4.122595,4.12259 -0.328689,0.32869 m -10.147528,10.14753 0.071,-0.071 m 37.106237,-36.70711 -1.550334,1.55033 m -7.356043,7.35605 0.330083,-0.33009 m -4.594782,4.59478 -0.476033,0.47604 m -4.187613,4.18761 2.394197,-2.3942 m -6.733233,6.73324 -0.466929,0.46693 m -4.076735,4.07673 0.31794,-0.31794 m 26.35028,-25.95116 -1.688186,1.68819 m -7.018657,7.01866 0.300757,-0.30076 m -4.634717,4.63472 -4.30968,4.30968 m -4.876717,4.87671 0.507309,-0.50731 m -4.336622,4.33663 -0.299421,0.29942 m 24.605465,-24.20635 0.215064,-0.21506 m -6.739544,6.73954 -0.281563,0.28157 m -8.372983,8.37298 3.848415,-3.84841 m -8.234146,8.23414 -0.547688,0.54769 m -4.142677,4.14268 0.292791,-0.29279 m -10.76813,10.76813 -0.05345,0.0534 m 34.721632,-34.32251 0.05033,-0.0503 m -6.381388,6.38139 -0.265415,0.26541 m -8.195179,8.19518 3.469987,-3.46998 m -7.776142,7.77614 -0.588068,0.58807 m -4.159592,4.15959 0.289134,-0.28914 m -10.93017,10.93017 -0.121468,0.12147 m 34.547334,-34.14821 0.107718,-0.10772 m -6.247002,6.247 -0.274023,0.27403 m -7.9855,7.9855 0.895326,-0.89533 m -5.118778,5.11878 -0.638694,0.63869 m -4.176507,4.17651 0.285476,-0.28548 m -1.673507,1.67351 -0.07574,0.0757 m -9.532448,9.53245 0.16992,-0.16992 m 34.389515,-33.9904 -0.143488,0.14349 m -6.273051,6.27305 0.282631,-0.28263 m -7.691288,7.69129 -0.456363,0.45636 m -4.740869,4.74087 0.725977,-0.72598 m -4.63439,4.63439 -0.25362,0.25362 m -1.626002,1.62601 0.179732,-0.17974 m -9.596672,9.59667 -0.226708,0.22671 m 34.292895,-33.89377 0.179258,-0.17926 m -6.020812,6.02081 -0.291239,0.29124 m -7.788131,7.78813 0.200687,-0.20068 m -3.963429,3.96343 -0.81326,0.81326 m -4.144295,4.14429 0.266271,-0.26627 m -1.791007,1.79101 -0.235869,0.23587 m -9.813789,9.81379 0.286556,-0.28656 m 34.126359,-33.72724 -0.215028,0.21503 m -5.992536,5.99254 0.299545,-0.29955 m -11.542718,11.54272 -0.905228,0.90523 m -4.100531,4.10053 0.278921,-0.27892 m -1.87564,1.87564 -0.29849,0.29849 m -9.98393,9.98393 0.338061,-0.33806 m 34.015615,-33.6165 -0.249395,0.2494 m -5.869387,5.86939 0.32361,-0.32361 m -10.817643,10.81764 -1.435619,1.43562 m -4.110965,4.11096 0.340286,-0.34028 m -1.911885,1.91188 -0.391327,0.39133 m -10.154071,10.15407 0.352222,-0.35222 m 33.942216,-33.5431 -0.264233,0.26424 m -5.778406,5.7784 0.360312,-0.36031 m -8.404857,8.40486 -3.65372,3.65372 m -3.936502,3.9365 0.30434,-0.30434 m -2.038755,2.03876 -0.478022,0.47802 m -10.327315,10.32731 0.343466,-0.34346 m 33.891734,-33.49261 -0.27907,0.27907 m -5.687425,5.68742 0.397013,-0.39701 m -8.739905,8.7399 -3.155428,3.15543 m -3.818329,3.81833 0.356126,-0.35613 m -2.123422,2.12342 -0.605397,0.6054 m -10.49397,10.49397 0.277361,-0.27736 m 33.890488,-33.49136 -0.293908,0.2939 m -5.596444,5.59645 0.433715,-0.43372 m -9.155178,9.15518 -2.596417,2.59642 m -3.651672,3.65167 0.372334,-0.37233 m -2.201489,2.20148 -0.732772,0.73278 m -10.650215,10.65021 0.270485,-0.27048 m 33.819603,-33.42048 -0.308745,0.30874 m -5.511919,5.51192 0.440311,-0.44031 m -9.707752,9.70775 -1.876167,1.87617 m -3.463643,3.46364 0.497758,-0.49776 m -2.397521,2.39752 -0.903723,0.90373 m -10.733469,10.73347 0.286702,-0.28671 m 33.69621,-33.29708 -0.347513,0.34751 m -5.426672,5.42667 0.465499,-0.4655 m -10.671365,10.67137 -0.832147,0.83215 m -3.18724,3.18723 0.573386,-0.57338 m -2.489883,2.48988 -1.153328,1.15333 m -10.757551,10.75755 0.325324,-0.32532 m 33.519532,-33.12041 -0.332274,0.33227 m -5.395432,5.39543 0.490687,-0.49068 m -11.109392,11.10939 -0.302784,0.30278 m -2.820468,2.82047 1.078181,-1.07818 m -3.214289,3.21429 -1.325002,1.325 m -10.679689,10.67969 0.436968,-0.43697 m 33.191536,-32.79241 -0.335038,0.33504 m -5.346189,5.34619 0.515875,-0.51588 M 38.761904,278.33 l -2.342226,2.34222 m -3.79189,3.79189 1.63218,-1.63218 m -11.460465,11.46047 -0.60145,0.60145 m 32.988673,-32.58955 0.337801,-0.3378 m -5.151607,5.15161 -0.487355,0.48735 m -12.714859,12.71486 1.203456,-1.20346 m -3.736899,3.7369 -1.939357,1.93936 m -10.186502,10.1865 1.0214,-1.0214 m 32.009765,-31.61064 -0.340565,0.34056 m -5.283936,5.28394 0.480553,-0.48055 m -12.391337,12.39133 -0.121566,0.12157 m -5.113614,5.11361 2.240686,-2.24068 m -10.02566,10.02566 -1.906794,1.90679 m 32.136947,-31.73782 0.343328,-0.34333 m -5.136288,5.13629 -0.473752,0.47375 m -14.799004,14.799 0.178089,-0.17809 m -1.904568,1.90457 -0.640309,0.64031 m -8.996614,8.99662 2.220393,-2.2204 m 29.570095,-29.17097 -0.346092,0.34609 m -5.3086,5.3086 0.526064,-0.52606 m -17.086271,17.08627 -0.5663,0.5663 m -8.145322,8.14532 2.416361,-2.41636 m 28.528202,-28.12908 -0.348855,0.34886 m -5.243995,5.24399 0.426063,-0.42606 m -17.075224,17.07522 -0.544555,0.54456 m -7.129961,7.12996 1.916231,-1.91623 m 28.018338,-27.61922 -0.351619,0.35162 m -5.262613,5.26261 0.409441,-0.40944 m -17.068046,17.06805 -0.524438,0.52444 m -5.566712,5.56671 1.052148,-1.05215 m 27.329881,-26.93076 -0.354383,0.35438 m -5.281231,5.28124 0.392819,-0.39282 m -17.060869,17.06086 -0.522342,0.52235 m -5.052091,5.05209 1.294894,-1.2949 m 26.601245,-26.20212 -0.357146,0.35715 m -5.292968,5.29297 0.369315,-0.36932 m -17.016356,17.01636 -0.546658,0.54665 m -4.092633,4.09264 0.690311,-0.69031 m 26.260658,-25.86154 -0.356391,0.35639 m -5.35352,5.35352 0.394626,-0.39462 m -16.973124,16.97312 -0.621857,0.62186 m -3.507541,3.50754 0.769776,-0.76978 m 25.661759,-25.26263 -0.35484,0.35484 m -5.414073,5.41407 0.396618,-0.39662 m -16.906573,16.90657 -0.683181,0.68318 m -3.068121,3.06813 0.786523,-0.78653 m 25.257375,-24.85825 -0.35329,0.35329 m -5.458489,5.45849 0.383303,-0.3833 m -16.840851,16.84085 -3.108869,3.10887 m 25.040185,-24.64107 0.351739,-0.35173 m -5.484658,5.48465 -0.437913,0.43792 m -18.941354,18.94135 2.60414,-2.60414 m 22.273513,-21.87439 -0.350188,0.35019 m -5.683174,5.68317 0.540736,-0.54073 m -16.685374,16.68537 -2.075682,2.07568 m 23.918772,-23.51965 0.348638,-0.34864 m -5.651522,5.65153 -0.486916,0.48691 m -17.502181,17.50218 1.529025,-1.52902 m 22.125321,-21.7262 -0.38355,0.38355 m -5.93421,5.93421 0.575603,-0.5756 m -16.244757,16.24475 -1.114802,1.11481 m 22.769061,-22.36994 0.346383,-0.34639 m -5.722419,5.72242 -0.807363,0.80737 m -16.183452,16.18345 0.845121,-0.84512 m 21.881841,-21.48272 -0.346709,0.34671 m -6.384676,6.38467 0.708968,-0.70896 m -7.48799,7.48799 -0.597861,0.59786 m -8.224968,8.22496 0.640174,-0.64017 m 21.690361,-21.29124 -0.330605,0.33061 m -6.68834,6.68834 0.89364,-0.89364 m -6.587312,6.58731 -1.124425,1.12442 m -8.153097,8.1531 0.48896,-0.48896 m 21.499663,-21.10054 -0.315687,0.31569 m -7.411374,7.41137 1.302371,-1.30237 m -5.800119,5.80012 -1.215896,1.21589 m -8.223495,8.2235 0.397837,-0.39784 m 21.264847,-20.86572 -0.300769,0.30077 m -8.128716,8.12871 1.941563,-1.94156 m -4.128196,4.1282 -2.203329,2.20333 m -8.518814,8.51881 0.315131,-0.31513 m 21.021613,-20.62249 -0.285851,0.28585 m -12.234288,12.23429 5.417411,-5.41741 m -13.650524,13.65052 -0.293296,0.2933 m 20.774099,-20.37498 0.270933,-0.27093 m -7.756175,7.75617 -4.552485,4.55249 m -8.451258,8.45125 0.291784,-0.29178 m 20.466618,-20.06749 -0.246813,0.24681 m -11.966649,11.96665 3.725595,-3.7256 m -11.685996,11.686 -0.299425,0.29942 m 20.21439,-19.81526 0.257382,-0.25739 m -11.006585,11.00659 -1.366042,1.36604 m -7.831325,7.83133 0.343977,-0.34398 m 19.82187,-19.42275 -0.231362,0.23136 m -12.648044,12.64805 1.005397,-1.0054 m -7.630522,7.63052 -0.394687,0.39469 m 19.655302,-19.25618 0.211702,-0.2117 m -11.980286,11.98028 -1.345497,1.3455 m -6.282841,6.28284 0.412057,-0.41206 m 19.164353,-18.76522 -0.236003,0.236 m -13.131922,13.13192 1.577972,-1.57797 m -7.09865,7.09865 -0.429427,0.42942 m 19.026695,-18.62757 0.259121,-0.25912 m -11.518707,11.51871 -1.540353,1.54035 m -5.973431,5.97343 0.43403,-0.43403 m 18.566247,-18.16712 -0.449722,0.44972 m -11.767672,11.76767 1.099374,-1.09937 m -7.211955,7.21195 -0.432444,0.43245 m 18.222879,-17.82376 0.44936,-0.44936 m -10.591722,10.59172 -1.127643,1.12764 m -6.715017,6.71502 0.430858,-0.43085 m 17.910558,-17.51144 -0.604617,0.60462 m -10.705918,10.70591 1.309917,-1.30991 m -7.673669,7.67367 -0.429272,0.42927 m 17.113842,-16.71472 0.89675,-0.89675 m -9.401841,9.40184 -1.525824,1.52582 m -6.84507,6.84507 0.410528,-0.41053 m 17.269242,-16.87011 -1.495961,1.49596 m -9.072296,9.07229 1.825954,-1.82595 m -8.311927,8.31193 -0.399223,0.39922 m 15.848997,-15.44988 1.367251,-1.36725 m -7.689692,7.68969 -2.374917,2.37492 m -6.931025,6.93103 0.39362,-0.39362 m 16.384029,-15.98491 -1.965154,1.96515 m -5.874754,5.87476 1.387942,-1.38794 m -2.534676,2.53467 -0.59354,0.59354 m -6.976852,6.97685 0.388017,-0.38801 m 16.041587,-15.64247 -2.851102,2.85111 m -4.291766,4.29176 1.817129,-1.81713 m -3.368442,3.36844 -0.506769,0.50677 m -7.008039,7.00804 0.37492,-0.37492 m 15.078816,-14.67969 -5.628621,5.62862 m -2.571987,2.57199 0.443364,-0.44337 m -7.124775,7.12478 -0.351102,0.3511 m 10.676594,-10.27747 4.571214,-4.57121 m -7.572739,7.57273 -0.397468,0.39747 m -7.067633,7.06763 0.337931,-0.33793 m 7.35308,-6.95395 -0.378288,0.37828 m -7.107667,7.10767 0.329671,-0.32967 m 7.39196,-6.99284 -0.368876,0.36888 m -7.147699,7.1477 0.321412,-0.32141 m 7.430839,-7.03172 -0.367005,0.367 m -7.18019,7.18019 0.311932,-0.31193 m 7.470939,-7.07181 -0.375546,0.37554 m -7.20227,7.20227 0.302087,-0.30209 m 7.511405,-7.11228 -0.384087,0.38409 m -7.223584,7.22358 0.291477,-0.29147 m 7.551854,-7.15274 -0.392613,0.39262 m -7.243999,7.244 0.279969,-0.27997 m 7.592228,-7.19311 -0.401063,0.40106 m -7.264415,7.26442 0.26846,-0.26846 m 7.632603,-7.23348 -0.409513,0.40951 m -7.284831,7.28483 0.256952,-0.25695 m 7.674775,-7.27565 -0.419761,0.41976 m -7.305247,7.30525 0.245444,-0.24545 m 7.696503,-7.29738 -0.409566,0.40957 m -7.325662,7.32566 0.234864,-0.23486 m 7.717304,-7.31818 -0.421595,0.42159 m -7.323854,7.32385 0.248392,-0.24839 m 7.713996,-7.31487 -0.438993,0.43899 m -7.316676,7.31668 0.261921,-0.26192 m 7.698452,-7.29933 -0.444155,0.44415 m -7.306958,7.30696 0.283444,-0.28344 m 7.665344,-7.26623 -0.472324,0.47233 m -7.24423,7.24423 0.308609,-0.30861 m 7.60562,-7.2065 -0.503669,0.50367 m -7.178326,7.17833 0.350328,-0.35033 m 7.507095,-7.10797 -0.550788,0.55078 m -7.063234,7.06324 2.343783,-2.34378 m 5.437803,-5.03869 -0.584076,0.58408 m -6.930279,6.93028 2.40031,-2.40031 m 5.250969,-4.85185 -2.095982,2.09599 m -5.288066,5.28806 2.482814,-2.48281 m 5.020864,-4.62174 -2.374214,2.37421 m -4.757488,4.75749 2.461455,-2.46146 m 4.707587,-4.30846 -2.51432,2.51432 m -2.645321,2.64532 0.797787,-0.79779 m 4.437709,-4.03858 -2.551543,2.55154 m -2.284866,2.28486 0.744433,-0.74443 m 2.19667,-1.79755 -0.672714,0.67272 m -1.774714,1.77471 0.578059,-0.57806 m 1.686063,-1.28694 -1.816153,1.81616 m 0.451577,-0.0525 1.312963,-1.31296 m -0.05161,0.45073 -0.809774,0.80978 m 0.513073,-0.11395 0.187387,-0.18739"
         inkscape:connector-curvature="0" />
    </g>
  </g>
</svg>
