<?xml version="1.0" encoding="UTF-8" standalone="no"?>
<!-- Created with Inkscape (http://www.inkscape.org/) -->

<svg
   xmlns:dc="http://purl.org/dc/elements/1.1/"
   xmlns:cc="http://creativecommons.org/ns#"
   xmlns:rdf="http://www.w3.org/1999/02/22-rdf-syntax-ns#"
   xmlns:svg="http://www.w3.org/2000/svg"
   xmlns="http://www.w3.org/2000/svg"
   xmlns:sodipodi="http://sodipodi.sourceforge.net/DTD/sodipodi-0.dtd"
   xmlns:inkscape="http://www.inkscape.org/namespaces/inkscape"
   sodipodi:docname="50.svg"
   width="50mm"
   height="50mm"
   viewBox="0 0 50 50"
   version="1.1"
   id="svg8"
   inkscape:version="0.92.2 2405546, 2018-03-11">
  <sodipodi:namedview
     id="base"
     pagecolor="#ffffff"
     bordercolor="#666666"
     borderopacity="1.0"
     inkscape:pageopacity="0.0"
     inkscape:pageshadow="2"
     inkscape:zoom="1.0980616"
     inkscape:cx="129.31177"
     inkscape:cy="207.26322"
     inkscape:document-units="mm"
     inkscape:current-layer="layer1"
     showgrid="false"
     inkscape:window-width="1366"
     inkscape:window-height="703"
     inkscape:window-x="0"
     inkscape:window-y="0"
     inkscape:window-maximized="1" />
  <defs
     id="defs2" />
  <metadata
     id="metadata5">
    <rdf:RDF>
      <cc:Work
         rdf:about="">
        <dc:format>image/svg+xml</dc:format>
        <dc:type
           rdf:resource="http://purl.org/dc/dcmitype/StillImage" />
        <dc:title></dc:title>
      </cc:Work>
    </rdf:RDF>
  </metadata>
  <g
     id="layer1"
     inkscape:groupmode="layer"
     inkscape:label="Layer 1"
     transform="translate(0,-247)">
    <g
       id="g1065"
       transform="translate(-44.792583,145.93016)">
      <path
         id="path1039"
         d="m 67.609034,150.4645 c -0.06247,-0.0232 -0.151789,-0.0673 -0.198455,-0.0981 -0.298749,-0.19726 -21.905565,-15.25163 -21.95301,-15.29559 -0.210691,-0.19524 -0.434928,-0.81289 -0.535247,-1.47431 -0.228443,-1.50611 0.04664,-3.11458 0.694142,-4.05874 0.116088,-0.16928 0.33115,-0.38099 0.447796,-0.44083 l 0.07665,-0.0393 0.173146,0.0585 c 0.407264,0.13766 0.796012,0.17213 0.963164,0.0854 0.109314,-0.0567 0.266566,-0.2633 0.364104,-0.47832 0.0642,-0.14143 0.07462,-0.15321 0.158701,-0.17858 0.0495,-0.0149 0.08849,-0.0361 0.08664,-0.047 -0.002,-0.011 -0.394736,-0.48228 -0.873077,-1.04743 -0.487943,-0.5765 -0.895,-1.07624 -0.927329,-1.13847 -0.257011,-0.49471 -0.436612,-1.60235 -0.4058,-2.50275 0.0155,-0.45329 0.04877,-0.7046 0.150545,-1.13617 0.04092,-0.17361 0.09842,-0.41757 0.127737,-0.54214 l 0.05329,-0.22649 -0.125229,-0.26441 c -0.294343,-0.62151 -0.516092,-1.35481 -0.601109,-1.98779 -0.118096,-0.87924 0.120925,-2.22689 0.545075,-3.07322 0.201616,-0.4023 0.488828,-0.74363 0.724987,-0.86159 0.09517,-0.0476 0.188476,-0.0693 0.454004,-0.10597 0.183825,-0.0254 0.338176,-0.0502 0.343013,-0.055 0.0047,-0.005 0.01949,-0.18751 0.03261,-0.40581 0.03406,-0.56779 0.115009,-0.91225 0.300378,-1.27806 0.126999,-0.25061 0.421975,-0.52124 0.74188,-0.68066 0.211456,-0.10537 0.30266,-0.10995 0.574675,-0.0288 0.101816,0.0303 0.225635,0.0552 0.275162,0.0552 0.07953,0 0.09858,-0.01 0.1632,-0.0855 0.06248,-0.0729 0.222554,-0.347 0.222554,-0.38093 0,-0.006 -0.306798,-0.21943 -0.68178,-0.47397 -0.374976,-0.25454 -0.706339,-0.49121 -0.736365,-0.52594 -0.377404,-0.43648 -0.568728,-1.33278 -0.574376,-2.69068 -0.002,-0.49941 0.004,-0.62564 0.03553,-0.78336 0.147837,-0.7323 0.478641,-1.44428 1.019097,-2.19339 0.09119,-0.12638 0.192009,-0.26129 0.224058,-0.29981 l 0.05828,-0.07 10.46878,-2.03658 10.468771,-2.03657 11.558528,5.54625 c 11.040593,5.29773 11.561539,5.55016 11.62557,5.63341 0.195689,0.25444 0.215683,0.65657 0.04484,0.90153 -0.02738,0.0393 -0.07029,0.0625 -0.148348,0.0802 -0.189574,0.0429 -0.187475,0.0418 -0.174417,0.0937 0.01872,0.0745 -0.0429,0.13326 -0.357102,0.34054 -0.158667,0.1047 -0.337082,0.24023 -0.396475,0.30119 -0.28044,0.28785 -0.564677,0.75635 -0.683491,1.12656 -0.09899,0.30849 -0.124804,0.54674 -0.111066,1.02518 0.0069,0.23813 0.02145,0.44976 0.03244,0.47029 0.01273,0.0237 0.587142,0.27344 1.573111,0.68399 1.727987,0.71951 1.651998,0.6793 1.775002,0.9393 0.07242,0.1531 0.07847,0.28031 0.01799,0.37823 -0.05936,0.0961 -0.09809,0.11677 -0.44978,0.24057 -0.171785,0.0605 -0.314343,0.11129 -0.316795,0.11292 -0.0027,0.002 0.01013,0.0495 0.02792,0.10644 0.06735,0.21533 -0.0047,0.77271 -0.1704,1.31546 -0.135876,0.44545 -0.285256,0.7262 -0.581692,1.09323 -0.07752,0.096 -0.137995,0.17681 -0.134397,0.17961 0.004,0.003 0.208654,0.13464 0.455669,0.29295 0.530507,0.34001 0.537022,0.34486 0.611046,0.45443 0.104597,0.15487 0.06522,0.37396 -0.08212,0.45641 -0.03238,0.0181 -1.005822,0.39414 -2.163191,0.83558 l -2.104303,0.80261 -3.99e-4,0.0707 c -5.53e-4,0.1109 -0.04331,0.22661 -0.113858,0.30821 -0.06422,0.0743 -0.06974,0.0761 -0.604443,0.19654 -0.296816,0.0669 -0.544071,0.12601 -0.549474,0.13141 -0.01612,0.0161 -0.694084,1.13785 -0.801685,1.3264 -0.21461,0.37606 -0.29563,0.75476 -0.299421,1.39955 l -0.0027,0.42472 1.054949,0.64064 1.054943,0.64064 0.0679,0.1338 c 0.09582,0.18885 0.09423,0.31972 -0.0067,0.52073 -0.06289,0.12563 -0.0849,0.15131 -0.143971,0.16761 -0.194004,0.0536 -3.636967,1.05466 -3.642777,1.05919 -0.004,0.003 0.0077,0.0333 0.02558,0.0677 0.08121,0.15704 0.05983,0.34017 -0.0551,0.47135 -0.06805,0.0777 -0.06825,0.0777 -0.388488,0.12739 -0.176229,0.0272 -0.323271,0.0528 -0.326755,0.0566 -0.05423,0.0586 -0.386583,0.5769 -0.382325,0.59618 0.0033,0.0146 0.870719,0.44946 1.927754,0.96634 1.805669,0.88295 1.927734,0.94605 2.01866,1.04345 0.233098,0.24969 0.246103,0.48621 0.04037,0.73511 -0.05037,0.0609 -0.108581,0.0931 -0.301725,0.16649 l -0.239341,0.091 -0.02432,0.16671 c -0.06496,0.44422 -0.232311,0.68313 -0.835576,1.19282 -0.3794,0.32055 -0.44419,0.38841 -0.511439,0.53568 -0.113424,0.2484 -0.138427,0.50189 -0.08195,0.8307 0.06569,0.38228 -0.05157,0.26828 1.093924,1.06367 l 1.012291,0.70291 0.08732,0.16445 c 0.192352,0.36227 0.16459,0.6702 -0.07556,0.83806 -0.04037,0.0283 -4.735848,1.97536 -10.434295,4.32691 -9.553899,3.94256 -10.371408,4.27615 -10.496856,4.28337 -0.100159,0.006 -0.166021,-0.003 -0.24966,-0.0343 z"
         style="fill:none;stroke:#ff0000;stroke-width:0.1;stroke-miterlimit:4;stroke-dasharray:none"
         inkscape:connector-curvature="0" />
      <path
         id="path1037"
         d="m 68.290209,148.94704 0.04538,-0.0122 -0.05229,-0.13901 c -0.269487,-0.71566 -0.384596,-1.20713 -0.512035,-2.18617 -0.06121,-0.47065 -0.0664,-1.16664 -0.01104,-1.49542 0.03081,-0.18298 0.114151,-0.53482 0.170305,-0.71886 0.0071,-0.023 -0.0069,5.6e-4 -0.03101,0.0522 -0.111916,0.24053 -0.200525,0.73485 -0.227351,1.26829 -0.03839,0.763 0.100052,2.09793 0.273552,2.63803 0.07872,0.24508 0.250637,0.60646 0.288056,0.6055 0.0067,-2.3e-4 0.03167,-0.006 0.05662,-0.0125 z"
         style="fill:none;stroke:#0000ff;stroke-width:0.1;stroke-miterlimit:4;stroke-dasharray:none"
         inkscape:connector-curvature="0" />
      <path
         id="path1035"
         d="m 66.512638,147.87051 c -0.06128,-0.22553 -0.141124,-0.61337 -0.182116,-0.8848 -0.01849,-0.12253 -0.02821,-0.37714 -0.02794,-0.73113 5.52e-4,-0.59153 0.02262,-0.78121 0.155702,-1.33822 0.192381,-0.80496 0.595034,-1.70989 0.867115,-1.94877 0.164917,-0.1448 0.468735,-0.24978 0.636692,-0.22 0.04065,0.007 0.186692,0.0721 0.324569,0.14427 0.137871,0.0721 0.281363,0.13756 0.318861,0.1454 0.137351,0.0287 0.320398,-0.10919 0.507064,-0.382 0.04651,-0.068 0.09846,-0.116 0.145456,-0.1345 0.04019,-0.0159 1.941264,-0.74207 4.224562,-1.61383 2.283285,-0.87178 4.149287,-1.58719 4.146665,-1.58981 -0.0027,-0.003 -0.258588,0.0561 -0.568806,0.13054 -1.194873,0.28662 -4.88971,1.15629 -7.2175,1.69884 -1.338525,0.31196 -2.446698,0.57152 -2.462606,0.57679 -0.0167,0.006 0.06274,0.0725 0.18801,0.15854 0.282467,0.19397 0.481928,0.35887 0.527589,0.43617 0.03366,0.0571 0.03386,0.063 0.002,0.0751 -0.08124,0.0311 -0.466518,-0.11632 -0.995618,-0.38114 l -0.306772,-0.15354 -1.573335,0.37406 c -0.865333,0.20572 -2.02455,0.48658 -2.576052,0.62412 -1.146336,0.28588 -1.232251,0.30271 -1.545856,0.30257 -0.475082,-2.3e-4 -0.81355,-0.15879 -1.201473,-0.56297 -0.288069,-0.30014 -2.645486,-3.06179 -7.522708,-8.81263 -0.282567,-0.33318 -0.531534,-0.62061 -0.553265,-0.63872 -0.02176,-0.0181 -0.138209,-0.0926 -0.258848,-0.16547 -0.881048,-0.53236 -2.122054,-1.32325 -2.614887,-1.66647 -0.682746,-0.47547 -0.837196,-0.66132 -0.44898,-0.54028 0.21073,0.0658 1.148851,0.53246 1.826134,0.90859 0.267131,0.14836 0.485694,0.26604 0.485694,0.26153 0,-0.008 -1.736102,-2.06243 -1.977765,-2.34071 l -0.112015,-0.12899 -0.15306,0.0514 c -0.152242,0.0512 -0.153692,0.0524 -0.26966,0.22299 -0.131483,0.19344 -0.274556,0.35043 -0.375401,0.41191 -0.121437,0.074 -0.346333,0.0504 -0.812199,-0.0855 l -0.221922,-0.0647 -0.08841,0.0558 c -0.418874,0.26442 -0.694056,0.90292 -0.805859,1.86988 -0.07115,0.61531 -0.01584,1.15564 0.166773,1.6284 0.177398,0.45933 0.383033,0.73831 0.717037,0.97279 0.580909,0.40782 19.673908,13.53928 19.679591,13.53489 0.0033,-0.003 -0.01737,-0.093 -0.04664,-0.20046 z"
         style="fill:none;stroke:#0000ff;stroke-width:0.1;stroke-miterlimit:4;stroke-dasharray:none"
         inkscape:connector-curvature="0" />
      <path
         id="path1033"
         d="m 77.398726,144.3764 8.665351,-3.60157 0.0069,-0.0802 c 0.01046,-0.12224 -0.03185,-0.51035 -0.112025,-1.02823 -0.0768,-0.4962 -0.08622,-0.66763 -0.04963,-0.90351 0.01253,-0.0806 0.01772,-0.15163 0.01166,-0.15773 -0.01273,-0.0127 -1.537301,0.46605 -1.971612,0.6191 -0.610293,0.21506 -1.365389,0.49863 -2.78392,1.04548 -2.033906,0.78408 -2.626099,1.00272 -2.715952,1.00272 -0.05177,0 -0.01058,-0.0413 0.09948,-0.0998 0.635168,-0.33734 5.876135,-2.34836 7.31351,-2.80627 0.139673,-0.0445 0.157261,-0.0564 0.195856,-0.13291 0.128128,-0.25392 0.264656,-0.36679 0.645423,-0.53365 0.133484,-0.0585 0.267834,-0.13258 0.29854,-0.16463 0.06363,-0.0664 0.08508,-0.18284 0.03218,-0.17436 -0.01785,0.003 -1.982524,0.77463 -4.366021,1.71507 -2.383485,0.94044 -6.20431,2.44647 -8.490729,3.34672 l -4.15711,1.63683 -0.233366,0.22018 c -0.399926,0.37733 -0.503053,0.41561 -1.030475,0.38256 -0.1666,-0.0105 -0.304743,-0.0181 -0.306999,-0.017 -0.002,0.001 -0.02708,0.091 -0.05522,0.19986 -0.07203,0.27873 -0.117159,0.55795 -0.132415,0.81931 -0.01131,0.19425 -0.0087,0.22456 0.01916,0.22456 0.06201,0 1.367447,-0.46859 2.491349,-0.8943 1.760632,-0.66689 3.041399,-1.18428 4.198887,-1.69624 0.910256,-0.40259 1.456788,-0.62759 2.444136,-1.00616 1.555377,-0.59638 3.423621,-1.24067 3.869068,-1.33433 0.222382,-0.0468 0.217458,-0.014 -0.01484,0.0991 -0.298748,0.1453 -0.892425,0.38107 -2.671314,1.06088 -1.84487,0.70501 -2.483318,0.95495 -3.282337,1.28494 -1.697266,0.70099 -3.318045,1.33968 -5.670273,2.23449 -0.757555,0.28818 -1.380893,0.52749 -1.385211,0.5318 -0.0047,0.005 0.0076,0.1272 0.02642,0.2731 0.03745,0.29053 0.119407,0.64828 0.215428,0.94035 0.06868,0.20888 0.21437,0.59534 0.224444,0.59534 0.0033,0 3.905881,-1.6207 8.671812,-3.60156 z"
         style="fill:none;stroke:#0000ff;stroke-width:0.1;stroke-miterlimit:4;stroke-dasharray:none"
         inkscape:connector-curvature="0" />
      <path
         id="path1031"
         d="m 70.595018,146.48286 c 0,-0.0832 5.104061,-2.25207 8.303783,-3.5285 3.341,-1.33278 5.952278,-2.28971 6.172645,-2.26203 0.0429,0.005 0.02065,0.023 -0.120673,0.0956 -0.326549,0.16777 -1.108334,0.4832 -3.660071,1.47677 -2.042115,0.79514 -2.341036,0.91398 -4.230224,1.68165 -3.646508,1.48177 -5.585623,2.25248 -6.175854,2.45465 -0.295327,0.10115 -0.289606,0.0995 -0.289606,0.0818 z"
         style="fill:none;stroke:#0000ff;stroke-width:0.1;stroke-miterlimit:4;stroke-dasharray:none"
         inkscape:connector-curvature="0" />
      <path
         id="path1029"
         d="m 61.383521,141.65141 c -0.136793,-0.0915 -0.404118,-0.31959 -0.550318,-0.46951 -0.44445,-0.45573 -0.684961,-1.04209 -0.768307,-1.87304 -0.05296,-0.52792 0.03845,-1.1153 0.250871,-1.61203 0.08702,-0.20351 0.06327,-0.1983 -0.04265,0.009 -0.08219,0.16111 -0.17451,0.44265 -0.220731,0.67312 -0.03014,0.1505 -0.03772,0.29008 -0.03779,0.69979 -8e-5,0.72547 0.04251,1.00009 0.210844,1.35691 0.245647,0.52088 0.733996,1.06967 1.096104,1.2318 0.102554,0.0459 0.140232,0.036 0.06201,-0.0164 z"
         style="fill:none;stroke:#0000ff;stroke-width:0.1;stroke-miterlimit:4;stroke-dasharray:none"
         inkscape:connector-curvature="0" />
      <path
         id="path1027"
         d="m 60.033586,141.59101 c -0.208802,-0.31837 -0.516193,-0.94114 -0.622693,-1.26158 -0.146394,-0.44046 -0.168217,-0.59295 -0.168529,-1.17726 -3.13e-4,-0.55582 0.0145,-0.69723 0.125575,-1.19667 0.0718,-0.32303 0.137038,-0.50993 0.274982,-0.78781 0.305548,-0.61554 0.797563,-1.1877 1.186017,-1.3792 l 0.146234,-0.0721 0.271562,0.041 c 0.281004,0.0424 0.421955,0.0512 0.478575,0.0294 0.01803,-0.007 0.06743,-0.0609 0.10968,-0.12011 0.10177,-0.14242 0.214331,-0.26137 0.278689,-0.29452 0.02874,-0.0148 0.256686,-0.0581 0.506585,-0.0961 0.249893,-0.038 0.45395,-0.0745 0.453458,-0.0811 -6.52e-4,-0.01 -1.982635,-1.51965 -5.155165,-3.92772 -0.520124,-0.39479 -0.544609,-0.43381 0.3096,0.49321 1.937744,2.10291 2.931487,3.30647 2.980761,3.61012 0.01138,0.0701 0.009,0.0736 -0.04857,0.0736 -0.121423,0 -0.397304,-0.22541 -0.997135,-0.8147 -0.66777,-0.65602 -1.406862,-1.44059 -3.187953,-3.38407 -1.484592,-1.61996 -2.138822,-2.31754 -2.26918,-2.41954 -0.733923,-0.57427 -7.856559,-5.97103 -7.867065,-5.9608 -0.02189,0.0213 -0.113812,0.50019 -0.155096,0.80793 -0.05077,0.37811 -0.0515,1.11465 -0.0013,1.38914 0.0658,0.36077 0.157051,0.62978 0.281735,0.83059 0.06587,0.10606 13.07678,15.7556 13.099109,15.7556 0.0047,0 -0.009,-0.0258 -0.02981,-0.0575 z"
         style="fill:none;stroke:#0000ff;stroke-width:0.1;stroke-miterlimit:4;stroke-dasharray:none"
         inkscape:connector-curvature="0" />
      <path
         id="path1025"
         d="m 72.49601,138.44949 c 5.922846,-1.39265 10.775569,-2.53768 10.783837,-2.54449 0.01193,-0.01 -0.04051,-0.43541 -0.0561,-0.45539 -0.002,-0.003 -0.05496,0.0223 -0.117242,0.056 -0.249187,0.13449 -0.783544,0.26238 -1.962008,0.46957 -0.361914,0.0637 -0.770842,0.13863 -0.908719,0.16666 -1.011779,0.20572 -2.477882,0.43405 -3.00317,0.46772 -0.406724,0.026 -0.531568,-0.003 -0.360237,-0.0852 0.173878,-0.0829 0.656957,-0.1843 2.099566,-0.44069 0.614689,-0.10924 1.811385,-0.33069 2.659319,-0.49211 0.847934,-0.16142 1.543577,-0.29349 1.545862,-0.29349 0.0027,0 0.004,-0.19036 0.004,-0.42301 0,-0.47658 0.01719,-0.56802 0.176535,-0.93755 0.04584,-0.10638 0.08131,-0.19519 0.07876,-0.19735 -0.0047,-0.004 -7.213341,1.13009 -7.305682,1.14945 -0.09342,0.0197 -6.221468,1.79744 -6.215826,1.8033 0.0067,0.007 1.253761,-0.17734 2.246725,-0.33126 0.888666,-0.13774 1.868782,-0.30276 4.083997,-0.68758 2.100724,-0.36494 3.283987,-0.56105 3.838936,-0.63622 0.407742,-0.0552 0.644681,-0.0682 0.609591,-0.0334 -0.09746,0.0967 -3.2041,0.69435 -6.892663,1.32604 -1.280774,0.21934 -3.365324,0.5564 -5.044932,0.81572 l -0.887822,0.13707 -0.722252,0.20855 c -0.397245,0.11471 -0.733584,0.20855 -0.747437,0.20855 -0.0139,0 -0.07062,-0.0359 -0.126153,-0.0798 l -0.100971,-0.0798 -0.854129,0.12065 c -1.041507,0.14712 -2.012295,0.2736 -2.556664,0.33311 -0.435907,0.0476 -0.958846,0.0642 -0.962066,0.0303 -0.0073,-0.0759 1.024421,-0.27172 3.082398,-0.585 0.494043,-0.0752 0.912298,-0.13913 0.929444,-0.14206 0.0509,-0.009 -0.794974,-0.6409 -0.858227,-0.64146 -0.02974,-2.3e-4 -0.496379,0.0696 -1.036903,0.1553 l -0.98279,0.15576 -0.122489,0.11705 c -0.215015,0.20546 -0.571374,0.34376 -0.884973,0.34346 -0.18803,-2.4e-4 -0.301769,-0.0243 -0.454097,-0.0964 l -0.114078,-0.054 -0.09715,0.11066 c -0.234856,0.26749 -0.408641,0.56978 -0.473671,0.82391 -0.09779,0.38215 -0.08033,1.09279 0.03613,1.47225 0.02302,0.0749 0.04411,0.13874 0.04697,0.14181 0.0027,0.003 0.168689,-0.0282 0.368601,-0.0695 2.076454,-0.42906 4.076906,-0.7743 5.377074,-0.92798 1.13452,-0.13411 1.877572,-0.26517 4.219786,-0.74431 1.608304,-0.32901 2.018016,-0.40057 2.078681,-0.36307 0.02368,0.0146 0.01384,0.0258 -0.04444,0.0502 -0.307477,0.12847 -1.291,0.37169 -2.828101,0.69936 -1.221898,0.26047 -2.223099,0.44838 -3.67664,0.69007 -1.290927,0.21465 -5.181113,0.92545 -5.334053,0.97463 -0.03526,0.0113 0.08098,0.2294 0.228995,0.42966 0.122607,0.1659 0.380591,0.41446 0.431316,0.41558 0.01989,4.7e-4 4.882125,-1.13865 10.804964,-2.53131 z"
         style="fill:none;stroke:#0000ff;stroke-width:0.1;stroke-miterlimit:4;stroke-dasharray:none"
         inkscape:connector-curvature="0" />
      <path
         id="path1023"
         d="m 86.283424,136.0189 c 0.201066,-0.0771 0.416822,-0.15948 0.479473,-0.18295 l 0.113891,-0.0426 -1.333037,-0.66656 c -0.733171,-0.36661 -1.336895,-0.66271 -1.341606,-0.658 -0.02272,0.0227 -0.07276,0.35798 -0.07657,0.51255 l -0.0047,0.17407 0.853624,0.51908 c 0.698128,0.42453 0.861758,0.51596 0.898267,0.50193 0.02458,-0.009 0.209161,-0.0803 0.410227,-0.15744 z"
         style="fill:none;stroke:#0000ff;stroke-width:0.1;stroke-miterlimit:4;stroke-dasharray:none"
         inkscape:connector-curvature="0" />
      <path
         id="path1021"
         d="m 66.589364,136.1117 c 0.04304,-0.012 0.07834,-0.0245 0.07834,-0.028 0,-0.003 -0.05083,-0.0822 -0.112927,-0.17498 -0.410065,-0.61263 -0.646418,-1.31816 -0.753863,-2.25041 -0.03919,-0.33972 -0.04458,-0.94084 -0.01085,-1.21159 0.07967,-0.64062 0.310026,-1.21364 0.653239,-1.62498 0.04591,-0.055 0.07942,-0.10413 0.07444,-0.1091 -0.0053,-0.005 -0.04305,3.2e-4 -0.0846,0.0119 -0.145236,0.04 -0.407297,0.38771 -0.53687,0.71213 -0.09115,0.22824 -0.161923,0.50655 -0.214378,0.84302 -0.03939,0.25277 -0.04578,0.38172 -0.04691,0.95047 -0.0013,0.60131 0.0027,0.67962 0.04638,0.90869 0.134591,0.70754 0.416472,1.49181 0.670783,1.86628 0.09183,0.13523 0.108077,0.14254 0.237258,0.10666 z"
         style="fill:none;stroke:#0000ff;stroke-width:0.1;stroke-miterlimit:4;stroke-dasharray:none"
         inkscape:connector-curvature="0" />
      <path
         id="path1019"
         d="m 64.978465,135.34512 c -0.225422,-0.4496 -0.411749,-1.13912 -0.517909,-1.91661 -0.05316,-0.38936 -0.05296,-1.34293 3.19e-4,-1.68159 0.08135,-0.51672 0.249966,-1.04074 0.457091,-1.42048 0.08241,-0.1511 0.330851,-0.52714 0.409074,-0.6192 0.03227,-0.038 0.368189,-0.11833 2.224735,-0.53229 1.202691,-0.26816 2.186719,-0.49323 2.186719,-0.50018 0,-0.007 -0.641587,-0.32999 -1.425743,-0.71788 -1.240455,-0.61361 -4.801879,-2.39994 -12.73768,-6.38896 -1.143209,-0.57465 -2.06916,-1.03501 -2.05767,-1.02304 0.01145,0.012 0.255907,0.18434 0.543138,0.38305 1.372424,0.94944 2.167218,1.51843 2.799265,2.00397 5.020754,3.85701 8.008594,6.28593 7.916219,6.43538 -0.08792,0.14226 -3.239143,-2.00345 -8.052007,-5.48269 -0.476778,-0.34469 -1.235883,-0.89277 -1.686867,-1.21797 -2.291948,-1.65267 -3.960006,-2.89093 -5.154572,-3.82643 l -0.438688,-0.34354 -0.814714,-0.40115 -0.814714,-0.40115 -0.07137,-0.11944 c -0.128203,-0.21453 -0.31417,-0.7997 -0.314902,-0.99089 -1.6e-4,-0.0478 -0.004,-0.049 -0.120306,-0.0353 -0.170053,0.02 -0.187165,0.0273 -0.210884,0.0908 -0.01158,0.0311 -0.08307,0.19689 -0.158769,0.36834 -0.502912,1.13924 -0.694122,2.04016 -0.587762,2.76944 0.100652,0.69011 0.372693,1.44845 0.631974,1.76168 0.07722,0.0933 2.205022,1.74499 9.073134,7.04297 4.93474,3.80661 8.979416,6.92199 8.988159,6.92308 0.0087,0.001 -0.02063,-0.0709 -0.06527,-0.15991 z"
         style="fill:none;stroke:#0000ff;stroke-width:0.1;stroke-miterlimit:4;stroke-dasharray:none"
         inkscape:connector-curvature="0" />
      <path
         id="path1017"
         d="m 76.84113,132.36313 c 5.267951,-1.43114 9.594812,-2.60719 9.615265,-2.61344 0.03345,-0.0103 0.03584,-0.0303 0.02318,-0.20299 -0.0077,-0.10539 -0.01759,-0.19576 -0.02205,-0.20082 -0.0047,-0.005 -0.423858,0.0911 -0.931992,0.21369 -0.508141,0.12258 -1.727628,0.41041 -2.709986,0.63964 -2.515543,0.58698 -3.115621,0.73247 -5.347835,1.29671 -3.224613,0.81506 -4.260497,1.05812 -4.898712,1.14943 -0.331682,0.0474 -0.434063,-0.003 -0.219347,-0.10887 0.351482,-0.17272 1.43048,-0.45795 4.439126,-1.17346 0.896184,-0.21312 1.808031,-0.43052 2.026334,-0.48309 0.604069,-0.14547 5.35168,-1.31207 6.569074,-1.61417 l 1.074997,-0.26676 0.01406,-0.0726 c 0.0078,-0.0399 0.01985,-0.18218 0.02685,-0.31608 l 0.01292,-0.24344 -0.224543,-0.0153 c -0.416382,-0.0284 -0.917275,0.0236 -1.624184,0.16856 -0.333004,0.0683 -0.603397,0.13494 -1.932317,0.47618 -0.543318,0.1395 -0.729894,0.17073 -0.746016,0.12485 -0.03151,-0.0897 1.074936,-0.44859 2.532111,-0.82128 1.118207,-0.28599 1.182391,-0.29822 1.636748,-0.31157 l 0.404244,-0.0119 0.04637,-0.17756 c 0.02552,-0.0977 0.101772,-0.34399 0.169467,-0.54738 0.0677,-0.2034 0.116955,-0.37594 0.109467,-0.38343 -0.0075,-0.008 -1.055296,0.23223 -2.328467,0.5327 -2.294949,0.54161 -2.31854,0.54769 -2.743097,0.70809 -1.268528,0.47925 -4.46525,1.70679 -4.459821,1.71259 0.0033,0.004 0.291569,-0.0685 0.640204,-0.16056 1.738869,-0.45896 2.554495,-0.64066 2.645946,-0.58948 0.105361,0.059 -0.507071,0.24147 -3.150568,0.93894 -2.124603,0.56056 -2.460703,0.65295 -2.622912,0.72102 -0.0696,0.0292 -0.210604,0.066 -0.313352,0.0817 -0.102734,0.0158 -0.666218,0.15798 -1.252185,0.3161 -2.458054,0.66329 -4.999776,1.31342 -5.801915,1.48402 -0.865273,0.18403 -0.766258,0.082 0.21111,-0.21763 1.064102,-0.32618 3.072811,-0.87702 5.377573,-1.47465 0.590803,-0.1532 0.782685,-0.21048 0.762485,-0.22759 -0.01484,-0.0126 -0.25411,-0.13492 -0.531674,-0.27189 l -0.504683,-0.24904 -2.910841,0.68605 c -1.600959,0.37733 -2.9349,0.69802 -2.964307,0.71265 -0.13314,0.0662 -0.302195,0.36428 -0.379507,0.66916 -0.09504,0.3748 -0.04578,1.47548 0.09003,2.01118 0.05396,0.21267 0.143267,0.38948 0.25662,0.50778 0.09751,0.10176 0.294676,0.22785 0.334696,0.21403 0.01277,-0.005 4.333331,-1.17894 9.601263,-2.61009 z"
         style="fill:none;stroke:#0000ff;stroke-width:0.1;stroke-miterlimit:4;stroke-dasharray:none"
         inkscape:connector-curvature="0" />
      <path
         id="path1015"
         d="m 75.493724,130.30854 0.229799,-0.0585 -0.08796,-0.0453 c -0.134245,-0.0692 -0.181889,-0.06 -0.305289,0.0587 -0.05948,0.0572 -0.09871,0.10396 -0.08723,0.10391 0.01145,0 0.124305,-0.0264 0.250679,-0.0587 z"
         style="fill:none;stroke:#0000ff;stroke-width:0.1;stroke-miterlimit:4;stroke-dasharray:none"
         inkscape:connector-curvature="0" />
      <path
         id="path1013"
         d="m 73.549851,129.21709 c -0.254702,-0.50713 -0.383012,-1.22575 -0.32409,-1.81517 0.05176,-0.51726 0.183106,-0.9032 0.438754,-1.28876 0.252867,-0.38134 0.492433,-0.6176 0.763823,-0.75332 0.04598,-0.023 2.329133,-0.8157 5.073721,-1.76158 2.744591,-0.94589 4.981905,-1.72254 4.971825,-1.72588 -0.01932,-0.007 -11.583106,3.03094 -11.652294,3.06055 -0.03446,0.0147 -0.02428,0.0267 0.07311,0.0864 0.179048,0.1097 0.275301,0.19203 0.251895,0.21543 -0.02428,0.0242 -0.238821,-0.0368 -0.502912,-0.1431 l -0.176114,-0.0709 -1.670326,0.43968 c -0.91868,0.24183 -1.683022,0.43482 -1.698531,0.42887 -0.0155,-0.006 -2.587602,-1.74262 -5.715742,-3.85924 -3.128145,-2.11662 -5.913525,-4.00092 -6.189731,-4.18735 l -0.502194,-0.33892 -1.325684,-0.65131 c -3.512676,-1.72577 -5.226362,-2.65209 -5.146216,-2.78176 0.06015,-0.0973 1.318665,0.41958 3.340068,1.3717 0.137871,0.0649 0.241283,0.10927 0.229793,0.0985 -0.03147,-0.0295 -3.087508,-2.09684 -3.115418,-2.10754 -0.01331,-0.005 -0.0626,10e-4 -0.109587,0.0138 -0.106992,0.0288 -0.173566,0.10974 -0.259174,0.31504 -0.07807,0.18723 -0.204244,0.32018 -0.393678,0.41484 -0.166074,0.083 -0.275887,0.0848 -0.433917,0.007 -0.09975,-0.049 -0.142974,-0.0575 -0.294477,-0.0574 -0.31292,9e-5 -0.476146,0.11926 -0.652652,0.4765 -0.177638,0.35954 -0.229541,0.64229 -0.230765,1.25727 -6.52e-4,0.38756 0.0047,0.45816 0.04471,0.6058 0.0489,0.1795 0.160345,0.43043 0.224676,0.50612 0.03287,0.0387 25.011329,12.43199 25.060796,12.43416 0.0087,3.9e-4 -0.02708,-0.0849 -0.07965,-0.18952 z"
         style="fill:none;stroke:#0000ff;stroke-width:0.1;stroke-miterlimit:4;stroke-dasharray:none"
         inkscape:connector-curvature="0" />
      <path
         id="path1011"
         d="m 75.295275,129.04064 c 0,-0.007 -0.05509,-0.0626 -0.122415,-0.12488 -0.06733,-0.0624 -0.169421,-0.18169 -0.226872,-0.26524 -0.335475,-0.48784 -0.504749,-0.98728 -0.509293,-1.50255 l -0.002,-0.23695 -0.03892,0.12051 c -0.05502,0.17016 -0.08943,0.45827 -0.07267,0.60839 0.04025,0.36033 0.303106,0.86877 0.608607,1.1772 0.147311,0.14871 0.363704,0.2817 0.363704,0.22352 z"
         style="fill:none;stroke:#0000ff;stroke-width:0.1;stroke-miterlimit:4;stroke-dasharray:none"
         inkscape:connector-curvature="0" />
      <path
         id="path1009"
         d="m 83.724397,125.49184 c 4.446435,-1.59466 8.123855,-2.91473 8.17203,-2.93348 0.07371,-0.0286 0.122918,-0.0805 0.31024,-0.32655 0.33427,-0.4391 0.547654,-0.74023 0.762424,-1.07594 0.234757,-0.36694 0.326396,-0.55296 0.344737,-0.69974 0.01632,-0.13058 -0.0047,-0.28198 -0.03924,-0.28181 -0.05556,2.3e-4 -18.237177,6.51609 -18.25369,6.54167 -0.0501,0.0776 -0.07021,0.21521 -0.06983,0.47705 4.72e-4,0.32331 0.04324,0.51463 0.167883,0.75108 0.130971,0.24847 0.361489,0.47236 0.468847,0.45538 0.02874,-0.005 3.690221,-1.31299 8.136663,-2.90766 z"
         style="fill:none;stroke:#0000ff;stroke-width:0.1;stroke-miterlimit:4;stroke-dasharray:none"
         inkscape:connector-curvature="0" />
      <path
         id="path1007"
         d="m 75.566843,127.94561 c 0,-0.0833 2.560597,-1.04579 9.33784,-3.50998 1.763637,-0.64124 3.646508,-1.32685 4.18415,-1.52356 1.776168,-0.64988 2.952024,-1.02552 2.888527,-0.92277 -0.04191,0.0678 -1.207648,0.55476 -2.570879,1.07394 -2.821385,1.07449 -12.090535,4.37615 -13.380058,4.76596 -0.405841,0.12268 -0.45958,0.13629 -0.45958,0.11641 z"
         style="fill:none;stroke:#0000ff;stroke-width:0.1;stroke-miterlimit:4;stroke-dasharray:none"
         inkscape:connector-curvature="0" />
      <path
         id="path1005"
         d="m 76.115205,126.88675 c -0.09906,-0.04 0.08182,-0.16596 0.510597,-0.3557 0.756431,-0.33471 1.813326,-0.71998 5.260275,-1.91754 1.638434,-0.56922 2.612491,-0.91586 3.582637,-1.27493 5.100851,-1.88792 7.019045,-2.56029 7.019045,-2.46031 0,0.10204 -2.140372,0.93668 -6.632576,2.58641 -0.804264,0.29536 -2.327155,0.86108 -3.384183,1.25716 -4.127786,1.54674 -5.496051,2.02569 -6.131046,2.14613 -0.183332,0.0348 -0.184789,0.0349 -0.224749,0.0188 z"
         style="fill:none;stroke:#0000ff;stroke-width:0.1;stroke-miterlimit:4;stroke-dasharray:none"
         inkscape:connector-curvature="0" />
      <path
         id="path1003"
         d="m 68.599031,124.07947 c -0.341656,-1.10186 -0.437504,-1.67136 -0.386133,-2.29439 0.08955,-1.08612 0.557337,-2.1684 1.33933,-3.09873 l 0.162853,-0.19374 10.984199,-2.74464 c 6.041319,-1.50956 10.990565,-2.75039 10.998333,-2.75741 0.01459,-0.0132 -21.745999,-10.59918 -21.80884,-10.60946 -0.04072,-0.007 -20.420666,4.12046 -20.456547,4.14263 -0.04418,0.0273 -0.202521,0.29071 -0.338782,0.56349 -0.238595,0.47764 -0.390072,0.90532 -0.466026,1.31581 -0.02941,0.1587 -0.03286,0.2808 -0.02288,0.78335 0.02468,1.2334 0.164323,1.89784 0.484203,2.3041 0.05063,0.0643 19.654461,13.14228 19.662791,13.11731 0.0033,-0.01 -0.0654,-0.24741 -0.152515,-0.52832 z"
         style="fill:none;stroke:#0000ff;stroke-width:0.1;stroke-miterlimit:4;stroke-dasharray:none"
         inkscape:connector-curvature="0" />
      <path
         id="path1001"
         d="m 69.210758,118.3029 c -0.217963,-0.0705 -1.020582,-0.47526 -1.749242,-0.88213 -1.316828,-0.7353 -2.151941,-1.22794 -6.486344,-3.8263 -1.700446,-1.01938 -3.712156,-2.22456 -4.470463,-2.67818 -3.544864,-2.12053 -5.637239,-3.42356 -6.350563,-3.95485 -0.258948,-0.19285 -0.344683,-0.26858 -0.344683,-0.30441 0,-0.0531 0.165928,0.007 0.573471,0.20662 1.04983,0.51508 3.38925,1.85928 7.761636,4.45976 0.695121,0.41342 2.250904,1.33448 3.4573,2.04681 4.303018,2.54074 5.597438,3.32432 6.737028,4.07828 0.774509,0.51242 1.11846,0.78207 1.102598,0.86443 -0.0095,0.0495 -0.05249,0.0476 -0.230738,-0.0101 z"
         style="fill:none;stroke:#0000ff;stroke-width:0.1;stroke-miterlimit:4;stroke-dasharray:none"
         inkscape:connector-curvature="0" />
      <path
         id="path999"
         d="m 69.672759,124.39621 c 0.02282,-0.0145 -2.39e-4,-0.12617 -0.119374,-0.57935 -0.250598,-0.95323 -0.316898,-1.32133 -0.31765,-1.76348 -0.0013,-0.71753 0.237205,-1.38396 0.888839,-2.48442 0.112069,-0.18927 0.208056,-0.3553 0.213306,-0.36895 0.0073,-0.0189 -0.01118,-0.0196 -0.07667,-0.003 -0.07967,0.0203 -0.09828,0.0402 -0.245694,0.26341 -0.422002,0.63906 -0.742766,1.42971 -0.854176,2.10544 -0.05748,0.34859 -0.04937,0.86471 0.01843,1.17769 0.100226,0.46255 0.420231,1.67116 0.442394,1.67084 0.01231,-2.3e-4 0.03506,-0.008 0.05063,-0.0182 z"
         style="fill:none;stroke:#0000ff;stroke-width:0.1;stroke-miterlimit:4;stroke-dasharray:none"
         inkscape:connector-curvature="0" />
      <path
         id="path997"
         d="m 80.287985,120.79027 c 5.543687,-1.38541 10.113725,-2.52799 10.155631,-2.53908 l 0.07619,-0.0203 -0.03971,-0.15121 c -0.105036,-0.39964 -0.164237,-1.0342 -0.164677,-1.76493 -2.33e-4,-0.17521 -0.0053,-0.31856 -0.01079,-0.31856 -0.006,0 -0.130354,0.0338 -0.276789,0.0751 -0.728568,0.20541 -2.387215,0.59951 -5.759978,1.3686 -1.309993,0.29872 -3.011631,0.68775 -3.781435,0.8645 -3.46917,0.79655 -4.718034,1.07587 -6.078987,1.35962 -1.079956,0.22516 -1.612203,0.30696 -1.54227,0.23702 0.129986,-0.12998 3.640154,-1.0411 7.595096,-1.97144 3.374851,-0.79388 8.601332,-1.90286 9.754742,-2.06982 l 0.09829,-0.0142 0.01339,-0.097 c 0.04424,-0.32075 0.136569,-0.52832 0.397575,-0.89409 l 0.03218,-0.0451 -0.100507,0.0285 c -0.0553,0.0156 -4.556334,1.18586 -10.002369,2.60044 -5.446029,1.41459 -9.948873,2.58543 -10.006318,2.60185 -0.0933,0.0267 -0.113267,0.0436 -0.187019,0.15804 -0.262867,0.40798 -0.430843,0.89919 -0.491954,1.43861 -0.02528,0.22283 -0.03214,0.88982 -0.01038,1.00571 l 0.01437,0.0765 0.110558,-0.038 c 0.173911,-0.0599 0.71353,-0.19405 1.462663,-0.36379 0.379153,-0.0859 1.329749,-0.31601 2.112427,-0.51132 1.884146,-0.47016 2.589952,-0.62651 2.724003,-0.6034 0.182966,0.0315 -1.137062,0.45875 -3.008552,0.97369 -1.308831,0.36013 -2.300491,0.56136 -3.262378,0.662 l -0.118422,0.0124 0.04045,0.15016 c 0.06862,0.2546 0.102195,0.33053 0.140971,0.31883 0.01903,-0.006 4.570283,-1.14394 10.113963,-2.52935 z"
         style="fill:none;stroke:#0000ff;stroke-width:0.1;stroke-miterlimit:4;stroke-dasharray:none"
         inkscape:connector-curvature="0" />
      <path
         id="path826"
         d="m 70.961165,121.44937 c -0.04943,-0.08 0.629731,-0.2765 2.213771,-0.64056 0.724302,-0.16647 1.662156,-0.37186 3.697531,-0.80975 0.988101,-0.21259 2.501582,-0.54155 3.363288,-0.73103 4.603126,-1.01215 6.653478,-1.41648 6.653478,-1.31206 0,0.1724 -7.187394,1.87232 -12.303504,2.90994 -2.323577,0.47126 -3.569914,0.67189 -3.624564,0.58346 z"
         style="fill:none;stroke:#0000ff;stroke-width:0.1;stroke-miterlimit:4;stroke-dasharray:none"
         inkscape:connector-curvature="0" />
      <path
         id="path981"
         style="fill:none;stroke:#0000ff;stroke-width:0.1"
         d="m 49.321734,105.94091 -1.049421,1.04942 m 0.03964,0.35948 1.505304,-1.5053 m 0.49552,-0.0964 -0.387903,0.3879 m -1.965667,1.96567 0.867443,-0.86744 m 1.981647,-1.58253 -0.382951,0.38295 m -2.445788,2.44579 0.554931,-0.55493 m 2.769328,-2.3702 -0.377998,0.37799 m -2.984341,2.98434 0.377938,-0.37793 m 3.479921,-3.0808 -0.373046,0.37304 m -3.452734,3.45274 0.356172,-0.35617 m 3.965128,-3.56601 -0.368093,0.36809 m -3.921128,3.92113 0.312085,-0.31208 m 4.472657,-4.07354 -0.363141,0.36314 m -4.389522,4.38953 0.328728,-0.32873 m 4.919455,-4.52033 -0.358189,0.35818 m -4.857915,4.85792 0.329559,-0.32956 m 5.382065,-4.98294 -0.353236,0.35323 m -5.317175,5.31718 0.321255,-0.32126 m 5.844676,-5.44555 -0.348284,0.34828 m -5.724512,5.72452 0.261029,-0.26103 m 6.307288,-5.90817 -0.343332,0.34333 m -6.107274,6.10728 0.249659,-0.24966 m 6.696467,-6.29735 -0.338379,0.33838 m -6.449941,6.44994 0.209325,-0.20932 m 7.074515,-6.67539 -0.333427,0.33342 m -6.717585,6.71759 0.122795,-0.1228 m 7.423737,-7.02461 -0.328475,0.32847 m -6.985229,6.98523 0.102564,-0.10256 m 7.706661,-7.30754 -0.323522,0.32352 m -7.252875,7.25288 0.109146,-0.10915 m 7.962771,-7.56365 -0.31857,0.31857 m -7.51752,7.51752 0.112729,-0.11273 m -1.287532,1.28754 -0.298626,0.29862 m 9.491421,-9.0923 0.313618,-0.31362 m -7.979473,7.97948 -0.116694,0.11669 m -1.881728,1.88173 0.891862,-0.89186 m 9.581553,-9.18243 -0.308665,0.30866 m -8.051591,8.05159 0.124672,-0.12467 m -1.00835,1.00835 -1.270975,1.27098 m -1.673315,1.67331 0.365459,-0.36546 m 12.318285,-11.91916 -0.303713,0.30371 m -10.766756,10.76676 2.578775,-2.57878 m -3.307597,3.3076 -1.185429,1.18543 m 13.18148,-12.78236 0.375013,-0.37501 m -8.824058,8.82406 -1.1257,1.1257 m -3.553932,3.55393 2.215399,-2.2154 m 11.707559,-11.30844 -0.293808,0.29381 m -9.761056,9.76106 1.050948,-1.05095 m -2.690313,2.69031 -2.38184,2.38184 m 14.282733,-13.88361 0.288855,-0.28885 m -9.260026,9.26002 -0.110922,0.11093 m -3.200351,3.20035 0.367843,-0.36785 m -1.582746,1.58275 -0.836974,0.83697 m 14.834794,-14.43567 0.283902,-0.2839 m -9.516137,9.51614 -0.125622,0.12562 m -3.333539,3.33354 0.311827,-0.31183 m -1.823433,1.82343 -0.688704,0.68871 m 15.392179,-14.99306 0.278949,-0.27895 m -9.772247,9.77225 -0.12696,0.12696 m -3.493203,3.4932 0.318011,-0.31801 m -1.997876,1.99788 -0.586031,0.58603 m 15.879829,-15.48071 0.273997,-0.27399 m -10.028358,10.02835 -0.128299,0.1283 m -3.615802,3.6158 0.325247,-0.32524 m -2.220945,2.22094 -0.464236,0.46424 m 16.358869,-15.95975 0.269044,-0.26904 m -10.284468,10.28447 -0.129637,0.12963 m -3.67812,3.67812 0.311115,-0.31111 m -2.364221,2.36422 -0.40995,0.40995 m 16.786709,-16.38759 0.264091,-0.26409 m -10.540578,10.54058 -0.130976,0.13098 m -3.64875,3.64874 0.31044,-0.31044 m -2.603892,2.6039 -0.364414,0.36441 m 17.214552,-16.81543 0.259138,-0.25914 m -10.796689,10.79669 -0.132315,0.13232 m -3.61938,3.61938 0.309764,-0.30977 m -2.777568,2.77757 -0.376255,0.37626 m 17.633778,-17.23466 0.254185,-0.25418 m -11.052799,11.0528 -0.133653,0.13365 m -3.590012,3.59001 0.309089,-0.30909 m -2.964269,2.96427 -0.34578,0.34578 m 18.023711,-17.62459 0.249232,-0.24923 m -11.308909,11.30891 -0.134992,0.13499 m -3.560642,3.56064 0.308413,-0.30841 m -3.150969,3.15097 -0.315306,0.31531 m 18.413646,-18.01453 0.24428,-0.24428 m -11.565021,11.56502 -0.13633,0.13633 m -3.531273,3.53127 0.307738,-0.30773 m -3.283818,3.28382 -0.340451,0.34045 m 18.805347,-18.40623 0.239327,-0.23933 m -11.82113,11.82113 -0.137669,0.13767 m -3.521932,3.52194 0.327091,-0.32709 m -3.416177,3.41617 -0.320957,0.32096 m 19.15192,-18.7528 0.234374,-0.23437 m -12.077241,12.07724 -0.139008,0.13901 m -3.536167,3.53616 0.37002,-0.37002 m -3.548536,3.54854 -0.511017,0.51102 m 19.708047,-19.30893 0.229421,-0.22942 m -12.333351,12.33335 -0.140346,0.14035 m -3.548259,3.54826 0.410806,-0.41081 m -3.601663,3.60166 -0.847676,0.84768 m 20.331541,-19.93242 0.224468,-0.22447 m -12.589461,12.58946 -0.141685,0.14169 m -3.557257,3.55726 0.448498,-0.4485 m -3.643727,3.64373 -1.133339,1.13334 m 20.892976,-20.49386 0.219515,-0.21951 m -12.845572,12.84557 -0.455588,0.45559 m -3.25369,3.25369 0.486189,-0.48619 m -3.685791,3.68579 -1.451628,1.45163 m 21.487037,-21.08792 0.214562,-0.21456 m -13.101682,13.10168 -0.430231,0.43023 m -3.289383,3.28938 0.523881,-0.52388 m -3.727856,3.72786 -0.404713,0.40471 m -1.246321,1.24632 0.426225,-0.42622 m 21.7456,-21.34648 -0.20961,0.20961 m -13.553056,13.55306 0.404874,-0.40488 m -3.168379,3.16838 -0.561572,0.56157 m -3.610689,3.61069 0.402341,-0.40234 m -1.45404,1.45404 -0.3964,0.3964 m 22.437394,-22.03827 0.204657,-0.20466 m -13.613903,13.61391 -0.379516,0.37951 m -3.360771,3.36077 0.599264,-0.59926 m -3.811984,3.81199 -0.39997,0.39997 m -1.649876,1.64987 0.370732,-0.37073 m 22.741544,-22.34242 -0.199704,0.1997 m -14.024469,14.02447 0.354159,-0.35416 m -3.113668,3.11367 -0.636955,0.63695 m -3.614691,3.6147 0.397598,-0.3976 m -1.904188,1.90419 -0.343731,0.34373 m 23.386418,-22.9873 0.317489,-0.31749 m -14.248862,14.24886 -0.328802,0.32881 m -3.432158,3.43215 0.674647,-0.67464 m -3.896113,3.89611 -0.395226,0.39523 m -1.989412,1.98941 0.255376,-0.25538 m 23.630256,-23.23113 -0.08672,0.0867 m -14.495881,14.49588 0.303445,-0.30344 m -3.058957,3.05895 -0.712338,0.71234 m -3.618694,3.61869 0.392854,-0.39285 m -2.222936,2.22294 -0.29842,0.29842 m 23.971356,-23.57224 0.096,-0.096 m -14.309456,14.30946 -0.275692,0.27569 m -3.50594,3.50594 0.75003,-0.75003 m -3.980242,3.98024 -0.390482,0.39049 m -2.289478,2.28947 0.333415,-0.33341 m 23.937552,-23.53843 -0.0972,0.0972 m -14.490017,14.49002 0.247468,-0.24747 m -3.004247,3.00425 -0.787722,0.78772 m -3.622694,3.6227 0.38811,-0.38811 m -2.465605,2.4656 -0.259891,0.25989 m 24.263101,-23.86398 0.09841,-0.0984 m -14.370051,14.37005 -0.219243,0.21924 m -3.583062,3.58306 0.825413,-0.82541 m -4.06437,4.06437 -0.385738,0.38574 m -2.385294,2.38529 0.272864,-0.27286 m 24.179187,-23.78007 -0.09961,0.0996 m -14.491755,14.49176 0.191019,-0.19102 m -2.949537,2.94954 -0.863105,0.8631 m -3.626696,3.6267 0.383366,-0.38337 m -2.54168,2.54168 -0.274888,0.27489 m 24.441778,-24.04266 0.100815,-0.10081 m -14.430644,14.43064 -0.162794,0.1628 m -3.660183,3.66018 0.900796,-0.9008 m -4.1485,4.1485 -0.380994,0.381 m -2.481109,2.48111 0.276912,-0.27692 m 24.356222,-23.9571 -0.102019,0.10202 m -14.517644,14.51765 0.158722,-0.15872 m -2.894826,2.89482 -0.325784,0.32578 m -0.612703,0.61271 0.170473,-0.17047 m -3.42255,3.42255 -0.378622,0.37862 m -2.529017,2.52901 0.278936,-0.27893 m 24.444741,-24.04562 -0.103223,0.10322 m -14.547848,14.54785 0.159832,-0.15983 m -2.86747,2.86747 -0.325967,0.32597 m -0.650212,0.65021 0.175455,-0.17546 m -3.431904,3.43191 -0.37625,0.37625 m -2.575112,2.57511 0.279147,-0.27915 m 24.533258,-24.13413 -0.104427,0.10442 m -14.5782,14.5782 0.161091,-0.16109 m -2.840114,2.84012 -0.326149,0.32615 m -0.687722,0.68772 0.179841,-0.17984 m -3.440663,3.44066 -0.373879,0.37388 m -2.620738,2.62074 0.278892,-0.2789 m -1.890898,1.8909 -0.0917,0.0917 m 26.498747,-26.09963 0.10563,-0.10563 m -14.551832,14.55184 -0.162432,0.16243 m -2.97666,2.97666 0.326332,-0.32633 m -0.86819,0.86819 -0.183372,0.18337 m -3.636702,3.6367 0.371507,-0.37151 m -2.759237,2.75924 -0.278636,0.27864 m -2.300322,2.30032 0.792772,-0.79278 m 26.496479,-26.09735 -0.106834,0.10683 m -14.639068,14.63907 0.163772,-0.16377 m -2.785404,2.7854 -0.326514,0.32652 m -0.76274,0.76274 0.186902,-0.18691 m -3.45647,3.45647 -0.369135,0.36914 m -2.711994,2.71199 0.278381,-0.27838 m -1.640735,1.64074 -1.121584,1.12158 m 27.453092,-27.05397 0.108038,-0.10803 m -14.612427,14.61242 -0.165113,0.16512 m -2.919633,2.91963 0.326697,-0.3267 m -0.936513,0.93651 -0.190433,0.19044 m -3.640703,3.6407 0.366763,-0.36676 m -2.84626,2.84626 -0.511221,0.51122 m -2.646948,2.64695 1.668316,-1.66832 m 26.377181,-25.97806 -0.109242,0.10924 m -14.699935,14.69994 0.166453,-0.16646 m -2.730694,2.7307 -0.326879,0.32688 m -0.837758,0.83776 0.193963,-0.19397 m -3.472276,3.47228 -0.364391,0.36439 m -5.884738,5.88474 3.359357,-3.35936 m 24.975846,-24.57672 -0.110446,0.11044 m -14.730368,14.73037 0.167793,-0.16779 m -2.703338,2.70334 -0.327448,0.32745 m -0.874881,0.87487 0.197494,-0.19749 m -3.48018,3.48018 -0.362019,0.36202 m -3.942184,3.94218 1.37092,-1.37092 m -2.935537,2.93554 -0.643726,0.64373 m 28.531978,-28.13286 0.111649,-0.11165 m -14.703318,14.70332 -0.169134,0.16913 m -2.835261,2.83527 0.328411,-0.32842 m -1.038996,1.039 -0.201024,0.20102 m -3.646706,3.64671 0.359647,-0.35965 m -2.976794,2.9768 -1.226805,1.2268 m -2.568364,2.56837 0.587654,-0.58766 m 28.360396,-27.96127 -0.112853,0.11285 m -14.791236,14.79124 0.170474,-0.17048 m -2.648628,2.64863 -0.329374,0.32938 m -0.945835,0.94583 0.202052,-0.20205 m -3.495987,3.49599 -0.357275,0.35727 m -3.031781,3.03178 0.36875,-0.36875 m -3.395964,3.39597 -0.554469,0.55446 M 74.231744,104.18 l 0.114057,-0.11405 m -14.763913,14.76391 -0.171814,0.17181 m -2.779795,2.7798 0.330337,-0.33034 m -1.107318,1.10732 -0.202881,0.20288 m -3.655913,3.65591 0.354903,-0.3549 m -3.063817,3.06381 -0.262706,0.26271 m -3.842991,3.84299 0.523053,-0.52305 m 28.912561,-28.51344 -0.115261,0.11526 m -14.852103,14.8521 0.173155,-0.17315 m -2.593918,2.59392 -0.3313,0.3313 m -1.013889,1.01389 0.20371,-0.20371 m -3.511793,3.51179 -0.352531,0.35253 m -3.015528,3.01553 0.26073,-0.26073 m -3.712993,3.71299 -0.540435,0.54044 m 29.555398,-29.15628 0.116465,-0.11646 m -14.824507,14.8245 -0.174495,0.1745 m -2.72433,2.72433 0.332262,-0.33226 m -1.175639,1.17564 -0.20454,0.20454 m -3.665316,3.66531 0.350159,-0.35016 m -3.15084,3.15084 -0.25913,0.25913 m -4.096156,4.09616 0.536973,-0.53697 m 29.325265,-28.92615 -0.117668,0.11767 m -14.912971,14.91297 0.175836,-0.17583 m -2.539208,2.5392 -0.333225,0.33323 m -1.081944,1.08194 0.205369,-0.20537 m -3.527601,3.52761 -0.347787,0.34778 m -3.104093,3.1041 0.257529,-0.25753 m -3.923634,3.92363 -0.53351,0.53351 m 29.933741,-29.53462 0.118872,-0.11887 m -14.8851,14.8851 -0.177176,0.17718 m -2.668864,2.66886 0.334188,-0.33419 m -1.247534,1.24754 -0.202626,0.20262 m -3.674721,3.67472 0.345416,-0.34541 m -3.237863,3.23786 -0.255929,0.25593 m -4.273486,4.27348 0.569839,-0.56983 m 29.643563,-29.24444 -0.120076,0.12007 m -14.973838,14.97384 0.178516,-0.17852 m -2.484496,2.4845 -0.335151,0.33515 m -1.15,1.15 0.194541,-0.19454 m -3.53092,3.53092 -0.343044,0.34304 m -3.192659,3.19266 0.254328,-0.25433 m -4.003311,4.00332 -0.565748,0.56574 m 30.220285,-29.82116 0.12128,-0.12128 m -14.945696,14.9457 -0.179857,0.17985 m -2.613398,2.6134 0.336114,-0.33611 m -1.333685,1.33368 -0.185113,0.18512 m -3.685468,3.68546 0.340672,-0.34067 m -3.324886,3.32489 -0.252728,0.25273 m -4.295799,4.29579 0.545555,-0.54555 m 29.863995,-29.46487 -0.122484,0.12248 m -15.034705,15.03471 0.181197,-0.1812 m -2.429786,2.42978 -0.337077,0.33708 m -1.214679,1.21468 0.174995,-0.17499 m -3.528898,3.52889 -0.3383,0.3383 m -3.281225,3.28123 0.251128,-0.25113 m -3.980905,3.98091 -0.513582,0.51358 m 30.32034,-29.92122 0.123687,-0.12369 m -15.006289,15.00629 -0.182537,0.18254 m -2.557933,2.55793 0.33804,-0.33804 m -1.419837,1.41984 -0.164876,0.16488 m -3.698939,3.69893 0.335928,-0.33592 m -3.411908,3.41191 -0.249527,0.24952 m -4.190921,4.19092 0.494007,-0.49401 m 29.984499,-29.58537 -0.124891,0.12489 m -15.095573,15.09557 0.183878,-0.18387 m -2.375076,2.37507 -0.339002,0.339 m -1.278668,1.27867 0.154758,-0.15476 m -3.526876,3.52688 -0.333556,0.33355 m -3.36979,3.3698 0.247927,-0.24793 m -3.89115,3.89115 -0.495258,0.49526 m 30.386888,-29.98777 0.126095,-0.12609 m -15.066883,15.06688 -0.185218,0.18522 m -2.502468,2.50246 0.339965,-0.33996 m -1.505987,1.50599 -0.144639,0.14464 m -3.712409,3.7124 0.331184,-0.33118 m -3.498932,3.49893 -0.246326,0.24633 m -4.086041,4.08604 0.49651,-0.49651 m 30.05095,-29.65183 -0.127299,0.1273 m -15.156439,15.15644 0.186559,-0.18656 m -2.320366,2.32037 -0.340928,0.34093 m -1.342656,1.34265 0.134521,-0.13452 m -3.524853,3.52485 -0.328812,0.32881 m -3.787398,3.7874 0.573767,-0.57376 m -3.780566,3.78056 -0.497761,0.49776 m 30.453435,-30.05431 0.128503,-0.1285 m -15.127477,15.12748 -0.187899,0.18789 m -2.447002,2.44701 0.341891,-0.3419 m -1.592139,1.59214 -0.124402,0.12441 m -3.72588,3.72588 0.32644,-0.32644 m -3.585954,3.58595 -0.511188,0.51119 m -3.7131,3.7131 0.499013,-0.49902 m 30.117403,-29.71828 -0.129706,0.12971 m -15.217307,15.21731 0.189239,-0.18924 m -2.265654,2.26565 -0.342854,0.34286 m -1.406645,1.40664 0.114284,-0.11428 m -3.522831,3.52283 -0.331664,0.33166 m -3.746409,3.74641 0.448608,-0.44861 m -3.669984,3.66999 -0.500264,0.50026 m 30.519984,-30.12086 0.13091,-0.13091 m -15.188072,15.18807 -0.19058,0.19058 m -2.391535,2.39154 0.343817,-0.34382 m -1.678291,1.67829 -0.104165,0.10416 m -3.780858,3.78086 0.363203,-0.3632 m -3.672977,3.67298 -0.386028,0.38603 m -3.730179,3.73017 0.501516,-0.50151 m 30.183855,-29.78473 -0.132114,0.13211 m -15.278174,15.27817 0.19192,-0.19191 m -2.210944,2.21094 -0.34478,0.34478 m -1.470633,1.47063 0.09405,-0.094 m -3.520808,3.52081 -0.394742,0.39474 m -3.645195,3.6452 0.323448,-0.32345 m -3.5594,3.5594 -0.502767,0.50277 m 30.586531,-30.18741 0.133318,-0.13332 m -15.248666,15.24867 -0.19326,0.19326 m -2.336071,2.33607 0.345742,-0.34574 m -1.76444,1.76444 -0.08393,0.0839 m -3.86215,3.86214 0.426489,-0.42648 m -3.760209,3.7602 -0.261116,0.26112 m -3.747012,3.74701 0.504019,-0.50402 m 30.250308,-29.85118 -0.134522,0.13452 m -15.339042,15.33904 0.194601,-0.1946 m -2.156233,2.15623 -0.346705,0.34671 m -1.534621,1.53462 0.07381,-0.0738 m -3.517816,3.51782 -0.458789,0.45879 m -3.582205,3.5822 0.236511,-0.23651 m -3.448817,3.44882 -0.50527,0.50527 m 30.653079,-30.25396 0.135725,-0.13572 m -15.309259,15.30925 -0.195821,0.19583 m -2.280725,2.28072 0.347668,-0.34767 m -1.850592,1.85059 -0.06369,0.0637 m -3.943441,3.94344 0.49109,-0.49109 m -3.848756,3.84875 -0.232446,0.23245 m -3.667601,3.6676 0.506522,-0.50652 m 30.31676,-29.91764 -0.136929,0.13693 m -15.399604,15.3996 0.196976,-0.19697 m -2.101523,2.10152 -0.348631,0.34863 m -1.598609,1.59861 0.05357,-0.0536 m -3.514271,3.51427 -0.52339,0.52339 m -3.598018,3.59802 0.22838,-0.22838 m -3.338234,3.33823 -0.507773,0.50777 m 30.719626,-30.3205 0.138133,-0.13813 m -15.369854,15.36985 -0.198131,0.19813 m -2.22563,2.22563 0.349594,-0.34959 m -5.449241,5.44924 -0.55569,0.55569 m -3.606669,3.60667 0.225058,-0.22506 m -3.282943,3.28294 -0.509025,0.50903 m 30.752901,-30.35378 0.139337,-0.13934 m -15.400151,15.40015 -0.199286,0.19929 m -2.198083,2.19808 0.350557,-0.35055 m -5.490544,5.49054 -0.58799,0.58799 m -3.616028,3.61603 0.222444,-0.22245 m -3.227652,3.22765 -0.510276,0.51028 m 30.786175,-30.38705 0.140541,-0.14054 m -15.430449,15.43045 -0.200441,0.20044 m -2.170535,2.17053 0.351519,-0.35152 m -5.531846,5.53185 -0.62029,0.62029 m -3.625387,3.62539 0.21983,-0.21983 m -3.172361,3.17236 -0.511528,0.51153 m 30.819449,-30.42033 0.141744,-0.14175 m -15.460745,15.46075 -0.201596,0.2016 m -2.142988,2.14298 0.352482,-0.35248 m -5.573148,5.57315 -0.65259,0.65259 m -3.634747,3.63475 0.217216,-0.21722 m -3.117069,3.11707 -0.512779,0.51278 m 30.852723,-30.4536 0.142948,-0.14295 m -15.491042,15.49104 -0.202751,0.20275 m -2.115441,2.11545 0.353445,-0.35345 m -5.614452,5.61445 -0.684891,0.68489 m -3.644104,3.64411 0.214602,-0.21461 m -3.061777,3.06178 -0.514031,0.51403 m 30.885997,-30.48687 0.144152,-0.14415 m -15.52134,15.52134 -0.203906,0.2039 m -2.087893,2.0879 0.354408,-0.35441 m -5.655755,5.65575 -0.717016,0.71702 m -3.653638,3.65364 0.211987,-0.21199 m -3.006485,3.00648 -0.515282,0.51529 m 30.91927,-30.52015 0.145429,-0.14543 m -11.256105,11.25611 -0.79559,0.79559 m -3.705076,3.70507 0.205061,-0.20506 m -1.910035,1.91004 -0.355371,0.35537 m -5.647202,5.6472 0.305515,-0.30552 m -4.20294,4.20294 -0.209373,0.20937 m -3.258355,3.25836 0.516534,-0.51653 m 30.581784,-30.18267 -0.145774,0.14578 m -12.606764,12.60676 1.759658,-1.75965 m -4.588267,4.58826 -0.206216,0.20622 m -2.032798,2.0328 0.356334,-0.35634 m -5.738361,5.73836 -0.303687,0.30369 m -4.150285,4.15028 0.206759,-0.20675 m -2.895903,2.8959 -0.517785,0.51778 m 30.985818,-30.58669 0.146118,-0.14612 m -10.729655,10.72966 -0.600959,0.60096 m -1.924539,1.92453 0.584699,-0.5847 m -2.940131,2.94014 -0.207371,0.20737 m -2.005251,2.00525 0.357297,-0.3573 m -5.779664,5.77966 -0.302619,0.30262 m -4.193011,4.19301 0.204145,-0.20414 m -2.840611,2.84061 -0.519037,0.51904 m 31.019092,-30.61997 0.146462,-0.14646 m -10.466429,10.46643 -1.23637,1.23637 m -1.902319,1.90232 0.491401,-0.49141 m -2.526306,2.52631 -0.208526,0.20853 m -1.977703,1.9777 0.358259,-0.35826 m -5.820966,5.82096 -0.301552,0.30156 m -4.235737,4.23573 0.201531,-0.20153 m -2.78532,2.78532 -0.520288,0.52029 m 31.052366,-30.65324 0.146807,-0.14681 m -10.203205,10.20321 -2.163399,2.16339 m -1.566862,1.56687 0.386883,-0.38689 m -2.122878,2.12288 -0.209681,0.20968 m -1.950156,1.95016 0.359222,-0.35922 m -5.862269,5.86227 -0.300484,0.30048 m -4.278464,4.27846 0.198917,-0.19891 m -2.730029,2.73003 -0.52154,0.52154 m 31.08564,-30.68652 0.147151,-0.14715 m -9.939979,9.93998 -1.589921,1.58992 m -1.482885,1.48288 0.11925,-0.11925 m -0.953134,0.95314 -0.33765,0.33765 m -1.725415,1.72541 0.210836,-0.21084 m -1.773259,1.77327 -0.360185,0.36018 m -5.842803,5.8428 0.299416,-0.29941 m -4.424305,4.4243 -0.196303,0.1963 m -3.001225,3.00123 0.522791,-0.52279 m 30.743619,-30.3445 -0.147496,0.1475 m -11.111882,11.11188 1.582623,-1.58262 m -3.577681,3.57768 -0.160775,0.16077 m -1.030467,1.03047 0.323979,-0.32398 m -1.606638,1.60664 -0.211991,0.21199 m -1.895061,1.89506 0.361148,-0.36115 m -5.944874,5.94488 -0.298348,0.29835 m -4.363919,4.36391 0.193689,-0.19369 m -2.619446,2.61945 -0.524043,0.52404 m 31.152189,-30.75306 0.14784,-0.14784 m -9.413529,9.41353 -1.575326,1.57532 m -2.731225,2.73123 0.234218,-0.23422 m -0.863171,0.86317 -0.283989,0.28399 m -1.337898,1.3379 0.213146,-0.21315 m -1.718549,1.71855 -0.362111,0.36211 m -5.921347,5.92135 0.29728,-0.29728 m -4.51285,4.51285 -0.191075,0.19107 m -2.898374,2.89838 0.525294,-0.5253 m 30.808353,-30.40923 -0.148185,0.14819 m -10.570147,10.57015 1.568028,-1.56803 m -4.679548,4.67955 -0.124653,0.12465 m -0.865861,0.86586 0.272554,-0.27255 m -1.2394,1.23939 -0.214301,0.21431 m -1.839966,1.83996 0.363074,-0.36307 m -6.027481,6.02748 -0.296213,0.29621 m -4.449371,4.44937 0.188461,-0.18846 m -2.508863,2.50886 -0.526546,0.52655 m 31.218736,-30.81961 0.148529,-0.14853 m -8.887079,8.88708 -1.560731,1.56073 m -3.730353,3.73035 0.0753,-0.0753 m -0.630243,0.63024 -0.274606,0.27461 m -1.024394,1.02439 0.215456,-0.21545 m -1.663839,1.66384 -0.364037,0.36403 m -5.999891,5.99989 0.295145,-0.29514 m -4.601397,4.6014 -0.185846,0.18584 m -2.795522,2.79552 0.527797,-0.52779 m 30.873086,-30.47397 -0.148874,0.14888 m -10.028413,10.02841 1.553433,-1.55343 m -5.533707,5.53371 -0.213436,0.21343 m -0.825979,0.82598 0.278578,-0.27858 m -0.927689,0.92769 -0.216611,0.21661 m -1.784872,1.78487 0.364999,-0.365 m -6.110085,6.11009 -0.294077,0.29408 m -4.534825,4.53482 0.183232,-0.18323 m -2.39828,2.39828 -0.529049,0.52905 m 31.285284,-30.88616 0.149218,-0.14922 m -8.360628,8.36063 -1.546136,1.54613 m -4.657069,4.65707 0.111925,-0.11192 m -0.651783,0.65178 -0.272724,0.27272 m -0.716875,0.71688 0.217766,-0.21777 m -1.609129,1.60913 -0.365962,0.36596 m -6.078435,6.07844 0.293009,-0.29301 m -4.689943,4.68994 -0.180618,0.18062 m -2.692671,2.69267 0.5303,-0.5303 m 30.93782,-30.5387 -0.149563,0.14957 m -9.486678,9.48668 1.538838,-1.53884 m -6.481915,6.48191 -0.177219,0.17722 m -1.367346,1.36735 0.8349,-0.8349 m -2.197752,2.19775 -0.366925,0.36692 m -6.117708,6.11771 0.291941,-0.29194 m -4.734215,4.73422 -0.178004,0.178 m -2.641245,2.64125 0.531552,-0.53156 m 30.970186,-30.57106 -0.149907,0.14991 m -9.215811,9.21581 1.53154,-1.53154 m -6.587695,6.58769 -0.535322,0.53532 m -1.197281,1.19729 0.680199,-0.6802 m -2.01454,2.01454 -0.367888,0.36789 m -6.15698,6.15698 0.290874,-0.29088 m -4.77849,4.77849 -0.17539,0.17539 m -2.589818,2.58982 0.532803,-0.5328 M 85.1221,109.25454 84.971848,109.4048 m -8.944944,8.94494 1.524243,-1.52424 m -6.587544,6.58754 -2.026572,2.02657 m -1.674682,1.67469 0.368851,-0.36886 m -6.275298,6.2753 -0.289806,0.28981 m -4.705732,4.70573 0.172776,-0.17278 m -2.177114,2.17712 -0.534055,0.53405 m 31.41838,-31.01925 0.150596,-0.1506 m -7.307728,7.30773 -1.516945,1.51694 m -7.390989,7.39099 2.320541,-2.32054 m -3.597862,3.59786 -0.369814,0.36982 m -6.235524,6.23552 0.288738,-0.28874 m -4.867035,4.86704 -0.170162,0.17016 m -2.486967,2.48697 0.535306,-0.53531 m 31.067288,-30.66816 -0.15094,0.15094 m -8.403211,8.40321 1.509648,-1.50965 m -6.587241,6.58724 -2.289947,2.28995 m -1.944151,1.94415 0.370776,-0.37078 m -6.357902,6.3579 -0.28767,0.28767 m -4.791186,4.79119 0.167548,-0.16755 m -2.066531,2.06653 -0.536558,0.53656 m 31.484927,-31.0858 0.151285,-0.15129 m -6.781277,6.78128 -1.50235,1.50235 m -7.372972,7.37297 2.288232,-2.28823 m -4.128781,4.12878 -0.371739,0.37174 m -2.852887,2.85288 0.448202,-0.4482 m -3.622782,3.62279 -0.286602,0.2866 m -4.833912,4.83391 0.164934,-0.16493 m -2.01124,2.01124 -0.537809,0.5378 m 31.518201,-31.11907 0.151629,-0.15163 m -6.518052,6.51805 -1.495053,1.49505 m -7.378402,7.3784 2.286516,-2.28651 m -4.394239,4.39424 -0.372702,0.3727 m -3.410522,3.41052 1.264685,-1.26468 m -3.92197,3.92197 -0.285534,0.28553 m -4.876639,4.87664 0.162319,-0.16232 m -1.955948,1.95595 -0.539061,0.53906 m 31.551475,-31.15235 0.151974,-0.15198 m -6.254827,6.25483 -1.487755,1.48775 m -7.374898,7.3749 2.275866,-2.27586 m -4.659699,4.6597 -0.37386,0.37385 m -3.848043,3.84805 1.961251,-1.96125 m -4.221159,4.22116 -0.284467,0.28446 m -4.919365,4.91937 0.159705,-0.15971 m -1.900657,1.90066 -0.540312,0.54031 m 31.584749,-31.18562 0.152318,-0.15232 m -5.991629,5.99163 -1.480431,1.48043 m -7.372548,7.37255 2.266371,-2.26637 m -4.925158,4.92515 -0.375165,0.37517 m -4.113579,4.11358 2.625071,-2.62507 m -4.659441,4.65944 -0.283399,0.2834 m -1.884694,1.88469 0.255958,-0.25596 m -3.176265,3.17627 -0.157091,0.15709 m -2.229838,2.22984 0.541564,-0.54157 m 31.229121,-30.83 -0.152663,0.15267 m -7.048873,7.04887 1.473729,-1.47373 m -6.587054,6.58705 -2.256875,2.25688 m -3.310211,3.31021 0.37647,-0.37647 m -1.746759,1.74676 -1.054414,1.05441 m -1.954412,1.95441 0.861522,-0.86152 m -2.670354,2.67036 -0.282331,0.28233 m -2.742657,2.74266 1.227947,-1.22795 m -3.335632,3.33563 -0.154477,0.15448 m -2.178413,2.17841 0.542815,-0.54281 m 31.261489,-30.86237 -0.153007,0.15301 m -6.778007,6.778 1.467028,-1.46703 m -6.587498,6.5875 -2.478951,2.47895 m -3.354899,3.3549 0.377774,-0.37777 m -1.496032,1.49603 -2.049624,2.04962 m -1.476769,1.47677 0.682157,-0.68215 m -2.265452,2.26545 -0.281263,0.28126 m -3.214592,3.21459 2.279357,-2.27935 m -3.960448,3.96044 -0.151863,0.15187 m -2.126986,2.12698 0.544067,-0.54406 m 31.293855,-30.89474 -0.153352,0.15336 m -6.580071,6.58007 1.533259,-1.53326 m -6.587944,6.58794 -2.245747,2.24575 m -3.854866,3.85487 0.379079,-0.37908 m -1.245306,1.2453 -2.515637,2.51564 m -1.557275,1.55727 0.670424,-0.67042 m -1.999229,1.99923 -0.280195,0.28019 m -2.504817,2.50482 1.845499,-1.8455 m -2.377735,2.37774 -0.518193,0.51819 m -1.535027,1.53503 0.149249,-0.14925 m -1.679491,1.67949 -0.545318,0.54532 M 87.656874,110.711 87.81057,110.5573 m -4.936342,4.93634 -1.45367,1.45367 m -7.371392,7.37139 2.236673,-2.23667 m -5.986993,5.98699 -0.380384,0.38039 m -3.847507,3.84751 3.233311,-3.23332 m -3.940701,3.9407 -0.583701,0.58371 m -4.195253,4.19525 3.025909,-3.02591 m -3.797002,3.797 -0.277918,0.27792 m -1.337207,1.33721 0.146635,-0.14664 m -1.6242,1.6242 -0.54657,0.54657 m 31.751119,-31.35199 0.154041,-0.15405 m -4.672521,4.67253 -1.446996,1.44699 m -7.369437,7.36944 2.227599,-2.2276 m -6.252453,6.25245 -2.905878,2.90588 m -1.585234,1.58523 0.265242,-0.26524 m -0.972317,0.97232 -0.521557,0.52156 m -3.186895,3.18689 2.177011,-2.17701 m -3.38727,3.38727 -0.07235,0.0724 m -0.847535,0.84753 0.205629,-0.20562 m -1.20824,1.20824 -0.144021,0.14402 m -1.972709,1.9727 0.547821,-0.54782 m 31.390957,-30.99183 -0.154385,0.15439 m -5.694637,5.69463 1.440323,-1.44032 m -6.58928,6.58928 -2.218525,2.21852 m -6.946584,6.94659 2.647197,-2.6472 m -4.586409,4.58641 -0.167925,0.16792 m -1.166173,1.16618 0.468866,-0.46887 m -1.319289,1.31929 -2.052431,2.05243 m -1.645715,1.64572 0.0984,-0.0984 m -0.71222,0.71222 -0.225669,0.22567 m -0.957814,0.95782 0.141407,-0.14141 m -1.513617,1.51362 -0.549073,0.54907 m 31.817666,-31.41854 0.15473,-0.15473 m -4.144877,4.14487 -1.43365,1.43365 m -7.365526,7.36553 2.20945,-2.20945 m -6.78337,6.78337 -2.388517,2.38851 m -2.653103,2.65311 0.170093,-0.1701 m -0.827497,0.8275 -0.403605,0.40361 m -2.452176,2.45217 1.742571,-1.74257 m -3.836103,3.8361 -0.114674,0.11468 m -0.729944,0.72994 0.162937,-0.16293 m -0.880527,0.88052 -0.138793,0.1388 m -1.869856,1.86985 0.550324,-0.55032 m 31.45569,-31.05657 -0.155074,0.15508 m -5.152959,5.15295 1.426977,-1.42697 m -6.59017,6.59017 -2.200376,2.20037 m -2.241684,2.24169 0.323976,-0.32398 m -2.930745,2.93075 -2.129837,2.12983 m -3.108844,3.10885 0.165252,-0.16526 m -0.809681,0.80969 -0.379872,0.37987 m -1.754329,1.75433 1.163774,-1.16378 m -4.004894,4.0049 -0.09647,0.0965 m -0.71535,0.71535 0.138751,-0.13875 m -0.764618,0.76462 -0.136178,0.13617 m -1.818432,1.81844 0.551576,-0.55158 m 31.488057,-31.08893 -0.155419,0.15542 m -4.882119,4.88211 1.420304,-1.4203 m -6.590615,6.59062 -2.191302,2.1913 m -3.098439,3.09844 1.194766,-1.19477 m -3.219313,3.21931 -1.871157,1.87116 m -3.564586,3.56459 0.139405,-0.13941 m -0.76756,0.76756 -0.362275,0.36228 m -1.383611,1.38361 0.914944,-0.91495 m -4.183234,4.18324 -0.06872,0.0687 m -0.658325,0.65832 0.101781,-0.10178 m -0.678356,0.67836 -0.133564,0.13357 m -1.767006,1.767 0.552827,-0.55283 m 31.520424,-31.1213 -0.155763,0.15577 m -4.61128,4.61127 1.413631,-1.41363 m -6.59106,6.59106 -2.182228,2.18223 m -3.795328,3.79533 1.961755,-1.96175 m -3.563947,3.56394 -1.615258,1.61526 m -4.017545,4.01754 0.113557,-0.11355 m -0.725438,0.72544 -1.361921,1.36192 m -3.748481,3.74848 0.148825,-0.14883 m -0.63029,0.63029 -0.103438,0.10344 m -0.658234,0.65823 0.13095,-0.13095 m -1.29245,1.29245 -0.554079,0.55408 m 31.950762,-31.55163 0.156107,-0.15611 m -3.08959,3.08959 -1.406957,1.40696 m -7.357702,7.3577 2.280348,-2.28035 m -4.043821,4.04382 -2.555109,2.55511 m -2.713295,2.71329 1.359824,-1.35982 m -5.63994,5.63994 -0.187236,0.18724 m -1.576764,1.57676 1.004487,-1.00449 m -4.670324,4.67033 -0.415003,0.415 m -0.590076,0.59007 0.13197,-0.13197 m -0.609963,0.60997 -0.128336,0.12833 m -1.664154,1.66416 0.55533,-0.55533 m 31.585158,-31.18604 -0.156452,0.15646 m -4.069601,4.0696 1.400284,-1.40029 m -6.592006,6.59201 -2.164023,2.16402 m -3.663184,3.66319 1.969811,-1.96982 m -2.631301,2.63131 -0.517161,0.51716 m -2.209142,2.20914 1.10439,-1.10439 m -5.772713,5.77271 -0.190367,0.19037 m -1.333782,1.33378 0.749114,-0.74911 m -4.926037,4.92603 -0.127648,0.12765 m -0.608289,0.60829 0.160502,-0.1605 m -0.589204,0.5892 -0.125722,0.12572 m -1.612728,1.61273 0.556582,-0.55658 m 31.617524,-31.2184 -0.156796,0.15679 m -3.798762,3.79877 1.393611,-1.39361 m -6.592499,6.5925 -2.154901,2.1549 m -3.085013,3.08501 1.46174,-1.46174 m -3.176085,3.17608 -0.5422,0.5422 m -1.728518,1.72852 0.848956,-0.84895 m -5.818644,5.81864 -0.280341,0.28034 m -1.245576,1.24558 0.657754,-0.65776 m -4.884097,4.8841 -0.119447,0.11945 m -1.156757,1.15675 0.700888,-0.70088 m -1.704357,1.70435 -0.557833,0.55783 m 32.050584,-31.65146 0.157141,-0.15714 m -2.298126,2.29813 -1.386938,1.38694 m -7.351833,7.35183 2.145778,-2.14578 m -3.698951,3.69895 -1.451088,1.45109 m -2.782073,2.78207 0.524331,-0.52433 m -1.23365,1.23365 -0.593523,0.59353 m -5.641367,5.64136 0.36218,-0.36218 m -0.940675,0.94068 -0.569535,0.56953 m -4.364558,4.36456 0.113078,-0.11308 m -0.558501,0.5585 -0.737169,0.73717 m -1.509876,1.50988 0.559085,-0.55909 m 31.682258,-31.28313 -0.157485,0.15748 m -3.257084,3.25709 1.380265,-1.38027 m -6.593487,6.59349 -2.136656,2.13665 m -2.923509,2.92351 1.440436,-1.44043 m -4.206334,4.20633 -0.541702,0.5417 m -0.877166,0.87717 0.338089,-0.33809 m -5.646329,5.64633 -1.774949,1.77495 m -4.37759,4.37759 0.08786,-0.0879 m -0.528574,0.52857 -0.744115,0.74412 m -1.487786,1.48778 0.560336,-0.56033 m 31.714626,-31.31551 -0.15783,0.15783 m -2.986244,2.98625 1.373592,-1.37359 m -6.59398,6.59398 -2.127533,2.12753 m -2.842758,2.84276 1.62248,-1.62248 m -4.840653,4.84065 -1.344932,1.34493 m -7.281762,7.28176 2.277943,-2.27794 m -6.188417,6.18842 -1.470591,1.47059 m -1.479048,1.47905 0.561588,-0.56159 m 31.746992,-31.34787 -0.158174,0.15817 m -2.715405,2.71541 1.366919,-1.36692 m -6.594474,6.59447 -2.118411,2.11841 m -2.762005,2.76201 1.419118,-1.41912 m -5.093699,5.0937 -1.243327,1.24333 m -7.086653,7.08665 2.363718,-2.36372 m -6.215314,6.21532 -1.711821,1.71182 m -1.523823,1.52382 0.562839,-0.56284 m 31.779359,-31.38023 -0.158519,0.15851 m -2.444565,2.44457 1.360245,-1.36025 m -6.594967,6.59497 -2.109288,2.10929 m -2.681254,2.68125 1.408406,-1.4084 m -5.508633,5.50863 -1.175199,1.1752 m -7.155164,7.15516 2.715829,-2.71583 m -6.242212,6.24222 -1.901898,1.90189 m -1.619751,1.61975 0.564091,-0.56409 m 31.811726,-31.4126 -0.158863,0.15886 m -2.173727,2.17373 1.353572,-1.35357 m -6.595459,6.59546 -2.100166,2.10016 m -2.600502,2.60051 1.397693,-1.3977 m -5.272668,5.27267 -1.758424,1.75842 m -6.775217,6.77522 2.619936,-2.61993 m -6.269109,6.2691 -1.991274,1.99128 m -1.81638,1.81638 0.565342,-0.56534 m 31.844093,-31.44497 -2.062095,2.06209 m -7.340097,7.3401 2.091043,-2.09104 m -3.223812,3.22381 -1.386981,1.38698 m -6.066532,6.06653 2.190568,-2.19057 m -5.986634,5.98664 -2.605679,2.60568 m -5.678054,5.67805 1.987725,-1.98773 m -3.527064,3.52707 -0.566594,0.56659 m 30.651453,-30.25233 1.7916,-1.7916 m -7.04782,7.04782 -2.081921,2.08192 m -2.438998,2.439 1.376269,-1.37627 m -5.253223,5.25323 -2.277729,2.27772 m -6.450002,6.45 2.668168,-2.66816 m -6.322906,6.3229 -1.985008,1.98501 m -2.394654,2.39466 0.567845,-0.56785 m 31.908826,-31.5097 -1.6989,1.6989 m -7.15839,7.15839 2.072798,-2.0728 m -3.065489,3.06549 -1.365556,1.36555 m -6.385435,6.38544 2.507492,-2.50749 m -6.132492,6.13249 -2.744306,2.7443 m -5.585065,5.58507 1.979568,-1.97957 m -4.096571,4.09657 -0.569097,0.5691 m 30.354698,-29.95557 2.145168,-2.14517 m -6.51074,6.51074 -2.063676,2.06367 m -2.277494,2.2775 1.354844,-1.35485 m -5.233777,5.23378 -2.2591,2.2591 m -6.762941,6.76294 2.81662,-2.81662 m -6.376701,6.3767 -1.974061,1.97406 m -2.977611,2.97761 0.570348,-0.57034 m 31.798178,-31.39906 -2.472443,2.47244 m -7.861306,7.86131 4.251296,-4.2513 m -8.131219,8.13122 -2.490245,2.49025 m -6.676751,6.67675 2.888647,-2.88865 m -6.4036,6.4036 -1.968555,1.96856 m -3.269121,3.26912 0.5716,-0.5716 m 30.036609,-29.63749 -0.895846,0.89585 m -7.290766,7.29076 4.161422,-4.16142 m -8.042334,8.04233 -2.560873,2.56088 m -6.330279,6.33028 2.539874,-2.53988 m -6.430497,6.4305 -1.963048,1.96305 m -3.560634,3.56063 0.572851,-0.57285 m 29.338732,-28.93961 -0.418055,0.41806 m -6.685109,6.6851 4.071547,-4.07154 m -7.953449,7.95345 -2.6315,2.6315 m -6.318477,6.31847 2.52577,-2.52577 m -6.457395,6.4574 -1.957542,1.95754 m -3.852144,3.85214 0.574103,-0.5741 m 29.101417,-28.70229 -0.400829,0.40083 m -6.079451,6.07945 3.981673,-3.98167 m -7.864565,7.86456 -2.211906,2.21191 m -6.796897,6.79689 2.511667,-2.51167 m -6.484293,6.4843 -1.955432,1.95543 m -4.140258,4.14026 0.575354,-0.57536 m 28.911363,-28.51224 -0.429492,0.4295 m -5.475165,5.47516 3.891799,-3.8918 m -7.775679,7.77568 -2.185036,2.18504 m -6.882593,6.88259 2.497563,-2.49756 m -6.51119,6.51119 -1.953055,1.95305 m -4.42864,4.42864 0.576606,-0.5766 m 28.665035,-28.26592 -0.364502,0.36451 m -4.908258,4.90825 3.801925,-3.80192 m -7.686795,7.68679 -2.158166,2.15817 m -6.968288,6.96829 2.483459,-2.48346 m -6.538088,6.53809 -1.950677,1.95067 m -4.717023,4.71703 0.577857,-0.57786 m 28.66204,-28.26292 -0.54514,0.54514 m -4.339054,4.33906 3.851749,-3.85175 m -7.737609,7.73761 -2.131295,2.13129 m -7.053984,7.05398 2.469356,-2.46935 m -6.564987,6.56499 -2.177324,2.17732 m -4.77638,4.77638 0.579109,-0.57911 m 28.703732,-28.30461 -4.540317,4.54032 m -5.991275,5.99127 2.104425,-2.10442 m -6.788852,6.78885 -2.455252,2.45525 m -6.089974,6.08998 1.953342,-1.95334 m -6.659349,6.65934 -0.58036,0.58036 m 25.129344,-24.73022 4.19644,-4.19644 m -8.084376,8.08438 -2.077458,2.07746 m -7.225374,7.22537 2.441085,-2.44109 m -6.618719,6.61872 -1.953378,1.95338 m -5.572336,5.57234 0.581612,-0.58161 m 28.787117,-28.388 -3.852563,3.85256 m -6.04312,6.04312 2.155757,-2.15575 m -6.936275,6.93627 -2.426946,2.42695 m -6.17205,6.17205 1.953415,-1.95342 m -7.228854,7.22886 -0.582863,0.58286 m 25.902986,-25.50386 3.508686,-3.50869 m -7.395476,7.39548 -2.240381,2.24038 m -7.183227,7.18322 2.412806,-2.4128 m -6.672443,6.67244 -1.953451,1.95345 m -6.144272,6.14427 0.584115,-0.58411 m 28.870502,-28.47138 -3.16481,3.16481 m -6.211221,6.21122 2.325005,-2.325 m -7.08533,7.08533 -2.398667,2.39866 m -6.254126,6.25413 1.953488,-1.95349 m -4.080343,4.08034 -0.616361,0.61637 m -3.687023,3.68702 0.585366,-0.58537 m 28.912635,-28.51351 -2.821373,2.82137 m -6.295272,6.29528 2.409629,-2.40963 m -7.159857,7.15985 -2.485957,2.48596 m -6.192766,6.19277 1.952026,-1.95203 m -4.324742,4.32474 -1.014887,1.01489 m -3.329574,3.32957 0.586618,-0.58662 m 28.95506,-28.55593 -2.478229,2.47823 m -6.379322,6.37932 2.494252,-2.49425 m -7.234384,7.23438 -2.560408,2.56041 m -6.144424,6.14442 1.952419,-1.95242 m -4.572012,4.57202 -1.556057,1.55605 m -2.828284,2.82829 0.587869,-0.58787 m 28.997486,-28.59836 -2.135084,2.13508 m -6.638388,6.63839 2.753891,-2.75389 m -7.308912,7.30891 -2.63486,2.63486 m -6.096081,6.09608 1.952813,-1.95281 m -4.294434,4.29443 -2.566637,2.56664 m -2.382434,2.38243 0.589121,-0.58912 m 29.03991,-28.64079 -1.79194,1.79194 m -6.584446,6.58445 2.700523,-2.70053 m -7.38344,7.38344 -2.709311,2.70932 m -6.047738,6.04773 1.953207,-1.9532 m -4.26524,4.26524 -1.535372,1.53537 m -1.530633,1.53063 1.087688,-1.08769 m -2.696728,2.69673 -0.590372,0.59037 m 28.223912,-27.82479 1.448796,-1.44879 m -5.332147,5.33215 -2.805627,2.80562 m -7.436102,7.4361 2.783763,-2.78376 m -6.829558,6.82956 -1.9536,1.9536 m -4.323499,4.3235 2.13532,-2.13532 m -2.884859,2.88486 -0.852457,0.85245 m -1.938714,1.93872 0.591624,-0.59163 m 29.108328,-28.7092 -1.089219,1.08922 m -6.793507,6.79351 2.91073,-2.91073 m -7.532494,7.53249 -2.858215,2.85821 m -5.951052,5.95106 1.953994,-1.954 m -4.018318,4.01832 -2.208457,2.20846 m -0.711771,0.71177 0.08501,-0.085 m -0.744765,0.74476 -0.788485,0.78849 m -1.718176,1.71817 0.592875,-0.59287 m 28.999027,-28.59991 -0.06444,0.0644 m -0.870014,0.87002 0.188865,-0.18887 m -3.730964,3.73096 -3.015834,3.01584 m -7.523853,7.52385 2.932666,-2.93267 m -6.880989,6.88099 -1.954388,1.95439 m -4.367169,4.36717 2.426701,-2.4267 m -3.613483,3.61348 -0.07241,0.0724 m -1.317571,1.31757 0.799812,-0.79981 m -1.699472,1.69947 -0.594127,0.59413 m 28.495813,-28.0967 0.07474,-0.0747 m -3.067811,3.06781 -3.417662,3.41767 m -7.271004,7.271 3.007118,-3.00712 m -6.906705,6.90671 -1.954781,1.95478 m -4.556697,4.55669 2.740083,-2.74008 m -4.833826,4.83383 -0.747354,0.74735 m -1.326688,1.32669 0.595378,-0.59538 m 27.59083,-27.19171 -0.253033,0.25304 m -4.310756,4.31075 2.26772,-2.26772 m -3.620275,3.62028 -0.552625,0.55262 m -6.664745,6.66475 3.081569,-3.08157 m -6.932419,6.93242 -1.955175,1.95517 m -3.656927,3.65693 1.964166,-1.96417 m -4.757077,4.75708 -0.109955,0.10996 m -1.291861,1.29186 0.694897,-0.6949 m -1.257853,1.25785 -0.59663,0.59663 m 23.975068,-23.57594 3.725908,-3.72591 m -5.803323,5.80332 -0.841774,0.84178 m -5.76497,5.76497 3.156021,-3.15602 m -6.958135,6.95813 -1.955568,1.95557 m -3.520576,3.52057 1.951589,-1.95158 m -6.094088,6.09408 -1.634923,1.63493 m 24.924688,-24.52557 2.207754,-2.20775 m -5.684809,5.68481 -0.55255,0.55255 m -5.365759,5.36576 3.230472,-3.23048 m -6.98385,6.98385 -1.955962,1.95596 m -3.384224,3.38423 1.940541,-1.94054 m -6.667124,6.66712 -1.473949,1.47395 m 25.334677,-24.93555 1.632135,-1.63214 m -5.870242,5.87024 -0.671788,0.67179 m -4.657043,4.65704 3.304924,-3.30492 m -7.009565,7.00956 -1.956356,1.95636 m -3.247872,3.24787 1.929494,-1.92949 m -7.254963,7.25496 -1.298172,1.29817 m 25.72278,-25.32365 1.251741,-1.25174 m -6.123292,6.12329 -0.414518,0.41452 m -4.430557,4.43055 3.379375,-3.37937 m -7.03528,7.03528 -1.956749,1.95675 m -3.111521,3.11152 1.918446,-1.91845 m -7.193862,7.19386 -0.05973,0.0597 m -1.711602,1.7116 1.122395,-1.1224 m 25.852036,-25.45291 -0.812795,0.81279 m -9.917067,9.91707 4.45132,-4.45132 m -8.058488,8.05849 -1.966008,1.96601 m -2.966305,2.9663 1.907398,-1.9074 m -7.731879,7.73188 -0.07431,0.0743 m -1.571066,1.57107 0.983661,-0.98366 m 25.984436,-25.58531 -0.391365,0.39136 m -10.093748,10.09375 4.220365,-4.22036 m -7.778797,7.77879 -1.963107,1.96311 m -2.832685,2.83268 1.895787,-1.89578 m -8.247559,8.24756 -0.111228,0.11122 m -1.430532,1.43054 0.877097,-0.8771 m 19.839348,-19.44023 -4.092095,4.0921 m -8.072024,8.07202 4.659378,-4.65938 m -11.280905,11.28091 -0.410188,0.41019 m -1.285382,1.28538 0.770534,-0.77053 m 19.959005,-19.55989 -4.267454,4.26746 m -7.486194,7.48619 4.522965,-4.52296 m -11.120654,11.12065 -2.142973,2.14297 m 18.821119,-18.42199 1.921514,-1.92152 m -2.607902,2.6079 -0.109429,0.10943 m -2.002187,2.00219 0.910549,-0.91055 m -3.147657,3.14766 -4.386551,4.38655 m -9.144466,9.14446 2.570614,-2.57061 m 18.165352,-17.76623 -1.607086,1.60709 m -3.385618,3.38562 1.174239,-1.17424 m -2.864104,2.8641 -4.250138,4.25014 m -9.473996,9.474 2.923984,-2.92399 m 17.731041,-17.33192 -1.292659,1.29266 m -2.963799,2.9638 0.455527,-0.45553 m -1.046075,1.04608 -0.39718,0.39718 m -5.278049,5.27805 4.113724,-4.11373 m -10.639899,10.6399 -2.664774,2.66478 m 18.983276,-18.58416 0.978231,-0.97823 m -3.783399,3.7834 -0.453597,0.4536 m -1.189695,1.18969 0.308842,-0.30884 m -1.016605,1.01661 -3.977311,3.97731 m -9.175478,9.17547 2.673142,-2.67314 m 16.862424,-16.4633 -0.663803,0.6638 m -3.55373,3.55373 0.451667,-0.45166 m -1.36742,1.36742 -4.568008,4.568 m -9.160007,9.16001 2.681509,-2.68151 m 16.375522,-15.9764 -0.296784,0.29679 m -3.848694,3.84869 0.449736,-0.44973 m -1.385077,1.38507 -4.157411,4.15741 m -9.144537,9.14454 2.689877,-2.68988 m 12.263003,-11.86388 -0.447806,0.44781 m -4.701743,4.70174 3.746814,-3.74681 m -10.177637,10.17763 -2.698244,2.69825 m 14.097842,-13.69872 0.446629,-0.44663 m -1.421021,1.42102 -3.335589,3.33559 m -9.113597,9.1136 2.706612,-2.70661 m 11.429245,-11.03013 -0.446203,0.44621 m -3.917263,3.91726 2.932844,-2.93284 m -9.315991,9.31599 -2.714979,2.71498 m 13.281466,-12.88235 0.443243,-0.44324 m -1.437691,1.43769 -2.545972,2.54597 m -9.066782,9.06678 2.723347,-2.72334 m 10.590215,-10.1911 -0.440284,0.44029 m -3.133787,3.13378 2.129312,-2.12931 m -8.32431,8.32431 -2.870229,2.87023 m 12.46509,-12.06597 0.437325,-0.43732 m -1.198927,1.19893 -1.98092,1.98092 m -9.048304,9.0483 2.740245,-2.74024 m 9.751023,-9.3519 -2.785624,2.78562 m -9.031379,9.03138 2.748976,-2.74898 m 9.331143,-8.93202 -2.3914,2.3914 m -9.014455,9.01446 2.757707,-2.75771 m 8.911265,-8.51214 -1.997176,1.99717 m -8.997532,8.99754 2.766437,-2.76644 m 8.491388,-8.09227 -1.602953,1.60296 m -8.980608,8.9806 2.775168,-2.77516 m 7.97834,-7.57922 -1.309665,1.30966 m -1.162279,1.16228 0.08744,-0.0874 m -4.910837,4.91083 -2.783899,2.7839 m 7.705155,-7.30603 1.44977,-1.44977 m -5.688031,5.68803 -2.782932,2.78293 M 86.2,138.90908 l 0.126896,-0.1269 m -3.745976,3.74598 -2.784037,2.78404 m 6.423899,-6.02478 0.168089,-0.16809 m -3.124956,3.12496 -2.785142,2.78514 m 5.763883,-5.36476 0.202086,-0.20209 m -2.497832,2.49783 -2.786248,2.78625 m 5.121206,-4.72208 0.328859,-0.32886 m -1.980822,1.98082 -2.787353,2.78735 m 4.478528,-4.0794 0.520055,-0.52006 m -1.528235,1.52824 -2.788458,2.78846 m 0.681889,-0.28277 3.866655,-3.86665 m 0.23185,0.16727 -3.416616,3.41661 m 0.68189,-0.28276 2.966578,-2.96658 m 0.234507,0.16461 -2.519196,2.5192 m 0.68189,-0.28277 2.072864,-2.07286 m 0.235557,0.16356 -1.626531,1.62653 m 0.681889,-0.28276 1.180199,-1.1802 m 0.172734,0.22639 -0.671043,0.67104"
         inkscape:connector-curvature="0" />
    </g>
  </g>
</svg>
