<?xml version="1.0" encoding="UTF-8" standalone="no"?>
<!-- Created with Inkscape (http://www.inkscape.org/) -->

<svg
   xmlns:dc="http://purl.org/dc/elements/1.1/"
   xmlns:cc="http://creativecommons.org/ns#"
   xmlns:rdf="http://www.w3.org/1999/02/22-rdf-syntax-ns#"
   xmlns:svg="http://www.w3.org/2000/svg"
   xmlns="http://www.w3.org/2000/svg"
   xmlns:sodipodi="http://sodipodi.sourceforge.net/DTD/sodipodi-0.dtd"
   xmlns:inkscape="http://www.inkscape.org/namespaces/inkscape"
   id="svg8"
   version="1.1"
   viewBox="0 0 75 75"
   height="75mm"
   width="75mm"
   inkscape:version="0.92.2 2405546, 2018-03-11"
   sodipodi:docname="75.svg">
  <sodipodi:namedview
     inkscape:window-maximized="1"
     inkscape:window-y="0"
     inkscape:window-x="0"
     inkscape:window-height="703"
     inkscape:window-width="1366"
     showgrid="false"
     inkscape:current-layer="layer1"
     inkscape:document-units="mm"
     inkscape:cy="152.8857"
     inkscape:cx="207.00008"
     inkscape:zoom="1.4965517"
     inkscape:pageshadow="2"
     inkscape:pageopacity="0.0"
     borderopacity="1.0"
     bordercolor="#666666"
     pagecolor="#ffffff"
     id="base" />
  <defs
     id="defs2" />
  <metadata
     id="metadata5">
    <rdf:RDF>
      <cc:Work
         rdf:about="">
        <dc:format>image/svg+xml</dc:format>
        <dc:type
           rdf:resource="http://purl.org/dc/dcmitype/StillImage" />
        <dc:title></dc:title>
      </cc:Work>
    </rdf:RDF>
  </metadata>
  <g
     id="layer1"
     inkscape:groupmode="layer"
     inkscape:label="Layer 1"
     transform="translate(0,-222)">
    <g
       id="g932"
       transform="translate(-44.792559,145.67062)">
      <path
         inkscape:connector-curvature="0"
         id="path906"
         d="m 79.014833,150.44646 c -0.09377,-0.0349 -0.227836,-0.10109 -0.297882,-0.14733 -0.448422,-0.29609 -32.880262,-22.89337 -32.951477,-22.95936 -0.316248,-0.29306 -0.652828,-1.22018 -0.803407,-2.213 -0.342892,-2.26073 0.07001,-4.67512 1.041908,-6.09235 0.174248,-0.25409 0.497056,-0.57188 0.672142,-0.66171 l 0.115047,-0.059 0.259893,0.0878 c 0.611303,0.20663 1.194814,0.25837 1.445709,0.12821 0.16408,-0.0851 0.400115,-0.39522 0.54652,-0.71797 0.09637,-0.2123 0.11201,-0.22998 0.238211,-0.26806 0.0743,-0.0224 0.132823,-0.0542 0.130047,-0.0706 -0.003,-0.0165 -0.592499,-0.72391 -1.31049,-1.57223 -0.732402,-0.86536 -1.343395,-1.61549 -1.391921,-1.7089 -0.385774,-0.74258 -0.655354,-2.4052 -0.609106,-3.75674 0.02327,-0.68041 0.0732,-1.05763 0.225968,-1.70543 0.06142,-0.2606 0.147723,-0.6268 0.191734,-0.81378 l 0.07999,-0.33997 -0.187969,-0.39689 c -0.44181,-0.93292 -0.774655,-2.03364 -0.902265,-2.98376 -0.177263,-1.31978 0.181508,-3.34267 0.818158,-4.613041 0.302625,-0.603873 0.73373,-1.116229 1.088206,-1.293282 0.142849,-0.0714 0.282902,-0.104061 0.68146,-0.159078 0.275921,-0.03805 0.507602,-0.0753 0.514862,-0.08259 0.007,-0.008 0.02926,-0.281474 0.04894,-0.609147 0.05113,-0.852271 0.172629,-1.369331 0.450868,-1.918417 0.190625,-0.376178 0.633384,-0.782415 1.113562,-1.021705 0.317396,-0.158169 0.454293,-0.16504 0.862588,-0.04324 0.152826,0.04554 0.338678,0.08289 0.413018,0.08289 0.119371,0 0.147963,-0.01498 0.244963,-0.128289 0.09378,-0.109504 0.334054,-0.520864 0.334054,-0.571796 0,-0.009 -0.460505,-0.32937 -1.023353,-0.71144 -0.562838,-0.382079 -1.060214,-0.737335 -1.105284,-0.789465 -0.566483,-0.655175 -0.85366,-2.000568 -0.862138,-4.038835 -0.003,-0.749639 0.006,-0.939116 0.05333,-1.17585 0.221903,-1.099211 0.71844,-2.167934 1.529666,-3.292372 0.136868,-0.189706 0.288205,-0.392216 0.336311,-0.450039 l 0.08748,-0.105119 15.713642,-3.056987 15.713631,-3.056986 17.349356,8.325169 c 16.571935,7.952118 17.353875,8.331032 17.449985,8.455995 0.29373,0.38192 0.32374,0.985533 0.0673,1.353242 -0.0411,0.05902 -0.1055,0.09377 -0.22267,0.120319 -0.28455,0.06432 -0.2814,0.06272 -0.2618,0.140693 0.0281,0.11178 -0.0644,0.200022 -0.53601,0.511157 -0.23816,0.15716 -0.50596,0.360608 -0.59511,0.452106 -0.42094,0.432073 -0.84758,1.135313 -1.02592,1.691021 -0.14859,0.463061 -0.18733,0.820674 -0.16671,1.538834 0.0103,0.357442 0.0322,0.675112 0.0487,0.705922 0.0191,0.0356 0.8813,0.41046 2.36124,1.02671 2.59371,1.08001 2.47965,1.01965 2.66428,1.40992 0.10871,0.22981 0.11778,0.42076 0.027,0.56774 -0.0891,0.1442 -0.14723,0.17528 -0.67512,0.36111 -0.25785,0.0908 -0.47183,0.16705 -0.47551,0.1695 -0.004,0.003 0.0152,0.0743 0.0419,0.15978 0.10109,0.32321 -0.007,1.15986 -0.25577,1.97456 -0.20395,0.66864 -0.42817,1.09006 -0.87312,1.64099 -0.11636,0.14408 -0.20713,0.26539 -0.20173,0.26959 0.006,0.004 0.31319,0.2021 0.68396,0.43974 0.79629,0.51037 0.80607,0.51764 0.91718,0.68212 0.157,0.23247 0.0979,0.56133 -0.12327,0.68509 -0.0486,0.0272 -1.50974,0.59162 -3.24695,1.25424 l -3.15856,1.20475 -6e-4,0.1061 c -8.3e-4,0.16646 -0.065,0.34015 -0.1709,0.46264 -0.0964,0.11147 -0.10468,0.11417 -0.90727,0.29501 -0.44552,0.10039 -0.81665,0.18915 -0.82476,0.19725 -0.0242,0.0242 -1.04182,1.70796 -1.20333,1.99099 -0.32213,0.56448 -0.44374,1.13293 -0.44943,2.10078 l -0.004,0.63752 1.58348,0.96163 1.58347,0.96163 0.10191,0.20084 c 0.14383,0.28348 0.14144,0.47992 -0.01,0.78165 -0.0944,0.18857 -0.12744,0.22712 -0.2161,0.25159 -0.2912,0.0804 -5.45909,1.58308 -5.46781,1.58988 -0.006,0.004 0.0116,0.05 0.0384,0.10161 0.1219,0.23573 0.0898,0.51061 -0.0827,0.70752 -0.10214,0.11659 -0.10244,0.11669 -0.58312,0.19121 -0.26452,0.0409 -0.48523,0.0792 -0.49046,0.0849 -0.0814,0.0879 -0.58026,0.86596 -0.57387,0.8949 0.005,0.0219 1.30695,0.67465 2.89356,1.45052 2.71031,1.32534 2.89353,1.42006 3.03001,1.56626 0.34988,0.3748 0.3694,0.72983 0.0606,1.10344 -0.0756,0.0914 -0.16298,0.13966 -0.45289,0.2499 l -0.35925,0.13661 -0.0365,0.25024 c -0.0975,0.66679 -0.3487,1.02541 -1.2542,1.79047 -0.56948,0.48117 -0.66673,0.58303 -0.76767,0.80408 -0.17025,0.37287 -0.20778,0.75337 -0.123,1.24693 0.0986,0.57381 -0.0774,0.4027 1.64198,1.59661 l 1.51945,1.0551 0.13107,0.24685 c 0.28872,0.54378 0.24705,1.006 -0.11342,1.25796 -0.0606,0.0424 -7.10851,2.96511 -15.661882,6.49488 -14.340406,5.91796 -15.567487,6.4187 -15.755785,6.42953 -0.150339,0.009 -0.249197,-0.005 -0.37474,-0.0515 z"
         style="fill:none;stroke:#ff0000;stroke-width:0.10000001;stroke-miterlimit:4;stroke-dasharray:none" />
      <path
         inkscape:connector-curvature="0"
         id="path904"
         d="m 80.037277,148.16868 0.06811,-0.0183 -0.07849,-0.20866 c -0.4045,-1.07425 -0.577279,-1.81196 -0.768564,-3.28154 -0.09188,-0.70647 -0.09967,-1.75118 -0.01658,-2.2447 0.04624,-0.27465 0.171341,-0.80279 0.255628,-1.07903 0.01059,-0.0345 -0.01039,8.4e-4 -0.04654,0.0784 -0.167985,0.36104 -0.300988,1.10303 -0.341254,1.90375 -0.05762,1.1453 0.150179,3.14909 0.410602,3.9598 0.118162,0.36788 0.376207,0.91032 0.432372,0.90889 0.01,-3.5e-4 0.04754,-0.009 0.08499,-0.0187 z"
         style="fill:none;stroke:#0000ff;stroke-width:0.10000001;stroke-miterlimit:4;stroke-dasharray:none" />
      <path
         inkscape:connector-curvature="0"
         id="path902"
         d="m 77.369141,146.55277 c -0.09198,-0.33854 -0.211827,-0.9207 -0.273355,-1.32812 -0.02776,-0.18393 -0.04234,-0.56611 -0.04194,-1.09746 8.29e-4,-0.88792 0.03395,-1.17263 0.233708,-2.00873 0.288764,-1.20828 0.893147,-2.56662 1.301541,-2.9252 0.24754,-0.21734 0.703571,-0.37492 0.955674,-0.33022 0.06102,0.0109 0.280225,0.10827 0.487179,0.21655 0.206944,0.10827 0.422326,0.20649 0.478611,0.21825 0.206164,0.0431 0.480917,-0.1639 0.761103,-0.57339 0.06981,-0.10201 0.147783,-0.17413 0.218329,-0.2019 0.06032,-0.0238 2.913838,-1.11387 6.34107,-2.42243 3.427212,-1.30858 6.228081,-2.38243 6.224146,-2.38637 -0.004,-0.004 -0.388141,0.0842 -0.853779,0.19595 -1.793505,0.43022 -7.339457,1.73564 -10.83347,2.55003 -2.009127,0.46827 -3.672495,0.85788 -3.696373,0.86579 -0.02507,0.009 0.09417,0.10883 0.282203,0.23798 0.423984,0.29115 0.723374,0.53867 0.791912,0.6547 0.05053,0.0857 0.05083,0.0946 0.003,0.11279 -0.121937,0.0467 -0.700244,-0.1746 -1.494423,-0.5721 l -0.460465,-0.23047 -2.361576,0.56147 c -1.298865,0.3088 -3.038851,0.73038 -3.866655,0.93684 -1.720652,0.42912 -1.84961,0.45438 -2.320331,0.45417 -0.713098,-3.5e-4 -1.221139,-0.23835 -1.803411,-0.84504 -0.432393,-0.45053 -3.970876,-4.59589 -11.291588,-13.22815 -0.424134,-0.50012 -0.797834,-0.93157 -0.830451,-0.95875 -0.03266,-0.0272 -0.207453,-0.13897 -0.388531,-0.24838 -1.322454,-0.7991 -3.185205,-1.98626 -3.924947,-2.50144 -1.024802,-0.7137 -1.256632,-0.99267 -0.67392,-0.81099 0.316307,0.0987 1.724426,0.79925 2.741029,1.36384 0.400964,0.22269 0.729026,0.39934 0.729026,0.39256 0,-0.0116 -2.605889,-3.0958 -2.968625,-3.51351 l -0.168135,-0.19362 -0.229744,0.0772 c -0.228514,0.0769 -0.230691,0.0786 -0.404759,0.33472 -0.197356,0.29036 -0.412109,0.52601 -0.563477,0.61829 -0.182277,0.11115 -0.519846,0.0756 -1.219112,-0.12835 l -0.333105,-0.0971 -0.132703,0.0838 c -0.62873,0.39691 -1.041778,1.35533 -1.209594,2.80677 -0.106797,0.92362 -0.02377,1.73468 0.250326,2.4443 0.266274,0.68948 0.574932,1.10824 1.076272,1.46021 0.871945,0.61216 29.530546,20.32305 29.539075,20.31646 0.005,-0.004 -0.02607,-0.13954 -0.07001,-0.3009 z"
         style="fill:none;stroke:#0000ff;stroke-width:0.10000001;stroke-miterlimit:4;stroke-dasharray:none" />
      <path
         inkscape:connector-curvature="0"
         id="path900"
         d="m 93.709165,141.30795 13.006695,-5.40611 0.0103,-0.12038 c 0.0157,-0.18349 -0.0478,-0.76607 -0.16815,-1.54342 -0.11528,-0.74482 -0.12942,-1.00215 -0.0745,-1.35622 0.0188,-0.12104 0.0266,-0.22759 0.0175,-0.23676 -0.0191,-0.0191 -2.30749,0.69957 -2.95939,0.9293 -0.91605,0.32282 -2.04945,0.74847 -4.178666,1.56932 -3.052893,1.17694 -3.941775,1.50512 -4.076645,1.50512 -0.0777,0 -0.01588,-0.062 0.14932,-0.14973 0.953387,-0.50636 8.820081,-3.52499 10.977581,-4.21234 0.20965,-0.0668 0.23605,-0.0847 0.29398,-0.1995 0.19232,-0.38114 0.39725,-0.55057 0.96878,-0.80103 0.20036,-0.0878 0.40202,-0.199 0.44811,-0.24711 0.0955,-0.0997 0.1277,-0.27445 0.0483,-0.26173 -0.0268,0.004 -2.97577,1.16275 -6.5534,2.5744 -3.577611,1.41164 -9.312671,3.67226 -12.744587,5.02358 l -6.239825,2.45695 -0.350282,0.3305 c -0.600289,0.56638 -0.755082,0.62384 -1.546744,0.57423 -0.250066,-0.0157 -0.457419,-0.0271 -0.460805,-0.0255 -0.003,0.002 -0.04065,0.13668 -0.08289,0.30001 -0.108116,0.41838 -0.175855,0.8375 -0.198755,1.22981 -0.01698,0.29158 -0.01308,0.33708 0.02876,0.33708 0.09308,0 2.052538,-0.70338 3.739515,-1.34239 2.64271,-1.00103 4.565142,-1.77766 6.302532,-2.54612 1.366295,-0.60432 2.186639,-0.94205 3.668649,-1.5103 2.334622,-0.89519 5.138857,-1.8623 5.807473,-2.00288 0.333795,-0.0702 0.326404,-0.021 -0.02227,0.14869 -0.448421,0.2181 -1.339531,0.572 -4.009644,1.59242 -2.769151,1.05825 -3.727461,1.43342 -4.926789,1.92876 -2.547598,1.05221 -4.980388,2.01091 -8.511082,3.35406 -1.137091,0.43257 -2.072722,0.79179 -2.079203,0.79826 -0.007,0.007 0.01139,0.19094 0.03965,0.40993 0.05622,0.43611 0.179231,0.9731 0.323358,1.41151 0.103083,0.31354 0.32177,0.89364 0.33689,0.89364 0.005,0 5.862729,-2.43275 13.016394,-5.4061 z"
         style="fill:none;stroke:#0000ff;stroke-width:0.10000001;stroke-miterlimit:4;stroke-dasharray:none" />
      <path
         inkscape:connector-curvature="0"
         id="path898"
         d="m 83.496796,144.46985 c 0,-0.12493 7.661197,-3.38046 12.463982,-5.29644 5.014842,-2.00056 8.934372,-3.43696 9.265142,-3.39541 0.0644,0.008 0.031,0.0345 -0.18113,0.14351 -0.49015,0.25183 -1.66361,0.72531 -5.493768,2.2167 -3.065215,1.19355 -3.513896,1.37192 -6.349568,2.52423 -5.47341,2.2242 -8.384022,3.38108 -9.269959,3.68454 -0.443287,0.15184 -0.434699,0.14941 -0.434699,0.12287 z"
         style="fill:none;stroke:#0000ff;stroke-width:0.10000001;stroke-miterlimit:4;stroke-dasharray:none" />
      <path
         inkscape:connector-curvature="0"
         id="path896"
         d="m 69.670334,137.21762 c -0.205326,-0.13736 -0.60658,-0.47971 -0.826027,-0.70475 -0.667119,-0.68408 -1.028126,-1.56422 -1.153229,-2.81152 -0.07949,-0.79243 0.05772,-1.67411 0.376557,-2.41973 0.130615,-0.30547 0.09497,-0.29766 -0.06401,0.014 -0.123375,0.24182 -0.26194,0.66443 -0.331317,1.01037 -0.04524,0.22592 -0.05662,0.43543 -0.05672,1.05042 -1.2e-4,1.08897 0.06381,1.50118 0.316477,2.03679 0.368717,0.78186 1.101728,1.60562 1.645252,1.84898 0.153935,0.0689 0.210489,0.054 0.09308,-0.0246 z"
         style="fill:none;stroke:#0000ff;stroke-width:0.10000001;stroke-miterlimit:4;stroke-dasharray:none" />
      <path
         inkscape:connector-curvature="0"
         id="path894"
         d="m 67.644081,137.12692 c -0.313412,-0.47789 -0.774806,-1.4127 -0.934662,-1.8937 -0.219737,-0.66115 -0.252493,-0.89004 -0.252962,-1.76711 -4.7e-4,-0.83431 0.02177,-1.04657 0.188488,-1.79626 0.107776,-0.48488 0.205695,-0.76542 0.412749,-1.18254 0.458627,-0.92394 1.197141,-1.78278 1.780212,-2.07023 l 0.219497,-0.10822 0.407615,0.0616 c 0.421787,0.0637 0.633354,0.0768 0.718341,0.0441 0.02706,-0.0104 0.101205,-0.0915 0.16463,-0.18029 0.152756,-0.21378 0.32171,-0.39233 0.418311,-0.44209 0.04314,-0.0222 0.385286,-0.0872 0.760385,-0.14422 0.375089,-0.0571 0.681379,-0.11188 0.68064,-0.12167 -9.78e-4,-0.0145 -2.975935,-2.28106 -7.737904,-5.89568 -0.780707,-0.5926 -0.817458,-0.65116 0.464709,0.74034 2.908555,3.15656 4.400163,4.96315 4.474124,5.41894 0.01708,0.1052 0.01348,0.11055 -0.0729,0.11055 -0.182257,0 -0.596354,-0.33835 -1.496701,-1.22289 -1.002322,-0.98472 -2.1117,-2.16239 -4.785119,-5.07965 -2.228373,-2.43163 -3.210372,-3.47873 -3.40604,-3.63183 -1.101619,-0.862 -11.792699,-8.96278 -11.808468,-8.94743 -0.03286,0.032 -0.170832,0.75081 -0.232799,1.21274 -0.0762,0.56757 -0.0773,1.67314 -0.002,2.08516 0.09877,0.54154 0.235735,0.94533 0.422885,1.24676 0.09887,0.1592 19.628252,23.64985 19.661768,23.64985 0.007,0 -0.01358,-0.0388 -0.04474,-0.0863 z"
         style="fill:none;stroke:#0000ff;stroke-width:0.10000001;stroke-miterlimit:4;stroke-dasharray:none" />
      <path
         inkscape:connector-curvature="0"
         id="path892"
         d="m 86.350185,132.41135 c 8.890195,-2.09043 16.174135,-3.80917 16.186545,-3.81939 0.0179,-0.0148 -0.0608,-0.65357 -0.0842,-0.68356 -0.003,-0.004 -0.0825,0.0335 -0.17598,0.084 -0.37403,0.20188 -1.1761,0.39384 -2.944975,0.70484 -0.543234,0.0956 -1.157034,0.2081 -1.363988,0.25017 -1.518681,0.30879 -3.719302,0.65152 -4.507759,0.70206 -0.610494,0.0391 -0.797884,-0.005 -0.540717,-0.12782 0.260991,-0.12445 0.986093,-0.27665 3.15145,-0.66149 0.922648,-0.16398 2.718889,-0.49639 3.991639,-0.73869 1.27275,-0.24229 2.31691,-0.44053 2.32034,-0.44053 0.004,0 0.006,-0.28574 0.006,-0.63497 0,-0.71536 0.0258,-0.85261 0.26498,-1.4073 0.0688,-0.15968 0.12204,-0.29299 0.11822,-0.29623 -0.007,-0.006 -10.827228,1.69632 -10.965832,1.72538 -0.140223,0.0295 -9.338427,2.69803 -9.329958,2.70683 0.01,0.01 1.881896,-0.2662 3.372335,-0.49723 1.333888,-0.20676 2.805043,-0.45446 6.130082,-1.03209 3.153188,-0.5478 4.929266,-0.84216 5.762244,-0.955 0.612022,-0.0829 0.967667,-0.10243 0.914997,-0.0501 -0.146284,0.14512 -4.809356,1.04225 -10.345891,1.99044 -1.922442,0.32924 -5.051352,0.83518 -7.572445,1.22444 l -1.33262,0.20574 -1.084102,0.31304 c -0.596264,0.17219 -1.101109,0.31305 -1.121902,0.31305 -0.02087,0 -0.105998,-0.0539 -0.189357,-0.1198 l -0.151557,-0.1198 -1.282048,0.1811 c -1.563302,0.22084 -3.020455,0.41069 -3.837554,0.50002 -0.654296,0.0715 -1.439228,0.0964 -1.444061,0.0455 -0.01089,-0.11395 1.537656,-0.40786 4.62668,-0.8781 0.74156,-0.11289 1.369361,-0.20884 1.395097,-0.21324 0.0764,-0.013 -1.193257,-0.96203 -1.2882,-0.96286 -0.04464,-3.5e-4 -0.745065,0.1045 -1.556391,0.23311 l -1.475169,0.2338 -0.183855,0.1757 c -0.322739,0.3084 -0.857634,0.516 -1.328346,0.51555 -0.282233,-3.7e-4 -0.452955,-0.0365 -0.681599,-0.14469 l -0.171231,-0.081 -0.145826,0.16611 c -0.352519,0.40151 -0.61337,0.85526 -0.71098,1.23672 -0.146784,0.57363 -0.120569,1.64033 0.05423,2.20992 0.03455,0.11247 0.06621,0.20826 0.0705,0.21286 0.004,0.005 0.253202,-0.0423 0.553271,-0.10435 3.116757,-0.64404 6.119437,-1.16226 8.07099,-1.39294 1.702915,-0.2013 2.818236,-0.39803 6.3339,-1.11724 2.414065,-0.49386 3.029044,-0.60128 3.120102,-0.54499 0.03555,0.022 0.02077,0.0387 -0.06671,0.0753 -0.461523,0.19284 -1.937791,0.55792 -4.24498,1.04976 -1.83407,0.39098 -3.336873,0.67305 -5.518638,1.03583 -1.937682,0.3222 -7.776853,1.38915 -8.006416,1.46296 -0.05293,0.017 0.121547,0.34434 0.343721,0.64495 0.184034,0.24901 0.571267,0.62212 0.647405,0.6238 0.02986,7.1e-4 7.328072,-1.70917 16.218257,-3.79961 z"
         style="fill:none;stroke:#0000ff;stroke-width:0.10000001;stroke-miterlimit:4;stroke-dasharray:none" />
      <path
         inkscape:connector-curvature="0"
         id="path890"
         d="m 107.0451,128.76293 c 0.3018,-0.11581 0.62565,-0.23938 0.71969,-0.27462 l 0.17095,-0.064 -2.00089,-1.00053 c -1.10049,-0.55031 -2.00668,-0.99477 -2.01375,-0.98769 -0.0341,0.0341 -0.10922,0.53734 -0.11493,0.76936 l -0.007,0.26128 1.28129,0.77917 c 1.04789,0.63724 1.2935,0.77448 1.3483,0.75341 0.0369,-0.0142 0.31395,-0.12053 0.61575,-0.23632 z"
         style="fill:none;stroke:#0000ff;stroke-width:0.10000001;stroke-miterlimit:4;stroke-dasharray:none" />
      <path
         inkscape:connector-curvature="0"
         id="path888"
         d="m 77.484307,128.90218 c 0.06461,-0.018 0.117583,-0.0368 0.117583,-0.042 0,-0.005 -0.0763,-0.12336 -0.169504,-0.26265 -0.615508,-0.91958 -0.970274,-1.97862 -1.131548,-3.37796 -0.05882,-0.50994 -0.06691,-1.41225 -0.01628,-1.81865 0.119581,-0.96161 0.465349,-1.82173 0.980511,-2.43917 0.06891,-0.0826 0.119211,-0.15631 0.111741,-0.16377 -0.008,-0.008 -0.06461,4.8e-4 -0.126981,0.0178 -0.217999,0.0601 -0.611353,0.58198 -0.805843,1.06895 -0.136808,0.34259 -0.243046,0.76035 -0.321781,1.2654 -0.05912,0.37943 -0.06871,0.57299 -0.07041,1.4267 -0.002,0.90259 0.004,1.02014 0.06961,1.36399 0.202021,1.06204 0.625125,2.23927 1.006846,2.80137 0.137835,0.20299 0.162223,0.21396 0.356124,0.1601 z"
         style="fill:none;stroke:#0000ff;stroke-width:0.10000001;stroke-miterlimit:4;stroke-dasharray:none" />
      <path
         inkscape:connector-curvature="0"
         id="path886"
         d="m 75.066347,127.75151 c -0.338358,-0.67486 -0.618035,-1.70987 -0.777382,-2.87691 -0.07979,-0.58445 -0.07949,-2.0158 4.79e-4,-2.52415 0.122107,-0.77562 0.375199,-1.56219 0.686094,-2.1322 0.123705,-0.22681 0.496607,-0.79126 0.61402,-0.92944 0.04843,-0.057 0.552652,-0.17763 3.339329,-0.79899 1.805239,-0.40252 3.282266,-0.74037 3.282266,-0.7508 0,-0.0104 -0.963023,-0.49533 -2.140041,-1.07757 -1.861923,-0.92105 -7.207623,-3.60242 -19.119263,-9.59011 -1.715958,-0.86257 -3.105811,-1.5536 -3.088564,-1.53563 0.01718,0.018 0.384117,0.27671 0.815251,0.57498 2.060008,1.42515 3.252995,2.27922 4.201698,3.00805 7.536154,5.78954 12.020903,9.43545 11.882248,9.65979 -0.131963,0.21354 -4.861955,-3.00727 -12.086066,-8.22976 -0.715644,-0.5174 -1.855062,-1.3401 -2.531988,-1.82823 -3.440215,-2.48074 -5.943971,-4.33942 -7.737016,-5.74364 l -0.65847,-0.51567 -1.222887,-0.60215 -1.222886,-0.60214 -0.107127,-0.17928 c -0.192433,-0.32202 -0.47157,-1.200385 -0.472669,-1.487381 -2.4e-4,-0.0718 -0.006,-0.0735 -0.180579,-0.05303 -0.255249,0.02996 -0.280935,0.04095 -0.316537,0.136298 -0.01738,0.04674 -0.124693,0.295536 -0.238312,0.552893 -0.754871,1.71005 -1.041878,3.06238 -0.882231,4.15705 0.151078,1.03589 0.559412,2.1742 0.948593,2.64436 0.115905,0.14003 3.309739,2.61931 13.618779,10.57182 7.407046,5.71388 13.478107,10.39021 13.49123,10.39185 0.01308,0.002 -0.03096,-0.10638 -0.09797,-0.24004 z"
         style="fill:none;stroke:#0000ff;stroke-width:0.10000001;stroke-miterlimit:4;stroke-dasharray:none" />
      <path
         inkscape:connector-curvature="0"
         id="path884"
         d="m 92.872213,123.27541 c 7.907197,-2.1482 14.401817,-3.91351 14.432517,-3.92289 0.0502,-0.0154 0.0538,-0.0455 0.0348,-0.30469 -0.0116,-0.1582 -0.0264,-0.29384 -0.0331,-0.30144 -0.007,-0.008 -0.63621,0.13673 -1.39892,0.32075 -0.76272,0.184 -2.59317,0.61605 -4.06769,0.96014 -3.775832,0.88108 -4.676548,1.09947 -8.027103,1.94641 -4.840145,1.22344 -6.395008,1.58829 -7.352969,1.72535 -0.497855,0.0712 -0.651529,-0.005 -0.32924,-0.16342 0.527575,-0.25926 2.147152,-0.6874 6.66313,-1.76141 1.345173,-0.31991 2.713855,-0.64623 3.041528,-0.72514 0.906708,-0.21837 8.032874,-1.96948 9.860184,-2.42294 l 1.61357,-0.40042 0.0211,-0.10903 c 0.0117,-0.0599 0.0298,-0.27346 0.0403,-0.47444 l 0.0194,-0.36542 -0.33704,-0.023 c -0.62499,-0.0426 -1.37683,0.0354 -2.4379,0.25302 -0.49984,0.10252 -0.9057,0.20255 -2.90041,0.71476 -0.81552,0.20941 -1.09557,0.25628 -1.11977,0.18742 -0.0473,-0.13466 1.61348,-0.67336 3.8007,-1.23279 1.67843,-0.42928 1.77477,-0.44763 2.45676,-0.46768 l 0.60677,-0.0178 0.0696,-0.26653 c 0.0383,-0.14659 0.15276,-0.51633 0.25437,-0.82163 0.10161,-0.30532 0.17555,-0.5643 0.16431,-0.57555 -0.0113,-0.0113 -1.584,0.34858 -3.49503,0.7996 -3.44472,0.81298 -3.48013,0.82212 -4.11739,1.06288 -1.904061,0.71937 -6.702342,2.56197 -6.694193,2.57067 0.005,0.006 0.437645,-0.10289 0.960946,-0.24101 2.610044,-0.68891 3.834299,-0.96166 3.971566,-0.88483 0.158148,0.0885 -0.761114,0.36246 -4.729004,1.40939 -3.18903,0.84143 -3.693516,0.98011 -3.936991,1.08229 -0.104471,0.0438 -0.316118,0.0991 -0.470342,0.12267 -0.154204,0.0237 -0.999994,0.23714 -1.87953,0.47449 -3.689541,0.99562 -7.504666,1.97149 -8.708677,2.22757 -1.298776,0.27624 -1.150154,0.12304 0.316876,-0.32667 1.597217,-0.48961 4.61229,-1.31644 8.071739,-2.21352 0.886796,-0.22996 1.174811,-0.31593 1.144491,-0.34161 -0.02227,-0.0189 -0.38142,-0.20252 -0.798044,-0.40812 l -0.757528,-0.37383 -4.369174,1.02979 c -2.40304,0.5664 -4.405286,1.04777 -4.449427,1.06972 -0.199843,0.0994 -0.453594,0.54681 -0.569639,1.00444 -0.142659,0.56259 -0.06871,2.21476 0.135139,3.01887 0.08099,0.31923 0.215043,0.58463 0.385186,0.7622 0.146364,0.15275 0.442309,0.34202 0.502379,0.32128 0.01917,-0.007 6.504332,-1.76965 14.4115,-3.91786 z"
         style="fill:none;stroke:#0000ff;stroke-width:0.10000001;stroke-miterlimit:4;stroke-dasharray:none" />
      <path
         inkscape:connector-curvature="0"
         id="path882"
         d="m 90.849755,120.19139 0.344929,-0.0879 -0.132024,-0.068 c -0.201501,-0.10382 -0.273015,-0.0901 -0.458238,0.0881 -0.08928,0.0859 -0.148172,0.15605 -0.130935,0.15598 0.01718,0 0.186581,-0.0396 0.376268,-0.0881 z"
         style="fill:none;stroke:#0000ff;stroke-width:0.10000001;stroke-miterlimit:4;stroke-dasharray:none" />
      <path
         inkscape:connector-curvature="0"
         id="path880"
         d="m 87.932002,118.55307 c -0.382309,-0.76122 -0.574902,-1.83991 -0.48646,-2.72465 0.0777,-0.77643 0.274843,-1.35575 0.65857,-1.93449 0.379553,-0.5724 0.739143,-0.92705 1.146499,-1.13076 0.06901,-0.0346 3.49603,-1.2244 7.615657,-2.64421 4.119632,-1.41983 7.477842,-2.58562 7.462712,-2.59062 -0.029,-0.01 -17.386247,4.54957 -17.490098,4.59401 -0.05173,0.0221 -0.03645,0.04 0.109743,0.12973 0.268751,0.16466 0.413228,0.28824 0.378095,0.32337 -0.03645,0.0363 -0.358471,-0.0552 -0.754871,-0.21481 l -0.264347,-0.10645 -2.507161,0.65998 c -1.378939,0.36299 -2.526216,0.65268 -2.549495,0.64375 -0.02327,-0.009 -3.883992,-2.61574 -8.579331,-5.79289 -4.695348,-3.17714 -8.876204,-6.00556 -9.29079,-6.28539 L 62.626932,100.9709 60.63708,99.99326 c -5.272528,-2.590459 -7.844772,-3.980912 -7.724473,-4.175542 0.09028,-0.146025 1.979317,0.629799 5.013444,2.05898 0.206944,0.09747 0.362166,0.16402 0.344919,0.147872 -0.04724,-0.04424 -4.63435,-3.147436 -4.676244,-3.163504 -0.01997,-0.008 -0.09397,0.002 -0.16449,0.02067 -0.160595,0.04324 -0.260522,0.16472 -0.38902,0.472888 -0.117184,0.281045 -0.306571,0.480608 -0.590911,0.622699 -0.249277,0.124553 -0.414107,0.12727 -0.65131,0.01079 -0.14972,-0.0735 -0.214603,-0.08628 -0.44201,-0.08619 -0.469692,1.3e-4 -0.714695,0.179011 -0.979631,0.715245 -0.266634,0.539679 -0.34454,0.964112 -0.346378,1.887219 -9.78e-4,0.581743 0.007,0.687711 0.06711,0.909325 0.0734,0.26945 0.240678,0.646098 0.337239,0.759718 0.04933,0.0581 37.542015,18.66097 37.616266,18.66422 0.01308,5.9e-4 -0.04065,-0.12744 -0.11956,-0.28447 z"
         style="fill:none;stroke:#0000ff;stroke-width:0.10000001;stroke-miterlimit:4;stroke-dasharray:none" />
      <path
         inkscape:connector-curvature="0"
         id="path878"
         d="m 90.551883,118.28821 c 0,-0.01 -0.08269,-0.0939 -0.183745,-0.18745 -0.101055,-0.0936 -0.2543,-0.27273 -0.340535,-0.39814 -0.503548,-0.73227 -0.757628,-1.48195 -0.764449,-2.2554 l -0.003,-0.35567 -0.05842,0.1809 c -0.08259,0.25542 -0.134241,0.68788 -0.109084,0.91322 0.06042,0.54087 0.454962,1.30406 0.913519,1.76703 0.221115,0.22322 0.545921,0.42284 0.545921,0.33551 z"
         style="fill:none;stroke:#0000ff;stroke-width:0.10000001;stroke-miterlimit:4;stroke-dasharray:none" />
      <path
         inkscape:connector-curvature="0"
         id="path876"
         d="m 103.204,112.96131 c 6.6741,-2.39366 12.19391,-4.37514 12.26622,-4.40329 0.11064,-0.043 0.1845,-0.12081 0.46567,-0.49017 0.50174,-0.6591 0.82203,-1.11111 1.1444,-1.61503 0.35237,-0.5508 0.48992,-0.83002 0.51745,-1.05034 0.0245,-0.196 -0.007,-0.42326 -0.0589,-0.42301 -0.0834,3.5e-4 -27.37401,9.78094 -27.398797,9.81933 -0.0752,0.11642 -0.10539,0.32305 -0.10481,0.71608 7.09e-4,0.4853 0.06491,0.77248 0.251993,1.1274 0.196588,0.37297 0.542595,0.70904 0.70374,0.68355 0.04314,-0.007 5.539022,-1.97085 12.213134,-4.36452 z"
         style="fill:none;stroke:#0000ff;stroke-width:0.10000001;stroke-miterlimit:4;stroke-dasharray:none" />
      <path
         inkscape:connector-curvature="0"
         id="path874"
         d="m 90.959508,116.64452 c 0,-0.12503 3.843456,-1.56978 14.016102,-5.26863 2.64722,-0.96253 5.47341,-1.99167 6.28041,-2.28694 2.66603,-0.97549 4.43099,-1.53934 4.33568,-1.38511 -0.0629,0.10177 -1.81268,0.83272 -3.85889,1.61202 -4.2349,1.61286 -18.147899,6.5688 -20.083473,7.15392 -0.609167,0.18415 -0.689829,0.20458 -0.689829,0.17474 z"
         style="fill:none;stroke:#0000ff;stroke-width:0.10000001;stroke-miterlimit:4;stroke-dasharray:none" />
      <path
         inkscape:connector-curvature="0"
         id="path872"
         d="m 91.782599,115.05513 c -0.148682,-0.06 0.122806,-0.24912 0.766406,-0.53392 1.135403,-0.50242 2.721804,-1.08073 7.895675,-2.87832 2.45929,-0.85443 3.92135,-1.37475 5.37754,-1.91373 7.65638,-2.83385 10.53559,-3.8431 10.53559,-3.69303 0,0.15316 -3.2127,1.406 -9.9555,3.88231 -1.2072,0.44335 -3.49306,1.29253 -5.07966,1.88706 -6.195808,2.32172 -8.249575,3.04065 -9.202702,3.22144 -0.275182,0.0522 -0.277369,0.0524 -0.337349,0.0282 z"
         style="fill:none;stroke:#0000ff;stroke-width:0.10000001;stroke-miterlimit:4;stroke-dasharray:none" />
      <path
         inkscape:connector-curvature="0"
         id="path870"
         d="m 80.500818,110.84128 c -0.512825,-1.65395 -0.656693,-2.50879 -0.579586,-3.44399 0.13441,-1.63031 0.836563,-3.25487 2.010335,-4.65133 l 0.244443,-0.29081 16.487288,-4.119835 c 9.068022,-2.265913 16.496842,-4.128455 16.508502,-4.138981 0.0219,-0.01977 -32.640754,-15.909848 -32.735078,-15.925268 -0.06112,-0.01 -30.651429,6.184989 -30.705287,6.218264 -0.06631,0.04095 -0.303984,0.436367 -0.508511,0.84582 -0.358131,0.716963 -0.585498,1.358925 -0.699505,1.975092 -0.04414,0.238222 -0.04933,0.421487 -0.03435,1.175839 0.03705,1.851387 0.24665,2.848745 0.726789,3.45856 0.076,0.09647 29.501355,19.727149 29.513858,19.689669 0.005,-0.0145 -0.09817,-0.37138 -0.228924,-0.79303 z"
         style="fill:none;stroke:#0000ff;stroke-width:0.10000001;stroke-miterlimit:4;stroke-dasharray:none" />
      <path
         inkscape:connector-curvature="0"
         id="path868"
         d="m 81.419021,102.17039 c -0.327163,-0.10583 -1.531894,-0.71339 -2.625613,-1.32412 -1.97656,-1.103715 -3.230065,-1.843187 -9.736005,-5.743447 -2.552371,-1.530136 -5.571948,-3.33916 -6.710167,-4.02006 -5.320843,-3.183018 -8.461498,-5.138926 -9.532198,-5.93641 -0.388681,-0.289484 -0.517369,-0.403152 -0.517369,-0.45694 0,-0.07969 0.249057,0.01 0.86078,0.310156 1.575795,0.773147 5.087265,2.790862 11.650219,6.694287 1.043376,0.620562 3.378607,2.003115 5.189408,3.072356 6.458833,3.813766 8.401758,4.989955 10.112283,6.121678 1.162538,0.76917 1.678808,1.17393 1.655,1.29755 -0.01428,0.0743 -0.07879,0.0715 -0.346338,-0.0151 z"
         style="fill:none;stroke:#0000ff;stroke-width:0.10000001;stroke-miterlimit:4;stroke-dasharray:none" />
      <path
         inkscape:connector-curvature="0"
         id="path866"
         d="m 82.112485,111.31672 c 0.03425,-0.0217 -3.59e-4,-0.1894 -0.179181,-0.86964 -0.376147,-1.43084 -0.475664,-1.98337 -0.476793,-2.64706 -0.002,-1.07704 0.356045,-2.07738 1.334148,-3.72922 0.168216,-0.2841 0.312293,-0.53332 0.320173,-0.55381 0.01089,-0.0284 -0.01678,-0.0294 -0.115087,-0.005 -0.11958,0.0304 -0.147523,0.0603 -0.368787,0.39539 -0.633424,0.95926 -1.114891,2.14606 -1.282118,3.16036 -0.08628,0.52325 -0.0741,1.29797 0.02766,1.76776 0.15044,0.69431 0.630768,2.50848 0.664034,2.508 0.01848,-3.4e-4 0.05263,-0.0125 0.076,-0.0273 z"
         style="fill:none;stroke:#0000ff;stroke-width:0.10000001;stroke-miterlimit:4;stroke-dasharray:none" />
      <path
         inkscape:connector-curvature="0"
         id="path864"
         d="m 98.045943,105.90404 c 8.321077,-2.07956 15.180707,-3.79463 15.243607,-3.81127 l 0.11436,-0.0304 -0.0596,-0.22697 c -0.15766,-0.59988 -0.24652,-1.55239 -0.24718,-2.649242 -3.5e-4,-0.262998 -0.008,-0.478171 -0.0162,-0.478171 -0.009,0 -0.19566,0.05073 -0.41546,0.11267 -1.09358,0.308328 -3.58321,0.899888 -8.64573,2.054333 -1.9663,0.44839 -4.520458,1.03233 -5.675935,1.29765 -5.207225,1.19566 -7.081771,1.61492 -9.124562,2.04084 -1.621015,0.33798 -2.419918,0.46077 -2.314948,0.35579 0.195109,-0.19511 5.463872,-1.56275 11.400242,-2.95922 5.065653,-1.19165 12.910603,-2.856284 14.641873,-3.106899 l 0.14753,-0.02127 0.0201,-0.145595 c 0.0664,-0.481457 0.20499,-0.793041 0.59676,-1.342078 l 0.0483,-0.06771 -0.15086,0.04274 c -0.083,0.02347 -6.83906,1.780022 -15.01356,3.903382 -8.174492,2.12336 -14.933264,3.88083 -15.019489,3.90548 -0.140043,0.0401 -0.170013,0.0654 -0.280715,0.23723 -0.394563,0.6124 -0.646696,1.34973 -0.738423,2.15941 -0.03795,0.33448 -0.04824,1.33567 -0.01558,1.50962 l 0.02157,0.11486 0.165948,-0.0571 c 0.261041,-0.0899 1.071009,-0.29127 2.195457,-0.54607 0.56911,-0.12897 1.995954,-0.47434 3.170755,-0.76751 2.828103,-0.70572 3.887518,-0.94041 4.088729,-0.90573 0.274633,0.0473 -1.70673,0.6886 -4.515838,1.46156 -1.964556,0.54056 -3.453038,0.84262 -4.89683,0.99369 l -0.177752,0.0186 0.06072,0.22539 c 0.102992,0.38216 0.153395,0.49614 0.211597,0.47858 0.02856,-0.009 6.859997,-1.71711 15.181063,-3.79666 z"
         style="fill:none;stroke:#0000ff;stroke-width:0.10000001;stroke-miterlimit:4;stroke-dasharray:none" />
      <path
         inkscape:connector-curvature="0"
         id="path826"
         d="m 84.046382,106.89338 c -0.0742,-0.12006 0.945227,-0.41504 3.322872,-0.96152 1.087177,-0.24987 2.494897,-0.55817 5.549996,-1.21547 1.483139,-0.3191 3.754875,-0.81288 5.048297,-1.0973 6.909293,-1.51929 9.986873,-2.1262 9.986873,-1.96946 0,0.25878 -10.788282,2.81043 -18.467565,4.36795 -3.487691,0.70738 -5.358443,1.00853 -5.440473,0.8758 z"
         style="fill:none;stroke:#0000ff;stroke-width:0.10000001;stroke-miterlimit:4;stroke-dasharray:none" />
      <path
         id="path848"
         style="fill:none;stroke:#0000ff;stroke-width:0.10000001"
         d="m 51.237796,83.534148 -0.21813,0.21813 m -1.134866,1.533989 1.84852,-1.84852 m 0.495523,-0.0964 -2.304362,2.304362 m -0.278922,0.678044 3.078807,-3.078807 m 0.495524,-0.0964 -0.942212,0.942212 m -2.864109,2.864109 1.503344,-1.503344 m 2.7985,-2.399377 -0.937259,0.937259 m -3.36548,3.36548 1.11256,-1.11256 m 3.685703,-3.28658 -0.932307,0.932307 m -3.884918,3.884917 0.977077,-0.977077 m 4.335671,-3.936548 -0.927354,0.927354 m -4.41335,4.41335 0.856009,-0.856009 m 4.980218,-4.581096 -0.922401,0.922401 m -4.897772,4.897772 0.84682,-0.84682 m 5.468877,-5.069754 -0.917448,0.917448 m -5.382195,5.382195 0.818756,-0.818756 m 5.97641,-5.577288 -0.912495,0.912495 m -5.866617,5.866617 0.790691,-0.790691 m 6.483944,-6.084821 -0.907543,0.907543 m -6.345585,6.345584 0.793398,-0.793398 m 6.955254,-6.55613 -0.90259,0.90259 m -6.796052,6.796052 0.762362,-0.762362 m 7.431803,-7.032681 -0.897637,0.897637 m -7.246519,7.246519 0.731325,-0.731325 m 7.908354,-7.509232 -0.892684,0.892684 m -7.697032,7.697032 0.726393,-0.726393 m 8.358847,-7.959724 -0.887731,0.887731 m -8.104375,8.104375 0.682684,-0.682684 m 8.804945,-8.405823 -0.882779,0.882779 m -8.511717,8.511717 0.638975,-0.638975 m 9.251044,-8.851922 -0.877826,0.877826 m -8.90212,8.902121 0.621924,-0.621924 m 9.653546,-9.254423 -0.872873,0.872873 m -9.252926,9.252926 0.564596,-0.564596 m 10.056726,-9.657604 -0.86792,0.86792 m -9.592754,9.592754 0.522095,-0.522095 M 61.148264,81.606133 60.285297,82.4691 m -9.860407,9.860406 0.435566,-0.435566 m 10.783331,-10.38421 -0.858015,0.858015 m -10.128058,10.128058 0.35241,-0.35241 M 62.13931,81.413329 61.286248,82.266391 m -10.395709,10.39571 0.357038,-0.357038 m 11.387257,-10.988135 -0.848109,0.848109 m -10.663362,10.663362 0.36362,-0.36362 M 63.130357,81.220527 62.287201,82.063683 M 51.357748,92.993136 51.726389,92.624495 M 63.62588,81.124127 62.787677,81.96233 M 51.59319,93.156817 51.965796,92.784211 m -1.931092,1.931092 -0.651839,0.651839 m 13.905288,-13.506166 0.833251,-0.833251 m -6.670661,6.670662 -0.04991,0.04991 m -5.572203,5.572202 0.37657,-0.37657 m -1.694581,1.694581 -1.226942,1.226942 m 14.50495,-14.105827 0.828298,-0.828298 m -6.914769,6.914769 -0.05301,0.05302 m -5.585069,5.585069 0.380535,-0.380535 m -1.556362,1.556362 -1.819119,1.819119 M 64.289105,81.658269 65.11245,80.834924 m -7.158877,7.158877 -0.05612,0.05612 m -5.601936,5.601936 0.388499,-0.388499 m -1.499188,1.499189 -2.175726,2.175726 m -2.460105,2.460104 0.805691,-0.805691 m 18.253287,-17.854164 -0.818392,0.818392 m -6.643821,6.643821 0.05923,-0.05923 m -5.281567,5.281567 -3.978209,3.978209 m -2.403989,2.403989 1.395499,-1.395499 M 66.1035,80.642119 65.290061,81.455558 m -6.895989,6.895989 0.06233,-0.06234 m -5.293576,5.293576 -6.938594,6.938587 m 19.5663,-19.16717 0.859154,-0.859154 m -7.941868,7.941868 -0.06544,0.06544 m -7.123044,7.123044 1.882901,-1.882901 m -3.554716,3.554716 -3.747012,3.747017 M 66.29101,81.252854 67.094544,80.44932 m -8.135309,8.135309 -0.06855,0.06855 m -7.054625,7.054625 1.80558,-1.80558 m -3.841875,3.841875 -3.946922,3.946921 M 66.791486,81.151501 67.590067,80.35292 m -8.379416,8.379416 -0.07166,0.07166 m -6.9859,6.9859 1.727953,-1.727953 m -4.11038,4.11038 -1.075415,1.075415 m -2.822749,2.822742 1.780904,-1.7809 M 68.085587,80.256523 67.291959,81.050151 M 59.3873,88.95481 59.46206,88.88005 m -5.341613,5.341612 -0.363526,0.363526 m -1.138833,1.138834 0.192804,-0.192804 m -3.06933,3.069329 -0.796568,0.796568 m -3.124083,3.124085 1.584254,-1.58425 m 21.175942,-20.776825 -0.788676,0.788676 m -8.156826,8.156826 0.07787,-0.07787 m -5.353621,5.353621 -0.391634,0.391634 m -4.930133,4.930133 0.743491,-0.743491 m -2.599685,2.599686 -1.432001,1.432 m 22.543016,-22.143893 0.783723,-0.783723 m -9.111741,9.11174 -0.08098,0.08098 m -5.677626,5.677626 0.392972,-0.392972 m -4.79025,4.790251 -0.697538,0.697541 m -3.348759,3.34875 1.266924,-1.26692 m 22.542517,-22.143393 -0.77877,0.77877 m -8.661161,8.661161 0.08408,-0.08408 m -5.377639,5.377639 -0.39431,0.39431 m -5.244182,5.244183 0.692563,-0.692564 m -3.014729,3.014724 -1.102474,1.10248 M 69.293853,80.644747 70.06767,79.87093 m -9.599956,9.599955 -0.08719,0.08719 m -5.698106,5.698107 0.395649,-0.395649 m -5.062633,5.062633 -0.699798,0.699794 m -3.528761,3.52876 1.055332,-1.05533 m 23.720987,-23.321862 -0.768865,0.768865 m -9.165496,9.165496 0.0903,-0.0903 m -5.401657,5.401657 -0.396987,0.396987 m -5.494716,5.494717 0.712366,-0.71237 m -3.359286,3.35929 -0.919346,0.91934 M 70.294808,80.442036 71.05872,79.678124 m -10.088172,10.088172 -0.0934,0.0934 m -5.718587,5.718587 0.398325,-0.398325 m -5.246529,5.246532 -0.677982,0.67798 m -3.700234,3.70024 0.872625,-0.87263 m 24.749481,-24.35036 -0.758959,0.758959 m -9.669831,9.669831 0.09651,-0.09651 m -5.425675,5.425675 -0.399664,0.399664 m -5.496816,5.496821 0.677306,-0.67731 m -3.756655,3.75666 -0.815694,0.81569 M 71.295763,80.239326 72.049769,79.48532 m -10.576387,10.576387 -0.09962,0.09962 m -5.739068,5.739068 0.401002,-0.401002 m -5.191818,5.191817 -0.67663,0.67663 m -4.126429,4.12643 0.841484,-0.84148 m 25.662988,-25.263869 -0.749054,0.749054 m -10.174166,10.174166 0.102725,-0.102725 m -5.449693,5.449693 -0.402341,0.402341 m -5.438076,5.43808 0.675954,-0.67596 m -4.148274,4.14828 -0.792369,0.79236 M 72.296724,80.036611 73.040825,79.29251 M 61.976221,90.357113 61.87039,90.462944 m -5.759549,5.75955 0.403679,-0.403679 m -5.137108,5.137105 -0.675278,0.67528 m -4.421592,4.42159 0.761895,-0.76189 M 73.536348,79.196109 72.7972,79.935257 M 62.118699,90.613758 62.227637,90.50482 m -5.473711,5.473711 -0.405017,0.405017 m -5.379338,5.379342 0.674604,-0.67461 m -4.521676,4.52168 -0.731421,0.73142 m 26.906598,-26.507477 0.734195,-0.734195 m -11.552819,11.552819 -0.112045,0.112045 m -5.78003,5.780031 0.406356,-0.406356 m -5.082396,5.082393 -0.673929,0.67393 m -4.735394,4.7354 0.700946,-0.70095 M 74.527395,79.003307 73.798152,79.73255 m -11.182204,11.182204 0.11452,-0.11452 m -5.497729,5.497729 -0.407694,0.407694 m -5.320601,5.320603 0.673255,-0.67326 m -4.866018,4.86602 -0.69953,0.69953 m 27.686477,-27.287354 0.72429,-0.72429 M 62.981883,90.947941 62.86554,91.064284 m -5.802427,5.802427 0.409032,-0.409032 m -5.027684,5.027681 -0.67258,0.67258 m -5.040649,5.04065 0.699074,-0.69907 m 28.088136,-27.689015 -0.719337,0.719337 m -11.683973,11.683973 0.118167,-0.118167 m -5.521747,5.521747 -0.410371,0.410371 m -5.284597,5.284594 0.694639,-0.69464 m -5.151417,5.15142 -0.662858,0.66286 m 28.402633,-28.003511 0.714384,-0.714384 m -12.529251,12.52925 -0.11999,0.11999 m -5.825475,5.825475 0.411709,-0.411709 m -4.972973,4.972979 -0.737569,0.73756 m -5.434088,5.43409 0.906986,-0.90699 m 28.796174,-28.397046 -0.709432,0.709432 m -12.18574,12.18574 0.121814,-0.121814 m -5.545765,5.545765 -0.413048,0.413048 m -5.313069,5.313065 0.780499,-0.7805 m -5.366224,5.36623 -1.306306,1.30631 m 29.728316,-29.329198 0.704479,-0.704479 m -13.017467,13.017466 -0.123638,0.123638 m -5.848521,5.848522 0.414386,-0.414386 m -0.908055,0.908054 -0.06053,0.06053 m -4.771639,4.771633 0.821957,-0.82196 m -5.408289,5.4083 -1.533413,1.53341 M 76.801009,79.124428 77.500535,78.424902 M 64.238961,91.686476 64.1135,91.811937 m -5.860046,5.860046 0.415724,-0.415724 m -0.872178,0.872178 -0.07104,0.07104 m -4.80953,4.809533 0.861846,-0.86184 m -5.450354,5.45035 -1.873037,1.87304 M 77.30149,79.023069 77.996063,78.328496 m -13.505682,13.505682 -0.127285,0.127285 m -6.372372,6.372372 0.917865,-0.917865 m -4.863551,4.86356 -0.901735,0.90173 m -6.720537,6.72054 2.129853,-2.12985 M 78.491582,78.2321 77.801961,78.921721 m -13.189277,13.189277 0.12889,-0.12889 m -5.593583,5.593583 -0.892508,0.892508 m -4.885311,4.885311 0.941623,-0.94162 m -5.534483,5.53448 -2.396875,2.39687 m 31.922001,-31.522873 0.684668,-0.684668 m -13.994834,13.994834 -0.129996,0.129996 m -6.342029,6.342028 0.867151,-0.867151 m -4.808841,4.808844 -0.981512,0.98151 m -5.405728,5.40573 0.810692,-0.81069 m -1.581615,1.58161 -1.032,1.032 m 32.41452,-32.015397 0.679715,-0.679715 M 65.24297,92.278957 65.111868,92.410059 m -6.326857,6.326857 0.841793,-0.841793 m -4.781485,4.781487 -1.021401,1.0214 m -5.405532,5.40553 0.80832,-0.80832 m -1.90113,1.90113 -0.929227,0.92923 M 79.30339,78.61766 79.978152,77.942898 M 65.493668,92.427381 65.361459,92.55959 m -6.311684,6.311685 0.816436,-0.816436 m -4.75413,4.754131 -1.06129,1.06129 m -5.405335,5.40533 0.805948,-0.80594 m -2.148076,2.14807 -0.894967,0.89497 m 33.395505,-32.996384 0.66981,-0.66981 m -14.72931,14.72931 -0.133315,0.133315 m -6.296512,6.296512 0.791079,-0.791079 m -4.726775,4.726776 -1.101179,1.10118 m -5.405139,5.40514 0.803576,-0.80358 m -2.394894,2.3949 -0.831704,0.8317 M 80.304342,78.414952 80.969199,77.750095 M 65.995065,92.72423 65.860644,92.858651 m -6.281341,6.281341 0.765721,-0.765721 m -4.699419,4.699419 -1.141068,1.14107 m -5.404943,5.40494 0.801204,-0.8012 m -2.641712,2.64171 -0.768441,0.76844 m 34.314173,-33.915051 0.659904,-0.659904 m -15.218959,15.218959 -0.135527,0.135527 m -6.26617,6.26617 0.740364,-0.740364 m -4.672063,4.672063 -1.180957,1.18096 m -5.404747,5.40474 0.798832,-0.79883 m -2.831831,2.83183 -0.754412,0.75442 m 34.766042,-34.366925 0.654951,-0.654951 m -15.463784,15.463784 -0.136633,0.136633 m -6.250998,6.250998 0.715007,-0.715007 m -4.644708,4.644708 -1.220846,1.22085 m -5.404551,5.40455 0.79646,-0.79646 m -3.03511,3.03511 -0.705181,0.70518 m 35.19587,-34.796749 0.662686,-0.662686 m -15.721298,15.721298 -0.13774,0.13774 m -6.235825,6.235825 0.689649,-0.689649 m -4.617352,4.617351 -1.260734,1.26074 m -5.404355,5.40435 0.794088,-0.79409 m -3.173196,3.1732 -0.721143,0.72114 M 82.306247,78.009538 82.73816,77.577625 m -15.740302,15.740302 -0.138846,0.138846 m -6.220654,6.220654 0.664292,-0.664292 m -4.589996,4.589995 -1.300623,1.30062 m -5.40416,5.40416 0.791716,-0.79171 m -3.349113,3.34911 -0.680695,0.68069 m 35.882865,-35.483737 0.355219,-0.355219 m -15.759307,15.759307 -0.139952,0.139952 m -6.203966,6.203966 0.637419,-0.637419 m -4.562641,4.56264 -1.340512,1.34051 m -5.403964,5.40397 0.789344,-0.78935 m -3.494005,3.49401 -0.652215,0.65221 m 36.043081,-35.643955 0.356423,-0.356423 m -15.778314,15.778314 -0.141058,0.141058 m -6.185927,6.185926 0.609193,-0.609193 m -4.535284,4.535283 -1.379745,1.37975 m -5.404424,5.40442 0.786972,-0.78697 m -3.584513,3.58451 -0.65915,0.65915 M 83.189645,78.323507 83.547272,77.96588 m -15.79732,15.79732 -0.142165,0.142165 m -6.167886,6.167885 0.580968,-0.580967 m -4.507929,4.507927 -1.415818,1.41582 m -5.408044,5.40804 0.7846,-0.7846 m -3.683722,3.68373 -0.605475,0.60547 M 83.458145,78.45413 83.816976,78.095299 M 68.00065,93.911624 67.857379,94.054895 m -6.149846,6.149845 0.552743,-0.552741 m -4.480574,4.480571 -1.451891,1.45189 m -5.411663,5.41167 0.782228,-0.78223 m -3.725557,3.72555 -0.609178,0.60918 M 83.726645,78.584752 84.08668,78.224717 m -15.835331,15.835331 -0.144377,0.144377 m -6.131808,6.131805 0.524518,-0.524515 m -4.453218,4.453215 -1.487964,1.48797 m -5.415283,5.41528 0.779856,-0.77986 m -3.769068,3.76907 -0.611203,0.61121 m 36.452343,-36.053225 0.361238,-0.361238 m -15.854336,15.854336 -0.145483,0.145483 m -6.113768,6.113764 0.496293,-0.496289 m -4.425863,4.425859 -1.524037,1.52404 m -5.418903,5.4189 0.777484,-0.77748 m -3.812579,3.81258 -0.613227,0.61322 m 36.541681,-36.142553 0.362442,-0.362442 m -15.873342,15.873342 -0.14659,0.14659 m -6.095727,6.095733 0.468068,-0.46807 m -4.398508,4.3985 -1.56011,1.56011 m -5.422523,5.42253 0.775113,-0.77512 m -3.856091,3.8561 -0.615252,0.61525 m 36.63102,-36.2319 0.363646,-0.363646 m -15.892348,15.892347 -0.147696,0.147696 m -6.077688,6.077693 0.439843,-0.43985 m -4.371152,4.37115 -0.699634,0.69964 m -0.896549,0.89655 0.474569,-0.47457 m -5.127971,5.12797 -0.772741,0.77274 m -3.744138,3.74414 0.617277,-0.61728 m 36.467932,-36.068808 -0.36485,0.36485 M 69.10534,94.802548 69.254142,94.653746 m -5.796834,5.796834 -0.441973,0.44197 m -4.60164,4.60164 0.699817,-0.69981 m -1.154325,1.15432 -0.477931,0.47793 m -5.429762,5.42976 0.770369,-0.77037 m -3.943114,3.94312 -0.619301,0.6193 M 85.069145,79.237865 85.435199,78.871811 M 69.50484,94.80217 69.355817,94.951193 m -6.102186,6.102187 0.443084,-0.44308 m -4.316441,4.31643 -0.699999,0.7 m -0.96833,0.96834 0.481293,-0.4813 m -5.146678,5.14668 -0.767997,0.768 m -3.83843,3.83843 0.619802,-0.61981 M 85.704902,79.00123 85.337645,79.368487 M 69.60685,95.099282 69.755538,94.950594 m -5.819417,5.819416 -0.444195,0.4442 m -4.545072,4.54507 0.700182,-0.70018 m -1.219747,1.21974 -0.484655,0.48466 m -5.437002,5.437 0.765625,-0.76562 m -4.030136,4.03013 -0.619546,0.61955 m 36.98457,-36.585451 0.368461,-0.368461 m -15.968634,15.968635 -0.148088,0.148088 m -6.127847,6.127849 0.445491,-0.44549 m -4.26173,4.26173 -0.700365,0.70036 m -1.04011,1.04011 0.48711,-0.48711 m -5.164479,5.16448 -0.763253,0.76325 m -3.929684,3.92969 0.61929,-0.61929 m -2.830632,2.83063 -0.350426,0.35043 M 85.874645,79.629732 86.24431,79.260067 M 70.256234,95.248143 70.108917,95.39546 m -6.140813,6.14081 0.446831,-0.44683 m -4.234375,4.23438 -0.700547,0.70054 m -1.076001,1.076 0.489022,-0.48902 m -5.172383,5.17239 -0.760881,0.76088 m -3.975311,3.97531 0.619034,-0.61904 m -2.740308,2.74031 -0.861783,0.86179 M 86.143145,79.760354 86.514014,79.389485 M 70.506497,95.397003 70.35995,95.54355 m -6.15378,6.15378 0.448171,-0.44817 m -4.207019,4.20702 -0.70073,0.70073 m -1.111891,1.11189 0.490933,-0.49093 m -5.180285,5.18028 -0.758509,0.75851 m -4.020939,4.02094 0.618778,-0.61878 m -2.60117,2.60117 -1.49545,1.49545 m 40.723586,-40.324463 0.372072,-0.372072 m -16.026958,16.026958 -0.145776,0.145776 m -6.166747,6.166751 0.449511,-0.44952 m -4.179663,4.17967 -0.700912,0.70091 m -1.147782,1.14778 0.492845,-0.49284 m -5.188189,5.18819 -0.756137,0.75613 m -4.066567,4.06657 0.618522,-0.61852 m -2.455717,2.45571 -1.964026,1.96403 m 41.134024,-40.734901 0.373276,-0.373276 m -16.046399,16.0464 -0.145005,0.145005 m -6.179714,6.179712 0.450852,-0.45085 m -4.152309,4.15231 -0.701095,0.70109 m -1.183672,1.18368 0.494757,-0.49476 m -5.196093,5.19609 -0.753765,0.75377 m -4.112194,4.11219 0.618266,-0.61827 m -2.330841,2.33085 -2.412026,2.41202 m 41.544463,-41.145338 0.37448,-0.37448 m -16.065841,16.06584 -0.144234,0.144234 m -6.192682,6.192684 0.452192,-0.45219 m -4.124952,4.12495 -0.701277,0.70128 m -1.219563,1.21956 0.496668,-0.49667 m -5.203997,5.204 -0.751393,0.75139 m -8.600888,8.60089 5.061077,-5.06108 m 37.264593,-36.86547 -0.375684,0.375684 m -15.853061,15.853062 0.143464,-0.143464 m -5.895581,5.895578 -0.453532,0.45354 m -4.345524,4.34552 0.70146,-0.70146 m -1.458334,1.45833 -0.49858,0.49858 m -5.46234,5.46234 0.749021,-0.74902 m -4.334716,4.33472 -5.280978,5.28098 M 87.485646,80.413466 87.862534,80.036578 M 71.75781,96.141302 71.615117,96.283995 m -6.218616,6.218615 0.454872,-0.45487 m -4.07024,4.07024 -0.701642,0.70164 m -1.291344,1.29134 0.500491,-0.50049 m -5.219803,5.21981 -0.746649,0.74665 m -5.992129,5.99213 2.360551,-2.36056 m -4.153255,4.15326 -1.347625,1.34762 M 87.754146,80.544089 88.132237,80.165998 M 72.008072,96.290162 71.86615,96.432084 m -6.231582,6.231586 0.456212,-0.45621 m -4.042885,4.04288 -0.70261,0.70261 m -1.326449,1.32645 0.502403,-0.5024 m -5.227707,5.2277 -0.744277,0.74428 m -5.89334,5.89334 2.215879,-2.21588 m -4.378888,4.37889 -1.424844,1.42484 m 42.954584,-42.555459 0.379295,-0.379295 m -16.143606,16.143606 -0.141151,0.141151 m -6.24455,6.244547 0.457553,-0.45755 m -4.01553,4.01553 -0.703573,0.70357 m -1.361559,1.36156 0.504315,-0.50431 m -5.235611,5.23561 -0.741905,0.7419 m -5.795113,5.79512 2.071768,-2.07177 m -4.719917,4.71992 -1.196848,1.19684 m 43.154932,-42.755806 0.380499,-0.380499 m -16.163047,16.163047 -0.140381,0.140381 m -6.257517,6.257517 0.458893,-0.45889 m -3.988174,3.98817 -0.704535,0.70454 m -1.395873,1.39587 0.505429,-0.50543 m -5.243513,5.24351 -0.739533,0.73954 m -5.598053,5.59805 1.828824,-1.82882 m -4.932638,4.93263 -1.139389,1.13939 M 88.559646,80.935956 88.941349,80.554253 M 72.75886,96.736742 72.61925,96.876352 M 66.348767,103.14684 66.809,102.6866 m -3.960819,3.96082 -0.705498,0.7055 m -1.4299,1.4299 0.506258,-0.50626 m -5.251417,5.25142 -0.737161,0.73716 m -4.40634,4.40634 0.591229,-0.59123 m -5.132264,5.13226 -1.095026,1.09503 m 43.640084,-43.240961 0.382907,-0.382907 m -16.20193,16.20193 -0.138839,0.138839 m -6.283451,6.283449 0.461573,-0.46157 m -3.933463,3.93346 -0.706461,0.70646 m -1.463928,1.46393 0.507088,-0.50709 m -5.259321,5.25932 -0.734789,0.73479 m -4.456247,4.45625 0.595252,-0.59525 m -5.318939,5.31894 -1.063612,1.06361 m 43.88266,-43.483539 0.38411,-0.38411 M 73.259385,97.034462 73.121317,97.17253 m -6.296418,6.29642 0.462914,-0.46292 m -3.906108,3.90611 -0.707424,0.70743 m -1.497956,1.49795 0.507917,-0.50792 m -5.267224,5.26723 -0.732417,0.73242 m -4.499843,4.49984 0.592965,-0.59297 m -5.505615,5.50562 -1.036312,1.03631 m 44.12935,-43.730227 0.385314,-0.385314 m -16.240812,16.240813 -0.137297,0.137297 m -6.309386,6.309381 0.464254,-0.46425 m -3.878752,3.87875 -0.708387,0.70839 m -1.531984,1.53198 0.508746,-0.50874 m -5.275126,5.27512 -0.730045,0.73005 m -4.544127,4.54413 0.591365,-0.59137 m -5.599714,5.59971 -1.04407,1.04407 M 89.633646,81.458446 90.020164,81.071928 M 73.75991,97.332182 73.623383,97.468709 m -6.322351,6.322351 0.465594,-0.46559 m -3.851397,3.85139 -0.70935,0.70935 m -1.566011,1.56601 0.509576,-0.50957 m -5.283031,5.28303 -0.727673,0.72767 m -4.58841,4.58841 0.589765,-0.58976 m -5.705033,5.70503 -1.040607,1.04061 m 44.507691,-44.108572 0.387722,-0.387722 m -16.279695,16.279696 -0.135756,0.135756 m -6.335319,6.335322 0.466934,-0.46694 m -3.824041,3.82404 -0.710313,0.71032 m -1.600039,1.60004 0.510405,-0.51041 m -5.290934,5.29093 -0.725302,0.72531 m -4.632691,4.63269 0.588164,-0.58817 m -5.810353,5.81036 -1.037144,1.03714 m 44.696862,-44.297739 0.388925,-0.388925 m -16.299135,16.299136 -0.134985,0.134985 m -6.348287,6.348283 0.468274,-0.46827 m -3.796685,3.79668 -0.711276,0.71128 m -1.634067,1.63407 0.511234,-0.51124 m -5.298837,5.29884 -0.72293,0.72293 m -4.676974,4.67697 0.586564,-0.58656 m -5.886471,5.88647 -1.071799,1.0718 m 44.894949,-44.495827 0.390129,-0.390129 m -16.318577,16.318577 -0.134214,0.134214 m -6.361253,6.361255 0.469615,-0.46962 m -3.769331,3.76933 -0.712238,0.71224 m -1.668095,1.6681 0.506839,-0.50684 m -5.301516,5.30151 -0.720558,0.72056 m -4.721258,4.72126 0.584964,-0.58496 m -5.935205,5.9352 -1.082384,1.08239 M 90.707647,81.980936 91.09898,81.589603 m -16.338019,16.338018 -0.133444,0.133444 m -6.37422,6.374215 0.470955,-0.47095 m -3.741975,3.74198 -0.713201,0.7132 m -1.702123,1.70212 0.498754,-0.49876 m -5.300505,5.30051 -0.718186,0.71819 m -4.765541,4.76554 0.583363,-0.58337 m -5.97894,5.97894 -1.092808,1.09281 m 45.183057,-44.783932 0.392537,-0.392537 m -16.357461,16.35746 -0.132673,0.132673 m -6.387187,6.387186 0.472295,-0.47229 m -3.714619,3.71462 -0.714164,0.71416 m -1.736151,1.73615 0.490669,-0.49067 m -5.299494,5.2995 -0.715814,0.71581 m -4.809823,4.80982 0.581763,-0.58176 m -6.022678,6.02268 -1.063054,1.06305 M 91.244647,82.242181 91.638388,81.84844 m -16.376902,16.376901 -0.131902,0.131902 m -6.400155,6.400157 0.473635,-0.47364 m -3.687263,3.68727 -0.715127,0.71512 m -1.768511,1.76852 0.480917,-0.48092 m -5.298484,5.29848 -0.713442,0.71344 m -4.854106,4.85411 0.580163,-0.58016 m -6.01091,6.01091 -1.023215,1.02321 m 45.320061,-44.920937 0.394944,-0.394944 m -16.396342,16.396342 -0.131131,0.131131 m -6.413122,6.413118 0.474976,-0.47497 m -3.659908,3.65991 -0.71609,0.71609 m -1.800507,1.8005 0.470799,-0.4708 m -5.297472,5.29748 -0.71107,0.71107 m -4.89839,4.89839 0.578562,-0.57857 m -5.988843,5.98885 -0.991241,0.99124 M 91.781647,82.503425 92.177795,82.107277 M 75.762011,98.523061 75.63165,98.653422 m -6.426088,6.426088 0.476316,-0.47632 m -3.632552,3.63256 -0.717053,0.71705 m -1.832501,1.8325 0.46068,-0.46068 m -5.296461,5.29646 -0.708698,0.7087 m -4.942673,4.94267 0.576962,-0.57696 m -5.966776,5.96678 -0.959268,0.95926 m 45.386609,-44.987482 0.397352,-0.397352 m -16.435225,16.435225 -0.12959,0.12959 m -6.439056,6.439059 0.477656,-0.47766 m -3.605196,3.6052 -0.718016,0.71801 m -1.864495,1.8645 0.450562,-0.45056 m -5.295451,5.29545 -0.706326,0.70632 m -4.986956,4.98696 0.575361,-0.57536 m -5.927488,5.92749 -0.944515,0.94451 M 92.318647,82.76467 92.717203,82.366114 M 76.262536,98.820781 76.133717,98.9496 m -6.452022,6.45202 0.478996,-0.47899 m -3.577841,3.57784 -0.718978,0.71898 m -1.89649,1.89649 0.440443,-0.44045 m -5.29444,5.29444 -0.703954,0.70396 m -5.031238,5.03123 0.573761,-0.57376 m -5.872198,5.8722 -0.945767,0.94577 m 45.453158,-45.054037 0.39976,-0.39976 m -16.474108,16.474108 -0.128048,0.128048 m -6.46499,6.464991 0.480336,-0.48034 m -3.550485,3.55049 -0.719941,0.71994 m -1.928485,1.92848 0.430325,-0.43032 m -5.293428,5.29343 -0.701582,0.70158 m -5.075522,5.07552 0.572161,-0.57216 m -1.165995,1.16599 -0.06037,0.0604 m -5.537558,5.53755 0.947018,-0.94701 M 93.25661,82.624952 92.855647,83.025915 M 76.635784,99.245778 76.761552,99.12001 m -6.122048,6.12205 -0.481677,0.48168 m -3.762357,3.76235 0.720904,-0.7209 m -2.261176,2.26118 -0.420206,0.4202 m -5.571422,5.57142 0.69921,-0.69921 m -5.248454,5.24846 -0.57056,0.57056 m -0.593227,0.59322 0.07603,-0.076 m -4.673862,4.67386 -0.94827,0.94827 M 93.124143,83.156568 93.52631,82.754401 m -16.519511,16.51951 -0.119986,0.119986 m -6.490924,6.490923 0.483017,-0.48302 m -3.495774,3.49578 -0.721867,0.72187 m -1.992473,1.99247 0.410088,-0.41009 m -5.291407,5.29141 -0.696838,0.69684 m -5.164088,5.16408 0.56896,-0.56896 m -1.00951,1.00951 -0.0917,0.0917 m -5.554638,5.55464 0.949522,-0.94953 M 93.796018,82.883789 93.392647,83.28716 m -16.254796,16.254797 0.114204,-0.114204 m -6.133738,6.133737 -0.484357,0.48436 m -3.706892,3.70689 0.72283,-0.72283 m -2.347328,2.34733 -0.399969,0.39997 m -5.584893,5.58489 0.694466,-0.69447 m -5.335477,5.33548 -1.038626,1.03863 m -5.563178,5.56317 0.950773,-0.95077 m 45.040056,-44.640932 -0.404575,0.404575 m -16.272263,16.272263 0.108422,-0.108422 m -6.139583,6.139586 -0.485697,0.48569 m -3.679159,3.67916 0.723793,-0.72379 m -2.390404,2.3904 -0.389851,0.38985 m -5.591628,5.59163 0.692094,-0.69209 m -5.378988,5.37899 -0.976046,0.97604 m -5.571718,5.57172 0.952025,-0.95202 m 45.073282,-44.674164 -0.405778,0.405778 m -16.289731,16.289731 0.10264,-0.10264 m -6.145427,6.145425 -0.487038,0.48704 m -3.651426,3.65143 0.724756,-0.72476 m -2.433479,2.43348 -0.379732,0.37973 m -5.598364,5.59837 0.689722,-0.68973 m -5.4225,5.4225 -0.913466,0.91347 m -5.580258,5.58026 0.953276,-0.95328 M 94.60513,83.272045 94.198148,83.679027 m -16.307197,16.307197 0.09686,-0.09686 m -6.151273,6.151276 -0.488378,0.48838 m -3.623692,3.62369 0.725719,-0.72572 m -2.476556,2.47656 -0.369614,0.36961 m -5.62928,5.62928 0.711531,-0.71153 m -5.466011,5.46601 -0.850886,0.85089 m -5.588798,5.58879 0.954528,-0.95452 M 94.874834,83.401464 94.466648,83.80965 m -16.324664,16.32466 0.09108,-0.0911 m -6.157117,6.15711 -0.489718,0.48972 m -3.59596,3.59596 0.726681,-0.72668 m -2.519631,2.51963 -0.359495,0.3595 m -5.669926,5.66992 0.74307,-0.74307 m -5.509523,5.50953 -0.788306,0.7883 m -5.597338,5.59734 0.955779,-0.95578 m 45.172961,-44.773838 -0.40939,0.40939 m -16.34213,16.342128 0.08529,-0.0853 m -6.162961,6.16296 -0.491058,0.49106 m -3.568227,3.56823 0.727644,-0.72765 m -2.562707,2.56271 -0.349377,0.34938 m -5.710572,5.71057 0.774608,-0.77461 m -5.553033,5.55303 -0.725726,0.72573 m -5.605878,5.60588 0.957031,-0.95703 m 45.206187,-44.807069 -0.410594,0.410594 m -16.359596,16.359595 0.07951,-0.0795 m -6.168806,6.16881 -0.492399,0.4924 m -3.540494,3.54049 0.728607,-0.72861 m -2.605782,2.60579 -0.339258,0.33925 m -5.751219,5.75122 0.806147,-0.80615 m -5.596545,5.59655 -0.663146,0.66314 m -5.614419,5.61442 0.958283,-0.95828 m 45.239414,-44.84029 -0.411797,0.411797 m -16.377064,16.377063 0.07373,-0.0737 m -6.17465,6.17465 -0.493739,0.49374 m -3.512762,3.51276 0.72957,-0.72957 m -2.648858,2.64886 -0.32914,0.32914 m -5.791864,5.79186 0.837972,-0.83797 m -5.640343,5.64035 -0.600878,0.60087 m -5.622647,5.62265 0.959534,-0.95953 M 95.95365,83.919138 95.540649,84.332139 m -16.382163,16.382161 0.05558,-0.0556 m -6.180495,6.1805 -0.495079,0.49508 m -3.485028,3.48503 0.730533,-0.73054 m -2.691935,2.69194 -0.319021,0.31902 m -5.83251,5.83251 0.870272,-0.87027 m -5.684616,5.68461 -0.558027,0.55803 m -5.611458,5.61146 0.960786,-0.96079 M 96.223355,84.048537 95.80915,84.462742 m -23.032592,23.032588 0.496419,-0.49642 m -3.222219,3.22222 -0.731496,0.7315 m -2.312416,2.31242 0.308903,-0.30891 m -5.279487,5.27949 -0.902572,0.90257 m -5.380279,5.38028 0.553962,-0.55396 m -5.153408,5.15341 -0.962037,0.96203 M 96.07765,84.593364 96.493059,84.177955 m -22.980675,22.980675 -0.497615,0.49761 m -3.429707,3.42971 0.732459,-0.73246 m -2.778086,2.77809 -0.298784,0.29878 m -5.913802,5.9138 0.934872,-0.93487 m -5.773163,5.77317 -0.549896,0.54989 m -5.511508,5.51151 0.963289,-0.96329 m 45.37232,-44.973196 -0.416613,0.416613 m -23.09313,23.093133 0.49877,-0.49877 m -3.167507,3.1675 -0.733421,0.73343 m -2.376407,2.3764 0.288666,-0.28866 m -5.275941,5.27594 -0.967172,0.96717 m -5.396095,5.39609 0.545831,-0.54583 m -5.042824,5.04283 -0.96454,0.96454 m 45.95227,-45.553151 0.417816,-0.417816 m -23.041269,23.041267 -0.499925,0.49993 m -3.374612,3.37461 0.734384,-0.73438 m -2.864237,2.86423 -0.278547,0.27855 m -5.995093,5.99509 0.999472,-0.99947 m -5.861709,5.86171 -0.541766,0.54176 m -5.411558,5.41156 0.965792,-0.96579 m 45.438772,-45.039649 -0.41902,0.41902 m -23.153627,23.153629 0.50108,-0.50108 m -3.112796,3.1128 -0.735347,0.73534 m -2.440395,2.4404 0.268429,-0.26843 m -5.272396,5.27239 -1.031772,1.03178 m -5.41293,5.41293 0.53872,-0.53872 m -4.932241,4.93224 -0.967043,0.96704 M 97.151648,85.115874 97.571872,84.69565 m -23.101864,23.10186 -0.502235,0.50224 m -3.319516,3.31952 0.73631,-0.73631 m -2.950389,2.95038 -0.25831,0.25831 m -6.076385,6.07639 1.064072,-1.06407 m -5.950255,5.95025 -0.536106,0.53611 m -5.309139,5.30914 0.968295,-0.9683 m 45.505226,-45.106101 -0.421428,0.421428 m -23.214124,23.214123 0.50339,-0.50339 m -3.058085,3.05809 -0.737273,0.73727 m -2.504384,2.50438 0.248192,-0.24819 m -5.268851,5.26885 -1.096372,1.09637 m -5.431647,5.43165 0.533492,-0.53349 m -4.821658,4.82166 -0.969547,0.96954 M 97.688648,85.377119 98.11128,84.954487 m -23.162459,23.162463 -0.504545,0.50454 m -3.264421,3.26442 0.738236,-0.73823 m -3.036541,3.03654 -0.238073,0.23807 m -6.157677,6.15768 1.128672,-1.12867 m -6.0388,6.0388 -0.530878,0.53087 m -5.206287,5.20629 0.970798,-0.9708 m 45.571679,-45.172554 -0.423835,0.423835 m -23.274621,23.274619 0.5057,-0.5057 m -3.003375,3.00338 -0.739199,0.7392 m -2.568372,2.56837 0.227955,-0.22796 m -5.265306,5.26531 -1.160972,1.16097 m -5.450365,5.45037 0.528264,-0.52827 m -4.711075,4.71108 -0.97205,0.97205 m 46.151915,-45.752796 0.425039,-0.425039 m -23.223053,23.223055 -0.506855,0.50685 m -3.209326,3.20933 0.740162,-0.74016 m -3.122692,3.12269 -0.217836,0.21784 m -6.238969,6.23896 1.193272,-1.19327 m -6.127347,6.12735 -0.52565,0.52565 m -5.103434,5.10343 0.973301,-0.9733 m 45.638131,-45.239007 -0.426243,0.426243 m -23.335117,23.335114 0.50801,-0.50801 m -2.948664,2.94867 -0.741124,0.74112 m -2.632362,2.63236 0.207718,-0.20771 m -5.26176,5.26176 -1.225572,1.22557 m -5.469083,5.46908 0.523036,-0.52304 m -4.600492,4.6005 -0.974553,0.97455 m 46.218464,-45.819341 0.427447,-0.427447 m -23.283649,23.283648 -0.509165,0.50916 m -3.15423,3.15424 0.742087,-0.74209 m -3.208844,3.20884 -0.197599,0.1976 m -6.320262,6.32026 1.257874,-1.25787 m -6.215893,6.21589 -0.520422,0.52042 m -5.000582,5.00059 0.975804,-0.97581 m 45.704584,-45.305459 -0.42865,0.42865 m -17.63995,17.639949 0.970541,-0.97054 m -6.215886,6.21589 -0.51032,0.51032 m -3.126683,3.12668 0.74305,-0.74305 m -3.251919,3.25192 -0.187481,0.18748 m -6.360464,6.36046 1.28973,-1.28973 m -6.260166,6.26017 -0.517808,0.51781 m -4.949156,4.94915 0.977056,-0.97705 m 45.73782,-45.338701 -0.429864,0.429864 m -18.025426,18.025427 1.619595,-1.6196 m -6.508558,6.50856 -0.511475,0.51148 m -3.099135,3.09913 0.744013,-0.74401 m -3.294995,3.29499 -0.177362,0.17737 m -5.73978,5.73978 0.6607,-0.6607 m -1.108105,1.1081 -0.213481,0.21348 m -5.498046,5.49805 0.515193,-0.51519 m -4.434617,4.43461 -0.978308,0.97831 m 46.318287,-45.919164 0.430925,-0.430925 m -16.573178,16.573179 -2.61215,2.61215 m -4.701709,4.70171 0.51263,-0.51263 m -2.839242,2.83924 -0.744976,0.74498 m -2.760339,2.76033 0.167244,-0.16724 m -5.254669,5.25467 -0.658747,0.65875 m -0.694695,0.69469 0.209247,-0.20925 m -5.204517,5.20452 -0.512579,0.51258 m -4.846306,4.84631 0.979559,-0.97956 m 45.803993,-45.404867 -0.431991,0.431986 m -19.231044,19.231041 3.352369,-3.35237 m -7.093901,7.0939 -0.513785,0.51379 m -3.044039,3.04404 0.745939,-0.74594 m -3.381147,3.38115 -0.157125,0.15712 m -5.753039,5.75304 0.657266,-0.65727 m -1.180283,1.18029 -0.205014,0.20501 m -5.517653,5.51765 0.509965,-0.50996 m -4.324033,4.32403 -0.980811,0.98081 m 46.384836,-45.985709 0.43305,-0.433047 m -16.048148,16.048146 -1.162661,1.16266 m -2.927504,2.9275 1.477294,-1.47729 m -4.773701,4.7737 -0.51494,0.51494 m -3.016492,3.01649 0.746902,-0.7469 m -3.424223,3.42422 -0.147007,0.14701 m -5.760316,5.76032 0.656199,-0.6562 m -1.216373,1.21637 -0.200781,0.20078 m -5.527456,5.52746 0.507351,-0.50735 m -4.268742,4.26874 -0.982062,0.98206 m 46.41811,-46.018987 0.43411,-0.434107 m -15.785631,15.785624 -1.920269,1.92027 m -2.783088,2.78309 1.162586,-1.16259 m -4.138472,4.13848 -0.516095,0.51609 m -2.988944,2.98894 0.747864,-0.74786 m -3.467298,3.4673 -0.136888,0.13689 m -5.767594,5.76759 0.655131,-0.65513 m -1.252462,1.25246 -0.196548,0.19655 m -5.537259,5.53726 0.504737,-0.50474 m -4.21345,4.21345 -0.983314,0.98332 m 46.451384,-46.052264 0.43517,-0.435168 m -15.523113,15.523112 -3.133037,3.13304 m -2.214688,2.21468 1.049403,-1.0494 m -3.673592,3.67359 -0.51725,0.51725 m -2.961397,2.9614 0.748827,-0.74883 m -3.510374,3.51037 -0.12677,0.12677 m -5.774872,5.77488 0.654063,-0.65407 m -1.289335,1.28934 -0.19153,0.19153 m -5.547062,5.54706 0.502123,-0.50212 m -4.158159,4.15816 -0.984565,0.98456 m 46.484658,-46.085532 0.43623,-0.436229 m -15.260595,15.260591 -3.746926,3.74693 m -2.141072,2.14107 0.937333,-0.93733 m -3.313921,3.31392 -0.518405,0.5184 m -2.933849,2.93385 0.74979,-0.74979 m -3.554793,3.5548 -0.115308,0.1153 m -5.78215,5.78215 0.652995,-0.65299 m -1.327231,1.32723 -0.185489,0.18549 m -5.556866,5.55686 0.499509,-0.4995 m -4.102867,4.10286 -0.985817,0.98582 m 46.517932,-46.118809 0.43729,-0.43729 M 86.618363,101.636 l -4.590344,4.59034 m -1.840325,1.84033 0.855798,-0.8558 m -2.982386,2.98238 -0.51956,0.51956 m -2.906301,2.9063 0.750753,-0.75075 m -3.604659,3.60466 -0.09409,0.0941 m -5.793738,5.79374 0.651927,-0.65193 m -1.365128,1.36513 -0.179449,0.17945 m -5.566668,5.56667 0.496895,-0.4969 m -4.047576,4.04758 -0.987068,0.98707 m 46.551206,-46.152087 0.43835,-0.43835 m -14.735559,14.735557 -2.775492,2.77549 m -2.559002,2.55901 0.691268,-0.69127 m -1.480188,1.48019 -0.799826,0.79982 m -2.447403,2.4474 0.520714,-0.52071 m -2.647752,2.64775 -0.751716,0.75172 m -2.973035,2.97303 0.07023,-0.0702 m -5.22734,5.22734 -0.650859,0.65085 m -0.925574,0.92558 0.173408,-0.17341 m -5.255598,5.2556 -0.494281,0.49428 m -4.486323,4.48632 0.98832,-0.98832 m 46.035568,-45.636446 -0.43941,0.439411 m -16.801825,16.801825 2.768195,-2.76819 m -5.304761,5.30476 -0.591489,0.59149 m -1.521094,1.52109 0.735149,-0.73515 m -2.460404,2.46041 -0.521869,0.52186 m -2.851207,2.85121 0.752679,-0.75268 m -8.923166,8.92317 -0.649792,0.64979 m -0.958497,0.9585 0.167368,-0.16737 m -5.261975,5.26197 -0.491667,0.49167 m -4.434897,4.4349 0.989572,-0.98957 m 46.06865,-45.669534 -0.44047,0.440472 m -16.53095,16.530952 2.760898,-2.7609 m -5.950459,5.95046 -0.531763,0.53176 m -1.3857,1.3857 0.700212,-0.70021 m -2.267561,2.26756 -0.523024,0.52303 m -2.823659,2.82366 0.753642,-0.75365 m -8.964469,8.96447 -0.648724,0.64873 m -0.991421,0.99142 0.161327,-0.16133 m -5.268351,5.26835 -0.489053,0.48905 m -4.383472,4.38348 0.990823,-0.99083 m 46.101734,-45.702612 -0.44153,0.441533 m -16.260075,16.260079 2.753601,-2.7536 m -6.477053,6.47705 -0.502826,0.50282 m -1.33862,1.33862 0.654215,-0.65421 m -2.063658,2.06366 -0.524179,0.52418 m -2.796112,2.79611 0.754605,-0.75461 m -9.005772,9.00578 -0.647656,0.64765 m -1.024345,1.02435 0.155287,-0.15529 m -5.274728,5.27473 -0.486439,0.48644 m -4.332046,4.33204 0.992075,-0.99207 m 46.134816,-45.735701 -0.44259,0.442594 m -15.9892,15.989197 2.746304,-2.7463 m -7.013294,7.01329 -0.464242,0.46425 m -1.291541,1.29154 0.640781,-0.64078 m -1.892318,1.89231 -0.525334,0.52534 m -2.768564,2.76856 0.755567,-0.75557 m -9.047074,9.04708 -0.646588,0.64659 m -1.057269,1.05727 0.149246,-0.14925 m -5.281104,5.2811 -0.483825,0.48383 m -4.28062,4.28062 0.993326,-0.99333 m 46.167899,-45.768779 -0.44365,0.443654 m -15.718326,15.718325 2.739007,-2.73901 m -7.549533,7.54954 -0.422994,0.42299 m -1.247126,1.24713 0.642832,-0.64283 m -1.736463,1.73646 -0.526489,0.52649 m -2.741016,2.74102 0.75653,-0.75653 m -9.088378,9.08837 -0.64552,0.64552 m -1.090193,1.0902 0.143205,-0.14321 m -5.28748,5.28748 -0.481211,0.48121 m -4.229194,4.2292 0.994578,-0.99458 m 46.200991,-45.801867 -0.44472,0.444715 m -15.447451,15.447452 2.731711,-2.73171 m -8.085774,8.08577 -0.342821,0.34282 m -1.241637,1.24164 0.644884,-0.64488 m -1.580609,1.58061 -0.527644,0.52764 m -2.713468,2.71347 0.757493,-0.75749 m -9.129681,9.12968 -0.644452,0.64445 m -1.123117,1.12311 0.137165,-0.13716 m -5.293858,5.29386 -0.478596,0.47859 m -4.177768,4.17777 0.995829,-0.99583 m 46.234074,-45.834946 -0.44578,0.445776 m -15.176576,15.17658 2.724414,-2.72442 m -8.479407,8.47941 -0.405256,0.40526 m -1.238005,1.238 0.648795,-0.64879 m -1.424755,1.42475 -0.528799,0.5288 m -2.685921,2.68592 0.758456,-0.75845 m -9.170984,9.17098 -0.643385,0.64338 m -1.15604,1.15605 0.131124,-0.13113 m -5.300234,5.30023 -0.475982,0.47599 m -4.126342,4.12634 0.997081,-0.99708 m 46.267156,-45.868034 -0.44684,0.446837 m -14.905701,14.905707 2.717117,-2.71712 m -8.976136,8.97613 -0.364595,0.3646 m -1.22461,1.22461 0.642942,-0.64294 m -1.268901,1.2689 -0.529954,0.52995 m -2.658373,2.65837 0.759419,-0.75941 m -9.212287,9.21228 -0.642317,0.64232 m -1.188964,1.18896 0.125084,-0.12508 m -5.306611,5.30661 -0.473368,0.47337 m -4.074916,4.07492 0.998333,-0.99834 m 46.300238,-45.901112 -0.4479,0.447897 m -14.634826,14.634825 2.70982,-2.70982 m -9.422219,9.42222 -0.374579,0.37458 m -1.211215,1.21121 0.637088,-0.63708 m -1.113046,1.11304 -0.531109,0.53111 m -2.630826,2.63083 0.760382,-0.76038 m -9.25359,9.25359 -0.641249,0.64125 m -1.221888,1.22188 0.119043,-0.11904 m -5.312987,5.31299 -0.470754,0.47075 m -4.02349,4.02349 0.999584,-0.99958 m 46.333321,-45.934201 -0.44896,0.448958 m -14.363952,14.363953 2.702523,-2.70252 m -9.7773,9.7773 -0.476535,0.47653 m -2.055071,2.05507 1.489457,-1.48945 m -3.33139,3.33139 -0.761345,0.76134 m -9.17373,9.17373 0.640181,-0.64018 m -1.78199,1.78199 -0.113002,0.113 m -5.674501,5.6745 0.46814,-0.46814 m -3.439369,3.43937 -1.000836,1.00084 m 46.91722,-46.5181 0.45002,-0.450019 m -11.847871,11.847869 -2.695226,2.69523 m -8.022501,8.0225 0.829232,-0.82923 m -1.37948,1.37948 -1.334757,1.33475 m -2.57573,2.57574 0.762307,-0.76231 m -9.336197,9.33619 -0.639113,0.63912 m -1.287735,1.28773 0.106962,-0.10696 m -5.32574,5.32574 -0.465526,0.46553 m -3.920639,3.92064 1.002087,-1.00209 m 46.399487,-46.000367 -0.45108,0.45108 m -13.822202,13.822207 2.687929,-2.687932 m -9.888345,9.888342 -3.008214,3.00822 m -2.548182,2.54818 0.76327,-0.76327 m -9.3775,9.3775 -0.638045,0.63804 m -1.320659,1.32066 0.100921,-0.10092 m -5.332116,5.33212 -0.462912,0.46291 m -3.869213,3.86921 1.003339,-1.00334 m 46.432569,-46.033446 -0.45214,0.45214 m -13.551327,13.551326 2.680632,-2.680628 m -9.888194,9.888198 -3.302191,3.30219 m -2.520635,2.52063 0.764233,-0.76423 m -9.418803,9.4188 -0.636978,0.63698 m -1.353582,1.35358 0.09488,-0.0949 m -5.338493,5.33849 -0.460298,0.4603 m -3.817787,3.81779 1.00459,-1.00459 m 46.465653,-46.066534 -0.4532,0.453201 M 91.926195,102.315 94.59953,99.641667 m -9.888043,9.888043 -3.596168,3.59617 m -2.493087,2.49309 0.765196,-0.7652 m -9.460106,9.4601 -0.63591,0.63591 m -1.386506,1.38651 0.08884,-0.0888 m -5.344869,5.34487 -0.457684,0.45768 m -3.766361,3.76636 1.005842,-1.00584 m 46.498736,-46.099612 -0.45426,0.454262 m -13.00958,13.00958 2.666038,-2.666038 m -9.887892,9.887888 -3.890144,3.89015 m -2.46554,2.46554 0.766159,-0.76616 m -9.50141,9.50141 -0.634842,0.63484 m -1.415165,1.41517 0.06678,-0.0668 m -5.339489,5.33949 -0.45507,0.45507 m -3.714934,3.71493 1.007093,-1.00709 m 46.531816,-46.132701 -0.45532,0.455323 M 93.004945,102.0345 95.663686,99.375756 m -9.887742,9.887744 -3.827095,3.82709 m -2.795018,2.79502 0.767122,-0.76712 m -9.542713,9.54271 -0.633774,0.63378 m -7.185673,7.18567 0.452456,-0.45246 m -3.10762,3.10762 -1.008345,1.00835 m 47.116866,-46.717746 0.45638,-0.456383 m -10.272766,10.27277 -2.651444,2.651439 m -3.880665,3.88067 0.0725,-0.0725 m -3.427981,3.42798 -3.82538,3.82538 m -3.063163,3.06317 0.768085,-0.76809 m -4.243225,4.24322 -0.622887,0.62289 m -5.35061,5.35061 0.632706,-0.6327 m -7.411265,7.41126 -0.449842,0.44984 m -3.612082,3.61208 1.009597,-1.00959 m 46.597992,-46.198867 -0.45745,0.457444 m -12.196955,12.196953 2.644147,-2.644144 m -9.88744,9.887444 -3.823665,3.82366 m -3.331307,3.33131 0.769048,-0.76905 m -3.985332,3.98533 -1.663787,1.66379 m -4.607839,4.60784 0.631638,-0.63164 m -7.455537,7.45554 -0.447228,0.44722 m -3.560656,3.56066 1.010848,-1.01085 m 46.631075,-46.231946 -0.45851,0.458505 m -11.92608,11.926081 2.63685,-2.636849 m -9.887289,9.887289 -3.821949,3.82195 m -3.599453,3.59945 0.77001,-0.77001 m -3.727438,3.72744 -2.197554,2.19755 m -4.3722,4.3722 0.630571,-0.63057 m -7.499811,7.49981 -0.444614,0.44462 m -3.509231,3.50923 1.0121,-1.0121 m 46.664158,-46.265034 -0.45957,0.459566 m -11.655205,11.655208 2.629554,-2.629556 m -9.88714,9.887136 -3.933413,3.93342 m -3.754417,3.75441 0.770973,-0.77097 m -3.469546,3.46955 -2.84697,2.84697 m -4.020912,4.02091 0.629503,-0.6295 m -7.544084,7.54408 -0.442,0.442 m -3.457805,3.4578 1.013351,-1.01335 m 46.697241,-46.298112 -0.46063,0.460626 m -11.38433,11.384336 2.775099,-2.775103 m -10.039831,10.039833 -3.805568,3.80557 m -4.149059,4.14905 0.772303,-0.7723 m -3.211653,3.21166 -3.47688,3.47687 m -3.68913,3.68914 0.628435,-0.62844 m -7.588357,7.58836 -0.439385,0.43938 m -3.40638,3.40638 1.014603,-1.0146 m 46.730323,-46.331201 -0.46169,0.461687 m -11.113455,11.113454 2.615099,-2.615095 m -9.886978,9.886975 -3.796071,3.79607 m -4.425326,4.42533 0.773607,-0.77361 m -2.786691,2.78669 -4.189065,4.18907 m -3.442142,3.44214 0.627367,-0.62737 m -2.856346,2.85635 -1.130276,1.13027 m -4.08278,4.08278 0.436771,-0.43677 m -2.77587,2.77587 -1.015854,1.01586 m 47.31651,-46.917391 0.46275,-0.462748 m -8.696933,8.696933 -2.608397,2.608396 m -11.065599,11.0656 3.786574,-3.78657 m -7.713257,7.71325 -0.774912,0.77491 m -6.570091,6.5701 4.647782,-4.64779 m -7.134614,7.13462 -0.626299,0.6263 m -3.950857,3.95085 1.835875,-1.83587 m -4.935621,4.93562 -0.434157,0.43416 m -3.303528,3.30352 1.017106,-1.0171 m 46.796488,-46.397367 -0.46381,0.463809 M 97.319944,100.91248 99.92164,98.310783 m -9.887867,9.887867 -3.777078,3.77708 m -4.977862,4.97786 0.776217,-0.77622 m -2.446486,2.44649 -2.140884,2.14088 m -2.949823,2.94983 1.6719,-1.6719 m -4.007845,4.00784 -0.625231,0.62523 m -4.477352,4.47735 2.493276,-2.49327 m -5.111868,5.11187 -0.431543,0.43154 m -3.252102,3.2521 1.018358,-1.01836 m 46.82957,-46.430446 -0.46487,0.464869 m -10.300831,10.300837 2.594991,-2.594998 m -9.888308,9.888308 -3.991798,3.9918 m -5.029913,5.02992 0.777521,-0.77753 m -2.195751,2.19575 -2.868022,2.86803 m -2.722545,2.72254 1.414719,-1.41472 m -3.542842,3.54285 -0.624164,0.62416 m -4.858068,4.85807 3.666873,-3.66688 m -5.95009,5.95009 -0.428929,0.42893 m -3.200675,3.20068 1.019609,-1.01961 m 46.862653,-46.463534 -0.46593,0.46593 m -10.029956,10.029954 2.588296,-2.588288 m -9.88876,9.888758 -3.769434,3.76943 m -5.519048,5.51905 0.778826,-0.77883 m -1.945016,1.94502 -3.746899,3.7469 m -2.343527,2.34353 1.260978,-1.26098 m -3.18128,3.18128 -0.623096,0.62309 m -5.317694,5.3177 4.30248,-4.30248 m -6.171412,6.17141 -0.426315,0.42631 m -3.149249,3.14925 1.020861,-1.02086 m 46.895735,-46.496612 -0.46699,0.466991 m -9.916563,9.916561 2.739073,-2.739069 m -9.889201,9.889199 -3.76036,3.76036 m -5.794894,5.7949 0.780131,-0.78013 m -1.694281,1.69428 -4.464134,4.46413 m -2.123799,2.1238 1.243676,-1.24368 m -2.958509,2.95851 -0.622028,0.62203 m -3.918312,3.91831 3.170318,-3.17032 m -3.990257,3.99026 -0.731944,0.73194 m -2.185473,2.18548 0.423701,-0.4237 m -2.499412,2.49941 -1.022112,1.02211 m 47.48288,-47.083759 0.46805,-0.468052 m -7.38137,7.381371 -2.574934,2.57494 m -11.065994,11.06599 3.751285,-3.75128 m -9.040589,9.04059 -0.781436,0.78143 m -5.775101,5.7751 5.112991,-5.11299 m -5.882475,5.88248 -1.156956,1.15695 m -6.351781,6.35178 4.796408,-4.7964 m -5.703518,5.70351 -0.628181,0.62818 m -1.987656,1.98766 0.421087,-0.42109 m -2.444121,2.44412 -1.023364,1.02337 m 47.516155,-47.117036 0.46911,-0.469113 m -7.11825,7.118258 -2.56827,2.568261 m -4.239726,4.23973 0.08559,-0.0856 m -3.167686,3.16769 -3.742211,3.74221 m -10.386603,10.3866 4.822759,-4.82276 m -6.256897,6.2569 -0.562862,0.56286 m -1.86398,1.86398 1.070236,-1.07023 m -2.466151,2.46615 -5.362828,5.36283 m -1.206395,1.20639 0.619304,-0.6193 m -1.992622,1.99262 -0.418473,0.41847 m -2.994972,2.99497 1.024615,-1.02461 m 46.994992,-46.595867 -0.47018,0.470173 m -8.94656,8.946564 2.56159,-2.561593 M 93.227146,107.4 89.49401,111.13314 m -10.402456,10.40246 4.564071,-4.56407 m -6.550948,6.55094 -0.532032,0.53203 m -1.801521,1.80153 1.080096,-1.0801 m -2.316552,2.31655 -3.443248,3.44325 m -2.083681,2.08368 0.446274,-0.44627 m -1.117505,1.1175 -0.579013,0.57901 m -1.6255,1.6255 0.415859,-0.41585 m -2.333538,2.33353 -1.025867,1.02587 m 47.582701,-47.183582 0.47124,-0.471234 m -6.59204,6.592033 -2.55491,2.554915 m -11.060127,11.060128 3.724062,-3.72406 m -9.836989,9.83699 -4.305383,4.30538 m -3.040817,3.04082 0.573589,-0.57359 m -1.347537,1.34753 -0.965115,0.96512 m -4.401195,4.40119 3.324199,-3.32419 m -5.313413,5.31341 -0.45204,0.45204 m -1.242939,1.24294 0.597833,-0.59784 m -1.620528,1.62053 -0.413245,0.41325 m -2.89212,2.89212 1.027118,-1.02712 m 47.061157,-46.662034 -0.4723,0.472295 m -8.40486,8.404866 2.54824,-2.548241 m -9.891427,9.891424 -3.714987,3.71499 m -10.434163,10.43416 4.046695,-4.04669 m -7.097135,7.09713 -0.512285,0.51229 m -1.664384,1.66438 0.906275,-0.90627 m -1.836033,1.83603 -3.064128,3.06413 m -3.005911,3.00591 0.494336,-0.49434 m -1.040676,1.04068 -0.535103,0.5351 m -1.334509,1.33451 0.410631,-0.41063 m -2.222955,2.22295 -1.02837,1.02837 m 47.649249,-47.250127 0.47336,-0.473356 m -6.06581,6.065808 -2.54157,2.541566 m -11.056211,11.056219 3.705913,-3.70591 m -10.367921,10.36792 -3.788007,3.788 m -4.078723,4.07873 0.543619,-0.54362 m -1.291802,1.2918 -0.819246,0.81925 m -3.658641,3.65864 2.847934,-2.84794 m -5.741973,5.74198 -0.47199,0.47199 m -1.080609,1.0806 0.472372,-0.47237 m -1.297433,1.29744 -0.408017,0.40801 m -2.789268,2.78927 1.029622,-1.02962 m 47.127321,-46.728201 -0.47442,0.474416 m -7.86317,7.863171 2.53489,-2.534892 m -9.892309,9.892316 -3.696838,3.69684 m -3.224308,3.22431 0.696988,-0.69699 m -4.40923,4.40923 -3.52932,3.52932 m -4.549098,4.5491 0.515205,-0.51521 m -1.232902,1.2329 -0.798397,0.7984 m -2.743917,2.74392 2.05226,-2.05226 m -5.961832,5.96183 -0.422516,0.42251 m -1.04326,1.04326 0.443343,-0.44334 m -1.179642,1.17964 -0.405403,0.40541 m -2.737841,2.73784 1.030873,-1.03088 m 47.160404,-46.761279 -0.47548,0.475477 m -7.59232,7.592323 2.52822,-2.528218 m -9.892761,9.892757 -3.687763,3.68777 m -4.226747,4.22674 1.752084,-1.75208 m -4.736428,4.73643 -3.270632,3.27063 m -5.019475,5.01948 0.503987,-0.50399 m -1.190781,1.19078 -0.777963,0.77796 m -2.376034,2.37604 1.803425,-1.80343 m -6.140171,6.14017 -0.413428,0.41343 m -0.979019,0.97902 0.410319,-0.41032 m -1.08588,1.08588 -0.402788,0.40279 m -2.686416,2.68641 1.032125,-1.03212 m 47.193486,-46.794367 -0.47654,0.476538 m -7.32147,7.321475 2.52154,-2.521543 m -9.893202,9.893207 -3.678689,3.67869 m -4.867978,4.86797 2.46342,-2.46342 m -5.081074,5.08108 -3.011944,3.01194 m -5.47966,5.47966 0.482577,-0.48257 m -1.148661,1.14866 -0.75654,0.75654 m -2.009138,2.00913 1.554591,-1.55459 m -6.311979,6.31198 -0.371878,0.37188 m -0.953774,0.95377 0.384795,-0.38479 m -0.999617,0.99962 -0.400174,0.40017 m -2.634991,2.63499 1.033376,-1.03338 m 47.22657,-46.827446 -0.4776,0.477599 m -7.05063,7.050628 2.51487,-2.514869 m -9.893644,9.893648 -3.669614,3.66962 m -5.552288,5.55228 3.217834,-3.21783 m -5.425719,5.42572 -2.88546,2.88546 m -5.788184,5.78818 0.441711,-0.44171 m -1.106541,1.10654 -2.514714,2.51472 m -5.383074,5.38307 0.428,-0.428 m -0.95436,0.95436 -0.390547,0.39055 m -0.951195,0.95119 0.39756,-0.39756 m -1.946497,1.9465 -1.034628,1.03463 m 47.81562,-47.416504 0.47866,-0.478659 m -4.75024,4.750244 -2.5082,2.508195 m -11.046435,11.046444 3.66054,-3.66054 m -5.924889,5.92488 -3.838125,3.83813 m -4.432393,4.43239 2.500153,-2.50015 m -8.399923,8.39992 -0.466776,0.46678 m -2.650349,2.65035 1.997787,-1.99779 m -7.179068,7.17907 -0.667627,0.66763 m -0.911513,0.91151 0.39382,-0.39382 m -0.908731,0.90873 -0.394946,0.39495 m -2.532139,2.53213 1.035879,-1.03587 m 47.292735,-46.893622 -0.47972,0.47972 m -6.50893,6.508932 2.50152,-2.50152 m -9.894638,9.89464 -3.651364,3.65137 m -6.652804,6.6528 4.458559,-4.45856 m -6.11501,6.11501 -2.244712,2.24471 m -6.773104,6.77311 0.458186,-0.45819 m -1.109012,1.10901 -1.645736,1.64574 m -6.181272,6.18127 0.418538,-0.41854 m -0.927563,0.92756 -0.397093,0.3971 m -0.86852,0.86852 0.392332,-0.39233 m -1.835914,1.83591 -1.037131,1.03713 m 47.882168,-47.48305 0.48078,-0.480781 m -4.22402,4.22402 -2.49484,2.494846 m -11.042529,11.042525 3.642241,-3.64224 m -5.766381,5.76639 -3.240642,3.24064 m -1.788456,1.78845 1.105587,-1.10558 m -2.536145,2.53614 -1.989271,1.98927 m -7.179663,7.17966 0.51448,-0.51448 m -1.153248,1.15325 -1.331582,1.33158 m -6.468107,6.46811 0.402276,-0.40228 m -0.888208,0.88821 -0.432744,0.43275 m -0.827183,0.82718 0.389718,-0.38972 m -1.780623,1.78062 -1.038383,1.03839 m 47.915443,-47.516327 0.48184,-0.481842 m -3.9609,3.960907 -2.48817,2.488171 m -11.040576,11.040571 3.633119,-3.63311 m -5.687155,5.68715 -2.664405,2.66441 m -1.181443,1.18144 0.252245,-0.25225 m -0.995457,0.99546 -1.006832,1.00683 m -2.94224,2.94224 1.733831,-1.73383 m -8.721952,8.72195 -0.598818,0.59882 m -1.876829,1.87683 1.250838,-1.25084 m -7.386357,7.38636 -0.363192,0.36319 m -1.739902,1.7399 1.250605,-1.2506 m -2.588832,2.58883 -1.039634,1.03963 m 47.948716,-47.549595 0.4829,-0.482902 m -3.69779,3.697794 -2.4815,2.481497 m -11.038613,11.038616 3.623996,-3.62399 m -5.607927,5.60793 -2.653753,2.65375 m -1.789131,1.78913 0.181631,-0.18163 m -0.859959,0.85996 -1.007506,1.0075 m -2.498619,2.49862 1.47839,-1.47839 m -8.745275,8.74528 -0.69646,0.69646 m -1.784088,1.78408 1.140002,-1.14 m -7.310471,7.31047 -0.383901,0.3839 m -1.738981,1.73899 1.257375,-1.25738 m -2.542925,2.54292 -1.040886,1.04089 m 47.981991,-47.582872 0.48396,-0.483963 m -3.43468,3.434681 -2.47482,2.474823 m -11.03666,11.036661 3.61487,-3.61487 m -5.528697,5.5287 -2.643101,2.6431 m -2.330205,2.33021 0.154082,-0.15409 m -0.805337,0.80534 -1.035186,1.03519 m -2.056794,2.05679 1.222949,-1.22295 m -8.803181,8.80318 -0.759518,0.75952 m -1.691348,1.69135 1.029167,-1.02917 m -7.234907,7.23491 -0.371796,0.37179 m -1.770553,1.77056 1.275976,-1.27598 m -2.508848,2.50885 -1.042137,1.04214 m 48.015264,-47.61615 0.48503,-0.485024 m -3.17157,3.17157 -2.46815,2.468148 M 97.072253,109.14261 100.678,105.53686 m -5.449469,5.44948 -2.632449,2.63244 m -2.872451,2.87246 0.165257,-0.16526 m -0.788908,0.78891 -1.028322,1.02832 m -1.648873,1.64887 0.967509,-0.96751 m -8.560898,8.5609 -1.120318,1.12032 m -1.619191,1.61919 0.999331,-0.99933 m -7.222207,7.2222 -0.359691,0.35969 m -1.793799,1.7938 1.292884,-1.29288 m -2.481405,2.4814 -1.043389,1.04339 m 48.048539,-47.649417 0.48609,-0.486085 m -2.90846,2.908457 -2.46147,2.461474 m -11.032754,11.032751 3.596624,-3.59663 m -5.370242,5.37025 -2.621796,2.6218 m -3.375577,3.37557 0.138967,-0.13896 m -0.735916,0.73591 -1.059928,1.05993 m -1.2407,1.2407 0.712068,-0.71207 m -8.279523,8.27952 -3.070513,3.07052 m -6.584328,6.58433 0.384888,-0.38489 m -0.859007,0.859 -1.32589,1.32589 m -2.205846,2.20585 1.04464,-1.04464 m 47.524323,-47.1252 -0.48715,0.487145 m -4.613,4.612998 2.4548,-2.454799 m -9.89809,9.898096 -3.587501,3.5875 m -4.314657,4.31466 2.837252,-2.83725 m -6.556283,6.55628 -0.15642,0.15642 m -2.794036,2.79404 2.240539,-2.24054 m -9.485583,9.48558 -3.774703,3.7747 m -8.002367,8.00237 2.480217,-2.48022 m -3.630863,3.63086 -1.045892,1.0459 m 48.115087,-47.715973 0.48821,-0.488206 m -2.38223,2.382232 -2.44813,2.448125 m -11.028838,11.028842 3.578378,-3.57838 m -5.211797,5.2118 -2.600482,2.60048 m -4.348014,4.34802 0.177114,-0.17712 m -0.714468,0.71447 -2.138936,2.13894 m -10.822214,10.82221 3.858064,-3.85806 m -9.323751,9.32375 -2.754422,2.75442 m -2.208345,2.20834 1.047143,-1.04714 M 114.82177,92.989583 114.33565,93.4757 m -4.0713,4.071303 2.44145,-2.441451 m -9.89908,9.899078 -3.569255,3.56926 m -4.153144,4.15315 2.589769,-2.58977 m -7.212431,7.21243 -0.19648,0.19648 m -2.559979,2.55998 2.037332,-2.03734 m -8.720587,8.72059 -3.995843,3.99584 m -8.334265,8.33427 2.979457,-2.97946 m -4.200384,4.20038 -1.048395,1.0484 m 48.181635,-47.782518 0.48235,-0.482344 m -1.84803,1.848023 -2.43477,2.434776 m -11.024932,11.024933 3.560132,-3.56014 m -5.053464,5.05347 -2.579056,2.57906 m -5.257202,5.2572 0.267004,-0.267 m -0.770924,0.77092 -1.975924,1.97592 m -10.734632,10.73464 4.33538,-4.33538 m -9.37755,9.37755 -3.159614,3.15961 m -2.375177,2.37518 1.049647,-1.04965 m 47.643842,-47.244717 -0.47858,0.478572 m -3.5296,3.529607 2.4281,-2.428102 m -9.90007,9.90006 -3.55101,3.55102 m -3.99163,3.99163 2.568342,-2.56834 m -4.090948,4.09095 -0.151429,0.15142 m -4.01704,4.01705 0.342882,-0.34289 m -0.815514,0.81552 -1.931325,1.93132 m -10.456334,10.45634 4.341145,-4.34115 m -9.404449,9.40445 -3.31589,3.31589 m -2.504913,2.50491 1.050898,-1.05089 m 47.672085,-47.272973 -0.4748,0.4748 m -3.25876,3.25876 2.42143,-2.421428 m -9.90056,9.900561 -3.54189,3.54189 m -3.91087,3.91087 2.557629,-2.55763 m -7.906812,7.90682 -3.103834,3.10383 m -10.166814,10.16681 4.335687,-4.33568 m -9.431348,9.43135 -3.363844,3.36384 m -2.742971,2.74297 1.05215,-1.05215 m 47.700337,-47.301218 -3.45894,3.45894 m -11.01907,11.019068 3.53277,-3.53277 m -4.81597,4.81597 -2.54691,2.54692 m -9.054144,9.05414 3.70397,-3.70397 m -9.007892,9.00789 -4.321472,4.32147 m -8.501494,8.5015 3.364719,-3.36472 m -5.339427,5.33943 -1.053401,1.0534 m 45.597671,-45.198553 3.18432,-3.18432 m -10.67779,10.677783 -3.52364,3.52365 m -3.749361,3.74936 2.536201,-2.5362 m -7.887364,7.88736 -3.791131,3.79113 m -9.598143,9.59815 4.308449,-4.30845 m -9.485147,9.48514 -3.362002,3.36201 m -3.316838,3.31683 1.054653,-1.05465 m 47.756843,-47.357719 -2.9097,2.9097 m -11.01516,11.015159 3.51453,-3.51453 m -4.65764,4.65764 -2.525491,2.52549 m -9.245363,9.24536 3.89321,-3.89321 m -9.153758,9.15376 -4.402145,4.40215 m -8.469185,8.46918 3.359285,-3.35928 m -5.908948,5.90895 -1.055904,1.0559 m 46.095059,-45.695944 2.74593,-2.74593 m -10.14287,10.142874 -3.50541,3.50541 m -3.587842,3.58784 2.514772,-2.51477 m -7.867914,7.86792 -4.025575,4.02557 m -9.679406,9.67941 4.47829,-4.47829 m -9.538945,9.53894 -3.354097,3.3541 m -3.896767,3.89677 1.057156,-1.05716 m 47.813338,-47.414219 -3.43485,3.434853 m -9.93685,9.936856 3.49628,-3.49628 m -4.49931,4.4993 -2.50407,2.50407 m -8.841303,8.84131 3.487178,-3.48718 m -9.299623,9.29962 -4.554435,4.55444 m -8.359998,8.36 3.348589,-3.34859 m -6.478468,6.47847 -1.058408,1.0584 m 45.229828,-44.830704 3.62684,-3.626838 m -9.56464,9.564642 -3.48716,3.48716 m -3.42634,3.42633 2.49336,-2.49335 m -7.848475,7.84847 -4.092464,4.09247 m -9.905166,9.90516 4.625075,-4.62507 m -9.592744,9.59274 -3.343081,3.34308 m -4.479807,4.47981 1.059659,-1.05966 m 47.658903,-47.259784 -3.96781,3.967817 m -8.78172,8.781717 3.61995,-3.61995 m -4.34098,4.34098 -2.48264,2.48263 m -9.519199,9.51921 4.163094,-4.16309 m -9.445489,9.44548 -4.697104,4.69711 m -8.26011,8.26011 3.337573,-3.33757 m -7.04799,7.04799 -1.060911,1.06091 m 44.592816,-44.193697 3.8785,-3.878505 m -8.58538,8.585382 -6.73374,6.73374 m -9.590819,9.59082 4.233724,-4.23372 m -9.518421,9.51842 -4.769134,4.76913 m -8.209472,8.20947 3.332064,-3.33206 m -7.33275,7.33275 L 69.01,143.1917 m 44.37105,-43.971928 1.09268,-1.092675 m -5.28084,5.280833 -6.64386,6.64386 m -9.662439,9.66245 4.304353,-4.30436 m -9.591353,9.59135 -4.216309,4.21631 m -8.783688,8.78369 3.326556,-3.32656 m -7.617511,7.61752 -1.063414,1.06341 m 44.152215,-43.753098 0.96782,-0.96782 m -4.64019,4.640198 -6.55398,6.55397 m -9.734059,9.73407 4.374983,-4.37499 m -9.664286,9.66429 -4.202205,4.2022 m -8.819182,8.81919 3.321048,-3.32105 m -7.902272,7.90227 -1.064665,1.06467 m 43.933388,-43.534268 0.93156,-0.931563 m -4.08815,4.088151 -6.4641,6.4641 m -9.177453,9.17745 3.817387,-3.81738 m -9.737219,9.73722 -4.188101,4.1881 m -8.920206,8.9202 3.381068,-3.38107 m -8.187032,8.18704 -1.065917,1.06591 m 43.714553,-43.31543 0.8732,-0.873195 m -3.514,3.513995 -6.37422,6.37422 m -9.151571,9.15157 3.790515,-3.79051 m -9.810152,9.81015 -4.173997,4.174 m -8.895011,8.89501 3.314871,-3.31487 m -8.471793,8.47179 -1.067168,1.06717 m 43.504026,-43.1049 0.8391,-0.839104 m -2.97242,2.972414 -6.28434,6.28434 m -9.125689,9.1257 3.763643,-3.76365 m -9.883085,9.88309 -4.159892,4.15989 m -8.933641,8.93364 3.312496,-3.3125 m -8.756553,8.75656 -1.06842,1.06842 m 43.323941,-42.92482 0.82242,-0.82243 m -2.4787,2.4787 -6.19446,6.19446 m -9.099808,9.09982 3.736768,-3.73677 m -9.956013,9.95601 -4.145788,4.14579 m -8.97227,8.97227 3.310122,-3.31012 m -9.041314,9.04131 -1.069672,1.06967 m 43.143855,-42.74473 0.79973,-0.79973 m -1.97897,1.97897 -6.10458,6.10458 m -9.073926,9.07393 3.709896,-3.7099 m -10.028946,10.02895 -4.131684,4.13168 m -9.010899,9.0109 3.307747,-3.30775 m -9.326074,9.32608 -1.070923,1.07092 m 42.963549,-42.56443 1.01075,-1.01075 m -1.53637,1.53637 -6.19106,6.19106 m -9.048044,9.04805 3.683024,-3.68303 m -10.101879,10.10188 -4.11758,4.11758 m -9.26654,9.26654 3.522386,-3.52238 m -9.610835,9.61083 -1.072175,1.07218 m 36.633703,-36.23459 7.38354,-7.38354 m -12.74955,12.74955 -3.656152,3.65616 m -10.622136,10.62213 4.103476,-4.10347 m -9.888633,9.88863 -3.777634,3.77764 m -7.191388,7.19138 1.073426,-1.07342 m 42.986761,-42.58764 -7.03965,7.03965 m -8.99628,8.99628 3.86387,-3.86387 m -10.325876,10.32587 -4.24583,4.24583 m -9.137617,9.13762 3.311456,-3.31146 m -10.180357,10.18036 -1.074678,1.07468 m 37.407372,-37.00825 6.69576,-6.69576 m -12.06344,12.06344 -3.602719,3.60272 m -10.793536,10.79354 4.07522,-4.07522 m -9.942384,9.94238 -3.311492,3.31149 m -8.229555,8.22956 1.075929,-1.07593 m 43.070147,-42.67103 -6.35187,6.35187 m -8.9492,8.9492 3.5821,-3.5821 m -10.395573,10.39558 -4.06108,4.06108 m -9.219696,9.21969 3.311528,-3.31153 m -10.749878,10.74988 -1.077181,1.07718 m 38.18104,-37.78192 6.00798,-6.00797 m -11.37451,11.3745 -3.6381,3.6381 m -10.878942,10.87895 4.046941,-4.04694 m -9.996112,9.99611 -3.311564,3.31156 m -8.801507,8.80151 1.078433,-1.07843 m 43.153531,-42.75441 -5.66409,5.66409 m -9.14241,9.14241 3.77645,-3.77646 m -10.54463,10.54464 -4.032801,4.0328 m -9.301774,9.30177 3.3116,-3.3116 m -11.319399,11.3194 -1.079684,1.07969 m 38.954708,-38.55559 5.3202,-5.3202 m -10.68558,10.68558 -3.80803,3.80803 m -10.8298,10.8298 4.018661,-4.01866 m -10.049838,10.04984 -3.311636,3.31163 m -3.326089,3.32609 0.373135,-0.37313 m -5.339569,5.33957 -1.080936,1.08093 m 39.341542,-38.94242 4.97625,-4.97625 m -10.34106,10.34106 -3.90566,3.90566 m -10.792559,10.79256 4.004521,-4.00452 m -10.076701,10.0767 -3.311672,3.31167 m -4.271196,4.2712 1.293625,-1.29363 m -5.599677,5.59968 -1.082187,1.08219 m 39.728376,-39.32925 4.63309,-4.6331 m -9.99733,9.99733 -4.00329,4.0033 m -10.855334,10.85533 4.090398,-4.0904 m -10.104037,10.10404 -3.310251,3.31025 m -5.079222,5.07922 1.855769,-1.85577 m -5.639504,5.63951 -1.083439,1.08344 m 40.11521,-39.71609 4.28994,-4.28994 m -9.6536,9.6536 -4.10094,4.10093 m -10.906677,10.90669 4.164853,-4.16486 m -10.129754,10.12976 -3.310644,3.31064 m -5.765976,5.76598 2.296109,-2.29611 m -5.678605,5.6786 -1.08469,1.08469 m 40.502044,-40.10292 3.94678,-3.94678 m -9.30987,9.30987 -4.19857,4.19857 m -10.95803,10.95803 4.239307,-4.23931 m -10.15547,10.15547 -3.311038,3.31104 m -6.446239,6.44624 2.728503,-2.7285 m -5.71625,5.71625 -1.085942,1.08594 m 40.888879,-40.48976 3.60362,-3.60362 m -8.96613,8.96614 -4.38796,4.38795 m -10.917633,10.91764 4.313762,-4.31376 m -10.181187,10.18118 -3.311432,3.31143 m -7.064531,7.06453 3.901252,-3.90125 m -6.55622,6.55622 -1.087193,1.0872 m 41.275712,-40.87659 3.26047,-3.26047 m -8.62241,8.6224 -4.4059,4.4059 m -11.048677,11.04868 4.388217,-4.38821 m -10.206904,10.2069 -3.311826,3.31182 m -7.668995,7.669 4.550476,-4.55048 m -6.886493,6.8865 -1.088445,1.08844 m 41.662547,-41.26342 2.91731,-2.91731 m -8.27868,8.27867 -4.51101,4.51101 m -11.09255,11.09256 4.462671,-4.46267 m -10.23262,10.23262 -3.31222,3.31222 m -5.772887,5.77288 2.778229,-2.77823 m -3.570045,3.57005 -1.643466,1.64347 m -3.172053,3.17205 1.089697,-1.0897 m 43.533834,-43.13471 -2.57415,2.57415 m -9.97692,9.97691 4.61613,-4.61612 m -11.215427,11.21543 -4.537126,4.53712 m -9.033824,9.03383 3.312613,-3.31261 m -6.18341,6.1834 -3.50896,3.50896 m -2.374165,2.37417 1.666257,-1.66626 m -3.488375,3.48838 -1.090948,1.09094 m 42.436205,-42.03708 2.23078,-2.23078 m -7.59099,7.59099 -4.72123,4.72123 m -11.180306,11.18031 4.611576,-4.61158 m -10.284049,10.28405 -3.313007,3.31301 m -7.082551,7.08255 4.335616,-4.33562 m -4.991675,4.99168 -1.522612,1.52261 m -2.692531,2.69253 1.0922,-1.0922 m 43.572629,-43.17351 -1.84179,1.84179 m -10.18598,10.18598 4.82634,-4.82634 m -11.36449,11.36449 -4.68603,4.68604 m -8.937135,8.93713 3.313401,-3.3134 m -5.936475,5.93647 -3.782045,3.78205 m -1.2156,1.2156 0.467663,-0.46766 m -1.156825,1.15682 -1.458641,1.45864 m -2.471996,2.472 1.093451,-1.09345 m 43.448322,-43.04921 -0.34564,0.34565 m -1.30301,1.303 0.52767,-0.52767 m -5.56998,5.56999 -4.93146,4.93145 m -11.268053,11.26806 4.760483,-4.76049 m -10.335479,10.33549 -3.313795,3.31379 m -6.537344,6.53735 4.038131,-4.03814 m -5.373089,5.37309 -0.293631,0.29363 m -2.108362,2.10837 1.465277,-1.46528 m -2.623562,2.62356 -1.094703,1.09471 m 42.719277,-42.32016 0.4472,-0.4472 m -4.92826,4.92826 -5.21498,5.21498 m -11.133516,11.13352 4.834946,-4.83495 m -10.361205,10.3612 -3.314189,3.31419 m -6.590406,6.59041 4.215056,-4.21506 m -6.095881,6.09588 -0.233667,0.23367 m -2.023261,2.02326 1.412821,-1.41282 m -2.402755,2.40276 -1.095954,1.09595 m 42.362811,-41.96369 0.57007,-0.57007 m -4.30726,4.30726 -5.78986,5.78986 m -10.707619,10.70762 4.909399,-4.9094 M 92.011717,131.36542 88.697135,134.68 m -6.606414,6.60642 4.354924,-4.35493 m -6.700472,6.70048 -0.251813,0.25181 m -1.97825,1.97825 1.360364,-1.36036 m -2.181947,2.18194 -1.097206,1.09721 m 41.815399,-41.41628 0.72249,-0.72249 m -3.52485,3.52486 -3.81241,3.8124 m -2.76151,2.76151 1.53578,-1.53578 m -6.62448,6.62448 -4.983856,4.98386 m -8.743758,8.74376 3.314976,-3.31498 m -5.442604,5.4426 -3.446258,3.44626 m -4.128765,4.12877 0.375323,-0.37533 m -1.000654,1.00066 -1.307908,1.30791 m -1.751689,1.75168 1.098458,-1.09845 m 41.090885,-40.69177 -6.69936,6.69936 m -4.11337,4.11338 1.75331,-1.75332 m -5.46663,5.46663 -5.058308,5.05831 m -8.695415,8.69542 3.31537,-3.31537 m -5.319573,5.31957 -3.433324,3.43332 m -4.763255,4.76326 0.210343,-0.21034 m -0.843864,0.84386 -1.254994,1.255 m -1.585047,1.58504 1.099709,-1.09971 m 40.553948,-40.15482 -5.87221,5.87221 m -4.28403,4.28403 1.1454,-1.14541 m -4.66665,4.66666 -5.132762,5.13276 m -8.64707,8.64707 3.315764,-3.31577 m -5.194657,5.19466 -3.422276,3.42228 m -5.363581,5.36358 0.223542,-0.22354 m -0.858264,0.85826 -2.661637,2.66164 m 37.080171,-36.68105 3.73298,-3.73298 m -8.53715,8.53716 -0.90703,0.90702 m -1.56426,1.56426 0.0693,-0.0693 m -1.58495,1.58495 -5.207215,5.20722 m -8.598726,8.59872 3.316157,-3.31616 m -5.069739,5.06974 -3.411227,3.41123 m -5.963908,5.96391 0.23991,-0.23991 m -0.909447,0.90945 -2.44962,2.44962 m 37.490175,-37.09106 3.06859,-3.06858 m -8.56774,8.56773 -0.88184,0.88184 m -7.788938,7.78894 5.281678,-5.28167 m -10.515508,10.5155 -3.316551,3.31655 m -5.028452,5.02845 3.400179,-3.40018 m -9.708135,9.70814 -0.256278,0.25628 m -2.941954,2.94195 2.261881,-2.26188 m 38.304588,-37.90546 -2.66629,2.66629 m -7.35504,7.35504 1.17203,-1.17203 m -2.80237,2.80237 -5.35613,5.35613 m -8.502039,8.50203 3.316945,-3.31694 m -4.819907,4.81991 -3.38913,3.38913 m -7.16456,7.16456 0.272645,-0.27265 m -0.940146,0.94015 -2.097251,2.09725 m 38.310183,-37.91106 2.26399,-2.26399 m -9.0512,9.0512 -0.9567,0.9567 m -6.76918,6.76918 5.43058,-5.43058 m -10.566939,10.56694 -3.317339,3.31733 m -4.755734,4.75574 3.378082,-3.37808 m -10.821136,10.82113 -0.32643,0.32643 m -2.582951,2.58296 1.925112,-1.92512 m 38.656285,-38.25716 -1.85653,1.85653 m -8.33112,8.33112 0.83488,-0.83488 m -1.68808,1.68808 -5.50504,5.50504 m -8.405346,8.40535 3.317733,-3.31774 m -4.570076,4.57008 -3.367033,3.36703 m -8.333144,8.33315 0.324251,-0.32426 m -1.002743,1.00275 -1.763923,1.76392 m 39.139971,-38.74085 1.44694,-1.44694 m -9.43936,9.43936 -6.87362,6.87362 m -8.401835,8.40184 3.362956,-3.36296 m -4.445159,4.44516 -3.355984,3.35598 m -8.896802,8.89681 0.33883,-0.33883 m -0.990646,0.99064 -1.650065,1.65007 m 39.555085,-39.15596 1.03734,-1.03734 m -9.43178,9.43178 -6.64829,6.64829 m -8.314608,8.3146 3.324464,-3.32446 m -4.320243,4.32024 -3.344381,3.34438 m -9.461015,9.46102 0.353409,-0.35341 m -0.971254,0.97125 -1.543501,1.5435 m 39.970199,-39.57107 0.61111,-0.61111 m -9.40757,9.40757 -6.42297,6.42296 m -8.445105,8.44511 3.503706,-3.5037 m -4.195327,4.19532 -3.332875,3.33288 m -10.025131,10.02513 0.582316,-0.58232 m -1.16619,1.16619 -1.436938,1.43694 m 40.385304,-39.98618 0.0642,-0.0642 m -9.26266,9.26266 -6.36773,6.36773 m -12.114354,12.11435 7.39178,-7.39178 M 81.46961,146.697 l -1.169455,1.16945 m -1.881093,1.8811 1.343436,-1.34344 m 29.856492,-29.45737 -6.65366,6.65366 m -11.417937,11.41794 7.255358,-7.25536 m -16.650495,16.6505 -3.497968,3.49796 m 24.061602,-23.66247 7.15142,-7.15143 m -10.542175,10.54218 -7.118936,7.11894 m -13.316685,13.31668 3.945388,-3.94539 m 27.280728,-26.8816 -3.09494,3.09493 m -1.18592,1.18593 0.29958,-0.29958 m -1.74761,1.74761 -1.69454,1.69454 m -9.827194,9.82719 6.982514,-6.98251 m -16.329972,16.32997 -4.357134,4.35713 m 28.423036,-28.02391 2.7805,-2.7805 m -5.73234,5.73234 -1.96125,1.96125 m -9.146547,9.14655 6.846087,-6.8461 m -16.169706,16.16972 -4.669567,4.66956 m 28.615583,-28.21645 2.46606,-2.46607 m -5.71481,5.71481 -2.46195,2.46195 m -8.25289,8.25289 6.70967,-6.70967 m -16.009451,16.00945 -4.547996,4.548 m 28.374117,-27.975 2.15163,-2.15162 m -5.69728,5.69727 -0.89431,0.89431 m -1.54129,1.5413 0.8221,-0.8221 m -2.13514,2.13513 -6.573243,6.57325 m -13.85355,13.85355 4.577609,-4.57761 m 25.543424,-25.1443 -1.83719,1.83719 m -4.73493,4.73493 0.89237,-0.89238 m -1.85653,1.85654 -0.80115,0.80115 m -7.271247,7.27124 6.436827,-6.43682 m -15.688929,15.68893 -4.607222,4.60722 m 28.193561,-27.79444 1.52276,-1.52276 m -5.66221,5.66221 -0.89045,0.89045 m -8.64553,8.64553 7.49302,-7.49302 m -16.721283,16.72128 -4.810216,4.81022 m 28.276669,-27.87754 1.20832,-1.20833 m -5.64468,5.64468 -0.88852,0.88852 m -8.254503,8.25451 7.082403,-7.08241 m -16.286827,16.28683 -4.623728,4.62373 m 27.970285,-27.57117 0.8258,-0.8258 m -5.55906,5.55906 -0.88659,0.88659 m -7.863477,7.86348 6.671797,-6.67179 m -15.852381,15.85238 -4.627791,4.62779 m 27.854462,-27.45534 0.3393,-0.33931 m -5.36946,5.36947 -0.88466,0.88466 m -7.47246,7.47246 6.26118,-6.26118 m -15.417925,15.41792 -4.631855,4.63186 m 21.52884,-21.12972 0.88273,-0.88273 m -2.1136,2.1136 -5.850564,5.85056 m -13.768823,13.76883 4.635918,-4.63592 m 17.362919,-16.9638 -0.89033,0.89033 m -6.680876,6.68088 5.438516,-5.43852 m -14.547584,14.54759 -4.639981,4.63998 m 20.704995,-20.30588 0.88111,-0.88111 m -2.14249,2.1425 -5.03576,5.03576 m -13.729272,13.72927 4.644045,-4.64405 m 16.530067,-16.13094 -0.88162,0.88162 m -5.90441,5.90441 4.633,-4.633 m -13.694392,13.69439 -4.648108,4.64811 m 19.87998,-19.48086 0.88269,-0.88269 m -2.16413,2.16413 -4.23024,4.23024 m -13.689717,13.68972 4.652171,-4.65217 m 15.699066,-15.29994 -0.88377,0.88376 m -5.39621,5.39621 4.10475,-4.10475 m -12.84119,12.84119 -4.656235,4.65624 m 19.054965,-18.65584 0.88483,-0.88483 m -2.18632,2.18632 -3.42744,3.42743 m -13.647452,13.64746 4.660294,-4.6603 m 14.868058,-14.46894 -0.8859,0.8859 m -4.33765,4.33765 3.05882,-3.05881 m -12.02032,12.02032 -4.66472,4.66472 m 18.22995,-17.83083 0.88697,-0.88697 m -1.78431,1.78431 -3.04903,3.04903 m -13.604997,13.605 4.669146,-4.66915 m 14.036331,-13.63721 -4.44313,4.44313 m -13.583765,13.58377 4.673572,-4.67357 m 13.620463,-13.22135 -4.05292,4.05292 m -13.562532,13.56254 4.677999,-4.678 m 13.204603,-12.80548 -3.66271,3.66271 m -13.54131,13.54131 4.682425,-4.68243 m 12.781935,-12.38281 -3.2657,3.2657 m -13.520077,13.52008 4.686851,-4.68685 m 12.345276,-11.94616 -2.8547,2.8547 m -13.498845,13.49885 4.691277,-4.69128 m 11.882128,-11.483 -2.4172,2.4172 m -13.477622,13.47762 4.695703,-4.69571 m 11.325849,-10.92673 -2.17788,2.17789 m -1.74533,1.74532 0.33618,-0.33617 m -7.055811,7.05581 -4.700129,4.70013 m 15.15784,-14.75872 0.15673,-0.15673 m -0.94975,0.94975 -2.77802,2.77802 m -10.904079,10.90408 4.700419,-4.70042 m 8.58038,-8.18126 -2.40649,2.4065 m -10.192405,10.1924 4.701525,-4.70152 m 5.99684,-5.59773 -0.52744,0.52745 m -9.489022,9.48902 4.702632,-4.70263 m 5.38096,-4.98184 -0.55099,0.55099 m -8.850699,8.8507 4.703729,-4.70374 m 4.71734,-4.31821 -0.52564,0.52564 m -8.213525,8.21353 4.704835,-4.70484 m 4.10783,-3.70871 -0.55993,0.55993 m -7.570832,7.57083 4.705942,-4.70594 m 3.60032,-3.2012 -0.69622,0.69622 m -6.928139,6.92814 4.707049,-4.70704 m 3.13476,-2.73565 -0.87446,0.87446 m -6.28544,6.28545 4.70815,-4.70815 m 2.6836,-2.28448 -1.10753,1.10753 m -5.60232,5.60232 4.70926,-4.70926 m 2.23244,-1.83332 -6.2598,6.2598 m 0.68191,-0.28278 5.80974,-5.80974 m 0.23185,0.16727 -5.35969,5.35969 m 0.6819,-0.28278 4.90963,-4.90963 m 0.23352,0.1656 -4.46124,4.46125 m 0.6819,-0.28278 4.0149,-4.0149 m 0.23555,0.16356 -3.56855,3.56856 m 0.68191,-0.28279 3.1222,-3.1222 m 0.23555,0.16357 -2.67585,2.67585 m 0.6819,-0.28278 2.22951,-2.2295 m 0.21317,0.18594 -1.76077,1.76078 m 0.6819,-0.28278 1.20301,-1.20301 m 0.11328,0.28584 -0.63439,0.63439"
         inkscape:connector-curvature="0" />
    </g>
  </g>
</svg>
