<?xml version="1.0" encoding="UTF-8" standalone="no"?>
<!-- Created with Inkscape (http://www.inkscape.org/) -->

<svg
   xmlns:dc="http://purl.org/dc/elements/1.1/"
   xmlns:cc="http://creativecommons.org/ns#"
   xmlns:rdf="http://www.w3.org/1999/02/22-rdf-syntax-ns#"
   xmlns:svg="http://www.w3.org/2000/svg"
   xmlns="http://www.w3.org/2000/svg"
   xmlns:sodipodi="http://sodipodi.sourceforge.net/DTD/sodipodi-0.dtd"
   xmlns:inkscape="http://www.inkscape.org/namespaces/inkscape"
   width="50mm"
   height="50mm"
   viewBox="0 0 50 50"
   version="1.1"
   id="svg1586"
   inkscape:version="0.92.2 2405546, 2018-03-11"
   sodipodi:docname="50.svg">
  <sodipodi:namedview
     id="base"
     pagecolor="#ffffff"
     bordercolor="#666666"
     borderopacity="1.0"
     inkscape:pageopacity="0.0"
     inkscape:pageshadow="2"
     inkscape:zoom="3.3031093"
     inkscape:cx="76.67908"
     inkscape:cy="68.979071"
     inkscape:document-units="mm"
     inkscape:current-layer="layer1"
     showgrid="false"
     inkscape:window-width="1366"
     inkscape:window-height="703"
     inkscape:window-x="0"
     inkscape:window-y="0"
     inkscape:window-maximized="1" />
  <defs
     id="defs1580" />
  <metadata
     id="metadata1583">
    <rdf:RDF>
      <cc:Work
         rdf:about="">
        <dc:format>image/svg+xml</dc:format>
        <dc:type
           rdf:resource="http://purl.org/dc/dcmitype/StillImage" />
        <dc:title></dc:title>
      </cc:Work>
    </rdf:RDF>
  </metadata>
  <g
     transform="translate(0,-247)"
     id="layer1"
     inkscape:groupmode="layer"
     inkscape:label="Layer 1">
    <g
       id="g940"
       transform="translate(-4.7077501,-3.0805389e-4)">
      <path
         id="path916"
         d="m 33.821571,296.90018 c -2.205282,-0.46728 -4.004746,-2.06449 -4.37691,-3.88498 -0.192241,-0.94038 -0.525143,-1.2257 -2.246801,-1.92575 l -2.021125,-0.82181 0.545479,1.0553 c 0.769119,1.48798 0.362793,2.59644 -1.347773,3.67676 -2.329367,1.47111 -3.599679,1.47157 -6.525806,0.003 -2.651471,-1.33147 -3.675348,-2.42944 -3.675348,-3.94149 0,-1.50415 1.307793,-3.60216 3.095936,-4.96661 0.925859,-0.70648 1.876868,-1.63083 2.11336,-2.05411 0.388515,-0.69537 0.648595,-3.78014 0.318709,-3.78014 -0.075,0 -0.669292,0.22419 -1.320641,0.49817 -1.002463,0.42169 -1.327148,0.42426 -2.114921,0.0167 -1.855421,-0.95993 -2.133269,-4.0567 -0.363971,-4.0567 1.014861,0 1.468421,-1.42013 0.78681,-2.46356 -0.42743,-0.65432 -0.57869,-1.84625 -0.61069,-4.81226 -0.0336,-3.11341 -0.173397,-4.14231 -0.664799,-4.89263 -0.448852,-0.68533 -0.573079,-1.38669 -0.445772,-2.51667 0.127034,-1.12754 0.04051,-1.61877 -0.308762,-1.75285 -0.681827,-0.26176 -0.590917,-1.53505 0.240502,-3.3685 0.486407,-1.07262 0.595517,-1.68091 0.34625,-1.93028 -0.812491,-0.81285 -0.335445,-1.85108 0.774329,-1.68522 0.139281,0.0208 0.696867,-0.13089 1.239082,-0.33713 0.873517,-0.33227 0.915253,-0.41452 0.366304,-0.72188 -0.340748,-0.19077 -0.619541,-0.65771 -0.619541,-1.03763 0,-0.53546 0.245282,-0.69076 1.091008,-0.69076 0.600052,0 1.994018,-0.51954 3.097703,-1.15453 1.103681,-0.63499 2.915141,-1.4552 4.025463,-1.82269 1.8862,-0.62429 2.077174,-0.62988 2.908233,-0.0851 1.105728,0.72481 1.76111,0.73812 2.334096,0.0474 0.293985,-0.35439 0.582295,-0.4211 0.852014,-0.19715 0.249887,0.20747 0.943504,0.21758 1.792109,0.0261 1.501047,-0.33869 1.954559,-0.21987 1.954559,0.51211 0,0.59246 1.490538,0.98664 2.639768,0.69806 0.729589,-0.18319 0.908063,-0.0652 1.108163,0.73238 0.21327,0.85012 0.3596,0.92802 1.382472,0.73605 1.449096,-0.27197 2.094595,0.42409 1.862218,2.00809 -0.123234,0.84003 0.05134,1.44227 0.643101,2.21845 0.44674,0.58596 0.98261,1.51367 1.190834,2.06157 0.470974,1.23932 0.09338,5.78721 -0.532475,6.41335 -0.247275,0.24738 -0.622036,1.09049 -0.832804,1.87357 -0.537335,1.99641 -1.714722,3.44214 -2.364125,2.90295 -0.311537,-0.25867 -0.494854,-0.27532 -0.494854,-0.0449 0,0.20127 0.690457,0.70034 1.534336,1.10903 0.843886,0.40871 1.892459,1.12447 2.330175,1.5906 0.941448,1.00257 1.327305,3.27352 0.808964,4.7611 -0.285727,0.82001 -0.262772,1.10113 0.101318,1.2409 0.299304,0.11491 0.560562,1.13979 0.717408,2.81428 0.261245,2.78912 -0.03696,3.88606 -1.300103,4.78289 -0.358528,0.25454 -0.651866,0.78301 -0.651866,1.17437 0,0.85822 -0.557792,1.99599 -1.471869,3.00229 -0.551848,0.60751 -0.608492,0.9194 -0.309787,1.70541 0.934794,2.45978 -0.176358,5.74706 -2.12355,6.28242 -0.480757,0.13218 -1.670657,0.46245 -2.644223,0.73395 -0.973559,0.27148 -2.248047,0.39234 -2.832187,0.26857 z"
         style="fill:none;stroke:#ff0000;stroke-width:0.1;stroke-miterlimit:4;stroke-dasharray:none"
         inkscape:connector-curvature="0" />
      <path
         id="path914"
         d="m 37.035953,295.26803 c 0.540879,-1.76898 0.536571,-1.76596 1.072508,-0.75244 0.626352,1.18451 0.860281,1.20484 1.841359,0.16006 1.550352,-1.65099 1.448217,-4.41443 -0.259295,-7.01566 -0.561829,-0.8559 -1.219901,-2.22865 -1.462374,-3.05056 l -0.440864,-1.49437 -1.245516,1.2103 c -1.234525,1.19962 -2.208223,1.71011 -4.005481,2.09997 -1.44131,0.31264 -1.55241,1.52587 -0.251094,2.74202 1.067308,0.99746 1.070134,1.00954 0.236498,1.00954 -1.42539,0 -2.417363,0.95294 -2.417363,2.32225 0,1.3787 0.330696,1.55121 0.979912,0.51119 0.243199,-0.3896 0.691361,-0.70837 0.995909,-0.70837 0.458251,0 0.428556,0.15922 -0.172219,0.92331 -0.739376,0.94039 -0.596103,1.87464 0.380045,2.4782 1.438309,0.88933 4.426721,0.61525 4.747975,-0.43544 z"
         style="fill:none;stroke:#0000ff;stroke-width:0.1;stroke-miterlimit:4;stroke-dasharray:none"
         inkscape:connector-curvature="0" />
      <path
         id="path912"
         d="m 23.178338,294.65889 c 0.608583,-0.60885 0.785977,-1.10544 0.66424,-1.85945 -0.128631,-0.7967 -0.08121,-0.90891 0.210222,-0.49748 0.206976,0.29221 0.378758,0.8102 0.38174,1.15109 0.0083,0.94812 0.670591,0.73697 0.929845,-0.29646 0.300538,-1.19797 -0.793104,-2.68763 -2.288041,-3.11657 -1.440131,-0.41321 -1.423694,-0.75636 0.03603,-0.75201 1.065288,0.003 1.146997,-0.0792 1.102312,-1.11145 -0.04162,-0.96134 0.09245,-1.14302 0.973564,-1.31932 1.414375,-0.283 1.263877,-0.62604 -0.674294,-1.53694 -0.916906,-0.43093 -2.175958,-1.25057 -2.797895,-1.82141 l -1.1308,-1.03791 -0.213532,0.93596 c -0.270803,1.18697 -0.708323,1.7308 -2.549159,3.16854 -2.826329,2.20747 -3.737217,4.89611 -2.144682,6.33042 1.371308,1.23506 1.660124,1.27963 2.027532,0.31282 0.189531,-0.49871 0.507854,-0.90676 0.707385,-0.90676 0.478338,0 0.461508,0.46793 -0.0347,0.96434 -0.293945,0.29408 -0.159823,0.6354 0.514945,1.31047 1.20809,1.20862 3.122598,1.24532 4.285277,0.0821 z"
         style="fill:none;stroke:#0000ff;stroke-width:0.1;stroke-miterlimit:4;stroke-dasharray:none"
         inkscape:connector-curvature="0" />
      <path
         id="path910"
         d="m 30.311187,290.21667 0.84957,-0.66857 -1.588601,-0.23833 c -0.873729,-0.13108 -2.042292,-0.62026 -2.59681,-1.08706 -0.763292,-0.64256 -1.107706,-0.74919 -1.417777,-0.43898 -0.795905,0.79625 -0.419628,1.60578 1.095036,2.35586 1.855609,0.91892 2.569716,0.93396 3.658582,0.0771 z"
         style="fill:none;stroke:#0000ff;stroke-width:0.1;stroke-miterlimit:4;stroke-dasharray:none"
         inkscape:connector-curvature="0" />
      <path
         id="path908"
         d="m 30.747385,287.78875 c -0.100715,-0.87339 -0.289665,-0.99665 -1.872414,-1.22155 -1.724613,-0.24504 -2.547699,0.10633 -2.068001,0.88284 0.294267,0.47636 2.299472,1.28048 3.232369,1.29626 0.687881,0.0117 0.802011,-0.14273 0.708046,-0.95755 z"
         style="fill:none;stroke:#ff0000;stroke-width:0.1;stroke-miterlimit:4;stroke-dasharray:none"
         inkscape:connector-curvature="0" />
      <path
         id="path906"
         d="m 41.761399,286.7644 c 0.809162,-1.02913 0.985865,-2.61025 0.29122,-2.60567 -0.534878,0.004 -1.960539,2.52466 -1.762971,3.11761 0.219704,0.65941 0.675421,0.50089 1.471751,-0.51194 z"
         style="fill:none;stroke:#0000ff;stroke-width:0.1;stroke-miterlimit:4;stroke-dasharray:none"
         inkscape:connector-curvature="0" />
      <path
         id="path904"
         d="m 34.719937,285.00941 c 0.655349,-0.38292 1.748321,-1.47168 2.428822,-2.41948 0.995482,-1.38651 1.266731,-2.13066 1.388,-3.80787 0.135022,-1.86754 0.01119,-2.35964 -1.189434,-4.72607 -1.092905,-2.15414 -1.431227,-2.56586 -1.833814,-2.23158 -0.617509,0.5127 -2.266198,3.2985 -2.193244,3.70591 0.02977,0.16624 0.03525,0.41349 0.01217,0.54946 -0.05978,0.35253 -2.225325,-0.42274 -2.962614,-1.06062 -0.555718,-0.48079 -0.690183,-0.47205 -1.30528,0.0849 -0.835778,0.75672 -1.438382,0.45585 -1.438382,-0.71817 0,-0.86089 -0.01582,-0.86544 -1.085577,-0.31201 -0.597067,0.30889 -1.513102,0.51221 -2.035633,0.45182 -0.804104,-0.0929 -0.934402,-0.25944 -0.848151,-1.0838 0.135262,-1.2928 -0.714508,-1.28906 -1.63712,0.007 -1.833494,2.57605 -2.230948,6.38827 -0.88093,8.44957 0.759284,1.15933 3.391843,2.95076 5.211618,3.54644 2.124022,0.69529 6.855491,0.449 8.369562,-0.43566 z"
         style="fill:none;stroke:#0000ff;stroke-width:0.1;stroke-miterlimit:4;stroke-dasharray:none"
         inkscape:connector-curvature="0" />
      <path
         id="path902"
         d="m 29.632301,280.73206 c -0.461193,-0.46139 -0.226504,-1.18051 0.383524,-1.17518 0.529459,0.005 0.542328,0.0554 0.08851,0.34876 -0.354023,0.22889 -0.383524,0.34515 -0.08851,0.34876 0.243391,0.003 0.442529,0.1648 0.442529,0.3596 0,0.40303 -0.473574,0.47071 -0.826053,0.11806 z"
         style="fill:none;stroke:#0000ff;stroke-width:0.1;stroke-miterlimit:4;stroke-dasharray:none"
         inkscape:connector-curvature="0" />
      <path
         id="path900"
         d="m 40.38723,285.18802 c 0.217338,-0.40628 0.342424,-0.77328 0.277974,-0.81556 -2.223555,-1.45839 -2.327284,-1.43122 -1.675658,0.43886 0.452959,1.29995 0.846989,1.40615 1.397684,0.3767 z"
         style="fill:none;stroke:#ff0000;stroke-width:0.1;stroke-miterlimit:4;stroke-dasharray:none"
         inkscape:connector-curvature="0" />
      <path
         id="path898"
         d="m 44.123165,282.58174 c 0.533912,-0.76261 0.617908,-2.06883 0.268883,-4.18136 -0.242399,-1.46717 -0.388181,-1.55593 -1.372709,-0.83571 -0.57788,0.42275 -0.6136,0.62333 -0.252263,1.41672 0.231519,0.50834 0.663315,0.92425 0.959555,0.92425 0.818981,0 0.677745,1.88934 -0.200684,2.68466 l -0.739304,0.66937 0.64416,-1.12288 c 0.729769,-1.27212 0.434259,-1.88552 -0.597737,-1.24074 -0.630235,0.39376 -0.691949,0.33521 -0.691949,-0.65651 0,-0.59885 -0.162958,-1.39346 -0.362137,-1.76578 -0.281178,-0.52564 -0.206245,-0.83292 0.3352,-1.37461 1.030398,-1.03085 1.866019,-2.81786 1.900635,-4.06459 0.04255,-1.53338 -0.888705,-2.78204 -2.779537,-3.72679 -1.575839,-0.78736 -1.632965,-0.79104 -2.350613,-0.15162 -1.247832,1.11182 -1.81901,2.87725 -1.32046,4.08138 l 0.427273,1.03199 0.892427,-0.81228 c 0.81681,-0.74347 0.868653,-0.75227 0.611796,-0.10393 -0.154354,0.3896 -0.306084,2.54124 -0.337198,4.78143 -0.06876,4.95188 0.134963,5.34427 2.71632,5.23191 1.293942,-0.0564 1.881971,-0.26162 2.248342,-0.78491 z"
         style="fill:none;stroke:#0000ff;stroke-width:0.1;stroke-miterlimit:4;stroke-dasharray:none"
         inkscape:connector-curvature="0" />
      <path
         id="path896"
         d="m 18.757189,279.9155 c 0.413075,-0.22117 0.733261,-0.9496 0.89517,-2.03654 0.138639,-0.93071 0.651707,-2.53914 1.140145,-3.57427 0.488439,-1.03513 0.831867,-1.91931 0.763165,-1.96482 -0.0687,-0.0456 -0.570389,-0.27437 -1.114869,-0.50854 -0.544477,-0.23418 -1.261374,-0.90764 -1.593104,-1.49658 -0.405654,-0.72019 -0.834978,-1.03914 -1.311189,-0.97411 -0.621501,0.0849 -0.707752,0.36408 -0.705653,2.28432 0.0017,1.77721 0.151391,2.34631 0.796552,3.03337 0.928915,0.98922 0.996529,1.33133 0.263125,1.33133 -0.29207,0 -0.5553,0.19923 -0.584957,0.44272 -0.02966,0.2435 -0.09094,0.60211 -0.136174,0.79691 -0.04525,0.1948 -0.105475,0.51356 -0.133857,0.70836 -0.0284,0.1948 -0.218927,0.0664 -0.423436,-0.28527 -0.293719,-0.50512 -0.477393,-0.55182 -0.874293,-0.22227 -0.646828,0.53706 -0.634569,1.04668 0.04865,2.02255 0.585345,0.83606 1.876751,1.02857 2.970725,0.44284 z"
         style="fill:none;stroke:#0000ff;stroke-width:0.1;stroke-miterlimit:4;stroke-dasharray:none"
         inkscape:connector-curvature="0" />
      <path
         id="path894"
         d="m 32.925499,274.44483 c 0.368491,-0.96963 2.759727,-4.21726 3.23768,-4.39721 0.17246,-0.065 0.31357,0.16234 0.31357,0.50507 0,0.66239 2.323853,-2.36591 2.68651,-3.50089 0.135321,-0.42349 0.418823,-0.56601 0.852176,-0.42841 0.895465,0.28432 1.713226,-0.98237 1.992132,-3.08579 0.144605,-1.09057 0.397906,-1.69516 0.710196,-1.69516 0.568909,0 0.639179,-1.32021 0.140163,-2.63331 -0.273913,-0.72076 -0.237325,-0.9085 0.17701,-0.9085 1.300334,0 0.0014,-3.29293 -1.752655,-4.44263 -0.786363,-0.51548 -0.830521,-0.64729 -0.370916,-1.1071 0.286939,-0.28706 0.521707,-0.909 0.521707,-1.38209 0,-0.78422 -0.141629,-0.86015 -1.604509,-0.86015 -1.195287,0 -1.669318,-0.15808 -1.858621,-0.61982 -0.241147,-0.58819 -0.749581,-0.7341 -2.997795,-0.86032 -0.701431,-0.0394 -0.973564,-0.24281 -0.973564,-0.72784 0,-0.53335 -0.16547,-0.62318 -0.796549,-0.43243 -0.438104,0.13241 -0.947897,0.38223 -1.132875,0.55513 -0.509035,0.47582 -0.902759,0.37766 -0.902759,-0.22506 0,-0.47025 -0.115135,-0.46397 -0.89765,0.049 -0.843291,0.5528 -0.974959,0.54793 -2.174319,-0.0804 -0.955558,-0.50059 -1.315989,-0.55745 -1.433001,-0.22608 -0.08599,0.2435 -0.607961,0.44272 -1.15995,0.44272 -1.291724,0 -2.173161,0.34159 -1.923652,0.74548 0.107729,0.17438 -0.108423,0.31706 -0.480338,0.31706 -0.37192,0 -1.42527,0.39846 -2.34078,0.88545 -0.915508,0.487 -2.014584,0.89052 -2.442382,0.89672 -0.722005,0.0105 -0.733362,0.045 -0.15828,0.48177 0.340747,0.25878 0.61954,0.64656 0.61954,0.86173 0,0.53977 -1.184494,1.1245 -2.277877,1.1245 -1.008792,0 -1.256163,0.85322 -0.348408,1.20171 0.497041,0.19082 0.482268,0.34425 -0.131534,1.36608 -0.380302,0.63311 -0.796708,1.59776 -0.925349,2.14367 -0.217867,0.92456 -0.182521,0.96506 0.515879,0.59112 1.07292,-0.57446 1.258417,-0.16637 0.575564,1.26623 -0.644319,1.35175 -0.794719,3.53681 -0.26595,3.86375 0.180697,0.11174 0.430397,-0.11793 0.554892,-0.51036 0.124497,-0.39243 0.380536,-0.7135 0.56898,-0.7135 0.21259,0 0.203538,0.25999 -0.02386,0.68508 -0.401572,0.75067 -0.492099,3.17963 -0.151589,4.06739 0.294951,0.76897 0.754325,0.70254 1.024192,-0.14812 0.31289,-0.98627 0.885059,-0.8867 0.885059,0.15403 0,2.26012 1.865086,4.09218 4.168622,4.09481 1.004616,0.001 1.187787,0.1432 1.371841,1.06386 0.148959,0.74512 0.418851,1.06255 0.903439,1.06255 0.380064,0 1.168959,-0.47815 1.753098,-1.06255 0.584137,-0.58439 1.129468,-1.06254 1.211846,-1.06254 0.08238,0 0.14978,0.63752 0.14978,1.41672 0,1.49524 0.434602,1.83198 1.028494,0.79691 0.324837,-0.56615 0.43489,-0.53548 1.271,0.35418 1.128627,1.20091 1.865709,1.23871 2.29179,0.11753 z"
         style="fill:none;stroke:#0000ff;stroke-width:0.1;stroke-miterlimit:4;stroke-dasharray:none"
         inkscape:connector-curvature="0" />
      <path
         id="path892"
         d="m 28.208845,270.25797 c -0.509496,-0.37131 -1.221415,-1.34088 -1.582042,-2.1546 -0.775962,-1.75091 -1.314771,-2.24883 -3.708874,-3.42749 -2.558034,-1.25936 -3.210566,-2.26785 -2.762436,-4.26935 0.20818,-0.9298 0.72219,-1.89357 1.255168,-2.35345 l 0.902611,-0.77882 -0.754073,-1.27864 c -0.612833,-1.03913 -0.681924,-1.43704 -0.368872,-2.12443 0.6384,-1.40175 1.967021,-2.05156 3.687457,-1.80347 2.184935,0.31508 2.400316,0.30618 4.245673,-0.17549 3.669545,-0.95783 7.055398,0.82628 8.255547,4.35009 0.432802,1.27078 0.809363,1.7359 1.686121,2.08267 1.974057,0.78077 2.36846,1.33279 2.362533,3.3067 -0.0067,2.18311 -0.193645,2.51339 -1.805292,3.18708 -0.690164,0.2885 -1.453571,0.76409 -1.696442,1.05687 -0.242879,0.29277 -1.224405,0.79245 -2.181175,1.11037 -1.271023,0.42235 -2.002691,0.94878 -2.71643,1.95442 -1.481719,2.0877 -3.140459,2.54116 -4.819474,1.31754 z"
         style="fill:none;stroke:#0000ff;stroke-width:0.1;stroke-miterlimit:4;stroke-dasharray:none"
         inkscape:connector-curvature="0" />
      <path
         id="path890"
         d="m 32.864065,268.20497 c 1.07497,-1.22445 1.880254,-1.79961 2.747594,-1.96239 0.674814,-0.12666 1.324762,-0.38864 1.444326,-0.58219 0.448737,-0.7264 -2.200874,0.16789 -3.479168,1.17427 -2.118922,1.6682 -3.826509,1.25406 -3.826509,-0.92801 0,-1.10524 0.3116,-1.53166 2.288423,-3.13166 0.972258,-0.78693 1.01644,-0.92157 0.601426,-1.83283 -0.363962,-0.79916 -0.361574,-1.0383 0.01271,-1.27583 0.612221,-0.3885 0.905071,-0.37572 1.168694,0.051 0.120335,0.19481 0.0501,0.35419 -0.156124,0.35419 -0.662756,0 -0.399914,1.26989 0.421637,2.03709 0.438105,0.40911 1.235813,0.85292 1.772696,0.98623 2.051261,0.50936 3.711515,-1.89244 2.033054,-2.94113 -0.499437,-0.31204 -0.708047,-0.82595 -0.708047,-1.74428 0,-1.81872 -1.172212,-4.02381 -2.683014,-5.04714 -1.637656,-1.10925 -4.894111,-1.41682 -6.502382,-0.61415 -0.942006,0.47015 -1.265841,0.48138 -2.241745,0.0778 -1.584994,-0.65552 -3.474713,-0.0287 -3.943298,1.30793 -0.283116,0.8076 -0.200452,1.1171 0.496641,1.85945 0.459962,0.48983 1.206801,0.89059 1.65964,0.89059 0.452842,0 0.823348,0.15938 0.823348,0.35418 0,0.1948 -0.395763,0.35418 -0.879471,0.35418 -1.394073,0 -3.025801,1.70404 -3.252702,3.39683 -0.171212,1.27732 -0.078,1.54028 0.787426,2.22132 0.539896,0.42487 1.393849,0.87197 1.89767,0.99354 1.546739,0.37323 2.842427,1.51706 3.751485,3.3118 1.690964,3.33844 3.273776,3.52764 5.765674,0.68922 z"
         style="fill:none;stroke:#0000ff;stroke-width:0.1;stroke-miterlimit:4;stroke-dasharray:none"
         inkscape:connector-curvature="0" />
      <path
         id="path888"
         d="m 29.953895,257.98946 c -0.289243,-0.46821 0.816955,-2.47512 1.593424,-2.89086 1.039833,-0.55675 1.992615,0.1358 2.159977,1.57002 0.129288,1.1079 0.04816,1.23793 -0.889548,1.42556 -1.483226,0.29677 -2.642004,0.2544 -2.863853,-0.10472 z"
         style="fill:none;stroke:#0000ff;stroke-width:0.1;stroke-miterlimit:4;stroke-dasharray:none"
         inkscape:connector-curvature="0" />
      <path
         id="path886"
         d="m 33.29054,256.72772 c 0,-0.4755 -0.169911,-0.9696 -0.377576,-1.09801 -0.546255,-0.33775 -0.646061,-0.11091 -0.43495,0.98857 0.231609,1.20619 0.812526,1.28444 0.812526,0.10944 z"
         style="fill:none;stroke:#0000ff;stroke-width:0.1;stroke-miterlimit:4;stroke-dasharray:none"
         inkscape:connector-curvature="0" />
      <path
         id="path884"
         d="m 23.613907,255.58524 c -0.45743,-0.45762 -0.228522,-1.51387 0.401147,-1.85101 0.920878,-0.49305 3.100787,0.89076 2.5152,1.59666 -0.415311,0.50065 -2.48936,0.68154 -2.916347,0.25435 z"
         style="fill:none;stroke:#0000ff;stroke-width:0.1;stroke-miterlimit:4;stroke-dasharray:none"
         inkscape:connector-curvature="0" />
      <path
         id="path882"
         d="m 25.3051,255.24874 c 0.440427,-0.16909 0.477178,-0.32918 0.162617,-0.70837 -0.718033,-0.86556 -2.12741,-0.34781 -1.558792,0.57264 0.252585,0.40887 0.597382,0.44239 1.396175,0.13573 z"
         style="fill:none;stroke:#0000ff;stroke-width:0.1;stroke-miterlimit:4;stroke-dasharray:none"
         inkscape:connector-curvature="0" />
      <path
         id="path880"
         d="m 32.157863,266.05925 c 0.0615,-0.52757 -0.1414,-1.11848 -0.480837,-1.40032 -0.50694,-0.42091 -0.654625,-0.3954 -1.079969,0.18656 -0.612237,0.83765 -0.636368,1.83714 -0.05019,2.07917 0.881919,0.36414 1.506799,0.0285 1.611005,-0.86541 z"
         style="fill:none;stroke:#0000ff;stroke-width:0.1;stroke-miterlimit:4;stroke-dasharray:none"
         inkscape:connector-curvature="0" />
      <path
         id="path878"
         d="m 40.040256,263.95506 c 0.801658,-0.42923 0.945543,-2.29091 0.199199,-2.57743 -0.47032,-0.18056 -1.992589,1.49394 -1.992589,2.19185 0,0.2796 0.409938,0.57745 0.996834,0.72425 0.06147,0.0154 0.419928,-0.13702 0.796556,-0.33867 z"
         style="fill:none;stroke:#0000ff;stroke-width:0.1;stroke-miterlimit:4;stroke-dasharray:none"
         inkscape:connector-curvature="0" />
      <path
         id="path1520"
         d="m 40.363901,259.88588 c -0.246302,-0.2969 -0.52072,-0.46689 -0.609836,-0.37774 -0.245509,0.24563 0.253327,0.91757 0.681179,0.91757 0.234754,0 0.207896,-0.20322 -0.07134,-0.53983 z"
         style="fill:none;stroke:#0000ff;stroke-width:0.1;stroke-miterlimit:4;stroke-dasharray:none"
         inkscape:connector-curvature="0" />
      <path
         id="path862"
         style="fill:none;stroke:#0000ff;stroke-width:0.1"
         d="m 17.709385,250.81587 -0.402777,0.40278 m 0.09412,0.305 0.73498,-0.73498 m -2.700302,2.7003 -0.368718,0.36872 m 3.314001,-2.91488 0.196152,-0.19615 m -0.921595,0.92159 -0.09704,0.097 m -2.444413,2.44442 0.708783,-0.70879 m 3.473988,-3.07486 -0.346644,0.34664 m -1.194481,1.19448 0.120571,-0.12057 m -1.579339,1.57934 -0.208231,0.20823 m -0.864057,0.86406 0.153089,-0.15309 m 4.424762,-4.02564 -0.319521,0.31952 m -1.497686,1.49769 0.09788,-0.0979 m 2.471296,-2.07218 -0.264975,0.26498 m -2.102608,2.10261 0.09367,-0.0937 m -0.71376,0.71376 -0.372585,0.37258 m -1.642815,1.64282 0.06771,-0.0677 m 5.686555,-5.28743 -0.417749,0.41775 m -3.094756,3.09476 0.638129,-0.63813 m -2.573831,2.57383 -0.211481,0.21148 m 6.103615,-5.70449 0.359543,-0.35955 m -3.556075,3.55608 -0.331328,0.33133 m -2.59247,2.59247 0.48819,-0.48819 m 6.955672,-6.55655 -0.791028,0.79102 m -6.870092,6.8701 0.852963,-0.85296 m 7.384469,-6.98535 -0.734966,0.73496 m -7.715384,7.71539 0.525966,-0.52597 m 8.592319,-8.1932 -0.178163,0.17817 m -9.188278,9.18828 0.190685,-0.19069 m 9.94055,-9.54143 -0.314958,0.31496 m -10.073748,10.07375 0.256352,-0.25635 m 10.658813,-10.25969 -0.415212,0.41521 m -10.600585,10.60058 0.18663,-0.18663 m 11.446712,-11.04759 -0.604616,0.60462 m -11.122648,11.12265 0.176559,-0.17656 m 12.036365,-11.63724 -0.588691,0.58869 m -11.584013,11.58401 0.206526,-0.20653 m 12.413393,-12.01427 -0.489605,0.48961 m -12.049744,12.04974 0.431338,-0.43133 m 12.445661,-12.04654 -0.141842,0.14184 m -5.654352,5.65435 0.331668,-0.33167 m -6.420936,6.42094 -0.765485,0.76548 m 12.791717,-12.39259 0.114456,-0.11446 m -4.818318,4.81832 -1.420137,1.42014 m -6.448278,6.44828 1.227572,-1.22758 m 11.714563,-11.31544 -0.08725,0.0873 m -4.91609,4.91609 0.29383,-0.29383 m -1.449382,1.44938 -0.536457,0.53646 m -6.117217,6.11722 1.052468,-1.05247 m 12.018152,-11.61903 -0.06269,0.0627 m -12.92959,12.92959 0.631686,-0.63169 m 12.618651,-12.21952 -0.05225,0.0522 m -13.205986,13.20599 0.433422,-0.43342 m -0.209051,0.60817 -0.232269,0.23227 m 13.750073,-13.35095 0.09867,-0.0987 m -13.669539,13.66954 -0.187634,0.18764 m -0.02592,0.42504 0.139881,-0.13988 m 15.343077,-14.94396 -0.842118,0.84212 m -6.1991,6.1991 0.563539,-0.56354 m -2.208617,2.20862 -0.05024,0.0502 m -6.758589,6.75859 0.142522,-0.14252 m 15.683835,-15.28471 -0.574115,0.57412 m -4.540749,4.54074 0.09842,-0.0984 m -3.803912,3.80391 -0.09935,0.0994 m -6.898986,6.89898 0.130449,-0.13045 m 15.9532,-15.55407 -0.06419,0.0642 m -5.023975,5.02398 0.158464,-0.15847 m -3.944149,3.94415 -0.162754,0.16276 m -6.958479,6.95848 0.05536,-0.0554 m 16.237804,-15.83868 -0.185225,0.18522 m -4.906718,4.90672 0.24761,-0.24761 m -4.099569,4.09957 -0.242718,0.24272 m 9.048552,-8.64943 0.490793,-0.4908 m -4.813888,4.81389 -0.265872,0.26587 m -5.544371,5.54437 1.570944,-1.57094 m 9.507697,-9.10857 -0.802968,0.80296 m -4.236147,4.23615 0.229284,-0.22928 m -4.435389,4.43539 -2.582784,2.58278 m -3.901942,3.90194 0.256799,-0.2568 m -1.202577,1.20258 -0.0625,0.0625 m 16.995077,-16.59595 0.266395,-0.2664 m -6.965929,6.96593 -0.07255,0.0726 m -5.287962,5.28796 2.823221,-2.82322 m -6.675707,6.67571 -0.953746,0.95374 m 9.650466,-9.25134 0.713835,-0.71383 m -2.380561,2.38056 -0.259689,0.25968 m -7.595251,7.59526 0.55745,-0.55745 m 17.388114,-16.989 -0.106741,0.10674 m -7.826931,7.82694 0.372016,-0.37202 m -2.20753,2.20753 -0.100119,0.10012 m -3.679439,3.67944 0.06812,-0.0681 m -3.940028,3.94003 -0.426223,0.42622 m 18.033242,-17.63412 0.191157,-0.19116 m -17.841501,17.8415 -0.312133,0.31214 m 18.137533,-17.73841 0.370423,-0.37042 m -18.235226,18.23522 -0.202209,0.20221 m 18.105118,-17.706 0.480292,-0.48029 m -4.199882,4.19988 -0.0625,0.0625 m -14.27522,14.27522 0.178928,-0.17893 m 18.466102,-18.06698 -0.506216,0.50622 m -3.497833,3.49783 0.09203,-0.092 m -14.545464,14.54547 -0.157233,0.15723 m 18.356486,-17.95736 0.385095,-0.3851 m -3.643592,3.64359 -0.105442,0.10545 m -14.962236,14.96223 0.135537,-0.13554 m 18.787979,-18.38885 -0.247224,0.24722 m -3.362582,3.36259 0.153311,-0.15332 m -15.252,15.252 -0.180873,0.18088 m 19.010134,-18.61101 0.156683,-0.15669 m -3.400998,3.401 -0.137271,0.13727 m -15.618883,15.61888 0.236357,-0.23635 m 19.201458,-18.80234 -0.06638,0.0664 m -3.403568,3.40357 0.121232,-0.12123 m -15.766819,15.76682 -0.312617,0.31261 M 32.599315,252.29 l 0.141469,-0.14147 m -15.945707,15.94571 -0.457012,0.45701 m 16.580972,-16.18185 0.136271,-0.13627 M 16.965437,268.323 16.34773,268.94071 m 16.868741,-16.46962 0.122182,-0.12218 m -14.883391,14.88339 -2.097942,2.09794 m 20.75064,-20.35152 0.109878,-0.10987 m -3.595841,3.59584 -0.105335,0.10533 m -17.149402,17.1494 2.113637,-2.11363 m 19.178686,-18.77957 -0.241939,0.24194 m -3.610739,3.61074 0.09844,-0.0984 m -15.382693,15.38269 -2.145447,2.14545 m 21.310827,-20.91171 0.451355,-0.45135 m -3.972346,3.97234 -0.08824,0.0882 m -3.522572,3.52257 1.177872,-1.17788 m -13.1743,13.1743 -0.828396,0.8284 m -1.344258,1.34426 0.209535,-0.20954 m 21.786357,-21.38723 -0.446265,0.44627 m -3.600911,3.60091 0.07183,-0.0718 m -2.284702,2.2847 -1.541814,1.54182 m -12.476265,12.47626 0.508322,-0.50832 m -1.99907,1.99907 -0.217074,0.21707 m 21.703506,-21.30438 0.388075,-0.38808 m -3.840332,3.84034 -0.05541,0.0554 m -4.464618,4.46462 2.350295,-2.35029 m -13.76287,13.76287 -0.346036,0.34603 m -1.965817,1.96582 0.154606,-0.1546 m 22.027969,-21.62885 -0.322201,0.3222 m -3.440002,3.44 0.06473,-0.0647 m -2.795204,2.79521 -1.850055,1.85005 m -6.798116,6.79812 0.06752,-0.0675 m -4.701548,4.70155 -0.237299,0.2373 m -2.141011,2.14101 0.117478,-0.11748 m 22.13335,-21.73423 -0.220792,0.22079 m -3.416606,3.41661 0.06644,-0.0665 m -2.962645,2.96265 -1.664952,1.66495 m -6.779299,6.7793 0.09602,-0.096 m -4.863484,4.86348 -0.167342,0.16734 m -2.308785,2.30879 0.09439,-0.0944 m 22.280529,-21.88141 -0.11768,0.11768 m -7.83778,7.83778 1.319553,-1.31955 m -8.11026,8.11026 -0.124525,0.12453 m -5.036127,5.03612 0.150085,-0.15008 m -2.511957,2.51195 -0.07684,0.0768 m 18.969245,-18.57012 0.05442,-0.0544 m -3.216675,3.21668 -1.00979,1.00979 m -7.061719,7.06172 0.142625,-0.14263 m -5.147249,5.14725 -0.132585,0.13259 m -2.560963,2.56096 0.05137,-0.0514 m 19.136268,-18.73715 -0.06018,0.0602 m -3.951949,3.95195 0.692074,-0.69208 m -7.791667,7.79167 -0.11711,0.11711 m -5.234198,5.2342 0.142509,-0.14251 m 16.514775,-16.11565 -0.07195,0.072 m -3.66912,3.66912 0.366506,-0.36651 m -7.696284,7.69629 -0.11427,0.11427 m -5.301773,5.30177 0.154328,-0.15433 m 16.495245,-16.09612 -0.07374,0.0737 m -3.358844,3.35884 0.09945,-0.0994 m -7.665275,7.66528 -0.11822,0.11822 m -5.339944,5.33994 0.143533,-0.14353 m 16.475714,-16.07659 -0.07552,0.0755 m -3.155802,3.1558 0.471296,-0.4713 m -8.172735,8.17274 -0.115367,0.11537 m -5.371051,5.37105 0.156253,-0.15626 m 21.057648,-20.65852 -0.06231,0.0623 m -4.647041,4.64705 0.0773,-0.0773 m -10.90476,10.90476 -0.07487,0.0749 m -5.383214,5.38321 0.157687,-0.15769 m 16.367839,-15.96871 -0.07909,0.0791 m -10.848871,10.84887 0.0512,-0.0512 m -5.27129,5.27129 -0.145286,0.14529 m 21.222806,-20.82368 0.06189,-0.0619 m -15.677441,15.67744 -0.06131,0.0613 m -5.293072,5.29307 0.1458,-0.1458 m -3.342249,3.34225 -0.09657,0.0966 m 8.766672,-8.36755 0.07141,-0.0714 m -5.138981,5.13898 -0.136075,0.13607 m -3.510357,3.51036 0.223139,-0.22314 m -2.176521,2.17652 -0.07606,0.0761 m 26.426399,-26.02728 0.117373,-0.11737 m -4.860603,4.8606 -0.05703,0.057 m -4.20131,4.20131 0.557378,-0.55737 m -7.004493,7.00449 -0.05369,0.0537 m -5.110128,5.11013 0.117969,-0.11797 m -3.49505,3.49505 -0.520864,0.52086 m -2.138808,2.13881 0.830017,-0.83001 m 25.917657,-25.51854 -0.10123,0.10123 m -4.682798,4.6828 0.06498,-0.065 m -3.5597,3.55969 -0.730879,0.73088 m -11.427194,11.4272 0.149601,-0.1496 m -3.616544,3.61654 -1.67465,1.67465 m 24.916851,-24.51773 0.657281,-0.65728 m -4.596749,4.59675 -0.06834,0.0683 m -4.224413,4.22442 0.160122,-0.16013 m -6.509315,6.50932 -0.05728,0.0573 m -4.86246,4.86246 0.181234,-0.18123 m -4.738079,4.73808 -0.515356,0.51535 m 24.358016,-23.95889 0.852978,-0.85298 m -4.463655,4.46366 -0.05672,0.0567 m -4.237724,4.23773 0.08868,-0.0887 m -6.397565,6.39757 -0.07377,0.0738 m -4.747185,4.74718 0.245986,-0.24599 m -5.214492,5.21449 -0.169661,0.16967 m 24.366665,-23.96755 0.634576,-0.63457 m -4.32534,4.32534 -0.09964,0.0996 m -4.16874,4.16874 0.06591,-0.0659 m -6.362258,6.36226 -0.09025,0.0903 m -5.085121,5.08513 0.811206,-0.81121 m 19.333779,-18.93466 -0.481681,0.48168 m -3.97739,3.97739 0.190517,-0.19051 m -4.225981,4.22598 -0.197433,0.19743 m -2.653303,2.6533 1.403075,-1.40307 m -4.881478,4.88148 -0.09977,0.0998 m -5.367204,5.3672 1.316573,-1.31657 m -7.398538,7.39854 -0.05943,0.0594 m 26.176735,-25.77761 0.344121,-0.34413 m -4.205336,4.20534 -0.266307,0.26631 m -7.307793,7.30779 3.360043,-3.36004 m -6.347976,6.34797 -0.09657,0.0966 m -5.937444,5.93745 2.114768,-2.11477 m -7.619467,7.61947 -0.0557,0.0557 m 26.236473,-25.83735 0.243316,-0.24331 m -4.171318,4.17132 -0.406562,0.40656 m -5.940733,5.94073 2.157072,-2.15707 m -3.645204,3.6452 -0.05109,0.0511 m -2.775793,2.7758 0.09337,-0.0934 m -3.709774,3.70977 -0.145317,0.14532 m -2.489756,2.48976 0.15869,-0.15869 m -5.310167,5.31016 -0.06657,0.0666 M 41.989598,254.0753 42.1505,253.9144 m -4.097191,4.09719 -0.574134,0.57413 m -5.75811,5.75811 2.107355,-2.10735 m -6.409469,6.40947 -0.09016,0.0902 m -3.646824,3.64682 0.12855,-0.12855 m -7.817566,7.81757 -0.09117,0.0912 m 26.291554,-25.89244 0.116,-0.116 m -4.048072,4.04808 -0.760634,0.76063 m -5.564284,5.56428 2.105683,-2.10568 m -6.463632,6.46363 -0.101282,0.10129 m -3.624385,3.62438 0.08929,-0.0893 m -3.235288,3.23529 -0.307903,0.3079 m -4.265621,4.26562 0.09493,-0.0949 m 26.240023,-25.8409 -0.09057,0.0906 m -4.824258,4.82426 0.953419,-0.95342 m -4.230278,4.23027 -2.14888,2.14888 m -4.495559,4.49556 0.121325,-0.12132 m -3.726039,3.72604 -0.08039,0.0804 m -3.68192,3.68192 0.0759,-0.0759 m -3.814808,3.81481 -0.161468,0.16146 m 26.197215,-25.79809 0.06428,-0.0643 m -3.855377,3.85538 -1.063498,1.0635 m -5.451048,5.45104 2.254717,-2.25471 m -6.582596,6.58259 -0.11675,0.11676 m -3.86823,3.86822 0.171438,-0.17143 m -3.752697,3.75269 -0.230891,0.23089 m -3.497431,3.49744 0.190305,-0.19031 m 22.213189,-21.81407 -1.15187,1.15187 m -5.521318,5.52132 2.375989,-2.37599 m -6.636768,6.63677 -0.112174,0.11217 m -4.109832,4.10984 0.321492,-0.32149 m -4.042102,4.0421 -0.224172,0.22417 m -3.025211,3.02521 0.241809,-0.24181 m 22.155183,-21.75606 -1.208649,1.20865 m -5.661104,5.6611 2.576962,-2.57696 m -4.226983,4.22698 -0.13317,0.13318 m -2.458359,2.45835 0.112737,-0.11273 m -3.95273,3.95273 -0.371902,0.3719 m -4.105582,4.10558 0.200737,-0.20074 m -2.520064,2.52007 -0.295341,0.29534 m 21.040888,-20.64177 1.273587,-1.27358 m -4.283145,4.28314 -2.820156,2.82016 m -1.547621,1.54762 0.158813,-0.15882 m -2.555961,2.55597 -0.126479,0.12648 m -4.138049,4.13804 0.279092,-0.27909 m -4.462931,4.46293 -0.300218,0.30022 m -2.03134,2.03134 0.217331,-0.21733 m 21.881689,-21.48257 -1.338524,1.33853 m -7.211614,7.21161 4.27664,-4.27664 m -6.824075,6.82408 -0.09435,0.0943 m -4.056699,4.0567 0.16964,-0.16964 m -4.70487,4.70487 -1.653547,1.65355 m 20.255672,-19.85655 1.453059,-1.45306 m -4.243571,4.24357 -4.250931,4.25093 m -2.720118,2.72012 0.102966,-0.10297 m -8.925441,8.92544 -1.029267,1.02927 m 21.199031,-20.79991 0.09857,-0.0986 m -0.801438,0.80144 -0.772708,0.77271 m -6.53995,6.53995 4.007349,-4.00735 m -6.937908,6.93791 -0.116771,0.11677 m -3.688919,3.68892 0.347911,-0.34791 m -5.73821,5.7382 -0.416088,0.41609 m 23.890409,-23.49128 0.0499,-0.0499 m -3.068539,3.06854 -0.105397,0.1054 m -1.614045,1.61404 0.873427,-0.87343 m -3.112759,3.11276 -3.651464,3.65147 m -3.472312,3.47231 0.102409,-0.10241 m -1.612825,1.61283 -1.832906,1.8329 m -6.199058,6.19906 0.205843,-0.20584 m 20.609403,-20.21028 -0.11263,0.11263 m -1.773037,1.77303 1.046271,-1.04627 m -2.761733,2.76174 -2.592612,2.59261 m -4.72821,4.72821 0.188945,-0.18895 m -1.94305,1.94305 -1.403494,1.4035 m -6.598365,6.59836 0.121337,-0.12134 m 20.697241,-20.29811 -0.107324,0.10732 m -5.524181,5.52418 4.940187,-4.94019 m -9.745917,9.74592 -0.265434,0.26544 m -2.866636,2.86663 0.70638,-0.70638 m -7.745858,7.74586 -0.161649,0.16165 m 19.78998,-19.39086 1.085207,-1.08521 m -2.789235,2.78924 -2.253662,2.25366 m -5.26242,5.26242 3.466537,-3.46654 m -6.112089,6.11209 -0.336796,0.3368 m -7.599816,7.59982 0.258952,-0.25896 m 23.441115,-23.04199 -0.83697,0.83697 m -2.517579,2.51758 0.631475,-0.63148 m -3.151801,3.1518 -1.490627,1.49063 m -5.051784,5.05179 3.485694,-3.4857 m -6.800132,6.80013 -0.200123,0.20013 m -7.780515,7.78051 0.356255,-0.35625 m 23.332696,-22.93358 -0.715047,0.71505 m -2.38461,2.38461 0.402957,-0.40296 m -3.010249,3.01025 -1.123441,1.12344 m -1.948702,1.94871 0.471458,-0.47146 m -3.251631,3.25163 -0.16301,0.16301 m -4.215125,4.21512 0.260584,-0.26058 m -7.516332,7.51633 -0.513745,0.51375 m 23.084668,-22.68555 0.610212,-0.61021 m -2.657939,2.65794 -0.288334,0.28833 m -3.596408,3.59641 1.059272,-1.05927 m -2.261574,2.26157 -0.251851,0.25185 m -7.852429,7.85243 0.252582,-0.25258 m -7.451342,7.45134 -0.708155,0.70816 m 23.232846,-22.83373 0.511319,-0.51132 m -2.619178,2.61918 -0.221012,0.22101 m -4.4571,4.4571 2.078394,-2.07839 m -10.232818,10.23282 -0.370309,0.37031 m -8.072776,8.07277 0.9919,-0.9919 m 22.890886,-22.49176 -0.412426,0.41243 m -2.376402,2.3764 0.155473,-0.15547 m -2.295333,2.29533 -1.673535,1.67353 m -9.060507,9.06051 0.382162,-0.38216 m -7.43603,7.43603 -0.149513,0.14951 m -1.018673,1.01867 0.278313,-0.27831 m 23.605028,-23.2059 -0.341457,0.34145 m -2.41022,2.41022 0.101395,-0.10139 m -2.016359,2.01636 -1.032294,1.03229 m -9.671209,9.67121 1.360424,-1.36043 m -8.514637,8.51464 -0.132202,0.1322 m -5.806642,5.80665 4.802323,-4.80233 m 23.559412,-23.16029 -0.212764,0.21277 m -3.976753,3.97675 1.622332,-1.62233 m -11.10739,11.10739 -0.769439,0.76944 m -7.90297,7.90297 0.114891,-0.11489 m -1.616385,1.61638 -4.590884,4.59089 m 28.278565,-27.87945 0.09576,-0.0958 m -2.606074,2.60607 -0.727467,0.72747 m -10.260459,10.26046 0.183111,-0.18311 m -8.565372,8.56537 -0.09758,0.0976 m -2.42449,2.42449 0.325103,-0.3251 m -4.240718,4.24072 -0.444415,0.44441 m 27.866682,-27.46756 0.926642,-0.92664 m -2.640166,2.64017 -0.134752,0.13475 m -10.486314,10.48631 0.11403,-0.11403 m -8.573225,8.57323 -0.08027,0.0803 m -7.195293,7.19529 0.221509,-0.22151 m 28.729234,-28.33011 -1.002342,1.00234 m -11.987035,11.98703 0.09524,-0.0952 m -8.559764,8.55977 -0.09005,0.0901 m -7.554409,7.55441 0.305168,-0.30517 m 28.574601,-28.17548 -0.989083,0.98908 m -11.54055,11.54055 0.06621,-0.0662 m -8.546529,8.54653 -0.08702,0.087 m -7.696014,7.69601 0.172243,-0.17224 m 28.507261,-28.10814 -0.907465,0.90747 m -19.847643,19.84764 0.08399,-0.084 m -7.823454,7.82346 -0.154357,0.15435 m 27.632168,-27.23304 0.288698,-0.2887 m -2.81579,2.81579 -0.108541,0.10854 m -3.649248,3.64925 0.294429,-0.29443 m -13.438556,13.43855 -0.08096,0.081 m -8.0315,8.0315 0.07976,-0.0798 m 27.531705,-27.13258 -0.183545,0.18354 m -3.182692,3.18269 1.108175,-1.10817 m -3.735636,3.73563 -1.459403,1.45941 m -11.898485,11.89848 0.07792,-0.0779 m -8.125798,8.1258 -0.09941,0.0994 m 26.752808,-26.35369 0.510111,-0.51011 m -1.489717,1.48972 -0.363056,0.36305 m -2.186065,2.18607 1.585978,-1.58598 m -3.122197,3.1222 -2.575931,2.57593 m -10.736264,10.73626 0.0719,-0.0719 m -8.241077,8.24108 -0.06804,0.068 m 25.53519,-25.13607 1.356882,-1.35688 m -2.028146,2.02815 -3.633285,3.63328 m -4.020385,4.02038 1.778407,-1.7784 m -10.431171,10.43117 -0.07526,0.0753 m -8.315184,8.31519 0.05246,-0.0525 m 25.977304,-25.57818 -0.229459,0.22946 m -4.512736,4.51273 3.621692,-3.62169 m -6.64672,6.64672 -0.924445,0.92445 m -8.768452,8.76845 0.07,-0.07 m -8.408482,8.40849 -0.05449,0.0545 m 24.784609,-24.38549 0.200022,-0.20002 m -2.928315,2.92831 -0.761719,0.76172 m -3.820093,3.8201 0.422825,-0.42283 m -9.185162,9.18516 -0.06474,0.0648 M 40.27663,268.56 l 0.143076,-0.14308 m -3.216666,3.21667 -0.568015,0.56801 m -3.664413,3.66441 0.14146,-0.14146 m -8.967684,8.96769 -0.05948,0.0595 m 16.477902,-16.07878 0.108951,-0.10895 m -3.550573,3.55058 -0.328754,0.32875 m -12.45307,12.45307 0.05422,-0.0542 m 16.530223,-16.1311 -0.09109,0.0911 m -3.888988,3.88898 0.179335,-0.17933 m -7.291591,7.29159 -0.125685,0.12569 m 11.396839,-10.99772 0.07294,-0.0729 m -4.022413,4.02241 -0.07122,0.0712 m -12.227449,12.22745 0.05445,-0.0544 m 16.518067,-16.11895 -0.05447,0.0545 m -16.255658,16.25566 0.07011,-0.0701 m 16.49146,-16.09234 -0.05941,0.0594 m -16.239773,16.23977 0.08576,-0.0858 m 16.464855,-16.06573 -0.06419,0.0642 m -16.224038,16.22404 0.101422,-0.10143 m -7.236044,7.23605 -1.483316,1.48331 m 25.08863,-24.68951 0.06898,-0.069 m -16.160201,16.1602 -0.137826,0.13783 m -8.605363,8.60536 0.893226,-0.89323 m 24.252019,-23.85289 -0.06418,0.0642 m -16.264252,16.26426 0.21054,-0.21054 m -1.542238,1.54223 -0.254194,0.2542 m -6.976706,6.9767 0.524737,-0.52473 m 20.668953,-20.26983 -0.833395,0.83339 m -11.586245,11.58625 0.321126,-0.32113 m -1.312329,1.31233 -0.874314,0.87431 m -1.648764,1.64877 0.129548,-0.12955 m -4.710936,4.71093 -0.424164,0.42417 m 25.027189,-24.62807 0.05149,-0.0515 m -3.581887,3.58189 -1.260803,1.26081 m -13.526356,13.52635 2.453366,-2.45337 m -3.685438,3.68544 -0.179025,0.17903 m -5.044316,5.04431 0.347354,-0.34735 m 24.698039,-24.29892 -0.07293,0.0729 m -4.860788,4.86079 0.962937,-0.96294 m -11.837137,11.83714 -3.90353,3.90353 m -5.048057,5.04806 0.25128,-0.25128 m 24.729156,-24.33004 -0.09437,0.0944 m -4.923882,4.92388 0.768684,-0.76868 m -11.423639,11.42364 -0.425936,0.42593 m -0.953015,0.95302 0.225738,-0.22574 m -1.615461,1.61546 -1.202359,1.20236 m -5.056842,5.05684 0.172406,-0.1724 m 24.704196,-24.30508 -0.0704,0.0704 m -5.017709,5.01771 0.605164,-0.60516 m -11.010141,11.01014 -0.156345,0.15634 m -3.909852,3.90986 1.044424,-1.04443 m -5.970522,5.97052 -0.111866,0.11187 m 19.614163,-19.21504 0.483562,-0.48356 m -10.635443,10.63544 -0.161494,0.16149 m -4.01247,4.01247 0.942533,-0.94253 m -5.900559,5.90056 -0.05094,0.0509 m 19.439833,-19.04071 0.362048,-0.36205 m -10.223907,10.22391 -0.182391,0.18239 m -4.156476,4.15647 0.887316,-0.88731 m 13.658969,-13.25985 -0.235536,0.23554 m -9.780122,9.78012 0.203287,-0.20329 m -3.644538,3.64454 -0.872001,0.872 m 14.141216,-13.74209 0.171204,-0.17121 m -9.400834,9.40084 -0.260173,0.26017 m -3.753041,3.75304 0.206184,-0.20618 m -0.697857,0.69785 -0.204498,0.2045 m 13.986858,-13.58773 0.106872,-0.10688 m -8.989298,8.9893 -0.314731,0.31473 m -3.809782,3.80979 0.168657,-0.16866 m -0.808074,0.80807 -0.154965,0.15497 m 4.944653,-4.54553 0.36929,-0.36929 m -4.104683,4.10468 -0.13113,0.13113 m -0.905894,0.90589 0.118734,-0.11873 m 5.409155,-5.01003 -0.473769,0.47377 m -3.864478,3.86448 0.0867,-0.0867 m -1.021609,1.02161 -0.103445,0.10344 m 13.500109,-13.10098 0.07434,-0.0743 m -7.745582,7.74558 -0.635758,0.63576 m -3.871012,3.87101 0.08088,-0.0809 m -1.17571,1.17571 -0.0931,0.0931 m -4.073691,4.07369 0.08397,-0.084 m 17.406175,-17.00705 -0.06394,0.0639 m -8.109203,8.10921 0.903654,-0.90366 m -4.599641,4.59964 -0.07565,0.0756 m -1.357951,1.35795 0.09956,-0.0996 m -1.529852,1.52985 -0.137567,0.13757 m -2.166101,2.1661 0.193965,-0.19396 m 22.242368,-21.84325 -0.163266,0.16327 m -5.352494,5.35249 0.120489,-0.12049 m -6.821593,6.82159 -1.171762,1.17177 m -1.820358,1.82035 0.06064,-0.0606 m -1.84191,1.84191 -0.07042,0.0704 m -1.571734,1.57173 0.108796,-0.10879 m -1.536859,1.53686 -1.989169,1.98916 m 21.787846,-21.38872 0.196323,-0.19632 m -5.325418,5.32542 -0.208938,0.20893 m -7.71867,7.71867 1.553906,-1.5539 m -4.947142,4.94714 -0.07001,0.07 m -1.805916,1.80591 0.155421,-0.15542 m -1.554895,1.5549 -1.384623,1.38462 m 20.856771,-20.45765 0.321224,-0.32122 m -5.192751,5.19275 -0.275642,0.27564 m -5.94056,5.94056 0.263082,-0.26308 m -1.776054,1.77605 -0.137088,0.13709 m -1.276765,1.27677 0.09587,-0.0959 m -1.984074,1.98408 -0.08717,0.0872 m -2.100007,2.10001 0.12749,-0.12749 m -1.310602,1.3106 -0.836814,0.83681 m 18.656273,-18.25715 1.811292,-1.81129 m -5.224855,5.22485 -0.384611,0.38461 m -5.236316,5.23632 0.19719,-0.19719 m -2.297602,2.2976 -0.107958,0.10796 m -0.962233,0.96223 0.164274,-0.16427 m -2.0761,2.0761 -0.142588,0.14259 m -3.55024,3.55024 1.22387,-1.22387 m 18.129859,-17.73074 -1.937181,1.93718 m -3.843244,3.84325 0.827258,-0.82726 m -4.921737,4.92174 -0.158633,0.15863 m -3.368482,3.36848 0.834822,-0.83482 m -2.761455,2.76145 -0.198006,0.19801 m 13.59701,-13.19789 2.022039,-2.02204 m -5.041179,5.04118 -4.350482,4.35048 m -3.755694,3.7557 0.632991,-0.63299 m -2.457468,2.45747 -0.396845,0.39684 m 13.46018,-13.06106 2.09361,-2.09361 m -5.179644,5.17965 -4.013406,4.0134 m -3.792362,3.79237 0.443925,-0.44393 m -2.17514,2.17514 -0.592631,0.59263 m 15.144672,-14.74555 0.37556,-0.37556 m -2.054039,2.05404 -0.153667,0.15367 m -5.424856,5.42485 2.285904,-2.2859 m -7.223606,7.2236 -2.705436,2.70544 m 15.142728,-14.7436 0.261001,-0.26101 m -2.076816,2.07682 -0.162042,0.16204 m -4.151165,4.15117 0.959296,-0.9593 m -7.075343,7.07534 -2.716873,2.71688 m 15.110552,-14.71143 0.214504,-0.21451 m -2.066694,2.0667 -0.189436,0.18944 m -4.145082,4.14508 0.984079,-0.98408 m -6.994164,6.99416 -0.869301,0.8693 m -1.867955,1.86796 0.84104,-0.84104 m 14.359665,-13.96055 -0.134264,0.13427 m -2.134494,2.13449 0.310927,-0.31092 m -3.412434,3.41243 -0.992175,0.99217 m -6.160154,6.16016 0.263077,-0.26308 m -2.51208,2.51208 -0.296599,0.2966 m 15.003081,-14.60396 0.118154,-0.11815 m -1.846826,1.84682 -0.475539,0.47554 m -3.132394,3.1324 0.20049,-0.20049 m -0.967435,0.96743 -0.102852,0.10285 m -5.84488,5.84488 0.06081,-0.0608 m -2.761047,2.76105 -0.155451,0.15545 m 14.944991,-14.54587 0.133171,-0.13317 m -1.735822,1.73582 -0.570828,0.57083 m -2.931186,2.93119 0.109901,-0.10991 m -1.076725,1.07673 -0.08201,0.082 m -8.696517,8.69652 0.10416,-0.10416 m 14.932067,-14.53295 -0.09709,0.0971 m -2.249942,2.24994 0.77837,-0.77837 m -3.380382,3.38038 -0.09531,0.0953 m -1.19279,1.19279 0.0731,-0.0731 m 6.217087,-5.81796 -0.105643,0.10564 m -1.756047,1.75605 0.499261,-0.49926 m -3.366957,3.36695 -0.122692,0.12269 m -1.323218,1.32322 0.05186,-0.0519 m -8.715693,8.7157 -0.05181,0.0518 m 14.829779,-14.43066 0.114193,-0.11419 m -1.094601,1.0946 -0.175289,0.17529 m -3.389901,3.3899 0.183342,-0.18334 m -1.579964,1.57996 -0.05703,0.057 m -8.695599,8.6956 0.05831,-0.0583 m 14.755464,-14.35634 -0.07444,0.0744 m -4.344761,4.34476 0.338392,-0.33839 m -1.858094,1.85809 -0.06438,0.0644 m -8.674745,8.67474 1.664987,-1.66498 m 13.030989,-12.63187 -0.0605,0.0605 m -4.131328,4.13133 0.418866,-0.41887 m -2.061647,2.06165 -0.07173,0.0717 m -8.621095,8.6211 1.767267,-1.76727 m 12.778121,-12.379 -0.07291,0.0729 m -3.895141,3.89514 0.581208,-0.58121 m -2.262959,2.26296 -0.152387,0.15239 m -8.574654,8.57465 0.623072,-0.62307 m 13.771727,-13.3726 -0.155166,0.15516 m -1.148783,1.14879 0.09966,-0.0997 m -1.791324,1.79133 -1.356774,1.35677 m -1.325588,1.32559 0.200699,-0.2007 m -8.287067,8.28706 -0.44477,0.44477 m 14.106299,-13.70717 0.06353,-0.0635 m -2.519581,2.51958 -2.976941,2.97694 m -8.475561,8.47556 0.282345,-0.28234 m 13.632637,-13.23352 -0.184881,0.18489 m -2.250806,2.2508 0.422334,-0.42233 m -2.538688,2.53868 -0.745213,0.74522 m -8.419986,8.41998 0.206462,-0.20646 m 13.453676,-13.05455 -2.198493,2.19849 m -2.899493,2.89949 0.418373,-0.41837 m -8.654434,8.65444 -0.100508,0.1005 m 11.33914,-10.94001 1.860486,-1.86049 m -4.516605,4.51661 -0.204286,0.20428 m -8.25387,8.25387 0.07707,-0.0771 m 11.492967,-11.09384 -0.456832,0.45683 m -2.715877,2.71588 0.109163,-0.10917 m -8.217798,8.2178 -0.05307,0.0531 m 10.881036,-10.48191 0.224536,-0.22454 m -2.68219,2.68219 -0.11578,0.11578 m 2.440443,-2.04132 0.247006,-0.24701 m -2.326315,2.32632 -0.215236,0.21524 m 0.145899,0.25322 2.126134,-2.12614 m -0.567859,0.96699 -1.423956,1.42395 m 0.118445,0.28068 0.827859,-0.82786 m -8.273254,8.27325 -0.06999,0.07 m 7.633834,-7.23471 0.18637,-0.18637 m -7.429897,7.42989 -0.07281,0.0728 m 7.441168,-7.04204 0.124157,-0.12416 m -7.129925,7.12993 -0.123814,0.12381 m 7.214804,-6.81568 0.131695,-0.1317 m -6.866683,6.86669 -0.127839,0.12783 m 6.948048,-6.54892 0.132278,-0.13228 m -6.542162,6.54216 -0.171231,0.17123 m 6.671487,-6.27236 0.126595,-0.1266 m -6.219066,6.21907 -0.141133,0.14113 m 6.287434,-5.88831 0.157455,-0.15745 m -3.722379,3.72238 -0.05104,0.051 m -2.334205,2.33421 0.330094,-0.33009 m 5.811556,-5.41244 -0.149483,0.14948 m -3.99709,3.99709 0.534814,-0.53481 m -1.60024,1.60024 -0.310597,0.3106 m 5.423695,-5.02457 0.128532,-0.12854 m -3.491842,3.49185 -1.573148,1.57314 m 4.916459,-4.51733 0.178161,-0.17816 m -3.369273,3.36927 -1.298525,1.29852 m 4.487933,-4.08881 0.117517,-0.11751 m -3.154726,3.15472 -0.799326,0.79933 m 3.734955,-3.33583 0.181791,-0.18179 m -2.923681,2.92368 -0.440595,0.44059 m 3.077442,-2.67832 0.132664,-0.13266 m -2.517446,2.51744 -0.14019,0.14019 m 0.552471,-0.15335 2.025022,-2.02502 m -0.408396,0.80752 -1.252326,1.25233"
         inkscape:connector-curvature="0" />
    </g>
  </g>
</svg>
