<?xml version="1.0" encoding="UTF-8" standalone="no"?>
<!-- Created with Inkscape (http://www.inkscape.org/) -->

<svg
   xmlns:dc="http://purl.org/dc/elements/1.1/"
   xmlns:cc="http://creativecommons.org/ns#"
   xmlns:rdf="http://www.w3.org/1999/02/22-rdf-syntax-ns#"
   xmlns:svg="http://www.w3.org/2000/svg"
   xmlns="http://www.w3.org/2000/svg"
   xmlns:sodipodi="http://sodipodi.sourceforge.net/DTD/sodipodi-0.dtd"
   xmlns:inkscape="http://www.inkscape.org/namespaces/inkscape"
   width="75mm"
   height="75mm"
   viewBox="0 0 75 75"
   version="1.1"
   id="svg1586"
   inkscape:version="0.92.2 2405546, 2018-03-11"
   sodipodi:docname="75.svg">
  <sodipodi:namedview
     id="base"
     pagecolor="#ffffff"
     bordercolor="#666666"
     borderopacity="1.0"
     inkscape:pageopacity="0.0"
     inkscape:pageshadow="2"
     inkscape:zoom="3.3031093"
     inkscape:cx="121.03123"
     inkscape:cy="68.979071"
     inkscape:document-units="mm"
     inkscape:current-layer="layer1"
     showgrid="false"
     inkscape:window-width="1366"
     inkscape:window-height="703"
     inkscape:window-x="0"
     inkscape:window-y="0"
     inkscape:window-maximized="1" />
  <defs
     id="defs1580" />
  <metadata
     id="metadata1583">
    <rdf:RDF>
      <cc:Work
         rdf:about="">
        <dc:format>image/svg+xml</dc:format>
        <dc:type
           rdf:resource="http://purl.org/dc/dcmitype/StillImage" />
        <dc:title></dc:title>
      </cc:Work>
    </rdf:RDF>
  </metadata>
  <g
     inkscape:label="Layer 1"
     inkscape:groupmode="layer"
     id="layer1"
     transform="translate(0,-222)">
    <g
       id="g1889">
      <path
         id="path1865"
         d="m 53.501457,241.31676 c -0.36985,-0.44566 -0.78192,-0.70081 -0.915738,-0.567 -0.36866,0.36869 0.380399,1.37729 1.022868,1.37729 0.35251,0 0.312179,-0.30504 -0.10713,-0.81029 z"
         style="fill:none;stroke:#0000ff;stroke-width:0.10000001;stroke-miterlimit:4;stroke-dasharray:none" />
      <path
         id="path1863"
         d="m 53.015468,247.42464 c 1.20378,-0.64427 1.419839,-3.43868 0.299119,-3.86875 -0.706239,-0.27103 -2.992098,2.24242 -2.992098,3.29 0,0.41968 0.615569,0.86675 1.496859,1.08711 0.0923,0.0231 0.63057,-0.20567 1.19612,-0.50836 z"
         style="fill:none;stroke:#0000ff;stroke-width:0.10000001;stroke-miterlimit:4;stroke-dasharray:none" />
      <path
         id="path1861"
         d="m 41.179163,250.58307 c 0.09235,-0.7919 -0.212328,-1.67886 -0.722032,-2.1019 -0.761228,-0.63179 -0.982993,-0.5935 -1.621695,0.28002 -0.919344,1.25733 -0.955578,2.75757 -0.07537,3.12086 1.3243,0.54658 2.262628,0.0428 2.419105,-1.29898 z"
         style="fill:none;stroke:#0000ff;stroke-width:0.10000001;stroke-miterlimit:4;stroke-dasharray:none" />
      <path
         id="path1859"
         d="m 30.888964,234.35634 c 0.66135,-0.2538 0.716536,-0.4941 0.244188,-1.06326 -1.078208,-1.29922 -3.194547,-0.52208 -2.340703,0.85953 0.379285,0.61372 0.897037,0.66403 2.096515,0.20373 z"
         style="fill:none;stroke:#0000ff;stroke-width:0.10000001;stroke-miterlimit:4;stroke-dasharray:none" />
      <path
         id="path1857"
         d="m 28.349446,234.86144 c -0.686883,-0.6869 -0.343152,-2.27234 0.602367,-2.77839 1.382803,-0.74008 4.656183,1.33704 3.776858,2.39661 -0.623637,0.75147 -3.738055,1.02299 -4.379225,0.38178 z"
         style="fill:none;stroke:#0000ff;stroke-width:0.10000001;stroke-miterlimit:4;stroke-dasharray:none" />
      <path
         id="path1855"
         d="m 42.880005,236.57632 c 0,-0.71374 -0.25514,-1.45539 -0.566973,-1.64813 -0.820263,-0.50697 -0.970134,-0.16648 -0.653126,1.48385 0.347787,1.81051 1.220099,1.92797 1.220099,0.16428 z"
         style="fill:none;stroke:#0000ff;stroke-width:0.10000001;stroke-miterlimit:4;stroke-dasharray:none" />
      <path
         id="path1853"
         d="m 37.869656,238.47021 c -0.434332,-0.70279 1.22675,-3.71519 2.392705,-4.33922 1.561428,-0.83569 2.992138,0.20383 3.24345,2.35662 0.194141,1.66297 0.07231,1.85815 -1.335757,2.13978 -2.227231,0.44546 -3.967267,0.38186 -4.300398,-0.15718 z"
         style="fill:none;stroke:#0000ff;stroke-width:0.10000001;stroke-miterlimit:4;stroke-dasharray:none" />
      <path
         id="path1851"
         d="m 42.239605,253.80382 c 1.614189,-1.83792 2.823414,-2.70124 4.125823,-2.94558 1.013309,-0.19011 1.98928,-0.58335 2.168819,-0.87387 0.67383,-1.09033 -3.304861,0.252 -5.224365,1.76259 -3.1818,2.50399 -5.745936,1.88237 -5.745936,-1.39295 0,-1.65898 0.467903,-2.29904 3.436327,-4.70066 1.459955,-1.18119 1.526299,-1.3833 0.903108,-2.7511 -0.546529,-1.19956 -0.542944,-1.55851 0.01908,-1.91504 0.919319,-0.58315 1.359067,-0.56396 1.754926,0.0766 0.180697,0.2924 0.07523,0.53163 -0.234437,0.53163 -0.995204,0 -0.600517,1.90613 0.633135,3.0577 0.657865,0.61408 1.855713,1.28025 2.661904,1.48035 3.0802,0.76455 5.57326,-2.84058 3.05286,-4.41467 -0.749961,-0.46838 -1.063212,-1.23977 -1.063212,-2.61819 0,-2.72992 -1.760209,-6.0398 -4.02885,-7.57582 -2.459125,-1.665 -7.349061,-2.12667 -9.764061,-0.92185 -1.414529,0.7057 -1.900804,0.72256 -3.366234,0.11674 -2.380048,-0.98393 -5.217675,-0.0431 -5.921308,1.96323 -0.425131,1.21221 -0.301001,1.67678 0.745763,2.79106 0.690684,0.73523 1.812148,1.33678 2.492137,1.33678 0.679993,0 1.236349,0.23923 1.236349,0.53163 0,0.2924 -0.594282,0.53163 -1.320625,0.53163 -2.093358,0 -4.543582,2.55778 -4.884299,5.09868 -0.257095,1.91728 -0.117124,2.31198 1.182408,3.33424 0.810715,0.63774 2.093023,1.30883 2.849567,1.49131 2.322603,0.56023 4.268226,2.27713 5.633279,4.97106 2.539173,5.01104 4.915945,5.29504 8.657812,1.03452 z"
         style="fill:none;stroke:#0000ff;stroke-width:0.10000001;stroke-miterlimit:4;stroke-dasharray:none" />
      <path
         id="path1849"
         d="m 35.249265,256.8854 c -0.765066,-0.55734 -1.834093,-2.01268 -2.375614,-3.23409 -1.165195,-2.62813 -1.974278,-3.37552 -5.569294,-5.1447 -3.841178,-1.89032 -4.821028,-3.40408 -4.148111,-6.40835 0.312606,-1.39565 1.08445,-2.84228 1.884777,-3.53256 l 1.355372,-1.16902 -1.132326,-1.91925 c -0.920237,-1.55975 -1.023985,-2.15703 -0.553902,-3.1888 0.95863,-2.10405 2.953704,-3.07942 5.537133,-2.70703 3.280928,0.47294 3.604346,0.45958 6.375358,-0.26342 5.510238,-1.43771 10.594479,1.24026 12.396639,6.52955 0.649901,1.90745 1.21535,2.6056 2.531901,3.12611 2.96427,1.17194 3.55651,2.00053 3.54761,4.9634 -0.01,3.27688 -0.29078,3.77263 -2.71085,4.78385 -1.036359,0.43304 -2.182701,1.14691 -2.5474,1.58637 -0.36471,0.43946 -1.838582,1.18948 -3.27528,1.66668 -1.908585,0.63396 -3.007267,1.42413 -4.079028,2.93361 -2.224968,3.13366 -4.715754,3.81431 -7.236985,1.97765 z"
         style="fill:none;stroke:#0000ff;stroke-width:0.10000001;stroke-miterlimit:4;stroke-dasharray:none" />
      <path
         id="path1847"
         d="m 42.331855,263.16993 c 0.553331,-1.45543 4.144042,-6.33016 4.861743,-6.60027 0.258968,-0.0975 0.47086,0.24368 0.47086,0.75811 0,0.99426 3.489529,-3.55126 4.034099,-5.25488 0.2032,-0.63566 0.62891,-0.84959 1.279639,-0.64305 1.344642,0.42678 2.572602,-1.47455 2.991411,-4.6318 0.217141,-1.63697 0.597501,-2.54447 1.06644,-2.54447 0.854282,0 0.9598,-1.98164 0.210471,-3.95262 -0.411311,-1.08187 -0.35637,-1.36367 0.2658,-1.36367 1.952599,0 0.0021,-4.94274 -2.63181,-6.66846 -1.180812,-0.77374 -1.247121,-0.97158 -0.556972,-1.66176 0.430872,-0.43089 0.783402,-1.36443 0.783402,-2.07454 0,-1.17713 -0.212672,-1.2911 -2.409351,-1.2911 -1.794859,0 -2.50667,-0.23728 -2.790931,-0.93036 -0.362109,-0.88288 -1.12558,-1.10189 -4.501528,-1.29134 -1.053277,-0.0591 -1.461916,-0.36447 -1.461916,-1.09251 0,-0.80056 -0.248472,-0.9354 -1.196109,-0.64908 -0.657863,0.19876 -1.423374,0.57373 -1.701139,0.83326 -0.764374,0.71421 -1.355595,0.56687 -1.355595,-0.33782 0,-0.70585 -0.172888,-0.69642 -1.347924,0.0735 -1.266296,0.82975 -1.46401,0.82245 -3.264985,-0.12064 -1.434879,-0.7514 -1.976107,-0.83675 -2.151813,-0.33935 -0.129117,0.36549 -0.912922,0.66453 -1.741796,0.66453 -1.93967,0 -3.263247,0.51272 -2.888582,1.11897 0.161768,0.26175 -0.162809,0.47592 -0.721282,0.47592 -0.558479,0 -2.140203,0.59809 -3.514946,1.32907 -1.374738,0.73099 -3.025125,1.33668 -3.667512,1.34598 -1.084173,0.0157 -1.101227,0.0676 -0.237676,0.72315 0.511671,0.38843 0.93031,0.97049 0.93031,1.29346 0,0.8102 -1.778652,1.68789 -3.42049,1.68789 -1.514816,0 -1.886271,1.2807 -0.523174,1.80379 0.746363,0.28642 0.724179,0.51672 -0.197513,2.0505 -0.571067,0.9503 -1.196348,2.39826 -1.389517,3.21767 -0.327151,1.38778 -0.274075,1.44857 0.774651,0.88728 1.611111,-0.86227 1.889656,-0.24972 0.864274,1.90063 -0.967517,2.029 -1.19336,5.3088 -0.399353,5.79955 0.271337,0.16771 0.646289,-0.17702 0.833233,-0.76607 0.186946,-0.58904 0.571418,-1.07097 0.854387,-1.07097 0.319229,0 0.305636,0.39025 -0.03583,1.02831 -0.603005,1.12677 -0.738942,4.77268 -0.227627,6.10521 0.442902,1.15424 1.132703,1.05453 1.53794,-0.22233 0.469839,-1.4804 1.329015,-1.33095 1.329015,0.2312 0,3.39247 2.800638,6.14242 6.259659,6.14636 1.508544,0.002 1.783596,0.21495 2.059973,1.59688 0.223679,1.11843 0.628953,1.59489 1.356616,1.59489 0.57071,0 1.755325,-0.7177 2.632475,-1.59489 0.877149,-0.87719 1.696025,-1.59489 1.819724,-1.59489 0.123705,0 0.224912,0.95693 0.224912,2.12652 0,2.24437 0.652604,2.74982 1.5444,1.19616 0.48778,-0.84979 0.653036,-0.80376 1.90855,0.53164 1.694761,1.80258 2.801574,1.85932 3.441382,0.17641 z"
         style="fill:none;stroke:#0000ff;stroke-width:0.10000001;stroke-miterlimit:4;stroke-dasharray:none" />
      <path
         id="path1845"
         d="m 21.056535,271.38147 c 0.620278,-0.33198 1.101074,-1.42535 1.344198,-3.05686 0.208182,-1.39702 0.978612,-3.81129 1.712058,-5.36504 0.733446,-1.55374 1.249141,-2.8809 1.145978,-2.94922 -0.103158,-0.0684 -0.856503,-0.41182 -1.674102,-0.76332 -0.817594,-0.35151 -1.894096,-1.36238 -2.392226,-2.24638 -0.609136,-1.08102 -1.253814,-1.55977 -1.968898,-1.46216 -0.933255,0.12738 -1.062771,0.54649 -1.059618,3.4288 0.0026,2.66762 0.227331,3.52184 1.196113,4.55312 1.39487,1.48484 1.496401,1.99835 0.395111,1.99835 -0.438575,0 -0.833845,0.29904 -0.878378,0.66453 -0.04454,0.3655 -0.136553,0.90377 -0.204482,1.19617 -0.06794,0.2924 -0.158382,0.77086 -0.201,1.06326 -0.04264,0.29239 -0.328745,0.0997 -0.635838,-0.4282 -0.441052,-0.75819 -0.71686,-0.82828 -1.312849,-0.33363 -0.971286,0.80613 -0.952877,1.57109 0.07305,3.03587 0.878962,1.25495 2.818154,1.54391 4.46088,0.66471 z"
         style="fill:none;stroke:#0000ff;stroke-width:0.10000001;stroke-miterlimit:4;stroke-dasharray:none" />
      <path
         id="path1843"
         d="m 59.146417,275.38354 c 0.80173,-1.14469 0.927859,-3.10535 0.403759,-6.27628 -0.36399,-2.20224 -0.582898,-2.33547 -2.061279,-1.25441 -0.867751,0.63455 -0.92139,0.93562 -0.378801,2.12652 0.347652,0.76302 0.996043,1.38731 1.440881,1.38731 1.229792,0 1.01771,2.83592 -0.30135,4.02971 l -1.110149,1.00473 0.96728,-1.68546 c 1.09583,-1.90947 0.652089,-2.83019 -0.89757,-1.86237 -0.94637,0.59105 -1.03904,0.50316 -1.03904,-0.98542 0,-0.89889 -0.2447,-2.09161 -0.54379,-2.65047 -0.42222,-0.78898 -0.3097,-1.25022 0.503341,-2.0633 1.547259,-1.54732 2.802038,-4.22965 2.854018,-6.10101 0.0639,-2.30162 -1.33449,-4.17587 -4.173789,-5.59396 -2.366301,-1.18183 -2.452082,-1.18736 -3.529711,-0.22758 -1.873761,1.66885 -2.73145,4.31879 -1.98282,6.12621 l 0.641599,1.54903 1.34008,-1.21925 c 1.226532,-1.11595 1.30438,-1.12917 0.918681,-0.156 -0.23178,0.58479 -0.459621,3.81443 -0.506341,7.17699 -0.103248,7.43284 0.202661,8.02182 4.078862,7.85316 1.942999,-0.0846 2.825991,-0.39269 3.376139,-1.17815 z"
         style="fill:none;stroke:#0000ff;stroke-width:0.10000001;stroke-miterlimit:4;stroke-dasharray:none" />
      <path
         id="path1841"
         d="m 53.536488,279.29559 c 0.326358,-0.60983 0.514189,-1.1607 0.417409,-1.22416 -3.338919,-2.18906 -3.49468,-2.14828 -2.51619,0.65874 0.68017,1.95124 1.27185,2.11064 2.098781,0.56542 z"
         style="fill:none;stroke:#ff0000;stroke-width:0.10000001;stroke-miterlimit:4;stroke-dasharray:none" />
      <path
         id="path1839"
         d="m 37.386746,272.60715 c -0.692534,-0.69256 -0.340122,-1.77197 0.575904,-1.76396 0.795043,0.007 0.814367,0.0831 0.132902,0.52349 -0.531606,0.34357 -0.575905,0.51807 -0.132902,0.52349 0.365479,0.005 0.664507,0.24737 0.664507,0.53977 0,0.60494 -0.711124,0.70653 -1.240411,0.17721 z"
         style="fill:none;stroke:#0000ff;stroke-width:0.10000001;stroke-miterlimit:4;stroke-dasharray:none" />
      <path
         id="path1837"
         d="m 45.026406,279.0275 c 0.984081,-0.57476 2.625302,-2.20901 3.647152,-3.63167 1.494829,-2.08117 1.902139,-3.19815 2.084239,-5.71566 0.20275,-2.8032 0.0168,-3.54185 -1.78607,-7.09389 -1.64112,-3.2334 -2.149149,-3.85139 -2.75368,-3.34964 -0.927259,0.76958 -3.402952,4.95109 -3.293404,5.56263 0.04471,0.24952 0.05294,0.62065 0.01828,0.82474 -0.08977,0.52915 -3.341578,-0.63454 -4.4487,-1.592 -0.834473,-0.72168 -1.036388,-0.70856 -1.960026,0.12736 -1.255015,1.13585 -2.159893,0.68424 -2.159893,-1.07798 0,-1.29221 -0.02376,-1.29905 -1.630117,-0.46834 -0.896563,0.46365 -2.272093,0.76883 -3.056733,0.67819 -1.207453,-0.13949 -1.403111,-0.38942 -1.273595,-1.6268 0.203111,-1.94051 -1.072914,-1.93489 -2.458321,0.0109 -2.753198,3.86669 -3.350021,9.58888 -1.322816,12.68291 1.140151,1.74017 5.093236,4.42913 7.825834,5.32326 3.189459,1.04363 10.294296,0.67395 12.567844,-0.65393 z"
         style="fill:none;stroke:#0000ff;stroke-width:0.10000001;stroke-miterlimit:4;stroke-dasharray:none" />
      <path
         id="path1835"
         d="m 55.599958,281.66176 c 1.215048,-1.54474 1.480388,-3.91802 0.4373,-3.91114 -0.803179,0.006 -2.943971,3.78954 -2.647301,4.67957 0.329911,0.98979 1.014222,0.75185 2.210001,-0.76843 z"
         style="fill:none;stroke:#0000ff;stroke-width:0.10000001;stroke-miterlimit:4;stroke-dasharray:none" />
      <path
         id="path1833"
         d="m 39.061171,283.19933 c -0.151236,-1.31097 -0.434965,-1.49599 -2.811642,-1.83356 -2.589702,-0.36782 -3.825659,0.1596 -3.105338,1.32515 0.441875,0.71502 3.452918,1.92202 4.853768,1.9457 1.032932,0.0175 1.204311,-0.21423 1.063212,-1.43729 z"
         style="fill:none;stroke:#ff0000;stroke-width:0.10000001;stroke-miterlimit:4;stroke-dasharray:none" />
      <path
         id="path1831"
         d="m 38.406169,286.84367 1.275726,-1.00353 -2.385464,-0.35774 c -1.312003,-0.19675 -3.066733,-0.93102 -3.899404,-1.63169 -1.146169,-0.96449 -1.663346,-1.12455 -2.128953,-0.65892 -1.195141,1.19519 -0.630118,2.4103 1.644321,3.53618 2.786406,1.37931 3.858719,1.40189 5.493774,0.1157 z"
         style="fill:none;stroke:#0000ff;stroke-width:0.10000001;stroke-miterlimit:4;stroke-dasharray:none" />
      <path
         id="path1829"
         d="m 27.69539,293.5115 c 0.913856,-0.9139 1.180234,-1.65929 0.997431,-2.79106 -0.193154,-1.19586 -0.121951,-1.36429 0.315673,-0.74672 0.310798,0.4386 0.568748,1.21611 0.573225,1.7278 0.01244,1.42314 1.006968,1.10619 1.396268,-0.445 0.451291,-1.79817 -1.190935,-4.03417 -3.435753,-4.67801 -2.162519,-0.62023 -2.137837,-1.1353 0.05411,-1.12878 1.59965,0.005 1.722345,-0.1189 1.655245,-1.66829 -0.06249,-1.44299 0.138829,-1.71569 1.461917,-1.98032 2.123845,-0.42479 1.897854,-0.93969 -1.012529,-2.30697 -1.376838,-0.64683 -3.267446,-1.87712 -4.201356,-2.73396 l -1.698023,-1.55791 -0.320643,1.40489 c -0.406642,1.78165 -1.063627,2.59794 -3.82785,4.75602 -4.244054,3.31343 -5.611855,7.34912 -3.220484,9.50203 2.059175,1.85385 2.492865,1.92074 3.04457,0.46956 0.284601,-0.74858 0.7626,-1.36106 1.062218,-1.36106 0.718279,0 0.693007,0.70236 -0.0521,1.44748 -0.441392,0.44142 -0.239993,0.95375 0.773248,1.96703 1.814084,1.81416 4.688934,1.86924 6.434828,0.12327 z"
         style="fill:none;stroke:#0000ff;stroke-width:0.10000001;stroke-miterlimit:4;stroke-dasharray:none" />
      <path
         id="path1827"
         d="m 48.504166,294.42582 c 0.812192,-2.65526 0.805722,-2.65072 1.610492,-1.12942 0.940539,1.77796 1.29181,1.80848 2.76501,0.24026 2.328029,-2.47817 2.174661,-6.62612 -0.389361,-10.53061 -0.84365,-1.28471 -1.831819,-3.34523 -2.19592,-4.57893 l -0.662008,-2.24307 -1.870282,1.81669 c -1.853779,1.80064 -3.315898,2.56689 -6.014683,3.15207 -2.164291,0.46928 -2.331119,2.29036 -0.377047,4.11582 1.602684,1.49719 1.606928,1.51532 0.355129,1.51532 -2.140384,0 -3.629944,1.43038 -3.629944,3.48573 0,2.06945 0.496578,2.32839 1.471448,0.7673 0.365192,-0.58479 1.038158,-1.06326 1.495471,-1.06326 0.688116,0 0.643525,0.23898 -0.258606,1.38589 -1.110258,1.41154 -0.895117,2.81387 0.57068,3.71982 2.159783,1.33489 6.647222,0.92349 7.129621,-0.65361 z"
         style="fill:none;stroke:#0000ff;stroke-width:0.10000001;stroke-miterlimit:4;stroke-dasharray:none" />
      <path
         id="path1520"
         d="m 43.677409,296.8757 c -3.311481,-0.70139 -6.01358,-3.09882 -6.572426,-5.8314 -0.288672,-1.41152 -0.788562,-1.8398 -3.373826,-2.89058 l -3.034948,-1.23355 0.819098,1.58403 c 1.154919,2.23347 0.544775,3.89729 -2.023833,5.51886 -3.497808,2.20816 -5.405326,2.20884 -9.799236,0.004 -3.981483,-1.99855 -5.518951,-3.64662 -5.518951,-5.91622 0,-2.25775 1.9638,-5.40689 4.648899,-7.45495 1.390282,-1.06043 2.818329,-2.4479 3.173448,-3.08325 0.5834,-1.04376 0.973939,-5.67403 0.478578,-5.67403 -0.112621,0 -1.005017,0.3365 -1.983092,0.74776 -1.505312,0.63296 -1.992863,0.63682 -3.175793,0.0251 -2.786125,-1.44086 -3.203345,-6.08916 -0.546543,-6.08916 1.523928,0 2.205,-2.13163 1.181483,-3.69783 -0.641834,-0.98214 -0.868968,-2.77124 -0.91702,-7.22326 -0.05045,-4.67328 -0.260375,-6.21767 -0.998271,-7.3439 -0.674002,-1.0287 -0.860542,-2.08144 -0.669377,-3.77756 0.190756,-1.69246 0.06083,-2.42979 -0.46364,-2.63105 -1.023841,-0.3929 -0.887329,-2.30413 0.361141,-5.05617 0.730395,-1.61001 0.894235,-2.52306 0.519933,-2.89737 -1.220047,-1.2201 -0.503708,-2.77849 1.162743,-2.52953 0.209145,0.0312 1.046424,-0.19648 1.860621,-0.50605 1.311685,-0.49874 1.374356,-0.6222 0.550047,-1.08354 -0.511671,-0.28636 -0.93031,-0.98723 -0.93031,-1.5575 0,-0.80374 0.368318,-1.03684 1.638271,-1.03684 0.901046,0 2.994244,-0.77983 4.651551,-1.73297 1.657303,-0.95313 4.377414,-2.18427 6.044689,-2.73588 2.832343,-0.93707 3.119112,-0.94545 4.367041,-0.12774 1.660375,1.08796 2.644506,1.10794 3.504909,0.0712 0.441452,-0.53194 0.874381,-0.63207 1.279395,-0.29592 0.375234,0.31141 1.416779,0.32658 2.691055,0.0392 2.253991,-0.50837 2.934991,-0.33002 2.934991,0.76868 0,0.8893 2.238211,1.48096 3.963911,1.04781 1.09556,-0.27498 1.363559,-0.0979 1.664031,1.09931 0.320249,1.27603 0.53998,1.39297 2.075939,1.10481 2.175981,-0.40823 3.145271,0.63657 2.796331,3.01418 -0.18505,1.26089 0.0771,2.16486 0.965689,3.32991 0.67083,0.87954 1.4755,2.27205 1.788171,3.09445 0.707221,1.86023 0.140229,8.68668 -0.799571,9.62653 -0.371311,0.37131 -0.934058,1.63683 -1.25055,2.81225 -0.806868,2.99663 -2.574849,5.1667 -3.55,4.35736 -0.467809,-0.38827 -0.743079,-0.41325 -0.743079,-0.0674 0,0.30212 1.036799,1.05122 2.303978,1.66468 1.26719,0.61347 2.841742,1.68784 3.499022,2.38751 1.41369,1.50487 1.993099,4.9136 1.21475,7.14647 -0.429051,1.23084 -0.394581,1.65281 0.152141,1.86261 0.449439,0.17248 0.841748,1.71084 1.077269,4.22427 0.39229,4.18651 -0.0555,5.83303 -1.952252,7.17918 -0.538369,0.38207 -0.97885,1.17531 -0.97885,1.76275 0,1.28819 -0.837588,2.996 -2.210178,4.50647 -0.828662,0.91188 -0.91372,1.38003 -0.46518,2.55985 1.403699,3.69216 -0.264821,8.6264 -3.18875,9.42999 -0.721911,0.1984 -2.508681,0.69414 -3.9706,1.10166 -1.46191,0.4075 -3.375697,0.58892 -4.252849,0.40313 z"
         style="fill:none;stroke:#ff0000;stroke-width:0.10000001;stroke-miterlimit:4;stroke-dasharray:none" />
      <path
         id="path1811"
         style="fill:none;stroke:#0000ff;stroke-width:0.10000001"
         d="m 19.077742,227.50054 -0.290788,0.29079 m -0.07665,0.47578 0.702312,-0.70232 m 0.475963,-0.0768 -1.127551,1.12756 m 0.124371,0.27475 1.397001,-1.397 m -4.325061,4.32506 -0.54772,0.54772 m 4.714189,-4.31507 0.664692,-0.66469 m -1.379166,1.37916 -0.373809,0.37381 m -3.563619,3.56362 1.005334,-1.00533 m 4.805143,-4.40602 -0.740851,0.74085 m -1.330428,1.33043 0.396489,-0.39649 m -2.764227,2.76422 -1.309425,1.30943 m 5.516741,-5.11762 0.910119,-0.91012 m -2.132404,2.13241 -0.393839,0.39383 m -2.489728,2.48973 0.513728,-0.51373 m -1.381867,1.38187 -0.429351,0.42935 m 6.007082,-5.60796 0.843495,-0.84349 m -2.457769,2.45777 -0.371618,0.37162 m -2.042664,2.04266 0.210289,-0.21029 m -1.733251,1.73325 -0.279945,0.27995 m 6.289912,-5.89079 1.177331,-1.17733 m -3.052633,3.05263 -0.328363,0.32836 m -1.828798,1.8288 0.544594,-0.54459 m -2.385499,2.38549 -0.233611,0.23362 m 7.048477,-6.64936 0.889701,-0.8897 m -3.50908,3.50908 -0.324487,0.32449 m -1.575475,1.57547 0.828902,-0.8289 m -2.924687,2.92469 -0.306319,0.30632 m 7.643914,-7.2448 0.997263,-0.99726 m -4.153446,4.15345 -1.631007,1.631 m -2.744119,2.74412 0.423846,-0.42384 m 8.90787,-8.50875 -1.345548,1.34555 m -4.563755,4.56375 1.100902,-1.1009 m -3.83831,3.83831 -0.7363,0.7363 m 9.04469,-8.64557 1.141466,-1.14146 m -5.538665,5.53866 -0.694277,0.69428 m -3.993289,3.99329 1.035503,-1.0355 m 10.362087,-9.96297 -1.580668,1.58067 m -9.949586,9.94958 1.391134,-1.39113 m 10.551152,-10.15203 -1.386256,1.38626 m -11.084324,11.08432 1.650941,-1.65094 m 11.487395,-11.08827 -1.513884,1.51388 m -11.643871,11.64387 1.122979,-1.12298 m 12.702531,-12.3034 -1.688373,1.68837 m -12.385453,12.38545 0.936032,-0.93603 m 13.805549,-13.40643 -0.567508,0.56751 m -14.612523,14.61252 0.968061,-0.96806 m 14.908792,-14.50967 -0.73566,0.73566 m -15.152315,15.15232 0.802019,-0.80202 M 31.243657,222.918 30.335393,223.82626 M 14.675212,239.48644 15.35865,238.803 m 16.464794,-16.06567 -1.059924,1.05993 m -16.287353,16.28735 0.822115,-0.82211 m 17.125441,-16.72632 -1.232076,1.23207 m -16.676971,16.67697 0.597112,-0.59711 m 17.797553,-17.39843 -1.279987,1.27999 m -17.107925,17.10792 0.615057,-0.61505 M 33.431653,222.32645 31.978,223.7801 m -17.396469,17.39647 0.669627,-0.66963 m 18.56919,-18.17006 -1.309615,1.30961 m -17.774971,17.77497 0.849708,-0.84971 m 18.557026,-18.1579 -0.433189,0.43319 m -18.756923,18.75692 1.276364,-1.27636 m 18.169012,-17.76989 -0.386215,0.38621 m -8.531958,8.53196 1.221654,-1.22165 m -9.599742,9.59974 -1.918592,1.91859 m 19.132459,-18.73333 0.337657,-0.33766 m -7.232054,7.23205 -2.442452,2.44245 m -9.574482,9.57449 2.044063,-2.04407 m 17.460188,-17.06106 -0.32894,0.32894 m -9.828129,9.82813 3.029247,-3.02925 m -10.254327,10.25433 -1.986585,1.98658 m 19.309496,-18.91037 0.316416,-0.31642 m -6.852942,6.85294 -0.508145,0.50815 m -3.137411,3.13741 0.67807,-0.67807 m -7.90985,7.90985 -1.771474,1.77147 m 19.455038,-19.05591 0.304806,-0.30481 m -6.689447,6.68945 -0.558284,0.55828 m -3.387142,3.38715 0.380671,-0.38068 m -8.134676,8.13468 -1.338837,1.33884 m 19.691517,-19.2924 0.294289,-0.29429 m -6.507565,6.50757 -0.304363,0.30436 m -3.982109,3.98211 0.281851,-0.28185 m -8.253433,8.25343 -1.227435,1.22744 m 19.966899,-19.56778 0.284247,-0.28424 m -6.396706,6.3967 -0.264979,0.26498 m -4.290317,4.29032 0.200095,-0.2001 m -8.650229,8.65023 -0.821464,0.82146 m 20.207487,-19.80836 0.283406,-0.28341 m -6.295048,6.29505 -0.211302,0.2113 m -4.573855,4.57386 0.185297,-0.1853 m -8.936337,8.93634 -0.691807,0.69181 m 20.507779,-20.10866 0.316224,-0.31622 m -6.22979,6.22979 -0.213711,0.21371 m -4.798564,4.79856 0.177928,-0.17793 m -9.058888,9.05889 -0.734035,0.73404 m 20.844078,-20.44496 0.336568,-0.33657 m -6.200367,6.20037 -0.210181,0.21018 m -5.016012,5.01601 0.185353,-0.18535 m -9.384751,9.38475 -0.58062,0.58062 m 21.1871,-20.78798 0.37404,-0.37404 m -6.20192,6.20192 -0.206651,0.20665 m -5.231261,5.23126 0.226256,-0.22625 m -9.640653,9.64065 -0.532844,0.53285 m 21.507489,-21.10837 0.692445,-0.69245 m -6.461772,6.46178 -0.263194,0.26319 m -2.437152,2.43715 0.34127,-0.34127 m -3.023396,3.0234 -0.26035,0.26035 m -10.111319,10.11132 0.475115,-0.47512 m 23.16309,-22.76397 -1.511873,1.51188 m -6.33037,6.33037 0.311188,-0.31119 m -2.157489,2.15749 -1.212414,1.21241 m -2.477828,2.47783 0.294443,-0.29444 m -10.094139,10.09414 -0.429162,0.42916 m 22.908554,-22.50943 1.060734,-1.06074 m -7.526456,7.52646 -0.372417,0.37242 m -1.856584,1.85658 0.06998,-0.07 m -3.557567,3.55756 -0.349289,0.34929 m -10.366567,10.36657 0.410299,-0.4103 m 23.809757,-23.41063 -0.254512,0.25451 m -7.612125,7.61212 0.43453,-0.43453 m -2.162202,2.16221 -0.102621,0.10262 m -1.824896,1.82489 0.139782,-0.13978 m -1.910647,1.91065 -0.412698,0.4127 m -10.426071,10.42607 0.350268,-0.35027 m 24.05756,-23.65844 -0.320968,0.32097 m -7.527712,7.52771 0.523657,-0.52365 m -2.244673,2.24467 -0.09858,0.0986 m -2.011863,2.01186 0.150296,-0.1503 m -1.82771,1.82771 -0.476108,0.47611 m -10.485574,10.48557 0.298084,-0.29808 m 24.345434,-23.94631 -0.512224,0.51222 m -7.366417,7.36642 0.612785,-0.61279 m -2.323949,2.32395 -0.12454,0.12454 m -2.09114,2.09114 0.14078,-0.14078 m -1.78038,1.78038 -0.564759,0.56476 m -10.540951,10.54095 0.287359,-0.28736 m 24.603984,-24.20486 -0.809162,0.80917 m -7.058956,7.05895 0.63022,-0.63022 m -2.431004,2.43101 -0.147566,0.14756 m -2.075771,2.07577 0.08663,-0.0866 m -1.736548,1.73655 -0.660138,0.66014 m -1.888809,1.8888 0.211723,-0.21172 m -8.63167,8.63167 -0.242169,0.24217 m 23.982773,-23.58365 1.194693,-1.19469 m -7.203606,7.2036 -0.734923,0.73493 m -2.090145,2.09014 0.196974,-0.19697 m -3.894598,3.89459 -3.275415,3.27542 m -8.037627,8.03763 0.269985,-0.26999 m 25.179948,-24.78082 -1.38844,1.38844 m -6.45795,6.45795 0.690731,-0.69074 m -2.83894,2.83894 -0.243589,0.24359 m -7.703453,7.70346 4.083227,-4.08323 m -9.348398,9.3484 -0.121596,0.12159 m -1.984821,1.98482 0.301422,-0.30142 m 25.495902,-25.09678 -1.413319,1.41332 m -6.502634,6.50264 0.727701,-0.7277 m -3.063892,3.06389 -0.307776,0.30777 m -7.830502,7.83051 4.32639,-4.32639 m -9.848646,9.84864 -1.755811,1.75581 m 25.478494,-25.07937 0.67401,-0.67401 m -7.145572,7.14557 -0.389779,0.38978 m -3.379157,3.37916 0.404899,-0.4049 m -1.350736,1.35074 -0.300104,0.3001 m -3.10577,3.10577 1.016866,-1.01687 m -4.174796,4.1748 -0.753703,0.7537 m -6.845816,6.84582 1.380021,-1.38002 m 25.128351,-24.72923 -0.301752,0.30175 m -7.043581,7.04358 0.241753,-0.24175 m -3.705354,3.70535 -1.519474,1.51948 m -2.66024,2.66024 0.611984,-0.61199 m -4.776219,4.77622 -0.515912,0.51591 m -6.710741,6.71075 1.150851,-1.15086 m 25.713389,-25.31426 -0.295344,0.29534 m -7.131529,7.13153 0.371676,-0.37167 m -4.05511,4.05511 -1.061781,1.06178 m -2.882011,2.88201 0.525123,-0.52513 m -5.106112,5.10612 -0.595958,0.59595 m -6.530555,6.53056 1.044539,-1.04454 m 26.199766,-25.80064 -0.407312,0.40731 m -6.889538,6.88954 0.267889,-0.26789 m -4.456871,4.45687 -0.678779,0.67878 m -2.92223,2.92223 0.429186,-0.42919 m -5.736192,5.73619 -0.380942,0.38095 m -6.398728,6.39872 0.865622,-0.86562 m 26.693957,-26.29483 -0.508043,0.50804 m -6.682976,6.68298 0.303187,-0.30319 m -7.857438,7.85744 -0.2902,0.2902 m -6.126827,6.12682 0.336724,-0.33672 m -5.911729,5.91173 -0.751489,0.75149 m 27.15156,-26.75244 0.734401,-0.7344 m -6.828457,6.82846 -0.35376,0.35376 m -14.379057,14.37905 0.299176,-0.29917 m -5.915719,5.91572 -0.637356,0.63735 m 27.176263,-26.77714 0.896846,-0.89684 m -6.587519,6.58751 -0.42797,0.42797 m -14.733778,14.73378 0.189877,-0.18987 m -5.83133,5.83133 -0.615906,0.6159 m 27.150864,-26.75174 0.995916,-0.99592 m -6.33423,6.33423 -0.396747,0.39675 m -15.111931,15.11193 0.201055,-0.20105 m -5.934974,5.93497 -0.539631,0.53963 m 27.167488,-26.76836 0.985874,-0.98588 m -5.957289,5.95729 -0.43433,0.43433 m -15.357216,15.35722 0.11894,-0.11894 m -5.975216,5.97521 -0.517928,0.51793 m 27.312125,-26.913 0.903943,-0.90394 m -5.641642,5.64164 -0.461124,0.46112 m -15.608121,15.60812 0.08989,-0.0899 m -6.068528,6.06853 -0.496225,0.49622 m 27.551609,-27.15248 0.7921,-0.7921 m -5.421647,5.42164 -0.457198,0.4572 m -15.860894,15.8609 0.114351,-0.11436 m -6.213477,6.21348 -0.474521,0.47452 m 27.846628,-27.4475 0.664695,-0.6647 m -5.230479,5.23048 -0.494176,0.49418 m -16.03348,16.03348 0.08838,-0.0884 m -6.318165,6.31816 -0.512359,0.51236 m 28.186121,-27.78699 0.559955,-0.55996 m -5.129288,5.12929 -0.478409,0.47841 m -16.21669,16.21669 0.09229,-0.0923 m -6.453847,6.45385 -0.520841,0.52084 m 28.51537,-28.11625 0.445175,-0.44517 m -5.036061,5.03606 -0.47639,0.47639 m -16.386151,16.38615 0.1242,-0.1242 m -6.588873,6.58887 -0.587601,0.5876 m 28.87668,-28.47756 0.371567,-0.37156 m -4.986178,4.98618 -0.47464,0.47464 m -16.523136,16.52313 0.123635,-0.12363 m -6.71543,6.71543 -0.66283,0.66283 m 29.237991,-28.83887 0.296865,-0.29687 m -4.962834,4.96284 -0.47917,0.47917 m -16.622117,16.62211 0.118979,-0.11897 m -6.798531,6.79853 -0.781515,0.78151 m 29.599302,-29.20018 0.277771,-0.27777 m -4.995098,4.9951 -0.459629,0.45963 m -16.745169,16.74517 0.135789,-0.13579 m -6.883994,6.88399 -0.919304,0.91931 m 29.960614,-29.5615 0.258676,-0.25867 m -5.032539,5.03254 -0.454325,0.45432 m -16.841585,16.84159 0.1567,-0.1567 m -6.98078,6.98078 -1.057093,1.05709 m 30.321925,-29.9228 0.239582,-0.23958 m -5.089493,5.08949 -0.429507,0.42951 m -16.918879,16.91887 0.158486,-0.15848 m -5.06581,5.06581 -0.552651,0.55265 m -2.653985,2.65398 1.26903,-1.26903 m 29.646923,-29.2478 -0.272403,0.27241 m -5.290964,5.29096 0.40469,-0.40469 m -17.240588,17.24059 -0.160272,0.16027 m -8.346782,8.34678 3.381396,-3.38139 m 27.972288,-27.57317 -0.380055,0.38006 m -5.349431,5.34943 0.411247,-0.41125 m -17.284149,17.28415 -0.162058,0.16206 m -8.579294,8.57929 3.449845,-3.44984 m 28.309283,-27.91016 -0.455729,0.45572 m -5.39887,5.39887 0.393186,-0.39318 m -17.312121,17.31212 -0.163845,0.16384 m -8.811805,8.81181 3.462159,-3.46216 m 28.770022,-28.3709 -0.599013,0.59901 m -5.448308,5.44831 0.375126,-0.37512 m -17.323814,17.32381 -0.163129,0.16313 m -9.063099,9.0631 3.486862,-3.48686 m 29.255377,-28.85626 -0.843568,0.84357 m -5.433479,5.43348 0.350309,-0.35031 m -4.047802,4.0478 -0.462475,0.46248 m -12.981426,12.98142 0.173892,-0.17389 m -5.973667,5.97367 -1.56707,1.56707 m -1.94701,1.94701 0.762146,-0.76215 m 32.319423,-31.9203 -0.933411,0.93341 m -5.437927,5.43793 0.346263,-0.34626 m -3.695965,3.69596 -1.942465,1.94247 m -11.84351,11.84351 0.177597,-0.1776 m -6.20091,6.20091 -1.272379,1.27238 m -2.268918,2.26892 0.586402,-0.58641 m 32.660089,-32.26096 -0.872763,0.87276 m -5.416341,5.41634 0.3401,-0.3401 m -3.444177,3.44418 -2.651029,2.65103 m -11.376971,11.37697 0.214299,-0.2143 m -6.461151,6.46115 -0.997169,0.99717 m -2.571345,2.57134 0.546703,-0.5467 m 32.818522,-32.4194 -0.812066,0.81207 m -5.348617,5.34862 0.329158,-0.32916 m -3.354832,3.35483 -3.35758,3.35758 m -10.745222,10.74522 0.251732,-0.25173 m -6.649385,6.64938 -0.834129,0.83413 m -2.855185,2.85519 0.540747,-0.54075 m 32.933328,-32.5342 -0.757501,0.7575 m -5.244032,5.24403 0.302721,-0.30272 m -3.26641,3.26641 -3.797588,3.79759 m -10.363624,10.36362 0.292281,-0.29228 m -6.854734,6.85473 -0.681681,0.68168 m -3.062495,3.0625 0.491992,-0.49199 m 33.047182,-32.64806 -0.712937,0.71293 m -5.169477,5.16948 0.308152,-0.30815 m -3.235995,3.23599 -0.120371,0.12038 m -3.854719,3.85471 3.08399,-3.08399 m -12.934112,12.93412 -0.336401,0.3364 m -7.304029,7.30403 0.576775,-0.57678 m -3.355801,3.3558 -0.454849,0.45485 m 32.960285,-32.56116 0.638891,-0.63889 m -5.434634,5.43463 -0.314696,0.3147 m -2.985416,2.98541 0.05586,-0.0559 m -1.049825,1.04983 -2.889159,2.88916 m -10.182726,10.18272 0.389329,-0.38933 m -7.281384,7.28139 -0.47187,0.47187 m -3.405256,3.40525 0.417707,-0.4177 m 33.24974,-32.85062 -0.484651,0.48465 m -5.139863,5.13986 0.303242,-0.30324 m -4.495305,4.49531 -2.557481,2.55748 m -10.263533,10.26353 0.403108,-0.40311 m -7.401856,7.40186 -0.450121,0.45012 m -3.551587,3.55159 0.403151,-0.40315 m 33.377085,-32.97797 -0.368822,0.36883 m -5.177154,5.17715 0.293547,-0.29355 m -4.655147,4.65515 -2.259046,2.25905 m -10.352482,10.35248 0.416887,-0.41689 m -7.534216,7.53422 -0.432862,0.43286 m -3.681542,3.68154 0.385599,-0.3856 m 33.555223,-33.1561 -0.203784,0.20379 m -5.336613,5.33661 0.309014,-0.30902 m -4.795747,4.79575 -1.979851,1.97985 m -10.441433,10.44143 0.43453,-0.43453 m -7.670439,7.67044 -0.415604,0.41561 m -3.809294,3.80929 0.365846,-0.36584 m 33.794402,-33.39528 -0.12071,0.12071 m -5.475149,5.47515 0.307599,-0.3076 m -4.909021,4.90902 -1.620289,1.62029 m -10.621195,10.62119 0.421414,-0.42141 m -7.775904,7.7759 -0.395735,0.39574 m -3.9057,3.9057 0.312135,-0.31214 m 34.124768,-33.72564 -0.07745,0.0774 m -5.665053,5.66505 0.303765,-0.30376 m -4.995186,4.99519 -1.310237,1.31023 m -10.776138,10.77614 0.408299,-0.4083 m -7.840897,7.8409 -0.414613,0.41461 m -4.003832,4.00383 0.288225,-0.28822 m 34.456137,-34.05702 -0.06726,0.0673 m -5.853692,5.85369 0.30093,-0.30093 m -5.068415,5.06841 -1.013123,1.01313 m -10.940419,10.94042 0.408338,-0.40834 m -7.910025,7.91002 -0.433171,0.43317 m -4.101963,4.10197 0.275788,-0.27579 m 34.866274,-34.46715 -0.147318,0.14732 m -6.064865,6.06486 0.308597,-0.3086 m -3.770107,3.77011 -0.05292,0.0529 m -1.947211,1.94721 0.686644,-0.68665 m -11.486396,11.4864 -0.390498,0.3905 m -7.9883,7.9883 0.427691,-0.42769 m -4.388474,4.38847 -0.261963,0.26196 m 35.316633,-34.91751 0.219437,-0.21943 m -6.192066,6.19206 -0.30904,0.30904 m -3.738525,3.73853 0.135968,-0.13597 m -1.141179,1.14118 -0.418794,0.41879 m -11.420219,11.42022 0.372658,-0.37266 m -7.992189,7.99219 -0.416895,0.4169 m -4.293027,4.29303 0.192322,-0.19233 m 35.706346,-35.30722 -0.316462,0.31646 m -6.497972,6.49797 0.309482,-0.30948 m -4.05745,4.05745 -1.115456,1.11546 m -11.650188,11.65018 0.354819,-0.35481 m -8.009461,8.00946 -0.42991,0.42991 m -4.363308,4.3633 0.192667,-0.19266 m 35.95385,-35.55473 -0.298738,0.29874 m -6.713132,6.71313 0.301988,-0.30199 m -4.19651,4.19651 -0.59241,0.59241 M 30.729822,250.173 31.07331,249.82951 m -7.997339,7.99734 -0.436273,0.43627 m -4.45644,4.45644 0.187647,-0.18765 m 36.210214,-35.81109 -0.326002,0.326 m -6.908421,6.90843 0.305194,-0.3052 m -16.377406,16.37741 -0.324606,0.3246 m -8.091131,8.09113 0.437706,-0.4377 m -4.809581,4.80958 -0.170189,0.17019 m 36.262518,-35.8634 0.29846,-0.29846 m -7.072787,7.07279 -0.3084,0.3084 m -16.326539,16.32654 0.305723,-0.30572 m -7.958722,7.95872 -0.439139,0.43914 m -4.62769,4.62769 0.195028,-0.19503 m 36.497149,-36.09803 -0.239,0.239 m -7.257032,7.25703 0.311606,-0.3116 m -16.288498,16.2885 -0.302693,0.30269 m -8.038973,8.03897 0.418925,-0.41892 m -4.927642,4.92764 -0.260365,0.26036 m 36.548594,-36.14947 0.261262,-0.26126 m -7.278832,7.27883 -0.290952,0.29095 M 31.560727,250.93858 31.85,250.64931 m -7.84307,7.84307 -0.42632,0.42632 m -4.942823,4.94282 0.355031,-0.35503 m 36.536907,-36.13778 -0.272481,0.27248 m -7.331576,7.33157 0.296955,-0.29695 m -16.191982,16.19198 -0.274396,0.2744 m -7.912704,7.9127 0.423702,-0.4237 m -5.099048,5.09905 -0.472034,0.47203 m -3.0179,3.0179 0.115459,-0.11546 m 39.867176,-39.46805 -0.325584,0.32558 m -7.28266,7.28266 0.302958,-0.30296 m -5.989331,5.98934 -0.600312,0.60031 m -9.842583,9.84258 0.287898,-0.2879 m -7.683727,7.68373 -0.409883,0.40988 m -5.407372,5.40738 0.642167,-0.64217 m -2.964561,2.96456 -1.059457,1.05946 m 40.016717,-39.6176 0.408467,-0.40847 m -7.281166,7.28117 -0.292831,0.29283 m -6.349385,6.34939 1.043829,-1.04383 m -10.499827,10.49982 -0.28373,0.28373 m -7.698721,7.69872 0.394322,-0.39432 m -5.249385,5.24939 -0.986333,0.98633 m -3.23872,3.23872 1.528795,-1.52879 m 38.956369,-38.55725 -0.427255,0.42725 m -7.061652,7.06166 0.276716,-0.27672 m -5.405177,5.40518 -1.264451,1.26445 m -9.657167,9.65717 0.27776,-0.27776 m -7.443743,7.44374 -0.425948,0.42595 m -9.459034,9.45903 4.514112,-4.51411 m 36.103836,-35.70472 -0.51051,0.51051 m -6.904811,6.90481 0.287324,-0.28732 m -5.333236,5.33324 -1.333323,1.33332 m -9.636819,9.63682 0.303523,-0.30352 m -7.299357,7.29935 -0.457575,0.45758 m -7.542802,7.5428 2.508022,-2.50802 m -4.381206,4.3812 -0.213923,0.21393 m 39.552124,-39.153 0.925176,-0.92518 m -6.977812,6.97781 -0.298532,0.29853 m -6.364954,6.36496 0.43686,-0.43686 m -9.730967,9.73096 -0.32297,0.32297 m -7.314886,7.31489 0.489201,-0.4892 m -5.653206,5.65321 -0.460831,0.46083 m -1.981795,1.98179 1.16281,-1.16281 m -3.164303,3.16431 -0.226306,0.2263 m 38.857946,-38.45882 1.513344,-1.51335 m -6.827935,6.82794 -0.310425,0.31042 m -6.354751,6.35475 0.378584,-0.37858 m -9.641401,9.6414 -0.330437,0.33044 m -7.190172,7.19017 0.531496,-0.5315 m -5.817189,5.81719 -0.06422,0.0642 m -2.314943,2.31494 0.673694,-0.67369 m -2.794825,2.79482 -0.239154,0.23915 m 38.822863,-38.42374 1.455725,-1.45572 m -6.691366,6.69136 -0.329855,0.32986 m -6.337013,6.33701 0.357912,-0.35791 m -9.589439,9.58944 -0.337904,0.3379 m -7.261148,7.26115 0.829735,-0.82973 m -7.967828,7.96782 -0.427584,0.42759 m -2.428442,2.42844 0.225956,-0.22595 m 39.932093,-39.53298 -1.236531,1.23653 m -5.689256,5.68926 0.372781,-0.37278 m -6.309582,6.30958 -0.345918,0.34592 m -9.558668,9.55867 0.345372,-0.34537 m -6.549523,6.54952 -1.435188,1.43519 m -7.15305,7.15305 0.165354,-0.16536 m -2.373845,2.37385 -0.263653,0.26365 m 39.027659,-38.62854 1.058236,-1.05823 m -6.493718,6.49372 -0.415706,0.4157 m -6.271062,6.27106 0.37656,-0.37656 m -3.888292,3.8883 -0.67451,0.67451 m -5.319026,5.31902 0.354121,-0.35412 m -6.278755,6.27876 -2.037058,2.03705 m -9.312107,9.31211 0.285933,-0.28593 m 39.729533,-39.33041 -0.881667,0.88166 m -6.007666,6.00767 0.496129,-0.49613 m -6.353785,6.35379 -4.863936,4.86393 m -4.994328,4.99433 0.362861,-0.36286 m -6.108287,6.10829 -2.661791,2.66179 m -8.876177,8.87617 0.307737,-0.30773 m 39.667756,-39.26864 -0.742559,0.74256 m -6.205249,6.20525 0.619825,-0.61982 m -6.345108,6.3451 -5.267439,5.26744 m -4.614644,4.61465 0.371088,-0.37109 m -5.87724,5.87724 -3.396993,3.39699 m -8.340505,8.34051 0.279691,-0.27969 m 39.632672,-39.23355 -0.637244,0.63724 m -6.395733,6.39573 0.743521,-0.74352 m -6.336746,6.33675 -3.523508,3.52351 m -1.953166,1.95316 0.117471,-0.11747 m -4.167067,4.16707 -0.379315,0.37931 m -5.892217,5.89222 0.622161,-0.62216 m -3.189665,3.18966 -0.82881,0.82881 m -7.915376,7.91538 0.294299,-0.2943 m 39.559439,-39.16031 -0.536433,0.53643 m -6.586191,6.58619 0.889524,-0.88952 m -6.328835,6.32883 -3.402485,3.40249 m -2.330403,2.3304 0.101618,-0.10162 m -3.932158,3.93216 -0.385991,0.38599 m -5.538895,5.5389 0.416918,-0.41692 m -3.752054,3.75205 -0.863773,0.86377 m -7.427912,7.42792 0.305174,-0.30518 m 39.506359,-39.10723 -0.452042,0.45204 m -6.780474,6.78047 1.072938,-1.07294 m -6.34624,6.34624 -3.364728,3.36473 m -6.616241,6.61624 0.372114,-0.37211 m -5.421944,5.42194 -0.396404,0.39641 m -4.665483,4.66548 0.60827,-0.60827 m -7.289506,7.28951 -0.345042,0.34504 m 39.390854,-38.99173 0.392793,-0.3928 m -6.110458,6.11046 -1.28009,1.28009 m -8.405873,8.40587 3.333581,-3.33358 m -9.665545,9.66555 -0.358237,0.35823 m -5.427597,5.4276 0.38394,-0.38394 m -4.93009,4.93009 -0.626822,0.62682 m -6.479985,6.47999 0.360418,-0.36042 m 39.365621,-38.9665 -0.367358,0.36736 m -7.099332,7.09933 1.403633,-1.40363 m -6.336519,6.33652 -3.366789,3.36679 m -6.72009,6.72009 0.37466,-0.37466 m -5.480629,5.48063 -0.368452,0.36845 m -5.362363,5.36236 0.568852,-0.56885 m -6.34936,6.34936 -0.393679,0.39368 m 39.314367,-38.91525 0.341924,-0.34192 m -5.957886,5.95789 -1.584947,1.58494 m -8.194757,8.19476 3.401275,-3.40127 m -9.759339,9.75933 -0.384006,0.38401 m -5.556625,5.55662 0.370331,-0.37033 m -5.415587,5.41559 -0.561704,0.56171 m -5.766446,5.76644 0.430529,-0.43053 m 39.13734,-38.73822 -0.315804,0.31581 m -7.269194,7.26919 1.73297,-1.73297 m -6.405843,6.40585 -3.501718,3.50171 m -2.9763,2.9763 0.06991,-0.0699 m -3.412849,3.41285 -0.379431,0.37943 m -5.826139,5.82614 0.545601,-0.5456 m -5.669213,5.66921 -0.558451,0.55845 m -5.338139,5.33814 0.462204,-0.4622 m 39.000442,-38.60132 -0.289552,0.28955 m -7.304573,7.30457 1.848085,-1.84808 m -6.423973,6.42397 -3.611221,3.61122 m -2.9869,2.9869 0.168174,-0.16817 m -3.461908,3.46191 -0.374855,0.37485 m -5.930138,5.93014 0.558991,-0.55899 m -5.825999,5.826 -0.595822,0.59582 m -4.955388,4.95539 0.491707,-0.49171 m 38.851419,-38.45229 -0.270765,0.27076 m -7.294014,7.29401 1.933401,-1.9334 m -6.450777,6.45078 -3.773018,3.77302 m -2.882167,2.88217 0.236646,-0.23665 m -3.544215,3.54421 -0.37028,0.37028 m -6.172943,6.17295 0.710237,-0.71024 m -5.994494,5.99449 -0.642992,0.643 m -4.550179,4.55018 0.58484,-0.58484 m 38.638767,-38.23965 -0.272365,0.27237 m -7.235372,7.23537 1.99809,-1.99809 m -6.469992,6.46999 -3.936711,3.93671 m -2.790197,2.7902 0.370821,-0.37082 m -3.678063,3.67806 -0.357214,0.35721 m -6.27316,6.27317 0.749596,-0.7496 m -6.216342,6.21634 -0.642716,0.64272 m -4.133291,4.13329 0.614688,-0.61469 m 38.430275,-38.03115 -0.273966,0.27396 m -7.170879,7.17088 2.056928,-2.05693 m -6.482217,6.48222 -4.202825,4.20283 m -2.538942,2.53894 0.420606,-0.42061 m -3.772789,3.77279 -0.357145,0.35715 m -6.311464,6.31146 0.725859,-0.72586 m -6.40934,6.40934 -0.805008,0.80501 m -3.580446,3.58045 0.782495,-0.7825 m 38.07718,-37.67806 -0.275567,0.27557 m -7.101187,7.10119 2.111143,-2.11115 m -6.498842,6.49884 -4.466587,4.46659 m -2.265824,2.26583 0.504472,-0.50447 m -3.923177,3.92317 -0.355886,0.35589 m -6.275654,6.27565 0.681201,-0.6812 m -6.628831,6.62883 -0.805925,0.80593 m -3.062026,3.06202 0.694215,-0.69421 m 37.816574,-37.41745 -0.267219,0.26721 m -7.057552,7.05756 2.171952,-2.17196 m -6.463138,6.46314 -6.698188,6.69819 m -3.856728,3.85673 0.344289,-0.34429 m -5.959784,5.95978 -0.544968,0.54497 m -7.287098,7.2871 0.959204,-0.9592 m -2.303875,2.30387 -1.168006,1.16801 m 38.003442,-37.60432 0.260346,-0.26035 m -5.024605,5.02461 -2.248932,2.24893 m -10.797381,10.79738 6.638713,-6.63871 m -10.288223,10.28822 -0.334449,0.33445 m -6.074115,6.07411 0.49682,-0.49682 m -7.176128,7.17613 -2.609072,2.60907 m 37.285902,-36.88678 0.264147,-0.26414 m -4.89645,4.89645 -2.361323,2.36132 m -10.577829,10.57783 6.570494,-6.5705 m -10.324653,10.32466 -0.34912,0.34912 m -5.896895,5.89689 0.358858,-0.35886 m -7.480451,7.48046 -1.950112,1.95011 m 36.77221,-36.37309 0.267948,-0.26795 m -4.797849,4.79785 -0.33694,0.33694 m -2.122814,2.12281 1.32612,-1.32612 m -5.140232,5.14024 -6.292647,6.29264 m -4.440379,4.44038 0.344714,-0.34471 m -5.610802,5.6108 -0.436991,0.43699 m -8.891623,8.89162 1.360623,-1.36062 m 35.171498,-34.77237 -0.27175,0.27175 m -4.785305,4.7853 0.357805,-0.3578 m -1.235724,1.23572 -1.365529,1.36553 m -9.815086,9.81509 6.309832,-6.30984 m -10.461808,10.46181 -0.375912,0.37591 m -5.521809,5.52181 1.301546,-1.30154 m -9.271154,9.27115 -0.756511,0.75651 m 35.735658,-35.33653 0.288424,-0.28843 m -4.620525,4.62053 -0.36096,0.36096 m -2.462951,2.46295 1.551735,-1.55174 m -4.624254,4.62426 -5.725991,5.72599 m -5.239266,5.23926 0.407426,-0.40742 m -2.382931,2.38293 -3.268779,3.26878 m -9.057684,9.05768 0.553213,-0.55321 m 35.314717,-34.9156 -0.278666,0.27867 m -4.579853,4.57985 0.3446,-0.3446 m -1.257732,1.25774 -1.801063,1.80106 m -7.587922,7.58792 5.250459,-5.25046 m -10.851057,10.85106 -0.510787,0.51079 m -5.135985,5.13598 2.910529,-2.91053 m -11.780635,11.78064 -0.419058,0.41905 m 35.512011,-35.11288 0.259247,-0.25925 m -4.411742,4.41174 -0.374857,0.37486 m -9.576891,9.57689 8.742083,-8.74208 m -14.683558,14.68355 -0.654277,0.65428 m -4.792,4.792 2.19743,-2.19743 m -11.727046,11.72705 -0.444128,0.44412 m 35.571004,-35.17188 0.228071,-0.22807 m -4.344916,4.34492 -0.369765,0.36976 m -8.8073,8.8073 8.12469,-8.12469 m -14.398635,14.39864 -0.877446,0.87744 m -4.25186,4.25186 1.314149,-1.31414 m -11.658828,11.65882 -0.493597,0.4936 m 35.562842,-35.16372 0.22081,-0.22081 m -4.224146,4.22415 -8.345966,8.34596 m -3.732254,3.73226 0.770811,-0.77081 m -3.635574,3.63557 -1.058232,1.05823 m -4.218487,4.21849 0.829438,-0.82944 m -11.59061,11.59061 -0.590932,0.59093 m 35.558904,-35.15978 0.266211,-0.26621 m -4.175138,4.17514 -1.464641,1.46464 m -6.266339,6.26634 3.573938,-3.57394 m -6.05831,6.05831 -5.397568,5.39757 m -4.481766,4.48177 0.643069,-0.64307 m -11.522393,11.52239 -0.688267,0.68827 m 34.355983,-33.95686 1.510596,-1.5106 m -4.114761,4.11476 -1.184908,1.18491 m -6.091508,6.09151 2.615046,-2.61505 m -4.623351,4.62335 -5.708238,5.70824 m -5.081324,5.08132 0.565694,-0.56569 m -11.469926,11.46993 -0.785603,0.7856 m 34.466825,-34.0677 1.414569,-1.41457 m -4.078256,4.07825 -0.99228,0.99228 m -5.892017,5.89202 2.273312,-2.27331 m -3.944373,3.94437 -1.79823,1.79823 m -4.3052,4.3052 2.141469,-2.14147 m -6.99878,6.99878 -0.582151,0.58215 m -11.714559,11.71456 0.92282,-0.92282 m 34.968249,-34.56912 -1.313996,1.31399 m -3.559128,3.55913 0.839139,-0.83914 m -4.512438,4.51244 -1.892054,1.89205 m -2.945515,2.94552 1.14225,-1.14225 m -11.321108,11.32111 -0.60012,0.60012 m -11.789426,11.78942 1.117295,-1.11729 m 34.835105,-34.43599 -1.227092,1.2271 m -3.50463,3.50462 0.714051,-0.71405 m -4.327358,4.32736 -1.817072,1.81707 m -2.371321,2.37133 0.850513,-0.85052 m -11.848435,11.84844 -0.605861,0.60586 m -11.876523,11.87652 1.311769,-1.31177 m 34.701963,-34.30284 -1.140189,1.14019 m -3.473919,3.47392 0.60725,-0.60725 m -4.10914,4.10914 -1.863101,1.8631 m -2.101393,2.10139 0.928861,-0.92886 m -12.262308,12.26231 -0.679193,0.67919 m -11.981927,11.98193 1.506244,-1.50624 m 34.537361,-34.13824 -1.021827,1.02183 m -3.508374,3.50837 0.565615,-0.56562 m -3.864107,3.86411 -3.313001,3.313 m -12.836919,12.83692 0.740257,-0.74026 m -11.165858,11.16586 -1.686192,1.6862 m 35.155487,-34.75637 0.910849,-0.91085 m -3.967075,3.96708 -0.479117,0.47911 m -5.988574,5.98858 2.9048,-2.9048 m -15.504627,15.50462 -0.776472,0.77648 m -10.812702,10.8127 0.41614,-0.41614 m -1.202293,1.20229 -0.928712,0.92871 m 35.510079,-35.11095 0.804482,-0.80449 m -3.961375,3.96138 -0.437799,0.4378 m -5.560295,5.56029 2.752207,-2.7522 m -14.020764,14.02076 -2.339757,2.33976 m -10.823764,10.82376 0.385057,-0.38506 m -1.497391,1.4974 -0.98684,0.98684 m -5.781133,5.78113 2.246924,-2.24692 m 40.08119,-39.68207 -0.833504,0.8335 m -3.766144,3.76615 0.563642,-0.56365 m -2.707548,2.70755 -2.473124,2.47313 m -14.081203,14.0812 2.253845,-2.25385 m -12.841649,12.84165 -0.353973,0.35398 m -8.711058,8.71105 7.422294,-7.42229 m 35.38115,-34.98203 -0.658994,0.659 m -3.99027,3.99027 0.742159,-0.74216 m -1.912483,1.91248 -1.125263,1.12526 m -15.474954,15.47496 1.756869,-1.75687 m -12.882996,12.88299 -0.338305,0.33831 m -9.491126,9.49113 7.60112,-7.60112 m 35.724916,-35.3258 -0.586448,0.58645 m -5.527278,5.52728 2.27625,-2.27625 m -16.577443,16.57744 -0.512995,0.51299 m -12.698847,12.69885 0.332284,-0.33228 m -2.425174,2.42517 -3.099263,3.09927 m -5.019999,5.01999 2.011919,-2.01191 m 41.777668,-41.37855 -0.634457,0.63446 m -4.606689,4.60669 1.270861,-1.27086 m -16.196617,16.19661 -0.448078,0.44808 m -12.754306,12.75431 0.326263,-0.32627 m -3.272321,3.27232 -0.700764,0.70077 m -6.776553,6.77655 1.109387,-1.10939 m 42.585487,-42.18636 -1.76319,1.76319 m -2.730498,2.7305 0.391545,-0.39155 m -15.768282,15.76828 -0.375901,0.37591 m -12.817024,12.81702 0.320242,-0.32024 m -10.347349,10.34735 -0.79836,0.79836 m 41.910777,-41.51166 1.893837,-1.89383 m -19.586159,19.58615 -0.349316,0.34932 m -12.835523,12.83552 0.330387,-0.33038 m -10.596787,10.59678 -0.812215,0.81222 m 41.870107,-41.47099 1.986853,-1.98685 M 38.979976,263.47544 38.655411,263.8 m -12.84736,12.84736 0.340964,-0.34096 m -11.064769,11.06477 -0.63682,0.63682 m 41.77899,-41.37987 1.851277,-1.85128 m -18.895821,18.89583 -0.281975,0.28197 m -12.871856,12.87186 0.346363,-0.34637 m -11.403155,11.40316 -0.490995,0.49099 M 56.2144,247.03926 58.119762,245.1339 m -18.728002,18.728 -0.247377,0.24738 m -12.896352,12.89635 0.351761,-0.35176 m -11.581688,11.58169 -0.527337,0.52733 m 41.640478,-41.24135 1.34973,-1.34973 m -17.86454,17.86454 -0.227567,0.22756 m -12.920846,12.92085 0.357159,-0.35716 m -11.79096,11.79096 -0.452721,0.45272 m 41.46378,-41.06466 0.80753,-0.80753 m -4.423423,4.42343 -0.401687,0.40168 m -5.442942,5.44295 0.643382,-0.64338 m -7.38703,7.38703 -0.207757,0.20775 m -12.933865,12.93387 0.351081,-0.35108 m -12.000232,12.00023 -0.378104,0.3781 m 41.05573,-40.65661 0.906019,-0.90601 m -3.844117,3.84411 -1.077789,1.07779 m -6.634392,6.63439 2.288245,-2.28824 m -7.273533,7.27353 -0.200114,0.20012 m -12.957195,12.95719 0.34087,-0.34087 m -12.135553,12.13555 -0.364505,0.36451 m 40.967464,-40.56834 0.67179,-0.67179 m -3.293888,3.29389 -1.94204,1.94204 m -7.719422,7.71942 3.934473,-3.93448 m -7.036289,7.03629 -0.186623,0.18663 m -13.000678,13.00067 0.330659,-0.33066 m -12.274408,12.27441 -0.312552,0.31255 m 40.632059,-40.23293 0.690958,-0.69096 m -2.769747,2.76975 -0.48874,0.48874 m -3.271003,3.271 2.592959,-2.59296 m -4.770558,4.77056 -4.158022,4.15802 m -2.921844,2.92185 0.201864,-0.20187 m -12.925577,12.92558 -0.320449,0.32045 m -12.353415,12.35341 0.307034,-0.30703 m 40.721657,-40.32254 -2.847603,2.84761 m -6.397857,6.39785 5.631781,-5.63178 m -8.123928,8.12393 -1.726606,1.72661 m -1.887818,1.88781 0.239128,-0.23912 m -12.999285,12.99928 -0.324708,0.32471 m -12.429966,12.42997 0.271454,-0.27146 m 40.225497,-39.82637 -2.205145,2.20514 m -6.439539,6.43954 5.61819,-5.61819 m -8.819678,8.81968 -2.856865,2.85686 m -13.116123,13.11613 0.326116,-0.32612 m -12.564275,12.56428 -0.262921,0.26292 m 38.395022,-37.9959 1.437187,-1.43719 m -2.32119,2.32119 -5.631023,5.63102 m -5.98371,5.98372 1.977815,-1.97782 m -14.797672,14.79767 -0.327523,0.32752 m -12.572195,12.5722 0.24814,-0.24814 m 38.934042,-38.53492 -0.09449,0.0945 m -2.066502,2.0665 0.555519,-0.55552 m -3.833521,3.83352 -1.850362,1.85037 m -5.848675,5.84867 1.337799,-1.3378 m -14.232999,14.233 -0.32893,0.32893 m -12.626823,12.62682 0.25125,-0.25125 m 37.384348,-36.98522 -0.498432,0.49843 m -5.280097,5.2801 1.382502,-1.3825 m -6.30434,6.30434 -0.771168,0.77116 m -13.289413,13.28942 0.330337,-0.33034 m -12.759119,12.75912 -0.239215,0.23921 m 37.239537,-36.84041 0.441494,-0.4415 m -4.761623,4.76163 -1.111552,1.11155 m -5.537336,5.53734 0.434302,-0.43431 m -13.457255,13.45726 -0.323256,0.32326 m -12.717658,12.71765 0.246163,-0.24616 m 37.480302,-37.08118 -0.384557,0.38456 m -5.583264,5.58326 0.889831,-0.88983 m -6.167704,6.16771 -0.103793,0.10379 m -13.397433,13.39743 0.310603,-0.3106 m -12.82664,12.82664 -0.256855,0.25685 m 37.404721,-37.0056 0.367178,-0.36717 m -5.391084,5.39108 -0.671383,0.67138 m -18.674654,18.67466 0.29795,-0.29795 m -12.858529,12.85853 -0.24398,0.24398 m 37.444447,-37.04533 0.34932,-0.34932 m -5.617251,5.61725 -0.548471,0.54847 m -10.886431,10.88644 0.419862,-0.41987 m -7.809734,7.80974 -0.285297,0.28529 m -12.836719,12.83672 0.2316,-0.2316 m 37.584414,-37.18529 -0.331348,0.33135 m -5.948103,5.9481 0.413933,-0.41393 m -10.684282,10.68428 -0.792731,0.79273 m -7.374655,7.37466 0.28075,-0.28075 m -12.930634,12.93063 -0.219219,0.21922 m 37.524886,-37.12576 0.312882,-0.31289 m -6.086896,6.0869 -0.30579,0.30579 m -11.082125,11.08213 0.10406,-0.10406 m -7.04787,7.04787 -0.287618,0.28761 m -12.901804,12.90181 0.203563,-0.20357 m 37.655957,-37.25683 -0.294415,0.29441 m -6.211503,6.21151 0.2769,-0.2769 m -11.054093,11.05409 -0.260177,0.26018 m -7.152002,7.152 0.294486,-0.29449 m -13.010004,13.01001 -0.202009,0.20201 m 37.578731,-37.17961 0.285564,-0.28557 m -6.3909,6.39091 -0.228252,0.22825 m -10.937038,10.93703 0.338948,-0.33894 m -7.165747,7.16574 -0.301354,0.30136 m -12.932682,12.93268 0.192225,-0.19223 m 37.676278,-37.27715 -0.280321,0.28032 m -6.452064,6.45206 0.20389,-0.20389 m -10.784273,10.78428 -0.168956,0.16895 m -7.191671,7.19167 0.310014,-0.31001 m -10.738171,10.73817 -0.870416,0.87042 m -1.649266,1.64926 0.240247,-0.24024 m 37.632466,-37.23335 -0.275077,0.27508 m -6.570543,6.57054 0.182542,-0.18254 m -17.663716,17.66372 -0.335654,0.33565 m -12.962995,12.963 2.486924,-2.48693 m 35.389997,-34.99087 -0.269834,0.26983 m -6.688039,6.68804 0.160214,-0.16021 m -17.492546,17.49254 -0.361295,0.3613 m -12.973665,12.97366 2.07351,-2.07351 m 35.803133,-35.40401 -0.280463,0.28046 m -6.798945,6.79895 0.147167,-0.14717 m -17.321376,17.32138 -0.414935,0.41493 m -12.947645,12.94765 1.268722,-1.26872 m 36.590928,-36.19181 -0.287893,0.28789 m -6.905025,6.90503 0.13412,-0.13412 m -17.141065,17.14106 -0.479948,0.47995 m -2.431054,2.43106 0.64831,-0.64831 m -3.564851,3.56485 -0.121322,0.12132 m -7.450475,7.45047 1.003805,-1.0038 m 36.825286,-36.42617 -0.281757,0.28176 m -7.011106,7.01111 0.130392,-0.13039 m -16.945217,16.94521 -0.605874,0.60588 m -2.634574,2.63457 1.207215,-1.20721 m -3.687287,3.68728 -0.245787,0.24579 m -7.494649,7.49465 0.920179,-0.92018 m 36.878353,-36.47923 -0.275621,0.27562 m -7.117187,7.11719 2.44809,-2.44809 m -19.070795,19.07079 -0.727256,0.72726 m -2.843734,2.84373 1.743144,-1.74314 m -3.782291,3.78229 -0.385222,0.38522 m -7.527213,7.52722 0.811357,-0.81136 m 36.956616,-36.5575 -0.293221,0.29323 m -7.199532,7.19953 2.079868,-2.07987 m -18.510453,18.51045 -3.895411,3.89541 m -2.128999,2.129 0.509327,-0.50932 m -7.335729,7.33572 -0.733377,0.73338 m 37.426832,-37.02771 0.297304,-0.2973 m -5.794987,5.79498 -1.784432,1.78444 m -20.485863,20.48586 4.245154,-4.24515 m -5.377879,5.37787 -0.673338,0.67334 m -7.580242,7.58024 0.650685,-0.65068 m 37.010843,-36.61172 -0.294719,0.29472 m -7.364698,7.3647 1.693613,-1.69362 m -17.708606,17.70861 -6.119611,6.11961 m -7.596,7.596 0.569033,-0.56903 m 37.030929,-36.63181 -0.30474,0.30474 m -7.434675,7.43468 1.42948,-1.42948 m -17.218757,17.21875 -0.839268,0.83927 m -1.495704,1.4957 0.596921,-0.59692 m -2.331917,2.33192 -2.117128,2.11713 m -7.612666,7.61266 0.499725,-0.49972 m 37.010767,-36.61164 -0.301202,0.3012 m -7.505078,7.50507 1.273781,-1.27378 m -16.822572,16.82258 -0.68586,0.68586 m -1.731897,1.73189 0.353374,-0.35337 m -2.309684,2.30968 -1.890472,1.89048 m -7.619375,7.61937 0.447073,-0.44707 m 36.963834,-36.56471 -0.287548,0.28754 m -7.585597,7.5856 1.128198,-1.1282 m -16.426387,16.42639 -0.504088,0.50409 m -2.005085,2.00508 0.205627,-0.20562 m -2.338549,2.33855 -1.728643,1.72864 m -7.597327,7.59733 0.39442,-0.39443 m 36.916901,-36.51777 -0.27835,0.27835 m -7.661661,7.66166 1.005032,-1.00503 m -16.044984,16.04498 -0.508692,0.50869 m -2.117981,2.11798 0.131731,-0.13173 m -2.35431,2.35431 -1.634388,1.63439 m -7.567803,7.5678 0.330983,-0.33098 m 36.833503,-36.43438 -0.257125,0.25712 m -7.71091,7.71091 0.88348,-0.88348 m -15.645835,15.64584 -0.517186,0.51718 m -2.266185,2.26619 0.100536,-0.10054 m -2.391837,2.39184 -1.547378,1.54738 m -7.523165,7.52316 0.301141,-0.30114 m 36.709882,-36.31076 -0.238238,0.23824 m -7.760159,7.76016 0.761927,-0.76193 m -15.246685,15.24669 -0.52568,0.52568 m -2.414388,2.41439 0.113694,-0.1137 m -2.433671,2.43367 -1.527243,1.52725 m -7.4517,7.4517 0.271299,-0.2713 m 36.586261,-36.18714 -0.22089,0.22089 m -7.805523,7.80552 0.63803,-0.63803 m -14.847537,14.84754 -0.534174,0.53417 m -2.562591,2.56259 0.121545,-0.12154 m -2.465376,2.46537 -1.511928,1.51193 m -7.380236,7.38024 0.241631,-0.24163 m 36.42406,-36.02493 -0.200377,0.20038 m -7.875188,7.87518 0.573674,-0.57367 m -14.444065,14.44407 -0.568404,0.5684 m -2.675636,2.67564 0.152015,-0.15202 m -2.518477,2.51848 -0.540668,0.54067 m -0.972802,0.9728 0.544657,-0.54466 m -7.610045,7.61005 -0.241496,0.24149 m 36.29396,-35.89484 0.186691,-0.18669 m -7.622226,7.62223 -0.509319,0.50932 m -14.146144,14.14614 0.620188,-0.62019 m -3.214149,3.21415 -0.183726,0.18373 m -2.861809,2.86181 0.490547,-0.49055 m -1.066433,1.06643 -0.495119,0.49512 m -7.177746,7.17775 0.230443,-0.23044 m 36.039331,-35.64021 -0.180856,0.18085 m -8.006667,8.00667 0.444963,-0.44496 m -13.610945,13.61094 -0.687513,0.68752 m -2.879737,2.87973 0.215438,-0.21544 m -2.591498,2.5915 -0.440427,0.44043 m -1.169209,1.16921 0.445581,-0.44558 m -7.290614,7.29061 -0.200198,0.2002 m 35.844396,-35.44527 0.171988,-0.17199 m -7.823758,7.82376 -0.366459,0.36645 m -13.574993,13.575 0.754838,-0.75484 m -3.489476,3.48948 -0.218511,0.21851 m -2.799805,2.7998 0.407361,-0.40736 m -1.278729,1.27873 -0.39625,0.39625 m -6.912509,6.91251 0.240056,-0.24006 m 35.531846,-35.13272 -0.171144,0.17114 m -8.096638,8.09664 0.353917,-0.35392 m -12.762283,12.76229 -0.828978,0.82898 m -3.018057,3.01805 0.214623,-0.21462 m -2.618613,2.61861 -0.380822,0.38082 m -1.400068,1.40007 0.380959,-0.38096 m -6.84679,6.84679 -0.279915,0.27992 M 59.231118,260.38658 59.4336,260.1841 m -8.003971,8.00397 -0.351249,0.35125 m -12.943683,12.94368 0.956368,-0.95636 m -3.740351,3.74035 -0.245119,0.24512 m -2.769819,2.76982 0.354283,-0.35429 m -1.521133,1.52114 -0.365669,0.36567 m -6.522891,6.52289 0.27322,-0.27322 m 34.907889,-34.50877 -0.210327,0.21033 m -8.186596,8.18659 0.348581,-0.34858 m -11.886615,11.88662 -1.101508,1.1015 m -3.059288,3.05929 0.284275,-0.28427 m -2.689492,2.68949 -0.340949,0.34095 m -1.670167,1.67016 0.364035,-0.36403 m -2.180922,2.18092 -0.137763,0.13777 m -4.348683,4.34868 0.339976,-0.33998 m 34.516844,-34.11772 -0.2462,0.2462 m -8.205952,8.20595 0.356849,-0.35685 m -11.445602,11.44561 -1.267641,1.26764 m -3.016739,3.01674 0.271689,-0.27169 m -2.710222,2.71022 -0.335721,0.33572 m -1.844194,1.84419 0.360828,-0.36082 m -2.219348,2.21934 -0.149046,0.14905 m -4.039832,4.03983 0.406379,-0.40638 m 34.09881,-33.69969 -0.332645,0.33265 m -8.154551,8.15455 0.375671,-0.37567 m -11.007985,11.00799 -1.491593,1.49159 m -2.934228,2.93423 0.276961,-0.27696 m -2.730954,2.73095 -0.330493,0.33049 m -2.032572,2.03257 0.385651,-0.38565 m -2.275093,2.2751 -0.453254,0.45325 m -3.341216,3.34122 0.59,-0.59 m 33.459047,-33.05993 -0.385943,0.38594 m -8.156197,8.1562 0.425705,-0.4257 M 40.825133,280.38906 39.06719,282.147 m -2.801576,2.80158 0.268604,-0.26861 m -2.738055,2.73806 -0.325266,0.32526 m -2.222381,2.22239 0.388799,-0.3888 m -2.307731,2.30773 -3.41755,3.41755 m 33.122534,-32.72341 0.487858,-0.48786 m -8.121345,8.12134 -0.475739,0.47574 m -11.74007,11.74007 2.111905,-2.1119 m -4.420606,4.4206 -0.292929,0.29293 m -2.828964,2.82897 0.320038,-0.32004 m -2.360586,2.36058 -0.414168,0.41417 m -4.84233,4.84233 2.898669,-2.89867 m 30.101162,-29.70203 -0.661392,0.66139 m -7.964761,7.96476 0.567608,-0.56761 m -9.629697,9.6297 -2.5138,2.5138 m -2.347015,2.34701 0.310518,-0.31052 m -2.865656,2.86566 -0.319613,0.31961 m -2.711131,2.71113 0.468421,-0.46842 m -2.311671,2.31167 -2.463402,2.4634 m 31.340337,-30.94121 1.05064,-1.05064 m -8.010096,8.0101 -0.614944,0.61494 m -9.556,9.556 1.134929,-1.13493 m -2.634805,2.63481 -0.388663,0.38866 m -2.1041,2.1041 0.328106,-0.32811 m -2.928287,2.92829 -0.322468,0.32247 m -3.023304,3.0233 0.487446,-0.48744 m -2.109165,2.10916 -1.917256,1.91726 m 30.506279,-30.10716 0.994104,-0.9941 m -7.808442,7.80844 -0.800889,0.80089 m -8.726446,8.72644 0.814272,-0.81427 m -2.968363,2.96836 -0.40175,0.40175 m -1.784716,1.78472 0.310426,-0.31042 m -2.937005,2.937 -0.358324,0.35832 m -3.773386,3.77339 1.008155,-1.00815 m -1.848955,1.84895 -1.602235,1.60224 m 29.143009,-28.74389 1.687578,-1.68758 m -7.786124,7.78612 -0.884614,0.88462 m -7.96197,7.96197 0.692397,-0.6924 m -3.473554,3.47356 -0.383144,0.38314 m -1.485181,1.48518 0.393767,-0.39377 m -3.054231,3.05423 -0.394646,0.39465 m -5.320622,5.32062 2.038853,-2.03885 m 27.336542,-26.93742 -2.92353,2.92353 m -6.177418,6.17742 1.609919,-1.60992 m -7.596709,7.59671 -0.717588,0.71759 m -4.847264,4.84726 1.646706,-1.64671 m -4.316072,4.31608 -0.45595,0.45595 m -4.654184,4.65418 0.815233,-0.81523 m 27.596176,-27.19706 -3.201863,3.20187 m -5.921776,5.92177 1.665859,-1.66586 m -7.028323,7.02833 -0.753687,0.75368 m -5.045046,5.04505 1.409382,-1.40938 m -4.089709,4.08971 -0.515196,0.51519 M 55.72017,268.687 l 3.256161,-3.25616 m -7.523197,7.5232 -7.056367,7.05637 m -5.436184,5.43618 1.209464,-1.20947 m -3.808955,3.80896 -0.695794,0.69579 m 20.167944,-19.76882 3.271196,-3.27119 m -7.584571,7.58457 -6.433923,6.43392 m -5.778288,5.77829 1.020418,-1.02042 m -3.512627,3.51263 -0.905579,0.90558 m 20.037285,-19.63817 3.394061,-3.39406 m -7.813369,7.81337 -5.246643,5.24665 m -6.626473,6.62647 0.831372,-0.83137 m -2.813011,2.81301 -1.518652,1.51865 m 22.400986,-22.00186 1.018458,-1.01846 m -3.052574,3.05257 -0.463723,0.46372 m -8.172362,8.17237 3.686597,-3.6866 m -10.899458,10.89946 -4.273355,4.27335 m 22.625501,-22.22638 0.703684,-0.70368 m -3.145089,3.14509 -0.426912,0.42691 m -6.253944,6.25394 1.713549,-1.71354 m -10.751172,10.75117 -4.257425,4.25742 m 22.633303,-22.23418 0.576,-0.576 m -3.117377,3.11738 -0.46147,0.46147 m -6.244456,6.24445 1.709934,-1.70993 m -10.646247,10.64625 -4.250771,4.25077 m 22.601163,-22.20204 0.511367,-0.51137 m -3.107253,3.10726 -0.507899,0.5079 m -6.219342,6.21934 1.702068,-1.70207 m -10.532206,10.5322 -4.29302,4.29302 m 22.575154,-22.17603 0.464421,-0.46442 m -3.05652,3.05652 -0.601017,0.60102 m -6.167928,6.16793 1.710165,-1.71017 m -10.427283,10.42728 -1.042273,1.04228 m -3.314382,3.31438 1.050145,-1.05015 m 21.914575,-21.51545 -0.46073,0.46073 m -3.222751,3.22275 0.707046,-0.70704 m -5.105297,5.10529 -1.718263,1.71827 m -9.189963,9.18996 0.585865,-0.58587 m -3.756362,3.75637 -0.708123,0.70812 m 22.47702,-22.0779 0.457039,-0.45704 m -2.883978,2.88398 -0.825446,0.82545 m -4.79282,4.79282 0.513762,-0.51377 m -1.455274,1.45528 -0.330768,0.33077 m -8.879518,8.87952 0.388442,-0.38845 m -4.045419,4.04542 -0.526897,0.5269 m 22.450049,-22.05093 0.453348,-0.45334 m -2.766133,2.76613 -0.975795,0.97579 m -4.548388,4.54839 0.408532,-0.40853 m -1.518754,1.51875 -0.348516,0.34852 m -8.558138,8.55814 0.180082,-0.18009 m -4.234911,4.23492 -0.445685,0.44568 m 22.42921,-22.03009 0.426816,-0.42681 m -2.6275,2.6275 -1.149688,1.14969 m -4.29145,4.29145 0.341118,-0.34112 m -1.627658,1.62766 -0.355005,0.355 m -13.052538,13.05254 0.380762,-0.38076 m 22.424899,-22.02578 -0.425252,0.42525 m -3.374475,3.37448 1.35626,-1.35626 m -5.078194,5.07819 -0.346918,0.34692 m -1.779265,1.77926 0.343406,-0.3434 m -13.092078,13.09208 -0.31584,0.31584 m 22.33161,-21.93249 0.423687,-0.42369 m -2.254255,2.25426 -1.440452,1.44045 m -3.971449,3.97145 0.374291,-0.37429 m -1.961834,1.96183 -0.331807,0.33181 m -13.078925,13.07892 0.267469,-0.26747 m 22.439902,-22.04078 -0.422122,0.42213 m -2.572172,2.57217 1.004835,-1.00484 m -5.085627,5.08563 -0.388647,0.38865 m -2.059435,2.05943 0.320208,-0.32021 m -13.125984,13.12599 -0.243458,0.24346 m 22.194785,-21.79567 0.420557,-0.42055 m -1.728885,1.72888 -0.448411,0.44841 m -5.084014,5.08402 0.48292,-0.48292 m -2.345718,2.34571 -0.333117,0.33312 m -13.023148,13.02315 0.288334,-0.28834 m 22.208578,-21.80945 -0.392592,0.39259 m -1.489609,1.48961 0.349042,-0.34904 m -4.90768,4.90768 -0.591647,0.59165 m -2.318469,2.31847 0.332587,-0.33259 m -10.910467,10.91047 -2.433108,2.4331 m 22.024646,-21.62552 0.355262,-0.35526 m -1.440023,1.44002 -0.242561,0.24256 m -5.122503,5.1225 0.68416,-0.68416 m -2.793126,2.79313 -0.332058,0.33206 m -12.982996,12.98299 2.727327,-2.72732 m 19.519744,-19.12062 -0.363266,0.36326 m -1.177181,1.17718 0.167842,-0.16784 m -4.362209,4.36221 -0.842874,0.84287 m -2.563576,2.56358 0.331528,-0.33153 m -10.358257,10.35826 -2.910493,2.91049 m 21.72077,-21.32165 0.37568,-0.37568 m -1.414024,1.41403 -0.06849,0.0685 m -4.867779,4.86778 1.001587,-1.00158 m -3.317905,3.3179 -0.37148,0.37148 m -12.88978,12.88978 1.951709,-1.95171 m 19.994122,-19.595 -0.388094,0.3881 m -6.009746,6.00974 1.481379,-1.48138 m -3.591426,3.59143 -0.412592,0.41259 m -12.856767,12.85677 1.149649,-1.14965 m 20.645561,-20.24644 -0.400508,0.40051 m -1.33726,1.33726 0.226008,-0.22601 m -3.051561,3.05156 -1.825927,1.82593 m -2.413622,2.41362 0.521984,-0.52198 m -12.434427,12.43442 -0.889811,0.88982 m 21.203098,-20.80398 0.41999,-0.41999 m -1.777482,1.77748 -0.385728,0.38573 m -6.522052,6.52205 4.540696,-4.5407 m -16.557611,16.55762 -0.723129,0.72312 m 20.92664,-20.52751 0.467142,-0.46714 m -3.635627,3.63562 -4.882538,4.88254 m -12.677834,12.67783 0.593268,-0.59326 m 20.573413,-20.17429 -0.516501,0.5165 m -3.550118,3.55011 0.891305,-0.8913 m -3.244212,3.24421 -1.929903,1.92991 m -12.61947,12.61947 0.484364,-0.48437 m 20.51744,-20.11832 -0.867592,0.8676 m -3.006685,3.00668 1.213184,-1.21318 m -4.427801,4.4278 -1.144136,1.14413 m -12.548699,12.5487 0.41113,-0.41113 m 20.1705,-19.77137 -3.485756,3.48575 m -4.397872,4.39787 0.874204,-0.8742 m -13.014657,13.01466 -0.332645,0.33264 m 16.944072,-16.54495 3.193819,-3.19382 m -7.01966,7.01966 -0.495829,0.49583 m -12.397498,12.3975 0.301698,-0.3017 m 19.573638,-19.17451 -3.097976,3.09797 m -4.230437,4.23044 0.379663,-0.37966 m -12.433069,12.43307 -0.268612,0.26861 m 16.568715,-16.16959 0.528603,-0.52861 m -4.277322,4.27732 -0.352043,0.35205 m -12.221203,12.2212 0.247708,-0.24771 m 16.572724,-16.1736 -0.671241,0.67124 m -3.782052,3.78205 0.360456,-0.36045 m -12.250178,12.25018 -0.225669,0.22566 m 15.653939,-15.25481 0.847425,-0.84743 m -3.822969,3.82297 -0.417069,0.41707 m -12.009579,12.00958 0.228073,-0.22807 m 15.952684,-15.55356 -1.062328,1.06232 m -2.962915,2.96292 0.668239,-0.66824 m -12.322884,12.32288 -0.249121,0.24912 m 12.049702,-11.65058 3.626888,-3.62688 m -15.154674,15.15467 -0.247594,0.2476 m 11.919021,-11.5199 3.232283,-3.23229 m -14.628131,14.62813 -0.243172,0.24318 M 53.720274,284.6562 56.1457,282.23077 m -13.620522,13.62053 -0.282399,0.2824 m 11.595974,-11.19686 1.431622,-1.43162 m -12.425968,12.42597 -0.321627,0.32163 m 11.434452,-11.03533 0.548369,-0.54837 m -11.352114,11.35211 -0.323401,0.3234 m 11.245625,-10.8465 0.494863,-0.49486 m -11.060581,11.06058 -0.368293,0.36829 m 11.06186,-10.66274 0.413891,-0.41389 m -10.744853,10.74486 -0.419284,0.41928 m 10.835494,-10.43637 0.421303,-0.4213 m -10.443912,10.44391 -0.501271,0.50127 m 10.609128,-10.21001 0.428843,-0.42884 m -10.184588,10.18459 -0.48027,0.48027 m 10.321263,-9.92214 0.429645,-0.42965 m -9.860317,9.86032 -0.523648,0.52365 m 10.039569,-9.64045 0.429113,-0.42911 m -9.551944,9.55194 -0.498476,0.49848 m 9.707642,-9.30852 0.427493,-0.42749 m -5.683564,5.68356 -0.14768,0.14768 m -3.884635,3.88463 0.547313,-0.54731 m 9.253282,-8.85416 -0.470194,0.4702 m -5.471348,5.47135 0.327898,-0.3279 m -3.091013,3.09101 -0.689263,0.68926 m 8.965742,-8.56662 0.512894,-0.51289 m -5.553675,5.55367 -0.659107,0.65911 m -2.769643,2.76964 0.639777,-0.63977 m 8.351791,-7.95267 -0.480022,0.48002 m -8.048933,8.04893 3.110822,-3.11082 m 5.447775,-5.04865 -0.462386,0.46239 m -7.582524,7.58252 2.746608,-2.74661 m 5.327943,-4.92882 -0.512034,0.51204 m -7.047232,7.04723 2.383559,-2.38356 m 5.208279,-4.80916 -0.564614,0.56462 m -6.648553,6.64855 2.157125,-2.15713 m 4.983382,-4.58426 -0.497183,0.49719 m -5.92619,5.92619 1.592228,-1.59223 m 4.793823,-4.3947 -0.556656,0.55665 m -5.277011,5.27702 1.213562,-1.21357 m 4.582783,-4.18366 -0.81789,0.81789 m -4.426071,4.42607 0.866421,-0.86642 m 4.225107,-3.82598 -0.636053,0.63605 m -3.903092,3.90309 0.581076,-0.58107 m 3.825317,-3.4262 -0.958849,0.95885 m -2.89516,2.89516 0.422386,-0.42238 m 3.390256,-2.99114 -3.260258,3.26026 m 0.463362,-0.0642 2.282218,-2.28222 m 0.01518,0.38394 -1.74196,1.74196"
         inkscape:connector-curvature="0" />
    </g>
  </g>
</svg>
