<?xml version="1.0" encoding="UTF-8" standalone="no"?>
<!-- Created with Inkscape (http://www.inkscape.org/) -->

<svg
   xmlns:dc="http://purl.org/dc/elements/1.1/"
   xmlns:cc="http://creativecommons.org/ns#"
   xmlns:rdf="http://www.w3.org/1999/02/22-rdf-syntax-ns#"
   xmlns:svg="http://www.w3.org/2000/svg"
   xmlns="http://www.w3.org/2000/svg"
   xmlns:sodipodi="http://sodipodi.sourceforge.net/DTD/sodipodi-0.dtd"
   xmlns:inkscape="http://www.inkscape.org/namespaces/inkscape"
   width="50mm"
   height="50mm"
   viewBox="0 0 50 50"
   version="1.1"
   id="svg1586"
   inkscape:version="0.92.2 2405546, 2018-03-11"
   sodipodi:docname="50.svg">
  <sodipodi:namedview
     id="base"
     pagecolor="#ffffff"
     bordercolor="#666666"
     borderopacity="1.0"
     inkscape:pageopacity="0.0"
     inkscape:pageshadow="2"
     inkscape:zoom="2.335651"
     inkscape:cx="69.531058"
     inkscape:cy="110.85857"
     inkscape:document-units="mm"
     inkscape:current-layer="layer1"
     showgrid="false"
     inkscape:window-width="1366"
     inkscape:window-height="703"
     inkscape:window-x="0"
     inkscape:window-y="0"
     inkscape:window-maximized="1" />
  <defs
     id="defs1580" />
  <metadata
     id="metadata1583">
    <rdf:RDF>
      <cc:Work
         rdf:about="">
        <dc:format>image/svg+xml</dc:format>
        <dc:type
           rdf:resource="http://purl.org/dc/dcmitype/StillImage" />
        <dc:title></dc:title>
      </cc:Work>
    </rdf:RDF>
  </metadata>
  <g
     inkscape:label="Layer 1"
     inkscape:groupmode="layer"
     id="layer1"
     transform="translate(0,-247)">
    <g
       id="g1175"
       transform="translate(0.05002614,-0.04982848)">
      <path
         id="path1104"
         d="m 20.632552,258.01243 c -0.15467,-0.36022 -0.235494,-0.69995 -0.251802,-1.05847 -0.01231,-0.26994 0.01377,-0.50939 0.07921,-0.72843 0.02442,-0.0818 0.02555,-0.0785 0.06274,0.18731 0.08963,0.64064 0.120731,0.91737 0.143379,1.27585 0.01324,0.2095 0.0189,0.38612 0.01251,0.39248 -0.0067,0.007 -0.02708,-0.0245 -0.04604,-0.0687 z"
         style="fill:none;stroke:#0000ff;stroke-width:0.1;stroke-miterlimit:4;stroke-dasharray:none"
         inkscape:connector-curvature="0" />
      <path
         id="path1102"
         d="m 22.40617,265.35772 c -0.615426,-2.0022 -0.990568,-4.0171 -1.210094,-6.49944 -0.0525,-0.59371 -0.104218,-1.32863 -0.123752,-1.75864 -0.01291,-0.28363 -0.032,-0.3844 0.268216,1.41524 0.129839,0.77838 0.339193,2.02868 0.465227,2.77845 0.339666,2.02069 0.658886,4.0844 0.643157,4.15802 -0.0033,0.0148 -0.02242,-0.0274 -0.04278,-0.0936 z"
         style="fill:none;stroke:#0000ff;stroke-width:0.1;stroke-miterlimit:4;stroke-dasharray:none"
         inkscape:connector-curvature="0" />
      <path
         id="path1100"
         d="m 24.370572,265.93109 c -0.186107,-1.44668 -0.359572,-2.96061 -0.637515,-5.56391 -0.22467,-2.10436 -0.302095,-2.81407 -0.407184,-3.73236 -0.04631,-0.40447 -0.08128,-0.75008 -0.07777,-0.76801 0.0096,-0.0494 0.159254,0.36938 0.226639,0.63459 0.08671,0.34131 0.310864,1.72588 0.45399,2.80435 0.329373,2.48176 0.465414,3.9033 0.521841,5.45283 0.02349,0.64426 0.02515,1.60507 0.0027,1.6616 -0.0087,0.0222 -0.04358,-0.1833 -0.08289,-0.48909 z"
         style="fill:none;stroke:#0000ff;stroke-width:0.1;stroke-miterlimit:4;stroke-dasharray:none"
         inkscape:connector-curvature="0" />
      <path
         id="path1098"
         d="m 23.643263,266.57442 c -0.147504,-0.47133 -0.247989,-0.90991 -0.482832,-2.10721 -0.05835,-0.29762 -0.140658,-0.6816 -0.18286,-0.85331 l -0.07672,-0.31218 -0.0067,0.333 c -0.0074,0.38193 0.01104,0.59378 0.112195,1.29036 0.07936,0.54641 0.134138,1.02039 0.131084,1.13427 -0.0047,0.17162 -0.29077,-1.16934 -0.421947,-1.97717 -0.32783,-2.01894 -0.489852,-4.48764 -0.490703,-7.47683 l -2.53e-4,-0.88973 h 0.101184 0.101184 l 0.0143,0.24455 c 0.138104,2.36381 0.423345,4.8249 1.095511,9.45206 0.113745,0.78304 0.203618,1.42691 0.199713,1.43081 -0.004,0.004 -0.04591,-0.11697 -0.09339,-0.26862 z"
         style="fill:none;stroke:#0000ff;stroke-width:0.1;stroke-miterlimit:4;stroke-dasharray:none"
         inkscape:connector-curvature="0" />
      <path
         id="path1096"
         d="m 25.342304,267.14159 c -0.150951,-0.20054 -0.195788,-0.37852 -0.226419,-0.89881 -0.0768,-1.30413 -0.114824,-1.91168 -0.197105,-3.14918 -0.208755,-3.13968 -0.25978,-4.29179 -0.259919,-5.86908 0,-0.80125 0.01697,-1.62355 0.03327,-1.60723 0.0033,0.003 0.03859,0.17904 0.07826,0.39041 0.167391,0.89147 0.241515,1.77342 0.283318,3.37089 0.0326,1.24713 0.05981,1.99434 0.09427,2.59114 0.01716,0.29761 0.04511,0.80803 0.06214,1.13427 0.01703,0.32623 0.05868,1.02865 0.09257,1.56093 0.06753,1.06003 0.111716,2.09608 0.101191,2.3726 l -0.0067,0.17691 z"
         style="fill:none;stroke:#0000ff;stroke-width:0.1;stroke-miterlimit:4;stroke-dasharray:none"
         inkscape:connector-curvature="0" />
      <path
         id="path1094"
         d="m 25.797591,267.50581 c -0.0075,-0.0801 -0.02508,-0.5053 -0.03919,-0.94483 -0.02874,-0.89652 -0.0098,-1.99778 0.06832,-3.95648 0.03353,-0.84133 0.04498,-1.51629 0.0497,-2.93453 0.0033,-1.01304 0.01211,-1.92619 0.01943,-2.02921 0.01763,-0.25021 0.08754,-0.71078 0.105162,-0.69315 0.01224,0.0122 0.111051,0.88253 0.154344,1.35915 0.272254,2.99688 0.160226,6.23915 -0.317131,9.17823 l -0.02701,0.1665 z"
         style="fill:none;stroke:#0000ff;stroke-width:0.1;stroke-miterlimit:4;stroke-dasharray:none"
         inkscape:connector-curvature="0" />
      <path
         id="path1092"
         d="m 24.949884,268.44204 c 0.36558,-0.0189 0.688566,-0.0249 0.842498,-0.0156 0.137291,0.008 0.25777,0.0153 0.26773,0.0155 0.01,2.4e-4 0.077,-0.2525 0.148988,-0.56156 0.07198,-0.30906 0.252793,-1.04894 0.401788,-1.64417 0.636943,-2.54457 0.813802,-3.40416 0.983621,-4.78075 0.08061,-0.65343 0.07468,-2.10305 -0.01417,-3.46094 -0.146113,-2.2335 -0.489871,-4.432 -1.03064,-6.59148 -0.155109,-0.61941 -0.260079,-0.96384 -0.407769,-1.33802 -0.327244,-0.82904 -0.733556,-1.45604 -1.256754,-1.93935 -0.256306,-0.23677 -0.382307,-0.28884 -0.611727,-0.25285 -0.144524,0.0227 -0.286679,0.0933 -0.602745,0.29949 -0.41091,0.26804 -0.570936,0.31907 -0.751075,0.23946 -0.125854,-0.0556 -0.205681,-0.13055 -0.367257,-0.34473 -0.28602,-0.37913 -0.419718,-0.47786 -0.629065,-0.46452 -0.112575,0.007 -0.144211,0.0197 -0.261742,0.10389 -0.07353,0.0526 -0.190465,0.15533 -0.259853,0.22818 -0.350497,0.36799 -0.55347,0.83395 -0.746696,1.71419 -0.05276,0.24038 -0.115189,0.5241 -0.138715,0.63048 l -0.04278,0.19342 -0.117698,-0.0659 c -0.144184,-0.0807 -0.317137,-0.2023 -0.616956,-0.43377 -0.27598,-0.21305 -0.637329,-0.45999 -0.775971,-0.53027 -0.495667,-0.2513 -1.002517,-0.16888 -1.242609,0.20205 -0.262008,0.40479 -0.435095,0.89521 -0.520118,1.47368 -0.100139,0.68139 -0.03273,1.97067 0.158749,3.03617 0.390025,2.17037 0.991878,4.46526 1.790291,6.82645 0.149014,0.44069 0.385959,1.14311 0.526544,1.56092 0.140578,0.41781 0.307357,0.89545 0.370617,1.06143 0.564429,1.48095 1.173089,2.61835 1.946951,3.63829 0.133006,0.1753 0.292939,0.38602 0.355407,0.46828 0.285268,0.37562 0.588354,0.57636 1.02788,0.6808 0.359353,0.0854 0.698074,0.0964 1.573252,0.0512 z"
         style="fill:none;stroke:#0000ff;stroke-width:0.1;stroke-miterlimit:4;stroke-dasharray:none"
         inkscape:connector-curvature="0" />
      <path
         id="path1090"
         d="m 27.12692,270.83653 c 0.318847,-0.11224 0.41069,-0.15033 0.418421,-0.17354 0.0093,-0.0281 -0.201968,-0.20317 -0.431562,-0.35762 l -0.182248,-0.1226 -0.01231,0.10797 c -0.0068,0.0594 -0.01776,0.19696 -0.02448,0.3057 -0.0067,0.10875 -0.01617,0.22347 -0.02109,0.25495 -0.01158,0.0743 0.0027,0.0735 0.253246,-0.0148 z"
         style="fill:none;stroke:#0000ff;stroke-width:0.1;stroke-miterlimit:4;stroke-dasharray:none"
         inkscape:connector-curvature="0" />
      <path
         id="path1088"
         d="m 29.859056,271.14276 c -2.39e-4,-0.069 -0.08351,-0.44239 -0.144038,-0.64571 -0.04311,-0.1449 -0.04478,-0.147 -0.126067,-0.16074 -0.131523,-0.0222 -0.392753,-0.15996 -0.561801,-0.2962 -0.08581,-0.0692 -0.287071,-0.26851 -0.44725,-0.44301 -0.31932,-0.34786 -0.481667,-0.49546 -0.672531,-0.61146 -0.114564,-0.0696 -0.330877,-0.15822 -0.386452,-0.15827 -0.02888,0 -0.02083,0.85812 0.0095,1.00942 0.02322,0.11593 0.116533,0.32259 0.145648,0.32259 0.04358,0 0.09245,-0.12224 0.126433,-0.31626 0.03979,-0.22731 0.075,-0.30071 0.153612,-0.32044 0.140399,-0.0353 0.203971,0.049 0.291802,0.38695 0.09532,0.36673 0.13622,0.41798 0.39566,0.49584 0.189241,0.0568 0.271902,0.11851 0.4956,0.37003 0.100758,0.11328 0.212727,0.23273 0.248814,0.26544 0.1001,0.0907 0.259347,0.15862 0.372467,0.15885 0.09402,2.4e-4 0.0988,-0.003 0.09862,-0.057 z"
         style="fill:none;stroke:#0000ff;stroke-width:0.1;stroke-miterlimit:4;stroke-dasharray:none"
         inkscape:connector-curvature="0" />
      <path
         id="path1086"
         d="m 28.486301,271.23646 1.4e-5,-0.48389 -0.296446,0.007 c -0.163047,0.004 -0.298901,0.01 -0.301895,0.0124 -0.01311,0.0125 0.07891,0.41502 0.121749,0.53256 0.06507,0.17847 0.200665,0.32304 0.351749,0.37496 0.06294,0.0216 0.116752,0.0397 0.119613,0.04 0.0027,3.5e-4 0.0053,-0.21707 0.0053,-0.48321 z"
         style="fill:none;stroke:#0000ff;stroke-width:0.1;stroke-miterlimit:4;stroke-dasharray:none"
         inkscape:connector-curvature="0" />
      <path
         id="path1084"
         d="m 29.390848,271.99674 c 0.123752,-0.0613 0.15636,-0.087 0.15636,-0.12316 0,-0.0669 -0.02076,-0.11012 -0.0485,-0.10103 -0.01337,0.005 -0.09215,0.0276 -0.175096,0.0516 -0.08295,0.024 -0.150764,0.055 -0.150697,0.0688 2.32e-4,0.0371 0.04198,0.18123 0.05249,0.18123 0.0053,0 0.07944,-0.0349 0.165442,-0.0774 z"
         style="fill:none;stroke:#0000ff;stroke-width:0.1;stroke-miterlimit:4;stroke-dasharray:none"
         inkscape:connector-curvature="0" />
      <path
         id="path1082"
         d="m 19.436377,268.57174 c -0.04052,-0.0153 -0.124777,-0.0657 -0.187225,-0.11188 -0.06241,-0.0462 -0.6752,-0.4664 -1.361677,-0.93367 -2.573401,-1.75165 -3.614015,-2.51177 -4.785207,-3.49538 -0.38256,-0.32129 -0.862637,-0.74564 -0.862637,-0.76251 0,-0.0323 0.105202,-0.24751 0.12101,-0.24751 0.02389,0 0.65355,0.42818 1.147932,0.78063 0.488767,0.34845 1.5165,1.1212 2.673108,2.00992 1.567924,1.20478 2.513076,1.89224 3.387543,2.46397 0.39059,0.25538 0.409619,0.27081 0.353638,0.28681 -0.115296,0.0329 -0.409247,0.0388 -0.486485,0.01 z"
         style="fill:none;stroke:#0000ff;stroke-width:0.1;stroke-miterlimit:4;stroke-dasharray:none"
         inkscape:connector-curvature="0" />
      <path
         id="path1080"
         d="m 20.850748,268.46735 c -0.913376,-0.60465 -1.735261,-1.25472 -3.452126,-2.73043 -0.948512,-0.81528 -1.633306,-1.3933 -1.934622,-1.63297 -0.120132,-0.0956 -0.260551,-0.21335 -0.312034,-0.26174 -0.0515,-0.0484 -0.182541,-0.15113 -0.291237,-0.22829 -0.355633,-0.25249 -0.478454,-0.40797 -0.478454,-0.60567 v -0.0972 l 0.09781,0.0134 c 0.118662,0.0163 0.240052,0.0731 0.37391,0.17487 0.416605,0.31689 3.353059,2.8197 5.421199,4.62061 l 0.869138,0.75684 -0.01377,0.0765 c -0.0076,0.042 -0.01537,0.0785 -0.0173,0.081 -0.002,0.003 -0.120046,-0.0726 -0.262474,-0.1669 z"
         style="fill:none;stroke:#0000ff;stroke-width:0.1;stroke-miterlimit:4;stroke-dasharray:none"
         inkscape:connector-curvature="0" />
      <path
         id="path1078"
         d="m 18.946605,269.48483 c -0.04677,-0.0146 -0.145042,-0.0592 -0.218428,-0.099 -0.356745,-0.19354 -2.716674,-1.71048 -4.834755,-3.10773 -0.308921,-0.2038 -1.062483,-0.69814 -1.674596,-1.09856 -0.612107,-0.40042 -1.134985,-0.7479 -1.161944,-0.77219 -0.02695,-0.0243 -0.07481,-0.0816 -0.106347,-0.1274 -0.06407,-0.093 -0.213585,-0.42246 -0.204271,-0.45005 0.0073,-0.0216 0.523451,0.23835 0.838094,0.4221 0.411994,0.2406 0.767301,0.47614 1.606685,1.06513 0.915279,0.64224 1.297905,0.89861 2.023324,1.35573 1.557079,0.98116 4.21338,2.74382 4.190566,2.78076 -0.03573,0.0578 -0.313145,0.0767 -0.458328,0.0312 z"
         style="fill:none;stroke:#0000ff;stroke-width:0.1;stroke-miterlimit:4;stroke-dasharray:none"
         inkscape:connector-curvature="0" />
      <path
         id="path1076"
         d="m 17.793863,269.77587 c -1.448037,-0.69128 -3.199845,-1.66644 -5.918276,-3.29443 -0.879111,-0.52648 -1.015877,-0.63182 -1.125144,-0.86661 -0.04391,-0.0944 -0.06427,-0.17981 -0.04285,-0.17981 0.02395,0 0.46878,0.21917 0.830189,0.409 0.944879,0.49631 1.544956,0.84929 3.954479,2.32616 0.387404,0.23745 0.96311,0.58198 1.279349,0.76561 0.31624,0.18364 0.621787,0.36399 0.678992,0.40078 0.05722,0.0368 0.218695,0.12535 0.358861,0.19678 0.277477,0.14143 0.421808,0.26235 0.463311,0.38816 0.01344,0.0408 0.02122,0.0772 0.01717,0.081 -0.004,0.004 -0.227258,-0.0982 -0.496132,-0.22661 z"
         style="fill:none;stroke:#0000ff;stroke-width:0.1;stroke-miterlimit:4;stroke-dasharray:none"
         inkscape:connector-curvature="0" />
      <path
         id="path1074"
         d="m 19.916568,272.05166 c 0.07704,-0.15111 0.121735,-0.3816 0.144037,-0.74296 0.03001,-0.48571 0.0356,-0.51441 0.137771,-0.70424 0.183332,-0.34061 0.412606,-0.62683 0.687109,-0.85778 0.251569,-0.21166 0.461442,-0.32838 0.777655,-0.43247 0.312021,-0.10272 0.445267,-0.16785 0.534355,-0.26119 0.08284,-0.0868 0.110485,-0.15874 0.110485,-0.28755 0,-0.0929 -0.01331,-0.11949 -0.168595,-0.33684 -0.495893,-0.69408 -1.077128,-1.33629 -2.064242,-2.2808 -1.13565,-1.08664 -1.284279,-1.23294 -1.813026,-1.78464 -0.71126,-0.74215 -1.686259,-1.71328 -2.049431,-2.04131 -0.879763,-0.79462 -1.63284,-1.38469 -2.433681,-1.90687 -0.512879,-0.33442 -0.668494,-0.41809 -1.601783,-0.86118 -1.552507,-0.73707 -2.124587,-0.99202 -2.9123347,-1.29788 -0.7562972,-0.29366 -1.0026367,-0.35149 -1.5733392,-0.36939 -0.4196521,-0.0132 -0.6660182,0.0153 -0.9749523,0.11257 -0.5245686,0.16519 -0.6754195,0.34775 -0.895139,1.08332 -0.2622876,0.87809 -0.428674,1.00889 -1.3711247,1.07784 -0.3187277,0.0233 -0.4939298,0.10338 -0.5752535,0.26288 -0.056088,0.10993 -0.04644,0.20956 0.05296,0.55067 0.077265,0.26502 0.1812567,0.53796 0.4428988,1.16243 0.3281954,0.78332 0.4392794,1.15434 0.4814948,1.60822 0.020492,0.22067 0.00665,0.28398 -0.089966,0.41072 -0.059614,0.0782 -0.253911,0.18391 -0.3965451,0.21572 -0.057219,0.0128 -0.2493002,0.0419 -0.4268709,0.0647 -0.6192852,0.0796 -0.7576678,0.18214 -0.721334,0.5344 0.013174,0.12793 0.1037188,0.33709 0.1901189,0.4393 0.1032131,0.12211 1.076462,0.73953 1.9740493,1.25232 1.3185104,0.75326 2.6904268,1.43231 5.0895376,2.51912 1.959159,0.88751 2.450574,1.11172 2.588172,1.18089 0.110937,0.0558 0.206971,0.13389 0.419339,0.34115 0.369226,0.36035 0.419266,0.38435 0.785718,0.37682 0.591202,-0.0122 1.207819,0.085 2.811524,0.44305 0.480537,0.10729 0.976675,0.21486 1.10253,0.23906 0.258089,0.0496 0.891306,0.14562 0.900415,0.13651 0.0084,-0.008 -0.811813,-0.4616 -1.358071,-0.75044 -0.549885,-0.29076 -2.057575,-1.04032 -3.369984,-1.6754 -1.145604,-0.55435 -2.743747,-1.35108 -3.276372,-1.63337 -0.327105,-0.17336 -1.238744,-0.67473 -1.3588898,-0.74734 -0.028942,-0.0175 -0.035329,-0.0396 -0.026879,-0.0931 0.00599,-0.0386 0.015436,-0.0746 0.020825,-0.08 0.011976,-0.012 0.7106348,0.27779 1.1777588,0.48843 0.562858,0.25382 1.522581,0.73187 2.702283,1.34603 1.76751,0.92017 2.633667,1.34577 3.434421,1.68751 0.365614,0.15604 0.959677,0.38902 0.968758,0.37993 0.01431,-0.0143 -1.191644,-0.69903 -2.29098,-1.30076 -0.636351,-0.34832 -1.28706,-0.69678 -3.857574,-2.06576 -1.407485,-0.74959 -2.154374,-1.15737 -2.3014259,-1.25652 -0.1505781,-0.10154 -0.5276954,-0.40924 -0.5276954,-0.43056 0,-0.0254 0.087591,-0.0399 0.2392271,-0.0399 0.1169455,6e-5 0.178389,0.0136 0.3120344,0.0685 0.09153,0.0377 0.7327638,0.38282 1.4249628,0.76703 0.692199,0.38422 1.792128,0.99344 2.44428,1.35384 1.978867,1.09357 3.121024,1.74025 4.264491,2.41452 0.673111,0.39693 1.418031,0.84829 1.399974,0.84829 -0.0069,0 -0.146633,-0.0321 -0.310684,-0.0714 -0.164051,-0.0393 -0.301449,-0.0682 -0.305334,-0.0643 -0.01357,0.0136 0.216113,0.17331 0.391375,0.27217 0.494143,0.27872 0.617156,0.35903 0.747382,0.48788 0.0752,0.0744 0.158442,0.17977 0.184982,0.23415 0.02655,0.0543 0.0521,0.0989 0.05682,0.0989 0.0047,0 0.02801,-0.0382 0.05183,-0.0849 z"
         style="fill:none;stroke:#0000ff;stroke-width:0.1;stroke-miterlimit:4;stroke-dasharray:none"
         inkscape:connector-curvature="0" />
      <path
         id="path1072"
         d="m 29.691173,272.89316 c 0.06081,-0.0303 0.179427,-0.12315 0.263644,-0.20632 l 0.153127,-0.15122 0.08486,0.1538 c 0.04671,0.0846 0.09273,0.15867 0.102355,0.16462 0.02688,0.0166 0.06334,-0.23183 0.06334,-0.43196 0,-0.28681 -0.06081,-0.48901 -0.203379,-0.67617 l -0.05183,-0.0681 -0.116805,0.12999 c -0.06427,0.0715 -0.193599,0.21338 -0.287457,0.31531 -0.177904,0.1932 -0.339081,0.41662 -0.392041,0.54343 -0.02748,0.0657 -0.02741,0.081 2.33e-4,0.13446 0.04438,0.0859 0.130871,0.14725 0.207557,0.14725 0.03626,0 0.115655,-0.0248 0.17644,-0.0551 z"
         style="fill:none;stroke:#0000ff;stroke-width:0.1;stroke-miterlimit:4;stroke-dasharray:none"
         inkscape:connector-curvature="0" />
      <path
         id="path1070"
         d="m 28.574797,273.04204 c 0.28272,-0.0871 0.265967,-0.0438 0.150206,-0.38768 -0.06896,-0.20481 -0.230079,-0.53858 -0.259986,-0.53858 -0.03087,0 -0.12147,0.12433 -0.185801,0.25506 -0.088,0.17884 -0.117704,0.35103 -0.08944,0.5185 0.03154,0.187 0.05968,0.25137 0.104104,0.23853 0.02003,-0.006 0.146427,-0.0444 0.280917,-0.0858 z"
         style="fill:none;stroke:#0000ff;stroke-width:0.1;stroke-miterlimit:4;stroke-dasharray:none"
         inkscape:connector-curvature="0" />
      <path
         id="path1068"
         d="m 26.484055,273.33405 c 0.09575,-0.0446 0.109215,-0.0585 0.109215,-0.11256 0,-0.13205 -0.01278,-0.13197 -0.204411,10e-4 -0.239193,0.16627 -0.236585,0.16265 -0.116985,0.16241 0.0652,-2.3e-4 0.14304,-0.0189 0.212181,-0.0511 z"
         style="fill:none;stroke:#0000ff;stroke-width:0.1;stroke-miterlimit:4;stroke-dasharray:none"
         inkscape:connector-curvature="0" />
      <path
         id="path1066"
         d="m 28.576873,273.92475 c 0.153798,-0.0427 0.321808,-0.24538 0.35942,-0.43353 l 0.01397,-0.07 -0.237205,0.014 c -0.384123,0.0227 -0.839803,0.0586 -0.848925,0.0669 -0.01836,0.0167 0.07489,0.18951 0.143672,0.26632 0.137884,0.154 0.358907,0.21472 0.569039,0.15634 z"
         style="fill:none;stroke:#0000ff;stroke-width:0.1;stroke-miterlimit:4;stroke-dasharray:none"
         inkscape:connector-curvature="0" />
      <path
         id="path1064"
         d="m 27.506219,273.78597 c -0.02083,-0.1345 -0.03819,-0.25625 -0.03859,-0.27056 -0.0013,-0.0504 -0.06341,-0.025 -0.156346,0.0641 -0.08104,0.0777 -0.09397,0.10165 -0.09397,0.17409 0,0.10362 0.0515,0.17363 0.17129,0.23296 0.160185,0.0793 0.160771,0.0783 0.117584,-0.20056 z"
         style="fill:none;stroke:#0000ff;stroke-width:0.1;stroke-miterlimit:4;stroke-dasharray:none"
         inkscape:connector-curvature="0" />
      <path
         id="path1062"
         d="m 24.282608,274.03907 c 0.07311,-0.0616 0.08542,-0.1565 0.03333,-0.25725 -0.03886,-0.0751 -0.197664,-0.21238 -0.236832,-0.20463 -0.0163,0.003 -0.05815,0.0411 -0.093,0.0842 -0.05063,0.0626 -0.06514,0.10315 -0.07225,0.20147 -0.008,0.11063 -0.0033,0.12852 0.04458,0.17659 0.07621,0.0762 0.233366,0.0761 0.324177,-4.2e-4 z"
         style="fill:none;stroke:#0000ff;stroke-width:0.1;stroke-miterlimit:4;stroke-dasharray:none"
         inkscape:connector-curvature="0" />
      <path
         id="path1060"
         d="m 25.719568,274.13367 c 0.361375,-0.0738 0.520064,-0.17346 0.520064,-0.32651 0,-0.0739 -0.05442,-0.21366 -0.08318,-0.21366 -0.03979,0 -0.769717,0.44522 -0.769717,0.46949 0,0.0658 0.04045,0.13053 0.07687,0.12304 0.02062,-0.004 0.135834,-0.0278 0.255967,-0.0524 z"
         style="fill:none;stroke:#0000ff;stroke-width:0.1;stroke-miterlimit:4;stroke-dasharray:none"
         inkscape:connector-curvature="0" />
      <path
         id="path1058"
         d="m 29.569842,274.57825 c 0.258635,-0.13861 0.467457,-0.3726 0.574649,-0.6439 0.05183,-0.13123 0.05662,-0.16739 0.05729,-0.43451 4.72e-4,-0.18201 -0.0094,-0.32506 -0.02641,-0.38111 l -0.02715,-0.0897 -0.139267,0.0759 c -0.11306,0.0616 -0.39902,0.26707 -0.654435,0.47021 -0.04138,0.0329 -0.03919,0.0366 0.101211,0.17008 l 0.143525,0.13642 -0.162494,0.32695 -0.162494,0.32695 0.05729,0.0598 c 0.06407,0.0669 0.0843,0.0655 0.238322,-0.0171 z"
         style="fill:none;stroke:#0000ff;stroke-width:0.1;stroke-miterlimit:4;stroke-dasharray:none"
         inkscape:connector-curvature="0" />
      <path
         id="path1056"
         d="m 24.644829,274.8007 c 0.155315,-0.16784 0.266479,-0.3938 0.26783,-0.54443 6.65e-4,-0.10449 -0.03952,-0.22722 -0.08397,-0.25469 -0.03041,-0.0188 -0.165861,0.0882 -0.227977,0.18 -0.0817,0.12076 -0.127937,0.24619 -0.142647,0.38697 -0.01264,0.12076 0.02322,0.35693 0.05423,0.35693 0.0094,0 0.06905,-0.0562 0.132561,-0.12478 z"
         style="fill:none;stroke:#0000ff;stroke-width:0.1;stroke-miterlimit:4;stroke-dasharray:none"
         inkscape:connector-curvature="0" />
      <path
         id="path1054"
         d="m 27.590923,274.96755 c 0.112408,-0.0573 0.289826,-0.24394 0.438501,-0.46112 l 0.123971,-0.18108 -0.09879,-0.0367 c -0.05436,-0.0202 -0.188935,-0.0713 -0.299114,-0.11364 l -0.200338,-0.077 -0.150705,0.18377 c -0.08289,0.10108 -0.171549,0.21466 -0.197018,0.25241 -0.09937,0.14728 -0.114464,0.29406 -0.04165,0.40519 0.06254,0.0955 0.266705,0.10899 0.425174,0.0281 z"
         style="fill:none;stroke:#0000ff;stroke-width:0.1;stroke-miterlimit:4;stroke-dasharray:none"
         inkscape:connector-curvature="0" />
      <path
         id="path1052"
         d="m 28.900125,275.12336 c 0.03533,-0.14027 -0.0073,-0.2724 -0.129015,-0.4008 -0.07536,-0.0794 -0.118755,-0.0881 -0.104776,-0.0208 0.04711,0.22647 0.164164,0.5442 0.193791,0.52589 0.009,-0.005 0.02695,-0.0525 0.03999,-0.10428 z"
         style="fill:none;stroke:#0000ff;stroke-width:0.1;stroke-miterlimit:4;stroke-dasharray:none"
         inkscape:connector-curvature="0" />
      <path
         id="path1050"
         d="m 26.193404,275.33624 c 0.272434,-0.29013 -0.01603,-0.82233 -0.400403,-0.73865 -0.258096,0.0562 -0.424962,0.32319 -0.300738,0.48119 0.02375,0.0302 0.08441,0.0791 0.134863,0.10864 0.08605,0.0504 0.450511,0.19261 0.499665,0.1949 0.01231,5.9e-4 0.04232,-0.0202 0.06661,-0.0461 z"
         style="fill:none;stroke:#0000ff;stroke-width:0.1;stroke-miterlimit:4;stroke-dasharray:none"
         inkscape:connector-curvature="0" />
      <path
         id="path1048"
         d="m 23.404815,275.1791 c 0.237084,-0.27865 0.304975,-0.39807 0.306279,-0.53881 6.65e-4,-0.10552 -0.0047,-0.11845 -0.07915,-0.18693 -0.07704,-0.0707 -0.08534,-0.0732 -0.210804,-0.0653 -0.169647,0.0108 -0.270311,0.0756 -0.353545,0.22743 -0.05349,0.0976 -0.06154,0.13391 -0.06194,0.27872 -3.33e-4,0.12972 0.01,0.18924 0.04684,0.26942 0.05968,0.13 0.1498,0.24935 0.171111,0.22664 0.009,-0.01 0.09052,-0.1046 0.181236,-0.21122 z"
         style="fill:none;stroke:#0000ff;stroke-width:0.1;stroke-miterlimit:4;stroke-dasharray:none"
         inkscape:connector-curvature="0" />
      <path
         id="path1046"
         d="m 22.837738,275.91022 c 0.04045,-0.0193 0.07351,-0.0504 0.07351,-0.0691 0,-0.12808 -0.133626,-0.41791 -0.363944,-0.78938 l -0.121716,-0.1963 -0.06647,0.0769 c -0.198442,0.22968 -0.16757,0.69392 0.06041,0.9091 0.04225,0.0399 0.09291,0.0789 0.1126,0.0867 0.06751,0.0268 0.232035,0.0172 0.305541,-0.0179 z"
         style="fill:none;stroke:#0000ff;stroke-width:0.1;stroke-miterlimit:4;stroke-dasharray:none"
         inkscape:connector-curvature="0" />
      <path
         id="path1044"
         d="m 25.143602,276.28349 c -0.03034,-0.085 -0.184523,-0.33 -0.333232,-0.52955 -0.147943,-0.19852 -0.160944,-0.21062 -0.174516,-0.16246 -0.02382,0.0845 -0.02076,0.36267 0.0047,0.43915 0.06075,0.18153 0.21089,0.28799 0.407323,0.28882 0.09458,4.2e-4 0.106886,-0.004 0.09556,-0.036 z"
         style="fill:none;stroke:#0000ff;stroke-width:0.1;stroke-miterlimit:4;stroke-dasharray:none"
         inkscape:connector-curvature="0" />
      <path
         id="path1042"
         d="m 22.120762,276.33119 c 0,-0.005 -0.05782,-0.11406 -0.128469,-0.24184 -0.116114,-0.21 -0.131137,-0.22869 -0.156207,-0.19438 -0.106899,0.14626 -0.05815,0.33156 0.106979,0.4066 0.07764,0.0353 0.177697,0.052 0.177697,0.0296 z"
         style="fill:none;stroke:#0000ff;stroke-width:0.1;stroke-miterlimit:4;stroke-dasharray:none"
         inkscape:connector-curvature="0" />
      <path
         id="path1040"
         d="m 29.619816,276.46564 c 0.175807,-0.0605 0.276133,-0.12536 0.40733,-0.26327 0.293185,-0.30819 0.385015,-0.78985 0.238495,-1.2509 -0.03001,-0.0944 -0.06174,-0.1717 -0.07053,-0.1717 -0.0088,0 -0.02814,0.0492 -0.04298,0.10926 -0.03446,0.13952 -0.18652,0.46534 -0.298635,0.63999 -0.04777,0.0744 -0.195262,0.28044 -0.32777,0.45786 -0.265754,0.35585 -0.373777,0.50969 -0.373777,0.53234 0,0.028 0.345853,-0.0116 0.467855,-0.0536 z"
         style="fill:none;stroke:#0000ff;stroke-width:0.1;stroke-miterlimit:4;stroke-dasharray:none"
         inkscape:connector-curvature="0" />
      <path
         id="path1038"
         d="m 23.963774,276.809 c 0.145382,-0.14452 0.199467,-0.28859 0.211616,-0.56373 0.0094,-0.21252 -0.02349,-0.44555 -0.08361,-0.593 l -0.02774,-0.068 -0.134338,0.16984 c -0.381116,0.48182 -0.47351,0.81916 -0.323039,1.17946 l 0.03007,0.072 0.110526,-0.0456 c 0.06474,-0.0267 0.154457,-0.0892 0.216545,-0.15092 z"
         style="fill:none;stroke:#0000ff;stroke-width:0.1;stroke-miterlimit:4;stroke-dasharray:none"
         inkscape:connector-curvature="0" />
      <path
         id="path1036"
         d="m 26.687334,277.00148 c 0.187119,-0.2007 0.30101,-0.36152 0.388495,-0.54856 0.05529,-0.11818 0.06194,-0.15203 0.05476,-0.27879 -0.006,-0.10375 -0.02023,-0.16055 -0.05103,-0.20219 -0.06633,-0.0896 -0.202488,-0.18516 -0.334789,-0.23506 -0.149673,-0.0564 -0.177777,-0.0441 -0.332773,0.1464 -0.225887,0.27759 -0.386891,0.70801 -0.351529,0.93978 0.02774,0.18187 0.145668,0.29583 0.339959,0.32853 0.05456,0.009 0.105455,0.0178 0.113047,0.0192 0.0076,10e-4 0.08583,-0.0748 0.173871,-0.16925 z"
         style="fill:none;stroke:#0000ff;stroke-width:0.1;stroke-miterlimit:4;stroke-dasharray:none"
         inkscape:connector-curvature="0" />
      <path
         id="path1034"
         d="m 23.147597,277.07438 c -0.06141,-0.41352 -0.08939,-0.54961 -0.110445,-0.53659 -0.03426,0.0212 -0.123573,0.2388 -0.144531,0.35224 -0.03333,0.18051 0.0013,0.30352 0.115582,0.41209 0.0507,0.0481 0.132694,0.0942 0.175562,0.0987 0.0069,6.7e-4 -0.0094,-0.14618 -0.03619,-0.32647 z"
         style="fill:none;stroke:#0000ff;stroke-width:0.1;stroke-miterlimit:4;stroke-dasharray:none"
         inkscape:connector-curvature="0" />
      <path
         id="path1032"
         d="m 24.929079,277.53834 c 0.265781,-0.0651 0.422174,-0.14133 0.507549,-0.24727 0.05735,-0.0711 0.0652,-0.0976 0.0717,-0.24118 l 0.0073,-0.16128 -0.173665,-0.0351 c -0.178555,-0.0361 -0.823782,-0.0878 -0.843935,-0.0676 -0.01284,0.0128 0.05788,0.44665 0.109946,0.67419 0.02781,0.12157 0.04138,0.14958 0.06866,0.14167 0.0187,-0.005 0.132295,-0.0339 0.252427,-0.0634 z"
         style="fill:none;stroke:#0000ff;stroke-width:0.1;stroke-miterlimit:4;stroke-dasharray:none"
         inkscape:connector-curvature="0" />
      <path
         id="path1030"
         d="m 27.073261,278.11842 c 0.61852,-0.1041 1.167672,-0.42517 1.482741,-0.86691 0.106905,-0.14989 0.188488,-0.31727 0.173585,-0.35612 -0.0053,-0.0138 -0.05988,-0.0526 -0.121257,-0.0863 -0.08864,-0.0486 -0.13797,-0.0613 -0.239413,-0.0619 -0.192441,-6.7e-4 -0.230412,0.0454 -0.379194,0.46262 -0.118076,0.33116 -0.191223,0.45101 -0.31405,0.51456 -0.07629,0.0395 -0.459991,0.0877 -0.99933,0.12572 -0.24431,0.0172 -0.447776,0.0349 -0.452134,0.0392 -0.0047,0.005 -0.01331,0.0598 -0.01983,0.12307 l -0.01191,0.11514 0.07036,0.009 c 0.184736,0.0226 0.628547,0.0128 0.810382,-0.0178 z"
         style="fill:none;stroke:#0000ff;stroke-width:0.1;stroke-miterlimit:4;stroke-dasharray:none"
         inkscape:connector-curvature="0" />
      <path
         id="path1028"
         d="m 25.628158,277.98121 c 0.10123,-0.17081 0.100066,-0.17362 -0.07737,-0.18708 l -0.09125,-0.007 0.002,0.11579 c 0.0033,0.16899 0.02695,0.2797 0.05416,0.25242 0.01224,-0.0122 0.06274,-0.0906 0.112289,-0.1742 z"
         style="fill:none;stroke:#0000ff;stroke-width:0.1;stroke-miterlimit:4;stroke-dasharray:none"
         inkscape:connector-curvature="0" />
      <path
         id="path1026"
         d="m 23.264889,278.2971 c 0.02741,-0.0177 0.02721,-0.0202 -0.0013,-0.0205 -0.01803,-2.4e-4 -0.1167,-0.0556 -0.219294,-0.12327 -0.426305,-0.28098 -0.698866,-0.70128 -0.779983,-1.20274 l -0.02422,-0.1498 -0.06474,0.0145 c -0.03559,0.008 -0.131017,0.0144 -0.212022,0.0142 -0.269067,-5.4e-4 -0.534115,-0.17252 -0.705219,-0.45758 -0.215661,-0.35932 -0.205415,-0.75531 0.02442,-0.94487 0.08387,-0.0692 0.160092,-0.0998 0.336937,-0.13554 l 0.112149,-0.0226 0.06878,-0.18117 c 0.13455,-0.35441 0.220478,-0.43961 0.480557,-0.47646 0.181509,-0.0257 0.232567,-0.0562 0.462912,-0.27672 0.224363,-0.21475 0.319453,-0.27018 0.469206,-0.27349 l 0.103978,-0.002 0.07008,-0.12336 c 0.03852,-0.0678 0.180751,-0.35852 0.316013,-0.64595 0.271955,-0.57791 0.444382,-0.8922 0.520676,-0.94906 0.06121,-0.0457 0.152128,-0.026 0.259779,0.0562 l 0.07007,0.0535 -0.06999,0.0917 c -0.305335,0.40021 -0.09941,0.92015 0.368601,0.93069 0.143539,0.003 0.285048,-0.0225 0.285048,-0.052 0,-0.013 -0.06081,-0.20183 -0.135135,-0.41962 -0.198196,-0.58076 -0.21952,-0.83074 -0.09554,-1.12009 0.133273,-0.31107 0.531162,-0.42301 0.82317,-0.23158 l 0.05456,0.0358 -0.110306,0.0602 c -0.141915,0.0775 -0.297976,0.23001 -0.360823,0.35267 -0.06839,0.13346 -0.09539,0.31944 -0.06985,0.48102 0.01976,0.12476 0.104869,0.33558 0.1696,0.41993 0.03014,0.0393 0.03207,0.0391 0.0943,-0.0104 0.03493,-0.0278 0.140286,-0.14256 0.234138,-0.25506 0.09385,-0.1125 0.17769,-0.19679 0.186319,-0.18731 0.0086,0.01 0.07418,0.0969 0.145675,0.19415 l 0.129973,0.1769 -0.01623,-0.1769 c -0.05449,-0.59433 0.02661,-0.9096 0.26447,-1.0282 0.109387,-0.0546 0.329053,-0.0776 0.329053,-0.0345 0,0.0108 -0.05116,0.16714 -0.113772,0.34752 -0.06261,0.18037 -0.110112,0.33162 -0.105628,0.33609 0.0047,0.005 0.07385,-0.002 0.154164,-0.0145 0.08031,-0.0124 0.173592,-0.0227 0.207298,-0.0227 h 0.06128 l 0.02548,0.20803 0.02548,0.20803 0.07721,-0.0611 c 0.113093,-0.0896 0.308648,-0.33058 0.42916,-0.52881 0.184809,-0.30399 0.264489,-0.64241 0.2291,-0.97304 -0.02162,-0.20175 -0.02508,-0.20357 -0.196825,-0.1032 -0.417749,0.24409 -0.714667,0.26812 -0.909138,0.0736 -0.126,-0.12606 -0.183917,-0.28731 -0.182893,-0.50919 0.0013,-0.28257 0.09838,-0.47449 0.484243,-0.95737 0.228089,-0.28544 0.359778,-0.47687 0.349466,-0.50802 -0.004,-0.0125 -0.07697,-0.0299 -0.161849,-0.0386 -0.08488,-0.009 -0.463245,-0.053 -0.840808,-0.0983 -1.770936,-0.21258 -2.398651,-0.23635 -3.241202,-0.12276 l -0.183253,0.0247 -0.05316,0.10502 c -0.07155,0.14125 -0.255667,0.33188 -0.433611,0.44892 -0.08031,0.0528 -0.304975,0.16977 -0.499252,0.25987 -0.38399,0.17808 -0.583883,0.28799 -0.69522,0.38225 l -0.07155,0.0605 0.170152,0.21984 0.170159,0.21984 -0.16101,0.0999 c -0.203,0.1259 -0.565547,0.48464 -0.702419,0.69505 -0.121895,0.18738 -0.222627,0.41338 -0.283778,0.63668 -0.04078,0.14891 -0.04531,0.21911 -0.04757,0.73693 l -0.0027,0.57234 -0.09628,0.47868 c -0.128276,0.63774 -0.124164,0.60784 -0.122793,0.89377 0.0013,0.29063 0.0475,0.50691 0.148422,0.69637 0.129886,0.24381 0.823296,1.13452 1.353919,1.73917 0.21296,0.24267 0.971945,1.07204 0.981765,1.07282 0.002,2.3e-4 0.04145,0.0138 0.08719,0.0303 0.09659,0.0348 0.584555,0.0432 0.634468,0.011 z"
         style="fill:none;stroke:#0000ff;stroke-width:0.1;stroke-miterlimit:4;stroke-dasharray:none"
         inkscape:connector-curvature="0" />
      <path
         id="path1024"
         d="m 24.991627,278.46881 c 0,-0.009 -0.04365,-0.11099 -0.09715,-0.22756 l -0.09728,-0.21195 -0.08094,0.0413 c -0.198708,0.10142 -0.515253,0.34404 -0.515253,0.39491 0,0.0106 0.172527,0.0189 0.395241,0.0189 0.21739,0 0.395307,-0.007 0.395387,-0.0156 z"
         style="fill:none;stroke:#0000ff;stroke-width:0.1;stroke-miterlimit:4;stroke-dasharray:none"
         inkscape:connector-curvature="0" />
      <path
         id="path1022"
         d="m 27.859618,279.09577 c 0.03573,-0.007 0.065,-0.0217 0.065,-0.0323 0,-0.0251 -0.2294,-0.33565 -0.240059,-0.32499 -0.01384,0.0138 0.07627,0.37032 0.09363,0.37032 0.009,0 0.04564,-0.006 0.08142,-0.013 z"
         style="fill:none;stroke:#0000ff;stroke-width:0.1;stroke-miterlimit:4;stroke-dasharray:none"
         inkscape:connector-curvature="0" />
      <path
         id="path1020"
         d="m 9.7240269,275.10925 c -0.105575,-0.0303 -0.2359204,-0.12764 -0.2992601,-0.2234 -0.063539,-0.0961 -0.069494,-0.12697 -0.024418,-0.12697 0.017299,0 0.2302784,-0.0232 0.473258,-0.0514 1.0039742,-0.11693 2.1835102,-0.20841 4.3006192,-0.33354 2.104401,-0.12439 3.028921,-0.19162 3.973255,-0.28891 0.25743,-0.0265 0.470091,-0.0468 0.472586,-0.0451 0.0027,0.002 0.01018,0.0542 0.01703,0.11652 l 0.01251,0.11339 -0.197224,0.0879 c -0.108476,0.0483 -0.251875,0.10209 -0.318661,0.11948 -0.175708,0.0458 -1.267267,0.13008 -3.91786,0.3026 -1.969066,0.12817 -3.058076,0.21345 -3.994053,0.31281 -0.4297122,0.0457 -0.4005639,0.0446 -0.4977757,0.0167 z"
         style="fill:none;stroke:#0000ff;stroke-width:0.1;stroke-miterlimit:4;stroke-dasharray:none"
         inkscape:connector-curvature="0" />
      <path
         id="path1018"
         d="m 9.7113859,276.13122 c -0.017898,-0.0289 0.00679,-0.15884 0.043845,-0.23051 0.034265,-0.0663 0.1155684,-0.12675 0.2169518,-0.16124 0.073566,-0.025 0.1574913,-0.0361 1.1337343,-0.1491 0.703895,-0.0815 1.611137,-0.19544 2.974736,-0.37357 2.412178,-0.31514 3.742005,-0.46419 4.826152,-0.54095 0.171623,-0.0122 0.342973,-0.026 0.380783,-0.0309 l 0.06875,-0.009 -0.0067,0.0871 -0.0067,0.0871 -0.301636,0.0581 c -1.314092,0.25298 -2.681311,0.4499 -5.304606,0.76403 -2.129258,0.25497 -3.7869415,0.46818 -3.966781,0.51021 -0.025016,0.006 -0.051696,6.3e-4 -0.059281,-0.0116 z"
         style="fill:none;stroke:#0000ff;stroke-width:0.1;stroke-miterlimit:4;stroke-dasharray:none"
         inkscape:connector-curvature="0" />
      <path
         id="path1016"
         d="m 11.106728,277.08489 c -0.08839,-0.0495 0.01264,-0.17015 0.201703,-0.24092 0.193252,-0.0723 5.315856,-0.91039 7.015928,-1.1478 0.331795,-0.0463 0.624329,-0.0876 0.650077,-0.0916 0.04158,-0.007 0.04677,10e-4 0.04677,0.0716 0,0.0571 -0.01005,0.082 -0.03639,0.0899 -0.129606,0.0392 -3.074011,0.68006 -3.635219,0.79128 -1.407325,0.2789 -2.570906,0.44298 -3.61961,0.51043 -0.536525,0.0345 -0.589625,0.036 -0.623278,0.0171 z"
         style="fill:none;stroke:#0000ff;stroke-width:0.1;stroke-miterlimit:4;stroke-dasharray:none"
         inkscape:connector-curvature="0" />
      <path
         id="path1014"
         d="m 9.4225449,278.78636 c -0.074404,-0.0265 -0.3539504,-0.20387 -0.3749683,-0.23789 -0.00938,-0.0152 0.013639,-0.0214 1.8717004,-0.50144 1.341678,-0.34664 3.362832,-0.84569 4.960802,-1.22491 1.0476,-0.24862 3.010206,-0.70258 3.089154,-0.71454 0.0342,-0.005 0.04272,0.007 0.0479,0.069 l 0.006,0.0753 -0.339127,0.11668 c -1.287598,0.44305 -2.278033,0.71372 -5.577172,1.52417 -1.574531,0.38679 -2.292199,0.57245 -3.09455,0.80058 -0.239939,0.0682 -0.4524929,0.12362 -0.4723397,0.12311 -0.019827,-4.6e-4 -0.072801,-0.014 -0.1176841,-0.03 z"
         style="fill:none;stroke:#0000ff;stroke-width:0.1;stroke-miterlimit:4;stroke-dasharray:none"
         inkscape:connector-curvature="0" />
      <path
         id="path1012"
         d="m 5.582902,281.69787 c 0.1773378,-0.017 0.4534909,-0.0489 0.6136698,-0.0709 0.1601789,-0.022 0.3895258,-0.05 0.5096585,-0.0623 1.730278,-0.17673 3.4957247,-0.611 5.4654237,-1.34441 1.341956,-0.49966 2.803366,-1.14157 4.852558,-2.13142 0.360398,-0.17409 0.791008,-0.37227 0.956909,-0.44039 0.914167,-0.37537 1.62419,-0.82672 2.00852,-1.27679 l 0.09479,-0.11101 -0.09462,-0.19723 c -0.268315,-0.55932 -0.389819,-1.21525 -0.343624,-1.85507 0.0179,-0.24805 0.05502,-0.51056 0.094,-0.665 l 0.01524,-0.0605 -0.112275,0.0124 c -0.06174,0.007 -0.271416,0.0315 -0.465919,0.0548 -1.124619,0.1346 -2.183789,0.19513 -4.025258,0.23003 -2.022532,0.0383 -3.125767,0.0649 -3.515605,0.0848 -0.500856,0.0255 -1.010428,0.0251 -1.103708,-6.6e-4 -0.04072,-0.0113 -0.101543,-0.0494 -0.135215,-0.0845 -0.05057,-0.0528 -0.06121,-0.0815 -0.06121,-0.1649 0,-0.0555 0.0047,-0.10526 0.01038,-0.11052 0.03147,-0.029 2.622064,-0.0873 5.263003,-0.11846 1.762766,-0.0208 4.227938,-0.0634 4.239401,-0.0732 0.01357,-0.0116 -0.05442,-0.57676 -0.07122,-0.59193 -0.01717,-0.0155 -1.222802,-0.28799 -2.493594,-0.5636 -1.291691,-0.28014 -2.459749,-0.47646 -3.390783,-0.5699 -0.774448,-0.0777 -0.959643,-0.0852 -2.038633,-0.0819 -3.9404074,0.0119 -6.4542215,0.28188 -8.7120353,0.9356 -0.9498958,0.27504 -1.5551491,0.58294 -2.017316,1.02626 -0.31884744,0.30585 -0.53374332,0.66343 -0.59852013,0.99594 -0.0411841,0.21123 -0.0173652,0.48567 0.0575513,0.66375 0.11655967,0.27709 0.23685851,0.42841 0.73353613,0.92268 0.2588145,0.25755 0.5168905,0.53368 0.5735103,0.61362 l 0.1029403,0.14534 -0.002,0.23968 c -0.002,0.2652 -0.017831,0.32212 -0.2332324,0.84477 -0.1954149,0.47412 -0.2200322,0.74103 -0.093333,1.01192 0.053825,0.11503 0.08463,0.1511 0.1987615,0.23258 0.3012362,0.21506 0.5595384,0.28564 1.3050372,0.35657 0.5676221,0.054 0.8715861,0.12377 1.1129289,0.25541 0.1369122,0.0747 0.1831263,0.16683 0.1848961,0.36869 0.002,0.26134 -0.1268591,0.46376 -0.5185006,0.81264 -0.293658,0.26159 -0.5545417,0.52824 -0.5449609,0.55701 0.011244,0.0337 0.3324402,0.13096 0.606411,0.18355 0.4342162,0.0834 0.8991176,0.0913 1.5723014,0.0268 z"
         style="fill:none;stroke:#0000ff;stroke-width:0.1;stroke-miterlimit:4;stroke-dasharray:none"
         inkscape:connector-curvature="0" />
      <path
         id="path1010"
         d="m 27.903856,267.71751 c 0,-0.0822 0.112028,-0.59859 0.188861,-0.87058 0.168995,-0.59825 0.478215,-1.46083 1.125417,-3.1394 1.073049,-2.78302 1.715401,-4.28755 2.505764,-5.86908 0.275454,-0.55118 0.754813,-1.45944 0.789983,-1.49681 0.0165,-0.0175 0.217304,0.09 0.208196,0.11149 -0.0053,0.0122 -0.418129,0.98677 -0.917707,2.16579 -0.499572,1.17902 -1.156688,2.72902 -1.460253,3.44444 -0.676065,1.5933 -2.420814,5.66809 -2.432078,5.68003 -0.0047,0.005 -0.0082,-0.007 -0.0082,-0.0259 z"
         style="fill:none;stroke:#0000ff;stroke-width:0.1;stroke-miterlimit:4;stroke-dasharray:none"
         inkscape:connector-curvature="0" />
      <path
         id="path1008"
         d="m 30.554529,264.59576 c 0.11634,-0.18676 0.177018,-0.35563 0.192793,-0.53654 0.02082,-0.23916 -0.01045,-0.24022 -0.154104,-0.005 -0.06893,0.11277 -0.170059,0.28817 -0.22473,0.38978 -0.08247,0.15329 -0.09412,0.18769 -0.06841,0.20209 0.01703,0.01 0.05356,0.0361 0.08113,0.0591 0.02754,0.023 0.05649,0.042 0.06427,0.0424 0.0078,3.5e-4 0.05682,-0.0679 0.109062,-0.1517 z"
         style="fill:none;stroke:#0000ff;stroke-width:0.1;stroke-miterlimit:4;stroke-dasharray:none"
         inkscape:connector-curvature="0" />
      <path
         id="path1006"
         d="m 28.742681,267.65667 c 0.01976,-0.42065 0.10606,-0.74994 0.338967,-1.29364 0.122767,-0.28658 0.283558,-0.60251 0.901346,-1.77098 0.127092,-0.24038 0.730882,-1.43917 1.34175,-2.66397 1.433686,-2.87457 1.810657,-3.58225 2.555451,-4.79725 0.20799,-0.33929 0.202062,-0.33595 0.201456,-0.11372 -2.93e-4,0.10261 -0.01011,0.22871 -0.02182,0.28022 -0.032,0.14049 -0.645379,1.351 -1.302369,2.57033 -1.095198,2.03261 -1.500958,2.83664 -1.827556,3.62134 -0.03812,0.0916 -0.08409,0.20162 -0.102175,0.24454 -0.0181,0.0429 -0.02881,0.0781 -0.02382,0.0781 0.01603,0 0.338215,-0.46347 0.485273,-0.69814 0.220359,-0.35165 0.465381,-0.78666 0.884514,-1.5704 0.537609,-1.00527 0.793376,-1.4563 0.979403,-1.7271 0.03526,-0.0513 0.177944,-0.31515 0.317085,-0.58627 0.269373,-0.52492 0.386997,-0.71787 0.544807,-0.89369 0.09515,-0.10602 0.335215,-0.29878 0.351636,-0.28236 0.0047,0.005 -0.173293,0.38235 -0.394935,0.8398 -1.247087,2.57389 -2.671884,5.12162 -4.166189,7.4497 -0.379459,0.59118 -1.046675,1.58931 -1.062403,1.58931 -0.0073,0 -0.0075,-0.1241 -3.53e-4,-0.27577 z"
         style="fill:none;stroke:#0000ff;stroke-width:0.1;stroke-miterlimit:4;stroke-dasharray:none"
         inkscape:connector-curvature="0" />
      <path
         id="path1004"
         d="m 28.840391,269.06612 c 2.4e-4,-0.034 0.01257,-0.11805 0.02735,-0.18673 0.02249,-0.10421 0.07706,-0.20102 0.329925,-0.58509 0.351894,-0.53448 1.225044,-1.81524 2.325338,-3.41087 1.828615,-2.65182 2.811225,-4.19395 3.692106,-5.79443 0.122301,-0.22222 0.238036,-0.42517 0.257184,-0.45099 0.05269,-0.0711 0.187903,-0.15214 0.315647,-0.18924 0.06294,-0.0183 0.127438,-0.0381 0.14336,-0.0442 0.09212,-0.0348 -0.139494,0.5588 -0.367836,0.94274 -0.04085,0.0687 -0.192747,0.31218 -0.337564,0.54112 -0.144809,0.22894 -0.290085,0.46307 -0.322826,0.52031 -0.07772,0.13584 -0.614441,0.97576 -1.1504,1.80027 -1.343321,2.06653 -2.585171,3.85997 -3.768559,5.44242 -0.46733,0.62491 -1.036003,1.36381 -1.104779,1.43547 -0.03905,0.0406 -0.03939,0.0404 -0.03899,-0.0208 z"
         style="fill:none;stroke:#0000ff;stroke-width:0.1;stroke-miterlimit:4;stroke-dasharray:none"
         inkscape:connector-curvature="0" />
      <path
         id="path1002"
         d="m 31.72109,269.9099 c 0.14473,-0.163 0.537296,-0.36707 1.06092,-0.5515 1.189289,-0.41889 2.057116,-0.78862 4.202083,-1.79023 1.739632,-0.81235 2.568165,-1.17175 3.463596,-1.50247 0.290937,-0.10745 0.67208,-0.23584 0.679139,-0.22878 0.0092,0.009 -0.714109,0.43517 -1.199203,0.70619 -2.363981,1.32078 -5.087681,2.46996 -7.707276,3.25186 -0.251709,0.0751 -0.476378,0.14227 -0.499259,0.1492 l -0.04158,0.0126 z"
         style="fill:none;stroke:#0000ff;stroke-width:0.1;stroke-miterlimit:4;stroke-dasharray:none"
         inkscape:connector-curvature="0" />
      <path
         id="path1000"
         d="m 30.795585,269.9993 c 3e-4,-0.0837 0.08675,-0.25797 0.178163,-0.35921 0.0891,-0.0987 0.735925,-0.58006 1.279415,-0.95219 1.438816,-0.98518 3.183472,-1.96948 5.323794,-3.0036 1.699301,-0.82102 1.773758,-0.85216 2.113823,-0.88422 l 0.147997,-0.014 0.01091,0.11109 c 0.006,0.0611 0.0096,0.112 0.0081,0.11311 -0.0013,10e-4 -0.302481,0.14485 -0.6686,0.31943 -0.887388,0.42313 -2.842615,1.40151 -3.515606,1.75919 -1.794915,0.95396 -3.414781,1.93175 -4.607723,2.78133 -0.291056,0.20727 -0.270471,0.19745 -0.270231,0.12902 z"
         style="fill:none;stroke:#0000ff;stroke-width:0.1;stroke-miterlimit:4;stroke-dasharray:none"
         inkscape:connector-curvature="0" />
      <path
         id="path998"
         d="m 36.386404,269.28335 c 0.168549,-0.0588 0.315814,-0.1164 0.327257,-0.12794 0.0312,-0.0315 -0.293711,-0.005 -0.401581,0.0321 -0.109062,0.038 -0.248316,0.13203 -0.278163,0.18782 -0.0183,0.0342 -0.0163,0.0389 0.01204,0.028 0.0187,-0.007 0.171915,-0.0612 0.340457,-0.12003 z"
         style="fill:none;stroke:#0000ff;stroke-width:0.1;stroke-miterlimit:4;stroke-dasharray:none"
         inkscape:connector-curvature="0" />
      <path
         id="path996"
         d="m 34.636339,269.89464 0.231749,-0.0758 -0.04451,-0.0686 c -0.0519,-0.0799 -0.05323,-0.0798 -0.29415,0.0354 -0.160365,0.0767 -0.219074,0.11699 -0.276513,0.1899 -0.02442,0.0311 -0.01883,0.0323 0.06241,0.0145 0.0491,-0.0108 0.193572,-0.0537 0.321029,-0.0954 z"
         style="fill:none;stroke:#0000ff;stroke-width:0.1;stroke-miterlimit:4;stroke-dasharray:none"
         inkscape:connector-curvature="0" />
      <path
         id="path994"
         d="m 31.897909,271.36954 c 0,-0.23508 0.03094,-0.50996 0.07438,-0.66032 0.04072,-0.14094 0.147611,-0.31409 0.23938,-0.38767 0.123652,-0.0992 1.390865,-0.61899 2.535444,-1.0401 0.642379,-0.23634 0.870342,-0.3166 2.39299,-0.84249 0.680762,-0.23513 1.551343,-0.54002 1.934621,-0.67755 1.208963,-0.43379 1.301684,-0.45891 1.523606,-0.41282 0.06301,0.0131 0.159354,0.0522 0.214064,0.0869 l 0.09948,0.0631 -0.08788,0.0524 c -0.308462,0.18403 -0.88979,0.40469 -1.874077,0.71134 -0.734414,0.22881 -1.004918,0.3222 -1.362555,0.47041 -0.206426,0.0855 -0.560762,0.26309 -0.624781,0.31305 -0.03952,0.0309 -0.03919,0.0316 0.01111,0.0219 0.249153,-0.048 0.720096,-0.17339 1.268942,-0.33795 1.034779,-0.31024 1.401025,-0.39707 1.86922,-0.44315 0.35765,-0.0352 0.405454,-0.0306 0.567103,0.0544 0.102721,0.054 0.147391,0.0901 0.1565,0.1264 0.007,0.0279 0.0047,0.0585 -0.0053,0.0678 -0.01005,0.009 -0.224184,0.0608 -0.475893,0.11436 -1.507504,0.32066 -2.813959,0.68254 -4.545321,1.25902 -1.244272,0.4143 -2.947558,1.03467 -3.023472,1.1012 -0.05895,0.0517 -0.08146,0.10613 -0.09492,0.22973 l -0.01238,0.11344 -0.245627,0.0683 c -0.135096,0.0376 -0.310618,0.0867 -0.390045,0.10919 l -0.144417,0.0409 z"
         style="fill:none;stroke:#0000ff;stroke-width:0.1;stroke-miterlimit:4;stroke-dasharray:none"
         inkscape:connector-curvature="0" />
      <path
         id="path992"
         d="m 38.305045,275.5294 c -1.466973,-0.3475 -2.924258,-0.88943 -4.671003,-1.73704 -0.490264,-0.23789 -1.451777,-0.74013 -1.439834,-0.75208 0.0352,-0.0353 5.509941,2.11129 6.526883,2.55905 0.115222,0.0507 0.03972,0.038 -0.416046,-0.0699 z"
         style="fill:none;stroke:#0000ff;stroke-width:0.1;stroke-miterlimit:4;stroke-dasharray:none"
         inkscape:connector-curvature="0" />
      <path
         id="path990"
         d="m 38.263395,278.70454 c -1.020435,-0.47998 -1.984216,-0.99727 -4.041918,-2.16945 -1.132709,-0.64525 -1.814396,-1.02744 -2.313196,-1.29688 -0.217391,-0.11743 -0.403491,-0.22115 -0.413557,-0.23049 -0.02768,-0.0257 0.123339,-0.0476 0.23594,-0.0343 0.05469,0.007 0.17785,0.0414 0.273725,0.0777 0.244702,0.0925 3.715485,1.82443 4.407604,2.19935 0.662791,0.35905 0.8714,0.4779 1.459461,0.83147 0.672492,0.40432 0.787195,0.50416 0.787195,0.68515 0,0.0492 -0.0071,0.0937 -0.01563,0.099 -0.0086,0.005 -0.179427,-0.0674 -0.379646,-0.16158 z"
         style="fill:none;stroke:#0000ff;stroke-width:0.1;stroke-miterlimit:4;stroke-dasharray:none"
         inkscape:connector-curvature="0" />
      <path
         id="path988"
         d="m 38.513034,279.95273 c -0.752192,-0.27539 -1.468316,-0.62163 -2.361073,-1.14152 -0.679092,-0.39547 -2.156457,-1.30913 -2.413076,-1.49233 -0.09153,-0.0653 -0.334915,-0.23118 -0.540856,-0.3685 -0.205947,-0.13734 -0.468055,-0.32231 -0.582472,-0.41106 -0.209194,-0.16228 -0.539299,-0.47201 -0.616604,-0.57855 l -0.04158,-0.0573 0.0485,0.0184 c 0.119368,0.0454 0.760429,0.35231 1.015298,0.48607 0.746644,0.39185 1.327559,0.7309 2.683507,1.56625 1.10583,0.68127 1.661197,1.01317 2.205053,1.31782 0.536225,0.30037 0.56739,0.32026 0.703457,0.44901 0.111716,0.1057 0.221735,0.26531 0.208469,0.30242 -0.004,0.0108 -0.142754,-0.0301 -0.308655,-0.0908 z"
         style="fill:none;stroke:#0000ff;stroke-width:0.1;stroke-miterlimit:4;stroke-dasharray:none"
         inkscape:connector-curvature="0" />
      <path
         id="path986"
         d="m 33.427922,284.64977 c -0.127831,-0.28311 -0.677449,-1.43763 -1.07243,-2.25274 -0.655041,-1.35182 -1.008984,-2.10964 -1.355982,-2.90333 -0.234377,-0.53609 -0.23449,-0.53581 0.03959,-0.0936 0.853722,1.37725 1.592335,2.81923 2.195452,4.28615 0.178636,0.43448 0.431529,1.09462 0.431529,1.12644 0,0.0107 -0.03513,0.0194 -0.07801,0.0192 -0.07788,-2.4e-4 -0.07814,-4.8e-4 -0.160145,-0.18211 z"
         style="fill:none;stroke:#0000ff;stroke-width:0.1;stroke-miterlimit:4;stroke-dasharray:none"
         inkscape:connector-curvature="0" />
      <path
         id="path984"
         d="m 32.191547,287.80079 c -0.02229,-0.0589 -0.103067,-0.26625 -0.17954,-0.46084 -0.407829,-1.03768 -0.809324,-2.15797 -1.622288,-4.52668 -0.198396,-0.57807 -0.465314,-1.35072 -0.593144,-1.71702 -0.742359,-2.12721 -0.82136,-2.37566 -0.873589,-2.74723 -0.01291,-0.0916 -0.02043,-0.22687 -0.01683,-0.30067 l 0.0067,-0.13418 0.153606,0.42555 c 0.210904,0.58429 0.527103,1.40987 1.219169,3.18318 0.962111,2.46528 1.334139,3.4942 1.734536,4.79724 0.178283,0.58021 0.429592,1.50493 0.413398,1.52114 -0.0047,0.005 -0.05183,0.0215 -0.104923,0.0375 l -0.09649,0.0291 z"
         style="fill:none;stroke:#0000ff;stroke-width:0.1;stroke-miterlimit:4;stroke-dasharray:none"
         inkscape:connector-curvature="0" />
      <path
         id="path982"
         d="m 34.48777,295.47229 c 0.226074,-0.0626 0.429872,-0.15618 0.62892,-0.28874 0.248921,-0.16576 0.395613,-0.31853 0.488188,-0.50841 0.152833,-0.31348 0.171675,-0.54197 0.133006,-1.61311 -0.01038,-0.28689 -0.01237,-0.54722 -0.0047,-0.57851 l 0.01424,-0.0569 0.06697,0.0468 c 0.129574,0.0905 0.345115,0.30217 0.67216,0.66003 0.181695,0.19882 0.404589,0.42091 0.49532,0.49354 0.294769,0.23596 0.574362,0.34978 0.828898,0.33744 l 0.127039,-0.006 0.05842,-0.16892 c 0.136074,-0.39357 0.150552,-0.62632 0.06786,-1.09106 -0.271582,-1.52639 -0.694488,-2.82613 -1.817982,-5.58727 -0.491368,-1.2076 -1.498376,-3.23594 -2.288419,-4.6094 -1.127107,-1.95943 -2.325764,-3.59416 -3.571068,-4.87022 l -0.33576,-0.34406 0.241742,-0.16161 c 0.13296,-0.0889 0.292154,-0.17751 0.353764,-0.19694 l 0.112022,-0.0353 0.102821,0.11382 c 0.251915,0.27886 0.555513,0.65746 0.984167,1.22728 0.796756,1.05914 0.898871,1.17415 1.726938,1.94509 2.285911,2.12818 3.588905,3.21464 5.054979,4.21491 1.14402,0.78054 2.273563,1.39476 3.364955,1.82979 1.419494,0.56581 2.584805,0.61701 3.35727,0.1475 0.245481,-0.14921 0.352446,-0.24753 0.412559,-0.37919 0.106247,-0.23273 0.124551,-0.32171 0.123087,-0.59866 -0.002,-0.42011 -0.08126,-0.63289 -0.518102,-1.39476 -0.45039,-0.7855 -0.581713,-1.1076 -0.60677,-1.48827 -0.01291,-0.19629 0.02362,-0.44828 0.08703,-0.6001 0.03606,-0.0864 0.147125,-0.15802 0.332719,-0.21462 0.108942,-0.0332 0.190372,-0.0374 0.640144,-0.0328 0.579338,0.006 0.743902,-0.015 0.955351,-0.12183 0.102149,-0.0516 0.119787,-0.0686 0.111869,-0.10763 -0.0053,-0.0255 -0.0147,-0.10768 -0.02122,-0.1826 -0.01743,-0.20087 -0.08365,-0.41985 -0.198655,-0.65698 -0.159593,-0.3291 -0.367723,-0.59095 -0.808739,-1.01748 -0.711334,-0.68798 -1.075357,-1.06003 -1.194804,-1.22117 -0.06514,-0.0879 -0.11841,-0.17045 -0.11841,-0.18355 0,-0.0131 0.06068,-0.10871 0.134903,-0.21248 l 0.13491,-0.18868 -0.163659,-0.1793 c -0.596391,-0.65339 -1.348151,-1.26734 -2.175991,-1.7771 -0.542266,-0.33391 -1.747271,-0.9485 -2.600301,-1.32626 -1.801788,-0.7979 -3.567701,-1.37499 -5.710252,-1.86607 l -0.530457,-0.12158 h -0.93611 c -0.514861,0 -0.972211,-0.008 -1.016336,-0.0184 -0.08013,-0.0183 -0.08021,-0.0184 -0.06672,-0.10288 0.01883,-0.11764 0.10976,-0.27624 0.205395,-0.35814 0.173446,-0.14854 0.335747,-0.21085 1.006117,-0.38629 0.352679,-0.0923 1.193534,-0.31764 1.868574,-0.50076 1.46813,-0.39828 2.413588,-0.63858 3.130757,-0.79572 0.291755,-0.0639 0.584142,-0.13041 0.649757,-0.14774 0.2231,-0.0589 0.384024,-0.0327 0.565307,0.0921 0.05023,0.0346 0.120113,0.0993 0.155349,0.14377 l 0.06407,0.0809 -0.211496,0.045 c -0.116326,0.0247 -0.722258,0.14356 -1.346514,0.26394 -2.180602,0.42053 -2.940871,0.59957 -3.901731,0.91885 -0.423378,0.14069 -0.428774,0.13681 0.243032,0.17502 0.877508,0.0499 1.850032,-0.0427 3.002142,-0.28605 0.557855,-0.11781 1.18718,-0.27897 2.319464,-0.59399 1.234585,-0.34347 1.845434,-0.50144 2.44428,-0.6321 0.240271,-0.0524 0.525779,-0.11775 0.634474,-0.14518 0.108689,-0.0274 0.707802,-0.16313 1.331352,-0.30157 2.54527,-0.56506 3.442638,-0.8408 4.607729,-1.41581 0.383957,-0.1895 0.480098,-0.24634 0.597063,-0.35293 0.434077,-0.3956 0.567968,-0.94312 0.340478,-1.39227 -0.02841,-0.056 -0.115495,-0.18027 -0.193579,-0.27609 -0.210544,-0.25834 -0.383218,-0.48998 -0.480563,-0.64468 -0.196619,-0.31246 -0.314975,-0.66433 -0.315261,-0.93729 l -2.4e-4,-0.1382 -0.161217,-0.0425 c -0.173805,-0.0458 -0.503384,-0.11142 -0.754081,-0.15005 -0.828653,-0.12771 -1.292483,-0.31626 -1.588642,-0.64582 -0.0908,-0.10104 -0.09633,-0.11399 -0.09585,-0.22464 0.0013,-0.27522 0.09629,-0.47573 0.451235,-0.95139 0.303159,-0.40627 0.406638,-0.58611 0.454383,-0.78969 0.04331,-0.18468 0.03134,-0.39466 -0.02495,-0.43739 -0.08324,-0.0632 -0.344729,-0.15624 -0.530291,-0.18866 -0.339499,-0.0593 -0.614049,-0.026 -1.391024,0.16864 -0.245987,0.0616 -0.601708,0.14617 -0.790489,0.18787 -2.359583,0.52116 -4.777849,1.59525 -7.694914,3.41774 -0.908093,0.56735 -2.284554,1.47317 -2.737479,1.80147 -0.834654,0.60501 -1.945646,1.57811 -2.901617,2.54149 -0.18117,0.18257 -0.274064,0.26173 -0.307144,0.26173 -0.08048,0 -0.193219,-0.12207 -0.206885,-0.22401 -0.01045,-0.078 -0.0027,-0.10304 0.06694,-0.2081 0.17964,-0.27212 0.297357,-0.40176 0.987234,-1.08719 0.861001,-0.85545 1.369269,-1.42253 2.17315,-2.42464 2.495897,-3.11135 4.625435,-6.83027 6.352106,-11.09297 0.172082,-0.42483 0.358914,-1.0666 0.466505,-1.60245 0.06161,-0.30697 0.06771,-0.96485 0.01085,-1.17599 -0.04271,-0.15855 -0.200651,-0.48476 -0.274929,-0.56777 -0.111483,-0.12459 -0.396631,-0.22321 -0.644727,-0.22296 -0.282787,2.9e-4 -0.499605,0.0724 -1.12416,0.37398 -0.452659,0.21856 -0.72504,0.31086 -1.002204,0.33962 -0.184317,0.0192 -0.230212,0.0172 -0.343738,-0.0144 -0.370264,-0.10297 -0.640682,-0.44762 -0.640682,-0.81655 0,-0.0603 0.02302,-0.18268 0.0511,-0.27198 0.152914,-0.48607 0.224151,-0.93029 0.21481,-1.33965 l -0.006,-0.25713 -0.123992,-0.0377 c -0.21952,-0.0668 -0.391847,-0.0842 -0.582266,-0.0589 -0.64174,0.0854 -1.162123,0.48316 -2.0849,1.59346 -1.528982,1.83968 -2.195812,2.78729 -2.753387,3.91271 -0.262354,0.52955 -0.716777,1.6229 -1.137493,2.73683 -1.272203,3.36846 -2.25639,7.0617 -2.946839,11.05834 l -0.04977,0.28796 0.04438,-0.0127 c 0.326539,-0.0936 0.403578,-0.10479 0.720449,-0.10435 0.369566,4.7e-4 0.511063,0.0285 0.78009,0.15424 0.330697,0.15458 0.563291,0.38345 0.723403,0.71183 0.08304,0.1703 0.0942,0.18335 0.202102,0.23637 0.324968,0.15967 0.666683,0.45597 0.894447,0.77558 0.163026,0.22876 0.373092,0.65497 0.467369,0.94827 0.164131,0.51061 0.23801,0.98467 0.258063,1.65593 l 0.01331,0.44562 0.624069,0.24327 c 1.13376,0.44195 2.646321,1.07803 4.753344,1.99892 0.371841,0.16251 0.980308,0.41497 1.352149,0.56102 0.938825,0.36873 1.307992,0.53751 1.716147,0.78464 0.248887,0.1507 0.266505,0.16907 0.24946,0.25999 l -0.01364,0.0729 -0.107471,-0.038 c -1.317519,-0.46547 -2.15651,-0.81193 -3.987114,-1.64646 -2.615184,-1.19221 -3.439165,-1.549 -4.474377,-1.93746 l -0.137085,-0.0514 -0.01324,0.74185 c -0.0073,0.40802 -0.0073,0.97368 -1.3e-5,1.25703 l 0.01324,0.51516 0.137098,0.0764 c 0.68353,0.38095 1.399887,0.87214 2.924617,2.00536 1.533965,1.14007 1.574797,1.16843 3.303997,2.29465 0.25618,0.16685 0.451721,0.36175 0.526172,0.52444 0.05396,0.11791 0.09458,0.32518 0.07117,0.36309 -0.01896,0.0307 -0.806203,-0.46394 -1.498662,-0.94172 -1.01096,-0.69754 -1.570159,-1.11532 -3.640422,-2.71979 -0.554901,-0.43005 -1.184918,-0.91589 -1.400027,-1.07964 l -0.391116,-0.29774 -0.732212,0.34851 c -0.402719,0.19168 -0.738539,0.35408 -0.74627,0.36089 -0.0077,0.007 0.04231,0.13413 0.11121,0.28294 1.246355,2.69206 2.291253,5.18992 3.173398,7.58609 0.120106,0.32623 0.253718,0.68212 0.296918,0.79086 0.183532,0.46197 0.240944,0.74764 0.206074,1.02544 -0.02136,0.17044 -0.04584,0.21089 -0.07617,0.12603 -0.01158,-0.0323 -0.182048,-0.48027 -0.378847,-0.99537 -0.196799,-0.51511 -0.516937,-1.35332 -0.711414,-1.86271 -0.709391,-1.85801 -1.26201,-3.21277 -1.795547,-4.4018 -0.245455,-0.54702 -0.805199,-1.70276 -0.980495,-2.0245 l -0.09527,-0.17486 -0.07315,0.10867 c -0.141397,0.21007 -0.3661,0.38942 -0.832784,0.66471 -0.105835,0.0624 -0.192421,0.12257 -0.192421,0.13364 0,0.0111 0.07889,0.2736 0.175308,0.58339 0.580124,1.86388 1.120401,3.80668 1.759679,6.32771 l 0.248196,0.97875 -0.02715,0.11447 c -0.05136,0.21681 -0.154111,0.36325 -0.245728,0.35027 -0.06852,-0.01 -0.09428,-0.0986 -0.413817,-1.42816 -0.515526,-2.14499 -0.899982,-3.66559 -0.969303,-3.83383 -0.0084,-0.0203 -0.02329,0.001 -0.04278,0.0624 -0.04464,0.13971 -0.03859,0.4337 0.0139,0.6764 0.02475,0.11447 0.06819,0.32051 0.09652,0.45787 0.104777,0.50801 0.683843,2.92188 1.113375,4.64115 0.552399,2.21105 0.956875,3.72768 1.141145,4.27892 0.359566,1.07558 0.854547,2.02635 1.499628,2.88052 0.516923,0.68448 0.768073,0.87795 1.298822,1.00051 0.181337,0.0419 0.701601,0.0258 0.894501,-0.0276 z"
         style="fill:none;stroke:#0000ff;stroke-width:0.1;stroke-miterlimit:4;stroke-dasharray:none"
         inkscape:connector-curvature="0" />
      <path
         id="path980"
         d="m 15.923838,284.4605 c -0.115821,-0.16274 -0.139653,-0.34611 -0.05941,-0.45706 0.157884,-0.21825 1.234439,-1.4798 1.921435,-2.25162 0.239433,-0.269 0.710396,-0.79816 1.046575,-1.1759 0.689757,-0.77503 1.33048,-1.51724 1.703073,-1.97283 0.138475,-0.16932 0.259001,-0.3098 0.267829,-0.31219 0.02987,-0.008 0.08779,0.18221 0.08893,0.29202 0.002,0.20962 -0.09251,0.37899 -0.404443,0.72345 -0.259366,0.28641 -0.782039,0.88825 -1.373679,1.58174 -1.73294,2.03126 -2.515458,2.93717 -3.025176,3.5022 l -0.120239,0.13329 z"
         style="fill:none;stroke:#0000ff;stroke-width:0.1;stroke-miterlimit:4;stroke-dasharray:none"
         inkscape:connector-curvature="0" />
      <path
         id="path978"
         d="m 18.787178,286.68292 c -0.04291,-0.0227 -0.07801,-0.0507 -0.07801,-0.0623 0,-0.0351 0.133798,-0.3675 0.25914,-0.6439 0.218449,-0.48173 0.521488,-1.02792 1.021919,-1.84189 0.59158,-0.96223 0.877055,-1.43883 1.059622,-1.76905 0.176812,-0.3198 0.406958,-0.7827 0.475992,-0.95737 l 0.03293,-0.0832 -0.0521,0.0624 c -0.178575,0.21403 -1.130101,1.5864 -2.135646,3.08023 -0.827534,1.22936 -0.852211,1.26368 -0.961618,1.33736 -0.101031,0.0681 -0.235548,0.11497 -0.404496,0.1411 l -0.09061,0.014 0.0143,-0.0906 c 0.03905,-0.24795 0.05768,-0.28009 0.500823,-0.86426 0.936968,-1.23515 1.829646,-2.55746 3.710342,-5.49611 0.317943,-0.49681 0.309107,-0.48812 0.453112,-0.4454 0.04438,0.0132 0.04105,0.0247 -0.120898,0.41938 -0.267344,0.65155 -0.32896,0.8156 -0.296073,0.7883 0.04764,-0.0396 0.290677,-0.37008 0.549026,-0.74668 0.129574,-0.18887 0.237923,-0.34667 0.240784,-0.35068 0.0088,-0.0123 0.152295,0.0404 0.16471,0.0605 0.02834,0.0459 -0.691261,1.51508 -1.156455,2.36106 -0.525593,0.9558 -0.956988,1.68672 -2.088234,3.53809 -0.363704,0.59524 -0.731287,1.19697 -0.816849,1.33719 -0.08556,0.14023 -0.166387,0.25454 -0.179613,0.25403 -0.01324,-4.7e-4 -0.05915,-0.0195 -0.102049,-0.0421 z"
         style="fill:none;stroke:#0000ff;stroke-width:0.1;stroke-miterlimit:4;stroke-dasharray:none"
         inkscape:connector-curvature="0" />
      <path
         id="path976"
         d="m 24.180433,287.45686 c -0.04418,-0.008 -0.07516,-0.0264 -0.07918,-0.0474 -0.0088,-0.0459 0.119174,-0.7864 0.236772,-1.37024 0.193046,-0.95844 0.400976,-1.81536 0.896356,-3.69419 0.17807,-0.67536 0.424057,-1.62596 0.546638,-2.11245 l 0.222866,-0.88452 0.07716,-0.007 0.07716,-0.007 -0.01124,0.10017 c -0.006,0.0551 -0.02568,0.23597 -0.04331,0.40195 -0.04864,0.45763 -0.12435,0.92932 -0.249792,1.55544 -0.10821,0.54016 -0.195122,0.92362 -0.574335,2.53418 -0.09164,0.38919 -0.226606,0.97922 -0.299939,1.31118 -0.273279,1.23717 -0.367051,1.57436 -0.559978,2.01359 -0.07017,0.15973 -0.10805,0.22295 -0.132447,0.22099 -0.01876,-0.001 -0.06683,-0.009 -0.106746,-0.0156 z"
         style="fill:none;stroke:#0000ff;stroke-width:0.1;stroke-miterlimit:4;stroke-dasharray:none"
         inkscape:connector-curvature="0" />
      <path
         id="path974"
         d="m 26.374275,287.93772 c -0.01737,-0.86116 -0.004,-2.13879 0.04138,-3.97979 0.01623,-0.65819 0.03433,-1.47299 0.04019,-1.81068 l 0.01065,-0.61396 -0.113758,0.66599 c -0.06254,0.3663 -0.221789,1.37778 -0.353831,2.24773 -0.244423,1.61045 -0.488707,3.19588 -0.574808,3.7306 l -0.04777,0.29655 -0.07678,2e-5 c -0.04225,1e-5 -0.08069,-0.007 -0.08547,-0.0156 -0.0165,-0.0296 0.09639,-1.20474 0.205395,-2.13848 0.256865,-2.20044 0.688786,-4.5867 1.190387,-6.57669 l 0.09967,-0.39543 0.111437,-0.007 0.111443,-0.007 -0.01431,0.39143 c -0.0079,0.21528 -0.04644,1.15003 -0.08563,2.07722 -0.115109,2.72208 -0.121257,2.95756 -0.123326,4.7244 -0.002,1.75627 -0.0027,1.76467 -0.08967,1.93555 -0.04424,0.0866 -0.14761,0.21526 -0.192201,0.23914 -0.03526,0.0189 -0.03799,-0.0205 -0.05296,-0.76521 z"
         style="fill:none;stroke:#0000ff;stroke-width:0.1;stroke-miterlimit:4;stroke-dasharray:none"
         inkscape:connector-curvature="0" />
      <path
         id="path972"
         d="m 27.773557,296.4037 c 0.403444,-1.98546 0.681387,-4.15974 0.816769,-6.38938 0.05582,-0.9196 0.06534,-1.24792 0.07635,-2.63277 l 0.01171,-1.47767 -0.128869,-0.61397 c -0.769164,-3.66451 -1.006289,-4.73232 -1.35352,-6.0952 -0.07981,-0.31324 -0.145102,-0.57446 -0.145102,-0.58051 0,-0.006 -0.05456,-0.005 -0.121177,0.002 -0.146387,0.0153 -0.387271,0.0985 -0.766623,0.26469 -0.496066,0.21735 -0.574688,0.23769 -0.911606,0.23594 -0.227404,-10e-4 -0.351682,-0.0136 -0.567004,-0.0567 -0.352533,-0.0706 -0.564654,-0.0732 -0.690489,-0.008 -0.08469,0.0436 -0.102953,0.0699 -0.264064,0.37982 -0.238728,0.45929 -0.50522,1.04367 -1.053475,2.31017 -0.569345,1.31524 -0.65822,1.51012 -0.972849,2.13327 -0.38582,0.76414 -0.734029,1.3377 -1.146648,1.88872 -0.113573,0.15166 -0.210166,0.27576 -0.214643,0.27576 -0.01251,0 0.215002,-0.54967 0.400637,-0.96793 0.268608,-0.60522 0.652764,-1.39592 1.314418,-2.70545 0.704202,-1.39373 1.035438,-2.07672 1.345316,-2.77394 0.237364,-0.53407 0.256506,-0.58725 0.211403,-0.58725 -0.01637,0 -0.232261,-0.0554 -0.479811,-0.12313 -0.469932,-0.12856 -0.767322,-0.18905 -0.92943,-0.18905 h -0.09576 l -0.521674,0.66079 c -0.685972,0.86889 -3.343823,4.28132 -3.635153,4.66716 -0.276878,0.36671 -0.55705,0.65122 -0.732431,0.74376 -0.103287,0.0545 -0.336865,0.12868 -0.409539,0.13005 -0.0314,6e-4 0.50353,-0.76188 0.97072,-1.38371 0.637808,-0.84892 1.088232,-1.41303 2.46778,-3.09063 1.303686,-1.58534 1.653512,-2.01708 1.653512,-2.04064 0,-0.0314 -0.245821,-0.35291 -0.436811,-0.57131 -0.181869,-0.20796 -1.005039,-1.07699 -1.030714,-1.08813 -0.02262,-0.01 -0.799544,0.94977 -0.782664,0.96666 0.004,0.004 0.113572,-0.0206 0.243478,-0.0547 0.129906,-0.0341 0.238176,-0.0599 0.240598,-0.0573 0.01803,0.0189 -1.081392,1.21849 -2.445724,2.6686 -1.733432,1.84241 -2.158573,2.30632 -2.794245,3.04901 -0.17145,0.20032 -0.31745,0.37047 -0.324443,0.37811 -0.01963,0.0215 -0.272746,-0.10141 -0.272746,-0.13243 0,-0.0151 0.04611,-0.12104 0.102454,-0.23542 0.110306,-0.22392 0.118429,-0.23353 1.019071,-1.20694 0.64019,-0.69191 3.177357,-3.37887 3.86917,-4.0976 0.191503,-0.19895 0.152734,-0.18044 -0.300019,0.14323 -1.168837,0.83559 -2.332138,1.93236 -3.818944,3.60053 -0.377051,0.42304 -2.041567,2.47375 -2.559289,3.15307 -0.892458,1.17103 -1.587292,2.268 -2.039898,3.22051 -0.166965,0.35139 -0.225421,0.56138 -0.239047,0.85871 -0.01337,0.29182 0.02209,0.48448 0.129281,0.70235 0.16435,0.33405 0.436731,0.49766 1.117386,0.67113 0.482114,0.12288 0.563763,0.1488 0.741554,0.23542 0.186339,0.0908 0.340164,0.23793 0.421435,0.4031 0.100126,0.20348 0.103512,0.37637 0.01623,0.82888 -0.0887,0.45983 -0.09783,0.80414 -0.02495,0.94055 0.09666,0.18091 0.230125,0.23521 0.577456,0.23492 0.268022,-2.3e-4 0.431222,-0.0341 0.648906,-0.13474 0.376132,-0.17386 0.639078,-0.42625 1.192675,-1.1448 0.601488,-0.7807 0.879537,-1.03971 1.290214,-1.20187 0.0738,-0.0291 0.163698,-0.0591 0.199773,-0.0667 0.06161,-0.0129 0.06729,-0.009 0.09314,0.0655 0.04225,0.12158 0.03087,0.34336 -0.033,0.64119 -0.07418,0.34622 -0.07803,0.54409 -0.01344,0.69053 0.07533,0.17078 0.09856,0.18359 0.332986,0.18359 0.191057,0 0.210039,-0.004 0.35906,-0.0778 0.185442,-0.0917 0.355687,-0.24337 0.687728,-0.61272 0.619432,-0.68905 0.723384,-0.80843 0.959237,-1.10168 0.907834,-1.12875 1.702754,-2.41054 2.657393,-4.285 0.330444,-0.64882 1.603938,-3.26921 1.739726,-3.57972 0.107458,-0.24571 0.216519,-0.53762 0.435447,-1.16548 0.107771,-0.30907 0.248176,-0.69306 0.312021,-0.85331 0.173519,-0.43557 0.455214,-0.98859 0.503564,-0.98859 0.0095,0 0.07409,0.0592 0.143572,0.13162 0.162082,0.16886 0.188516,0.25242 0.141962,0.44872 -0.01796,0.0757 -0.08011,0.36246 -0.13811,0.63718 -0.233804,1.10733 -0.586863,2.5672 -0.903475,3.73582 -0.155974,0.57571 -0.537842,1.91782 -0.568986,1.99977 -0.02841,0.0748 -0.120146,0.1619 -0.312201,0.29654 -0.254609,0.1785 -0.27451,0.21082 -0.384343,0.6244 -0.414056,1.55914 -0.641234,3.10309 -0.723217,4.91513 -0.02688,0.59463 -0.01311,2.18845 0.02189,2.53411 0.06174,0.60931 0.307311,0.97496 0.689717,1.02703 0.118642,0.0162 0.376725,-0.0337 0.560397,-0.10834 0.27942,-0.11347 0.509984,-0.27657 1.089376,-0.77058 0.189607,-0.16167 0.412633,-0.34091 0.495613,-0.3983 0.317583,-0.21965 0.674767,-0.35878 0.921074,-0.35878 0.152254,0 0.369359,0.11105 0.502506,0.25704 0.184703,0.20252 0.262553,0.39515 0.401388,0.99314 0.09727,0.419 0.148682,0.58524 0.233392,0.75475 0.154191,0.30853 0.429619,0.47622 0.764734,0.46559 l 0.134344,-0.004 0.02748,-0.13528 z"
         style="fill:none;stroke:#0000ff;stroke-width:0.1;stroke-miterlimit:4;stroke-dasharray:none"
         inkscape:connector-curvature="0" />
      <path
         id="path964"
         d="m 27.390565,296.98658 c -0.343758,-0.0722 -0.569732,-0.18973 -0.763257,-0.39703 -0.282966,-0.30311 -0.35065,-0.48036 -0.627249,-1.64272 -0.03134,-0.13163 -0.0648,-0.25448 -0.07436,-0.27298 -0.02681,-0.0518 -0.23447,-0.0677 -0.40922,-0.0312 -0.290351,0.0605 -0.48584,0.19557 -1.010381,0.69777 -0.192594,0.18439 -0.393857,0.365 -0.44725,0.40135 -0.05336,0.0363 -0.152016,0.11544 -0.219168,0.17575 -0.467642,0.41997 -1.249575,0.47272 -1.766738,0.11919 -0.268049,-0.18324 -0.417011,-0.42557 -0.490849,-0.79849 -0.292334,-1.47646 -0.302594,-3.04864 -0.03293,-5.05065 0.08859,-0.65773 0.167704,-1.14837 0.406671,-2.52199 0.126161,-0.7252 0.226586,-1.32615 0.223166,-1.33546 -0.0033,-0.009 -0.212155,0.32128 -0.463863,0.73463 -1.242782,2.04088 -1.605974,2.59689 -2.20691,3.37855 -0.628633,0.81769 -1.380692,1.57825 -2.047176,2.07033 -0.365161,0.2696 -0.849883,0.57228 -0.874067,0.5458 -0.0085,-0.009 -0.09264,-0.25105 -0.186986,-0.53722 -0.09435,-0.28617 -0.218781,-0.65545 -0.276512,-0.82062 l -0.104963,-0.30032 -0.188841,0.197 c -0.107252,0.11188 -0.310132,0.36753 -0.469566,0.59169 -0.15439,0.21708 -0.348248,0.47592 -0.430783,0.5752 -0.22586,0.27168 -0.496059,0.47651 -0.757914,0.57453 -0.180005,0.0674 -0.760276,0.19043 -0.967354,0.20513 -0.344542,0.0245 -0.632598,-0.067 -0.790701,-0.25109 -0.08751,-0.1019 -0.200246,-0.33334 -0.238955,-0.49055 -0.04378,-0.17782 -0.03114,-0.52657 0.0328,-0.90533 0.03094,-0.18316 0.06161,-0.4242 0.06814,-0.53565 l 0.01191,-0.20265 -0.09142,-0.0908 c -0.125715,-0.12492 -0.266812,-0.17227 -0.662805,-0.22244 -0.413325,-0.0524 -0.611201,-0.10199 -0.822371,-0.20625 -0.7252331,-0.35807 -1.1190969,-1.33658 -0.8853055,-2.19942 0.088316,-0.32595 0.8336555,-1.63321 1.5056345,-2.64077 1.140401,-1.7099 2.363755,-3.21925 4.788288,-5.90771 0.514861,-0.57091 0.949503,-1.05649 0.965877,-1.07909 0.02901,-0.0401 0.02801,-0.0403 -0.04158,-0.0108 -0.03926,0.0166 -0.34753,0.14767 -0.685047,0.2912 -2.209357,0.93952 -3.398793,1.40549 -4.690936,1.83767 -1.65779,0.55449 -3.153924,0.90917 -4.5141173,1.07014 -0.2059405,0.0244 -0.6739957,0.0865 -1.0401151,0.13804 -1.007986,0.14192 -1.5302324,0.15222 -1.9810819,0.0391 -0.2688277,-0.0675 -0.5769101,-0.22234 -0.7740416,-0.38917 -0.1789346,-0.15142 -0.2533787,-0.27536 -0.2674638,-0.44532 -0.019228,-0.23202 0.1084625,-0.42599 0.5182211,-0.78724 0.1531796,-0.13504 0.3184416,-0.28888 0.3672504,-0.34186 l 0.088742,-0.0963 -0.057551,-0.0158 c -0.1392276,-0.0381 -0.444815,-0.0796 -0.8792308,-0.11955 -0.5556129,-0.051 -0.6758185,-0.0686 -0.9336018,-0.13665 -0.4768507,-0.12583 -0.7663504,-0.35324 -0.9788311,-0.76891 -0.28639251,-0.56028 -0.1713897,-1.21343 0.3322407,-1.88693 l 0.1191611,-0.15934 -0.085981,-0.0823 c -0.047305,-0.0452 -0.2404313,-0.2116 -0.4292129,-0.36966 -0.7121558,-0.59631 -0.98683849,-0.9471 -1.11699091,-1.42648 C 0.00711264,275.05018 -0.00100442,274.9415 6.0115678e-5,274.68602 0.00139078,274.39701 0.00857638,274.32643 0.05508315,274.15177 c 0.17128329,-0.64339 0.59803446,-1.22519 1.18014755,-1.60895 0.2451685,-0.16162 0.326725,-0.20252 0.7176813,-0.35988 1.5153089,-0.60993 3.2816946,-0.98842 5.4086176,-1.15893 1.0339074,-0.0829 2.032419,-0.1151 3.5728114,-0.11529 0.660735,0 1.201338,-0.006 1.201338,-0.0132 0,-0.0331 -0.128083,-0.23189 -0.180605,-0.28031 -0.03227,-0.0297 -0.14755,-0.10134 -0.256246,-0.15915 -0.402633,-0.21414 -1.7659797,-0.88846 -2.6734671,-1.3223 -2.5362958,-1.21255 -3.4590859,-1.68275 -4.5530994,-2.32002 -0.6922523,-0.40323 -0.9526436,-0.59096 -1.2463016,-0.89847 -0.5642222,-0.59085 -0.67176,-1.28955 -0.2630726,-1.70933 0.2000257,-0.20545 0.5255065,-0.31099 1.096269,-0.35544 0.3591933,-0.028 0.3341035,-0.008 0.2871111,-0.22972 -0.05968,-0.28178 -0.2043371,-0.67942 -0.3961791,-1.08914 -0.4451942,-0.95081 -0.5786401,-1.31853 -0.6365839,-1.75417 -0.037724,-0.28348 -0.018297,-0.45494 0.072235,-0.63822 0.1647165,-0.33344 0.4115683,-0.45668 1.1725428,-0.58538 0.6380143,-0.10791 0.5929979,-0.0904 0.668593,-0.25958 0.035063,-0.0785 0.1112503,-0.30939 0.1692673,-0.51311 0.1703119,-0.59803 0.292334,-0.80268 0.6093585,-1.02194 0.7243614,-0.50099 1.6777501,-0.61804 2.8226018,-0.34655 0.8134293,0.19291 2.7002932,1.00038 3.8900422,1.66472 1.007653,0.56266 1.974448,1.21657 2.714711,1.83614 0.137291,0.11491 0.320677,0.26843 0.407516,0.34117 0.08684,0.0727 0.283419,0.23627 0.436851,0.36343 0.568933,0.47152 0.887069,0.78688 2.463209,2.44176 0.696178,0.73096 1.541257,1.53543 1.501131,1.42901 -0.0083,-0.0218 -0.112182,-0.32154 -0.230997,-0.666 -0.118815,-0.34447 -0.344137,-0.99155 -0.50071,-1.43798 -0.156573,-0.44643 -0.418581,-1.20035 -0.582246,-1.6754 -1.041146,-3.02204 -1.595049,-5.07186 -1.943058,-7.19065 -0.03387,-0.20604 -0.09426,-0.56662 -0.134258,-0.80128 -0.13441,-0.78842 -0.179167,-1.25299 -0.17948,-1.86282 -4.32e-4,-0.83288 0.143619,-1.55882 0.424542,-2.13951 0.249707,-0.51618 0.68365,-0.78928 1.301837,-0.81934 0.447576,-0.0218 0.956629,0.11667 1.34034,0.36447 0.105462,0.0681 0.358295,0.26631 0.37574,0.29456 0.0071,0.0115 0.02043,0.0209 0.02954,0.0209 0.02934,0 0.180205,-0.35149 0.366279,-0.8533 0.198123,-0.5343 0.313698,-0.79224 0.446758,-0.99711 0.172747,-0.26597 0.482033,-0.53764 0.679943,-0.59722 0.13638,-0.0411 0.333279,-0.036 0.490617,0.0126 0.2127,0.0657 0.431801,0.223 0.717189,0.5148 l 0.254709,0.26044 0.08853,-0.0718 c 0.252694,-0.20498 0.616611,-0.39982 0.866437,-0.46391 0.188801,-0.0484 0.454169,-0.0437 0.618879,0.0112 0.177311,0.059 0.323099,0.1716 0.621275,0.47967 0.391688,0.4047 0.658027,0.78098 0.948751,1.34041 0.359632,0.69203 0.574768,1.31483 0.909437,2.63276 0.3791,1.49291 0.484289,2.16526 0.752119,4.80764 0.06904,0.68109 0.153752,1.46311 0.188256,1.73784 0.06121,0.4875 0.183179,1.3043 0.196779,1.31807 0.004,0.004 0.03114,-0.0758 0.06088,-0.1769 0.237963,-0.80924 0.751939,-2.26201 1.077673,-3.0461 1.155004,-2.78023 2.639641,-5.13237 4.406905,-6.98194 0.09844,-0.10302 0.218988,-0.24693 0.267903,-0.3198 0.277703,-0.41375 0.719518,-0.67932 1.269828,-0.76326 0.458121,-0.0699 0.944972,0.002 1.377698,0.203 l 0.18308,0.0851 -0.01311,0.10611 c -0.01424,0.11535 -0.126806,0.756 -0.208782,1.18835 -0.05828,0.30747 -0.09166,1.01637 -0.05256,1.11647 0.0358,0.0916 0.228382,0.17239 0.431914,0.1811 0.261735,0.0112 0.371455,-0.0269 1.038059,-0.36057 0.398654,-0.19955 0.649125,-0.31249 0.73848,-0.33301 0.684993,-0.15725 1.462767,0.28358 1.683718,0.95432 0.149373,0.45345 0.101702,1.38962 -0.112462,2.20872 -0.177471,0.67875 -0.311921,1.01319 -0.916163,2.27895 -0.232234,0.48649 -0.595406,1.24978 -0.807042,1.6962 -1.044267,2.20276 -1.568702,3.24944 -1.929166,3.85028 -0.284949,0.47498 -0.689591,1.08168 -1.374192,2.06042 -0.280232,0.40064 -0.608474,0.8736 -0.729424,1.05103 -0.308702,0.45284 -0.807841,1.25386 -0.807841,1.29642 0,0.0258 0.168775,-0.0356 0.364044,-0.13242 0.196579,-0.0974 0.354396,-0.20197 1.105623,-0.73225 1.378271,-0.97288 3.107258,-1.93104 4.750244,-2.63246 1.814955,-0.77484 3.763269,-1.34996 5.627046,-1.66105 0.489599,-0.0817 0.592938,-0.0838 0.852897,-0.017 0.307271,0.0789 0.659092,0.33911 0.849657,0.62831 0.08288,0.12579 0.180059,0.31858 0.180059,0.35721 0,0.008 -0.05848,0.0512 -0.130013,0.095 -0.180451,0.11078 -0.48023,0.41874 -0.637156,0.65454 -0.117238,0.17615 -0.518254,0.9567 -0.553324,1.077 -0.01098,0.0377 0.0077,0.0679 0.09697,0.15609 0.219753,0.21717 0.413704,0.28067 1.098717,0.35975 0.245987,0.0284 0.521954,0.0709 0.613264,0.0945 0.23439,0.0605 0.426019,0.16722 0.559751,0.31174 0.09993,0.10799 0.113107,0.13312 0.126647,0.24155 0.03759,0.30091 0.165954,0.64012 0.338401,0.89418 0.04571,0.0674 0.18147,0.22756 0.301655,0.35599 0.24443,0.26118 0.355401,0.44587 0.435567,0.72487 0.03999,0.13912 0.04717,0.21148 0.04558,0.45669 -0.002,0.25317 -0.0093,0.31593 -0.05822,0.47869 -0.12495,0.41586 -0.368701,0.73846 -0.72675,0.96187 -0.480277,0.29966 -1.257007,0.64434 -1.999897,0.88746 -1.123149,0.36757 -2.796701,0.78739 -7.686478,1.92822 -1.34853,0.31461 -2.39923,0.5645 -3.281575,0.78042 -0.474808,0.11618 -0.566864,0.14467 -0.566864,0.17536 0,0.0687 0.07271,0.10067 0.468049,0.20597 2.745602,0.73128 5.130867,1.77026 7.156021,3.11703 0.747881,0.49736 1.215982,0.91184 1.842932,1.63187 0.467403,0.53678 1.301697,1.70594 1.761875,2.46905 0.222407,0.36881 0.376319,0.75638 0.442227,1.11358 0.05196,0.28156 0.01916,0.82723 -0.05416,0.90057 -0.0497,0.0497 -0.338542,0.15896 -0.531921,0.20119 -0.102641,0.0224 -0.389765,0.0593 -0.638054,0.0821 -0.248282,0.0228 -0.523171,0.0516 -0.610855,0.0641 l -0.159421,0.0228 -0.01357,0.11754 c -0.01697,0.14685 0.01477,0.40544 0.07319,0.59623 0.0654,0.21372 0.246625,0.54964 0.548706,1.01721 0.431768,0.66831 0.546664,0.93231 0.568048,1.30519 0.03686,0.64279 -0.405647,1.31582 -1.092137,1.66109 -0.544761,0.27399 -1.322702,0.35253 -2.090822,0.21108 -0.370724,-0.0683 -0.591381,-0.13532 -1.146049,-0.34827 -2.259145,-0.86734 -4.268517,-2.16045 -7.021551,-4.51865 -0.325095,-0.27848 -0.638028,-0.53012 -0.695399,-0.55921 -0.109255,-0.0554 -0.263286,-0.11457 -0.263286,-0.10117 0,0.004 0.123027,0.23101 0.273392,0.50378 1.176342,2.13393 2.079032,4.04905 2.784332,5.90715 0.377496,0.99451 0.842132,2.44398 1.05076,3.27794 0.03007,0.12019 0.09603,0.34164 0.146593,0.4921 0.194896,0.57998 0.24926,0.87974 0.246692,1.3602 -0.002,0.32309 -0.0081,0.38772 -0.05675,0.57234 -0.09987,0.37935 -0.378468,0.84765 -0.545939,0.91765 -0.09357,0.0391 -0.275807,0.0371 -0.398361,-0.005 -0.125023,-0.0423 -0.324197,-0.17052 -0.573537,-0.36912 -0.226047,-0.18004 -0.384902,-0.28365 -0.510284,-0.3328 -0.101776,-0.0399 -0.128642,-0.0321 -0.128642,0.0373 0,0.0835 -0.103359,0.40982 -0.185016,0.58416 -0.125069,0.267 -0.265614,0.46278 -0.500556,0.69726 -0.237537,0.23706 -0.420138,0.36906 -0.703463,0.50854 -0.727615,0.35819 -1.522608,0.33881 -2.162459,-0.0527 -0.28431,-0.17397 -0.742471,-0.61673 -1.087061,-1.05052 -0.310643,-0.39106 -0.683722,-1.01168 -0.925231,-1.53912 -0.30769,-0.67195 -0.377437,-0.8688 -1.216741,-3.43384 -0.24445,-0.74708 -0.459433,-1.34507 -0.499738,-1.39007 -0.0081,-0.009 -0.02109,0.20295 -0.02881,0.47112 -0.03719,1.28707 -0.175828,2.9117 -0.421103,4.93572 -0.167431,1.38171 -0.364742,2.89756 -0.385587,2.96235 -0.03333,0.10358 -0.129015,0.20034 -0.251815,0.25465 -0.08931,0.0395 -0.151323,0.0493 -0.338189,0.0534 -0.125854,0.003 -0.267889,-0.003 -0.315634,-0.0132 z"
         style="fill:none;stroke:#ff0000;stroke-width:0.1;stroke-miterlimit:4;stroke-dasharray:none"
         inkscape:connector-curvature="0" />
      <path
         id="path956"
         style="fill:none;stroke:#0000ff;stroke-width:0.1"
         d="m 3.859086,260.03236 -0.278859,0.27886 m 2.085558,-1.68644 0.864607,-0.86461 m -2.107884,2.10789 -0.836369,0.83637 m 3.319611,-2.92049 0.202462,-0.20246 m -1.61347,1.61347 -0.627063,0.62706 m 0.349672,0.0495 0.119384,-0.11938 m 2.595331,-2.19621 -0.068105,0.0681 m 0.36019,0.0389 0.052241,-0.0523 m 0.364757,0.0344 -0.058512,0.0585 m 0.27987,0.11925 0.071378,-0.0714 m 8.886064,-8.48695 -0.416626,0.41663 m -8.242176,8.24218 0.065475,-0.0655 m 7.835208,-7.43608 -0.07414,0.0741 m -7.530331,7.53033 0.061995,-0.062 m -6.29794,6.29794 -0.179981,0.17998 m 6.68747,-6.28835 0.083187,-0.0832 m -6.130752,6.13076 -0.689627,0.68962 m 7.013277,-6.61415 0.09984,-0.0998 m -5.544514,5.54451 -0.455798,0.4558 m 6.17656,-5.77743 0.116489,-0.11649 m 11.27107,-10.87195 -0.47616,0.47616 m -10.635314,10.63531 0.119498,-0.1195 m 0.268998,0.13013 -0.112411,0.11241 m 9.205898,-8.80678 0.377252,-0.37725 m -9.201741,9.20174 -0.105323,0.10533 m 9.164165,-8.76505 0.16543,-0.16543 m -8.955274,8.95528 -0.09824,0.0982 m 0.276085,0.12304 0.09115,-0.0911 m 0.268998,0.13013 -0.08406,0.0841 m 11.392706,-10.99359 0.535244,-0.53524 m -11.574891,11.57489 -0.07697,0.077 m 0.264832,0.13429 0.08299,-0.083 m 0.247104,0.15202 -0.07053,0.0705 m 0.259569,0.13955 0.05807,-0.0581 M 1.074004,272.7955 0.762725,273.10678 m -0.466219,0.86534 1.508072,-1.50807 m 0.50648,-0.10736 -0.23979,0.23979 m -1.752813,1.75282 0.203257,-0.20326 m 2.475043,-2.07592 -0.199661,0.19966 m 0.49906,-0.0999 0.202102,-0.2021 m 0.536271,-0.13715 -0.140778,0.14078 m 0.524371,-0.12525 0.144624,-0.14462 m 0.484484,-0.0854 -0.104737,0.10474 m 0.457601,-0.0585 0.245216,-0.24521 m 0.360077,0.039 -0.137592,0.1376 m 0.467699,-0.0686 0.118023,-0.11803 m 0.44813,-0.049 -0.098453,0.0985 m 0.433485,-0.0344 0.115621,-0.11562 m 0.412432,-0.0133 -0.097228,0.0972 m -6.147769,6.14777 0.150594,-0.1506 m 6.506834,-6.10771 -0.078834,0.0788 m -6.728568,6.72857 0.07149,-0.0715 m 7.148343,-6.74922 -0.06044,0.0604 m 0.800659,-0.002 0.084643,-0.0846 m 2.08043,-1.28218 -0.05512,0.0551 m 0.267043,0.13208 0.06215,-0.0621 m -1.031543,1.03154 -0.135932,0.13593 m 1.361623,-0.9625 0.07992,-0.0799 m -0.981513,0.98151 -0.05197,0.052 m 1.181024,-0.78191 0.126537,-0.12653 m 0.274072,0.12505 -0.76551,0.76551 m 22.265827,-21.86671 0.396136,-0.39613 m -21.613653,21.61365 -0.66271,0.66271 M 32.926237,250.9217 35.1887,248.65924 m -22.094646,22.09464 -0.499081,0.49909 m 22.725444,-22.32633 0.224113,-0.22411 m -22.230515,22.23052 -0.335336,0.33533 m -9.553003,9.553 0.76713,-0.76713 m 31.770551,-31.37142 -0.146395,0.14639 m -4.455117,4.45512 0.227795,-0.2278 m -18.057352,18.05735 -0.169901,0.16991 m -9.996057,9.99605 0.663672,-0.66367 m 32.24062,-31.8415 -0.0554,0.0554 m 0.313985,0.0851 0.05675,-0.0568 m -16.07315,16.47228 -0.429499,0.4295 m 0.200988,0.19813 0.352236,-0.35224 m 0.141227,0.2579 -0.295367,0.29537 m 0.198098,0.20102 0.252881,-0.25288 m 7.034747,-6.63563 -0.05127,0.0513 m -7.038262,7.03827 0.210395,-0.2104 m 6.930982,-6.53186 -0.08321,0.0832 m -6.860066,6.86006 0.167909,-0.16791 m 7.268959,-6.86983 -0.592786,0.59278 m -6.645986,6.64599 0.125423,-0.12543 m 7.154476,-6.75535 -0.649898,0.6499 m -6.431904,6.4319 0.08294,-0.0829 m 6.622033,-6.22291 -0.289051,0.28905 m -6.234405,6.2344 0.05703,-0.057 m -3.590833,3.59083 -0.08411,0.0841 m 9.824687,-9.42556 0.151727,-0.15173 m -9.643772,9.64377 -0.07557,0.0756 m 9.490356,-9.09123 0.06403,-0.064 m -5.407379,6.20562 -0.0693,0.0693 m 0.133133,0.26599 0.137465,-0.13747 m -1.155621,1.15562 -1.127229,1.12723 m -1.54156,1.54156 0.362781,-0.36278 m 3.743202,-3.34408 -0.917443,0.91745 m -1.705615,1.70561 0.677816,-0.67782 m -1.554202,1.55421 -0.280995,0.28099 m 1.163416,-0.76429 0.845919,-0.84592 m -1.552189,1.55219 -0.131603,0.1316 m 0.325543,0.0736 0.236849,-0.23685 m -5.834203,7.43069 -0.345983,0.34599 m 12.643758,-12.24464 0.0618,-0.0618 m -0.961857,0.96186 -0.05074,0.0507 m 5.397387,-4.99826 0.801454,-0.80145 m -1.361368,1.36136 -0.170347,0.17035 m -4.302065,4.30207 0.550962,-0.55097 m -10.929383,10.92939 -0.06161,0.0616 m 10.805091,-10.40597 0.208658,-0.20866 m -10.207158,10.20716 -0.127363,0.12736 m 13.601943,-13.20282 0.320405,-0.3204 m -13.04909,13.04909 -0.4751,0.4751 M 29.33851,266.48273 29.474245,266.347 m -11.612111,11.61211 -0.62891,0.62891 m 10.102368,-9.70325 0.07611,-0.0761 m -8.873691,8.87369 -2.110959,2.11095 m -2.89637,3.2955 6.899429,-6.89943 m 6.817454,-6.41833 -0.34999,0.34999 m -2.979867,2.97986 0.362592,-0.36259 m -2.151449,2.15145 -0.779841,0.77984 m -2.213534,2.21354 1.46934,-1.46934 m 3.505523,-3.10641 -1.427452,1.42746 m -1.244428,1.24442 0.499375,-0.49937 m -9.572736,9.57274 -0.674329,0.67433 m 2.977129,-2.57801 2.763066,-2.76307 m -6.311171,6.31117 -0.513477,0.51348 m 25.720001,-25.32088 0.164112,-0.16411 m -8.444904,8.4449 -0.839869,0.83987 m 0.554771,-0.15565 0.395536,-0.39553 m -2.36934,2.36934 -2.705985,2.70598 m -1.027435,1.02744 0.343096,-0.3431 m -12.06542,12.06542 -0.228902,0.2289 m 24.691931,-24.2928 0.389058,-0.38906 m -9.226577,9.22657 -0.858604,0.85861 m -2.667591,2.66759 1.820754,-1.82075 m 9.507523,-9.1084 -2.409835,2.40983 m -6.282661,6.28266 1.676232,-1.67623 m -2.447862,2.44786 -1.756595,1.7566 m -3.503183,3.50318 1.617118,-1.61712 m 12.98695,-12.58783 -3.29328,3.29328 m -1.596195,1.5962 0.139083,-0.13908 m -0.86671,0.86671 -1.202908,1.2029 m -2.476008,2.47601 0.978394,-0.97839 m -6.504654,6.50465 -0.688112,0.68811 m 15.446401,-15.04727 0.510304,-0.51031 m -5.001783,5.00178 -4.683817,4.68382 m 10.649208,-10.25008 0.152691,-0.1527 m -5.900911,5.90092 -0.614224,0.61422 m -2.453357,2.45336 1.825692,-1.82569 m -2.744929,2.74492 -0.280565,0.28057 m -2.082765,2.08276 0.461494,-0.46149 m 6.59411,-6.19499 -1.189738,1.18974 m -1.128769,1.12877 0.257296,-0.2573 m -0.944138,0.94414 -0.589071,0.58907 m -1.224265,1.22427 0.362582,-0.36258 m -0.969553,0.96955 -1.430243,1.43024 m 14.000204,-13.60108 0.298849,-0.29885 m -7.311385,7.31139 -0.382673,0.38267 m -0.807092,0.80709 0.253542,-0.25354 m -2.004988,2.00499 -0.683553,0.68355 m -1.171537,1.17154 0.495554,-0.49556 m -1.567114,1.56712 -0.882867,0.88286 m -5.34279,5.34279 0.278387,-0.27838 m 11.169845,-10.77073 -0.841202,0.84121 m -3.405644,3.40564 1.638227,-1.63823 m -2.557994,2.558 -1.125211,1.12521 m -5.84784,5.84784 0.312349,-0.31235 m 21.04071,-20.64159 -0.203007,0.20301 m -9.426539,9.42654 0.08657,-0.0866 m -2.139905,2.13991 -1.431555,1.43155 m -2.073296,2.0733 0.924205,-0.9242 M 39.8971,262.70923 39.702821,262.9035 m -12.682209,12.68221 2.481328,-2.48132 m -4.719244,4.71924 -0.971851,0.97185 m -2.497526,2.49753 0.969644,-0.96965 m 10.212176,-9.81305 -0.243912,0.24391 m -4.996129,4.99613 1.921804,-1.9218 m -3.287461,3.28746 -0.823108,0.82311 m -1.458118,1.45811 0.646606,-0.6466 m -2.355027,2.35502 -0.132975,0.13298 m 10.413189,-10.01407 0.991867,-0.99186 m -3.811376,3.81137 -0.438587,0.43859 m -1.526625,1.52662 1.061086,-1.06108 m -2.368905,2.3689 -0.254717,0.25472 m 7.438438,-7.03932 0.577421,-0.57742 m -5.284764,5.28477 -3.567807,3.5678 m -6.864304,6.86431 1.020563,-1.02056 m 15.462582,-15.06346 -0.715925,0.71592 m -3.485747,3.48575 0.139925,-0.13993 m -1.157081,1.15708 -2.763874,2.76388 m -1.273301,1.2733 0.636728,-0.63673 m 9.174658,-8.77553 -0.131582,0.13158 m -2.649796,2.64979 0.289746,-0.28974 m -2.229688,2.22969 -3.360847,3.36084 m -1.281318,1.28132 0.37458,-0.37458 m -1.444562,1.44456 -0.314809,0.31481 m 10.732498,-10.33337 0.63177,-0.63177 m -2.622321,2.62232 -0.383025,0.38302 m -4.257154,4.25716 1.404589,-1.40459 m -2.255759,2.25576 -0.12793,0.12793 m -1.198942,1.19894 0.243731,-0.24373 m -2.023804,2.0238 -0.196073,0.19607 m -5.167961,5.16797 0.474105,-0.47411 m 16.726537,-16.32741 -0.619997,0.61999 m -2.600775,2.60078 0.138025,-0.13803 m -4.05417,4.05417 -0.461133,0.46114 m -4.664214,4.66421 0.483997,-0.484 m 12.401564,-12.00244 -0.13436,0.13436 m -3.310587,3.31059 0.06176,-0.0618 m -5.886219,5.88622 -0.445677,0.44568 m -3.681288,3.68129 0.684424,-0.68443 m 9.69101,-9.29188 -0.08327,0.0833 m -6.531068,6.53107 2.080463,-2.08046 m -5.284454,5.28445 -0.534819,0.53482 m 10.594579,-10.19546 0.167351,-0.16735 m -3.958356,3.95836 -0.311947,0.31194 m -6.869,6.86901 0.784878,-0.78488 m 10.763213,-10.36409 -0.263334,0.26333 m -7.01618,7.01618 0.32417,-0.32417 m -3.935183,3.93518 -1.034937,1.03494 m -9.012046,9.01205 2.37549,-2.37549 m 30.058449,-29.65933 -0.05146,0.0515 m -11.395075,11.39507 0.396272,-0.39627 m -7.31112,7.31112 -0.342036,0.34204 m -5.095847,5.09585 1.284996,-1.285 m -7.374888,7.37489 -2.099042,2.09904 m 32.229709,-31.83059 0.06544,-0.0654 m -10.958413,10.95842 -0.481841,0.48184 m -4.709381,4.70938 0.150455,-0.15046 m -2.578474,2.57848 -0.360187,0.36018 m -5.709675,5.70968 1.698984,-1.69898 m -7.213516,7.21351 -0.126305,0.12631 m 30.49553,-30.09641 0.05384,-0.0538 m -16.081335,16.08134 -0.135337,0.13533 m -2.909657,2.90966 0.378338,-0.37834 m -4.442732,4.44274 -1.986693,1.98669 m 25.193752,-24.79463 0.180144,-0.18014 m -16.100192,16.10019 -0.12353,0.12353 m -3.026562,3.02656 0.396489,-0.39649 m -4.862341,4.86234 -0.932882,0.93288 m -1.224294,1.2243 0.202053,-0.20205 m 25.839495,-25.44038 -0.852582,0.85258 m -15.349945,15.34995 0.111722,-0.11172 m -2.84055,2.84055 -0.41464,0.41464 m -5.479695,5.47969 0.782597,-0.7826 m -6.486884,6.48689 -0.08155,0.0816 m 29.491008,-29.09189 0.502262,-0.50226 m -15.294923,15.29493 -0.09991,0.0999 m -3.260374,3.26037 0.432791,-0.43279 m -5.361134,5.36114 -0.703955,0.70395 m -3.049558,3.04956 0.760716,-0.76072 m -2.843725,2.84373 -0.470143,0.47014 m 14.684812,-14.28569 0.08811,-0.0881 m -3.014443,3.01444 -0.450942,0.45094 m -5.786203,5.7862 0.131036,-0.13103 m -3.173823,3.17382 -1.642318,1.64232 m 14.031355,-13.63223 0.0823,-0.0823 m 0.175922,0.2232 -0.08289,0.0829 m 0.175337,0.22379 0.08347,-0.0835 m 0.175923,0.2232 -0.08406,0.084 m 0.175338,0.22379 0.08464,-0.0846 m -10.54241,10.54241 -0.0718,0.0718 m 10.701794,-10.30267 0.100495,-0.10049 m 0.200793,0.19833 -0.138612,0.13861 m 0.162676,0.23645 0.17673,-0.17674 m 0.200793,0.19833 -0.214847,0.21485 m 0.162676,0.23645 0.253396,-0.2534 m 0.210887,0.18824 -0.301607,0.3016 m 0.153908,0.24522 0.358586,-0.35859 m 0.210887,0.18824 -0.418321,0.41832 m -4.642713,4.64271 0.06982,-0.0698 m 5.202102,-4.80298 -0.478056,0.47806 m -4.797054,4.79705 0.15023,-0.15023 m 5.335767,-4.93664 -0.08789,0.0879 m -5.401294,5.40129 0.23064,-0.23064 m 0.07722,0.3219 -0.307568,0.30757 m 18.323142,-17.92402 0.104934,-0.10493 m -18.043286,18.04329 -0.396709,0.3967 m 19.146813,-18.74769 0.119675,-0.11967 m -18.768921,18.76892 -0.509488,0.50949 m 19.980463,-19.58134 0.632799,-0.6328 m -20.04021,20.04021 -0.584972,0.58497 m 0.519054,-0.11993 0.14995,-0.14995 m 0.08403,0.31509 -0.128438,0.12844 m 0.105543,0.29358 0.106926,-0.10693 m 0.08403,0.31509 -0.08542,0.0854 m -6.768017,6.76801 0.08984,-0.0898 m 6.847619,-6.4485 -0.07069,0.0707 m -6.340249,6.34025 1.140283,-1.14028 m 0.66598,-0.26686 -1.075038,1.07504 m 20.601979,-17.409 0.22326,-0.22326 m 0.173453,0.22567 -0.209886,0.20988 m 0.197384,0.20174 0.185956,-0.18595 m 0.173454,0.22567 -0.162027,0.16202 m 0.197384,0.20174 0.133167,-0.13317 m -17.724052,17.72406 -0.197146,0.19714 m 17.985414,-17.58629 0.09528,-0.0953 m 0.1595,0.23962 -0.0574,0.0574 m -1.009311,3.00492 0.373615,-0.37361 m 0.878939,-0.0807 -0.05032,0.0503 m 0.547721,-0.1486 0.230685,-0.23069 m -10.840817,11.63906 -0.128113,0.12812 m 0.0019,0.39719 0.327103,-0.32711 m 0.199921,0.19921 -0.500064,0.50006 m -0.975037,1.37416 0.841064,-0.84106 m 8.589853,-7.79161 -0.09586,0.0959 m 0.501108,-0.10199 0.248679,-0.24868 m 1.010266,-0.61114 -0.689487,0.68949 m -7.740788,7.74078 0.53347,-0.53347"
         inkscape:connector-curvature="0" />
    </g>
  </g>
</svg>
