<?xml version="1.0" encoding="UTF-8" standalone="no"?>
<!-- Created with Inkscape (http://www.inkscape.org/) -->

<svg
   xmlns:dc="http://purl.org/dc/elements/1.1/"
   xmlns:cc="http://creativecommons.org/ns#"
   xmlns:rdf="http://www.w3.org/1999/02/22-rdf-syntax-ns#"
   xmlns:svg="http://www.w3.org/2000/svg"
   xmlns="http://www.w3.org/2000/svg"
   xmlns:sodipodi="http://sodipodi.sourceforge.net/DTD/sodipodi-0.dtd"
   xmlns:inkscape="http://www.inkscape.org/namespaces/inkscape"
   width="50mm"
   height="50mm"
   viewBox="0 0 50 50"
   version="1.1"
   id="svg1586"
   inkscape:version="0.92.2 2405546, 2018-03-11"
   sodipodi:docname="50.svg">
  <sodipodi:namedview
     id="base"
     pagecolor="#ffffff"
     bordercolor="#666666"
     borderopacity="1.0"
     inkscape:pageopacity="0.0"
     inkscape:pageshadow="2"
     inkscape:zoom="3.3031093"
     inkscape:cx="76.67908"
     inkscape:cy="106.13597"
     inkscape:document-units="mm"
     inkscape:current-layer="layer1"
     showgrid="false"
     inkscape:window-width="1366"
     inkscape:window-height="703"
     inkscape:window-x="0"
     inkscape:window-y="0"
     inkscape:window-maximized="1" />
  <defs
     id="defs1580" />
  <metadata
     id="metadata1583">
    <rdf:RDF>
      <cc:Work
         rdf:about="">
        <dc:format>image/svg+xml</dc:format>
        <dc:type
           rdf:resource="http://purl.org/dc/dcmitype/StillImage" />
        <dc:title></dc:title>
      </cc:Work>
    </rdf:RDF>
  </metadata>
  <g
     inkscape:label="Layer 1"
     inkscape:groupmode="layer"
     id="layer1"
     transform="translate(0,-247)">
    <g
       id="g1700"
       transform="translate(-4.9409063,-3.961183e-5)">
      <path
         id="path1691"
         d="m 40.386641,295.34845 c -0.926989,-0.85374 -2.138983,-1.65192 -2.693321,-1.77374 -0.554339,-0.12181 -1.444093,-0.677 -1.977233,-1.23374 l -0.969342,-1.01228 -1.469523,0.66758 c -0.808237,0.36717 -2.213878,0.67109 -3.123645,0.67536 -1.328935,0.006 -1.963859,0.24432 -3.229643,1.21099 -2.328778,1.77847 -2.954875,2.03929 -5.152767,2.14647 -1.098659,0.0536 -2.594842,0.21911 -3.324851,0.36786 -1.180719,0.24057 -1.32729,0.19238 -1.32729,-0.43638 0,-0.38876 0.31855,-1.11199 0.707888,-1.6072 0.389338,-0.4952 0.707887,-1.05507 0.707887,-1.24415 0,-0.18907 0.876013,-1.09254 1.946693,-2.00771 1.070681,-0.91516 1.946691,-1.78757 1.946691,-1.93868 0,-0.15111 -0.81739,-0.19618 -1.816422,-0.10014 -1.439253,0.13837 -1.883873,0.054 -2.141252,-0.4061 -0.178656,-0.31939 -0.563736,-0.58072 -0.855733,-0.58072 -0.779462,0 -2.504963,-0.96141 -2.716811,-1.51375 -0.100748,-0.26267 0.113458,-1.10517 0.476015,-1.87222 0.46409,-0.98184 0.665048,-2.2331 0.678976,-4.22757 0.02337,-3.34714 0.689396,-5.09895 2.670389,-7.02381 2.588712,-2.51536 6.031547,-2.59141 8.095618,-0.17881 l 1.207508,1.41139 1.111929,-0.57528 c 0.611561,-0.31641 1.3827,-0.49233 1.713642,-0.39094 0.46752,0.14324 0.888899,-0.42622 1.889454,-2.55339 1.188244,-2.52621 1.264897,-2.88233 0.992084,-4.60898 -0.328386,-2.07838 -1.29533,-3.87138 -2.74987,-5.09908 -0.528934,-0.44645 -1.235756,-1.20419 -1.570718,-1.68386 -0.498517,-0.71389 -0.860148,-0.85399 -1.993071,-0.77215 -1.875791,0.1355 -4.028032,-1.01797 -5.374386,-2.88034 -0.594576,-0.82246 -1.470703,-1.70085 -1.946949,-1.95196 -0.718301,-0.37876 -0.802593,-0.57493 -0.494502,-1.15089 0.50745,-0.94865 1.688216,-1.65841 3.226387,-1.9394 1.144496,-0.20907 1.311814,-0.37876 1.509717,-1.5312 0.122412,-0.71284 0.457865,-1.6038 0.74545,-1.97992 0.516051,-0.67493 0.533316,-0.67468 1.321835,0.0195 0.439424,0.38681 1.382248,1.08643 2.095162,1.5547 1.530683,1.00542 3.030252,3.18551 3.344716,4.86257 0.185396,0.98873 0.613648,1.44249 2.466057,2.61297 5.519062,3.48732 10.016717,10.96771 10.642078,17.69965 0.283584,3.05275 -0.574043,6.66145 -2.240514,9.42757 -0.880756,1.46193 -1.137317,2.19469 -0.901491,2.5747 1.602063,2.58152 2.647355,5.18936 2.813116,7.01832 0.358646,3.95715 -1.288018,4.74353 -4.239958,2.02484 z"
         style="fill:none;stroke:#ff0000;stroke-width:0.09999999;stroke-miterlimit:4;stroke-dasharray:none"
         inkscape:connector-curvature="0" />
      <path
         id="path1689"
         d="m 43.686487,295.47186 c 0.977382,-1.82716 -0.932989,-6.75735 -3.879883,-10.01303 -0.992687,-1.09669 -1.804885,-2.23134 -1.804885,-2.52142 0,-0.78411 0.26232,-0.65648 1.463254,0.71199 0.598227,0.68167 1.196808,1.23941 1.330179,1.23941 0.522512,0 2.514764,-3.83041 3.031653,-5.82882 1.033382,-3.99528 0.516881,-7.38239 -1.892133,-12.40827 -2.208785,-4.60815 -4.509964,-7.24497 -8.571535,-9.82172 -1.715233,-1.0882 -2.013877,-1.44363 -2.204522,-2.6238 -0.121285,-0.7508 -0.604069,-1.92761 -1.072855,-2.61514 -0.856431,-1.25604 -4.239958,-3.64475 -4.62169,-3.26283 -0.487277,0.48752 -0.114454,1.39285 1.122957,2.72688 l 1.327289,1.43094 -1.255653,-1.15042 c -1.505034,-1.37889 -1.75287,-1.41887 -1.75287,-0.28274 0,0.59423 0.499206,1.28516 1.584054,2.19243 0.871229,0.72862 1.514534,1.3943 1.429566,1.47931 -0.08497,0.085 -0.974292,-0.58287 -1.976277,-1.48419 -1.720258,-1.54742 -2.453118,-1.96165 -2.453118,-1.38657 0,0.13871 0.676917,0.96547 1.504261,1.83725 l 1.504261,1.58506 -1.896485,-1.66018 c -2.232931,-1.95471 -3.603408,-2.31056 -1.974631,-0.51272 0.571761,0.63111 1.238659,1.27644 1.481995,1.43407 0.243337,0.15762 0.44243,0.47188 0.44243,0.69834 0,0.22645 -0.770195,-0.34725 -1.711543,-1.2749 -1.406255,-1.38579 -1.784264,-1.59897 -2.119244,-1.19515 -0.320002,0.38577 -0.213561,0.67397 0.494828,1.33979 0.49639,0.46657 1.213648,1.35195 1.593907,1.96753 0.982236,1.59008 2.849209,2.3922 4.980202,2.13969 1.603911,-0.19006 1.726082,-0.14713 1.933417,0.67937 0.121726,0.48523 0.773364,1.30351 1.448085,1.8184 1.510475,1.15267 3.281108,4.15698 3.292877,5.58718 0.0065,0.79424 0.09185,0.93088 0.338021,0.54143 0.181102,-0.2865 0.439013,-0.41113 0.573137,-0.27694 0.300573,0.30072 -0.408436,2.10966 -1.54656,3.94584 -0.469562,0.75757 -1.055668,1.95272 -1.302457,2.6559 -0.35815,1.02046 -0.618831,1.26582 -1.291652,1.21574 -0.463618,-0.0345 -1.442207,0.16419 -2.174641,0.44155 -1.454821,0.55092 -1.252268,0.65863 -3.043025,-1.61822 -0.608323,-0.77344 -0.967257,-0.88374 -2.840994,-0.87304 -2.47316,0.0141 -3.494329,0.59936 -5.161868,2.95822 -0.950618,1.34472 -1.075156,1.85059 -1.299478,5.2784 -0.136454,2.08514 -0.352424,4.38264 -0.479934,5.10556 -0.212058,1.20227 -0.153823,1.33399 0.682655,1.54403 1.225546,0.30775 2.679052,-0.65513 2.679052,-1.77474 0,-0.46619 -0.199093,-0.92066 -0.44243,-1.00992 -0.319261,-0.11712 -0.335738,-0.27645 -0.05918,-0.5723 0.210784,-0.2255 0.631963,-0.3145 0.935953,-0.19779 0.490308,0.18824 0.498413,0.43942 0.07179,2.22485 -0.264503,1.10695 -0.486588,2.13216 -0.493522,2.27823 -0.01998,0.42078 1.572712,0.30844 2.023669,-0.14274 0.450541,-0.45076 0.390128,-0.48509 3.773484,2.14375 1.592847,1.23763 2.368234,1.59322 3.767427,1.72773 1.699013,0.16334 4.662519,-0.61164 5.11019,-1.33635 0.100651,-0.16292 -0.23607,-0.79452 -0.748269,-1.40354 -0.512197,-0.60901 -0.824172,-1.21444 -0.693278,-1.3454 0.450706,-0.45092 1.445197,0.50694 2.456173,2.36573 0.877446,1.61328 1.304612,1.9954 3.185495,2.84959 1.19469,0.54257 2.63997,1.48395 3.211731,2.09196 1.228896,1.3068 1.460234,1.34826 1.990622,0.35673 z"
         style="fill:none;stroke:#0000ff;stroke-width:0.09999999;stroke-miterlimit:4;stroke-dasharray:none"
         inkscape:connector-curvature="0" />
      <path
         id="path1687"
         d="m 19.596634,279.09596 c 0,-1.87718 0.589095,-2.51416 1.873352,-2.02565 1.94383,0.7394 1.384917,2.82338 -0.900006,3.35578 -0.948614,0.22103 -0.973346,0.18723 -0.973346,-1.33013 z"
         style="fill:none;stroke:#0000ff;stroke-width:0.09999999;stroke-miterlimit:4;stroke-dasharray:none"
         inkscape:connector-curvature="0" />
      <path
         id="path1685"
         d="m 20.721055,278.65243 c -0.103622,-0.88804 -0.242466,-1.13148 -0.454425,-0.79677 -0.46628,0.7363 -0.3735,2.07549 0.143791,2.07549 0.319814,0 0.414407,-0.3894 0.310634,-1.27872 z"
         style="fill:none;stroke:#0000ff;stroke-width:0.09999999;stroke-miterlimit:4;stroke-dasharray:none"
         inkscape:connector-curvature="0" />
      <path
         id="path1683"
         d="m 18.667854,275.25652 c -0.304398,-0.49278 0.857228,-0.72028 1.890449,-0.37025 l 0.985023,0.3337 -1.348777,0.16229 c -0.741826,0.0893 -1.428839,0.0327 -1.526695,-0.12574 z"
         style="fill:none;stroke:#0000ff;stroke-width:0.09999999;stroke-miterlimit:4;stroke-dasharray:none"
         inkscape:connector-curvature="0" />
      <path
         id="path1296"
         d="m 24.551849,294.44583 c 0.681342,-0.34579 1.531829,-0.95287 1.889971,-1.34909 0.637666,-0.70545 0.630326,-0.73124 -0.353944,-1.24345 -0.552811,-0.28769 -1.370434,-0.91442 -1.81694,-1.39276 l -0.811828,-0.86969 -2.038332,1.98694 c -1.121083,1.09281 -2.288951,2.3894 -2.595264,2.88132 l -0.55693,0.89439 2.522232,-0.13949 c 1.454377,-0.0804 3.046712,-0.40566 3.761035,-0.76817 z"
         style="fill:none;stroke:#0000ff;stroke-width:0.09999999;stroke-miterlimit:4;stroke-dasharray:none"
         inkscape:connector-curvature="0" />
      <path
         id="path832"
         style="fill:none;stroke:#0000ff;stroke-width:0.09999999"
         d="m 25.445713,247.25443 -0.125223,0.12522 m -5.461832,5.46183 0.8077,-0.8077 m 5.044237,-4.64511 -0.840556,0.84056 m -5.137397,5.13739 1.423472,-1.42347 m 4.788552,-4.38943 -1.053618,1.05362 m -3.73355,3.73355 0.733784,-0.73379 m -1.589285,1.58929 -0.460651,0.46065 m 6.043286,-5.64416 0.277239,-0.27724 m -1.187382,1.18738 -0.419477,0.41948 m -3.082595,3.08259 1.159287,-1.15928 m -2.259946,2.25994 -0.289028,0.28903 m 6.052909,-5.65379 0.251465,-0.25146 m -1.323806,1.3238 -0.472974,0.47298 m -2.098801,2.0988 0.48506,-0.48506 m -1.171034,1.17103 -0.0965,0.0965 m -1.386337,1.38634 0.202763,-0.20276 m 6.090741,-5.69162 -0.195234,0.19523 m -3.668485,3.66849 2.382822,-2.38282 m -4.426395,4.42639 -0.166896,0.1669 m 6.117339,-5.71822 0.185961,-0.18596 m -1.547282,1.54728 -2.284574,2.28458 m -2.252128,2.25212 0.143691,-0.14369 m 6.169404,-5.77028 -0.168218,0.16822 m -2.859252,2.85925 0.595109,-0.59511 m -1.293941,1.29394 -0.07369,0.0737 m -2.293785,2.29379 0.117499,-0.1175 m 6.205392,-5.80627 -0.150476,0.15048 m -2.83784,2.83784 0.346496,-0.3465 m -3.373872,3.37387 -0.08788,0.0879 m 6.199953,-5.80083 0.132733,-0.13274 m -2.809621,2.80962 -0.173939,0.17394 m -3.160962,3.16096 0.08942,-0.0894 m 6.284216,-5.8851 -0.114991,0.11499 m -2.863814,2.86382 0.07284,-0.0728 m -3.188549,3.18855 -0.09514,0.0951 m 6.308511,-5.90939 0.110254,-0.11026 m -6.136253,6.13626 -0.09853,0.0985 m 6.347541,-5.94842 0.116354,-0.11636 m -6.197661,6.19767 -0.08225,0.0823 m 6.386571,-5.98745 0.115762,-0.11576 m -6.252378,6.25237 -0.06597,0.066 m 6.425603,-6.02648 0.109265,-0.10927 m -6.301189,6.30119 -0.05091,0.0509 m 6.465847,-6.06673 0.102768,-0.10277 m 0.216514,0.18261 -0.09627,0.0963 m 0.223012,0.17611 0.08977,-0.0898 m 0.199277,0.19984 -0.08343,0.0834 m 0.20363,0.1955 0.0591,-0.0591 m 1.006366,1.38837 -0.05606,0.0561 m 0.136427,0.26269 0.06485,-0.0649 m 0.145216,0.25391 -0.07364,0.0736 m 0.126389,0.27273 0.09246,-0.0925 m -5.60468,5.60468 -0.0749,0.0749 m 5.680408,-5.28129 0.117746,-0.11775 m -5.390557,5.39056 -0.07956,0.0796 m 5.44566,-5.04654 0.137921,-0.13792 m -5.174333,5.17433 -0.105869,0.10587 m 5.235575,-4.83645 0.140279,-0.14028 m -4.895685,4.89568 -0.133973,0.13398 m 4.986113,-4.58699 0.126842,-0.12685 m -4.613672,4.61368 -0.157688,0.15769 m 4.722632,-4.32352 0.138013,-0.13801 m -4.279137,4.27914 -0.181221,0.18122 m 4.40046,-4.00134 0.15371,-0.15371 m -3.950654,3.95066 -0.209073,0.20907 m 4.120423,-3.7213 0.141159,-0.14116 m -3.611467,3.61147 -0.238238,0.23824 m 3.85607,-3.45695 0.167596,-0.1676 m -3.329829,3.32983 -0.34347,0.34347 m 3.68171,-3.28259 0.156074,-0.15607 m -3.074496,3.0745 -0.412966,0.41296 m 3.540604,-3.14148 0.137104,-0.1371 m -3.049919,3.04991 -0.360851,0.36086 m 3.482883,-3.08376 0.143337,-0.14334 m -3.156931,3.15693 -0.225006,0.22501 m 3.46703,-3.06791 0.130357,-0.13036 m -3.26026,3.26026 -0.142141,0.14214 m 3.510293,-3.11117 0.107333,-0.10733 m -3.353759,3.35376 -0.08209,0.0821 m 3.566766,-3.16765 0.108238,-0.10823 m -3.433814,3.43381 -0.05959,0.0596 m 3.623411,-3.22429 0.109142,-0.10914 m 0.239154,0.15996 -0.109972,0.10998 m 0.238455,0.16066 0.110671,-0.11067 m -3.598797,3.5988 -0.06754,0.0675 m 3.794125,-3.395 0.110999,-0.111 m -3.636823,3.63683 -0.07038,0.0704 m 3.834658,-3.43553 0.109504,-0.10951 m -3.673026,3.67303 -0.06819,0.0682 m 3.870167,-3.47104 0.108009,-0.10801 m -3.709229,3.70923 -0.066,0.066 m 3.905675,-3.50656 0.106514,-0.10651 m -3.736124,3.73613 -0.07312,0.0731 m -12.824358,12.82436 0.296621,-0.29662 m 16.575432,-16.17631 -0.110124,0.11012 m -3.738015,3.73802 0.08457,-0.0846 m -11.668301,11.66831 -2.488457,2.48845 m 18.035589,-17.63646 0.107609,-0.10761 m -3.780409,3.78041 -0.09353,0.0935 m -11.076856,11.07685 0.308445,-0.30844 m -3.040702,3.0407 -0.449523,0.44952 m 18.250349,-17.85122 0.105094,-0.1051 m -3.815217,3.81522 -0.08453,0.0845 m -10.632769,10.63277 0.271826,-0.27183 m -4.190474,4.19047 -0.229248,0.22925 m 18.800696,-18.40157 0.102579,-0.10258 m -3.850026,3.85003 -0.07552,0.0755 m -10.19111,10.19111 0.239588,-0.23959 m -5.095622,5.09562 -0.143847,0.14385 m 19.23934,-18.84022 0.100064,-0.10006 m -3.891715,3.89171 -0.05963,0.0596 m -9.968053,9.96806 0.277088,-0.27709 m -3.174237,3.17424 -0.08412,0.0841 m -2.535215,2.53521 0.149392,-0.14939 m 19.49966,-19.10054 -0.08785,0.0879 m -13.608772,13.60877 0.322876,-0.32287 m -3.213671,3.21367 -0.129601,0.1296 m -3.043868,3.04387 0.185538,-0.18554 m 19.779373,-19.38025 -0.07318,0.0732 m -13.391518,13.39152 0.254411,-0.25441 m -6.644771,6.64477 -0.138211,0.13821 m 20.130518,-19.7314 0.06678,-0.0668 m -13.046831,13.04684 -0.252384,0.25238 m -6.926441,6.92644 0.132569,-0.13257 m 20.297114,-19.89799 -0.06037,0.0604 m -4.057609,4.05761 0.05347,-0.0535 m -8.818967,8.81897 -0.18847,0.18847 m -7.386098,7.38609 0.126797,-0.12679 m 20.535272,-20.13615 -0.05397,0.054 m -4.109023,4.10902 0.05757,-0.0576 m -8.679419,8.67942 -0.09989,0.0999 m -7.805702,7.8057 0.121026,-0.12103 m 16.627094,-16.22797 -0.06928,0.0693 m -8.537862,8.53786 0.06727,-0.0673 m -8.121352,8.12135 -0.121089,0.12109 m 16.833178,-16.43405 0.08306,-0.0831 m -16.829282,16.82928 -0.101109,0.10111 m 16.96747,-16.56835 0.09434,-0.0944 m -13.227137,13.22714 -0.05313,0.0531 m -3.795701,3.7957 0.08077,-0.0808 m 21.488255,-21.08914 -0.05742,0.0574 m -4.409845,4.40985 0.105628,-0.10563 m -12.874953,12.87496 -0.645591,0.64559 m -3.785038,3.78503 0.14453,-0.14453 m 21.7184,-21.31927 -0.05886,0.0589 m -4.48397,4.48397 0.116911,-0.11691 m -12.638729,12.63873 -0.326069,0.32607 m 12.962454,-12.56333 0.133768,-0.13377 m -12.45411,12.45411 -0.500851,0.50085 m -4.602405,4.6024 0.0646,-0.0646 m 17.624194,-17.22507 -0.187349,0.18734 m -12.82767,12.82767 0.687684,-0.68768 m -5.331293,5.33129 -0.05983,0.0598 m 17.608956,-17.20984 0.199895,-0.19989 m -12.159526,12.15952 -0.876219,0.87622 m -4.886823,4.88683 0.139116,-0.13912 m 17.879135,-17.48001 -0.217734,0.21773 m -12.878424,12.87843 1.047111,-1.04711 m -5.864523,5.86452 -0.192339,0.19234 m 17.966019,-17.5669 0.190595,-0.19059 m -11.909786,11.90978 -1.235635,1.23564 m -1.020174,1.02017 0.126545,-0.12654 m -3.979649,3.97964 -0.451313,0.45132 m 18.345089,-17.94597 0.173142,-0.17314 m -11.861771,11.86177 -1.853319,1.85332 m -4.967734,4.96773 0.563596,-0.56359 m 18.156442,-17.75732 -0.168768,0.16877 m -12.978472,12.97847 1.242298,-1.2423 m -6.303811,6.30381 -0.772249,0.77225 m 18.853823,-18.4547 0.166971,-0.16697 m -12.256801,12.2568 -0.500963,0.50096 m -6.356077,6.35608 0.812986,-0.81299 m 23.735428,-23.3363 -0.05701,0.057 m -5.514728,5.51473 0.952553,-0.95256 m -19.103837,19.10384 -0.715548,0.71555 m 24.543396,-24.14428 0.05606,-0.0561 m -4.737442,4.73744 -1.031145,1.03115 m -18.646218,18.64622 0.393706,-0.39371 m 24.181479,-23.78236 -0.05461,0.0546 m -5.896986,5.89698 0.841943,-0.84194 m -19.031514,19.03152 -0.204758,0.20475 m 24.453152,-24.05403 0.05315,-0.0531 m -5.292228,5.29223 -1.015539,1.01553 m -17.95911,17.95911 0.07544,-0.0754 m 24.351816,-23.95269 -0.05169,0.0517 m -6.619557,6.61956 0.609044,-0.60905 m -5.274308,5.27431 -0.18799,0.18799 m -9.565163,9.56516 0.255569,-0.25557 m 14.222365,-13.82324 -0.38631,0.38631 m -4.11406,4.11406 0.366254,-0.36625 m -9.694984,9.69498 -0.416,0.416 m 21.115244,-20.71612 0.06234,-0.0623 m -7.104227,7.10422 -0.535246,0.53525 m -3.075511,3.07551 0.378465,-0.37846 m -10.234786,10.23478 -0.441389,0.44139 m 21.097667,-20.69854 0.07541,-0.0754 m -8.062008,8.06201 -0.441945,0.44194 m -1.919582,1.91959 0.265966,-0.26597 m -10.590111,10.59011 -0.318094,0.31809 m -2.786101,2.78611 0.124165,-0.12417 m 23.888088,-23.48897 -0.08847,0.0885 m -10.007881,10.00788 1.592364,-1.59236 m -12.43248,12.43248 -0.222866,0.22287 m -2.525598,2.52559 0.171956,-0.17195 m 23.673353,-23.27423 -0.101529,0.10153 m -9.70913,9.70913 0.840053,-0.84006 m -12.293011,12.29301 -0.133327,0.13333 m -2.121093,2.12109 0.484543,-0.48454 m 23.182286,-22.78316 -0.103005,0.103 m -9.439259,9.43926 0.168244,-0.16824 m -12.130484,12.13048 -1.863441,1.86344 m 23.412162,-23.01304 0.09492,-0.0949 m -21.773989,21.77399 -1.440196,1.4402 m 23.254045,-22.85493 0.09928,-0.0993 m -22.023494,22.02349 -1.130899,1.1309 m 23.189898,-22.79077 0.103632,-0.10364 m -22.272999,22.273 -0.827183,0.82719 m 23.131332,-22.73221 0.107988,-0.10799 m -22.522506,22.5225 -0.528844,0.52885 m 23.078143,-22.67902 0.112344,-0.11235 m -22.586063,22.58607 -0.355499,0.3555 m 22.963999,-22.56488 0.116699,-0.1167 m -22.506581,22.50658 -0.229903,0.2299 m 22.757244,-22.35812 0.118378,-0.11838 m -22.327937,22.32794 -0.172174,0.17218 m 22.505579,-22.10646 0.133669,-0.13367 m -22.117752,22.11775 -0.08441,0.0844 m 22.192334,-21.79321 0.151003,-0.15101 m -21.632533,21.63254 -0.283551,0.28355 m 21.888927,-21.48981 0.134274,-0.13427 m -20.904122,20.90412 -0.707719,0.70772 m 21.601413,-21.20229 0.126601,-0.1266 m -20.671268,20.67127 -0.643911,0.64391 m 21.312424,-20.91331 0.118929,-0.11892 m -20.527714,20.52771 -0.490804,0.4908 m 21.023435,-20.62431 0.111257,-0.11126 m -20.40861,20.40862 -0.367979,0.36797 m 20.78751,-20.38838 0.105253,-0.10526 M 22.8399,288.5749 l -0.314441,0.31444 m 20.608802,-20.20968 0.111319,-0.11132 m -20.170403,20.17041 -4.238674,4.23867 m 24.407865,-24.00874 0.117386,-0.11739 m -20.052344,20.05235 -5.264371,5.26437 m 25.309437,-24.91032 0.123452,-0.12345 m -19.943228,19.94323 -5.952142,5.95214 m 25.882025,-25.4829 0.116588,-0.11659 m -19.821181,19.82118 -0.120419,0.12042 m -6.093134,6.09313 2.046431,-2.04643 m 24.077677,-23.67855 -0.09586,0.0958 m -19.741768,19.74177 0.152358,-0.15236 m -6.03411,6.03411 -0.543384,0.54339 m 26.272765,-25.87365 0.07937,-0.0794 m -19.549349,19.54935 -0.184954,0.18495 m -6.50373,6.50373 0.646167,-0.64617 m 25.681241,-25.28212 -0.07704,0.077 m -19.553949,19.55395 0.217549,-0.21755 m -5.845318,5.84532 -0.664477,0.66447 m 25.937903,-25.53878 0.0747,-0.0747 m -19.27752,19.27752 -0.250145,0.25015 m -5.902899,5.9029 0.504924,-0.50493 m 25.015014,-24.61589 -0.07237,0.0724 m -19.338489,19.33849 0.269254,-0.26926 m -5.450923,5.45093 -0.464622,0.46462 m 25.076488,-24.67737 0.07004,-0.07 m -19.005689,19.00569 -0.282699,0.2827 m -5.391825,5.39182 0.420799,-0.4208 m 24.348788,-23.94966 -0.06785,0.0678 m -19.098063,19.09806 0.298737,-0.29873 m -5.05912,5.05912 -0.376976,0.37697 m 24.302911,-23.90379 0.08974,-0.0897 m -18.725413,18.72542 -0.318034,0.31803 m -4.911902,4.9119 0.352548,-0.35255 m 23.660603,-23.26148 -0.08005,0.0801 m -18.78858,18.78858 0.316561,-0.31656 m -4.650318,4.65032 -0.37583,0.37583 m 23.565656,-23.16654 0.07744,-0.0774 m -18.385805,18.38581 -0.307112,0.30711 m -4.515248,4.51525 0.399111,-0.39911 m 22.873927,-22.47481 -0.07482,0.0748 m -18.442376,18.44237 0.297664,-0.29766 m -4.196178,4.19618 -0.422393,0.42239 m 22.819028,-22.41991 0.10958,-0.10958 m -18.060525,18.06053 -0.306586,0.30658 m -4.122677,4.12268 0.441785,-0.44178 m 22.057224,-21.6581 -0.08259,0.0826 m -18.038956,18.03896 0.306802,-0.30681 m -3.786923,3.78693 -0.45735,0.45735 m 22.012641,-21.61352 0.09151,-0.0915 m -17.604875,17.60487 -0.305213,0.30521 m -3.75407,3.75407 0.712962,-0.71296 m 20.996338,-20.59721 -0.10044,0.10044 m -17.635284,17.63528 0.34599,-0.34599 m -2.931407,2.93141 -1.001356,1.00135 m 21.247673,-20.84855 0.09252,-0.0925 m -17.111243,17.11124 -0.430916,0.43092 m -3.115788,3.11579 0.696221,-0.69622 m 19.979205,-19.58009 -0.113231,0.11323 m -20.128843,20.12885 3.40954,-3.40954 m 16.850013,-16.45089 -0.13394,0.13394 m -19.034432,19.03443 2.61824,-2.61824 m 16.533212,-16.13409 -0.105195,0.1052 m -17.578213,17.57821 1.494307,-1.49431 m 16.171951,-15.77283 -0.136103,0.1361 m -16.612054,16.61206 0.920319,-0.92032 m 15.810689,-15.41157 -0.170425,0.17043 m -6.15722,6.15722 0.07851,-0.0785 m -5.12104,5.12104 -0.09541,0.0954 m -4.511212,4.51121 0.520446,-0.52045 m 15.395061,-14.99594 -0.230973,0.23098 m -5.897405,5.8974 0.146059,-0.14606 m -5.089005,5.08901 -0.170025,0.17002 m -3.986503,3.98651 0.242633,-0.24264 m 14.929944,-14.53082 -0.176672,0.17667 m -5.739127,5.73913 0.180049,-0.18005 m -5.069159,5.06916 -0.21822,0.21822 m -3.756546,3.75655 0.259572,-0.25958 m 14.492942,-14.09381 -0.257626,0.25762 m -5.468136,5.46814 0.208467,-0.20847 m -5.079299,5.0793 -0.236428,0.23643 m -3.493579,3.49358 0.259468,-0.25947 m 13.917232,-13.51811 -0.292105,0.2921 m -5.104482,5.10448 0.220485,-0.22048 m -5.089438,5.08944 -0.254234,0.25423 m -3.194647,3.19465 0.231628,-0.23163 m 13.383586,-12.98446 -0.266616,0.26661 m -4.851489,4.85149 0.235441,-0.23544 m -5.102515,5.10252 -0.271743,0.27174 m -2.901628,2.90163 0.267121,-0.26712 m 12.733704,-12.33459 -0.326203,0.32621 m -4.454903,4.4549 0.251547,-0.25155 m -5.142127,5.14213 -0.263865,0.26387 m -2.608611,2.60861 0.430371,-0.43037 M 43.971944,280.215 43.50481,280.68214 m -3.982043,3.98204 0.267653,-0.26765 m -5.185734,5.18573 -0.244524,0.24452 m -2.419147,2.41915 0.459341,-0.45934 m 11.354031,-10.95491 -0.4566,0.4566 m -3.595745,3.59575 0.283759,-0.28376 m -5.22934,5.22934 -0.274786,0.27478 m -1.773147,1.77315 0.302756,-0.30275 m 10.520908,-10.12179 -0.586671,0.58667 m -3.064205,3.0642 0.31093,-0.31093 m -5.284011,5.28402 -1.620494,1.62049 m 9.323238,-8.92412 0.594188,-0.59418 m -2.783784,2.78378 -0.360775,0.36078 m -6.012289,6.01229 1.011691,-1.0117 m 7.938357,-7.53923 -2.758398,2.7584 m -5.460277,5.46027 0.429947,-0.42994 m 7.155312,-6.75619 -1.945621,1.94562 m -5.420576,5.42057 0.36055,-0.36055 m 6.449162,-6.05004 -1.209775,1.20978 m -5.4047,5.4047 0.314979,-0.31498 m 6.011175,-5.61205 -0.742093,0.74209 m -5.388824,5.38882 0.269408,-0.2694 m 5.786435,-5.38732 -0.487659,0.48766 m -5.372946,5.37295 0.256553,-0.25655 m 5.673396,-5.27428 -0.382979,0.38298 m -5.351733,5.35174 0.247135,-0.24714 m 5.601021,-5.2019 -0.336089,0.33609 m -5.307369,5.30737 0.228257,-0.22826 m 5.559506,-5.16038 -0.320059,0.32006 m -5.245395,5.24539 0.211106,-0.2111 m 5.498652,-5.09953 -0.304029,0.30403 m -5.183419,5.18342 0.223479,-0.22348 m 5.408273,-5.00915 -0.287998,0.288 m -5.121445,5.12144 0.235851,-0.23585 m 5.317896,-4.91877 -0.271968,0.27196 m -5.059469,5.05947 0.24506,-0.24506 m 5.230681,-4.83156 -0.262649,0.26265 m -4.951367,4.95137 0.246514,-0.24652 m 5.111806,-4.71268 -0.264911,0.26491 m -4.834995,4.835 0.254971,-0.25497 m 4.989239,-4.59012 -0.267172,0.26717 m -4.674961,4.67496 0.219764,-0.21976 m 4.849839,-4.45072 -0.252599,0.2526 m -4.528447,4.52845 0.198078,-0.19808 m 4.70833,-4.30921 -0.235918,0.23592 m -4.384916,4.38492 0.17567,-0.17567 m 4.570526,-4.17141 -0.224206,0.22421 m -4.262412,4.26241 0.172714,-0.17271 m 4.439267,-4.04015 -0.21617,0.21617 m -4.145066,4.14507 0.178592,-0.17859 m 4.308006,-3.90889 -0.219017,0.21902 m -4.016837,4.01684 0.18447,-0.18447 m 4.176746,-3.77763 -0.221864,0.22187 m -3.912248,3.91225 0.213989,-0.21399 m 4.045485,-3.64637 -0.224711,0.22472 m -3.810702,3.8107 0.246549,-0.24655 m 3.885733,-3.48661 -0.199064,0.19906 m -3.709157,3.70916 0.27911,-0.27911 m 3.730168,-3.33105 -0.188432,0.18844 m -3.596784,3.59678 0.305565,-0.30557 m 3.580708,-3.18158 -0.190614,0.19061 m -3.471598,3.4716 0.315352,-0.31535 m 3.447917,-3.0488 -0.192795,0.1928 m -3.346412,3.34641 0.325139,-0.32514 m 3.315125,-2.916 -0.194977,0.19498 m -3.222099,3.2221 0.336552,-0.33656 m 3.204401,-2.80527 -0.214426,0.21442 m -3.107163,3.10716 0.329284,-0.32928 m 3.013857,-2.61473 -0.170681,0.17068 m -2.953097,2.95309 0.322016,-0.32201 m 2.865151,-2.46603 -0.168773,0.16877 m -2.79903,2.79903 0.310908,-0.31091 m 2.720284,-2.32116 -0.166865,0.16687 m -2.644964,2.64496 0.292224,-0.29222 m 2.582994,-2.18387 -0.165434,0.16543 m -2.474449,2.47445 0.257568,-0.25757 m 2.387079,-1.98795 -0.164879,0.16487 m -2.227359,2.22736 0.205838,-0.20584 m 2.198537,-1.79941 -0.171699,0.1717 m -1.980266,1.98027 0.178529,-0.17853 m 1.985574,-1.58645 -0.20426,0.20426 m -1.707434,1.70743 0.17797,-0.17797 m 1.686113,-1.28699 -1.546036,1.54604 m 0.313905,0.0852 1.170657,-1.17065 m 0.0095,0.38961 -0.715761,0.71576"
         inkscape:connector-curvature="0" />
    </g>
  </g>
</svg>
