<?xml version="1.0" encoding="UTF-8" standalone="no"?>
<!-- Created with Inkscape (http://www.inkscape.org/) -->

<svg
   xmlns:dc="http://purl.org/dc/elements/1.1/"
   xmlns:cc="http://creativecommons.org/ns#"
   xmlns:rdf="http://www.w3.org/1999/02/22-rdf-syntax-ns#"
   xmlns:svg="http://www.w3.org/2000/svg"
   xmlns="http://www.w3.org/2000/svg"
   xmlns:sodipodi="http://sodipodi.sourceforge.net/DTD/sodipodi-0.dtd"
   xmlns:inkscape="http://www.inkscape.org/namespaces/inkscape"
   width="75mm"
   height="75mm"
   viewBox="0 0 75 75"
   version="1.1"
   id="svg1586"
   inkscape:version="0.92.2 2405546, 2018-03-11"
   sodipodi:docname="75.svg">
  <sodipodi:namedview
     id="base"
     pagecolor="#ffffff"
     bordercolor="#666666"
     borderopacity="1.0"
     inkscape:pageopacity="0.0"
     inkscape:pageshadow="2"
     inkscape:zoom="3.3031093"
     inkscape:cx="121.03123"
     inkscape:cy="106.13597"
     inkscape:document-units="mm"
     inkscape:current-layer="layer1"
     showgrid="false"
     inkscape:window-width="1366"
     inkscape:window-height="703"
     inkscape:window-x="0"
     inkscape:window-y="0"
     inkscape:window-maximized="1" />
  <defs
     id="defs1580" />
  <metadata
     id="metadata1583">
    <rdf:RDF>
      <cc:Work
         rdf:about="">
        <dc:format>image/svg+xml</dc:format>
        <dc:type
           rdf:resource="http://purl.org/dc/dcmitype/StillImage" />
        <dc:title></dc:title>
      </cc:Work>
    </rdf:RDF>
  </metadata>
  <g
     transform="translate(0,-222)"
     id="layer1"
     inkscape:groupmode="layer"
     inkscape:label="Layer 1">
    <g
       id="g1211">
      <path
         id="path1183"
         d="m 29.40737,293.19118 c 1.023148,-0.51902 2.300296,-1.43026 2.838106,-2.02498 0.957561,-1.05889 0.94654,-1.09759 -0.531506,-1.86642 -0.830138,-0.43182 -2.057935,-1.37255 -2.728438,-2.09053 l -1.219095,-1.30541 -3.060895,2.98239 c -1.683492,1.64032 -3.437241,3.5865 -3.89722,4.32487 l -0.836324,1.34248 3.787551,-0.20937 c 2.183989,-0.12072 4.575146,-0.60889 5.647821,-1.15303 z"
         style="fill:none;stroke:#0000ff;stroke-width:0.09999999;stroke-miterlimit:4;stroke-dasharray:none" />
      <path
         id="path1181"
         d="m 20.571572,264.38799 c -0.457105,-0.73965 1.28727,-1.08113 2.838824,-0.55574 l 1.479175,0.50089 -2.025412,0.24359 c -1.113976,0.13397 -2.14564,0.0491 -2.292587,-0.18874 z"
         style="fill:none;stroke:#0000ff;stroke-width:0.09999999;stroke-miterlimit:4;stroke-dasharray:none" />
      <path
         id="path1179"
         d="m 23.654794,269.48526 c -0.155605,-1.33294 -0.364103,-1.69835 -0.682394,-1.19595 -0.700197,1.10519 -0.560873,3.11532 0.215926,3.11532 0.480254,0 0.622301,-0.58449 0.466468,-1.91937 z"
         style="fill:none;stroke:#0000ff;stroke-width:0.09999999;stroke-miterlimit:4;stroke-dasharray:none" />
      <path
         id="path1177"
         d="m 21.966289,270.15101 c 0,-2.81765 0.884625,-3.77377 2.813151,-3.04051 2.918983,1.10984 2.079682,4.2379 -1.35151,5.03703 -1.424501,0.33176 -1.461641,0.28103 -1.461641,-1.99652 z"
         style="fill:none;stroke:#0000ff;stroke-width:0.09999999;stroke-miterlimit:4;stroke-dasharray:none" />
      <path
         id="path1175"
         d="m 58.141214,294.73126 c 1.467702,-2.74257 -1.401037,-10.1428 -5.826289,-15.02957 -1.490686,-1.64614 -2.710336,-3.34925 -2.710336,-3.78467 0,-1.17695 0.393917,-0.98537 2.19732,1.0687 0.898337,1.02319 1.797206,1.86036 1.997485,1.86036 0.784638,0 3.776337,-5.74945 4.552532,-8.74907 1.551794,-5.99692 0.776182,-11.08098 -2.841353,-18.62484 -3.316859,-6.91684 -6.772462,-10.8747 -12.871587,-14.74242 -2.575708,-1.63338 -3.024172,-2.16689 -3.310457,-3.93832 -0.182129,-1.12696 -0.907111,-2.89335 -1.611071,-3.92533 -1.286073,-1.88532 -6.367002,-5.47078 -6.940236,-4.89751 -0.731728,0.73176 -0.171873,2.09066 1.686306,4.09305 l 1.993146,2.14784 -1.885573,-1.72678 c -2.260059,-2.06972 -2.632226,-2.12973 -2.632226,-0.4244 0,0.89194 0.749642,1.92903 2.378721,3.29084 1.308296,1.09366 2.274326,2.09286 2.146732,2.22046 -0.127592,0.1276 -1.463062,-0.87489 -2.967709,-2.22778 -2.583254,-2.32268 -3.683766,-2.94444 -3.683766,-2.08124 0,0.2082 1.016505,1.44917 2.258899,2.75771 l 2.258899,2.37918 -2.847889,-2.49194 c -3.353118,-2.93402 -5.411117,-3.46815 -2.965237,-0.76959 0.858594,0.9473 1.860053,1.91594 2.225463,2.15254 0.36541,0.2366 0.664382,0.7083 0.664382,1.04821 0,0.33991 -1.156576,-0.52122 -2.570167,-1.91362 -2.111726,-2.08008 -2.67937,-2.40006 -3.182398,-1.79392 -0.480536,0.57904 -0.320697,1.01162 0.743067,2.01102 0.745412,0.70032 1.822495,2.02928 2.393517,2.95327 1.474991,2.38671 4.278561,3.59069 7.478602,3.21167 2.408539,-0.28527 2.591999,-0.22083 2.903347,1.01974 0.182792,0.72834 1.161336,1.95658 2.174541,2.72943 2.26823,1.73015 4.927131,6.23963 4.944803,8.38636 0.0098,1.19215 0.137922,1.39725 0.507595,0.81269 0.271955,-0.43004 0.659252,-0.61711 0.860661,-0.41569 0.45136,0.45138 -0.613334,3.1666 -2.322418,5.92272 -0.705125,1.13711 -1.585261,2.93103 -1.955855,3.9865 -0.537822,1.53172 -0.929278,1.90001 -1.939631,1.82483 -0.6962,-0.0518 -2.165714,0.24645 -3.265585,0.66277 -2.184656,0.82693 -1.880489,0.9886 -4.56961,-2.42895 -0.913498,-1.16094 -1.452497,-1.3265 -4.266225,-1.31043 -3.713862,0.0212 -5.247317,0.89963 -7.751404,4.44029 -1.427512,2.01843 -1.614526,2.77774 -1.951382,7.92289 -0.204909,3.12979 -0.529224,6.57834 -0.720701,7.66345 -0.318441,1.80461 -0.230992,2.00232 1.025119,2.3176 1.840362,0.46192 4.023043,-0.98336 4.023043,-2.66389 0,-0.69976 -0.298971,-1.38191 -0.664382,-1.5159 -0.479424,-0.1758 -0.504166,-0.41495 -0.08887,-0.85902 0.316527,-0.33847 0.948998,-0.47207 1.405489,-0.29689 0.736279,0.28255 0.748451,0.65958 0.10781,3.33951 -0.397196,1.66154 -0.730694,3.20038 -0.741106,3.41963 -0.03,0.63159 2.361689,0.46296 3.038876,-0.21426 0.676562,-0.67659 0.585842,-0.72812 5.666514,3.21778 2.391925,1.85768 3.556298,2.39142 5.65742,2.59333 2.55135,0.24516 7.001548,-0.91808 7.673801,-2.00587 0.151143,-0.24455 -0.354499,-1.19258 -1.123651,-2.10671 -0.769149,-0.91413 -1.237631,-1.82288 -1.041072,-2.01945 0.67681,-0.67684 2.170203,0.76092 3.688353,3.55096 1.31763,2.42153 1.959091,2.9951 4.78355,4.27724 1.794026,0.8144 3.964355,2.22741 4.822949,3.14003 1.845392,1.96151 2.192785,2.02374 2.98925,0.53546 z"
         style="fill:none;stroke:#0000ff;stroke-width:0.09999999;stroke-miterlimit:4;stroke-dasharray:none" />
      <path
         id="path1296"
         d="m 53.185947,294.54602 c -1.392029,-1.28146 -3.212039,-2.47954 -4.044471,-2.66238 -0.832432,-0.18284 -2.168546,-1.01618 -2.969144,-1.85186 l -1.455629,-1.51943 -2.206733,1.00204 c -1.213702,0.55113 -3.324506,1.00731 -4.690673,1.01372 -1.995617,0.009 -2.949061,0.36673 -4.849846,1.8177 -3.497048,2.66949 -4.437238,3.06097 -7.737738,3.22185 -1.649819,0.0804 -3.896587,0.32889 -4.992818,0.55216 -1.773046,0.36109 -1.993146,0.28876 -1.993146,-0.65501 0,-0.58352 0.478355,-1.66909 1.063011,-2.4124 0.584656,-0.7433 1.063011,-1.58367 1.063011,-1.86748 0,-0.2838 1.315478,-1.63991 2.923283,-3.01357 1.607805,-1.37366 2.923281,-2.68315 2.923281,-2.90997 0,-0.22682 -1.227447,-0.29446 -2.727661,-0.1503 -2.161277,0.20768 -2.828948,0.0811 -3.215446,-0.60956 -0.268281,-0.47941 -0.846543,-0.87166 -1.285025,-0.87166 -1.170493,0 -3.76162,-1.44308 -4.079745,-2.27214 -0.15129,-0.39428 0.170377,-1.65887 0.714816,-2.81021 0.696908,-1.47375 0.998681,-3.35189 1.019596,-6.34559 0.0351,-5.02406 1.035242,-7.65353 4.010034,-10.54275 3.887382,-3.77557 9.057371,-3.88971 12.156918,-0.2684 l 1.813274,2.1185 1.669747,-0.8635 c 0.91836,-0.47493 2.076354,-0.73899 2.573318,-0.5868 0.702059,0.215 1.334831,-0.63975 2.83733,-3.83264 1.784347,-3.79185 1.899454,-4.32638 1.489779,-6.91809 -0.493126,-3.11965 -1.945153,-5.81095 -4.129387,-7.65373 -0.794282,-0.67012 -1.855694,-1.80748 -2.358694,-2.52747 -0.748607,-1.07155 -1.291656,-1.28185 -2.992929,-1.159 -2.816812,0.20339 -6.04876,-1.52797 -8.070535,-4.3234 -0.892855,-1.23451 -2.208506,-2.55297 -2.923668,-2.9299 -1.078649,-0.56851 -1.205227,-0.86296 -0.742577,-1.72748 0.762021,-1.42392 2.535137,-2.48928 4.844957,-2.91104 1.718652,-0.31382 1.969907,-0.56853 2.267091,-2.29833 0.183823,-1.06998 0.687561,-2.40732 1.119418,-2.97187 0.774937,-1.01307 0.800862,-1.01269 1.984955,0.0292 0.659869,0.5806 2.075675,1.63072 3.146234,2.3336 2.298576,1.50914 4.550429,4.78145 5.022649,7.29872 0.278402,1.48409 0.921495,2.16519 3.703195,3.92208 8.28779,5.23448 15.041769,16.46256 15.980852,26.5672 0.425849,4.58219 -0.862021,9.99886 -3.364505,14.15081 -1.322602,2.19436 -1.70787,3.29423 -1.353738,3.86462 2.405763,3.87487 3.975444,7.78925 4.224361,10.53451 0.538567,5.9397 -1.934173,7.12006 -6.367002,3.0393 z"
         style="fill:none;stroke:#ff0000;stroke-width:0.09999999;stroke-miterlimit:4;stroke-dasharray:none" />
      <path
         id="path1159"
         style="fill:none;stroke:#0000ff;stroke-width:0.09999999"
         d="m 30.712511,222.37763 -0.261796,0.26179 m -8.198563,8.19857 1.41512,-1.41512 m 7.437566,-7.03845 -0.878713,0.87872 m -8.201253,8.20125 2.175422,-2.17542 m 7.172316,-6.7732 -1.499005,1.49901 m -7.830797,7.8308 3.022104,-3.02211 m 6.524954,-6.12583 -1.870358,1.87036 m -5.674887,5.67488 1.546787,-1.54678 m -2.473624,2.47362 -0.890555,0.89056 m 7.338181,-6.93906 2.241711,-2.24171 m -5.671734,5.67173 -1.615564,1.61557 m -2.059085,2.05908 0.706465,-0.70646 m 8.8574,-8.45828 -0.647771,0.64777 m -1.976882,1.97688 0.858318,-0.85832 m -3.56827,3.56827 -0.725547,0.72555 m -1.159934,1.15993 0.414849,-0.41484 m -1.914787,1.91478 -0.595973,0.59597 m 8.954863,-8.55574 0.584121,-0.58412 m -1.999987,1.99999 -0.96535,0.96535 m -3.064644,3.06464 0.993957,-0.99395 m -1.830256,1.83025 -0.352689,0.35269 m -2.076477,2.07648 0.506014,-0.50602 m 9.012418,-8.61329 -0.520798,0.5208 m -3.051856,3.05185 1.453702,-1.4537 m -2.334465,2.33447 -1.5186,1.5186 m -1.242375,1.24237 0.271032,-0.27103 m -1.89611,1.89611 -0.444212,0.44421 m 9.028449,-8.62932 0.47822,-0.47822 m -2.215767,2.21576 -3.724379,3.72438 m -1.26967,1.26967 0.213293,-0.21329 m -1.869778,1.86978 -0.405618,0.40562 m 9.049066,-8.64995 0.44584,-0.44584 m -2.291971,2.29197 -3.622825,3.62283 m -1.290445,1.29044 0.166317,-0.16632 m -1.854209,1.85421 -0.381386,0.38139 m 9.084046,-8.68492 0.41346,-0.41346 m -2.368175,2.36817 -0.234027,0.23403 m -2.114074,2.11407 1.373694,-1.37369 m -2.189986,2.18998 -0.356879,0.35688 m -1.33432,1.33432 0.142442,-0.14244 m -1.839547,1.83955 -0.368601,0.3686 m 9.131379,-8.73226 0.38108,-0.38108 m -2.444378,2.44438 -0.137351,0.13735 m -2.095648,2.09565 0.995735,-0.99573 m -1.935224,1.93522 -0.25291,0.25291 m -1.371623,1.37162 0.117674,-0.11767 m -1.830389,1.83039 -0.350312,0.35031 m 9.166386,-8.76726 0.368307,-0.36831 m -3.933276,3.93327 -0.719958,0.71996 m -1.215902,1.2159 0.193594,-0.19359 m -1.488173,1.48817 -0.102597,0.1026 m -2.060348,2.06035 0.332023,-0.33202 m 9.229122,-8.83 -0.362902,0.3629 m -4.290906,4.2909 0.573879,-0.57388 m -1.656661,1.65667 -0.136123,0.13612 m -1.42273,1.42273 0.09339,-0.0934 m -1.83733,1.83732 -0.326269,0.32627 m 9.242634,-8.84351 0.357498,-0.3575 m -4.24679,4.24679 -0.407592,0.4076 m -1.221909,1.22191 0.07865,-0.0787 m -1.442742,1.44274 -0.08419,0.0842 m -2.083874,2.08387 0.324331,-0.32433 m 9.318603,-8.91948 -0.352094,0.35209 m -4.302863,4.30287 0.319181,-0.31918 m -2.942938,2.94293 -0.07499,0.075 m -2.097546,2.09754 0.322392,-0.32239 m 9.363345,-8.96422 -0.349375,0.34937 m -4.306157,4.30616 0.229507,-0.22951 m -2.891021,2.89102 -0.06205,0.0621 m -2.114958,2.11495 0.320454,-0.32045 m 9.408087,-9.00896 -0.360804,0.3608 m -4.303743,4.30374 0.148273,-0.14827 m -4.714392,4.71439 -0.314414,0.31442 m 9.407331,-9.00821 0.372234,-0.37224 m -4.576112,4.57611 -0.107937,0.10794 m -4.919139,4.91914 0.305782,-0.30578 m 9.530197,-9.13108 -0.38197,0.38197 m -4.319887,4.31989 0.07792,-0.0779 m -4.73851,4.73851 -0.297151,0.29716 m 9.500686,-9.10157 0.386777,-0.38678 m -9.422565,9.42257 -0.288519,0.28852 m 9.547363,-9.14824 0.391585,-0.39159 m -9.482683,9.48269 -0.278916,0.27891 m 9.593069,-9.19394 0.396392,-0.3964 m -9.542798,9.5428 -0.267515,0.26752 m 9.636977,-9.23786 0.38882,-0.38882 m -9.590536,9.59054 -0.256114,0.25611 m 9.680885,-9.28176 0.371798,-0.3718 m -9.628068,9.62807 -0.245467,0.24547 m 9.724792,-9.32567 0.354777,-0.35478 m -9.665487,9.66549 -0.234936,0.23493 m 9.763901,-9.36478 0.342557,-0.34255 m -9.702906,9.7029 -0.20448,0.20448 m 9.768503,-9.36938 0.333388,-0.33338 m -9.724103,9.7241 -0.17607,0.17607 m 9.770458,-9.37134 0.317461,-0.31746 m -9.711739,9.71174 -0.174462,0.17446 m 9.772414,-9.37329 0.301534,-0.30153 m -9.699376,9.69937 -0.172853,0.17286 m 9.774369,-9.37525 0.285607,-0.28561 m -9.687014,9.68702 -0.159991,0.15999 m 9.748994,-9.34987 0.276921,-0.27692 m -9.654658,9.65465 -0.147162,0.14717 m 9.705997,-9.30688 0.266812,-0.26681 m -9.594477,9.59448 -0.154237,0.15423 m 9.663,-9.26388 0.256704,-0.2567 m -9.534297,9.5343 -0.161313,0.16131 m 9.619357,-9.22023 0.247243,-0.24725 m -9.474116,9.47412 -0.16291,0.16291 m 9.537507,-9.13839 0.263969,-0.26396 m -9.387819,9.38781 -0.166223,0.16623 m 9.437797,-9.03868 0.270456,-0.27045 m -9.27921,9.27921 -0.18161,0.18161 m 9.338088,-8.93897 0.276943,-0.27694 m -9.1706,9.1706 -0.196996,0.197 m 9.230723,-8.83161 0.291085,-0.29108 m -9.062951,9.06295 -0.211423,0.21142 m 9.109253,-8.71013 0.312916,-0.31291 m -8.914546,8.91454 -0.230508,0.23051 m 8.958101,-8.55898 0.32275,-0.32275 m -8.754142,8.75414 -0.253532,0.25354 m 8.810888,-8.41177 0.332583,-0.33258 m -8.593738,8.59374 -0.276556,0.27655 m 8.654204,-8.25508 0.351887,-0.35189 m -8.416547,8.41655 -0.316367,0.31637 m 8.486802,-8.08768 0.370007,-0.37001 m -8.207718,8.20772 -0.335631,0.33563 m 8.279116,-7.87999 0.377737,-0.37774 m -7.988498,7.9885 -0.364943,0.36494 m 8.087392,-7.68827 0.379555,-0.37955 m -7.764102,7.7641 -0.399433,0.39943 m 7.862079,-7.46295 0.414961,-0.41497 m -7.503296,7.5033 -0.437979,0.43798 m 7.604412,-7.20529 0.417835,-0.41784 m -7.209957,7.20996 -0.470673,0.47067 m 7.340886,-6.94176 0.42307,-0.42307 m -6.918702,6.9187 -0.503638,0.50364 m 7.077412,-6.67829 0.428254,-0.42825 m -6.578219,6.57822 -0.545218,0.54521 m 6.773326,-6.3742 0.444237,-0.44424 m -6.248536,6.24854 -0.574582,0.57458 m 6.457023,-6.0579 0.459938,-0.45994 m -5.915668,5.91567 -0.606847,0.60685 m 6.158694,-5.75957 0.457664,-0.45767 m -5.568491,5.56849 -0.639185,0.63919 m 5.872149,-5.47303 0.464417,-0.46441 m -5.256361,5.25636 -0.673007,0.673 m 5.630471,-5.23135 0.446004,-0.446 m -4.961141,4.96114 -0.725683,0.72569 m 5.415123,-5.01601 0.442846,-0.44284 m -4.766142,4.76614 -0.770664,0.77066 m 5.303221,-4.90409 0.413584,-0.41359 m -4.58019,4.58019 -0.803402,0.8034 m 5.179269,-4.78014 0.405826,-0.40583 m -4.561356,4.56136 -0.764604,0.7646 m 5.129395,-4.73027 0.412059,-0.41206 m -4.66147,4.66147 -0.635659,0.63566 m 5.094331,-4.69521 0.418291,-0.41829 m -4.775528,4.77553 -0.497103,0.4971 m 5.088017,-4.68889 0.400108,-0.40011 m -4.879393,4.87939 -0.426559,0.42656 m 5.144136,-4.74501 0.377309,-0.37731 m -4.973123,4.97312 -0.366502,0.3665 m 5.200608,-4.80148 0.365408,-0.36541 m -5.077751,5.07775 -0.306483,0.30648 m 5.257118,-4.85799 0.366312,-0.36632 m -5.148567,5.14857 -0.293252,0.29325 m 5.3138,-4.91467 0.367216,-0.36722 m -5.224304,5.2243 -0.275161,0.27517 m 5.370541,-4.97142 0.36812,-0.36812 m -5.300041,5.30004 -0.25707,0.25707 m 5.427355,-5.02823 0.368952,-0.36896 m -5.35305,5.35305 -0.261706,0.26171 m 5.484301,-5.08518 0.369651,-0.36965 m -5.403341,5.40334 -0.26906,0.26906 m 5.541247,-5.14212 0.37035,-0.37035 m -5.453633,5.45363 -0.274849,0.27485 m 5.59663,-5.19751 0.370509,-0.37051 m -5.496443,5.49645 -0.267705,0.2677 m 5.632136,-5.23301 0.369014,-0.36902 m -5.520774,5.52078 -0.277384,0.27738 m 5.667641,-5.26852 0.367519,-0.36752 m -5.545106,5.54511 -0.287064,0.28706 m 5.703149,-5.30402 0.366025,-0.36603 m -5.569439,5.56944 -0.296744,0.29674 m 5.738655,-5.33953 0.36453,-0.36453 m -5.594988,5.59499 -0.305205,0.30521 m 5.77416,-5.37504 0.363035,-0.36304 m -5.620943,5.62095 -0.313262,0.31326 m -20.223539,20.22354 2.992101,-2.9921 m 23.402646,-23.00353 -0.364526,0.36453 m -5.600752,5.60075 0.318379,-0.31838 m -17.301931,17.30193 -3.483124,3.48313 m 26.292853,-25.89373 0.364703,-0.36471 m -5.661454,5.66146 -0.322706,0.3227 m -21.302778,21.30278 5.289466,-5.28947 m 22.220382,-21.82125 -0.362189,0.36218 m -5.63816,5.63816 0.310455,-0.31045 m -16.008553,16.00855 -0.965191,0.96519 m -5.335676,5.33568 1.444329,-1.44433 m 26.777894,-26.37877 -0.359674,0.35967 m -5.656863,5.65687 0.291837,-0.29184 m -15.592261,15.59226 -0.696397,0.6964 m -6.315986,6.31598 0.628106,-0.6281 m 27.924148,-27.52503 -0.357159,0.35716 m -5.69391,5.69391 0.291561,-0.29156 m -15.153376,15.15338 -0.733155,0.73315 m -7.255724,7.25572 0.727276,-0.72727 m 28.397397,-27.99828 -0.354644,0.35465 m -5.731819,5.73182 0.292147,-0.29215 m -14.854619,14.85462 -0.776456,0.77646 m -4.262773,4.26277 0.278454,-0.27846 m -3.135022,3.13503 -0.569055,0.56905 m 28.984568,-28.58544 0.352129,-0.35213 m -5.833095,5.83309 -0.288761,0.28876 m -15.010297,15.0103 0.736375,-0.73638 m -4.820274,4.82028 -0.390857,0.39086 m -3.826322,3.82632 0.704055,-0.70406 m 28.949796,-28.55067 -0.347324,0.34732 m -5.808732,5.80873 0.27311,-0.27311 m -14.226006,14.22601 -0.782058,0.78206 m -4.593535,4.59354 0.464441,-0.46445 m -4.137106,4.13711 -0.650564,0.65056 m 29.685874,-29.28675 0.331977,-0.33198 m -5.922254,5.92226 -0.27534,0.27534 m -14.491572,14.49157 0.709113,-0.70911 m -4.858253,4.85825 -0.426853,0.42685 m -4.768008,4.76801 0.590154,-0.59015 m 29.65309,-29.25397 -0.32427,0.32427 m -5.914861,5.91486 0.27757,-0.27757 m -13.770551,13.77055 -0.751448,0.75145 m -4.580268,4.58027 0.346541,-0.34654 m -5.01153,5.01153 -0.560122,0.56012 m 30.175144,-29.77602 0.323873,-0.32388 m -6.00087,6.00087 -0.2798,0.2798 m -13.997285,13.99729 0.637945,-0.63794 m -4.95626,4.95625 -0.266229,0.26623 m -5.682212,5.68222 0.582721,-0.58273 m 30.172067,-29.77294 -0.323476,0.32348 m -6.002049,6.00204 0.278513,-0.27851 m -13.453452,13.45345 -0.594113,0.59412 m -4.638953,4.63895 0.260503,-0.2605 m -5.763864,5.76386 -0.5649,0.5649 m 30.688789,-30.28967 0.32308,-0.32308 m -6.10151,6.10151 -0.28459,0.28459 m -13.527306,13.52731 0.546459,-0.54646 m -11.11417,11.11417 -0.544789,0.54479 m 30.9133,-30.51418 0.322683,-0.32268 m -6.156006,6.15601 -0.290667,0.29066 m -13.285562,13.28556 0.472629,-0.47262 m -11.465736,11.46573 -0.524678,0.52468 m 31.137811,-30.73869 0.31794,-0.31794 m -6.206157,6.20616 -0.296744,0.29674 m -13.043816,13.04382 0.403176,-0.40318 m -11.821679,11.82168 -0.504567,0.50457 m 31.362321,-30.9632 0.305646,-0.30565 m -6.248757,6.24876 -0.309111,0.30911 m -12.813703,12.81371 0.318713,-0.31872 m -12.14469,12.14469 -0.484418,0.48442 m 31.586794,-31.18767 0.293352,-0.29335 m -6.301203,6.3012 -0.32473,0.32473 m -12.601987,12.60199 0.265745,-0.26575 m -12.4677,12.4677 -0.464428,0.46443 m 31.810313,-31.41119 0.28217,-0.28217 m -6.359226,6.35922 -0.334772,0.33478 m -12.387987,12.38798 0.201295,-0.20129 m -12.781513,12.78151 -0.444438,0.44444 m 32.018782,-31.61966 0.286039,-0.28604 m -6.417248,6.41725 -0.344815,0.34482 m -12.173988,12.17398 0.120129,-0.12013 m -7.491631,7.49163 -0.289314,0.28932 m -5.722113,5.72211 0.424057,-0.42406 m 32.093103,-31.69398 -0.289909,0.28991 m -6.550807,6.55081 0.365445,-0.36545 m -12.275882,12.27589 -0.100935,0.10093 m -8.160959,8.16096 1.056477,-1.05648 m -6.170983,6.17099 -0.403764,0.40376 m 32.435719,-32.0366 0.293778,-0.29377 m -6.533293,6.53329 -0.395545,0.39554 m -11.854037,11.85404 0.07917,-0.0792 m -7.07472,7.07472 -1.443657,1.44366 m -5.511111,5.51111 0.373009,-0.37301 m 32.553739,-32.15462 -0.293022,0.29303 m -6.719312,6.71931 0.40649,-0.40649 m -12.052468,12.05247 -0.07736,0.0774 m -7.584695,7.58469 0.698818,-0.69882 m -1.675616,1.67562 -0.207179,0.20718 m -5.471632,5.47163 0.387786,-0.38779 m 32.775142,-32.37602 -0.285665,0.28567 m -6.79943,6.79943 0.414128,-0.41413 m -11.934372,11.93437 -0.10957,0.10957 m -7.614516,7.61452 0.830385,-0.83038 m -2.108195,2.10819 -0.102031,0.10203 m -5.50289,5.50289 0.402563,-0.40256 m 32.996547,-32.59743 -0.278308,0.27831 m -6.904769,6.90477 0.446985,-0.44699 m -11.839884,11.83989 -0.132298,0.1323 m -7.728019,7.72802 1.039248,-1.03925 m -7.633953,7.63395 -0.417339,0.41734 m 33.364339,-32.96522 0.270951,-0.27095 m -6.801215,6.80122 -0.479843,0.47984 m -11.420578,11.42058 0.155026,-0.15503 m -6.779148,6.77915 -1.203249,1.20325 m -7.146622,7.14662 0.423226,-0.42323 m 33.439356,-33.04023 -0.263594,0.2636 m -7.115446,7.11544 0.488627,-0.48863 m -11.628345,11.62835 -0.178779,0.17878 m -7.964702,7.9647 1.407768,-1.40777 m -8.219335,8.21934 -0.502557,0.50256 m 33.894717,-33.4956 0.2686,-0.2686 m -6.981651,6.98165 -0.499242,0.49924 m -11.226773,11.22678 0.196585,-0.19659 m -6.679021,6.67902 -1.606226,1.60623 m -1.666864,1.66686 0.131208,-0.13121 m -5.363227,5.36323 -0.581887,0.58189 m 34.186301,-33.78718 0.27775,-0.27775 m -7.072889,7.07289 -0.528525,0.52852 m -11.116379,11.11638 0.21439,-0.21439 m -6.683641,6.68364 -1.770135,1.77014 m -1.676334,1.67633 0.241912,-0.24191 m -5.525014,5.52502 -0.666923,0.66692 m 34.483591,-34.08447 0.283008,-0.28301 m -7.136703,7.1367 -0.58134,0.58134 m -11.005985,11.00599 0.232195,-0.23219 m -6.688261,6.68826 -1.915061,1.91506 m -1.656799,1.6568 0.356414,-0.35642 m -5.654043,5.65405 -1.212081,1.21208 m 35.156459,-34.75734 0.281379,-0.28138 m -7.313261,7.31326 -0.505838,0.50584 m -10.904277,10.90428 0.238974,-0.23898 m -6.716868,6.71687 -2.104548,2.10455 m -1.434155,1.43415 0.452242,-0.45224 m -6.087362,6.08736 -1.058751,1.05875 m 35.330269,-34.93114 0.27975,-0.27975 m -7.441199,7.4412 -0.51247,0.51247 m -10.769056,10.76905 0.246217,-0.24621 m -6.796772,6.79677 -3.107851,3.10785 m -7.525967,7.52597 1.303494,-1.3035 m 34.779778,-34.38065 -0.278121,0.27812 m -7.810118,7.81011 0.486138,-0.48613 m -10.866511,10.86651 -0.253461,0.25346 m -9.349209,9.34921 2.725993,-2.72599 m -9.486826,9.48682 -1.491831,1.49183 m 36.223628,-35.8245 0.276492,-0.27649 m -7.761388,7.76138 -0.46142,0.46142 m -10.498613,10.49862 0.260704,-0.26071 m -7.132987,7.13299 -1.993828,1.99383 m -9.138284,9.13828 1.665191,-1.66519 m 35.236799,-34.83768 -0.274863,0.27487 m -8.082514,8.08251 0.506891,-0.50689 m -10.602336,10.60233 -0.267947,0.26795 m -8.527193,8.52719 1.525741,-1.52574 m -9.566915,9.56692 -1.522722,1.52272 m 36.708435,-36.30931 0.279598,-0.2796 m -7.847496,7.8475 -0.643273,0.64327 m -10.222834,10.22283 0.268676,-0.26867 m -7.801126,7.80112 -0.253336,0.25334 m -10.417179,10.41718 1.398921,-1.39892 m 35.691136,-35.29202 -0.291208,0.29121 m -8.380049,8.38005 1.781751,-1.78175 m -11.544842,11.54484 -0.260806,0.26081 m -18.221563,18.22156 1.161668,-1.16167 m 35.920693,-35.52157 -0.294972,0.29497 m -8.561009,8.56101 1.812028,-1.81202 m -11.371969,11.37197 -0.252936,0.25293 m -18.208852,18.20885 0.892178,-0.89218 m 36.151176,-35.75205 -0.298736,0.29874 m -8.768317,8.76831 1.92987,-1.92987 m -11.260314,11.26032 -0.21282,0.21282 m -18.206025,18.20602 0.668715,-0.66871 m 36.313271,-35.91415 -0.302501,0.3025 m -9.106319,9.10632 1.707461,-1.70746 m -10.679311,10.67931 -0.168227,0.16823 m -18.193626,18.19362 0.457898,-0.4579 m 36.450269,-36.05114 -0.306265,0.30626 m -9.464127,9.46413 1.788463,-1.78846 m -10.102929,10.10293 -0.296582,0.29658 m -13.425088,13.42509 0.113751,-0.11376 m -4.66096,4.66096 -0.314966,0.31497 m 36.524318,-36.12519 0.310029,-0.31003 m -8.629954,8.62995 -1.490388,1.49039 m -7.95871,7.95871 1.032629,-1.03263 m -14.378424,14.37842 -0.521441,0.52144 m -4.648595,4.6486 0.250795,-0.25079 m 36.509732,-36.11062 -0.313794,0.3138 m -10.299248,10.29925 1.480804,-1.48081 m -7.364393,7.3644 -1.001479,1.00147 m -14.366055,14.36606 0.72233,-0.72233 m -5.138702,5.1387 -0.240526,0.24053 m 36.371058,-35.97194 0.315649,-0.31565 m -9.841624,9.84163 -1.264119,1.26412 m -6.058182,6.05818 0.89371,-0.89371 m -14.707227,14.70723 -0.826166,0.82616 m -4.604672,4.60467 0.262544,-0.26254 m 36.299489,-35.90037 -0.322044,0.32205 m -11.271038,11.27104 1.075726,-1.07573 m -5.337219,5.33722 -0.820871,0.82087 m -15.103186,15.10318 0.891911,-0.89191 m -5.112323,5.11233 -0.289789,0.28979 m 36.114148,-35.71503 0.329862,-0.32986 m -10.670134,10.67013 -1.443525,1.44353 m -4.159432,4.15943 0.762091,-0.76209 m -15.367534,15.36753 -0.900652,0.90065 m -4.391623,4.39163 0.329134,-0.32914 m 35.996851,-35.59773 -0.33768,0.33768 m -12.661506,12.66151 1.211524,-1.21152 m -3.485476,3.48547 -0.598081,0.59808 m -15.968133,15.96814 0.749501,-0.7495 m -4.551967,4.55196 -0.410966,0.41097 m 35.862463,-35.46334 0.345498,-0.3455 m -12.153849,12.15385 -1.09338,1.09338 m -2.331356,2.33136 0.460601,-0.46061 m -16.176534,16.17654 -0.617652,0.61765 m -4.00066,4.00066 0.478079,-0.47808 m 35.589927,-35.1908 -0.353316,0.35331 m -14.956168,14.95617 2.531004,-2.531 m -18.625653,18.62565 -0.603498,0.6035 m -3.752692,3.75269 0.672241,-0.67224 m 35.243258,-34.84414 -0.361134,0.36114 m -14.670124,14.67012 1.79112,-1.79112 m -18.57485,18.57485 -0.52598,0.52598 m -3.227141,3.22714 0.977424,-0.97742 m 34.745862,-34.34674 -0.368952,0.36895 m -14.394641,14.39464 1.340519,-1.34052 m -18.660552,18.66055 -3.313976,3.31398 m 35.176008,-34.77689 0.365686,-0.36568 m -14.04822,14.04822 -0.435698,0.4357 m -20.713027,20.71302 2.944646,-2.94464 m 32.396885,-31.99776 -0.362932,0.36293 m -34.730813,34.73081 2.499425,-2.49942 m 32.738907,-32.33979 -0.372697,0.3727 m -34.635184,34.63518 2.158543,-2.15854 m 32.993924,-32.5948 -0.382463,0.38246 M 20.21872,283.9591 22.050996,282.12682 M 55.299938,249.277 54.90771,249.66923 m -34.51615,34.51615 1.549005,-1.549 m 33.503959,-33.10484 -0.401994,0.40199 m -34.47456,34.47456 1.262164,-1.26216 m 33.758976,-33.35985 -0.411759,0.41175 m -34.423756,34.42376 0.966108,-0.96611 m 34.002767,-33.60364 -0.410298,0.4103 m -34.298853,34.29885 0.768281,-0.76828 m 34.074549,-33.67543 -0.409156,0.40916 m -34.146317,34.14632 0.655967,-0.65597 m 34.033185,-33.63406 -0.408014,0.40801 m -33.898919,33.89892 0.52495,-0.52495 m 33.915662,-33.51654 -0.406872,0.40687 m -33.658215,33.65822 0.525066,-0.52507 m 33.6737,-33.27458 -0.412735,0.41274 m -33.368704,33.3687 0.48338,-0.48338 m 33.431738,-33.03261 -0.42253,0.42253 m -33.065348,33.06534 0.455623,-0.45562 m 33.165933,-32.76681 -0.432325,0.43233 m -32.76199,32.76199 0.518844,-0.51885 m 32.796264,-32.39714 -0.429234,0.42923 m -32.536345,32.53635 0.8607,-0.8607 m 32.227115,-31.82799 -0.427586,0.42758 m -32.179156,32.17916 1.313168,-1.31317 m 31.415811,-31.01669 -0.425939,0.42594 m -31.890209,31.89021 1.237584,-1.23758 m 31.2008,-30.80168 -0.424291,0.42429 m -31.601262,31.60126 1.096637,-1.09663 m 31.051152,-30.65203 -0.422644,0.42264 m -31.312315,31.31231 0.919127,-0.91912 m 30.938069,-30.53895 -0.420996,0.421 m -31.077838,31.07784 0.796085,-0.79609 m 30.838157,-30.43903 -0.428495,0.42849 m -30.851814,30.85182 0.677471,-0.67748 m 30.695025,-30.2959 -0.410539,0.41054 m -30.722598,30.7226 0.673433,-0.67343 m 30.569707,-30.17059 -0.4104,0.4104 m -36.48964,36.48964 6.565653,-6.56565 m 30.44439,-30.04527 -0.410261,0.41026 m -36.950267,36.95027 7.151458,-7.15146 m 30.319073,-29.91995 -0.410121,0.41012 m -38.306978,38.30698 8.627391,-8.62739 m 30.199711,-29.80059 -0.409982,0.40998 m -38.706497,38.7065 9.142101,-9.1421 m 30.084381,-29.68526 -0.409842,0.40984 m -39.040994,39.04099 9.591789,-9.59178 m 29.957952,-29.55883 -0.398606,0.3986 m -29.726549,29.72655 0.392536,-0.39253 m -7.929594,7.92959 -1.991286,1.99128 m 39.365036,-38.96591 0.385126,-0.38512 m -29.603949,29.60394 -0.425131,0.42514 m -9.654529,9.65453 1.154853,-1.15486 m 38.62542,-38.2263 -0.369703,0.36971 m -29.563303,29.5633 0.457726,-0.45772 m -9.069554,9.06955 -1.180853,1.18085 m 39.447722,-39.0486 0.374628,-0.37463 m -29.34661,29.34661 -0.490321,0.49033 m -9.643868,9.64386 1.184207,-1.1842 m 38.393255,-37.99414 -0.379552,0.37956 m -29.361304,29.3613 0.522916,-0.52292 m -8.752839,8.75284 -1.220945,1.22095 m 38.903911,-38.50479 0.384476,-0.38448 m -29.08927,29.08927 -0.555511,0.55551 m -9.119305,9.11931 1.119121,-1.11912 m 37.733829,-37.33471 -0.381601,0.3816 m -29.159306,29.15931 0.588106,-0.58811 m -8.358552,8.35855 -1.059299,1.0593 m 38.08079,-37.68166 0.371672,-0.37168 m -28.809277,28.80928 -0.603363,0.60336 m -8.578183,8.57819 1.020136,-1.02014 m 37.052497,-36.65337 -0.361744,0.36174 m -28.920817,28.92082 0.616807,-0.61681 m -7.964267,7.96427 -0.976332,0.97633 m 37.336349,-36.93723 0.351815,-0.35181 m -28.522232,28.52223 -0.630251,0.63025 m -8.0694,8.0694 0.932528,-0.93253 m 36.371165,-35.97204 -0.344008,0.34401 m -28.678395,28.67839 0.64713,-0.64713 m -7.573416,7.57342 -0.888724,0.88872 m 36.560918,-36.16179 0.358305,-0.35831 m -28.225898,28.2259 -0.666425,0.66643 m -7.560619,7.56062 0.912524,-0.91253 m 35.646795,-35.24767 -0.397168,0.39717 m -28.389643,28.38964 0.685721,-0.68572 m -7.184582,7.18458 -0.849861,0.84986 m 35.805878,-35.40675 0.361504,-0.36151 m -27.901754,27.90176 -0.680068,0.68006 m -7.15065,7.15065 0.855245,-0.85524 m 34.942124,-34.543 -0.358888,0.35888 m -28.047198,28.0472 0.670621,-0.67062 m -6.766365,6.76637 -0.860629,0.86063 m 35.071085,-34.67197 0.356272,-0.35627 m -27.569179,27.56918 -0.661173,0.66117 m -6.762095,6.7621 0.871159,-0.87116 m 34.186185,-33.78706 -0.353656,0.35365 m -27.70096,27.70096 0.651726,-0.65172 m -6.326727,6.32673 -0.892817,0.89281 m 34.330783,-33.93166 0.356549,-0.35655 m -27.222143,27.22215 -0.656739,0.65673 m -6.37354,6.37354 0.936331,-0.93633 m 33.365137,-32.96601 -0.369366,0.36936 m -27.317929,27.31793 0.671153,-0.67115 m -5.739185,5.73918 -1.105553,1.10556 m 33.527743,-33.12862 0.378296,-0.3783 m -26.806254,26.80626 -0.668664,0.66866 m -5.991145,5.99115 1.023105,-1.02311 m 32.488118,-32.089 -0.387226,0.38723 m -26.876215,26.87622 0.667075,-0.66708 m -5.360753,5.36075 -1.114129,1.11413 m 32.72025,-32.32112 0.396157,-0.39616 m -26.386478,26.38648 -0.665486,0.66548 m -5.624467,5.62447 1.228552,-1.22855 m 31.493038,-31.09392 -0.405087,0.40509 m -26.460654,26.46065 0.697779,-0.69778 m -4.754247,4.75425 -1.359405,1.3594 m 31.910705,-31.51158 0.426416,-0.42641 m -25.927247,25.92724 -0.802965,0.80297 m -5.069153,5.06915 1.426995,-1.42699 m 30.366338,-29.96722 -0.423614,0.42362 m -26.380516,26.38051 1.179138,-1.17914 m -3.299867,3.29987 -2.477609,2.47761 m 30.975623,-30.5765 0.444331,-0.44433 m -25.346256,25.34625 -5.309027,5.30903 m 30.207722,-29.8086 0.465048,-0.46505 m -25.081467,25.08147 -4.780606,4.78061 m 29.393794,-28.99468 0.485765,-0.48576 m -24.754822,24.75482 -4.214377,4.21438 m 28.492904,-28.09378 0.461085,-0.46109 m -24.39548,24.39548 -2.589117,2.58912 m 26.478208,-26.07909 0.489232,-0.48923 m -24.034192,24.03419 -1.607481,1.60748 m 25.100944,-24.70182 0.523572,-0.52357 m -9.712344,9.71235 -0.200629,0.20062 m -7.72028,7.72028 0.214512,-0.21451 m -6.220464,6.22047 -1.214051,1.21405 m 24.278188,-23.87907 0.557911,-0.55791 m -9.475327,9.47533 -0.307795,0.30779 m -7.717838,7.71784 0.363089,-0.36309 m -6.155302,6.1553 -0.978017,0.97802 m 23.661782,-23.26266 0.656918,-0.65692 m -9.305278,9.30528 -0.3984,0.3984 m -7.69391,7.69391 0.452145,-0.45214 m -6.006931,6.00693 -0.758344,0.75834 m 23.017175,-22.61805 0.548413,-0.54841 m -8.968811,8.96881 -0.432392,0.43239 m -7.700373,7.70037 0.519518,-0.51952 m -5.85119,5.85119 -0.621582,0.62159 m 22.398241,-21.99912 0.601285,-0.60129 m -8.722169,8.72217 -0.466383,0.46638 m -7.690501,7.6905 0.548472,-0.54847 m -5.615932,5.61593 -0.645478,0.64548 m 21.882531,-21.48341 0.654158,-0.65415 m -8.475529,8.47553 -0.500375,0.50037 m -7.674945,7.67495 0.556767,-0.55677 m -5.365697,5.3657 -0.65101,0.65101 m 21.348455,-20.94934 0.784756,-0.78475 m -8.306614,8.30661 -0.522224,0.52222 m -7.671531,7.67154 0.565063,-0.56507 m -5.119021,5.11902 -0.652984,0.65299 m 20.71454,-20.31542 0.786454,-0.78645 m -7.908959,7.90896 -0.540155,0.54015 m -7.679361,7.67936 0.580684,-0.58068 m -4.808113,4.80811 -0.713388,0.71339 m 20.2508,-19.85168 0.71923,-0.71923 m -7.616843,7.61684 -0.559602,0.55961 m -7.68908,7.68908 0.598192,-0.5982 m -4.497203,4.49721 -0.774747,0.77474 m 19.432608,-19.03348 1.007414,-1.00742 m -7.322157,7.32216 -0.58162,0.58162 m -7.698798,7.6988 0.615701,-0.6157 m -4.186294,4.18629 -0.880835,0.88084 m 19.060379,-18.66126 0.840031,-0.84003 m -6.973139,6.97314 -0.603638,0.60364 m -7.708516,7.70851 0.602926,-0.60292 m -3.845102,3.8451 -0.814799,0.8148 m 18.248612,-17.84949 0.940907,-0.94091 m -6.624965,6.62497 -0.61623,0.61623 m -7.72766,7.72766 0.591054,-0.59106 m -3.498283,3.49829 -0.830665,0.83066 m 17.513166,-17.11404 1.040834,-1.04084 m -6.276792,6.27679 -0.627187,0.62719 m -7.754257,7.75426 0.584999,-0.585 m -2.875462,2.87546 -1.064671,1.06467 m 16.619976,-16.22085 1.39151,-1.39151 m -6.079483,6.07948 -0.638144,0.63815 m -7.819208,7.8192 0.617299,-0.61729 m -2.646642,2.64664 -0.905987,0.90598 m 15.728095,-15.32897 1.3184,-1.3184 m -5.458388,5.45839 -0.649101,0.6491 m -7.892182,7.89218 0.657621,-0.65762 m -2.147179,2.14718 -1.169589,1.16959 m 14.661213,-14.26209 1.775256,-1.77526 m -5.023747,5.02375 -0.676926,0.67693 m -9.876464,9.87646 2.609252,-2.60925 m 12.653717,-12.2546 -1.518137,1.51814 m -3.684721,3.68472 0.708275,-0.70827 m -8.007318,8.00731 -2.014982,2.01499 m 12.43801,-12.03889 1.757659,-1.75766 m -3.934941,3.93494 -0.767298,0.7673 m -8.762325,8.76233 1.434181,-1.43419 m 11.866538,-11.46741 -4.358989,4.35899 m -8.210625,8.21062 0.852783,-0.85278 m 10.985529,-10.58641 -3.448282,3.44828 m -8.140811,8.14082 0.753272,-0.75328 m 10.727657,-10.32853 -3.160713,3.16071 m -8.124934,8.12494 0.707698,-0.7077 m 9.657112,-9.25799 -2.060471,2.06047 m -8.109057,8.10906 0.662124,-0.66213 m 9.222362,-8.82324 -1.596024,1.59603 m -8.093181,8.09318 0.61655,-0.61655 m 8.948599,-8.54948 -1.292563,1.29256 m -8.077304,8.07731 0.592088,-0.59209 m 8.596842,-8.19772 -0.932222,0.93222 m -8.061427,8.06143 0.58267,-0.58267 m 8.465262,-8.06614 -0.812622,0.81262 m -8.040028,8.04003 0.573251,-0.57325 m 8.354333,-7.95521 -0.727179,0.72718 m -8.005123,8.00512 0.563833,-0.56383 m 8.30743,-7.90831 -0.705763,0.70576 m -7.958784,7.95879 0.542981,-0.54298 m 8.265911,-7.86679 -0.689731,0.68973 m -7.909102,7.9091 0.53935,-0.53935 m 8.203828,-7.8047 -0.673699,0.6737 m -7.859421,7.85942 0.564016,-0.56402 m 8.113449,-7.71433 -0.657667,0.65767 m -7.794941,7.79494 0.573884,-0.57388 m 8.023069,-7.62395 -0.641634,0.64164 m -7.721055,7.72105 0.574345,-0.57435 m 7.932688,-7.53356 -0.625602,0.6256 m -7.647167,7.64717 0.574806,-0.57481 m 7.842308,-7.44318 -0.60957,0.60957 m -7.564495,7.56449 0.569713,-0.56971 m 7.748697,-7.34957 -0.601887,0.60188 m -7.45807,7.45807 0.57817,-0.57817 m 7.626132,-7.22701 -0.604149,0.60415 m -7.3417,7.3417 0.586626,-0.58663 m 7.503567,-7.10444 -0.606411,0.60641 m -7.210034,7.21004 0.579788,-0.57979 m 7.381002,-6.98188 -0.608672,0.60867 m -7.057431,7.05743 0.55201,-0.55201 m 7.249679,-6.85055 -0.602174,0.60217 m -6.904828,6.90483 0.524233,-0.52424 m 7.108169,-6.70904 -0.585492,0.58549 m -6.762137,6.76214 0.50637,-0.50637 m 6.966659,-6.56754 -0.568809,0.56881 m -6.618609,6.61861 0.486637,-0.48664 m 6.826181,-6.42706 -0.552126,0.55213 m -6.475983,6.47598 0.46661,-0.46661 m 6.6869,-6.28778 -0.535182,0.53519 m -6.37523,6.37523 0.488195,-0.4882 m 6.547617,-6.14849 -0.538029,0.53802 m -6.246997,6.247 0.502092,-0.50209 m 6.408334,-6.00921 -0.540877,0.54088 m -6.118763,6.11876 0.515989,-0.51599 m 6.269051,-5.86993 -0.543724,0.54372 m -5.99053,5.99054 0.525942,-0.52595 m 6.133713,-5.73459 -0.546572,0.54658 m -5.881638,5.88163 0.54352,-0.54352 m 6.01009,-5.61097 -0.54942,0.54942 m -5.771989,5.77199 0.560342,-0.56034 m 5.886792,-5.48767 -0.552592,0.5526 m -5.662341,5.66234 0.577164,-0.57717 m 5.730382,-5.33126 -0.522653,0.52266 m -5.552692,5.55269 0.593986,-0.59399 m 5.58245,-5.18333 -0.505099,0.5051 m -5.439136,5.43914 0.613675,-0.61368 m 5.43165,-5.03252 -0.507281,0.50728 m -5.323128,5.32312 0.632651,-0.63265 m 5.298849,-4.89972 -0.509463,0.50946 m -5.205666,5.20567 0.650171,-0.65017 m 5.166048,-4.76693 -0.511645,0.51164 m -5.088203,5.08821 0.667692,-0.66769 m 5.033247,-4.63413 -0.513828,0.51383 m -4.97074,4.97074 0.685212,-0.68521 m 4.900446,-4.50133 -0.51601,0.51601 m -4.853278,4.85328 0.702733,-0.70273 m 4.767646,-4.36852 -0.518192,0.51819 m -4.732908,4.73291 0.700362,-0.70037 m 4.632143,-4.23302 -0.509925,0.50993 m -4.603173,4.60317 0.693095,-0.69309 m 4.495007,-4.09589 -0.519608,0.51961 m -4.449086,4.44909 0.685827,-0.68583 m 4.357871,-3.95875 -0.52929,0.52929 m -4.295001,4.295 0.67856,-0.67856 m 4.220735,-3.82161 -0.538973,0.53897 m -4.140915,4.14092 0.662246,-0.66225 m 4.062404,-3.66328 -0.518415,0.51841 m -3.986828,3.98683 0.643562,-0.64356 m 3.9115,-3.51238 -0.492826,0.49283 m -3.842828,3.84283 0.624878,-0.62488 m 3.760596,-3.36147 -0.512298,0.51229 m -3.623846,3.62385 0.576271,-0.57627 m 3.565162,-3.16604 -0.557053,0.55705 m -3.33193,3.33193 0.524544,-0.52454 m 3.376582,-2.97746 -0.493176,0.49317 m -3.1555,3.1555 0.475766,-0.47576 m 3.185053,-2.78593 -0.564194,0.56419 m -2.844175,2.84418 0.453462,-0.45346 m 2.967049,-2.56793 -0.586515,0.58651 m -2.581546,2.58155 0.437036,-0.43704 m 2.743168,-2.34404 -0.688497,0.68849 m -2.212855,2.21286 0.430769,-0.43077 m 2.401322,-2.0022 -2.538112,2.53811 m 0.326715,0.0724 2.149892,-2.14989 m -0.06151,0.46063 -1.749202,1.7492 m 0.435436,-0.0363 1.379037,-1.37904 m -0.203403,0.60252 -0.627715,0.62772"
         inkscape:connector-curvature="0" />
    </g>
  </g>
</svg>
