<?xml version="1.0" encoding="UTF-8" standalone="no"?>
<!-- Created with Inkscape (http://www.inkscape.org/) -->

<svg
   xmlns:dc="http://purl.org/dc/elements/1.1/"
   xmlns:cc="http://creativecommons.org/ns#"
   xmlns:rdf="http://www.w3.org/1999/02/22-rdf-syntax-ns#"
   xmlns:svg="http://www.w3.org/2000/svg"
   xmlns="http://www.w3.org/2000/svg"
   xmlns:sodipodi="http://sodipodi.sourceforge.net/DTD/sodipodi-0.dtd"
   xmlns:inkscape="http://www.inkscape.org/namespaces/inkscape"
   width="50mm"
   height="50mm"
   viewBox="0 0 50 50"
   version="1.1"
   id="svg1586"
   inkscape:version="0.92.2 2405546, 2018-03-11"
   sodipodi:docname="50.svg">
  <sodipodi:namedview
     id="base"
     pagecolor="#ffffff"
     bordercolor="#666666"
     borderopacity="1.0"
     inkscape:pageopacity="0.0"
     inkscape:pageshadow="2"
     inkscape:zoom="1.7850556"
     inkscape:cx="94.488189"
     inkscape:cy="141.73228"
     inkscape:document-units="mm"
     inkscape:current-layer="layer1"
     showgrid="false"
     inkscape:window-width="1366"
     inkscape:window-height="703"
     inkscape:window-x="0"
     inkscape:window-y="0"
     inkscape:window-maximized="1" />
  <defs
     id="defs1580" />
  <metadata
     id="metadata1583">
    <rdf:RDF>
      <cc:Work
         rdf:about="">
        <dc:format>image/svg+xml</dc:format>
        <dc:type
           rdf:resource="http://purl.org/dc/dcmitype/StillImage" />
        <dc:title></dc:title>
      </cc:Work>
    </rdf:RDF>
  </metadata>
  <g
     transform="translate(0,-247)"
     id="layer1"
     inkscape:groupmode="layer"
     inkscape:label="Layer 1">
    <g
       id="g1878"
       transform="translate(-5.0715409,-2.9645275e-5)">
      <path
         id="path1860"
         d="m 23.394111,296.70884 c -2.40513,-0.28159 -5.334248,-1.61646 -6.654252,-3.03249 -0.760288,-0.8156 -0.840517,-1.18263 -0.700968,-3.20696 0.0868,-1.25922 0.485984,-2.95219 0.888763,-3.76929 l 0.731175,-1.48335 -0.845233,-0.98312 c -0.926581,-1.07775 -1.060216,-2.03809 -0.443939,-3.19019 0.322543,-0.60296 0.242593,-1.03271 -0.407359,-2.18971 -0.690821,-1.22976 -0.783975,-1.8243 -0.639272,-4.08019 0.201572,-3.14245 1.216712,-5.14455 3.731286,-7.35906 l 1.648465,-1.45175 -1.104858,-0.78712 c -1.699867,-1.211 -2.301229,-2.684 -2.082228,-5.1003 0.102729,-1.13349 0.470701,-2.49442 0.817723,-3.02429 0.726339,-1.10908 0.786258,-1.0152 -1.086866,-1.70313 -1.962718,-0.72083 -2.465223,-2.28112 -1.273789,-3.95515 0.737294,-1.03595 0.946524,-1.12547 2.127265,-0.91027 3.280096,0.59786 5.400873,0.61109 6.503615,0.0406 1.981023,-1.02494 3.495059,-0.76171 5.034574,0.87528 0.749513,0.79697 1.642285,1.4493 1.983919,1.44963 0.774425,6.5e-4 1.481248,-1.25575 1.20185,-2.1365 -0.527212,-1.6619 0.75745,-2.52725 2.138418,-1.44044 l 0.928698,0.73087 v -0.90269 c 0,-1.42838 0.376694,-2.04919 1.243422,-2.04919 0.831288,0 2.378886,1.36177 2.378886,2.09324 0,0.22862 0.640124,0.58813 1.422487,0.7989 1.623673,0.43743 3.020395,1.90755 3.66293,3.85538 0.572748,1.73628 0.221644,5.07588 -0.659668,6.27458 -0.376329,0.51186 -0.788723,1.35148 -0.916425,1.86582 -0.127716,0.51435 -0.779499,1.49285 -1.448424,2.17446 l -1.216219,1.23929 0.987058,1.26843 c 1.08018,1.3881 1.623527,2.89253 1.991418,5.51384 0.287995,2.05205 -0.848775,6.26512 -2.241456,8.30721 l -0.898819,1.31793 0.623469,1.94375 c 0.342906,1.06907 1.16729,2.55579 1.831953,3.30383 0.664654,0.74804 1.208481,1.53079 1.208481,1.73944 0,0.73276 -1.081599,2.4612 -1.985039,3.1722 -0.502045,0.39511 -0.912815,0.96033 -0.912815,1.25605 0,1.51253 -3.914406,2.33787 -7.122669,1.50181 -1.411766,-0.36788 -2.172347,-0.41859 -2.428917,-0.16188 -0.205454,0.20556 -0.647955,0.37374 -0.983329,0.37374 -0.335368,0 -0.69451,0.3242 -0.798073,0.72045 -0.350464,1.34084 -1.878351,1.61048 -6.235238,1.10037 z"
         style="fill:none;stroke:#ff0000;stroke-width:0.10000001;stroke-miterlimit:4;stroke-dasharray:none"
         inkscape:connector-curvature="0" />
      <path
         id="path1858"
         d="m 28.31789,295.95722 c 0.682983,-0.3657 0.686306,-0.42138 0.08578,-1.43848 -0.343586,-0.58194 -0.49879,-1.18403 -0.344898,-1.33799 0.153887,-0.15398 0.438672,0.004 0.632859,0.35125 0.420206,0.75123 1.872086,0.83304 2.448661,0.13797 0.307473,-0.37068 0.273498,-0.81803 -0.136772,-1.80041 -0.564655,-1.3521 -0.668411,-4.99803 -0.19771,-6.9478 0.218327,-0.90438 0.309704,-0.97875 0.54338,-0.44221 0.185917,0.42688 0.511416,0.57183 0.96248,0.42859 0.374863,-0.11903 0.681569,-0.0537 0.681569,0.1452 0,0.19889 -0.366758,0.41374 -0.815019,0.47744 -0.735576,0.10451 -0.825727,0.34423 -0.924895,2.45918 -0.220232,4.697 1.239919,6.38218 5.429233,6.26602 3.173731,-0.088 3.545552,-0.40483 3.29747,-2.80966 -0.141493,-1.3716 -0.0768,-1.99444 0.207167,-1.99444 0.227098,0 0.412908,0.48925 0.412908,1.08722 0,1.2986 0.341619,1.36768 1.344147,0.27181 1.291503,-1.41173 1.313303,-2.19388 0.09372,-3.36288 -0.653202,-0.62612 -1.324749,-1.82242 -1.648517,-2.93668 -0.300474,-1.0341 -0.785693,-1.97208 -1.078275,-2.08441 -0.416744,-0.16 -0.257052,-0.56455 0.737393,-1.86799 1.738356,-2.27848 2.889703,-6.15027 2.563152,-8.61942 -0.285744,-2.16066 -1.255083,-4.54737 -2.145617,-5.28296 -0.520213,-0.4297 -0.847244,-0.43265 -2.141701,-0.0194 -0.840252,0.26827 -1.916723,0.86343 -2.392152,1.32256 -0.475424,0.45912 -0.991861,0.83477 -1.147623,0.83477 -0.155764,0 -0.54105,0.099 -0.856182,0.21999 -0.315136,0.12097 -0.572979,0.0504 -0.572979,-0.15679 0,-0.20722 0.326013,-0.48029 0.72447,-0.60682 1.287585,-0.40886 0.768723,-0.72251 -1.36083,-0.8226 -1.144201,-0.0538 -2.862235,-0.35481 -3.817856,-0.66895 -2.641496,-0.86835 -6.415948,-0.78281 -7.974221,0.18073 -1.650815,1.02076 -3.809345,3.428 -4.450521,4.9633 -0.662411,1.58616 -0.652163,5.34633 0.01812,6.64314 0.736662,1.42525 2.400748,2.07106 3.820512,1.48268 0.597679,-0.24768 1.086693,-0.59364 1.086693,-0.76878 0,-0.17514 0.557183,-0.31845 1.238182,-0.31845 1.601917,0 2.381237,-0.31067 2.168789,-0.86457 -0.119251,-0.31091 0.200621,-0.39893 1.07761,-0.29649 0.993345,0.11602 1.332263,-0.0133 1.66508,-0.63552 0.363357,-0.67927 0.249392,-0.96776 -0.87362,-2.21141 -1.082351,-1.19863 -1.291495,-1.69761 -1.291495,-3.08141 0,-1.00851 0.140987,-1.56401 0.362231,-1.42721 0.199229,0.12319 0.362231,0.85126 0.362231,1.61794 0,1.06231 0.30164,1.75518 1.267815,2.91218 0.697292,0.83501 1.267808,1.66586 1.267808,1.84634 0,0.53383 -1.402935,1.77775 -2.005015,1.77775 -0.305848,0 -0.937055,0.24974 -1.402676,0.55497 -0.465622,0.30524 -1.315655,0.61743 -1.888974,0.69376 -1.639574,0.21829 -2.310191,0.58928 -2.310191,1.27803 0,0.35044 -0.328882,1.05548 -0.730841,1.56674 -1.180327,1.50127 -0.139322,1.55867 1.49396,0.0824 1.775261,-1.60464 3.402537,-1.6952 3.402537,-0.18938 0,0.49831 0.09712,1.06911 0.215823,1.26843 0.625947,1.05109 0.568964,1.63699 -0.256097,2.6334 l -0.893685,1.07928 -1.270192,-0.6479 c -0.698604,-0.35633 -1.46649,-0.79446 -1.706406,-0.97361 -0.239922,-0.17915 -1.006736,-0.30565 -1.704029,-0.28112 -1.124057,0.0396 -1.357047,0.22709 -2.054766,1.65414 -1.245447,2.54728 -1.39631,4.34934 -0.463463,5.53584 0.837694,1.06549 4.602675,3.14068 5.698051,3.14068 0.388402,0 0.828551,-0.41442 1.058498,-0.99662 0.354413,-0.89736 0.397458,-0.9172 0.432152,-0.19922 0.06672,1.38059 2.408334,2.06045 4.056738,1.17782 z"
         style="fill:none;stroke:#0000ff;stroke-width:0.10000001;stroke-miterlimit:4;stroke-dasharray:none"
         inkscape:connector-curvature="0" />
      <path
         id="path1856"
         d="m 24.299695,285.65795 c 0,-0.67496 0.143764,-0.83945 0.585478,-0.66986 0.498711,0.19146 0.523662,0.1092 0.168378,-0.55499 -0.229414,-0.42887 -0.681151,-0.77977 -1.00386,-0.77977 -0.517876,0 -0.509791,-0.0851 0.06889,-0.72482 0.634949,-0.70196 0.632672,-0.72482 -0.07209,-0.72482 -0.941017,0 -2.644653,1.5807 -2.644653,2.45381 0,0.40124 0.47888,0.91483 1.177251,1.26256 1.590211,0.79181 1.720603,0.77195 1.720603,-0.26211 z"
         style="fill:none;stroke:#0000ff;stroke-width:0.10000001;stroke-miterlimit:4;stroke-dasharray:none"
         inkscape:connector-curvature="0" />
      <path
         id="path1854"
         d="m 19.952911,284.74055 c 0,-0.19932 -0.232671,-0.3624 -0.517057,-0.3624 -0.870469,0 -2.036612,-1.79511 -1.794119,-2.76178 0.12406,-0.49452 0.05554,-0.86231 -0.160765,-0.86231 -0.534098,0 -0.893519,1.34267 -0.63513,2.37264 0.303417,1.20954 3.107071,2.66578 3.107071,1.61385 z"
         style="fill:none;stroke:#0000ff;stroke-width:0.10000001;stroke-miterlimit:4;stroke-dasharray:none"
         inkscape:connector-curvature="0" />
      <path
         id="path1852"
         d="m 20.313338,281.07612 c 0.0047,-0.5368 -1.807693,0.189 -2.002133,0.80193 -0.415204,1.30885 0.265014,1.58942 1.155129,0.47644 0.464868,-0.58125 0.846025,-1.15652 0.847004,-1.27837 z"
         style="fill:none;stroke:#ff0000;stroke-width:0.10000001;stroke-miterlimit:4;stroke-dasharray:none"
         inkscape:connector-curvature="0" />
      <path
         id="path1850"
         d="m 35.797936,266.60624 c 3.279483,-0.70368 6.975563,-4.09702 6.975563,-6.40423 0,-0.48009 0.145921,-0.78265 0.324273,-0.67236 0.591832,0.36595 0.716631,-0.78668 0.169761,-1.56784 -0.822591,-1.17497 -2.599163,-1.95585 -3.870854,-1.70138 -0.606709,0.12141 -2.546565,0.88598 -4.310813,1.69906 -3.690917,1.70104 -5.94681,1.96228 -7.215443,0.83559 -0.559875,-0.49724 -0.823237,-0.56429 -0.937109,-0.23859 -0.188481,0.53912 -0.822471,0.60896 -0.822471,0.0906 0,-0.66716 1.439741,-1.81218 2.26395,-1.80053 0.773287,0.0109 0.780998,0.0373 0.150623,0.51527 -0.633864,0.4806 -0.623476,0.53057 0.226045,1.08748 1.160762,0.76093 3.124019,0.3391 6.596291,-1.41727 4.14613,-2.09723 5.796966,-2.13323 7.759983,-0.16925 l 1.114686,1.11523 v -1.85436 c 0,-5.72161 -4.540431,-7.43675 -10.254451,-3.87362 -2.764105,1.72363 -4.959273,2.48985 -4.959273,1.73103 0,-0.22425 0.326005,-0.40772 0.724462,-0.40772 0.993791,0 0.914128,-0.31332 -0.433291,-1.70419 -0.924337,-0.95415 -1.445853,-1.19508 -2.586798,-1.19508 -1.198407,0 -1.610788,0.21404 -2.555121,1.32616 -0.619335,0.72938 -2.070822,2.25053 -3.225524,3.3803 -3.767352,3.68605 -3.934643,7.03882 -0.484146,9.70288 0.571288,0.44109 1.199904,0.70231 1.396909,0.58048 0.605522,-0.37441 5.526737,-0.18535 6.648364,0.25542 0.883949,0.34737 3.311467,0.83041 5.115769,1.01796 0.239223,0.0249 1.224104,-0.12412 2.188615,-0.33105 z"
         style="fill:none;stroke:#0000ff;stroke-width:0.10000001;stroke-miterlimit:4;stroke-dasharray:none"
         inkscape:connector-curvature="0" />
      <path
         id="path1848"
         d="m 38.826182,259.4026 c -0.347067,-0.21986 -0.09126,-0.32062 0.814015,-0.32062 0.726066,0 1.229452,0.14678 1.118637,0.32617 -0.255918,0.4143 -1.274521,0.41137 -1.932652,-0.006 z"
         style="fill:none;stroke:#0000ff;stroke-width:0.10000001;stroke-miterlimit:4;stroke-dasharray:none"
         inkscape:connector-curvature="0" />
      <path
         id="path1846"
         d="m 25.068301,253.97074 c -0.642708,-0.40728 -0.144738,-1.23837 0.576168,-0.96159 0.376709,0.14463 0.483009,0.0431 0.341409,-0.32609 -0.113086,-0.29487 -0.03949,-0.63886 0.163615,-0.76444 0.439277,-0.27161 1.772511,0.84983 1.772511,1.49093 0,0.80875 -1.879717,1.1784 -2.853703,0.56119 z"
         style="fill:none;stroke:#0000ff;stroke-width:0.10000001;stroke-miterlimit:4;stroke-dasharray:none"
         inkscape:connector-curvature="0" />
      <path
         id="path1844"
         d="m 27.559773,253.41355 c 0,-0.0879 -0.163002,-0.26061 -0.362231,-0.3838 -0.199227,-0.12319 -0.362237,-0.0513 -0.362237,0.15981 0,0.21109 0.16301,0.3838 0.362237,0.3838 0.199229,0 0.362231,-0.0719 0.362231,-0.15981 z"
         style="fill:none;stroke:#0000ff;stroke-width:0.10000001;stroke-miterlimit:4;stroke-dasharray:none"
         inkscape:connector-curvature="0" />
      <path
         id="path1842"
         d="m 35.979844,252.75794 c 0.08201,-0.24916 0.543858,-0.49857 1.026322,-0.55426 0.84948,-0.0981 0.85498,-0.0837 0.174063,0.45301 -0.851426,0.67116 -1.403309,0.71771 -1.200385,0.10125 z"
         style="fill:none;stroke:#0000ff;stroke-width:0.10000001;stroke-miterlimit:4;stroke-dasharray:none"
         inkscape:connector-curvature="0" />
      <path
         id="path1840"
         d="m 41.490787,252.82444 c -0.131318,-0.21259 -0.151782,-0.47354 -0.04548,-0.5799 0.259472,-0.2596 0.965948,0.1978 0.965948,0.6254 0,0.46315 -0.625361,0.43223 -0.920474,-0.0455 z"
         style="fill:none;stroke:#0000ff;stroke-width:0.10000001;stroke-miterlimit:4;stroke-dasharray:none"
         inkscape:connector-curvature="0" />
      <path
         id="path1838"
         d="m 20.858495,254.66059 c 0.125172,-0.20263 -0.154286,-0.36241 -0.633857,-0.36241 -0.471748,0 -1.174135,-0.23466 -1.560864,-0.52146 -0.664364,-0.49271 -0.668892,-0.55623 -0.08212,-1.15199 0.504903,-0.51263 0.843548,-0.56449 1.811161,-0.27736 1.275773,0.37858 2.457951,0.27506 2.457951,-0.21524 0,-0.16547 -0.774272,-0.38256 -1.720603,-0.48242 -0.946325,-0.0999 -2.152902,-0.29465 -2.681286,-0.43285 -0.724381,-0.18949 -1.153078,-0.0588 -1.742872,0.53127 -1.566111,1.56688 -0.225412,3.25827 2.591627,3.26953 0.735343,0.003 1.43773,-0.15774 1.560864,-0.35707 z"
         style="fill:none;stroke:#0000ff;stroke-width:0.10000001;stroke-miterlimit:4;stroke-dasharray:none"
         inkscape:connector-curvature="0" />
      <path
         id="path1836"
         d="m 21.346191,253.61544 c 0.357536,-0.22669 0.18563,-0.41458 -0.644113,-0.70397 -1.415374,-0.49365 -2.40553,-0.20606 -1.800753,0.52301 0.464888,0.56043 1.701985,0.652 2.444866,0.18096 z"
         style="fill:none;stroke:#0000ff;stroke-width:0.10000001;stroke-miterlimit:4;stroke-dasharray:none"
         inkscape:connector-curvature="0" />
      <path
         id="path1834"
         d="m 34.644612,250.8553 c 0.689634,-0.53318 0.689941,-0.55383 0.01591,-1.07562 -0.857591,-0.66386 -1.304999,-0.41201 -1.304999,0.7346 0,1.02167 0.304543,1.10223 1.28913,0.34102 z"
         style="fill:none;stroke:#0000ff;stroke-width:0.10000001;stroke-miterlimit:4;stroke-dasharray:none"
         inkscape:connector-curvature="0" />
      <path
         id="path1188"
         d="m 38.426714,249.59163 c 0.721191,-0.45996 0.05494,-1.58946 -1.033126,-1.75141 -0.652044,-0.0971 -0.778028,0.0643 -0.778028,0.99662 0,1.1733 0.698538,1.46441 1.811154,0.75479 z"
         style="fill:none;stroke:#0000ff;stroke-width:0.10000001;stroke-miterlimit:4;stroke-dasharray:none"
         inkscape:connector-curvature="0" />
      <path
         id="path850"
         style="fill:none;stroke:#0000ff;stroke-width:0.10000001"
         d="m 16.70003,250.7258 -0.493746,0.49374 m -0.27522,0.67434 1.258707,-1.2587 m 0.341046,0.0581 -1.846246,1.84625 m 2.002685,-1.60356 0.223281,-0.22328 m -2.12815,2.12815 -0.188788,0.18878 m 2.537355,-2.13823 0.103227,-0.10323 m -2.44004,2.44004 -0.142179,0.14218 m 2.832713,-2.43359 0.09629,-0.0963 m -2.759186,2.75919 -0.09648,0.0965 m 3.103015,-2.70389 0.09943,-0.0994 m -2.95264,2.95264 -0.119186,0.11919 m 3.316039,-2.91692 0.102574,-0.10257 m -3.16145,3.16145 -0.09142,0.0914 m 3.493946,-3.09482 0.105715,-0.10571 m -3.308618,3.30861 -0.104787,0.10479 m 3.651336,-3.25221 0.108856,-0.10886 m -3.446132,3.44613 -0.09033,0.0903 m 3.771257,-3.37214 0.112022,-0.11202 m -1.513959,1.51396 -0.431985,0.43198 m -1.704942,1.70495 0.08486,-0.0849 m 3.940577,-3.54145 -0.142923,0.14292 m -3.619674,3.61967 0.08746,-0.0875 m 4.049686,-3.65056 -0.173823,0.17382 m -3.690333,3.69034 0.08649,-0.0865 m 4.152214,-3.75309 -0.204724,0.20472 m -3.753746,3.75375 0.09627,-0.0963 m 4.236748,-3.83763 -0.241335,0.24134 m -3.801818,3.80182 0.123102,-0.12311 m 4.297327,-3.8982 -0.27987,0.27987 m -3.850694,3.85069 0.140594,-0.14059 m 4.419253,-4.02013 -0.370411,0.37041 m -3.899572,3.89957 0.220044,-0.22004 m 4.479222,-4.0801 -0.504238,0.50424 m -1.230601,1.2306 0.07,-0.07 m -2.445074,2.44508 -0.332424,0.33242 m 4.250871,-3.85175 0.596181,-0.59618 m -1.681877,1.68188 -0.189703,0.1897 m -2.732558,2.73256 0.460406,-0.46041 m 4.693,-4.29387 -0.93632,0.93632 m -2.19366,2.19366 1.297191,-1.29719 m -2.41593,2.41593 -0.751807,0.7518 m 2.083555,-1.68443 3.467361,-3.46736 m -4.375014,4.37501 -1.631412,1.63141 m -0.183008,0.58214 6.945028,-6.94503 m 0.604347,-0.20523 -0.398308,0.39831 m -7.458343,7.45835 2.622392,-2.6224 m 5.78985,-5.39073 -0.351171,0.35118 m -8.031133,8.03113 0.35736,-0.35736 m 8.350454,-7.95133 -0.187875,0.18787 m -8.609032,8.60903 0.11939,-0.11939 m 9.061689,-8.66256 -0.185325,0.18532 m 0.373166,0.026 0.123966,-0.12397 m 0.309859,0.0893 -0.09993,0.0999 m 0.306464,0.0927 0.05946,-0.0595 m -1.632807,1.6328 -0.191089,0.19109 m -1.178054,1.17806 0.29906,-0.29906 m 1.313903,-0.91478 -0.403984,0.40398 m -1.025479,1.02548 0.448246,-0.44825 m 1.225037,-0.82591 -1.393798,1.3938 m 0.320284,0.0788 1.286179,-1.28617 m -0.467397,0.86652 -0.432703,0.4327 m -8.346097,8.3461 0.06795,-0.0679 m 8.907205,-8.50808 -0.215659,0.21566 m -8.662561,8.66256 0.08286,-0.0829 m 9.582539,-9.18341 -0.616943,0.61694 m -8.958302,8.9583 0.104554,-0.10455 m 0.111849,0.28727 -0.08263,0.0826 m 0.133773,0.26535 0.11717,-0.11717 m 11.589782,-11.19066 -0.06155,0.0616 m -11.486651,11.48665 0.125479,-0.12548 m 14.872147,-14.47302 -0.469481,0.46948 m -2.851385,2.85138 0.08217,-0.0822 m -11.466389,11.46639 -0.125236,0.12524 m 14.305516,-13.9064 0.937274,-0.93727 m -3.440435,3.44044 -0.116025,0.11602 m -11.502409,11.50241 0.108377,-0.10838 m 14.137421,-13.7383 -0.05797,0.058 m -2.533869,2.53387 0.18612,-0.18612 m -1.130825,1.13083 -0.15456,0.15456 m -10.357866,10.35786 0.0825,-0.0825 m 11.804815,-11.4057 -1.083213,1.08322 m -10.601567,10.60156 0.08821,-0.0882 m 17.596315,-17.19719 -0.739393,0.73939 m -5.766585,5.76659 0.756876,-0.75688 m -11.638967,11.63897 -0.07441,0.0744 m 16.758998,-16.35987 1.043749,-1.04375 m -4.04573,4.04573 -0.07314,0.0731 m -1.995546,1.99554 0.301655,-0.30165 m -4.657502,4.6575 -0.408978,0.40898 m -6.701466,6.70146 0.06062,-0.0606 m 17.785316,-17.3862 -0.113474,0.11348 m -1.229484,1.22948 0.144622,-0.14462 m -2.910817,2.91082 -1.558564,1.55856 m -5.481581,5.48158 1.271784,-1.27178 m 10.140139,-9.74102 -0.05946,0.0595 m -1.571361,1.57136 0.196981,-0.19698 m -0.963711,0.96371 -0.06834,0.0683 m -2.546415,2.54642 1.077762,-1.07777 m -5.607666,5.60767 -1.632446,1.63245 m 9.543838,-9.14472 0.249035,-0.24903 m -0.792415,0.79241 -1.912166,1.91217 m -6.17004,6.17004 1.125242,-1.12525 m 7.809554,-7.41043 -2.329458,2.32946 m -6.366771,6.36677 0.194707,-0.19471 m 8.674751,-8.27562 -1.468085,1.46808 m -7.162806,7.16281 0.160618,-0.16062 m -9.2751,9.2751 -1.224664,1.22466 m 18.469943,-18.07082 0.720458,-0.72046 m -8.455656,8.45566 -0.158483,0.15848 m -11.086156,11.08616 3.970084,-3.97008 m 16.033327,-15.63421 -0.376893,0.37689 m -8.30327,8.30328 0.163191,-0.1632 m -7.21474,7.21474 -4.823797,4.8238 M 38.981077,248.8 l 0.07531,-0.0753 m -1.512359,1.51236 -0.327526,0.32753 m -8.430715,8.43071 0.145403,-0.1454 m -7.114883,7.11488 -0.729818,0.72982 m -4.830291,4.83029 0.726578,-0.72658 m 22.216242,-21.81712 -1.294585,1.29459 m -8.826272,8.82627 0.136975,-0.13697 m -6.858783,6.85878 -0.568103,0.5681 m -5.698336,5.69834 0.0739,-0.0739 m 23.099425,-22.7003 -0.889122,0.88912 m -8.943982,8.94398 0.114948,-0.11495 m -6.729651,6.72965 -0.314734,0.31474 m 16.340353,-15.94123 0.592504,-0.59251 m -9.533659,9.53366 -0.117073,0.11708 m -6.824026,6.82402 0.25331,-0.25331 m -7.332944,7.33294 -0.06009,0.0601 m 23.430602,-23.03147 0.418398,-0.4184 m -2.789963,2.78996 -0.227744,0.22774 m -6.444003,6.44401 0.07624,-0.0762 m -6.671781,6.67178 -0.179169,0.17917 m -7.710995,7.71099 0.08299,-0.083 m 24.12257,-23.72344 -0.269749,0.26974 m -9.03259,9.03259 0.115421,-0.11542 m -6.729765,6.72977 -0.154135,0.15413 m -8.180099,8.1801 0.112269,-0.11227 m 24.425592,-24.02647 -0.190851,0.19086 m -8.898312,8.89831 0.07667,-0.0767 m -6.792417,6.79242 -0.126733,0.12673 m -8.703844,8.70385 0.183115,-0.18312 m 24.739319,-24.3402 -0.122244,0.12225 m -8.767755,8.76775 0.175976,-0.17597 m -6.968354,6.96835 -0.140028,0.14003 m -9.080626,9.08062 0.136928,-0.13692 m 25.051668,-24.65255 -0.08343,0.0834 m -8.511392,8.5114 0.180655,-0.18066 m -7.182178,7.18218 -0.10507,0.10507 m -9.504315,9.50431 0.12728,-0.12728 m 25.373245,-24.97412 -0.05751,0.0575 m -8.307549,8.30755 0.205594,-0.2056 m -7.360084,7.36009 -0.0839,0.0839 m -9.914221,9.91422 0.162205,-0.1622 m 17.927426,-17.52831 -0.185937,0.18594 m -7.649313,7.64931 0.115331,-0.11533 m -10.181304,10.18131 -0.201586,0.20158 m 18.583931,-18.18481 0.255983,-0.25598 m -8.085429,8.08543 -0.08488,0.0849 m -10.645573,10.64557 0.203757,-0.20375 m 19.449807,-19.05069 -0.426606,0.42661 m -8.21611,8.21611 0.0912,-0.0912 m -10.872088,10.87209 -0.240941,0.24094 m 19.692647,-19.29353 0.62324,-0.62324 m -8.833106,8.83311 -0.106052,0.10605 m -11.285771,11.28577 0.176186,-0.17618 m 20.855347,-20.45623 -0.496674,0.49668 m -8.90946,8.90946 0.100364,-0.10037 m -11.49079,11.49079 -0.149844,0.14985 m 21.147782,-20.74866 0.456174,-0.45618 m -9.629382,9.62938 -0.09445,0.0944 m -11.790674,11.79067 0.128524,-0.12852 m 22.070484,-21.67136 -0.442628,0.44263 m -9.625847,9.62584 0.08853,-0.0885 m -12.019523,12.01952 -0.06817,0.0682 m 25.854975,-25.45585 0.135429,-0.13543 m -3.36491,3.36491 -0.394518,0.39452 m -9.920322,9.92032 0.114657,-0.11466 m -12.238491,12.23849 -0.05545,0.0555 m 22.706962,-22.30784 0.348834,-0.34884 m -10.455775,10.45578 -0.106712,0.10671 m 10.821004,-10.42188 0.196063,-0.19606 m -10.604279,10.60427 -0.09877,0.0988 m -12.540209,12.54021 0.05819,-0.0582 m 23.638647,-23.23952 -0.226516,0.22652 m -10.609059,10.60906 0.08136,-0.0814 m -12.72888,12.72888 -0.07824,0.0782 m 23.715213,-23.31609 0.212073,-0.21207 m -10.794042,10.79404 -0.08433,0.0843 m -12.919409,12.91941 0.137505,-0.1375 m 24.033139,-23.63402 -0.214838,0.21484 m -10.713238,10.71323 0.0873,-0.0873 m -12.999702,12.9997 -0.230609,0.23061 m 24.146013,-23.74689 0.22159,-0.22159 m -10.811165,10.81116 -0.09026,0.0903 m -4.466449,4.46645 0.0532,-0.0532 m -8.604837,8.60484 -0.35789,0.35789 m 24.363285,-23.96416 0.210633,-0.21063 m -10.784466,10.78446 -0.09032,0.0903 m -4.851403,4.85141 0.119653,-0.11966 m -8.380642,8.38064 -0.534724,0.53473 m 24.618739,-24.21962 0.173255,-0.17325 m -10.708902,10.7089 -0.112817,0.11282 m -5.153646,5.15364 0.135452,-0.13545 m -8.167978,8.16798 -1.004179,1.00418 m 27.591861,-27.19274 0.07479,-0.0748 m -2.408502,2.4085 -0.144543,0.14455 m -10.561988,10.56198 0.09721,-0.0972 m -5.443699,5.44369 -0.147503,0.14751 m -8.050804,8.0508 0.264193,-0.26419 m -1.39496,1.39496 -0.187254,0.18725 m 27.980977,-27.58185 0.08127,-0.0813 m -2.246823,2.24682 -0.140067,0.14007 m -10.456067,10.45606 0.08639,-0.0864 m -5.758413,5.75842 -0.135926,0.13592 m -7.877953,7.87796 0.337782,-0.33779 m -1.690464,1.69047 -0.199584,0.19958 m 28.056525,-27.6574 0.101738,-0.10174 m -2.103405,2.10341 -0.110072,0.11007 m -10.350145,10.35014 0.07557,-0.0756 m -6.011648,6.01165 -0.144313,0.14431 m -7.855642,7.85564 0.526374,-0.52637 m -2.022421,2.02242 -0.172195,0.17219 m 28.127701,-27.72857 0.08908,-0.0891 m -1.940443,1.94045 -0.07137,0.0714 m -10.244223,10.24422 0.06475,-0.0648 m -6.289414,6.28941 -0.110561,0.11056 m -8.022343,8.02235 0.952072,-0.95208 m -2.330033,2.33004 -0.126919,0.12691 m 28.059169,-27.66004 0.09865,-0.0987 m -11.884967,11.88496 -0.05394,0.0539 m -6.545284,6.54529 0.0581,-0.0581 m -6.909816,6.90981 -1.349785,1.34979 m -1.387347,1.38734 0.08019,-0.0802 m 28.056918,-27.65779 -0.143329,0.14332 m -18.258524,18.25853 0.06202,-0.062 m -6.641232,6.64123 -0.177246,0.17724 m -1.569355,1.56936 0.194246,-0.19425 m 26.470128,-26.071 -0.05733,0.0573 m -11.152147,11.15215 0.05931,-0.0593 m -13.207293,13.20729 -0.274044,0.27404 m 23.411523,-23.0124 0.05686,-0.0568 m -21.781968,21.78196 -1.320287,1.32029 m 23.222125,-22.823 0.07964,-0.0796 m -9.345291,9.34529 -0.166661,0.16666 m -13.577528,13.57753 1.554933,-1.55494 m 21.734059,-21.33493 -0.153567,0.15356 m -9.247839,9.24784 0.247419,-0.24742 m -12.12474,12.12474 -2.178604,2.17861 m -3.001765,3.00176 0.05997,-0.06 m 26.598634,-26.19951 -0.237928,0.23792 m -9.049245,9.04925 0.423262,-0.42326 m -12.192086,12.19208 -0.511545,0.51155 m -3.796461,3.79646 1.985999,-1.986 m -3.00055,3.00055 -0.09554,0.0955 m 26.325519,-25.92639 0.47232,-0.47232 m -8.668457,8.66845 -0.70562,0.70562 m -1.238752,1.23876 0.261268,-0.26127 m -10.605933,10.60593 -0.434114,0.43412 m -4.10983,4.10982 1.739425,-1.73942 m -2.715137,2.71514 -0.136179,0.13618 m 26.198229,-25.79911 0.322241,-0.32224 m -8.071511,8.07151 -1.829714,1.82971 m -10.907698,10.9077 0.380727,-0.38072 m -3.709934,3.70993 -1.063095,1.06309 m -1.12662,1.12662 0.191623,-0.19162 m 25.923066,-25.52394 -0.973541,0.97354 m -8.177392,8.17739 2.010301,-2.0103 m -11.586317,11.58632 -1.31147,1.31147 m -4.70453,4.70453 0.280502,-0.28051 m -1.21808,1.21809 -0.513364,0.51336 m 25.002389,-24.60327 1.20394,-1.20394 m -6.661638,6.66164 -1.945664,1.94566 m -10.942978,10.94298 1.231257,-1.23125 m -5.976113,5.97611 -0.116857,0.11685 m -2.416887,2.41689 1.415505,-1.4155 m 24.435039,-24.03592 -0.232152,0.23215 m -5.659322,5.65932 1.021401,-1.0214 m -12.108467,12.10847 -0.72691,0.72691 m -5.423937,5.42394 0.210698,-0.2107 m -1.250603,1.2506 -2.013067,2.01307 m 21.262513,-20.86339 4.663139,-4.66314 m -14.674475,14.67447 -0.113486,0.11349 m -1.888654,1.88865 0.3071,-0.3071 m -5.790385,5.79039 -0.529323,0.52932 m -1.038453,1.03846 0.148242,-0.14825 m -2.031364,2.03137 -0.32042,0.32042 m 21.65526,-21.25614 4.296134,-4.29613 m -14.553107,14.5531 -1.59998,1.59998 m -7.077942,7.07795 3.311308,-3.31131 m -5.951293,5.95129 -0.271617,0.27162 m 22.589218,-22.1901 2.974307,-2.97431 m -13.832457,13.83246 -1.10435,1.10435 m -7.339094,7.3391 3.533342,-3.53335 m -6.828125,6.82813 -0.06393,0.0639 m 23.098197,-22.69907 0.473735,-0.47374 m -16.180566,16.18057 -0.20739,0.20739 m -3.449688,3.44969 0.922904,-0.92291 m 19.089407,-18.69028 -0.317489,0.31749 m -15.819646,15.81964 0.189093,-0.18909 m -3.208577,3.20858 -0.48012,0.48012 m 19.608331,-19.20921 0.203074,-0.20308 m -19.202458,19.20246 -0.314487,0.31449 m 19.555536,-19.15642 0.136075,-0.13607 m -19.209752,19.20975 -0.179217,0.17922 m 19.465373,-19.06625 0.09826,-0.0983 m -15.968925,15.96892 -0.964748,0.96475 m -2.35935,2.35935 0.112759,-0.11276 m 19.354931,-18.95581 -0.07727,0.0773 m -16.655,16.65501 0.668077,-0.66808 m -3.078617,3.07861 -0.07075,0.0707 m 19.3087,-18.90957 0.07036,-0.0704 m -16.236944,16.23694 -0.387785,0.38779 m -2.500206,2.5002 0.06198,-0.062 m 19.222084,-18.82296 -0.06602,0.066 m -16.485499,16.4855 0.218354,-0.21835 m -2.644198,2.64419 -0.05257,0.0526 m -6.029245,6.02924 0.08251,-0.0825 m 25.135802,-24.73668 -0.07825,0.0783 m -16.449263,16.44926 0.120514,-0.12052 m -2.457359,2.45736 -0.07058,0.0706 m -6.221769,6.22177 0.128685,-0.12868 m 25.187155,-24.78804 -0.105563,0.10557 m -16.397951,16.39795 0.05089,-0.0509 m -2.298734,2.29873 -0.08859,0.0886 m -6.361123,6.36112 0.160052,-0.16005 m 25.200144,-24.80102 -0.132872,0.13287 m -18.612073,18.61207 0.106593,-0.10659 m -6.40742,6.40742 -0.164156,0.16415 m 25.208878,-24.80975 0.117507,-0.11751 m -17.105414,17.10542 -0.265488,0.26548 m -1.227554,1.22756 0.126283,-0.12628 m -6.505218,6.50521 -0.171277,0.17128 m 25.152612,-24.75349 0.120003,-0.12 m -16.554852,16.55485 -1.060321,1.06032 m -0.842925,0.84293 0.216674,-0.21668 m -6.660453,6.66046 -0.185632,0.18563 m 25.090001,-24.69088 0.121454,-0.12146 m -16.631509,16.63151 -1.686229,1.68623 m -6.686669,6.68667 0.185648,-0.18565 m 24.942705,-24.54358 -0.145426,0.14543 m -18.031953,18.03195 1.224948,-1.22495 m -7.764671,7.76467 -0.204203,0.2042 m 24.875853,-24.47672 0.136442,-0.13645 m -24.582488,24.58249 -0.207548,0.20755 m 24.753569,-24.35445 0.125272,-0.12527 m -24.439467,24.43947 -0.208872,0.20887 m 24.623041,-24.22392 0.114101,-0.1141 m -24.281786,24.28179 -0.224852,0.22485 m 24.481132,-24.08201 0.114311,-0.11431 m -24.124108,24.12411 -0.219796,0.21979 m 24.296767,-23.89764 0.135941,-0.13594 m -23.966429,23.96643 -0.208385,0.20838 m 24.106047,-23.70692 0.117949,-0.11795 m -23.769128,23.76912 -0.196973,0.19698 m 23.915326,-23.51621 0.110923,-0.11092 m -23.582793,23.58279 -0.185562,0.18557 m 23.724606,-23.32549 0.103897,-0.10389 m -23.396458,23.39645 -0.174151,0.17415 m 23.5194,-23.11999 0.111374,-0.11137 m -23.200031,23.20003 -0.172831,0.17283 m 23.282549,-22.88343 0.15046,-0.15046 m -22.991413,22.99142 -0.168834,0.16883 m 23.043699,-22.64458 0.125538,-0.12553 m -22.731637,22.73164 -0.147086,0.14708 m 22.73103,-22.33191 0.166858,-0.16685 m -11.843613,11.84361 -0.181945,0.18194 m -10.581816,10.58182 0.125338,-0.12534 m 22.445821,-22.0467 -0.159595,0.1596 m -11.896794,11.89679 0.453958,-0.45396 m -10.574626,10.57463 -0.103589,0.10359 m 22.091779,-21.69266 0.156361,-0.15636 m -11.306932,11.30693 -0.783996,0.784 m -9.866698,9.8667 0.08184,-0.0818 m 21.78893,-21.38981 -0.149473,0.14947 m -11.952891,11.95289 1.30226,-1.30226 m -10.720473,10.72047 -0.05968,0.0597 m 21.342287,-20.94317 0.137798,-0.1378 m -11.779302,11.7793 -0.227739,0.22774 m -9.18253,9.18253 0.06442,-0.0644 m 21.024976,-20.62585 -0.141096,0.14109 m -11.774489,11.77449 0.202827,-0.20283 m 11.612586,-11.21346 -0.284121,0.28412 m -11.540008,11.54001 0.183473,-0.18347 m 11.540484,-11.14136 -0.237422,0.23742 m -11.49525,11.49525 0.164118,-0.16412 m 11.331898,-10.93278 -0.324699,0.3247 m -11.189585,11.18959 0.179248,-0.17925 m -6.884891,6.88489 -1.107053,1.10706 m 18.877208,-18.47809 0.245014,-0.24502 m -11.130715,11.13072 -0.148812,0.14881 m -7.512995,7.513 0.903106,-0.90311 m 17.684659,-17.28554 -0.305697,0.3057 m -10.739072,10.73907 0.118376,-0.11837 m -6.587599,6.5876 -0.720375,0.72037 m 17.319744,-16.92062 0.809253,-0.80925 m -10.82146,10.82146 -0.08794,0.0879 m -6.85137,6.85137 0.545068,-0.54507 m 16.68693,-16.28781 -1.564745,1.56475 m -8.785882,8.78588 0.09196,-0.092 m -6.19589,6.19589 -0.409217,0.40922 m 15.043457,-14.64433 1.324833,-1.32484 m -9.719126,9.71913 -0.113566,0.11357 m -6.167371,6.16737 0.281749,-0.28175 m 14.812304,-14.41318 -0.366292,0.36629 m -8.497351,8.49735 0.09458,-0.0946 m -5.759151,5.75915 -0.197616,0.19761 m 14.568383,-14.16926 0.305196,-0.30519 m -8.872755,8.87275 -0.09899,0.099 m -2.665042,2.66504 0.064,-0.064 m -2.81906,2.81906 -0.113496,0.1135 m 14.372848,-13.97373 0.229433,-0.22943 m -8.881817,8.88182 -0.08254,0.0825 m -2.648806,2.64881 0.124485,-0.12449 m -2.664498,2.6645 -0.08088,0.0809 m 14.156007,-13.75688 0.174978,-0.17498 m -8.882397,8.8824 -0.0915,0.0915 m -2.615628,2.61563 0.214034,-0.21403 m 11.472424,-11.07331 -0.140621,0.14063 m -8.819356,8.81935 0.077,-0.077 m -2.346889,2.34689 -0.321909,0.32191 m 11.523263,-11.12414 0.125444,-0.12544 m -8.88356,8.88355 -0.06571,0.0657 m -2.55654,2.55654 0.497047,-0.49705 m 11.105687,-10.70656 -0.110266,0.11026 m -8.843411,8.84342 0.128266,-0.12827 m -1.976562,1.97656 -0.669726,0.66973 m -1.640286,1.64028 0.176632,-0.17663 m 13.044604,-12.64548 -0.10741,0.10741 m -8.857613,8.85761 0.185042,-0.18504 m -1.716744,1.71675 -2.183843,2.18384 m 12.685265,-12.28614 0.100999,-0.101 m -8.730996,8.73099 -3.517395,3.5174 m 12.255676,-11.85656 0.104996,-0.10499 m -8.675617,8.67562 -1.523639,1.52364 m -1.782292,1.78229 0.280021,-0.28002 m 11.81875,-11.41963 -0.116674,0.11667 m -9.67032,9.67032 1.210457,-1.21046 m 8.711495,-8.31237 -0.152406,0.15241 m -8.908593,8.90859 0.565807,-0.5658 m 8.628768,-8.22965 -0.154448,0.15445 m -8.677321,8.67732 0.419304,-0.41931 m 8.546041,-8.14692 -0.15649,0.15649 m -8.462751,8.46276 0.316497,-0.3165 m 8.450147,-8.05102 -0.176379,0.17637 m -8.255228,8.25523 0.259298,-0.2593 m 8.32347,-7.92434 -0.171779,0.17178 m -8.075952,8.07595 0.202098,-0.2021 m 8.196793,-7.79767 -0.167178,0.16718 m -7.896676,7.89667 0.127788,-0.12779 m 8.092941,-7.69381 -0.168179,0.16817 m -7.744474,7.74448 0.155578,-0.15558 m 7.929521,-7.5304 -0.155962,0.15596 m -7.568104,7.56811 0.130409,-0.13041 m 7.766102,-7.36698 -0.143746,0.14375 m -7.418372,7.41837 0.13188,-0.13188 m 7.603578,-7.20446 -0.133922,0.13392 m -7.267143,7.26715 0.131778,-0.13178 m 7.446202,-7.04708 -0.129697,0.1297 m -7.081597,7.08159 0.152618,-0.15261 m 7.235591,-6.83647 -0.125472,0.12547 m -6.891534,6.89153 0.168942,-0.16894 m 7.024979,-6.62585 -0.121248,0.12124 m -2.64082,2.64082 0.08578,-0.0858 m -3.961163,3.96117 -0.185266,0.18526 m 6.851343,-6.45222 0.148289,-0.14829 m -2.818926,2.81893 -0.105807,0.10581 m -3.749161,3.74916 0.25334,-0.25334 m 6.57997,-6.18085 -0.177589,0.17759 m -2.892575,2.89257 0.125698,-0.12569 m -3.204938,3.20493 -0.199654,0.19966 m 6.223876,-5.82476 0.263758,-0.26375 m -2.97281,2.97281 -0.208451,0.20845 m -2.893555,2.89355 0.217403,-0.2174 m 5.995989,-5.59687 -0.436461,0.43646 m -2.846338,2.84634 0.37534,-0.37534 m -2.657964,2.65797 -0.191351,0.19135 m 2.458278,-2.05916 3.059379,-3.05938 m -4.927805,4.92781 -0.122251,0.12225 m 1.778416,-1.37929 2.75612,-2.75612 m -3.81025,3.81025 -0.28323,0.28323 m 0.632252,-0.23313 2.913621,-2.91362 m -1.579973,1.97909 -0.975954,0.97595"
         inkscape:connector-curvature="0" />
    </g>
  </g>
</svg>
