<?xml version="1.0" encoding="UTF-8" standalone="no"?>
<!-- Created with Inkscape (http://www.inkscape.org/) -->

<svg
   xmlns:dc="http://purl.org/dc/elements/1.1/"
   xmlns:cc="http://creativecommons.org/ns#"
   xmlns:rdf="http://www.w3.org/1999/02/22-rdf-syntax-ns#"
   xmlns:svg="http://www.w3.org/2000/svg"
   xmlns="http://www.w3.org/2000/svg"
   xmlns:sodipodi="http://sodipodi.sourceforge.net/DTD/sodipodi-0.dtd"
   xmlns:inkscape="http://www.inkscape.org/namespaces/inkscape"
   width="75mm"
   height="75mm"
   viewBox="0 0 75 75"
   version="1.1"
   id="svg1586"
   inkscape:version="0.92.2 2405546, 2018-03-11"
   sodipodi:docname="75.svg">
  <sodipodi:namedview
     id="base"
     pagecolor="#ffffff"
     bordercolor="#666666"
     borderopacity="1.0"
     inkscape:pageopacity="0.0"
     inkscape:pageshadow="2"
     inkscape:zoom="1.1678255"
     inkscape:cx="121.03123"
     inkscape:cy="68.979071"
     inkscape:document-units="mm"
     inkscape:current-layer="layer1"
     showgrid="false"
     inkscape:window-width="1366"
     inkscape:window-height="703"
     inkscape:window-x="0"
     inkscape:window-y="0"
     inkscape:window-maximized="1" />
  <defs
     id="defs1580" />
  <metadata
     id="metadata1583">
    <rdf:RDF>
      <cc:Work
         rdf:about="">
        <dc:format>image/svg+xml</dc:format>
        <dc:type
           rdf:resource="http://purl.org/dc/dcmitype/StillImage" />
        <dc:title></dc:title>
      </cc:Work>
    </rdf:RDF>
  </metadata>
  <g
     inkscape:label="Layer 1"
     inkscape:groupmode="layer"
     id="layer1"
     transform="translate(0,-222)">
    <g
       id="g1511">
      <path
         id="path1474"
         d="m 50.046961,225.86498 c 1.083009,-0.69041 0.0825,-2.38579 -1.55144,-2.62888 -0.97917,-0.14569 -1.16836,0.0965 -1.16836,1.49593 0,1.76113 1.048991,2.1981 2.7198,1.13295 z"
         style="fill:none;stroke:#0000ff;stroke-width:0.10000001;stroke-miterlimit:4;stroke-dasharray:none" />
      <path
         id="path1472"
         d="m 44.3674,227.76175 c 1.035621,-0.8003 1.036081,-0.8313 0.02389,-1.61451 -1.28784,-0.99645 -1.95971,-0.61843 -1.95971,1.10264 0,1.53353 0.45733,1.65445 1.935879,0.51187 z"
         style="fill:none;stroke:#0000ff;stroke-width:0.10000001;stroke-miterlimit:4;stroke-dasharray:none" />
      <path
         id="path1470"
         d="m 24.397241,231.90474 c 0.53691,-0.34027 0.27876,-0.62229 -0.96726,-1.05666 -2.12546,-0.74097 -3.612371,-0.30931 -2.70418,0.78504 0.698119,0.84121 2.55586,0.97864 3.67144,0.27162 z"
         style="fill:none;stroke:#0000ff;stroke-width:0.10000001;stroke-miterlimit:4;stroke-dasharray:none" />
      <path
         id="path1468"
         d="m 23.664871,233.47351 c 0.18797,-0.30415 -0.23169,-0.54397 -0.95186,-0.54397 -0.70842,0 -1.763191,-0.35223 -2.34394,-0.78272 -0.997671,-0.73956 -1.00447,-0.83491 -0.123321,-1.72914 0.758211,-0.76947 1.266751,-0.84731 2.719811,-0.41632 1.91582,0.56825 3.69109,0.41286 3.69109,-0.32308 0,-0.24837 -1.16272,-0.57423 -2.58382,-0.72412 -1.42109,-0.14989 -3.233,-0.44226 -4.026471,-0.64971 -1.087799,-0.28442 -1.731569,-0.0883 -2.61726,0.79745 -2.35182,2.35189 -0.3385,4.89068 3.891831,4.90757 1.10426,0.005 2.15903,-0.23677 2.34394,-0.53596 z"
         style="fill:none;stroke:#0000ff;stroke-width:0.10000001;stroke-miterlimit:4;stroke-dasharray:none" />
      <path
         id="path1466"
         d="m 54.648261,230.71744 c -0.197199,-0.3191 -0.22793,-0.71079 -0.0683,-0.87044 0.389649,-0.38966 1.450559,0.29691 1.450559,0.93874 0,0.69518 -0.939101,0.64877 -1.38227,-0.0683 z"
         style="fill:none;stroke:#0000ff;stroke-width:0.10000001;stroke-miterlimit:4;stroke-dasharray:none" />
      <path
         id="path1464"
         d="m 46.37251,230.61764 c 0.12315,-0.37399 0.81671,-0.74836 1.541222,-0.83196 1.275659,-0.14718 1.283919,-0.12569 0.261389,0.67998 -1.27858,1.00741 -2.10734,1.07729 -1.802611,0.15198 z"
         style="fill:none;stroke:#0000ff;stroke-width:0.10000001;stroke-miterlimit:4;stroke-dasharray:none" />
      <path
         id="path1462"
         d="m 33.72814,231.60171 c 0,-0.13194 -0.244779,-0.39118 -0.543959,-0.57608 -0.29918,-0.18491 -0.54397,-0.077 -0.54397,0.23988 0,0.31684 0.24479,0.57608 0.54397,0.57608 0.29918,0 0.543959,-0.10795 0.543959,-0.23988 z"
         style="fill:none;stroke:#0000ff;stroke-width:0.10000001;stroke-miterlimit:4;stroke-dasharray:none" />
      <path
         id="path1460"
         d="m 29.986711,232.43806 c -0.965151,-0.61133 -0.217351,-1.85879 0.865229,-1.44335 0.565701,0.21709 0.725331,0.0647 0.512691,-0.48947 -0.16982,-0.4426 -0.0593,-0.95893 0.2457,-1.14742 0.659659,-0.40769 2.66177,1.27559 2.66177,2.23789 0,1.21394 -2.82276,1.76879 -4.28539,0.84235 z"
         style="fill:none;stroke:#0000ff;stroke-width:0.10000001;stroke-miterlimit:4;stroke-dasharray:none" />
      <path
         id="path1458"
         d="m 50.64684,240.5913 c -0.521189,-0.33001 -0.137048,-0.48125 1.222402,-0.48125 1.090329,0 1.84626,0.22032 1.67985,0.48959 -0.384312,0.62186 -1.91394,0.61746 -2.902252,-0.009 z"
         style="fill:none;stroke:#0000ff;stroke-width:0.10000001;stroke-miterlimit:4;stroke-dasharray:none" />
      <path
         id="path1456"
         d="m 46.099341,251.40399 c 4.924779,-1.05622 10.475161,-6.14964 10.475161,-9.61277 0,-0.72061 0.219128,-1.17475 0.486958,-1.00922 0.888751,0.5493 1.076161,-1.1808 0.254931,-2.35333 -1.235281,-1.76363 -3.903149,-2.93573 -5.81284,-2.55378 -0.91109,0.18223 -3.824161,1.32986 -6.473521,2.5503 -5.542629,2.55327 -8.930289,2.94539 -10.835389,1.25422 -0.840761,-0.74636 -1.23625,-0.847 -1.40725,-0.35812 -0.283041,0.80921 -1.235101,0.91404 -1.235101,0.136 0,-1.0014 2.162051,-2.72009 3.399761,-2.7026 1.16124,0.0164 1.17282,0.056 0.226189,0.77343 -0.951869,0.72138 -0.936269,0.79639 0.339451,1.6323 1.74311,1.14216 4.69132,0.509 9.90561,-2.12732 6.22622,-3.14795 8.705271,-3.202 11.653121,-0.25405 l 1.673918,1.67397 v -2.7834 c 0,-8.58818 -6.818339,-11.16261 -15.399049,-5.81433 -4.15084,2.58718 -7.44731,3.73728 -7.44731,2.59828 0,-0.33659 0.48956,-0.61198 1.087919,-0.61198 1.492371,0 1.372741,-0.4703 -0.650669,-2.558 -1.388071,-1.43218 -2.17123,-1.79382 -3.88458,-1.79382 -1.79964,0 -2.41891,0.32127 -3.83701,1.99057 -0.930051,1.09481 -3.10974,3.37805 -4.84375,5.07385 -5.65741,5.53278 -5.90863,10.56529 -0.72704,14.56407 0.8579,0.66207 1.80189,1.05416 2.09773,0.8713 0.90931,-0.562 8.29947,-0.27822 9.98381,0.38339 1.32742,0.5214 4.97281,1.24644 7.68232,1.52796 0.35924,0.0373 1.838229,-0.1863 3.28663,-0.49692 z"
         style="fill:none;stroke:#0000ff;stroke-width:0.10000001;stroke-miterlimit:4;stroke-dasharray:none" />
      <path
         id="path1454"
         d="m 22.846211,273.12335 c 0.007,-0.80574 -2.7146,0.28369 -3.00659,1.2037 -0.62351,1.96459 0.397969,2.38573 1.73465,0.71515 0.69809,-0.87246 1.27047,-1.73595 1.27194,-1.91885 z"
         style="fill:none;stroke:#ff0000;stroke-width:0.10000001;stroke-miterlimit:4;stroke-dasharray:none" />
      <path
         id="path1452"
         d="m 22.304961,278.62369 c 0,-0.29919 -0.349401,-0.54398 -0.776461,-0.54398 -1.307179,0 -3.058369,-2.69446 -2.694219,-4.14544 0.1863,-0.74227 0.0834,-1.29434 -0.24142,-1.29434 -0.802051,0 -1.341791,2.01536 -0.953771,3.56136 0.455641,1.81552 4.665871,4.00135 4.665871,2.4224 z"
         style="fill:none;stroke:#0000ff;stroke-width:0.10000001;stroke-miterlimit:4;stroke-dasharray:none" />
      <path
         id="path1450"
         d="m 28.832501,280.00071 c 0,-1.01313 0.215889,-1.26002 0.879209,-1.00547 0.74891,0.28739 0.78638,0.16391 0.252851,-0.83304 -0.34451,-0.64374 -1.02288,-1.17044 -1.50749,-1.17044 -0.777691,0 -0.76555,-0.1277 0.10345,-1.08796 0.9535,-1.05365 0.95008,-1.08796 -0.108251,-1.08796 -1.41312,0 -3.971459,2.37264 -3.971459,3.68318 0,0.60226 0.71913,1.37316 1.76787,1.89511 2.38801,1.18851 2.58382,1.15871 2.58382,-0.39342 z"
         style="fill:none;stroke:#0000ff;stroke-width:0.10000001;stroke-miterlimit:4;stroke-dasharray:none" />
      <path
         id="path1448"
         d="m 34.8666,295.45996 c 1.025631,-0.54892 1.030621,-0.63251 0.128821,-2.15918 -0.51596,-0.87348 -0.74903,-1.77723 -0.517931,-2.00833 0.231091,-0.23111 0.658751,0.006 0.950361,0.52724 0.63102,1.12759 2.8113,1.25039 3.67714,0.20709 0.46173,-0.55639 0.41071,-1.22787 -0.20539,-2.70242 -0.84794,-2.02951 -1.00375,-7.50206 -0.2969,-10.42868 0.32786,-1.35748 0.46508,-1.46911 0.81599,-0.66376 0.27919,0.64075 0.76799,0.85831 1.44535,0.64331 0.56293,-0.17866 1.023509,-0.0806 1.023509,0.21795 0,0.29854 -0.550759,0.62102 -1.223909,0.71663 -1.10461,0.15688 -1.23999,0.5167 -1.38891,3.69124 -0.33072,7.05022 1.86198,9.5797 8.153048,9.40533 4.765972,-0.13211 5.324333,-0.60764 4.951791,-4.21731 -0.212479,-2.05877 -0.115329,-2.99366 0.3111,-2.99366 0.341032,0 0.620062,0.73436 0.620062,1.63193 0,1.94919 0.513008,2.05289 2.018498,0.40798 1.939441,-2.11902 1.97218,-3.29302 0.14074,-5.0477 -0.980909,-0.93981 -1.989368,-2.73546 -2.475569,-4.40797 -0.45122,-1.55218 -1.17987,-2.9601 -1.619239,-3.12871 -0.625822,-0.24016 -0.386012,-0.8474 1.107339,-2.80386 2.61048,-3.42001 4.33945,-9.23158 3.849071,-12.93779 -0.429101,-3.24316 -1.884751,-6.82562 -3.222061,-7.92975 -0.781201,-0.64498 -1.2723,-0.64941 -3.21618,-0.0291 -1.261801,0.40268 -2.878331,1.29602 -3.59228,1.98517 -0.713941,0.68915 -1.489472,1.253 -1.723379,1.253 -0.23391,0 -0.812491,0.14859 -1.285722,0.3302 -0.473239,0.18159 -0.860441,0.0757 -0.860441,-0.23534 0,-0.31104 0.489572,-0.72091 1.087933,-0.91083 1.933559,-0.61371 1.154387,-1.08449 -2.043551,-1.23473 -1.71824,-0.0807 -4.2982,-0.53257 -5.73325,-1.0041 -3.96672,-1.30339 -9.634791,-1.175 -11.97484,0.27128 -2.47902,1.53216 -5.720471,5.14544 -6.683321,7.44993 -0.99474,2.38083 -0.97935,8.02487 0.0272,9.97139 1.106241,2.1393 3.60519,3.10866 5.737241,2.22551 0.89753,-0.37178 1.63188,-0.89106 1.63188,-1.15395 0,-0.26289 0.836719,-0.47799 1.85937,-0.47799 2.40559,0 3.57589,-0.46632 3.256859,-1.29772 -0.17908,-0.46669 0.301271,-0.5988 1.618241,-0.44504 1.491699,0.17415 2.00065,-0.02 2.50044,-0.95391 0.54565,-1.01959 0.37451,-1.45262 -1.31191,-3.31934 -1.62536,-1.79915 -1.93943,-2.54813 -1.93943,-4.62522 0,-1.51378 0.211719,-2.34758 0.54396,-2.14224 0.29918,0.1849 0.543959,1.27774 0.543959,2.42853 0,1.59453 0.452971,2.63453 1.903871,4.37119 1.04712,1.25336 1.90386,2.50048 1.90386,2.77136 0,0.80129 -2.10678,2.66842 -3.01092,2.66842 -0.45929,0 -1.40717,0.37486 -2.10639,0.83302 -0.699221,0.45816 -1.975711,0.92675 -2.83666,1.04133 -2.46214,0.32765 -3.4692,0.88451 -3.4692,1.91833 0,0.52602 -0.49388,1.58428 -1.0975,2.35168 -1.77249,2.25342 -0.20922,2.33958 2.24347,0.12365 2.6659,-2.40856 5.10957,-2.5445 5.10957,-0.28425 0,0.74796 0.14584,1.60473 0.3241,1.90392 0.93998,1.57769 0.85441,2.45713 -0.38458,3.95274 l -1.34204,1.62001 -1.90744,-0.9725 c -1.04909,-0.53487 -2.20222,-1.1925 -2.5625,-1.4614 -0.36029,-0.26891 -1.51181,-0.45878 -2.55893,-0.42196 -1.68799,0.0594 -2.03787,0.34087 -3.08563,2.48287 -1.870281,3.82348 -2.096831,6.52838 -0.69598,8.30933 1.25796,1.5993 6.91181,4.71417 8.556729,4.71417 0.583261,0 1.244231,-0.62205 1.589541,-1.49594 0.53222,-1.34693 0.59686,-1.37671 0.64896,-0.29902 0.10019,2.07227 3.61658,3.09274 6.091979,1.76791 z"
         style="fill:none;stroke:#0000ff;stroke-width:0.10000001;stroke-miterlimit:4;stroke-dasharray:none" />
      <path
         id="path1188"
         d="m 27.472591,296.58813 c -3.61177,-0.42266 -8.01041,-2.42631 -9.992651,-4.55178 -1.14172,-1.22422 -1.2622,-1.77513 -1.05264,-4.81365 0.13035,-1.8901 0.7298,-4.43125 1.33465,-5.65773 l 1.098001,-2.22651 -1.269281,-1.47567 c -1.39144,-1.6177 -1.59212,-3.05918 -0.66666,-4.78849 0.48436,-0.90504 0.3643,-1.55011 -0.61173,-3.28676 -1.0374,-1.84587 -1.17729,-2.73828 -0.95999,-6.12439 0.3027,-4.71682 1.82713,-7.72199 5.603251,-11.04598 l 2.47549,-2.17908 -1.65916,-1.18147 c -2.55268,-1.81772 -3.455741,-4.0287 -3.12687,-7.65558 0.154269,-1.70137 0.70685,-3.74413 1.22797,-4.53947 1.09074,-1.66474 1.18072,-1.52382 -1.63214,-2.55641 -2.947401,-1.08196 -3.702011,-3.42396 -1.912841,-5.93669 1.10719,-1.55497 1.42139,-1.68935 3.194501,-1.36632 4.9257,0.8974 8.11046,0.91725 9.76644,0.0609 2.97489,-1.53843 5.24851,-1.14333 7.56039,1.3138 1.12554,1.19625 2.46621,2.17541 2.97924,2.1759 1.16295,9.8e-4 2.22438,-1.88489 1.80481,-3.20689 -0.79171,-2.49452 1.137459,-3.79341 3.21125,-2.16211 l 1.394621,1.09704 v -1.35494 c 0,-2.14401 0.565679,-3.07585 1.867239,-3.07585 1.248341,0 3.572359,2.04403 3.572359,3.14197 0,0.34316 0.961271,0.88279 2.13614,1.19916 2.43826,0.65658 4.53571,2.86322 5.5006,5.78693 0.860092,2.60617 0.332841,7.61892 -0.990619,9.41818 -0.565131,0.7683 -1.18442,2.02857 -1.37619,2.8006 -0.191791,0.77204 -1.17057,2.24078 -2.175089,3.26387 l -1.82639,1.86018 1.482259,1.90392 c 1.6221,2.08354 2.438041,4.3417 2.990501,8.27631 0.43248,3.08014 -1.274601,9.40396 -3.365981,12.46915 l -1.349751,1.97822 0.93626,2.91758 c 0.51494,1.60467 1.752912,3.83625 2.751031,4.95906 0.998109,1.12282 1.81477,2.29773 1.81477,2.61091 0,1.09987 -1.62423,3.69428 -2.980921,4.76149 -0.753919,0.59305 -1.370769,1.44146 -1.370769,1.88534 0,2.27031 -5.87824,3.50915 -10.696069,2.25422 -2.120041,-0.5522 -3.262201,-0.6283 -3.647491,-0.24298 -0.30853,0.30854 -0.97303,0.56098 -1.47666,0.56098 -0.50362,0 -1.04294,0.48663 -1.19846,1.0814 -0.52629,2.0126 -2.82071,2.41733 -9.36342,1.65166 z"
         style="fill:none;stroke:#ff0000;stroke-width:0.10000001;stroke-miterlimit:4;stroke-dasharray:none" />
      <path
         id="path1432"
         style="fill:none;stroke:#0000ff;stroke-width:0.10000001"
         d="m 17.523644,227.46194 -0.945919,0.94592 m -0.535984,0.93511 1.977562,-1.97756 m 0.418392,-0.0193 -2.476122,2.47612 m -0.224579,0.6237 3.054031,-3.05403 m 0.35333,0.0458 -0.905417,0.90542 m -2.547197,2.5472 0.774916,-0.77492 m 3.030762,-2.63164 -0.447897,0.4479 m -3.384701,3.3847 0.506901,-0.5069 m 3.672505,-3.27338 -0.376822,0.37682 m -3.744197,3.7442 0.433664,-0.43367 m 4.034162,-3.63504 -0.390496,0.3905 m -4.016435,4.01643 0.420631,-0.42063 m 4.333108,-3.93398 -0.393638,0.39364 m -4.229436,4.22943 0.38445,-0.38445 m 4.585431,-4.18631 -0.407769,0.40777 m -4.431448,4.43145 0.389516,-0.38952 m 4.796509,-4.39738 -0.420544,0.42054 m -4.604896,4.6049 0.36695,-0.36695 m 5.005297,-4.60618 -0.433319,0.43332 m -4.752626,4.75263 0.334476,-0.33448 m 5.198277,-4.79915 -0.446094,0.44609 m -4.900357,4.90036 0.357492,-0.35749 m 5.335767,-4.93665 -0.458869,0.45887 m -5.016613,5.01661 0.349034,-0.34903 m 5.473255,-5.07413 -0.457006,0.457 m -5.132845,5.13285 0.325915,-0.32592 m 5.61892,-5.21979 -0.4603,0.4603 m -2.693183,2.69318 0.852061,-0.85206 m -3.077368,3.07737 -0.333607,0.3336 m 5.603786,-5.20466 0.483169,-0.48317 m -2.017969,2.01797 -0.240898,0.2409 m -1.123089,1.12309 0.278797,-0.2788 m -2.38471,2.38471 -0.347088,0.34709 m 5.703478,-5.30436 0.506037,-0.50604 m -2.003031,2.00304 -0.157115,0.15711 m -1.404814,1.40482 0.139283,-0.13929 m -2.17127,2.17127 -0.33954,0.33954 m 5.78214,-5.38302 0.528906,-0.5289 m -2.00767,2.00767 -0.140436,0.14043 m -1.570802,1.57081 0.07028,-0.0703 m -2.049542,2.04954 -0.339849,0.33985 m 5.860802,-5.46168 0.551774,-0.55178 m -2.06076,2.06076 -0.114915,0.11492 m -3.963874,3.96387 0.355225,-0.35522 m 6.158882,-5.75976 -0.588952,0.58895 m -1.621758,1.62176 0.130504,-0.13051 m -3.761948,3.76195 -0.383136,0.38314 m 5.983702,-5.58458 0.616146,-0.61615 m -2.16318,2.16318 -0.104823,0.10483 m -4.041945,4.04194 0.409963,-0.40996 m 6.27149,-5.87237 -0.648886,0.64889 m -1.681984,1.68198 0.125665,-0.12567 m -3.735226,3.73523 -0.451122,0.45112 m 6.081432,-5.68231 0.721361,-0.72136 m -2.286965,2.28697 -0.146508,0.14651 m -4.079419,4.07941 0.490031,-0.49003 m 6.434101,-6.03498 -0.793837,0.79384 m -1.769324,1.76933 0.194437,-0.19444 m -3.69605,3.69605 -0.569458,0.56946 m 6.17916,-5.78004 0.869872,-0.86987 m -2.44365,2.44365 -0.249111,0.24911 m -4.076392,4.07639 0.658906,-0.65891 m 6.562369,-6.16324 -1.027873,1.02787 m -1.848759,1.84876 0.368543,-0.36854 m -3.642526,3.64252 -0.804661,0.80466 m 6.219984,-5.82086 1.176243,-1.17624 m -2.561357,2.56136 -0.515487,0.51548 m -1.562981,1.56298 0.180424,-0.18042 m -1.785925,1.78592 -0.917034,0.91704 m 6.207243,-5.80812 1.637322,-1.63732 m -2.855624,2.85562 -0.701488,0.70149 m -1.457146,1.45714 0.392091,-0.39209 m -1.833775,1.83378 -1.175372,1.17537 m 2.935589,-2.53647 5.383342,-5.38334 m -6.754309,6.75431 -1.444351,1.44435 m 3.003798,-2.60467 5.568725,-5.56873 m -6.673121,6.67312 -2.70646,2.70646 m -0.399321,0.79845 10.563507,-10.56351 m 0.56624,-0.16712 -11.090598,11.0906 m 10.822857,-10.42374 0.848671,-0.84867 m -5.167354,5.16736 -6.881856,6.88185 m 11.932075,-11.53295 0.571491,-0.57149 m -11.005569,11.00557 -1.481208,1.48121 m 12.332107,-11.93299 0.623215,-0.62321 m -12.081849,12.08185 -0.990134,0.99013 m 12.876001,-12.47688 0.568589,-0.56859 m -12.987872,12.98788 -0.584963,0.58496 m 13.43148,-13.03236 0.568558,-0.56856 m -13.621145,13.62115 -0.443679,0.44368 m 13.857383,-13.45826 0.497753,-0.49776 m -13.966442,13.96645 -0.453478,0.45347 m 14.295343,-13.89622 0.436415,-0.43641 m -14.524033,14.52403 -0.272787,0.27279 m 14.733582,-14.33446 0.388068,-0.38807 m -14.91434,14.91434 -0.22831,0.22831 m 15.057957,-14.65883 0.350738,-0.35074 m -2.521717,2.52172 -0.194793,0.19479 m -1.76754,1.76754 0.272775,-0.27278 m -11.022463,11.02247 -0.195956,0.19595 m 15.385452,-14.98633 0.310286,-0.31028 m -2.453106,2.4531 -0.548325,0.54833 m -1.710108,1.7101 0.664632,-0.66463 m -11.392089,11.39209 -0.278835,0.27884 m 15.714041,-15.31492 0.269833,-0.26983 m -2.475284,2.47528 -0.717374,0.71738 m -1.613028,1.61302 0.818656,-0.81865 m -11.780881,11.78088 -0.197922,0.19792 m 15.953227,-15.55411 0.259229,-0.25922 m -2.478043,2.47804 -2.331897,2.3319 m -11.384474,11.38447 0.187483,-0.18748 m 16.238116,-15.839 -0.245937,0.24594 m -4.522346,4.52235 2.302919,-2.30292 m -13.702855,13.70285 -0.240554,0.24056 m 16.407314,-16.0082 0.232644,-0.23264 m -2.473095,2.4731 -2.224299,2.2243 m -11.884666,11.88466 0.23844,-0.23844 m 16.57658,-16.17746 -0.221126,0.22113 m -4.382151,4.38215 2.089289,-2.08929 m -13.983969,13.98397 -0.259164,0.25916 m 16.742176,-16.34305 0.219412,-0.21941 m -2.526389,2.52639 -0.112413,0.11241 m -1.807601,1.8076 0.915319,-0.91532 m -13.076424,13.07643 -0.29804,0.29804 m 16.892994,-16.49387 0.217022,-0.21703 m -2.538791,2.53879 -0.08858,0.0886 m -1.6409,1.6409 0.709873,-0.70987 m -13.158662,13.15866 -0.295991,0.29599 m 17.002886,-16.60376 0.214632,-0.21463 m -3.524062,3.52406 -0.506291,0.50629 m -13.0902,13.0902 0.313333,-0.31333 m 17.011688,-16.61257 -0.212241,0.21225 m -3.571904,3.5719 1.137388,-1.13739 m -14.237526,14.23753 -0.348289,0.34829 m 17.222458,-16.82334 0.212929,-0.21293 m -2.796362,2.79636 -0.58592,0.58592 m -13.919292,13.91929 0.34188,-0.34188 m 17.162006,-16.76288 -0.225087,0.22509 m -17.144985,17.14498 0.34486,-0.34486 m 17.227525,-16.8284 -0.237245,0.23725 m -17.201326,17.20132 0.365919,-0.36592 m 17.274965,-16.87584 -0.249403,0.2494 m -17.234425,17.23443 0.363736,-0.36374 m 17.330198,-16.93107 -0.269356,0.26935 m -17.257228,17.25723 0.35126,-0.35126 m 22.310415,-21.91129 -0.969797,0.96979 m -4.244495,4.2445 0.299371,-0.29937 m -17.221126,17.22112 -0.35828,0.35828 m 21.396438,-20.99731 1.540891,-1.54089 m -5.137752,5.13775 -0.330698,0.3307 m -17.291448,17.29145 0.359307,-0.35931 m 22.705413,-22.30629 -1.742549,1.74255 m -3.863041,3.86304 0.383185,-0.38319 m -1.892198,1.8922 -0.22106,0.22106 m -15.532181,15.53218 0.340888,-0.34089 m 22.831778,-22.43265 -0.254771,0.25477 m -1.726339,1.72634 0.378435,-0.37844 m -3.693173,3.69318 -0.446008,0.44601 m -1.706118,1.70611 0.45955,-0.45955 m -15.663719,15.66372 -0.323647,0.32365 m 22.995048,-22.59593 0.254968,-0.25496 m -1.931567,1.93156 -0.256273,0.25628 m -3.714308,3.7143 0.576177,-0.57617 m -1.523843,1.52384 -0.56372,0.56372 m -15.639606,15.63961 0.325745,-0.32575 m 25.809397,-25.41027 -0.461852,0.46185 m -2.622018,2.62202 0.247658,-0.24766 m -2.153723,2.15372 -0.220427,0.22043 m -4.753844,4.75384 1.800336,-1.80033 m -17.446552,17.44655 -0.308559,0.30856 M 46.576,223.55429 l 1.187311,-1.18732 m -3.183927,3.18393 -0.240348,0.24035 m -2.336137,2.33614 0.215399,-0.2154 m -2.952864,2.95286 -1.474141,1.47414 m -16.31838,16.31838 0.285446,-0.28544 m 26.421606,-26.02249 -1.562336,1.56234 m -2.027839,2.02784 0.222357,-0.22236 m -2.555423,2.55542 -0.252905,0.25291 m -3.767879,3.76788 1.329948,-1.32995 m -6.969667,6.96967 -0.481637,0.48164 m -10.419583,10.41958 0.263016,-0.26302 m 26.564551,-26.16543 -1.938937,1.93894 m -1.778331,1.77833 0.230243,-0.23024 m -2.629153,2.62915 -0.515594,0.51559 m -2.808333,2.80834 0.976004,-0.97601 m -6.358919,6.35892 -1.742876,1.74288 m -10.039583,10.03958 0.257956,-0.25795 m 26.626559,-26.22744 -0.422766,0.42277 m -1.829205,1.8292 0.520087,-0.52009 m -1.810782,1.81079 -0.235106,0.2351 m -5.176863,5.17686 2.77752,-2.77752 m -8.35604,8.35604 -2.460635,2.46064 m -9.658833,9.65883 0.243091,-0.24309 m 26.684113,-26.28499 -0.382458,0.38246 m -2.172264,2.17226 0.525869,-0.52587 m -1.564999,1.565 -0.261119,0.26112 m -4.677254,4.67726 2.40691,-2.40691 m -8.192749,8.19274 -2.753598,2.7536 m -9.622422,9.62242 0.226999,-0.22699 m 26.701382,-26.30226 -0.272898,0.27289 m -2.516121,2.51613 0.548719,-0.54872 m -1.364454,1.36445 -0.341673,0.34167 m -3.76557,3.76557 1.780694,-1.78069 m -8.29577,8.29577 -1.695533,1.69553 m -10.772655,10.77266 0.210906,-0.21091 m 26.718651,-26.31953 -0.221076,0.22108 m -2.802239,2.80224 0.578568,-0.57857 m -1.170908,1.17091 -3.405254,3.40525 m -8.908526,8.90853 1.872937,-1.87294 m -12.429596,12.4296 -0.210342,0.21034 m 26.738008,-26.33889 0.192725,-0.19272 m -2.579706,2.5797 -3.770667,3.77067 m -9.561419,9.56142 0.493222,-0.49322 m -11.064349,11.06435 -0.214694,0.21469 m 26.748489,-26.34936 0.18342,-0.18342 m -2.697906,2.6979 -2.927233,2.92723 m -10.299024,10.29903 0.44788,-0.44788 m -11.005656,11.00565 -0.21685,0.21685 m 26.733563,-26.33444 0.190056,-0.19005 m -2.762658,2.76266 -2.407373,2.40737 m -10.757037,10.75704 0.441093,-0.4411 m -10.956316,10.95632 -0.248208,0.24821 m -4.759155,4.75915 2.039901,-2.0399 m 29.611423,-29.2123 -0.188246,0.18825 m -4.268704,4.2687 1.697455,-1.69746 m -12.693122,12.69313 -0.442507,0.4425 m -16.63528,16.63528 6.150921,-6.15092 m 26.581153,-26.18203 -0.216384,0.21639 m -3.820619,3.82062 1.301422,-1.30143 m -12.683678,12.68368 -0.440399,0.4404 m -17.700348,17.70035 7.262732,-7.26273 m 26.477962,-26.07884 -0.243535,0.24353 m -3.266908,3.26691 0.950155,-0.95015 m -12.792679,12.79267 -0.450244,0.45025 m -17.969772,17.96977 7.592092,-7.59209 m 26.358403,-25.95928 -0.292075,0.29207 m -2.763006,2.76301 0.779412,-0.77941 m -12.985841,12.98584 -0.447973,0.44797 m -12.310916,12.31092 2.034983,-2.03499 m -7.186816,7.18682 -1.312507,1.31251 m 34.193908,-33.79479 0.445549,-0.44555 m -1.87217,1.87217 -0.807976,0.80798 M 35.582667,240.13533 36.0072,239.7108 m -10.396821,10.39682 -1.170189,1.17019 m -7.964981,7.96498 0.72499,-0.72499 m 34.096933,-33.69781 -2.282801,2.2828 m -13.139255,13.13926 0.432395,-0.4324 m -10.266513,10.26652 -1.090768,1.09076 m -8.648972,8.64898 0.473935,-0.47394 m 34.602213,-34.20309 -1.859026,1.85903 m -13.3121,13.3121 0.431204,-0.43121 m -10.157671,10.15767 -0.866484,0.86649 m -9.498939,9.49894 0.502352,-0.50235 m 34.872359,-34.47324 -1.499369,1.49937 M 36.558947,240.35644 36.953,239.96239 m -10.039226,10.03923 -0.747364,0.74736 m -10.147165,10.14716 0.413443,-0.41344 m 35.204066,-34.80494 -1.180164,1.18016 m -3.889554,3.88956 0.629099,-0.6291 m -9.845547,9.84554 -0.438935,0.43894 m -10.29536,10.29536 0.696194,-0.6962 m -10.943415,10.94342 -0.444932,0.44493 m 34.961912,-34.56279 0.98595,-0.98595 m -4.153276,4.15328 -1.047338,1.04734 m -9.360497,9.36049 0.437286,-0.43728 m -10.036976,10.03697 -0.622094,0.6221 m -11.27286,11.27286 0.46281,-0.46281 m 35.828439,-35.42932 -0.805723,0.80572 m -3.903932,3.90394 0.659459,-0.65946 m -9.896509,9.89651 -0.432393,0.43239 m -10.166477,10.16648 0.547994,-0.548 m -11.820303,11.82031 -0.518744,0.51874 m 35.937695,-35.53857 0.660849,-0.66085 m -3.840733,3.84073 -0.212142,0.21214 m -10.170633,10.17064 0.485336,-0.48534 m -10.122611,10.12261 -0.52589,0.52589 m -12.257251,12.25725 0.450735,-0.45073 m 36.465323,-36.0662 -0.526193,0.52619 m -13.495077,13.49508 0.461119,-0.46112 m -10.174052,10.17405 -0.498502,0.4985 m -12.728732,12.72873 0.452803,-0.4528 m 36.784114,-36.38499 -0.459492,0.45949 m -13.351199,13.3512 0.521752,-0.52175 m -10.32203,10.32203 -0.471114,0.47111 m -13.200717,13.20072 0.472912,-0.47291 m 37.110288,-36.71117 -0.404322,0.40432 m -13.220711,13.22071 0.698751,-0.69875 m -10.577365,10.57737 -0.452734,0.45273 m -13.643964,13.64397 0.474214,-0.47422 m 37.42653,-37.02741 -0.349153,0.34916 m -13.020695,13.02069 0.598891,-0.59889 m -10.661483,10.66148 -0.441148,0.44115 m -14.044301,14.0443 0.479267,-0.47926 m 37.737271,-37.33815 -0.328956,0.32896 m -12.782151,12.78215 0.665584,-0.66559 m -10.913959,10.91396 -0.419982,0.41998 m -14.454219,14.45422 0.484319,-0.48432 m 38.044192,-37.64507 -0.313252,0.31325 m -12.535294,12.5353 0.728672,-0.72867 m -11.16283,11.16283 -0.398815,0.39881 m -14.864137,14.86414 0.511076,-0.51108 m 38.329408,-37.93028 -0.297547,0.29754 m -12.20457,12.20457 0.78765,-0.78765 m -11.491459,11.49146 -0.377649,0.37765 m -15.27688,15.27688 0.544661,-0.54466 m 38.598822,-38.1997 -0.270043,0.27004 m -11.884763,11.88477 0.923141,-0.92314 m -11.885683,11.88568 -0.382546,0.38255 m -15.619546,15.61954 0.534233,-0.53423 m 38.846203,-38.44708 -0.267795,0.26779 m -11.520732,11.52074 0.972265,-0.97227 m -12.190475,12.19048 -0.388864,0.38886 m -15.960792,15.96079 0.523805,-0.5238 m 39.093584,-38.69447 -0.258976,0.25898 m -11.058508,11.05851 1.349422,-1.34942 m -12.928065,12.92806 -0.395181,0.39518 m -16.302038,16.30204 0.540122,-0.54012 m 39.30829,-38.90917 -0.244227,0.24423 m -10.62471,10.62471 1.080804,-1.08081 m -12.991454,12.99146 -0.401499,0.4015 m -16.642652,16.64265 0.554331,-0.55433 m 39.501633,-39.10251 -0.219054,0.21905 m -10.312056,10.31206 1.275088,-1.27509 m -13.390805,13.3908 -0.401196,0.4012 m -16.922782,16.92278 0.508056,-0.50805 m 39.694975,-39.29586 -0.21922,0.21922 m -9.715893,9.7159 1.440229,-1.44023 m -14.036739,14.03674 -0.41472,0.41472 m -17.171529,17.17153 0.461781,-0.46178 m 39.888318,-39.4892 -0.219387,0.21939 m -9.250139,9.25014 1.243192,-1.2432 m -14.190087,14.19009 -0.422266,0.42227 m -17.426253,17.42625 0.452925,-0.45293 m 40.021945,-39.62282 -0.197257,0.19726 m -8.784384,8.78438 1.210847,-1.21084 m -14.498742,14.49874 -0.439199,0.4392 m -17.668074,17.66807 0.423025,-0.42302 m 40.160367,-39.76125 -0.184413,0.18441 m -1.642741,1.64275 0.135828,-0.13583 m -5.560784,5.56078 -1.238299,1.2383 m -14.085027,14.08503 0.415534,-0.41554 m -17.932305,17.93231 -0.359779,0.35978 m 40.463799,-40.06468 0.194771,-0.19477 m -1.612135,1.61214 -0.320488,0.32048 m -6.066556,6.06656 1.083766,-1.08377 m -15.134855,15.13486 -0.39187,0.39187 m -18.085026,18.08502 0.323977,-0.32397 m 40.400582,-40.00146 -0.19594,0.19594 m -1.776053,1.77605 0.402554,-0.40255 m -4.985619,4.98562 -1.002842,1.00284 m -14.774983,14.77498 0.401489,-0.40149 m -18.360972,18.36097 -0.300787,0.30079 m 40.593438,-40.19432 0.182434,-0.18243 m -1.546702,1.5467 -0.410412,0.41042 m -5.147207,5.1472 0.950055,-0.95005 m -15.653737,15.65374 -0.393546,0.39354 m -18.442917,18.44292 0.277598,-0.2776 m 40.549586,-40.15046 -0.178323,0.17832 m -1.660943,1.66094 0.214869,-0.21487 m -4.258034,4.25804 -0.850941,0.85094 m -15.336843,15.33684 0.385603,-0.3856 m -18.734954,18.73495 -0.273417,0.27342 m 40.67613,-40.27701 0.199572,-0.19957 m -5.610598,5.6106 -0.688445,0.68844 m -15.639838,15.63984 0.37766,-0.37766 m -18.885466,18.88547 -0.293463,0.29346 m 40.702047,-40.30293 0.202313,-0.20231 m -5.299179,5.29918 -0.725504,0.72551 m -15.764356,15.76435 0.369717,-0.36972 m -19.035978,19.03598 -0.313508,0.31351 m 40.727965,-40.32884 0.200431,-0.20043 m -5.092798,5.09279 -0.598317,0.59832 m -15.944283,15.94428 0.372076,-0.37207 m -19.188433,19.18843 -0.341089,0.34109 m 40.749762,-40.35064 0.20267,-0.20267 m -4.886417,4.88642 -0.580515,0.58051 m -16.014641,16.01464 0.384817,-0.38481 m -19.321883,19.32188 -0.41134,0.41134 m 40.754377,-40.35525 0.23519,-0.23519 m -4.634708,4.6347 -0.621702,0.6217 m -16.071339,16.07135 0.397559,-0.39756 m -6.294497,6.29449 -0.05793,0.0579 m -13.607359,13.60736 0.504455,-0.50445 m 40.518002,-40.11888 -0.240601,0.2406 m -4.828332,4.82833 0.587361,-0.58736 m -16.254943,16.25494 -0.410301,0.4103 m -6.381484,6.38149 0.271677,-0.27168 m -13.069504,13.06951 -0.596742,0.59674 m 40.809336,-40.41022 0.249813,-0.24981 m -4.321303,4.3213 -0.53334,0.53334 m -16.091129,16.09113 0.399132,-0.39913 m -6.751618,6.75162 -0.368943,0.36894 m -13.327454,13.32746 0.761144,-0.76115 m 40.369791,-39.97067 -0.25674,0.25674 m -4.409173,4.40918 0.504878,-0.50488 m -16.163101,16.1631 -0.426048,0.42605 m -7.069144,7.06914 0.427504,-0.4275 m -12.749072,12.74907 -1.011871,1.01187 m 40.988385,-40.58926 0.287933,-0.28794 m -3.979476,3.97948 -0.515941,0.51594 m -16.046448,16.04645 0.393702,-0.3937 m -7.312619,7.31262 -0.49212,0.49212 m -13.574733,13.57473 1.486219,-1.48622 m 40.153308,-39.75418 -0.307467,0.30746 m -4.008168,4.00817 0.470385,-0.47038 m -16.075698,16.07569 -0.40094,0.40094 m -7.721981,7.72198 0.481573,-0.48157 m -12.32414,12.32414 -2.008252,2.00825 m 41.67958,-41.28045 0.327,-0.327 m -3.711023,3.71102 -0.424829,0.42483 m -15.953199,15.9532 0.395317,-0.39532 m -7.961028,7.96103 -0.480074,0.48007 m -14.071471,14.07147 2.47485,-2.47485 m 39.843349,-39.44422 -0.337334,0.33733 m -3.648038,3.64804 0.408576,-0.40858 m -15.889724,15.88973 -0.386927,0.38692 m -8.390594,8.3906 0.509205,-0.50921 m -11.846658,11.84666 -0.619019,0.61902 m -2.147655,2.14765 0.642462,-0.64246 m 41.784996,-41.38587 -0.359928,0.35993 m -3.440971,3.44097 0.390931,-0.39093 m -4.438215,4.43821 -0.09747,0.0975 m -11.639592,11.63959 0.378537,-0.37854 m -8.576468,8.57647 -0.456094,0.4561 m -11.824666,11.82466 0.713319,-0.71332 m -2.455361,2.45536 -0.66308,0.66308 m 42.165821,-41.76669 0.380402,-0.38041 m -3.260292,3.2603 -0.354012,0.35401 m -4.129909,4.12991 0.247222,-0.24723 m -11.447775,11.44778 -0.370147,0.37015 m -8.917458,8.91745 0.402984,-0.40298 m -11.288224,11.28822 -0.894152,0.89416 m -2.525348,2.52534 0.590479,-0.59048 m 42.023799,-41.62467 -0.400875,0.40087 m -3.052711,3.05271 0.328024,-0.32802 m -4.069128,4.06913 -0.299156,0.29915 m -11.550739,11.55074 0.360826,-0.36082 m -9.131263,9.13126 -0.410451,0.41045 m -11.8332,11.8332 1.183204,-1.1832 m -3.100287,3.10028 -0.563076,0.56308 m 42.194237,-41.79511 0.395328,-0.39533 m -2.964396,2.96439 -0.302146,0.30215 m -3.927538,3.92754 0.342236,-0.34224 m -11.529992,11.52999 -0.338896,0.3389 m -9.439184,9.43918 0.388141,-0.38814 m -10.78983,10.78983 -1.65098,1.65098 m -2.292829,2.29283 0.473061,-0.47306 m 42.071707,-41.67258 -0.398759,0.39875 m -2.669362,2.66937 0.276269,-0.27627 m -3.762834,3.76283 -0.328248,0.32825 m -11.510255,11.51026 0.324654,-0.32466 m -9.648614,9.64862 -0.33567,0.33567 m -12.209954,12.20995 2.008876,-2.00888 m -3.779737,3.77974 -0.392938,0.39294 m 42.047219,-41.6481 0.418708,-0.41871 m -2.619309,2.61931 -0.273093,0.2731 m -3.504404,3.5044 0.129292,-0.12929 m -11.487722,11.48772 -0.310412,0.31041 m -9.880074,9.88008 0.304215,-0.30422 m -10.209879,10.20988 -2.460136,2.46014 m -2.027363,2.02736 0.303969,-0.30397 m 42.07427,-41.67515 -0.438657,0.43866 m -2.281941,2.28194 0.267345,-0.26734 m -14.988682,14.98868 -0.333458,0.33346 m -10.063232,10.06323 0.301016,-0.30102 m -9.940169,9.94017 -0.803877,0.80388 m -2.005688,2.00569 0.4364,-0.4364 m -2.085724,2.08572 -0.291292,0.29129 m 41.776833,-41.37771 0.445329,-0.44533 m -2.247898,2.2479 -0.255745,0.25574 m -14.861655,14.86166 0.281814,-0.28181 m -10.305074,10.30507 -0.273712,0.27371 m -10.142661,10.14266 1.051244,-1.05124 m -3.32211,3.32211 -0.122216,0.12221 m -1.872903,1.87291 0.269506,-0.26951 m 41.807111,-41.40799 -0.408546,0.40855 m -1.910707,1.91071 0.265213,-0.26522 m -14.70839,14.70839 -0.241599,0.2416 M 31.954294,262.92161 32.1901,262.6858 m -9.007419,9.00742 -1.010666,1.01067 m -4.632911,4.63291 0.23784,-0.23784 m 41.669863,-41.27074 -0.414247,0.41424 m -1.729354,1.72936 0.283419,-0.28342 m -14.466662,14.46666 -0.315915,0.31591 m -10.668595,10.6686 0.197901,-0.1979 m -7.414069,7.41407 -2.249535,2.24953 m -4.956032,4.95603 0.249171,-0.24917 m 41.455095,-41.05597 -0.385424,0.38543 m -1.548002,1.548 0.301625,-0.30163 m -14.224933,14.22494 -0.390232,0.39023 m -10.854407,10.8544 0.194326,-0.19432 m -7.144744,7.14474 -2.413558,2.41356 m -5.059795,5.0598 0.255995,-0.256 m 41.240894,-40.84177 -0.357168,0.35717 m -1.390316,1.39031 0.343495,-0.34349 m -13.992407,13.9924 -0.455345,0.45535 m -11.040219,11.04022 0.185959,-0.18596 m -6.870627,6.87063 -2.707788,2.70779 m -5.027917,5.02791 0.257384,-0.25738 m 41.026693,-40.62757 -0.328913,0.32891 m -1.250632,1.25063 0.403371,-0.40337 m -13.702434,13.70243 -0.620232,0.62024 m -11.182821,11.18282 0.176706,-0.17671 m -6.590828,6.59083 -3.499629,3.49963 m -2.852486,2.85248 0.212824,-0.21282 m -1.576782,1.57678 -0.287664,0.28767 m 40.770607,-40.37149 0.265585,-0.26558 m -0.913288,0.91329 -0.480051,0.48005 m -13.709834,13.70983 0.777426,-0.77742 m -11.943089,11.94308 -0.165636,0.16564 m -7.350184,7.35018 1.174433,-1.17443 m -3.043383,3.04338 -3.559634,3.55964 m -1.638396,1.63839 0.323233,-0.32323 m 40.460515,-40.06139 -1.209814,1.20981 m -13.548144,13.54815 0.989631,-0.98963 m -2.515258,2.51525 -0.2793,0.2793 m -9.619837,9.61984 0.154565,-0.15456 m -6.091946,6.09194 -1.123499,1.1235 m -5.723488,5.72349 3.287829,-3.28783 m -4.561128,4.56113 -0.358802,0.3588 m 39.423366,-39.02424 1.107936,-1.10794 m -13.200029,13.20003 -1.263978,1.26398 m -1.871142,1.87114 0.654734,-0.65474 m -10.106734,10.10674 -0.143823,0.14382 m -6.683889,6.68389 0.984879,-0.98488 m -4.237667,4.23767 -2.829173,2.82917 m -1.649924,1.64993 0.401682,-0.40169 m 39.816154,-39.41703 -0.945036,0.94504 m -1.180914,1.18091 0.09946,-0.0995 m -10.517074,10.51707 -3.132548,3.13255 m -9.942093,9.94209 0.13315,-0.13315 m -5.592424,5.59243 -0.918702,0.9187 m -6.369358,6.36936 2.340788,-2.34079 m -3.543296,3.54329 -0.465237,0.46524 m 37.843415,-37.44429 2.066581,-2.06658 m -11.843452,11.84345 -3.109622,3.10962 m -10.356747,10.35675 0.121242,-0.12124 m -3.686123,3.68612 -0.157619,0.15762 m -2.350798,2.3508 0.948813,-0.94882 m -6.415608,6.41561 -1.149767,1.14977 m -1.693932,1.69393 0.496965,-0.49696 m 39.230542,-38.83142 -2.10901,2.10901 m -12.393965,12.39396 3.353412,-3.35341 m -13.899722,13.89972 -0.13921,0.13921 m -5.66568,5.66568 2.372117,-2.37211 m -8.583496,8.58349 -0.722858,0.72286 m -2.325505,2.3255 1.124911,-1.12491 m 38.527129,-38.128 -1.681097,1.68109 m -12.023875,12.02388 3.493649,-3.49365 m -14.202897,14.2029 -0.160626,0.16062 m -5.274482,5.27448 2.201073,-2.20107 m -8.908702,8.9087 -0.438933,0.43894 m -3.044483,3.04448 1.792872,-1.79287 m 37.745206,-37.34609 -1.343744,1.34375 m -10.169739,10.16974 2.570542,-2.57054 m -14.795795,14.79579 -0.182042,0.18204 m -5.003093,5.00309 2.149961,-2.14996 m -9.018351,9.01835 -0.359558,0.35956 m -3.785758,3.78576 2.471999,-2.472 m 36.798978,-36.39985 -0.991919,0.99191 m -8.301884,8.30189 1.731772,-1.73177 m -15.336917,15.33691 -0.226886,0.22689 m -4.087373,4.08737 1.48289,-1.48289 m -8.928314,8.92832 -0.536824,0.53682 m -4.571825,4.57183 3.234318,-3.23432 m 36.500978,-36.10186 -1.328767,1.32877 m -6.965882,6.96588 2.426981,-2.42698 m -16.826108,16.82611 -0.319718,0.31972 m -3.346686,3.34668 1.066736,-1.06673 m -8.676518,8.67651 -0.962596,0.9626 m -1.866842,1.86684 0.631597,-0.63159 m -1.992074,1.99207 -1.570832,1.57083 m 32.052058,-31.65293 7.158548,-7.15855 m -22.020935,22.02093 -0.488216,0.48822 m -2.727302,2.7273 0.856162,-0.85616 m -7.433297,7.4333 -2.429699,2.4297 m -1.423069,1.42306 0.363464,-0.36346 m -3.14099,3.14099 -0.91953,0.91953 m 32.662808,-32.26369 6.637963,-6.63796 m -21.803585,21.80359 -2.810741,2.81074 m -10.542554,10.54255 4.563989,-4.56399 m -8.096709,8.09671 -0.782941,0.78294 m 33.523776,-33.12465 5.66157,-5.66157 m -21.38527,21.38527 -2.499028,2.49903 m -10.592581,10.59258 5.215284,-5.21529 m -9.437399,9.4374 -0.585004,0.58501 m 34.123187,-33.72407 4.693079,-4.69308 m -20.789421,20.78942 -1.841879,1.84188 m -10.985504,10.98551 5.546578,-5.54658 m -10.393322,10.39332 -0.451371,0.45137 m 34.696112,-34.29699 1.018397,-1.01839 m -17.937303,17.9373 -0.448178,0.44818 m -6.532193,6.53219 0.630621,-0.63062 m -4.119223,4.11922 -1.634534,1.63454 m -5.803022,5.80302 0.34853,-0.34853 m 35.66905,-35.26993 -0.803036,0.80304 m -23.811837,23.81183 0.502868,-0.50286 m -4.602513,4.60251 -1.124457,1.12446 m -6.2222,6.2222 0.268872,-0.26888 m 35.967014,-35.56789 -0.641349,0.64135 m -23.802168,23.80217 0.523342,-0.52334 m -4.861849,4.86185 -0.856078,0.85608 m -6.651324,6.65132 0.175794,-0.1758 m 36.288343,-35.88922 -0.518344,0.51835 m -23.648534,23.64853 0.322596,-0.32259 m -4.984817,4.98481 -0.674364,0.67437 m -7.131501,7.1315 0.280364,-0.28037 m 36.529311,-36.13019 -0.450627,0.45063 m -23.593942,23.59394 0.233442,-0.23344 m -5.025267,5.02527 -0.516901,0.5169 m -7.383864,7.38386 0.136871,-0.13687 m 36.774999,-36.37587 -0.383628,0.38362 m -23.901281,23.90129 0.450518,-0.45052 m -5.006437,5.00643 -0.425832,0.42584 m -7.664182,7.66418 0.196276,-0.19628 m 36.909277,-36.51015 -0.351533,0.35153 m -25.275141,25.27514 1.68936,-1.68936 m -4.864767,4.86477 -0.377889,0.37789 m -7.944556,7.94455 0.145878,-0.14587 m 37.153359,-36.75424 -0.330543,0.33054 m -25.096754,25.09676 1.367282,-1.36728 m -4.70332,4.70331 -0.337177,0.33718 m -8.217697,8.2177 0.160819,-0.16082 m 37.332101,-36.93298 -0.309074,0.30907 m -24.974626,24.97463 1.082914,-1.08291 m -4.515075,4.51507 -0.305193,0.30519 m -8.497426,8.49743 0.24972,-0.24972 m 37.433299,-37.03418 -0.3101,0.3101 m -24.866481,24.86648 0.842518,-0.84251 m -4.296975,4.29697 -0.300385,0.30039 m -8.720349,8.72035 0.273734,-0.27374 m 37.537212,-37.13809 -0.305762,0.30576 m -24.781522,24.78153 0.625309,-0.62531 m -4.078876,4.07887 -0.295577,0.29558 m -8.943271,8.94327 0.317011,-0.31701 m 37.621862,-37.22274 -0.302569,0.30257 m -24.729306,24.72931 0.487601,-0.4876 m -3.901252,3.90125 -0.295907,0.2959 m -9.186819,9.18682 0.415709,-0.4157 m 37.671717,-37.2726 -0.314613,0.31461 m -24.672597,24.6726 0.373986,-0.37399 m -3.719301,3.71931 -0.313912,0.31391 m -9.347359,9.34736 0.429891,-0.42989 m 37.723079,-37.32396 -0.332714,0.33271 m -24.636214,24.63622 0.286754,-0.28676 m -3.537351,3.53735 -0.331917,0.33192 m -9.49483,9.49483 0.452606,-0.45261 m 37.75284,-37.35371 -0.350816,0.35081 m -24.614589,24.61459 0.255795,-0.25579 m -3.396915,3.39691 -0.349923,0.34993 m -9.617652,9.61765 0.475675,-0.47568 m 37.757599,-37.35847 -0.373206,0.3732 m -24.605664,24.60567 0.2388,-0.2388 m -1.257722,1.25772 -0.09503,0.095 m -2.268625,2.26863 0.367928,-0.36793 m -9.609659,9.60966 -0.452329,0.45233 m 37.805605,-37.40648 0.373017,-0.37302 m -24.734465,24.73446 -0.23589,0.23589 m -1.372029,1.37203 0.551275,-0.55127 m -2.055229,2.05523 -0.378619,0.37862 m -9.775903,9.7759 0.444534,-0.44454 m 37.68031,-37.28118 -0.373703,0.3737 m -24.598314,24.59831 0.242283,-0.24228 m -0.879507,0.87951 -0.792501,0.7925 m -1.682853,1.68285 0.415131,-0.41513 m -9.811338,9.81134 -0.466279,0.46628 m 37.696677,-37.29756 0.37439,-0.37439 m -24.788133,24.78814 -1.770831,1.77083 m -1.38527,1.38527 0.469807,-0.46981 m -9.930854,9.93085 -0.479725,0.47973 m 37.623502,-37.22438 0.385489,-0.38549 m -24.896814,24.89682 -2.907059,2.90705 m -9.998024,9.99803 0.472138,-0.47214 m 37.453745,-37.05462 -0.409466,0.40946 m -27.254046,27.25405 2.553186,-2.55319 m -12.121612,12.12161 -0.486851,0.48686 m 37.409331,-37.01021 0.433443,-0.43345 m -25.472039,25.47204 -2.051111,2.05111 m -10.11253,10.11253 0.505406,-0.5054 m 37.235451,-36.83633 -0.43861,0.43861 m -26.925371,26.92537 1.129555,-1.12955 m -10.775377,10.77537 -0.516728,0.51673 m 37.187929,-36.7888 0.427437,-0.42744 m -36.872989,36.87299 -0.51183,0.51183 m 37.057391,-36.65827 0.416264,-0.41627 m -36.727464,36.72747 -0.515644,0.51564 m 36.926853,-36.52773 0.405091,-0.40509 m -36.569773,36.56977 -0.531624,0.53163 m 36.795608,-36.39649 0.394624,-0.39462 m -36.412081,36.41208 -0.547603,0.5476 m 36.645807,-36.24668 0.402712,-0.40271 m -36.25439,36.25439 -0.546502,0.5465 m 36.46538,-36.06626 0.424348,-0.42435 m -36.096699,36.0967 -0.543559,0.54356 m 36.28311,-35.88399 0.427557,-0.42755 m -35.920582,35.92058 -0.540616,0.54061 m 36.100841,-35.70171 0.420528,-0.42053 m -35.734226,35.73422 -0.537673,0.53768 m 35.91857,-35.51945 0.4135,-0.4135 m -35.547871,35.54787 -0.53473,0.53473 m 35.736301,-35.33718 0.406472,-0.40647 m -35.361516,35.36152 -0.51155,0.51155 m 35.533794,-35.13468 0.399444,-0.39944 m -35.175162,35.17516 -0.491894,0.49189 m 35.329735,-34.93061 0.397492,-0.39749 m -34.984579,34.98458 -0.476466,0.47647 m 35.084624,-34.6855 0.436593,-0.4366 m -34.775946,34.77595 -0.47909,0.47909 m 34.839514,-34.44039 0.475694,-0.4757 m -34.567312,34.56731 -0.475614,0.47562 m 34.588303,-34.18918 0.478363,-0.47836 m -34.322246,34.32224 -0.462159,0.46216 m 34.3223,-33.92318 0.481276,-0.48127 m -17.973641,17.97364 -0.315883,0.31588 m -16.231791,16.23179 0.448704,-0.4487 m 34.091784,-33.69266 -0.529415,0.52941 m -17.830225,17.83023 0.522047,-0.52205 m -15.985386,15.98538 -0.435249,0.43525 m 33.699848,-33.30072 0.608744,-0.60875 m -17.708299,17.7083 -0.793311,0.79331 m -15.524721,15.52472 0.421794,-0.42179 m 33.511098,-33.11197 -0.643942,0.64394 m -17.853142,17.85314 1.111202,-1.1112 m -15.85641,15.85641 -0.39906,0.39906 m 33.056437,-32.65732 0.552392,-0.55239 m -17.070379,17.07038 -1.441682,1.44168 m -14.797675,14.79768 0.368772,-0.36877 m 32.908442,-32.50932 -0.59988,0.59988 m -17.927158,17.92715 1.817944,-1.81794 m -15.930542,15.93054 -0.338484,0.33849 m 32.298229,-31.89911 0.596355,-0.59636 m -16.147629,16.14763 -0.416853,0.41686 m -1.925094,1.92509 0.832512,-0.83251 m -14.616224,14.61622 -0.322202,0.32221 m 31.919615,-31.5205 0.597712,-0.59771 m -15.531236,15.53124 -0.550246,0.55024 m -2.338651,2.33865 0.679749,-0.67975 m -14.15945,14.15945 -0.3184,0.3184 m 31.506435,-31.10731 0.633636,-0.63364 m -15.222479,15.22248 -0.292531,0.29253 m -2.83568,2.83569 0.591604,-0.59161 m -13.767294,13.76729 -0.297923,0.29793 m 31.054073,-30.65495 0.774214,-0.77422 m -17.768852,17.76886 -0.594542,0.59454 m -13.14659,13.14659 0.265678,-0.26568 m 31.009172,-30.61005 -0.807854,0.80785 m -17.329126,17.32913 0.575178,-0.57518 m -13.107326,13.10733 -0.287419,0.28742 m 30.125224,-29.7261 0.70798,-0.70798 m -17.466543,17.46654 -0.555813,0.55581 m -12.492546,12.49255 0.309161,-0.30916 m 30.082398,-29.68328 -0.79058,0.79058 M 38.46091,283.95445 38.997359,283.418 m -10.459781,10.45978 -0.520041,0.52004 m -1.73702,1.73702 0.528097,-0.5281 m 29.368434,-28.96931 -0.935191,0.93519 m -16.796856,16.79686 0.547157,-0.54716 m -10.376983,10.37698 -1.966134,1.96614 m 28.482318,-28.0832 0.871505,-0.8715 m -17.011142,17.01114 -0.516708,0.51671 m -11.483639,11.48363 1.706307,-1.7063 m 27.130997,-26.73188 -0.999835,0.99984 m -16.323818,16.32382 0.486259,-0.48626 m -10.130137,10.13013 -1.527438,1.52744 m 27.202085,-26.80296 1.030668,-1.03067 m -16.575614,16.57562 -0.45581,0.45581 m -10.87476,10.87476 1.371581,-1.37158 m 26.293843,-25.89473 -1.690986,1.69099 m -15.069665,15.06967 0.425361,-0.42537 m -9.787841,9.78785 -1.154955,1.15495 m 25.521831,-25.12271 1.708504,-1.7085 m -16.287975,16.28797 -0.394913,0.39492 m -10.185407,10.1854 1.018778,-1.01877 m 25.231246,-24.83213 -2.845348,2.84535 m -13.189256,13.18926 0.39408,-0.39408 m -9.358301,9.3583 -0.88916,0.88916 m 22.613579,-22.21446 3.179491,-3.17949 m -15.501533,15.50153 -0.408143,0.40815 m -9.521355,9.52135 0.760789,-0.76079 m 23.837852,-23.43873 -2.436311,2.43631 m -12.601141,12.60114 0.412384,-0.41238 m -8.94394,8.94394 -0.667593,0.66759 m 22.010141,-21.61102 1.081336,-1.08133 m -13.435869,13.43587 -0.393395,0.39339 m -4.065473,4.06547 0.148526,-0.14852 m -4.393542,4.39354 -0.589686,0.58969 m 21.8634,-21.46428 0.757788,-0.75779 m -13.283542,13.28354 -0.374406,0.37441 m -4.067155,4.06715 0.287581,-0.28758 m -4.305018,4.30502 -0.498758,0.49876 m 21.692315,-21.29319 0.635431,-0.63543 m -13.325915,13.32591 -0.357754,0.35775 m -4.024524,4.02453 0.350481,-0.35048 m -4.16192,4.16192 -0.432176,0.43217 m 21.478763,-21.07964 0.570009,-0.57001 m -13.346513,13.34652 -0.338941,0.33894 m -4.005373,4.00537 0.414962,-0.41496 m -4.005093,4.00509 -0.391875,0.39188 m 21.254251,-20.85513 0.515546,-0.51555 m -13.360882,13.36089 -0.326358,0.32635 m -3.96583,3.96583 0.467555,-0.46755 m -3.867701,3.8677 -0.340643,0.34064 m 21.035838,-20.63671 0.454984,-0.45499 m -13.37525,13.37525 -0.313706,0.31371 m -3.926565,3.92656 0.571675,-0.57167 m -3.722674,3.72267 -0.348363,0.34837 m 20.783929,-20.38481 0.427918,-0.42792 m -13.362366,13.36237 -0.315875,0.31587 m -3.891302,3.8913 0.674845,-0.67484 m -3.571584,3.57158 -0.338438,0.33844 m 20.500478,-20.10135 0.401206,-0.40121 m -13.348878,13.34888 -0.318647,0.31865 m -3.856039,3.85603 0.82376,-0.82376 m -3.471981,3.47198 -0.329893,0.3299 m 20.224148,-19.82503 0.374494,-0.37449 m -13.335391,13.33539 -0.315294,0.31529 m -3.8269,3.8269 0.986283,-0.98628 m -3.289411,3.28941 -0.417925,0.41793 m 19.944093,-19.54497 0.351508,-0.35151 m -13.287736,13.28773 -0.383904,0.38391 m -3.779146,3.77914 1.210594,-1.21059 m -3.19448,3.19448 -0.469305,0.46931 m 19.653895,-19.25478 0.347046,-0.34704 m -13.245018,13.24501 -0.455533,0.45554 m -3.758965,3.75896 1.504084,-1.50408 m -2.687303,2.6873 -0.882764,0.88277 m 19.279879,-18.88076 0.352648,-0.35265 m -13.200858,13.20086 -0.566385,0.56638 m -5.419958,5.41996 3.548207,-3.54821 m 15.751313,-15.35219 -0.363541,0.36355 m -18.592938,18.59293 5.813241,-5.81324 m 13.255556,-12.85643 -0.372892,0.37289 m -15.444591,15.44459 2.731865,-2.73186 m -4.056302,4.0563 -1.198087,1.19809 m 18.072697,-17.67358 0.379629,-0.37963 m -13.009312,13.00931 -2.248574,2.24858 m -2.354918,2.35492 0.07531,-0.0753 m 17.649812,-17.25069 -0.386365,0.38636 m -14.515485,14.51549 1.981042,-1.98105 m 13.05597,-12.65684 -0.415946,0.41594 m -13.911543,13.91155 1.472342,-1.47235 m 12.988764,-12.58964 -0.44062,0.44062 m -13.326302,13.3263 1.005113,-1.00511 m 12.895426,-12.4963 -0.442662,0.44266 m -13.04313,13.04313 0.822271,-0.82227 m 12.797138,-12.39801 -0.444704,0.4447 m -12.842217,12.84221 0.724387,-0.72438 m 12.69615,-12.29703 -0.446747,0.44675 m -12.623384,12.62338 0.636723,-0.63672 m 12.581863,-12.18274 -0.463627,0.46362 m -12.404554,12.40456 0.54906,-0.54906 m 12.470325,-12.0712 -0.466575,0.46657 m -12.232009,12.23201 0.501359,-0.50136 m 12.348428,-11.9493 -0.461974,0.46197 m -12.063469,12.06347 0.469913,-0.46991 m 12.206734,-11.80761 -0.457373,0.45737 m -11.89493,11.89493 0.443594,-0.4436 m 12.059913,-11.66079 -0.452771,0.45277 m -11.726393,11.7264 0.424504,-0.42451 m 11.918793,-11.51967 -0.450193,0.45019 m -11.561044,11.56105 0.414412,-0.41441 m 11.769316,-11.37019 -0.437976,0.43797 m -11.411334,11.41133 0.397801,-0.3978 m 11.623999,-11.22487 -0.425759,0.42576 m -11.261623,11.26162 0.412966,-0.41297 m 11.446906,-11.04778 -0.413542,0.41354 m -11.111912,11.11191 0.428131,-0.42813 m 11.269813,-10.87069 -0.396622,0.39662 m -10.966904,10.96691 0.445538,-0.44554 m 11.095091,-10.69597 -0.379738,0.37974 m -3.43206,3.43206 0.192982,-0.19298 m -7.088743,7.08874 -0.498652,0.49865 m 11.020461,-10.62134 0.36271,-0.36271 m -3.652119,3.65212 -0.301943,0.30194 m -7.04619,7.04619 0.503265,-0.50326 m 10.673947,-10.27482 -0.356149,0.35615 m -3.782264,3.78226 0.385697,-0.3857 m -6.533698,6.5337 -0.519583,0.51958 m 10.615574,-10.21645 0.367382,-0.36738 m -3.88188,3.88188 -0.434572,0.43457 m -6.295289,6.29529 0.535901,-0.5359 m 10.2528,-9.85368 -0.378615,0.37862 m -4.086752,4.08675 0.435136,-0.43514 m -5.788192,5.78819 -0.599063,0.59907 m 10.175355,-9.77623 0.419091,-0.4191 m -4.173366,4.17337 -0.440915,0.44092 m -5.608951,5.60895 0.580364,-0.58037 m 9.819828,-9.4207 -0.476194,0.47619 m -4.286786,4.28679 0.446544,-0.44655 m -5.085668,5.08567 -0.569051,0.56905 m 9.589444,-9.19032 0.539651,-0.53965 m -4.440487,4.44049 -0.452943,0.45294 m -4.822853,4.82285 0.573963,-0.57396 m 9.296463,-8.89734 -0.657018,0.65702 m -4.363063,4.36306 0.531646,-0.53165 m -4.375742,4.37575 -0.593437,0.59343 m 8.79049,-8.39137 0.800508,-0.8005 m -4.466506,4.4665 -0.722776,0.72278 m -3.988905,3.9889 0.599768,-0.59976 m 8.687205,-8.28809 -1.316789,1.31679 m -3.90375,3.90375 0.853777,-0.85377 m -3.872173,3.87217 -0.574418,0.57442 m 3.57711,-3.17799 5.152003,-5.152 m -7.732923,7.73292 -0.528626,0.52863 m 3.107931,-2.70881 4.967405,-4.96741 m -7.01229,7.01229 -0.595482,0.59548 m 0.397713,10e-4 6.380529,-6.38053 m -0.940957,1.34008 -4.75237,4.75237 m 0.558454,-0.15933 1.985107,-1.98511 m -0.20997,0.6091 -0.944292,0.94429 m 0.469425,-0.0703 0.295572,-0.29557"
         inkscape:connector-curvature="0" />
    </g>
  </g>
</svg>
